<?xml version="1.0" encoding="UTF-8" standalone="no"?>
<!DOCTYPE svg PUBLIC "-//W3C//DTD SVG 1.1//EN"
 "http://www.w3.org/Graphics/SVG/1.1/DTD/svg11.dtd">
<!-- Generated by graphviz version 2.38.0 (20140413.2041)
 -->
<!-- Title: arwStopRunning Pages: 1 -->
<!--zoomable 484 -->
<svg id="main" version="1.1" xmlns="http://www.w3.org/2000/svg" xmlns:xlink="http://www.w3.org/1999/xlink" xml:space="preserve" onload="init(evt)">
<style type="text/css"><![CDATA[
.edge:hover path { stroke: red; }
.edge:hover polygon { stroke: red; fill: red; }
]]></style>
<script type="text/javascript"><![CDATA[
var edges = document.getElementsByTagName('g');
if (edges && edges.length) {
  for (var i=0;i<edges.length;i++) {
    if (edges[i].id.substr(0,4)=='edge') {
      edges[i].setAttribute('class','edge');
    }
  }
}
]]></script>
        <defs>
                <circle id="rim" cx="0" cy="0" r="7"/>
                <circle id="rim2" cx="0" cy="0" r="3.5"/>
                <g id="zoomPlus">
                        <use xlink:href="#rim" fill="#404040">
                                <set attributeName="fill" to="#808080" begin="zoomplus.mouseover" end="zoomplus.mouseout"/>
                        </use>
                        <path d="M-4,0h8M0,-4v8" fill="none" stroke="white" stroke-width="1.5" pointer-events="none"/>
                </g>
                <g id="zoomMin">
                        <use xlink:href="#rim" fill="#404040">
                                <set attributeName="fill" to="#808080" begin="zoomminus.mouseover" end="zoomminus.mouseout"/>
                        </use>
                        <path d="M-4,0h8" fill="none" stroke="white" stroke-width="1.5" pointer-events="none"/>
                </g>
                <g id="dirArrow">
                        <path fill="none" stroke="white" stroke-width="1.5" d="M0,-3.0v7 M-2.5,-0.5L0,-3.0L2.5,-0.5"/>
                </g>
               <g id="resetDef">
                       <use xlink:href="#rim2" fill="#404040">
                               <set attributeName="fill" to="#808080" begin="reset.mouseover" end="reset.mouseout"/>
                       </use>
               </g>
        </defs>

<script type="text/javascript">
var viewWidth = 739;
var viewHeight = 484;
var sectionId = 'dynsection-43';
</script>
<script xlink:href="svgpan.js"/>
<svg id="graph" class="graph">
<g id="viewport">
<title>arwStopRunning</title>
<polygon fill="white" stroke="none" points="-4,4 -4,-480 735,-480 735,4 -4,4"/>
<!-- Node1 -->
<g id="node1" class="node"><title>Node1</title>
<polygon fill="#bfbfbf" stroke="black" points="0,-247.5 0,-266.5 89,-266.5 89,-247.5 0,-247.5"/>
<text text-anchor="middle" x="44.5" y="-254.5" font-family="Helvetica,sans-Serif" font-size="10.00">arwStopRunning</text>
</g>
<!-- Node2 -->
<g id="node2" class="node"><title>Node2</title>
<g id="a_node2"><a xlink:href="class_a_r_controller.html#a889dbbe581e771d1f4f2e28fad3f686b" target="_top" xlink:title="Video capture and marker detection stops, but markers are still valid and can be configured. ">
<polygon fill="white" stroke="black" points="125,-247.5 125,-266.5 259,-266.5 259,-247.5 125,-247.5"/>
<text text-anchor="middle" x="192" y="-254.5" font-family="Helvetica,sans-Serif" font-size="10.00">ARController::stopRunning</text>
</a>
</g>
</g>
<!-- Node1&#45;&gt;Node2 -->
<g id="edge1" class="edge"><title>Node1&#45;&gt;Node2</title>
<path fill="none" stroke="midnightblue" d="M89.1548,-257C97.2168,-257 105.85,-257 114.553,-257"/>
<polygon fill="midnightblue" stroke="midnightblue" points="114.773,-260.5 124.773,-257 114.773,-253.5 114.773,-260.5"/>
</g>
<!-- Node3 -->
<g id="node3" class="node"><title>Node3</title>
<g id="a_node3"><a xlink:href="class_a_r_video_source.html#ae67083e64b2b3c6d7aa6d8cbe33ef95f" target="_top" xlink:title="Closes the video source. ">
<polygon fill="white" stroke="black" points="295,-247.5 295,-266.5 411,-266.5 411,-247.5 295,-247.5"/>
<text text-anchor="middle" x="353" y="-254.5" font-family="Helvetica,sans-Serif" font-size="10.00">ARVideoSource::close</text>
</a>
</g>
</g>
<!-- Node2&#45;&gt;Node3 -->
<g id="edge2" class="edge"><title>Node2&#45;&gt;Node3</title>
<path fill="none" stroke="midnightblue" d="M259.049,-257C267.481,-257 276.12,-257 284.573,-257"/>
<polygon fill="midnightblue" stroke="midnightblue" points="284.765,-260.5 294.765,-257 284.765,-253.5 284.765,-260.5"/>
</g>
<!-- Node4 -->
<g id="node4" class="node"><title>Node4</title>
<g id="a_node4"><a xlink:href="video_8h.html#a7f44f09a5e412bb83330887458e96b84" target="_top" xlink:title="ar2VideoCapStop">
<polygon fill="white" stroke="black" points="447,-342.5 447,-361.5 540,-361.5 540,-342.5 447,-342.5"/>
<text text-anchor="middle" x="493.5" y="-349.5" font-family="Helvetica,sans-Serif" font-size="10.00">ar2VideoCapStop</text>
</a>
</g>
</g>
<!-- Node3&#45;&gt;Node4 -->
<g id="edge3" class="edge"><title>Node3&#45;&gt;Node4</title>
<path fill="none" stroke="midnightblue" d="M368.042,-266.632C391.996,-283.062 440.956,-316.645 469.814,-336.439"/>
<polygon fill="midnightblue" stroke="midnightblue" points="468.194,-339.572 478.421,-342.343 472.154,-333.8 468.194,-339.572"/>
</g>
<!-- Node11 -->
<g id="node11" class="node"><title>Node11</title>
<g id="a_node11"><a xlink:href="param_8h.html#a42d02aaf13cedaf0f2cd1b93a5d81643" target="_top" xlink:title="Dispose of a memory allocated to a lookup&#45;table camera parameter. ">
<polygon fill="white" stroke="black" points="451.5,-247.5 451.5,-266.5 535.5,-266.5 535.5,-247.5 451.5,-247.5"/>
<text text-anchor="middle" x="493.5" y="-254.5" font-family="Helvetica,sans-Serif" font-size="10.00">arParamLTFree</text>
</a>
</g>
</g>
<!-- Node3&#45;&gt;Node11 -->
<g id="edge10" class="edge"><title>Node3&#45;&gt;Node11</title>
<path fill="none" stroke="midnightblue" d="M411.133,-257C420.983,-257 431.17,-257 440.864,-257"/>
<polygon fill="midnightblue" stroke="midnightblue" points="441.151,-260.5 451.151,-257 441.151,-253.5 441.151,-260.5"/>
</g>
<!-- Node12 -->
<g id="node12" class="node"><title>Node12</title>
<g id="a_node12"><a xlink:href="video_8h.html#a4b8a9b1a18beed51b2f0600687de63b8" target="_top" xlink:title="ar2VideoClose">
<polygon fill="white" stroke="black" points="453.5,-133.5 453.5,-152.5 533.5,-152.5 533.5,-133.5 453.5,-133.5"/>
<text text-anchor="middle" x="493.5" y="-140.5" font-family="Helvetica,sans-Serif" font-size="10.00">ar2VideoClose</text>
</a>
</g>
</g>
<!-- Node3&#45;&gt;Node12 -->
<g id="edge11" class="edge"><title>Node3&#45;&gt;Node12</title>
<path fill="none" stroke="midnightblue" d="M365.808,-247.28C389.624,-227.678 443.627,-183.228 472.846,-159.177"/>
<polygon fill="midnightblue" stroke="midnightblue" points="475.225,-161.752 480.721,-152.695 470.776,-156.348 475.225,-161.752"/>
</g>
<!-- Node5 -->
<g id="node5" class="node"><title>Node5</title>
<g id="a_node5"><a xlink:href="video_dummy_8h.html#a78fa5654276bc8d340ffe8182d0bcd6c" target="_top" xlink:title="ar2VideoCapStopDummy">
<polygon fill="white" stroke="black" points="589.5,-456.5 589.5,-475.5 717.5,-475.5 717.5,-456.5 589.5,-456.5"/>
<text text-anchor="middle" x="653.5" y="-463.5" font-family="Helvetica,sans-Serif" font-size="10.00">ar2VideoCapStopDummy</text>
</a>
</g>
</g>
<!-- Node4&#45;&gt;Node5 -->
<g id="edge4" class="edge"><title>Node4&#45;&gt;Node5</title>
<path fill="none" stroke="midnightblue" d="M499.858,-361.525C511.233,-380.833 539.747,-424.644 576,-447 579.44,-449.121 583.104,-451.006 586.895,-452.68"/>
<polygon fill="midnightblue" stroke="midnightblue" points="585.936,-456.063 596.524,-456.425 588.473,-449.538 585.936,-456.063"/>
</g>
<!-- Node6 -->
<g id="node6" class="node"><title>Node6</title>
<g id="a_node6"><a xlink:href="video_v4_l2_8h.html#a530b43b034daf2f89586fb69e9de74aa" target="_top" xlink:title="ar2VideoCapStopV4L2">
<polygon fill="white" stroke="black" points="595.5,-418.5 595.5,-437.5 711.5,-437.5 711.5,-418.5 595.5,-418.5"/>
<text text-anchor="middle" x="653.5" y="-425.5" font-family="Helvetica,sans-Serif" font-size="10.00">ar2VideoCapStopV4L2</text>
</a>
</g>
</g>
<!-- Node4&#45;&gt;Node6 -->
<g id="edge5" class="edge"><title>Node4&#45;&gt;Node6</title>
<path fill="none" stroke="midnightblue" d="M505.299,-361.534C520.19,-374.195 548.338,-396.418 576,-409 581.347,-411.432 587.051,-413.582 592.843,-415.478"/>
<polygon fill="midnightblue" stroke="midnightblue" points="592.04,-418.891 602.624,-418.43 594.063,-412.19 592.04,-418.891"/>
</g>
<!-- Node7 -->
<g id="node7" class="node"><title>Node7</title>
<g id="a_node7"><a xlink:href="video1394_8h.html#a23f653b38bb02af6d9050d02b0702f94" target="_top" xlink:title="ar2VideoCapStop1394">
<polygon fill="white" stroke="black" points="596.5,-380.5 596.5,-399.5 710.5,-399.5 710.5,-380.5 596.5,-380.5"/>
<text text-anchor="middle" x="653.5" y="-387.5" font-family="Helvetica,sans-Serif" font-size="10.00">ar2VideoCapStop1394</text>
</a>
</g>
</g>
<!-- Node4&#45;&gt;Node7 -->
<g id="edge6" class="edge"><title>Node4&#45;&gt;Node7</title>
<path fill="none" stroke="midnightblue" d="M534.37,-361.589C555.22,-366.604 580.935,-372.788 603.043,-378.105"/>
<polygon fill="midnightblue" stroke="midnightblue" points="602.375,-381.544 612.917,-380.48 604.012,-374.739 602.375,-381.544"/>
</g>
<!-- Node8 -->
<g id="node8" class="node"><title>Node8</title>
<g id="a_node8"><a xlink:href="video_a_v_foundation_8h.html#a80dffabb6c571245b002d91e9031ca64" target="_top" xlink:title="ar2VideoCapStopAVFoundation">
<polygon fill="white" stroke="black" points="576,-342.5 576,-361.5 731,-361.5 731,-342.5 576,-342.5"/>
<text text-anchor="middle" x="653.5" y="-349.5" font-family="Helvetica,sans-Serif" font-size="10.00">ar2VideoCapStopAVFoundation</text>
</a>
</g>
</g>
<!-- Node4&#45;&gt;Node8 -->
<g id="edge7" class="edge"><title>Node4&#45;&gt;Node8</title>
<path fill="none" stroke="midnightblue" d="M540.2,-352C548.345,-352 557.068,-352 565.919,-352"/>
<polygon fill="midnightblue" stroke="midnightblue" points="565.943,-355.5 575.942,-352 565.942,-348.5 565.943,-355.5"/>
</g>
<!-- Node9 -->
<g id="node9" class="node"><title>Node9</title>
<g id="a_node9"><a xlink:href="video_image_8h.html#af8b971aac579641ba46492cbd6394293" target="_top" xlink:title="ar2VideoCapStopImage">
<polygon fill="white" stroke="black" points="593.5,-304.5 593.5,-323.5 713.5,-323.5 713.5,-304.5 593.5,-304.5"/>
<text text-anchor="middle" x="653.5" y="-311.5" font-family="Helvetica,sans-Serif" font-size="10.00">ar2VideoCapStopImage</text>
</a>
</g>
</g>
<!-- Node4&#45;&gt;Node9 -->
<g id="edge8" class="edge"><title>Node4&#45;&gt;Node9</title>
<path fill="none" stroke="midnightblue" d="M534.37,-342.411C555.22,-337.396 580.935,-331.212 603.043,-325.895"/>
<polygon fill="midnightblue" stroke="midnightblue" points="604.012,-329.261 612.917,-323.52 602.375,-322.456 604.012,-329.261"/>
</g>
<!-- Node10 -->
<g id="node10" class="node"><title>Node10</title>
<g id="a_node10"><a xlink:href="video_android_8h.html#a0d13c2368b42b9e85c60830fb13fd04e" target="_top" xlink:title="ar2VideoCapStopAndroid">
<polygon fill="white" stroke="black" points="590.5,-266.5 590.5,-285.5 716.5,-285.5 716.5,-266.5 590.5,-266.5"/>
<text text-anchor="middle" x="653.5" y="-273.5" font-family="Helvetica,sans-Serif" font-size="10.00">ar2VideoCapStopAndroid</text>
</a>
</g>
</g>
<!-- Node4&#45;&gt;Node10 -->
<g id="edge9" class="edge"><title>Node4&#45;&gt;Node10</title>
<path fill="none" stroke="midnightblue" d="M505.299,-342.466C520.19,-329.805 548.338,-307.582 576,-295 581.347,-292.568 587.051,-290.418 592.843,-288.522"/>
<polygon fill="midnightblue" stroke="midnightblue" points="594.063,-291.81 602.624,-285.57 592.04,-285.109 594.063,-291.81"/>
</g>
<!-- Node13 -->
<g id="node13" class="node"><title>Node13</title>
<g id="a_node13"><a xlink:href="video_luma_8h.html#af73e0e884452c46682458a136539792b" target="_top" xlink:title="arVideoLumaFinal">
<polygon fill="white" stroke="black" points="606,-228.5 606,-247.5 701,-247.5 701,-228.5 606,-228.5"/>
<text text-anchor="middle" x="653.5" y="-235.5" font-family="Helvetica,sans-Serif" font-size="10.00">arVideoLumaFinal</text>
</a>
</g>
</g>
<!-- Node12&#45;&gt;Node13 -->
<g id="edge12" class="edge"><title>Node12&#45;&gt;Node13</title>
<path fill="none" stroke="midnightblue" d="M501.929,-152.568C515.061,-168.8 544.028,-201.659 576,-219 582.142,-222.331 588.878,-225.09 595.726,-227.371"/>
<polygon fill="midnightblue" stroke="midnightblue" points="595.199,-230.867 605.783,-230.384 597.208,-224.161 595.199,-230.867"/>
</g>
<!-- Node14 -->
<g id="node14" class="node"><title>Node14</title>
<g id="a_node14"><a xlink:href="video_dummy_8h.html#ae518c53d87b1320ba8cd80ed8a23bf0a" target="_top" xlink:title="ar2VideoCloseDummy">
<polygon fill="white" stroke="black" points="596,-190.5 596,-209.5 711,-209.5 711,-190.5 596,-190.5"/>
<text text-anchor="middle" x="653.5" y="-197.5" font-family="Helvetica,sans-Serif" font-size="10.00">ar2VideoCloseDummy</text>
</a>
</g>
</g>
<!-- Node12&#45;&gt;Node14 -->
<g id="edge13" class="edge"><title>Node12&#45;&gt;Node14</title>
<path fill="none" stroke="midnightblue" d="M512.527,-152.637C528.767,-161.019 553.48,-173.037 576,-181 583.087,-183.506 590.655,-185.811 598.171,-187.887"/>
<polygon fill="midnightblue" stroke="midnightblue" points="597.414,-191.307 607.976,-190.48 599.204,-184.539 597.414,-191.307"/>
</g>
<!-- Node15 -->
<g id="node15" class="node"><title>Node15</title>
<g id="a_node15"><a xlink:href="video_v4_l2_8h.html#a160602fb4d1827e9053166f051f4613d" target="_top" xlink:title="ar2VideoCloseV4L2">
<polygon fill="white" stroke="black" points="602,-152.5 602,-171.5 705,-171.5 705,-152.5 602,-152.5"/>
<text text-anchor="middle" x="653.5" y="-159.5" font-family="Helvetica,sans-Serif" font-size="10.00">ar2VideoCloseV4L2</text>
</a>
</g>
</g>
<!-- Node12&#45;&gt;Node15 -->
<g id="edge14" class="edge"><title>Node12&#45;&gt;Node15</title>
<path fill="none" stroke="midnightblue" d="M533.556,-147.697C551.143,-149.812 572.314,-152.357 591.89,-154.711"/>
<polygon fill="midnightblue" stroke="midnightblue" points="591.608,-158.203 601.954,-155.922 592.444,-151.253 591.608,-158.203"/>
</g>
<!-- Node16 -->
<g id="node16" class="node"><title>Node16</title>
<g id="a_node16"><a xlink:href="video1394_8h.html#aaea7efdd8dad25a42fe9b8f3bc3edf0b" target="_top" xlink:title="ar2VideoClose1394">
<polygon fill="white" stroke="black" points="603,-114.5 603,-133.5 704,-133.5 704,-114.5 603,-114.5"/>
<text text-anchor="middle" x="653.5" y="-121.5" font-family="Helvetica,sans-Serif" font-size="10.00">ar2VideoClose1394</text>
</a>
</g>
</g>
<!-- Node12&#45;&gt;Node16 -->
<g id="edge15" class="edge"><title>Node12&#45;&gt;Node16</title>
<path fill="none" stroke="midnightblue" d="M533.556,-138.303C551.377,-136.16 572.877,-133.575 592.669,-131.195"/>
<polygon fill="midnightblue" stroke="midnightblue" points="593.324,-134.641 602.835,-129.972 592.488,-127.691 593.324,-134.641"/>
</g>
<!-- Node17 -->
<g id="node17" class="node"><title>Node17</title>
<g id="a_node17"><a xlink:href="video_a_v_foundation_8h.html#a2883b331cca58ccd1c036f2318041f03" target="_top" xlink:title="ar2VideoCloseAVFoundation">
<polygon fill="white" stroke="black" points="582.5,-76.5 582.5,-95.5 724.5,-95.5 724.5,-76.5 582.5,-76.5"/>
<text text-anchor="middle" x="653.5" y="-83.5" font-family="Helvetica,sans-Serif" font-size="10.00">ar2VideoCloseAVFoundation</text>
</a>
</g>
</g>
<!-- Node12&#45;&gt;Node17 -->
<g id="edge16" class="edge"><title>Node12&#45;&gt;Node17</title>
<path fill="none" stroke="midnightblue" d="M512.527,-133.363C528.767,-124.981 553.48,-112.963 576,-105 583.087,-102.494 590.655,-100.189 598.171,-98.1135"/>
<polygon fill="midnightblue" stroke="midnightblue" points="599.204,-101.461 607.976,-95.5201 597.414,-94.6934 599.204,-101.461"/>
</g>
<!-- Node18 -->
<g id="node18" class="node"><title>Node18</title>
<g id="a_node18"><a xlink:href="video_image_8h.html#a3ffc443b510b55d94d0aed46e4277388" target="_top" xlink:title="ar2VideoCloseImage">
<polygon fill="white" stroke="black" points="600,-38.5 600,-57.5 707,-57.5 707,-38.5 600,-38.5"/>
<text text-anchor="middle" x="653.5" y="-45.5" font-family="Helvetica,sans-Serif" font-size="10.00">ar2VideoCloseImage</text>
</a>
</g>
</g>
<!-- Node12&#45;&gt;Node18 -->
<g id="edge17" class="edge"><title>Node12&#45;&gt;Node18</title>
<path fill="none" stroke="midnightblue" d="M501.929,-133.432C515.061,-117.2 544.028,-84.3407 576,-67 580.472,-64.5748 585.257,-62.4533 590.172,-60.5984"/>
<polygon fill="midnightblue" stroke="midnightblue" points="591.391,-63.881 599.733,-57.3502 589.139,-57.253 591.391,-63.881"/>
</g>
<!-- Node19 -->
<g id="node19" class="node"><title>Node19</title>
<g id="a_node19"><a xlink:href="video_android_8h.html#afb5748a9176a3e1a8aee435726c18be2" target="_top" xlink:title="ar2VideoCloseAndroid">
<polygon fill="white" stroke="black" points="597,-0.5 597,-19.5 710,-19.5 710,-0.5 597,-0.5"/>
<text text-anchor="middle" x="653.5" y="-7.5" font-family="Helvetica,sans-Serif" font-size="10.00">ar2VideoCloseAndroid</text>
</a>
</g>
</g>
<!-- Node12&#45;&gt;Node19 -->
<g id="edge18" class="edge"><title>Node12&#45;&gt;Node19</title>
<path fill="none" stroke="midnightblue" d="M498.568,-133.281C508.377,-111.086 535.551,-56.4822 576,-29 579.566,-26.5774 583.412,-24.4634 587.416,-22.6186"/>
<polygon fill="midnightblue" stroke="midnightblue" points="589.006,-25.7522 596.987,-18.7843 586.403,-19.2542 589.006,-25.7522"/>
</g>
</g>
</svg>
        <g id="navigator" transform="translate(0 0)" fill="#404254">
                <rect fill="#f2f5e9" fill-opacity="0.5" stroke="#606060" stroke-width=".5" x="0" y="0" width="60" height="60"/>
                <use id="zoomplus" xlink:href="#zoomPlus" x="17" y="9" onmousedown="handleZoom(evt,'in')"/>
                <use id="zoomminus" xlink:href="#zoomMin" x="42" y="9" onmousedown="handleZoom(evt,'out')"/>
                <use id="reset" xlink:href="#resetDef" x="30" y="36" onmousedown="handleReset()"/>
                <g id="arrowUp" xlink:href="#dirArrow" transform="translate(30 24)" onmousedown="handlePan(0,-1)">
                  <use xlink:href="#rim" fill="#404040">
                        <set attributeName="fill" to="#808080" begin="arrowUp.mouseover" end="arrowUp.mouseout"/>
                  </use>
                  <path fill="none" stroke="white" stroke-width="1.5" d="M0,-3.0v7 M-2.5,-0.5L0,-3.0L2.5,-0.5"/>
                </g>
                <g id="arrowRight" xlink:href="#dirArrow" transform="rotate(90) translate(36 -43)" onmousedown="handlePan(1,0)">
                  <use xlink:href="#rim" fill="#404040">
                        <set attributeName="fill" to="#808080" begin="arrowRight.mouseover" end="arrowRight.mouseout"/>
                  </use>
                  <path fill="none" stroke="white" stroke-width="1.5" d="M0,-3.0v7 M-2.5,-0.5L0,-3.0L2.5,-0.5"/>
                </g>
                <g id="arrowDown" xlink:href="#dirArrow" transform="rotate(180) translate(-30 -48)" onmousedown="handlePan(0,1)">
                  <use xlink:href="#rim" fill="#404040">
                        <set attributeName="fill" to="#808080" begin="arrowDown.mouseover" end="arrowDown.mouseout"/>
                  </use>
                  <path fill="none" stroke="white" stroke-width="1.5" d="M0,-3.0v7 M-2.5,-0.5L0,-3.0L2.5,-0.5"/>
                </g>
                <g id="arrowLeft" xlink:href="#dirArrow" transform="rotate(270) translate(-36 17)" onmousedown="handlePan(-1,0)">
                  <use xlink:href="#rim" fill="#404040">
                        <set attributeName="fill" to="#808080" begin="arrowLeft.mouseover" end="arrowLeft.mouseout"/>
                  </use>
                  <path fill="none" stroke="white" stroke-width="1.5" d="M0,-3.0v7 M-2.5,-0.5L0,-3.0L2.5,-0.5"/>
                </g>
        </g>
        <svg viewBox="0 0 15 15" width="100%" height="30px" preserveAspectRatio="xMaxYMin meet">
         <g id="arrow_out" transform="scale(0.3 0.3)">
          <a xlink:href="_a_r6__c_8h_ac1ceff31fcd707c9afe8d3ae74fdc17c_cgraph_org.svg" target="_base">
           <rect id="button" ry="5" rx="5" y="6" x="6" height="38" width="38"
                fill="#f2f5e9" fill-opacity="0.5" stroke="#606060" stroke-width="1.0"/>
           <path id="arrow"
             d="M 11.500037,31.436501 C 11.940474,20.09759 22.043105,11.32322 32.158766,21.979434 L 37.068811,17.246167 C 37.068811,17.246167 37.088388,32 37.088388,32 L 22.160133,31.978069 C 22.160133,31.978069 26.997745,27.140456 26.997745,27.140456 C 18.528582,18.264221 13.291696,25.230495 11.500037,31.436501 z"
             style="fill:#404040;"/>
          </a>
         </g>
        </svg>
</svg>
