<?xml version="1.0" encoding="UTF-8" standalone="no"?>
<!DOCTYPE svg PUBLIC "-//W3C//DTD SVG 1.1//EN"
 "http://www.w3.org/Graphics/SVG/1.1/DTD/svg11.dtd">
<!-- Generated by graphviz version 2.38.0 (20140413.2041)
 -->
<!-- Title: arwUpdateTexture32Stereo Pages: 1 -->
<svg width="732pt" height="154pt"
 viewBox="0.00 0.00 732.00 153.50" xmlns="http://www.w3.org/2000/svg" xmlns:xlink="http://www.w3.org/1999/xlink">
<g id="graph0" class="graph" transform="scale(1 1) rotate(0) translate(4 149.5)">
<title>arwUpdateTexture32Stereo</title>
<polygon fill="white" stroke="none" points="-4,4 -4,-149.5 728,-149.5 728,4 -4,4"/>
<!-- Node1 -->
<g id="node1" class="node"><title>Node1</title>
<polygon fill="#bfbfbf" stroke="black" points="0,-57.5 0,-76.5 136,-76.5 136,-57.5 0,-57.5"/>
<text text-anchor="middle" x="68" y="-64.5" font-family="Helvetica,sans-Serif" font-size="10.00">arwUpdateTexture32Stereo</text>
</g>
<!-- Node2 -->
<g id="node2" class="node"><title>Node2</title>
<g id="a_node2"><a xlink:href="class_a_r_controller.html#a5b579238d3703c407a5f4dffc0d9b69d" target="_top" xlink:title="Asks the video source to push the most recent frame into the passed&#45;in buffer. ">
<polygon fill="white" stroke="black" points="172,-52 172,-82 325,-82 325,-52 172,-52"/>
<text text-anchor="start" x="180" y="-70" font-family="Helvetica,sans-Serif" font-size="10.00">ARController::getFrameTexture</text>
<text text-anchor="middle" x="248.5" y="-59" font-family="Helvetica,sans-Serif" font-size="10.00">RGBA32</text>
</a>
</g>
</g>
<!-- Node1&#45;&gt;Node2 -->
<g id="edge1" class="edge"><title>Node1&#45;&gt;Node2</title>
<path fill="none" stroke="midnightblue" d="M136.229,-67C144.611,-67 153.269,-67 161.882,-67"/>
<polygon fill="midnightblue" stroke="midnightblue" points="161.953,-70.5001 171.953,-67 161.953,-63.5001 161.953,-70.5001"/>
</g>
<!-- Node3 -->
<g id="node3" class="node"><title>Node3</title>
<g id="a_node3"><a xlink:href="class_a_r_video_source.html#a65ebb92f31e3124222c04848ab118995" target="_top" xlink:title="Populates the provided color buffer with the current video frame. ">
<polygon fill="white" stroke="black" points="361,-52 361,-82 528,-82 528,-52 361,-52"/>
<text text-anchor="start" x="369" y="-70" font-family="Helvetica,sans-Serif" font-size="10.00">ARVideoSource::getFrameTexture</text>
<text text-anchor="middle" x="444.5" y="-59" font-family="Helvetica,sans-Serif" font-size="10.00">RGBA32</text>
</a>
</g>
</g>
<!-- Node2&#45;&gt;Node3 -->
<g id="edge2" class="edge"><title>Node2&#45;&gt;Node3</title>
<path fill="none" stroke="midnightblue" d="M325.061,-67C333.472,-67 342.11,-67 350.704,-67"/>
<polygon fill="midnightblue" stroke="midnightblue" points="350.756,-70.5001 360.756,-67 350.756,-63.5001 350.756,-70.5001"/>
</g>
<!-- Node4 -->
<g id="node4" class="node"><title>Node4</title>
<g id="a_node4"><a xlink:href="class_a_r_video_source.html#a0870e3e3099fe2bede89980bc89c5e70" target="_top" xlink:title="Checkout a locked video frame if the frame&#39;s timestamp is newer than &#39;time&#39;. ">
<polygon fill="white" stroke="black" points="564,-115 564,-145 724,-145 724,-115 564,-115"/>
<text text-anchor="start" x="572" y="-133" font-family="Helvetica,sans-Serif" font-size="10.00">ARVideoSource::checkoutFrame</text>
<text text-anchor="middle" x="644" y="-122" font-family="Helvetica,sans-Serif" font-size="10.00">IfNewerThan</text>
</a>
</g>
</g>
<!-- Node3&#45;&gt;Node4 -->
<g id="edge3" class="edge"><title>Node3&#45;&gt;Node4</title>
<path fill="none" stroke="midnightblue" d="M492.201,-82.0212C514.009,-89.0243 540.327,-97.4585 564,-105 570.973,-107.221 578.295,-109.547 585.551,-111.848"/>
<polygon fill="midnightblue" stroke="midnightblue" points="584.777,-115.274 595.367,-114.959 586.891,-108.601 584.777,-115.274"/>
</g>
<!-- Node5 -->
<g id="node5" class="node"><title>Node5</title>
<g id="a_node5"><a xlink:href="ar_util_8c.html#a97d737ba2827a9edfd10deefb3ce03b4" target="_top" xlink:title="Get the size in bytes of a single pixel for a given pixel format. ">
<polygon fill="white" stroke="black" points="595.5,-76.5 595.5,-95.5 692.5,-95.5 692.5,-76.5 595.5,-76.5"/>
<text text-anchor="middle" x="644" y="-83.5" font-family="Helvetica,sans-Serif" font-size="10.00">arUtilGetPixelSize</text>
</a>
</g>
</g>
<!-- Node3&#45;&gt;Node5 -->
<g id="edge4" class="edge"><title>Node3&#45;&gt;Node5</title>
<path fill="none" stroke="midnightblue" d="M528.113,-74.9476C547.377,-76.8009 567.484,-78.7351 585.392,-80.4579"/>
<polygon fill="midnightblue" stroke="midnightblue" points="585.086,-83.9446 595.376,-81.4184 585.757,-76.9768 585.086,-83.9446"/>
</g>
<!-- Node6 -->
<g id="node6" class="node"><title>Node6</title>
<g id="a_node6"><a xlink:href="class_a_r_video_source.html#aea7107a943a85ce1ee40aacb7506f303" target="_top" xlink:title="ARVideoSource::fastPath">
<polygon fill="white" stroke="black" points="579.5,-38.5 579.5,-57.5 708.5,-57.5 708.5,-38.5 579.5,-38.5"/>
<text text-anchor="middle" x="644" y="-45.5" font-family="Helvetica,sans-Serif" font-size="10.00">ARVideoSource::fastPath</text>
</a>
</g>
</g>
<!-- Node3&#45;&gt;Node6 -->
<g id="edge5" class="edge"><title>Node3&#45;&gt;Node6</title>
<path fill="none" stroke="midnightblue" d="M528.113,-59.0524C541.759,-57.7396 555.827,-56.3862 569.237,-55.0962"/>
<polygon fill="midnightblue" stroke="midnightblue" points="569.727,-58.5653 579.346,-54.1237 569.057,-51.5975 569.727,-58.5653"/>
</g>
<!-- Node7 -->
<g id="node7" class="node"><title>Node7</title>
<g id="a_node7"><a xlink:href="class_a_r_video_source.html#a3d4b14784d083ae76f43c8942cb9076b" target="_top" xlink:title="Checkin a locked video frame. ">
<polygon fill="white" stroke="black" points="567,-0.5 567,-19.5 721,-19.5 721,-0.5 567,-0.5"/>
<text text-anchor="middle" x="644" y="-7.5" font-family="Helvetica,sans-Serif" font-size="10.00">ARVideoSource::checkinFrame</text>
</a>
</g>
</g>
<!-- Node3&#45;&gt;Node7 -->
<g id="edge6" class="edge"><title>Node3&#45;&gt;Node7</title>
<path fill="none" stroke="midnightblue" d="M489.719,-51.9587C511.897,-44.6348 539.244,-35.9361 564,-29 572.586,-26.5944 581.749,-24.2184 590.679,-22.004"/>
<polygon fill="midnightblue" stroke="midnightblue" points="591.735,-25.3492 600.621,-19.5796 590.076,-18.5485 591.735,-25.3492"/>
</g>
</g>
</svg>
