<?xml version="1.0" encoding="UTF-8" standalone="no"?>
<!DOCTYPE svg PUBLIC "-//W3C//DTD SVG 1.1//EN"
 "http://www.w3.org/Graphics/SVG/1.1/DTD/svg11.dtd">
<!-- Generated by graphviz version 2.38.0 (20140413.2041)
 -->
<!-- Title: /bitrise/src/Source/AR6/ARTrackerPipeline2D.h Pages: 1 -->
<svg width="1119pt" height="117pt"
 viewBox="0.00 0.00 1119.00 117.00" xmlns="http://www.w3.org/2000/svg" xmlns:xlink="http://www.w3.org/1999/xlink">
<g id="graph0" class="graph" transform="scale(1 1) rotate(0) translate(4 113)">
<title>/bitrise/src/Source/AR6/ARTrackerPipeline2D.h</title>
<polygon fill="white" stroke="none" points="-4,4 -4,-113 1115,-113 1115,4 -4,4"/>
<!-- Node1 -->
<g id="node1" class="node"><title>Node1</title>
<polygon fill="#bfbfbf" stroke="black" points="489.5,-78.5 489.5,-108.5 634.5,-108.5 634.5,-78.5 489.5,-78.5"/>
<text text-anchor="start" x="497.5" y="-96.5" font-family="Helvetica,sans-Serif" font-size="10.00">/bitrise/src/Source</text>
<text text-anchor="middle" x="562" y="-85.5" font-family="Helvetica,sans-Serif" font-size="10.00">/AR6/ARTrackerPipeline2D.h</text>
</g>
<!-- Node2 -->
<g id="node2" class="node"><title>Node2</title>
<polygon fill="white" stroke="#bfbfbf" points="0,-0.5 0,-41.5 110,-41.5 110,-0.5 0,-0.5"/>
<text text-anchor="start" x="8" y="-29.5" font-family="Helvetica,sans-Serif" font-size="10.00">artvision/cv/matchers</text>
<text text-anchor="start" x="8" y="-18.5" font-family="Helvetica,sans-Serif" font-size="10.00">/multi_target_planar</text>
<text text-anchor="middle" x="55" y="-7.5" font-family="Helvetica,sans-Serif" font-size="10.00">_recogniser.h</text>
</g>
<!-- Node1&#45;&gt;Node2 -->
<g id="edge1" class="edge"><title>Node1&#45;&gt;Node2</title>
<path fill="none" stroke="midnightblue" d="M489.197,-88.4405C403.015,-82.6881 255.189,-69.8468 120.425,-42.1064"/>
<polygon fill="midnightblue" stroke="midnightblue" points="120.838,-38.6171 110.333,-39.9957 119.405,-45.4689 120.838,-38.6171"/>
</g>
<!-- Node3 -->
<g id="node3" class="node"><title>Node3</title>
<polygon fill="white" stroke="#bfbfbf" points="128,-6 128,-36 238,-36 238,-6 128,-6"/>
<text text-anchor="start" x="136" y="-24" font-family="Helvetica,sans-Serif" font-size="10.00">artvision/cv/geometry</text>
<text text-anchor="middle" x="183" y="-13" font-family="Helvetica,sans-Serif" font-size="10.00">/radial_lens_model.h</text>
</g>
<!-- Node1&#45;&gt;Node3 -->
<g id="edge2" class="edge"><title>Node1&#45;&gt;Node3</title>
<path fill="none" stroke="midnightblue" d="M489.486,-83.8907C425.265,-75.5521 329.221,-61.3318 247,-42 243.096,-41.082 239.083,-40.0489 235.062,-38.9482"/>
<polygon fill="midnightblue" stroke="midnightblue" points="235.684,-35.4857 225.107,-36.1003 233.758,-42.2157 235.684,-35.4857"/>
</g>
<!-- Node4 -->
<g id="node4" class="node"><title>Node4</title>
<polygon fill="white" stroke="#bfbfbf" points="256,-6 256,-36 366,-36 366,-6 256,-6"/>
<text text-anchor="start" x="264" y="-24" font-family="Helvetica,sans-Serif" font-size="10.00">artvision/cv/matchers</text>
<text text-anchor="middle" x="311" y="-13" font-family="Helvetica,sans-Serif" font-size="10.00">/target.h</text>
</g>
<!-- Node1&#45;&gt;Node4 -->
<g id="edge3" class="edge"><title>Node1&#45;&gt;Node4</title>
<path fill="none" stroke="midnightblue" d="M507.835,-78.4718C470.416,-68.6342 419.557,-54.973 375,-42 371.715,-41.0436 368.341,-40.0431 364.941,-39.0214"/>
<polygon fill="midnightblue" stroke="midnightblue" points="365.931,-35.6643 355.345,-36.1044 363.895,-42.3617 365.931,-35.6643"/>
</g>
<!-- Node5 -->
<g id="node5" class="node"><title>Node5</title>
<polygon fill="white" stroke="#bfbfbf" points="384.5,-0.5 384.5,-41.5 491.5,-41.5 491.5,-0.5 384.5,-0.5"/>
<text text-anchor="start" x="392.5" y="-29.5" font-family="Helvetica,sans-Serif" font-size="10.00">artvision/cv/trackers</text>
<text text-anchor="start" x="392.5" y="-18.5" font-family="Helvetica,sans-Serif" font-size="10.00">/single_target_planar</text>
<text text-anchor="middle" x="438" y="-7.5" font-family="Helvetica,sans-Serif" font-size="10.00">_tracker.h</text>
</g>
<!-- Node1&#45;&gt;Node5 -->
<g id="edge4" class="edge"><title>Node1&#45;&gt;Node5</title>
<path fill="none" stroke="midnightblue" d="M537.205,-78.4027C521.292,-69.3553 500.189,-57.3576 481.539,-46.7542"/>
<polygon fill="midnightblue" stroke="midnightblue" points="483.037,-43.5798 472.614,-41.6799 479.578,-49.6651 483.037,-43.5798"/>
</g>
<!-- Node6 -->
<g id="node6" class="node"><title>Node6</title>
<polygon fill="white" stroke="#bfbfbf" points="509.5,-0.5 509.5,-41.5 614.5,-41.5 614.5,-0.5 509.5,-0.5"/>
<text text-anchor="start" x="517.5" y="-29.5" font-family="Helvetica,sans-Serif" font-size="10.00">artvision/cv/trackers</text>
<text text-anchor="start" x="517.5" y="-18.5" font-family="Helvetica,sans-Serif" font-size="10.00">/multi_target_planar</text>
<text text-anchor="middle" x="562" y="-7.5" font-family="Helvetica,sans-Serif" font-size="10.00">_tracker.h</text>
</g>
<!-- Node1&#45;&gt;Node6 -->
<g id="edge5" class="edge"><title>Node1&#45;&gt;Node6</title>
<path fill="none" stroke="midnightblue" d="M562,-78.2333C562,-70.5742 562,-60.8371 562,-51.6259"/>
<polygon fill="midnightblue" stroke="midnightblue" points="565.5,-51.5884 562,-41.5884 558.5,-51.5885 565.5,-51.5884"/>
</g>
<!-- Node7 -->
<g id="node7" class="node"><title>Node7</title>
<polygon fill="white" stroke="#bfbfbf" points="633,-6 633,-36 755,-36 755,-6 633,-6"/>
<text text-anchor="start" x="641" y="-24" font-family="Helvetica,sans-Serif" font-size="10.00">artvision/cv/trackers</text>
<text text-anchor="middle" x="694" y="-13" font-family="Helvetica,sans-Serif" font-size="10.00">/tracked_planar_target.h</text>
</g>
<!-- Node1&#45;&gt;Node7 -->
<g id="edge6" class="edge"><title>Node1&#45;&gt;Node7</title>
<path fill="none" stroke="midnightblue" d="M588.395,-78.4027C608.539,-67.6437 636.495,-52.7128 658.584,-40.9156"/>
<polygon fill="midnightblue" stroke="midnightblue" points="660.479,-43.8713 667.651,-36.0729 657.181,-37.6967 660.479,-43.8713"/>
</g>
<!-- Node8 -->
<g id="node8" class="node"><title>Node8</title>
<polygon fill="white" stroke="#bfbfbf" points="773,-6 773,-36 921,-36 921,-6 773,-6"/>
<text text-anchor="start" x="781" y="-24" font-family="Helvetica,sans-Serif" font-size="10.00">artvision/cv/trackers</text>
<text text-anchor="middle" x="847" y="-13" font-family="Helvetica,sans-Serif" font-size="10.00">/projection_matrix_smoother.h</text>
</g>
<!-- Node1&#45;&gt;Node8 -->
<g id="edge7" class="edge"><title>Node1&#45;&gt;Node8</title>
<path fill="none" stroke="midnightblue" d="M618.648,-78.4872C665.12,-66.9914 731.014,-50.6913 780.082,-38.5533"/>
<polygon fill="midnightblue" stroke="midnightblue" points="781.105,-41.9058 789.972,-36.1069 779.424,-35.1107 781.105,-41.9058"/>
</g>
<!-- Node9 -->
<g id="node9" class="node"><title>Node9</title>
<polygon fill="white" stroke="#bfbfbf" points="939,-6 939,-36 1041,-36 1041,-6 939,-6"/>
<text text-anchor="start" x="947" y="-24" font-family="Helvetica,sans-Serif" font-size="10.00">artvision/framework</text>
<text text-anchor="middle" x="990" y="-13" font-family="Helvetica,sans-Serif" font-size="10.00">/image_io.h</text>
</g>
<!-- Node1&#45;&gt;Node9 -->
<g id="edge8" class="edge"><title>Node1&#45;&gt;Node9</title>
<path fill="none" stroke="midnightblue" d="M634.647,-86.5379C709.403,-79.4711 828.887,-65.5751 930,-42 933.801,-41.1137 937.704,-40.088 941.606,-38.9786"/>
<polygon fill="midnightblue" stroke="midnightblue" points="942.678,-42.3109 951.247,-36.0803 940.663,-35.6073 942.678,-42.3109"/>
</g>
<!-- Node10 -->
<g id="node10" class="node"><title>Node10</title>
<polygon fill="white" stroke="#bfbfbf" points="1059,-11.5 1059,-30.5 1111,-30.5 1111,-11.5 1059,-11.5"/>
<text text-anchor="middle" x="1085" y="-18.5" font-family="Helvetica,sans-Serif" font-size="10.00">memory</text>
</g>
<!-- Node1&#45;&gt;Node10 -->
<g id="edge9" class="edge"><title>Node1&#45;&gt;Node10</title>
<path fill="none" stroke="midnightblue" d="M634.592,-88.6768C751.149,-81.9202 974.591,-66.2498 1050,-42 1054.83,-40.448 1059.72,-38.173 1064.27,-35.7084"/>
<polygon fill="midnightblue" stroke="midnightblue" points="1066.14,-38.6672 1072.95,-30.5541 1062.57,-32.6472 1066.14,-38.6672"/>
</g>
</g>
</svg>
