<?xml version="1.0" encoding="UTF-8" standalone="no"?>
<!DOCTYPE svg PUBLIC "-//W3C//DTD SVG 1.1//EN"
 "http://www.w3.org/Graphics/SVG/1.1/DTD/svg11.dtd">
<!-- Generated by graphviz version 2.38.0 (20140413.2041)
 -->
<!-- Title: arwInitialiseARWithOptions Pages: 1 -->
<svg width="1188pt" height="484pt"
 viewBox="0.00 0.00 1188.00 484.00" xmlns="http://www.w3.org/2000/svg" xmlns:xlink="http://www.w3.org/1999/xlink">
<g id="graph0" class="graph" transform="scale(1 1) rotate(0) translate(4 480)">
<title>arwInitialiseARWithOptions</title>
<polygon fill="white" stroke="none" points="-4,4 -4,-480 1184,-480 1184,4 -4,4"/>
<!-- Node1 -->
<g id="node1" class="node"><title>Node1</title>
<polygon fill="#bfbfbf" stroke="black" points="0,-190.5 0,-209.5 137,-209.5 137,-190.5 0,-190.5"/>
<text text-anchor="middle" x="68.5" y="-197.5" font-family="Helvetica,sans-Serif" font-size="10.00">arwInitialiseARWithOptions</text>
</g>
<!-- Node2 -->
<g id="node2" class="node"><title>Node2</title>
<g id="a_node2"><a xlink:href="class_a_r_controller.html#a3285a4ebb27a47d45d64428969e30ea4" target="_top" xlink:title="Start trackable management so trackables can be added and removed. ">
<polygon fill="white" stroke="black" points="173,-190.5 173,-209.5 310,-209.5 310,-190.5 173,-190.5"/>
<text text-anchor="middle" x="241.5" y="-197.5" font-family="Helvetica,sans-Serif" font-size="10.00">ARController::initialiseBase</text>
</a>
</g>
</g>
<!-- Node1&#45;&gt;Node2 -->
<g id="edge1" class="edge"><title>Node1&#45;&gt;Node2</title>
<path fill="none" stroke="midnightblue" d="M137.084,-200C145.538,-200 154.237,-200 162.83,-200"/>
<polygon fill="midnightblue" stroke="midnightblue" points="162.847,-203.5 172.847,-200 162.847,-196.5 162.847,-203.5"/>
</g>
<!-- Node3 -->
<g id="node3" class="node"><title>Node3</title>
<g id="a_node3"><a xlink:href="class_a_r_controller.html#ac3aad1d57eb54ef10ecdd57562fad461" target="_top" xlink:title="Stop, if running. ">
<polygon fill="white" stroke="black" points="346,-209.5 346,-228.5 467,-228.5 467,-209.5 346,-209.5"/>
<text text-anchor="middle" x="406.5" y="-216.5" font-family="Helvetica,sans-Serif" font-size="10.00">ARController::shutdown</text>
</a>
</g>
</g>
<!-- Node2&#45;&gt;Node3 -->
<g id="edge2" class="edge"><title>Node2&#45;&gt;Node3</title>
<path fill="none" stroke="midnightblue" d="M310.211,-207.893C318.606,-208.871 327.202,-209.873 335.628,-210.855"/>
<polygon fill="midnightblue" stroke="midnightblue" points="335.46,-214.359 345.798,-212.041 336.271,-207.407 335.46,-214.359"/>
</g>
<!-- Node24 -->
<g id="node24" class="node"><title>Node24</title>
<g id="a_node24"><a xlink:href="class_a_r_controller.html#a6e45b81b71ac241dbb8fb2327751910d" target="_top" xlink:title="ARController::setError">
<polygon fill="white" stroke="black" points="350,-171.5 350,-190.5 463,-190.5 463,-171.5 350,-171.5"/>
<text text-anchor="middle" x="406.5" y="-178.5" font-family="Helvetica,sans-Serif" font-size="10.00">ARController::setError</text>
</a>
</g>
</g>
<!-- Node2&#45;&gt;Node24 -->
<g id="edge24" class="edge"><title>Node2&#45;&gt;Node24</title>
<path fill="none" stroke="midnightblue" d="M310.211,-192.107C320.013,-190.965 330.09,-189.79 339.851,-188.652"/>
<polygon fill="midnightblue" stroke="midnightblue" points="340.357,-192.117 349.885,-187.483 339.547,-185.164 340.357,-192.117"/>
</g>
<!-- Node4 -->
<g id="node4" class="node"><title>Node4</title>
<g id="a_node4"><a xlink:href="class_a_r_controller.html#a889dbbe581e771d1f4f2e28fad3f686b" target="_top" xlink:title="Video capture and marker detection stops, but markers are still valid and can be configured. ">
<polygon fill="white" stroke="black" points="521,-247.5 521,-266.5 655,-266.5 655,-247.5 521,-247.5"/>
<text text-anchor="middle" x="588" y="-254.5" font-family="Helvetica,sans-Serif" font-size="10.00">ARController::stopRunning</text>
</a>
</g>
</g>
<!-- Node3&#45;&gt;Node4 -->
<g id="edge3" class="edge"><title>Node3&#45;&gt;Node4</title>
<path fill="none" stroke="midnightblue" d="M452.795,-228.589C476.909,-233.694 506.751,-240.011 532.167,-245.392"/>
<polygon fill="midnightblue" stroke="midnightblue" points="531.522,-248.833 542.03,-247.48 532.972,-241.985 531.522,-248.833"/>
</g>
<!-- Node22 -->
<g id="node22" class="node"><title>Node22</title>
<g id="a_node22"><a xlink:href="class_a_r_controller.html#a0ce295c65ca5138b666b87387f996016" target="_top" xlink:title="Returns the number of currently loaded trackables. ">
<polygon fill="white" stroke="black" points="709,-190.5 709,-209.5 860,-209.5 860,-190.5 709,-190.5"/>
<text text-anchor="middle" x="784.5" y="-197.5" font-family="Helvetica,sans-Serif" font-size="10.00">ARController::countTrackables</text>
</a>
</g>
</g>
<!-- Node3&#45;&gt;Node22 -->
<g id="edge21" class="edge"><title>Node3&#45;&gt;Node22</title>
<path fill="none" stroke="midnightblue" d="M467.078,-215.989C529.545,-212.833 628.246,-207.845 698.798,-204.28"/>
<polygon fill="midnightblue" stroke="midnightblue" points="699.185,-207.765 708.996,-203.765 698.832,-200.774 699.185,-207.765"/>
</g>
<!-- Node23 -->
<g id="node23" class="node"><title>Node23</title>
<g id="a_node23"><a xlink:href="class_a_r_controller.html#a4be78b9f44e98f73f850b12700607da1" target="_top" xlink:title="Clears the collection of markers. ">
<polygon fill="white" stroke="black" points="503,-171.5 503,-190.5 673,-190.5 673,-171.5 503,-171.5"/>
<text text-anchor="middle" x="588" y="-178.5" font-family="Helvetica,sans-Serif" font-size="10.00">ARController::removeAllTrackables</text>
</a>
</g>
</g>
<!-- Node3&#45;&gt;Node23 -->
<g id="edge22" class="edge"><title>Node3&#45;&gt;Node23</title>
<path fill="none" stroke="midnightblue" d="M452.795,-209.411C476.909,-204.306 506.751,-197.989 532.167,-192.608"/>
<polygon fill="midnightblue" stroke="midnightblue" points="532.972,-196.015 542.03,-190.52 531.522,-189.167 532.972,-196.015"/>
</g>
<!-- Node5 -->
<g id="node5" class="node"><title>Node5</title>
<g id="a_node5"><a xlink:href="class_a_r_video_source.html#ae67083e64b2b3c6d7aa6d8cbe33ef95f" target="_top" xlink:title="Closes the video source. ">
<polygon fill="white" stroke="black" points="726.5,-247.5 726.5,-266.5 842.5,-266.5 842.5,-247.5 726.5,-247.5"/>
<text text-anchor="middle" x="784.5" y="-254.5" font-family="Helvetica,sans-Serif" font-size="10.00">ARVideoSource::close</text>
</a>
</g>
</g>
<!-- Node4&#45;&gt;Node5 -->
<g id="edge4" class="edge"><title>Node4&#45;&gt;Node5</title>
<path fill="none" stroke="midnightblue" d="M655.12,-257C674.814,-257 696.412,-257 716.182,-257"/>
<polygon fill="midnightblue" stroke="midnightblue" points="716.334,-260.5 726.334,-257 716.334,-253.5 716.334,-260.5"/>
</g>
<!-- Node6 -->
<g id="node6" class="node"><title>Node6</title>
<g id="a_node6"><a xlink:href="video_8h.html#a7f44f09a5e412bb83330887458e96b84" target="_top" xlink:title="ar2VideoCapStop">
<polygon fill="white" stroke="black" points="896,-342.5 896,-361.5 989,-361.5 989,-342.5 896,-342.5"/>
<text text-anchor="middle" x="942.5" y="-349.5" font-family="Helvetica,sans-Serif" font-size="10.00">ar2VideoCapStop</text>
</a>
</g>
</g>
<!-- Node5&#45;&gt;Node6 -->
<g id="edge5" class="edge"><title>Node5&#45;&gt;Node6</title>
<path fill="none" stroke="midnightblue" d="M801.317,-266.632C828.53,-283.204 884.4,-317.228 916.787,-336.951"/>
<polygon fill="midnightblue" stroke="midnightblue" points="915.28,-340.131 925.642,-342.343 918.921,-334.152 915.28,-340.131"/>
</g>
<!-- Node13 -->
<g id="node13" class="node"><title>Node13</title>
<g id="a_node13"><a xlink:href="param_8h.html#a42d02aaf13cedaf0f2cd1b93a5d81643" target="_top" xlink:title="Dispose of a memory allocated to a lookup&#45;table camera parameter. ">
<polygon fill="white" stroke="black" points="900.5,-247.5 900.5,-266.5 984.5,-266.5 984.5,-247.5 900.5,-247.5"/>
<text text-anchor="middle" x="942.5" y="-254.5" font-family="Helvetica,sans-Serif" font-size="10.00">arParamLTFree</text>
</a>
</g>
</g>
<!-- Node5&#45;&gt;Node13 -->
<g id="edge12" class="edge"><title>Node5&#45;&gt;Node13</title>
<path fill="none" stroke="midnightblue" d="M842.703,-257C858.247,-257 874.979,-257 890.175,-257"/>
<polygon fill="midnightblue" stroke="midnightblue" points="890.417,-260.5 900.417,-257 890.417,-253.5 890.417,-260.5"/>
</g>
<!-- Node14 -->
<g id="node14" class="node"><title>Node14</title>
<g id="a_node14"><a xlink:href="video_8h.html#a4b8a9b1a18beed51b2f0600687de63b8" target="_top" xlink:title="ar2VideoClose">
<polygon fill="white" stroke="black" points="902.5,-133.5 902.5,-152.5 982.5,-152.5 982.5,-133.5 902.5,-133.5"/>
<text text-anchor="middle" x="942.5" y="-140.5" font-family="Helvetica,sans-Serif" font-size="10.00">ar2VideoClose</text>
</a>
</g>
</g>
<!-- Node5&#45;&gt;Node14 -->
<g id="edge13" class="edge"><title>Node5&#45;&gt;Node14</title>
<path fill="none" stroke="midnightblue" d="M808.267,-247.399C823.518,-240.493 843.708,-230.413 860,-219 885.056,-201.448 910.253,-176.583 925.858,-160.136"/>
<polygon fill="midnightblue" stroke="midnightblue" points="928.435,-162.503 932.705,-152.807 923.32,-157.725 928.435,-162.503"/>
</g>
<!-- Node7 -->
<g id="node7" class="node"><title>Node7</title>
<g id="a_node7"><a xlink:href="video_dummy_8h.html#a78fa5654276bc8d340ffe8182d0bcd6c" target="_top" xlink:title="ar2VideoCapStopDummy">
<polygon fill="white" stroke="black" points="1038.5,-456.5 1038.5,-475.5 1166.5,-475.5 1166.5,-456.5 1038.5,-456.5"/>
<text text-anchor="middle" x="1102.5" y="-463.5" font-family="Helvetica,sans-Serif" font-size="10.00">ar2VideoCapStopDummy</text>
</a>
</g>
</g>
<!-- Node6&#45;&gt;Node7 -->
<g id="edge6" class="edge"><title>Node6&#45;&gt;Node7</title>
<path fill="none" stroke="midnightblue" d="M948.858,-361.525C960.233,-380.833 988.747,-424.644 1025,-447 1028.44,-449.121 1032.1,-451.006 1035.9,-452.68"/>
<polygon fill="midnightblue" stroke="midnightblue" points="1034.94,-456.063 1045.52,-456.425 1037.47,-449.538 1034.94,-456.063"/>
</g>
<!-- Node8 -->
<g id="node8" class="node"><title>Node8</title>
<g id="a_node8"><a xlink:href="video_v4_l2_8h.html#a530b43b034daf2f89586fb69e9de74aa" target="_top" xlink:title="ar2VideoCapStopV4L2">
<polygon fill="white" stroke="black" points="1044.5,-418.5 1044.5,-437.5 1160.5,-437.5 1160.5,-418.5 1044.5,-418.5"/>
<text text-anchor="middle" x="1102.5" y="-425.5" font-family="Helvetica,sans-Serif" font-size="10.00">ar2VideoCapStopV4L2</text>
</a>
</g>
</g>
<!-- Node6&#45;&gt;Node8 -->
<g id="edge7" class="edge"><title>Node6&#45;&gt;Node8</title>
<path fill="none" stroke="midnightblue" d="M954.299,-361.534C969.19,-374.195 997.338,-396.418 1025,-409 1030.35,-411.432 1036.05,-413.582 1041.84,-415.478"/>
<polygon fill="midnightblue" stroke="midnightblue" points="1041.04,-418.891 1051.62,-418.43 1043.06,-412.19 1041.04,-418.891"/>
</g>
<!-- Node9 -->
<g id="node9" class="node"><title>Node9</title>
<g id="a_node9"><a xlink:href="video1394_8h.html#a23f653b38bb02af6d9050d02b0702f94" target="_top" xlink:title="ar2VideoCapStop1394">
<polygon fill="white" stroke="black" points="1045.5,-380.5 1045.5,-399.5 1159.5,-399.5 1159.5,-380.5 1045.5,-380.5"/>
<text text-anchor="middle" x="1102.5" y="-387.5" font-family="Helvetica,sans-Serif" font-size="10.00">ar2VideoCapStop1394</text>
</a>
</g>
</g>
<!-- Node6&#45;&gt;Node9 -->
<g id="edge8" class="edge"><title>Node6&#45;&gt;Node9</title>
<path fill="none" stroke="midnightblue" d="M983.37,-361.589C1004.22,-366.604 1029.93,-372.788 1052.04,-378.105"/>
<polygon fill="midnightblue" stroke="midnightblue" points="1051.38,-381.544 1061.92,-380.48 1053.01,-374.739 1051.38,-381.544"/>
</g>
<!-- Node10 -->
<g id="node10" class="node"><title>Node10</title>
<g id="a_node10"><a xlink:href="video_a_v_foundation_8h.html#a80dffabb6c571245b002d91e9031ca64" target="_top" xlink:title="ar2VideoCapStopAVFoundation">
<polygon fill="white" stroke="black" points="1025,-342.5 1025,-361.5 1180,-361.5 1180,-342.5 1025,-342.5"/>
<text text-anchor="middle" x="1102.5" y="-349.5" font-family="Helvetica,sans-Serif" font-size="10.00">ar2VideoCapStopAVFoundation</text>
</a>
</g>
</g>
<!-- Node6&#45;&gt;Node10 -->
<g id="edge9" class="edge"><title>Node6&#45;&gt;Node10</title>
<path fill="none" stroke="midnightblue" d="M989.2,-352C997.345,-352 1006.07,-352 1014.92,-352"/>
<polygon fill="midnightblue" stroke="midnightblue" points="1014.94,-355.5 1024.94,-352 1014.94,-348.5 1014.94,-355.5"/>
</g>
<!-- Node11 -->
<g id="node11" class="node"><title>Node11</title>
<g id="a_node11"><a xlink:href="video_image_8h.html#af8b971aac579641ba46492cbd6394293" target="_top" xlink:title="ar2VideoCapStopImage">
<polygon fill="white" stroke="black" points="1042.5,-304.5 1042.5,-323.5 1162.5,-323.5 1162.5,-304.5 1042.5,-304.5"/>
<text text-anchor="middle" x="1102.5" y="-311.5" font-family="Helvetica,sans-Serif" font-size="10.00">ar2VideoCapStopImage</text>
</a>
</g>
</g>
<!-- Node6&#45;&gt;Node11 -->
<g id="edge10" class="edge"><title>Node6&#45;&gt;Node11</title>
<path fill="none" stroke="midnightblue" d="M983.37,-342.411C1004.22,-337.396 1029.93,-331.212 1052.04,-325.895"/>
<polygon fill="midnightblue" stroke="midnightblue" points="1053.01,-329.261 1061.92,-323.52 1051.38,-322.456 1053.01,-329.261"/>
</g>
<!-- Node12 -->
<g id="node12" class="node"><title>Node12</title>
<g id="a_node12"><a xlink:href="video_android_8h.html#a0d13c2368b42b9e85c60830fb13fd04e" target="_top" xlink:title="ar2VideoCapStopAndroid">
<polygon fill="white" stroke="black" points="1039.5,-266.5 1039.5,-285.5 1165.5,-285.5 1165.5,-266.5 1039.5,-266.5"/>
<text text-anchor="middle" x="1102.5" y="-273.5" font-family="Helvetica,sans-Serif" font-size="10.00">ar2VideoCapStopAndroid</text>
</a>
</g>
</g>
<!-- Node6&#45;&gt;Node12 -->
<g id="edge11" class="edge"><title>Node6&#45;&gt;Node12</title>
<path fill="none" stroke="midnightblue" d="M954.299,-342.466C969.19,-329.805 997.338,-307.582 1025,-295 1030.35,-292.568 1036.05,-290.418 1041.84,-288.522"/>
<polygon fill="midnightblue" stroke="midnightblue" points="1043.06,-291.81 1051.62,-285.57 1041.04,-285.109 1043.06,-291.81"/>
</g>
<!-- Node15 -->
<g id="node15" class="node"><title>Node15</title>
<g id="a_node15"><a xlink:href="video_luma_8h.html#af73e0e884452c46682458a136539792b" target="_top" xlink:title="arVideoLumaFinal">
<polygon fill="white" stroke="black" points="1055,-228.5 1055,-247.5 1150,-247.5 1150,-228.5 1055,-228.5"/>
<text text-anchor="middle" x="1102.5" y="-235.5" font-family="Helvetica,sans-Serif" font-size="10.00">arVideoLumaFinal</text>
</a>
</g>
</g>
<!-- Node14&#45;&gt;Node15 -->
<g id="edge14" class="edge"><title>Node14&#45;&gt;Node15</title>
<path fill="none" stroke="midnightblue" d="M950.929,-152.568C964.061,-168.8 993.028,-201.659 1025,-219 1031.14,-222.331 1037.88,-225.09 1044.73,-227.371"/>
<polygon fill="midnightblue" stroke="midnightblue" points="1044.2,-230.867 1054.78,-230.384 1046.21,-224.161 1044.2,-230.867"/>
</g>
<!-- Node16 -->
<g id="node16" class="node"><title>Node16</title>
<g id="a_node16"><a xlink:href="video_dummy_8h.html#ae518c53d87b1320ba8cd80ed8a23bf0a" target="_top" xlink:title="ar2VideoCloseDummy">
<polygon fill="white" stroke="black" points="1045,-190.5 1045,-209.5 1160,-209.5 1160,-190.5 1045,-190.5"/>
<text text-anchor="middle" x="1102.5" y="-197.5" font-family="Helvetica,sans-Serif" font-size="10.00">ar2VideoCloseDummy</text>
</a>
</g>
</g>
<!-- Node14&#45;&gt;Node16 -->
<g id="edge15" class="edge"><title>Node14&#45;&gt;Node16</title>
<path fill="none" stroke="midnightblue" d="M961.527,-152.637C977.767,-161.019 1002.48,-173.037 1025,-181 1032.09,-183.506 1039.65,-185.811 1047.17,-187.887"/>
<polygon fill="midnightblue" stroke="midnightblue" points="1046.41,-191.307 1056.98,-190.48 1048.2,-184.539 1046.41,-191.307"/>
</g>
<!-- Node17 -->
<g id="node17" class="node"><title>Node17</title>
<g id="a_node17"><a xlink:href="video_v4_l2_8h.html#a160602fb4d1827e9053166f051f4613d" target="_top" xlink:title="ar2VideoCloseV4L2">
<polygon fill="white" stroke="black" points="1051,-152.5 1051,-171.5 1154,-171.5 1154,-152.5 1051,-152.5"/>
<text text-anchor="middle" x="1102.5" y="-159.5" font-family="Helvetica,sans-Serif" font-size="10.00">ar2VideoCloseV4L2</text>
</a>
</g>
</g>
<!-- Node14&#45;&gt;Node17 -->
<g id="edge16" class="edge"><title>Node14&#45;&gt;Node17</title>
<path fill="none" stroke="midnightblue" d="M982.556,-147.697C1000.14,-149.812 1021.31,-152.357 1040.89,-154.711"/>
<polygon fill="midnightblue" stroke="midnightblue" points="1040.61,-158.203 1050.95,-155.922 1041.44,-151.253 1040.61,-158.203"/>
</g>
<!-- Node18 -->
<g id="node18" class="node"><title>Node18</title>
<g id="a_node18"><a xlink:href="video1394_8h.html#aaea7efdd8dad25a42fe9b8f3bc3edf0b" target="_top" xlink:title="ar2VideoClose1394">
<polygon fill="white" stroke="black" points="1052,-114.5 1052,-133.5 1153,-133.5 1153,-114.5 1052,-114.5"/>
<text text-anchor="middle" x="1102.5" y="-121.5" font-family="Helvetica,sans-Serif" font-size="10.00">ar2VideoClose1394</text>
</a>
</g>
</g>
<!-- Node14&#45;&gt;Node18 -->
<g id="edge17" class="edge"><title>Node14&#45;&gt;Node18</title>
<path fill="none" stroke="midnightblue" d="M982.556,-138.303C1000.38,-136.16 1021.88,-133.575 1041.67,-131.195"/>
<polygon fill="midnightblue" stroke="midnightblue" points="1042.32,-134.641 1051.83,-129.972 1041.49,-127.691 1042.32,-134.641"/>
</g>
<!-- Node19 -->
<g id="node19" class="node"><title>Node19</title>
<g id="a_node19"><a xlink:href="video_a_v_foundation_8h.html#a2883b331cca58ccd1c036f2318041f03" target="_top" xlink:title="ar2VideoCloseAVFoundation">
<polygon fill="white" stroke="black" points="1031.5,-76.5 1031.5,-95.5 1173.5,-95.5 1173.5,-76.5 1031.5,-76.5"/>
<text text-anchor="middle" x="1102.5" y="-83.5" font-family="Helvetica,sans-Serif" font-size="10.00">ar2VideoCloseAVFoundation</text>
</a>
</g>
</g>
<!-- Node14&#45;&gt;Node19 -->
<g id="edge18" class="edge"><title>Node14&#45;&gt;Node19</title>
<path fill="none" stroke="midnightblue" d="M961.527,-133.363C977.767,-124.981 1002.48,-112.963 1025,-105 1032.09,-102.494 1039.65,-100.189 1047.17,-98.1135"/>
<polygon fill="midnightblue" stroke="midnightblue" points="1048.2,-101.461 1056.98,-95.5201 1046.41,-94.6934 1048.2,-101.461"/>
</g>
<!-- Node20 -->
<g id="node20" class="node"><title>Node20</title>
<g id="a_node20"><a xlink:href="video_image_8h.html#a3ffc443b510b55d94d0aed46e4277388" target="_top" xlink:title="ar2VideoCloseImage">
<polygon fill="white" stroke="black" points="1049,-38.5 1049,-57.5 1156,-57.5 1156,-38.5 1049,-38.5"/>
<text text-anchor="middle" x="1102.5" y="-45.5" font-family="Helvetica,sans-Serif" font-size="10.00">ar2VideoCloseImage</text>
</a>
</g>
</g>
<!-- Node14&#45;&gt;Node20 -->
<g id="edge19" class="edge"><title>Node14&#45;&gt;Node20</title>
<path fill="none" stroke="midnightblue" d="M950.929,-133.432C964.061,-117.2 993.028,-84.3407 1025,-67 1029.47,-64.5748 1034.26,-62.4533 1039.17,-60.5984"/>
<polygon fill="midnightblue" stroke="midnightblue" points="1040.39,-63.881 1048.73,-57.3502 1038.14,-57.253 1040.39,-63.881"/>
</g>
<!-- Node21 -->
<g id="node21" class="node"><title>Node21</title>
<g id="a_node21"><a xlink:href="video_android_8h.html#afb5748a9176a3e1a8aee435726c18be2" target="_top" xlink:title="ar2VideoCloseAndroid">
<polygon fill="white" stroke="black" points="1046,-0.5 1046,-19.5 1159,-19.5 1159,-0.5 1046,-0.5"/>
<text text-anchor="middle" x="1102.5" y="-7.5" font-family="Helvetica,sans-Serif" font-size="10.00">ar2VideoCloseAndroid</text>
</a>
</g>
</g>
<!-- Node14&#45;&gt;Node21 -->
<g id="edge20" class="edge"><title>Node14&#45;&gt;Node21</title>
<path fill="none" stroke="midnightblue" d="M947.568,-133.281C957.377,-111.086 984.551,-56.4822 1025,-29 1028.57,-26.5774 1032.41,-24.4634 1036.42,-22.6186"/>
<polygon fill="midnightblue" stroke="midnightblue" points="1038.01,-25.7522 1045.99,-18.7843 1035.4,-19.2542 1038.01,-25.7522"/>
</g>
<!-- Node23&#45;&gt;Node22 -->
<g id="edge23" class="edge"><title>Node23&#45;&gt;Node22</title>
<path fill="none" stroke="midnightblue" d="M673.179,-189.223C681.739,-190.059 690.437,-190.909 699,-191.746"/>
<polygon fill="midnightblue" stroke="midnightblue" points="698.682,-195.231 708.975,-192.72 699.362,-188.264 698.682,-195.231"/>
</g>
</g>
</svg>
