<?xml version="1.0" encoding="UTF-8" standalone="no"?>
<!DOCTYPE svg PUBLIC "-//W3C//DTD SVG 1.1//EN"
 "http://www.w3.org/Graphics/SVG/1.1/DTD/svg11.dtd">
<!-- Generated by graphviz version 2.38.0 (20140413.2041)
 -->
<!-- Title: arwGetTrackableOptionBool Pages: 1 -->
<svg width="320pt" height="66pt"
 viewBox="0.00 0.00 320.00 66.00" xmlns="http://www.w3.org/2000/svg" xmlns:xlink="http://www.w3.org/1999/xlink">
<g id="graph0" class="graph" transform="scale(1 1) rotate(0) translate(4 62)">
<title>arwGetTrackableOptionBool</title>
<polygon fill="white" stroke="none" points="-4,4 -4,-62 316,-62 316,4 -4,4"/>
<!-- Node1 -->
<g id="node1" class="node"><title>Node1</title>
<polygon fill="#bfbfbf" stroke="black" points="0,-19.5 0,-38.5 139,-38.5 139,-19.5 0,-19.5"/>
<text text-anchor="middle" x="69.5" y="-26.5" font-family="Helvetica,sans-Serif" font-size="10.00">arwGetTrackableOptionBool</text>
</g>
<!-- Node2 -->
<g id="node2" class="node"><title>Node2</title>
<g id="a_node2"><a xlink:href="class_a_r_controller.html#a4eafe05e50bdb9e788ad836f4c2104f1" target="_top" xlink:title="Searches the collection of markers for the given ID. ">
<polygon fill="white" stroke="black" points="175,-38.5 175,-57.5 312,-57.5 312,-38.5 175,-38.5"/>
<text text-anchor="middle" x="243.5" y="-45.5" font-family="Helvetica,sans-Serif" font-size="10.00">ARController::findTrackable</text>
</a>
</g>
</g>
<!-- Node1&#45;&gt;Node2 -->
<g id="edge1" class="edge"><title>Node1&#45;&gt;Node2</title>
<path fill="none" stroke="midnightblue" d="M139.468,-36.6185C147.773,-37.536 156.3,-38.4779 164.72,-39.408"/>
<polygon fill="midnightblue" stroke="midnightblue" points="164.593,-42.9152 174.916,-40.5344 165.361,-35.9575 164.593,-42.9152"/>
</g>
<!-- Node3 -->
<g id="node3" class="node"><title>Node3</title>
<g id="a_node3"><a xlink:href="class_a_r_trackable.html#a72e447caace9aaf7248e7ed4860982a3" target="_top" xlink:title="ARTrackable::isFiltered">
<polygon fill="white" stroke="black" points="184,-0.5 184,-19.5 303,-19.5 303,-0.5 184,-0.5"/>
<text text-anchor="middle" x="243.5" y="-7.5" font-family="Helvetica,sans-Serif" font-size="10.00">ARTrackable::isFiltered</text>
</a>
</g>
</g>
<!-- Node1&#45;&gt;Node3 -->
<g id="edge2" class="edge"><title>Node1&#45;&gt;Node3</title>
<path fill="none" stroke="midnightblue" d="M139.468,-21.3815C150.702,-20.1405 162.34,-18.8548 173.574,-17.614"/>
<polygon fill="midnightblue" stroke="midnightblue" points="174.198,-21.0664 183.753,-16.4895 173.429,-14.1087 174.198,-21.0664"/>
</g>
</g>
</svg>
