<?xml version="1.0" encoding="UTF-8" standalone="no"?>
<!DOCTYPE svg PUBLIC "-//W3C//DTD SVG 1.1//EN"
 "http://www.w3.org/Graphics/SVG/1.1/DTD/svg11.dtd">
<!-- Generated by graphviz version 2.38.0 (20140413.2041)
 -->
<!-- Title: arMatrixAllocUnit Pages: 1 -->
<svg width="210pt" height="104pt"
 viewBox="0.00 0.00 210.00 104.00" xmlns="http://www.w3.org/2000/svg" xmlns:xlink="http://www.w3.org/1999/xlink">
<g id="graph0" class="graph" transform="scale(1 1) rotate(0) translate(4 100)">
<title>arMatrixAllocUnit</title>
<polygon fill="white" stroke="none" points="-4,4 -4,-100 206,-100 206,4 -4,4"/>
<!-- Node1 -->
<g id="node1" class="node"><title>Node1</title>
<polygon fill="#bfbfbf" stroke="black" points="0,-38.5 0,-57.5 92,-57.5 92,-38.5 0,-38.5"/>
<text text-anchor="middle" x="46" y="-45.5" font-family="Helvetica,sans-Serif" font-size="10.00">arMatrixAllocUnit</text>
</g>
<!-- Node2 -->
<g id="node2" class="node"><title>Node2</title>
<g id="a_node2"><a xlink:href="_a_r_2include_2_a_r6_2_a_r_2matrix_8h.html#a7169e4124d09fcbe1b8730ade678d64d" target="_top" xlink:title="arMatrixAlloc">
<polygon fill="white" stroke="black" points="128,-76.5 128,-95.5 202,-95.5 202,-76.5 128,-76.5"/>
<text text-anchor="middle" x="165" y="-83.5" font-family="Helvetica,sans-Serif" font-size="10.00">arMatrixAlloc</text>
</a>
</g>
</g>
<!-- Node1&#45;&gt;Node2 -->
<g id="edge1" class="edge"><title>Node1&#45;&gt;Node2</title>
<path fill="none" stroke="midnightblue" d="M76.524,-57.589C91.2119,-62.3594 109.16,-68.1888 124.968,-73.3229"/>
<polygon fill="midnightblue" stroke="midnightblue" points="123.893,-76.6538 134.485,-76.4141 126.056,-69.9961 123.893,-76.6538"/>
</g>
<!-- Node3 -->
<g id="node3" class="node"><title>Node3</title>
<g id="a_node3"><a xlink:href="_a_r_2include_2_a_r6_2_a_r_2matrix_8h.html#a8c8ecb09b4faa2e37ea4b0a48be9fa5f" target="_top" xlink:title="arMatrixUnit">
<polygon fill="white" stroke="black" points="130,-38.5 130,-57.5 200,-57.5 200,-38.5 130,-38.5"/>
<text text-anchor="middle" x="165" y="-45.5" font-family="Helvetica,sans-Serif" font-size="10.00">arMatrixUnit</text>
</a>
</g>
</g>
<!-- Node1&#45;&gt;Node3 -->
<g id="edge2" class="edge"><title>Node1&#45;&gt;Node3</title>
<path fill="none" stroke="midnightblue" d="M92.2353,-48C101.202,-48 110.607,-48 119.547,-48"/>
<polygon fill="midnightblue" stroke="midnightblue" points="119.774,-51.5001 129.774,-48 119.774,-44.5001 119.774,-51.5001"/>
</g>
<!-- Node4 -->
<g id="node4" class="node"><title>Node4</title>
<g id="a_node4"><a xlink:href="_a_r_2include_2_a_r6_2_a_r_2matrix_8h.html#ac4b7a714cce9fffda773d86363380454" target="_top" xlink:title="arMatrixFree">
<polygon fill="white" stroke="black" points="129.5,-0.5 129.5,-19.5 200.5,-19.5 200.5,-0.5 129.5,-0.5"/>
<text text-anchor="middle" x="165" y="-7.5" font-family="Helvetica,sans-Serif" font-size="10.00">arMatrixFree</text>
</a>
</g>
</g>
<!-- Node1&#45;&gt;Node4 -->
<g id="edge3" class="edge"><title>Node1&#45;&gt;Node4</title>
<path fill="none" stroke="midnightblue" d="M76.524,-38.411C91.2119,-33.6406 109.16,-27.8112 124.968,-22.6771"/>
<polygon fill="midnightblue" stroke="midnightblue" points="126.056,-26.0039 134.485,-19.5859 123.893,-19.3462 126.056,-26.0039"/>
</g>
</g>
</svg>
