<?xml version="1.0" encoding="UTF-8" standalone="no"?>
<!DOCTYPE svg PUBLIC "-//W3C//DTD SVG 1.1//EN"
 "http://www.w3.org/Graphics/SVG/1.1/DTD/svg11.dtd">
<!-- Generated by graphviz version 2.38.0 (20140413.2041)
 -->
<!-- Title: arwSetTrackableOptionBool Pages: 1 -->
<svg width="637pt" height="85pt"
 viewBox="0.00 0.00 637.00 85.00" xmlns="http://www.w3.org/2000/svg" xmlns:xlink="http://www.w3.org/1999/xlink">
<g id="graph0" class="graph" transform="scale(1 1) rotate(0) translate(4 81)">
<title>arwSetTrackableOptionBool</title>
<polygon fill="white" stroke="none" points="-4,4 -4,-81 633,-81 633,4 -4,4"/>
<!-- Node1 -->
<g id="node1" class="node"><title>Node1</title>
<polygon fill="#bfbfbf" stroke="black" points="0,-38.5 0,-57.5 138,-57.5 138,-38.5 0,-38.5"/>
<text text-anchor="middle" x="69" y="-45.5" font-family="Helvetica,sans-Serif" font-size="10.00">arwSetTrackableOptionBool</text>
</g>
<!-- Node2 -->
<g id="node2" class="node"><title>Node2</title>
<g id="a_node2"><a xlink:href="class_a_r_controller.html#a4eafe05e50bdb9e788ad836f4c2104f1" target="_top" xlink:title="Searches the collection of markers for the given ID. ">
<polygon fill="white" stroke="black" points="174,-57.5 174,-76.5 311,-76.5 311,-57.5 174,-57.5"/>
<text text-anchor="middle" x="242.5" y="-64.5" font-family="Helvetica,sans-Serif" font-size="10.00">ARController::findTrackable</text>
</a>
</g>
</g>
<!-- Node1&#45;&gt;Node2 -->
<g id="edge1" class="edge"><title>Node1&#45;&gt;Node2</title>
<path fill="none" stroke="midnightblue" d="M138.274,-55.5639C146.575,-56.4835 155.104,-57.4285 163.533,-58.3622"/>
<polygon fill="midnightblue" stroke="midnightblue" points="163.416,-61.8706 173.741,-59.4931 164.187,-54.9132 163.416,-61.8706"/>
</g>
<!-- Node3 -->
<g id="node3" class="node"><title>Node3</title>
<g id="a_node3"><a xlink:href="class_a_r_trackable.html#a28ba769c267933335c7000c2aac66a74" target="_top" xlink:title="ARTrackable::setFiltered">
<polygon fill="white" stroke="black" points="180,-19.5 180,-38.5 305,-38.5 305,-19.5 180,-19.5"/>
<text text-anchor="middle" x="242.5" y="-26.5" font-family="Helvetica,sans-Serif" font-size="10.00">ARTrackable::setFiltered</text>
</a>
</g>
</g>
<!-- Node1&#45;&gt;Node3 -->
<g id="edge2" class="edge"><title>Node1&#45;&gt;Node3</title>
<path fill="none" stroke="midnightblue" d="M138.274,-40.4361C148.573,-39.2952 159.222,-38.1153 169.594,-36.9662"/>
<polygon fill="midnightblue" stroke="midnightblue" points="170.297,-40.4099 179.851,-35.83 169.526,-33.4525 170.297,-40.4099"/>
</g>
<!-- Node4 -->
<g id="node4" class="node"><title>Node4</title>
<g id="a_node4"><a xlink:href="ar_filter_trans_mat_8c.html#ad9f337deddc3ad3f32e5133cf6968f14" target="_top" xlink:title="Initialise a filter for a single transformation matrix (pose estimate). ">
<polygon fill="white" stroke="black" points="351,-38.5 351,-57.5 452,-57.5 452,-38.5 351,-38.5"/>
<text text-anchor="middle" x="401.5" y="-45.5" font-family="Helvetica,sans-Serif" font-size="10.00">arFilterTransMatInit</text>
</a>
</g>
</g>
<!-- Node3&#45;&gt;Node4 -->
<g id="edge3" class="edge"><title>Node3&#45;&gt;Node4</title>
<path fill="none" stroke="midnightblue" d="M305.1,-36.4548C316.794,-37.87 329.013,-39.3488 340.652,-40.7573"/>
<polygon fill="midnightblue" stroke="midnightblue" points="340.355,-44.2467 350.703,-41.9736 341.196,-37.2974 340.355,-44.2467"/>
</g>
<!-- Node6 -->
<g id="node6" class="node"><title>Node6</title>
<g id="a_node6"><a xlink:href="ar_filter_trans_mat_8c.html#a52813489717ce82b433e44adfd3bc3dd" target="_top" xlink:title="Finalise a filter. ">
<polygon fill="white" stroke="black" points="347,-0.5 347,-19.5 456,-19.5 456,-0.5 347,-0.5"/>
<text text-anchor="middle" x="401.5" y="-7.5" font-family="Helvetica,sans-Serif" font-size="10.00">arFilterTransMatFinal</text>
</a>
</g>
</g>
<!-- Node3&#45;&gt;Node6 -->
<g id="edge5" class="edge"><title>Node3&#45;&gt;Node6</title>
<path fill="none" stroke="midnightblue" d="M305.1,-21.5452C315.581,-20.2768 326.485,-18.9573 337.014,-17.6831"/>
<polygon fill="midnightblue" stroke="midnightblue" points="337.461,-21.1546 346.968,-16.4784 336.62,-14.2053 337.461,-21.1546"/>
</g>
<!-- Node5 -->
<g id="node5" class="node"><title>Node5</title>
<g id="a_node5"><a xlink:href="ar_filter_trans_mat_8c.html#ae82377e0d7286e5808b319a38c13c02c" target="_top" xlink:title="Set the filter parameters. ">
<polygon fill="white" stroke="black" points="492,-38.5 492,-57.5 629,-57.5 629,-38.5 492,-38.5"/>
<text text-anchor="middle" x="560.5" y="-45.5" font-family="Helvetica,sans-Serif" font-size="10.00">arFilterTransMatSetParams</text>
</a>
</g>
</g>
<!-- Node4&#45;&gt;Node5 -->
<g id="edge4" class="edge"><title>Node4&#45;&gt;Node5</title>
<path fill="none" stroke="midnightblue" d="M452.176,-48C461.609,-48 471.686,-48 481.747,-48"/>
<polygon fill="midnightblue" stroke="midnightblue" points="481.779,-51.5001 491.779,-48 481.779,-44.5001 481.779,-51.5001"/>
</g>
</g>
</svg>
