<?xml version="1.0" encoding="UTF-8" standalone="no"?>
<!DOCTYPE svg PUBLIC "-//W3C//DTD SVG 1.1//EN"
 "http://www.w3.org/Graphics/SVG/1.1/DTD/svg11.dtd">
<!-- Generated by graphviz version 2.38.0 (20140413.2041)
 -->
<!-- Title: /bitrise/src/Source/AR6/include/AR6/ARTrackerSquare.h Pages: 1 -->
<svg width="1227pt" height="184pt"
 viewBox="0.00 0.00 1226.50 184.00" xmlns="http://www.w3.org/2000/svg" xmlns:xlink="http://www.w3.org/1999/xlink">
<g id="graph0" class="graph" transform="scale(1 1) rotate(0) translate(4 180)">
<title>/bitrise/src/Source/AR6/include/AR6/ARTrackerSquare.h</title>
<polygon fill="white" stroke="none" points="-4,4 -4,-180 1222.5,-180 1222.5,4 -4,4"/>
<!-- Node1 -->
<g id="node1" class="node"><title>Node1</title>
<polygon fill="#bfbfbf" stroke="black" points="133,-134.5 133,-175.5 279,-175.5 279,-134.5 133,-134.5"/>
<text text-anchor="start" x="141" y="-163.5" font-family="Helvetica,sans-Serif" font-size="10.00">/bitrise/src/Source</text>
<text text-anchor="start" x="141" y="-152.5" font-family="Helvetica,sans-Serif" font-size="10.00">/AR6/include/AR6/ARTracker</text>
<text text-anchor="middle" x="206" y="-141.5" font-family="Helvetica,sans-Serif" font-size="10.00">Square.h</text>
</g>
<!-- Node2 -->
<g id="node2" class="node"><title>Node2</title>
<g id="a_node2"><a xlink:href="_a_r_trackable_8cpp.html" target="_top" xlink:title="/bitrise/src/Source\l/AR6/ARTrackable.cpp">
<polygon fill="white" stroke="black" points="0,-0.5 0,-30.5 118,-30.5 118,-0.5 0,-0.5"/>
<text text-anchor="start" x="8" y="-18.5" font-family="Helvetica,sans-Serif" font-size="10.00">/bitrise/src/Source</text>
<text text-anchor="middle" x="59" y="-7.5" font-family="Helvetica,sans-Serif" font-size="10.00">/AR6/ARTrackable.cpp</text>
</a>
</g>
</g>
<!-- Node1&#45;&gt;Node2 -->
<g id="edge1" class="edge"><title>Node1&#45;&gt;Node2</title>
<path fill="none" stroke="midnightblue" d="M177.485,-127.327C146.609,-98.4474 98.5251,-53.4708 74.1972,-30.7151"/>
<polygon fill="midnightblue" stroke="midnightblue" points="175.244,-130.025 184.938,-134.3 180.026,-124.912 175.244,-130.025"/>
</g>
<!-- Node3 -->
<g id="node3" class="node"><title>Node3</title>
<g id="a_node3"><a xlink:href="_a_r_tracker_square_8cpp.html" target="_top" xlink:title="/bitrise/src/Source\l/AR6/ARTrackerSquare.cpp">
<polygon fill="white" stroke="black" points="136.5,-0.5 136.5,-30.5 275.5,-30.5 275.5,-0.5 136.5,-0.5"/>
<text text-anchor="start" x="144.5" y="-18.5" font-family="Helvetica,sans-Serif" font-size="10.00">/bitrise/src/Source</text>
<text text-anchor="middle" x="206" y="-7.5" font-family="Helvetica,sans-Serif" font-size="10.00">/AR6/ARTrackerSquare.cpp</text>
</a>
</g>
</g>
<!-- Node1&#45;&gt;Node3 -->
<g id="edge2" class="edge"><title>Node1&#45;&gt;Node3</title>
<path fill="none" stroke="midnightblue" d="M206,-123.955C206,-95.0493 206,-52.603 206,-30.7151"/>
<polygon fill="midnightblue" stroke="midnightblue" points="202.5,-124.3 206,-134.3 209.5,-124.3 202.5,-124.3"/>
</g>
<!-- Node4 -->
<g id="node4" class="node"><title>Node4</title>
<g id="a_node4"><a xlink:href="_a_r_controller_8h.html" target="_top" xlink:title="/bitrise/src/Source\l/AR6/include/AR6/ARController.h">
<polygon fill="white" stroke="black" points="385.5,-67.5 385.5,-97.5 548.5,-97.5 548.5,-67.5 385.5,-67.5"/>
<text text-anchor="start" x="393.5" y="-85.5" font-family="Helvetica,sans-Serif" font-size="10.00">/bitrise/src/Source</text>
<text text-anchor="middle" x="467" y="-74.5" font-family="Helvetica,sans-Serif" font-size="10.00">/AR6/include/AR6/ARController.h</text>
</a>
</g>
</g>
<!-- Node1&#45;&gt;Node4 -->
<g id="edge3" class="edge"><title>Node1&#45;&gt;Node4</title>
<path fill="none" stroke="midnightblue" d="M288.164,-131.806C329.592,-120.616 378.589,-107.381 414.812,-97.5968"/>
<polygon fill="midnightblue" stroke="midnightblue" points="287.098,-128.469 278.356,-134.455 288.923,-135.227 287.098,-128.469"/>
</g>
<!-- Node4&#45;&gt;Node2 -->
<g id="edge6" class="edge"><title>Node4&#45;&gt;Node2</title>
<path fill="none" stroke="midnightblue" d="M375.443,-69.4847C306.861,-60.1008 210.817,-46.1457 127,-31 124.149,-30.4849 121.235,-29.9389 118.295,-29.3723"/>
<polygon fill="midnightblue" stroke="midnightblue" points="374.977,-72.9534 385.358,-70.8357 375.922,-66.0175 374.977,-72.9534"/>
</g>
<!-- Node4&#45;&gt;Node3 -->
<g id="edge10" class="edge"><title>Node4&#45;&gt;Node3</title>
<path fill="none" stroke="midnightblue" d="M400.953,-65.0515C358.284,-54.425 303.339,-40.7414 262.661,-30.6109"/>
<polygon fill="midnightblue" stroke="midnightblue" points="400.139,-68.4556 410.688,-67.476 401.83,-61.663 400.139,-68.4556"/>
</g>
<!-- Node5 -->
<g id="node5" class="node"><title>Node5</title>
<g id="a_node5"><a xlink:href="_a_r6__c_8cpp.html" target="_top" xlink:title="/bitrise/src/Source\l/AR6/AR6_c.cpp">
<polygon fill="white" stroke="black" points="294,-0.5 294,-30.5 390,-30.5 390,-0.5 294,-0.5"/>
<text text-anchor="start" x="302" y="-18.5" font-family="Helvetica,sans-Serif" font-size="10.00">/bitrise/src/Source</text>
<text text-anchor="middle" x="342" y="-7.5" font-family="Helvetica,sans-Serif" font-size="10.00">/AR6/AR6_c.cpp</text>
</a>
</g>
</g>
<!-- Node4&#45;&gt;Node5 -->
<g id="edge4" class="edge"><title>Node4&#45;&gt;Node5</title>
<path fill="none" stroke="midnightblue" d="M430.874,-62.7143C411.16,-52.4631 387.159,-39.9826 369.07,-30.5765"/>
<polygon fill="midnightblue" stroke="midnightblue" points="429.39,-65.8877 439.877,-67.396 432.619,-59.6771 429.39,-65.8877"/>
</g>
<!-- Node6 -->
<g id="node6" class="node"><title>Node6</title>
<g id="a_node6"><a xlink:href="_a_r_controller_8cpp.html" target="_top" xlink:title="/bitrise/src/Source\l/AR6/ARController.cpp">
<polygon fill="white" stroke="black" points="408.5,-0.5 408.5,-30.5 525.5,-30.5 525.5,-0.5 408.5,-0.5"/>
<text text-anchor="start" x="416.5" y="-18.5" font-family="Helvetica,sans-Serif" font-size="10.00">/bitrise/src/Source</text>
<text text-anchor="middle" x="467" y="-7.5" font-family="Helvetica,sans-Serif" font-size="10.00">/AR6/ARController.cpp</text>
</a>
</g>
</g>
<!-- Node4&#45;&gt;Node6 -->
<g id="edge5" class="edge"><title>Node4&#45;&gt;Node6</title>
<path fill="none" stroke="midnightblue" d="M467,-57.1081C467,-48.1539 467,-38.3227 467,-30.5765"/>
<polygon fill="midnightblue" stroke="midnightblue" points="463.5,-57.3959 467,-67.396 470.5,-57.396 463.5,-57.3959"/>
</g>
<!-- Node7 -->
<g id="node7" class="node"><title>Node7</title>
<g id="a_node7"><a xlink:href="_a_r_trackable_appearance_8cpp.html" target="_top" xlink:title="/bitrise/src/Source\l/AR6/ARTrackableAppearance.cpp">
<polygon fill="white" stroke="black" points="544,-0.5 544,-30.5 714,-30.5 714,-0.5 544,-0.5"/>
<text text-anchor="start" x="552" y="-18.5" font-family="Helvetica,sans-Serif" font-size="10.00">/bitrise/src/Source</text>
<text text-anchor="middle" x="629" y="-7.5" font-family="Helvetica,sans-Serif" font-size="10.00">/AR6/ARTrackableAppearance.cpp</text>
</a>
</g>
</g>
<!-- Node4&#45;&gt;Node7 -->
<g id="edge7" class="edge"><title>Node4&#45;&gt;Node7</title>
<path fill="none" stroke="midnightblue" d="M511.751,-63.5442C537.674,-53.143 569.838,-40.238 593.917,-30.5765"/>
<polygon fill="midnightblue" stroke="midnightblue" points="510.129,-60.4238 502.152,-67.396 512.736,-66.9204 510.129,-60.4238"/>
</g>
<!-- Node8 -->
<g id="node8" class="node"><title>Node8</title>
<g id="a_node8"><a xlink:href="_a_r_trackable_multi_square_8cpp.html" target="_top" xlink:title="/bitrise/src/Source\l/AR6/ARTrackableMultiSquare.cpp">
<polygon fill="white" stroke="black" points="732,-0.5 732,-30.5 902,-30.5 902,-0.5 732,-0.5"/>
<text text-anchor="start" x="740" y="-18.5" font-family="Helvetica,sans-Serif" font-size="10.00">/bitrise/src/Source</text>
<text text-anchor="middle" x="817" y="-7.5" font-family="Helvetica,sans-Serif" font-size="10.00">/AR6/ARTrackableMultiSquare.cpp</text>
</a>
</g>
</g>
<!-- Node4&#45;&gt;Node8 -->
<g id="edge8" class="edge"><title>Node4&#45;&gt;Node8</title>
<path fill="none" stroke="midnightblue" d="M552.351,-65.649C610.109,-54.9227 685.714,-40.8816 741.32,-30.5549"/>
<polygon fill="midnightblue" stroke="midnightblue" points="551.707,-62.2088 542.514,-67.476 552.985,-69.0912 551.707,-62.2088"/>
</g>
<!-- Node9 -->
<g id="node9" class="node"><title>Node9</title>
<g id="a_node9"><a xlink:href="_a_r_trackable_square_8cpp.html" target="_top" xlink:title="/bitrise/src/Source\l/AR6/ARTrackableSquare.cpp">
<polygon fill="white" stroke="black" points="920.5,-0.5 920.5,-30.5 1069.5,-30.5 1069.5,-0.5 920.5,-0.5"/>
<text text-anchor="start" x="928.5" y="-18.5" font-family="Helvetica,sans-Serif" font-size="10.00">/bitrise/src/Source</text>
<text text-anchor="middle" x="995" y="-7.5" font-family="Helvetica,sans-Serif" font-size="10.00">/AR6/ARTrackableSquare.cpp</text>
</a>
</g>
</g>
<!-- Node4&#45;&gt;Node9 -->
<g id="edge9" class="edge"><title>Node4&#45;&gt;Node9</title>
<path fill="none" stroke="midnightblue" d="M558.772,-72.6226C648.694,-63.5565 789.54,-48.3758 911,-31 914.076,-30.5599 917.213,-30.0944 920.38,-29.6107"/>
<polygon fill="midnightblue" stroke="midnightblue" points="558.206,-69.1617 548.606,-73.6433 558.906,-76.1267 558.206,-69.1617"/>
</g>
<!-- Node10 -->
<g id="node10" class="node"><title>Node10</title>
<g id="a_node10"><a xlink:href="_a_r_video_source_8cpp.html" target="_top" xlink:title="/bitrise/src/Source\l/AR6/ARVideoSource.cpp">
<polygon fill="white" stroke="black" points="1087.5,-0.5 1087.5,-30.5 1218.5,-30.5 1218.5,-0.5 1087.5,-0.5"/>
<text text-anchor="start" x="1095.5" y="-18.5" font-family="Helvetica,sans-Serif" font-size="10.00">/bitrise/src/Source</text>
<text text-anchor="middle" x="1153" y="-7.5" font-family="Helvetica,sans-Serif" font-size="10.00">/AR6/ARVideoSource.cpp</text>
</a>
</g>
</g>
<!-- Node4&#45;&gt;Node10 -->
<g id="edge11" class="edge"><title>Node4&#45;&gt;Node10</title>
<path fill="none" stroke="midnightblue" d="M559.239,-77.0901C679.339,-70.6162 895.588,-56.4564 1079,-31 1081.72,-30.622 1084.5,-30.2085 1087.3,-29.7678"/>
<polygon fill="midnightblue" stroke="midnightblue" points="558.786,-73.6092 548.986,-77.6366 559.158,-80.5993 558.786,-73.6092"/>
</g>
</g>
</svg>
