<?xml version="1.0" encoding="UTF-8" standalone="no"?>
<!DOCTYPE svg PUBLIC "-//W3C//DTD SVG 1.1//EN"
 "http://www.w3.org/Graphics/SVG/1.1/DTD/svg11.dtd">
<!-- Generated by graphviz version 2.38.0 (20140413.2041)
 -->
<!-- Title: arwInitialiseAR Pages: 1 -->
<!--zoomable 484 -->
<svg id="main" version="1.1" xmlns="http://www.w3.org/2000/svg" xmlns:xlink="http://www.w3.org/1999/xlink" xml:space="preserve" onload="init(evt)">
<style type="text/css"><![CDATA[
.edge:hover path { stroke: red; }
.edge:hover polygon { stroke: red; fill: red; }
]]></style>
<script type="text/javascript"><![CDATA[
var edges = document.getElementsByTagName('g');
if (edges && edges.length) {
  for (var i=0;i<edges.length;i++) {
    if (edges[i].id.substr(0,4)=='edge') {
      edges[i].setAttribute('class','edge');
    }
  }
}
]]></script>
        <defs>
                <circle id="rim" cx="0" cy="0" r="7"/>
                <circle id="rim2" cx="0" cy="0" r="3.5"/>
                <g id="zoomPlus">
                        <use xlink:href="#rim" fill="#404040">
                                <set attributeName="fill" to="#808080" begin="zoomplus.mouseover" end="zoomplus.mouseout"/>
                        </use>
                        <path d="M-4,0h8M0,-4v8" fill="none" stroke="white" stroke-width="1.5" pointer-events="none"/>
                </g>
                <g id="zoomMin">
                        <use xlink:href="#rim" fill="#404040">
                                <set attributeName="fill" to="#808080" begin="zoomminus.mouseover" end="zoomminus.mouseout"/>
                        </use>
                        <path d="M-4,0h8" fill="none" stroke="white" stroke-width="1.5" pointer-events="none"/>
                </g>
                <g id="dirArrow">
                        <path fill="none" stroke="white" stroke-width="1.5" d="M0,-3.0v7 M-2.5,-0.5L0,-3.0L2.5,-0.5"/>
                </g>
               <g id="resetDef">
                       <use xlink:href="#rim2" fill="#404040">
                               <set attributeName="fill" to="#808080" begin="reset.mouseover" end="reset.mouseout"/>
                       </use>
               </g>
        </defs>

<script type="text/javascript">
var viewWidth = 1134;
var viewHeight = 484;
var sectionId = 'dynsection-22';
</script>
<script xlink:href="svgpan.js"/>
<svg id="graph" class="graph">
<g id="viewport">
<title>arwInitialiseAR</title>
<polygon fill="white" stroke="none" points="-4,4 -4,-480 1130,-480 1130,4 -4,4"/>
<!-- Node1 -->
<g id="node1" class="node"><title>Node1</title>
<polygon fill="#bfbfbf" stroke="black" points="0,-190.5 0,-209.5 83,-209.5 83,-190.5 0,-190.5"/>
<text text-anchor="middle" x="41.5" y="-197.5" font-family="Helvetica,sans-Serif" font-size="10.00">arwInitialiseAR</text>
</g>
<!-- Node2 -->
<g id="node2" class="node"><title>Node2</title>
<g id="a_node2"><a xlink:href="class_a_r_controller.html#a3285a4ebb27a47d45d64428969e30ea4" target="_top" xlink:title="Start trackable management so trackables can be added and removed. ">
<polygon fill="white" stroke="black" points="119,-190.5 119,-209.5 256,-209.5 256,-190.5 119,-190.5"/>
<text text-anchor="middle" x="187.5" y="-197.5" font-family="Helvetica,sans-Serif" font-size="10.00">ARController::initialiseBase</text>
</a>
</g>
</g>
<!-- Node1&#45;&gt;Node2 -->
<g id="edge1" class="edge"><title>Node1&#45;&gt;Node2</title>
<path fill="none" stroke="midnightblue" d="M83.3794,-200C91.328,-200 99.9032,-200 108.594,-200"/>
<polygon fill="midnightblue" stroke="midnightblue" points="108.819,-203.5 118.819,-200 108.819,-196.5 108.819,-203.5"/>
</g>
<!-- Node3 -->
<g id="node3" class="node"><title>Node3</title>
<g id="a_node3"><a xlink:href="class_a_r_controller.html#ac3aad1d57eb54ef10ecdd57562fad461" target="_top" xlink:title="Stop, if running. ">
<polygon fill="white" stroke="black" points="292,-209.5 292,-228.5 413,-228.5 413,-209.5 292,-209.5"/>
<text text-anchor="middle" x="352.5" y="-216.5" font-family="Helvetica,sans-Serif" font-size="10.00">ARController::shutdown</text>
</a>
</g>
</g>
<!-- Node2&#45;&gt;Node3 -->
<g id="edge2" class="edge"><title>Node2&#45;&gt;Node3</title>
<path fill="none" stroke="midnightblue" d="M256.211,-207.893C264.606,-208.871 273.202,-209.873 281.628,-210.855"/>
<polygon fill="midnightblue" stroke="midnightblue" points="281.46,-214.359 291.798,-212.041 282.271,-207.407 281.46,-214.359"/>
</g>
<!-- Node24 -->
<g id="node24" class="node"><title>Node24</title>
<g id="a_node24"><a xlink:href="class_a_r_controller.html#a6e45b81b71ac241dbb8fb2327751910d" target="_top" xlink:title="ARController::setError">
<polygon fill="white" stroke="black" points="296,-171.5 296,-190.5 409,-190.5 409,-171.5 296,-171.5"/>
<text text-anchor="middle" x="352.5" y="-178.5" font-family="Helvetica,sans-Serif" font-size="10.00">ARController::setError</text>
</a>
</g>
</g>
<!-- Node2&#45;&gt;Node24 -->
<g id="edge24" class="edge"><title>Node2&#45;&gt;Node24</title>
<path fill="none" stroke="midnightblue" d="M256.211,-192.107C266.013,-190.965 276.09,-189.79 285.851,-188.652"/>
<polygon fill="midnightblue" stroke="midnightblue" points="286.357,-192.117 295.885,-187.483 285.547,-185.164 286.357,-192.117"/>
</g>
<!-- Node4 -->
<g id="node4" class="node"><title>Node4</title>
<g id="a_node4"><a xlink:href="class_a_r_controller.html#a889dbbe581e771d1f4f2e28fad3f686b" target="_top" xlink:title="Video capture and marker detection stops, but markers are still valid and can be configured. ">
<polygon fill="white" stroke="black" points="467,-247.5 467,-266.5 601,-266.5 601,-247.5 467,-247.5"/>
<text text-anchor="middle" x="534" y="-254.5" font-family="Helvetica,sans-Serif" font-size="10.00">ARController::stopRunning</text>
</a>
</g>
</g>
<!-- Node3&#45;&gt;Node4 -->
<g id="edge3" class="edge"><title>Node3&#45;&gt;Node4</title>
<path fill="none" stroke="midnightblue" d="M398.795,-228.589C422.909,-233.694 452.751,-240.011 478.167,-245.392"/>
<polygon fill="midnightblue" stroke="midnightblue" points="477.522,-248.833 488.03,-247.48 478.972,-241.985 477.522,-248.833"/>
</g>
<!-- Node22 -->
<g id="node22" class="node"><title>Node22</title>
<g id="a_node22"><a xlink:href="class_a_r_controller.html#a0ce295c65ca5138b666b87387f996016" target="_top" xlink:title="Returns the number of currently loaded trackables. ">
<polygon fill="white" stroke="black" points="655,-190.5 655,-209.5 806,-209.5 806,-190.5 655,-190.5"/>
<text text-anchor="middle" x="730.5" y="-197.5" font-family="Helvetica,sans-Serif" font-size="10.00">ARController::countTrackables</text>
</a>
</g>
</g>
<!-- Node3&#45;&gt;Node22 -->
<g id="edge21" class="edge"><title>Node3&#45;&gt;Node22</title>
<path fill="none" stroke="midnightblue" d="M413.078,-215.989C475.545,-212.833 574.246,-207.845 644.798,-204.28"/>
<polygon fill="midnightblue" stroke="midnightblue" points="645.185,-207.765 654.996,-203.765 644.832,-200.774 645.185,-207.765"/>
</g>
<!-- Node23 -->
<g id="node23" class="node"><title>Node23</title>
<g id="a_node23"><a xlink:href="class_a_r_controller.html#a4be78b9f44e98f73f850b12700607da1" target="_top" xlink:title="Clears the collection of markers. ">
<polygon fill="white" stroke="black" points="449,-171.5 449,-190.5 619,-190.5 619,-171.5 449,-171.5"/>
<text text-anchor="middle" x="534" y="-178.5" font-family="Helvetica,sans-Serif" font-size="10.00">ARController::removeAllTrackables</text>
</a>
</g>
</g>
<!-- Node3&#45;&gt;Node23 -->
<g id="edge22" class="edge"><title>Node3&#45;&gt;Node23</title>
<path fill="none" stroke="midnightblue" d="M398.795,-209.411C422.909,-204.306 452.751,-197.989 478.167,-192.608"/>
<polygon fill="midnightblue" stroke="midnightblue" points="478.972,-196.015 488.03,-190.52 477.522,-189.167 478.972,-196.015"/>
</g>
<!-- Node5 -->
<g id="node5" class="node"><title>Node5</title>
<g id="a_node5"><a xlink:href="class_a_r_video_source.html#ae67083e64b2b3c6d7aa6d8cbe33ef95f" target="_top" xlink:title="Closes the video source. ">
<polygon fill="white" stroke="black" points="672.5,-247.5 672.5,-266.5 788.5,-266.5 788.5,-247.5 672.5,-247.5"/>
<text text-anchor="middle" x="730.5" y="-254.5" font-family="Helvetica,sans-Serif" font-size="10.00">ARVideoSource::close</text>
</a>
</g>
</g>
<!-- Node4&#45;&gt;Node5 -->
<g id="edge4" class="edge"><title>Node4&#45;&gt;Node5</title>
<path fill="none" stroke="midnightblue" d="M601.12,-257C620.814,-257 642.412,-257 662.182,-257"/>
<polygon fill="midnightblue" stroke="midnightblue" points="662.334,-260.5 672.334,-257 662.334,-253.5 662.334,-260.5"/>
</g>
<!-- Node6 -->
<g id="node6" class="node"><title>Node6</title>
<g id="a_node6"><a xlink:href="video_8h.html#a7f44f09a5e412bb83330887458e96b84" target="_top" xlink:title="ar2VideoCapStop">
<polygon fill="white" stroke="black" points="842,-342.5 842,-361.5 935,-361.5 935,-342.5 842,-342.5"/>
<text text-anchor="middle" x="888.5" y="-349.5" font-family="Helvetica,sans-Serif" font-size="10.00">ar2VideoCapStop</text>
</a>
</g>
</g>
<!-- Node5&#45;&gt;Node6 -->
<g id="edge5" class="edge"><title>Node5&#45;&gt;Node6</title>
<path fill="none" stroke="midnightblue" d="M747.317,-266.632C774.53,-283.204 830.4,-317.228 862.787,-336.951"/>
<polygon fill="midnightblue" stroke="midnightblue" points="861.28,-340.131 871.642,-342.343 864.921,-334.152 861.28,-340.131"/>
</g>
<!-- Node13 -->
<g id="node13" class="node"><title>Node13</title>
<g id="a_node13"><a xlink:href="param_8h.html#a42d02aaf13cedaf0f2cd1b93a5d81643" target="_top" xlink:title="Dispose of a memory allocated to a lookup&#45;table camera parameter. ">
<polygon fill="white" stroke="black" points="846.5,-247.5 846.5,-266.5 930.5,-266.5 930.5,-247.5 846.5,-247.5"/>
<text text-anchor="middle" x="888.5" y="-254.5" font-family="Helvetica,sans-Serif" font-size="10.00">arParamLTFree</text>
</a>
</g>
</g>
<!-- Node5&#45;&gt;Node13 -->
<g id="edge12" class="edge"><title>Node5&#45;&gt;Node13</title>
<path fill="none" stroke="midnightblue" d="M788.703,-257C804.247,-257 820.979,-257 836.175,-257"/>
<polygon fill="midnightblue" stroke="midnightblue" points="836.417,-260.5 846.417,-257 836.417,-253.5 836.417,-260.5"/>
</g>
<!-- Node14 -->
<g id="node14" class="node"><title>Node14</title>
<g id="a_node14"><a xlink:href="video_8h.html#a4b8a9b1a18beed51b2f0600687de63b8" target="_top" xlink:title="ar2VideoClose">
<polygon fill="white" stroke="black" points="848.5,-133.5 848.5,-152.5 928.5,-152.5 928.5,-133.5 848.5,-133.5"/>
<text text-anchor="middle" x="888.5" y="-140.5" font-family="Helvetica,sans-Serif" font-size="10.00">ar2VideoClose</text>
</a>
</g>
</g>
<!-- Node5&#45;&gt;Node14 -->
<g id="edge13" class="edge"><title>Node5&#45;&gt;Node14</title>
<path fill="none" stroke="midnightblue" d="M754.267,-247.399C769.518,-240.493 789.708,-230.413 806,-219 831.056,-201.448 856.253,-176.583 871.858,-160.136"/>
<polygon fill="midnightblue" stroke="midnightblue" points="874.435,-162.503 878.705,-152.807 869.32,-157.725 874.435,-162.503"/>
</g>
<!-- Node7 -->
<g id="node7" class="node"><title>Node7</title>
<g id="a_node7"><a xlink:href="video_dummy_8h.html#a78fa5654276bc8d340ffe8182d0bcd6c" target="_top" xlink:title="ar2VideoCapStopDummy">
<polygon fill="white" stroke="black" points="984.5,-456.5 984.5,-475.5 1112.5,-475.5 1112.5,-456.5 984.5,-456.5"/>
<text text-anchor="middle" x="1048.5" y="-463.5" font-family="Helvetica,sans-Serif" font-size="10.00">ar2VideoCapStopDummy</text>
</a>
</g>
</g>
<!-- Node6&#45;&gt;Node7 -->
<g id="edge6" class="edge"><title>Node6&#45;&gt;Node7</title>
<path fill="none" stroke="midnightblue" d="M894.858,-361.525C906.233,-380.833 934.747,-424.644 971,-447 974.44,-449.121 978.104,-451.006 981.895,-452.68"/>
<polygon fill="midnightblue" stroke="midnightblue" points="980.936,-456.063 991.524,-456.425 983.473,-449.538 980.936,-456.063"/>
</g>
<!-- Node8 -->
<g id="node8" class="node"><title>Node8</title>
<g id="a_node8"><a xlink:href="video_v4_l2_8h.html#a530b43b034daf2f89586fb69e9de74aa" target="_top" xlink:title="ar2VideoCapStopV4L2">
<polygon fill="white" stroke="black" points="990.5,-418.5 990.5,-437.5 1106.5,-437.5 1106.5,-418.5 990.5,-418.5"/>
<text text-anchor="middle" x="1048.5" y="-425.5" font-family="Helvetica,sans-Serif" font-size="10.00">ar2VideoCapStopV4L2</text>
</a>
</g>
</g>
<!-- Node6&#45;&gt;Node8 -->
<g id="edge7" class="edge"><title>Node6&#45;&gt;Node8</title>
<path fill="none" stroke="midnightblue" d="M900.299,-361.534C915.19,-374.195 943.338,-396.418 971,-409 976.347,-411.432 982.051,-413.582 987.843,-415.478"/>
<polygon fill="midnightblue" stroke="midnightblue" points="987.04,-418.891 997.624,-418.43 989.063,-412.19 987.04,-418.891"/>
</g>
<!-- Node9 -->
<g id="node9" class="node"><title>Node9</title>
<g id="a_node9"><a xlink:href="video1394_8h.html#a23f653b38bb02af6d9050d02b0702f94" target="_top" xlink:title="ar2VideoCapStop1394">
<polygon fill="white" stroke="black" points="991.5,-380.5 991.5,-399.5 1105.5,-399.5 1105.5,-380.5 991.5,-380.5"/>
<text text-anchor="middle" x="1048.5" y="-387.5" font-family="Helvetica,sans-Serif" font-size="10.00">ar2VideoCapStop1394</text>
</a>
</g>
</g>
<!-- Node6&#45;&gt;Node9 -->
<g id="edge8" class="edge"><title>Node6&#45;&gt;Node9</title>
<path fill="none" stroke="midnightblue" d="M929.37,-361.589C950.22,-366.604 975.935,-372.788 998.043,-378.105"/>
<polygon fill="midnightblue" stroke="midnightblue" points="997.375,-381.544 1007.92,-380.48 999.012,-374.739 997.375,-381.544"/>
</g>
<!-- Node10 -->
<g id="node10" class="node"><title>Node10</title>
<g id="a_node10"><a xlink:href="video_a_v_foundation_8h.html#a80dffabb6c571245b002d91e9031ca64" target="_top" xlink:title="ar2VideoCapStopAVFoundation">
<polygon fill="white" stroke="black" points="971,-342.5 971,-361.5 1126,-361.5 1126,-342.5 971,-342.5"/>
<text text-anchor="middle" x="1048.5" y="-349.5" font-family="Helvetica,sans-Serif" font-size="10.00">ar2VideoCapStopAVFoundation</text>
</a>
</g>
</g>
<!-- Node6&#45;&gt;Node10 -->
<g id="edge9" class="edge"><title>Node6&#45;&gt;Node10</title>
<path fill="none" stroke="midnightblue" d="M935.2,-352C943.345,-352 952.068,-352 960.919,-352"/>
<polygon fill="midnightblue" stroke="midnightblue" points="960.943,-355.5 970.942,-352 960.942,-348.5 960.943,-355.5"/>
</g>
<!-- Node11 -->
<g id="node11" class="node"><title>Node11</title>
<g id="a_node11"><a xlink:href="video_image_8h.html#af8b971aac579641ba46492cbd6394293" target="_top" xlink:title="ar2VideoCapStopImage">
<polygon fill="white" stroke="black" points="988.5,-304.5 988.5,-323.5 1108.5,-323.5 1108.5,-304.5 988.5,-304.5"/>
<text text-anchor="middle" x="1048.5" y="-311.5" font-family="Helvetica,sans-Serif" font-size="10.00">ar2VideoCapStopImage</text>
</a>
</g>
</g>
<!-- Node6&#45;&gt;Node11 -->
<g id="edge10" class="edge"><title>Node6&#45;&gt;Node11</title>
<path fill="none" stroke="midnightblue" d="M929.37,-342.411C950.22,-337.396 975.935,-331.212 998.043,-325.895"/>
<polygon fill="midnightblue" stroke="midnightblue" points="999.012,-329.261 1007.92,-323.52 997.375,-322.456 999.012,-329.261"/>
</g>
<!-- Node12 -->
<g id="node12" class="node"><title>Node12</title>
<g id="a_node12"><a xlink:href="video_android_8h.html#a0d13c2368b42b9e85c60830fb13fd04e" target="_top" xlink:title="ar2VideoCapStopAndroid">
<polygon fill="white" stroke="black" points="985.5,-266.5 985.5,-285.5 1111.5,-285.5 1111.5,-266.5 985.5,-266.5"/>
<text text-anchor="middle" x="1048.5" y="-273.5" font-family="Helvetica,sans-Serif" font-size="10.00">ar2VideoCapStopAndroid</text>
</a>
</g>
</g>
<!-- Node6&#45;&gt;Node12 -->
<g id="edge11" class="edge"><title>Node6&#45;&gt;Node12</title>
<path fill="none" stroke="midnightblue" d="M900.299,-342.466C915.19,-329.805 943.338,-307.582 971,-295 976.347,-292.568 982.051,-290.418 987.843,-288.522"/>
<polygon fill="midnightblue" stroke="midnightblue" points="989.063,-291.81 997.624,-285.57 987.04,-285.109 989.063,-291.81"/>
</g>
<!-- Node15 -->
<g id="node15" class="node"><title>Node15</title>
<g id="a_node15"><a xlink:href="video_luma_8h.html#af73e0e884452c46682458a136539792b" target="_top" xlink:title="arVideoLumaFinal">
<polygon fill="white" stroke="black" points="1001,-228.5 1001,-247.5 1096,-247.5 1096,-228.5 1001,-228.5"/>
<text text-anchor="middle" x="1048.5" y="-235.5" font-family="Helvetica,sans-Serif" font-size="10.00">arVideoLumaFinal</text>
</a>
</g>
</g>
<!-- Node14&#45;&gt;Node15 -->
<g id="edge14" class="edge"><title>Node14&#45;&gt;Node15</title>
<path fill="none" stroke="midnightblue" d="M896.929,-152.568C910.061,-168.8 939.028,-201.659 971,-219 977.142,-222.331 983.878,-225.09 990.726,-227.371"/>
<polygon fill="midnightblue" stroke="midnightblue" points="990.199,-230.867 1000.78,-230.384 992.208,-224.161 990.199,-230.867"/>
</g>
<!-- Node16 -->
<g id="node16" class="node"><title>Node16</title>
<g id="a_node16"><a xlink:href="video_dummy_8h.html#ae518c53d87b1320ba8cd80ed8a23bf0a" target="_top" xlink:title="ar2VideoCloseDummy">
<polygon fill="white" stroke="black" points="991,-190.5 991,-209.5 1106,-209.5 1106,-190.5 991,-190.5"/>
<text text-anchor="middle" x="1048.5" y="-197.5" font-family="Helvetica,sans-Serif" font-size="10.00">ar2VideoCloseDummy</text>
</a>
</g>
</g>
<!-- Node14&#45;&gt;Node16 -->
<g id="edge15" class="edge"><title>Node14&#45;&gt;Node16</title>
<path fill="none" stroke="midnightblue" d="M907.527,-152.637C923.767,-161.019 948.48,-173.037 971,-181 978.087,-183.506 985.655,-185.811 993.171,-187.887"/>
<polygon fill="midnightblue" stroke="midnightblue" points="992.414,-191.307 1002.98,-190.48 994.204,-184.539 992.414,-191.307"/>
</g>
<!-- Node17 -->
<g id="node17" class="node"><title>Node17</title>
<g id="a_node17"><a xlink:href="video_v4_l2_8h.html#a160602fb4d1827e9053166f051f4613d" target="_top" xlink:title="ar2VideoCloseV4L2">
<polygon fill="white" stroke="black" points="997,-152.5 997,-171.5 1100,-171.5 1100,-152.5 997,-152.5"/>
<text text-anchor="middle" x="1048.5" y="-159.5" font-family="Helvetica,sans-Serif" font-size="10.00">ar2VideoCloseV4L2</text>
</a>
</g>
</g>
<!-- Node14&#45;&gt;Node17 -->
<g id="edge16" class="edge"><title>Node14&#45;&gt;Node17</title>
<path fill="none" stroke="midnightblue" d="M928.556,-147.697C946.143,-149.812 967.314,-152.357 986.89,-154.711"/>
<polygon fill="midnightblue" stroke="midnightblue" points="986.608,-158.203 996.954,-155.922 987.444,-151.253 986.608,-158.203"/>
</g>
<!-- Node18 -->
<g id="node18" class="node"><title>Node18</title>
<g id="a_node18"><a xlink:href="video1394_8h.html#aaea7efdd8dad25a42fe9b8f3bc3edf0b" target="_top" xlink:title="ar2VideoClose1394">
<polygon fill="white" stroke="black" points="998,-114.5 998,-133.5 1099,-133.5 1099,-114.5 998,-114.5"/>
<text text-anchor="middle" x="1048.5" y="-121.5" font-family="Helvetica,sans-Serif" font-size="10.00">ar2VideoClose1394</text>
</a>
</g>
</g>
<!-- Node14&#45;&gt;Node18 -->
<g id="edge17" class="edge"><title>Node14&#45;&gt;Node18</title>
<path fill="none" stroke="midnightblue" d="M928.556,-138.303C946.377,-136.16 967.877,-133.575 987.669,-131.195"/>
<polygon fill="midnightblue" stroke="midnightblue" points="988.324,-134.641 997.835,-129.972 987.488,-127.691 988.324,-134.641"/>
</g>
<!-- Node19 -->
<g id="node19" class="node"><title>Node19</title>
<g id="a_node19"><a xlink:href="video_a_v_foundation_8h.html#a2883b331cca58ccd1c036f2318041f03" target="_top" xlink:title="ar2VideoCloseAVFoundation">
<polygon fill="white" stroke="black" points="977.5,-76.5 977.5,-95.5 1119.5,-95.5 1119.5,-76.5 977.5,-76.5"/>
<text text-anchor="middle" x="1048.5" y="-83.5" font-family="Helvetica,sans-Serif" font-size="10.00">ar2VideoCloseAVFoundation</text>
</a>
</g>
</g>
<!-- Node14&#45;&gt;Node19 -->
<g id="edge18" class="edge"><title>Node14&#45;&gt;Node19</title>
<path fill="none" stroke="midnightblue" d="M907.527,-133.363C923.767,-124.981 948.48,-112.963 971,-105 978.087,-102.494 985.655,-100.189 993.171,-98.1135"/>
<polygon fill="midnightblue" stroke="midnightblue" points="994.204,-101.461 1002.98,-95.5201 992.414,-94.6934 994.204,-101.461"/>
</g>
<!-- Node20 -->
<g id="node20" class="node"><title>Node20</title>
<g id="a_node20"><a xlink:href="video_image_8h.html#a3ffc443b510b55d94d0aed46e4277388" target="_top" xlink:title="ar2VideoCloseImage">
<polygon fill="white" stroke="black" points="995,-38.5 995,-57.5 1102,-57.5 1102,-38.5 995,-38.5"/>
<text text-anchor="middle" x="1048.5" y="-45.5" font-family="Helvetica,sans-Serif" font-size="10.00">ar2VideoCloseImage</text>
</a>
</g>
</g>
<!-- Node14&#45;&gt;Node20 -->
<g id="edge19" class="edge"><title>Node14&#45;&gt;Node20</title>
<path fill="none" stroke="midnightblue" d="M896.929,-133.432C910.061,-117.2 939.028,-84.3407 971,-67 975.472,-64.5748 980.257,-62.4533 985.172,-60.5984"/>
<polygon fill="midnightblue" stroke="midnightblue" points="986.391,-63.881 994.733,-57.3502 984.139,-57.253 986.391,-63.881"/>
</g>
<!-- Node21 -->
<g id="node21" class="node"><title>Node21</title>
<g id="a_node21"><a xlink:href="video_android_8h.html#afb5748a9176a3e1a8aee435726c18be2" target="_top" xlink:title="ar2VideoCloseAndroid">
<polygon fill="white" stroke="black" points="992,-0.5 992,-19.5 1105,-19.5 1105,-0.5 992,-0.5"/>
<text text-anchor="middle" x="1048.5" y="-7.5" font-family="Helvetica,sans-Serif" font-size="10.00">ar2VideoCloseAndroid</text>
</a>
</g>
</g>
<!-- Node14&#45;&gt;Node21 -->
<g id="edge20" class="edge"><title>Node14&#45;&gt;Node21</title>
<path fill="none" stroke="midnightblue" d="M893.568,-133.281C903.377,-111.086 930.551,-56.4822 971,-29 974.566,-26.5774 978.412,-24.4634 982.416,-22.6186"/>
<polygon fill="midnightblue" stroke="midnightblue" points="984.006,-25.7522 991.987,-18.7843 981.403,-19.2542 984.006,-25.7522"/>
</g>
<!-- Node23&#45;&gt;Node22 -->
<g id="edge23" class="edge"><title>Node23&#45;&gt;Node22</title>
<path fill="none" stroke="midnightblue" d="M619.179,-189.223C627.739,-190.059 636.437,-190.909 645,-191.746"/>
<polygon fill="midnightblue" stroke="midnightblue" points="644.682,-195.231 654.975,-192.72 645.362,-188.264 644.682,-195.231"/>
</g>
</g>
</svg>
        <g id="navigator" transform="translate(0 0)" fill="#404254">
                <rect fill="#f2f5e9" fill-opacity="0.5" stroke="#606060" stroke-width=".5" x="0" y="0" width="60" height="60"/>
                <use id="zoomplus" xlink:href="#zoomPlus" x="17" y="9" onmousedown="handleZoom(evt,'in')"/>
                <use id="zoomminus" xlink:href="#zoomMin" x="42" y="9" onmousedown="handleZoom(evt,'out')"/>
                <use id="reset" xlink:href="#resetDef" x="30" y="36" onmousedown="handleReset()"/>
                <g id="arrowUp" xlink:href="#dirArrow" transform="translate(30 24)" onmousedown="handlePan(0,-1)">
                  <use xlink:href="#rim" fill="#404040">
                        <set attributeName="fill" to="#808080" begin="arrowUp.mouseover" end="arrowUp.mouseout"/>
                  </use>
                  <path fill="none" stroke="white" stroke-width="1.5" d="M0,-3.0v7 M-2.5,-0.5L0,-3.0L2.5,-0.5"/>
                </g>
                <g id="arrowRight" xlink:href="#dirArrow" transform="rotate(90) translate(36 -43)" onmousedown="handlePan(1,0)">
                  <use xlink:href="#rim" fill="#404040">
                        <set attributeName="fill" to="#808080" begin="arrowRight.mouseover" end="arrowRight.mouseout"/>
                  </use>
                  <path fill="none" stroke="white" stroke-width="1.5" d="M0,-3.0v7 M-2.5,-0.5L0,-3.0L2.5,-0.5"/>
                </g>
                <g id="arrowDown" xlink:href="#dirArrow" transform="rotate(180) translate(-30 -48)" onmousedown="handlePan(0,1)">
                  <use xlink:href="#rim" fill="#404040">
                        <set attributeName="fill" to="#808080" begin="arrowDown.mouseover" end="arrowDown.mouseout"/>
                  </use>
                  <path fill="none" stroke="white" stroke-width="1.5" d="M0,-3.0v7 M-2.5,-0.5L0,-3.0L2.5,-0.5"/>
                </g>
                <g id="arrowLeft" xlink:href="#dirArrow" transform="rotate(270) translate(-36 17)" onmousedown="handlePan(-1,0)">
                  <use xlink:href="#rim" fill="#404040">
                        <set attributeName="fill" to="#808080" begin="arrowLeft.mouseover" end="arrowLeft.mouseout"/>
                  </use>
                  <path fill="none" stroke="white" stroke-width="1.5" d="M0,-3.0v7 M-2.5,-0.5L0,-3.0L2.5,-0.5"/>
                </g>
        </g>
        <svg viewBox="0 0 15 15" width="100%" height="30px" preserveAspectRatio="xMaxYMin meet">
         <g id="arrow_out" transform="scale(0.3 0.3)">
          <a xlink:href="_a_r6__c_8cpp_a599ffcf785a4864d3610d4814c7aaa83_cgraph_org.svg" target="_base">
           <rect id="button" ry="5" rx="5" y="6" x="6" height="38" width="38"
                fill="#f2f5e9" fill-opacity="0.5" stroke="#606060" stroke-width="1.0"/>
           <path id="arrow"
             d="M 11.500037,31.436501 C 11.940474,20.09759 22.043105,11.32322 32.158766,21.979434 L 37.068811,17.246167 C 37.068811,17.246167 37.088388,32 37.088388,32 L 22.160133,31.978069 C 22.160133,31.978069 26.997745,27.140456 26.997745,27.140456 C 18.528582,18.264221 13.291696,25.230495 11.500037,31.436501 z"
             style="fill:#404040;"/>
          </a>
         </g>
        </svg>
</svg>
