<?xml version="1.0" encoding="UTF-8" standalone="no"?>
<!DOCTYPE svg PUBLIC "-//W3C//DTD SVG 1.1//EN"
 "http://www.w3.org/Graphics/SVG/1.1/DTD/svg11.dtd">
<!-- Generated by graphviz version 2.38.0 (20140413.2041)
 -->
<!-- Title: arwSetTrackerOptionFloat Pages: 1 -->
<svg width="448pt" height="78pt"
 viewBox="0.00 0.00 448.00 77.50" xmlns="http://www.w3.org/2000/svg" xmlns:xlink="http://www.w3.org/1999/xlink">
<g id="graph0" class="graph" transform="scale(1 1) rotate(0) translate(4 73.5)">
<title>arwSetTrackerOptionFloat</title>
<polygon fill="white" stroke="none" points="-4,4 -4,-73.5 444,-73.5 444,4 -4,4"/>
<!-- Node1 -->
<g id="node1" class="node"><title>Node1</title>
<polygon fill="#bfbfbf" stroke="black" points="0,-28 0,-47 131,-47 131,-28 0,-28"/>
<text text-anchor="middle" x="65.5" y="-35" font-family="Helvetica,sans-Serif" font-size="10.00">arwSetTrackerOptionFloat</text>
</g>
<!-- Node2 -->
<g id="node2" class="node"><title>Node2</title>
<g id="a_node2"><a xlink:href="class_a_r_controller.html#a8de280cc3c3c583b5fe08a93835aa4e0" target="_top" xlink:title="ARController::getSquareTracker">
<polygon fill="white" stroke="black" points="167,-50 167,-69 323,-69 323,-50 167,-50"/>
<text text-anchor="middle" x="245" y="-57" font-family="Helvetica,sans-Serif" font-size="10.00">ARController::getSquareTracker</text>
</a>
</g>
</g>
<!-- Node1&#45;&gt;Node2 -->
<g id="edge1" class="edge"><title>Node1&#45;&gt;Node2</title>
<path fill="none" stroke="midnightblue" d="M131.084,-45.5047C139.491,-46.5467 148.211,-47.6275 156.91,-48.7057"/>
<polygon fill="midnightblue" stroke="midnightblue" points="156.737,-52.211 167.092,-49.9677 157.598,-45.2642 156.737,-52.211"/>
</g>
<!-- Node3 -->
<g id="node3" class="node"><title>Node3</title>
<g id="a_node3"><a xlink:href="class_a_r_tracker_square.html#ad3549eb660b194dbc87c5383b1cb2b4d" target="_top" xlink:title="ARTrackerSquare::setPatt\lRatio">
<polygon fill="white" stroke="black" points="179,-0.5 179,-30.5 311,-30.5 311,-0.5 179,-0.5"/>
<text text-anchor="start" x="187" y="-18.5" font-family="Helvetica,sans-Serif" font-size="10.00">ARTrackerSquare::setPatt</text>
<text text-anchor="middle" x="245" y="-7.5" font-family="Helvetica,sans-Serif" font-size="10.00">Ratio</text>
</a>
</g>
</g>
<!-- Node1&#45;&gt;Node3 -->
<g id="edge2" class="edge"><title>Node1&#45;&gt;Node3</title>
<path fill="none" stroke="midnightblue" d="M131.084,-29.4953C143.363,-27.9733 156.311,-26.3684 168.885,-24.81"/>
<polygon fill="midnightblue" stroke="midnightblue" points="169.376,-28.2761 178.869,-23.5725 168.515,-21.3292 169.376,-28.2761"/>
</g>
<!-- Node4 -->
<g id="node4" class="node"><title>Node4</title>
<g id="a_node4"><a xlink:href="ar_create_handle_8c.html#a4afbac011922600f2f3ee33337b8f526" target="_top" xlink:title="Set the width/height of the marker pattern space, as a proportion of marker width/height. ">
<polygon fill="white" stroke="black" points="359,-6 359,-25 440,-25 440,-6 359,-6"/>
<text text-anchor="middle" x="399.5" y="-13" font-family="Helvetica,sans-Serif" font-size="10.00">arSetPattRatio</text>
</a>
</g>
</g>
<!-- Node3&#45;&gt;Node4 -->
<g id="edge3" class="edge"><title>Node3&#45;&gt;Node4</title>
<path fill="none" stroke="midnightblue" d="M311.116,-15.5C323.639,-15.5 336.571,-15.5 348.522,-15.5"/>
<polygon fill="midnightblue" stroke="midnightblue" points="348.737,-19.0001 358.737,-15.5 348.737,-12.0001 348.737,-19.0001"/>
</g>
</g>
</svg>
