<?xml version="1.0" encoding="UTF-8" standalone="no"?>
<!DOCTYPE svg PUBLIC "-//W3C//DTD SVG 1.1//EN"
 "http://www.w3.org/Graphics/SVG/1.1/DTD/svg11.dtd">
<!-- Generated by graphviz version 2.38.0 (20140413.2041)
 -->
<!-- Title: /bitrise/src/Source/AR6/include/AR6/ARVideoSource.h Pages: 1 -->
<svg width="1226pt" height="240pt"
 viewBox="0.00 0.00 1226.00 240.00" xmlns="http://www.w3.org/2000/svg" xmlns:xlink="http://www.w3.org/1999/xlink">
<g id="graph0" class="graph" transform="scale(1 1) rotate(0) translate(4 236)">
<title>/bitrise/src/Source/AR6/include/AR6/ARVideoSource.h</title>
<polygon fill="white" stroke="none" points="-4,4 -4,-236 1222,-236 1222,4 -4,4"/>
<!-- Node1 -->
<g id="node1" class="node"><title>Node1</title>
<polygon fill="#bfbfbf" stroke="black" points="320.5,-201.5 320.5,-231.5 496.5,-231.5 496.5,-201.5 320.5,-201.5"/>
<text text-anchor="start" x="328.5" y="-219.5" font-family="Helvetica,sans-Serif" font-size="10.00">/bitrise/src/Source</text>
<text text-anchor="middle" x="408.5" y="-208.5" font-family="Helvetica,sans-Serif" font-size="10.00">/AR6/include/AR6/ARVideoSource.h</text>
</g>
<!-- Node2 -->
<g id="node2" class="node"><title>Node2</title>
<g id="a_node2"><a xlink:href="_a_r_video_source_8cpp.html" target="_top" xlink:title="/bitrise/src/Source\l/AR6/ARVideoSource.cpp">
<polygon fill="white" stroke="black" points="0,-0.5 0,-30.5 131,-30.5 131,-0.5 0,-0.5"/>
<text text-anchor="start" x="8" y="-18.5" font-family="Helvetica,sans-Serif" font-size="10.00">/bitrise/src/Source</text>
<text text-anchor="middle" x="65.5" y="-7.5" font-family="Helvetica,sans-Serif" font-size="10.00">/AR6/ARVideoSource.cpp</text>
</a>
</g>
</g>
<!-- Node1&#45;&gt;Node2 -->
<g id="edge1" class="edge"><title>Node1&#45;&gt;Node2</title>
<path fill="none" stroke="midnightblue" d="M375.415,-196.305C306.817,-156.506 150.456,-65.7894 89.9978,-30.713"/>
<polygon fill="midnightblue" stroke="midnightblue" points="373.701,-199.357 384.107,-201.348 377.214,-193.302 373.701,-199.357"/>
</g>
<!-- Node3 -->
<g id="node3" class="node"><title>Node3</title>
<g id="a_node3"><a xlink:href="_a_r_controller_8h.html" target="_top" xlink:title="/bitrise/src/Source\l/AR6/include/AR6/ARController.h">
<polygon fill="white" stroke="black" points="377,-67.5 377,-97.5 540,-97.5 540,-67.5 377,-67.5"/>
<text text-anchor="start" x="385" y="-85.5" font-family="Helvetica,sans-Serif" font-size="10.00">/bitrise/src/Source</text>
<text text-anchor="middle" x="458.5" y="-74.5" font-family="Helvetica,sans-Serif" font-size="10.00">/AR6/include/AR6/ARController.h</text>
</a>
</g>
</g>
<!-- Node1&#45;&gt;Node3 -->
<g id="edge2" class="edge"><title>Node1&#45;&gt;Node3</title>
<path fill="none" stroke="midnightblue" d="M412.045,-191.269C414.969,-174.719 419.892,-152.52 427.5,-134 432.817,-121.059 441.233,-107.615 447.956,-97.8551"/>
<polygon fill="midnightblue" stroke="midnightblue" points="408.575,-190.797 410.404,-201.233 415.482,-191.935 408.575,-190.797"/>
</g>
<!-- Node11 -->
<g id="node11" class="node"><title>Node11</title>
<g id="a_node11"><a xlink:href="_a_r_view_8h.html" target="_top" xlink:title="/bitrise/src/Source\l/AR6/include/AR6/ARView.h">
<polygon fill="white" stroke="black" points="437,-134.5 437,-164.5 580,-164.5 580,-134.5 437,-134.5"/>
<text text-anchor="start" x="445" y="-152.5" font-family="Helvetica,sans-Serif" font-size="10.00">/bitrise/src/Source</text>
<text text-anchor="middle" x="508.5" y="-141.5" font-family="Helvetica,sans-Serif" font-size="10.00">/AR6/include/AR6/ARView.h</text>
</a>
</g>
</g>
<!-- Node1&#45;&gt;Node11 -->
<g id="edge11" class="edge"><title>Node1&#45;&gt;Node11</title>
<path fill="none" stroke="midnightblue" d="M438.91,-195.734C454.384,-185.676 472.831,-173.685 486.844,-164.577"/>
<polygon fill="midnightblue" stroke="midnightblue" points="436.675,-193.011 430.199,-201.396 440.49,-198.881 436.675,-193.011"/>
</g>
<!-- Node3&#45;&gt;Node2 -->
<g id="edge10" class="edge"><title>Node3&#45;&gt;Node2</title>
<path fill="none" stroke="midnightblue" d="M366.674,-67.7502C303.085,-58.0248 216.536,-44.3836 140.5,-31 137.496,-30.4712 134.426,-29.9204 131.327,-29.3558"/>
<polygon fill="midnightblue" stroke="midnightblue" points="366.264,-71.228 376.677,-69.2768 367.32,-64.3082 366.264,-71.228"/>
</g>
<!-- Node4 -->
<g id="node4" class="node"><title>Node4</title>
<g id="a_node4"><a xlink:href="_a_r6__c_8cpp.html" target="_top" xlink:title="/bitrise/src/Source\l/AR6/AR6_c.cpp">
<polygon fill="white" stroke="black" points="149.5,-0.5 149.5,-30.5 245.5,-30.5 245.5,-0.5 149.5,-0.5"/>
<text text-anchor="start" x="157.5" y="-18.5" font-family="Helvetica,sans-Serif" font-size="10.00">/bitrise/src/Source</text>
<text text-anchor="middle" x="197.5" y="-7.5" font-family="Helvetica,sans-Serif" font-size="10.00">/AR6/AR6_c.cpp</text>
</a>
</g>
</g>
<!-- Node3&#45;&gt;Node4 -->
<g id="edge3" class="edge"><title>Node3&#45;&gt;Node4</title>
<path fill="none" stroke="midnightblue" d="M391.458,-65.019C351.644,-55.2026 300.173,-42.4623 254.5,-31 251.628,-30.2792 248.675,-29.5356 245.697,-28.7837"/>
<polygon fill="midnightblue" stroke="midnightblue" points="390.772,-68.4545 401.319,-67.4491 392.447,-61.6578 390.772,-68.4545"/>
</g>
<!-- Node5 -->
<g id="node5" class="node"><title>Node5</title>
<g id="a_node5"><a xlink:href="_a_r_controller_8cpp.html" target="_top" xlink:title="/bitrise/src/Source\l/AR6/ARController.cpp">
<polygon fill="white" stroke="black" points="264,-0.5 264,-30.5 381,-30.5 381,-0.5 264,-0.5"/>
<text text-anchor="start" x="272" y="-18.5" font-family="Helvetica,sans-Serif" font-size="10.00">/bitrise/src/Source</text>
<text text-anchor="middle" x="322.5" y="-7.5" font-family="Helvetica,sans-Serif" font-size="10.00">/AR6/ARController.cpp</text>
</a>
</g>
</g>
<!-- Node3&#45;&gt;Node5 -->
<g id="edge4" class="edge"><title>Node3&#45;&gt;Node5</title>
<path fill="none" stroke="midnightblue" d="M419.776,-62.9921C398.219,-52.6892 371.811,-40.0677 351.952,-30.5765"/>
<polygon fill="midnightblue" stroke="midnightblue" points="418.458,-66.2416 428.99,-67.396 421.477,-59.9258 418.458,-66.2416"/>
</g>
<!-- Node6 -->
<g id="node6" class="node"><title>Node6</title>
<g id="a_node6"><a xlink:href="_a_r_trackable_8cpp.html" target="_top" xlink:title="/bitrise/src/Source\l/AR6/ARTrackable.cpp">
<polygon fill="white" stroke="black" points="399.5,-0.5 399.5,-30.5 517.5,-30.5 517.5,-0.5 399.5,-0.5"/>
<text text-anchor="start" x="407.5" y="-18.5" font-family="Helvetica,sans-Serif" font-size="10.00">/bitrise/src/Source</text>
<text text-anchor="middle" x="458.5" y="-7.5" font-family="Helvetica,sans-Serif" font-size="10.00">/AR6/ARTrackable.cpp</text>
</a>
</g>
</g>
<!-- Node3&#45;&gt;Node6 -->
<g id="edge5" class="edge"><title>Node3&#45;&gt;Node6</title>
<path fill="none" stroke="midnightblue" d="M458.5,-57.1081C458.5,-48.1539 458.5,-38.3227 458.5,-30.5765"/>
<polygon fill="midnightblue" stroke="midnightblue" points="455,-57.3959 458.5,-67.396 462,-57.396 455,-57.3959"/>
</g>
<!-- Node7 -->
<g id="node7" class="node"><title>Node7</title>
<g id="a_node7"><a xlink:href="_a_r_trackable_appearance_8cpp.html" target="_top" xlink:title="/bitrise/src/Source\l/AR6/ARTrackableAppearance.cpp">
<polygon fill="white" stroke="black" points="535.5,-0.5 535.5,-30.5 705.5,-30.5 705.5,-0.5 535.5,-0.5"/>
<text text-anchor="start" x="543.5" y="-18.5" font-family="Helvetica,sans-Serif" font-size="10.00">/bitrise/src/Source</text>
<text text-anchor="middle" x="620.5" y="-7.5" font-family="Helvetica,sans-Serif" font-size="10.00">/AR6/ARTrackableAppearance.cpp</text>
</a>
</g>
</g>
<!-- Node3&#45;&gt;Node7 -->
<g id="edge6" class="edge"><title>Node3&#45;&gt;Node7</title>
<path fill="none" stroke="midnightblue" d="M503.251,-63.5442C529.174,-53.143 561.338,-40.238 585.417,-30.5765"/>
<polygon fill="midnightblue" stroke="midnightblue" points="501.629,-60.4238 493.652,-67.396 504.236,-66.9204 501.629,-60.4238"/>
</g>
<!-- Node8 -->
<g id="node8" class="node"><title>Node8</title>
<g id="a_node8"><a xlink:href="_a_r_trackable_multi_square_8cpp.html" target="_top" xlink:title="/bitrise/src/Source\l/AR6/ARTrackableMultiSquare.cpp">
<polygon fill="white" stroke="black" points="723.5,-0.5 723.5,-30.5 893.5,-30.5 893.5,-0.5 723.5,-0.5"/>
<text text-anchor="start" x="731.5" y="-18.5" font-family="Helvetica,sans-Serif" font-size="10.00">/bitrise/src/Source</text>
<text text-anchor="middle" x="808.5" y="-7.5" font-family="Helvetica,sans-Serif" font-size="10.00">/AR6/ARTrackableMultiSquare.cpp</text>
</a>
</g>
</g>
<!-- Node3&#45;&gt;Node8 -->
<g id="edge7" class="edge"><title>Node3&#45;&gt;Node8</title>
<path fill="none" stroke="midnightblue" d="M543.851,-65.649C601.609,-54.9227 677.214,-40.8816 732.82,-30.5549"/>
<polygon fill="midnightblue" stroke="midnightblue" points="543.207,-62.2088 534.014,-67.476 544.485,-69.0912 543.207,-62.2088"/>
</g>
<!-- Node9 -->
<g id="node9" class="node"><title>Node9</title>
<g id="a_node9"><a xlink:href="_a_r_trackable_square_8cpp.html" target="_top" xlink:title="/bitrise/src/Source\l/AR6/ARTrackableSquare.cpp">
<polygon fill="white" stroke="black" points="912,-0.5 912,-30.5 1061,-30.5 1061,-0.5 912,-0.5"/>
<text text-anchor="start" x="920" y="-18.5" font-family="Helvetica,sans-Serif" font-size="10.00">/bitrise/src/Source</text>
<text text-anchor="middle" x="986.5" y="-7.5" font-family="Helvetica,sans-Serif" font-size="10.00">/AR6/ARTrackableSquare.cpp</text>
</a>
</g>
</g>
<!-- Node3&#45;&gt;Node9 -->
<g id="edge8" class="edge"><title>Node3&#45;&gt;Node9</title>
<path fill="none" stroke="midnightblue" d="M550.351,-66.9414C707.581,-46.8123 749.464,-51.9863 902.5,-31 905.579,-30.5778 908.718,-30.1272 911.887,-29.6559"/>
<polygon fill="midnightblue" stroke="midnightblue" points="549.789,-63.4848 540.321,-68.2395 550.687,-70.4269 549.789,-63.4848"/>
</g>
<!-- Node10 -->
<g id="node10" class="node"><title>Node10</title>
<g id="a_node10"><a xlink:href="_a_r_tracker_square_8cpp.html" target="_top" xlink:title="/bitrise/src/Source\l/AR6/ARTrackerSquare.cpp">
<polygon fill="white" stroke="black" points="1079,-0.5 1079,-30.5 1218,-30.5 1218,-0.5 1079,-0.5"/>
<text text-anchor="start" x="1087" y="-18.5" font-family="Helvetica,sans-Serif" font-size="10.00">/bitrise/src/Source</text>
<text text-anchor="middle" x="1148.5" y="-7.5" font-family="Helvetica,sans-Serif" font-size="10.00">/AR6/ARTrackerSquare.cpp</text>
</a>
</g>
</g>
<!-- Node3&#45;&gt;Node10 -->
<g id="edge9" class="edge"><title>Node3&#45;&gt;Node10</title>
<path fill="none" stroke="midnightblue" d="M550.386,-66.9769C781.851,-41.256 843.504,-59.8446 1070.5,-31 1073.23,-30.6527 1076.01,-30.2712 1078.82,-29.863"/>
<polygon fill="midnightblue" stroke="midnightblue" points="549.851,-63.5149 540.305,-68.1129 550.635,-70.4709 549.851,-63.5149"/>
</g>
<!-- Node11&#45;&gt;Node3 -->
<g id="edge13" class="edge"><title>Node11&#45;&gt;Node3</title>
<path fill="none" stroke="midnightblue" d="M491.536,-126.447C484.191,-116.899 475.811,-106.004 469.328,-97.5765"/>
<polygon fill="midnightblue" stroke="midnightblue" points="488.779,-128.604 497.651,-134.396 494.328,-124.336 488.779,-128.604"/>
</g>
<!-- Node12 -->
<g id="node12" class="node"><title>Node12</title>
<g id="a_node12"><a xlink:href="_a_r_view_8cpp.html" target="_top" xlink:title="/bitrise/src/Source\l/AR6/ARView.cpp">
<polygon fill="white" stroke="black" points="558,-67.5 558,-97.5 655,-97.5 655,-67.5 558,-67.5"/>
<text text-anchor="start" x="566" y="-85.5" font-family="Helvetica,sans-Serif" font-size="10.00">/bitrise/src/Source</text>
<text text-anchor="middle" x="606.5" y="-74.5" font-family="Helvetica,sans-Serif" font-size="10.00">/AR6/ARView.cpp</text>
</a>
</g>
</g>
<!-- Node11&#45;&gt;Node12 -->
<g id="edge12" class="edge"><title>Node11&#45;&gt;Node12</title>
<path fill="none" stroke="midnightblue" d="M538.302,-128.734C553.466,-118.676 571.545,-106.685 585.277,-97.5765"/>
<polygon fill="midnightblue" stroke="midnightblue" points="536.164,-125.952 529.765,-134.396 540.033,-131.785 536.164,-125.952"/>
</g>
</g>
</svg>
