<?xml version="1.0" encoding="UTF-8" standalone="no"?>
<!DOCTYPE svg PUBLIC "-//W3C//DTD SVG 1.1//EN"
 "http://www.w3.org/Graphics/SVG/1.1/DTD/svg11.dtd">
<!-- Generated by graphviz version 2.38.0 (20140413.2041)
 -->
<!-- Title: /bitrise/src/Source/AR6/include/AR6/ARTrackableInstantOn.h Pages: 1 -->
<svg width="163pt" height="117pt"
 viewBox="0.00 0.00 163.00 117.00" xmlns="http://www.w3.org/2000/svg" xmlns:xlink="http://www.w3.org/1999/xlink">
<g id="graph0" class="graph" transform="scale(1 1) rotate(0) translate(4 113)">
<title>/bitrise/src/Source/AR6/include/AR6/ARTrackableInstantOn.h</title>
<polygon fill="white" stroke="none" points="-4,4 -4,-113 159,-113 159,4 -4,4"/>
<!-- Node1 -->
<g id="node1" class="node"><title>Node1</title>
<polygon fill="#bfbfbf" stroke="black" points="0,-67.5 0,-108.5 155,-108.5 155,-67.5 0,-67.5"/>
<text text-anchor="start" x="8" y="-96.5" font-family="Helvetica,sans-Serif" font-size="10.00">/bitrise/src/Source</text>
<text text-anchor="start" x="8" y="-85.5" font-family="Helvetica,sans-Serif" font-size="10.00">/AR6/include/AR6/ARTrackable</text>
<text text-anchor="middle" x="77.5" y="-74.5" font-family="Helvetica,sans-Serif" font-size="10.00">InstantOn.h</text>
</g>
<!-- Node2 -->
<g id="node2" class="node"><title>Node2</title>
<g id="a_node2"><a xlink:href="_a_r_trackable_8cpp.html" target="_top" xlink:title="/bitrise/src/Source\l/AR6/ARTrackable.cpp">
<polygon fill="white" stroke="black" points="18.5,-0.5 18.5,-30.5 136.5,-30.5 136.5,-0.5 18.5,-0.5"/>
<text text-anchor="start" x="26.5" y="-18.5" font-family="Helvetica,sans-Serif" font-size="10.00">/bitrise/src/Source</text>
<text text-anchor="middle" x="77.5" y="-7.5" font-family="Helvetica,sans-Serif" font-size="10.00">/AR6/ARTrackable.cpp</text>
</a>
</g>
</g>
<!-- Node1&#45;&gt;Node2 -->
<g id="edge1" class="edge"><title>Node1&#45;&gt;Node2</title>
<path fill="none" stroke="midnightblue" d="M77.5,-57.08C77.5,-48.0061 77.5,-38.4498 77.5,-30.8916"/>
<polygon fill="midnightblue" stroke="midnightblue" points="74.0001,-57.3618 77.5,-67.3618 81.0001,-57.3619 74.0001,-57.3618"/>
</g>
</g>
</svg>
