<?xml version="1.0" encoding="UTF-8" standalone="no"?>
<!DOCTYPE svg PUBLIC "-//W3C//DTD SVG 1.1//EN"
 "http://www.w3.org/Graphics/SVG/1.1/DTD/svg11.dtd">
<!-- Generated by graphviz version 2.38.0 (20140413.2041)
 -->
<!-- Title: arwGetTrackableAppearanceConfig Pages: 1 -->
<svg width="324pt" height="66pt"
 viewBox="0.00 0.00 324.00 66.00" xmlns="http://www.w3.org/2000/svg" xmlns:xlink="http://www.w3.org/1999/xlink">
<g id="graph0" class="graph" transform="scale(1 1) rotate(0) translate(4 62)">
<title>arwGetTrackableAppearanceConfig</title>
<polygon fill="white" stroke="none" points="-4,4 -4,-62 320,-62 320,4 -4,4"/>
<!-- Node1 -->
<g id="node1" class="node"><title>Node1</title>
<polygon fill="#bfbfbf" stroke="black" points="0,-14 0,-44 143,-44 143,-14 0,-14"/>
<text text-anchor="start" x="8" y="-32" font-family="Helvetica,sans-Serif" font-size="10.00">arwGetTrackableAppearance</text>
<text text-anchor="middle" x="71.5" y="-21" font-family="Helvetica,sans-Serif" font-size="10.00">Config</text>
</g>
<!-- Node2 -->
<g id="node2" class="node"><title>Node2</title>
<g id="a_node2"><a xlink:href="class_a_r_controller.html#a4eafe05e50bdb9e788ad836f4c2104f1" target="_top" xlink:title="Searches the collection of markers for the given ID. ">
<polygon fill="white" stroke="black" points="179,-38.5 179,-57.5 316,-57.5 316,-38.5 179,-38.5"/>
<text text-anchor="middle" x="247.5" y="-45.5" font-family="Helvetica,sans-Serif" font-size="10.00">ARController::findTrackable</text>
</a>
</g>
</g>
<!-- Node1&#45;&gt;Node2 -->
<g id="edge1" class="edge"><title>Node1&#45;&gt;Node2</title>
<path fill="none" stroke="midnightblue" d="M143.022,-36.7006C151.553,-37.6322 160.304,-38.5878 168.929,-39.5296"/>
<polygon fill="midnightblue" stroke="midnightblue" points="168.656,-43.0205 178.977,-40.6268 169.416,-36.0619 168.656,-43.0205"/>
</g>
<!-- Node3 -->
<g id="node3" class="node"><title>Node3</title>
<g id="a_node3"><a xlink:href="class_a_r_trackable.html#a20adece06b307277309e050f369cc4ae" target="_top" xlink:title="Returns the specified pattern within this marker. ">
<polygon fill="white" stroke="black" points="185,-0.5 185,-19.5 310,-19.5 310,-0.5 185,-0.5"/>
<text text-anchor="middle" x="247.5" y="-7.5" font-family="Helvetica,sans-Serif" font-size="10.00">ARTrackable::getPattern</text>
</a>
</g>
</g>
<!-- Node1&#45;&gt;Node3 -->
<g id="edge2" class="edge"><title>Node1&#45;&gt;Node3</title>
<path fill="none" stroke="midnightblue" d="M143.022,-21.2994C153.516,-20.1534 164.342,-18.9713 174.859,-17.8229"/>
<polygon fill="midnightblue" stroke="midnightblue" points="175.266,-21.2994 184.826,-16.7345 174.506,-14.3407 175.266,-21.2994"/>
</g>
</g>
</svg>
