<?xml version="1.0" encoding="UTF-8" standalone="no"?>
<!DOCTYPE svg PUBLIC "-//W3C//DTD SVG 1.1//EN"
 "http://www.w3.org/Graphics/SVG/1.1/DTD/svg11.dtd">
<!-- Generated by graphviz version 2.38.0 (20140413.2041)
 -->
<!-- Title: arwSetTrackerOptionInt Pages: 1 -->
<!--zoomable 378 -->
<svg id="main" version="1.1" xmlns="http://www.w3.org/2000/svg" xmlns:xlink="http://www.w3.org/1999/xlink" xml:space="preserve" onload="init(evt)">
<style type="text/css"><![CDATA[
.edge:hover path { stroke: red; }
.edge:hover polygon { stroke: red; fill: red; }
]]></style>
<script type="text/javascript"><![CDATA[
var edges = document.getElementsByTagName('g');
if (edges && edges.length) {
  for (var i=0;i<edges.length;i++) {
    if (edges[i].id.substr(0,4)=='edge') {
      edges[i].setAttribute('class','edge');
    }
  }
}
]]></script>
        <defs>
                <circle id="rim" cx="0" cy="0" r="7"/>
                <circle id="rim2" cx="0" cy="0" r="3.5"/>
                <g id="zoomPlus">
                        <use xlink:href="#rim" fill="#404040">
                                <set attributeName="fill" to="#808080" begin="zoomplus.mouseover" end="zoomplus.mouseout"/>
                        </use>
                        <path d="M-4,0h8M0,-4v8" fill="none" stroke="white" stroke-width="1.5" pointer-events="none"/>
                </g>
                <g id="zoomMin">
                        <use xlink:href="#rim" fill="#404040">
                                <set attributeName="fill" to="#808080" begin="zoomminus.mouseover" end="zoomminus.mouseout"/>
                        </use>
                        <path d="M-4,0h8" fill="none" stroke="white" stroke-width="1.5" pointer-events="none"/>
                </g>
                <g id="dirArrow">
                        <path fill="none" stroke="white" stroke-width="1.5" d="M0,-3.0v7 M-2.5,-0.5L0,-3.0L2.5,-0.5"/>
                </g>
               <g id="resetDef">
                       <use xlink:href="#rim2" fill="#404040">
                               <set attributeName="fill" to="#808080" begin="reset.mouseover" end="reset.mouseout"/>
                       </use>
               </g>
        </defs>

<script type="text/javascript">
var viewWidth = 647;
var viewHeight = 378;
var sectionId = 'dynsection-37';
</script>
<script xlink:href="svgpan.js"/>
<svg id="graph" class="graph">
<g id="viewport">
<title>arwSetTrackerOptionInt</title>
<polygon fill="white" stroke="none" points="-4,4 -4,-373.5 643,-373.5 643,4 -4,4"/>
<!-- Node1 -->
<g id="node1" class="node"><title>Node1</title>
<polygon fill="#bfbfbf" stroke="black" points="0,-186 0,-205 120,-205 120,-186 0,-186"/>
<text text-anchor="middle" x="60" y="-193" font-family="Helvetica,sans-Serif" font-size="10.00">arwSetTrackerOptionInt</text>
</g>
<!-- Node2 -->
<g id="node2" class="node"><title>Node2</title>
<g id="a_node2"><a xlink:href="class_a_r_controller.html#af7f2ae7863732f426de2df973abf3340" target="_top" xlink:title="ARController::get2DTracker">
<polygon fill="white" stroke="black" points="177.5,-350 177.5,-369 315.5,-369 315.5,-350 177.5,-350"/>
<text text-anchor="middle" x="246.5" y="-357" font-family="Helvetica,sans-Serif" font-size="10.00">ARController::get2DTracker</text>
</a>
</g>
</g>
<!-- Node1&#45;&gt;Node2 -->
<g id="edge1" class="edge"><title>Node1&#45;&gt;Node2</title>
<path fill="none" stroke="midnightblue" d="M64.318,-205.154C73.9108,-231.523 104.335,-305.155 156,-340.5 159.714,-343.041 163.702,-345.252 167.857,-347.175"/>
<polygon fill="midnightblue" stroke="midnightblue" points="166.599,-350.441 177.182,-350.942 169.221,-343.951 166.599,-350.441"/>
</g>
<!-- Node3 -->
<g id="node3" class="node"><title>Node3</title>
<g id="a_node3"><a xlink:href="class_a_r_tracker2_d.html#a2442c2afc994c9f4cc1d191bbfc3e42b" target="_top" xlink:title="ARTracker2D::setMaxSimultaneous\lTrackedImages">
<polygon fill="white" stroke="black" points="159.5,-300.5 159.5,-330.5 333.5,-330.5 333.5,-300.5 159.5,-300.5"/>
<text text-anchor="start" x="167.5" y="-318.5" font-family="Helvetica,sans-Serif" font-size="10.00">ARTracker2D::setMaxSimultaneous</text>
<text text-anchor="middle" x="246.5" y="-307.5" font-family="Helvetica,sans-Serif" font-size="10.00">TrackedImages</text>
</a>
</g>
</g>
<!-- Node1&#45;&gt;Node3 -->
<g id="edge2" class="edge"><title>Node1&#45;&gt;Node3</title>
<path fill="none" stroke="midnightblue" d="M67.9224,-205.202C82.1656,-224.443 116.731,-267.55 156,-290.5 159.682,-292.652 163.559,-294.626 167.55,-296.436"/>
<polygon fill="midnightblue" stroke="midnightblue" points="166.455,-299.771 177.033,-300.369 169.136,-293.305 166.455,-299.771"/>
</g>
<!-- Node4 -->
<g id="node4" class="node"><title>Node4</title>
<g id="a_node4"><a xlink:href="class_a_r_controller.html#a8de280cc3c3c583b5fe08a93835aa4e0" target="_top" xlink:title="ARController::getSquareTracker">
<polygon fill="white" stroke="black" points="168.5,-262 168.5,-281 324.5,-281 324.5,-262 168.5,-262"/>
<text text-anchor="middle" x="246.5" y="-269" font-family="Helvetica,sans-Serif" font-size="10.00">ARController::getSquareTracker</text>
</a>
</g>
</g>
<!-- Node1&#45;&gt;Node4 -->
<g id="edge3" class="edge"><title>Node1&#45;&gt;Node4</title>
<path fill="none" stroke="midnightblue" d="M73.8046,-205.09C91.409,-217.813 124.498,-240.107 156,-252.5 162.707,-255.139 169.849,-257.439 177.059,-259.438"/>
<polygon fill="midnightblue" stroke="midnightblue" points="176.344,-262.867 186.901,-261.98 178.094,-256.09 176.344,-262.867"/>
</g>
<!-- Node5 -->
<g id="node5" class="node"><title>Node5</title>
<g id="a_node5"><a xlink:href="class_a_r_tracker_square.html#aa1d7bb8d4a238ad6ab122aaa1b6c606e" target="_top" xlink:title="Sets the threshold value used for image binarization. ">
<polygon fill="white" stroke="black" points="168,-224 168,-243 325,-243 325,-224 168,-224"/>
<text text-anchor="middle" x="246.5" y="-231" font-family="Helvetica,sans-Serif" font-size="10.00">ARTrackerSquare::setThreshold</text>
</a>
</g>
</g>
<!-- Node1&#45;&gt;Node5 -->
<g id="edge4" class="edge"><title>Node1&#45;&gt;Node5</title>
<path fill="none" stroke="midnightblue" d="M107.557,-205.089C132.343,-210.194 163.015,-216.511 189.139,-221.892"/>
<polygon fill="midnightblue" stroke="midnightblue" points="188.777,-225.391 199.278,-223.98 190.189,-218.535 188.777,-225.391"/>
</g>
<!-- Node7 -->
<g id="node7" class="node"><title>Node7</title>
<g id="a_node7"><a xlink:href="class_a_r_tracker_square.html#afe46d849fc9ebe0430e59932ba8cb66c" target="_top" xlink:title="Sets the thresholding mode to use. ">
<polygon fill="white" stroke="black" points="156,-186 156,-205 337,-205 337,-186 156,-186"/>
<text text-anchor="middle" x="246.5" y="-193" font-family="Helvetica,sans-Serif" font-size="10.00">ARTrackerSquare::setThresholdMode</text>
</a>
</g>
</g>
<!-- Node1&#45;&gt;Node7 -->
<g id="edge6" class="edge"><title>Node1&#45;&gt;Node7</title>
<path fill="none" stroke="midnightblue" d="M120.138,-195.5C128.32,-195.5 136.902,-195.5 145.576,-195.5"/>
<polygon fill="midnightblue" stroke="midnightblue" points="145.781,-199 155.781,-195.5 145.781,-192 145.781,-199"/>
</g>
<!-- Node11 -->
<g id="node11" class="node"><title>Node11</title>
<g id="a_node11"><a xlink:href="class_a_r_tracker_square.html#a62b32d13a3efb6d22a5627725739095e" target="_top" xlink:title="Sets the labeling mode to use. ">
<polygon fill="white" stroke="black" points="159.5,-148 159.5,-167 333.5,-167 333.5,-148 159.5,-148"/>
<text text-anchor="middle" x="246.5" y="-155" font-family="Helvetica,sans-Serif" font-size="10.00">ARTrackerSquare::setLabelingMode</text>
</a>
</g>
</g>
<!-- Node1&#45;&gt;Node11 -->
<g id="edge10" class="edge"><title>Node1&#45;&gt;Node11</title>
<path fill="none" stroke="midnightblue" d="M107.557,-185.911C132.343,-180.806 163.015,-174.489 189.139,-169.108"/>
<polygon fill="midnightblue" stroke="midnightblue" points="190.189,-172.465 199.278,-167.02 188.777,-165.609 190.189,-172.465"/>
</g>
<!-- Node13 -->
<g id="node13" class="node"><title>Node13</title>
<g id="a_node13"><a xlink:href="class_a_r_tracker_square.html#ad13399664b282a8f7f124673fa1d2d07" target="_top" xlink:title="ARTrackerSquare::setPattern\lDetectionMode">
<polygon fill="white" stroke="black" points="173.5,-98.5 173.5,-128.5 319.5,-128.5 319.5,-98.5 173.5,-98.5"/>
<text text-anchor="start" x="181.5" y="-116.5" font-family="Helvetica,sans-Serif" font-size="10.00">ARTrackerSquare::setPattern</text>
<text text-anchor="middle" x="246.5" y="-105.5" font-family="Helvetica,sans-Serif" font-size="10.00">DetectionMode</text>
</a>
</g>
</g>
<!-- Node1&#45;&gt;Node13 -->
<g id="edge12" class="edge"><title>Node1&#45;&gt;Node13</title>
<path fill="none" stroke="midnightblue" d="M74.2278,-185.988C92.0412,-173.556 125.082,-151.806 156,-138.5 161.64,-136.073 167.582,-133.814 173.611,-131.729"/>
<polygon fill="midnightblue" stroke="midnightblue" points="174.723,-135.047 183.125,-128.593 172.532,-128.399 174.723,-135.047"/>
</g>
<!-- Node15 -->
<g id="node15" class="node"><title>Node15</title>
<g id="a_node15"><a xlink:href="class_a_r_tracker_square.html#ab2bc924411b08fec5f392280351fe3d8" target="_top" xlink:title="ARTrackerSquare::setMatrix\lCodeType">
<polygon fill="white" stroke="black" points="176,-49.5 176,-79.5 317,-79.5 317,-49.5 176,-49.5"/>
<text text-anchor="start" x="184" y="-67.5" font-family="Helvetica,sans-Serif" font-size="10.00">ARTrackerSquare::setMatrix</text>
<text text-anchor="middle" x="246.5" y="-56.5" font-family="Helvetica,sans-Serif" font-size="10.00">CodeType</text>
</a>
</g>
</g>
<!-- Node1&#45;&gt;Node15 -->
<g id="edge14" class="edge"><title>Node1&#45;&gt;Node15</title>
<path fill="none" stroke="midnightblue" d="M66.7768,-185.812C79.8664,-164.726 113.943,-114.48 156,-88.5 159.368,-86.4194 162.916,-84.517 166.577,-82.7778"/>
<polygon fill="midnightblue" stroke="midnightblue" points="168.07,-85.9459 175.876,-78.7822 165.306,-79.5145 168.07,-85.9459"/>
</g>
<!-- Node17 -->
<g id="node17" class="node"><title>Node17</title>
<g id="a_node17"><a xlink:href="class_a_r_tracker_square.html#a2c79ed2634caf584df6b3e0a3bc2d525" target="_top" xlink:title="ARTrackerSquare::setImage\lProcMode">
<polygon fill="white" stroke="black" points="176,-0.5 176,-30.5 317,-30.5 317,-0.5 176,-0.5"/>
<text text-anchor="start" x="184" y="-18.5" font-family="Helvetica,sans-Serif" font-size="10.00">ARTrackerSquare::setImage</text>
<text text-anchor="middle" x="246.5" y="-7.5" font-family="Helvetica,sans-Serif" font-size="10.00">ProcMode</text>
</a>
</g>
</g>
<!-- Node1&#45;&gt;Node17 -->
<g id="edge16" class="edge"><title>Node1&#45;&gt;Node17</title>
<path fill="none" stroke="midnightblue" d="M64.0669,-185.674C73.2039,-158.066 102.957,-79.2325 156,-39.5 159.239,-37.0738 162.706,-34.8927 166.324,-32.9319"/>
<polygon fill="midnightblue" stroke="midnightblue" points="168.079,-35.9724 175.587,-28.4977 165.056,-29.6585 168.079,-35.9724"/>
</g>
<!-- Node6 -->
<g id="node6" class="node"><title>Node6</title>
<g id="a_node6"><a xlink:href="ar_create_handle_8c.html#ad36c1f16292bb544e4a28a55831bf20b" target="_top" xlink:title="Set the labeling threshhold. ">
<polygon fill="white" stroke="black" points="388.5,-224 388.5,-243 494.5,-243 494.5,-224 388.5,-224"/>
<text text-anchor="middle" x="441.5" y="-231" font-family="Helvetica,sans-Serif" font-size="10.00">arSetLabelingThresh</text>
</a>
</g>
</g>
<!-- Node5&#45;&gt;Node6 -->
<g id="edge5" class="edge"><title>Node5&#45;&gt;Node6</title>
<path fill="none" stroke="midnightblue" d="M325.166,-233.5C342.775,-233.5 361.254,-233.5 378.134,-233.5"/>
<polygon fill="midnightblue" stroke="midnightblue" points="378.415,-237 388.415,-233.5 378.415,-230 378.415,-237"/>
</g>
<!-- Node8 -->
<g id="node8" class="node"><title>Node8</title>
<g id="a_node8"><a xlink:href="ar_create_handle_8c.html#a39e6a9d03584bb43ee3fae4925feaff2" target="_top" xlink:title="Set the labeling threshold mode (auto/manual). ">
<polygon fill="white" stroke="black" points="376.5,-186 376.5,-205 506.5,-205 506.5,-186 376.5,-186"/>
<text text-anchor="middle" x="441.5" y="-193" font-family="Helvetica,sans-Serif" font-size="10.00">arSetLabelingThreshMode</text>
</a>
</g>
</g>
<!-- Node7&#45;&gt;Node8 -->
<g id="edge7" class="edge"><title>Node7&#45;&gt;Node8</title>
<path fill="none" stroke="midnightblue" d="M337.22,-195.5C346.907,-195.5 356.685,-195.5 366.162,-195.5"/>
<polygon fill="midnightblue" stroke="midnightblue" points="366.309,-199 376.309,-195.5 366.309,-192 366.309,-199"/>
</g>
<!-- Node9 -->
<g id="node9" class="node"><title>Node9</title>
<g id="a_node9"><a xlink:href="ar_image_proc_8c.html#a99a7b2bbb653be2ecc772ceed7159ce1" target="_top" xlink:title="Finish image processing and free memory. ">
<polygon fill="white" stroke="black" points="546,-205 546,-224 639,-224 639,-205 546,-205"/>
<text text-anchor="middle" x="592.5" y="-212" font-family="Helvetica,sans-Serif" font-size="10.00">arImageProcFinal</text>
</a>
</g>
</g>
<!-- Node8&#45;&gt;Node9 -->
<g id="edge8" class="edge"><title>Node8&#45;&gt;Node9</title>
<path fill="none" stroke="midnightblue" d="M506.554,-203.668C516.285,-204.909 526.259,-206.181 535.794,-207.396"/>
<polygon fill="midnightblue" stroke="midnightblue" points="535.572,-210.897 545.935,-208.69 536.458,-203.953 535.572,-210.897"/>
</g>
<!-- Node10 -->
<g id="node10" class="node"><title>Node10</title>
<g id="a_node10"><a xlink:href="ar_image_proc_8c.html#a40df944801ad1069f667b366eba16855" target="_top" xlink:title="Initialise image processing. ">
<polygon fill="white" stroke="black" points="549.5,-167 549.5,-186 635.5,-186 635.5,-167 549.5,-167"/>
<text text-anchor="middle" x="592.5" y="-174" font-family="Helvetica,sans-Serif" font-size="10.00">arImageProcInit</text>
</a>
</g>
</g>
<!-- Node8&#45;&gt;Node10 -->
<g id="edge9" class="edge"><title>Node8&#45;&gt;Node10</title>
<path fill="none" stroke="midnightblue" d="M506.554,-187.332C517.552,-185.93 528.86,-184.488 539.494,-183.132"/>
<polygon fill="midnightblue" stroke="midnightblue" points="539.973,-186.599 549.45,-181.862 539.087,-179.655 539.973,-186.599"/>
</g>
<!-- Node12 -->
<g id="node12" class="node"><title>Node12</title>
<g id="a_node12"><a xlink:href="ar_create_handle_8c.html#a6cc43eaed20a4dcf1e6c72a687abcaaa" target="_top" xlink:title="Select between detection of black markers and white markers. ">
<polygon fill="white" stroke="black" points="391.5,-148 391.5,-167 491.5,-167 491.5,-148 391.5,-148"/>
<text text-anchor="middle" x="441.5" y="-155" font-family="Helvetica,sans-Serif" font-size="10.00">arSetLabelingMode</text>
</a>
</g>
</g>
<!-- Node11&#45;&gt;Node12 -->
<g id="edge11" class="edge"><title>Node11&#45;&gt;Node12</title>
<path fill="none" stroke="midnightblue" d="M333.558,-157.5C349.647,-157.5 366.129,-157.5 381.185,-157.5"/>
<polygon fill="midnightblue" stroke="midnightblue" points="381.358,-161 391.358,-157.5 381.358,-154 381.358,-161"/>
</g>
<!-- Node14 -->
<g id="node14" class="node"><title>Node14</title>
<g id="a_node14"><a xlink:href="ar_create_handle_8c.html#a553658b36c1d9c989b7ed7cb05ef2efd" target="_top" xlink:title="Set the pattern detection mode. ">
<polygon fill="white" stroke="black" points="373,-104 373,-123 510,-123 510,-104 373,-104"/>
<text text-anchor="middle" x="441.5" y="-111" font-family="Helvetica,sans-Serif" font-size="10.00">arSetPatternDetectionMode</text>
</a>
</g>
</g>
<!-- Node13&#45;&gt;Node14 -->
<g id="edge13" class="edge"><title>Node13&#45;&gt;Node14</title>
<path fill="none" stroke="midnightblue" d="M319.641,-113.5C333.684,-113.5 348.464,-113.5 362.681,-113.5"/>
<polygon fill="midnightblue" stroke="midnightblue" points="362.916,-117 372.916,-113.5 362.916,-110 362.916,-117"/>
</g>
<!-- Node16 -->
<g id="node16" class="node"><title>Node16</title>
<g id="a_node16"><a xlink:href="ar_create_handle_8c.html#a4e428e6aa80696fd1520ce2a565b2338" target="_top" xlink:title="Set the size and ECC algorithm to be used for matrix code (2D barcode) marker detection. ">
<polygon fill="white" stroke="black" points="385.5,-55 385.5,-74 497.5,-74 497.5,-55 385.5,-55"/>
<text text-anchor="middle" x="441.5" y="-62" font-family="Helvetica,sans-Serif" font-size="10.00">arSetMatrixCodeType</text>
</a>
</g>
</g>
<!-- Node15&#45;&gt;Node16 -->
<g id="edge15" class="edge"><title>Node15&#45;&gt;Node16</title>
<path fill="none" stroke="midnightblue" d="M317.177,-64.5C336.127,-64.5 356.575,-64.5 375.268,-64.5"/>
<polygon fill="midnightblue" stroke="midnightblue" points="375.452,-68.0001 385.452,-64.5 375.452,-61.0001 375.452,-68.0001"/>
</g>
<!-- Node18 -->
<g id="node18" class="node"><title>Node18</title>
<g id="a_node18"><a xlink:href="ar_create_handle_8c.html#a40682ca5527dcdaa69d8695c398f02e2" target="_top" xlink:title="Set the image processing mode. ">
<polygon fill="white" stroke="black" points="386,-6 386,-25 497,-25 497,-6 386,-6"/>
<text text-anchor="middle" x="441.5" y="-13" font-family="Helvetica,sans-Serif" font-size="10.00">arSetImageProcMode</text>
</a>
</g>
</g>
<!-- Node17&#45;&gt;Node18 -->
<g id="edge17" class="edge"><title>Node17&#45;&gt;Node18</title>
<path fill="none" stroke="midnightblue" d="M317.177,-15.5C336.218,-15.5 356.772,-15.5 375.538,-15.5"/>
<polygon fill="midnightblue" stroke="midnightblue" points="375.759,-19.0001 385.759,-15.5 375.758,-12.0001 375.759,-19.0001"/>
</g>
</g>
</svg>
        <g id="navigator" transform="translate(0 0)" fill="#404254">
                <rect fill="#f2f5e9" fill-opacity="0.5" stroke="#606060" stroke-width=".5" x="0" y="0" width="60" height="60"/>
                <use id="zoomplus" xlink:href="#zoomPlus" x="17" y="9" onmousedown="handleZoom(evt,'in')"/>
                <use id="zoomminus" xlink:href="#zoomMin" x="42" y="9" onmousedown="handleZoom(evt,'out')"/>
                <use id="reset" xlink:href="#resetDef" x="30" y="36" onmousedown="handleReset()"/>
                <g id="arrowUp" xlink:href="#dirArrow" transform="translate(30 24)" onmousedown="handlePan(0,-1)">
                  <use xlink:href="#rim" fill="#404040">
                        <set attributeName="fill" to="#808080" begin="arrowUp.mouseover" end="arrowUp.mouseout"/>
                  </use>
                  <path fill="none" stroke="white" stroke-width="1.5" d="M0,-3.0v7 M-2.5,-0.5L0,-3.0L2.5,-0.5"/>
                </g>
                <g id="arrowRight" xlink:href="#dirArrow" transform="rotate(90) translate(36 -43)" onmousedown="handlePan(1,0)">
                  <use xlink:href="#rim" fill="#404040">
                        <set attributeName="fill" to="#808080" begin="arrowRight.mouseover" end="arrowRight.mouseout"/>
                  </use>
                  <path fill="none" stroke="white" stroke-width="1.5" d="M0,-3.0v7 M-2.5,-0.5L0,-3.0L2.5,-0.5"/>
                </g>
                <g id="arrowDown" xlink:href="#dirArrow" transform="rotate(180) translate(-30 -48)" onmousedown="handlePan(0,1)">
                  <use xlink:href="#rim" fill="#404040">
                        <set attributeName="fill" to="#808080" begin="arrowDown.mouseover" end="arrowDown.mouseout"/>
                  </use>
                  <path fill="none" stroke="white" stroke-width="1.5" d="M0,-3.0v7 M-2.5,-0.5L0,-3.0L2.5,-0.5"/>
                </g>
                <g id="arrowLeft" xlink:href="#dirArrow" transform="rotate(270) translate(-36 17)" onmousedown="handlePan(-1,0)">
                  <use xlink:href="#rim" fill="#404040">
                        <set attributeName="fill" to="#808080" begin="arrowLeft.mouseover" end="arrowLeft.mouseout"/>
                  </use>
                  <path fill="none" stroke="white" stroke-width="1.5" d="M0,-3.0v7 M-2.5,-0.5L0,-3.0L2.5,-0.5"/>
                </g>
        </g>
        <svg viewBox="0 0 15 15" width="100%" height="30px" preserveAspectRatio="xMaxYMin meet">
         <g id="arrow_out" transform="scale(0.3 0.3)">
          <a xlink:href="_a_r6__c_8cpp_aa09a50275d6f178d6ec10930eb300033_cgraph_org.svg" target="_base">
           <rect id="button" ry="5" rx="5" y="6" x="6" height="38" width="38"
                fill="#f2f5e9" fill-opacity="0.5" stroke="#606060" stroke-width="1.0"/>
           <path id="arrow"
             d="M 11.500037,31.436501 C 11.940474,20.09759 22.043105,11.32322 32.158766,21.979434 L 37.068811,17.246167 C 37.068811,17.246167 37.088388,32 37.088388,32 L 22.160133,31.978069 C 22.160133,31.978069 26.997745,27.140456 26.997745,27.140456 C 18.528582,18.264221 13.291696,25.230495 11.500037,31.436501 z"
             style="fill:#404040;"/>
          </a>
         </g>
        </svg>
</svg>
