<?xml version="1.0" encoding="UTF-8" standalone="no"?>
<!DOCTYPE svg PUBLIC "-//W3C//DTD SVG 1.1//EN"
 "http://www.w3.org/Graphics/SVG/1.1/DTD/svg11.dtd">
<!-- Generated by graphviz version 2.38.0 (20140413.2041)
 -->
<!-- Title: arwDisplayFrameSettings Pages: 1 -->
<!--zoomable 724 -->
<svg id="main" version="1.1" xmlns="http://www.w3.org/2000/svg" xmlns:xlink="http://www.w3.org/1999/xlink" xml:space="preserve" onload="init(evt)">
<style type="text/css"><![CDATA[
.edge:hover path { stroke: red; }
.edge:hover polygon { stroke: red; fill: red; }
]]></style>
<script type="text/javascript"><![CDATA[
var edges = document.getElementsByTagName('g');
if (edges && edges.length) {
  for (var i=0;i<edges.length;i++) {
    if (edges[i].id.substr(0,4)=='edge') {
      edges[i].setAttribute('class','edge');
    }
  }
}
]]></script>
        <defs>
                <circle id="rim" cx="0" cy="0" r="7"/>
                <circle id="rim2" cx="0" cy="0" r="3.5"/>
                <g id="zoomPlus">
                        <use xlink:href="#rim" fill="#404040">
                                <set attributeName="fill" to="#808080" begin="zoomplus.mouseover" end="zoomplus.mouseout"/>
                        </use>
                        <path d="M-4,0h8M0,-4v8" fill="none" stroke="white" stroke-width="1.5" pointer-events="none"/>
                </g>
                <g id="zoomMin">
                        <use xlink:href="#rim" fill="#404040">
                                <set attributeName="fill" to="#808080" begin="zoomminus.mouseover" end="zoomminus.mouseout"/>
                        </use>
                        <path d="M-4,0h8" fill="none" stroke="white" stroke-width="1.5" pointer-events="none"/>
                </g>
                <g id="dirArrow">
                        <path fill="none" stroke="white" stroke-width="1.5" d="M0,-3.0v7 M-2.5,-0.5L0,-3.0L2.5,-0.5"/>
                </g>
               <g id="resetDef">
                       <use xlink:href="#rim2" fill="#404040">
                               <set attributeName="fill" to="#808080" begin="reset.mouseover" end="reset.mouseout"/>
                       </use>
               </g>
        </defs>

<script type="text/javascript">
var viewWidth = 1023;
var viewHeight = 724;
var sectionId = 'dynsection-7';
</script>
<script xlink:href="svgpan.js"/>
<svg id="graph" class="graph">
<g id="viewport">
<title>arwDisplayFrameSettings</title>
<polygon fill="white" stroke="none" points="-4,4 -4,-720 1019,-720 1019,4 -4,4"/>
<!-- Node1 -->
<g id="node1" class="node"><title>Node1</title>
<polygon fill="#bfbfbf" stroke="black" points="0,-133.5 0,-152.5 129,-152.5 129,-133.5 0,-133.5"/>
<text text-anchor="middle" x="64.5" y="-140.5" font-family="Helvetica,sans-Serif" font-size="10.00">arwDisplayFrameSettings</text>
</g>
<!-- Node2 -->
<g id="node2" class="node"><title>Node2</title>
<g id="a_node2"><a xlink:href="class_a_r_controller.html#a29267c4e6a0c4901cc7854259ff2b0f5" target="_top" xlink:title="ARController::displayFrame\lSettings">
<polygon fill="white" stroke="black" points="165,-128 165,-158 302,-158 302,-128 165,-128"/>
<text text-anchor="start" x="173" y="-146" font-family="Helvetica,sans-Serif" font-size="10.00">ARController::displayFrame</text>
<text text-anchor="middle" x="233.5" y="-135" font-family="Helvetica,sans-Serif" font-size="10.00">Settings</text>
</a>
</g>
</g>
<!-- Node1&#45;&gt;Node2 -->
<g id="edge1" class="edge"><title>Node1&#45;&gt;Node2</title>
<path fill="none" stroke="midnightblue" d="M129.112,-143C137.526,-143 146.226,-143 154.843,-143"/>
<polygon fill="midnightblue" stroke="midnightblue" points="154.897,-146.5 164.897,-143 154.897,-139.5 154.897,-146.5"/>
</g>
<!-- Node3 -->
<g id="node3" class="node"><title>Node3</title>
<g id="a_node3"><a xlink:href="class_a_r_view.html#a2f9e26d67a5ac1d9d5df849885bc313d" target="_top" xlink:title="ARView::initWithVideoSource">
<polygon fill="white" stroke="black" points="344.5,-456.5 344.5,-475.5 491.5,-475.5 491.5,-456.5 344.5,-456.5"/>
<text text-anchor="middle" x="418" y="-463.5" font-family="Helvetica,sans-Serif" font-size="10.00">ARView::initWithVideoSource</text>
</a>
</g>
</g>
<!-- Node2&#45;&gt;Node3 -->
<g id="edge2" class="edge"><title>Node2&#45;&gt;Node3</title>
<path fill="none" stroke="midnightblue" d="M243.058,-158.146C273.102,-211.32 373.717,-389.395 406.545,-447.496"/>
<polygon fill="midnightblue" stroke="midnightblue" points="403.568,-449.342 411.535,-456.327 409.663,-445.899 403.568,-449.342"/>
</g>
<!-- Node19 -->
<g id="node19" class="node"><title>Node19</title>
<g id="a_node19"><a xlink:href="class_a_r_view.html#a9cece790a9928fd67c8209c5bcfd867d" target="_top" xlink:title="ARView::setRotate90">
<polygon fill="white" stroke="black" points="362,-228.5 362,-247.5 474,-247.5 474,-228.5 362,-228.5"/>
<text text-anchor="middle" x="418" y="-235.5" font-family="Helvetica,sans-Serif" font-size="10.00">ARView::setRotate90</text>
</a>
</g>
</g>
<!-- Node2&#45;&gt;Node19 -->
<g id="edge19" class="edge"><title>Node2&#45;&gt;Node19</title>
<path fill="none" stroke="midnightblue" d="M250.74,-158.176C270.073,-175.426 304.031,-203.228 338,-219 343.246,-221.436 348.838,-223.579 354.53,-225.46"/>
<polygon fill="midnightblue" stroke="midnightblue" points="353.576,-228.828 364.162,-228.385 355.61,-222.13 353.576,-228.828"/>
</g>
<!-- Node21 -->
<g id="node21" class="node"><title>Node21</title>
<g id="a_node21"><a xlink:href="class_a_r_view.html#aa259f86de1b10565e4cd07e563037de6" target="_top" xlink:title="ARView::setFlipH">
<polygon fill="white" stroke="black" points="370.5,-190.5 370.5,-209.5 465.5,-209.5 465.5,-190.5 370.5,-190.5"/>
<text text-anchor="middle" x="418" y="-197.5" font-family="Helvetica,sans-Serif" font-size="10.00">ARView::setFlipH</text>
</a>
</g>
</g>
<!-- Node2&#45;&gt;Node21 -->
<g id="edge21" class="edge"><title>Node2&#45;&gt;Node21</title>
<path fill="none" stroke="midnightblue" d="M272.481,-158.144C291.9,-165.579 316.015,-174.345 338,-181 346.151,-183.468 354.852,-185.828 363.389,-187.995"/>
<polygon fill="midnightblue" stroke="midnightblue" points="362.746,-191.441 373.294,-190.444 364.426,-184.646 362.746,-191.441"/>
</g>
<!-- Node23 -->
<g id="node23" class="node"><title>Node23</title>
<g id="a_node23"><a xlink:href="class_a_r_view.html#a4973fdbe87370b1ecb11709399adad0f" target="_top" xlink:title="ARView::setFlipV">
<polygon fill="white" stroke="black" points="370.5,-152.5 370.5,-171.5 465.5,-171.5 465.5,-152.5 370.5,-152.5"/>
<text text-anchor="middle" x="418" y="-159.5" font-family="Helvetica,sans-Serif" font-size="10.00">ARView::setFlipV</text>
</a>
</g>
</g>
<!-- Node2&#45;&gt;Node23 -->
<g id="edge23" class="edge"><title>Node2&#45;&gt;Node23</title>
<path fill="none" stroke="midnightblue" d="M302.197,-150.048C321.369,-152.044 342.031,-154.195 360.469,-156.115"/>
<polygon fill="midnightblue" stroke="midnightblue" points="360.152,-159.6 370.461,-157.155 360.877,-152.638 360.152,-159.6"/>
</g>
<!-- Node25 -->
<g id="node25" class="node"><title>Node25</title>
<g id="a_node25"><a xlink:href="class_a_r_view.html#af383d0b907224ceeab9421bfc7b599ed" target="_top" xlink:title="ARView::setHorizontalAlignment">
<polygon fill="white" stroke="black" points="338,-114.5 338,-133.5 498,-133.5 498,-114.5 338,-114.5"/>
<text text-anchor="middle" x="418" y="-121.5" font-family="Helvetica,sans-Serif" font-size="10.00">ARView::setHorizontalAlignment</text>
</a>
</g>
</g>
<!-- Node2&#45;&gt;Node25 -->
<g id="edge25" class="edge"><title>Node2&#45;&gt;Node25</title>
<path fill="none" stroke="midnightblue" d="M302.197,-135.952C310.509,-135.087 319.1,-134.192 327.669,-133.3"/>
<polygon fill="midnightblue" stroke="midnightblue" points="328.117,-136.773 337.7,-132.256 327.392,-129.81 328.117,-136.773"/>
</g>
<!-- Node26 -->
<g id="node26" class="node"><title>Node26</title>
<g id="a_node26"><a xlink:href="class_a_r_view.html#a649675c30a46b111b0eddc9a1c0ce3ff" target="_top" xlink:title="ARView::setVerticalAlignment">
<polygon fill="white" stroke="black" points="343.5,-76.5 343.5,-95.5 492.5,-95.5 492.5,-76.5 343.5,-76.5"/>
<text text-anchor="middle" x="418" y="-83.5" font-family="Helvetica,sans-Serif" font-size="10.00">ARView::setVerticalAlignment</text>
</a>
</g>
</g>
<!-- Node2&#45;&gt;Node26 -->
<g id="edge26" class="edge"><title>Node2&#45;&gt;Node26</title>
<path fill="none" stroke="midnightblue" d="M272.481,-127.856C291.9,-120.421 316.015,-111.655 338,-105 346.151,-102.532 354.852,-100.172 363.389,-98.0054"/>
<polygon fill="midnightblue" stroke="midnightblue" points="364.426,-101.354 373.294,-95.5562 362.746,-94.5591 364.426,-101.354"/>
</g>
<!-- Node27 -->
<g id="node27" class="node"><title>Node27</title>
<g id="a_node27"><a xlink:href="class_a_r_view.html#ad626e444f63ee81b9b9d2927c52d76db" target="_top" xlink:title="ARView::setScalingMode">
<polygon fill="white" stroke="black" points="354,-38.5 354,-57.5 482,-57.5 482,-38.5 354,-38.5"/>
<text text-anchor="middle" x="418" y="-45.5" font-family="Helvetica,sans-Serif" font-size="10.00">ARView::setScalingMode</text>
</a>
</g>
</g>
<!-- Node2&#45;&gt;Node27 -->
<g id="edge27" class="edge"><title>Node2&#45;&gt;Node27</title>
<path fill="none" stroke="midnightblue" d="M250.74,-127.824C270.073,-110.574 304.031,-82.7724 338,-67 343.246,-64.5643 348.838,-62.4214 354.53,-60.5401"/>
<polygon fill="midnightblue" stroke="midnightblue" points="355.61,-63.87 364.162,-57.6153 353.576,-57.172 355.61,-63.87"/>
</g>
<!-- Node28 -->
<g id="node28" class="node"><title>Node28</title>
<g id="a_node28"><a xlink:href="class_a_r_view.html#aab32c60a02e38529a73289ded3672d72" target="_top" xlink:title="ARView::getViewport">
<polygon fill="white" stroke="black" points="363,-0.5 363,-19.5 473,-19.5 473,-0.5 363,-0.5"/>
<text text-anchor="middle" x="418" y="-7.5" font-family="Helvetica,sans-Serif" font-size="10.00">ARView::getViewport</text>
</a>
</g>
</g>
<!-- Node2&#45;&gt;Node28 -->
<g id="edge28" class="edge"><title>Node2&#45;&gt;Node28</title>
<path fill="none" stroke="midnightblue" d="M243.888,-127.775C259.969,-103.039 295.222,-54.3426 338,-29 342.703,-26.2139 347.792,-23.8359 353.043,-21.8063"/>
<polygon fill="midnightblue" stroke="midnightblue" points="354.3,-25.0754 362.62,-18.5165 352.026,-18.4551 354.3,-25.0754"/>
</g>
<!-- Node4 -->
<g id="node4" class="node"><title>Node4</title>
<g id="a_node4"><a xlink:href="arg_8c.html#a85f626e83b50240007e8b8cc349f1ddf" target="_top" xlink:title="Free memory used by arg associated with the specified context. ">
<polygon fill="white" stroke="black" points="579.5,-696.5 579.5,-715.5 647.5,-715.5 647.5,-696.5 579.5,-696.5"/>
<text text-anchor="middle" x="613.5" y="-703.5" font-family="Helvetica,sans-Serif" font-size="10.00">arglCleanup</text>
</a>
</g>
</g>
<!-- Node3&#45;&gt;Node4 -->
<g id="edge3" class="edge"><title>Node3&#45;&gt;Node4</title>
<path fill="none" stroke="midnightblue" d="M421.048,-475.796C428.853,-510.578 460.098,-629.142 534,-687 544.006,-694.834 556.765,-699.502 569.074,-702.264"/>
<polygon fill="midnightblue" stroke="midnightblue" points="568.765,-705.767 579.238,-704.164 570.051,-698.886 568.765,-705.767"/>
</g>
<!-- Node5 -->
<g id="node5" class="node"><title>Node5</title>
<g id="a_node5"><a xlink:href="class_a_r_video_source.html#a5fcaa2cdbbe4a214da643b8b3c9f56e8" target="_top" xlink:title="Returns the camera parameters for the video source. ">
<polygon fill="white" stroke="black" points="543.5,-647 543.5,-677 683.5,-677 683.5,-647 543.5,-647"/>
<text text-anchor="start" x="551.5" y="-665" font-family="Helvetica,sans-Serif" font-size="10.00">ARVideoSource::getCamera</text>
<text text-anchor="middle" x="613.5" y="-654" font-family="Helvetica,sans-Serif" font-size="10.00">Parameters</text>
</a>
</g>
</g>
<!-- Node3&#45;&gt;Node5 -->
<g id="edge4" class="edge"><title>Node3&#45;&gt;Node5</title>
<path fill="none" stroke="midnightblue" d="M422.813,-475.795C434.646,-504.909 473.611,-591.705 534,-637 536.494,-638.871 539.132,-640.604 541.873,-642.21"/>
<polygon fill="midnightblue" stroke="midnightblue" points="540.431,-645.405 550.918,-646.917 543.662,-639.196 540.431,-645.405"/>
</g>
<!-- Node6 -->
<g id="node6" class="node"><title>Node6</title>
<g id="a_node6"><a xlink:href="arg_8c.html#ad95c0c2dafc0b081fde74cb34f8cf7ce" target="_top" xlink:title="Initialise the arg library for the current OpenGL context. ">
<polygon fill="white" stroke="black" points="544,-608.5 544,-627.5 683,-627.5 683,-608.5 544,-608.5"/>
<text text-anchor="middle" x="613.5" y="-615.5" font-family="Helvetica,sans-Serif" font-size="10.00">arglSetupForCurrentContext</text>
</a>
</g>
</g>
<!-- Node3&#45;&gt;Node6 -->
<g id="edge5" class="edge"><title>Node3&#45;&gt;Node6</title>
<path fill="none" stroke="midnightblue" d="M424.513,-475.853C438.97,-500.731 480.576,-566.417 534,-599 537.569,-601.177 541.371,-603.104 545.304,-604.811"/>
<polygon fill="midnightblue" stroke="midnightblue" points="544.079,-608.089 554.669,-608.406 546.588,-601.554 544.079,-608.089"/>
</g>
<!-- Node9 -->
<g id="node9" class="node"><title>Node9</title>
<g id="a_node9"><a xlink:href="class_a_r_video_source.html#aa7b003e7ab2ce739d0940172bd91ca3c" target="_top" xlink:title="Returns the pixel format of the video. ">
<polygon fill="white" stroke="black" points="534.5,-570.5 534.5,-589.5 692.5,-589.5 692.5,-570.5 534.5,-570.5"/>
<text text-anchor="middle" x="613.5" y="-577.5" font-family="Helvetica,sans-Serif" font-size="10.00">ARVideoSource::getPixelFormat</text>
</a>
</g>
</g>
<!-- Node3&#45;&gt;Node9 -->
<g id="edge9" class="edge"><title>Node3&#45;&gt;Node9</title>
<path fill="none" stroke="midnightblue" d="M427.784,-475.762C445.754,-495.11 488.84,-538.402 534,-561 538.661,-563.332 543.624,-565.388 548.702,-567.198"/>
<polygon fill="midnightblue" stroke="midnightblue" points="547.97,-570.64 558.562,-570.385 550.123,-563.979 547.97,-570.64"/>
</g>
<!-- Node10 -->
<g id="node10" class="node"><title>Node10</title>
<g id="a_node10"><a xlink:href="param_8h.html#a408e5586069334fc2ae229b1924f132c" target="_top" xlink:title="Create a camera parameter structure representing an idealised lens. ">
<polygon fill="white" stroke="black" points="575,-532.5 575,-551.5 652,-551.5 652,-532.5 575,-532.5"/>
<text text-anchor="middle" x="613.5" y="-539.5" font-family="Helvetica,sans-Serif" font-size="10.00">arParamClear</text>
</a>
</g>
</g>
<!-- Node3&#45;&gt;Node10 -->
<g id="edge10" class="edge"><title>Node3&#45;&gt;Node10</title>
<path fill="none" stroke="midnightblue" d="M435.247,-475.505C457.07,-487.93 497.353,-509.672 534,-523 543.886,-526.596 554.72,-529.715 565.097,-532.33"/>
<polygon fill="midnightblue" stroke="midnightblue" points="564.318,-535.742 574.859,-534.68 565.957,-528.937 564.318,-535.742"/>
</g>
<!-- Node12 -->
<g id="node12" class="node"><title>Node12</title>
<g id="a_node12"><a xlink:href="class_a_r_video_source.html#abee133d378f5c800b9184a983b02a46d" target="_top" xlink:title="Returns the width of the video in pixels. ">
<polygon fill="white" stroke="black" points="535.5,-494.5 535.5,-513.5 691.5,-513.5 691.5,-494.5 535.5,-494.5"/>
<text text-anchor="middle" x="613.5" y="-501.5" font-family="Helvetica,sans-Serif" font-size="10.00">ARVideoSource::getVideoWidth</text>
</a>
</g>
</g>
<!-- Node3&#45;&gt;Node12 -->
<g id="edge12" class="edge"><title>Node3&#45;&gt;Node12</title>
<path fill="none" stroke="midnightblue" d="M467.828,-475.589C494.053,-480.739 526.562,-487.123 554.116,-492.534"/>
<polygon fill="midnightblue" stroke="midnightblue" points="553.536,-495.987 564.023,-494.48 554.885,-489.118 553.536,-495.987"/>
</g>
<!-- Node13 -->
<g id="node13" class="node"><title>Node13</title>
<g id="a_node13"><a xlink:href="class_a_r_video_source.html#ad891987fbd5707889d159319841f866d" target="_top" xlink:title="Returns the height of the video in pixels. ">
<polygon fill="white" stroke="black" points="534,-456.5 534,-475.5 693,-475.5 693,-456.5 534,-456.5"/>
<text text-anchor="middle" x="613.5" y="-463.5" font-family="Helvetica,sans-Serif" font-size="10.00">ARVideoSource::getVideoHeight</text>
</a>
</g>
</g>
<!-- Node3&#45;&gt;Node13 -->
<g id="edge13" class="edge"><title>Node3&#45;&gt;Node13</title>
<path fill="none" stroke="midnightblue" d="M491.603,-466C502.086,-466 512.974,-466 523.729,-466"/>
<polygon fill="midnightblue" stroke="midnightblue" points="523.983,-469.5 533.982,-466 523.982,-462.5 523.983,-469.5"/>
</g>
<!-- Node14 -->
<g id="node14" class="node"><title>Node14</title>
<g id="a_node14"><a xlink:href="arg_8c.html#a4cf2d1c5f499640230f2dcc5cce8dc2a" target="_top" xlink:title="Set or unset a 90 degree rotation in all OpenGL drawing performed by ARGL. ">
<polygon fill="white" stroke="black" points="570,-418.5 570,-437.5 657,-437.5 657,-418.5 570,-418.5"/>
<text text-anchor="middle" x="613.5" y="-425.5" font-family="Helvetica,sans-Serif" font-size="10.00">arglSetRotate90</text>
</a>
</g>
</g>
<!-- Node3&#45;&gt;Node14 -->
<g id="edge14" class="edge"><title>Node3&#45;&gt;Node14</title>
<path fill="none" stroke="midnightblue" d="M467.828,-456.411C495.97,-450.884 531.35,-443.936 560.077,-438.295"/>
<polygon fill="midnightblue" stroke="midnightblue" points="560.8,-441.72 569.938,-436.358 559.451,-434.851 560.8,-441.72"/>
</g>
<!-- Node15 -->
<g id="node15" class="node"><title>Node15</title>
<g id="a_node15"><a xlink:href="arg_8c.html#a336171b329a6dff60ebe3a23157737e6" target="_top" xlink:title="arglSetFlipH">
<polygon fill="white" stroke="black" points="578,-380.5 578,-399.5 649,-399.5 649,-380.5 578,-380.5"/>
<text text-anchor="middle" x="613.5" y="-387.5" font-family="Helvetica,sans-Serif" font-size="10.00">arglSetFlipH</text>
</a>
</g>
</g>
<!-- Node3&#45;&gt;Node15 -->
<g id="edge15" class="edge"><title>Node3&#45;&gt;Node15</title>
<path fill="none" stroke="midnightblue" d="M435.247,-456.495C457.07,-444.07 497.353,-422.328 534,-409 544.694,-405.111 556.497,-401.778 567.631,-399.039"/>
<polygon fill="midnightblue" stroke="midnightblue" points="568.683,-402.388 577.617,-396.693 567.082,-395.573 568.683,-402.388"/>
</g>
<!-- Node16 -->
<g id="node16" class="node"><title>Node16</title>
<g id="a_node16"><a xlink:href="arg_8c.html#a077eb626510231817d6d7d146a2fb7e0" target="_top" xlink:title="arglSetFlipV">
<polygon fill="white" stroke="black" points="578.5,-342.5 578.5,-361.5 648.5,-361.5 648.5,-342.5 578.5,-342.5"/>
<text text-anchor="middle" x="613.5" y="-349.5" font-family="Helvetica,sans-Serif" font-size="10.00">arglSetFlipV</text>
</a>
</g>
</g>
<!-- Node3&#45;&gt;Node16 -->
<g id="edge16" class="edge"><title>Node3&#45;&gt;Node16</title>
<path fill="none" stroke="midnightblue" d="M427.784,-456.238C445.754,-436.89 488.84,-393.598 534,-371 544.669,-365.662 556.916,-361.773 568.515,-358.96"/>
<polygon fill="midnightblue" stroke="midnightblue" points="569.476,-362.332 578.485,-356.756 567.965,-355.497 569.476,-362.332"/>
</g>
<!-- Node17 -->
<g id="node17" class="node"><title>Node17</title>
<g id="a_node17"><a xlink:href="arg_8c.html#aa5ca20b707a271f658448b5550783a0a" target="_top" xlink:title="Set compensation for camera lens distortion in arglDispImage to off or on. ">
<polygon fill="white" stroke="black" points="537.5,-304.5 537.5,-323.5 689.5,-323.5 689.5,-304.5 537.5,-304.5"/>
<text text-anchor="middle" x="613.5" y="-311.5" font-family="Helvetica,sans-Serif" font-size="10.00">arglDistortionCompensationSet</text>
</a>
</g>
</g>
<!-- Node3&#45;&gt;Node17 -->
<g id="edge17" class="edge"><title>Node3&#45;&gt;Node17</title>
<path fill="none" stroke="midnightblue" d="M424.513,-456.147C438.97,-431.269 480.576,-365.583 534,-333 537.569,-330.823 541.371,-328.896 545.304,-327.189"/>
<polygon fill="midnightblue" stroke="midnightblue" points="546.588,-330.446 554.669,-323.594 544.079,-323.911 546.588,-330.446"/>
</g>
<!-- Node18 -->
<g id="node18" class="node"><title>Node18</title>
<g id="a_node18"><a xlink:href="ioapi_8h.html#a787fa3cf048117ba7123753c1e74fcd6" target="_top" xlink:title="int">
<polygon fill="white" stroke="black" points="599,-266.5 599,-285.5 628,-285.5 628,-266.5 599,-266.5"/>
<text text-anchor="middle" x="613.5" y="-273.5" font-family="Helvetica,sans-Serif" font-size="10.00">int</text>
</a>
</g>
</g>
<!-- Node3&#45;&gt;Node18 -->
<g id="edge18" class="edge"><title>Node3&#45;&gt;Node18</title>
<path fill="none" stroke="midnightblue" d="M422.507,-456.422C433.736,-427.166 471.751,-338.332 534,-295 550.143,-283.763 572.164,-279.136 588.775,-277.249"/>
<polygon fill="midnightblue" stroke="midnightblue" points="589.14,-280.73 598.793,-276.362 588.523,-273.757 589.14,-280.73"/>
</g>
<!-- Node7 -->
<g id="node7" class="node"><title>Node7</title>
<g id="a_node7"><a xlink:href="arg_8c.html#aabe153eb55c310c8ae24bb7347f58f07" target="_top" xlink:title="arglIsOpenGLES2OrLater">
<polygon fill="white" stroke="black" points="887,-608.5 887,-627.5 1015,-627.5 1015,-608.5 887,-608.5"/>
<text text-anchor="middle" x="951" y="-615.5" font-family="Helvetica,sans-Serif" font-size="10.00">arglIsOpenGLES2OrLater</text>
</a>
</g>
</g>
<!-- Node6&#45;&gt;Node7 -->
<g id="edge6" class="edge"><title>Node6&#45;&gt;Node7</title>
<path fill="none" stroke="midnightblue" d="M683.203,-618C739.538,-618 819.092,-618 876.655,-618"/>
<polygon fill="midnightblue" stroke="midnightblue" points="876.776,-621.5 886.776,-618 876.776,-614.5 876.776,-621.5"/>
</g>
<!-- Node8 -->
<g id="node8" class="node"><title>Node8</title>
<g id="a_node8"><a xlink:href="arg_8c.html#a70f432550d41765bc7b7b13a53e6015d" target="_top" xlink:title="arglOpenGLVersion">
<polygon fill="white" stroke="black" points="739.5,-589.5 739.5,-608.5 840.5,-608.5 840.5,-589.5 739.5,-589.5"/>
<text text-anchor="middle" x="790" y="-596.5" font-family="Helvetica,sans-Serif" font-size="10.00">arglOpenGLVersion</text>
</a>
</g>
</g>
<!-- Node6&#45;&gt;Node8 -->
<g id="edge7" class="edge"><title>Node6&#45;&gt;Node8</title>
<path fill="none" stroke="midnightblue" d="M683.217,-610.518C698.482,-608.856 714.542,-607.107 729.407,-605.489"/>
<polygon fill="midnightblue" stroke="midnightblue" points="729.92,-608.954 739.483,-604.392 729.162,-601.995 729.92,-608.954"/>
</g>
<!-- Node8&#45;&gt;Node7 -->
<g id="edge8" class="edge"><title>Node8&#45;&gt;Node7</title>
<path fill="none" stroke="midnightblue" d="M840.872,-604.96C852.256,-606.32 864.586,-607.793 876.722,-609.244"/>
<polygon fill="midnightblue" stroke="midnightblue" points="876.5,-612.742 886.845,-610.453 877.331,-605.791 876.5,-612.742"/>
</g>
<!-- Node11 -->
<g id="node11" class="node"><title>Node11</title>
<g id="a_node11"><a xlink:href="param_clear_8c.html#a3a67c8e9b71679e2f01173cfdb2b950a" target="_top" xlink:title="arParamDistFactorClear">
<polygon fill="white" stroke="black" points="729,-532.5 729,-551.5 851,-551.5 851,-532.5 729,-532.5"/>
<text text-anchor="middle" x="790" y="-539.5" font-family="Helvetica,sans-Serif" font-size="10.00">arParamDistFactorClear</text>
</a>
</g>
</g>
<!-- Node10&#45;&gt;Node11 -->
<g id="edge11" class="edge"><title>Node10&#45;&gt;Node11</title>
<path fill="none" stroke="midnightblue" d="M652.364,-542C671.748,-542 695.982,-542 718.636,-542"/>
<polygon fill="midnightblue" stroke="midnightblue" points="718.911,-545.5 728.911,-542 718.911,-538.5 718.911,-545.5"/>
</g>
<!-- Node20 -->
<g id="node20" class="node"><title>Node20</title>
<g id="a_node20"><a xlink:href="class_a_r_view.html#a696c747a0d2bc13395b7416b4985a5cd" target="_top" xlink:title="ARView::rotate90">
<polygon fill="white" stroke="black" points="566.5,-228.5 566.5,-247.5 660.5,-247.5 660.5,-228.5 566.5,-228.5"/>
<text text-anchor="middle" x="613.5" y="-235.5" font-family="Helvetica,sans-Serif" font-size="10.00">ARView::rotate90</text>
</a>
</g>
</g>
<!-- Node19&#45;&gt;Node20 -->
<g id="edge20" class="edge"><title>Node19&#45;&gt;Node20</title>
<path fill="none" stroke="midnightblue" d="M474.19,-238C499.929,-238 530.513,-238 556.368,-238"/>
<polygon fill="midnightblue" stroke="midnightblue" points="556.392,-241.5 566.392,-238 556.391,-234.5 556.392,-241.5"/>
</g>
<!-- Node22 -->
<g id="node22" class="node"><title>Node22</title>
<g id="a_node22"><a xlink:href="class_a_r_view.html#a1eee03bb50a5925dbac13f6d6d4791d9" target="_top" xlink:title="ARView::flipH">
<polygon fill="white" stroke="black" points="574,-190.5 574,-209.5 653,-209.5 653,-190.5 574,-190.5"/>
<text text-anchor="middle" x="613.5" y="-197.5" font-family="Helvetica,sans-Serif" font-size="10.00">ARView::flipH</text>
</a>
</g>
</g>
<!-- Node21&#45;&gt;Node22 -->
<g id="edge22" class="edge"><title>Node21&#45;&gt;Node22</title>
<path fill="none" stroke="midnightblue" d="M465.841,-200C495.457,-200 533.664,-200 563.656,-200"/>
<polygon fill="midnightblue" stroke="midnightblue" points="563.894,-203.5 573.894,-200 563.894,-196.5 563.894,-203.5"/>
</g>
<!-- Node24 -->
<g id="node24" class="node"><title>Node24</title>
<g id="a_node24"><a xlink:href="class_a_r_view.html#a298875be3ca8d86322eba016833c6d36" target="_top" xlink:title="ARView::flipV">
<polygon fill="white" stroke="black" points="574.5,-152.5 574.5,-171.5 652.5,-171.5 652.5,-152.5 574.5,-152.5"/>
<text text-anchor="middle" x="613.5" y="-159.5" font-family="Helvetica,sans-Serif" font-size="10.00">ARView::flipV</text>
</a>
</g>
</g>
<!-- Node23&#45;&gt;Node24 -->
<g id="edge24" class="edge"><title>Node23&#45;&gt;Node24</title>
<path fill="none" stroke="midnightblue" d="M465.841,-162C495.557,-162 533.922,-162 563.96,-162"/>
<polygon fill="midnightblue" stroke="midnightblue" points="564.209,-165.5 574.209,-162 564.209,-158.5 564.209,-165.5"/>
</g>
</g>
</svg>
        <g id="navigator" transform="translate(0 0)" fill="#404254">
                <rect fill="#f2f5e9" fill-opacity="0.5" stroke="#606060" stroke-width=".5" x="0" y="0" width="60" height="60"/>
                <use id="zoomplus" xlink:href="#zoomPlus" x="17" y="9" onmousedown="handleZoom(evt,'in')"/>
                <use id="zoomminus" xlink:href="#zoomMin" x="42" y="9" onmousedown="handleZoom(evt,'out')"/>
                <use id="reset" xlink:href="#resetDef" x="30" y="36" onmousedown="handleReset()"/>
                <g id="arrowUp" xlink:href="#dirArrow" transform="translate(30 24)" onmousedown="handlePan(0,-1)">
                  <use xlink:href="#rim" fill="#404040">
                        <set attributeName="fill" to="#808080" begin="arrowUp.mouseover" end="arrowUp.mouseout"/>
                  </use>
                  <path fill="none" stroke="white" stroke-width="1.5" d="M0,-3.0v7 M-2.5,-0.5L0,-3.0L2.5,-0.5"/>
                </g>
                <g id="arrowRight" xlink:href="#dirArrow" transform="rotate(90) translate(36 -43)" onmousedown="handlePan(1,0)">
                  <use xlink:href="#rim" fill="#404040">
                        <set attributeName="fill" to="#808080" begin="arrowRight.mouseover" end="arrowRight.mouseout"/>
                  </use>
                  <path fill="none" stroke="white" stroke-width="1.5" d="M0,-3.0v7 M-2.5,-0.5L0,-3.0L2.5,-0.5"/>
                </g>
                <g id="arrowDown" xlink:href="#dirArrow" transform="rotate(180) translate(-30 -48)" onmousedown="handlePan(0,1)">
                  <use xlink:href="#rim" fill="#404040">
                        <set attributeName="fill" to="#808080" begin="arrowDown.mouseover" end="arrowDown.mouseout"/>
                  </use>
                  <path fill="none" stroke="white" stroke-width="1.5" d="M0,-3.0v7 M-2.5,-0.5L0,-3.0L2.5,-0.5"/>
                </g>
                <g id="arrowLeft" xlink:href="#dirArrow" transform="rotate(270) translate(-36 17)" onmousedown="handlePan(-1,0)">
                  <use xlink:href="#rim" fill="#404040">
                        <set attributeName="fill" to="#808080" begin="arrowLeft.mouseover" end="arrowLeft.mouseout"/>
                  </use>
                  <path fill="none" stroke="white" stroke-width="1.5" d="M0,-3.0v7 M-2.5,-0.5L0,-3.0L2.5,-0.5"/>
                </g>
        </g>
        <svg viewBox="0 0 15 15" width="100%" height="30px" preserveAspectRatio="xMaxYMin meet">
         <g id="arrow_out" transform="scale(0.3 0.3)">
          <a xlink:href="_a_r6__c_8h_a34751fd1c2269f9524b77ebfdebd4a8b_cgraph_org.svg" target="_base">
           <rect id="button" ry="5" rx="5" y="6" x="6" height="38" width="38"
                fill="#f2f5e9" fill-opacity="0.5" stroke="#606060" stroke-width="1.0"/>
           <path id="arrow"
             d="M 11.500037,31.436501 C 11.940474,20.09759 22.043105,11.32322 32.158766,21.979434 L 37.068811,17.246167 C 37.068811,17.246167 37.088388,32 37.088388,32 L 22.160133,31.978069 C 22.160133,31.978069 26.997745,27.140456 26.997745,27.140456 C 18.528582,18.264221 13.291696,25.230495 11.500037,31.436501 z"
             style="fill:#404040;"/>
          </a>
         </g>
        </svg>
</svg>
