<?xml version="1.0" encoding="UTF-8" standalone="no"?>
<!DOCTYPE svg PUBLIC "-//W3C//DTD SVG 1.1//EN"
 "http://www.w3.org/Graphics/SVG/1.1/DTD/svg11.dtd">
<!-- Generated by graphviz version 2.38.0 (20140413.2041)
 -->
<!-- Title: arwStartRunningStereo Pages: 1 -->
<!--zoomable 1054 -->
<svg id="main" version="1.1" xmlns="http://www.w3.org/2000/svg" xmlns:xlink="http://www.w3.org/1999/xlink" xml:space="preserve" onload="init(evt)">
<style type="text/css"><![CDATA[
.edge:hover path { stroke: red; }
.edge:hover polygon { stroke: red; fill: red; }
]]></style>
<script type="text/javascript"><![CDATA[
var edges = document.getElementsByTagName('g');
if (edges && edges.length) {
  for (var i=0;i<edges.length;i++) {
    if (edges[i].id.substr(0,4)=='edge') {
      edges[i].setAttribute('class','edge');
    }
  }
}
]]></script>
        <defs>
                <circle id="rim" cx="0" cy="0" r="7"/>
                <circle id="rim2" cx="0" cy="0" r="3.5"/>
                <g id="zoomPlus">
                        <use xlink:href="#rim" fill="#404040">
                                <set attributeName="fill" to="#808080" begin="zoomplus.mouseover" end="zoomplus.mouseout"/>
                        </use>
                        <path d="M-4,0h8M0,-4v8" fill="none" stroke="white" stroke-width="1.5" pointer-events="none"/>
                </g>
                <g id="zoomMin">
                        <use xlink:href="#rim" fill="#404040">
                                <set attributeName="fill" to="#808080" begin="zoomminus.mouseover" end="zoomminus.mouseout"/>
                        </use>
                        <path d="M-4,0h8" fill="none" stroke="white" stroke-width="1.5" pointer-events="none"/>
                </g>
                <g id="dirArrow">
                        <path fill="none" stroke="white" stroke-width="1.5" d="M0,-3.0v7 M-2.5,-0.5L0,-3.0L2.5,-0.5"/>
                </g>
               <g id="resetDef">
                       <use xlink:href="#rim2" fill="#404040">
                               <set attributeName="fill" to="#808080" begin="reset.mouseover" end="reset.mouseout"/>
                       </use>
               </g>
        </defs>

<script type="text/javascript">
var viewWidth = 863;
var viewHeight = 1054;
var sectionId = 'dynsection-41';
</script>
<script xlink:href="svgpan.js"/>
<svg id="graph" class="graph">
<g id="viewport">
<title>arwStartRunningStereo</title>
<polygon fill="white" stroke="none" points="-4,4 -4,-1050 859,-1050 859,4 -4,4"/>
<!-- Node1 -->
<g id="node1" class="node"><title>Node1</title>
<polygon fill="#bfbfbf" stroke="black" points="0,-519.5 0,-538.5 118,-538.5 118,-519.5 0,-519.5"/>
<text text-anchor="middle" x="59" y="-526.5" font-family="Helvetica,sans-Serif" font-size="10.00">arwStartRunningStereo</text>
</g>
<!-- Node2 -->
<g id="node2" class="node"><title>Node2</title>
<g id="a_node2"><a xlink:href="class_a_r_controller.html#ab63641c43919f8297ba38a0ee9ce3253" target="_top" xlink:title="ARController::setProjection\lNearPlane">
<polygon fill="white" stroke="black" points="154,-563 154,-593 290,-593 290,-563 154,-563"/>
<text text-anchor="start" x="162" y="-581" font-family="Helvetica,sans-Serif" font-size="10.00">ARController::setProjection</text>
<text text-anchor="middle" x="222" y="-570" font-family="Helvetica,sans-Serif" font-size="10.00">NearPlane</text>
</a>
</g>
</g>
<!-- Node1&#45;&gt;Node2 -->
<g id="edge1" class="edge"><title>Node1&#45;&gt;Node2</title>
<path fill="none" stroke="midnightblue" d="M91.4246,-538.564C111.452,-544.659 138.032,-552.749 161.904,-560.014"/>
<polygon fill="midnightblue" stroke="midnightblue" points="161.007,-563.4 171.593,-562.963 163.045,-556.703 161.007,-563.4"/>
</g>
<!-- Node4 -->
<g id="node4" class="node"><title>Node4</title>
<g id="a_node4"><a xlink:href="class_a_r_controller.html#a15aa6c50cd138d4131bbed2517498927" target="_top" xlink:title="ARController::setProjection\lFarPlane">
<polygon fill="white" stroke="black" points="154,-514 154,-544 290,-544 290,-514 154,-514"/>
<text text-anchor="start" x="162" y="-532" font-family="Helvetica,sans-Serif" font-size="10.00">ARController::setProjection</text>
<text text-anchor="middle" x="222" y="-521" font-family="Helvetica,sans-Serif" font-size="10.00">FarPlane</text>
</a>
</g>
</g>
<!-- Node1&#45;&gt;Node4 -->
<g id="edge3" class="edge"><title>Node1&#45;&gt;Node4</title>
<path fill="none" stroke="midnightblue" d="M118.125,-529C126.476,-529 135.176,-529 143.825,-529"/>
<polygon fill="midnightblue" stroke="midnightblue" points="143.931,-532.5 153.931,-529 143.931,-525.5 143.931,-532.5"/>
</g>
<!-- Node6 -->
<g id="node6" class="node"><title>Node6</title>
<g id="a_node6"><a xlink:href="class_a_r_controller.html#abd0732b11285bc113134d1b891a361f2" target="_top" xlink:title="Start stereo video capture and marker detection. ">
<polygon fill="white" stroke="black" points="155,-375 155,-405 289,-405 289,-375 155,-375"/>
<text text-anchor="start" x="163" y="-393" font-family="Helvetica,sans-Serif" font-size="10.00">ARController::startRunning</text>
<text text-anchor="middle" x="222" y="-382" font-family="Helvetica,sans-Serif" font-size="10.00">Stereo</text>
</a>
</g>
</g>
<!-- Node1&#45;&gt;Node6 -->
<g id="edge5" class="edge"><title>Node1&#45;&gt;Node6</title>
<path fill="none" stroke="midnightblue" d="M71.0662,-519.446C96.5196,-497.471 159.768,-442.865 195.452,-412.057"/>
<polygon fill="midnightblue" stroke="midnightblue" points="198.188,-414.319 203.47,-405.135 193.613,-409.021 198.188,-414.319"/>
</g>
<!-- Node3 -->
<g id="node3" class="node"><title>Node3</title>
<g id="a_node3"><a xlink:href="class_a_r_controller.html#a6107f783d52887d655bd571ac906421c" target="_top" xlink:title="ARController::projection\lNearPlane">
<polygon fill="white" stroke="black" points="334.5,-563 334.5,-593 455.5,-593 455.5,-563 334.5,-563"/>
<text text-anchor="start" x="342.5" y="-581" font-family="Helvetica,sans-Serif" font-size="10.00">ARController::projection</text>
<text text-anchor="middle" x="395" y="-570" font-family="Helvetica,sans-Serif" font-size="10.00">NearPlane</text>
</a>
</g>
</g>
<!-- Node2&#45;&gt;Node3 -->
<g id="edge2" class="edge"><title>Node2&#45;&gt;Node3</title>
<path fill="none" stroke="midnightblue" d="M290.093,-578C301.268,-578 312.884,-578 324.127,-578"/>
<polygon fill="midnightblue" stroke="midnightblue" points="324.324,-581.5 334.324,-578 324.324,-574.5 324.324,-581.5"/>
</g>
<!-- Node5 -->
<g id="node5" class="node"><title>Node5</title>
<g id="a_node5"><a xlink:href="class_a_r_controller.html#a290ba1cd38c6a7e38104af03cfe33c88" target="_top" xlink:title="ARController::projection\lFarPlane">
<polygon fill="white" stroke="black" points="334.5,-514 334.5,-544 455.5,-544 455.5,-514 334.5,-514"/>
<text text-anchor="start" x="342.5" y="-532" font-family="Helvetica,sans-Serif" font-size="10.00">ARController::projection</text>
<text text-anchor="middle" x="395" y="-521" font-family="Helvetica,sans-Serif" font-size="10.00">FarPlane</text>
</a>
</g>
</g>
<!-- Node4&#45;&gt;Node5 -->
<g id="edge4" class="edge"><title>Node4&#45;&gt;Node5</title>
<path fill="none" stroke="midnightblue" d="M290.093,-529C301.268,-529 312.884,-529 324.127,-529"/>
<polygon fill="midnightblue" stroke="midnightblue" points="324.324,-532.5 334.324,-529 324.324,-525.5 324.324,-532.5"/>
</g>
<!-- Node7 -->
<g id="node7" class="node"><title>Node7</title>
<g id="a_node7"><a xlink:href="class_a_r_controller.html#a6e45b81b71ac241dbb8fb2327751910d" target="_top" xlink:title="ARController::setError">
<polygon fill="white" stroke="black" points="338.5,-475.5 338.5,-494.5 451.5,-494.5 451.5,-475.5 338.5,-475.5"/>
<text text-anchor="middle" x="395" y="-482.5" font-family="Helvetica,sans-Serif" font-size="10.00">ARController::setError</text>
</a>
</g>
</g>
<!-- Node6&#45;&gt;Node7 -->
<g id="edge6" class="edge"><title>Node6&#45;&gt;Node7</title>
<path fill="none" stroke="midnightblue" d="M239.598,-405.268C258.978,-422.339 292.648,-449.721 326,-466 330.699,-468.293 335.72,-470.35 340.825,-472.185"/>
<polygon fill="midnightblue" stroke="midnightblue" points="340.091,-475.629 350.684,-475.445 342.288,-468.983 340.091,-475.629"/>
</g>
<!-- Node8 -->
<g id="node8" class="node"><title>Node8</title>
<g id="a_node8"><a xlink:href="param_8h.html#a493e85cce36ae10cd5d536bdf918e284" target="_top" xlink:title="arParamLoadExt">
<polygon fill="white" stroke="black" points="350.5,-437.5 350.5,-456.5 439.5,-456.5 439.5,-437.5 350.5,-437.5"/>
<text text-anchor="middle" x="395" y="-444.5" font-family="Helvetica,sans-Serif" font-size="10.00">arParamLoadExt</text>
</a>
</g>
</g>
<!-- Node6&#45;&gt;Node8 -->
<g id="edge7" class="edge"><title>Node6&#45;&gt;Node8</title>
<path fill="none" stroke="midnightblue" d="M261.382,-405.001C280.647,-412.315 304.42,-421.017 326,-428 333.136,-430.309 340.745,-432.6 348.194,-434.749"/>
<polygon fill="midnightblue" stroke="midnightblue" points="347.265,-438.124 357.841,-437.482 349.174,-431.389 347.265,-438.124"/>
</g>
<!-- Node9 -->
<g id="node9" class="node"><title>Node9</title>
<g id="a_node9"><a xlink:href="param_8h.html#ae71e9b1fea9d1aaa587da849ba367047" target="_top" xlink:title="arParamLoadExtFromBuffer">
<polygon fill="white" stroke="black" points="326,-399.5 326,-418.5 464,-418.5 464,-399.5 326,-399.5"/>
<text text-anchor="middle" x="395" y="-406.5" font-family="Helvetica,sans-Serif" font-size="10.00">arParamLoadExtFromBuffer</text>
</a>
</g>
</g>
<!-- Node6&#45;&gt;Node9 -->
<g id="edge8" class="edge"><title>Node6&#45;&gt;Node9</title>
<path fill="none" stroke="midnightblue" d="M289.113,-397.346C297.853,-398.317 306.879,-399.32 315.798,-400.311"/>
<polygon fill="midnightblue" stroke="midnightblue" points="315.477,-403.797 325.802,-401.422 316.25,-396.839 315.477,-403.797"/>
</g>
<!-- Node10 -->
<g id="node10" class="node"><title>Node10</title>
<g id="a_node10"><a xlink:href="param_8h.html#a753537ffe3630e6c8691d65afe150911" target="_top" xlink:title="arParamDispExt">
<polygon fill="white" stroke="black" points="350.5,-361.5 350.5,-380.5 439.5,-380.5 439.5,-361.5 350.5,-361.5"/>
<text text-anchor="middle" x="395" y="-368.5" font-family="Helvetica,sans-Serif" font-size="10.00">arParamDispExt</text>
</a>
</g>
</g>
<!-- Node6&#45;&gt;Node10 -->
<g id="edge9" class="edge"><title>Node6&#45;&gt;Node10</title>
<path fill="none" stroke="midnightblue" d="M289.113,-382.654C305.997,-380.778 323.946,-378.784 340.133,-376.985"/>
<polygon fill="midnightblue" stroke="midnightblue" points="340.935,-380.418 350.487,-375.835 340.162,-373.461 340.935,-380.418"/>
</g>
<!-- Node11 -->
<g id="node11" class="node"><title>Node11</title>
<g id="a_node11"><a xlink:href="class_a_r_video_source.html#aa385c7136b3d45c6efaa6604bf0a6d9a" target="_top" xlink:title="Sets initial parameters which will be used when the video source is opened. ">
<polygon fill="white" stroke="black" points="329,-323.5 329,-342.5 461,-342.5 461,-323.5 329,-323.5"/>
<text text-anchor="middle" x="395" y="-330.5" font-family="Helvetica,sans-Serif" font-size="10.00">ARVideoSource::configure</text>
</a>
</g>
</g>
<!-- Node6&#45;&gt;Node11 -->
<g id="edge10" class="edge"><title>Node6&#45;&gt;Node11</title>
<path fill="none" stroke="midnightblue" d="M261.382,-374.999C280.647,-367.685 304.42,-358.983 326,-352 333.136,-349.691 340.745,-347.4 348.194,-345.251"/>
<polygon fill="midnightblue" stroke="midnightblue" points="349.174,-348.611 357.841,-342.518 347.265,-341.876 349.174,-348.611"/>
</g>
<!-- Node12 -->
<g id="node12" class="node"><title>Node12</title>
<g id="a_node12"><a xlink:href="class_a_r_video_source.html#ad6e81f0a07ddf8e844dfb867bc94de4b" target="_top" xlink:title="Opens the video source. ">
<polygon fill="white" stroke="black" points="338.5,-285.5 338.5,-304.5 451.5,-304.5 451.5,-285.5 338.5,-285.5"/>
<text text-anchor="middle" x="395" y="-292.5" font-family="Helvetica,sans-Serif" font-size="10.00">ARVideoSource::open</text>
</a>
</g>
</g>
<!-- Node6&#45;&gt;Node12 -->
<g id="edge11" class="edge"><title>Node6&#45;&gt;Node12</title>
<path fill="none" stroke="midnightblue" d="M239.598,-374.732C258.978,-357.661 292.648,-330.279 326,-314 330.699,-311.707 335.72,-309.65 340.825,-307.815"/>
<polygon fill="midnightblue" stroke="midnightblue" points="342.288,-311.017 350.684,-304.555 340.091,-304.371 342.288,-311.017"/>
</g>
<!-- Node50 -->
<g id="node50" class="node"><title>Node50</title>
<g id="a_node50"><a xlink:href="class_a_r_video_source.html#a1d4e4cebdf413918427c39aa99a197cc" target="_top" xlink:title="ARVideoSource::getError">
<polygon fill="white" stroke="black" points="331.5,-247.5 331.5,-266.5 458.5,-266.5 458.5,-247.5 331.5,-247.5"/>
<text text-anchor="middle" x="395" y="-254.5" font-family="Helvetica,sans-Serif" font-size="10.00">ARVideoSource::getError</text>
</a>
</g>
</g>
<!-- Node6&#45;&gt;Node50 -->
<g id="edge49" class="edge"><title>Node6&#45;&gt;Node50</title>
<path fill="none" stroke="midnightblue" d="M232.429,-374.948C248.557,-350.46 283.815,-302.112 326,-276 329.42,-273.883 333.08,-271.997 336.863,-270.317"/>
<polygon fill="midnightblue" stroke="midnightblue" points="338.424,-273.464 346.452,-266.551 335.865,-266.949 338.424,-273.464"/>
</g>
<!-- Node13 -->
<g id="node13" class="node"><title>Node13</title>
<g id="a_node13"><a xlink:href="video_8h.html#a6627f0eff034d0a9d8d3400648f90efd" target="_top" xlink:title="ar2VideoOpenAsync">
<polygon fill="white" stroke="black" points="514,-988.5 514,-1007.5 620,-1007.5 620,-988.5 514,-988.5"/>
<text text-anchor="middle" x="567" y="-995.5" font-family="Helvetica,sans-Serif" font-size="10.00">ar2VideoOpenAsync</text>
</a>
</g>
</g>
<!-- Node12&#45;&gt;Node13 -->
<g id="edge12" class="edge"><title>Node12&#45;&gt;Node13</title>
<path fill="none" stroke="midnightblue" d="M451.681,-303.886C456.369,-306.497 460.606,-309.809 464,-314 503.938,-363.316 481.614,-823.262 500,-884 511.189,-920.964 536.337,-958.769 552.158,-980.219"/>
<polygon fill="midnightblue" stroke="midnightblue" points="549.483,-982.485 558.299,-988.361 555.071,-978.27 549.483,-982.485"/>
</g>
<!-- Node16 -->
<g id="node16" class="node"><title>Node16</title>
<g id="a_node16"><a xlink:href="video_8h.html#a6e7d521b174901d784ce04190fccc9d9" target="_top" xlink:title="ar2VideoOpen">
<polygon fill="white" stroke="black" points="528,-855.5 528,-874.5 606,-874.5 606,-855.5 528,-855.5"/>
<text text-anchor="middle" x="567" y="-862.5" font-family="Helvetica,sans-Serif" font-size="10.00">ar2VideoOpen</text>
</a>
</g>
</g>
<!-- Node12&#45;&gt;Node16 -->
<g id="edge15" class="edge"><title>Node12&#45;&gt;Node16</title>
<path fill="none" stroke="midnightblue" d="M451.525,-304.014C456.244,-306.6 460.53,-309.871 464,-314 515.867,-375.721 482.653,-596.268 500,-675 514.17,-739.312 543.28,-811.982 557.629,-845.793"/>
<polygon fill="midnightblue" stroke="midnightblue" points="554.569,-847.538 561.731,-855.346 561.001,-844.776 554.569,-847.538"/>
</g>
<!-- Node22 -->
<g id="node22" class="node"><title>Node22</title>
<g id="a_node22"><a xlink:href="video_8h.html#ae1b2a07ba0242e961598ef0c617aa610" target="_top" xlink:title="ar2VideoGetSize">
<polygon fill="white" stroke="black" points="522,-646.5 522,-665.5 612,-665.5 612,-646.5 522,-646.5"/>
<text text-anchor="middle" x="567" y="-653.5" font-family="Helvetica,sans-Serif" font-size="10.00">ar2VideoGetSize</text>
</a>
</g>
</g>
<!-- Node12&#45;&gt;Node22 -->
<g id="edge21" class="edge"><title>Node12&#45;&gt;Node22</title>
<path fill="none" stroke="midnightblue" d="M451.485,-304.509C456.149,-307.003 460.435,-310.118 464,-314 522.13,-377.307 474.728,-421.853 500,-504 515.294,-553.714 541.905,-609.022 556.219,-637.226"/>
<polygon fill="midnightblue" stroke="midnightblue" points="553.212,-639.032 560.893,-646.33 559.439,-635.836 553.212,-639.032"/>
</g>
<!-- Node29 -->
<g id="node29" class="node"><title>Node29</title>
<g id="a_node29"><a xlink:href="class_a_r_video_source.html#ae67083e64b2b3c6d7aa6d8cbe33ef95f" target="_top" xlink:title="Closes the video source. ">
<polygon fill="white" stroke="black" points="509,-475.5 509,-494.5 625,-494.5 625,-475.5 509,-475.5"/>
<text text-anchor="middle" x="567" y="-482.5" font-family="Helvetica,sans-Serif" font-size="10.00">ARVideoSource::close</text>
</a>
</g>
</g>
<!-- Node12&#45;&gt;Node29 -->
<g id="edge28" class="edge"><title>Node12&#45;&gt;Node29</title>
<path fill="none" stroke="midnightblue" d="M450.85,-304.631C455.7,-307.097 460.202,-310.171 464,-314 507.126,-357.477 462.63,-398.486 500,-447 507.816,-457.147 519.168,-465.056 530.261,-470.968"/>
<polygon fill="midnightblue" stroke="midnightblue" points="528.914,-474.206 539.434,-475.469 531.998,-467.922 528.914,-474.206"/>
</g>
<!-- Node33 -->
<g id="node33" class="node"><title>Node33</title>
<g id="a_node33"><a xlink:href="video_8h.html#ac87cc80e94e3e4d1dbe0da408d4f2d28" target="_top" xlink:title="ar2VideoGetPixelFormat">
<polygon fill="white" stroke="red" points="505.5,-418.5 505.5,-437.5 628.5,-437.5 628.5,-418.5 505.5,-418.5"/>
<text text-anchor="middle" x="567" y="-425.5" font-family="Helvetica,sans-Serif" font-size="10.00">ar2VideoGetPixelFormat</text>
</a>
</g>
</g>
<!-- Node12&#45;&gt;Node33 -->
<g id="edge32" class="edge"><title>Node12&#45;&gt;Node33</title>
<path fill="none" stroke="midnightblue" d="M449.463,-304.542C454.765,-307.013 459.748,-310.113 464,-314 497.328,-344.463 466.792,-378.407 500,-409 501.71,-410.575 503.543,-412.021 505.469,-413.348"/>
<polygon fill="midnightblue" stroke="midnightblue" points="504.003,-416.54 514.427,-418.433 507.459,-410.453 504.003,-416.54"/>
</g>
<!-- Node39 -->
<g id="node39" class="node"><title>Node39</title>
<g id="a_node39"><a xlink:href="ar_util_8c.html#a97d737ba2827a9edfd10deefb3ce03b4" target="_top" xlink:title="Get the size in bytes of a single pixel for a given pixel format. ">
<polygon fill="white" stroke="black" points="518.5,-380.5 518.5,-399.5 615.5,-399.5 615.5,-380.5 518.5,-380.5"/>
<text text-anchor="middle" x="567" y="-387.5" font-family="Helvetica,sans-Serif" font-size="10.00">arUtilGetPixelSize</text>
</a>
</g>
</g>
<!-- Node12&#45;&gt;Node39 -->
<g id="edge38" class="edge"><title>Node12&#45;&gt;Node39</title>
<path fill="none" stroke="midnightblue" d="M446.633,-304.576C452.821,-307.033 458.789,-310.12 464,-314 488.034,-331.893 476.037,-353.013 500,-371 502.803,-373.104 505.832,-374.975 508.998,-376.639"/>
<polygon fill="midnightblue" stroke="midnightblue" points="507.658,-379.874 518.213,-380.803 510.541,-373.495 507.658,-379.874"/>
</g>
<!-- Node40 -->
<g id="node40" class="node"><title>Node40</title>
<g id="a_node40"><a xlink:href="ar_util_8c.html#a6fc7ced3a5cee590c5e9f0166b83a6d7" target="_top" xlink:title="Get a string holding a descriptive name for a given pixel format enumeration. ">
<polygon fill="white" stroke="black" points="500,-342.5 500,-361.5 634,-361.5 634,-342.5 500,-342.5"/>
<text text-anchor="middle" x="567" y="-349.5" font-family="Helvetica,sans-Serif" font-size="10.00">arUtilGetPixelFormatName</text>
</a>
</g>
</g>
<!-- Node12&#45;&gt;Node40 -->
<g id="edge39" class="edge"><title>Node12&#45;&gt;Node40</title>
<path fill="none" stroke="midnightblue" d="M435.668,-304.55C445.084,-307.236 455.004,-310.417 464,-314 480.808,-320.694 483.219,-326.24 500,-333 505.806,-335.339 512.007,-337.518 518.196,-339.504"/>
<polygon fill="midnightblue" stroke="midnightblue" points="517.267,-342.88 527.854,-342.461 519.317,-336.186 517.267,-342.88"/>
</g>
<!-- Node41 -->
<g id="node41" class="node"><title>Node41</title>
<g id="a_node41"><a xlink:href="video_8h.html#ad451f2f35435194d472527896775efce" target="_top" xlink:title="ar2VideoSetParami">
<polygon fill="white" stroke="red" points="516.5,-304.5 516.5,-323.5 617.5,-323.5 617.5,-304.5 516.5,-304.5"/>
<text text-anchor="middle" x="567" y="-311.5" font-family="Helvetica,sans-Serif" font-size="10.00">ar2VideoSetParami</text>
</a>
</g>
</g>
<!-- Node12&#45;&gt;Node41 -->
<g id="edge40" class="edge"><title>Node12&#45;&gt;Node41</title>
<path fill="none" stroke="midnightblue" d="M451.664,-301.221C469.068,-303.166 488.342,-305.321 506.028,-307.297"/>
<polygon fill="midnightblue" stroke="midnightblue" points="505.906,-310.805 516.233,-308.438 506.683,-303.849 505.906,-310.805"/>
</g>
<!-- Node42 -->
<g id="node42" class="node"><title>Node42</title>
<g id="a_node42"><a xlink:href="param_8h.html#ab1e71efe8de44e7480414a7ed251d0c7" target="_top" xlink:title="Load lens parameters from a buffer. ">
<polygon fill="white" stroke="black" points="505.5,-266.5 505.5,-285.5 628.5,-285.5 628.5,-266.5 505.5,-266.5"/>
<text text-anchor="middle" x="567" y="-273.5" font-family="Helvetica,sans-Serif" font-size="10.00">arParamLoadFromBuffer</text>
</a>
</g>
</g>
<!-- Node12&#45;&gt;Node42 -->
<g id="edge41" class="edge"><title>Node12&#45;&gt;Node42</title>
<path fill="none" stroke="midnightblue" d="M451.664,-288.779C465.59,-287.222 480.714,-285.532 495.263,-283.906"/>
<polygon fill="midnightblue" stroke="midnightblue" points="495.673,-287.382 505.222,-282.793 494.896,-280.425 495.673,-287.382"/>
</g>
<!-- Node43 -->
<g id="node43" class="node"><title>Node43</title>
<g id="a_node43"><a xlink:href="param_8h.html#a09b936765527cf0b1cbf5636d8757ff2" target="_top" xlink:title="Load lens parameters from a file. ">
<polygon fill="white" stroke="black" points="530,-228.5 530,-247.5 604,-247.5 604,-228.5 530,-228.5"/>
<text text-anchor="middle" x="567" y="-235.5" font-family="Helvetica,sans-Serif" font-size="10.00">arParamLoad</text>
</a>
</g>
</g>
<!-- Node12&#45;&gt;Node43 -->
<g id="edge42" class="edge"><title>Node12&#45;&gt;Node43</title>
<path fill="none" stroke="midnightblue" d="M435.668,-285.45C445.084,-282.764 455.004,-279.583 464,-276 480.808,-269.306 483.219,-263.76 500,-257 506.391,-254.426 513.259,-252.045 520.063,-249.903"/>
<polygon fill="midnightblue" stroke="midnightblue" points="521.355,-253.169 529.924,-246.939 519.34,-246.466 521.355,-253.169"/>
</g>
<!-- Node44 -->
<g id="node44" class="node"><title>Node44</title>
<g id="a_node44"><a xlink:href="video_8h.html#addbe89926372af707da389a5cc378851" target="_top" xlink:title="ar2VideoGetCParam">
<polygon fill="white" stroke="red" points="513.5,-190.5 513.5,-209.5 620.5,-209.5 620.5,-190.5 513.5,-190.5"/>
<text text-anchor="middle" x="567" y="-197.5" font-family="Helvetica,sans-Serif" font-size="10.00">ar2VideoGetCParam</text>
</a>
</g>
</g>
<!-- Node12&#45;&gt;Node44 -->
<g id="edge43" class="edge"><title>Node12&#45;&gt;Node44</title>
<path fill="none" stroke="midnightblue" d="M446.633,-285.424C452.821,-282.967 458.789,-279.88 464,-276 488.034,-258.107 476.037,-236.987 500,-219 502.494,-217.128 505.168,-215.44 507.958,-213.918"/>
<polygon fill="midnightblue" stroke="midnightblue" points="509.614,-217.007 517.19,-209.601 506.649,-210.667 509.614,-217.007"/>
</g>
<!-- Node45 -->
<g id="node45" class="node"><title>Node45</title>
<g id="a_node45"><a xlink:href="video_8h.html#af35776b8b32d15e9ffd64049023c756a" target="_top" xlink:title="ar2VideoGetCParamAsync">
<polygon fill="white" stroke="red" points="500,-152.5 500,-171.5 634,-171.5 634,-152.5 500,-152.5"/>
<text text-anchor="middle" x="567" y="-159.5" font-family="Helvetica,sans-Serif" font-size="10.00">ar2VideoGetCParamAsync</text>
</a>
</g>
</g>
<!-- Node12&#45;&gt;Node45 -->
<g id="edge44" class="edge"><title>Node12&#45;&gt;Node45</title>
<path fill="none" stroke="midnightblue" d="M449.463,-285.458C454.765,-282.987 459.748,-279.887 464,-276 497.328,-245.537 466.792,-211.593 500,-181 501.71,-179.425 503.543,-177.979 505.469,-176.652"/>
<polygon fill="midnightblue" stroke="midnightblue" points="507.459,-179.547 514.427,-171.567 504.003,-173.46 507.459,-179.547"/>
</g>
<!-- Node46 -->
<g id="node46" class="node"><title>Node46</title>
<g id="a_node46"><a xlink:href="param_8h.html#ac81e706468fee3150d5b2413ec743fae" target="_top" xlink:title="Create a camera parameter structure representing an idealised lens with specified field&#45;of&#45;view...">
<polygon fill="white" stroke="black" points="506,-114.5 506,-133.5 628,-133.5 628,-114.5 506,-114.5"/>
<text text-anchor="middle" x="567" y="-121.5" font-family="Helvetica,sans-Serif" font-size="10.00">arParamClearWithFOVy</text>
</a>
</g>
</g>
<!-- Node12&#45;&gt;Node46 -->
<g id="edge45" class="edge"><title>Node12&#45;&gt;Node46</title>
<path fill="none" stroke="midnightblue" d="M450.85,-285.369C455.7,-282.903 460.202,-279.829 464,-276 507.126,-232.523 457.045,-186.646 500,-143 501.411,-141.566 502.923,-140.238 504.517,-139.009"/>
<polygon fill="midnightblue" stroke="midnightblue" points="506.455,-141.926 513.072,-133.651 502.739,-135.993 506.455,-141.926"/>
</g>
<!-- Node47 -->
<g id="node47" class="node"><title>Node47</title>
<g id="a_node47"><a xlink:href="param_8h.html#aad3ef0e0fba8944c501a2819e1e99ad9" target="_top" xlink:title="arParamChangeSize">
<polygon fill="white" stroke="black" points="513.5,-76.5 513.5,-95.5 620.5,-95.5 620.5,-76.5 513.5,-76.5"/>
<text text-anchor="middle" x="567" y="-83.5" font-family="Helvetica,sans-Serif" font-size="10.00">arParamChangeSize</text>
</a>
</g>
</g>
<!-- Node12&#45;&gt;Node47 -->
<g id="edge46" class="edge"><title>Node12&#45;&gt;Node47</title>
<path fill="none" stroke="midnightblue" d="M451.404,-285.416C456.084,-282.936 460.396,-279.846 464,-276 517.106,-219.327 447.117,-161.88 500,-105 501.431,-103.461 502.978,-102.044 504.618,-100.739"/>
<polygon fill="midnightblue" stroke="midnightblue" points="506.921,-103.422 513.487,-95.1071 503.169,-97.5126 506.921,-103.422"/>
</g>
<!-- Node48 -->
<g id="node48" class="node"><title>Node48</title>
<g id="a_node48"><a xlink:href="param_8h.html#a16b30d02f6542af9f7cd0b12a9e56dde" target="_top" xlink:title="Allocate and calculate a lookup&#45;table camera parameter from a standard camera parameter. ">
<polygon fill="white" stroke="red" points="520,-38.5 520,-57.5 614,-57.5 614,-38.5 520,-38.5"/>
<text text-anchor="middle" x="567" y="-45.5" font-family="Helvetica,sans-Serif" font-size="10.00">arParamLTCreate</text>
</a>
</g>
</g>
<!-- Node12&#45;&gt;Node48 -->
<g id="edge47" class="edge"><title>Node12&#45;&gt;Node48</title>
<path fill="none" stroke="midnightblue" d="M451.553,-285.553C456.203,-283.046 460.468,-279.912 464,-276 527.169,-206.043 437.105,-137.204 500,-67 503.082,-63.56 506.742,-60.726 510.735,-58.3934"/>
<polygon fill="midnightblue" stroke="midnightblue" points="512.373,-61.4905 519.913,-54.0472 509.377,-55.164 512.373,-61.4905"/>
</g>
<!-- Node49 -->
<g id="node49" class="node"><title>Node49</title>
<g id="a_node49"><a xlink:href="video_8h.html#a5a0834041e696e10609994bfdf089981" target="_top" xlink:title="ar2VideoCapStart">
<polygon fill="white" stroke="red" points="520,-0.5 520,-19.5 614,-19.5 614,-0.5 520,-0.5"/>
<text text-anchor="middle" x="567" y="-7.5" font-family="Helvetica,sans-Serif" font-size="10.00">ar2VideoCapStart</text>
</a>
</g>
</g>
<!-- Node12&#45;&gt;Node49 -->
<g id="edge48" class="edge"><title>Node12&#45;&gt;Node49</title>
<path fill="none" stroke="midnightblue" d="M451.658,-285.647C456.288,-283.121 460.518,-279.957 464,-276 537.278,-192.709 427.049,-112.578 500,-29 503.037,-25.5205 506.666,-22.6589 510.638,-20.308"/>
<polygon fill="midnightblue" stroke="midnightblue" points="512.273,-23.4058 519.786,-15.9354 509.255,-17.0902 512.273,-23.4058"/>
</g>
<!-- Node14 -->
<g id="node14" class="node"><title>Node14</title>
<g id="a_node14"><a xlink:href="video_a_v_foundation_8h.html#aeeda53e796311199493f4acdaa075e3c" target="_top" xlink:title="ar2VideoOpenAsyncAVFoundation">
<polygon fill="white" stroke="black" points="679,-1026.5 679,-1045.5 846,-1045.5 846,-1026.5 679,-1026.5"/>
<text text-anchor="middle" x="762.5" y="-1033.5" font-family="Helvetica,sans-Serif" font-size="10.00">ar2VideoOpenAsyncAVFoundation</text>
</a>
</g>
</g>
<!-- Node13&#45;&gt;Node14 -->
<g id="edge13" class="edge"><title>Node13&#45;&gt;Node14</title>
<path fill="none" stroke="midnightblue" d="M616.828,-1007.59C643.053,-1012.74 675.562,-1019.12 703.116,-1024.53"/>
<polygon fill="midnightblue" stroke="midnightblue" points="702.536,-1027.99 713.023,-1026.48 703.885,-1021.12 702.536,-1027.99"/>
</g>
<!-- Node15 -->
<g id="node15" class="node"><title>Node15</title>
<g id="a_node15"><a xlink:href="video_android_8h.html#aa38cb37e30ae2fdfc4ee16dfb3662f83" target="_top" xlink:title="ar2VideoOpenAsyncAndroid">
<polygon fill="white" stroke="black" points="693,-988.5 693,-1007.5 832,-1007.5 832,-988.5 693,-988.5"/>
<text text-anchor="middle" x="762.5" y="-995.5" font-family="Helvetica,sans-Serif" font-size="10.00">ar2VideoOpenAsyncAndroid</text>
</a>
</g>
</g>
<!-- Node13&#45;&gt;Node15 -->
<g id="edge14" class="edge"><title>Node13&#45;&gt;Node15</title>
<path fill="none" stroke="midnightblue" d="M620.109,-998C639.348,-998 661.604,-998 682.683,-998"/>
<polygon fill="midnightblue" stroke="midnightblue" points="682.917,-1001.5 692.917,-998 682.917,-994.5 682.917,-1001.5"/>
</g>
<!-- Node17 -->
<g id="node17" class="node"><title>Node17</title>
<g id="a_node17"><a xlink:href="video_dummy_8h.html#a97c9c62563dbaa2d1c32d6f7ffd6186c" target="_top" xlink:title="ar2VideoOpenDummy">
<polygon fill="white" stroke="black" points="706,-950.5 706,-969.5 819,-969.5 819,-950.5 706,-950.5"/>
<text text-anchor="middle" x="762.5" y="-957.5" font-family="Helvetica,sans-Serif" font-size="10.00">ar2VideoOpenDummy</text>
</a>
</g>
</g>
<!-- Node16&#45;&gt;Node17 -->
<g id="edge16" class="edge"><title>Node16&#45;&gt;Node17</title>
<path fill="none" stroke="midnightblue" d="M577.752,-874.634C594.875,-890.968 632.135,-923.975 670,-941 678.063,-944.626 686.84,-947.569 695.66,-949.955"/>
<polygon fill="midnightblue" stroke="midnightblue" points="695.054,-953.411 705.602,-952.42 696.738,-946.616 695.054,-953.411"/>
</g>
<!-- Node18 -->
<g id="node18" class="node"><title>Node18</title>
<g id="a_node18"><a xlink:href="video_v4_l2_8h.html#a65f46b5acf507e11f1e398983f654b01" target="_top" xlink:title="ar2VideoOpenV4L2">
<polygon fill="white" stroke="black" points="712,-912.5 712,-931.5 813,-931.5 813,-912.5 712,-912.5"/>
<text text-anchor="middle" x="762.5" y="-919.5" font-family="Helvetica,sans-Serif" font-size="10.00">ar2VideoOpenV4L2</text>
</a>
</g>
</g>
<!-- Node16&#45;&gt;Node18 -->
<g id="edge17" class="edge"><title>Node16&#45;&gt;Node18</title>
<path fill="none" stroke="midnightblue" d="M590.757,-874.615C611.211,-882.982 642.219,-894.991 670,-903 680.16,-905.929 691.077,-908.598 701.707,-910.95"/>
<polygon fill="midnightblue" stroke="midnightblue" points="701.266,-914.435 711.777,-913.105 702.731,-907.59 701.266,-914.435"/>
</g>
<!-- Node19 -->
<g id="node19" class="node"><title>Node19</title>
<g id="a_node19"><a xlink:href="video1394_8h.html#a415d8d6e136b1d6481aab6df1327d38b" target="_top" xlink:title="ar2VideoOpen1394">
<polygon fill="white" stroke="black" points="713,-874.5 713,-893.5 812,-893.5 812,-874.5 713,-874.5"/>
<text text-anchor="middle" x="762.5" y="-881.5" font-family="Helvetica,sans-Serif" font-size="10.00">ar2VideoOpen1394</text>
</a>
</g>
</g>
<!-- Node16&#45;&gt;Node19 -->
<g id="edge18" class="edge"><title>Node16&#45;&gt;Node19</title>
<path fill="none" stroke="midnightblue" d="M606.229,-868.754C633.64,-871.445 671.088,-875.122 702.34,-878.191"/>
<polygon fill="midnightblue" stroke="midnightblue" points="702.383,-881.712 712.678,-879.206 703.068,-874.746 702.383,-881.712"/>
</g>
<!-- Node20 -->
<g id="node20" class="node"><title>Node20</title>
<g id="a_node20"><a xlink:href="video_a_v_foundation_8h.html#ad5a12bb05d89e8876b3d92334935ebd8" target="_top" xlink:title="ar2VideoOpenAVFoundation">
<polygon fill="white" stroke="black" points="692.5,-836.5 692.5,-855.5 832.5,-855.5 832.5,-836.5 692.5,-836.5"/>
<text text-anchor="middle" x="762.5" y="-843.5" font-family="Helvetica,sans-Serif" font-size="10.00">ar2VideoOpenAVFoundation</text>
</a>
</g>
</g>
<!-- Node16&#45;&gt;Node20 -->
<g id="edge19" class="edge"><title>Node16&#45;&gt;Node20</title>
<path fill="none" stroke="midnightblue" d="M606.229,-861.246C628.008,-859.108 656.124,-856.347 682.434,-853.764"/>
<polygon fill="midnightblue" stroke="midnightblue" points="682.802,-857.244 692.413,-852.784 682.118,-850.278 682.802,-857.244"/>
</g>
<!-- Node21 -->
<g id="node21" class="node"><title>Node21</title>
<g id="a_node21"><a xlink:href="video_image_8h.html#a15ea74b900729dfd225554e9862871f1" target="_top" xlink:title="ar2VideoOpenImage">
<polygon fill="white" stroke="black" points="710,-798.5 710,-817.5 815,-817.5 815,-798.5 710,-798.5"/>
<text text-anchor="middle" x="762.5" y="-805.5" font-family="Helvetica,sans-Serif" font-size="10.00">ar2VideoOpenImage</text>
</a>
</g>
</g>
<!-- Node16&#45;&gt;Node21 -->
<g id="edge20" class="edge"><title>Node16&#45;&gt;Node21</title>
<path fill="none" stroke="midnightblue" d="M590.757,-855.385C611.211,-847.018 642.219,-835.009 670,-827 679.587,-824.236 689.849,-821.704 699.908,-819.451"/>
<polygon fill="midnightblue" stroke="midnightblue" points="700.834,-822.831 709.866,-817.293 699.352,-815.99 700.834,-822.831"/>
</g>
<!-- Node23 -->
<g id="node23" class="node"><title>Node23</title>
<g id="a_node23"><a xlink:href="video_dummy_8h.html#a98be3ece55a3751acf6653ccd4d76c57" target="_top" xlink:title="ar2VideoGetSizeDummy">
<polygon fill="white" stroke="black" points="700,-760.5 700,-779.5 825,-779.5 825,-760.5 700,-760.5"/>
<text text-anchor="middle" x="762.5" y="-767.5" font-family="Helvetica,sans-Serif" font-size="10.00">ar2VideoGetSizeDummy</text>
</a>
</g>
</g>
<!-- Node22&#45;&gt;Node23 -->
<g id="edge22" class="edge"><title>Node22&#45;&gt;Node23</title>
<path fill="none" stroke="midnightblue" d="M575.24,-665.619C590.461,-685.099 627.871,-729.211 670,-751 676.341,-754.279 683.205,-756.993 690.225,-759.238"/>
<polygon fill="midnightblue" stroke="midnightblue" points="689.282,-762.609 699.861,-762.018 691.223,-755.883 689.282,-762.609"/>
</g>
<!-- Node24 -->
<g id="node24" class="node"><title>Node24</title>
<g id="a_node24"><a xlink:href="video_v4_l2_8h.html#a4cd15e53200db9db8334fa4c42fc1b56" target="_top" xlink:title="ar2VideoGetSizeV4L2">
<polygon fill="white" stroke="black" points="706,-722.5 706,-741.5 819,-741.5 819,-722.5 706,-722.5"/>
<text text-anchor="middle" x="762.5" y="-729.5" font-family="Helvetica,sans-Serif" font-size="10.00">ar2VideoGetSizeV4L2</text>
</a>
</g>
</g>
<!-- Node22&#45;&gt;Node24 -->
<g id="edge23" class="edge"><title>Node22&#45;&gt;Node24</title>
<path fill="none" stroke="midnightblue" d="M581.857,-665.563C600.883,-678.257 636.55,-700.517 670,-713 678.173,-716.05 686.948,-718.657 695.713,-720.872"/>
<polygon fill="midnightblue" stroke="midnightblue" points="695.034,-724.308 705.572,-723.21 696.649,-717.497 695.034,-724.308"/>
</g>
<!-- Node25 -->
<g id="node25" class="node"><title>Node25</title>
<g id="a_node25"><a xlink:href="video1394_8h.html#a8edcf3e75cdc9d9a0a46e5c949fe024c" target="_top" xlink:title="ar2VideoGetSize1394">
<polygon fill="white" stroke="black" points="707,-684.5 707,-703.5 818,-703.5 818,-684.5 707,-684.5"/>
<text text-anchor="middle" x="762.5" y="-691.5" font-family="Helvetica,sans-Serif" font-size="10.00">ar2VideoGetSize1394</text>
</a>
</g>
</g>
<!-- Node22&#45;&gt;Node25 -->
<g id="edge24" class="edge"><title>Node22&#45;&gt;Node25</title>
<path fill="none" stroke="midnightblue" d="M612.393,-664.718C639.242,-669.991 673.788,-676.775 702.867,-682.486"/>
<polygon fill="midnightblue" stroke="midnightblue" points="702.416,-685.964 712.903,-684.456 703.765,-679.095 702.416,-685.964"/>
</g>
<!-- Node26 -->
<g id="node26" class="node"><title>Node26</title>
<g id="a_node26"><a xlink:href="video_a_v_foundation_8h.html#a039c73ba8a3e6ec85abe801637b2be6f" target="_top" xlink:title="ar2VideoGetSizeAVFoundation">
<polygon fill="white" stroke="black" points="686.5,-646.5 686.5,-665.5 838.5,-665.5 838.5,-646.5 686.5,-646.5"/>
<text text-anchor="middle" x="762.5" y="-653.5" font-family="Helvetica,sans-Serif" font-size="10.00">ar2VideoGetSizeAVFoundation</text>
</a>
</g>
</g>
<!-- Node22&#45;&gt;Node26 -->
<g id="edge25" class="edge"><title>Node22&#45;&gt;Node26</title>
<path fill="none" stroke="midnightblue" d="M612.393,-656C631.358,-656 654.163,-656 676.169,-656"/>
<polygon fill="midnightblue" stroke="midnightblue" points="676.207,-659.5 686.207,-656 676.207,-652.5 676.207,-659.5"/>
</g>
<!-- Node27 -->
<g id="node27" class="node"><title>Node27</title>
<g id="a_node27"><a xlink:href="video_image_8h.html#a0faf54541ccba547d219e20002c36302" target="_top" xlink:title="ar2VideoGetSizeImage">
<polygon fill="white" stroke="black" points="704,-608.5 704,-627.5 821,-627.5 821,-608.5 704,-608.5"/>
<text text-anchor="middle" x="762.5" y="-615.5" font-family="Helvetica,sans-Serif" font-size="10.00">ar2VideoGetSizeImage</text>
</a>
</g>
</g>
<!-- Node22&#45;&gt;Node27 -->
<g id="edge26" class="edge"><title>Node22&#45;&gt;Node27</title>
<path fill="none" stroke="midnightblue" d="M612.393,-647.282C639.242,-642.009 673.788,-635.225 702.867,-629.514"/>
<polygon fill="midnightblue" stroke="midnightblue" points="703.765,-632.905 712.903,-627.544 702.416,-626.036 703.765,-632.905"/>
</g>
<!-- Node28 -->
<g id="node28" class="node"><title>Node28</title>
<g id="a_node28"><a xlink:href="video_android_8h.html#aafb49599502c8ce1d9f2c360cbb86caa" target="_top" xlink:title="ar2VideoGetSizeAndroid">
<polygon fill="white" stroke="black" points="701,-570.5 701,-589.5 824,-589.5 824,-570.5 701,-570.5"/>
<text text-anchor="middle" x="762.5" y="-577.5" font-family="Helvetica,sans-Serif" font-size="10.00">ar2VideoGetSizeAndroid</text>
</a>
</g>
</g>
<!-- Node22&#45;&gt;Node28 -->
<g id="edge27" class="edge"><title>Node22&#45;&gt;Node28</title>
<path fill="none" stroke="midnightblue" d="M581.857,-646.437C600.883,-633.743 636.55,-611.483 670,-599 677.161,-596.328 684.785,-593.996 692.459,-591.969"/>
<polygon fill="midnightblue" stroke="midnightblue" points="693.31,-595.364 702.175,-589.562 691.627,-588.569 693.31,-595.364"/>
</g>
<!-- Node30 -->
<g id="node30" class="node"><title>Node30</title>
<g id="a_node30"><a xlink:href="video_8h.html#a7f44f09a5e412bb83330887458e96b84" target="_top" xlink:title="ar2VideoCapStop">
<polygon fill="white" stroke="red" points="716,-532.5 716,-551.5 809,-551.5 809,-532.5 716,-532.5"/>
<text text-anchor="middle" x="762.5" y="-539.5" font-family="Helvetica,sans-Serif" font-size="10.00">ar2VideoCapStop</text>
</a>
</g>
</g>
<!-- Node29&#45;&gt;Node30 -->
<g id="edge29" class="edge"><title>Node29&#45;&gt;Node30</title>
<path fill="none" stroke="midnightblue" d="M590.757,-494.615C611.211,-502.982 642.219,-514.991 670,-523 681.448,-526.3 693.858,-529.271 705.736,-531.829"/>
<polygon fill="midnightblue" stroke="midnightblue" points="705.051,-535.261 715.555,-533.879 706.481,-528.409 705.051,-535.261"/>
</g>
<!-- Node31 -->
<g id="node31" class="node"><title>Node31</title>
<g id="a_node31"><a xlink:href="param_8h.html#a42d02aaf13cedaf0f2cd1b93a5d81643" target="_top" xlink:title="Dispose of a memory allocated to a lookup&#45;table camera parameter. ">
<polygon fill="white" stroke="black" points="720.5,-494.5 720.5,-513.5 804.5,-513.5 804.5,-494.5 720.5,-494.5"/>
<text text-anchor="middle" x="762.5" y="-501.5" font-family="Helvetica,sans-Serif" font-size="10.00">arParamLTFree</text>
</a>
</g>
</g>
<!-- Node29&#45;&gt;Node31 -->
<g id="edge30" class="edge"><title>Node29&#45;&gt;Node31</title>
<path fill="none" stroke="midnightblue" d="M625.01,-490.598C651.976,-493.246 683.927,-496.383 710.134,-498.956"/>
<polygon fill="midnightblue" stroke="midnightblue" points="709.947,-502.455 720.242,-499.949 710.631,-495.488 709.947,-502.455"/>
</g>
<!-- Node32 -->
<g id="node32" class="node"><title>Node32</title>
<g id="a_node32"><a xlink:href="video_8h.html#a4b8a9b1a18beed51b2f0600687de63b8" target="_top" xlink:title="ar2VideoClose">
<polygon fill="white" stroke="red" points="722.5,-456.5 722.5,-475.5 802.5,-475.5 802.5,-456.5 722.5,-456.5"/>
<text text-anchor="middle" x="762.5" y="-463.5" font-family="Helvetica,sans-Serif" font-size="10.00">ar2VideoClose</text>
</a>
</g>
</g>
<!-- Node29&#45;&gt;Node32 -->
<g id="edge31" class="edge"><title>Node29&#45;&gt;Node32</title>
<path fill="none" stroke="midnightblue" d="M625.01,-479.402C652.665,-476.687 685.563,-473.456 712.131,-470.848"/>
<polygon fill="midnightblue" stroke="midnightblue" points="712.74,-474.305 722.35,-469.844 712.055,-467.338 712.74,-474.305"/>
</g>
<!-- Node34 -->
<g id="node34" class="node"><title>Node34</title>
<g id="a_node34"><a xlink:href="video_dummy_8h.html#aef5bd63c5abf5e4479664647c084644b" target="_top" xlink:title="ar2VideoGetPixelFormatDummy">
<polygon fill="white" stroke="black" points="683.5,-418.5 683.5,-437.5 841.5,-437.5 841.5,-418.5 683.5,-418.5"/>
<text text-anchor="middle" x="762.5" y="-425.5" font-family="Helvetica,sans-Serif" font-size="10.00">ar2VideoGetPixelFormatDummy</text>
</a>
</g>
</g>
<!-- Node33&#45;&gt;Node34 -->
<g id="edge33" class="edge"><title>Node33&#45;&gt;Node34</title>
<path fill="none" stroke="midnightblue" d="M628.694,-428C642.742,-428 657.974,-428 672.942,-428"/>
<polygon fill="midnightblue" stroke="midnightblue" points="673.245,-431.5 683.245,-428 673.245,-424.5 673.245,-431.5"/>
</g>
<!-- Node35 -->
<g id="node35" class="node"><title>Node35</title>
<g id="a_node35"><a xlink:href="video_v4_l2_8h.html#aab61669af9d839aa23ecd79d1c4bde5a" target="_top" xlink:title="ar2VideoGetPixelFormatV4L2">
<polygon fill="white" stroke="black" points="689.5,-380.5 689.5,-399.5 835.5,-399.5 835.5,-380.5 689.5,-380.5"/>
<text text-anchor="middle" x="762.5" y="-387.5" font-family="Helvetica,sans-Serif" font-size="10.00">ar2VideoGetPixelFormatV4L2</text>
</a>
</g>
</g>
<!-- Node33&#45;&gt;Node35 -->
<g id="edge34" class="edge"><title>Node33&#45;&gt;Node35</title>
<path fill="none" stroke="midnightblue" d="M616.828,-418.411C643.053,-413.261 675.562,-406.877 703.116,-401.466"/>
<polygon fill="midnightblue" stroke="midnightblue" points="703.885,-404.882 713.023,-399.52 702.536,-398.013 703.885,-404.882"/>
</g>
<!-- Node36 -->
<g id="node36" class="node"><title>Node36</title>
<g id="a_node36"><a xlink:href="video1394_8h.html#a1eb40205f18baab9d12c0bc187e9b50e" target="_top" xlink:title="ar2VideoGetPixelFormat1394">
<polygon fill="white" stroke="black" points="690.5,-342.5 690.5,-361.5 834.5,-361.5 834.5,-342.5 690.5,-342.5"/>
<text text-anchor="middle" x="762.5" y="-349.5" font-family="Helvetica,sans-Serif" font-size="10.00">ar2VideoGetPixelFormat1394</text>
</a>
</g>
</g>
<!-- Node33&#45;&gt;Node36 -->
<g id="edge35" class="edge"><title>Node33&#45;&gt;Node36</title>
<path fill="none" stroke="midnightblue" d="M613.379,-418.421C620.555,-415.936 627.684,-412.841 634,-409 653.878,-396.912 649.68,-382.328 670,-371 674.014,-368.762 678.261,-366.787 682.638,-365.043"/>
<polygon fill="midnightblue" stroke="midnightblue" points="684.138,-368.225 692.393,-361.585 681.799,-361.628 684.138,-368.225"/>
</g>
<!-- Node37 -->
<g id="node37" class="node"><title>Node37</title>
<g id="a_node37"><a xlink:href="video_a_v_foundation_8h.html#a98d99736ba21ff6f85c9da3e0e2acab8" target="_top" xlink:title="ar2VideoGetPixelFormatAVFoundation">
<polygon fill="white" stroke="black" points="670,-304.5 670,-323.5 855,-323.5 855,-304.5 670,-304.5"/>
<text text-anchor="middle" x="762.5" y="-311.5" font-family="Helvetica,sans-Serif" font-size="10.00">ar2VideoGetPixelFormatAVFoundation</text>
</a>
</g>
</g>
<!-- Node33&#45;&gt;Node37 -->
<g id="edge36" class="edge"><title>Node33&#45;&gt;Node37</title>
<path fill="none" stroke="midnightblue" d="M618.605,-418.391C624.171,-415.938 629.457,-412.861 634,-409 662.481,-384.798 640.625,-356.109 670,-333 672.12,-331.332 674.35,-329.801 676.668,-328.396"/>
<polygon fill="midnightblue" stroke="midnightblue" points="678.715,-331.277 685.991,-323.575 675.501,-325.059 678.715,-331.277"/>
</g>
<!-- Node38 -->
<g id="node38" class="node"><title>Node38</title>
<g id="a_node38"><a xlink:href="video_image_8h.html#a4e14913d6bea4a02cd3d17ddd95e2544" target="_top" xlink:title="ar2VideoGetPixelFormatImage">
<polygon fill="white" stroke="black" points="687.5,-266.5 687.5,-285.5 837.5,-285.5 837.5,-266.5 687.5,-266.5"/>
<text text-anchor="middle" x="762.5" y="-273.5" font-family="Helvetica,sans-Serif" font-size="10.00">ar2VideoGetPixelFormatImage</text>
</a>
</g>
</g>
<!-- Node33&#45;&gt;Node38 -->
<g id="edge37" class="edge"><title>Node33&#45;&gt;Node38</title>
<path fill="none" stroke="midnightblue" d="M620.444,-418.349C625.425,-415.895 630.072,-412.828 634,-409 672.048,-371.913 630.578,-330.624 670,-295 672.528,-292.716 675.257,-290.678 678.137,-288.863"/>
<polygon fill="midnightblue" stroke="midnightblue" points="679.992,-291.84 687.179,-284.056 676.706,-285.659 679.992,-291.84"/>
</g>
</g>
</svg>
        <g id="navigator" transform="translate(0 0)" fill="#404254">
                <rect fill="#f2f5e9" fill-opacity="0.5" stroke="#606060" stroke-width=".5" x="0" y="0" width="60" height="60"/>
                <use id="zoomplus" xlink:href="#zoomPlus" x="17" y="9" onmousedown="handleZoom(evt,'in')"/>
                <use id="zoomminus" xlink:href="#zoomMin" x="42" y="9" onmousedown="handleZoom(evt,'out')"/>
                <use id="reset" xlink:href="#resetDef" x="30" y="36" onmousedown="handleReset()"/>
                <g id="arrowUp" xlink:href="#dirArrow" transform="translate(30 24)" onmousedown="handlePan(0,-1)">
                  <use xlink:href="#rim" fill="#404040">
                        <set attributeName="fill" to="#808080" begin="arrowUp.mouseover" end="arrowUp.mouseout"/>
                  </use>
                  <path fill="none" stroke="white" stroke-width="1.5" d="M0,-3.0v7 M-2.5,-0.5L0,-3.0L2.5,-0.5"/>
                </g>
                <g id="arrowRight" xlink:href="#dirArrow" transform="rotate(90) translate(36 -43)" onmousedown="handlePan(1,0)">
                  <use xlink:href="#rim" fill="#404040">
                        <set attributeName="fill" to="#808080" begin="arrowRight.mouseover" end="arrowRight.mouseout"/>
                  </use>
                  <path fill="none" stroke="white" stroke-width="1.5" d="M0,-3.0v7 M-2.5,-0.5L0,-3.0L2.5,-0.5"/>
                </g>
                <g id="arrowDown" xlink:href="#dirArrow" transform="rotate(180) translate(-30 -48)" onmousedown="handlePan(0,1)">
                  <use xlink:href="#rim" fill="#404040">
                        <set attributeName="fill" to="#808080" begin="arrowDown.mouseover" end="arrowDown.mouseout"/>
                  </use>
                  <path fill="none" stroke="white" stroke-width="1.5" d="M0,-3.0v7 M-2.5,-0.5L0,-3.0L2.5,-0.5"/>
                </g>
                <g id="arrowLeft" xlink:href="#dirArrow" transform="rotate(270) translate(-36 17)" onmousedown="handlePan(-1,0)">
                  <use xlink:href="#rim" fill="#404040">
                        <set attributeName="fill" to="#808080" begin="arrowLeft.mouseover" end="arrowLeft.mouseout"/>
                  </use>
                  <path fill="none" stroke="white" stroke-width="1.5" d="M0,-3.0v7 M-2.5,-0.5L0,-3.0L2.5,-0.5"/>
                </g>
        </g>
        <svg viewBox="0 0 15 15" width="100%" height="30px" preserveAspectRatio="xMaxYMin meet">
         <g id="arrow_out" transform="scale(0.3 0.3)">
          <a xlink:href="_a_r6__c_8h_a255af82cd4725b89158d67a11a159acd_cgraph_org.svg" target="_base">
           <rect id="button" ry="5" rx="5" y="6" x="6" height="38" width="38"
                fill="#f2f5e9" fill-opacity="0.5" stroke="#606060" stroke-width="1.0"/>
           <path id="arrow"
             d="M 11.500037,31.436501 C 11.940474,20.09759 22.043105,11.32322 32.158766,21.979434 L 37.068811,17.246167 C 37.068811,17.246167 37.088388,32 37.088388,32 L 22.160133,31.978069 C 22.160133,31.978069 26.997745,27.140456 26.997745,27.140456 C 18.528582,18.264221 13.291696,25.230495 11.500037,31.436501 z"
             style="fill:#404040;"/>
          </a>
         </g>
        </svg>
</svg>
