<?xml version="1.0" encoding="UTF-8" standalone="no"?>
<!DOCTYPE svg PUBLIC "-//W3C//DTD SVG 1.1//EN"
 "http://www.w3.org/Graphics/SVG/1.1/DTD/svg11.dtd">
<!-- Generated by graphviz version 2.38.0 (20140413.2041)
 -->
<!-- Title: arMatrixAllocTransf Pages: 1 -->
<svg width="225pt" height="104pt"
 viewBox="0.00 0.00 225.00 104.00" xmlns="http://www.w3.org/2000/svg" xmlns:xlink="http://www.w3.org/1999/xlink">
<g id="graph0" class="graph" transform="scale(1 1) rotate(0) translate(4 100)">
<title>arMatrixAllocTransf</title>
<polygon fill="white" stroke="none" points="-4,4 -4,-100 221,-100 221,4 -4,4"/>
<!-- Node1 -->
<g id="node1" class="node"><title>Node1</title>
<polygon fill="#bfbfbf" stroke="black" points="0,-38.5 0,-57.5 101,-57.5 101,-38.5 0,-38.5"/>
<text text-anchor="middle" x="50.5" y="-45.5" font-family="Helvetica,sans-Serif" font-size="10.00">arMatrixAllocTransf</text>
</g>
<!-- Node2 -->
<g id="node2" class="node"><title>Node2</title>
<g id="a_node2"><a xlink:href="_a_r_2include_2_a_r6_2_a_r_2matrix_8h.html#abc3ee65c6eb8f1046694ff6b985c481e" target="_top" xlink:title="arMatrixAllocf">
<polygon fill="white" stroke="black" points="138.5,-76.5 138.5,-95.5 215.5,-95.5 215.5,-76.5 138.5,-76.5"/>
<text text-anchor="middle" x="177" y="-83.5" font-family="Helvetica,sans-Serif" font-size="10.00">arMatrixAllocf</text>
</a>
</g>
</g>
<!-- Node1&#45;&gt;Node2 -->
<g id="edge1" class="edge"><title>Node1&#45;&gt;Node2</title>
<path fill="none" stroke="midnightblue" d="M82.9166,-57.589C98.6935,-62.4044 118.005,-68.2988 134.941,-73.468"/>
<polygon fill="midnightblue" stroke="midnightblue" points="134.007,-76.8423 144.593,-76.4141 136.051,-70.1472 134.007,-76.8423"/>
</g>
<!-- Node3 -->
<g id="node3" class="node"><title>Node3</title>
<g id="a_node3"><a xlink:href="_a_r_2include_2_a_r6_2_a_r_2matrix_8h.html#a0cf5f8aaf0ac1d58e0a7c877435cf7dc" target="_top" xlink:title="arMatrixTransf">
<polygon fill="white" stroke="black" points="137,-38.5 137,-57.5 217,-57.5 217,-38.5 137,-38.5"/>
<text text-anchor="middle" x="177" y="-45.5" font-family="Helvetica,sans-Serif" font-size="10.00">arMatrixTransf</text>
</a>
</g>
</g>
<!-- Node1&#45;&gt;Node3 -->
<g id="edge2" class="edge"><title>Node1&#45;&gt;Node3</title>
<path fill="none" stroke="midnightblue" d="M101.063,-48C109.548,-48 118.361,-48 126.836,-48"/>
<polygon fill="midnightblue" stroke="midnightblue" points="126.96,-51.5001 136.96,-48 126.96,-44.5001 126.96,-51.5001"/>
</g>
<!-- Node4 -->
<g id="node4" class="node"><title>Node4</title>
<g id="a_node4"><a xlink:href="_a_r_2include_2_a_r6_2_a_r_2matrix_8h.html#afc9cc11f835ae8316f509fcb8c682322" target="_top" xlink:title="arMatrixFreef">
<polygon fill="white" stroke="black" points="140,-0.5 140,-19.5 214,-19.5 214,-0.5 140,-0.5"/>
<text text-anchor="middle" x="177" y="-7.5" font-family="Helvetica,sans-Serif" font-size="10.00">arMatrixFreef</text>
</a>
</g>
</g>
<!-- Node1&#45;&gt;Node4 -->
<g id="edge3" class="edge"><title>Node1&#45;&gt;Node4</title>
<path fill="none" stroke="midnightblue" d="M82.9166,-38.411C98.6935,-33.5956 118.005,-27.7012 134.941,-22.532"/>
<polygon fill="midnightblue" stroke="midnightblue" points="136.051,-25.8528 144.593,-19.5859 134.007,-19.1577 136.051,-25.8528"/>
</g>
</g>
</svg>
