<?xml version="1.0" encoding="UTF-8" standalone="no"?>
<!DOCTYPE svg PUBLIC "-//W3C//DTD SVG 1.1//EN"
 "http://www.w3.org/Graphics/SVG/1.1/DTD/svg11.dtd">
<!-- Generated by graphviz version 2.38.0 (20140413.2041)
 -->
<!-- Title: /bitrise/src/Source/AR6/include/AR6/ARTracker.h Pages: 1 -->
<svg width="1227pt" height="251pt"
 viewBox="0.00 0.00 1227.00 251.00" xmlns="http://www.w3.org/2000/svg" xmlns:xlink="http://www.w3.org/1999/xlink">
<g id="graph0" class="graph" transform="scale(1 1) rotate(0) translate(4 247)">
<title>/bitrise/src/Source/AR6/include/AR6/ARTracker.h</title>
<polygon fill="white" stroke="none" points="-4,4 -4,-247 1223,-247 1223,4 -4,4"/>
<!-- Node1 -->
<g id="node1" class="node"><title>Node1</title>
<polygon fill="#bfbfbf" stroke="black" points="176.5,-212.5 176.5,-242.5 330.5,-242.5 330.5,-212.5 176.5,-212.5"/>
<text text-anchor="start" x="184.5" y="-230.5" font-family="Helvetica,sans-Serif" font-size="10.00">/bitrise/src/Source</text>
<text text-anchor="middle" x="253.5" y="-219.5" font-family="Helvetica,sans-Serif" font-size="10.00">/AR6/include/AR6/ARTracker.h</text>
</g>
<!-- Node2 -->
<g id="node2" class="node"><title>Node2</title>
<g id="a_node2"><a xlink:href="_a_r6__c_8cpp.html" target="_top" xlink:title="/bitrise/src/Source\l/AR6/AR6_c.cpp">
<polygon fill="white" stroke="black" points="135.5,-0.5 135.5,-30.5 231.5,-30.5 231.5,-0.5 135.5,-0.5"/>
<text text-anchor="start" x="143.5" y="-18.5" font-family="Helvetica,sans-Serif" font-size="10.00">/bitrise/src/Source</text>
<text text-anchor="middle" x="183.5" y="-7.5" font-family="Helvetica,sans-Serif" font-size="10.00">/AR6/AR6_c.cpp</text>
</a>
</g>
</g>
<!-- Node1&#45;&gt;Node2 -->
<g id="edge1" class="edge"><title>Node1&#45;&gt;Node2</title>
<path fill="none" stroke="midnightblue" d="M241.357,-203.003C237.283,-194.611 232.912,-185.003 229.5,-176 209.688,-123.718 193.487,-59.0782 186.801,-30.835"/>
<polygon fill="midnightblue" stroke="midnightblue" points="238.339,-204.795 245.929,-212.187 244.606,-201.675 238.339,-204.795"/>
</g>
<!-- Node3 -->
<g id="node3" class="node"><title>Node3</title>
<g id="a_node3"><a xlink:href="_a_r_controller_8cpp.html" target="_top" xlink:title="/bitrise/src/Source\l/AR6/ARController.cpp">
<polygon fill="white" stroke="black" points="0,-0.5 0,-30.5 117,-30.5 117,-0.5 0,-0.5"/>
<text text-anchor="start" x="8" y="-18.5" font-family="Helvetica,sans-Serif" font-size="10.00">/bitrise/src/Source</text>
<text text-anchor="middle" x="58.5" y="-7.5" font-family="Helvetica,sans-Serif" font-size="10.00">/AR6/ARController.cpp</text>
</a>
</g>
</g>
<!-- Node1&#45;&gt;Node3 -->
<g id="edge2" class="edge"><title>Node1&#45;&gt;Node3</title>
<path fill="none" stroke="midnightblue" d="M233.541,-205.006C193.623,-162.017 104.92,-66.4903 71.5403,-30.5434"/>
<polygon fill="midnightblue" stroke="midnightblue" points="231.033,-207.449 240.403,-212.395 236.163,-202.686 231.033,-207.449"/>
</g>
<!-- Node4 -->
<g id="node4" class="node"><title>Node4</title>
<g id="a_node4"><a xlink:href="_a_r_tracker2_d_8h.html" target="_top" xlink:title="/bitrise/src/Source\l/AR6/include/AR6/ARTracker2D.h">
<polygon fill="white" stroke="black" points="239,-140 239,-170 406,-170 406,-140 239,-140"/>
<text text-anchor="start" x="247" y="-158" font-family="Helvetica,sans-Serif" font-size="10.00">/bitrise/src/Source</text>
<text text-anchor="middle" x="322.5" y="-147" font-family="Helvetica,sans-Serif" font-size="10.00">/AR6/include/AR6/ARTracker2D.h</text>
</a>
</g>
</g>
<!-- Node1&#45;&gt;Node4 -->
<g id="edge3" class="edge"><title>Node1&#45;&gt;Node4</title>
<path fill="none" stroke="midnightblue" d="M274.676,-204.864C285.686,-193.614 298.836,-180.179 308.558,-170.246"/>
<polygon fill="midnightblue" stroke="midnightblue" points="271.956,-202.638 267.463,-212.233 276.959,-207.535 271.956,-202.638"/>
</g>
<!-- Node13 -->
<g id="node13" class="node"><title>Node13</title>
<g id="a_node13"><a xlink:href="_a_r_tracker_square_8h.html" target="_top" xlink:title="/bitrise/src/Source\l/AR6/include/AR6/ARTracker\lSquare.h">
<polygon fill="white" stroke="black" points="582.5,-134.5 582.5,-175.5 728.5,-175.5 728.5,-134.5 582.5,-134.5"/>
<text text-anchor="start" x="590.5" y="-163.5" font-family="Helvetica,sans-Serif" font-size="10.00">/bitrise/src/Source</text>
<text text-anchor="start" x="590.5" y="-152.5" font-family="Helvetica,sans-Serif" font-size="10.00">/AR6/include/AR6/ARTracker</text>
<text text-anchor="middle" x="655.5" y="-141.5" font-family="Helvetica,sans-Serif" font-size="10.00">Square.h</text>
</a>
</g>
</g>
<!-- Node1&#45;&gt;Node13 -->
<g id="edge16" class="edge"><title>Node1&#45;&gt;Node13</title>
<path fill="none" stroke="midnightblue" d="M340.528,-211.238C412.778,-198.567 514.374,-180.75 582.452,-168.811"/>
<polygon fill="midnightblue" stroke="midnightblue" points="339.779,-207.815 330.534,-212.99 340.988,-214.71 339.779,-207.815"/>
</g>
<!-- Node4&#45;&gt;Node3 -->
<g id="edge4" class="edge"><title>Node4&#45;&gt;Node3</title>
<path fill="none" stroke="midnightblue" d="M286.09,-135.036C232.438,-107.093 133.351,-55.4851 85.61,-30.6198"/>
<polygon fill="midnightblue" stroke="midnightblue" points="284.756,-138.288 295.242,-139.803 287.989,-132.079 284.756,-138.288"/>
</g>
<!-- Node5 -->
<g id="node5" class="node"><title>Node5</title>
<g id="a_node5"><a xlink:href="_a_r_trackable_8cpp.html" target="_top" xlink:title="/bitrise/src/Source\l/AR6/ARTrackable.cpp">
<polygon fill="white" stroke="black" points="943.5,-0.5 943.5,-30.5 1061.5,-30.5 1061.5,-0.5 943.5,-0.5"/>
<text text-anchor="start" x="951.5" y="-18.5" font-family="Helvetica,sans-Serif" font-size="10.00">/bitrise/src/Source</text>
<text text-anchor="middle" x="1002.5" y="-7.5" font-family="Helvetica,sans-Serif" font-size="10.00">/AR6/ARTrackable.cpp</text>
</a>
</g>
</g>
<!-- Node4&#45;&gt;Node5 -->
<g id="edge5" class="edge"><title>Node4&#45;&gt;Node5</title>
<path fill="none" stroke="midnightblue" d="M403.432,-138.037C459.813,-126.89 536.756,-111.624 604.5,-98 750.794,-68.5783 787.371,-61.2332 933.5,-31 936.736,-30.3304 940.058,-29.6407 943.41,-28.9427"/>
<polygon fill="midnightblue" stroke="midnightblue" points="402.636,-134.626 393.505,-139.999 403.994,-141.494 402.636,-134.626"/>
</g>
<!-- Node6 -->
<g id="node6" class="node"><title>Node6</title>
<g id="a_node6"><a xlink:href="_a_r_tracker2_d_8cpp.html" target="_top" xlink:title="/bitrise/src/Source\l/AR6/ARTracker2D.cpp">
<polygon fill="white" stroke="black" points="262,-67.5 262,-97.5 383,-97.5 383,-67.5 262,-67.5"/>
<text text-anchor="start" x="270" y="-85.5" font-family="Helvetica,sans-Serif" font-size="10.00">/bitrise/src/Source</text>
<text text-anchor="middle" x="322.5" y="-74.5" font-family="Helvetica,sans-Serif" font-size="10.00">/AR6/ARTracker2D.cpp</text>
</a>
</g>
</g>
<!-- Node4&#45;&gt;Node6 -->
<g id="edge6" class="edge"><title>Node4&#45;&gt;Node6</title>
<path fill="none" stroke="midnightblue" d="M322.5,-129.732C322.5,-119.068 322.5,-106.914 322.5,-97.7455"/>
<polygon fill="midnightblue" stroke="midnightblue" points="319,-129.733 322.5,-139.733 326,-129.733 319,-129.733"/>
</g>
<!-- Node7 -->
<g id="node7" class="node"><title>Node7</title>
<g id="a_node7"><a xlink:href="_a_r_controller_8h.html" target="_top" xlink:title="/bitrise/src/Source\l/AR6/include/AR6/ARController.h">
<polygon fill="white" stroke="black" points="433,-67.5 433,-97.5 596,-97.5 596,-67.5 433,-67.5"/>
<text text-anchor="start" x="441" y="-85.5" font-family="Helvetica,sans-Serif" font-size="10.00">/bitrise/src/Source</text>
<text text-anchor="middle" x="514.5" y="-74.5" font-family="Helvetica,sans-Serif" font-size="10.00">/AR6/include/AR6/ARController.h</text>
</a>
</g>
</g>
<!-- Node4&#45;&gt;Node7 -->
<g id="edge7" class="edge"><title>Node4&#45;&gt;Node7</title>
<path fill="none" stroke="midnightblue" d="M370.678,-136.31C403.31,-124.327 445.844,-108.71 476.174,-97.5729"/>
<polygon fill="midnightblue" stroke="midnightblue" points="369.073,-133.17 360.893,-139.903 371.486,-139.741 369.073,-133.17"/>
</g>
<!-- Node7&#45;&gt;Node2 -->
<g id="edge8" class="edge"><title>Node7&#45;&gt;Node2</title>
<path fill="none" stroke="midnightblue" d="M422.861,-66.188C369.48,-56.8756 300.98,-44.2506 240.5,-31 237.607,-30.3663 234.639,-29.69 231.648,-28.9891"/>
<polygon fill="midnightblue" stroke="midnightblue" points="422.535,-69.6838 432.987,-67.9465 423.733,-62.7871 422.535,-69.6838"/>
</g>
<!-- Node7&#45;&gt;Node3 -->
<g id="edge9" class="edge"><title>Node7&#45;&gt;Node3</title>
<path fill="none" stroke="midnightblue" d="M422.639,-70.4121C326.376,-58.6374 181.626,-40.4491 126.5,-31 123.407,-30.4698 120.24,-29.8977 117.047,-29.2977"/>
<polygon fill="midnightblue" stroke="midnightblue" points="422.32,-73.8991 432.671,-71.6375 423.169,-66.9507 422.32,-73.8991"/>
</g>
<!-- Node7&#45;&gt;Node5 -->
<g id="edge10" class="edge"><title>Node7&#45;&gt;Node5</title>
<path fill="none" stroke="midnightblue" d="M606.452,-72.7468C691.563,-64.0935 821.483,-49.4842 933.5,-31 936.761,-30.4619 940.102,-29.876 943.469,-29.2584"/>
<polygon fill="midnightblue" stroke="midnightblue" points="605.896,-69.285 596.299,-73.7724 606.6,-76.2496 605.896,-69.285"/>
</g>
<!-- Node8 -->
<g id="node8" class="node"><title>Node8</title>
<g id="a_node8"><a xlink:href="_a_r_trackable_appearance_8cpp.html" target="_top" xlink:title="/bitrise/src/Source\l/AR6/ARTrackableAppearance.cpp">
<polygon fill="white" stroke="black" points="399.5,-0.5 399.5,-30.5 569.5,-30.5 569.5,-0.5 399.5,-0.5"/>
<text text-anchor="start" x="407.5" y="-18.5" font-family="Helvetica,sans-Serif" font-size="10.00">/bitrise/src/Source</text>
<text text-anchor="middle" x="484.5" y="-7.5" font-family="Helvetica,sans-Serif" font-size="10.00">/AR6/ARTrackableAppearance.cpp</text>
</a>
</g>
</g>
<!-- Node7&#45;&gt;Node8 -->
<g id="edge11" class="edge"><title>Node7&#45;&gt;Node8</title>
<path fill="none" stroke="midnightblue" d="M503.785,-58.2835C499.51,-49.0223 494.729,-38.6632 490.997,-30.5765"/>
<polygon fill="midnightblue" stroke="midnightblue" points="500.622,-59.7831 507.99,-67.396 506.978,-56.8496 500.622,-59.7831"/>
</g>
<!-- Node9 -->
<g id="node9" class="node"><title>Node9</title>
<g id="a_node9"><a xlink:href="_a_r_trackable_multi_square_8cpp.html" target="_top" xlink:title="/bitrise/src/Source\l/AR6/ARTrackableMultiSquare.cpp">
<polygon fill="white" stroke="black" points="587.5,-0.5 587.5,-30.5 757.5,-30.5 757.5,-0.5 587.5,-0.5"/>
<text text-anchor="start" x="595.5" y="-18.5" font-family="Helvetica,sans-Serif" font-size="10.00">/bitrise/src/Source</text>
<text text-anchor="middle" x="672.5" y="-7.5" font-family="Helvetica,sans-Serif" font-size="10.00">/AR6/ARTrackableMultiSquare.cpp</text>
</a>
</g>
</g>
<!-- Node7&#45;&gt;Node9 -->
<g id="edge12" class="edge"><title>Node7&#45;&gt;Node9</title>
<path fill="none" stroke="midnightblue" d="M558.146,-63.5442C583.429,-53.143 614.798,-40.238 638.283,-30.5765"/>
<polygon fill="midnightblue" stroke="midnightblue" points="556.7,-60.3546 548.784,-67.396 559.363,-66.8282 556.7,-60.3546"/>
</g>
<!-- Node10 -->
<g id="node10" class="node"><title>Node10</title>
<g id="a_node10"><a xlink:href="_a_r_trackable_square_8cpp.html" target="_top" xlink:title="/bitrise/src/Source\l/AR6/ARTrackableSquare.cpp">
<polygon fill="white" stroke="black" points="776,-0.5 776,-30.5 925,-30.5 925,-0.5 776,-0.5"/>
<text text-anchor="start" x="784" y="-18.5" font-family="Helvetica,sans-Serif" font-size="10.00">/bitrise/src/Source</text>
<text text-anchor="middle" x="850.5" y="-7.5" font-family="Helvetica,sans-Serif" font-size="10.00">/AR6/ARTrackableSquare.cpp</text>
</a>
</g>
</g>
<!-- Node7&#45;&gt;Node10 -->
<g id="edge13" class="edge"><title>Node7&#45;&gt;Node10</title>
<path fill="none" stroke="midnightblue" d="M597.126,-65.5159C652.484,-54.8067 724.686,-40.8389 777.847,-30.5549"/>
<polygon fill="midnightblue" stroke="midnightblue" points="596.147,-62.1403 586.993,-67.476 597.476,-69.0129 596.147,-62.1403"/>
</g>
<!-- Node11 -->
<g id="node11" class="node"><title>Node11</title>
<g id="a_node11"><a xlink:href="_a_r_tracker_square_8cpp.html" target="_top" xlink:title="/bitrise/src/Source\l/AR6/ARTrackerSquare.cpp">
<polygon fill="white" stroke="black" points="1080,-0.5 1080,-30.5 1219,-30.5 1219,-0.5 1080,-0.5"/>
<text text-anchor="start" x="1088" y="-18.5" font-family="Helvetica,sans-Serif" font-size="10.00">/bitrise/src/Source</text>
<text text-anchor="middle" x="1149.5" y="-7.5" font-family="Helvetica,sans-Serif" font-size="10.00">/AR6/ARTrackerSquare.cpp</text>
</a>
</g>
</g>
<!-- Node7&#45;&gt;Node11 -->
<g id="edge14" class="edge"><title>Node7&#45;&gt;Node11</title>
<path fill="none" stroke="midnightblue" d="M606.366,-75.7262C716.85,-68.1898 907.769,-53.2774 1070.5,-31 1073.54,-30.5839 1076.64,-30.1323 1079.77,-29.6542"/>
<polygon fill="midnightblue" stroke="midnightblue" points="605.998,-72.243 596.258,-76.4105 606.471,-79.227 605.998,-72.243"/>
</g>
<!-- Node12 -->
<g id="node12" class="node"><title>Node12</title>
<g id="a_node12"><a xlink:href="_a_r_video_source_8cpp.html" target="_top" xlink:title="/bitrise/src/Source\l/AR6/ARVideoSource.cpp">
<polygon fill="white" stroke="black" points="250,-0.5 250,-30.5 381,-30.5 381,-0.5 250,-0.5"/>
<text text-anchor="start" x="258" y="-18.5" font-family="Helvetica,sans-Serif" font-size="10.00">/bitrise/src/Source</text>
<text text-anchor="middle" x="315.5" y="-7.5" font-family="Helvetica,sans-Serif" font-size="10.00">/AR6/ARVideoSource.cpp</text>
</a>
</g>
</g>
<!-- Node7&#45;&gt;Node12 -->
<g id="edge15" class="edge"><title>Node7&#45;&gt;Node12</title>
<path fill="none" stroke="midnightblue" d="M461.62,-64.2278C429.429,-53.7131 388.826,-40.4508 358.596,-30.5765"/>
<polygon fill="midnightblue" stroke="midnightblue" points="460.727,-67.618 471.32,-67.396 462.901,-60.964 460.727,-67.618"/>
</g>
<!-- Node13&#45;&gt;Node5 -->
<g id="edge17" class="edge"><title>Node13&#45;&gt;Node5</title>
<path fill="none" stroke="midnightblue" d="M714.301,-130.7C786.728,-102.001 907.463,-54.1589 967.035,-30.553"/>
<polygon fill="midnightblue" stroke="midnightblue" points="712.855,-127.508 704.848,-134.446 715.434,-134.016 712.855,-127.508"/>
</g>
<!-- Node13&#45;&gt;Node7 -->
<g id="edge19" class="edge"><title>Node13&#45;&gt;Node7</title>
<path fill="none" stroke="midnightblue" d="M607.244,-129.872C585.79,-119.145 561.276,-106.888 542.84,-97.67"/>
<polygon fill="midnightblue" stroke="midnightblue" points="605.714,-133.02 616.224,-134.362 608.845,-126.759 605.714,-133.02"/>
</g>
<!-- Node13&#45;&gt;Node11 -->
<g id="edge18" class="edge"><title>Node13&#45;&gt;Node11</title>
<path fill="none" stroke="midnightblue" d="M735.455,-131.745C838.098,-103.176 1013.16,-54.4479 1099.01,-30.553"/>
<polygon fill="midnightblue" stroke="midnightblue" points="734.449,-128.392 725.754,-134.446 736.326,-135.136 734.449,-128.392"/>
</g>
</g>
</svg>
