<?xml version="1.0" encoding="UTF-8" standalone="no"?>
<!DOCTYPE svg PUBLIC "-//W3C//DTD SVG 1.1//EN"
 "http://www.w3.org/Graphics/SVG/1.1/DTD/svg11.dtd">
<!-- Generated by graphviz version 2.38.0 (20140413.2041)
 -->
<!-- Title: /bitrise/src/Source/AR6/ARTrackableMultiSquare.cpp Pages: 1 -->
<svg width="1230pt" height="487pt"
 viewBox="0.00 0.00 1229.50 487.00" xmlns="http://www.w3.org/2000/svg" xmlns:xlink="http://www.w3.org/1999/xlink">
<g id="graph0" class="graph" transform="scale(1 1) rotate(0) translate(4 483)">
<title>/bitrise/src/Source/AR6/ARTrackableMultiSquare.cpp</title>
<polygon fill="white" stroke="none" points="-4,4 -4,-483 1225.5,-483 1225.5,4 -4,4"/>
<!-- Node1 -->
<g id="node1" class="node"><title>Node1</title>
<polygon fill="#bfbfbf" stroke="black" points="934.5,-448.5 934.5,-478.5 1104.5,-478.5 1104.5,-448.5 934.5,-448.5"/>
<text text-anchor="start" x="942.5" y="-466.5" font-family="Helvetica,sans-Serif" font-size="10.00">/bitrise/src/Source</text>
<text text-anchor="middle" x="1019.5" y="-455.5" font-family="Helvetica,sans-Serif" font-size="10.00">/AR6/ARTrackableMultiSquare.cpp</text>
</g>
<!-- Node2 -->
<g id="node2" class="node"><title>Node2</title>
<g id="a_node2"><a xlink:href="_a_r_trackable_multi_square_8h.html" target="_top" xlink:title="AR6/ARTrackableMultiSquare.h">
<polygon fill="white" stroke="black" points="999.5,-280.5 999.5,-299.5 1155.5,-299.5 1155.5,-280.5 999.5,-280.5"/>
<text text-anchor="middle" x="1077.5" y="-287.5" font-family="Helvetica,sans-Serif" font-size="10.00">AR6/ARTrackableMultiSquare.h</text>
</a>
</g>
</g>
<!-- Node1&#45;&gt;Node2 -->
<g id="edge1" class="edge"><title>Node1&#45;&gt;Node2</title>
<path fill="none" stroke="midnightblue" d="M1053.44,-448.399C1088.08,-431.938 1139.86,-401.092 1162.5,-356 1174.77,-331.57 1144.85,-313.749 1117.19,-303.011"/>
<polygon fill="midnightblue" stroke="midnightblue" points="1118.16,-299.642 1107.57,-299.509 1115.77,-306.219 1118.16,-299.642"/>
</g>
<!-- Node25 -->
<g id="node25" class="node"><title>Node25</title>
<g id="a_node25"><a xlink:href="_a_r_controller_8h.html" target="_top" xlink:title="AR6/ARController.h">
<polygon fill="white" stroke="black" points="727.5,-392.5 727.5,-411.5 831.5,-411.5 831.5,-392.5 727.5,-392.5"/>
<text text-anchor="middle" x="779.5" y="-399.5" font-family="Helvetica,sans-Serif" font-size="10.00">AR6/ARController.h</text>
</a>
</g>
</g>
<!-- Node1&#45;&gt;Node25 -->
<g id="edge34" class="edge"><title>Node1&#45;&gt;Node25</title>
<path fill="none" stroke="midnightblue" d="M962.927,-448.475C920.347,-437.918 862.815,-423.655 823.611,-413.936"/>
<polygon fill="midnightblue" stroke="midnightblue" points="824.36,-410.516 813.811,-411.506 822.675,-417.31 824.36,-410.516"/>
</g>
<!-- Node3 -->
<g id="node3" class="node"><title>Node3</title>
<g id="a_node3"><a xlink:href="_a_r_trackable_8h.html" target="_top" xlink:title="AR6/ARTrackable.h">
<polygon fill="white" stroke="black" points="769.5,-224.5 769.5,-243.5 873.5,-243.5 873.5,-224.5 769.5,-224.5"/>
<text text-anchor="middle" x="821.5" y="-231.5" font-family="Helvetica,sans-Serif" font-size="10.00">AR6/ARTrackable.h</text>
</a>
</g>
</g>
<!-- Node2&#45;&gt;Node3 -->
<g id="edge2" class="edge"><title>Node2&#45;&gt;Node3</title>
<path fill="none" stroke="midnightblue" d="M1036.94,-280.444C992.184,-271.004 920.117,-255.802 871.805,-245.611"/>
<polygon fill="midnightblue" stroke="midnightblue" points="872.381,-242.156 861.874,-243.516 870.936,-249.005 872.381,-242.156"/>
</g>
<!-- Node24 -->
<g id="node24" class="node"><title>Node24</title>
<g id="a_node24"><a xlink:href="ar_multi_8h.html" target="_top" xlink:title="AR6/AR/arMulti.h">
<polygon fill="white" stroke="black" points="1023.5,-168.5 1023.5,-187.5 1117.5,-187.5 1117.5,-168.5 1023.5,-168.5"/>
<text text-anchor="middle" x="1070.5" y="-175.5" font-family="Helvetica,sans-Serif" font-size="10.00">AR6/AR/arMulti.h</text>
</a>
</g>
</g>
<!-- Node2&#45;&gt;Node24 -->
<g id="edge32" class="edge"><title>Node2&#45;&gt;Node24</title>
<path fill="none" stroke="midnightblue" d="M1076.95,-280.368C1075.82,-262.617 1073.22,-221.666 1071.68,-197.597"/>
<polygon fill="midnightblue" stroke="midnightblue" points="1075.17,-197.349 1071.05,-187.591 1068.19,-197.794 1075.17,-197.349"/>
</g>
<!-- Node4 -->
<g id="node4" class="node"><title>Node4</title>
<g id="a_node4"><a xlink:href="ar_8h.html" target="_top" xlink:title="ARToolKit core routines. ">
<polygon fill="white" stroke="black" points="522,-112.5 522,-131.5 595,-131.5 595,-112.5 522,-112.5"/>
<text text-anchor="middle" x="558.5" y="-119.5" font-family="Helvetica,sans-Serif" font-size="10.00">AR6/AR/ar.h</text>
</a>
</g>
</g>
<!-- Node3&#45;&gt;Node4 -->
<g id="edge3" class="edge"><title>Node3&#45;&gt;Node4</title>
<path fill="none" stroke="midnightblue" d="M821.656,-224.365C821.406,-210.327 818.731,-182.655 802.5,-168 774.107,-142.365 667.661,-130.64 605.135,-125.863"/>
<polygon fill="midnightblue" stroke="midnightblue" points="605.352,-122.37 595.122,-125.129 604.84,-129.351 605.352,-122.37"/>
</g>
<!-- Node20 -->
<g id="node20" class="node"><title>Node20</title>
<g id="a_node20"><a xlink:href="ar_filter_trans_mat_8h.html" target="_top" xlink:title="Provides filtering of transformation matrices (pose estimates). ">
<polygon fill="white" stroke="black" points="657.5,-168.5 657.5,-187.5 793.5,-187.5 793.5,-168.5 657.5,-168.5"/>
<text text-anchor="middle" x="725.5" y="-175.5" font-family="Helvetica,sans-Serif" font-size="10.00">AR6/AR/arFilterTransMat.h</text>
</a>
</g>
</g>
<!-- Node3&#45;&gt;Node20 -->
<g id="edge26" class="edge"><title>Node3&#45;&gt;Node20</title>
<path fill="none" stroke="midnightblue" d="M806.076,-224.324C790.96,-215.822 767.685,-202.729 750.029,-192.797"/>
<polygon fill="midnightblue" stroke="midnightblue" points="751.317,-189.507 740.886,-187.655 747.886,-195.608 751.317,-189.507"/>
</g>
<!-- Node21 -->
<g id="node21" class="node"><title>Node21</title>
<g id="a_node21"><a xlink:href="_a_r_trackable_appearance_8h.html" target="_top" xlink:title="AR6/ARTrackableAppearance.h">
<polygon fill="white" stroke="black" points="849.5,-168.5 849.5,-187.5 1005.5,-187.5 1005.5,-168.5 849.5,-168.5"/>
<text text-anchor="middle" x="927.5" y="-175.5" font-family="Helvetica,sans-Serif" font-size="10.00">AR6/ARTrackableAppearance.h</text>
</a>
</g>
</g>
<!-- Node3&#45;&gt;Node21 -->
<g id="edge28" class="edge"><title>Node3&#45;&gt;Node21</title>
<path fill="none" stroke="midnightblue" d="M838.531,-224.324C855.53,-215.664 881.876,-202.242 901.493,-192.249"/>
<polygon fill="midnightblue" stroke="midnightblue" points="903.19,-195.312 910.512,-187.655 900.012,-189.075 903.19,-195.312"/>
</g>
<!-- Node23 -->
<g id="node23" class="node"><title>Node23</title>
<polygon fill="white" stroke="#bfbfbf" points="595.5,-168.5 595.5,-187.5 639.5,-187.5 639.5,-168.5 595.5,-168.5"/>
<text text-anchor="middle" x="617.5" y="-175.5" font-family="Helvetica,sans-Serif" font-size="10.00">vector</text>
</g>
<!-- Node3&#45;&gt;Node23 -->
<g id="edge31" class="edge"><title>Node3&#45;&gt;Node23</title>
<path fill="none" stroke="midnightblue" d="M787.612,-224.485C754.659,-216.138 702.951,-202.867 649.477,-188.217"/>
<polygon fill="midnightblue" stroke="midnightblue" points="650.4,-184.841 639.83,-185.564 648.544,-191.59 650.4,-184.841"/>
</g>
<!-- Node5 -->
<g id="node5" class="node"><title>Node5</title>
<polygon fill="white" stroke="#bfbfbf" points="220.5,-0.5 220.5,-19.5 266.5,-19.5 266.5,-0.5 220.5,-0.5"/>
<text text-anchor="middle" x="243.5" y="-7.5" font-family="Helvetica,sans-Serif" font-size="10.00">stdio.h</text>
</g>
<!-- Node4&#45;&gt;Node5 -->
<g id="edge4" class="edge"><title>Node4&#45;&gt;Node5</title>
<path fill="none" stroke="midnightblue" d="M521.802,-118.615C456.601,-113.788 323.815,-101.117 285.5,-76 268.519,-64.8685 256.95,-44.2276 250.321,-29.1839"/>
<polygon fill="midnightblue" stroke="midnightblue" points="253.532,-27.7876 246.516,-19.849 247.05,-30.4303 253.532,-27.7876"/>
</g>
<!-- Node6 -->
<g id="node6" class="node"><title>Node6</title>
<polygon fill="white" stroke="#bfbfbf" points="400.5,-0.5 400.5,-19.5 448.5,-19.5 448.5,-0.5 400.5,-0.5"/>
<text text-anchor="middle" x="424.5" y="-7.5" font-family="Helvetica,sans-Serif" font-size="10.00">stdlib.h</text>
</g>
<!-- Node4&#45;&gt;Node6 -->
<g id="edge5" class="edge"><title>Node4&#45;&gt;Node6</title>
<path fill="none" stroke="midnightblue" d="M521.813,-118.319C492.587,-114.103 453.11,-103.346 431.5,-76 421.283,-63.0711 420.403,-43.9001 421.556,-29.7259"/>
<polygon fill="midnightblue" stroke="midnightblue" points="425.049,-29.9926 422.777,-19.6444 418.1,-29.1511 425.049,-29.9926"/>
</g>
<!-- Node7 -->
<g id="node7" class="node"><title>Node7</title>
<polygon fill="white" stroke="#bfbfbf" points="441,-56.5 441,-75.5 490,-75.5 490,-56.5 441,-56.5"/>
<text text-anchor="middle" x="465.5" y="-63.5" font-family="Helvetica,sans-Serif" font-size="10.00">stdint.h</text>
</g>
<!-- Node4&#45;&gt;Node7 -->
<g id="edge6" class="edge"><title>Node4&#45;&gt;Node7</title>
<path fill="none" stroke="midnightblue" d="M543.558,-112.324C528.915,-103.822 506.366,-90.7288 489.262,-80.7975"/>
<polygon fill="midnightblue" stroke="midnightblue" points="490.81,-77.6491 480.405,-75.6545 487.295,-83.7027 490.81,-77.6491"/>
</g>
<!-- Node8 -->
<g id="node8" class="node"><title>Node8</title>
<polygon fill="white" stroke="#bfbfbf" points="0,-0.5 0,-19.5 49,-19.5 49,-0.5 0,-0.5"/>
<text text-anchor="middle" x="24.5" y="-7.5" font-family="Helvetica,sans-Serif" font-size="10.00">string.h</text>
</g>
<!-- Node4&#45;&gt;Node8 -->
<g id="edge7" class="edge"><title>Node4&#45;&gt;Node8</title>
<path fill="none" stroke="midnightblue" d="M521.745,-121.413C422.12,-121.941 149.259,-119.292 72.5,-76 53.6563,-65.3723 40.0967,-43.9603 32.2931,-28.6141"/>
<polygon fill="midnightblue" stroke="midnightblue" points="35.4529,-27.1087 27.9986,-19.5798 29.1308,-30.114 35.4529,-27.1087"/>
</g>
<!-- Node9 -->
<g id="node9" class="node"><title>Node9</title>
<polygon fill="white" stroke="#bfbfbf" points="959,-0.5 959,-19.5 1050,-19.5 1050,-0.5 959,-0.5"/>
<text text-anchor="middle" x="1004.5" y="-7.5" font-family="Helvetica,sans-Serif" font-size="10.00">AR6/AR/config.h</text>
</g>
<!-- Node4&#45;&gt;Node9 -->
<g id="edge8" class="edge"><title>Node4&#45;&gt;Node9</title>
<path fill="none" stroke="midnightblue" d="M595.293,-119.13C653.833,-115.382 771.294,-104.684 866.5,-76 908.731,-63.2763 954.422,-39.597 981.196,-24.6022"/>
<polygon fill="midnightblue" stroke="midnightblue" points="983.197,-27.4905 990.163,-19.5071 979.739,-21.4044 983.197,-27.4905"/>
</g>
<!-- Node10 -->
<g id="node10" class="node"><title>Node10</title>
<g id="a_node10"><a xlink:href="ar_config_8h.html" target="_top" xlink:title="AR6/AR/arConfig.h">
<polygon fill="white" stroke="black" points="508,-56.5 508,-75.5 609,-75.5 609,-56.5 508,-56.5"/>
<text text-anchor="middle" x="558.5" y="-63.5" font-family="Helvetica,sans-Serif" font-size="10.00">AR6/AR/arConfig.h</text>
</a>
</g>
</g>
<!-- Node4&#45;&gt;Node10 -->
<g id="edge9" class="edge"><title>Node4&#45;&gt;Node10</title>
<path fill="none" stroke="midnightblue" d="M558.5,-112.083C558.5,-105.006 558.5,-94.8611 558.5,-85.9865"/>
<polygon fill="midnightblue" stroke="midnightblue" points="562,-85.751 558.5,-75.7511 555,-85.7511 562,-85.751"/>
</g>
<!-- Node11 -->
<g id="node11" class="node"><title>Node11</title>
<g id="a_node11"><a xlink:href="log_8h.html" target="_top" xlink:title="Logging utilities. ">
<polygon fill="white" stroke="black" points="81.5,-56.5 81.5,-75.5 173.5,-75.5 173.5,-56.5 81.5,-56.5"/>
<text text-anchor="middle" x="127.5" y="-63.5" font-family="Helvetica,sans-Serif" font-size="10.00">AR6/ARUtil/log.h</text>
</a>
</g>
</g>
<!-- Node4&#45;&gt;Node11 -->
<g id="edge10" class="edge"><title>Node4&#45;&gt;Node11</title>
<path fill="none" stroke="midnightblue" d="M521.753,-116.396C446.287,-106.941 273.417,-85.282 183.757,-74.0484"/>
<polygon fill="midnightblue" stroke="midnightblue" points="184.129,-70.5678 173.772,-72.7974 183.259,-77.5135 184.129,-70.5678"/>
</g>
<!-- Node14 -->
<g id="node14" class="node"><title>Node14</title>
<g id="a_node14"><a xlink:href="_a_r_2include_2_a_r6_2_a_r_2matrix_8h.html" target="_top" xlink:title="AR6/AR/matrix.h">
<polygon fill="white" stroke="black" points="1032.5,-56.5 1032.5,-75.5 1124.5,-75.5 1124.5,-56.5 1032.5,-56.5"/>
<text text-anchor="middle" x="1078.5" y="-63.5" font-family="Helvetica,sans-Serif" font-size="10.00">AR6/AR/matrix.h</text>
</a>
</g>
</g>
<!-- Node4&#45;&gt;Node14 -->
<g id="edge16" class="edge"><title>Node4&#45;&gt;Node14</title>
<path fill="none" stroke="midnightblue" d="M595.242,-118.051C673.31,-111.643 861.422,-95.451 1018.5,-76 1019.76,-75.8435 1021.04,-75.6816 1022.33,-75.5153"/>
<polygon fill="midnightblue" stroke="midnightblue" points="1022.9,-78.9703 1032.34,-74.1676 1021.97,-72.0329 1022.9,-78.9703"/>
</g>
<!-- Node16 -->
<g id="node16" class="node"><title>Node16</title>
<g id="a_node16"><a xlink:href="icp_8h.html" target="_top" xlink:title="AR6/AR/icp.h">
<polygon fill="white" stroke="black" points="295,-56.5 295,-75.5 372,-75.5 372,-56.5 295,-56.5"/>
<text text-anchor="middle" x="333.5" y="-63.5" font-family="Helvetica,sans-Serif" font-size="10.00">AR6/AR/icp.h</text>
</a>
</g>
</g>
<!-- Node4&#45;&gt;Node16 -->
<g id="edge18" class="edge"><title>Node4&#45;&gt;Node16</title>
<path fill="none" stroke="midnightblue" d="M522.848,-112.444C483.844,-103.083 421.234,-88.0561 378.783,-77.868"/>
<polygon fill="midnightblue" stroke="midnightblue" points="379.526,-74.4469 368.985,-75.5164 377.892,-81.2536 379.526,-74.4469"/>
</g>
<!-- Node18 -->
<g id="node18" class="node"><title>Node18</title>
<g id="a_node18"><a xlink:href="param_8h.html" target="_top" xlink:title="ARToolKit functions for handling calibrated camera parameters. ">
<polygon fill="white" stroke="black" points="627.5,-56.5 627.5,-75.5 719.5,-75.5 719.5,-56.5 627.5,-56.5"/>
<text text-anchor="middle" x="673.5" y="-63.5" font-family="Helvetica,sans-Serif" font-size="10.00">AR6/AR/param.h</text>
</a>
</g>
</g>
<!-- Node4&#45;&gt;Node18 -->
<g id="edge21" class="edge"><title>Node4&#45;&gt;Node18</title>
<path fill="none" stroke="midnightblue" d="M571.862,-112.324C588.731,-103.507 617.784,-89.7527 640.611,-79.7074"/>
<polygon fill="midnightblue" stroke="midnightblue" points="642.176,-82.8435 649.959,-75.6545 639.392,-76.4211 642.176,-82.8435"/>
</g>
<!-- Node19 -->
<g id="node19" class="node"><title>Node19</title>
<g id="a_node19"><a xlink:href="ar_image_proc_8h.html" target="_top" xlink:title="ARToolKit functions for 2D luminance image processing. ">
<polygon fill="white" stroke="black" points="737.5,-56.5 737.5,-75.5 857.5,-75.5 857.5,-56.5 737.5,-56.5"/>
<text text-anchor="middle" x="797.5" y="-63.5" font-family="Helvetica,sans-Serif" font-size="10.00">AR6/AR/arImageProc.h</text>
</a>
</g>
</g>
<!-- Node4&#45;&gt;Node19 -->
<g id="edge23" class="edge"><title>Node4&#45;&gt;Node19</title>
<path fill="none" stroke="midnightblue" d="M591.281,-112.444C630.908,-103.023 697.857,-87.8656 744.748,-77.6752"/>
<polygon fill="midnightblue" stroke="midnightblue" points="745.693,-81.0517 754.727,-75.5164 744.213,-74.2099 745.693,-81.0517"/>
</g>
<!-- Node11&#45;&gt;Node5 -->
<g id="edge11" class="edge"><title>Node11&#45;&gt;Node5</title>
<path fill="none" stroke="midnightblue" d="M145.881,-56.4435C164.716,-47.6751 194.231,-33.9355 215.879,-23.8579"/>
<polygon fill="midnightblue" stroke="midnightblue" points="217.617,-26.9098 225.205,-19.5164 214.662,-20.5637 217.617,-26.9098"/>
</g>
<!-- Node11&#45;&gt;Node6 -->
<g id="edge12" class="edge"><title>Node11&#45;&gt;Node6</title>
<path fill="none" stroke="midnightblue" d="M173.548,-58.5415C224.373,-51.1044 308.768,-37.8458 390.469,-20.0517"/>
<polygon fill="midnightblue" stroke="midnightblue" points="391.404,-23.4296 400.417,-17.8593 389.898,-16.5936 391.404,-23.4296"/>
</g>
<!-- Node11&#45;&gt;Node8 -->
<g id="edge13" class="edge"><title>Node11&#45;&gt;Node8</title>
<path fill="none" stroke="midnightblue" d="M110.951,-56.324C94.5084,-47.7034 69.0652,-34.3643 50.0316,-24.3855"/>
<polygon fill="midnightblue" stroke="midnightblue" points="51.4895,-21.198 41.0077,-19.6545 48.2391,-27.3977 51.4895,-21.198"/>
</g>
<!-- Node12 -->
<g id="node12" class="node"><title>Node12</title>
<polygon fill="white" stroke="#bfbfbf" points="150.5,-0.5 150.5,-19.5 202.5,-19.5 202.5,-0.5 150.5,-0.5"/>
<text text-anchor="middle" x="176.5" y="-7.5" font-family="Helvetica,sans-Serif" font-size="10.00">stdarg.h</text>
</g>
<!-- Node11&#45;&gt;Node12 -->
<g id="edge14" class="edge"><title>Node11&#45;&gt;Node12</title>
<path fill="none" stroke="midnightblue" d="M135.591,-56.083C142.655,-48.2982 153.088,-36.8015 161.649,-27.3665"/>
<polygon fill="midnightblue" stroke="midnightblue" points="164.431,-29.5087 168.559,-19.7511 159.247,-24.8047 164.431,-29.5087"/>
</g>
<!-- Node13 -->
<g id="node13" class="node"><title>Node13</title>
<polygon fill="white" stroke="#bfbfbf" points="67,-0.5 67,-19.5 132,-19.5 132,-0.5 67,-0.5"/>
<text text-anchor="middle" x="99.5" y="-7.5" font-family="Helvetica,sans-Serif" font-size="10.00">sys/errno.h</text>
</g>
<!-- Node11&#45;&gt;Node13 -->
<g id="edge15" class="edge"><title>Node11&#45;&gt;Node13</title>
<path fill="none" stroke="midnightblue" d="M122.876,-56.083C119.044,-48.6913 113.476,-37.9533 108.735,-28.8111"/>
<polygon fill="midnightblue" stroke="midnightblue" points="111.748,-27.0175 104.038,-19.7511 105.534,-30.2398 111.748,-27.0175"/>
</g>
<!-- Node15 -->
<g id="node15" class="node"><title>Node15</title>
<polygon fill="white" stroke="#bfbfbf" points="1133,-0.5 1133,-19.5 1180,-19.5 1180,-0.5 1133,-0.5"/>
<text text-anchor="middle" x="1156.5" y="-7.5" font-family="Helvetica,sans-Serif" font-size="10.00">math.h</text>
</g>
<!-- Node14&#45;&gt;Node15 -->
<g id="edge17" class="edge"><title>Node14&#45;&gt;Node15</title>
<path fill="none" stroke="midnightblue" d="M1091.03,-56.324C1103.09,-47.979 1121.53,-35.2122 1135.77,-25.3524"/>
<polygon fill="midnightblue" stroke="midnightblue" points="1137.77,-28.2243 1144,-19.6545 1133.78,-22.469 1137.77,-28.2243"/>
</g>
<!-- Node16&#45;&gt;Node5 -->
<g id="edge19" class="edge"><title>Node16&#45;&gt;Node5</title>
<path fill="none" stroke="midnightblue" d="M319.04,-56.324C305,-47.9002 283.452,-34.9709 266.957,-25.0741"/>
<polygon fill="midnightblue" stroke="midnightblue" points="268.3,-21.7983 257.924,-19.6545 264.698,-27.8007 268.3,-21.7983"/>
</g>
<!-- Node17 -->
<g id="node17" class="node"><title>Node17</title>
<g id="a_node17"><a xlink:href="icp_core_8h.html" target="_top" xlink:title="AR6/AR/icpCore.h">
<polygon fill="white" stroke="black" points="284.5,-0.5 284.5,-19.5 382.5,-19.5 382.5,-0.5 284.5,-0.5"/>
<text text-anchor="middle" x="333.5" y="-7.5" font-family="Helvetica,sans-Serif" font-size="10.00">AR6/AR/icpCore.h</text>
</a>
</g>
</g>
<!-- Node16&#45;&gt;Node17 -->
<g id="edge20" class="edge"><title>Node16&#45;&gt;Node17</title>
<path fill="none" stroke="midnightblue" d="M333.5,-56.083C333.5,-49.0059 333.5,-38.8611 333.5,-29.9865"/>
<polygon fill="midnightblue" stroke="midnightblue" points="337,-29.751 333.5,-19.7511 330,-29.7511 337,-29.751"/>
</g>
<!-- Node18&#45;&gt;Node4 -->
<g id="edge22" class="edge"><title>Node18&#45;&gt;Node4</title>
<path fill="none" stroke="midnightblue" d="M660.443,-75.5164C643.58,-84.3486 614.209,-98.2553 591.218,-108.368"/>
<polygon fill="midnightblue" stroke="midnightblue" points="589.595,-105.257 581.811,-112.444 592.378,-111.68 589.595,-105.257"/>
</g>
<!-- Node19&#45;&gt;Node4 -->
<g id="edge25" class="edge"><title>Node19&#45;&gt;Node4</title>
<path fill="none" stroke="midnightblue" d="M764.882,-75.5177C723.543,-85.3469 652.288,-101.46 605.21,-111.634"/>
<polygon fill="midnightblue" stroke="midnightblue" points="604.3,-108.25 595.259,-113.773 605.771,-115.094 604.3,-108.25"/>
</g>
<!-- Node19&#45;&gt;Node9 -->
<g id="edge24" class="edge"><title>Node19&#45;&gt;Node9</title>
<path fill="none" stroke="midnightblue" d="M830.3,-56.4435C865.88,-47.1616 922.814,-32.3093 961.847,-22.127"/>
<polygon fill="midnightblue" stroke="midnightblue" points="963.061,-25.4274 971.854,-19.5164 961.294,-18.6541 963.061,-25.4274"/>
</g>
<!-- Node20&#45;&gt;Node4 -->
<g id="edge27" class="edge"><title>Node20&#45;&gt;Node4</title>
<path fill="none" stroke="midnightblue" d="M699.038,-168.444C670.822,-159.32 625.96,-144.813 594.532,-134.651"/>
<polygon fill="midnightblue" stroke="midnightblue" points="595.43,-131.263 584.838,-131.516 593.276,-137.923 595.43,-131.263"/>
</g>
<!-- Node21&#45;&gt;Node4 -->
<g id="edge29" class="edge"><title>Node21&#45;&gt;Node4</title>
<path fill="none" stroke="midnightblue" d="M869.031,-168.444C796.019,-157.759 672.567,-139.693 605.416,-129.866"/>
<polygon fill="midnightblue" stroke="midnightblue" points="605.539,-126.347 595.138,-128.362 604.526,-133.273 605.539,-126.347"/>
</g>
<!-- Node22 -->
<g id="node22" class="node"><title>Node22</title>
<polygon fill="white" stroke="#bfbfbf" points="901.5,-112.5 901.5,-131.5 953.5,-131.5 953.5,-112.5 901.5,-112.5"/>
<text text-anchor="middle" x="927.5" y="-119.5" font-family="Helvetica,sans-Serif" font-size="10.00">memory</text>
</g>
<!-- Node21&#45;&gt;Node22 -->
<g id="edge30" class="edge"><title>Node21&#45;&gt;Node22</title>
<path fill="none" stroke="midnightblue" d="M927.5,-168.083C927.5,-161.006 927.5,-150.861 927.5,-141.986"/>
<polygon fill="midnightblue" stroke="midnightblue" points="931,-141.751 927.5,-131.751 924,-141.751 931,-141.751"/>
</g>
<!-- Node24&#45;&gt;Node4 -->
<g id="edge33" class="edge"><title>Node24&#45;&gt;Node4</title>
<path fill="none" stroke="midnightblue" d="M1023.48,-169.229C1020.44,-168.794 1017.43,-168.38 1014.5,-168 865.458,-148.688 688.056,-133.372 605.32,-126.672"/>
<polygon fill="midnightblue" stroke="midnightblue" points="605.482,-123.174 595.233,-125.86 604.92,-130.151 605.482,-123.174"/>
</g>
<!-- Node25&#45;&gt;Node2 -->
<g id="edge67" class="edge"><title>Node25&#45;&gt;Node2</title>
<path fill="none" stroke="midnightblue" d="M831.652,-395.456C874.404,-389.553 935.754,-377.922 985.5,-356 1014.11,-343.394 1042.86,-321.189 1060.42,-306.287"/>
<polygon fill="midnightblue" stroke="midnightblue" points="1062.83,-308.828 1068.09,-299.632 1058.24,-303.54 1062.83,-308.828"/>
</g>
<!-- Node25&#45;&gt;Node3 -->
<g id="edge57" class="edge"><title>Node25&#45;&gt;Node3</title>
<path fill="none" stroke="midnightblue" d="M814.333,-392.443C856.1,-380.05 923.921,-352.596 951.5,-300 968.388,-267.793 925.062,-251.249 883.965,-242.939"/>
<polygon fill="midnightblue" stroke="midnightblue" points="884.354,-239.451 873.88,-241.047 883.063,-246.331 884.354,-239.451"/>
</g>
<!-- Node25&#45;&gt;Node5 -->
<g id="edge74" class="edge"><title>Node25&#45;&gt;Node5</title>
<path fill="none" stroke="midnightblue" d="M727.333,-399.534C602.342,-395.62 288.627,-383.309 187.5,-356 123.597,-338.743 53.5,-357.192 53.5,-291 53.5,-291 53.5,-291 53.5,-233 53.5,-219.542 184.074,-75.8318 228.732,-27.0748"/>
<polygon fill="midnightblue" stroke="midnightblue" points="231.398,-29.3455 235.578,-19.6098 226.239,-24.6142 231.398,-29.3455"/>
</g>
<!-- Node25&#45;&gt;Node6 -->
<g id="edge75" class="edge"><title>Node25&#45;&gt;Node6</title>
<path fill="none" stroke="midnightblue" d="M831.755,-398.581C931.352,-393.441 1140.46,-379.905 1162.5,-356 1201.9,-313.261 1129.39,-171.125 1126.5,-168 1098.92,-138.184 1079.81,-148.051 1042.5,-132 964.232,-98.3294 948.958,-77.4548 866.5,-56 718.512,-17.4949 534.657,-11.6403 459.238,-10.9584"/>
<polygon fill="midnightblue" stroke="midnightblue" points="458.937,-7.45646 448.914,-10.892 458.892,-14.4563 458.937,-7.45646"/>
</g>
<!-- Node25&#45;&gt;Node8 -->
<g id="edge77" class="edge"><title>Node25&#45;&gt;Node8</title>
<path fill="none" stroke="midnightblue" d="M727.38,-399.867C574.588,-396.241 134.853,-383.509 76.5,-356 40.6645,-339.106 15.5,-330.618 15.5,-291 15.5,-291 15.5,-291 15.5,-121 15.5,-88.8409 19.3684,-51.5688 22.0329,-29.7107"/>
<polygon fill="midnightblue" stroke="midnightblue" points="25.5369,-29.8993 23.3234,-19.5383 18.5926,-29.0183 25.5369,-29.8993"/>
</g>
<!-- Node25&#45;&gt;Node15 -->
<g id="edge76" class="edge"><title>Node25&#45;&gt;Node15</title>
<path fill="none" stroke="midnightblue" d="M831.638,-400.74C926.91,-399.37 1124.57,-392.114 1181.5,-356 1210.14,-337.829 1221.5,-324.921 1221.5,-291 1221.5,-291 1221.5,-291 1221.5,-121 1221.5,-83.1777 1192.66,-46.9402 1173.41,-26.9551"/>
<polygon fill="midnightblue" stroke="midnightblue" points="1175.64,-24.2429 1166.09,-19.6585 1170.7,-29.1988 1175.64,-24.2429"/>
</g>
<!-- Node25&#45;&gt;Node23 -->
<g id="edge79" class="edge"><title>Node25&#45;&gt;Node23</title>
<path fill="none" stroke="midnightblue" d="M727.352,-394.874C635.788,-382.833 452.732,-352.577 420.5,-300 377.972,-230.628 444.986,-302.564 548.5,-244 570.771,-231.4 591.442,-210.128 604.242,-195.366"/>
<polygon fill="midnightblue" stroke="midnightblue" points="607.064,-197.448 610.82,-187.541 601.706,-192.943 607.064,-197.448"/>
</g>
<!-- Node26 -->
<g id="node26" class="node"><title>Node26</title>
<g id="a_node26"><a xlink:href="_platform_8h.html" target="_top" xlink:title="AR6/Platform.h">
<polygon fill="white" stroke="black" points="455.5,-224.5 455.5,-243.5 539.5,-243.5 539.5,-224.5 455.5,-224.5"/>
<text text-anchor="middle" x="497.5" y="-231.5" font-family="Helvetica,sans-Serif" font-size="10.00">AR6/Platform.h</text>
</a>
</g>
</g>
<!-- Node25&#45;&gt;Node26 -->
<g id="edge35" class="edge"><title>Node25&#45;&gt;Node26</title>
<path fill="none" stroke="midnightblue" d="M727.122,-398.798C625.537,-393.988 409.727,-380.924 387.5,-356 365.019,-330.79 368.673,-308.044 387.5,-280 395.669,-267.832 428.642,-255.312 456.377,-246.577"/>
<polygon fill="midnightblue" stroke="midnightblue" points="457.766,-249.813 466.303,-243.538 455.716,-243.119 457.766,-249.813"/>
</g>
<!-- Node27 -->
<g id="node27" class="node"><title>Node27</title>
<g id="a_node27"><a xlink:href="_a_r_video_source_8h.html" target="_top" xlink:title="AR6/ARVideoSource.h">
<polygon fill="white" stroke="black" points="180,-280.5 180,-299.5 297,-299.5 297,-280.5 180,-280.5"/>
<text text-anchor="middle" x="238.5" y="-287.5" font-family="Helvetica,sans-Serif" font-size="10.00">AR6/ARVideoSource.h</text>
</a>
</g>
</g>
<!-- Node25&#45;&gt;Node27 -->
<g id="edge36" class="edge"><title>Node25&#45;&gt;Node27</title>
<path fill="none" stroke="midnightblue" d="M727.463,-398.311C628.862,-392.763 418.502,-378.638 349.5,-356 314.595,-344.548 278.716,-320.975 257.527,-305.587"/>
<polygon fill="midnightblue" stroke="midnightblue" points="259.508,-302.698 249.391,-299.552 255.337,-308.32 259.508,-302.698"/>
</g>
<!-- Node33 -->
<g id="node33" class="node"><title>Node33</title>
<g id="a_node33"><a xlink:href="_a_r_tracker2_d_8h.html" target="_top" xlink:title="AR6/ARTracker2D.h">
<polygon fill="white" stroke="black" points="573,-336.5 573,-355.5 680,-355.5 680,-336.5 573,-336.5"/>
<text text-anchor="middle" x="626.5" y="-343.5" font-family="Helvetica,sans-Serif" font-size="10.00">AR6/ARTracker2D.h</text>
</a>
</g>
</g>
<!-- Node25&#45;&gt;Node33 -->
<g id="edge47" class="edge"><title>Node25&#45;&gt;Node33</title>
<path fill="none" stroke="midnightblue" d="M755.257,-392.444C729.629,-383.399 689.015,-369.064 660.262,-358.916"/>
<polygon fill="midnightblue" stroke="midnightblue" points="661.225,-355.544 650.63,-355.516 658.895,-362.145 661.225,-355.544"/>
</g>
<!-- Node35 -->
<g id="node35" class="node"><title>Node35</title>
<g id="a_node35"><a xlink:href="_a_r_trackable2_d_8h.html" target="_top" xlink:title="AR6/ARTrackable2D.h">
<polygon fill="white" stroke="black" points="430,-280.5 430,-299.5 547,-299.5 547,-280.5 430,-280.5"/>
<text text-anchor="middle" x="488.5" y="-287.5" font-family="Helvetica,sans-Serif" font-size="10.00">AR6/ARTrackable2D.h</text>
</a>
</g>
</g>
<!-- Node25&#45;&gt;Node35 -->
<g id="edge58" class="edge"><title>Node25&#45;&gt;Node35</title>
<path fill="none" stroke="midnightblue" d="M727.353,-397.545C682.043,-392.855 615.678,-381.835 563.5,-356 539.267,-344.001 516.559,-322.286 502.614,-307.277"/>
<polygon fill="midnightblue" stroke="midnightblue" points="505.109,-304.817 495.814,-299.732 499.909,-309.504 505.109,-304.817"/>
</g>
<!-- Node37 -->
<g id="node37" class="node"><title>Node37</title>
<g id="a_node37"><a xlink:href="_a_r_tracker_square_8h.html" target="_top" xlink:title="AR6/ARTrackerSquare.h">
<polygon fill="white" stroke="black" points="717,-336.5 717,-355.5 842,-355.5 842,-336.5 717,-336.5"/>
<text text-anchor="middle" x="779.5" y="-343.5" font-family="Helvetica,sans-Serif" font-size="10.00">AR6/ARTrackerSquare.h</text>
</a>
</g>
</g>
<!-- Node25&#45;&gt;Node37 -->
<g id="edge59" class="edge"><title>Node25&#45;&gt;Node37</title>
<path fill="none" stroke="midnightblue" d="M779.5,-392.083C779.5,-385.006 779.5,-374.861 779.5,-365.986"/>
<polygon fill="midnightblue" stroke="midnightblue" points="783,-365.751 779.5,-355.751 776,-365.751 783,-365.751"/>
</g>
<!-- Node38 -->
<g id="node38" class="node"><title>Node38</title>
<g id="a_node38"><a xlink:href="_a_r_trackable_square_8h.html" target="_top" xlink:title="AR6/ARTrackableSquare.h">
<polygon fill="white" stroke="black" points="808,-280.5 808,-299.5 943,-299.5 943,-280.5 808,-280.5"/>
<text text-anchor="middle" x="875.5" y="-287.5" font-family="Helvetica,sans-Serif" font-size="10.00">AR6/ARTrackableSquare.h</text>
</a>
</g>
</g>
<!-- Node25&#45;&gt;Node38 -->
<g id="edge66" class="edge"><title>Node25&#45;&gt;Node38</title>
<path fill="none" stroke="midnightblue" d="M799.758,-392.497C815.51,-384.967 836.902,-372.593 850.5,-356 861.506,-342.57 868.031,-323.753 871.639,-309.819"/>
<polygon fill="midnightblue" stroke="midnightblue" points="875.093,-310.419 873.937,-299.887 868.273,-308.841 875.093,-310.419"/>
</g>
<!-- Node39 -->
<g id="node39" class="node"><title>Node39</title>
<g id="a_node39"><a xlink:href="_a_r_view_8h.html" target="_top" xlink:title="AR6/ARView.h">
<polygon fill="white" stroke="black" points="197,-336.5 197,-355.5 280,-355.5 280,-336.5 197,-336.5"/>
<text text-anchor="middle" x="238.5" y="-343.5" font-family="Helvetica,sans-Serif" font-size="10.00">AR6/ARView.h</text>
</a>
</g>
</g>
<!-- Node25&#45;&gt;Node39 -->
<g id="edge68" class="edge"><title>Node25&#45;&gt;Node39</title>
<path fill="none" stroke="midnightblue" d="M727.3,-396.81C639.622,-389.605 457.27,-373.906 303.5,-356 299.117,-355.49 294.572,-354.928 290.015,-354.341"/>
<polygon fill="midnightblue" stroke="midnightblue" points="290.448,-350.868 280.076,-353.03 289.532,-357.808 290.448,-350.868"/>
</g>
<!-- Node41 -->
<g id="node41" class="node"><title>Node41</title>
<polygon fill="white" stroke="#bfbfbf" points="1038,-336.5 1038,-355.5 1095,-355.5 1095,-336.5 1038,-336.5"/>
<text text-anchor="middle" x="1066.5" y="-343.5" font-family="Helvetica,sans-Serif" font-size="10.00">pthread.h</text>
</g>
<!-- Node25&#45;&gt;Node41 -->
<g id="edge78" class="edge"><title>Node25&#45;&gt;Node41</title>
<path fill="none" stroke="midnightblue" d="M827.713,-392.46C876.98,-383.65 955.665,-369.352 1023.5,-356 1024.95,-355.715 1026.43,-355.421 1027.92,-355.122"/>
<polygon fill="midnightblue" stroke="midnightblue" points="1028.74,-358.526 1037.84,-353.099 1027.34,-351.667 1028.74,-358.526"/>
</g>
<!-- Node42 -->
<g id="node42" class="node"><title>Node42</title>
<polygon fill="white" stroke="#bfbfbf" points="1113,-336.5 1113,-355.5 1154,-355.5 1154,-336.5 1113,-336.5"/>
<text text-anchor="middle" x="1133.5" y="-343.5" font-family="Helvetica,sans-Serif" font-size="10.00">string</text>
</g>
<!-- Node25&#45;&gt;Node42 -->
<g id="edge80" class="edge"><title>Node25&#45;&gt;Node42</title>
<path fill="none" stroke="midnightblue" d="M831.558,-396.255C893.919,-390.021 1001.62,-377.507 1103.15,-355.752"/>
<polygon fill="midnightblue" stroke="midnightblue" points="1103.93,-359.164 1112.95,-353.617 1102.44,-352.325 1103.93,-359.164"/>
</g>
<!-- Node27&#45;&gt;Node4 -->
<g id="edge38" class="edge"><title>Node27&#45;&gt;Node4</title>
<path fill="none" stroke="midnightblue" d="M238.975,-280.242C240.766,-257.018 249.203,-193.875 288.5,-168 324.385,-144.371 444.287,-131.671 511.611,-126.25"/>
<polygon fill="midnightblue" stroke="midnightblue" points="512.247,-129.711 521.943,-125.441 511.701,-122.732 512.247,-129.711"/>
</g>
<!-- Node27&#45;&gt;Node26 -->
<g id="edge37" class="edge"><title>Node27&#45;&gt;Node26</title>
<path fill="none" stroke="midnightblue" d="M279.539,-280.444C324.816,-271.004 397.727,-255.802 446.606,-245.611"/>
<polygon fill="midnightblue" stroke="midnightblue" points="447.578,-248.984 456.653,-243.516 446.149,-242.131 447.578,-248.984"/>
</g>
<!-- Node28 -->
<g id="node28" class="node"><title>Node28</title>
<g id="a_node28"><a xlink:href="video_8h.html" target="_top" xlink:title="AR6/ARVideo/video.h">
<polygon fill="white" stroke="black" points="324,-224.5 324,-243.5 437,-243.5 437,-224.5 324,-224.5"/>
<text text-anchor="middle" x="380.5" y="-231.5" font-family="Helvetica,sans-Serif" font-size="10.00">AR6/ARVideo/video.h</text>
</a>
</g>
</g>
<!-- Node27&#45;&gt;Node28 -->
<g id="edge39" class="edge"><title>Node27&#45;&gt;Node28</title>
<path fill="none" stroke="midnightblue" d="M261,-280.444C284.577,-271.478 321.822,-257.314 348.464,-247.183"/>
<polygon fill="midnightblue" stroke="midnightblue" points="350.002,-250.342 358.105,-243.516 347.514,-243.8 350.002,-250.342"/>
</g>
<!-- Node32 -->
<g id="node32" class="node"><title>Node32</title>
<polygon fill="white" stroke="#bfbfbf" points="261.5,-224.5 261.5,-243.5 305.5,-243.5 305.5,-224.5 261.5,-224.5"/>
<text text-anchor="middle" x="283.5" y="-231.5" font-family="Helvetica,sans-Serif" font-size="10.00">mutex</text>
</g>
<!-- Node27&#45;&gt;Node32 -->
<g id="edge46" class="edge"><title>Node27&#45;&gt;Node32</title>
<path fill="none" stroke="midnightblue" d="M245.931,-280.083C252.353,-272.377 261.806,-261.033 269.622,-251.653"/>
<polygon fill="midnightblue" stroke="midnightblue" points="272.494,-253.674 276.207,-243.751 267.117,-249.193 272.494,-253.674"/>
</g>
<!-- Node28&#45;&gt;Node4 -->
<g id="edge40" class="edge"><title>Node28&#45;&gt;Node4</title>
<path fill="none" stroke="midnightblue" d="M379.419,-224.153C378.254,-210.315 378.195,-183.531 392.5,-168 422.64,-135.276 473.925,-125.401 511.533,-122.862"/>
<polygon fill="midnightblue" stroke="midnightblue" points="511.946,-126.345 521.749,-122.328 511.58,-119.355 511.946,-126.345"/>
</g>
<!-- Node29 -->
<g id="node29" class="node"><title>Node29</title>
<g id="a_node29"><a xlink:href="video_config_8h.html" target="_top" xlink:title="AR6/ARVideo/videoConfig.h">
<polygon fill="white" stroke="black" points="1052,-112.5 1052,-131.5 1193,-131.5 1193,-112.5 1052,-112.5"/>
<text text-anchor="middle" x="1122.5" y="-119.5" font-family="Helvetica,sans-Serif" font-size="10.00">AR6/ARVideo/videoConfig.h</text>
</a>
</g>
</g>
<!-- Node28&#45;&gt;Node29 -->
<g id="edge41" class="edge"><title>Node28&#45;&gt;Node29</title>
<path fill="none" stroke="midnightblue" d="M437.347,-224.945C440.44,-224.601 443.507,-224.283 446.5,-224 484.163,-220.441 1100.47,-215.448 1126.5,-188 1138.02,-175.854 1134.88,-156.015 1130.18,-141.444"/>
<polygon fill="midnightblue" stroke="midnightblue" points="1133.42,-140.117 1126.67,-131.951 1126.85,-142.544 1133.42,-140.117"/>
</g>
<!-- Node30 -->
<g id="node30" class="node"><title>Node30</title>
<g id="a_node30"><a xlink:href="video_luma_8h.html" target="_top" xlink:title="AR6/ARVideo/videoLuma.h">
<polygon fill="white" stroke="black" points="402,-168.5 402,-187.5 539,-187.5 539,-168.5 402,-168.5"/>
<text text-anchor="middle" x="470.5" y="-175.5" font-family="Helvetica,sans-Serif" font-size="10.00">AR6/ARVideo/videoLuma.h</text>
</a>
</g>
</g>
<!-- Node28&#45;&gt;Node30 -->
<g id="edge43" class="edge"><title>Node28&#45;&gt;Node30</title>
<path fill="none" stroke="midnightblue" d="M394.96,-224.324C409,-215.9 430.548,-202.971 447.043,-193.074"/>
<polygon fill="midnightblue" stroke="midnightblue" points="449.302,-195.801 456.076,-187.655 445.7,-189.798 449.302,-195.801"/>
</g>
<!-- Node31 -->
<g id="node31" class="node"><title>Node31</title>
<polygon fill="white" stroke="#bfbfbf" points="297.5,-168.5 297.5,-187.5 345.5,-187.5 345.5,-168.5 297.5,-168.5"/>
<text text-anchor="middle" x="321.5" y="-175.5" font-family="Helvetica,sans-Serif" font-size="10.00">limits.h</text>
</g>
<!-- Node28&#45;&gt;Node31 -->
<g id="edge45" class="edge"><title>Node28&#45;&gt;Node31</title>
<path fill="none" stroke="midnightblue" d="M371.021,-224.324C362.299,-216.341 349.157,-204.313 338.602,-194.653"/>
<polygon fill="midnightblue" stroke="midnightblue" points="340.892,-192.004 331.152,-187.834 336.166,-197.167 340.892,-192.004"/>
</g>
<!-- Node29&#45;&gt;Node9 -->
<g id="edge42" class="edge"><title>Node29&#45;&gt;Node9</title>
<path fill="none" stroke="midnightblue" d="M1127.75,-112.103C1134.91,-98.6711 1145.56,-72.9825 1133.5,-56 1116.81,-32.5081 1086.92,-21.1784 1060.1,-15.7581"/>
<polygon fill="midnightblue" stroke="midnightblue" points="1060.47,-12.2685 1050.01,-13.957 1059.24,-19.1596 1060.47,-12.2685"/>
</g>
<!-- Node30&#45;&gt;Node4 -->
<g id="edge44" class="edge"><title>Node30&#45;&gt;Node4</title>
<path fill="none" stroke="midnightblue" d="M484.639,-168.324C498.366,-159.9 519.436,-146.971 535.564,-137.074"/>
<polygon fill="midnightblue" stroke="midnightblue" points="537.704,-139.868 544.396,-131.655 534.043,-133.902 537.704,-139.868"/>
</g>
<!-- Node34 -->
<g id="node34" class="node"><title>Node34</title>
<g id="a_node34"><a xlink:href="_a_r_tracker_8h.html" target="_top" xlink:title="AR6/ARTracker.h">
<polygon fill="white" stroke="black" points="618,-280.5 618,-299.5 713,-299.5 713,-280.5 618,-280.5"/>
<text text-anchor="middle" x="665.5" y="-287.5" font-family="Helvetica,sans-Serif" font-size="10.00">AR6/ARTracker.h</text>
</a>
</g>
</g>
<!-- Node33&#45;&gt;Node34 -->
<g id="edge48" class="edge"><title>Node33&#45;&gt;Node34</title>
<path fill="none" stroke="midnightblue" d="M632.94,-336.083C638.449,-328.455 646.531,-317.264 653.265,-307.941"/>
<polygon fill="midnightblue" stroke="midnightblue" points="656.162,-309.907 659.18,-299.751 650.487,-305.809 656.162,-309.907"/>
</g>
<!-- Node33&#45;&gt;Node35 -->
<g id="edge53" class="edge"><title>Node33&#45;&gt;Node35</title>
<path fill="none" stroke="midnightblue" d="M604.633,-336.444C581.721,-327.478 545.525,-313.314 519.634,-303.183"/>
<polygon fill="midnightblue" stroke="midnightblue" points="520.852,-299.901 510.264,-299.516 518.301,-306.42 520.852,-299.901"/>
</g>
<!-- Node36 -->
<g id="node36" class="node"><title>Node36</title>
<polygon fill="white" stroke="#bfbfbf" points="565,-280.5 565,-299.5 600,-299.5 600,-280.5 565,-280.5"/>
<text text-anchor="middle" x="582.5" y="-287.5" font-family="Helvetica,sans-Serif" font-size="10.00">map</text>
</g>
<!-- Node33&#45;&gt;Node36 -->
<g id="edge56" class="edge"><title>Node33&#45;&gt;Node36</title>
<path fill="none" stroke="midnightblue" d="M619.234,-336.083C612.955,-328.377 603.712,-317.033 596.069,-307.653"/>
<polygon fill="midnightblue" stroke="midnightblue" points="598.661,-305.293 589.631,-299.751 593.234,-309.714 598.661,-305.293"/>
</g>
<!-- Node34&#45;&gt;Node3 -->
<g id="edge51" class="edge"><title>Node34&#45;&gt;Node3</title>
<path fill="none" stroke="midnightblue" d="M690.219,-280.444C716.348,-271.399 757.759,-257.064 787.076,-246.916"/>
<polygon fill="midnightblue" stroke="midnightblue" points="788.592,-250.095 796.897,-243.516 786.302,-243.48 788.592,-250.095"/>
</g>
<!-- Node34&#45;&gt;Node4 -->
<g id="edge50" class="edge"><title>Node34&#45;&gt;Node4</title>
<path fill="none" stroke="midnightblue" d="M657.483,-280.375C642.188,-263.595 608.415,-224.955 586.5,-188 577.598,-172.989 569.955,-154.627 564.915,-141.252"/>
<polygon fill="midnightblue" stroke="midnightblue" points="568.166,-139.953 561.455,-131.755 561.589,-142.349 568.166,-139.953"/>
</g>
<!-- Node34&#45;&gt;Node23 -->
<g id="edge52" class="edge"><title>Node34&#45;&gt;Node23</title>
<path fill="none" stroke="midnightblue" d="M661.734,-280.368C653.917,-262.456 635.794,-220.923 625.332,-196.948"/>
<polygon fill="midnightblue" stroke="midnightblue" points="628.456,-195.357 621.249,-187.591 622.041,-198.157 628.456,-195.357"/>
</g>
<!-- Node34&#45;&gt;Node26 -->
<g id="edge49" class="edge"><title>Node34&#45;&gt;Node26</title>
<path fill="none" stroke="midnightblue" d="M638.88,-280.444C610.494,-271.32 565.363,-256.813 533.747,-246.651"/>
<polygon fill="midnightblue" stroke="midnightblue" points="534.587,-243.244 523.996,-243.516 532.445,-249.909 534.587,-243.244"/>
</g>
<!-- Node35&#45;&gt;Node3 -->
<g id="edge54" class="edge"><title>Node35&#45;&gt;Node3</title>
<path fill="none" stroke="midnightblue" d="M541.265,-280.444C600.417,-270.851 696.255,-255.31 759.083,-245.122"/>
<polygon fill="midnightblue" stroke="midnightblue" points="759.946,-248.528 769.256,-243.472 758.825,-241.618 759.946,-248.528"/>
</g>
<!-- Node35&#45;&gt;Node26 -->
<g id="edge55" class="edge"><title>Node35&#45;&gt;Node26</title>
<path fill="none" stroke="midnightblue" d="M489.986,-280.083C491.179,-272.927 492.894,-262.635 494.385,-253.691"/>
<polygon fill="midnightblue" stroke="midnightblue" points="497.85,-254.19 496.041,-243.751 490.945,-253.04 497.85,-254.19"/>
</g>
<!-- Node37&#45;&gt;Node2 -->
<g id="edge64" class="edge"><title>Node37&#45;&gt;Node2</title>
<path fill="none" stroke="midnightblue" d="M826.719,-336.444C879.249,-326.925 964.11,-311.547 1020.35,-301.356"/>
<polygon fill="midnightblue" stroke="midnightblue" points="1021.29,-304.743 1030.5,-299.516 1020.04,-297.856 1021.29,-304.743"/>
</g>
<!-- Node37&#45;&gt;Node3 -->
<g id="edge61" class="edge"><title>Node37&#45;&gt;Node3</title>
<path fill="none" stroke="midnightblue" d="M781.462,-336.415C784.464,-323.811 790.681,-299.665 798.5,-280 802.187,-270.726 807.139,-260.809 811.503,-252.651"/>
<polygon fill="midnightblue" stroke="midnightblue" points="814.655,-254.183 816.411,-243.735 808.523,-250.808 814.655,-254.183"/>
</g>
<!-- Node37&#45;&gt;Node23 -->
<g id="edge65" class="edge"><title>Node37&#45;&gt;Node23</title>
<path fill="none" stroke="midnightblue" d="M772.181,-336.411C761.36,-323.803 740.339,-299.652 721.5,-280 691.67,-248.883 655.206,-214.197 634.335,-194.644"/>
<polygon fill="midnightblue" stroke="midnightblue" points="636.597,-191.968 626.9,-187.701 631.82,-197.084 636.597,-191.968"/>
</g>
<!-- Node37&#45;&gt;Node34 -->
<g id="edge60" class="edge"><title>Node37&#45;&gt;Node34</title>
<path fill="none" stroke="midnightblue" d="M761.436,-336.444C742.925,-327.675 713.919,-313.935 692.645,-303.858"/>
<polygon fill="midnightblue" stroke="midnightblue" points="694.015,-300.634 683.479,-299.516 691.018,-306.96 694.015,-300.634"/>
</g>
<!-- Node37&#45;&gt;Node38 -->
<g id="edge62" class="edge"><title>Node37&#45;&gt;Node38</title>
<path fill="none" stroke="midnightblue" d="M794.924,-336.324C810.04,-327.822 833.315,-314.729 850.971,-304.797"/>
<polygon fill="midnightblue" stroke="midnightblue" points="853.114,-307.608 860.114,-299.655 849.683,-301.507 853.114,-307.608"/>
</g>
<!-- Node38&#45;&gt;Node3 -->
<g id="edge63" class="edge"><title>Node38&#45;&gt;Node3</title>
<path fill="none" stroke="midnightblue" d="M866.583,-280.083C858.72,-272.22 847.069,-260.569 837.581,-251.081"/>
<polygon fill="midnightblue" stroke="midnightblue" points="839.797,-248.347 830.251,-243.751 834.847,-253.297 839.797,-248.347"/>
</g>
<!-- Node39&#45;&gt;Node4 -->
<g id="edge71" class="edge"><title>Node39&#45;&gt;Node4</title>
<path fill="none" stroke="midnightblue" d="M214.765,-336.391C170.663,-318.937 82.9502,-276.54 110.5,-224 130.825,-185.24 150.593,-183.559 191.5,-168 249.025,-146.12 426.279,-131.771 511.626,-125.946"/>
<polygon fill="midnightblue" stroke="midnightblue" points="512.067,-129.424 521.81,-125.262 511.598,-122.44 512.067,-129.424"/>
</g>
<!-- Node39&#45;&gt;Node26 -->
<g id="edge69" class="edge"><title>Node39&#45;&gt;Node26</title>
<path fill="none" stroke="midnightblue" d="M250.969,-336.376C270.982,-322.845 311.855,-296.472 349.5,-280 382.547,-265.54 421.658,-253.866 451.372,-246.035"/>
<polygon fill="midnightblue" stroke="midnightblue" points="452.262,-249.42 461.067,-243.528 450.509,-242.643 452.262,-249.42"/>
</g>
<!-- Node39&#45;&gt;Node27 -->
<g id="edge70" class="edge"><title>Node39&#45;&gt;Node27</title>
<path fill="none" stroke="midnightblue" d="M238.5,-336.083C238.5,-329.006 238.5,-318.861 238.5,-309.986"/>
<polygon fill="midnightblue" stroke="midnightblue" points="242,-309.751 238.5,-299.751 235,-309.751 242,-309.751"/>
</g>
<!-- Node40 -->
<g id="node40" class="node"><title>Node40</title>
<g id="a_node40"><a xlink:href="arg_8h.html" target="_top" xlink:title="A collection of useful graphics routines for ARToolKit. ">
<polygon fill="white" stroke="black" points="119.5,-224.5 119.5,-243.5 205.5,-243.5 205.5,-224.5 119.5,-224.5"/>
<text text-anchor="middle" x="162.5" y="-231.5" font-family="Helvetica,sans-Serif" font-size="10.00">AR6/ARG/arg.h</text>
</a>
</g>
</g>
<!-- Node39&#45;&gt;Node40 -->
<g id="edge72" class="edge"><title>Node39&#45;&gt;Node40</title>
<path fill="none" stroke="midnightblue" d="M216.678,-336.498C201.125,-329.237 181.156,-317.212 170.5,-300 161.99,-286.254 160.466,-267.726 160.792,-253.968"/>
<polygon fill="midnightblue" stroke="midnightblue" points="164.3,-253.93 161.389,-243.743 157.312,-253.522 164.3,-253.93"/>
</g>
<!-- Node40&#45;&gt;Node4 -->
<g id="edge73" class="edge"><title>Node40&#45;&gt;Node4</title>
<path fill="none" stroke="midnightblue" d="M167.163,-224.496C175.543,-210.129 194.622,-181.315 219.5,-168 269.032,-141.49 430.599,-129.582 511.483,-125.176"/>
<polygon fill="midnightblue" stroke="midnightblue" points="512.07,-128.649 521.872,-124.627 511.701,-121.659 512.07,-128.649"/>
</g>
</g>
</svg>
