<?xml version="1.0" encoding="UTF-8" standalone="no"?>
<!DOCTYPE svg PUBLIC "-//W3C//DTD SVG 1.1//EN"
 "http://www.w3.org/Graphics/SVG/1.1/DTD/svg11.dtd">
<!-- Generated by graphviz version 2.38.0 (20140413.2041)
 -->
<!-- Title: arwStartRunningStereoB Pages: 1 -->
<!--zoomable 1054 -->
<svg id="main" version="1.1" xmlns="http://www.w3.org/2000/svg" xmlns:xlink="http://www.w3.org/1999/xlink" xml:space="preserve" onload="init(evt)">
<style type="text/css"><![CDATA[
.edge:hover path { stroke: red; }
.edge:hover polygon { stroke: red; fill: red; }
]]></style>
<script type="text/javascript"><![CDATA[
var edges = document.getElementsByTagName('g');
if (edges && edges.length) {
  for (var i=0;i<edges.length;i++) {
    if (edges[i].id.substr(0,4)=='edge') {
      edges[i].setAttribute('class','edge');
    }
  }
}
]]></script>
        <defs>
                <circle id="rim" cx="0" cy="0" r="7"/>
                <circle id="rim2" cx="0" cy="0" r="3.5"/>
                <g id="zoomPlus">
                        <use xlink:href="#rim" fill="#404040">
                                <set attributeName="fill" to="#808080" begin="zoomplus.mouseover" end="zoomplus.mouseout"/>
                        </use>
                        <path d="M-4,0h8M0,-4v8" fill="none" stroke="white" stroke-width="1.5" pointer-events="none"/>
                </g>
                <g id="zoomMin">
                        <use xlink:href="#rim" fill="#404040">
                                <set attributeName="fill" to="#808080" begin="zoomminus.mouseover" end="zoomminus.mouseout"/>
                        </use>
                        <path d="M-4,0h8" fill="none" stroke="white" stroke-width="1.5" pointer-events="none"/>
                </g>
                <g id="dirArrow">
                        <path fill="none" stroke="white" stroke-width="1.5" d="M0,-3.0v7 M-2.5,-0.5L0,-3.0L2.5,-0.5"/>
                </g>
               <g id="resetDef">
                       <use xlink:href="#rim2" fill="#404040">
                               <set attributeName="fill" to="#808080" begin="reset.mouseover" end="reset.mouseout"/>
                       </use>
               </g>
        </defs>

<script type="text/javascript">
var viewWidth = 870;
var viewHeight = 1054;
var sectionId = 'dynsection-42';
</script>
<script xlink:href="svgpan.js"/>
<svg id="graph" class="graph">
<g id="viewport">
<title>arwStartRunningStereoB</title>
<polygon fill="white" stroke="none" points="-4,4 -4,-1050 866,-1050 866,4 -4,4"/>
<!-- Node1 -->
<g id="node1" class="node"><title>Node1</title>
<polygon fill="#bfbfbf" stroke="black" points="0,-519.5 0,-538.5 125,-538.5 125,-519.5 0,-519.5"/>
<text text-anchor="middle" x="62.5" y="-526.5" font-family="Helvetica,sans-Serif" font-size="10.00">arwStartRunningStereoB</text>
</g>
<!-- Node2 -->
<g id="node2" class="node"><title>Node2</title>
<g id="a_node2"><a xlink:href="class_a_r_controller.html#ab63641c43919f8297ba38a0ee9ce3253" target="_top" xlink:title="ARController::setProjection\lNearPlane">
<polygon fill="white" stroke="black" points="161,-563 161,-593 297,-593 297,-563 161,-563"/>
<text text-anchor="start" x="169" y="-581" font-family="Helvetica,sans-Serif" font-size="10.00">ARController::setProjection</text>
<text text-anchor="middle" x="229" y="-570" font-family="Helvetica,sans-Serif" font-size="10.00">NearPlane</text>
</a>
</g>
</g>
<!-- Node1&#45;&gt;Node2 -->
<g id="edge1" class="edge"><title>Node1&#45;&gt;Node2</title>
<path fill="none" stroke="midnightblue" d="M95.6078,-538.564C116.07,-544.659 143.228,-552.749 167.619,-560.014"/>
<polygon fill="midnightblue" stroke="midnightblue" points="166.936,-563.463 177.519,-562.963 168.934,-556.754 166.936,-563.463"/>
</g>
<!-- Node4 -->
<g id="node4" class="node"><title>Node4</title>
<g id="a_node4"><a xlink:href="class_a_r_controller.html#a15aa6c50cd138d4131bbed2517498927" target="_top" xlink:title="ARController::setProjection\lFarPlane">
<polygon fill="white" stroke="black" points="161,-514 161,-544 297,-544 297,-514 161,-514"/>
<text text-anchor="start" x="169" y="-532" font-family="Helvetica,sans-Serif" font-size="10.00">ARController::setProjection</text>
<text text-anchor="middle" x="229" y="-521" font-family="Helvetica,sans-Serif" font-size="10.00">FarPlane</text>
</a>
</g>
</g>
<!-- Node1&#45;&gt;Node4 -->
<g id="edge3" class="edge"><title>Node1&#45;&gt;Node4</title>
<path fill="none" stroke="midnightblue" d="M125.222,-529C133.609,-529 142.301,-529 150.916,-529"/>
<polygon fill="midnightblue" stroke="midnightblue" points="150.973,-532.5 160.973,-529 150.973,-525.5 150.973,-532.5"/>
</g>
<!-- Node6 -->
<g id="node6" class="node"><title>Node6</title>
<g id="a_node6"><a xlink:href="class_a_r_controller.html#abd0732b11285bc113134d1b891a361f2" target="_top" xlink:title="Start stereo video capture and marker detection. ">
<polygon fill="white" stroke="black" points="162,-375 162,-405 296,-405 296,-375 162,-375"/>
<text text-anchor="start" x="170" y="-393" font-family="Helvetica,sans-Serif" font-size="10.00">ARController::startRunning</text>
<text text-anchor="middle" x="229" y="-382" font-family="Helvetica,sans-Serif" font-size="10.00">Stereo</text>
</a>
</g>
</g>
<!-- Node1&#45;&gt;Node6 -->
<g id="edge5" class="edge"><title>Node1&#45;&gt;Node6</title>
<path fill="none" stroke="midnightblue" d="M74.8068,-519.446C100.923,-497.378 165.983,-442.404 202.357,-411.668"/>
<polygon fill="midnightblue" stroke="midnightblue" points="204.709,-414.263 210.089,-405.135 200.191,-408.916 204.709,-414.263"/>
</g>
<!-- Node3 -->
<g id="node3" class="node"><title>Node3</title>
<g id="a_node3"><a xlink:href="class_a_r_controller.html#a6107f783d52887d655bd571ac906421c" target="_top" xlink:title="ARController::projection\lNearPlane">
<polygon fill="white" stroke="black" points="341.5,-563 341.5,-593 462.5,-593 462.5,-563 341.5,-563"/>
<text text-anchor="start" x="349.5" y="-581" font-family="Helvetica,sans-Serif" font-size="10.00">ARController::projection</text>
<text text-anchor="middle" x="402" y="-570" font-family="Helvetica,sans-Serif" font-size="10.00">NearPlane</text>
</a>
</g>
</g>
<!-- Node2&#45;&gt;Node3 -->
<g id="edge2" class="edge"><title>Node2&#45;&gt;Node3</title>
<path fill="none" stroke="midnightblue" d="M297.093,-578C308.268,-578 319.884,-578 331.127,-578"/>
<polygon fill="midnightblue" stroke="midnightblue" points="331.324,-581.5 341.324,-578 331.324,-574.5 331.324,-581.5"/>
</g>
<!-- Node5 -->
<g id="node5" class="node"><title>Node5</title>
<g id="a_node5"><a xlink:href="class_a_r_controller.html#a290ba1cd38c6a7e38104af03cfe33c88" target="_top" xlink:title="ARController::projection\lFarPlane">
<polygon fill="white" stroke="black" points="341.5,-514 341.5,-544 462.5,-544 462.5,-514 341.5,-514"/>
<text text-anchor="start" x="349.5" y="-532" font-family="Helvetica,sans-Serif" font-size="10.00">ARController::projection</text>
<text text-anchor="middle" x="402" y="-521" font-family="Helvetica,sans-Serif" font-size="10.00">FarPlane</text>
</a>
</g>
</g>
<!-- Node4&#45;&gt;Node5 -->
<g id="edge4" class="edge"><title>Node4&#45;&gt;Node5</title>
<path fill="none" stroke="midnightblue" d="M297.093,-529C308.268,-529 319.884,-529 331.127,-529"/>
<polygon fill="midnightblue" stroke="midnightblue" points="331.324,-532.5 341.324,-529 331.324,-525.5 331.324,-532.5"/>
</g>
<!-- Node7 -->
<g id="node7" class="node"><title>Node7</title>
<g id="a_node7"><a xlink:href="class_a_r_controller.html#a6e45b81b71ac241dbb8fb2327751910d" target="_top" xlink:title="ARController::setError">
<polygon fill="white" stroke="black" points="345.5,-475.5 345.5,-494.5 458.5,-494.5 458.5,-475.5 345.5,-475.5"/>
<text text-anchor="middle" x="402" y="-482.5" font-family="Helvetica,sans-Serif" font-size="10.00">ARController::setError</text>
</a>
</g>
</g>
<!-- Node6&#45;&gt;Node7 -->
<g id="edge6" class="edge"><title>Node6&#45;&gt;Node7</title>
<path fill="none" stroke="midnightblue" d="M246.598,-405.268C265.978,-422.339 299.648,-449.721 333,-466 337.699,-468.293 342.72,-470.35 347.825,-472.185"/>
<polygon fill="midnightblue" stroke="midnightblue" points="347.091,-475.629 357.684,-475.445 349.288,-468.983 347.091,-475.629"/>
</g>
<!-- Node8 -->
<g id="node8" class="node"><title>Node8</title>
<g id="a_node8"><a xlink:href="param_8h.html#a493e85cce36ae10cd5d536bdf918e284" target="_top" xlink:title="arParamLoadExt">
<polygon fill="white" stroke="black" points="357.5,-437.5 357.5,-456.5 446.5,-456.5 446.5,-437.5 357.5,-437.5"/>
<text text-anchor="middle" x="402" y="-444.5" font-family="Helvetica,sans-Serif" font-size="10.00">arParamLoadExt</text>
</a>
</g>
</g>
<!-- Node6&#45;&gt;Node8 -->
<g id="edge7" class="edge"><title>Node6&#45;&gt;Node8</title>
<path fill="none" stroke="midnightblue" d="M268.382,-405.001C287.647,-412.315 311.42,-421.017 333,-428 340.136,-430.309 347.745,-432.6 355.194,-434.749"/>
<polygon fill="midnightblue" stroke="midnightblue" points="354.265,-438.124 364.841,-437.482 356.174,-431.389 354.265,-438.124"/>
</g>
<!-- Node9 -->
<g id="node9" class="node"><title>Node9</title>
<g id="a_node9"><a xlink:href="param_8h.html#ae71e9b1fea9d1aaa587da849ba367047" target="_top" xlink:title="arParamLoadExtFromBuffer">
<polygon fill="white" stroke="black" points="333,-399.5 333,-418.5 471,-418.5 471,-399.5 333,-399.5"/>
<text text-anchor="middle" x="402" y="-406.5" font-family="Helvetica,sans-Serif" font-size="10.00">arParamLoadExtFromBuffer</text>
</a>
</g>
</g>
<!-- Node6&#45;&gt;Node9 -->
<g id="edge8" class="edge"><title>Node6&#45;&gt;Node9</title>
<path fill="none" stroke="midnightblue" d="M296.113,-397.346C304.853,-398.317 313.879,-399.32 322.798,-400.311"/>
<polygon fill="midnightblue" stroke="midnightblue" points="322.477,-403.797 332.802,-401.422 323.25,-396.839 322.477,-403.797"/>
</g>
<!-- Node10 -->
<g id="node10" class="node"><title>Node10</title>
<g id="a_node10"><a xlink:href="param_8h.html#a753537ffe3630e6c8691d65afe150911" target="_top" xlink:title="arParamDispExt">
<polygon fill="white" stroke="black" points="357.5,-361.5 357.5,-380.5 446.5,-380.5 446.5,-361.5 357.5,-361.5"/>
<text text-anchor="middle" x="402" y="-368.5" font-family="Helvetica,sans-Serif" font-size="10.00">arParamDispExt</text>
</a>
</g>
</g>
<!-- Node6&#45;&gt;Node10 -->
<g id="edge9" class="edge"><title>Node6&#45;&gt;Node10</title>
<path fill="none" stroke="midnightblue" d="M296.113,-382.654C312.997,-380.778 330.946,-378.784 347.133,-376.985"/>
<polygon fill="midnightblue" stroke="midnightblue" points="347.935,-380.418 357.487,-375.835 347.162,-373.461 347.935,-380.418"/>
</g>
<!-- Node11 -->
<g id="node11" class="node"><title>Node11</title>
<g id="a_node11"><a xlink:href="class_a_r_video_source.html#aa385c7136b3d45c6efaa6604bf0a6d9a" target="_top" xlink:title="Sets initial parameters which will be used when the video source is opened. ">
<polygon fill="white" stroke="black" points="336,-323.5 336,-342.5 468,-342.5 468,-323.5 336,-323.5"/>
<text text-anchor="middle" x="402" y="-330.5" font-family="Helvetica,sans-Serif" font-size="10.00">ARVideoSource::configure</text>
</a>
</g>
</g>
<!-- Node6&#45;&gt;Node11 -->
<g id="edge10" class="edge"><title>Node6&#45;&gt;Node11</title>
<path fill="none" stroke="midnightblue" d="M268.382,-374.999C287.647,-367.685 311.42,-358.983 333,-352 340.136,-349.691 347.745,-347.4 355.194,-345.251"/>
<polygon fill="midnightblue" stroke="midnightblue" points="356.174,-348.611 364.841,-342.518 354.265,-341.876 356.174,-348.611"/>
</g>
<!-- Node12 -->
<g id="node12" class="node"><title>Node12</title>
<g id="a_node12"><a xlink:href="class_a_r_video_source.html#ad6e81f0a07ddf8e844dfb867bc94de4b" target="_top" xlink:title="Opens the video source. ">
<polygon fill="white" stroke="black" points="345.5,-285.5 345.5,-304.5 458.5,-304.5 458.5,-285.5 345.5,-285.5"/>
<text text-anchor="middle" x="402" y="-292.5" font-family="Helvetica,sans-Serif" font-size="10.00">ARVideoSource::open</text>
</a>
</g>
</g>
<!-- Node6&#45;&gt;Node12 -->
<g id="edge11" class="edge"><title>Node6&#45;&gt;Node12</title>
<path fill="none" stroke="midnightblue" d="M246.598,-374.732C265.978,-357.661 299.648,-330.279 333,-314 337.699,-311.707 342.72,-309.65 347.825,-307.815"/>
<polygon fill="midnightblue" stroke="midnightblue" points="349.288,-311.017 357.684,-304.555 347.091,-304.371 349.288,-311.017"/>
</g>
<!-- Node50 -->
<g id="node50" class="node"><title>Node50</title>
<g id="a_node50"><a xlink:href="class_a_r_video_source.html#a1d4e4cebdf413918427c39aa99a197cc" target="_top" xlink:title="ARVideoSource::getError">
<polygon fill="white" stroke="black" points="338.5,-247.5 338.5,-266.5 465.5,-266.5 465.5,-247.5 338.5,-247.5"/>
<text text-anchor="middle" x="402" y="-254.5" font-family="Helvetica,sans-Serif" font-size="10.00">ARVideoSource::getError</text>
</a>
</g>
</g>
<!-- Node6&#45;&gt;Node50 -->
<g id="edge49" class="edge"><title>Node6&#45;&gt;Node50</title>
<path fill="none" stroke="midnightblue" d="M239.429,-374.948C255.557,-350.46 290.815,-302.112 333,-276 336.42,-273.883 340.08,-271.997 343.863,-270.317"/>
<polygon fill="midnightblue" stroke="midnightblue" points="345.424,-273.464 353.452,-266.551 342.865,-266.949 345.424,-273.464"/>
</g>
<!-- Node13 -->
<g id="node13" class="node"><title>Node13</title>
<g id="a_node13"><a xlink:href="video_8h.html#a6627f0eff034d0a9d8d3400648f90efd" target="_top" xlink:title="ar2VideoOpenAsync">
<polygon fill="white" stroke="black" points="521,-988.5 521,-1007.5 627,-1007.5 627,-988.5 521,-988.5"/>
<text text-anchor="middle" x="574" y="-995.5" font-family="Helvetica,sans-Serif" font-size="10.00">ar2VideoOpenAsync</text>
</a>
</g>
</g>
<!-- Node12&#45;&gt;Node13 -->
<g id="edge12" class="edge"><title>Node12&#45;&gt;Node13</title>
<path fill="none" stroke="midnightblue" d="M458.681,-303.886C463.369,-306.497 467.606,-309.809 471,-314 510.938,-363.316 488.614,-823.262 507,-884 518.189,-920.964 543.337,-958.769 559.158,-980.219"/>
<polygon fill="midnightblue" stroke="midnightblue" points="556.483,-982.485 565.299,-988.361 562.071,-978.27 556.483,-982.485"/>
</g>
<!-- Node16 -->
<g id="node16" class="node"><title>Node16</title>
<g id="a_node16"><a xlink:href="video_8h.html#a6e7d521b174901d784ce04190fccc9d9" target="_top" xlink:title="ar2VideoOpen">
<polygon fill="white" stroke="black" points="535,-855.5 535,-874.5 613,-874.5 613,-855.5 535,-855.5"/>
<text text-anchor="middle" x="574" y="-862.5" font-family="Helvetica,sans-Serif" font-size="10.00">ar2VideoOpen</text>
</a>
</g>
</g>
<!-- Node12&#45;&gt;Node16 -->
<g id="edge15" class="edge"><title>Node12&#45;&gt;Node16</title>
<path fill="none" stroke="midnightblue" d="M458.525,-304.014C463.244,-306.6 467.53,-309.871 471,-314 522.867,-375.721 489.653,-596.268 507,-675 521.17,-739.312 550.28,-811.982 564.629,-845.793"/>
<polygon fill="midnightblue" stroke="midnightblue" points="561.569,-847.538 568.731,-855.346 568.001,-844.776 561.569,-847.538"/>
</g>
<!-- Node22 -->
<g id="node22" class="node"><title>Node22</title>
<g id="a_node22"><a xlink:href="video_8h.html#ae1b2a07ba0242e961598ef0c617aa610" target="_top" xlink:title="ar2VideoGetSize">
<polygon fill="white" stroke="black" points="529,-646.5 529,-665.5 619,-665.5 619,-646.5 529,-646.5"/>
<text text-anchor="middle" x="574" y="-653.5" font-family="Helvetica,sans-Serif" font-size="10.00">ar2VideoGetSize</text>
</a>
</g>
</g>
<!-- Node12&#45;&gt;Node22 -->
<g id="edge21" class="edge"><title>Node12&#45;&gt;Node22</title>
<path fill="none" stroke="midnightblue" d="M458.485,-304.509C463.149,-307.003 467.435,-310.118 471,-314 529.13,-377.307 481.728,-421.853 507,-504 522.294,-553.714 548.905,-609.022 563.219,-637.226"/>
<polygon fill="midnightblue" stroke="midnightblue" points="560.212,-639.032 567.893,-646.33 566.439,-635.836 560.212,-639.032"/>
</g>
<!-- Node29 -->
<g id="node29" class="node"><title>Node29</title>
<g id="a_node29"><a xlink:href="class_a_r_video_source.html#ae67083e64b2b3c6d7aa6d8cbe33ef95f" target="_top" xlink:title="Closes the video source. ">
<polygon fill="white" stroke="black" points="516,-475.5 516,-494.5 632,-494.5 632,-475.5 516,-475.5"/>
<text text-anchor="middle" x="574" y="-482.5" font-family="Helvetica,sans-Serif" font-size="10.00">ARVideoSource::close</text>
</a>
</g>
</g>
<!-- Node12&#45;&gt;Node29 -->
<g id="edge28" class="edge"><title>Node12&#45;&gt;Node29</title>
<path fill="none" stroke="midnightblue" d="M457.85,-304.631C462.7,-307.097 467.202,-310.171 471,-314 514.126,-357.477 469.63,-398.486 507,-447 514.816,-457.147 526.168,-465.056 537.261,-470.968"/>
<polygon fill="midnightblue" stroke="midnightblue" points="535.914,-474.206 546.434,-475.469 538.998,-467.922 535.914,-474.206"/>
</g>
<!-- Node33 -->
<g id="node33" class="node"><title>Node33</title>
<g id="a_node33"><a xlink:href="video_8h.html#ac87cc80e94e3e4d1dbe0da408d4f2d28" target="_top" xlink:title="ar2VideoGetPixelFormat">
<polygon fill="white" stroke="red" points="512.5,-418.5 512.5,-437.5 635.5,-437.5 635.5,-418.5 512.5,-418.5"/>
<text text-anchor="middle" x="574" y="-425.5" font-family="Helvetica,sans-Serif" font-size="10.00">ar2VideoGetPixelFormat</text>
</a>
</g>
</g>
<!-- Node12&#45;&gt;Node33 -->
<g id="edge32" class="edge"><title>Node12&#45;&gt;Node33</title>
<path fill="none" stroke="midnightblue" d="M456.463,-304.542C461.765,-307.013 466.748,-310.113 471,-314 504.328,-344.463 473.792,-378.407 507,-409 508.71,-410.575 510.543,-412.021 512.469,-413.348"/>
<polygon fill="midnightblue" stroke="midnightblue" points="511.003,-416.54 521.427,-418.433 514.459,-410.453 511.003,-416.54"/>
</g>
<!-- Node39 -->
<g id="node39" class="node"><title>Node39</title>
<g id="a_node39"><a xlink:href="ar_util_8c.html#a97d737ba2827a9edfd10deefb3ce03b4" target="_top" xlink:title="Get the size in bytes of a single pixel for a given pixel format. ">
<polygon fill="white" stroke="black" points="525.5,-380.5 525.5,-399.5 622.5,-399.5 622.5,-380.5 525.5,-380.5"/>
<text text-anchor="middle" x="574" y="-387.5" font-family="Helvetica,sans-Serif" font-size="10.00">arUtilGetPixelSize</text>
</a>
</g>
</g>
<!-- Node12&#45;&gt;Node39 -->
<g id="edge38" class="edge"><title>Node12&#45;&gt;Node39</title>
<path fill="none" stroke="midnightblue" d="M453.633,-304.576C459.821,-307.033 465.789,-310.12 471,-314 495.034,-331.893 483.037,-353.013 507,-371 509.803,-373.104 512.832,-374.975 515.998,-376.639"/>
<polygon fill="midnightblue" stroke="midnightblue" points="514.658,-379.874 525.213,-380.803 517.541,-373.495 514.658,-379.874"/>
</g>
<!-- Node40 -->
<g id="node40" class="node"><title>Node40</title>
<g id="a_node40"><a xlink:href="ar_util_8c.html#a6fc7ced3a5cee590c5e9f0166b83a6d7" target="_top" xlink:title="Get a string holding a descriptive name for a given pixel format enumeration. ">
<polygon fill="white" stroke="black" points="507,-342.5 507,-361.5 641,-361.5 641,-342.5 507,-342.5"/>
<text text-anchor="middle" x="574" y="-349.5" font-family="Helvetica,sans-Serif" font-size="10.00">arUtilGetPixelFormatName</text>
</a>
</g>
</g>
<!-- Node12&#45;&gt;Node40 -->
<g id="edge39" class="edge"><title>Node12&#45;&gt;Node40</title>
<path fill="none" stroke="midnightblue" d="M442.668,-304.55C452.084,-307.236 462.004,-310.417 471,-314 487.808,-320.694 490.219,-326.24 507,-333 512.806,-335.339 519.007,-337.518 525.196,-339.504"/>
<polygon fill="midnightblue" stroke="midnightblue" points="524.267,-342.88 534.854,-342.461 526.317,-336.186 524.267,-342.88"/>
</g>
<!-- Node41 -->
<g id="node41" class="node"><title>Node41</title>
<g id="a_node41"><a xlink:href="video_8h.html#ad451f2f35435194d472527896775efce" target="_top" xlink:title="ar2VideoSetParami">
<polygon fill="white" stroke="red" points="523.5,-304.5 523.5,-323.5 624.5,-323.5 624.5,-304.5 523.5,-304.5"/>
<text text-anchor="middle" x="574" y="-311.5" font-family="Helvetica,sans-Serif" font-size="10.00">ar2VideoSetParami</text>
</a>
</g>
</g>
<!-- Node12&#45;&gt;Node41 -->
<g id="edge40" class="edge"><title>Node12&#45;&gt;Node41</title>
<path fill="none" stroke="midnightblue" d="M458.664,-301.221C476.068,-303.166 495.342,-305.321 513.028,-307.297"/>
<polygon fill="midnightblue" stroke="midnightblue" points="512.906,-310.805 523.233,-308.438 513.683,-303.849 512.906,-310.805"/>
</g>
<!-- Node42 -->
<g id="node42" class="node"><title>Node42</title>
<g id="a_node42"><a xlink:href="param_8h.html#ab1e71efe8de44e7480414a7ed251d0c7" target="_top" xlink:title="Load lens parameters from a buffer. ">
<polygon fill="white" stroke="black" points="512.5,-266.5 512.5,-285.5 635.5,-285.5 635.5,-266.5 512.5,-266.5"/>
<text text-anchor="middle" x="574" y="-273.5" font-family="Helvetica,sans-Serif" font-size="10.00">arParamLoadFromBuffer</text>
</a>
</g>
</g>
<!-- Node12&#45;&gt;Node42 -->
<g id="edge41" class="edge"><title>Node12&#45;&gt;Node42</title>
<path fill="none" stroke="midnightblue" d="M458.664,-288.779C472.59,-287.222 487.714,-285.532 502.263,-283.906"/>
<polygon fill="midnightblue" stroke="midnightblue" points="502.673,-287.382 512.222,-282.793 501.896,-280.425 502.673,-287.382"/>
</g>
<!-- Node43 -->
<g id="node43" class="node"><title>Node43</title>
<g id="a_node43"><a xlink:href="param_8h.html#a09b936765527cf0b1cbf5636d8757ff2" target="_top" xlink:title="Load lens parameters from a file. ">
<polygon fill="white" stroke="black" points="537,-228.5 537,-247.5 611,-247.5 611,-228.5 537,-228.5"/>
<text text-anchor="middle" x="574" y="-235.5" font-family="Helvetica,sans-Serif" font-size="10.00">arParamLoad</text>
</a>
</g>
</g>
<!-- Node12&#45;&gt;Node43 -->
<g id="edge42" class="edge"><title>Node12&#45;&gt;Node43</title>
<path fill="none" stroke="midnightblue" d="M442.668,-285.45C452.084,-282.764 462.004,-279.583 471,-276 487.808,-269.306 490.219,-263.76 507,-257 513.391,-254.426 520.259,-252.045 527.063,-249.903"/>
<polygon fill="midnightblue" stroke="midnightblue" points="528.355,-253.169 536.924,-246.939 526.34,-246.466 528.355,-253.169"/>
</g>
<!-- Node44 -->
<g id="node44" class="node"><title>Node44</title>
<g id="a_node44"><a xlink:href="video_8h.html#addbe89926372af707da389a5cc378851" target="_top" xlink:title="ar2VideoGetCParam">
<polygon fill="white" stroke="red" points="520.5,-190.5 520.5,-209.5 627.5,-209.5 627.5,-190.5 520.5,-190.5"/>
<text text-anchor="middle" x="574" y="-197.5" font-family="Helvetica,sans-Serif" font-size="10.00">ar2VideoGetCParam</text>
</a>
</g>
</g>
<!-- Node12&#45;&gt;Node44 -->
<g id="edge43" class="edge"><title>Node12&#45;&gt;Node44</title>
<path fill="none" stroke="midnightblue" d="M453.633,-285.424C459.821,-282.967 465.789,-279.88 471,-276 495.034,-258.107 483.037,-236.987 507,-219 509.494,-217.128 512.168,-215.44 514.958,-213.918"/>
<polygon fill="midnightblue" stroke="midnightblue" points="516.614,-217.007 524.19,-209.601 513.649,-210.667 516.614,-217.007"/>
</g>
<!-- Node45 -->
<g id="node45" class="node"><title>Node45</title>
<g id="a_node45"><a xlink:href="video_8h.html#af35776b8b32d15e9ffd64049023c756a" target="_top" xlink:title="ar2VideoGetCParamAsync">
<polygon fill="white" stroke="red" points="507,-152.5 507,-171.5 641,-171.5 641,-152.5 507,-152.5"/>
<text text-anchor="middle" x="574" y="-159.5" font-family="Helvetica,sans-Serif" font-size="10.00">ar2VideoGetCParamAsync</text>
</a>
</g>
</g>
<!-- Node12&#45;&gt;Node45 -->
<g id="edge44" class="edge"><title>Node12&#45;&gt;Node45</title>
<path fill="none" stroke="midnightblue" d="M456.463,-285.458C461.765,-282.987 466.748,-279.887 471,-276 504.328,-245.537 473.792,-211.593 507,-181 508.71,-179.425 510.543,-177.979 512.469,-176.652"/>
<polygon fill="midnightblue" stroke="midnightblue" points="514.459,-179.547 521.427,-171.567 511.003,-173.46 514.459,-179.547"/>
</g>
<!-- Node46 -->
<g id="node46" class="node"><title>Node46</title>
<g id="a_node46"><a xlink:href="param_8h.html#ac81e706468fee3150d5b2413ec743fae" target="_top" xlink:title="Create a camera parameter structure representing an idealised lens with specified field&#45;of&#45;view...">
<polygon fill="white" stroke="black" points="513,-114.5 513,-133.5 635,-133.5 635,-114.5 513,-114.5"/>
<text text-anchor="middle" x="574" y="-121.5" font-family="Helvetica,sans-Serif" font-size="10.00">arParamClearWithFOVy</text>
</a>
</g>
</g>
<!-- Node12&#45;&gt;Node46 -->
<g id="edge45" class="edge"><title>Node12&#45;&gt;Node46</title>
<path fill="none" stroke="midnightblue" d="M457.85,-285.369C462.7,-282.903 467.202,-279.829 471,-276 514.126,-232.523 464.045,-186.646 507,-143 508.411,-141.566 509.923,-140.238 511.517,-139.009"/>
<polygon fill="midnightblue" stroke="midnightblue" points="513.455,-141.926 520.072,-133.651 509.739,-135.993 513.455,-141.926"/>
</g>
<!-- Node47 -->
<g id="node47" class="node"><title>Node47</title>
<g id="a_node47"><a xlink:href="param_8h.html#aad3ef0e0fba8944c501a2819e1e99ad9" target="_top" xlink:title="arParamChangeSize">
<polygon fill="white" stroke="black" points="520.5,-76.5 520.5,-95.5 627.5,-95.5 627.5,-76.5 520.5,-76.5"/>
<text text-anchor="middle" x="574" y="-83.5" font-family="Helvetica,sans-Serif" font-size="10.00">arParamChangeSize</text>
</a>
</g>
</g>
<!-- Node12&#45;&gt;Node47 -->
<g id="edge46" class="edge"><title>Node12&#45;&gt;Node47</title>
<path fill="none" stroke="midnightblue" d="M458.404,-285.416C463.084,-282.936 467.396,-279.846 471,-276 524.106,-219.327 454.117,-161.88 507,-105 508.431,-103.461 509.978,-102.044 511.618,-100.739"/>
<polygon fill="midnightblue" stroke="midnightblue" points="513.921,-103.422 520.487,-95.1071 510.169,-97.5126 513.921,-103.422"/>
</g>
<!-- Node48 -->
<g id="node48" class="node"><title>Node48</title>
<g id="a_node48"><a xlink:href="param_8h.html#a16b30d02f6542af9f7cd0b12a9e56dde" target="_top" xlink:title="Allocate and calculate a lookup&#45;table camera parameter from a standard camera parameter. ">
<polygon fill="white" stroke="red" points="527,-38.5 527,-57.5 621,-57.5 621,-38.5 527,-38.5"/>
<text text-anchor="middle" x="574" y="-45.5" font-family="Helvetica,sans-Serif" font-size="10.00">arParamLTCreate</text>
</a>
</g>
</g>
<!-- Node12&#45;&gt;Node48 -->
<g id="edge47" class="edge"><title>Node12&#45;&gt;Node48</title>
<path fill="none" stroke="midnightblue" d="M458.553,-285.553C463.203,-283.046 467.468,-279.912 471,-276 534.169,-206.043 444.105,-137.204 507,-67 510.082,-63.56 513.742,-60.726 517.735,-58.3934"/>
<polygon fill="midnightblue" stroke="midnightblue" points="519.373,-61.4905 526.913,-54.0472 516.377,-55.164 519.373,-61.4905"/>
</g>
<!-- Node49 -->
<g id="node49" class="node"><title>Node49</title>
<g id="a_node49"><a xlink:href="video_8h.html#a5a0834041e696e10609994bfdf089981" target="_top" xlink:title="ar2VideoCapStart">
<polygon fill="white" stroke="red" points="527,-0.5 527,-19.5 621,-19.5 621,-0.5 527,-0.5"/>
<text text-anchor="middle" x="574" y="-7.5" font-family="Helvetica,sans-Serif" font-size="10.00">ar2VideoCapStart</text>
</a>
</g>
</g>
<!-- Node12&#45;&gt;Node49 -->
<g id="edge48" class="edge"><title>Node12&#45;&gt;Node49</title>
<path fill="none" stroke="midnightblue" d="M458.658,-285.647C463.288,-283.121 467.518,-279.957 471,-276 544.278,-192.709 434.049,-112.578 507,-29 510.037,-25.5205 513.666,-22.6589 517.638,-20.308"/>
<polygon fill="midnightblue" stroke="midnightblue" points="519.273,-23.4058 526.786,-15.9354 516.255,-17.0902 519.273,-23.4058"/>
</g>
<!-- Node14 -->
<g id="node14" class="node"><title>Node14</title>
<g id="a_node14"><a xlink:href="video_a_v_foundation_8h.html#aeeda53e796311199493f4acdaa075e3c" target="_top" xlink:title="ar2VideoOpenAsyncAVFoundation">
<polygon fill="white" stroke="black" points="686,-1026.5 686,-1045.5 853,-1045.5 853,-1026.5 686,-1026.5"/>
<text text-anchor="middle" x="769.5" y="-1033.5" font-family="Helvetica,sans-Serif" font-size="10.00">ar2VideoOpenAsyncAVFoundation</text>
</a>
</g>
</g>
<!-- Node13&#45;&gt;Node14 -->
<g id="edge13" class="edge"><title>Node13&#45;&gt;Node14</title>
<path fill="none" stroke="midnightblue" d="M623.828,-1007.59C650.053,-1012.74 682.562,-1019.12 710.116,-1024.53"/>
<polygon fill="midnightblue" stroke="midnightblue" points="709.536,-1027.99 720.023,-1026.48 710.885,-1021.12 709.536,-1027.99"/>
</g>
<!-- Node15 -->
<g id="node15" class="node"><title>Node15</title>
<g id="a_node15"><a xlink:href="video_android_8h.html#aa38cb37e30ae2fdfc4ee16dfb3662f83" target="_top" xlink:title="ar2VideoOpenAsyncAndroid">
<polygon fill="white" stroke="black" points="700,-988.5 700,-1007.5 839,-1007.5 839,-988.5 700,-988.5"/>
<text text-anchor="middle" x="769.5" y="-995.5" font-family="Helvetica,sans-Serif" font-size="10.00">ar2VideoOpenAsyncAndroid</text>
</a>
</g>
</g>
<!-- Node13&#45;&gt;Node15 -->
<g id="edge14" class="edge"><title>Node13&#45;&gt;Node15</title>
<path fill="none" stroke="midnightblue" d="M627.109,-998C646.348,-998 668.604,-998 689.683,-998"/>
<polygon fill="midnightblue" stroke="midnightblue" points="689.917,-1001.5 699.917,-998 689.917,-994.5 689.917,-1001.5"/>
</g>
<!-- Node17 -->
<g id="node17" class="node"><title>Node17</title>
<g id="a_node17"><a xlink:href="video_dummy_8h.html#a97c9c62563dbaa2d1c32d6f7ffd6186c" target="_top" xlink:title="ar2VideoOpenDummy">
<polygon fill="white" stroke="black" points="713,-950.5 713,-969.5 826,-969.5 826,-950.5 713,-950.5"/>
<text text-anchor="middle" x="769.5" y="-957.5" font-family="Helvetica,sans-Serif" font-size="10.00">ar2VideoOpenDummy</text>
</a>
</g>
</g>
<!-- Node16&#45;&gt;Node17 -->
<g id="edge16" class="edge"><title>Node16&#45;&gt;Node17</title>
<path fill="none" stroke="midnightblue" d="M584.752,-874.634C601.875,-890.968 639.135,-923.975 677,-941 685.063,-944.626 693.84,-947.569 702.66,-949.955"/>
<polygon fill="midnightblue" stroke="midnightblue" points="702.054,-953.411 712.602,-952.42 703.738,-946.616 702.054,-953.411"/>
</g>
<!-- Node18 -->
<g id="node18" class="node"><title>Node18</title>
<g id="a_node18"><a xlink:href="video_v4_l2_8h.html#a65f46b5acf507e11f1e398983f654b01" target="_top" xlink:title="ar2VideoOpenV4L2">
<polygon fill="white" stroke="black" points="719,-912.5 719,-931.5 820,-931.5 820,-912.5 719,-912.5"/>
<text text-anchor="middle" x="769.5" y="-919.5" font-family="Helvetica,sans-Serif" font-size="10.00">ar2VideoOpenV4L2</text>
</a>
</g>
</g>
<!-- Node16&#45;&gt;Node18 -->
<g id="edge17" class="edge"><title>Node16&#45;&gt;Node18</title>
<path fill="none" stroke="midnightblue" d="M597.757,-874.615C618.211,-882.982 649.219,-894.991 677,-903 687.16,-905.929 698.077,-908.598 708.707,-910.95"/>
<polygon fill="midnightblue" stroke="midnightblue" points="708.266,-914.435 718.777,-913.105 709.731,-907.59 708.266,-914.435"/>
</g>
<!-- Node19 -->
<g id="node19" class="node"><title>Node19</title>
<g id="a_node19"><a xlink:href="video1394_8h.html#a415d8d6e136b1d6481aab6df1327d38b" target="_top" xlink:title="ar2VideoOpen1394">
<polygon fill="white" stroke="black" points="720,-874.5 720,-893.5 819,-893.5 819,-874.5 720,-874.5"/>
<text text-anchor="middle" x="769.5" y="-881.5" font-family="Helvetica,sans-Serif" font-size="10.00">ar2VideoOpen1394</text>
</a>
</g>
</g>
<!-- Node16&#45;&gt;Node19 -->
<g id="edge18" class="edge"><title>Node16&#45;&gt;Node19</title>
<path fill="none" stroke="midnightblue" d="M613.229,-868.754C640.64,-871.445 678.088,-875.122 709.34,-878.191"/>
<polygon fill="midnightblue" stroke="midnightblue" points="709.383,-881.712 719.678,-879.206 710.068,-874.746 709.383,-881.712"/>
</g>
<!-- Node20 -->
<g id="node20" class="node"><title>Node20</title>
<g id="a_node20"><a xlink:href="video_a_v_foundation_8h.html#ad5a12bb05d89e8876b3d92334935ebd8" target="_top" xlink:title="ar2VideoOpenAVFoundation">
<polygon fill="white" stroke="black" points="699.5,-836.5 699.5,-855.5 839.5,-855.5 839.5,-836.5 699.5,-836.5"/>
<text text-anchor="middle" x="769.5" y="-843.5" font-family="Helvetica,sans-Serif" font-size="10.00">ar2VideoOpenAVFoundation</text>
</a>
</g>
</g>
<!-- Node16&#45;&gt;Node20 -->
<g id="edge19" class="edge"><title>Node16&#45;&gt;Node20</title>
<path fill="none" stroke="midnightblue" d="M613.229,-861.246C635.008,-859.108 663.124,-856.347 689.434,-853.764"/>
<polygon fill="midnightblue" stroke="midnightblue" points="689.802,-857.244 699.413,-852.784 689.118,-850.278 689.802,-857.244"/>
</g>
<!-- Node21 -->
<g id="node21" class="node"><title>Node21</title>
<g id="a_node21"><a xlink:href="video_image_8h.html#a15ea74b900729dfd225554e9862871f1" target="_top" xlink:title="ar2VideoOpenImage">
<polygon fill="white" stroke="black" points="717,-798.5 717,-817.5 822,-817.5 822,-798.5 717,-798.5"/>
<text text-anchor="middle" x="769.5" y="-805.5" font-family="Helvetica,sans-Serif" font-size="10.00">ar2VideoOpenImage</text>
</a>
</g>
</g>
<!-- Node16&#45;&gt;Node21 -->
<g id="edge20" class="edge"><title>Node16&#45;&gt;Node21</title>
<path fill="none" stroke="midnightblue" d="M597.757,-855.385C618.211,-847.018 649.219,-835.009 677,-827 686.587,-824.236 696.849,-821.704 706.908,-819.451"/>
<polygon fill="midnightblue" stroke="midnightblue" points="707.834,-822.831 716.866,-817.293 706.352,-815.99 707.834,-822.831"/>
</g>
<!-- Node23 -->
<g id="node23" class="node"><title>Node23</title>
<g id="a_node23"><a xlink:href="video_dummy_8h.html#a98be3ece55a3751acf6653ccd4d76c57" target="_top" xlink:title="ar2VideoGetSizeDummy">
<polygon fill="white" stroke="black" points="707,-760.5 707,-779.5 832,-779.5 832,-760.5 707,-760.5"/>
<text text-anchor="middle" x="769.5" y="-767.5" font-family="Helvetica,sans-Serif" font-size="10.00">ar2VideoGetSizeDummy</text>
</a>
</g>
</g>
<!-- Node22&#45;&gt;Node23 -->
<g id="edge22" class="edge"><title>Node22&#45;&gt;Node23</title>
<path fill="none" stroke="midnightblue" d="M582.24,-665.619C597.461,-685.099 634.871,-729.211 677,-751 683.341,-754.279 690.205,-756.993 697.225,-759.238"/>
<polygon fill="midnightblue" stroke="midnightblue" points="696.282,-762.609 706.861,-762.018 698.223,-755.883 696.282,-762.609"/>
</g>
<!-- Node24 -->
<g id="node24" class="node"><title>Node24</title>
<g id="a_node24"><a xlink:href="video_v4_l2_8h.html#a4cd15e53200db9db8334fa4c42fc1b56" target="_top" xlink:title="ar2VideoGetSizeV4L2">
<polygon fill="white" stroke="black" points="713,-722.5 713,-741.5 826,-741.5 826,-722.5 713,-722.5"/>
<text text-anchor="middle" x="769.5" y="-729.5" font-family="Helvetica,sans-Serif" font-size="10.00">ar2VideoGetSizeV4L2</text>
</a>
</g>
</g>
<!-- Node22&#45;&gt;Node24 -->
<g id="edge23" class="edge"><title>Node22&#45;&gt;Node24</title>
<path fill="none" stroke="midnightblue" d="M588.857,-665.563C607.883,-678.257 643.55,-700.517 677,-713 685.173,-716.05 693.948,-718.657 702.713,-720.872"/>
<polygon fill="midnightblue" stroke="midnightblue" points="702.034,-724.308 712.572,-723.21 703.649,-717.497 702.034,-724.308"/>
</g>
<!-- Node25 -->
<g id="node25" class="node"><title>Node25</title>
<g id="a_node25"><a xlink:href="video1394_8h.html#a8edcf3e75cdc9d9a0a46e5c949fe024c" target="_top" xlink:title="ar2VideoGetSize1394">
<polygon fill="white" stroke="black" points="714,-684.5 714,-703.5 825,-703.5 825,-684.5 714,-684.5"/>
<text text-anchor="middle" x="769.5" y="-691.5" font-family="Helvetica,sans-Serif" font-size="10.00">ar2VideoGetSize1394</text>
</a>
</g>
</g>
<!-- Node22&#45;&gt;Node25 -->
<g id="edge24" class="edge"><title>Node22&#45;&gt;Node25</title>
<path fill="none" stroke="midnightblue" d="M619.393,-664.718C646.242,-669.991 680.788,-676.775 709.867,-682.486"/>
<polygon fill="midnightblue" stroke="midnightblue" points="709.416,-685.964 719.903,-684.456 710.765,-679.095 709.416,-685.964"/>
</g>
<!-- Node26 -->
<g id="node26" class="node"><title>Node26</title>
<g id="a_node26"><a xlink:href="video_a_v_foundation_8h.html#a039c73ba8a3e6ec85abe801637b2be6f" target="_top" xlink:title="ar2VideoGetSizeAVFoundation">
<polygon fill="white" stroke="black" points="693.5,-646.5 693.5,-665.5 845.5,-665.5 845.5,-646.5 693.5,-646.5"/>
<text text-anchor="middle" x="769.5" y="-653.5" font-family="Helvetica,sans-Serif" font-size="10.00">ar2VideoGetSizeAVFoundation</text>
</a>
</g>
</g>
<!-- Node22&#45;&gt;Node26 -->
<g id="edge25" class="edge"><title>Node22&#45;&gt;Node26</title>
<path fill="none" stroke="midnightblue" d="M619.393,-656C638.358,-656 661.163,-656 683.169,-656"/>
<polygon fill="midnightblue" stroke="midnightblue" points="683.207,-659.5 693.207,-656 683.207,-652.5 683.207,-659.5"/>
</g>
<!-- Node27 -->
<g id="node27" class="node"><title>Node27</title>
<g id="a_node27"><a xlink:href="video_image_8h.html#a0faf54541ccba547d219e20002c36302" target="_top" xlink:title="ar2VideoGetSizeImage">
<polygon fill="white" stroke="black" points="711,-608.5 711,-627.5 828,-627.5 828,-608.5 711,-608.5"/>
<text text-anchor="middle" x="769.5" y="-615.5" font-family="Helvetica,sans-Serif" font-size="10.00">ar2VideoGetSizeImage</text>
</a>
</g>
</g>
<!-- Node22&#45;&gt;Node27 -->
<g id="edge26" class="edge"><title>Node22&#45;&gt;Node27</title>
<path fill="none" stroke="midnightblue" d="M619.393,-647.282C646.242,-642.009 680.788,-635.225 709.867,-629.514"/>
<polygon fill="midnightblue" stroke="midnightblue" points="710.765,-632.905 719.903,-627.544 709.416,-626.036 710.765,-632.905"/>
</g>
<!-- Node28 -->
<g id="node28" class="node"><title>Node28</title>
<g id="a_node28"><a xlink:href="video_android_8h.html#aafb49599502c8ce1d9f2c360cbb86caa" target="_top" xlink:title="ar2VideoGetSizeAndroid">
<polygon fill="white" stroke="black" points="708,-570.5 708,-589.5 831,-589.5 831,-570.5 708,-570.5"/>
<text text-anchor="middle" x="769.5" y="-577.5" font-family="Helvetica,sans-Serif" font-size="10.00">ar2VideoGetSizeAndroid</text>
</a>
</g>
</g>
<!-- Node22&#45;&gt;Node28 -->
<g id="edge27" class="edge"><title>Node22&#45;&gt;Node28</title>
<path fill="none" stroke="midnightblue" d="M588.857,-646.437C607.883,-633.743 643.55,-611.483 677,-599 684.161,-596.328 691.785,-593.996 699.459,-591.969"/>
<polygon fill="midnightblue" stroke="midnightblue" points="700.31,-595.364 709.175,-589.562 698.627,-588.569 700.31,-595.364"/>
</g>
<!-- Node30 -->
<g id="node30" class="node"><title>Node30</title>
<g id="a_node30"><a xlink:href="video_8h.html#a7f44f09a5e412bb83330887458e96b84" target="_top" xlink:title="ar2VideoCapStop">
<polygon fill="white" stroke="red" points="723,-532.5 723,-551.5 816,-551.5 816,-532.5 723,-532.5"/>
<text text-anchor="middle" x="769.5" y="-539.5" font-family="Helvetica,sans-Serif" font-size="10.00">ar2VideoCapStop</text>
</a>
</g>
</g>
<!-- Node29&#45;&gt;Node30 -->
<g id="edge29" class="edge"><title>Node29&#45;&gt;Node30</title>
<path fill="none" stroke="midnightblue" d="M597.757,-494.615C618.211,-502.982 649.219,-514.991 677,-523 688.448,-526.3 700.858,-529.271 712.736,-531.829"/>
<polygon fill="midnightblue" stroke="midnightblue" points="712.051,-535.261 722.555,-533.879 713.481,-528.409 712.051,-535.261"/>
</g>
<!-- Node31 -->
<g id="node31" class="node"><title>Node31</title>
<g id="a_node31"><a xlink:href="param_8h.html#a42d02aaf13cedaf0f2cd1b93a5d81643" target="_top" xlink:title="Dispose of a memory allocated to a lookup&#45;table camera parameter. ">
<polygon fill="white" stroke="black" points="727.5,-494.5 727.5,-513.5 811.5,-513.5 811.5,-494.5 727.5,-494.5"/>
<text text-anchor="middle" x="769.5" y="-501.5" font-family="Helvetica,sans-Serif" font-size="10.00">arParamLTFree</text>
</a>
</g>
</g>
<!-- Node29&#45;&gt;Node31 -->
<g id="edge30" class="edge"><title>Node29&#45;&gt;Node31</title>
<path fill="none" stroke="midnightblue" d="M632.01,-490.598C658.976,-493.246 690.927,-496.383 717.134,-498.956"/>
<polygon fill="midnightblue" stroke="midnightblue" points="716.947,-502.455 727.242,-499.949 717.631,-495.488 716.947,-502.455"/>
</g>
<!-- Node32 -->
<g id="node32" class="node"><title>Node32</title>
<g id="a_node32"><a xlink:href="video_8h.html#a4b8a9b1a18beed51b2f0600687de63b8" target="_top" xlink:title="ar2VideoClose">
<polygon fill="white" stroke="red" points="729.5,-456.5 729.5,-475.5 809.5,-475.5 809.5,-456.5 729.5,-456.5"/>
<text text-anchor="middle" x="769.5" y="-463.5" font-family="Helvetica,sans-Serif" font-size="10.00">ar2VideoClose</text>
</a>
</g>
</g>
<!-- Node29&#45;&gt;Node32 -->
<g id="edge31" class="edge"><title>Node29&#45;&gt;Node32</title>
<path fill="none" stroke="midnightblue" d="M632.01,-479.402C659.665,-476.687 692.563,-473.456 719.131,-470.848"/>
<polygon fill="midnightblue" stroke="midnightblue" points="719.74,-474.305 729.35,-469.844 719.055,-467.338 719.74,-474.305"/>
</g>
<!-- Node34 -->
<g id="node34" class="node"><title>Node34</title>
<g id="a_node34"><a xlink:href="video_dummy_8h.html#aef5bd63c5abf5e4479664647c084644b" target="_top" xlink:title="ar2VideoGetPixelFormatDummy">
<polygon fill="white" stroke="black" points="690.5,-418.5 690.5,-437.5 848.5,-437.5 848.5,-418.5 690.5,-418.5"/>
<text text-anchor="middle" x="769.5" y="-425.5" font-family="Helvetica,sans-Serif" font-size="10.00">ar2VideoGetPixelFormatDummy</text>
</a>
</g>
</g>
<!-- Node33&#45;&gt;Node34 -->
<g id="edge33" class="edge"><title>Node33&#45;&gt;Node34</title>
<path fill="none" stroke="midnightblue" d="M635.694,-428C649.742,-428 664.974,-428 679.942,-428"/>
<polygon fill="midnightblue" stroke="midnightblue" points="680.245,-431.5 690.245,-428 680.245,-424.5 680.245,-431.5"/>
</g>
<!-- Node35 -->
<g id="node35" class="node"><title>Node35</title>
<g id="a_node35"><a xlink:href="video_v4_l2_8h.html#aab61669af9d839aa23ecd79d1c4bde5a" target="_top" xlink:title="ar2VideoGetPixelFormatV4L2">
<polygon fill="white" stroke="black" points="696.5,-380.5 696.5,-399.5 842.5,-399.5 842.5,-380.5 696.5,-380.5"/>
<text text-anchor="middle" x="769.5" y="-387.5" font-family="Helvetica,sans-Serif" font-size="10.00">ar2VideoGetPixelFormatV4L2</text>
</a>
</g>
</g>
<!-- Node33&#45;&gt;Node35 -->
<g id="edge34" class="edge"><title>Node33&#45;&gt;Node35</title>
<path fill="none" stroke="midnightblue" d="M623.828,-418.411C650.053,-413.261 682.562,-406.877 710.116,-401.466"/>
<polygon fill="midnightblue" stroke="midnightblue" points="710.885,-404.882 720.023,-399.52 709.536,-398.013 710.885,-404.882"/>
</g>
<!-- Node36 -->
<g id="node36" class="node"><title>Node36</title>
<g id="a_node36"><a xlink:href="video1394_8h.html#a1eb40205f18baab9d12c0bc187e9b50e" target="_top" xlink:title="ar2VideoGetPixelFormat1394">
<polygon fill="white" stroke="black" points="697.5,-342.5 697.5,-361.5 841.5,-361.5 841.5,-342.5 697.5,-342.5"/>
<text text-anchor="middle" x="769.5" y="-349.5" font-family="Helvetica,sans-Serif" font-size="10.00">ar2VideoGetPixelFormat1394</text>
</a>
</g>
</g>
<!-- Node33&#45;&gt;Node36 -->
<g id="edge35" class="edge"><title>Node33&#45;&gt;Node36</title>
<path fill="none" stroke="midnightblue" d="M620.379,-418.421C627.555,-415.936 634.684,-412.841 641,-409 660.878,-396.912 656.68,-382.328 677,-371 681.014,-368.762 685.261,-366.787 689.638,-365.043"/>
<polygon fill="midnightblue" stroke="midnightblue" points="691.138,-368.225 699.393,-361.585 688.799,-361.628 691.138,-368.225"/>
</g>
<!-- Node37 -->
<g id="node37" class="node"><title>Node37</title>
<g id="a_node37"><a xlink:href="video_a_v_foundation_8h.html#a98d99736ba21ff6f85c9da3e0e2acab8" target="_top" xlink:title="ar2VideoGetPixelFormatAVFoundation">
<polygon fill="white" stroke="black" points="677,-304.5 677,-323.5 862,-323.5 862,-304.5 677,-304.5"/>
<text text-anchor="middle" x="769.5" y="-311.5" font-family="Helvetica,sans-Serif" font-size="10.00">ar2VideoGetPixelFormatAVFoundation</text>
</a>
</g>
</g>
<!-- Node33&#45;&gt;Node37 -->
<g id="edge36" class="edge"><title>Node33&#45;&gt;Node37</title>
<path fill="none" stroke="midnightblue" d="M625.605,-418.391C631.171,-415.938 636.457,-412.861 641,-409 669.481,-384.798 647.625,-356.109 677,-333 679.12,-331.332 681.35,-329.801 683.668,-328.396"/>
<polygon fill="midnightblue" stroke="midnightblue" points="685.715,-331.277 692.991,-323.575 682.501,-325.059 685.715,-331.277"/>
</g>
<!-- Node38 -->
<g id="node38" class="node"><title>Node38</title>
<g id="a_node38"><a xlink:href="video_image_8h.html#a4e14913d6bea4a02cd3d17ddd95e2544" target="_top" xlink:title="ar2VideoGetPixelFormatImage">
<polygon fill="white" stroke="black" points="694.5,-266.5 694.5,-285.5 844.5,-285.5 844.5,-266.5 694.5,-266.5"/>
<text text-anchor="middle" x="769.5" y="-273.5" font-family="Helvetica,sans-Serif" font-size="10.00">ar2VideoGetPixelFormatImage</text>
</a>
</g>
</g>
<!-- Node33&#45;&gt;Node38 -->
<g id="edge37" class="edge"><title>Node33&#45;&gt;Node38</title>
<path fill="none" stroke="midnightblue" d="M627.444,-418.349C632.425,-415.895 637.072,-412.828 641,-409 679.048,-371.913 637.578,-330.624 677,-295 679.528,-292.716 682.257,-290.678 685.137,-288.863"/>
<polygon fill="midnightblue" stroke="midnightblue" points="686.992,-291.84 694.179,-284.056 683.706,-285.659 686.992,-291.84"/>
</g>
</g>
</svg>
        <g id="navigator" transform="translate(0 0)" fill="#404254">
                <rect fill="#f2f5e9" fill-opacity="0.5" stroke="#606060" stroke-width=".5" x="0" y="0" width="60" height="60"/>
                <use id="zoomplus" xlink:href="#zoomPlus" x="17" y="9" onmousedown="handleZoom(evt,'in')"/>
                <use id="zoomminus" xlink:href="#zoomMin" x="42" y="9" onmousedown="handleZoom(evt,'out')"/>
                <use id="reset" xlink:href="#resetDef" x="30" y="36" onmousedown="handleReset()"/>
                <g id="arrowUp" xlink:href="#dirArrow" transform="translate(30 24)" onmousedown="handlePan(0,-1)">
                  <use xlink:href="#rim" fill="#404040">
                        <set attributeName="fill" to="#808080" begin="arrowUp.mouseover" end="arrowUp.mouseout"/>
                  </use>
                  <path fill="none" stroke="white" stroke-width="1.5" d="M0,-3.0v7 M-2.5,-0.5L0,-3.0L2.5,-0.5"/>
                </g>
                <g id="arrowRight" xlink:href="#dirArrow" transform="rotate(90) translate(36 -43)" onmousedown="handlePan(1,0)">
                  <use xlink:href="#rim" fill="#404040">
                        <set attributeName="fill" to="#808080" begin="arrowRight.mouseover" end="arrowRight.mouseout"/>
                  </use>
                  <path fill="none" stroke="white" stroke-width="1.5" d="M0,-3.0v7 M-2.5,-0.5L0,-3.0L2.5,-0.5"/>
                </g>
                <g id="arrowDown" xlink:href="#dirArrow" transform="rotate(180) translate(-30 -48)" onmousedown="handlePan(0,1)">
                  <use xlink:href="#rim" fill="#404040">
                        <set attributeName="fill" to="#808080" begin="arrowDown.mouseover" end="arrowDown.mouseout"/>
                  </use>
                  <path fill="none" stroke="white" stroke-width="1.5" d="M0,-3.0v7 M-2.5,-0.5L0,-3.0L2.5,-0.5"/>
                </g>
                <g id="arrowLeft" xlink:href="#dirArrow" transform="rotate(270) translate(-36 17)" onmousedown="handlePan(-1,0)">
                  <use xlink:href="#rim" fill="#404040">
                        <set attributeName="fill" to="#808080" begin="arrowLeft.mouseover" end="arrowLeft.mouseout"/>
                  </use>
                  <path fill="none" stroke="white" stroke-width="1.5" d="M0,-3.0v7 M-2.5,-0.5L0,-3.0L2.5,-0.5"/>
                </g>
        </g>
        <svg viewBox="0 0 15 15" width="100%" height="30px" preserveAspectRatio="xMaxYMin meet">
         <g id="arrow_out" transform="scale(0.3 0.3)">
          <a xlink:href="_a_r6__c_8h_a97e23b21a6f3c4cfcacd8b146b00e596_cgraph_org.svg" target="_base">
           <rect id="button" ry="5" rx="5" y="6" x="6" height="38" width="38"
                fill="#f2f5e9" fill-opacity="0.5" stroke="#606060" stroke-width="1.0"/>
           <path id="arrow"
             d="M 11.500037,31.436501 C 11.940474,20.09759 22.043105,11.32322 32.158766,21.979434 L 37.068811,17.246167 C 37.068811,17.246167 37.088388,32 37.088388,32 L 22.160133,31.978069 C 22.160133,31.978069 26.997745,27.140456 26.997745,27.140456 C 18.528582,18.264221 13.291696,25.230495 11.500037,31.436501 z"
             style="fill:#404040;"/>
          </a>
         </g>
        </svg>
</svg>
