<?xml version="1.0" encoding="UTF-8" standalone="no"?>
<!DOCTYPE svg PUBLIC "-//W3C//DTD SVG 1.1//EN"
 "http://www.w3.org/Graphics/SVG/1.1/DTD/svg11.dtd">
<!-- Generated by graphviz version 2.38.0 (20140413.2041)
 -->
<!-- Title: /bitrise/src/Source/AR6/include/AR6/ARTrackable.h Pages: 1 -->
<!--zoomable 329 -->
<svg id="main" version="1.1" xmlns="http://www.w3.org/2000/svg" xmlns:xlink="http://www.w3.org/1999/xlink" xml:space="preserve" onload="init(evt)">
<style type="text/css"><![CDATA[
.edge:hover path { stroke: red; }
.edge:hover polygon { stroke: red; fill: red; }
]]></style>
<script type="text/javascript"><![CDATA[
var edges = document.getElementsByTagName('g');
if (edges && edges.length) {
  for (var i=0;i<edges.length;i++) {
    if (edges[i].id.substr(0,4)=='edge') {
      edges[i].setAttribute('class','edge');
    }
  }
}
]]></script>
        <defs>
                <circle id="rim" cx="0" cy="0" r="7"/>
                <circle id="rim2" cx="0" cy="0" r="3.5"/>
                <g id="zoomPlus">
                        <use xlink:href="#rim" fill="#404040">
                                <set attributeName="fill" to="#808080" begin="zoomplus.mouseover" end="zoomplus.mouseout"/>
                        </use>
                        <path d="M-4,0h8M0,-4v8" fill="none" stroke="white" stroke-width="1.5" pointer-events="none"/>
                </g>
                <g id="zoomMin">
                        <use xlink:href="#rim" fill="#404040">
                                <set attributeName="fill" to="#808080" begin="zoomminus.mouseover" end="zoomminus.mouseout"/>
                        </use>
                        <path d="M-4,0h8" fill="none" stroke="white" stroke-width="1.5" pointer-events="none"/>
                </g>
                <g id="dirArrow">
                        <path fill="none" stroke="white" stroke-width="1.5" d="M0,-3.0v7 M-2.5,-0.5L0,-3.0L2.5,-0.5"/>
                </g>
               <g id="resetDef">
                       <use xlink:href="#rim2" fill="#404040">
                               <set attributeName="fill" to="#808080" begin="reset.mouseover" end="reset.mouseout"/>
                       </use>
               </g>
        </defs>

<script type="text/javascript">
var viewWidth = 1406;
var viewHeight = 329;
var sectionId = 'dynsection-1';
</script>
<script xlink:href="svgpan.js"/>
<svg id="graph" class="graph">
<g id="viewport">
<title>/bitrise/src/Source/AR6/include/AR6/ARTrackable.h</title>
<polygon fill="white" stroke="none" points="-4,4 -4,-325 1402,-325 1402,4 -4,4"/>
<!-- Node1 -->
<g id="node1" class="node"><title>Node1</title>
<polygon fill="#bfbfbf" stroke="black" points="501.5,-290.5 501.5,-320.5 665.5,-320.5 665.5,-290.5 501.5,-290.5"/>
<text text-anchor="start" x="509.5" y="-308.5" font-family="Helvetica,sans-Serif" font-size="10.00">/bitrise/src/Source</text>
<text text-anchor="middle" x="583.5" y="-297.5" font-family="Helvetica,sans-Serif" font-size="10.00">/AR6/include/AR6/ARTrackable.h</text>
</g>
<!-- Node2 -->
<g id="node2" class="node"><title>Node2</title>
<g id="a_node2"><a xlink:href="_a_r_trackable_8cpp.html" target="_top" xlink:title="/bitrise/src/Source\l/AR6/ARTrackable.cpp">
<polygon fill="white" stroke="black" points="428.5,-0.5 428.5,-30.5 546.5,-30.5 546.5,-0.5 428.5,-0.5"/>
<text text-anchor="start" x="436.5" y="-18.5" font-family="Helvetica,sans-Serif" font-size="10.00">/bitrise/src/Source</text>
<text text-anchor="middle" x="487.5" y="-7.5" font-family="Helvetica,sans-Serif" font-size="10.00">/AR6/ARTrackable.cpp</text>
</a>
</g>
</g>
<!-- Node1&#45;&gt;Node2 -->
<g id="edge1" class="edge"><title>Node1&#45;&gt;Node2</title>
<path fill="none" stroke="midnightblue" d="M575.488,-280.464C556.167,-222.501 507.476,-76.4282 492.176,-30.5286"/>
<polygon fill="midnightblue" stroke="midnightblue" points="572.257,-281.838 578.739,-290.218 578.897,-279.624 572.257,-281.838"/>
</g>
<!-- Node3 -->
<g id="node3" class="node"><title>Node3</title>
<g id="a_node3"><a xlink:href="_a_r_controller_8h.html" target="_top" xlink:title="/bitrise/src/Source\l/AR6/include/AR6/ARController.h">
<polygon fill="white" stroke="black" points="721,-67.5 721,-97.5 884,-97.5 884,-67.5 721,-67.5"/>
<text text-anchor="start" x="729" y="-85.5" font-family="Helvetica,sans-Serif" font-size="10.00">/bitrise/src/Source</text>
<text text-anchor="middle" x="802.5" y="-74.5" font-family="Helvetica,sans-Serif" font-size="10.00">/AR6/include/AR6/ARController.h</text>
</a>
</g>
</g>
<!-- Node1&#45;&gt;Node3 -->
<g id="edge2" class="edge"><title>Node1&#45;&gt;Node3</title>
<path fill="none" stroke="midnightblue" d="M675.66,-304.983C771.959,-303.288 913.8,-293.831 948.5,-254 998.673,-196.408 886.436,-127.06 831.069,-97.7164"/>
<polygon fill="midnightblue" stroke="midnightblue" points="675.56,-301.484 665.614,-305.135 675.666,-308.483 675.56,-301.484"/>
</g>
<!-- Node11 -->
<g id="node11" class="node"><title>Node11</title>
<g id="a_node11"><a xlink:href="_a_r_trackable2_d_8h.html" target="_top" xlink:title="/bitrise/src/Source\l/AR6/include/AR6/ARTrackable2D.h">
<polygon fill="white" stroke="black" points="321.5,-218 321.5,-248 497.5,-248 497.5,-218 321.5,-218"/>
<text text-anchor="start" x="329.5" y="-236" font-family="Helvetica,sans-Serif" font-size="10.00">/bitrise/src/Source</text>
<text text-anchor="middle" x="409.5" y="-225" font-family="Helvetica,sans-Serif" font-size="10.00">/AR6/include/AR6/ARTrackable2D.h</text>
</a>
</g>
</g>
<!-- Node1&#45;&gt;Node11 -->
<g id="edge11" class="edge"><title>Node1&#45;&gt;Node11</title>
<path fill="none" stroke="midnightblue" d="M539.072,-286.499C509.602,-274.559 471.482,-259.114 444.233,-248.073"/>
<polygon fill="midnightblue" stroke="midnightblue" points="538.124,-289.891 548.707,-290.403 540.753,-283.404 538.124,-289.891"/>
</g>
<!-- Node15 -->
<g id="node15" class="node"><title>Node15</title>
<g id="a_node15"><a xlink:href="_a_r_trackable_multi_square_8h.html" target="_top" xlink:title="/bitrise/src/Source\l/AR6/include/AR6/ARTrackable\lMultiSquare.h">
<polygon fill="white" stroke="black" points="612,-212.5 612,-253.5 767,-253.5 767,-212.5 612,-212.5"/>
<text text-anchor="start" x="620" y="-241.5" font-family="Helvetica,sans-Serif" font-size="10.00">/bitrise/src/Source</text>
<text text-anchor="start" x="620" y="-230.5" font-family="Helvetica,sans-Serif" font-size="10.00">/AR6/include/AR6/ARTrackable</text>
<text text-anchor="middle" x="689.5" y="-219.5" font-family="Helvetica,sans-Serif" font-size="10.00">MultiSquare.h</text>
</a>
</g>
</g>
<!-- Node1&#45;&gt;Node15 -->
<g id="edge22" class="edge"><title>Node1&#45;&gt;Node15</title>
<path fill="none" stroke="midnightblue" d="M613.338,-284.655C627.905,-274.967 645.377,-263.346 659.91,-253.68"/>
<polygon fill="midnightblue" stroke="midnightblue" points="611.084,-281.95 604.696,-290.403 614.961,-287.779 611.084,-281.95"/>
</g>
<!-- Node16 -->
<g id="node16" class="node"><title>Node16</title>
<g id="a_node16"><a xlink:href="_a_r_tracker_square_8h.html" target="_top" xlink:title="/bitrise/src/Source\l/AR6/include/AR6/ARTracker\lSquare.h">
<polygon fill="white" stroke="black" points="629.5,-134.5 629.5,-175.5 775.5,-175.5 775.5,-134.5 629.5,-134.5"/>
<text text-anchor="start" x="637.5" y="-163.5" font-family="Helvetica,sans-Serif" font-size="10.00">/bitrise/src/Source</text>
<text text-anchor="start" x="637.5" y="-152.5" font-family="Helvetica,sans-Serif" font-size="10.00">/AR6/include/AR6/ARTracker</text>
<text text-anchor="middle" x="702.5" y="-141.5" font-family="Helvetica,sans-Serif" font-size="10.00">Square.h</text>
</a>
</g>
</g>
<!-- Node1&#45;&gt;Node16 -->
<g id="edge40" class="edge"><title>Node1&#45;&gt;Node16</title>
<path fill="none" stroke="midnightblue" d="M583.12,-280.002C583.991,-259.947 588.047,-231.763 602.5,-212 614.07,-196.18 631.541,-184.243 648.659,-175.544"/>
<polygon fill="midnightblue" stroke="midnightblue" points="579.616,-280.135 582.918,-290.202 586.615,-280.273 579.616,-280.135"/>
</g>
<!-- Node17 -->
<g id="node17" class="node"><title>Node17</title>
<g id="a_node17"><a xlink:href="_a_r_trackable_square_8h.html" target="_top" xlink:title="/bitrise/src/Source\l/AR6/include/AR6/ARTrackable\lSquare.h">
<polygon fill="white" stroke="black" points="785,-212.5 785,-253.5 940,-253.5 940,-212.5 785,-212.5"/>
<text text-anchor="start" x="793" y="-241.5" font-family="Helvetica,sans-Serif" font-size="10.00">/bitrise/src/Source</text>
<text text-anchor="start" x="793" y="-230.5" font-family="Helvetica,sans-Serif" font-size="10.00">/AR6/include/AR6/ARTrackable</text>
<text text-anchor="middle" x="862.5" y="-219.5" font-family="Helvetica,sans-Serif" font-size="10.00">Square.h</text>
</a>
</g>
</g>
<!-- Node1&#45;&gt;Node17 -->
<g id="edge30" class="edge"><title>Node1&#45;&gt;Node17</title>
<path fill="none" stroke="midnightblue" d="M648.792,-288.001C689.595,-277.691 742.347,-264.361 785.23,-253.525"/>
<polygon fill="midnightblue" stroke="midnightblue" points="647.793,-284.644 638.955,-290.487 649.508,-291.431 647.793,-284.644"/>
</g>
<!-- Node18 -->
<g id="node18" class="node"><title>Node18</title>
<g id="a_node18"><a xlink:href="_a_r_tracker_8h.html" target="_top" xlink:title="/bitrise/src/Source\l/AR6/include/AR6/ARTracker.h">
<polygon fill="white" stroke="black" points="111.5,-218 111.5,-248 265.5,-248 265.5,-218 111.5,-218"/>
<text text-anchor="start" x="119.5" y="-236" font-family="Helvetica,sans-Serif" font-size="10.00">/bitrise/src/Source</text>
<text text-anchor="middle" x="188.5" y="-225" font-family="Helvetica,sans-Serif" font-size="10.00">/AR6/include/AR6/ARTracker.h</text>
</a>
</g>
</g>
<!-- Node1&#45;&gt;Node18 -->
<g id="edge35" class="edge"><title>Node1&#45;&gt;Node18</title>
<path fill="none" stroke="midnightblue" d="M495.012,-288.707C426.079,-276.403 331.348,-259.496 265.518,-247.746"/>
<polygon fill="midnightblue" stroke="midnightblue" points="494.529,-292.176 504.988,-290.487 495.759,-285.285 494.529,-292.176"/>
</g>
<!-- Node3&#45;&gt;Node2 -->
<g id="edge5" class="edge"><title>Node3&#45;&gt;Node2</title>
<path fill="none" stroke="midnightblue" d="M722.896,-65.4016C674.477,-55.5657 611.399,-42.674 555.5,-31 552.664,-30.4078 549.762,-29.7991 546.832,-29.1824"/>
<polygon fill="midnightblue" stroke="midnightblue" points="722.502,-68.8928 732.998,-67.4526 723.894,-62.0328 722.502,-68.8928"/>
</g>
<!-- Node4 -->
<g id="node4" class="node"><title>Node4</title>
<g id="a_node4"><a xlink:href="_a_r6__c_8cpp.html" target="_top" xlink:title="/bitrise/src/Source\l/AR6/AR6_c.cpp">
<polygon fill="white" stroke="black" points="215.5,-0.5 215.5,-30.5 311.5,-30.5 311.5,-0.5 215.5,-0.5"/>
<text text-anchor="start" x="223.5" y="-18.5" font-family="Helvetica,sans-Serif" font-size="10.00">/bitrise/src/Source</text>
<text text-anchor="middle" x="263.5" y="-7.5" font-family="Helvetica,sans-Serif" font-size="10.00">/AR6/AR6_c.cpp</text>
</a>
</g>
</g>
<!-- Node3&#45;&gt;Node4 -->
<g id="edge3" class="edge"><title>Node3&#45;&gt;Node4</title>
<path fill="none" stroke="midnightblue" d="M710.696,-70.429C595.235,-56.5051 401.272,-33.1145 311.616,-22.3025"/>
<polygon fill="midnightblue" stroke="midnightblue" points="710.583,-73.9407 720.93,-71.6632 711.421,-66.991 710.583,-73.9407"/>
</g>
<!-- Node5 -->
<g id="node5" class="node"><title>Node5</title>
<g id="a_node5"><a xlink:href="_a_r_controller_8cpp.html" target="_top" xlink:title="/bitrise/src/Source\l/AR6/ARController.cpp">
<polygon fill="white" stroke="black" points="0,-0.5 0,-30.5 117,-30.5 117,-0.5 0,-0.5"/>
<text text-anchor="start" x="8" y="-18.5" font-family="Helvetica,sans-Serif" font-size="10.00">/bitrise/src/Source</text>
<text text-anchor="middle" x="58.5" y="-7.5" font-family="Helvetica,sans-Serif" font-size="10.00">/AR6/ARController.cpp</text>
</a>
</g>
</g>
<!-- Node3&#45;&gt;Node5 -->
<g id="edge4" class="edge"><title>Node3&#45;&gt;Node5</title>
<path fill="none" stroke="midnightblue" d="M710.521,-74.0834C593.415,-64.554 384.859,-47.2928 206.5,-31 177.062,-28.3108 144.35,-25.1266 117.182,-22.428"/>
<polygon fill="midnightblue" stroke="midnightblue" points="710.274,-77.5748 720.525,-74.8967 710.841,-70.5978 710.274,-77.5748"/>
</g>
<!-- Node6 -->
<g id="node6" class="node"><title>Node6</title>
<g id="a_node6"><a xlink:href="_a_r_trackable_appearance_8cpp.html" target="_top" xlink:title="/bitrise/src/Source\l/AR6/ARTrackableAppearance.cpp">
<polygon fill="white" stroke="black" points="722.5,-0.5 722.5,-30.5 892.5,-30.5 892.5,-0.5 722.5,-0.5"/>
<text text-anchor="start" x="730.5" y="-18.5" font-family="Helvetica,sans-Serif" font-size="10.00">/bitrise/src/Source</text>
<text text-anchor="middle" x="807.5" y="-7.5" font-family="Helvetica,sans-Serif" font-size="10.00">/AR6/ARTrackableAppearance.cpp</text>
</a>
</g>
</g>
<!-- Node3&#45;&gt;Node6 -->
<g id="edge6" class="edge"><title>Node3&#45;&gt;Node6</title>
<path fill="none" stroke="midnightblue" d="M804.354,-57.4029C805.048,-48.3703 805.815,-38.4078 806.417,-30.5765"/>
<polygon fill="midnightblue" stroke="midnightblue" points="800.862,-57.157 803.585,-67.396 807.842,-57.6939 800.862,-57.157"/>
</g>
<!-- Node7 -->
<g id="node7" class="node"><title>Node7</title>
<g id="a_node7"><a xlink:href="_a_r_trackable_multi_square_8cpp.html" target="_top" xlink:title="/bitrise/src/Source\l/AR6/ARTrackableMultiSquare.cpp">
<polygon fill="white" stroke="black" points="1060.5,-0.5 1060.5,-30.5 1230.5,-30.5 1230.5,-0.5 1060.5,-0.5"/>
<text text-anchor="start" x="1068.5" y="-18.5" font-family="Helvetica,sans-Serif" font-size="10.00">/bitrise/src/Source</text>
<text text-anchor="middle" x="1145.5" y="-7.5" font-family="Helvetica,sans-Serif" font-size="10.00">/AR6/ARTrackableMultiSquare.cpp</text>
</a>
</g>
</g>
<!-- Node3&#45;&gt;Node7 -->
<g id="edge7" class="edge"><title>Node3&#45;&gt;Node7</title>
<path fill="none" stroke="midnightblue" d="M886.495,-65.5825C943.053,-54.8647 1016.95,-40.8603 1071.33,-30.5549"/>
<polygon fill="midnightblue" stroke="midnightblue" points="885.677,-62.1752 876.504,-67.476 886.98,-69.0528 885.677,-62.1752"/>
</g>
<!-- Node8 -->
<g id="node8" class="node"><title>Node8</title>
<g id="a_node8"><a xlink:href="_a_r_trackable_square_8cpp.html" target="_top" xlink:title="/bitrise/src/Source\l/AR6/ARTrackableSquare.cpp">
<polygon fill="white" stroke="black" points="1249,-0.5 1249,-30.5 1398,-30.5 1398,-0.5 1249,-0.5"/>
<text text-anchor="start" x="1257" y="-18.5" font-family="Helvetica,sans-Serif" font-size="10.00">/bitrise/src/Source</text>
<text text-anchor="middle" x="1323.5" y="-7.5" font-family="Helvetica,sans-Serif" font-size="10.00">/AR6/ARTrackableSquare.cpp</text>
</a>
</g>
</g>
<!-- Node3&#45;&gt;Node8 -->
<g id="edge8" class="edge"><title>Node3&#45;&gt;Node8</title>
<path fill="none" stroke="midnightblue" d="M894.036,-72.4259C982.588,-63.293 1120.49,-48.1343 1239.5,-31 1242.58,-30.5571 1245.71,-30.0893 1248.88,-29.6037"/>
<polygon fill="midnightblue" stroke="midnightblue" points="893.612,-68.951 884.022,-73.4548 894.328,-75.9143 893.612,-68.951"/>
</g>
<!-- Node9 -->
<g id="node9" class="node"><title>Node9</title>
<g id="a_node9"><a xlink:href="_a_r_tracker_square_8cpp.html" target="_top" xlink:title="/bitrise/src/Source\l/AR6/ARTrackerSquare.cpp">
<polygon fill="white" stroke="black" points="565,-0.5 565,-30.5 704,-30.5 704,-0.5 565,-0.5"/>
<text text-anchor="start" x="573" y="-18.5" font-family="Helvetica,sans-Serif" font-size="10.00">/bitrise/src/Source</text>
<text text-anchor="middle" x="634.5" y="-7.5" font-family="Helvetica,sans-Serif" font-size="10.00">/AR6/ARTrackerSquare.cpp</text>
</a>
</g>
</g>
<!-- Node3&#45;&gt;Node9 -->
<g id="edge9" class="edge"><title>Node3&#45;&gt;Node9</title>
<path fill="none" stroke="midnightblue" d="M756.446,-63.6815C729.502,-53.2568 695.964,-40.2805 670.882,-30.5765"/>
<polygon fill="midnightblue" stroke="midnightblue" points="755.457,-67.0517 766.047,-67.396 757.983,-60.5233 755.457,-67.0517"/>
</g>
<!-- Node10 -->
<g id="node10" class="node"><title>Node10</title>
<g id="a_node10"><a xlink:href="_a_r_video_source_8cpp.html" target="_top" xlink:title="/bitrise/src/Source\l/AR6/ARVideoSource.cpp">
<polygon fill="white" stroke="black" points="911,-0.5 911,-30.5 1042,-30.5 1042,-0.5 911,-0.5"/>
<text text-anchor="start" x="919" y="-18.5" font-family="Helvetica,sans-Serif" font-size="10.00">/bitrise/src/Source</text>
<text text-anchor="middle" x="976.5" y="-7.5" font-family="Helvetica,sans-Serif" font-size="10.00">/AR6/ARVideoSource.cpp</text>
</a>
</g>
</g>
<!-- Node3&#45;&gt;Node10 -->
<g id="edge10" class="edge"><title>Node3&#45;&gt;Node10</title>
<path fill="none" stroke="midnightblue" d="M849.832,-63.8185C877.8,-53.3707 912.727,-40.3231 938.818,-30.5765"/>
<polygon fill="midnightblue" stroke="midnightblue" points="848.398,-60.6178 840.255,-67.396 850.848,-67.1752 848.398,-60.6178"/>
</g>
<!-- Node11&#45;&gt;Node2 -->
<g id="edge13" class="edge"><title>Node11&#45;&gt;Node2</title>
<path fill="none" stroke="midnightblue" d="M427.362,-209.597C434.484,-199.757 442.227,-187.777 447.5,-176 470.248,-125.191 481.55,-59.2418 485.644,-30.6979"/>
<polygon fill="midnightblue" stroke="midnightblue" points="424.534,-207.533 421.339,-217.634 430.137,-211.73 424.534,-207.533"/>
</g>
<!-- Node11&#45;&gt;Node3 -->
<g id="edge16" class="edge"><title>Node11&#45;&gt;Node3</title>
<path fill="none" stroke="midnightblue" d="M445.329,-213.148C486.703,-191.903 557.204,-157.301 620.5,-134 660.35,-119.33 706.456,-106.579 742.291,-97.56"/>
<polygon fill="midnightblue" stroke="midnightblue" points="443.488,-210.16 436.208,-217.858 446.7,-216.379 443.488,-210.16"/>
</g>
<!-- Node11&#45;&gt;Node5 -->
<g id="edge12" class="edge"><title>Node11&#45;&gt;Node5</title>
<path fill="none" stroke="midnightblue" d="M311.515,-217.184C222.371,-203.296 103.47,-183.57 95.5,-176 54.4844,-137.042 54.8775,-62.2717 57.0859,-30.9067"/>
<polygon fill="midnightblue" stroke="midnightblue" points="310.989,-220.644 321.408,-218.721 312.064,-213.727 310.989,-220.644"/>
</g>
<!-- Node12 -->
<g id="node12" class="node"><title>Node12</title>
<g id="a_node12"><a xlink:href="_a_r_trackable2_d_8cpp.html" target="_top" xlink:title="/bitrise/src/Source\l/AR6/ARTrackable2D.cpp">
<polygon fill="white" stroke="black" points="290,-140 290,-170 421,-170 421,-140 290,-140"/>
<text text-anchor="start" x="298" y="-158" font-family="Helvetica,sans-Serif" font-size="10.00">/bitrise/src/Source</text>
<text text-anchor="middle" x="355.5" y="-147" font-family="Helvetica,sans-Serif" font-size="10.00">/AR6/ARTrackable2D.cpp</text>
</a>
</g>
</g>
<!-- Node11&#45;&gt;Node12 -->
<g id="edge14" class="edge"><title>Node11&#45;&gt;Node12</title>
<path fill="none" stroke="midnightblue" d="M393.471,-209.441C384.443,-196.735 373.443,-181.254 365.611,-170.231"/>
<polygon fill="midnightblue" stroke="midnightblue" points="390.698,-211.58 399.343,-217.705 396.404,-207.526 390.698,-211.58"/>
</g>
<!-- Node13 -->
<g id="node13" class="node"><title>Node13</title>
<g id="a_node13"><a xlink:href="_a_r_tracker2_d_8cpp.html" target="_top" xlink:title="/bitrise/src/Source\l/AR6/ARTracker2D.cpp">
<polygon fill="white" stroke="black" points="278,-67.5 278,-97.5 399,-97.5 399,-67.5 278,-67.5"/>
<text text-anchor="start" x="286" y="-85.5" font-family="Helvetica,sans-Serif" font-size="10.00">/bitrise/src/Source</text>
<text text-anchor="middle" x="338.5" y="-74.5" font-family="Helvetica,sans-Serif" font-size="10.00">/AR6/ARTracker2D.cpp</text>
</a>
</g>
</g>
<!-- Node11&#45;&gt;Node13 -->
<g id="edge15" class="edge"><title>Node11&#45;&gt;Node13</title>
<path fill="none" stroke="midnightblue" d="M423.022,-208.563C433.117,-187.693 443.037,-156.994 429.5,-134 419.508,-117.028 401.528,-105.354 384.173,-97.5427"/>
<polygon fill="midnightblue" stroke="midnightblue" points="419.797,-207.179 418.306,-217.669 426.013,-210.399 419.797,-207.179"/>
</g>
<!-- Node14 -->
<g id="node14" class="node"><title>Node14</title>
<g id="a_node14"><a xlink:href="_a_r_tracker2_d_8h.html" target="_top" xlink:title="/bitrise/src/Source\l/AR6/include/AR6/ARTracker2D.h">
<polygon fill="white" stroke="black" points="105,-140 105,-170 272,-170 272,-140 105,-140"/>
<text text-anchor="start" x="113" y="-158" font-family="Helvetica,sans-Serif" font-size="10.00">/bitrise/src/Source</text>
<text text-anchor="middle" x="188.5" y="-147" font-family="Helvetica,sans-Serif" font-size="10.00">/AR6/include/AR6/ARTracker2D.h</text>
</a>
</g>
</g>
<!-- Node11&#45;&gt;Node14 -->
<g id="edge17" class="edge"><title>Node11&#45;&gt;Node14</title>
<path fill="none" stroke="midnightblue" d="M359.061,-214.654C319.809,-201.156 266.033,-182.663 229.428,-170.075"/>
<polygon fill="midnightblue" stroke="midnightblue" points="358.113,-218.03 368.708,-217.972 360.389,-211.41 358.113,-218.03"/>
</g>
<!-- Node14&#45;&gt;Node2 -->
<g id="edge19" class="edge"><title>Node14&#45;&gt;Node2</title>
<path fill="none" stroke="midnightblue" d="M203.179,-131.55C217.465,-111.535 241,-83.0005 268.5,-67 317.739,-38.3507 382.046,-25.9541 428.219,-20.5903"/>
<polygon fill="midnightblue" stroke="midnightblue" points="200.277,-129.593 197.462,-139.808 206.032,-133.578 200.277,-129.593"/>
</g>
<!-- Node14&#45;&gt;Node3 -->
<g id="edge21" class="edge"><title>Node14&#45;&gt;Node3</title>
<path fill="none" stroke="midnightblue" d="M258.063,-137.974C265.613,-136.505 273.202,-135.142 280.5,-134 435.219,-109.785 617.674,-95.3122 720.751,-88.4218"/>
<polygon fill="midnightblue" stroke="midnightblue" points="257.304,-134.556 248.19,-139.957 258.683,-141.419 257.304,-134.556"/>
</g>
<!-- Node14&#45;&gt;Node5 -->
<g id="edge18" class="edge"><title>Node14&#45;&gt;Node5</title>
<path fill="none" stroke="midnightblue" d="M168.066,-132.387C141.244,-104.018 94.8984,-54.9983 72.0444,-30.8258"/>
<polygon fill="midnightblue" stroke="midnightblue" points="165.664,-134.941 175.077,-139.803 170.75,-130.132 165.664,-134.941"/>
</g>
<!-- Node14&#45;&gt;Node13 -->
<g id="edge20" class="edge"><title>Node14&#45;&gt;Node13</title>
<path fill="none" stroke="midnightblue" d="M227.798,-135.53C253.061,-123.656 285.373,-108.47 308.558,-97.5729"/>
<polygon fill="midnightblue" stroke="midnightblue" points="226.056,-132.481 218.494,-139.903 229.033,-138.817 226.056,-132.481"/>
</g>
<!-- Node15&#45;&gt;Node2 -->
<g id="edge23" class="edge"><title>Node15&#45;&gt;Node2</title>
<path fill="none" stroke="midnightblue" d="M654.254,-206.183C642.95,-197.189 630.721,-186.667 620.5,-176 578.742,-132.421 579.278,-112.394 539.5,-67 528.22,-54.128 514.25,-40.6801 503.63,-30.9009"/>
<polygon fill="midnightblue" stroke="midnightblue" points="652.242,-209.052 662.281,-212.441 656.547,-203.532 652.242,-209.052"/>
</g>
<!-- Node15&#45;&gt;Node3 -->
<g id="edge25" class="edge"><title>Node15&#45;&gt;Node3</title>
<path fill="none" stroke="midnightblue" d="M748.931,-207.334C762.427,-199.182 775.437,-188.826 784.5,-176 801.211,-152.351 803.419,-117.185 803.19,-97.7334"/>
<polygon fill="midnightblue" stroke="midnightblue" points="747.005,-204.403 740.029,-212.377 750.455,-210.494 747.005,-204.403"/>
</g>
<!-- Node15&#45;&gt;Node7 -->
<g id="edge24" class="edge"><title>Node15&#45;&gt;Node7</title>
<path fill="none" stroke="midnightblue" d="M739.925,-208.17C835.26,-163.116 1039.22,-66.7251 1115.71,-30.5785"/>
<polygon fill="midnightblue" stroke="midnightblue" points="738.317,-205.058 730.771,-212.496 741.308,-211.387 738.317,-205.058"/>
</g>
<!-- Node15&#45;&gt;Node16 -->
<g id="edge26" class="edge"><title>Node15&#45;&gt;Node16</title>
<path fill="none" stroke="midnightblue" d="M694.581,-202.297C696.12,-193.301 697.77,-183.653 699.164,-175.506"/>
<polygon fill="midnightblue" stroke="midnightblue" points="691.084,-201.981 692.848,-212.428 697.984,-203.161 691.084,-201.981"/>
</g>
<!-- Node16&#45;&gt;Node2 -->
<g id="edge27" class="edge"><title>Node16&#45;&gt;Node2</title>
<path fill="none" stroke="midnightblue" d="M667.367,-128.187C642.649,-110.364 608.567,-86.4635 577.5,-67 556.699,-53.9681 532.387,-40.4216 514.278,-30.6435"/>
<polygon fill="midnightblue" stroke="midnightblue" points="665.547,-131.19 675.699,-134.22 669.652,-125.52 665.547,-131.19"/>
</g>
<!-- Node16&#45;&gt;Node3 -->
<g id="edge29" class="edge"><title>Node16&#45;&gt;Node3</title>
<path fill="none" stroke="midnightblue" d="M738.775,-128.426C753.483,-118.057 769.91,-106.476 782.401,-97.67"/>
<polygon fill="midnightblue" stroke="midnightblue" points="736.512,-125.739 730.356,-134.362 740.545,-131.46 736.512,-125.739"/>
</g>
<!-- Node16&#45;&gt;Node9 -->
<g id="edge28" class="edge"><title>Node16&#45;&gt;Node9</title>
<path fill="none" stroke="midnightblue" d="M688.205,-125.094C673.903,-96.1748 652.498,-52.8923 641.53,-30.7151"/>
<polygon fill="midnightblue" stroke="midnightblue" points="685.187,-126.887 692.757,-134.3 691.462,-123.784 685.187,-126.887"/>
</g>
<!-- Node17&#45;&gt;Node2 -->
<g id="edge31" class="edge"><title>Node17&#45;&gt;Node2</title>
<path fill="none" stroke="midnightblue" d="M845.773,-203.691C831.762,-182.076 809.992,-152.886 784.5,-134 762.779,-117.908 601.825,-58.1557 526.353,-30.5938"/>
<polygon fill="midnightblue" stroke="midnightblue" points="842.813,-205.56 851.111,-212.147 848.732,-201.823 842.813,-205.56"/>
</g>
<!-- Node17&#45;&gt;Node3 -->
<g id="edge33" class="edge"><title>Node17&#45;&gt;Node3</title>
<path fill="none" stroke="midnightblue" d="M865.82,-202.003C866.773,-181.843 865.486,-155.188 855.5,-134 848.51,-119.169 835.107,-106.462 823.529,-97.5042"/>
<polygon fill="midnightblue" stroke="midnightblue" points="862.315,-201.96 865.127,-212.175 869.299,-202.436 862.315,-201.96"/>
</g>
<!-- Node17&#45;&gt;Node8 -->
<g id="edge32" class="edge"><title>Node17&#45;&gt;Node8</title>
<path fill="none" stroke="midnightblue" d="M913.478,-208.17C1009.86,-163.116 1216.06,-66.7251 1293.38,-30.5785"/>
<polygon fill="midnightblue" stroke="midnightblue" points="911.801,-205.09 904.224,-212.496 914.765,-211.432 911.801,-205.09"/>
</g>
<!-- Node17&#45;&gt;Node16 -->
<g id="edge34" class="edge"><title>Node17&#45;&gt;Node16</title>
<path fill="none" stroke="midnightblue" d="M812.076,-208.049C790.008,-197.566 764.446,-185.424 743.564,-175.506"/>
<polygon fill="midnightblue" stroke="midnightblue" points="810.762,-211.299 821.296,-212.428 813.765,-204.976 810.762,-211.299"/>
</g>
<!-- Node18&#45;&gt;Node4 -->
<g id="edge36" class="edge"><title>Node18&#45;&gt;Node4</title>
<path fill="none" stroke="midnightblue" d="M137.515,-213.344C121.124,-204.641 104.811,-192.475 95.5,-176 86.3158,-159.749 86.8762,-150.555 95.5,-134 122.714,-81.7574 184.955,-47.9547 225.561,-30.584"/>
<polygon fill="midnightblue" stroke="midnightblue" points="136.069,-216.533 146.585,-217.828 139.171,-210.258 136.069,-216.533"/>
</g>
<!-- Node18&#45;&gt;Node5 -->
<g id="edge37" class="edge"><title>Node18&#45;&gt;Node5</title>
<path fill="none" stroke="midnightblue" d="M101.353,-222.445C72.4352,-214.647 43.1491,-200.725 25.5,-176 -2.6454,-136.57 11.6749,-113.43 25.5,-67 29.5051,-53.5494 38.3589,-40.3436 45.8881,-30.8115"/>
<polygon fill="midnightblue" stroke="midnightblue" points="100.58,-225.859 111.128,-224.862 102.26,-219.064 100.58,-225.859"/>
</g>
<!-- Node18&#45;&gt;Node14 -->
<g id="edge38" class="edge"><title>Node18&#45;&gt;Node14</title>
<path fill="none" stroke="midnightblue" d="M188.5,-207.59C188.5,-195.257 188.5,-180.724 188.5,-170.231"/>
<polygon fill="midnightblue" stroke="midnightblue" points="185,-207.705 188.5,-217.705 192,-207.705 185,-207.705"/>
</g>
<!-- Node18&#45;&gt;Node16 -->
<g id="edge39" class="edge"><title>Node18&#45;&gt;Node16</title>
<path fill="none" stroke="midnightblue" d="M275.44,-217.782C287.873,-215.806 300.508,-213.828 312.5,-212 422.892,-195.173 551.087,-177.034 629.487,-166.1"/>
<polygon fill="midnightblue" stroke="midnightblue" points="274.852,-214.332 265.528,-219.364 275.955,-221.244 274.852,-214.332"/>
</g>
</g>
</svg>
        <g id="navigator" transform="translate(0 0)" fill="#404254">
                <rect fill="#f2f5e9" fill-opacity="0.5" stroke="#606060" stroke-width=".5" x="0" y="0" width="60" height="60"/>
                <use id="zoomplus" xlink:href="#zoomPlus" x="17" y="9" onmousedown="handleZoom(evt,'in')"/>
                <use id="zoomminus" xlink:href="#zoomMin" x="42" y="9" onmousedown="handleZoom(evt,'out')"/>
                <use id="reset" xlink:href="#resetDef" x="30" y="36" onmousedown="handleReset()"/>
                <g id="arrowUp" xlink:href="#dirArrow" transform="translate(30 24)" onmousedown="handlePan(0,-1)">
                  <use xlink:href="#rim" fill="#404040">
                        <set attributeName="fill" to="#808080" begin="arrowUp.mouseover" end="arrowUp.mouseout"/>
                  </use>
                  <path fill="none" stroke="white" stroke-width="1.5" d="M0,-3.0v7 M-2.5,-0.5L0,-3.0L2.5,-0.5"/>
                </g>
                <g id="arrowRight" xlink:href="#dirArrow" transform="rotate(90) translate(36 -43)" onmousedown="handlePan(1,0)">
                  <use xlink:href="#rim" fill="#404040">
                        <set attributeName="fill" to="#808080" begin="arrowRight.mouseover" end="arrowRight.mouseout"/>
                  </use>
                  <path fill="none" stroke="white" stroke-width="1.5" d="M0,-3.0v7 M-2.5,-0.5L0,-3.0L2.5,-0.5"/>
                </g>
                <g id="arrowDown" xlink:href="#dirArrow" transform="rotate(180) translate(-30 -48)" onmousedown="handlePan(0,1)">
                  <use xlink:href="#rim" fill="#404040">
                        <set attributeName="fill" to="#808080" begin="arrowDown.mouseover" end="arrowDown.mouseout"/>
                  </use>
                  <path fill="none" stroke="white" stroke-width="1.5" d="M0,-3.0v7 M-2.5,-0.5L0,-3.0L2.5,-0.5"/>
                </g>
                <g id="arrowLeft" xlink:href="#dirArrow" transform="rotate(270) translate(-36 17)" onmousedown="handlePan(-1,0)">
                  <use xlink:href="#rim" fill="#404040">
                        <set attributeName="fill" to="#808080" begin="arrowLeft.mouseover" end="arrowLeft.mouseout"/>
                  </use>
                  <path fill="none" stroke="white" stroke-width="1.5" d="M0,-3.0v7 M-2.5,-0.5L0,-3.0L2.5,-0.5"/>
                </g>
        </g>
        <svg viewBox="0 0 15 15" width="100%" height="30px" preserveAspectRatio="xMaxYMin meet">
         <g id="arrow_out" transform="scale(0.3 0.3)">
          <a xlink:href="_a_r_trackable_8h__dep__incl_org.svg" target="_base">
           <rect id="button" ry="5" rx="5" y="6" x="6" height="38" width="38"
                fill="#f2f5e9" fill-opacity="0.5" stroke="#606060" stroke-width="1.0"/>
           <path id="arrow"
             d="M 11.500037,31.436501 C 11.940474,20.09759 22.043105,11.32322 32.158766,21.979434 L 37.068811,17.246167 C 37.068811,17.246167 37.088388,32 37.088388,32 L 22.160133,31.978069 C 22.160133,31.978069 26.997745,27.140456 26.997745,27.140456 C 18.528582,18.264221 13.291696,25.230495 11.500037,31.436501 z"
             style="fill:#404040;"/>
          </a>
         </g>
        </svg>
</svg>
