<?xml version="1.0" encoding="UTF-8" standalone="no"?>
<!DOCTYPE svg PUBLIC "-//W3C//DTD SVG 1.1//EN"
 "http://www.w3.org/Graphics/SVG/1.1/DTD/svg11.dtd">
<!-- Generated by graphviz version 2.38.0 (20140413.2041)
 -->
<!-- Title: /bitrise/src/Source/AR6/ARTrackerSquare.cpp Pages: 1 -->
<svg width="1463pt" height="487pt"
 viewBox="0.00 0.00 1463.00 487.00" xmlns="http://www.w3.org/2000/svg" xmlns:xlink="http://www.w3.org/1999/xlink">
<g id="graph0" class="graph" transform="scale(1 1) rotate(0) translate(4 483)">
<title>/bitrise/src/Source/AR6/ARTrackerSquare.cpp</title>
<polygon fill="white" stroke="none" points="-4,4 -4,-483 1459,-483 1459,4 -4,4"/>
<!-- Node1 -->
<g id="node1" class="node"><title>Node1</title>
<polygon fill="#bfbfbf" stroke="black" points="1141.5,-448.5 1141.5,-478.5 1280.5,-478.5 1280.5,-448.5 1141.5,-448.5"/>
<text text-anchor="start" x="1149.5" y="-466.5" font-family="Helvetica,sans-Serif" font-size="10.00">/bitrise/src/Source</text>
<text text-anchor="middle" x="1211" y="-455.5" font-family="Helvetica,sans-Serif" font-size="10.00">/AR6/ARTrackerSquare.cpp</text>
</g>
<!-- Node2 -->
<g id="node2" class="node"><title>Node2</title>
<g id="a_node2"><a xlink:href="_a_r_tracker_square_8h.html" target="_top" xlink:title="AR6/ARTrackerSquare.h">
<polygon fill="white" stroke="black" points="970.5,-336.5 970.5,-355.5 1095.5,-355.5 1095.5,-336.5 970.5,-336.5"/>
<text text-anchor="middle" x="1033" y="-343.5" font-family="Helvetica,sans-Serif" font-size="10.00">AR6/ARTrackerSquare.h</text>
</a>
</g>
</g>
<!-- Node1&#45;&gt;Node2 -->
<g id="edge1" class="edge"><title>Node1&#45;&gt;Node2</title>
<path fill="none" stroke="midnightblue" d="M1189.17,-448.337C1155.06,-426.203 1089.47,-383.644 1055.16,-361.378"/>
<polygon fill="midnightblue" stroke="midnightblue" points="1056.65,-358.177 1046.36,-355.669 1052.84,-364.049 1056.65,-358.177"/>
</g>
<!-- Node28 -->
<g id="node28" class="node"><title>Node28</title>
<g id="a_node28"><a xlink:href="ar_multi_8h.html" target="_top" xlink:title="AR6/AR/arMulti.h">
<polygon fill="white" stroke="black" points="1130,-224.5 1130,-243.5 1224,-243.5 1224,-224.5 1130,-224.5"/>
<text text-anchor="middle" x="1177" y="-231.5" font-family="Helvetica,sans-Serif" font-size="10.00">AR6/AR/arMulti.h</text>
</a>
</g>
</g>
<!-- Node1&#45;&gt;Node28 -->
<g id="edge48" class="edge"><title>Node1&#45;&gt;Node28</title>
<path fill="none" stroke="midnightblue" d="M1222.42,-448.214C1246.66,-416.05 1298.31,-336.367 1264,-280 1254.54,-264.457 1237.79,-254.045 1221.5,-247.191"/>
<polygon fill="midnightblue" stroke="midnightblue" points="1222.6,-243.868 1212.01,-243.555 1220.1,-250.403 1222.6,-243.868"/>
</g>
<!-- Node29 -->
<g id="node29" class="node"><title>Node29</title>
<g id="a_node29"><a xlink:href="_error_8h.html" target="_top" xlink:title="Defines error codes used in the library. ">
<polygon fill="white" stroke="black" points="1387,-392.5 1387,-411.5 1455,-411.5 1455,-392.5 1387,-392.5"/>
<text text-anchor="middle" x="1421" y="-399.5" font-family="Helvetica,sans-Serif" font-size="10.00">AR6/Error.h</text>
</a>
</g>
</g>
<!-- Node1&#45;&gt;Node29 -->
<g id="edge44" class="edge"><title>Node1&#45;&gt;Node29</title>
<path fill="none" stroke="midnightblue" d="M1260.5,-448.475C1297.36,-438.03 1347.03,-423.958 1381.31,-414.247"/>
<polygon fill="midnightblue" stroke="midnightblue" points="1382.31,-417.6 1390.98,-411.506 1380.4,-410.865 1382.31,-417.6"/>
</g>
<!-- Node30 -->
<g id="node30" class="node"><title>Node30</title>
<g id="a_node30"><a xlink:href="param_g_l_8h.html" target="_top" xlink:title="Routines for converting ARParam and matrix types to OpenGL. ">
<polygon fill="white" stroke="black" points="1185,-168.5 1185,-187.5 1289,-187.5 1289,-168.5 1185,-168.5"/>
<text text-anchor="middle" x="1237" y="-175.5" font-family="Helvetica,sans-Serif" font-size="10.00">AR6/AR/paramGL.h</text>
</a>
</g>
</g>
<!-- Node1&#45;&gt;Node30 -->
<g id="edge45" class="edge"><title>Node1&#45;&gt;Node30</title>
<path fill="none" stroke="midnightblue" d="M1230.11,-448.35C1241.53,-439.076 1255.59,-426.09 1265,-412 1279.76,-389.895 1281.26,-382.155 1286,-356 1296.78,-296.55 1264.75,-228.132 1247.39,-196.594"/>
<polygon fill="midnightblue" stroke="midnightblue" points="1250.32,-194.673 1242.33,-187.709 1244.23,-198.132 1250.32,-194.673"/>
</g>
<!-- Node31 -->
<g id="node31" class="node"><title>Node31</title>
<g id="a_node31"><a xlink:href="video_8h.html" target="_top" xlink:title="AR6/ARVideo/video.h">
<polygon fill="white" stroke="black" points="307.5,-224.5 307.5,-243.5 420.5,-243.5 420.5,-224.5 307.5,-224.5"/>
<text text-anchor="middle" x="364" y="-231.5" font-family="Helvetica,sans-Serif" font-size="10.00">AR6/ARVideo/video.h</text>
</a>
</g>
</g>
<!-- Node1&#45;&gt;Node31 -->
<g id="edge49" class="edge"><title>Node1&#45;&gt;Node31</title>
<path fill="none" stroke="midnightblue" d="M1141.39,-458.911C937.484,-447.791 351.788,-411.301 287,-356 260.674,-333.529 251.551,-309.286 270,-280 280.008,-264.112 297.351,-253.711 314.436,-246.958"/>
<polygon fill="midnightblue" stroke="midnightblue" points="315.628,-250.249 323.853,-243.571 313.258,-243.662 315.628,-250.249"/>
</g>
<!-- Node35 -->
<g id="node35" class="node"><title>Node35</title>
<g id="a_node35"><a xlink:href="_a_r_controller_8h.html" target="_top" xlink:title="AR6/ARController.h">
<polygon fill="white" stroke="black" points="702,-392.5 702,-411.5 806,-411.5 806,-392.5 702,-392.5"/>
<text text-anchor="middle" x="754" y="-399.5" font-family="Helvetica,sans-Serif" font-size="10.00">AR6/ARController.h</text>
</a>
</g>
</g>
<!-- Node1&#45;&gt;Node35 -->
<g id="edge56" class="edge"><title>Node1&#45;&gt;Node35</title>
<path fill="none" stroke="midnightblue" d="M1141.09,-453.398C1052.43,-441.855 900.917,-422.128 816.129,-411.089"/>
<polygon fill="midnightblue" stroke="midnightblue" points="816.497,-407.607 806.129,-409.787 815.593,-414.549 816.497,-407.607"/>
</g>
<!-- Node3 -->
<g id="node3" class="node"><title>Node3</title>
<g id="a_node3"><a xlink:href="_a_r_tracker_8h.html" target="_top" xlink:title="AR6/ARTracker.h">
<polygon fill="white" stroke="black" points="679.5,-280.5 679.5,-299.5 774.5,-299.5 774.5,-280.5 679.5,-280.5"/>
<text text-anchor="middle" x="727" y="-287.5" font-family="Helvetica,sans-Serif" font-size="10.00">AR6/ARTracker.h</text>
</a>
</g>
</g>
<!-- Node2&#45;&gt;Node3 -->
<g id="edge2" class="edge"><title>Node2&#45;&gt;Node3</title>
<path fill="none" stroke="midnightblue" d="M984.513,-336.444C930.223,-326.863 842.301,-311.347 784.564,-301.158"/>
<polygon fill="midnightblue" stroke="midnightblue" points="784.961,-297.674 774.505,-299.383 783.744,-304.568 784.961,-297.674"/>
</g>
<!-- Node21 -->
<g id="node21" class="node"><title>Node21</title>
<g id="a_node21"><a xlink:href="_a_r_trackable_8h.html" target="_top" xlink:title="AR6/ARTrackable.h">
<polygon fill="white" stroke="black" points="885,-224.5 885,-243.5 989,-243.5 989,-224.5 885,-224.5"/>
<text text-anchor="middle" x="937" y="-231.5" font-family="Helvetica,sans-Serif" font-size="10.00">AR6/ARTrackable.h</text>
</a>
</g>
</g>
<!-- Node2&#45;&gt;Node21 -->
<g id="edge36" class="edge"><title>Node2&#45;&gt;Node21</title>
<path fill="none" stroke="midnightblue" d="M1038.77,-336.219C1046.69,-322.937 1058.71,-297.443 1047,-280 1035.88,-263.443 1017.48,-252.973 998.88,-246.355"/>
<polygon fill="midnightblue" stroke="midnightblue" points="999.763,-242.962 989.172,-243.233 997.62,-249.626 999.763,-242.962"/>
</g>
<!-- Node25 -->
<g id="node25" class="node"><title>Node25</title>
<polygon fill="white" stroke="#bfbfbf" points="719,-168.5 719,-187.5 763,-187.5 763,-168.5 719,-168.5"/>
<text text-anchor="middle" x="741" y="-175.5" font-family="Helvetica,sans-Serif" font-size="10.00">vector</text>
</g>
<!-- Node2&#45;&gt;Node25 -->
<g id="edge43" class="edge"><title>Node2&#45;&gt;Node25</title>
<path fill="none" stroke="midnightblue" d="M1032.89,-336.488C1032.22,-322.627 1028.85,-295.203 1013,-280 967.569,-236.417 935.078,-265.756 876,-244 835.998,-229.269 791.89,-206.762 765.324,-192.471"/>
<polygon fill="midnightblue" stroke="midnightblue" points="766.829,-189.306 756.371,-187.608 763.487,-195.457 766.829,-189.306"/>
</g>
<!-- Node26 -->
<g id="node26" class="node"><title>Node26</title>
<g id="a_node26"><a xlink:href="_a_r_trackable_square_8h.html" target="_top" xlink:title="AR6/ARTrackableSquare.h">
<polygon fill="white" stroke="black" points="869.5,-280.5 869.5,-299.5 1004.5,-299.5 1004.5,-280.5 869.5,-280.5"/>
<text text-anchor="middle" x="937" y="-287.5" font-family="Helvetica,sans-Serif" font-size="10.00">AR6/ARTrackableSquare.h</text>
</a>
</g>
</g>
<!-- Node2&#45;&gt;Node26 -->
<g id="edge37" class="edge"><title>Node2&#45;&gt;Node26</title>
<path fill="none" stroke="midnightblue" d="M1017.58,-336.324C1002.46,-327.822 979.185,-314.729 961.529,-304.797"/>
<polygon fill="midnightblue" stroke="midnightblue" points="962.817,-301.507 952.386,-299.655 959.386,-307.608 962.817,-301.507"/>
</g>
<!-- Node27 -->
<g id="node27" class="node"><title>Node27</title>
<g id="a_node27"><a xlink:href="_a_r_trackable_multi_square_8h.html" target="_top" xlink:title="AR6/ARTrackableMultiSquare.h">
<polygon fill="white" stroke="black" points="1099,-280.5 1099,-299.5 1255,-299.5 1255,-280.5 1099,-280.5"/>
<text text-anchor="middle" x="1177" y="-287.5" font-family="Helvetica,sans-Serif" font-size="10.00">AR6/ARTrackableMultiSquare.h</text>
</a>
</g>
</g>
<!-- Node2&#45;&gt;Node27 -->
<g id="edge39" class="edge"><title>Node2&#45;&gt;Node27</title>
<path fill="none" stroke="midnightblue" d="M1055.82,-336.444C1079.83,-327.438 1117.83,-313.189 1144.87,-303.049"/>
<polygon fill="midnightblue" stroke="midnightblue" points="1146.16,-306.305 1154.29,-299.516 1143.7,-299.751 1146.16,-306.305"/>
</g>
<!-- Node4 -->
<g id="node4" class="node"><title>Node4</title>
<g id="a_node4"><a xlink:href="_platform_8h.html" target="_top" xlink:title="AR6/Platform.h">
<polygon fill="white" stroke="black" points="567,-224.5 567,-243.5 651,-243.5 651,-224.5 567,-224.5"/>
<text text-anchor="middle" x="609" y="-231.5" font-family="Helvetica,sans-Serif" font-size="10.00">AR6/Platform.h</text>
</a>
</g>
</g>
<!-- Node3&#45;&gt;Node4 -->
<g id="edge3" class="edge"><title>Node3&#45;&gt;Node4</title>
<path fill="none" stroke="midnightblue" d="M708.303,-280.444C689.056,-271.636 658.848,-257.812 636.8,-247.722"/>
<polygon fill="midnightblue" stroke="midnightblue" points="638.16,-244.495 627.61,-243.516 635.247,-250.86 638.16,-244.495"/>
</g>
<!-- Node5 -->
<g id="node5" class="node"><title>Node5</title>
<g id="a_node5"><a xlink:href="ar_8h.html" target="_top" xlink:title="ARToolKit core routines. ">
<polygon fill="white" stroke="black" points="654.5,-112.5 654.5,-131.5 727.5,-131.5 727.5,-112.5 654.5,-112.5"/>
<text text-anchor="middle" x="691" y="-119.5" font-family="Helvetica,sans-Serif" font-size="10.00">AR6/AR/ar.h</text>
</a>
</g>
</g>
<!-- Node3&#45;&gt;Node5 -->
<g id="edge4" class="edge"><title>Node3&#45;&gt;Node5</title>
<path fill="none" stroke="midnightblue" d="M725.064,-280.075C719.398,-253.945 702.757,-177.211 695.029,-141.577"/>
<polygon fill="midnightblue" stroke="midnightblue" points="698.398,-140.599 692.858,-131.568 691.557,-142.083 698.398,-140.599"/>
</g>
<!-- Node3&#45;&gt;Node21 -->
<g id="edge27" class="edge"><title>Node3&#45;&gt;Node21</title>
<path fill="none" stroke="midnightblue" d="M760.275,-280.444C796.448,-271.142 854.377,-256.246 893.981,-246.062"/>
<polygon fill="midnightblue" stroke="midnightblue" points="895.067,-249.397 903.881,-243.516 893.324,-242.617 895.067,-249.397"/>
</g>
<!-- Node3&#45;&gt;Node25 -->
<g id="edge35" class="edge"><title>Node3&#45;&gt;Node25</title>
<path fill="none" stroke="midnightblue" d="M728.099,-280.368C730.358,-262.617 735.57,-221.666 738.633,-197.597"/>
<polygon fill="midnightblue" stroke="midnightblue" points="742.116,-197.953 739.907,-187.591 735.172,-197.069 742.116,-197.953"/>
</g>
<!-- Node6 -->
<g id="node6" class="node"><title>Node6</title>
<polygon fill="white" stroke="#bfbfbf" points="646,-0.5 646,-19.5 692,-19.5 692,-0.5 646,-0.5"/>
<text text-anchor="middle" x="669" y="-7.5" font-family="Helvetica,sans-Serif" font-size="10.00">stdio.h</text>
</g>
<!-- Node5&#45;&gt;Node6 -->
<g id="edge5" class="edge"><title>Node5&#45;&gt;Node6</title>
<path fill="none" stroke="midnightblue" d="M689.274,-112.368C685.723,-94.617 677.533,-53.6664 672.719,-29.5974"/>
<polygon fill="midnightblue" stroke="midnightblue" points="676.112,-28.7108 670.718,-19.5914 669.247,-30.0837 676.112,-28.7108"/>
</g>
<!-- Node7 -->
<g id="node7" class="node"><title>Node7</title>
<polygon fill="white" stroke="#bfbfbf" points="920,-0.5 920,-19.5 968,-19.5 968,-0.5 920,-0.5"/>
<text text-anchor="middle" x="944" y="-7.5" font-family="Helvetica,sans-Serif" font-size="10.00">stdlib.h</text>
</g>
<!-- Node5&#45;&gt;Node7 -->
<g id="edge6" class="edge"><title>Node5&#45;&gt;Node7</title>
<path fill="none" stroke="midnightblue" d="M727.871,-119.651C789.971,-116.546 911.373,-106.622 939,-76 950.117,-63.6785 950.139,-44.1483 948.129,-29.7091"/>
<polygon fill="midnightblue" stroke="midnightblue" points="951.572,-29.0796 946.346,-19.8634 944.684,-30.3271 951.572,-29.0796"/>
</g>
<!-- Node8 -->
<g id="node8" class="node"><title>Node8</title>
<polygon fill="white" stroke="#bfbfbf" points="613.5,-56.5 613.5,-75.5 662.5,-75.5 662.5,-56.5 613.5,-56.5"/>
<text text-anchor="middle" x="638" y="-63.5" font-family="Helvetica,sans-Serif" font-size="10.00">stdint.h</text>
</g>
<!-- Node5&#45;&gt;Node8 -->
<g id="edge7" class="edge"><title>Node5&#45;&gt;Node8</title>
<path fill="none" stroke="midnightblue" d="M682.248,-112.083C674.53,-104.22 663.095,-92.5688 653.783,-83.0813"/>
<polygon fill="midnightblue" stroke="midnightblue" points="656.092,-80.4363 646.589,-75.7511 651.096,-85.3396 656.092,-80.4363"/>
</g>
<!-- Node9 -->
<g id="node9" class="node"><title>Node9</title>
<polygon fill="white" stroke="#bfbfbf" points="986.5,-0.5 986.5,-19.5 1035.5,-19.5 1035.5,-0.5 986.5,-0.5"/>
<text text-anchor="middle" x="1011" y="-7.5" font-family="Helvetica,sans-Serif" font-size="10.00">string.h</text>
</g>
<!-- Node5&#45;&gt;Node9 -->
<g id="edge8" class="edge"><title>Node5&#45;&gt;Node9</title>
<path fill="none" stroke="midnightblue" d="M727.644,-118.024C791.359,-112.329 919.449,-98.4251 958,-76 977.204,-64.8292 992.343,-43.8845 1001.44,-28.7847"/>
<polygon fill="midnightblue" stroke="midnightblue" points="1004.61,-30.2876 1006.53,-19.8675 998.534,-26.8182 1004.61,-30.2876"/>
</g>
<!-- Node10 -->
<g id="node10" class="node"><title>Node10</title>
<polygon fill="white" stroke="#bfbfbf" points="356.5,-0.5 356.5,-19.5 447.5,-19.5 447.5,-0.5 356.5,-0.5"/>
<text text-anchor="middle" x="402" y="-7.5" font-family="Helvetica,sans-Serif" font-size="10.00">AR6/AR/config.h</text>
</g>
<!-- Node5&#45;&gt;Node10 -->
<g id="edge9" class="edge"><title>Node5&#45;&gt;Node10</title>
<path fill="none" stroke="midnightblue" d="M654.401,-115.322C616.896,-108.734 557.385,-96.1239 509,-76 491.766,-68.8322 449.495,-42.0253 423.539,-25.1573"/>
<polygon fill="midnightblue" stroke="midnightblue" points="425.394,-22.1882 415.106,-19.6538 421.568,-28.0502 425.394,-22.1882"/>
</g>
<!-- Node11 -->
<g id="node11" class="node"><title>Node11</title>
<g id="a_node11"><a xlink:href="ar_config_8h.html" target="_top" xlink:title="AR6/AR/arConfig.h">
<polygon fill="white" stroke="black" points="829.5,-56.5 829.5,-75.5 930.5,-75.5 930.5,-56.5 829.5,-56.5"/>
<text text-anchor="middle" x="880" y="-63.5" font-family="Helvetica,sans-Serif" font-size="10.00">AR6/AR/arConfig.h</text>
</a>
</g>
</g>
<!-- Node5&#45;&gt;Node11 -->
<g id="edge10" class="edge"><title>Node5&#45;&gt;Node11</title>
<path fill="none" stroke="midnightblue" d="M720.948,-112.444C753.158,-103.241 804.534,-88.5617 840.142,-78.3879"/>
<polygon fill="midnightblue" stroke="midnightblue" points="841.539,-81.629 850.192,-75.5164 839.616,-74.8984 841.539,-81.629"/>
</g>
<!-- Node12 -->
<g id="node12" class="node"><title>Node12</title>
<g id="a_node12"><a xlink:href="log_8h.html" target="_top" xlink:title="Logging utilities. ">
<polygon fill="white" stroke="black" points="719,-56.5 719,-75.5 811,-75.5 811,-56.5 719,-56.5"/>
<text text-anchor="middle" x="765" y="-63.5" font-family="Helvetica,sans-Serif" font-size="10.00">AR6/ARUtil/log.h</text>
</a>
</g>
</g>
<!-- Node5&#45;&gt;Node12 -->
<g id="edge11" class="edge"><title>Node5&#45;&gt;Node12</title>
<path fill="none" stroke="midnightblue" d="M702.889,-112.324C714.15,-104.107 731.287,-91.6017 744.709,-81.8069"/>
<polygon fill="midnightblue" stroke="midnightblue" points="746.88,-84.5559 752.894,-75.8339 742.753,-78.9014 746.88,-84.5559"/>
</g>
<!-- Node15 -->
<g id="node15" class="node"><title>Node15</title>
<g id="a_node15"><a xlink:href="_a_r_2include_2_a_r6_2_a_r_2matrix_8h.html" target="_top" xlink:title="AR6/AR/matrix.h">
<polygon fill="white" stroke="black" points="230,-56.5 230,-75.5 322,-75.5 322,-56.5 230,-56.5"/>
<text text-anchor="middle" x="276" y="-63.5" font-family="Helvetica,sans-Serif" font-size="10.00">AR6/AR/matrix.h</text>
</a>
</g>
</g>
<!-- Node5&#45;&gt;Node15 -->
<g id="edge17" class="edge"><title>Node5&#45;&gt;Node15</title>
<path fill="none" stroke="midnightblue" d="M654.358,-116.781C589.489,-109.226 450.221,-92.6173 333,-76 332.665,-75.9525 332.329,-75.9048 331.993,-75.8567"/>
<polygon fill="midnightblue" stroke="midnightblue" points="332.426,-72.3829 322.024,-74.3946 331.41,-79.3088 332.426,-72.3829"/>
</g>
<!-- Node17 -->
<g id="node17" class="node"><title>Node17</title>
<g id="a_node17"><a xlink:href="icp_8h.html" target="_top" xlink:title="AR6/AR/icp.h">
<polygon fill="white" stroke="black" points="518.5,-56.5 518.5,-75.5 595.5,-75.5 595.5,-56.5 518.5,-56.5"/>
<text text-anchor="middle" x="557" y="-63.5" font-family="Helvetica,sans-Serif" font-size="10.00">AR6/AR/icp.h</text>
</a>
</g>
</g>
<!-- Node5&#45;&gt;Node17 -->
<g id="edge19" class="edge"><title>Node5&#45;&gt;Node17</title>
<path fill="none" stroke="midnightblue" d="M669.767,-112.444C647.616,-103.517 612.681,-89.4387 587.564,-79.3168"/>
<polygon fill="midnightblue" stroke="midnightblue" points="588.717,-76.0079 578.133,-75.5164 586.1,-82.5006 588.717,-76.0079"/>
</g>
<!-- Node19 -->
<g id="node19" class="node"><title>Node19</title>
<g id="a_node19"><a xlink:href="param_8h.html" target="_top" xlink:title="ARToolKit functions for handling calibrated camera parameters. ">
<polygon fill="white" stroke="black" points="1025,-56.5 1025,-75.5 1117,-75.5 1117,-56.5 1025,-56.5"/>
<text text-anchor="middle" x="1071" y="-63.5" font-family="Helvetica,sans-Serif" font-size="10.00">AR6/AR/param.h</text>
</a>
</g>
</g>
<!-- Node5&#45;&gt;Node19 -->
<g id="edge22" class="edge"><title>Node5&#45;&gt;Node19</title>
<path fill="none" stroke="midnightblue" d="M727.54,-115.155C785.767,-106.688 902.621,-90.4407 1002,-76 1006.1,-75.4036 1010.37,-74.7777 1014.67,-74.1456"/>
<polygon fill="midnightblue" stroke="midnightblue" points="1015.36,-77.5825 1024.74,-72.6701 1014.34,-70.6564 1015.36,-77.5825"/>
</g>
<!-- Node20 -->
<g id="node20" class="node"><title>Node20</title>
<g id="a_node20"><a xlink:href="ar_image_proc_8h.html" target="_top" xlink:title="ARToolKit functions for 2D luminance image processing. ">
<polygon fill="white" stroke="black" points="342,-56.5 342,-75.5 462,-75.5 462,-56.5 342,-56.5"/>
<text text-anchor="middle" x="402" y="-63.5" font-family="Helvetica,sans-Serif" font-size="10.00">AR6/AR/arImageProc.h</text>
</a>
</g>
</g>
<!-- Node5&#45;&gt;Node20 -->
<g id="edge24" class="edge"><title>Node5&#45;&gt;Node20</title>
<path fill="none" stroke="midnightblue" d="M654.241,-114.963C603.071,-105.902 510.463,-88.6616 452.761,-77.5079"/>
<polygon fill="midnightblue" stroke="midnightblue" points="453.246,-74.0367 442.762,-75.5678 451.912,-80.9085 453.246,-74.0367"/>
</g>
<!-- Node12&#45;&gt;Node6 -->
<g id="edge12" class="edge"><title>Node12&#45;&gt;Node6</title>
<path fill="none" stroke="midnightblue" d="M749.576,-56.324C734.46,-47.8215 711.185,-34.7288 693.529,-24.7975"/>
<polygon fill="midnightblue" stroke="midnightblue" points="694.817,-21.5066 684.386,-19.6545 691.386,-27.6077 694.817,-21.5066"/>
</g>
<!-- Node12&#45;&gt;Node7 -->
<g id="edge13" class="edge"><title>Node12&#45;&gt;Node7</title>
<path fill="none" stroke="midnightblue" d="M793.363,-56.4435C824.989,-46.9028 876.124,-31.4766 909.903,-21.2863"/>
<polygon fill="midnightblue" stroke="midnightblue" points="911.225,-24.5433 919.788,-18.3042 909.203,-17.8416 911.225,-24.5433"/>
</g>
<!-- Node12&#45;&gt;Node9 -->
<g id="edge14" class="edge"><title>Node12&#45;&gt;Node9</title>
<path fill="none" stroke="midnightblue" d="M808.18,-56.4878C849.022,-48.2904 912.254,-35.2239 976.289,-20.0778"/>
<polygon fill="midnightblue" stroke="midnightblue" points="977.236,-23.4501 986.153,-17.7292 975.615,-16.6405 977.236,-23.4501"/>
</g>
<!-- Node13 -->
<g id="node13" class="node"><title>Node13</title>
<polygon fill="white" stroke="#bfbfbf" points="725,-0.5 725,-19.5 777,-19.5 777,-0.5 725,-0.5"/>
<text text-anchor="middle" x="751" y="-7.5" font-family="Helvetica,sans-Serif" font-size="10.00">stdarg.h</text>
</g>
<!-- Node12&#45;&gt;Node13 -->
<g id="edge15" class="edge"><title>Node12&#45;&gt;Node13</title>
<path fill="none" stroke="midnightblue" d="M762.688,-56.083C760.833,-48.9272 758.165,-38.6353 755.846,-29.6911"/>
<polygon fill="midnightblue" stroke="midnightblue" points="759.166,-28.5527 753.269,-19.7511 752.391,-30.3094 759.166,-28.5527"/>
</g>
<!-- Node14 -->
<g id="node14" class="node"><title>Node14</title>
<polygon fill="white" stroke="#bfbfbf" points="795.5,-0.5 795.5,-19.5 860.5,-19.5 860.5,-0.5 795.5,-0.5"/>
<text text-anchor="middle" x="828" y="-7.5" font-family="Helvetica,sans-Serif" font-size="10.00">sys/errno.h</text>
</g>
<!-- Node12&#45;&gt;Node14 -->
<g id="edge16" class="edge"><title>Node12&#45;&gt;Node14</title>
<path fill="none" stroke="midnightblue" d="M775.122,-56.324C784.526,-48.2631 798.744,-36.0765 810.069,-26.3695"/>
<polygon fill="midnightblue" stroke="midnightblue" points="812.379,-28.9993 817.694,-19.8339 807.823,-23.6844 812.379,-28.9993"/>
</g>
<!-- Node16 -->
<g id="node16" class="node"><title>Node16</title>
<polygon fill="white" stroke="#bfbfbf" points="114.5,-0.5 114.5,-19.5 161.5,-19.5 161.5,-0.5 114.5,-0.5"/>
<text text-anchor="middle" x="138" y="-7.5" font-family="Helvetica,sans-Serif" font-size="10.00">math.h</text>
</g>
<!-- Node15&#45;&gt;Node16 -->
<g id="edge18" class="edge"><title>Node15&#45;&gt;Node16</title>
<path fill="none" stroke="midnightblue" d="M254.133,-56.4435C231.221,-47.4776 195.025,-33.314 169.134,-23.1827"/>
<polygon fill="midnightblue" stroke="midnightblue" points="170.352,-19.9011 159.764,-19.5164 167.801,-26.4198 170.352,-19.9011"/>
</g>
<!-- Node17&#45;&gt;Node6 -->
<g id="edge20" class="edge"><title>Node17&#45;&gt;Node6</title>
<path fill="none" stroke="midnightblue" d="M574.995,-56.324C593.038,-47.6247 621.047,-34.1202 641.803,-24.113"/>
<polygon fill="midnightblue" stroke="midnightblue" points="643.562,-27.1502 651.05,-19.6545 640.522,-20.8449 643.562,-27.1502"/>
</g>
<!-- Node18 -->
<g id="node18" class="node"><title>Node18</title>
<g id="a_node18"><a xlink:href="icp_core_8h.html" target="_top" xlink:title="AR6/AR/icpCore.h">
<polygon fill="white" stroke="black" points="508,-0.5 508,-19.5 606,-19.5 606,-0.5 508,-0.5"/>
<text text-anchor="middle" x="557" y="-7.5" font-family="Helvetica,sans-Serif" font-size="10.00">AR6/AR/icpCore.h</text>
</a>
</g>
</g>
<!-- Node17&#45;&gt;Node18 -->
<g id="edge21" class="edge"><title>Node17&#45;&gt;Node18</title>
<path fill="none" stroke="midnightblue" d="M557,-56.083C557,-49.0059 557,-38.8611 557,-29.9865"/>
<polygon fill="midnightblue" stroke="midnightblue" points="560.5,-29.751 557,-19.7511 553.5,-29.7511 560.5,-29.751"/>
</g>
<!-- Node19&#45;&gt;Node5 -->
<g id="edge23" class="edge"><title>Node19&#45;&gt;Node5</title>
<path fill="none" stroke="midnightblue" d="M1024.75,-75.3069C1023.15,-75.5413 1021.56,-75.7728 1020,-76 919.813,-90.558 801.867,-106.952 737.828,-115.36"/>
<polygon fill="midnightblue" stroke="midnightblue" points="737.109,-111.924 727.646,-116.688 738.015,-118.865 737.109,-111.924"/>
</g>
<!-- Node20&#45;&gt;Node5 -->
<g id="edge26" class="edge"><title>Node20&#45;&gt;Node5</title>
<path fill="none" stroke="midnightblue" d="M452.703,-75.5243C506.886,-85.2487 591.893,-101.117 644.437,-111.305"/>
<polygon fill="midnightblue" stroke="midnightblue" points="644.009,-114.787 654.494,-113.263 645.347,-107.916 644.009,-114.787"/>
</g>
<!-- Node20&#45;&gt;Node10 -->
<g id="edge25" class="edge"><title>Node20&#45;&gt;Node10</title>
<path fill="none" stroke="midnightblue" d="M402,-56.083C402,-49.0059 402,-38.8611 402,-29.9865"/>
<polygon fill="midnightblue" stroke="midnightblue" points="405.5,-29.751 402,-19.7511 398.5,-29.7511 405.5,-29.751"/>
</g>
<!-- Node21&#45;&gt;Node5 -->
<g id="edge28" class="edge"><title>Node21&#45;&gt;Node5</title>
<path fill="none" stroke="midnightblue" d="M908.752,-224.421C882.677,-216.168 843.103,-202.792 810,-188 800.464,-183.739 746.954,-154.144 715.026,-136.391"/>
<polygon fill="midnightblue" stroke="midnightblue" points="716.705,-133.32 706.265,-131.515 713.301,-139.437 716.705,-133.32"/>
</g>
<!-- Node22 -->
<g id="node22" class="node"><title>Node22</title>
<g id="a_node22"><a xlink:href="ar_filter_trans_mat_8h.html" target="_top" xlink:title="Provides filtering of transformation matrices (pose estimates). ">
<polygon fill="white" stroke="black" points="819,-168.5 819,-187.5 955,-187.5 955,-168.5 819,-168.5"/>
<text text-anchor="middle" x="887" y="-175.5" font-family="Helvetica,sans-Serif" font-size="10.00">AR6/AR/arFilterTransMat.h</text>
</a>
</g>
</g>
<!-- Node21&#45;&gt;Node22 -->
<g id="edge29" class="edge"><title>Node21&#45;&gt;Node22</title>
<path fill="none" stroke="midnightblue" d="M928.744,-224.083C921.535,-216.298 910.89,-204.801 902.154,-195.367"/>
<polygon fill="midnightblue" stroke="midnightblue" points="904.465,-192.711 895.103,-187.751 899.329,-197.467 904.465,-192.711"/>
</g>
<!-- Node23 -->
<g id="node23" class="node"><title>Node23</title>
<g id="a_node23"><a xlink:href="_a_r_trackable_appearance_8h.html" target="_top" xlink:title="AR6/ARTrackableAppearance.h">
<polygon fill="white" stroke="black" points="1011,-168.5 1011,-187.5 1167,-187.5 1167,-168.5 1011,-168.5"/>
<text text-anchor="middle" x="1089" y="-175.5" font-family="Helvetica,sans-Serif" font-size="10.00">AR6/ARTrackableAppearance.h</text>
</a>
</g>
</g>
<!-- Node21&#45;&gt;Node23 -->
<g id="edge31" class="edge"><title>Node21&#45;&gt;Node23</title>
<path fill="none" stroke="midnightblue" d="M961.085,-224.444C986.545,-215.399 1026.89,-201.064 1055.46,-190.916"/>
<polygon fill="midnightblue" stroke="midnightblue" points="1056.78,-194.162 1065.03,-187.516 1054.43,-187.566 1056.78,-194.162"/>
</g>
<!-- Node21&#45;&gt;Node25 -->
<g id="edge34" class="edge"><title>Node21&#45;&gt;Node25</title>
<path fill="none" stroke="midnightblue" d="M905.943,-224.444C869.535,-214.413 809.515,-197.877 772.792,-187.759"/>
<polygon fill="midnightblue" stroke="midnightblue" points="773.662,-184.368 763.092,-185.086 771.803,-191.117 773.662,-184.368"/>
</g>
<!-- Node22&#45;&gt;Node5 -->
<g id="edge30" class="edge"><title>Node22&#45;&gt;Node5</title>
<path fill="none" stroke="midnightblue" d="M855.943,-168.444C822.397,-159.201 768.803,-144.436 731.859,-134.257"/>
<polygon fill="midnightblue" stroke="midnightblue" points="732.482,-130.798 721.911,-131.516 730.623,-137.547 732.482,-130.798"/>
</g>
<!-- Node23&#45;&gt;Node5 -->
<g id="edge32" class="edge"><title>Node23&#45;&gt;Node5</title>
<path fill="none" stroke="midnightblue" d="M1025.94,-168.444C945.712,-157.559 809.031,-139.014 737.603,-129.323"/>
<polygon fill="midnightblue" stroke="midnightblue" points="737.932,-125.836 727.552,-127.959 736.991,-132.772 737.932,-125.836"/>
</g>
<!-- Node24 -->
<g id="node24" class="node"><title>Node24</title>
<polygon fill="white" stroke="#bfbfbf" points="1063,-112.5 1063,-131.5 1115,-131.5 1115,-112.5 1063,-112.5"/>
<text text-anchor="middle" x="1089" y="-119.5" font-family="Helvetica,sans-Serif" font-size="10.00">memory</text>
</g>
<!-- Node23&#45;&gt;Node24 -->
<g id="edge33" class="edge"><title>Node23&#45;&gt;Node24</title>
<path fill="none" stroke="midnightblue" d="M1089,-168.083C1089,-161.006 1089,-150.861 1089,-141.986"/>
<polygon fill="midnightblue" stroke="midnightblue" points="1092.5,-141.751 1089,-131.751 1085.5,-141.751 1092.5,-141.751"/>
</g>
<!-- Node26&#45;&gt;Node21 -->
<g id="edge38" class="edge"><title>Node26&#45;&gt;Node21</title>
<path fill="none" stroke="midnightblue" d="M937,-280.083C937,-273.006 937,-262.861 937,-253.986"/>
<polygon fill="midnightblue" stroke="midnightblue" points="940.5,-253.751 937,-243.751 933.5,-253.751 940.5,-253.751"/>
</g>
<!-- Node27&#45;&gt;Node21 -->
<g id="edge40" class="edge"><title>Node27&#45;&gt;Node21</title>
<path fill="none" stroke="midnightblue" d="M1138.97,-280.444C1097.19,-271.043 1030.02,-255.929 984.73,-245.739"/>
<polygon fill="midnightblue" stroke="midnightblue" points="985.375,-242.297 974.851,-243.516 983.839,-249.126 985.375,-242.297"/>
</g>
<!-- Node27&#45;&gt;Node28 -->
<g id="edge41" class="edge"><title>Node27&#45;&gt;Node28</title>
<path fill="none" stroke="midnightblue" d="M1177,-280.083C1177,-273.006 1177,-262.861 1177,-253.986"/>
<polygon fill="midnightblue" stroke="midnightblue" points="1180.5,-253.751 1177,-243.751 1173.5,-253.751 1180.5,-253.751"/>
</g>
<!-- Node28&#45;&gt;Node5 -->
<g id="edge42" class="edge"><title>Node28&#45;&gt;Node5</title>
<path fill="none" stroke="midnightblue" d="M1132.24,-224.498C1096.34,-216.968 1045.03,-204.593 1002,-188 984.193,-181.133 982.093,-174.075 964,-168 887.21,-142.218 793.128,-130.876 737.856,-126.138"/>
<polygon fill="midnightblue" stroke="midnightblue" points="737.921,-122.631 727.668,-125.302 737.348,-129.608 737.921,-122.631"/>
</g>
<!-- Node30&#45;&gt;Node5 -->
<g id="edge46" class="edge"><title>Node30&#45;&gt;Node5</title>
<path fill="none" stroke="midnightblue" d="M1184.78,-169.106C1181.81,-168.717 1178.87,-168.345 1176,-168 1015.45,-148.722 824.134,-133.135 737.6,-126.482"/>
<polygon fill="midnightblue" stroke="midnightblue" points="737.814,-122.988 727.576,-125.716 737.28,-129.968 737.814,-122.988"/>
</g>
<!-- Node30&#45;&gt;Node19 -->
<g id="edge47" class="edge"><title>Node30&#45;&gt;Node19</title>
<path fill="none" stroke="midnightblue" d="M1223.97,-168.368C1195.49,-149.492 1127.42,-104.385 1092.48,-81.2367"/>
<polygon fill="midnightblue" stroke="midnightblue" points="1094.23,-78.1977 1083.97,-75.5914 1090.37,-84.0328 1094.23,-78.1977"/>
</g>
<!-- Node31&#45;&gt;Node5 -->
<g id="edge50" class="edge"><title>Node31&#45;&gt;Node5</title>
<path fill="none" stroke="midnightblue" d="M363.195,-224.349C362.411,-210.288 363.145,-182.582 379,-168 416.75,-133.28 566.474,-125.278 643.968,-123.483"/>
<polygon fill="midnightblue" stroke="midnightblue" points="644.479,-126.973 654.405,-123.269 644.335,-119.975 644.479,-126.973"/>
</g>
<!-- Node32 -->
<g id="node32" class="node"><title>Node32</title>
<g id="a_node32"><a xlink:href="video_config_8h.html" target="_top" xlink:title="AR6/ARVideo/videoConfig.h">
<polygon fill="white" stroke="black" points="28.5,-112.5 28.5,-131.5 169.5,-131.5 169.5,-112.5 28.5,-112.5"/>
<text text-anchor="middle" x="99" y="-119.5" font-family="Helvetica,sans-Serif" font-size="10.00">AR6/ARVideo/videoConfig.h</text>
</a>
</g>
</g>
<!-- Node31&#45;&gt;Node32 -->
<g id="edge51" class="edge"><title>Node31&#45;&gt;Node32</title>
<path fill="none" stroke="midnightblue" d="M343.206,-224.368C296.571,-205.01 183.474,-158.065 129.131,-135.507"/>
<polygon fill="midnightblue" stroke="midnightblue" points="130.275,-132.193 119.698,-131.591 127.592,-138.658 130.275,-132.193"/>
</g>
<!-- Node33 -->
<g id="node33" class="node"><title>Node33</title>
<g id="a_node33"><a xlink:href="video_luma_8h.html" target="_top" xlink:title="AR6/ARVideo/videoLuma.h">
<polygon fill="white" stroke="black" points="388.5,-168.5 388.5,-187.5 525.5,-187.5 525.5,-168.5 388.5,-168.5"/>
<text text-anchor="middle" x="457" y="-175.5" font-family="Helvetica,sans-Serif" font-size="10.00">AR6/ARVideo/videoLuma.h</text>
</a>
</g>
</g>
<!-- Node31&#45;&gt;Node33 -->
<g id="edge53" class="edge"><title>Node31&#45;&gt;Node33</title>
<path fill="none" stroke="midnightblue" d="M378.942,-224.324C393.585,-215.822 416.134,-202.729 433.238,-192.797"/>
<polygon fill="midnightblue" stroke="midnightblue" points="435.205,-195.703 442.095,-187.655 431.69,-189.649 435.205,-195.703"/>
</g>
<!-- Node34 -->
<g id="node34" class="node"><title>Node34</title>
<polygon fill="white" stroke="#bfbfbf" points="284,-168.5 284,-187.5 332,-187.5 332,-168.5 284,-168.5"/>
<text text-anchor="middle" x="308" y="-175.5" font-family="Helvetica,sans-Serif" font-size="10.00">limits.h</text>
</g>
<!-- Node31&#45;&gt;Node34 -->
<g id="edge55" class="edge"><title>Node31&#45;&gt;Node34</title>
<path fill="none" stroke="midnightblue" d="M355.003,-224.324C346.806,-216.42 334.494,-204.548 324.528,-194.938"/>
<polygon fill="midnightblue" stroke="midnightblue" points="326.789,-192.256 317.161,-187.834 321.93,-197.295 326.789,-192.256"/>
</g>
<!-- Node32&#45;&gt;Node10 -->
<g id="edge52" class="edge"><title>Node32&#45;&gt;Node10</title>
<path fill="none" stroke="midnightblue" d="M107.54,-112.296C121.939,-98.1596 152.566,-70.348 184,-56 236.131,-32.2048 301.012,-20.8775 346.382,-15.558"/>
<polygon fill="midnightblue" stroke="midnightblue" points="346.776,-19.0359 356.327,-14.4514 346.001,-12.0789 346.776,-19.0359"/>
</g>
<!-- Node33&#45;&gt;Node5 -->
<g id="edge54" class="edge"><title>Node33&#45;&gt;Node5</title>
<path fill="none" stroke="midnightblue" d="M494.078,-168.444C534.847,-159.035 600.416,-143.904 644.573,-133.714"/>
<polygon fill="midnightblue" stroke="midnightblue" points="645.524,-137.087 654.481,-131.428 643.95,-130.266 645.524,-137.087"/>
</g>
<!-- Node35&#45;&gt;Node2 -->
<g id="edge71" class="edge"><title>Node35&#45;&gt;Node2</title>
<path fill="none" stroke="midnightblue" d="M798.208,-392.444C847.287,-382.944 926.51,-367.611 979.164,-357.42"/>
<polygon fill="midnightblue" stroke="midnightblue" points="979.846,-360.853 988.998,-355.516 978.516,-353.98 979.846,-360.853"/>
</g>
<!-- Node35&#45;&gt;Node4 -->
<g id="edge57" class="edge"><title>Node35&#45;&gt;Node4</title>
<path fill="none" stroke="midnightblue" d="M701.826,-399.752C631.828,-396.877 513.041,-387.379 485,-356 462.475,-330.794 462.493,-307.608 482,-280 491.44,-266.64 528.473,-254.446 560.131,-246.132"/>
<polygon fill="midnightblue" stroke="midnightblue" points="561.352,-249.433 570.179,-243.573 559.624,-242.65 561.352,-249.433"/>
</g>
<!-- Node35&#45;&gt;Node6 -->
<g id="edge80" class="edge"><title>Node35&#45;&gt;Node6</title>
<path fill="none" stroke="midnightblue" d="M701.676,-399.659C596.066,-396.351 361.165,-385.79 287,-356 224.801,-331.017 202.317,-309.012 186,-244 177.709,-210.966 174.101,-97.8242 221,-56 286.618,2.51723 527.8,-31.2347 615,-20 621.681,-19.1392 628.802,-18.0652 635.606,-16.9621"/>
<polygon fill="midnightblue" stroke="midnightblue" points="636.648,-20.3364 645.931,-15.2309 635.49,-13.4328 636.648,-20.3364"/>
</g>
<!-- Node35&#45;&gt;Node7 -->
<g id="edge81" class="edge"><title>Node35&#45;&gt;Node7</title>
<path fill="none" stroke="midnightblue" d="M806.066,-399.505C879.942,-396.335 1018.89,-386.486 1133,-356 1194.17,-339.656 1212.74,-337.172 1264,-300 1295.11,-277.443 1321,-273.423 1321,-235 1321,-235 1321,-235 1321,-121 1321,35.0747 1139.02,-55.766 978.201,-20.0792"/>
<polygon fill="midnightblue" stroke="midnightblue" points="978.669,-16.5925 968.129,-17.6679 977.039,-23.4001 978.669,-16.5925"/>
</g>
<!-- Node35&#45;&gt;Node9 -->
<g id="edge83" class="edge"><title>Node35&#45;&gt;Node9</title>
<path fill="none" stroke="midnightblue" d="M806.075,-397.574C959.151,-386.815 1397,-350.812 1397,-291 1397,-291 1397,-291 1397,-121 1397,-76.8901 1362.11,-74.3438 1322,-56 1273.27,-33.7188 1116.24,-19.1377 1045.78,-13.5574"/>
<polygon fill="midnightblue" stroke="midnightblue" points="1045.88,-10.0547 1035.64,-12.7693 1045.34,-17.0337 1045.88,-10.0547"/>
</g>
<!-- Node35&#45;&gt;Node16 -->
<g id="edge82" class="edge"><title>Node35&#45;&gt;Node16</title>
<path fill="none" stroke="midnightblue" d="M701.877,-398.898C531.206,-391.329 0,-362.064 0,-291 0,-291 0,-291 0,-121 0,-67.646 63.8564,-35.9791 104.694,-21.1828"/>
<polygon fill="midnightblue" stroke="midnightblue" points="105.973,-24.4438 114.277,-17.8642 103.682,-17.8292 105.973,-24.4438"/>
</g>
<!-- Node35&#45;&gt;Node21 -->
<g id="edge69" class="edge"><title>Node35&#45;&gt;Node21</title>
<path fill="none" stroke="midnightblue" d="M769.708,-392.432C783.428,-384.375 803.244,-371.287 817,-356 842.959,-327.151 832.75,-307.634 860,-280 873.325,-266.488 891.54,-255.599 906.909,-247.919"/>
<polygon fill="midnightblue" stroke="midnightblue" points="908.526,-251.026 916.041,-243.557 905.509,-244.709 908.526,-251.026"/>
</g>
<!-- Node35&#45;&gt;Node25 -->
<g id="edge85" class="edge"><title>Node35&#45;&gt;Node25</title>
<path fill="none" stroke="midnightblue" d="M761.673,-392.459C768.779,-383.927 778.854,-370.088 783,-356 792.537,-323.596 789.613,-313.124 783,-280 776.858,-249.234 761.153,-216.116 750.785,-196.493"/>
<polygon fill="midnightblue" stroke="midnightblue" points="753.775,-194.665 745.928,-187.546 747.622,-198.004 753.775,-194.665"/>
</g>
<!-- Node35&#45;&gt;Node26 -->
<g id="edge72" class="edge"><title>Node35&#45;&gt;Node26</title>
<path fill="none" stroke="midnightblue" d="M777.694,-392.399C798.71,-384.32 829.88,-371.219 855,-356 879.08,-341.411 904.058,-320.663 920.021,-306.56"/>
<polygon fill="midnightblue" stroke="midnightblue" points="922.386,-309.141 927.495,-299.859 917.713,-303.929 922.386,-309.141"/>
</g>
<!-- Node35&#45;&gt;Node27 -->
<g id="edge73" class="edge"><title>Node35&#45;&gt;Node27</title>
<path fill="none" stroke="midnightblue" d="M806.227,-398.069C890.452,-392.714 1052.09,-379.663 1104,-356 1128.49,-344.835 1150.66,-322.551 1163.98,-307.213"/>
<polygon fill="midnightblue" stroke="midnightblue" points="1166.69,-309.433 1170.43,-299.521 1161.32,-304.936 1166.69,-309.433"/>
</g>
<!-- Node36 -->
<g id="node36" class="node"><title>Node36</title>
<g id="a_node36"><a xlink:href="_a_r_video_source_8h.html" target="_top" xlink:title="AR6/ARVideoSource.h">
<polygon fill="white" stroke="black" points="279.5,-280.5 279.5,-299.5 396.5,-299.5 396.5,-280.5 279.5,-280.5"/>
<text text-anchor="middle" x="338" y="-287.5" font-family="Helvetica,sans-Serif" font-size="10.00">AR6/ARVideoSource.h</text>
</a>
</g>
</g>
<!-- Node35&#45;&gt;Node36 -->
<g id="edge58" class="edge"><title>Node35&#45;&gt;Node36</title>
<path fill="none" stroke="midnightblue" d="M701.833,-399.337C639.922,-396.006 534.335,-386.006 449,-356 414.528,-343.879 378.776,-320.698 357.463,-305.548"/>
<polygon fill="midnightblue" stroke="midnightblue" points="359.41,-302.636 349.259,-299.602 355.302,-308.304 359.41,-302.636"/>
</g>
<!-- Node38 -->
<g id="node38" class="node"><title>Node38</title>
<g id="a_node38"><a xlink:href="_a_r_tracker2_d_8h.html" target="_top" xlink:title="AR6/ARTracker2D.h">
<polygon fill="white" stroke="black" points="494.5,-336.5 494.5,-355.5 601.5,-355.5 601.5,-336.5 494.5,-336.5"/>
<text text-anchor="middle" x="548" y="-343.5" font-family="Helvetica,sans-Serif" font-size="10.00">AR6/ARTracker2D.h</text>
</a>
</g>
</g>
<!-- Node35&#45;&gt;Node38 -->
<g id="edge63" class="edge"><title>Node35&#45;&gt;Node38</title>
<path fill="none" stroke="midnightblue" d="M721.359,-392.444C685.95,-383.162 629.291,-368.309 590.447,-358.127"/>
<polygon fill="midnightblue" stroke="midnightblue" points="591.049,-354.667 580.489,-355.516 589.274,-361.438 591.049,-354.667"/>
</g>
<!-- Node39 -->
<g id="node39" class="node"><title>Node39</title>
<g id="a_node39"><a xlink:href="_a_r_trackable2_d_8h.html" target="_top" xlink:title="AR6/ARTrackable2D.h">
<polygon fill="white" stroke="black" points="544.5,-280.5 544.5,-299.5 661.5,-299.5 661.5,-280.5 544.5,-280.5"/>
<text text-anchor="middle" x="603" y="-287.5" font-family="Helvetica,sans-Serif" font-size="10.00">AR6/ARTrackable2D.h</text>
</a>
</g>
</g>
<!-- Node35&#45;&gt;Node39 -->
<g id="edge70" class="edge"><title>Node35&#45;&gt;Node39</title>
<path fill="none" stroke="midnightblue" d="M746.109,-392.262C733.88,-379.037 709.225,-353.616 685,-336 667.983,-323.626 647.185,-312.25 630.794,-304.031"/>
<polygon fill="midnightblue" stroke="midnightblue" points="632.233,-300.839 621.714,-299.574 629.148,-307.123 632.233,-300.839"/>
</g>
<!-- Node41 -->
<g id="node41" class="node"><title>Node41</title>
<g id="a_node41"><a xlink:href="_a_r_view_8h.html" target="_top" xlink:title="AR6/ARView.h">
<polygon fill="white" stroke="black" points="296.5,-336.5 296.5,-355.5 379.5,-355.5 379.5,-336.5 296.5,-336.5"/>
<text text-anchor="middle" x="338" y="-343.5" font-family="Helvetica,sans-Serif" font-size="10.00">AR6/ARView.h</text>
</a>
</g>
</g>
<!-- Node35&#45;&gt;Node41 -->
<g id="edge74" class="edge"><title>Node35&#45;&gt;Node41</title>
<path fill="none" stroke="midnightblue" d="M701.789,-394.533C633.037,-385.97 508.399,-370.282 402,-356 398.047,-355.469 393.958,-354.913 389.846,-354.347"/>
<polygon fill="midnightblue" stroke="midnightblue" points="390.032,-350.839 379.646,-352.934 389.071,-357.773 390.032,-350.839"/>
</g>
<!-- Node43 -->
<g id="node43" class="node"><title>Node43</title>
<polygon fill="white" stroke="#bfbfbf" points="619.5,-336.5 619.5,-355.5 676.5,-355.5 676.5,-336.5 619.5,-336.5"/>
<text text-anchor="middle" x="648" y="-343.5" font-family="Helvetica,sans-Serif" font-size="10.00">pthread.h</text>
</g>
<!-- Node35&#45;&gt;Node43 -->
<g id="edge84" class="edge"><title>Node35&#45;&gt;Node43</title>
<path fill="none" stroke="midnightblue" d="M736.969,-392.324C719.97,-383.664 693.624,-370.242 674.007,-360.249"/>
<polygon fill="midnightblue" stroke="midnightblue" points="675.488,-357.075 664.988,-355.655 672.31,-363.312 675.488,-357.075"/>
</g>
<!-- Node44 -->
<g id="node44" class="node"><title>Node44</title>
<polygon fill="white" stroke="#bfbfbf" points="733.5,-336.5 733.5,-355.5 774.5,-355.5 774.5,-336.5 733.5,-336.5"/>
<text text-anchor="middle" x="754" y="-343.5" font-family="Helvetica,sans-Serif" font-size="10.00">string</text>
</g>
<!-- Node35&#45;&gt;Node44 -->
<g id="edge86" class="edge"><title>Node35&#45;&gt;Node44</title>
<path fill="none" stroke="midnightblue" d="M754,-392.083C754,-385.006 754,-374.861 754,-365.986"/>
<polygon fill="midnightblue" stroke="midnightblue" points="757.5,-365.751 754,-355.751 750.5,-365.751 757.5,-365.751"/>
</g>
<!-- Node36&#45;&gt;Node4 -->
<g id="edge59" class="edge"><title>Node36&#45;&gt;Node4</title>
<path fill="none" stroke="midnightblue" d="M380.941,-280.444C428.653,-270.936 505.695,-255.585 556.839,-245.394"/>
<polygon fill="midnightblue" stroke="midnightblue" points="557.583,-248.814 566.706,-243.428 556.215,-241.949 557.583,-248.814"/>
</g>
<!-- Node36&#45;&gt;Node5 -->
<g id="edge60" class="edge"><title>Node36&#45;&gt;Node5</title>
<path fill="none" stroke="midnightblue" d="M377.605,-280.458C409.318,-272.906 454.535,-260.52 492,-244 561.622,-213.3 636.418,-162.351 671.161,-137.512"/>
<polygon fill="midnightblue" stroke="midnightblue" points="673.419,-140.199 679.483,-131.512 669.325,-134.521 673.419,-140.199"/>
</g>
<!-- Node36&#45;&gt;Node31 -->
<g id="edge61" class="edge"><title>Node36&#45;&gt;Node31</title>
<path fill="none" stroke="midnightblue" d="M342.293,-280.083C345.852,-272.691 351.022,-261.953 355.424,-252.811"/>
<polygon fill="midnightblue" stroke="midnightblue" points="358.602,-254.279 359.787,-243.751 352.295,-251.243 358.602,-254.279"/>
</g>
<!-- Node37 -->
<g id="node37" class="node"><title>Node37</title>
<polygon fill="white" stroke="#bfbfbf" points="439,-224.5 439,-243.5 483,-243.5 483,-224.5 439,-224.5"/>
<text text-anchor="middle" x="461" y="-231.5" font-family="Helvetica,sans-Serif" font-size="10.00">mutex</text>
</g>
<!-- Node36&#45;&gt;Node37 -->
<g id="edge62" class="edge"><title>Node36&#45;&gt;Node37</title>
<path fill="none" stroke="midnightblue" d="M357.49,-280.444C377.642,-271.596 409.323,-257.687 432.331,-247.586"/>
<polygon fill="midnightblue" stroke="midnightblue" points="433.852,-250.741 441.601,-243.516 431.038,-244.332 433.852,-250.741"/>
</g>
<!-- Node38&#45;&gt;Node3 -->
<g id="edge64" class="edge"><title>Node38&#45;&gt;Node3</title>
<path fill="none" stroke="midnightblue" d="M576.363,-336.444C606.738,-327.28 655.11,-312.688 688.816,-302.519"/>
<polygon fill="midnightblue" stroke="midnightblue" points="690.207,-305.756 698.77,-299.516 688.185,-299.054 690.207,-305.756"/>
</g>
<!-- Node38&#45;&gt;Node39 -->
<g id="edge65" class="edge"><title>Node38&#45;&gt;Node39</title>
<path fill="none" stroke="midnightblue" d="M557.082,-336.083C565.171,-328.141 577.195,-316.335 586.91,-306.797"/>
<polygon fill="midnightblue" stroke="midnightblue" points="589.403,-309.254 594.087,-299.751 584.499,-304.26 589.403,-309.254"/>
</g>
<!-- Node40 -->
<g id="node40" class="node"><title>Node40</title>
<polygon fill="white" stroke="#bfbfbf" points="491.5,-280.5 491.5,-299.5 526.5,-299.5 526.5,-280.5 491.5,-280.5"/>
<text text-anchor="middle" x="509" y="-287.5" font-family="Helvetica,sans-Serif" font-size="10.00">map</text>
</g>
<!-- Node38&#45;&gt;Node40 -->
<g id="edge68" class="edge"><title>Node38&#45;&gt;Node40</title>
<path fill="none" stroke="midnightblue" d="M541.56,-336.083C536.051,-328.455 527.969,-317.264 521.235,-307.941"/>
<polygon fill="midnightblue" stroke="midnightblue" points="524.013,-305.809 515.32,-299.751 518.338,-309.907 524.013,-305.809"/>
</g>
<!-- Node39&#45;&gt;Node4 -->
<g id="edge67" class="edge"><title>Node39&#45;&gt;Node4</title>
<path fill="none" stroke="midnightblue" d="M603.991,-280.083C604.786,-272.927 605.929,-262.635 606.923,-253.691"/>
<polygon fill="midnightblue" stroke="midnightblue" points="610.402,-254.076 608.028,-243.751 603.445,-253.303 610.402,-254.076"/>
</g>
<!-- Node39&#45;&gt;Node21 -->
<g id="edge66" class="edge"><title>Node39&#45;&gt;Node21</title>
<path fill="none" stroke="midnightblue" d="M655.923,-280.444C715.34,-270.837 811.662,-255.264 874.672,-245.077"/>
<polygon fill="midnightblue" stroke="midnightblue" points="875.561,-248.479 884.874,-243.428 874.444,-241.569 875.561,-248.479"/>
</g>
<!-- Node41&#45;&gt;Node4 -->
<g id="edge75" class="edge"><title>Node41&#45;&gt;Node4</title>
<path fill="none" stroke="midnightblue" d="M350.428,-336.282C370.386,-322.622 411.185,-296.076 449,-280 484.225,-265.026 525.902,-253.488 557.888,-245.846"/>
<polygon fill="midnightblue" stroke="midnightblue" points="558.972,-249.187 567.913,-243.502 557.378,-242.37 558.972,-249.187"/>
</g>
<!-- Node41&#45;&gt;Node5 -->
<g id="edge77" class="edge"><title>Node41&#45;&gt;Node5</title>
<path fill="none" stroke="midnightblue" d="M312.132,-336.444C276.944,-323.153 215.868,-293.762 194,-244 176.462,-204.092 216.176,-185.729 256,-168 324.512,-137.5 546.327,-127.275 644.042,-124.196"/>
<polygon fill="midnightblue" stroke="midnightblue" points="644.327,-127.689 654.216,-123.888 644.114,-120.693 644.327,-127.689"/>
</g>
<!-- Node41&#45;&gt;Node36 -->
<g id="edge76" class="edge"><title>Node41&#45;&gt;Node36</title>
<path fill="none" stroke="midnightblue" d="M338,-336.083C338,-329.006 338,-318.861 338,-309.986"/>
<polygon fill="midnightblue" stroke="midnightblue" points="341.5,-309.751 338,-299.751 334.5,-309.751 341.5,-309.751"/>
</g>
<!-- Node42 -->
<g id="node42" class="node"><title>Node42</title>
<g id="a_node42"><a xlink:href="arg_8h.html" target="_top" xlink:title="A collection of useful graphics routines for ARToolKit. ">
<polygon fill="white" stroke="black" points="203,-224.5 203,-243.5 289,-243.5 289,-224.5 203,-224.5"/>
<text text-anchor="middle" x="246" y="-231.5" font-family="Helvetica,sans-Serif" font-size="10.00">AR6/ARG/arg.h</text>
</a>
</g>
</g>
<!-- Node41&#45;&gt;Node42 -->
<g id="edge78" class="edge"><title>Node41&#45;&gt;Node42</title>
<path fill="none" stroke="midnightblue" d="M318.85,-336.499C303.705,-328.897 283.01,-316.423 270,-300 259.273,-286.459 253.028,-267.655 249.613,-253.754"/>
<polygon fill="midnightblue" stroke="midnightblue" points="253.003,-252.874 247.449,-243.852 246.165,-254.369 253.003,-252.874"/>
</g>
<!-- Node42&#45;&gt;Node5 -->
<g id="edge79" class="edge"><title>Node42&#45;&gt;Node5</title>
<path fill="none" stroke="midnightblue" d="M247.152,-224.113C249.531,-209.713 256.421,-181.531 275,-168 332.861,-125.861 548.159,-121.933 644.215,-122.357"/>
<polygon fill="midnightblue" stroke="midnightblue" points="644.205,-125.857 654.226,-122.419 644.248,-118.857 644.205,-125.857"/>
</g>
</g>
</svg>
