<?xml version="1.0" encoding="UTF-8" standalone="no"?>
<!DOCTYPE svg PUBLIC "-//W3C//DTD SVG 1.1//EN"
 "http://www.w3.org/Graphics/SVG/1.1/DTD/svg11.dtd">
<!-- Generated by graphviz version 2.38.0 (20140413.2041)
 -->
<!-- Title: /bitrise/src/Source/AR6/include/AR6/ARTrackable2D.h Pages: 1 -->
<!--zoomable 240 -->
<svg id="main" version="1.1" xmlns="http://www.w3.org/2000/svg" xmlns:xlink="http://www.w3.org/1999/xlink" xml:space="preserve" onload="init(evt)">
<style type="text/css"><![CDATA[
.edge:hover path { stroke: red; }
.edge:hover polygon { stroke: red; fill: red; }
]]></style>
<script type="text/javascript"><![CDATA[
var edges = document.getElementsByTagName('g');
if (edges && edges.length) {
  for (var i=0;i<edges.length;i++) {
    if (edges[i].id.substr(0,4)=='edge') {
      edges[i].setAttribute('class','edge');
    }
  }
}
]]></script>
        <defs>
                <circle id="rim" cx="0" cy="0" r="7"/>
                <circle id="rim2" cx="0" cy="0" r="3.5"/>
                <g id="zoomPlus">
                        <use xlink:href="#rim" fill="#404040">
                                <set attributeName="fill" to="#808080" begin="zoomplus.mouseover" end="zoomplus.mouseout"/>
                        </use>
                        <path d="M-4,0h8M0,-4v8" fill="none" stroke="white" stroke-width="1.5" pointer-events="none"/>
                </g>
                <g id="zoomMin">
                        <use xlink:href="#rim" fill="#404040">
                                <set attributeName="fill" to="#808080" begin="zoomminus.mouseover" end="zoomminus.mouseout"/>
                        </use>
                        <path d="M-4,0h8" fill="none" stroke="white" stroke-width="1.5" pointer-events="none"/>
                </g>
                <g id="dirArrow">
                        <path fill="none" stroke="white" stroke-width="1.5" d="M0,-3.0v7 M-2.5,-0.5L0,-3.0L2.5,-0.5"/>
                </g>
               <g id="resetDef">
                       <use xlink:href="#rim2" fill="#404040">
                               <set attributeName="fill" to="#808080" begin="reset.mouseover" end="reset.mouseout"/>
                       </use>
               </g>
        </defs>

<script type="text/javascript">
var viewWidth = 1272;
var viewHeight = 240;
var sectionId = 'dynsection-1';
</script>
<script xlink:href="svgpan.js"/>
<svg id="graph" class="graph">
<g id="viewport">
<title>/bitrise/src/Source/AR6/include/AR6/ARTrackable2D.h</title>
<polygon fill="white" stroke="none" points="-4,4 -4,-236 1268.41,-236 1268.41,4 -4,4"/>
<!-- Node1 -->
<g id="node1" class="node"><title>Node1</title>
<polygon fill="#bfbfbf" stroke="black" points="103.913,-201.5 103.913,-231.5 279.913,-231.5 279.913,-201.5 103.913,-201.5"/>
<text text-anchor="start" x="111.913" y="-219.5" font-family="Helvetica,sans-Serif" font-size="10.00">/bitrise/src/Source</text>
<text text-anchor="middle" x="191.913" y="-208.5" font-family="Helvetica,sans-Serif" font-size="10.00">/AR6/include/AR6/ARTrackable2D.h</text>
</g>
<!-- Node2 -->
<g id="node2" class="node"><title>Node2</title>
<g id="a_node2"><a xlink:href="_a_r_controller_8cpp.html" target="_top" xlink:title="/bitrise/src/Source\l/AR6/ARController.cpp">
<polygon fill="white" stroke="black" points="47.4134,-0.5 47.4134,-30.5 164.413,-30.5 164.413,-0.5 47.4134,-0.5"/>
<text text-anchor="start" x="55.4134" y="-18.5" font-family="Helvetica,sans-Serif" font-size="10.00">/bitrise/src/Source</text>
<text text-anchor="middle" x="105.913" y="-7.5" font-family="Helvetica,sans-Serif" font-size="10.00">/AR6/ARController.cpp</text>
</a>
</g>
</g>
<!-- Node1&#45;&gt;Node2 -->
<g id="edge1" class="edge"><title>Node1&#45;&gt;Node2</title>
<path fill="none" stroke="midnightblue" d="M93.6489,-205.025C67.9061,-197.625 42.4745,-185.322 24.9134,-165 -3.71299,-131.873 -7.29836,-104.729 14.9134,-67 24.9049,-50.0283 42.8854,-38.3539 60.2404,-30.5427"/>
<polygon fill="midnightblue" stroke="midnightblue" points="92.9526,-208.461 103.515,-207.628 94.7383,-201.693 92.9526,-208.461"/>
</g>
<!-- Node3 -->
<g id="node3" class="node"><title>Node3</title>
<g id="a_node3"><a xlink:href="_a_r_trackable_8cpp.html" target="_top" xlink:title="/bitrise/src/Source\l/AR6/ARTrackable.cpp">
<polygon fill="white" stroke="black" points="182.913,-0.5 182.913,-30.5 300.913,-30.5 300.913,-0.5 182.913,-0.5"/>
<text text-anchor="start" x="190.913" y="-18.5" font-family="Helvetica,sans-Serif" font-size="10.00">/bitrise/src/Source</text>
<text text-anchor="middle" x="241.913" y="-7.5" font-family="Helvetica,sans-Serif" font-size="10.00">/AR6/ARTrackable.cpp</text>
</a>
</g>
</g>
<!-- Node1&#45;&gt;Node3 -->
<g id="edge2" class="edge"><title>Node1&#45;&gt;Node3</title>
<path fill="none" stroke="midnightblue" d="M285.745,-199.132C321.906,-190.749 357.16,-179.272 367.913,-165 406.672,-113.556 317.975,-56.4442 270.05,-30.5865"/>
<polygon fill="midnightblue" stroke="midnightblue" points="284.536,-195.816 275.541,-201.415 286.064,-202.647 284.536,-195.816"/>
</g>
<!-- Node4 -->
<g id="node4" class="node"><title>Node4</title>
<g id="a_node4"><a xlink:href="_a_r_trackable2_d_8cpp.html" target="_top" xlink:title="/bitrise/src/Source\l/AR6/ARTrackable2D.cpp">
<polygon fill="white" stroke="black" points="43.4134,-134.5 43.4134,-164.5 174.413,-164.5 174.413,-134.5 43.4134,-134.5"/>
<text text-anchor="start" x="51.4134" y="-152.5" font-family="Helvetica,sans-Serif" font-size="10.00">/bitrise/src/Source</text>
<text text-anchor="middle" x="108.913" y="-141.5" font-family="Helvetica,sans-Serif" font-size="10.00">/AR6/ARTrackable2D.cpp</text>
</a>
</g>
</g>
<!-- Node1&#45;&gt;Node4 -->
<g id="edge3" class="edge"><title>Node1&#45;&gt;Node4</title>
<path fill="none" stroke="midnightblue" d="M165.951,-195.168C153.259,-185.228 138.301,-173.514 126.888,-164.577"/>
<polygon fill="midnightblue" stroke="midnightblue" points="163.873,-197.986 173.904,-201.396 168.189,-192.475 163.873,-197.986"/>
</g>
<!-- Node5 -->
<g id="node5" class="node"><title>Node5</title>
<g id="a_node5"><a xlink:href="_a_r_tracker2_d_8cpp.html" target="_top" xlink:title="/bitrise/src/Source\l/AR6/ARTracker2D.cpp">
<polygon fill="white" stroke="black" points="24.4134,-67.5 24.4134,-97.5 145.413,-97.5 145.413,-67.5 24.4134,-67.5"/>
<text text-anchor="start" x="32.4134" y="-85.5" font-family="Helvetica,sans-Serif" font-size="10.00">/bitrise/src/Source</text>
<text text-anchor="middle" x="84.9134" y="-74.5" font-family="Helvetica,sans-Serif" font-size="10.00">/AR6/ARTracker2D.cpp</text>
</a>
</g>
</g>
<!-- Node1&#45;&gt;Node5 -->
<g id="edge4" class="edge"><title>Node1&#45;&gt;Node5</title>
<path fill="none" stroke="midnightblue" d="M94.1335,-204.533C70.7498,-197.05 48.3918,-184.828 33.9134,-165 17.3767,-142.354 44.5082,-114.332 65.1153,-97.7423"/>
<polygon fill="midnightblue" stroke="midnightblue" points="93.2592,-207.924 103.839,-207.364 95.2192,-201.204 93.2592,-207.924"/>
</g>
<!-- Node6 -->
<g id="node6" class="node"><title>Node6</title>
<g id="a_node6"><a xlink:href="_a_r_controller_8h.html" target="_top" xlink:title="/bitrise/src/Source\l/AR6/include/AR6/ARController.h">
<polygon fill="white" stroke="black" points="429.413,-67.5 429.413,-97.5 592.413,-97.5 592.413,-67.5 429.413,-67.5"/>
<text text-anchor="start" x="437.413" y="-85.5" font-family="Helvetica,sans-Serif" font-size="10.00">/bitrise/src/Source</text>
<text text-anchor="middle" x="510.913" y="-74.5" font-family="Helvetica,sans-Serif" font-size="10.00">/AR6/include/AR6/ARController.h</text>
</a>
</g>
</g>
<!-- Node1&#45;&gt;Node6 -->
<g id="edge5" class="edge"><title>Node1&#45;&gt;Node6</title>
<path fill="none" stroke="midnightblue" d="M289.975,-200.256C325.941,-192.503 366.295,-181.186 400.913,-165 438.592,-147.383 476.16,-115.767 496.161,-97.5232"/>
<polygon fill="midnightblue" stroke="midnightblue" points="289.028,-196.878 279.955,-202.349 290.46,-203.73 289.028,-196.878"/>
</g>
<!-- Node13 -->
<g id="node13" class="node"><title>Node13</title>
<g id="a_node13"><a xlink:href="_a_r_tracker2_d_8h.html" target="_top" xlink:title="/bitrise/src/Source\l/AR6/include/AR6/ARTracker2D.h">
<polygon fill="white" stroke="black" points="192.413,-134.5 192.413,-164.5 359.413,-164.5 359.413,-134.5 192.413,-134.5"/>
<text text-anchor="start" x="200.413" y="-152.5" font-family="Helvetica,sans-Serif" font-size="10.00">/bitrise/src/Source</text>
<text text-anchor="middle" x="275.913" y="-141.5" font-family="Helvetica,sans-Serif" font-size="10.00">/AR6/include/AR6/ARTracker2D.h</text>
</a>
</g>
</g>
<!-- Node1&#45;&gt;Node13 -->
<g id="edge14" class="edge"><title>Node1&#45;&gt;Node13</title>
<path fill="none" stroke="midnightblue" d="M218.189,-195.168C231.034,-185.228 246.172,-173.514 257.722,-164.577"/>
<polygon fill="midnightblue" stroke="midnightblue" points="215.907,-192.508 210.14,-201.396 220.191,-198.044 215.907,-192.508"/>
</g>
<!-- Node6&#45;&gt;Node2 -->
<g id="edge7" class="edge"><title>Node6&#45;&gt;Node2</title>
<path fill="none" stroke="midnightblue" d="M419.068,-69.2872C351.169,-59.8823 256.55,-45.9877 173.913,-31 170.825,-30.4399 167.663,-29.844 164.474,-29.2254"/>
<polygon fill="midnightblue" stroke="midnightblue" points="418.924,-72.8004 429.309,-70.6997 419.881,-65.8661 418.924,-72.8004"/>
</g>
<!-- Node6&#45;&gt;Node3 -->
<g id="edge8" class="edge"><title>Node6&#45;&gt;Node3</title>
<path fill="none" stroke="midnightblue" d="M443.12,-65.1186C399.103,-54.4827 342.324,-40.7628 300.311,-30.6109"/>
<polygon fill="midnightblue" stroke="midnightblue" points="442.333,-68.5292 452.876,-67.476 443.977,-61.7251 442.333,-68.5292"/>
</g>
<!-- Node7 -->
<g id="node7" class="node"><title>Node7</title>
<g id="a_node7"><a xlink:href="_a_r6__c_8cpp.html" target="_top" xlink:title="/bitrise/src/Source\l/AR6/AR6_c.cpp">
<polygon fill="white" stroke="black" points="318.913,-0.5 318.913,-30.5 414.913,-30.5 414.913,-0.5 318.913,-0.5"/>
<text text-anchor="start" x="326.913" y="-18.5" font-family="Helvetica,sans-Serif" font-size="10.00">/bitrise/src/Source</text>
<text text-anchor="middle" x="366.913" y="-7.5" font-family="Helvetica,sans-Serif" font-size="10.00">/AR6/AR6_c.cpp</text>
</a>
</g>
</g>
<!-- Node6&#45;&gt;Node7 -->
<g id="edge6" class="edge"><title>Node6&#45;&gt;Node7</title>
<path fill="none" stroke="midnightblue" d="M470.524,-63.2687C447.589,-52.9159 419.314,-40.1528 398.098,-30.5765"/>
<polygon fill="midnightblue" stroke="midnightblue" points="469.113,-66.4718 479.668,-67.396 471.993,-60.0917 469.113,-66.4718"/>
</g>
<!-- Node8 -->
<g id="node8" class="node"><title>Node8</title>
<g id="a_node8"><a xlink:href="_a_r_trackable_appearance_8cpp.html" target="_top" xlink:title="/bitrise/src/Source\l/AR6/ARTrackableAppearance.cpp">
<polygon fill="white" stroke="black" points="432.913,-0.5 432.913,-30.5 602.913,-30.5 602.913,-0.5 432.913,-0.5"/>
<text text-anchor="start" x="440.913" y="-18.5" font-family="Helvetica,sans-Serif" font-size="10.00">/bitrise/src/Source</text>
<text text-anchor="middle" x="517.913" y="-7.5" font-family="Helvetica,sans-Serif" font-size="10.00">/AR6/ARTrackableAppearance.cpp</text>
</a>
</g>
</g>
<!-- Node6&#45;&gt;Node8 -->
<g id="edge9" class="edge"><title>Node6&#45;&gt;Node8</title>
<path fill="none" stroke="midnightblue" d="M513.508,-57.4029C514.481,-48.3703 515.554,-38.4078 516.397,-30.5765"/>
<polygon fill="midnightblue" stroke="midnightblue" points="510.023,-57.0787 512.432,-67.396 516.983,-57.8282 510.023,-57.0787"/>
</g>
<!-- Node9 -->
<g id="node9" class="node"><title>Node9</title>
<g id="a_node9"><a xlink:href="_a_r_trackable_multi_square_8cpp.html" target="_top" xlink:title="/bitrise/src/Source\l/AR6/ARTrackableMultiSquare.cpp">
<polygon fill="white" stroke="black" points="620.913,-0.5 620.913,-30.5 790.913,-30.5 790.913,-0.5 620.913,-0.5"/>
<text text-anchor="start" x="628.913" y="-18.5" font-family="Helvetica,sans-Serif" font-size="10.00">/bitrise/src/Source</text>
<text text-anchor="middle" x="705.913" y="-7.5" font-family="Helvetica,sans-Serif" font-size="10.00">/AR6/ARTrackableMultiSquare.cpp</text>
</a>
</g>
</g>
<!-- Node6&#45;&gt;Node9 -->
<g id="edge10" class="edge"><title>Node6&#45;&gt;Node9</title>
<path fill="none" stroke="midnightblue" d="M562.73,-64.2278C594.274,-53.7131 634.061,-40.4508 663.684,-30.5765"/>
<polygon fill="midnightblue" stroke="midnightblue" points="561.605,-60.9132 553.225,-67.396 563.819,-67.554 561.605,-60.9132"/>
</g>
<!-- Node10 -->
<g id="node10" class="node"><title>Node10</title>
<g id="a_node10"><a xlink:href="_a_r_trackable_square_8cpp.html" target="_top" xlink:title="/bitrise/src/Source\l/AR6/ARTrackableSquare.cpp">
<polygon fill="white" stroke="black" points="809.413,-0.5 809.413,-30.5 958.413,-30.5 958.413,-0.5 809.413,-0.5"/>
<text text-anchor="start" x="817.413" y="-18.5" font-family="Helvetica,sans-Serif" font-size="10.00">/bitrise/src/Source</text>
<text text-anchor="middle" x="883.913" y="-7.5" font-family="Helvetica,sans-Serif" font-size="10.00">/AR6/ARTrackableSquare.cpp</text>
</a>
</g>
</g>
<!-- Node6&#45;&gt;Node10 -->
<g id="edge11" class="edge"><title>Node6&#45;&gt;Node10</title>
<path fill="none" stroke="midnightblue" d="M601.433,-65.7258C665.153,-54.6217 749.422,-39.9369 809.291,-29.5039"/>
<polygon fill="midnightblue" stroke="midnightblue" points="600.64,-62.3111 591.39,-67.476 601.842,-69.2072 600.64,-62.3111"/>
</g>
<!-- Node11 -->
<g id="node11" class="node"><title>Node11</title>
<g id="a_node11"><a xlink:href="_a_r_tracker_square_8cpp.html" target="_top" xlink:title="/bitrise/src/Source\l/AR6/ARTrackerSquare.cpp">
<polygon fill="white" stroke="black" points="976.413,-0.5 976.413,-30.5 1115.41,-30.5 1115.41,-0.5 976.413,-0.5"/>
<text text-anchor="start" x="984.413" y="-18.5" font-family="Helvetica,sans-Serif" font-size="10.00">/bitrise/src/Source</text>
<text text-anchor="middle" x="1045.91" y="-7.5" font-family="Helvetica,sans-Serif" font-size="10.00">/AR6/ARTrackerSquare.cpp</text>
</a>
</g>
</g>
<!-- Node6&#45;&gt;Node11 -->
<g id="edge12" class="edge"><title>Node6&#45;&gt;Node11</title>
<path fill="none" stroke="midnightblue" d="M602.625,-73.3708C695.081,-64.7049 841.761,-49.6699 967.913,-31 970.638,-30.5967 973.414,-30.1679 976.215,-29.7201"/>
<polygon fill="midnightblue" stroke="midnightblue" points="602.092,-69.9052 592.46,-74.3183 602.742,-76.875 602.092,-69.9052"/>
</g>
<!-- Node12 -->
<g id="node12" class="node"><title>Node12</title>
<g id="a_node12"><a xlink:href="_a_r_video_source_8cpp.html" target="_top" xlink:title="/bitrise/src/Source\l/AR6/ARVideoSource.cpp">
<polygon fill="white" stroke="black" points="1133.41,-0.5 1133.41,-30.5 1264.41,-30.5 1264.41,-0.5 1133.41,-0.5"/>
<text text-anchor="start" x="1141.41" y="-18.5" font-family="Helvetica,sans-Serif" font-size="10.00">/bitrise/src/Source</text>
<text text-anchor="middle" x="1198.91" y="-7.5" font-family="Helvetica,sans-Serif" font-size="10.00">/AR6/ARVideoSource.cpp</text>
</a>
</g>
</g>
<!-- Node6&#45;&gt;Node12 -->
<g id="edge13" class="edge"><title>Node6&#45;&gt;Node12</title>
<path fill="none" stroke="midnightblue" d="M602.949,-77.1351C723.34,-70.693 940.645,-56.5501 1124.91,-31 1127.64,-30.6224 1130.41,-30.2092 1133.21,-29.7688"/>
<polygon fill="midnightblue" stroke="midnightblue" points="602.474,-73.6553 592.673,-77.6789 602.844,-80.6455 602.474,-73.6553"/>
</g>
<!-- Node13&#45;&gt;Node2 -->
<g id="edge15" class="edge"><title>Node13&#45;&gt;Node2</title>
<path fill="none" stroke="midnightblue" d="M249.432,-127.938C214.531,-100.838 154.052,-53.8779 123.976,-30.5247"/>
<polygon fill="midnightblue" stroke="midnightblue" points="247.675,-131.005 257.72,-134.374 251.968,-125.476 247.675,-131.005"/>
</g>
<!-- Node13&#45;&gt;Node3 -->
<g id="edge16" class="edge"><title>Node13&#45;&gt;Node3</title>
<path fill="none" stroke="midnightblue" d="M269.703,-124.39C262.623,-96.9011 251.286,-52.8884 245.526,-30.5247"/>
<polygon fill="midnightblue" stroke="midnightblue" points="266.391,-125.563 272.275,-134.374 273.17,-123.817 266.391,-125.563"/>
</g>
<!-- Node13&#45;&gt;Node5 -->
<g id="edge17" class="edge"><title>Node13&#45;&gt;Node5</title>
<path fill="none" stroke="midnightblue" d="M224.76,-131.092C193.927,-120.599 155.167,-107.408 126.277,-97.5765"/>
<polygon fill="midnightblue" stroke="midnightblue" points="223.875,-134.488 234.469,-134.396 226.13,-127.861 223.875,-134.488"/>
</g>
<!-- Node13&#45;&gt;Node6 -->
<g id="edge18" class="edge"><title>Node13&#45;&gt;Node6</title>
<path fill="none" stroke="midnightblue" d="M336.598,-131.715C374.84,-121.137 423.657,-107.635 459.897,-97.6109"/>
<polygon fill="midnightblue" stroke="midnightblue" points="335.321,-128.437 326.616,-134.476 337.187,-135.183 335.321,-128.437"/>
</g>
</g>
</svg>
        <g id="navigator" transform="translate(0 0)" fill="#404254">
                <rect fill="#f2f5e9" fill-opacity="0.5" stroke="#606060" stroke-width=".5" x="0" y="0" width="60" height="60"/>
                <use id="zoomplus" xlink:href="#zoomPlus" x="17" y="9" onmousedown="handleZoom(evt,'in')"/>
                <use id="zoomminus" xlink:href="#zoomMin" x="42" y="9" onmousedown="handleZoom(evt,'out')"/>
                <use id="reset" xlink:href="#resetDef" x="30" y="36" onmousedown="handleReset()"/>
                <g id="arrowUp" xlink:href="#dirArrow" transform="translate(30 24)" onmousedown="handlePan(0,-1)">
                  <use xlink:href="#rim" fill="#404040">
                        <set attributeName="fill" to="#808080" begin="arrowUp.mouseover" end="arrowUp.mouseout"/>
                  </use>
                  <path fill="none" stroke="white" stroke-width="1.5" d="M0,-3.0v7 M-2.5,-0.5L0,-3.0L2.5,-0.5"/>
                </g>
                <g id="arrowRight" xlink:href="#dirArrow" transform="rotate(90) translate(36 -43)" onmousedown="handlePan(1,0)">
                  <use xlink:href="#rim" fill="#404040">
                        <set attributeName="fill" to="#808080" begin="arrowRight.mouseover" end="arrowRight.mouseout"/>
                  </use>
                  <path fill="none" stroke="white" stroke-width="1.5" d="M0,-3.0v7 M-2.5,-0.5L0,-3.0L2.5,-0.5"/>
                </g>
                <g id="arrowDown" xlink:href="#dirArrow" transform="rotate(180) translate(-30 -48)" onmousedown="handlePan(0,1)">
                  <use xlink:href="#rim" fill="#404040">
                        <set attributeName="fill" to="#808080" begin="arrowDown.mouseover" end="arrowDown.mouseout"/>
                  </use>
                  <path fill="none" stroke="white" stroke-width="1.5" d="M0,-3.0v7 M-2.5,-0.5L0,-3.0L2.5,-0.5"/>
                </g>
                <g id="arrowLeft" xlink:href="#dirArrow" transform="rotate(270) translate(-36 17)" onmousedown="handlePan(-1,0)">
                  <use xlink:href="#rim" fill="#404040">
                        <set attributeName="fill" to="#808080" begin="arrowLeft.mouseover" end="arrowLeft.mouseout"/>
                  </use>
                  <path fill="none" stroke="white" stroke-width="1.5" d="M0,-3.0v7 M-2.5,-0.5L0,-3.0L2.5,-0.5"/>
                </g>
        </g>
        <svg viewBox="0 0 15 15" width="100%" height="30px" preserveAspectRatio="xMaxYMin meet">
         <g id="arrow_out" transform="scale(0.3 0.3)">
          <a xlink:href="_a_r_trackable2_d_8h__dep__incl_org.svg" target="_base">
           <rect id="button" ry="5" rx="5" y="6" x="6" height="38" width="38"
                fill="#f2f5e9" fill-opacity="0.5" stroke="#606060" stroke-width="1.0"/>
           <path id="arrow"
             d="M 11.500037,31.436501 C 11.940474,20.09759 22.043105,11.32322 32.158766,21.979434 L 37.068811,17.246167 C 37.068811,17.246167 37.088388,32 37.088388,32 L 22.160133,31.978069 C 22.160133,31.978069 26.997745,27.140456 26.997745,27.140456 C 18.528582,18.264221 13.291696,25.230495 11.500037,31.436501 z"
             style="fill:#404040;"/>
          </a>
         </g>
        </svg>
</svg>
