<?xml version="1.0" encoding="UTF-8" standalone="no"?>
<!DOCTYPE svg PUBLIC "-//W3C//DTD SVG 1.1//EN"
 "http://www.w3.org/Graphics/SVG/1.1/DTD/svg11.dtd">
<!-- Generated by graphviz version 2.38.0 (20140413.2041)
 -->
<!-- Title: /bitrise/src/Source/AR6/include/AR6/ARTracker2D.h Pages: 1 -->
<!--zoomable 173 -->
<svg id="main" version="1.1" xmlns="http://www.w3.org/2000/svg" xmlns:xlink="http://www.w3.org/1999/xlink" xml:space="preserve" onload="init(evt)">
<style type="text/css"><![CDATA[
.edge:hover path { stroke: red; }
.edge:hover polygon { stroke: red; fill: red; }
]]></style>
<script type="text/javascript"><![CDATA[
var edges = document.getElementsByTagName('g');
if (edges && edges.length) {
  for (var i=0;i<edges.length;i++) {
    if (edges[i].id.substr(0,4)=='edge') {
      edges[i].setAttribute('class','edge');
    }
  }
}
]]></script>
        <defs>
                <circle id="rim" cx="0" cy="0" r="7"/>
                <circle id="rim2" cx="0" cy="0" r="3.5"/>
                <g id="zoomPlus">
                        <use xlink:href="#rim" fill="#404040">
                                <set attributeName="fill" to="#808080" begin="zoomplus.mouseover" end="zoomplus.mouseout"/>
                        </use>
                        <path d="M-4,0h8M0,-4v8" fill="none" stroke="white" stroke-width="1.5" pointer-events="none"/>
                </g>
                <g id="zoomMin">
                        <use xlink:href="#rim" fill="#404040">
                                <set attributeName="fill" to="#808080" begin="zoomminus.mouseover" end="zoomminus.mouseout"/>
                        </use>
                        <path d="M-4,0h8" fill="none" stroke="white" stroke-width="1.5" pointer-events="none"/>
                </g>
                <g id="dirArrow">
                        <path fill="none" stroke="white" stroke-width="1.5" d="M0,-3.0v7 M-2.5,-0.5L0,-3.0L2.5,-0.5"/>
                </g>
               <g id="resetDef">
                       <use xlink:href="#rim2" fill="#404040">
                               <set attributeName="fill" to="#808080" begin="reset.mouseover" end="reset.mouseout"/>
                       </use>
               </g>
        </defs>

<script type="text/javascript">
var viewWidth = 1225;
var viewHeight = 173;
var sectionId = 'dynsection-1';
</script>
<script xlink:href="svgpan.js"/>
<svg id="graph" class="graph">
<g id="viewport">
<title>/bitrise/src/Source/AR6/include/AR6/ARTracker2D.h</title>
<polygon fill="white" stroke="none" points="-4,4 -4,-169 1221,-169 1221,4 -4,4"/>
<!-- Node1 -->
<g id="node1" class="node"><title>Node1</title>
<polygon fill="#bfbfbf" stroke="black" points="252,-134.5 252,-164.5 419,-164.5 419,-134.5 252,-134.5"/>
<text text-anchor="start" x="260" y="-152.5" font-family="Helvetica,sans-Serif" font-size="10.00">/bitrise/src/Source</text>
<text text-anchor="middle" x="335.5" y="-141.5" font-family="Helvetica,sans-Serif" font-size="10.00">/AR6/include/AR6/ARTracker2D.h</text>
</g>
<!-- Node2 -->
<g id="node2" class="node"><title>Node2</title>
<g id="a_node2"><a xlink:href="_a_r_controller_8cpp.html" target="_top" xlink:title="/bitrise/src/Source\l/AR6/ARController.cpp">
<polygon fill="white" stroke="black" points="0,-0.5 0,-30.5 117,-30.5 117,-0.5 0,-0.5"/>
<text text-anchor="start" x="8" y="-18.5" font-family="Helvetica,sans-Serif" font-size="10.00">/bitrise/src/Source</text>
<text text-anchor="middle" x="58.5" y="-7.5" font-family="Helvetica,sans-Serif" font-size="10.00">/AR6/ARController.cpp</text>
</a>
</g>
</g>
<!-- Node1&#45;&gt;Node2 -->
<g id="edge1" class="edge"><title>Node1&#45;&gt;Node2</title>
<path fill="none" stroke="midnightblue" d="M296.887,-130.099C240.892,-103.416 138.357,-54.5546 87.9972,-30.5565"/>
<polygon fill="midnightblue" stroke="midnightblue" points="295.585,-133.356 306.118,-134.499 298.597,-127.037 295.585,-133.356"/>
</g>
<!-- Node3 -->
<g id="node3" class="node"><title>Node3</title>
<g id="a_node3"><a xlink:href="_a_r_trackable_8cpp.html" target="_top" xlink:title="/bitrise/src/Source\l/AR6/ARTrackable.cpp">
<polygon fill="white" stroke="black" points="135.5,-0.5 135.5,-30.5 253.5,-30.5 253.5,-0.5 135.5,-0.5"/>
<text text-anchor="start" x="143.5" y="-18.5" font-family="Helvetica,sans-Serif" font-size="10.00">/bitrise/src/Source</text>
<text text-anchor="middle" x="194.5" y="-7.5" font-family="Helvetica,sans-Serif" font-size="10.00">/AR6/ARTrackable.cpp</text>
</a>
</g>
</g>
<!-- Node1&#45;&gt;Node3 -->
<g id="edge2" class="edge"><title>Node1&#45;&gt;Node3</title>
<path fill="none" stroke="midnightblue" d="M312.796,-127.245C283.74,-100.044 234.215,-53.68 209.481,-30.5247"/>
<polygon fill="midnightblue" stroke="midnightblue" points="310.718,-130.094 320.411,-134.374 315.502,-124.984 310.718,-130.094"/>
</g>
<!-- Node4 -->
<g id="node4" class="node"><title>Node4</title>
<g id="a_node4"><a xlink:href="_a_r_tracker2_d_8cpp.html" target="_top" xlink:title="/bitrise/src/Source\l/AR6/ARTracker2D.cpp">
<polygon fill="white" stroke="black" points="494,-67.5 494,-97.5 615,-97.5 615,-67.5 494,-67.5"/>
<text text-anchor="start" x="502" y="-85.5" font-family="Helvetica,sans-Serif" font-size="10.00">/bitrise/src/Source</text>
<text text-anchor="middle" x="554.5" y="-74.5" font-family="Helvetica,sans-Serif" font-size="10.00">/AR6/ARTracker2D.cpp</text>
</a>
</g>
</g>
<!-- Node1&#45;&gt;Node4 -->
<g id="edge3" class="edge"><title>Node1&#45;&gt;Node4</title>
<path fill="none" stroke="midnightblue" d="M392.508,-131.58C428.078,-121.022 473.328,-107.592 506.957,-97.6109"/>
<polygon fill="midnightblue" stroke="midnightblue" points="391.341,-128.275 382.75,-134.476 393.333,-134.986 391.341,-128.275"/>
</g>
<!-- Node5 -->
<g id="node5" class="node"><title>Node5</title>
<g id="a_node5"><a xlink:href="_a_r_controller_8h.html" target="_top" xlink:title="/bitrise/src/Source\l/AR6/include/AR6/ARController.h">
<polygon fill="white" stroke="black" points="313,-67.5 313,-97.5 476,-97.5 476,-67.5 313,-67.5"/>
<text text-anchor="start" x="321" y="-85.5" font-family="Helvetica,sans-Serif" font-size="10.00">/bitrise/src/Source</text>
<text text-anchor="middle" x="394.5" y="-74.5" font-family="Helvetica,sans-Serif" font-size="10.00">/AR6/include/AR6/ARController.h</text>
</a>
</g>
</g>
<!-- Node1&#45;&gt;Node5 -->
<g id="edge4" class="edge"><title>Node1&#45;&gt;Node5</title>
<path fill="none" stroke="midnightblue" d="M355.255,-126.736C363.984,-117.119 373.996,-106.089 381.723,-97.5765"/>
<polygon fill="midnightblue" stroke="midnightblue" points="352.432,-124.639 348.302,-134.396 357.615,-129.344 352.432,-124.639"/>
</g>
<!-- Node5&#45;&gt;Node2 -->
<g id="edge6" class="edge"><title>Node5&#45;&gt;Node2</title>
<path fill="none" stroke="midnightblue" d="M307.35,-65.6213C254.887,-55.9272 186.79,-43.1065 126.5,-31 123.423,-30.3821 120.27,-29.7402 117.087,-29.0854"/>
<polygon fill="midnightblue" stroke="midnightblue" points="306.824,-69.0831 317.293,-67.4556 308.094,-62.1993 306.824,-69.0831"/>
</g>
<!-- Node5&#45;&gt;Node3 -->
<g id="edge7" class="edge"><title>Node5&#45;&gt;Node3</title>
<path fill="none" stroke="midnightblue" d="M341.355,-64.2278C309.002,-53.7131 268.195,-40.4508 237.812,-30.5765"/>
<polygon fill="midnightblue" stroke="midnightblue" points="340.511,-67.6337 351.103,-67.396 342.674,-60.9764 340.511,-67.6337"/>
</g>
<!-- Node6 -->
<g id="node6" class="node"><title>Node6</title>
<g id="a_node6"><a xlink:href="_a_r6__c_8cpp.html" target="_top" xlink:title="/bitrise/src/Source\l/AR6/AR6_c.cpp">
<polygon fill="white" stroke="black" points="271.5,-0.5 271.5,-30.5 367.5,-30.5 367.5,-0.5 271.5,-0.5"/>
<text text-anchor="start" x="279.5" y="-18.5" font-family="Helvetica,sans-Serif" font-size="10.00">/bitrise/src/Source</text>
<text text-anchor="middle" x="319.5" y="-7.5" font-family="Helvetica,sans-Serif" font-size="10.00">/AR6/AR6_c.cpp</text>
</a>
</g>
</g>
<!-- Node5&#45;&gt;Node6 -->
<g id="edge5" class="edge"><title>Node5&#45;&gt;Node6</title>
<path fill="none" stroke="midnightblue" d="M370.382,-60.5978C359.057,-50.7831 345.859,-39.3442 335.742,-30.5765"/>
<polygon fill="midnightblue" stroke="midnightblue" points="368.377,-63.4915 378.226,-67.396 372.961,-58.2017 368.377,-63.4915"/>
</g>
<!-- Node7 -->
<g id="node7" class="node"><title>Node7</title>
<g id="a_node7"><a xlink:href="_a_r_trackable_appearance_8cpp.html" target="_top" xlink:title="/bitrise/src/Source\l/AR6/ARTrackableAppearance.cpp">
<polygon fill="white" stroke="black" points="385.5,-0.5 385.5,-30.5 555.5,-30.5 555.5,-0.5 385.5,-0.5"/>
<text text-anchor="start" x="393.5" y="-18.5" font-family="Helvetica,sans-Serif" font-size="10.00">/bitrise/src/Source</text>
<text text-anchor="middle" x="470.5" y="-7.5" font-family="Helvetica,sans-Serif" font-size="10.00">/AR6/ARTrackableAppearance.cpp</text>
</a>
</g>
</g>
<!-- Node5&#45;&gt;Node7 -->
<g id="edge8" class="edge"><title>Node5&#45;&gt;Node7</title>
<path fill="none" stroke="midnightblue" d="M418.606,-60.8832C430.155,-51.0054 443.69,-39.4293 454.041,-30.5765"/>
<polygon fill="midnightblue" stroke="midnightblue" points="416.316,-58.2364 410.991,-67.396 420.865,-63.5561 416.316,-58.2364"/>
</g>
<!-- Node8 -->
<g id="node8" class="node"><title>Node8</title>
<g id="a_node8"><a xlink:href="_a_r_trackable_multi_square_8cpp.html" target="_top" xlink:title="/bitrise/src/Source\l/AR6/ARTrackableMultiSquare.cpp">
<polygon fill="white" stroke="black" points="573.5,-0.5 573.5,-30.5 743.5,-30.5 743.5,-0.5 573.5,-0.5"/>
<text text-anchor="start" x="581.5" y="-18.5" font-family="Helvetica,sans-Serif" font-size="10.00">/bitrise/src/Source</text>
<text text-anchor="middle" x="658.5" y="-7.5" font-family="Helvetica,sans-Serif" font-size="10.00">/AR6/ARTrackableMultiSquare.cpp</text>
</a>
</g>
</g>
<!-- Node5&#45;&gt;Node8 -->
<g id="edge9" class="edge"><title>Node5&#45;&gt;Node8</title>
<path fill="none" stroke="midnightblue" d="M461.306,-65.0515C504.466,-54.425 560.042,-40.7414 601.188,-30.6109"/>
<polygon fill="midnightblue" stroke="midnightblue" points="460.332,-61.6867 451.459,-67.476 462.006,-68.4837 460.332,-61.6867"/>
</g>
<!-- Node9 -->
<g id="node9" class="node"><title>Node9</title>
<g id="a_node9"><a xlink:href="_a_r_trackable_square_8cpp.html" target="_top" xlink:title="/bitrise/src/Source\l/AR6/ARTrackableSquare.cpp">
<polygon fill="white" stroke="black" points="762,-0.5 762,-30.5 911,-30.5 911,-0.5 762,-0.5"/>
<text text-anchor="start" x="770" y="-18.5" font-family="Helvetica,sans-Serif" font-size="10.00">/bitrise/src/Source</text>
<text text-anchor="middle" x="836.5" y="-7.5" font-family="Helvetica,sans-Serif" font-size="10.00">/AR6/ARTrackableSquare.cpp</text>
</a>
</g>
</g>
<!-- Node5&#45;&gt;Node9 -->
<g id="edge10" class="edge"><title>Node5&#45;&gt;Node9</title>
<path fill="none" stroke="midnightblue" d="M486.234,-66.9165C605.619,-49.5449 637.269,-48.7077 752.5,-31 755.572,-30.528 758.705,-30.0358 761.868,-29.53"/>
<polygon fill="midnightblue" stroke="midnightblue" points="485.726,-63.4535 476.338,-68.3649 486.74,-70.3797 485.726,-63.4535"/>
</g>
<!-- Node10 -->
<g id="node10" class="node"><title>Node10</title>
<g id="a_node10"><a xlink:href="_a_r_tracker_square_8cpp.html" target="_top" xlink:title="/bitrise/src/Source\l/AR6/ARTrackerSquare.cpp">
<polygon fill="white" stroke="black" points="929,-0.5 929,-30.5 1068,-30.5 1068,-0.5 929,-0.5"/>
<text text-anchor="start" x="937" y="-18.5" font-family="Helvetica,sans-Serif" font-size="10.00">/bitrise/src/Source</text>
<text text-anchor="middle" x="998.5" y="-7.5" font-family="Helvetica,sans-Serif" font-size="10.00">/AR6/ARTrackerSquare.cpp</text>
</a>
</g>
</g>
<!-- Node5&#45;&gt;Node10 -->
<g id="edge11" class="edge"><title>Node5&#45;&gt;Node10</title>
<path fill="none" stroke="midnightblue" d="M486.525,-66.9448C679.847,-44.1548 731.51,-56.3205 920.5,-31 923.23,-30.6342 926.01,-30.237 928.815,-29.8157"/>
<polygon fill="midnightblue" stroke="midnightblue" points="485.826,-63.5035 476.312,-68.1656 486.656,-70.454 485.826,-63.5035"/>
</g>
<!-- Node11 -->
<g id="node11" class="node"><title>Node11</title>
<g id="a_node11"><a xlink:href="_a_r_video_source_8cpp.html" target="_top" xlink:title="/bitrise/src/Source\l/AR6/ARVideoSource.cpp">
<polygon fill="white" stroke="black" points="1086,-0.5 1086,-30.5 1217,-30.5 1217,-0.5 1086,-0.5"/>
<text text-anchor="start" x="1094" y="-18.5" font-family="Helvetica,sans-Serif" font-size="10.00">/bitrise/src/Source</text>
<text text-anchor="middle" x="1151.5" y="-7.5" font-family="Helvetica,sans-Serif" font-size="10.00">/AR6/ARVideoSource.cpp</text>
</a>
</g>
</g>
<!-- Node5&#45;&gt;Node11 -->
<g id="edge12" class="edge"><title>Node5&#45;&gt;Node11</title>
<path fill="none" stroke="midnightblue" d="M486.534,-66.9707C749.293,-38.8821 819.349,-63.9928 1077.5,-31 1080.23,-30.6515 1083,-30.2626 1085.81,-29.8422"/>
<polygon fill="midnightblue" stroke="midnightblue" points="485.866,-63.5226 476.302,-68.0809 486.621,-70.4818 485.866,-63.5226"/>
</g>
</g>
</svg>
        <g id="navigator" transform="translate(0 0)" fill="#404254">
                <rect fill="#f2f5e9" fill-opacity="0.5" stroke="#606060" stroke-width=".5" x="0" y="0" width="60" height="60"/>
                <use id="zoomplus" xlink:href="#zoomPlus" x="17" y="9" onmousedown="handleZoom(evt,'in')"/>
                <use id="zoomminus" xlink:href="#zoomMin" x="42" y="9" onmousedown="handleZoom(evt,'out')"/>
                <use id="reset" xlink:href="#resetDef" x="30" y="36" onmousedown="handleReset()"/>
                <g id="arrowUp" xlink:href="#dirArrow" transform="translate(30 24)" onmousedown="handlePan(0,-1)">
                  <use xlink:href="#rim" fill="#404040">
                        <set attributeName="fill" to="#808080" begin="arrowUp.mouseover" end="arrowUp.mouseout"/>
                  </use>
                  <path fill="none" stroke="white" stroke-width="1.5" d="M0,-3.0v7 M-2.5,-0.5L0,-3.0L2.5,-0.5"/>
                </g>
                <g id="arrowRight" xlink:href="#dirArrow" transform="rotate(90) translate(36 -43)" onmousedown="handlePan(1,0)">
                  <use xlink:href="#rim" fill="#404040">
                        <set attributeName="fill" to="#808080" begin="arrowRight.mouseover" end="arrowRight.mouseout"/>
                  </use>
                  <path fill="none" stroke="white" stroke-width="1.5" d="M0,-3.0v7 M-2.5,-0.5L0,-3.0L2.5,-0.5"/>
                </g>
                <g id="arrowDown" xlink:href="#dirArrow" transform="rotate(180) translate(-30 -48)" onmousedown="handlePan(0,1)">
                  <use xlink:href="#rim" fill="#404040">
                        <set attributeName="fill" to="#808080" begin="arrowDown.mouseover" end="arrowDown.mouseout"/>
                  </use>
                  <path fill="none" stroke="white" stroke-width="1.5" d="M0,-3.0v7 M-2.5,-0.5L0,-3.0L2.5,-0.5"/>
                </g>
                <g id="arrowLeft" xlink:href="#dirArrow" transform="rotate(270) translate(-36 17)" onmousedown="handlePan(-1,0)">
                  <use xlink:href="#rim" fill="#404040">
                        <set attributeName="fill" to="#808080" begin="arrowLeft.mouseover" end="arrowLeft.mouseout"/>
                  </use>
                  <path fill="none" stroke="white" stroke-width="1.5" d="M0,-3.0v7 M-2.5,-0.5L0,-3.0L2.5,-0.5"/>
                </g>
        </g>
        <svg viewBox="0 0 15 15" width="100%" height="30px" preserveAspectRatio="xMaxYMin meet">
         <g id="arrow_out" transform="scale(0.3 0.3)">
          <a xlink:href="_a_r_tracker2_d_8h__dep__incl_org.svg" target="_base">
           <rect id="button" ry="5" rx="5" y="6" x="6" height="38" width="38"
                fill="#f2f5e9" fill-opacity="0.5" stroke="#606060" stroke-width="1.0"/>
           <path id="arrow"
             d="M 11.500037,31.436501 C 11.940474,20.09759 22.043105,11.32322 32.158766,21.979434 L 37.068811,17.246167 C 37.068811,17.246167 37.088388,32 37.088388,32 L 22.160133,31.978069 C 22.160133,31.978069 26.997745,27.140456 26.997745,27.140456 C 18.528582,18.264221 13.291696,25.230495 11.500037,31.436501 z"
             style="fill:#404040;"/>
          </a>
         </g>
        </svg>
</svg>
