<?xml version="1.0" encoding="UTF-8" standalone="no"?>
<!DOCTYPE svg PUBLIC "-//W3C//DTD SVG 1.1//EN"
 "http://www.w3.org/Graphics/SVG/1.1/DTD/svg11.dtd">
<!-- Generated by graphviz version 2.38.0 (20140413.2041)
 -->
<!-- Title: /bitrise/src/Source/AR6/include/AR6/ARTracker2D.h Pages: 1 -->
<svg width="998pt" height="375pt"
 viewBox="0.00 0.00 998.00 375.00" xmlns="http://www.w3.org/2000/svg" xmlns:xlink="http://www.w3.org/1999/xlink">
<g id="graph0" class="graph" transform="scale(1 1) rotate(0) translate(4 371)">
<title>/bitrise/src/Source/AR6/include/AR6/ARTracker2D.h</title>
<polygon fill="white" stroke="none" points="-4,4 -4,-371 994,-371 994,4 -4,4"/>
<!-- Node1 -->
<g id="node1" class="node"><title>Node1</title>
<polygon fill="#bfbfbf" stroke="black" points="437.5,-336.5 437.5,-366.5 604.5,-366.5 604.5,-336.5 437.5,-336.5"/>
<text text-anchor="start" x="445.5" y="-354.5" font-family="Helvetica,sans-Serif" font-size="10.00">/bitrise/src/Source</text>
<text text-anchor="middle" x="521" y="-343.5" font-family="Helvetica,sans-Serif" font-size="10.00">/AR6/include/AR6/ARTracker2D.h</text>
</g>
<!-- Node2 -->
<g id="node2" class="node"><title>Node2</title>
<g id="a_node2"><a xlink:href="_a_r_tracker_8h.html" target="_top" xlink:title="AR6/ARTracker.h">
<polygon fill="white" stroke="black" points="349.5,-280.5 349.5,-299.5 444.5,-299.5 444.5,-280.5 349.5,-280.5"/>
<text text-anchor="middle" x="397" y="-287.5" font-family="Helvetica,sans-Serif" font-size="10.00">AR6/ARTracker.h</text>
</a>
</g>
</g>
<!-- Node1&#45;&gt;Node2 -->
<g id="edge1" class="edge"><title>Node1&#45;&gt;Node2</title>
<path fill="none" stroke="midnightblue" d="M491.614,-336.399C471.18,-326.595 444.14,-313.619 424.201,-304.052"/>
<polygon fill="midnightblue" stroke="midnightblue" points="425.573,-300.828 415.043,-299.658 422.545,-307.139 425.573,-300.828"/>
</g>
<!-- Node25 -->
<g id="node25" class="node"><title>Node25</title>
<g id="a_node25"><a xlink:href="_a_r_trackable2_d_8h.html" target="_top" xlink:title="AR6/ARTrackable2D.h">
<polygon fill="white" stroke="black" points="462.5,-280.5 462.5,-299.5 579.5,-299.5 579.5,-280.5 462.5,-280.5"/>
<text text-anchor="middle" x="521" y="-287.5" font-family="Helvetica,sans-Serif" font-size="10.00">AR6/ARTrackable2D.h</text>
</a>
</g>
</g>
<!-- Node1&#45;&gt;Node25 -->
<g id="edge35" class="edge"><title>Node1&#45;&gt;Node25</title>
<path fill="none" stroke="midnightblue" d="M521,-336.399C521,-328.466 521,-318.458 521,-309.858"/>
<polygon fill="midnightblue" stroke="midnightblue" points="524.5,-309.658 521,-299.658 517.5,-309.658 524.5,-309.658"/>
</g>
<!-- Node26 -->
<g id="node26" class="node"><title>Node26</title>
<polygon fill="white" stroke="#bfbfbf" points="597.5,-280.5 597.5,-299.5 632.5,-299.5 632.5,-280.5 597.5,-280.5"/>
<text text-anchor="middle" x="615" y="-287.5" font-family="Helvetica,sans-Serif" font-size="10.00">map</text>
</g>
<!-- Node1&#45;&gt;Node26 -->
<g id="edge38" class="edge"><title>Node1&#45;&gt;Node26</title>
<path fill="none" stroke="midnightblue" d="M543.277,-336.399C558.203,-326.951 577.781,-314.559 592.71,-305.109"/>
<polygon fill="midnightblue" stroke="midnightblue" points="594.745,-307.964 601.322,-299.658 591.001,-302.049 594.745,-307.964"/>
</g>
<!-- Node3 -->
<g id="node3" class="node"><title>Node3</title>
<g id="a_node3"><a xlink:href="_platform_8h.html" target="_top" xlink:title="AR6/Platform.h">
<polygon fill="white" stroke="black" points="517,-224.5 517,-243.5 601,-243.5 601,-224.5 517,-224.5"/>
<text text-anchor="middle" x="559" y="-231.5" font-family="Helvetica,sans-Serif" font-size="10.00">AR6/Platform.h</text>
</a>
</g>
</g>
<!-- Node2&#45;&gt;Node3 -->
<g id="edge2" class="edge"><title>Node2&#45;&gt;Node3</title>
<path fill="none" stroke="midnightblue" d="M422.669,-280.444C449.923,-271.359 493.184,-256.939 523.651,-246.783"/>
<polygon fill="midnightblue" stroke="midnightblue" points="525.071,-249.999 533.451,-243.516 522.857,-243.358 525.071,-249.999"/>
</g>
<!-- Node4 -->
<g id="node4" class="node"><title>Node4</title>
<g id="a_node4"><a xlink:href="ar_8h.html" target="_top" xlink:title="ARToolKit core routines. ">
<polygon fill="white" stroke="black" points="465.5,-112.5 465.5,-131.5 538.5,-131.5 538.5,-112.5 465.5,-112.5"/>
<text text-anchor="middle" x="502" y="-119.5" font-family="Helvetica,sans-Serif" font-size="10.00">AR6/AR/ar.h</text>
</a>
</g>
</g>
<!-- Node2&#45;&gt;Node4 -->
<g id="edge3" class="edge"><title>Node2&#45;&gt;Node4</title>
<path fill="none" stroke="midnightblue" d="M383.359,-280.494C352.671,-260.323 283.276,-208.264 315,-168 332.123,-146.268 405.434,-133.815 455.016,-127.734"/>
<polygon fill="midnightblue" stroke="midnightblue" points="455.686,-131.18 465.207,-126.532 454.866,-124.228 455.686,-131.18"/>
</g>
<!-- Node20 -->
<g id="node20" class="node"><title>Node20</title>
<g id="a_node20"><a xlink:href="_a_r_trackable_8h.html" target="_top" xlink:title="AR6/ARTrackable.h">
<polygon fill="white" stroke="black" points="395,-224.5 395,-243.5 499,-243.5 499,-224.5 395,-224.5"/>
<text text-anchor="middle" x="447" y="-231.5" font-family="Helvetica,sans-Serif" font-size="10.00">AR6/ARTrackable.h</text>
</a>
</g>
</g>
<!-- Node2&#45;&gt;Node20 -->
<g id="edge26" class="edge"><title>Node2&#45;&gt;Node20</title>
<path fill="none" stroke="midnightblue" d="M405.256,-280.083C412.465,-272.298 423.11,-260.801 431.846,-251.367"/>
<polygon fill="midnightblue" stroke="midnightblue" points="434.671,-253.467 438.897,-243.751 429.535,-248.711 434.671,-253.467"/>
</g>
<!-- Node24 -->
<g id="node24" class="node"><title>Node24</title>
<polygon fill="white" stroke="#bfbfbf" points="324,-168.5 324,-187.5 368,-187.5 368,-168.5 324,-168.5"/>
<text text-anchor="middle" x="346" y="-175.5" font-family="Helvetica,sans-Serif" font-size="10.00">vector</text>
</g>
<!-- Node2&#45;&gt;Node24 -->
<g id="edge34" class="edge"><title>Node2&#45;&gt;Node24</title>
<path fill="none" stroke="midnightblue" d="M392.998,-280.368C384.693,-262.456 365.437,-220.923 354.321,-196.948"/>
<polygon fill="midnightblue" stroke="midnightblue" points="357.365,-195.192 349.983,-187.591 351.014,-198.136 357.365,-195.192"/>
</g>
<!-- Node5 -->
<g id="node5" class="node"><title>Node5</title>
<polygon fill="white" stroke="#bfbfbf" points="116,-0.5 116,-19.5 162,-19.5 162,-0.5 116,-0.5"/>
<text text-anchor="middle" x="139" y="-7.5" font-family="Helvetica,sans-Serif" font-size="10.00">stdio.h</text>
</g>
<!-- Node4&#45;&gt;Node5 -->
<g id="edge4" class="edge"><title>Node4&#45;&gt;Node5</title>
<path fill="none" stroke="midnightblue" d="M465.21,-120.242C411.363,-117.975 308.825,-109.226 229,-76 200.557,-64.1611 172.546,-41.7653 155.515,-26.6114"/>
<polygon fill="midnightblue" stroke="midnightblue" points="157.83,-23.9855 148.084,-19.8319 153.113,-29.1571 157.83,-23.9855"/>
</g>
<!-- Node6 -->
<g id="node6" class="node"><title>Node6</title>
<polygon fill="white" stroke="#bfbfbf" points="334,-0.5 334,-19.5 382,-19.5 382,-0.5 334,-0.5"/>
<text text-anchor="middle" x="358" y="-7.5" font-family="Helvetica,sans-Serif" font-size="10.00">stdlib.h</text>
</g>
<!-- Node4&#45;&gt;Node6 -->
<g id="edge5" class="edge"><title>Node4&#45;&gt;Node6</title>
<path fill="none" stroke="midnightblue" d="M475.479,-112.383C455.269,-104.93 427.516,-92.7134 407,-76 390.62,-62.6561 376.66,-42.73 367.881,-28.4603"/>
<polygon fill="midnightblue" stroke="midnightblue" points="370.765,-26.4626 362.664,-19.6353 364.74,-30.0248 370.765,-26.4626"/>
</g>
<!-- Node7 -->
<g id="node7" class="node"><title>Node7</title>
<polygon fill="white" stroke="#bfbfbf" points="424.5,-56.5 424.5,-75.5 473.5,-75.5 473.5,-56.5 424.5,-56.5"/>
<text text-anchor="middle" x="449" y="-63.5" font-family="Helvetica,sans-Serif" font-size="10.00">stdint.h</text>
</g>
<!-- Node4&#45;&gt;Node7 -->
<g id="edge6" class="edge"><title>Node4&#45;&gt;Node7</title>
<path fill="none" stroke="midnightblue" d="M493.248,-112.083C485.53,-104.22 474.095,-92.5688 464.783,-83.0813"/>
<polygon fill="midnightblue" stroke="midnightblue" points="467.092,-80.4363 457.589,-75.7511 462.096,-85.3396 467.092,-80.4363"/>
</g>
<!-- Node8 -->
<g id="node8" class="node"><title>Node8</title>
<polygon fill="white" stroke="#bfbfbf" points="400.5,-0.5 400.5,-19.5 449.5,-19.5 449.5,-0.5 400.5,-0.5"/>
<text text-anchor="middle" x="425" y="-7.5" font-family="Helvetica,sans-Serif" font-size="10.00">string.h</text>
</g>
<!-- Node4&#45;&gt;Node8 -->
<g id="edge7" class="edge"><title>Node4&#45;&gt;Node8</title>
<path fill="none" stroke="midnightblue" d="M466.987,-112.445C448.066,-105.844 426.316,-94.5936 415,-76 406.391,-61.8548 410.746,-42.8749 416.139,-29.0782"/>
<polygon fill="midnightblue" stroke="midnightblue" points="419.44,-30.2665 420.268,-19.7041 413.034,-27.4448 419.44,-30.2665"/>
</g>
<!-- Node9 -->
<g id="node9" class="node"><title>Node9</title>
<polygon fill="white" stroke="#bfbfbf" points="506.5,-0.5 506.5,-19.5 597.5,-19.5 597.5,-0.5 506.5,-0.5"/>
<text text-anchor="middle" x="552" y="-7.5" font-family="Helvetica,sans-Serif" font-size="10.00">AR6/AR/config.h</text>
</g>
<!-- Node4&#45;&gt;Node9 -->
<g id="edge8" class="edge"><title>Node4&#45;&gt;Node9</title>
<path fill="none" stroke="midnightblue" d="M503.627,-112.269C506.211,-99.483 511.913,-75.1124 521,-56 525.727,-46.0587 532.537,-35.8846 538.571,-27.7311"/>
<polygon fill="midnightblue" stroke="midnightblue" points="541.361,-29.8451 544.679,-19.7833 535.81,-25.5796 541.361,-29.8451"/>
</g>
<!-- Node10 -->
<g id="node10" class="node"><title>Node10</title>
<g id="a_node10"><a xlink:href="ar_config_8h.html" target="_top" xlink:title="AR6/AR/arConfig.h">
<polygon fill="white" stroke="black" points="668.5,-56.5 668.5,-75.5 769.5,-75.5 769.5,-56.5 668.5,-56.5"/>
<text text-anchor="middle" x="719" y="-63.5" font-family="Helvetica,sans-Serif" font-size="10.00">AR6/AR/arConfig.h</text>
</a>
</g>
</g>
<!-- Node4&#45;&gt;Node10 -->
<g id="edge9" class="edge"><title>Node4&#45;&gt;Node10</title>
<path fill="none" stroke="midnightblue" d="M536.384,-112.444C573.922,-103.102 634.131,-88.1194 675.067,-77.9326"/>
<polygon fill="midnightblue" stroke="midnightblue" points="675.918,-81.3278 684.777,-75.5164 674.227,-74.5349 675.918,-81.3278"/>
</g>
<!-- Node11 -->
<g id="node11" class="node"><title>Node11</title>
<g id="a_node11"><a xlink:href="log_8h.html" target="_top" xlink:title="Logging utilities. ">
<polygon fill="white" stroke="black" points="238,-56.5 238,-75.5 330,-75.5 330,-56.5 238,-56.5"/>
<text text-anchor="middle" x="284" y="-63.5" font-family="Helvetica,sans-Serif" font-size="10.00">AR6/ARUtil/log.h</text>
</a>
</g>
</g>
<!-- Node4&#45;&gt;Node11 -->
<g id="edge10" class="edge"><title>Node4&#45;&gt;Node11</title>
<path fill="none" stroke="midnightblue" d="M467.457,-112.444C429.747,-103.102 369.26,-88.1194 328.135,-77.9326"/>
<polygon fill="midnightblue" stroke="midnightblue" points="328.929,-74.5236 318.381,-75.5164 327.246,-81.3182 328.929,-74.5236"/>
</g>
<!-- Node14 -->
<g id="node14" class="node"><title>Node14</title>
<g id="a_node14"><a xlink:href="_a_r_2include_2_a_r6_2_a_r_2matrix_8h.html" target="_top" xlink:title="AR6/AR/matrix.h">
<polygon fill="white" stroke="black" points="788,-56.5 788,-75.5 880,-75.5 880,-56.5 788,-56.5"/>
<text text-anchor="middle" x="834" y="-63.5" font-family="Helvetica,sans-Serif" font-size="10.00">AR6/AR/matrix.h</text>
</a>
</g>
</g>
<!-- Node4&#45;&gt;Node14 -->
<g id="edge16" class="edge"><title>Node4&#45;&gt;Node14</title>
<path fill="none" stroke="midnightblue" d="M538.798,-115.015C596.689,-105.599 709.444,-87.259 777.611,-76.1717"/>
<polygon fill="midnightblue" stroke="midnightblue" points="778.434,-79.5839 787.743,-74.5238 777.31,-72.6747 778.434,-79.5839"/>
</g>
<!-- Node16 -->
<g id="node16" class="node"><title>Node16</title>
<g id="a_node16"><a xlink:href="icp_8h.html" target="_top" xlink:title="AR6/AR/icp.h">
<polygon fill="white" stroke="black" points="100.5,-56.5 100.5,-75.5 177.5,-75.5 177.5,-56.5 100.5,-56.5"/>
<text text-anchor="middle" x="139" y="-63.5" font-family="Helvetica,sans-Serif" font-size="10.00">AR6/AR/icp.h</text>
</a>
</g>
</g>
<!-- Node4&#45;&gt;Node16 -->
<g id="edge18" class="edge"><title>Node4&#45;&gt;Node16</title>
<path fill="none" stroke="midnightblue" d="M465.462,-115.868C407.755,-107.716 291.995,-91.1754 194,-76 191.946,-75.6819 189.849,-75.3538 187.731,-75.0196"/>
<polygon fill="midnightblue" stroke="midnightblue" points="188.176,-71.5463 177.749,-73.4261 187.072,-78.4588 188.176,-71.5463"/>
</g>
<!-- Node18 -->
<g id="node18" class="node"><title>Node18</title>
<g id="a_node18"><a xlink:href="param_8h.html" target="_top" xlink:title="ARToolKit functions for handling calibrated camera parameters. ">
<polygon fill="white" stroke="black" points="898,-56.5 898,-75.5 990,-75.5 990,-56.5 898,-56.5"/>
<text text-anchor="middle" x="944" y="-63.5" font-family="Helvetica,sans-Serif" font-size="10.00">AR6/AR/param.h</text>
</a>
</g>
</g>
<!-- Node4&#45;&gt;Node18 -->
<g id="edge21" class="edge"><title>Node4&#45;&gt;Node18</title>
<path fill="none" stroke="midnightblue" d="M538.666,-116.744C606.373,-109.414 754.9,-93.4991 880,-76 882.605,-75.6356 885.277,-75.2471 887.984,-74.8437"/>
<polygon fill="midnightblue" stroke="midnightblue" points="888.516,-78.303 897.874,-73.3343 887.46,-71.3831 888.516,-78.303"/>
</g>
<!-- Node19 -->
<g id="node19" class="node"><title>Node19</title>
<g id="a_node19"><a xlink:href="ar_image_proc_8h.html" target="_top" xlink:title="ARToolKit functions for 2D luminance image processing. ">
<polygon fill="white" stroke="black" points="530,-56.5 530,-75.5 650,-75.5 650,-56.5 530,-56.5"/>
<text text-anchor="middle" x="590" y="-63.5" font-family="Helvetica,sans-Serif" font-size="10.00">AR6/AR/arImageProc.h</text>
</a>
</g>
</g>
<!-- Node4&#45;&gt;Node19 -->
<g id="edge23" class="edge"><title>Node4&#45;&gt;Node19</title>
<path fill="none" stroke="midnightblue" d="M511.024,-112.324C523.15,-103.743 544.479,-90.486 562.025,-80.5224"/>
<polygon fill="midnightblue" stroke="midnightblue" points="563.745,-83.5708 570.786,-75.6545 560.345,-77.4518 563.745,-83.5708"/>
</g>
<!-- Node11&#45;&gt;Node5 -->
<g id="edge11" class="edge"><title>Node11&#45;&gt;Node5</title>
<path fill="none" stroke="midnightblue" d="M261.024,-56.4435C236.843,-47.4381 198.582,-33.1891 171.354,-23.049"/>
<polygon fill="midnightblue" stroke="midnightblue" points="172.461,-19.7265 161.868,-19.5164 170.018,-26.2864 172.461,-19.7265"/>
</g>
<!-- Node11&#45;&gt;Node6 -->
<g id="edge12" class="edge"><title>Node11&#45;&gt;Node6</title>
<path fill="none" stroke="midnightblue" d="M295.889,-56.324C307.15,-48.1066 324.287,-35.6017 337.709,-25.8069"/>
<polygon fill="midnightblue" stroke="midnightblue" points="339.88,-28.5559 345.894,-19.8339 335.753,-22.9014 339.88,-28.5559"/>
</g>
<!-- Node11&#45;&gt;Node8 -->
<g id="edge13" class="edge"><title>Node11&#45;&gt;Node8</title>
<path fill="none" stroke="midnightblue" d="M306.342,-56.4435C329.753,-47.4776 366.736,-33.314 393.19,-23.1827"/>
<polygon fill="midnightblue" stroke="midnightblue" points="394.676,-26.3615 402.763,-19.5164 392.172,-19.8245 394.676,-26.3615"/>
</g>
<!-- Node12 -->
<g id="node12" class="node"><title>Node12</title>
<polygon fill="white" stroke="#bfbfbf" points="264,-0.5 264,-19.5 316,-19.5 316,-0.5 264,-0.5"/>
<text text-anchor="middle" x="290" y="-7.5" font-family="Helvetica,sans-Serif" font-size="10.00">stdarg.h</text>
</g>
<!-- Node11&#45;&gt;Node12 -->
<g id="edge14" class="edge"><title>Node11&#45;&gt;Node12</title>
<path fill="none" stroke="midnightblue" d="M284.991,-56.083C285.786,-48.9272 286.929,-38.6353 287.923,-29.6911"/>
<polygon fill="midnightblue" stroke="midnightblue" points="291.402,-30.0765 289.028,-19.7511 284.445,-29.3034 291.402,-30.0765"/>
</g>
<!-- Node13 -->
<g id="node13" class="node"><title>Node13</title>
<polygon fill="white" stroke="#bfbfbf" points="180.5,-0.5 180.5,-19.5 245.5,-19.5 245.5,-0.5 180.5,-0.5"/>
<text text-anchor="middle" x="213" y="-7.5" font-family="Helvetica,sans-Serif" font-size="10.00">sys/errno.h</text>
</g>
<!-- Node11&#45;&gt;Node13 -->
<g id="edge15" class="edge"><title>Node11&#45;&gt;Node13</title>
<path fill="none" stroke="midnightblue" d="M272.593,-56.324C261.891,-48.1849 245.659,-35.8395 232.837,-26.0874"/>
<polygon fill="midnightblue" stroke="midnightblue" points="234.693,-23.1018 224.615,-19.8339 230.456,-28.6734 234.693,-23.1018"/>
</g>
<!-- Node15 -->
<g id="node15" class="node"><title>Node15</title>
<polygon fill="white" stroke="#bfbfbf" points="810.5,-0.5 810.5,-19.5 857.5,-19.5 857.5,-0.5 810.5,-0.5"/>
<text text-anchor="middle" x="834" y="-7.5" font-family="Helvetica,sans-Serif" font-size="10.00">math.h</text>
</g>
<!-- Node14&#45;&gt;Node15 -->
<g id="edge17" class="edge"><title>Node14&#45;&gt;Node15</title>
<path fill="none" stroke="midnightblue" d="M834,-56.083C834,-49.0059 834,-38.8611 834,-29.9865"/>
<polygon fill="midnightblue" stroke="midnightblue" points="837.5,-29.751 834,-19.7511 830.5,-29.7511 837.5,-29.751"/>
</g>
<!-- Node16&#45;&gt;Node5 -->
<g id="edge19" class="edge"><title>Node16&#45;&gt;Node5</title>
<path fill="none" stroke="midnightblue" d="M139,-56.083C139,-49.0059 139,-38.8611 139,-29.9865"/>
<polygon fill="midnightblue" stroke="midnightblue" points="142.5,-29.751 139,-19.7511 135.5,-29.7511 142.5,-29.751"/>
</g>
<!-- Node17 -->
<g id="node17" class="node"><title>Node17</title>
<g id="a_node17"><a xlink:href="icp_core_8h.html" target="_top" xlink:title="AR6/AR/icpCore.h">
<polygon fill="white" stroke="black" points="0,-0.5 0,-19.5 98,-19.5 98,-0.5 0,-0.5"/>
<text text-anchor="middle" x="49" y="-7.5" font-family="Helvetica,sans-Serif" font-size="10.00">AR6/AR/icpCore.h</text>
</a>
</g>
</g>
<!-- Node16&#45;&gt;Node17 -->
<g id="edge20" class="edge"><title>Node16&#45;&gt;Node17</title>
<path fill="none" stroke="midnightblue" d="M124.54,-56.324C110.5,-47.9002 88.9515,-34.9709 72.4569,-25.0741"/>
<polygon fill="midnightblue" stroke="midnightblue" points="73.7999,-21.7983 63.4242,-19.6545 70.1984,-27.8007 73.7999,-21.7983"/>
</g>
<!-- Node18&#45;&gt;Node4 -->
<g id="edge22" class="edge"><title>Node18&#45;&gt;Node4</title>
<path fill="none" stroke="midnightblue" d="M901.484,-75.5042C900.313,-75.6736 899.15,-75.8392 898,-76 772.282,-93.5856 622.905,-109.572 548.577,-116.852"/>
<polygon fill="midnightblue" stroke="midnightblue" points="548.212,-113.371 538.597,-117.821 548.888,-120.339 548.212,-113.371"/>
</g>
<!-- Node19&#45;&gt;Node4 -->
<g id="edge25" class="edge"><title>Node19&#45;&gt;Node4</title>
<path fill="none" stroke="midnightblue" d="M580.753,-75.8339C568.699,-84.342 547.793,-97.339 530.446,-107.21"/>
<polygon fill="midnightblue" stroke="midnightblue" points="528.291,-104.404 521.254,-112.324 531.694,-110.521 528.291,-104.404"/>
</g>
<!-- Node19&#45;&gt;Node9 -->
<g id="edge24" class="edge"><title>Node19&#45;&gt;Node9</title>
<path fill="none" stroke="midnightblue" d="M583.725,-56.083C578.358,-48.4554 570.482,-37.2645 563.921,-27.9408"/>
<polygon fill="midnightblue" stroke="midnightblue" points="566.775,-25.9149 558.158,-19.7511 561.051,-29.9434 566.775,-25.9149"/>
</g>
<!-- Node20&#45;&gt;Node4 -->
<g id="edge27" class="edge"><title>Node20&#45;&gt;Node4</title>
<path fill="none" stroke="midnightblue" d="M479.986,-224.438C498.463,-217.769 519.952,-206.453 531,-188 540.462,-172.197 529.073,-152.759 517.907,-139.278"/>
<polygon fill="midnightblue" stroke="midnightblue" points="520.444,-136.864 511.171,-131.739 515.224,-141.528 520.444,-136.864"/>
</g>
<!-- Node21 -->
<g id="node21" class="node"><title>Node21</title>
<g id="a_node21"><a xlink:href="ar_filter_trans_mat_8h.html" target="_top" xlink:title="Provides filtering of transformation matrices (pose estimates). ">
<polygon fill="white" stroke="black" points="386,-168.5 386,-187.5 522,-187.5 522,-168.5 386,-168.5"/>
<text text-anchor="middle" x="454" y="-175.5" font-family="Helvetica,sans-Serif" font-size="10.00">AR6/AR/arFilterTransMat.h</text>
</a>
</g>
</g>
<!-- Node20&#45;&gt;Node21 -->
<g id="edge28" class="edge"><title>Node20&#45;&gt;Node21</title>
<path fill="none" stroke="midnightblue" d="M448.156,-224.083C449.084,-216.927 450.418,-206.635 451.577,-197.691"/>
<polygon fill="midnightblue" stroke="midnightblue" points="455.051,-198.118 452.866,-187.751 448.109,-197.218 455.051,-198.118"/>
</g>
<!-- Node22 -->
<g id="node22" class="node"><title>Node22</title>
<g id="a_node22"><a xlink:href="_a_r_trackable_appearance_8h.html" target="_top" xlink:title="AR6/ARTrackableAppearance.h">
<polygon fill="white" stroke="black" points="578,-168.5 578,-187.5 734,-187.5 734,-168.5 578,-168.5"/>
<text text-anchor="middle" x="656" y="-175.5" font-family="Helvetica,sans-Serif" font-size="10.00">AR6/ARTrackableAppearance.h</text>
</a>
</g>
</g>
<!-- Node20&#45;&gt;Node22 -->
<g id="edge30" class="edge"><title>Node20&#45;&gt;Node22</title>
<path fill="none" stroke="midnightblue" d="M480.117,-224.444C516.118,-215.142 573.77,-200.246 613.186,-190.062"/>
<polygon fill="midnightblue" stroke="midnightblue" points="614.232,-193.407 623.038,-187.516 612.481,-186.629 614.232,-193.407"/>
</g>
<!-- Node20&#45;&gt;Node24 -->
<g id="edge33" class="edge"><title>Node20&#45;&gt;Node24</title>
<path fill="none" stroke="midnightblue" d="M430.773,-224.324C414.649,-215.703 389.7,-202.364 371.036,-192.386"/>
<polygon fill="midnightblue" stroke="midnightblue" points="372.656,-189.283 362.187,-187.655 369.356,-195.456 372.656,-189.283"/>
</g>
<!-- Node21&#45;&gt;Node4 -->
<g id="edge29" class="edge"><title>Node21&#45;&gt;Node4</title>
<path fill="none" stroke="midnightblue" d="M461.926,-168.083C468.846,-160.298 479.065,-148.801 487.452,-139.367"/>
<polygon fill="midnightblue" stroke="midnightblue" points="490.194,-141.55 494.221,-131.751 484.962,-136.9 490.194,-141.55"/>
</g>
<!-- Node22&#45;&gt;Node4 -->
<g id="edge31" class="edge"><title>Node22&#45;&gt;Node4</title>
<path fill="none" stroke="midnightblue" d="M631.598,-168.444C605.803,-159.399 564.923,-145.064 535.982,-134.916"/>
<polygon fill="midnightblue" stroke="midnightblue" points="536.882,-131.523 526.288,-131.516 534.566,-138.128 536.882,-131.523"/>
</g>
<!-- Node23 -->
<g id="node23" class="node"><title>Node23</title>
<polygon fill="white" stroke="#bfbfbf" points="630,-112.5 630,-131.5 682,-131.5 682,-112.5 630,-112.5"/>
<text text-anchor="middle" x="656" y="-119.5" font-family="Helvetica,sans-Serif" font-size="10.00">memory</text>
</g>
<!-- Node22&#45;&gt;Node23 -->
<g id="edge32" class="edge"><title>Node22&#45;&gt;Node23</title>
<path fill="none" stroke="midnightblue" d="M656,-168.083C656,-161.006 656,-150.861 656,-141.986"/>
<polygon fill="midnightblue" stroke="midnightblue" points="659.5,-141.751 656,-131.751 652.5,-141.751 659.5,-141.751"/>
</g>
<!-- Node25&#45;&gt;Node3 -->
<g id="edge37" class="edge"><title>Node25&#45;&gt;Node3</title>
<path fill="none" stroke="midnightblue" d="M527.275,-280.083C532.642,-272.455 540.518,-261.264 547.079,-251.941"/>
<polygon fill="midnightblue" stroke="midnightblue" points="549.949,-253.943 552.842,-243.751 544.225,-249.915 549.949,-253.943"/>
</g>
<!-- Node25&#45;&gt;Node20 -->
<g id="edge36" class="edge"><title>Node25&#45;&gt;Node20</title>
<path fill="none" stroke="midnightblue" d="M509.111,-280.324C497.85,-272.107 480.713,-259.602 467.291,-249.807"/>
<polygon fill="midnightblue" stroke="midnightblue" points="469.247,-246.901 459.106,-243.834 465.12,-252.556 469.247,-246.901"/>
</g>
</g>
</svg>
