<?xml version="1.0" encoding="UTF-8" standalone="no"?>
<!DOCTYPE svg PUBLIC "-//W3C//DTD SVG 1.1//EN"
 "http://www.w3.org/Graphics/SVG/1.1/DTD/svg11.dtd">
<!-- Generated by graphviz version 2.38.0 (20140413.2041)
 -->
<!-- Title: /bitrise/src/Source/AR6/include/AR6/ARTrackableAppearance.h Pages: 1 -->
<svg width="997pt" height="218pt"
 viewBox="0.00 0.00 997.00 218.00" xmlns="http://www.w3.org/2000/svg" xmlns:xlink="http://www.w3.org/1999/xlink">
<g id="graph0" class="graph" transform="scale(1 1) rotate(0) translate(4 214)">
<title>/bitrise/src/Source/AR6/include/AR6/ARTrackableAppearance.h</title>
<polygon fill="white" stroke="none" points="-4,4 -4,-214 993,-214 993,4 -4,4"/>
<!-- Node1 -->
<g id="node1" class="node"><title>Node1</title>
<polygon fill="#bfbfbf" stroke="black" points="513.5,-168.5 513.5,-209.5 668.5,-209.5 668.5,-168.5 513.5,-168.5"/>
<text text-anchor="start" x="521.5" y="-197.5" font-family="Helvetica,sans-Serif" font-size="10.00">/bitrise/src/Source</text>
<text text-anchor="start" x="521.5" y="-186.5" font-family="Helvetica,sans-Serif" font-size="10.00">/AR6/include/AR6/ARTrackable</text>
<text text-anchor="middle" x="591" y="-175.5" font-family="Helvetica,sans-Serif" font-size="10.00">Appearance.h</text>
</g>
<!-- Node2 -->
<g id="node2" class="node"><title>Node2</title>
<g id="a_node2"><a xlink:href="ar_8h.html" target="_top" xlink:title="ARToolKit core routines. ">
<polygon fill="white" stroke="black" points="514.5,-112.5 514.5,-131.5 587.5,-131.5 587.5,-112.5 514.5,-112.5"/>
<text text-anchor="middle" x="551" y="-119.5" font-family="Helvetica,sans-Serif" font-size="10.00">AR6/AR/ar.h</text>
</a>
</g>
</g>
<!-- Node1&#45;&gt;Node2 -->
<g id="edge1" class="edge"><title>Node1&#45;&gt;Node2</title>
<path fill="none" stroke="midnightblue" d="M578.999,-168.498C573.456,-159.49 566.931,-148.888 561.576,-140.185"/>
<polygon fill="midnightblue" stroke="midnightblue" points="564.546,-138.335 556.325,-131.652 558.585,-142.003 564.546,-138.335"/>
</g>
<!-- Node18 -->
<g id="node18" class="node"><title>Node18</title>
<polygon fill="white" stroke="#bfbfbf" points="606,-112.5 606,-131.5 658,-131.5 658,-112.5 606,-112.5"/>
<text text-anchor="middle" x="632" y="-119.5" font-family="Helvetica,sans-Serif" font-size="10.00">memory</text>
</g>
<!-- Node1&#45;&gt;Node18 -->
<g id="edge24" class="edge"><title>Node1&#45;&gt;Node18</title>
<path fill="none" stroke="midnightblue" d="M603.301,-168.498C608.983,-159.49 615.671,-148.888 621.16,-140.185"/>
<polygon fill="midnightblue" stroke="midnightblue" points="624.167,-141.978 626.542,-131.652 618.247,-138.243 624.167,-141.978"/>
</g>
<!-- Node3 -->
<g id="node3" class="node"><title>Node3</title>
<polygon fill="white" stroke="#bfbfbf" points="116,-0.5 116,-19.5 162,-19.5 162,-0.5 116,-0.5"/>
<text text-anchor="middle" x="139" y="-7.5" font-family="Helvetica,sans-Serif" font-size="10.00">stdio.h</text>
</g>
<!-- Node2&#45;&gt;Node3 -->
<g id="edge2" class="edge"><title>Node2&#45;&gt;Node3</title>
<path fill="none" stroke="midnightblue" d="M514.286,-121.532C452.932,-121.2 326.677,-115.259 229,-76 200.414,-64.5106 172.438,-42.0279 155.455,-26.7593"/>
<polygon fill="midnightblue" stroke="midnightblue" points="157.769,-24.1323 148.046,-19.9232 153.022,-29.2769 157.769,-24.1323"/>
</g>
<!-- Node4 -->
<g id="node4" class="node"><title>Node4</title>
<polygon fill="white" stroke="#bfbfbf" points="334,-0.5 334,-19.5 382,-19.5 382,-0.5 334,-0.5"/>
<text text-anchor="middle" x="358" y="-7.5" font-family="Helvetica,sans-Serif" font-size="10.00">stdlib.h</text>
</g>
<!-- Node2&#45;&gt;Node4 -->
<g id="edge3" class="edge"><title>Node2&#45;&gt;Node4</title>
<path fill="none" stroke="midnightblue" d="M514.204,-116.135C483.061,-110.568 438.443,-99.0549 406,-76 388.719,-63.7197 375.113,-43.2863 366.866,-28.6055"/>
<polygon fill="midnightblue" stroke="midnightblue" points="369.823,-26.7125 362.033,-19.5318 363.645,-30.0033 369.823,-26.7125"/>
</g>
<!-- Node5 -->
<g id="node5" class="node"><title>Node5</title>
<polygon fill="white" stroke="#bfbfbf" points="424.5,-56.5 424.5,-75.5 473.5,-75.5 473.5,-56.5 424.5,-56.5"/>
<text text-anchor="middle" x="449" y="-63.5" font-family="Helvetica,sans-Serif" font-size="10.00">stdint.h</text>
</g>
<!-- Node2&#45;&gt;Node5 -->
<g id="edge4" class="edge"><title>Node2&#45;&gt;Node5</title>
<path fill="none" stroke="midnightblue" d="M534.612,-112.324C518.329,-103.703 493.133,-90.3643 474.284,-80.3855"/>
<polygon fill="midnightblue" stroke="midnightblue" points="475.823,-77.2402 465.347,-75.6545 472.548,-83.4267 475.823,-77.2402"/>
</g>
<!-- Node6 -->
<g id="node6" class="node"><title>Node6</title>
<polygon fill="white" stroke="#bfbfbf" points="400.5,-0.5 400.5,-19.5 449.5,-19.5 449.5,-0.5 400.5,-0.5"/>
<text text-anchor="middle" x="425" y="-7.5" font-family="Helvetica,sans-Serif" font-size="10.00">string.h</text>
</g>
<!-- Node2&#45;&gt;Node6 -->
<g id="edge5" class="edge"><title>Node2&#45;&gt;Node6</title>
<path fill="none" stroke="midnightblue" d="M514.427,-120.076C482.378,-117.089 437.501,-107.147 415,-76 405.208,-62.4458 409.892,-43.1267 415.695,-29.0748"/>
<polygon fill="midnightblue" stroke="midnightblue" points="418.902,-30.4767 419.926,-19.9314 412.55,-27.5367 418.902,-30.4767"/>
</g>
<!-- Node7 -->
<g id="node7" class="node"><title>Node7</title>
<polygon fill="white" stroke="#bfbfbf" points="549.5,-0.5 549.5,-19.5 640.5,-19.5 640.5,-0.5 549.5,-0.5"/>
<text text-anchor="middle" x="595" y="-7.5" font-family="Helvetica,sans-Serif" font-size="10.00">AR6/AR/config.h</text>
</g>
<!-- Node2&#45;&gt;Node7 -->
<g id="edge6" class="edge"><title>Node2&#45;&gt;Node7</title>
<path fill="none" stroke="midnightblue" d="M574.788,-112.499C590.721,-105.413 610.463,-93.6052 620,-76 628.503,-60.3026 618.881,-41.0891 609.212,-27.6377"/>
<polygon fill="midnightblue" stroke="midnightblue" points="611.952,-25.459 603.043,-19.7252 606.432,-29.7634 611.952,-25.459"/>
</g>
<!-- Node8 -->
<g id="node8" class="node"><title>Node8</title>
<g id="a_node8"><a xlink:href="ar_config_8h.html" target="_top" xlink:title="AR6/AR/arConfig.h">
<polygon fill="white" stroke="black" points="667.5,-56.5 667.5,-75.5 768.5,-75.5 768.5,-56.5 667.5,-56.5"/>
<text text-anchor="middle" x="718" y="-63.5" font-family="Helvetica,sans-Serif" font-size="10.00">AR6/AR/arConfig.h</text>
</a>
</g>
</g>
<!-- Node2&#45;&gt;Node8 -->
<g id="edge7" class="edge"><title>Node2&#45;&gt;Node8</title>
<path fill="none" stroke="midnightblue" d="M577.462,-112.444C605.678,-103.32 650.54,-88.8133 681.968,-78.6509"/>
<polygon fill="midnightblue" stroke="midnightblue" points="683.224,-81.9234 691.662,-75.5164 681.07,-75.263 683.224,-81.9234"/>
</g>
<!-- Node9 -->
<g id="node9" class="node"><title>Node9</title>
<g id="a_node9"><a xlink:href="log_8h.html" target="_top" xlink:title="Logging utilities. ">
<polygon fill="white" stroke="black" points="238,-56.5 238,-75.5 330,-75.5 330,-56.5 238,-56.5"/>
<text text-anchor="middle" x="284" y="-63.5" font-family="Helvetica,sans-Serif" font-size="10.00">AR6/ARUtil/log.h</text>
</a>
</g>
</g>
<!-- Node2&#45;&gt;Node9 -->
<g id="edge8" class="edge"><title>Node2&#45;&gt;Node9</title>
<path fill="none" stroke="midnightblue" d="M514.435,-113.605C468.375,-104.289 388.914,-88.2186 336.404,-77.5986"/>
<polygon fill="midnightblue" stroke="midnightblue" points="336.775,-74.1027 326.279,-75.5509 335.387,-80.9638 336.775,-74.1027"/>
</g>
<!-- Node12 -->
<g id="node12" class="node"><title>Node12</title>
<g id="a_node12"><a xlink:href="_a_r_2include_2_a_r6_2_a_r_2matrix_8h.html" target="_top" xlink:title="AR6/AR/matrix.h">
<polygon fill="white" stroke="black" points="787,-56.5 787,-75.5 879,-75.5 879,-56.5 787,-56.5"/>
<text text-anchor="middle" x="833" y="-63.5" font-family="Helvetica,sans-Serif" font-size="10.00">AR6/AR/matrix.h</text>
</a>
</g>
</g>
<!-- Node2&#45;&gt;Node12 -->
<g id="edge14" class="edge"><title>Node2&#45;&gt;Node12</title>
<path fill="none" stroke="midnightblue" d="M587.655,-113.812C590.816,-113.197 593.964,-112.586 597,-112 658.939,-100.036 730.064,-86.5017 777.902,-77.4286"/>
<polygon fill="midnightblue" stroke="midnightblue" points="778.572,-80.864 787.745,-75.5624 777.268,-73.9866 778.572,-80.864"/>
</g>
<!-- Node14 -->
<g id="node14" class="node"><title>Node14</title>
<g id="a_node14"><a xlink:href="icp_8h.html" target="_top" xlink:title="AR6/AR/icp.h">
<polygon fill="white" stroke="black" points="100.5,-56.5 100.5,-75.5 177.5,-75.5 177.5,-56.5 100.5,-56.5"/>
<text text-anchor="middle" x="139" y="-63.5" font-family="Helvetica,sans-Serif" font-size="10.00">AR6/AR/icp.h</text>
</a>
</g>
</g>
<!-- Node2&#45;&gt;Node14 -->
<g id="edge16" class="edge"><title>Node2&#45;&gt;Node14</title>
<path fill="none" stroke="midnightblue" d="M514.451,-116.843C449.749,-109.384 310.849,-92.919 194,-76 191.943,-75.7021 189.843,-75.3908 187.723,-75.0705"/>
<polygon fill="midnightblue" stroke="midnightblue" points="188.153,-71.5953 177.735,-73.5219 187.08,-78.5127 188.153,-71.5953"/>
</g>
<!-- Node16 -->
<g id="node16" class="node"><title>Node16</title>
<g id="a_node16"><a xlink:href="param_8h.html" target="_top" xlink:title="ARToolKit functions for handling calibrated camera parameters. ">
<polygon fill="white" stroke="black" points="897,-56.5 897,-75.5 989,-75.5 989,-56.5 897,-56.5"/>
<text text-anchor="middle" x="943" y="-63.5" font-family="Helvetica,sans-Serif" font-size="10.00">AR6/AR/param.h</text>
</a>
</g>
</g>
<!-- Node2&#45;&gt;Node16 -->
<g id="edge19" class="edge"><title>Node2&#45;&gt;Node16</title>
<path fill="none" stroke="midnightblue" d="M585.079,-112.477C586.061,-112.313 587.036,-112.154 588,-112 716.693,-91.476 750.004,-94.5261 879,-76 881.604,-75.626 884.275,-75.23 886.98,-74.8208"/>
<polygon fill="midnightblue" stroke="midnightblue" points="887.518,-78.2793 896.869,-73.2973 886.452,-71.3609 887.518,-78.2793"/>
</g>
<!-- Node17 -->
<g id="node17" class="node"><title>Node17</title>
<g id="a_node17"><a xlink:href="ar_image_proc_8h.html" target="_top" xlink:title="ARToolKit functions for 2D luminance image processing. ">
<polygon fill="white" stroke="black" points="491,-56.5 491,-75.5 611,-75.5 611,-56.5 491,-56.5"/>
<text text-anchor="middle" x="551" y="-63.5" font-family="Helvetica,sans-Serif" font-size="10.00">AR6/AR/arImageProc.h</text>
</a>
</g>
</g>
<!-- Node2&#45;&gt;Node17 -->
<g id="edge21" class="edge"><title>Node2&#45;&gt;Node17</title>
<path fill="none" stroke="midnightblue" d="M545.834,-112.083C544.324,-104.927 543.894,-94.6353 544.542,-85.6911"/>
<polygon fill="midnightblue" stroke="midnightblue" points="548.015,-86.1262 545.869,-75.7511 541.077,-85.2002 548.015,-86.1262"/>
</g>
<!-- Node9&#45;&gt;Node3 -->
<g id="edge9" class="edge"><title>Node9&#45;&gt;Node3</title>
<path fill="none" stroke="midnightblue" d="M261.024,-56.4435C236.843,-47.4381 198.582,-33.1891 171.354,-23.049"/>
<polygon fill="midnightblue" stroke="midnightblue" points="172.461,-19.7265 161.868,-19.5164 170.018,-26.2864 172.461,-19.7265"/>
</g>
<!-- Node9&#45;&gt;Node4 -->
<g id="edge10" class="edge"><title>Node9&#45;&gt;Node4</title>
<path fill="none" stroke="midnightblue" d="M295.889,-56.324C307.15,-48.1066 324.287,-35.6017 337.709,-25.8069"/>
<polygon fill="midnightblue" stroke="midnightblue" points="339.88,-28.5559 345.894,-19.8339 335.753,-22.9014 339.88,-28.5559"/>
</g>
<!-- Node9&#45;&gt;Node6 -->
<g id="edge11" class="edge"><title>Node9&#45;&gt;Node6</title>
<path fill="none" stroke="midnightblue" d="M306.342,-56.4435C329.753,-47.4776 366.736,-33.314 393.19,-23.1827"/>
<polygon fill="midnightblue" stroke="midnightblue" points="394.676,-26.3615 402.763,-19.5164 392.172,-19.8245 394.676,-26.3615"/>
</g>
<!-- Node10 -->
<g id="node10" class="node"><title>Node10</title>
<polygon fill="white" stroke="#bfbfbf" points="264,-0.5 264,-19.5 316,-19.5 316,-0.5 264,-0.5"/>
<text text-anchor="middle" x="290" y="-7.5" font-family="Helvetica,sans-Serif" font-size="10.00">stdarg.h</text>
</g>
<!-- Node9&#45;&gt;Node10 -->
<g id="edge12" class="edge"><title>Node9&#45;&gt;Node10</title>
<path fill="none" stroke="midnightblue" d="M284.991,-56.083C285.786,-48.9272 286.929,-38.6353 287.923,-29.6911"/>
<polygon fill="midnightblue" stroke="midnightblue" points="291.402,-30.0765 289.028,-19.7511 284.445,-29.3034 291.402,-30.0765"/>
</g>
<!-- Node11 -->
<g id="node11" class="node"><title>Node11</title>
<polygon fill="white" stroke="#bfbfbf" points="180.5,-0.5 180.5,-19.5 245.5,-19.5 245.5,-0.5 180.5,-0.5"/>
<text text-anchor="middle" x="213" y="-7.5" font-family="Helvetica,sans-Serif" font-size="10.00">sys/errno.h</text>
</g>
<!-- Node9&#45;&gt;Node11 -->
<g id="edge13" class="edge"><title>Node9&#45;&gt;Node11</title>
<path fill="none" stroke="midnightblue" d="M272.593,-56.324C261.891,-48.1849 245.659,-35.8395 232.837,-26.0874"/>
<polygon fill="midnightblue" stroke="midnightblue" points="234.693,-23.1018 224.615,-19.8339 230.456,-28.6734 234.693,-23.1018"/>
</g>
<!-- Node13 -->
<g id="node13" class="node"><title>Node13</title>
<polygon fill="white" stroke="#bfbfbf" points="809.5,-0.5 809.5,-19.5 856.5,-19.5 856.5,-0.5 809.5,-0.5"/>
<text text-anchor="middle" x="833" y="-7.5" font-family="Helvetica,sans-Serif" font-size="10.00">math.h</text>
</g>
<!-- Node12&#45;&gt;Node13 -->
<g id="edge15" class="edge"><title>Node12&#45;&gt;Node13</title>
<path fill="none" stroke="midnightblue" d="M833,-56.083C833,-49.0059 833,-38.8611 833,-29.9865"/>
<polygon fill="midnightblue" stroke="midnightblue" points="836.5,-29.751 833,-19.7511 829.5,-29.7511 836.5,-29.751"/>
</g>
<!-- Node14&#45;&gt;Node3 -->
<g id="edge17" class="edge"><title>Node14&#45;&gt;Node3</title>
<path fill="none" stroke="midnightblue" d="M139,-56.083C139,-49.0059 139,-38.8611 139,-29.9865"/>
<polygon fill="midnightblue" stroke="midnightblue" points="142.5,-29.751 139,-19.7511 135.5,-29.7511 142.5,-29.751"/>
</g>
<!-- Node15 -->
<g id="node15" class="node"><title>Node15</title>
<g id="a_node15"><a xlink:href="icp_core_8h.html" target="_top" xlink:title="AR6/AR/icpCore.h">
<polygon fill="white" stroke="black" points="0,-0.5 0,-19.5 98,-19.5 98,-0.5 0,-0.5"/>
<text text-anchor="middle" x="49" y="-7.5" font-family="Helvetica,sans-Serif" font-size="10.00">AR6/AR/icpCore.h</text>
</a>
</g>
</g>
<!-- Node14&#45;&gt;Node15 -->
<g id="edge18" class="edge"><title>Node14&#45;&gt;Node15</title>
<path fill="none" stroke="midnightblue" d="M124.54,-56.324C110.5,-47.9002 88.9515,-34.9709 72.4569,-25.0741"/>
<polygon fill="midnightblue" stroke="midnightblue" points="73.7999,-21.7983 63.4242,-19.6545 70.1984,-27.8007 73.7999,-21.7983"/>
</g>
<!-- Node16&#45;&gt;Node2 -->
<g id="edge20" class="edge"><title>Node16&#45;&gt;Node2</title>
<path fill="none" stroke="midnightblue" d="M900.19,-75.5358C899.118,-75.6938 898.054,-75.8487 897,-76 768.004,-94.5261 734.693,-91.476 606,-112 603.342,-112.424 600.603,-112.889 597.828,-113.376"/>
<polygon fill="midnightblue" stroke="midnightblue" points="596.925,-109.983 587.71,-115.212 598.174,-116.871 596.925,-109.983"/>
</g>
<!-- Node17&#45;&gt;Node2 -->
<g id="edge23" class="edge"><title>Node17&#45;&gt;Node2</title>
<path fill="none" stroke="midnightblue" d="M556.131,-75.7511C557.657,-82.8579 558.104,-93.1357 557.472,-102.101"/>
<polygon fill="midnightblue" stroke="midnightblue" points="553.993,-101.713 556.166,-112.083 560.934,-102.622 553.993,-101.713"/>
</g>
<!-- Node17&#45;&gt;Node7 -->
<g id="edge22" class="edge"><title>Node17&#45;&gt;Node7</title>
<path fill="none" stroke="midnightblue" d="M558.266,-56.083C564.545,-48.3768 573.788,-37.0333 581.431,-27.6531"/>
<polygon fill="midnightblue" stroke="midnightblue" points="584.266,-29.7143 587.869,-19.7511 578.839,-25.2926 584.266,-29.7143"/>
</g>
</g>
</svg>
