<?xml version="1.0" encoding="UTF-8" standalone="no"?>
<!DOCTYPE svg PUBLIC "-//W3C//DTD SVG 1.1//EN"
 "http://www.w3.org/Graphics/SVG/1.1/DTD/svg11.dtd">
<!-- Generated by graphviz version 2.38.0 (20140413.2041)
 -->
<!-- Title: /bitrise/src/Source/AR6/InstantOn/include/AR6/InstantOn/extensions/Vision4d&#45;InstantOn.h Pages: 1 -->
<svg width="1034pt" height="508pt"
 viewBox="0.00 0.00 1033.59 508.00" xmlns="http://www.w3.org/2000/svg" xmlns:xlink="http://www.w3.org/1999/xlink">
<g id="graph0" class="graph" transform="scale(1 1) rotate(0) translate(4 504)">
<title>/bitrise/src/Source/AR6/InstantOn/include/AR6/InstantOn/extensions/Vision4d&#45;InstantOn.h</title>
<polygon fill="white" stroke="none" points="-4,4 -4,-504 1029.59,-504 1029.59,4 -4,4"/>
<!-- Node1 -->
<g id="node1" class="node"><title>Node1</title>
<polygon fill="#bfbfbf" stroke="black" points="412.508,-447.5 412.508,-499.5 547.508,-499.5 547.508,-447.5 412.508,-447.5"/>
<text text-anchor="start" x="420.508" y="-487.5" font-family="Helvetica,sans-Serif" font-size="10.00">/bitrise/src/Source</text>
<text text-anchor="start" x="420.508" y="-476.5" font-family="Helvetica,sans-Serif" font-size="10.00">/AR6/InstantOn/include</text>
<text text-anchor="start" x="420.508" y="-465.5" font-family="Helvetica,sans-Serif" font-size="10.00">/AR6/InstantOn/extensions</text>
<text text-anchor="middle" x="480.008" y="-454.5" font-family="Helvetica,sans-Serif" font-size="10.00">/Vision4d&#45;InstantOn.h</text>
</g>
<!-- Node2 -->
<g id="node2" class="node"><title>Node2</title>
<g id="a_node2"><a xlink:href="camera__listener__base_8h.html" target="_top" xlink:title="camera_listener_base.h">
<polygon fill="white" stroke="black" points="279.008,-391.5 279.008,-410.5 399.008,-410.5 399.008,-391.5 279.008,-391.5"/>
<text text-anchor="middle" x="339.008" y="-398.5" font-family="Helvetica,sans-Serif" font-size="10.00">camera_listener_base.h</text>
</a>
</g>
</g>
<!-- Node1&#45;&gt;Node2 -->
<g id="edge1" class="edge"><title>Node1&#45;&gt;Node2</title>
<path fill="none" stroke="midnightblue" d="M429.9,-447.446C408.127,-436.56 383.516,-424.254 365.399,-415.196"/>
<polygon fill="midnightblue" stroke="midnightblue" points="366.572,-411.869 356.062,-410.527 363.441,-418.13 366.572,-411.869"/>
</g>
<!-- Node33 -->
<g id="node33" class="node"><title>Node33</title>
<g id="a_node33"><a xlink:href="attitude__listener__base_8h.html" target="_top" xlink:title="attitude_listener_base.h">
<polygon fill="white" stroke="black" points="420.008,-391.5 420.008,-410.5 540.008,-410.5 540.008,-391.5 420.008,-391.5"/>
<text text-anchor="middle" x="480.008" y="-398.5" font-family="Helvetica,sans-Serif" font-size="10.00">attitude_listener_base.h</text>
</a>
</g>
</g>
<!-- Node1&#45;&gt;Node33 -->
<g id="edge50" class="edge"><title>Node1&#45;&gt;Node33</title>
<path fill="none" stroke="midnightblue" d="M480.008,-447.446C480.008,-438.73 480.008,-429.104 480.008,-420.964"/>
<polygon fill="midnightblue" stroke="midnightblue" points="483.509,-420.695 480.008,-410.695 476.509,-420.696 483.509,-420.695"/>
</g>
<!-- Node35 -->
<g id="node35" class="node"><title>Node35</title>
<g id="a_node35"><a xlink:href="pose__sample_8h.html" target="_top" xlink:title="pose_sample.h">
<polygon fill="white" stroke="black" points="671.508,-330 671.508,-349 754.508,-349 754.508,-330 671.508,-330"/>
<text text-anchor="middle" x="713.008" y="-337" font-family="Helvetica,sans-Serif" font-size="10.00">pose_sample.h</text>
</a>
</g>
</g>
<!-- Node1&#45;&gt;Node35 -->
<g id="edge55" class="edge"><title>Node1&#45;&gt;Node35</title>
<path fill="none" stroke="midnightblue" d="M524.382,-447.361C573.314,-419.64 650.234,-376.063 688.989,-354.107"/>
<polygon fill="midnightblue" stroke="midnightblue" points="691.004,-356.989 697.98,-349.014 687.554,-350.898 691.004,-356.989"/>
</g>
<!-- Node3 -->
<g id="node3" class="node"><title>Node3</title>
<polygon fill="white" stroke="#bfbfbf" points="91.0085,-330 91.0085,-349 137.008,-349 137.008,-330 91.0085,-330"/>
<text text-anchor="middle" x="114.008" y="-337" font-family="Helvetica,sans-Serif" font-size="10.00">cstdint</text>
</g>
<!-- Node2&#45;&gt;Node3 -->
<g id="edge2" class="edge"><title>Node2&#45;&gt;Node3</title>
<path fill="none" stroke="midnightblue" d="M290.687,-391.47C251.198,-383.851 194.226,-371.368 146.008,-355 144.341,-354.434 142.642,-353.811 140.941,-353.151"/>
<polygon fill="midnightblue" stroke="midnightblue" points="141.937,-349.773 131.363,-349.111 139.216,-356.223 141.937,-349.773"/>
</g>
<!-- Node4 -->
<g id="node4" class="node"><title>Node4</title>
<g id="a_node4"><a xlink:href="sample_8h.html" target="_top" xlink:title="AR6/InstantOn/framework\l/sample.h">
<polygon fill="white" stroke="black" points="515.508,-257.5 515.508,-287.5 646.508,-287.5 646.508,-257.5 515.508,-257.5"/>
<text text-anchor="start" x="523.508" y="-275.5" font-family="Helvetica,sans-Serif" font-size="10.00">AR6/InstantOn/framework</text>
<text text-anchor="middle" x="581.008" y="-264.5" font-family="Helvetica,sans-Serif" font-size="10.00">/sample.h</text>
</a>
</g>
</g>
<!-- Node2&#45;&gt;Node4 -->
<g id="edge3" class="edge"><title>Node2&#45;&gt;Node4</title>
<path fill="none" stroke="midnightblue" d="M355.642,-391.305C394.426,-371.032 491.589,-320.242 544.792,-292.431"/>
<polygon fill="midnightblue" stroke="midnightblue" points="546.637,-295.416 553.878,-287.682 543.394,-289.213 546.637,-295.416"/>
</g>
<!-- Node21 -->
<g id="node21" class="node"><title>Node21</title>
<g id="a_node21"><a xlink:href="listener__base_8h.html" target="_top" xlink:title="AR6/InstantOn/framework\l/listener_base.h">
<polygon fill="white" stroke="black" points="273.508,-257.5 273.508,-287.5 404.508,-287.5 404.508,-257.5 273.508,-257.5"/>
<text text-anchor="start" x="281.508" y="-275.5" font-family="Helvetica,sans-Serif" font-size="10.00">AR6/InstantOn/framework</text>
<text text-anchor="middle" x="339.008" y="-264.5" font-family="Helvetica,sans-Serif" font-size="10.00">/listener_base.h</text>
</a>
</g>
</g>
<!-- Node2&#45;&gt;Node21 -->
<g id="edge27" class="edge"><title>Node2&#45;&gt;Node21</title>
<path fill="none" stroke="midnightblue" d="M339.008,-391.305C339.008,-372.298 339.008,-326.47 339.008,-297.9"/>
<polygon fill="midnightblue" stroke="midnightblue" points="342.509,-297.888 339.008,-287.888 335.509,-297.888 342.509,-297.888"/>
</g>
<!-- Node30 -->
<g id="node30" class="node"><title>Node30</title>
<g id="a_node30"><a xlink:href="image__sample_8h.html" target="_top" xlink:title="AR6/InstantOn/extensions\l/image_sample.h">
<polygon fill="white" stroke="black" points="155.008,-324.5 155.008,-354.5 287.008,-354.5 287.008,-324.5 155.008,-324.5"/>
<text text-anchor="start" x="163.008" y="-342.5" font-family="Helvetica,sans-Serif" font-size="10.00">AR6/InstantOn/extensions</text>
<text text-anchor="middle" x="221.008" y="-331.5" font-family="Helvetica,sans-Serif" font-size="10.00">/image_sample.h</text>
</a>
</g>
</g>
<!-- Node2&#45;&gt;Node30 -->
<g id="edge38" class="edge"><title>Node2&#45;&gt;Node30</title>
<path fill="none" stroke="midnightblue" d="M322.102,-391.475C305.448,-383.078 279.459,-369.973 258.002,-359.153"/>
<polygon fill="midnightblue" stroke="midnightblue" points="259.324,-355.9 248.819,-354.523 256.172,-362.151 259.324,-355.9"/>
</g>
<!-- Node5 -->
<g id="node5" class="node"><title>Node5</title>
<g id="a_node5"><a xlink:href="stream_8h.html" target="_top" xlink:title="stream.h">
<polygon fill="white" stroke="black" points="641.508,-201.5 641.508,-220.5 696.508,-220.5 696.508,-201.5 641.508,-201.5"/>
<text text-anchor="middle" x="669.008" y="-208.5" font-family="Helvetica,sans-Serif" font-size="10.00">stream.h</text>
</a>
</g>
</g>
<!-- Node4&#45;&gt;Node5 -->
<g id="edge4" class="edge"><title>Node4&#45;&gt;Node5</title>
<path fill="none" stroke="midnightblue" d="M601.863,-257.399C615.705,-248.04 633.82,-235.792 647.745,-226.377"/>
<polygon fill="midnightblue" stroke="midnightblue" points="649.88,-229.158 656.204,-220.658 645.959,-223.36 649.88,-229.158"/>
</g>
<!-- Node16 -->
<g id="node16" class="node"><title>Node16</title>
<polygon fill="white" stroke="#bfbfbf" points="285.008,-6 285.008,-25 337.008,-25 337.008,-6 285.008,-6"/>
<text text-anchor="middle" x="311.008" y="-13" font-family="Helvetica,sans-Serif" font-size="10.00">memory</text>
</g>
<!-- Node4&#45;&gt;Node16 -->
<g id="edge26" class="edge"><title>Node4&#45;&gt;Node16</title>
<path fill="none" stroke="midnightblue" d="M570.127,-257.397C562.791,-247.526 553.181,-233.855 546.008,-221 525.45,-184.153 534.819,-166.582 508.008,-134 490.148,-112.295 478.361,-115.044 456.008,-98 438.949,-84.9917 437.1,-78.5297 419.008,-67 394.832,-51.5928 365.203,-38.075 343.098,-28.9122"/>
<polygon fill="midnightblue" stroke="midnightblue" points="344.403,-25.6644 333.821,-25.1384 341.765,-32.1485 344.403,-25.6644"/>
</g>
<!-- Node20 -->
<g id="node20" class="node"><title>Node20</title>
<g id="a_node20"><a xlink:href="date__time_8h.html" target="_top" xlink:title="date_time.h">
<polygon fill="white" stroke="black" points="555.008,-201.5 555.008,-220.5 623.008,-220.5 623.008,-201.5 555.008,-201.5"/>
<text text-anchor="middle" x="589.008" y="-208.5" font-family="Helvetica,sans-Serif" font-size="10.00">date_time.h</text>
</a>
</g>
</g>
<!-- Node4&#45;&gt;Node20 -->
<g id="edge24" class="edge"><title>Node4&#45;&gt;Node20</title>
<path fill="none" stroke="midnightblue" d="M582.904,-257.399C583.983,-249.377 585.347,-239.233 586.512,-230.569"/>
<polygon fill="midnightblue" stroke="midnightblue" points="589.981,-231.035 587.844,-220.658 583.043,-230.102 589.981,-231.035"/>
</g>
<!-- Node6 -->
<g id="node6" class="node"><title>Node6</title>
<polygon fill="white" stroke="#bfbfbf" points="450.008,-0.5 450.008,-30.5 552.008,-30.5 552.008,-0.5 450.008,-0.5"/>
<text text-anchor="start" x="458.008" y="-18.5" font-family="Helvetica,sans-Serif" font-size="10.00">artvision/framework</text>
<text text-anchor="middle" x="501.008" y="-7.5" font-family="Helvetica,sans-Serif" font-size="10.00">/error.h</text>
</g>
<!-- Node5&#45;&gt;Node6 -->
<g id="edge5" class="edge"><title>Node5&#45;&gt;Node6</title>
<path fill="none" stroke="midnightblue" d="M667.626,-201.466C664.769,-186.249 656.919,-154.14 639.008,-134 616.545,-108.739 598.429,-119.087 572.008,-98 550.526,-80.8545 530.384,-56.6495 517.081,-39.0756"/>
<polygon fill="midnightblue" stroke="midnightblue" points="519.541,-36.516 510.777,-30.5626 513.915,-40.6819 519.541,-36.516"/>
</g>
<!-- Node7 -->
<g id="node7" class="node"><title>Node7</title>
<g id="a_node7"><a xlink:href="linear__algebra_8h.html" target="_top" xlink:title="AR6/InstantOn/math\l/linear_algebra.h">
<polygon fill="white" stroke="black" points="701.508,-134.5 701.508,-164.5 808.508,-164.5 808.508,-134.5 701.508,-134.5"/>
<text text-anchor="start" x="709.508" y="-152.5" font-family="Helvetica,sans-Serif" font-size="10.00">AR6/InstantOn/math</text>
<text text-anchor="middle" x="755.008" y="-141.5" font-family="Helvetica,sans-Serif" font-size="10.00">/linear_algebra.h</text>
</a>
</g>
</g>
<!-- Node5&#45;&gt;Node7 -->
<g id="edge6" class="edge"><title>Node5&#45;&gt;Node7</title>
<path fill="none" stroke="midnightblue" d="M681.33,-201.475C692.978,-193.417 710.891,-181.023 726.138,-170.474"/>
<polygon fill="midnightblue" stroke="midnightblue" points="728.508,-173.091 734.74,-164.523 724.525,-167.334 728.508,-173.091"/>
</g>
<!-- Node15 -->
<g id="node15" class="node"><title>Node15</title>
<g id="a_node15"><a xlink:href="indexing_8h.html" target="_top" xlink:title="indexing.h">
<polygon fill="white" stroke="black" points="905.508,-73 905.508,-92 966.508,-92 966.508,-73 905.508,-73"/>
<text text-anchor="middle" x="936.008" y="-80" font-family="Helvetica,sans-Serif" font-size="10.00">indexing.h</text>
</a>
</g>
</g>
<!-- Node5&#45;&gt;Node15 -->
<g id="edge21" class="edge"><title>Node5&#45;&gt;Node15</title>
<path fill="none" stroke="midnightblue" d="M696.6,-204.381C727.248,-197.529 777.717,-184.407 818.008,-165 856.227,-146.591 895.842,-116.585 918.066,-98.5731"/>
<polygon fill="midnightblue" stroke="midnightblue" points="920.45,-101.144 925.952,-92.0895 916.005,-95.7364 920.45,-101.144"/>
</g>
<!-- Node5&#45;&gt;Node16 -->
<g id="edge23" class="edge"><title>Node5&#45;&gt;Node16</title>
<path fill="none" stroke="midnightblue" d="M663.67,-201.369C653.786,-185.997 631.237,-153.652 605.008,-134 562.348,-102.035 415.561,-51.0567 346.922,-28.2256"/>
<polygon fill="midnightblue" stroke="midnightblue" points="347.977,-24.8881 337.384,-25.0669 345.777,-31.5332 347.977,-24.8881"/>
</g>
<!-- Node19 -->
<g id="node19" class="node"><title>Node19</title>
<polygon fill="white" stroke="#bfbfbf" points="555.508,-140 555.508,-159 596.508,-159 596.508,-140 555.508,-140"/>
<text text-anchor="middle" x="576.008" y="-147" font-family="Helvetica,sans-Serif" font-size="10.00">string</text>
</g>
<!-- Node5&#45;&gt;Node19 -->
<g id="edge22" class="edge"><title>Node5&#45;&gt;Node19</title>
<path fill="none" stroke="midnightblue" d="M655.684,-201.475C640.629,-191.843 615.893,-176.017 597.972,-164.552"/>
<polygon fill="midnightblue" stroke="midnightblue" points="599.618,-161.45 589.308,-159.009 595.846,-167.347 599.618,-161.45"/>
</g>
<!-- Node8 -->
<g id="node8" class="node"><title>Node8</title>
<g id="a_node8"><a xlink:href="math__utils_8h.html" target="_top" xlink:title="math_utils.h">
<polygon fill="white" stroke="black" points="581.008,-73 581.008,-92 651.008,-92 651.008,-73 581.008,-73"/>
<text text-anchor="middle" x="616.008" y="-80" font-family="Helvetica,sans-Serif" font-size="10.00">math_utils.h</text>
</a>
</g>
</g>
<!-- Node7&#45;&gt;Node8 -->
<g id="edge7" class="edge"><title>Node7&#45;&gt;Node8</title>
<path fill="none" stroke="midnightblue" d="M724.848,-134.396C700.566,-123.041 666.733,-107.22 643.26,-96.2437"/>
<polygon fill="midnightblue" stroke="midnightblue" points="644.741,-93.0726 634.2,-92.007 641.776,-99.4135 644.741,-93.0726"/>
</g>
<!-- Node10 -->
<g id="node10" class="node"><title>Node10</title>
<g id="a_node10"><a xlink:href="_instant_on_2include_2_a_r6_2_instant_on_2math_2matrix_8h.html" target="_top" xlink:title="matrix.h">
<polygon fill="white" stroke="black" points="669.008,-73 669.008,-92 721.008,-92 721.008,-73 669.008,-73"/>
<text text-anchor="middle" x="695.008" y="-80" font-family="Helvetica,sans-Serif" font-size="10.00">matrix.h</text>
</a>
</g>
</g>
<!-- Node7&#45;&gt;Node10 -->
<g id="edge10" class="edge"><title>Node7&#45;&gt;Node10</title>
<path fill="none" stroke="midnightblue" d="M741.989,-134.396C732.541,-124.161 719.743,-110.296 709.89,-99.622"/>
<polygon fill="midnightblue" stroke="midnightblue" points="712.389,-97.1686 703.034,-92.1945 707.245,-101.917 712.389,-97.1686"/>
</g>
<!-- Node11 -->
<g id="node11" class="node"><title>Node11</title>
<g id="a_node11"><a xlink:href="vector_8h.html" target="_top" xlink:title="vector.h">
<polygon fill="white" stroke="black" points="721.008,-6 721.008,-25 773.008,-25 773.008,-6 721.008,-6"/>
<text text-anchor="middle" x="747.008" y="-13" font-family="Helvetica,sans-Serif" font-size="10.00">vector.h</text>
</a>
</g>
</g>
<!-- Node7&#45;&gt;Node11 -->
<g id="edge14" class="edge"><title>Node7&#45;&gt;Node11</title>
<path fill="none" stroke="midnightblue" d="M808.693,-135.039C827.63,-127.429 846.945,-115.745 858.008,-98 865.297,-86.3083 865.466,-78.5853 858.008,-67 841.62,-41.5398 808.9,-28.7657 783.211,-22.4494"/>
<polygon fill="midnightblue" stroke="midnightblue" points="783.929,-19.0237 773.407,-20.2609 782.404,-25.8556 783.929,-19.0237"/>
</g>
<!-- Node13 -->
<g id="node13" class="node"><title>Node13</title>
<polygon fill="white" stroke="#bfbfbf" points="739.008,-73 739.008,-92 791.008,-92 791.008,-73 739.008,-73"/>
<text text-anchor="middle" x="765.008" y="-80" font-family="Helvetica,sans-Serif" font-size="10.00">assert.h</text>
</g>
<!-- Node7&#45;&gt;Node13 -->
<g id="edge15" class="edge"><title>Node7&#45;&gt;Node13</title>
<path fill="none" stroke="midnightblue" d="M757.178,-134.396C758.629,-124.963 760.555,-112.448 762.133,-102.189"/>
<polygon fill="midnightblue" stroke="midnightblue" points="765.609,-102.61 763.671,-92.1945 758.691,-101.546 765.609,-102.61"/>
</g>
<!-- Node14 -->
<g id="node14" class="node"><title>Node14</title>
<polygon fill="white" stroke="#bfbfbf" points="809.008,-73 809.008,-92 849.008,-92 849.008,-73 809.008,-73"/>
<text text-anchor="middle" x="829.008" y="-80" font-family="Helvetica,sans-Serif" font-size="10.00">limits</text>
</g>
<!-- Node7&#45;&gt;Node14 -->
<g id="edge16" class="edge"><title>Node7&#45;&gt;Node14</title>
<path fill="none" stroke="midnightblue" d="M771.065,-134.396C782.946,-123.96 799.123,-109.751 811.365,-98.9978"/>
<polygon fill="midnightblue" stroke="midnightblue" points="813.907,-101.424 819.11,-92.1945 809.287,-96.1644 813.907,-101.424"/>
</g>
<!-- Node7&#45;&gt;Node15 -->
<g id="edge17" class="edge"><title>Node7&#45;&gt;Node15</title>
<path fill="none" stroke="midnightblue" d="M794.283,-134.396C826.603,-122.789 871.921,-106.515 902.54,-95.5192"/>
<polygon fill="midnightblue" stroke="midnightblue" points="904.091,-98.6809 912.32,-92.007 901.725,-92.0929 904.091,-98.6809"/>
</g>
<!-- Node8&#45;&gt;Node6 -->
<g id="edge9" class="edge"><title>Node8&#45;&gt;Node6</title>
<path fill="none" stroke="midnightblue" d="M600.499,-72.7338C583.762,-63.2736 556.587,-47.9142 534.865,-35.6362"/>
<polygon fill="midnightblue" stroke="midnightblue" points="536.363,-32.4627 525.935,-30.589 532.919,-38.5566 536.363,-32.4627"/>
</g>
<!-- Node9 -->
<g id="node9" class="node"><title>Node9</title>
<polygon fill="white" stroke="#bfbfbf" points="594.008,-6 594.008,-25 638.008,-25 638.008,-6 594.008,-6"/>
<text text-anchor="middle" x="616.008" y="-13" font-family="Helvetica,sans-Serif" font-size="10.00">cmath</text>
</g>
<!-- Node8&#45;&gt;Node9 -->
<g id="edge8" class="edge"><title>Node8&#45;&gt;Node9</title>
<path fill="none" stroke="midnightblue" d="M616.008,-72.7338C616.008,-63.1826 616.008,-47.6183 616.008,-35.2829"/>
<polygon fill="midnightblue" stroke="midnightblue" points="619.509,-35.1273 616.008,-25.1273 612.509,-35.1273 619.509,-35.1273"/>
</g>
<!-- Node10&#45;&gt;Node6 -->
<g id="edge11" class="edge"><title>Node10&#45;&gt;Node6</title>
<path fill="none" stroke="midnightblue" d="M675.134,-72.9224C670.222,-70.8979 664.951,-68.805 660.008,-67 626.745,-54.8523 588.986,-42.7887 558.613,-33.5"/>
<polygon fill="midnightblue" stroke="midnightblue" points="559.612,-30.1456 549.026,-30.585 557.576,-36.8429 559.612,-30.1456"/>
</g>
<!-- Node10&#45;&gt;Node11 -->
<g id="edge12" class="edge"><title>Node10&#45;&gt;Node11</title>
<path fill="none" stroke="midnightblue" d="M702.021,-72.7338C710.13,-62.5979 723.656,-45.6899 733.764,-33.0556"/>
<polygon fill="midnightblue" stroke="midnightblue" points="736.593,-35.1225 740.107,-25.1273 731.127,-30.7496 736.593,-35.1225"/>
</g>
<!-- Node12 -->
<g id="node12" class="node"><title>Node12</title>
<polygon fill="white" stroke="#bfbfbf" points="911.008,-6 911.008,-25 955.008,-25 955.008,-6 911.008,-6"/>
<text text-anchor="middle" x="933.008" y="-13" font-family="Helvetica,sans-Serif" font-size="10.00">vector</text>
</g>
<!-- Node10&#45;&gt;Node12 -->
<g id="edge13" class="edge"><title>Node10&#45;&gt;Node12</title>
<path fill="none" stroke="midnightblue" d="M714.028,-72.8668C719.147,-70.7519 724.73,-68.6303 730.008,-67 804.632,-43.9538 827.92,-55.71 902.008,-31 903.675,-30.4443 905.37,-29.8235 907.064,-29.1602"/>
<polygon fill="midnightblue" stroke="midnightblue" points="908.776,-32.233 916.566,-25.0516 905.998,-25.808 908.776,-32.233"/>
</g>
<!-- Node15&#45;&gt;Node16 -->
<g id="edge18" class="edge"><title>Node15&#45;&gt;Node16</title>
<path fill="none" stroke="midnightblue" d="M905.372,-75.0889C891.038,-72.2737 873.704,-69.1312 858.008,-67 673.677,-41.9708 626.128,-49.3118 441.008,-31 409.427,-27.876 373.587,-23.8418 347.548,-20.8221"/>
<polygon fill="midnightblue" stroke="midnightblue" points="347.718,-17.3184 337.38,-19.6368 346.908,-24.2713 347.718,-17.3184"/>
</g>
<!-- Node17 -->
<g id="node17" class="node"><title>Node17</title>
<polygon fill="white" stroke="#bfbfbf" points="973.508,-6 973.508,-25 1022.51,-25 1022.51,-6 973.508,-6"/>
<text text-anchor="middle" x="998.008" y="-13" font-family="Helvetica,sans-Serif" font-size="10.00">cstddef</text>
</g>
<!-- Node15&#45;&gt;Node17 -->
<g id="edge19" class="edge"><title>Node15&#45;&gt;Node17</title>
<path fill="none" stroke="midnightblue" d="M944.37,-72.7338C954.131,-62.5004 970.476,-45.3642 982.563,-32.6924"/>
<polygon fill="midnightblue" stroke="midnightblue" points="985.41,-34.7792 989.779,-25.1273 980.345,-29.9477 985.41,-34.7792"/>
</g>
<!-- Node18 -->
<g id="node18" class="node"><title>Node18</title>
<polygon fill="white" stroke="#bfbfbf" points="843.508,-6 843.508,-25 892.508,-25 892.508,-6 843.508,-6"/>
<text text-anchor="middle" x="868.008" y="-13" font-family="Helvetica,sans-Serif" font-size="10.00">string.h</text>
</g>
<!-- Node15&#45;&gt;Node18 -->
<g id="edge20" class="edge"><title>Node15&#45;&gt;Node18</title>
<path fill="none" stroke="midnightblue" d="M926.838,-72.7338C916.03,-62.403 897.863,-45.0371 884.571,-32.3315"/>
<polygon fill="midnightblue" stroke="midnightblue" points="886.681,-29.5071 877.034,-25.1273 881.844,-34.5672 886.681,-29.5071"/>
</g>
<!-- Node20&#45;&gt;Node19 -->
<g id="edge25" class="edge"><title>Node20&#45;&gt;Node19</title>
<path fill="none" stroke="midnightblue" d="M587.146,-201.475C585.292,-192.992 582.389,-179.704 580.012,-168.822"/>
<polygon fill="midnightblue" stroke="midnightblue" points="583.422,-168.032 577.868,-159.009 576.583,-169.526 583.422,-168.032"/>
</g>
<!-- Node22 -->
<g id="node22" class="node"><title>Node22</title>
<g id="a_node22"><a xlink:href="thread_8h.html" target="_top" xlink:title="thread.h">
<polygon fill="white" stroke="black" points="387.008,-201.5 387.008,-220.5 439.008,-220.5 439.008,-201.5 387.008,-201.5"/>
<text text-anchor="middle" x="413.008" y="-208.5" font-family="Helvetica,sans-Serif" font-size="10.00">thread.h</text>
</a>
</g>
</g>
<!-- Node21&#45;&gt;Node22 -->
<g id="edge28" class="edge"><title>Node21&#45;&gt;Node22</title>
<path fill="none" stroke="midnightblue" d="M356.545,-257.399C367.853,-248.308 382.55,-236.49 394.116,-227.191"/>
<polygon fill="midnightblue" stroke="midnightblue" points="396.641,-229.652 402.241,-220.658 392.254,-224.196 396.641,-229.652"/>
</g>
<!-- Node25 -->
<g id="node25" class="node"><title>Node25</title>
<g id="a_node25"><a xlink:href="synchronization_8h.html" target="_top" xlink:title="synchronization.h">
<polygon fill="white" stroke="black" points="256.508,-73 256.508,-92 349.508,-92 349.508,-73 256.508,-73"/>
<text text-anchor="middle" x="303.008" y="-80" font-family="Helvetica,sans-Serif" font-size="10.00">synchronization.h</text>
</a>
</g>
</g>
<!-- Node21&#45;&gt;Node25 -->
<g id="edge31" class="edge"><title>Node21&#45;&gt;Node25</title>
<path fill="none" stroke="midnightblue" d="M309.491,-257.498C294.744,-248.99 277.964,-236.718 268.008,-221 247.182,-188.12 244.154,-170.372 258.008,-134 263.233,-120.282 274.085,-107.921 283.822,-98.8615"/>
<polygon fill="midnightblue" stroke="midnightblue" points="286.365,-101.287 291.592,-92.0711 281.759,-96.0165 286.365,-101.287"/>
</g>
<!-- Node27 -->
<g id="node27" class="node"><title>Node27</title>
<g id="a_node27"><a xlink:href="lockfree__queue_8h.html" target="_top" xlink:title="lockfree_queue.h">
<polygon fill="white" stroke="black" points="277.508,-201.5 277.508,-220.5 368.508,-220.5 368.508,-201.5 277.508,-201.5"/>
<text text-anchor="middle" x="323.008" y="-208.5" font-family="Helvetica,sans-Serif" font-size="10.00">lockfree_queue.h</text>
</a>
</g>
</g>
<!-- Node21&#45;&gt;Node27 -->
<g id="edge33" class="edge"><title>Node21&#45;&gt;Node27</title>
<path fill="none" stroke="midnightblue" d="M335.217,-257.399C333.059,-249.377 330.332,-239.233 328.002,-230.569"/>
<polygon fill="midnightblue" stroke="midnightblue" points="331.313,-229.406 325.337,-220.658 324.554,-231.224 331.313,-229.406"/>
</g>
<!-- Node23 -->
<g id="node23" class="node"><title>Node23</title>
<polygon fill="white" stroke="#bfbfbf" points="453.008,-140 453.008,-159 499.008,-159 499.008,-140 453.008,-140"/>
<text text-anchor="middle" x="476.008" y="-147" font-family="Helvetica,sans-Serif" font-size="10.00">atomic</text>
</g>
<!-- Node22&#45;&gt;Node23 -->
<g id="edge29" class="edge"><title>Node22&#45;&gt;Node23</title>
<path fill="none" stroke="midnightblue" d="M422.035,-201.475C431.766,-192.285 447.466,-177.456 459.431,-166.156"/>
<polygon fill="midnightblue" stroke="midnightblue" points="462.132,-168.42 466.999,-159.009 457.325,-163.331 462.132,-168.42"/>
</g>
<!-- Node24 -->
<g id="node24" class="node"><title>Node24</title>
<polygon fill="white" stroke="#bfbfbf" points="375.508,-140 375.508,-159 434.508,-159 434.508,-140 375.508,-140"/>
<text text-anchor="middle" x="405.008" y="-147" font-family="Helvetica,sans-Serif" font-size="10.00">stdexcept</text>
</g>
<!-- Node22&#45;&gt;Node24 -->
<g id="edge30" class="edge"><title>Node22&#45;&gt;Node24</title>
<path fill="none" stroke="midnightblue" d="M411.862,-201.475C410.734,-193.08 408.972,-179.981 407.518,-169.163"/>
<polygon fill="midnightblue" stroke="midnightblue" points="410.954,-168.453 406.153,-159.009 404.016,-169.386 410.954,-168.453"/>
</g>
<!-- Node26 -->
<g id="node26" class="node"><title>Node26</title>
<polygon fill="white" stroke="#bfbfbf" points="45.0085,-0.5 45.0085,-30.5 147.008,-30.5 147.008,-0.5 45.0085,-0.5"/>
<text text-anchor="start" x="53.0085" y="-18.5" font-family="Helvetica,sans-Serif" font-size="10.00">artvision/framework</text>
<text text-anchor="middle" x="96.0085" y="-7.5" font-family="Helvetica,sans-Serif" font-size="10.00">/exception.h</text>
</g>
<!-- Node25&#45;&gt;Node26 -->
<g id="edge32" class="edge"><title>Node25&#45;&gt;Node26</title>
<path fill="none" stroke="midnightblue" d="M275.52,-72.8685C243.72,-62.8828 190.582,-46.1971 150.351,-33.5642"/>
<polygon fill="midnightblue" stroke="midnightblue" points="151.272,-30.1848 140.682,-30.5281 149.175,-36.8632 151.272,-30.1848"/>
</g>
<!-- Node27&#45;&gt;Node6 -->
<g id="edge34" class="edge"><title>Node27&#45;&gt;Node6</title>
<path fill="none" stroke="midnightblue" d="M326.411,-201.198C332.559,-186.122 346.696,-154.96 366.008,-134 385.304,-113.058 397.038,-116.115 419.008,-98 441.633,-79.3459 465.14,-55.4403 481.154,-38.3523"/>
<polygon fill="midnightblue" stroke="midnightblue" points="484.144,-40.2763 488.377,-30.5641 479.011,-35.5163 484.144,-40.2763"/>
</g>
<!-- Node28 -->
<g id="node28" class="node"><title>Node28</title>
<g id="a_node28"><a xlink:href="queue_8h.html" target="_top" xlink:title="queue.h">
<polygon fill="white" stroke="black" points="267.508,-140 267.508,-159 318.508,-159 318.508,-140 267.508,-140"/>
<text text-anchor="middle" x="293.008" y="-147" font-family="Helvetica,sans-Serif" font-size="10.00">queue.h</text>
</a>
</g>
</g>
<!-- Node27&#45;&gt;Node28 -->
<g id="edge35" class="edge"><title>Node27&#45;&gt;Node28</title>
<path fill="none" stroke="midnightblue" d="M318.71,-201.475C314.344,-192.815 307.453,-179.149 301.905,-168.145"/>
<polygon fill="midnightblue" stroke="midnightblue" points="304.926,-166.363 297.299,-159.009 298.676,-169.514 304.926,-166.363"/>
</g>
<!-- Node28&#45;&gt;Node25 -->
<g id="edge37" class="edge"><title>Node28&#45;&gt;Node25</title>
<path fill="none" stroke="midnightblue" d="M294.357,-139.734C295.827,-130.183 298.221,-114.618 300.119,-102.283"/>
<polygon fill="midnightblue" stroke="midnightblue" points="303.62,-102.543 301.681,-92.1273 296.701,-101.479 303.62,-102.543"/>
</g>
<!-- Node29 -->
<g id="node29" class="node"><title>Node29</title>
<polygon fill="white" stroke="#bfbfbf" points="367.508,-73 367.508,-92 410.508,-92 410.508,-73 367.508,-73"/>
<text text-anchor="middle" x="389.008" y="-80" font-family="Helvetica,sans-Serif" font-size="10.00">queue</text>
</g>
<!-- Node28&#45;&gt;Node29 -->
<g id="edge36" class="edge"><title>Node28&#45;&gt;Node29</title>
<path fill="none" stroke="midnightblue" d="M305.955,-139.734C321.861,-128.964 349.058,-110.55 367.978,-97.7395"/>
<polygon fill="midnightblue" stroke="midnightblue" points="369.948,-100.632 376.267,-92.1273 366.024,-94.8357 369.948,-100.632"/>
</g>
<!-- Node30&#45;&gt;Node4 -->
<g id="edge39" class="edge"><title>Node30&#45;&gt;Node4</title>
<path fill="none" stroke="midnightblue" d="M287.038,-326.578C348.695,-315.445 440.66,-298.841 505.271,-287.175"/>
<polygon fill="midnightblue" stroke="midnightblue" points="506.179,-290.568 515.398,-285.346 504.935,-283.679 506.179,-290.568"/>
</g>
<!-- Node30&#45;&gt;Node16 -->
<g id="edge49" class="edge"><title>Node30&#45;&gt;Node16</title>
<path fill="none" stroke="midnightblue" d="M180.84,-324.457C117.617,-301.11 2.00845,-252.834 2.00845,-212 2.00845,-212 2.00845,-212 2.00845,-148.5 2.00845,-111.306 -6.02536,-92.5447 21.0085,-67 39.2858,-49.7295 200.877,-29.1646 274.611,-20.5796"/>
<polygon fill="midnightblue" stroke="midnightblue" points="275.292,-24.0244 284.825,-19.4017 274.49,-17.0705 275.292,-24.0244"/>
</g>
<!-- Node31 -->
<g id="node31" class="node"><title>Node31</title>
<g id="a_node31"><a xlink:href="image_8h.html" target="_top" xlink:title="AR6/InstantOn/framework\l/image.h">
<polygon fill="white" stroke="black" points="30.5085,-67.5 30.5085,-97.5 161.508,-97.5 161.508,-67.5 30.5085,-67.5"/>
<text text-anchor="start" x="38.5085" y="-85.5" font-family="Helvetica,sans-Serif" font-size="10.00">AR6/InstantOn/framework</text>
<text text-anchor="middle" x="96.0085" y="-74.5" font-family="Helvetica,sans-Serif" font-size="10.00">/image.h</text>
</a>
</g>
</g>
<!-- Node30&#45;&gt;Node31 -->
<g id="edge40" class="edge"><title>Node30&#45;&gt;Node31</title>
<path fill="none" stroke="midnightblue" d="M201.918,-324.44C167.638,-297.854 96.7396,-236.432 70.0085,-165 62.7418,-145.582 71.1321,-123.106 80.2642,-106.682"/>
<polygon fill="midnightblue" stroke="midnightblue" points="83.4629,-108.154 85.614,-97.7794 77.463,-104.548 83.4629,-108.154"/>
</g>
<!-- Node32 -->
<g id="node32" class="node"><title>Node32</title>
<g id="a_node32"><a xlink:href="image__yuv_8h.html" target="_top" xlink:title="AR6/InstantOn/framework\l/image_yuv.h">
<polygon fill="white" stroke="black" points="79.5085,-134.5 79.5085,-164.5 210.508,-164.5 210.508,-134.5 79.5085,-134.5"/>
<text text-anchor="start" x="87.5085" y="-152.5" font-family="Helvetica,sans-Serif" font-size="10.00">AR6/InstantOn/framework</text>
<text text-anchor="middle" x="145.008" y="-141.5" font-family="Helvetica,sans-Serif" font-size="10.00">/image_yuv.h</text>
</a>
</g>
</g>
<!-- Node30&#45;&gt;Node32 -->
<g id="edge44" class="edge"><title>Node30&#45;&gt;Node32</title>
<path fill="none" stroke="midnightblue" d="M215.296,-324.369C202.308,-292.24 170.452,-213.439 154.473,-173.911"/>
<polygon fill="midnightblue" stroke="midnightblue" points="157.676,-172.497 150.683,-164.538 151.186,-175.121 157.676,-172.497"/>
</g>
<!-- Node31&#45;&gt;Node6 -->
<g id="edge42" class="edge"><title>Node31&#45;&gt;Node6</title>
<path fill="none" stroke="midnightblue" d="M161.529,-70.9844C238.289,-58.6648 364.485,-38.4112 439.481,-26.3748"/>
<polygon fill="midnightblue" stroke="midnightblue" points="440.394,-29.7732 449.713,-24.7327 439.284,-22.8616 440.394,-29.7732"/>
</g>
<!-- Node31&#45;&gt;Node16 -->
<g id="edge43" class="edge"><title>Node31&#45;&gt;Node16</title>
<path fill="none" stroke="midnightblue" d="M142.396,-67.476C182.227,-55.4339 238.82,-38.3243 275.229,-27.3169"/>
<polygon fill="midnightblue" stroke="midnightblue" points="276.373,-30.6276 284.933,-24.3834 274.348,-23.9271 276.373,-30.6276"/>
</g>
<!-- Node31&#45;&gt;Node26 -->
<g id="edge41" class="edge"><title>Node31&#45;&gt;Node26</title>
<path fill="none" stroke="midnightblue" d="M96.0085,-67.396C96.0085,-59.6448 96.0085,-49.8122 96.0085,-40.8601"/>
<polygon fill="midnightblue" stroke="midnightblue" points="99.5086,-40.5765 96.0085,-30.5765 92.5086,-40.5765 99.5086,-40.5765"/>
</g>
<!-- Node32&#45;&gt;Node6 -->
<g id="edge46" class="edge"><title>Node32&#45;&gt;Node6</title>
<path fill="none" stroke="midnightblue" d="M165.048,-134.427C178.809,-124.569 197.345,-110.902 213.008,-98 228.793,-84.9986 228.756,-76.2205 247.008,-67 308.084,-36.1471 386.311,-24.1301 439.712,-19.4574"/>
<polygon fill="midnightblue" stroke="midnightblue" points="440.033,-22.9429 449.716,-18.6424 439.465,-15.966 440.033,-22.9429"/>
</g>
<!-- Node32&#45;&gt;Node16 -->
<g id="edge47" class="edge"><title>Node32&#45;&gt;Node16</title>
<path fill="none" stroke="midnightblue" d="M154.374,-134.363C166.512,-116.853 189.096,-86.9049 214.008,-67 233.893,-51.1118 259.553,-38.015 279.486,-29.1433"/>
<polygon fill="midnightblue" stroke="midnightblue" points="280.971,-32.3146 288.761,-25.1338 278.193,-25.8893 280.971,-32.3146"/>
</g>
<!-- Node32&#45;&gt;Node26 -->
<g id="edge45" class="edge"><title>Node32&#45;&gt;Node26</title>
<path fill="none" stroke="midnightblue" d="M79.3923,-137.236C57.0517,-129.923 34.3691,-117.867 21.0085,-98 13.3199,-86.567 14.5353,-79.1624 21.0085,-67 27.952,-53.9538 39.9323,-43.6733 52.3055,-35.8887"/>
<polygon fill="midnightblue" stroke="midnightblue" points="54.4263,-38.7046 61.3181,-30.6576 50.9124,-32.6505 54.4263,-38.7046"/>
</g>
<!-- Node32&#45;&gt;Node31 -->
<g id="edge48" class="edge"><title>Node32&#45;&gt;Node31</title>
<path fill="none" stroke="midnightblue" d="M134.376,-134.396C128.084,-126.049 119.971,-115.287 112.828,-105.811"/>
<polygon fill="midnightblue" stroke="midnightblue" points="115.434,-103.455 106.62,-97.5765 109.845,-107.669 115.434,-103.455"/>
</g>
<!-- Node33&#45;&gt;Node21 -->
<g id="edge54" class="edge"><title>Node33&#45;&gt;Node21</title>
<path fill="none" stroke="midnightblue" d="M470.317,-391.305C448.292,-371.545 393.952,-322.793 362.512,-294.586"/>
<polygon fill="midnightblue" stroke="midnightblue" points="364.826,-291.961 355.046,-287.888 360.152,-297.171 364.826,-291.961"/>
</g>
<!-- Node34 -->
<g id="node34" class="node"><title>Node34</title>
<g id="a_node34"><a xlink:href="attitude__sample_8h.html" target="_top" xlink:title="attitude_sample.h">
<polygon fill="white" stroke="black" points="534.008,-330 534.008,-349 628.008,-349 628.008,-330 534.008,-330"/>
<text text-anchor="middle" x="581.008" y="-337" font-family="Helvetica,sans-Serif" font-size="10.00">attitude_sample.h</text>
</a>
</g>
</g>
<!-- Node33&#45;&gt;Node34 -->
<g id="edge51" class="edge"><title>Node33&#45;&gt;Node34</title>
<path fill="none" stroke="midnightblue" d="M494.479,-391.475C510.979,-381.755 538.187,-365.727 557.69,-354.237"/>
<polygon fill="midnightblue" stroke="midnightblue" points="559.725,-357.101 566.564,-349.009 556.172,-351.069 559.725,-357.101"/>
</g>
<!-- Node34&#45;&gt;Node4 -->
<g id="edge52" class="edge"><title>Node34&#45;&gt;Node4</title>
<path fill="none" stroke="midnightblue" d="M581.008,-329.734C581.008,-321.541 581.008,-308.923 581.008,-297.714"/>
<polygon fill="midnightblue" stroke="midnightblue" points="584.509,-297.589 581.008,-287.589 577.509,-297.589 584.509,-297.589"/>
</g>
<!-- Node34&#45;&gt;Node12 -->
<g id="edge53" class="edge"><title>Node34&#45;&gt;Node12</title>
<path fill="none" stroke="midnightblue" d="M624.142,-329.946C730.178,-308.324 995.008,-250.47 995.008,-212 995.008,-212 995.008,-212 995.008,-148.5 995.008,-111.306 992.76,-100.208 976.008,-67 969.51,-54.1182 959.072,-41.7487 950.108,-32.476"/>
<polygon fill="midnightblue" stroke="midnightblue" points="952.315,-29.736 942.745,-25.1893 947.391,-34.7114 952.315,-29.736"/>
</g>
<!-- Node35&#45;&gt;Node4 -->
<g id="edge58" class="edge"><title>Node35&#45;&gt;Node4</title>
<path fill="none" stroke="midnightblue" d="M695.48,-329.869C676.078,-320.315 644.221,-304.627 619.034,-292.225"/>
<polygon fill="midnightblue" stroke="midnightblue" points="620.265,-288.929 609.747,-287.652 617.172,-295.209 620.265,-288.929"/>
</g>
<!-- Node35&#45;&gt;Node7 -->
<g id="edge57" class="edge"><title>Node35&#45;&gt;Node7</title>
<path fill="none" stroke="midnightblue" d="M714.922,-329.934C721.019,-302.642 740.14,-217.052 749.6,-174.711"/>
<polygon fill="midnightblue" stroke="midnightblue" points="753.071,-175.227 751.835,-164.704 746.239,-173.7 753.071,-175.227"/>
</g>
<!-- Node35&#45;&gt;Node15 -->
<g id="edge56" class="edge"><title>Node35&#45;&gt;Node15</title>
<path fill="none" stroke="midnightblue" d="M754.646,-337.736C828.324,-335.408 976.943,-325.999 1009.01,-288 1057.83,-230.144 985.139,-137.222 951.53,-99.8475"/>
<polygon fill="midnightblue" stroke="midnightblue" points="953.99,-97.3516 944.644,-92.3599 948.837,-102.09 953.99,-97.3516"/>
</g>
</g>
</svg>
