<?xml version="1.0" encoding="UTF-8" standalone="no"?>
<!DOCTYPE svg PUBLIC "-//W3C//DTD SVG 1.1//EN"
 "http://www.w3.org/Graphics/SVG/1.1/DTD/svg11.dtd">
<!-- Generated by graphviz version 2.38.0 (20140413.2041)
 -->
<!-- Title: /bitrise/src/Source/AR6/InstantOn/include/AR6/InstantOn/external/platform/android/device/android_attitude_listener.h Pages: 1 -->
<!--zoomable 530 -->
<svg id="main" version="1.1" xmlns="http://www.w3.org/2000/svg" xmlns:xlink="http://www.w3.org/1999/xlink" xml:space="preserve" onload="init(evt)">
<style type="text/css"><![CDATA[
.edge:hover path { stroke: red; }
.edge:hover polygon { stroke: red; fill: red; }
]]></style>
<script type="text/javascript"><![CDATA[
var edges = document.getElementsByTagName('g');
if (edges && edges.length) {
  for (var i=0;i<edges.length;i++) {
    if (edges[i].id.substr(0,4)=='edge') {
      edges[i].setAttribute('class','edge');
    }
  }
}
]]></script>
        <defs>
                <circle id="rim" cx="0" cy="0" r="7"/>
                <circle id="rim2" cx="0" cy="0" r="3.5"/>
                <g id="zoomPlus">
                        <use xlink:href="#rim" fill="#404040">
                                <set attributeName="fill" to="#808080" begin="zoomplus.mouseover" end="zoomplus.mouseout"/>
                        </use>
                        <path d="M-4,0h8M0,-4v8" fill="none" stroke="white" stroke-width="1.5" pointer-events="none"/>
                </g>
                <g id="zoomMin">
                        <use xlink:href="#rim" fill="#404040">
                                <set attributeName="fill" to="#808080" begin="zoomminus.mouseover" end="zoomminus.mouseout"/>
                        </use>
                        <path d="M-4,0h8" fill="none" stroke="white" stroke-width="1.5" pointer-events="none"/>
                </g>
                <g id="dirArrow">
                        <path fill="none" stroke="white" stroke-width="1.5" d="M0,-3.0v7 M-2.5,-0.5L0,-3.0L2.5,-0.5"/>
                </g>
               <g id="resetDef">
                       <use xlink:href="#rim2" fill="#404040">
                               <set attributeName="fill" to="#808080" begin="reset.mouseover" end="reset.mouseout"/>
                       </use>
               </g>
        </defs>

<script type="text/javascript">
var viewWidth = 927;
var viewHeight = 530;
var sectionId = 'dynsection-0';
</script>
<script xlink:href="svgpan.js"/>
<svg id="graph" class="graph">
<g id="viewport">
<title>/bitrise/src/Source/AR6/InstantOn/include/AR6/InstantOn/external/platform/android/device/android_attitude_listener.h</title>
<polygon fill="white" stroke="none" points="-4,4 -4,-526 922.72,-526 922.72,4 -4,4"/>
<!-- Node1 -->
<g id="node1" class="node"><title>Node1</title>
<polygon fill="#bfbfbf" stroke="black" points="560.22,-458.5 560.22,-521.5 694.22,-521.5 694.22,-458.5 560.22,-458.5"/>
<text text-anchor="start" x="568.22" y="-509.5" font-family="Helvetica,sans-Serif" font-size="10.00">/bitrise/src/Source</text>
<text text-anchor="start" x="568.22" y="-498.5" font-family="Helvetica,sans-Serif" font-size="10.00">/AR6/InstantOn/include</text>
<text text-anchor="start" x="568.22" y="-487.5" font-family="Helvetica,sans-Serif" font-size="10.00">/AR6/InstantOn/external</text>
<text text-anchor="start" x="568.22" y="-476.5" font-family="Helvetica,sans-Serif" font-size="10.00">/platform/android/device</text>
<text text-anchor="middle" x="627.22" y="-465.5" font-family="Helvetica,sans-Serif" font-size="10.00">/android_attitude_listener.h</text>
</g>
<!-- Node2 -->
<g id="node2" class="node"><title>Node2</title>
<g id="a_node2"><a xlink:href="attitude__listener__base_8h.html" target="_top" xlink:title="AR6/InstantOn/extensions\l/attitude_listener_base.h">
<polygon fill="white" stroke="black" points="561.22,-391.5 561.22,-421.5 693.22,-421.5 693.22,-391.5 561.22,-391.5"/>
<text text-anchor="start" x="569.22" y="-409.5" font-family="Helvetica,sans-Serif" font-size="10.00">AR6/InstantOn/extensions</text>
<text text-anchor="middle" x="627.22" y="-398.5" font-family="Helvetica,sans-Serif" font-size="10.00">/attitude_listener_base.h</text>
</a>
</g>
</g>
<!-- Node1&#45;&gt;Node2 -->
<g id="edge1" class="edge"><title>Node1&#45;&gt;Node2</title>
<path fill="none" stroke="midnightblue" d="M627.22,-458.188C627.22,-449.412 627.22,-439.982 627.22,-431.663"/>
<polygon fill="midnightblue" stroke="midnightblue" points="630.72,-431.516 627.22,-421.516 623.72,-431.516 630.72,-431.516"/>
</g>
<!-- Node3 -->
<g id="node3" class="node"><title>Node3</title>
<g id="a_node3"><a xlink:href="attitude__sample_8h.html" target="_top" xlink:title="attitude_sample.h">
<polygon fill="white" stroke="black" points="509.22,-330 509.22,-349 603.22,-349 603.22,-330 509.22,-330"/>
<text text-anchor="middle" x="556.22" y="-337" font-family="Helvetica,sans-Serif" font-size="10.00">attitude_sample.h</text>
</a>
</g>
</g>
<!-- Node2&#45;&gt;Node3 -->
<g id="edge2" class="edge"><title>Node2&#45;&gt;Node3</title>
<path fill="none" stroke="midnightblue" d="M611.814,-391.396C600.415,-380.96 584.894,-366.751 573.148,-355.998"/>
<polygon fill="midnightblue" stroke="midnightblue" points="575.456,-353.366 565.717,-349.195 570.73,-358.529 575.456,-353.366"/>
</g>
<!-- Node21 -->
<g id="node21" class="node"><title>Node21</title>
<g id="a_node21"><a xlink:href="listener__base_8h.html" target="_top" xlink:title="AR6/InstantOn/framework\l/listener_base.h">
<polygon fill="white" stroke="black" points="632.72,-324.5 632.72,-354.5 763.72,-354.5 763.72,-324.5 632.72,-324.5"/>
<text text-anchor="start" x="640.72" y="-342.5" font-family="Helvetica,sans-Serif" font-size="10.00">AR6/InstantOn/framework</text>
<text text-anchor="middle" x="698.22" y="-331.5" font-family="Helvetica,sans-Serif" font-size="10.00">/listener_base.h</text>
</a>
</g>
</g>
<!-- Node2&#45;&gt;Node21 -->
<g id="edge28" class="edge"><title>Node2&#45;&gt;Node21</title>
<path fill="none" stroke="midnightblue" d="M642.626,-391.396C652.209,-382.623 664.705,-371.183 675.422,-361.371"/>
<polygon fill="midnightblue" stroke="midnightblue" points="677.832,-363.911 682.844,-354.577 673.105,-358.748 677.832,-363.911"/>
</g>
<!-- Node4 -->
<g id="node4" class="node"><title>Node4</title>
<g id="a_node4"><a xlink:href="sample_8h.html" target="_top" xlink:title="AR6/InstantOn/framework\l/sample.h">
<polygon fill="white" stroke="black" points="29.7199,-257.5 29.7199,-287.5 160.72,-287.5 160.72,-257.5 29.7199,-257.5"/>
<text text-anchor="start" x="37.7199" y="-275.5" font-family="Helvetica,sans-Serif" font-size="10.00">AR6/InstantOn/framework</text>
<text text-anchor="middle" x="95.2199" y="-264.5" font-family="Helvetica,sans-Serif" font-size="10.00">/sample.h</text>
</a>
</g>
</g>
<!-- Node3&#45;&gt;Node4 -->
<g id="edge3" class="edge"><title>Node3&#45;&gt;Node4</title>
<path fill="none" stroke="midnightblue" d="M509.051,-331.849C429.152,-320.584 266.546,-297.657 170.669,-284.138"/>
<polygon fill="midnightblue" stroke="midnightblue" points="171.138,-280.67 160.747,-282.739 170.161,-287.601 171.138,-280.67"/>
</g>
<!-- Node12 -->
<g id="node12" class="node"><title>Node12</title>
<polygon fill="white" stroke="#bfbfbf" points="574.22,-6 574.22,-25 618.22,-25 618.22,-6 574.22,-6"/>
<text text-anchor="middle" x="596.22" y="-13" font-family="Helvetica,sans-Serif" font-size="10.00">vector</text>
</g>
<!-- Node3&#45;&gt;Node12 -->
<g id="edge27" class="edge"><title>Node3&#45;&gt;Node12</title>
<path fill="none" stroke="midnightblue" d="M556.22,-329.911C556.22,-309.477 556.22,-256.363 556.22,-212 556.22,-212 556.22,-212 556.22,-148.5 556.22,-106.176 575.288,-59.3719 587.093,-34.4498"/>
<polygon fill="midnightblue" stroke="midnightblue" points="590.375,-35.7055 591.631,-25.1854 584.089,-32.6262 590.375,-35.7055"/>
</g>
<!-- Node5 -->
<g id="node5" class="node"><title>Node5</title>
<g id="a_node5"><a xlink:href="stream_8h.html" target="_top" xlink:title="stream.h">
<polygon fill="white" stroke="black" points="107.72,-201.5 107.72,-220.5 162.72,-220.5 162.72,-201.5 107.72,-201.5"/>
<text text-anchor="middle" x="135.22" y="-208.5" font-family="Helvetica,sans-Serif" font-size="10.00">stream.h</text>
</a>
</g>
</g>
<!-- Node4&#45;&gt;Node5 -->
<g id="edge4" class="edge"><title>Node4&#45;&gt;Node5</title>
<path fill="none" stroke="midnightblue" d="M104.699,-257.399C110.392,-248.932 117.674,-238.099 123.698,-229.139"/>
<polygon fill="midnightblue" stroke="midnightblue" points="126.725,-230.909 129.4,-220.658 120.916,-227.004 126.725,-230.909"/>
</g>
<!-- Node16 -->
<g id="node16" class="node"><title>Node16</title>
<polygon fill="white" stroke="#bfbfbf" points="40.2199,-6 40.2199,-25 92.2199,-25 92.2199,-6 40.2199,-6"/>
<text text-anchor="middle" x="66.2199" y="-13" font-family="Helvetica,sans-Serif" font-size="10.00">memory</text>
</g>
<!-- Node4&#45;&gt;Node16 -->
<g id="edge26" class="edge"><title>Node4&#45;&gt;Node16</title>
<path fill="none" stroke="midnightblue" d="M55.201,-257.385C38.8257,-249.401 21.5595,-237.615 12.2199,-221 -23.2922,-157.824 28.0475,-70.5118 53.4293,-33.8283"/>
<polygon fill="midnightblue" stroke="midnightblue" points="56.5812,-35.4361 59.5314,-25.2603 50.8794,-31.3753 56.5812,-35.4361"/>
</g>
<!-- Node20 -->
<g id="node20" class="node"><title>Node20</title>
<g id="a_node20"><a xlink:href="date__time_8h.html" target="_top" xlink:title="date_time.h">
<polygon fill="white" stroke="black" points="21.2199,-201.5 21.2199,-220.5 89.2199,-220.5 89.2199,-201.5 21.2199,-201.5"/>
<text text-anchor="middle" x="55.2199" y="-208.5" font-family="Helvetica,sans-Serif" font-size="10.00">date_time.h</text>
</a>
</g>
</g>
<!-- Node4&#45;&gt;Node20 -->
<g id="edge24" class="edge"><title>Node4&#45;&gt;Node20</title>
<path fill="none" stroke="midnightblue" d="M85.7405,-257.399C80.0479,-248.932 72.7656,-238.099 66.7422,-229.139"/>
<polygon fill="midnightblue" stroke="midnightblue" points="69.5241,-227.004 61.0403,-220.658 63.7148,-230.909 69.5241,-227.004"/>
</g>
<!-- Node6 -->
<g id="node6" class="node"><title>Node6</title>
<polygon fill="white" stroke="#bfbfbf" points="454.22,-0.5 454.22,-30.5 556.22,-30.5 556.22,-0.5 454.22,-0.5"/>
<text text-anchor="start" x="462.22" y="-18.5" font-family="Helvetica,sans-Serif" font-size="10.00">artvision/framework</text>
<text text-anchor="middle" x="505.22" y="-7.5" font-family="Helvetica,sans-Serif" font-size="10.00">/error.h</text>
</g>
<!-- Node5&#45;&gt;Node6 -->
<g id="edge5" class="edge"><title>Node5&#45;&gt;Node6</title>
<path fill="none" stroke="midnightblue" d="M162.863,-205.807C240.68,-193.38 458.576,-154.079 499.22,-98 511.079,-81.6371 511.599,-58.2522 509.726,-40.7249"/>
<polygon fill="midnightblue" stroke="midnightblue" points="513.174,-40.107 508.331,-30.6838 506.241,-41.0703 513.174,-40.107"/>
</g>
<!-- Node7 -->
<g id="node7" class="node"><title>Node7</title>
<g id="a_node7"><a xlink:href="linear__algebra_8h.html" target="_top" xlink:title="AR6/InstantOn/math\l/linear_algebra.h">
<polygon fill="white" stroke="black" points="220.72,-134.5 220.72,-164.5 327.72,-164.5 327.72,-134.5 220.72,-134.5"/>
<text text-anchor="start" x="228.72" y="-152.5" font-family="Helvetica,sans-Serif" font-size="10.00">AR6/InstantOn/math</text>
<text text-anchor="middle" x="274.22" y="-141.5" font-family="Helvetica,sans-Serif" font-size="10.00">/linear_algebra.h</text>
</a>
</g>
</g>
<!-- Node5&#45;&gt;Node7 -->
<g id="edge6" class="edge"><title>Node5&#45;&gt;Node7</title>
<path fill="none" stroke="midnightblue" d="M155.135,-201.475C175.104,-192.927 206.469,-179.501 231.998,-168.573"/>
<polygon fill="midnightblue" stroke="midnightblue" points="233.645,-171.676 241.46,-164.523 230.89,-165.241 233.645,-171.676"/>
</g>
<!-- Node15 -->
<g id="node15" class="node"><title>Node15</title>
<g id="a_node15"><a xlink:href="indexing_8h.html" target="_top" xlink:title="indexing.h">
<polygon fill="white" stroke="black" points="104.72,-73 104.72,-92 165.72,-92 165.72,-73 104.72,-73"/>
<text text-anchor="middle" x="135.22" y="-80" font-family="Helvetica,sans-Serif" font-size="10.00">indexing.h</text>
</a>
</g>
</g>
<!-- Node5&#45;&gt;Node15 -->
<g id="edge21" class="edge"><title>Node5&#45;&gt;Node15</title>
<path fill="none" stroke="midnightblue" d="M135.22,-201.305C135.22,-180.994 135.22,-130.053 135.22,-102.277"/>
<polygon fill="midnightblue" stroke="midnightblue" points="138.72,-102.256 135.22,-92.2557 131.72,-102.256 138.72,-102.256"/>
</g>
<!-- Node5&#45;&gt;Node16 -->
<g id="edge23" class="edge"><title>Node5&#45;&gt;Node16</title>
<path fill="none" stroke="midnightblue" d="M132.105,-201.288C125.368,-182.448 108.947,-136.508 95.2199,-98 87.4427,-76.1836 78.5115,-51.0755 72.639,-34.559"/>
<polygon fill="midnightblue" stroke="midnightblue" points="75.9121,-33.3167 69.2646,-25.0668 69.3165,-35.6615 75.9121,-33.3167"/>
</g>
<!-- Node19 -->
<g id="node19" class="node"><title>Node19</title>
<polygon fill="white" stroke="#bfbfbf" points="21.7199,-140 21.7199,-159 62.7199,-159 62.7199,-140 21.7199,-140"/>
<text text-anchor="middle" x="42.2199" y="-147" font-family="Helvetica,sans-Serif" font-size="10.00">string</text>
</g>
<!-- Node5&#45;&gt;Node19 -->
<g id="edge22" class="edge"><title>Node5&#45;&gt;Node19</title>
<path fill="none" stroke="midnightblue" d="M121.895,-201.475C106.84,-191.843 82.1044,-176.017 64.183,-164.552"/>
<polygon fill="midnightblue" stroke="midnightblue" points="65.8297,-161.45 55.5199,-159.009 62.0572,-167.347 65.8297,-161.45"/>
</g>
<!-- Node8 -->
<g id="node8" class="node"><title>Node8</title>
<g id="a_node8"><a xlink:href="math__utils_8h.html" target="_top" xlink:title="math_utils.h">
<polygon fill="white" stroke="black" points="312.22,-73 312.22,-92 382.22,-92 382.22,-73 312.22,-73"/>
<text text-anchor="middle" x="347.22" y="-80" font-family="Helvetica,sans-Serif" font-size="10.00">math_utils.h</text>
</a>
</g>
</g>
<!-- Node7&#45;&gt;Node8 -->
<g id="edge7" class="edge"><title>Node7&#45;&gt;Node8</title>
<path fill="none" stroke="midnightblue" d="M290.06,-134.396C301.78,-123.96 317.738,-109.751 329.815,-98.9978"/>
<polygon fill="midnightblue" stroke="midnightblue" points="332.314,-101.459 337.455,-92.1945 327.659,-96.2306 332.314,-101.459"/>
</g>
<!-- Node10 -->
<g id="node10" class="node"><title>Node10</title>
<g id="a_node10"><a xlink:href="_instant_on_2include_2_a_r6_2_instant_on_2math_2matrix_8h.html" target="_top" xlink:title="matrix.h">
<polygon fill="white" stroke="black" points="438.22,-73 438.22,-92 490.22,-92 490.22,-73 438.22,-73"/>
<text text-anchor="middle" x="464.22" y="-80" font-family="Helvetica,sans-Serif" font-size="10.00">matrix.h</text>
</a>
</g>
</g>
<!-- Node7&#45;&gt;Node10 -->
<g id="edge10" class="edge"><title>Node7&#45;&gt;Node10</title>
<path fill="none" stroke="midnightblue" d="M316.982,-134.394C347.041,-124.408 388.165,-110.602 424.22,-98 426.599,-97.1683 429.055,-96.3007 431.525,-95.4215"/>
<polygon fill="midnightblue" stroke="midnightblue" points="432.757,-98.6981 440.986,-92.0247 430.391,-92.1098 432.757,-98.6981"/>
</g>
<!-- Node11 -->
<g id="node11" class="node"><title>Node11</title>
<g id="a_node11"><a xlink:href="vector_8h.html" target="_top" xlink:title="vector.h">
<polygon fill="white" stroke="black" points="384.22,-6 384.22,-25 436.22,-25 436.22,-6 384.22,-6"/>
<text text-anchor="middle" x="410.22" y="-13" font-family="Helvetica,sans-Serif" font-size="10.00">vector.h</text>
</a>
</g>
</g>
<!-- Node7&#45;&gt;Node11 -->
<g id="edge14" class="edge"><title>Node7&#45;&gt;Node11</title>
<path fill="none" stroke="midnightblue" d="M327.949,-136.788C350.513,-129.27 375.188,-117.182 391.22,-98 405.964,-80.3586 409.74,-53.3844 410.474,-35.3571"/>
<polygon fill="midnightblue" stroke="midnightblue" points="413.975,-35.2657 410.605,-25.2212 406.976,-35.175 413.975,-35.2657"/>
</g>
<!-- Node13 -->
<g id="node13" class="node"><title>Node13</title>
<polygon fill="white" stroke="#bfbfbf" points="184.22,-73 184.22,-92 236.22,-92 236.22,-73 184.22,-73"/>
<text text-anchor="middle" x="210.22" y="-80" font-family="Helvetica,sans-Serif" font-size="10.00">assert.h</text>
</g>
<!-- Node7&#45;&gt;Node13 -->
<g id="edge15" class="edge"><title>Node7&#45;&gt;Node13</title>
<path fill="none" stroke="midnightblue" d="M260.333,-134.396C250.255,-124.161 236.604,-110.296 226.094,-99.622"/>
<polygon fill="midnightblue" stroke="midnightblue" points="228.291,-96.8646 218.781,-92.1945 223.303,-101.776 228.291,-96.8646"/>
</g>
<!-- Node14 -->
<g id="node14" class="node"><title>Node14</title>
<polygon fill="white" stroke="#bfbfbf" points="254.22,-73 254.22,-92 294.22,-92 294.22,-73 254.22,-73"/>
<text text-anchor="middle" x="274.22" y="-80" font-family="Helvetica,sans-Serif" font-size="10.00">limits</text>
</g>
<!-- Node7&#45;&gt;Node14 -->
<g id="edge16" class="edge"><title>Node7&#45;&gt;Node14</title>
<path fill="none" stroke="midnightblue" d="M274.22,-134.396C274.22,-125.064 274.22,-112.714 274.22,-102.517"/>
<polygon fill="midnightblue" stroke="midnightblue" points="277.72,-102.195 274.22,-92.1945 270.72,-102.195 277.72,-102.195"/>
</g>
<!-- Node7&#45;&gt;Node15 -->
<g id="edge17" class="edge"><title>Node7&#45;&gt;Node15</title>
<path fill="none" stroke="midnightblue" d="M244.059,-134.396C219.778,-123.041 185.944,-107.22 162.472,-96.2437"/>
<polygon fill="midnightblue" stroke="midnightblue" points="163.953,-93.0726 153.412,-92.007 160.988,-99.4135 163.953,-93.0726"/>
</g>
<!-- Node8&#45;&gt;Node6 -->
<g id="edge9" class="edge"><title>Node8&#45;&gt;Node6</title>
<path fill="none" stroke="midnightblue" d="M368.201,-72.8685C391.91,-63.115 431.155,-46.9696 461.583,-34.452"/>
<polygon fill="midnightblue" stroke="midnightblue" points="463.205,-37.5695 471.121,-30.5281 460.541,-31.0959 463.205,-37.5695"/>
</g>
<!-- Node9 -->
<g id="node9" class="node"><title>Node9</title>
<polygon fill="white" stroke="#bfbfbf" points="322.22,-6 322.22,-25 366.22,-25 366.22,-6 322.22,-6"/>
<text text-anchor="middle" x="344.22" y="-13" font-family="Helvetica,sans-Serif" font-size="10.00">cmath</text>
</g>
<!-- Node8&#45;&gt;Node9 -->
<g id="edge8" class="edge"><title>Node8&#45;&gt;Node9</title>
<path fill="none" stroke="midnightblue" d="M346.815,-72.7338C346.375,-63.1826 345.656,-47.6183 345.087,-35.2829"/>
<polygon fill="midnightblue" stroke="midnightblue" points="348.576,-34.9553 344.618,-25.1273 341.583,-35.2781 348.576,-34.9553"/>
</g>
<!-- Node10&#45;&gt;Node6 -->
<g id="edge11" class="edge"><title>Node10&#45;&gt;Node6</title>
<path fill="none" stroke="midnightblue" d="M469.749,-72.7338C475.131,-64.2027 483.538,-50.8744 490.817,-39.3345"/>
<polygon fill="midnightblue" stroke="midnightblue" points="493.958,-40.9143 496.333,-30.589 488.038,-37.1797 493.958,-40.9143"/>
</g>
<!-- Node10&#45;&gt;Node11 -->
<g id="edge12" class="edge"><title>Node10&#45;&gt;Node11</title>
<path fill="none" stroke="midnightblue" d="M456.937,-72.7338C448.517,-62.5979 434.47,-45.6899 423.974,-33.0556"/>
<polygon fill="midnightblue" stroke="midnightblue" points="426.47,-30.5826 417.387,-25.1273 421.085,-35.0558 426.47,-30.5826"/>
</g>
<!-- Node10&#45;&gt;Node12 -->
<g id="edge13" class="edge"><title>Node10&#45;&gt;Node12</title>
<path fill="none" stroke="midnightblue" d="M481.749,-72.8685C504.234,-61.7961 543.448,-42.4862 569.621,-29.5978"/>
<polygon fill="midnightblue" stroke="midnightblue" points="571.194,-32.7249 578.619,-25.1672 568.101,-26.445 571.194,-32.7249"/>
</g>
<!-- Node15&#45;&gt;Node16 -->
<g id="edge18" class="edge"><title>Node15&#45;&gt;Node16</title>
<path fill="none" stroke="midnightblue" d="M125.914,-72.7338C114.948,-62.403 96.5132,-45.0371 83.0257,-32.3315"/>
<polygon fill="midnightblue" stroke="midnightblue" points="85.057,-29.4366 75.3782,-25.1273 80.2571,-34.5319 85.057,-29.4366"/>
</g>
<!-- Node17 -->
<g id="node17" class="node"><title>Node17</title>
<polygon fill="white" stroke="#bfbfbf" points="110.72,-6 110.72,-25 159.72,-25 159.72,-6 110.72,-6"/>
<text text-anchor="middle" x="135.22" y="-13" font-family="Helvetica,sans-Serif" font-size="10.00">cstddef</text>
</g>
<!-- Node15&#45;&gt;Node17 -->
<g id="edge19" class="edge"><title>Node15&#45;&gt;Node17</title>
<path fill="none" stroke="midnightblue" d="M135.22,-72.7338C135.22,-63.1826 135.22,-47.6183 135.22,-35.2829"/>
<polygon fill="midnightblue" stroke="midnightblue" points="138.72,-35.1273 135.22,-25.1273 131.72,-35.1273 138.72,-35.1273"/>
</g>
<!-- Node18 -->
<g id="node18" class="node"><title>Node18</title>
<polygon fill="white" stroke="#bfbfbf" points="177.72,-6 177.72,-25 226.72,-25 226.72,-6 177.72,-6"/>
<text text-anchor="middle" x="202.22" y="-13" font-family="Helvetica,sans-Serif" font-size="10.00">string.h</text>
</g>
<!-- Node15&#45;&gt;Node18 -->
<g id="edge20" class="edge"><title>Node15&#45;&gt;Node18</title>
<path fill="none" stroke="midnightblue" d="M144.256,-72.7338C154.905,-62.403 172.805,-45.0371 185.901,-32.3315"/>
<polygon fill="midnightblue" stroke="midnightblue" points="188.587,-34.6026 193.327,-25.1273 183.713,-29.5784 188.587,-34.6026"/>
</g>
<!-- Node20&#45;&gt;Node19 -->
<g id="edge25" class="edge"><title>Node20&#45;&gt;Node19</title>
<path fill="none" stroke="midnightblue" d="M53.3574,-201.475C51.5039,-192.992 48.6007,-179.704 46.2231,-168.822"/>
<polygon fill="midnightblue" stroke="midnightblue" points="49.633,-168.032 44.0791,-159.009 42.7943,-169.526 49.633,-168.032"/>
</g>
<!-- Node22 -->
<g id="node22" class="node"><title>Node22</title>
<g id="a_node22"><a xlink:href="thread_8h.html" target="_top" xlink:title="thread.h">
<polygon fill="white" stroke="black" points="792.22,-263 792.22,-282 844.22,-282 844.22,-263 792.22,-263"/>
<text text-anchor="middle" x="818.22" y="-270" font-family="Helvetica,sans-Serif" font-size="10.00">thread.h</text>
</a>
</g>
</g>
<!-- Node21&#45;&gt;Node22 -->
<g id="edge29" class="edge"><title>Node21&#45;&gt;Node22</title>
<path fill="none" stroke="midnightblue" d="M724.258,-324.396C744.848,-313.243 773.393,-297.781 793.604,-286.834"/>
<polygon fill="midnightblue" stroke="midnightblue" points="795.389,-289.847 802.515,-282.007 792.055,-283.692 795.389,-289.847"/>
</g>
<!-- Node25 -->
<g id="node25" class="node"><title>Node25</title>
<g id="a_node25"><a xlink:href="synchronization_8h.html" target="_top" xlink:title="synchronization.h">
<polygon fill="white" stroke="black" points="584.72,-140 584.72,-159 677.72,-159 677.72,-140 584.72,-140"/>
<text text-anchor="middle" x="631.22" y="-147" font-family="Helvetica,sans-Serif" font-size="10.00">synchronization.h</text>
</a>
</g>
</g>
<!-- Node21&#45;&gt;Node25 -->
<g id="edge32" class="edge"><title>Node21&#45;&gt;Node25</title>
<path fill="none" stroke="midnightblue" d="M682.275,-324.117C672.912,-314.755 661.682,-301.758 655.22,-288 636.652,-248.464 632.333,-196.436 631.403,-169.107"/>
<polygon fill="midnightblue" stroke="midnightblue" points="634.9,-168.936 631.18,-159.016 627.902,-169.091 634.9,-168.936"/>
</g>
<!-- Node27 -->
<g id="node27" class="node"><title>Node27</title>
<g id="a_node27"><a xlink:href="lockfree__queue_8h.html" target="_top" xlink:title="lockfree_queue.h">
<polygon fill="white" stroke="black" points="663.72,-263 663.72,-282 754.72,-282 754.72,-263 663.72,-263"/>
<text text-anchor="middle" x="709.22" y="-270" font-family="Helvetica,sans-Serif" font-size="10.00">lockfree_queue.h</text>
</a>
</g>
</g>
<!-- Node21&#45;&gt;Node27 -->
<g id="edge34" class="edge"><title>Node21&#45;&gt;Node27</title>
<path fill="none" stroke="midnightblue" d="M700.607,-324.396C702.203,-314.963 704.321,-302.448 706.057,-292.189"/>
<polygon fill="midnightblue" stroke="midnightblue" points="709.531,-292.638 707.749,-282.195 702.629,-291.47 709.531,-292.638"/>
</g>
<!-- Node23 -->
<g id="node23" class="node"><title>Node23</title>
<polygon fill="white" stroke="#bfbfbf" points="795.22,-201.5 795.22,-220.5 841.22,-220.5 841.22,-201.5 795.22,-201.5"/>
<text text-anchor="middle" x="818.22" y="-208.5" font-family="Helvetica,sans-Serif" font-size="10.00">atomic</text>
</g>
<!-- Node22&#45;&gt;Node23 -->
<g id="edge30" class="edge"><title>Node22&#45;&gt;Node23</title>
<path fill="none" stroke="midnightblue" d="M818.22,-262.975C818.22,-254.58 818.22,-241.481 818.22,-230.663"/>
<polygon fill="midnightblue" stroke="midnightblue" points="821.72,-230.509 818.22,-220.509 814.72,-230.509 821.72,-230.509"/>
</g>
<!-- Node24 -->
<g id="node24" class="node"><title>Node24</title>
<polygon fill="white" stroke="#bfbfbf" points="859.72,-201.5 859.72,-220.5 918.72,-220.5 918.72,-201.5 859.72,-201.5"/>
<text text-anchor="middle" x="889.22" y="-208.5" font-family="Helvetica,sans-Serif" font-size="10.00">stdexcept</text>
</g>
<!-- Node22&#45;&gt;Node24 -->
<g id="edge31" class="edge"><title>Node22&#45;&gt;Node24</title>
<path fill="none" stroke="midnightblue" d="M828.393,-262.975C839.57,-253.608 857.737,-238.384 871.311,-227.008"/>
<polygon fill="midnightblue" stroke="midnightblue" points="873.65,-229.615 879.066,-220.509 869.154,-224.25 873.65,-229.615"/>
</g>
<!-- Node26 -->
<g id="node26" class="node"><title>Node26</title>
<polygon fill="white" stroke="#bfbfbf" points="584.22,-67.5 584.22,-97.5 686.22,-97.5 686.22,-67.5 584.22,-67.5"/>
<text text-anchor="start" x="592.22" y="-85.5" font-family="Helvetica,sans-Serif" font-size="10.00">artvision/framework</text>
<text text-anchor="middle" x="635.22" y="-74.5" font-family="Helvetica,sans-Serif" font-size="10.00">/exception.h</text>
</g>
<!-- Node25&#45;&gt;Node26 -->
<g id="edge33" class="edge"><title>Node25&#45;&gt;Node26</title>
<path fill="none" stroke="midnightblue" d="M631.759,-139.734C632.264,-131.541 633.04,-118.923 633.73,-107.714"/>
<polygon fill="midnightblue" stroke="midnightblue" points="637.232,-107.785 634.353,-97.589 630.245,-107.355 637.232,-107.785"/>
</g>
<!-- Node27&#45;&gt;Node6 -->
<g id="edge35" class="edge"><title>Node27&#45;&gt;Node6</title>
<path fill="none" stroke="midnightblue" d="M717.589,-262.667C725.988,-253.193 738.478,-237.299 744.22,-221 757.08,-184.491 760.932,-170.561 748.22,-134 735.751,-98.1379 726.965,-87.8285 695.22,-67 689.629,-63.3315 619.655,-45.2234 566.236,-31.7332"/>
<polygon fill="midnightblue" stroke="midnightblue" points="567.026,-28.3228 556.473,-29.2726 565.315,-35.1105 567.026,-28.3228"/>
</g>
<!-- Node28 -->
<g id="node28" class="node"><title>Node28</title>
<g id="a_node28"><a xlink:href="queue_8h.html" target="_top" xlink:title="queue.h">
<polygon fill="white" stroke="black" points="683.72,-201.5 683.72,-220.5 734.72,-220.5 734.72,-201.5 683.72,-201.5"/>
<text text-anchor="middle" x="709.22" y="-208.5" font-family="Helvetica,sans-Serif" font-size="10.00">queue.h</text>
</a>
</g>
</g>
<!-- Node27&#45;&gt;Node28 -->
<g id="edge36" class="edge"><title>Node27&#45;&gt;Node28</title>
<path fill="none" stroke="midnightblue" d="M709.22,-262.975C709.22,-254.58 709.22,-241.481 709.22,-230.663"/>
<polygon fill="midnightblue" stroke="midnightblue" points="712.72,-230.509 709.22,-220.509 705.72,-230.509 712.72,-230.509"/>
</g>
<!-- Node28&#45;&gt;Node25 -->
<g id="edge38" class="edge"><title>Node28&#45;&gt;Node25</title>
<path fill="none" stroke="midnightblue" d="M698.044,-201.475C685.649,-192.02 665.43,-176.596 650.474,-165.187"/>
<polygon fill="midnightblue" stroke="midnightblue" points="652.448,-162.291 642.375,-159.009 648.203,-167.857 652.448,-162.291"/>
</g>
<!-- Node29 -->
<g id="node29" class="node"><title>Node29</title>
<polygon fill="white" stroke="#bfbfbf" points="695.72,-140 695.72,-159 738.72,-159 738.72,-140 695.72,-140"/>
<text text-anchor="middle" x="717.22" y="-147" font-family="Helvetica,sans-Serif" font-size="10.00">queue</text>
</g>
<!-- Node28&#45;&gt;Node29 -->
<g id="edge37" class="edge"><title>Node28&#45;&gt;Node29</title>
<path fill="none" stroke="midnightblue" d="M710.366,-201.475C711.495,-193.08 713.256,-179.981 714.711,-169.163"/>
<polygon fill="midnightblue" stroke="midnightblue" points="718.212,-169.386 716.076,-159.009 711.274,-168.453 718.212,-169.386"/>
</g>
</g>
</svg>
        <g id="navigator" transform="translate(0 0)" fill="#404254">
                <rect fill="#f2f5e9" fill-opacity="0.5" stroke="#606060" stroke-width=".5" x="0" y="0" width="60" height="60"/>
                <use id="zoomplus" xlink:href="#zoomPlus" x="17" y="9" onmousedown="handleZoom(evt,'in')"/>
                <use id="zoomminus" xlink:href="#zoomMin" x="42" y="9" onmousedown="handleZoom(evt,'out')"/>
                <use id="reset" xlink:href="#resetDef" x="30" y="36" onmousedown="handleReset()"/>
                <g id="arrowUp" xlink:href="#dirArrow" transform="translate(30 24)" onmousedown="handlePan(0,-1)">
                  <use xlink:href="#rim" fill="#404040">
                        <set attributeName="fill" to="#808080" begin="arrowUp.mouseover" end="arrowUp.mouseout"/>
                  </use>
                  <path fill="none" stroke="white" stroke-width="1.5" d="M0,-3.0v7 M-2.5,-0.5L0,-3.0L2.5,-0.5"/>
                </g>
                <g id="arrowRight" xlink:href="#dirArrow" transform="rotate(90) translate(36 -43)" onmousedown="handlePan(1,0)">
                  <use xlink:href="#rim" fill="#404040">
                        <set attributeName="fill" to="#808080" begin="arrowRight.mouseover" end="arrowRight.mouseout"/>
                  </use>
                  <path fill="none" stroke="white" stroke-width="1.5" d="M0,-3.0v7 M-2.5,-0.5L0,-3.0L2.5,-0.5"/>
                </g>
                <g id="arrowDown" xlink:href="#dirArrow" transform="rotate(180) translate(-30 -48)" onmousedown="handlePan(0,1)">
                  <use xlink:href="#rim" fill="#404040">
                        <set attributeName="fill" to="#808080" begin="arrowDown.mouseover" end="arrowDown.mouseout"/>
                  </use>
                  <path fill="none" stroke="white" stroke-width="1.5" d="M0,-3.0v7 M-2.5,-0.5L0,-3.0L2.5,-0.5"/>
                </g>
                <g id="arrowLeft" xlink:href="#dirArrow" transform="rotate(270) translate(-36 17)" onmousedown="handlePan(-1,0)">
                  <use xlink:href="#rim" fill="#404040">
                        <set attributeName="fill" to="#808080" begin="arrowLeft.mouseover" end="arrowLeft.mouseout"/>
                  </use>
                  <path fill="none" stroke="white" stroke-width="1.5" d="M0,-3.0v7 M-2.5,-0.5L0,-3.0L2.5,-0.5"/>
                </g>
        </g>
        <svg viewBox="0 0 15 15" width="100%" height="30px" preserveAspectRatio="xMaxYMin meet">
         <g id="arrow_out" transform="scale(0.3 0.3)">
          <a xlink:href="android__attitude__listener_8h__incl_org.svg" target="_base">
           <rect id="button" ry="5" rx="5" y="6" x="6" height="38" width="38"
                fill="#f2f5e9" fill-opacity="0.5" stroke="#606060" stroke-width="1.0"/>
           <path id="arrow"
             d="M 11.500037,31.436501 C 11.940474,20.09759 22.043105,11.32322 32.158766,21.979434 L 37.068811,17.246167 C 37.068811,17.246167 37.088388,32 37.088388,32 L 22.160133,31.978069 C 22.160133,31.978069 26.997745,27.140456 26.997745,27.140456 C 18.528582,18.264221 13.291696,25.230495 11.500037,31.436501 z"
             style="fill:#404040;"/>
          </a>
         </g>
        </svg>
</svg>
