<?xml version="1.0" encoding="UTF-8" standalone="no"?>
<!DOCTYPE svg PUBLIC "-//W3C//DTD SVG 1.1//EN"
 "http://www.w3.org/Graphics/SVG/1.1/DTD/svg11.dtd">
<!-- Generated by graphviz version 2.38.0 (20140413.2041)
 -->
<!-- Title: /bitrise/src/Source/AR6/InstantOn/external/platform/android/device/android_attitude_listener.cpp Pages: 1 -->
<!--zoomable 597 -->
<svg id="main" version="1.1" xmlns="http://www.w3.org/2000/svg" xmlns:xlink="http://www.w3.org/1999/xlink" xml:space="preserve" onload="init(evt)">
<style type="text/css"><![CDATA[
.edge:hover path { stroke: red; }
.edge:hover polygon { stroke: red; fill: red; }
]]></style>
<script type="text/javascript"><![CDATA[
var edges = document.getElementsByTagName('g');
if (edges && edges.length) {
  for (var i=0;i<edges.length;i++) {
    if (edges[i].id.substr(0,4)=='edge') {
      edges[i].setAttribute('class','edge');
    }
  }
}
]]></script>
        <defs>
                <circle id="rim" cx="0" cy="0" r="7"/>
                <circle id="rim2" cx="0" cy="0" r="3.5"/>
                <g id="zoomPlus">
                        <use xlink:href="#rim" fill="#404040">
                                <set attributeName="fill" to="#808080" begin="zoomplus.mouseover" end="zoomplus.mouseout"/>
                        </use>
                        <path d="M-4,0h8M0,-4v8" fill="none" stroke="white" stroke-width="1.5" pointer-events="none"/>
                </g>
                <g id="zoomMin">
                        <use xlink:href="#rim" fill="#404040">
                                <set attributeName="fill" to="#808080" begin="zoomminus.mouseover" end="zoomminus.mouseout"/>
                        </use>
                        <path d="M-4,0h8" fill="none" stroke="white" stroke-width="1.5" pointer-events="none"/>
                </g>
                <g id="dirArrow">
                        <path fill="none" stroke="white" stroke-width="1.5" d="M0,-3.0v7 M-2.5,-0.5L0,-3.0L2.5,-0.5"/>
                </g>
               <g id="resetDef">
                       <use xlink:href="#rim2" fill="#404040">
                               <set attributeName="fill" to="#808080" begin="reset.mouseover" end="reset.mouseout"/>
                       </use>
               </g>
        </defs>

<script type="text/javascript">
var viewWidth = 1600;
var viewHeight = 597;
var sectionId = 'dynsection-0';
</script>
<script xlink:href="svgpan.js"/>
<svg id="graph" class="graph">
<g id="viewport">
<title>/bitrise/src/Source/AR6/InstantOn/external/platform/android/device/android_attitude_listener.cpp</title>
<polygon fill="white" stroke="none" points="-4,4 -4,-593 1596,-593 1596,4 -4,4"/>
<!-- Node1 -->
<g id="node1" class="node"><title>Node1</title>
<polygon fill="#bfbfbf" stroke="black" points="1033,-536.5 1033,-588.5 1177,-588.5 1177,-536.5 1033,-536.5"/>
<text text-anchor="start" x="1041" y="-576.5" font-family="Helvetica,sans-Serif" font-size="10.00">/bitrise/src/Source</text>
<text text-anchor="start" x="1041" y="-565.5" font-family="Helvetica,sans-Serif" font-size="10.00">/AR6/InstantOn/external</text>
<text text-anchor="start" x="1041" y="-554.5" font-family="Helvetica,sans-Serif" font-size="10.00">/platform/android/device</text>
<text text-anchor="middle" x="1105" y="-543.5" font-family="Helvetica,sans-Serif" font-size="10.00">/android_attitude_listener.cpp</text>
</g>
<!-- Node2 -->
<g id="node2" class="node"><title>Node2</title>
<g id="a_node2"><a xlink:href="android__attitude__listener_8h.html" target="_top" xlink:title="AR6/InstantOn/external\l/platform/android/device\l/android_attitude_listener.h">
<polygon fill="white" stroke="black" points="690,-458.5 690,-499.5 824,-499.5 824,-458.5 690,-458.5"/>
<text text-anchor="start" x="698" y="-487.5" font-family="Helvetica,sans-Serif" font-size="10.00">AR6/InstantOn/external</text>
<text text-anchor="start" x="698" y="-476.5" font-family="Helvetica,sans-Serif" font-size="10.00">/platform/android/device</text>
<text text-anchor="middle" x="757" y="-465.5" font-family="Helvetica,sans-Serif" font-size="10.00">/android_attitude_listener.h</text>
</a>
</g>
</g>
<!-- Node1&#45;&gt;Node2 -->
<g id="edge1" class="edge"><title>Node1&#45;&gt;Node2</title>
<path fill="none" stroke="midnightblue" d="M1032.89,-544.613C974.929,-531.038 893.671,-512.008 834.356,-498.117"/>
<polygon fill="midnightblue" stroke="midnightblue" points="834.826,-494.632 824.291,-495.759 833.23,-501.447 834.826,-494.632"/>
</g>
<!-- Node7 -->
<g id="node7" class="node"><title>Node7</title>
<polygon fill="white" stroke="#bfbfbf" points="275,-0.5 275,-30.5 377,-30.5 377,-0.5 275,-0.5"/>
<text text-anchor="start" x="283" y="-18.5" font-family="Helvetica,sans-Serif" font-size="10.00">artvision/framework</text>
<text text-anchor="middle" x="326" y="-7.5" font-family="Helvetica,sans-Serif" font-size="10.00">/error.h</text>
</g>
<!-- Node1&#45;&gt;Node7 -->
<g id="edge40" class="edge"><title>Node1&#45;&gt;Node7</title>
<path fill="none" stroke="midnightblue" d="M1032.92,-559.072C787.576,-549.864 0,-512.155 0,-407.5 0,-407.5 0,-407.5 0,-148.5 0,-93.8745 43.2668,-91.6784 92,-67 146.519,-39.3918 215.608,-26.8382 264.543,-21.1534"/>
<polygon fill="midnightblue" stroke="midnightblue" points="265.109,-24.6124 274.667,-20.0416 264.345,-17.6542 265.109,-24.6124"/>
</g>
<!-- Node21 -->
<g id="node21" class="node"><title>Node21</title>
<g id="a_node21"><a xlink:href="date__time_8h.html" target="_top" xlink:title="date_time.h">
<polygon fill="white" stroke="black" points="806,-201.5 806,-220.5 874,-220.5 874,-201.5 806,-201.5"/>
<text text-anchor="middle" x="840" y="-208.5" font-family="Helvetica,sans-Serif" font-size="10.00">date_time.h</text>
</a>
</g>
</g>
<!-- Node1&#45;&gt;Node21 -->
<g id="edge42" class="edge"><title>Node1&#45;&gt;Node21</title>
<path fill="none" stroke="midnightblue" d="M1032.9,-558.681C987.079,-552.987 929.999,-538.005 895,-500 866.569,-469.127 876,-449.469 876,-407.5 876,-407.5 876,-407.5 876,-338.5 876,-298.52 859.16,-254.054 848.515,-229.94"/>
<polygon fill="midnightblue" stroke="midnightblue" points="851.611,-228.293 844.271,-220.653 845.244,-231.203 851.611,-228.293"/>
</g>
<!-- Node31 -->
<g id="node31" class="node"><title>Node31</title>
<polygon fill="white" stroke="#bfbfbf" points="904.5,-464 904.5,-494 1035.5,-494 1035.5,-464 904.5,-464"/>
<text text-anchor="start" x="912.5" y="-482" font-family="Helvetica,sans-Serif" font-size="10.00">AR6/InstantOn/framework</text>
<text text-anchor="middle" x="970" y="-471" font-family="Helvetica,sans-Serif" font-size="10.00">/logger.h</text>
</g>
<!-- Node1&#45;&gt;Node31 -->
<g id="edge41" class="edge"><title>Node1&#45;&gt;Node31</title>
<path fill="none" stroke="midnightblue" d="M1063.39,-536.382C1043.55,-524.405 1020.2,-510.303 1001.8,-499.199"/>
<polygon fill="midnightblue" stroke="midnightblue" points="1003.58,-496.183 993.209,-494.011 999.961,-502.176 1003.58,-496.183"/>
</g>
<!-- Node32 -->
<g id="node32" class="node"><title>Node32</title>
<polygon fill="white" stroke="#bfbfbf" points="1054,-469.5 1054,-488.5 1098,-488.5 1098,-469.5 1054,-469.5"/>
<text text-anchor="middle" x="1076" y="-476.5" font-family="Helvetica,sans-Serif" font-size="10.00">thread</text>
</g>
<!-- Node1&#45;&gt;Node32 -->
<g id="edge43" class="edge"><title>Node1&#45;&gt;Node32</title>
<path fill="none" stroke="midnightblue" d="M1095.98,-536.16C1091.6,-523.837 1086.43,-509.309 1082.45,-498.117"/>
<polygon fill="midnightblue" stroke="midnightblue" points="1085.71,-496.837 1079.06,-488.589 1079.11,-499.184 1085.71,-496.837"/>
</g>
<!-- Node33 -->
<g id="node33" class="node"><title>Node33</title>
<polygon fill="white" stroke="#bfbfbf" points="1116.5,-469.5 1116.5,-488.5 1151.5,-488.5 1151.5,-469.5 1116.5,-469.5"/>
<text text-anchor="middle" x="1134" y="-476.5" font-family="Helvetica,sans-Serif" font-size="10.00">jni.h</text>
</g>
<!-- Node1&#45;&gt;Node33 -->
<g id="edge44" class="edge"><title>Node1&#45;&gt;Node33</title>
<path fill="none" stroke="midnightblue" d="M1114.02,-536.16C1118.4,-523.837 1123.57,-509.309 1127.55,-498.117"/>
<polygon fill="midnightblue" stroke="midnightblue" points="1130.89,-499.184 1130.94,-488.589 1124.29,-496.837 1130.89,-499.184"/>
</g>
<!-- Node34 -->
<g id="node34" class="node"><title>Node34</title>
<polygon fill="white" stroke="#bfbfbf" points="1169.5,-469.5 1169.5,-488.5 1216.5,-488.5 1216.5,-469.5 1169.5,-469.5"/>
<text text-anchor="middle" x="1193" y="-476.5" font-family="Helvetica,sans-Serif" font-size="10.00">errno.h</text>
</g>
<!-- Node1&#45;&gt;Node34 -->
<g id="edge45" class="edge"><title>Node1&#45;&gt;Node34</title>
<path fill="none" stroke="midnightblue" d="M1132.36,-536.16C1146.76,-522.82 1163.96,-506.898 1176.35,-495.419"/>
<polygon fill="midnightblue" stroke="midnightblue" points="1178.77,-497.952 1183.73,-488.589 1174.01,-492.817 1178.77,-497.952"/>
</g>
<!-- Node35 -->
<g id="node35" class="node"><title>Node35</title>
<polygon fill="white" stroke="#bfbfbf" points="1234.5,-469.5 1234.5,-488.5 1323.5,-488.5 1323.5,-469.5 1234.5,-469.5"/>
<text text-anchor="middle" x="1279" y="-476.5" font-family="Helvetica,sans-Serif" font-size="10.00">android/sensor.h</text>
</g>
<!-- Node1&#45;&gt;Node35 -->
<g id="edge46" class="edge"><title>Node1&#45;&gt;Node35</title>
<path fill="none" stroke="midnightblue" d="M1158.63,-536.382C1189.3,-522.013 1226.51,-504.588 1251.36,-492.948"/>
<polygon fill="midnightblue" stroke="midnightblue" points="1252.99,-496.05 1260.56,-488.639 1250.02,-489.711 1252.99,-496.05"/>
</g>
<!-- Node36 -->
<g id="node36" class="node"><title>Node36</title>
<polygon fill="white" stroke="#bfbfbf" points="1342,-469.5 1342,-488.5 1414,-488.5 1414,-469.5 1342,-469.5"/>
<text text-anchor="middle" x="1378" y="-476.5" font-family="Helvetica,sans-Serif" font-size="10.00">android/log.h</text>
</g>
<!-- Node1&#45;&gt;Node36 -->
<g id="edge47" class="edge"><title>Node1&#45;&gt;Node36</title>
<path fill="none" stroke="midnightblue" d="M1177.13,-544.81C1222.16,-533.692 1281.05,-517.873 1332,-500 1338.15,-497.844 1344.63,-495.24 1350.73,-492.634"/>
<polygon fill="midnightblue" stroke="midnightblue" points="1352.15,-495.834 1359.89,-488.601 1349.33,-489.427 1352.15,-495.834"/>
</g>
<!-- Node37 -->
<g id="node37" class="node"><title>Node37</title>
<g id="a_node37"><a xlink:href="log_8h.html" target="_top" xlink:title="Logging utilities. ">
<polygon fill="white" stroke="black" points="1432,-469.5 1432,-488.5 1524,-488.5 1524,-469.5 1432,-469.5"/>
<text text-anchor="middle" x="1478" y="-476.5" font-family="Helvetica,sans-Serif" font-size="10.00">AR6/ARUtil/log.h</text>
</a>
</g>
</g>
<!-- Node1&#45;&gt;Node37 -->
<g id="edge48" class="edge"><title>Node1&#45;&gt;Node37</title>
<path fill="none" stroke="midnightblue" d="M1177.11,-550.886C1242.05,-540.541 1339.81,-523.015 1423,-500 1430.99,-497.79 1439.47,-494.959 1447.32,-492.125"/>
<polygon fill="midnightblue" stroke="midnightblue" points="1448.68,-495.351 1456.84,-488.583 1446.24,-488.79 1448.68,-495.351"/>
</g>
<!-- Node3 -->
<g id="node3" class="node"><title>Node3</title>
<g id="a_node3"><a xlink:href="attitude__listener__base_8h.html" target="_top" xlink:title="AR6/InstantOn/extensions\l/attitude_listener_base.h">
<polygon fill="white" stroke="black" points="645,-391.5 645,-421.5 777,-421.5 777,-391.5 645,-391.5"/>
<text text-anchor="start" x="653" y="-409.5" font-family="Helvetica,sans-Serif" font-size="10.00">AR6/InstantOn/extensions</text>
<text text-anchor="middle" x="711" y="-398.5" font-family="Helvetica,sans-Serif" font-size="10.00">/attitude_listener_base.h</text>
</a>
</g>
</g>
<!-- Node2&#45;&gt;Node3 -->
<g id="edge2" class="edge"><title>Node2&#45;&gt;Node3</title>
<path fill="none" stroke="midnightblue" d="M744.186,-458.362C738.524,-449.684 731.829,-439.423 725.941,-430.399"/>
<polygon fill="midnightblue" stroke="midnightblue" points="728.786,-428.354 720.39,-421.892 722.924,-432.179 728.786,-428.354"/>
</g>
<!-- Node4 -->
<g id="node4" class="node"><title>Node4</title>
<g id="a_node4"><a xlink:href="attitude__sample_8h.html" target="_top" xlink:title="attitude_sample.h">
<polygon fill="white" stroke="black" points="664,-330 664,-349 758,-349 758,-330 664,-330"/>
<text text-anchor="middle" x="711" y="-337" font-family="Helvetica,sans-Serif" font-size="10.00">attitude_sample.h</text>
</a>
</g>
</g>
<!-- Node3&#45;&gt;Node4 -->
<g id="edge3" class="edge"><title>Node3&#45;&gt;Node4</title>
<path fill="none" stroke="midnightblue" d="M711,-391.396C711,-382.064 711,-369.714 711,-359.517"/>
<polygon fill="midnightblue" stroke="midnightblue" points="714.5,-359.195 711,-349.195 707.5,-359.195 714.5,-359.195"/>
</g>
<!-- Node22 -->
<g id="node22" class="node"><title>Node22</title>
<g id="a_node22"><a xlink:href="listener__base_8h.html" target="_top" xlink:title="AR6/InstantOn/framework\l/listener_base.h">
<polygon fill="white" stroke="black" points="151.5,-324.5 151.5,-354.5 282.5,-354.5 282.5,-324.5 151.5,-324.5"/>
<text text-anchor="start" x="159.5" y="-342.5" font-family="Helvetica,sans-Serif" font-size="10.00">AR6/InstantOn/framework</text>
<text text-anchor="middle" x="217" y="-331.5" font-family="Helvetica,sans-Serif" font-size="10.00">/listener_base.h</text>
</a>
</g>
</g>
<!-- Node3&#45;&gt;Node22 -->
<g id="edge29" class="edge"><title>Node3&#45;&gt;Node22</title>
<path fill="none" stroke="midnightblue" d="M644.89,-396.801C553.477,-384.773 388.891,-363.117 292.671,-350.457"/>
<polygon fill="midnightblue" stroke="midnightblue" points="293.09,-346.982 282.719,-349.147 292.177,-353.922 293.09,-346.982"/>
</g>
<!-- Node5 -->
<g id="node5" class="node"><title>Node5</title>
<g id="a_node5"><a xlink:href="sample_8h.html" target="_top" xlink:title="AR6/InstantOn/framework\l/sample.h">
<polygon fill="white" stroke="black" points="716.5,-257.5 716.5,-287.5 847.5,-287.5 847.5,-257.5 716.5,-257.5"/>
<text text-anchor="start" x="724.5" y="-275.5" font-family="Helvetica,sans-Serif" font-size="10.00">AR6/InstantOn/framework</text>
<text text-anchor="middle" x="782" y="-264.5" font-family="Helvetica,sans-Serif" font-size="10.00">/sample.h</text>
</a>
</g>
</g>
<!-- Node4&#45;&gt;Node5 -->
<g id="edge4" class="edge"><title>Node4&#45;&gt;Node5</title>
<path fill="none" stroke="midnightblue" d="M720.575,-329.734C730.355,-320.78 745.907,-306.543 758.915,-294.635"/>
<polygon fill="midnightblue" stroke="midnightblue" points="761.598,-296.923 766.61,-287.589 756.871,-291.76 761.598,-296.923"/>
</g>
<!-- Node13 -->
<g id="node13" class="node"><title>Node13</title>
<polygon fill="white" stroke="#bfbfbf" points="615,-6 615,-25 659,-25 659,-6 615,-6"/>
<text text-anchor="middle" x="637" y="-13" font-family="Helvetica,sans-Serif" font-size="10.00">vector</text>
</g>
<!-- Node4&#45;&gt;Node13 -->
<g id="edge28" class="edge"><title>Node4&#45;&gt;Node13</title>
<path fill="none" stroke="midnightblue" d="M708.271,-329.705C702.179,-309.262 688,-256.867 688,-212 688,-212 688,-212 688,-148.5 688,-111.306 683.378,-101.302 669,-67 664.013,-55.1033 656.326,-42.8556 649.737,-33.4016"/>
<polygon fill="midnightblue" stroke="midnightblue" points="652.573,-31.3507 643.878,-25.296 646.899,-35.4511 652.573,-31.3507"/>
</g>
<!-- Node6 -->
<g id="node6" class="node"><title>Node6</title>
<g id="a_node6"><a xlink:href="stream_8h.html" target="_top" xlink:title="stream.h">
<polygon fill="white" stroke="black" points="725.5,-201.5 725.5,-220.5 780.5,-220.5 780.5,-201.5 725.5,-201.5"/>
<text text-anchor="middle" x="753" y="-208.5" font-family="Helvetica,sans-Serif" font-size="10.00">stream.h</text>
</a>
</g>
</g>
<!-- Node5&#45;&gt;Node6 -->
<g id="edge5" class="edge"><title>Node5&#45;&gt;Node6</title>
<path fill="none" stroke="midnightblue" d="M775.127,-257.399C771.087,-249.11 765.942,-238.554 761.631,-229.708"/>
<polygon fill="midnightblue" stroke="midnightblue" points="764.747,-228.113 757.22,-220.658 758.455,-231.18 764.747,-228.113"/>
</g>
<!-- Node17 -->
<g id="node17" class="node"><title>Node17</title>
<polygon fill="white" stroke="#bfbfbf" points="785,-6 785,-25 837,-25 837,-6 785,-6"/>
<text text-anchor="middle" x="811" y="-13" font-family="Helvetica,sans-Serif" font-size="10.00">memory</text>
</g>
<!-- Node5&#45;&gt;Node17 -->
<g id="edge27" class="edge"><title>Node5&#45;&gt;Node17</title>
<path fill="none" stroke="midnightblue" d="M835.466,-257.464C853.782,-249.818 872.333,-238.26 883,-221 922.387,-157.27 857.001,-69.0164 825.955,-32.9003"/>
<polygon fill="midnightblue" stroke="midnightblue" points="828.46,-30.4482 819.223,-25.2589 823.208,-35.0759 828.46,-30.4482"/>
</g>
<!-- Node5&#45;&gt;Node21 -->
<g id="edge25" class="edge"><title>Node5&#45;&gt;Node21</title>
<path fill="none" stroke="midnightblue" d="M795.745,-257.399C804.347,-248.575 815.452,-237.183 824.386,-228.018"/>
<polygon fill="midnightblue" stroke="midnightblue" points="827.086,-230.262 831.56,-220.658 822.074,-225.375 827.086,-230.262"/>
</g>
<!-- Node6&#45;&gt;Node7 -->
<g id="edge6" class="edge"><title>Node6&#45;&gt;Node7</title>
<path fill="none" stroke="midnightblue" d="M725.21,-206.385C641.753,-194.943 395.939,-156.764 345,-98 331.366,-82.272 327.042,-58.623 325.877,-40.8445"/>
<polygon fill="midnightblue" stroke="midnightblue" points="329.367,-40.5224 325.505,-30.6568 322.372,-40.7778 329.367,-40.5224"/>
</g>
<!-- Node8 -->
<g id="node8" class="node"><title>Node8</title>
<g id="a_node8"><a xlink:href="linear__algebra_8h.html" target="_top" xlink:title="AR6/InstantOn/math\l/linear_algebra.h">
<polygon fill="white" stroke="black" points="526.5,-134.5 526.5,-164.5 633.5,-164.5 633.5,-134.5 526.5,-134.5"/>
<text text-anchor="start" x="534.5" y="-152.5" font-family="Helvetica,sans-Serif" font-size="10.00">AR6/InstantOn/math</text>
<text text-anchor="middle" x="580" y="-141.5" font-family="Helvetica,sans-Serif" font-size="10.00">/linear_algebra.h</text>
</a>
</g>
</g>
<!-- Node6&#45;&gt;Node8 -->
<g id="edge7" class="edge"><title>Node6&#45;&gt;Node8</title>
<path fill="none" stroke="midnightblue" d="M728.213,-201.475C702.812,-192.739 662.596,-178.907 630.461,-167.855"/>
<polygon fill="midnightblue" stroke="midnightblue" points="631.367,-164.466 620.773,-164.523 629.091,-171.085 631.367,-164.466"/>
</g>
<!-- Node16 -->
<g id="node16" class="node"><title>Node16</title>
<g id="a_node16"><a xlink:href="indexing_8h.html" target="_top" xlink:title="indexing.h">
<polygon fill="white" stroke="black" points="716.5,-73 716.5,-92 777.5,-92 777.5,-73 716.5,-73"/>
<text text-anchor="middle" x="747" y="-80" font-family="Helvetica,sans-Serif" font-size="10.00">indexing.h</text>
</a>
</g>
</g>
<!-- Node6&#45;&gt;Node16 -->
<g id="edge22" class="edge"><title>Node6&#45;&gt;Node16</title>
<path fill="none" stroke="midnightblue" d="M752.588,-201.305C751.624,-180.994 749.208,-130.053 747.891,-102.277"/>
<polygon fill="midnightblue" stroke="midnightblue" points="751.385,-102.079 747.415,-92.2557 744.393,-102.41 751.385,-102.079"/>
</g>
<!-- Node6&#45;&gt;Node17 -->
<g id="edge24" class="edge"><title>Node6&#45;&gt;Node17</title>
<path fill="none" stroke="midnightblue" d="M755.567,-201.436C764.323,-172.225 793.148,-76.0577 805.405,-35.1661"/>
<polygon fill="midnightblue" stroke="midnightblue" points="808.812,-35.9907 808.33,-25.4068 802.106,-33.9808 808.812,-35.9907"/>
</g>
<!-- Node20 -->
<g id="node20" class="node"><title>Node20</title>
<polygon fill="white" stroke="#bfbfbf" points="832.5,-140 832.5,-159 873.5,-159 873.5,-140 832.5,-140"/>
<text text-anchor="middle" x="853" y="-147" font-family="Helvetica,sans-Serif" font-size="10.00">string</text>
</g>
<!-- Node6&#45;&gt;Node20 -->
<g id="edge23" class="edge"><title>Node6&#45;&gt;Node20</title>
<path fill="none" stroke="midnightblue" d="M767.328,-201.475C783.664,-191.755 810.602,-175.727 829.912,-164.237"/>
<polygon fill="midnightblue" stroke="midnightblue" points="831.895,-167.13 838.699,-159.009 828.315,-161.115 831.895,-167.13"/>
</g>
<!-- Node9 -->
<g id="node9" class="node"><title>Node9</title>
<g id="a_node9"><a xlink:href="math__utils_8h.html" target="_top" xlink:title="math_utils.h">
<polygon fill="white" stroke="black" points="412,-73 412,-92 482,-92 482,-73 412,-73"/>
<text text-anchor="middle" x="447" y="-80" font-family="Helvetica,sans-Serif" font-size="10.00">math_utils.h</text>
</a>
</g>
</g>
<!-- Node8&#45;&gt;Node9 -->
<g id="edge8" class="edge"><title>Node8&#45;&gt;Node9</title>
<path fill="none" stroke="midnightblue" d="M551.141,-134.396C528.114,-123.142 496.11,-107.501 473.677,-96.5375"/>
<polygon fill="midnightblue" stroke="midnightblue" points="474.928,-93.2534 464.407,-92.007 471.854,-99.5425 474.928,-93.2534"/>
</g>
<!-- Node11 -->
<g id="node11" class="node"><title>Node11</title>
<g id="a_node11"><a xlink:href="_instant_on_2include_2_a_r6_2_instant_on_2math_2matrix_8h.html" target="_top" xlink:title="matrix.h">
<polygon fill="white" stroke="black" points="500,-73 500,-92 552,-92 552,-73 500,-73"/>
<text text-anchor="middle" x="526" y="-80" font-family="Helvetica,sans-Serif" font-size="10.00">matrix.h</text>
</a>
</g>
</g>
<!-- Node8&#45;&gt;Node11 -->
<g id="edge11" class="edge"><title>Node8&#45;&gt;Node11</title>
<path fill="none" stroke="midnightblue" d="M568.283,-134.396C559.863,-124.261 548.487,-110.567 539.655,-99.9368"/>
<polygon fill="midnightblue" stroke="midnightblue" points="542.306,-97.6499 533.223,-92.1945 536.921,-102.123 542.306,-97.6499"/>
</g>
<!-- Node12 -->
<g id="node12" class="node"><title>Node12</title>
<g id="a_node12"><a xlink:href="vector_8h.html" target="_top" xlink:title="vector.h">
<polygon fill="white" stroke="black" points="522,-6 522,-25 574,-25 574,-6 522,-6"/>
<text text-anchor="middle" x="548" y="-13" font-family="Helvetica,sans-Serif" font-size="10.00">vector.h</text>
</a>
</g>
</g>
<!-- Node8&#45;&gt;Node12 -->
<g id="edge15" class="edge"><title>Node8&#45;&gt;Node12</title>
<path fill="none" stroke="midnightblue" d="M576.803,-134.342C573.104,-118.067 566.779,-90.5647 561,-67 558.396,-56.3829 555.356,-44.5462 552.871,-35.0025"/>
<polygon fill="midnightblue" stroke="midnightblue" points="556.188,-33.8499 550.268,-25.0629 549.416,-35.6234 556.188,-33.8499"/>
</g>
<!-- Node14 -->
<g id="node14" class="node"><title>Node14</title>
<polygon fill="white" stroke="#bfbfbf" points="608,-73 608,-92 660,-92 660,-73 608,-73"/>
<text text-anchor="middle" x="634" y="-80" font-family="Helvetica,sans-Serif" font-size="10.00">assert.h</text>
</g>
<!-- Node8&#45;&gt;Node14 -->
<g id="edge16" class="edge"><title>Node8&#45;&gt;Node14</title>
<path fill="none" stroke="midnightblue" d="M591.717,-134.396C600.137,-124.261 611.513,-110.567 620.345,-99.9368"/>
<polygon fill="midnightblue" stroke="midnightblue" points="623.079,-102.123 626.777,-92.1945 617.694,-97.6499 623.079,-102.123"/>
</g>
<!-- Node15 -->
<g id="node15" class="node"><title>Node15</title>
<polygon fill="white" stroke="#bfbfbf" points="354,-73 354,-92 394,-92 394,-73 354,-73"/>
<text text-anchor="middle" x="374" y="-80" font-family="Helvetica,sans-Serif" font-size="10.00">limits</text>
</g>
<!-- Node8&#45;&gt;Node15 -->
<g id="edge17" class="edge"><title>Node8&#45;&gt;Node15</title>
<path fill="none" stroke="midnightblue" d="M526.487,-135.995C490.928,-127.016 443.506,-113.747 403,-98 401.623,-97.4646 400.223,-96.8865 398.82,-96.2802"/>
<polygon fill="midnightblue" stroke="midnightblue" points="400.255,-93.0874 389.714,-92.0208 397.289,-99.4281 400.255,-93.0874"/>
</g>
<!-- Node8&#45;&gt;Node16 -->
<g id="edge18" class="edge"><title>Node8&#45;&gt;Node16</title>
<path fill="none" stroke="midnightblue" d="M616.237,-134.396C645.928,-122.84 687.506,-106.656 715.751,-95.6629"/>
<polygon fill="midnightblue" stroke="midnightblue" points="717.094,-98.8959 725.144,-92.007 714.555,-92.3726 717.094,-98.8959"/>
</g>
<!-- Node9&#45;&gt;Node7 -->
<g id="edge10" class="edge"><title>Node9&#45;&gt;Node7</title>
<path fill="none" stroke="midnightblue" d="M430.681,-72.7338C412.992,-63.2314 384.223,-47.777 361.317,-35.4719"/>
<polygon fill="midnightblue" stroke="midnightblue" points="362.693,-32.2381 352.227,-30.589 359.38,-38.4047 362.693,-32.2381"/>
</g>
<!-- Node10 -->
<g id="node10" class="node"><title>Node10</title>
<polygon fill="white" stroke="#bfbfbf" points="425,-6 425,-25 469,-25 469,-6 425,-6"/>
<text text-anchor="middle" x="447" y="-13" font-family="Helvetica,sans-Serif" font-size="10.00">cmath</text>
</g>
<!-- Node9&#45;&gt;Node10 -->
<g id="edge9" class="edge"><title>Node9&#45;&gt;Node10</title>
<path fill="none" stroke="midnightblue" d="M447,-72.7338C447,-63.1826 447,-47.6183 447,-35.2829"/>
<polygon fill="midnightblue" stroke="midnightblue" points="450.5,-35.1273 447,-25.1273 443.5,-35.1273 450.5,-35.1273"/>
</g>
<!-- Node11&#45;&gt;Node7 -->
<g id="edge12" class="edge"><title>Node11&#45;&gt;Node7</title>
<path fill="none" stroke="midnightblue" d="M506.139,-72.8855C501.227,-70.8621 495.952,-68.7789 491,-67 456.656,-54.6621 417.636,-42.6314 386.167,-33.4092"/>
<polygon fill="midnightblue" stroke="midnightblue" points="386.81,-29.9513 376.23,-30.5169 384.853,-36.6723 386.81,-29.9513"/>
</g>
<!-- Node11&#45;&gt;Node12 -->
<g id="edge13" class="edge"><title>Node11&#45;&gt;Node12</title>
<path fill="none" stroke="midnightblue" d="M528.967,-72.7338C532.233,-63.0852 537.575,-47.3001 541.77,-34.9063"/>
<polygon fill="midnightblue" stroke="midnightblue" points="545.189,-35.7216 545.08,-25.1273 538.559,-33.4774 545.189,-35.7216"/>
</g>
<!-- Node11&#45;&gt;Node13 -->
<g id="edge14" class="edge"><title>Node11&#45;&gt;Node13</title>
<path fill="none" stroke="midnightblue" d="M540.97,-72.7338C559.61,-61.8182 591.663,-43.0487 613.569,-30.2209"/>
<polygon fill="midnightblue" stroke="midnightblue" points="615.407,-33.2008 622.267,-25.1273 611.869,-27.1603 615.407,-33.2008"/>
</g>
<!-- Node16&#45;&gt;Node17 -->
<g id="edge19" class="edge"><title>Node16&#45;&gt;Node17</title>
<path fill="none" stroke="midnightblue" d="M755.631,-72.7338C765.803,-62.403 782.902,-45.0371 795.412,-32.3315"/>
<polygon fill="midnightblue" stroke="midnightblue" points="797.983,-34.7086 802.505,-25.1273 792.995,-29.7974 797.983,-34.7086"/>
</g>
<!-- Node18 -->
<g id="node18" class="node"><title>Node18</title>
<polygon fill="white" stroke="#bfbfbf" points="717.5,-6 717.5,-25 766.5,-25 766.5,-6 717.5,-6"/>
<text text-anchor="middle" x="742" y="-13" font-family="Helvetica,sans-Serif" font-size="10.00">cstddef</text>
</g>
<!-- Node16&#45;&gt;Node18 -->
<g id="edge20" class="edge"><title>Node16&#45;&gt;Node18</title>
<path fill="none" stroke="midnightblue" d="M746.326,-72.7338C745.591,-63.1826 744.394,-47.6183 743.445,-35.2829"/>
<polygon fill="midnightblue" stroke="midnightblue" points="746.92,-34.8294 742.664,-25.1273 739.941,-35.3663 746.92,-34.8294"/>
</g>
<!-- Node19 -->
<g id="node19" class="node"><title>Node19</title>
<polygon fill="white" stroke="#bfbfbf" points="1143.5,-6 1143.5,-25 1192.5,-25 1192.5,-6 1143.5,-6"/>
<text text-anchor="middle" x="1168" y="-13" font-family="Helvetica,sans-Serif" font-size="10.00">string.h</text>
</g>
<!-- Node16&#45;&gt;Node19 -->
<g id="edge21" class="edge"><title>Node16&#45;&gt;Node19</title>
<path fill="none" stroke="midnightblue" d="M777.616,-76.773C854.035,-64.9744 1052.8,-34.2869 1133.34,-21.8509"/>
<polygon fill="midnightblue" stroke="midnightblue" points="1134.11,-25.2746 1143.46,-20.2896 1133.04,-18.3565 1134.11,-25.2746"/>
</g>
<!-- Node21&#45;&gt;Node20 -->
<g id="edge26" class="edge"><title>Node21&#45;&gt;Node20</title>
<path fill="none" stroke="midnightblue" d="M841.863,-201.475C843.716,-192.992 846.619,-179.704 848.997,-168.822"/>
<polygon fill="midnightblue" stroke="midnightblue" points="852.426,-169.526 851.141,-159.009 845.587,-168.032 852.426,-169.526"/>
</g>
<!-- Node23 -->
<g id="node23" class="node"><title>Node23</title>
<g id="a_node23"><a xlink:href="thread_8h.html" target="_top" xlink:title="thread.h">
<polygon fill="white" stroke="black" points="100,-263 100,-282 152,-282 152,-263 100,-263"/>
<text text-anchor="middle" x="126" y="-270" font-family="Helvetica,sans-Serif" font-size="10.00">thread.h</text>
</a>
</g>
</g>
<!-- Node22&#45;&gt;Node23 -->
<g id="edge30" class="edge"><title>Node22&#45;&gt;Node23</title>
<path fill="none" stroke="midnightblue" d="M197.254,-324.396C182.135,-313.597 161.359,-298.756 146.142,-287.887"/>
<polygon fill="midnightblue" stroke="midnightblue" points="148.082,-284.971 137.91,-282.007 144.013,-290.667 148.082,-284.971"/>
</g>
<!-- Node26 -->
<g id="node26" class="node"><title>Node26</title>
<g id="a_node26"><a xlink:href="synchronization_8h.html" target="_top" xlink:title="synchronization.h">
<polygon fill="white" stroke="black" points="105.5,-140 105.5,-159 198.5,-159 198.5,-140 105.5,-140"/>
<text text-anchor="middle" x="152" y="-147" font-family="Helvetica,sans-Serif" font-size="10.00">synchronization.h</text>
</a>
</g>
</g>
<!-- Node22&#45;&gt;Node26 -->
<g id="edge33" class="edge"><title>Node22&#45;&gt;Node26</title>
<path fill="none" stroke="midnightblue" d="M211.907,-324.368C208.276,-314.252 203.295,-300.303 199,-288 184.158,-245.485 167.163,-195.409 158.234,-168.986"/>
<polygon fill="midnightblue" stroke="midnightblue" points="161.445,-167.556 154.93,-159.201 154.813,-169.795 161.445,-167.556"/>
</g>
<!-- Node28 -->
<g id="node28" class="node"><title>Node28</title>
<g id="a_node28"><a xlink:href="lockfree__queue_8h.html" target="_top" xlink:title="lockfree_queue.h">
<polygon fill="white" stroke="black" points="208.5,-263 208.5,-282 299.5,-282 299.5,-263 208.5,-263"/>
<text text-anchor="middle" x="254" y="-270" font-family="Helvetica,sans-Serif" font-size="10.00">lockfree_queue.h</text>
</a>
</g>
</g>
<!-- Node22&#45;&gt;Node28 -->
<g id="edge35" class="edge"><title>Node22&#45;&gt;Node28</title>
<path fill="none" stroke="midnightblue" d="M225.028,-324.396C230.626,-314.562 238.131,-301.378 244.1,-290.892"/>
<polygon fill="midnightblue" stroke="midnightblue" points="247.146,-292.617 249.051,-282.195 241.062,-289.154 247.146,-292.617"/>
</g>
<!-- Node24 -->
<g id="node24" class="node"><title>Node24</title>
<polygon fill="white" stroke="#bfbfbf" points="106,-201.5 106,-220.5 152,-220.5 152,-201.5 106,-201.5"/>
<text text-anchor="middle" x="129" y="-208.5" font-family="Helvetica,sans-Serif" font-size="10.00">atomic</text>
</g>
<!-- Node23&#45;&gt;Node24 -->
<g id="edge31" class="edge"><title>Node23&#45;&gt;Node24</title>
<path fill="none" stroke="midnightblue" d="M126.43,-262.975C126.853,-254.58 127.514,-241.481 128.059,-230.663"/>
<polygon fill="midnightblue" stroke="midnightblue" points="131.563,-230.673 128.571,-220.509 124.572,-230.32 131.563,-230.673"/>
</g>
<!-- Node25 -->
<g id="node25" class="node"><title>Node25</title>
<polygon fill="white" stroke="#bfbfbf" points="28.5,-201.5 28.5,-220.5 87.5,-220.5 87.5,-201.5 28.5,-201.5"/>
<text text-anchor="middle" x="58" y="-208.5" font-family="Helvetica,sans-Serif" font-size="10.00">stdexcept</text>
</g>
<!-- Node23&#45;&gt;Node25 -->
<g id="edge32" class="edge"><title>Node23&#45;&gt;Node25</title>
<path fill="none" stroke="midnightblue" d="M116.257,-262.975C105.653,-253.697 88.4807,-238.671 75.5212,-227.331"/>
<polygon fill="midnightblue" stroke="midnightblue" points="77.5552,-224.46 67.7247,-220.509 72.9457,-229.728 77.5552,-224.46"/>
</g>
<!-- Node27 -->
<g id="node27" class="node"><title>Node27</title>
<polygon fill="white" stroke="#bfbfbf" points="101,-67.5 101,-97.5 203,-97.5 203,-67.5 101,-67.5"/>
<text text-anchor="start" x="109" y="-85.5" font-family="Helvetica,sans-Serif" font-size="10.00">artvision/framework</text>
<text text-anchor="middle" x="152" y="-74.5" font-family="Helvetica,sans-Serif" font-size="10.00">/exception.h</text>
</g>
<!-- Node26&#45;&gt;Node27 -->
<g id="edge34" class="edge"><title>Node26&#45;&gt;Node27</title>
<path fill="none" stroke="midnightblue" d="M152,-139.734C152,-131.541 152,-118.923 152,-107.714"/>
<polygon fill="midnightblue" stroke="midnightblue" points="155.5,-107.589 152,-97.589 148.5,-107.589 155.5,-107.589"/>
</g>
<!-- Node28&#45;&gt;Node7 -->
<g id="edge36" class="edge"><title>Node28&#45;&gt;Node7</title>
<path fill="none" stroke="midnightblue" d="M256.478,-262.722C266.447,-227.418 303.816,-95.0681 319.258,-40.3771"/>
<polygon fill="midnightblue" stroke="midnightblue" points="322.691,-41.1009 322.04,-30.5261 315.954,-39.1987 322.691,-41.1009"/>
</g>
<!-- Node29 -->
<g id="node29" class="node"><title>Node29</title>
<g id="a_node29"><a xlink:href="queue_8h.html" target="_top" xlink:title="queue.h">
<polygon fill="white" stroke="black" points="208.5,-201.5 208.5,-220.5 259.5,-220.5 259.5,-201.5 208.5,-201.5"/>
<text text-anchor="middle" x="234" y="-208.5" font-family="Helvetica,sans-Serif" font-size="10.00">queue.h</text>
</a>
</g>
</g>
<!-- Node28&#45;&gt;Node29 -->
<g id="edge37" class="edge"><title>Node28&#45;&gt;Node29</title>
<path fill="none" stroke="midnightblue" d="M251.134,-262.975C248.283,-254.492 243.817,-241.204 240.159,-230.322"/>
<polygon fill="midnightblue" stroke="midnightblue" points="243.364,-228.873 236.86,-220.509 236.729,-231.103 243.364,-228.873"/>
</g>
<!-- Node29&#45;&gt;Node26 -->
<g id="edge39" class="edge"><title>Node29&#45;&gt;Node26</title>
<path fill="none" stroke="midnightblue" d="M222.251,-201.475C209.221,-192.02 187.964,-176.596 172.241,-165.187"/>
<polygon fill="midnightblue" stroke="midnightblue" points="173.876,-162.049 163.727,-159.009 169.765,-167.715 173.876,-162.049"/>
</g>
<!-- Node30 -->
<g id="node30" class="node"><title>Node30</title>
<polygon fill="white" stroke="#bfbfbf" points="216.5,-140 216.5,-159 259.5,-159 259.5,-140 216.5,-140"/>
<text text-anchor="middle" x="238" y="-147" font-family="Helvetica,sans-Serif" font-size="10.00">queue</text>
</g>
<!-- Node29&#45;&gt;Node30 -->
<g id="edge38" class="edge"><title>Node29&#45;&gt;Node30</title>
<path fill="none" stroke="midnightblue" d="M234.573,-201.475C235.137,-193.08 236.018,-179.981 236.745,-169.163"/>
<polygon fill="midnightblue" stroke="midnightblue" points="240.249,-169.221 237.428,-159.009 233.265,-168.752 240.249,-169.221"/>
</g>
<!-- Node37&#45;&gt;Node19 -->
<g id="edge51" class="edge"><title>Node37&#45;&gt;Node19</title>
<path fill="none" stroke="midnightblue" d="M1475.22,-469.42C1468.51,-447.948 1452,-390.061 1452,-340.5 1452,-340.5 1452,-340.5 1452,-148.5 1452,-39.7096 1278.51,-20.3417 1202.72,-17.071"/>
<polygon fill="midnightblue" stroke="midnightblue" points="1202.83,-13.5725 1192.71,-16.7087 1202.57,-20.568 1202.83,-13.5725"/>
</g>
<!-- Node38 -->
<g id="node38" class="node"><title>Node38</title>
<polygon fill="white" stroke="#bfbfbf" points="1480,-397 1480,-416 1526,-416 1526,-397 1480,-397"/>
<text text-anchor="middle" x="1503" y="-404" font-family="Helvetica,sans-Serif" font-size="10.00">stdio.h</text>
</g>
<!-- Node37&#45;&gt;Node38 -->
<g id="edge49" class="edge"><title>Node37&#45;&gt;Node38</title>
<path fill="none" stroke="midnightblue" d="M1481.07,-469.355C1484.89,-458.573 1491.53,-439.85 1496.5,-425.82"/>
<polygon fill="midnightblue" stroke="midnightblue" points="1499.87,-426.81 1499.91,-416.215 1493.27,-424.471 1499.87,-426.81"/>
</g>
<!-- Node39 -->
<g id="node39" class="node"><title>Node39</title>
<polygon fill="white" stroke="#bfbfbf" points="1544,-397 1544,-416 1592,-416 1592,-397 1544,-397"/>
<text text-anchor="middle" x="1568" y="-404" font-family="Helvetica,sans-Serif" font-size="10.00">stdlib.h</text>
</g>
<!-- Node37&#45;&gt;Node39 -->
<g id="edge50" class="edge"><title>Node37&#45;&gt;Node39</title>
<path fill="none" stroke="midnightblue" d="M1489.04,-469.355C1503.88,-457.727 1530.51,-436.865 1548.71,-422.612"/>
<polygon fill="midnightblue" stroke="midnightblue" points="1551.16,-425.137 1556.87,-416.215 1546.84,-419.627 1551.16,-425.137"/>
</g>
<!-- Node40 -->
<g id="node40" class="node"><title>Node40</title>
<polygon fill="white" stroke="#bfbfbf" points="1288,-397 1288,-416 1340,-416 1340,-397 1288,-397"/>
<text text-anchor="middle" x="1314" y="-404" font-family="Helvetica,sans-Serif" font-size="10.00">stdarg.h</text>
</g>
<!-- Node37&#45;&gt;Node40 -->
<g id="edge52" class="edge"><title>Node37&#45;&gt;Node40</title>
<path fill="none" stroke="midnightblue" d="M1458.22,-469.496C1429.65,-457.216 1376.65,-434.43 1343.46,-420.166"/>
<polygon fill="midnightblue" stroke="midnightblue" points="1344.42,-416.768 1333.85,-416.034 1341.66,-423.199 1344.42,-416.768"/>
</g>
<!-- Node41 -->
<g id="node41" class="node"><title>Node41</title>
<polygon fill="white" stroke="#bfbfbf" points="1358.5,-397 1358.5,-416 1423.5,-416 1423.5,-397 1358.5,-397"/>
<text text-anchor="middle" x="1391" y="-404" font-family="Helvetica,sans-Serif" font-size="10.00">sys/errno.h</text>
</g>
<!-- Node37&#45;&gt;Node41 -->
<g id="edge53" class="edge"><title>Node37&#45;&gt;Node41</title>
<path fill="none" stroke="midnightblue" d="M1467.33,-469.355C1452.98,-457.727 1427.24,-436.865 1409.65,-422.612"/>
<polygon fill="midnightblue" stroke="midnightblue" points="1411.73,-419.792 1401.76,-416.215 1407.32,-425.231 1411.73,-419.792"/>
</g>
</g>
</svg>
        <g id="navigator" transform="translate(0 0)" fill="#404254">
                <rect fill="#f2f5e9" fill-opacity="0.5" stroke="#606060" stroke-width=".5" x="0" y="0" width="60" height="60"/>
                <use id="zoomplus" xlink:href="#zoomPlus" x="17" y="9" onmousedown="handleZoom(evt,'in')"/>
                <use id="zoomminus" xlink:href="#zoomMin" x="42" y="9" onmousedown="handleZoom(evt,'out')"/>
                <use id="reset" xlink:href="#resetDef" x="30" y="36" onmousedown="handleReset()"/>
                <g id="arrowUp" xlink:href="#dirArrow" transform="translate(30 24)" onmousedown="handlePan(0,-1)">
                  <use xlink:href="#rim" fill="#404040">
                        <set attributeName="fill" to="#808080" begin="arrowUp.mouseover" end="arrowUp.mouseout"/>
                  </use>
                  <path fill="none" stroke="white" stroke-width="1.5" d="M0,-3.0v7 M-2.5,-0.5L0,-3.0L2.5,-0.5"/>
                </g>
                <g id="arrowRight" xlink:href="#dirArrow" transform="rotate(90) translate(36 -43)" onmousedown="handlePan(1,0)">
                  <use xlink:href="#rim" fill="#404040">
                        <set attributeName="fill" to="#808080" begin="arrowRight.mouseover" end="arrowRight.mouseout"/>
                  </use>
                  <path fill="none" stroke="white" stroke-width="1.5" d="M0,-3.0v7 M-2.5,-0.5L0,-3.0L2.5,-0.5"/>
                </g>
                <g id="arrowDown" xlink:href="#dirArrow" transform="rotate(180) translate(-30 -48)" onmousedown="handlePan(0,1)">
                  <use xlink:href="#rim" fill="#404040">
                        <set attributeName="fill" to="#808080" begin="arrowDown.mouseover" end="arrowDown.mouseout"/>
                  </use>
                  <path fill="none" stroke="white" stroke-width="1.5" d="M0,-3.0v7 M-2.5,-0.5L0,-3.0L2.5,-0.5"/>
                </g>
                <g id="arrowLeft" xlink:href="#dirArrow" transform="rotate(270) translate(-36 17)" onmousedown="handlePan(-1,0)">
                  <use xlink:href="#rim" fill="#404040">
                        <set attributeName="fill" to="#808080" begin="arrowLeft.mouseover" end="arrowLeft.mouseout"/>
                  </use>
                  <path fill="none" stroke="white" stroke-width="1.5" d="M0,-3.0v7 M-2.5,-0.5L0,-3.0L2.5,-0.5"/>
                </g>
        </g>
        <svg viewBox="0 0 15 15" width="100%" height="30px" preserveAspectRatio="xMaxYMin meet">
         <g id="arrow_out" transform="scale(0.3 0.3)">
          <a xlink:href="android__attitude__listener_8cpp__incl_org.svg" target="_base">
           <rect id="button" ry="5" rx="5" y="6" x="6" height="38" width="38"
                fill="#f2f5e9" fill-opacity="0.5" stroke="#606060" stroke-width="1.0"/>
           <path id="arrow"
             d="M 11.500037,31.436501 C 11.940474,20.09759 22.043105,11.32322 32.158766,21.979434 L 37.068811,17.246167 C 37.068811,17.246167 37.088388,32 37.088388,32 L 22.160133,31.978069 C 22.160133,31.978069 26.997745,27.140456 26.997745,27.140456 C 18.528582,18.264221 13.291696,25.230495 11.500037,31.436501 z"
             style="fill:#404040;"/>
          </a>
         </g>
        </svg>
</svg>
