<?xml version="1.0" encoding="UTF-8" standalone="no"?>
<!DOCTYPE svg PUBLIC "-//W3C//DTD SVG 1.1//EN"
 "http://www.w3.org/Graphics/SVG/1.1/DTD/svg11.dtd">
<!-- Generated by graphviz version 2.38.0 (20140413.2041)
 -->
<!-- Title: ar3DStereoChangeTransMat Pages: 1 -->
<svg width="295pt" height="66pt"
 viewBox="0.00 0.00 295.00 66.00" xmlns="http://www.w3.org/2000/svg" xmlns:xlink="http://www.w3.org/1999/xlink">
<g id="graph0" class="graph" transform="scale(1 1) rotate(0) translate(4 62)">
<title>ar3DStereoChangeTransMat</title>
<polygon fill="white" stroke="none" points="-4,4 -4,-62 291,-62 291,4 -4,4"/>
<!-- Node1 -->
<g id="node1" class="node"><title>Node1</title>
<polygon fill="#bfbfbf" stroke="black" points="0,-19.5 0,-38.5 141,-38.5 141,-19.5 0,-19.5"/>
<text text-anchor="middle" x="70.5" y="-26.5" font-family="Helvetica,sans-Serif" font-size="10.00">ar3DStereoChangeTransMat</text>
</g>
<!-- Node2 -->
<g id="node2" class="node"><title>Node2</title>
<g id="a_node2"><a xlink:href="icp_stereo_handle_8c.html#affa1acbaaaa1e75305505f473741cf09" target="_top" xlink:title="icpStereoSetMatC2L">
<polygon fill="white" stroke="black" points="178.5,-38.5 178.5,-57.5 285.5,-57.5 285.5,-38.5 178.5,-38.5"/>
<text text-anchor="middle" x="232" y="-45.5" font-family="Helvetica,sans-Serif" font-size="10.00">icpStereoSetMatC2L</text>
</a>
</g>
</g>
<!-- Node1&#45;&gt;Node2 -->
<g id="edge1" class="edge"><title>Node1&#45;&gt;Node2</title>
<path fill="none" stroke="midnightblue" d="M141.459,-37.3337C150.363,-38.3943 159.432,-39.4747 168.213,-40.5207"/>
<polygon fill="midnightblue" stroke="midnightblue" points="168.019,-44.0222 178.363,-41.7297 168.847,-37.0714 168.019,-44.0222"/>
</g>
<!-- Node3 -->
<g id="node3" class="node"><title>Node3</title>
<g id="a_node3"><a xlink:href="icp_stereo_handle_8c.html#a0f759bb6fea70aae5ae6c2bc8ff367b5" target="_top" xlink:title="icpStereoSetMatC2R">
<polygon fill="white" stroke="black" points="177,-0.5 177,-19.5 287,-19.5 287,-0.5 177,-0.5"/>
<text text-anchor="middle" x="232" y="-7.5" font-family="Helvetica,sans-Serif" font-size="10.00">icpStereoSetMatC2R</text>
</a>
</g>
</g>
<!-- Node1&#45;&gt;Node3 -->
<g id="edge2" class="edge"><title>Node1&#45;&gt;Node3</title>
<path fill="none" stroke="midnightblue" d="M141.459,-20.6663C149.909,-19.6597 158.508,-18.6354 166.869,-17.6395"/>
<polygon fill="midnightblue" stroke="midnightblue" points="167.407,-21.1002 176.922,-16.4419 166.579,-14.1494 167.407,-21.1002"/>
</g>
</g>
</svg>
