<?xml version="1.0" encoding="UTF-8" standalone="no"?>
<!DOCTYPE svg PUBLIC "-//W3C//DTD SVG 1.1//EN"
 "http://www.w3.org/Graphics/SVG/1.1/DTD/svg11.dtd">
<!-- Generated by graphviz version 2.38.0 (20140413.2041)
 -->
<!-- Title: /bitrise/src/Source/AR6/AR/ar3DUtil.c Pages: 1 -->
<!--zoomable 207 -->
<svg id="main" version="1.1" xmlns="http://www.w3.org/2000/svg" xmlns:xlink="http://www.w3.org/1999/xlink" xml:space="preserve" onload="init(evt)">
<style type="text/css"><![CDATA[
.edge:hover path { stroke: red; }
.edge:hover polygon { stroke: red; fill: red; }
]]></style>
<script type="text/javascript"><![CDATA[
var edges = document.getElementsByTagName('g');
if (edges && edges.length) {
  for (var i=0;i<edges.length;i++) {
    if (edges[i].id.substr(0,4)=='edge') {
      edges[i].setAttribute('class','edge');
    }
  }
}
]]></script>
        <defs>
                <circle id="rim" cx="0" cy="0" r="7"/>
                <circle id="rim2" cx="0" cy="0" r="3.5"/>
                <g id="zoomPlus">
                        <use xlink:href="#rim" fill="#404040">
                                <set attributeName="fill" to="#808080" begin="zoomplus.mouseover" end="zoomplus.mouseout"/>
                        </use>
                        <path d="M-4,0h8M0,-4v8" fill="none" stroke="white" stroke-width="1.5" pointer-events="none"/>
                </g>
                <g id="zoomMin">
                        <use xlink:href="#rim" fill="#404040">
                                <set attributeName="fill" to="#808080" begin="zoomminus.mouseover" end="zoomminus.mouseout"/>
                        </use>
                        <path d="M-4,0h8" fill="none" stroke="white" stroke-width="1.5" pointer-events="none"/>
                </g>
                <g id="dirArrow">
                        <path fill="none" stroke="white" stroke-width="1.5" d="M0,-3.0v7 M-2.5,-0.5L0,-3.0L2.5,-0.5"/>
                </g>
               <g id="resetDef">
                       <use xlink:href="#rim2" fill="#404040">
                               <set attributeName="fill" to="#808080" begin="reset.mouseover" end="reset.mouseout"/>
                       </use>
               </g>
        </defs>

<script type="text/javascript">
var viewWidth = 956;
var viewHeight = 207;
var sectionId = 'dynsection-0';
</script>
<script xlink:href="svgpan.js"/>
<svg id="graph" class="graph">
<g id="viewport">
<title>/bitrise/src/Source/AR6/AR/ar3DUtil.c</title>
<polygon fill="white" stroke="none" points="-4,4 -4,-203 951.867,-203 951.867,4 -4,4"/>
<!-- Node1 -->
<g id="node1" class="node"><title>Node1</title>
<polygon fill="#bfbfbf" stroke="black" points="597.867,-168.5 597.867,-198.5 701.867,-198.5 701.867,-168.5 597.867,-168.5"/>
<text text-anchor="start" x="605.867" y="-186.5" font-family="Helvetica,sans-Serif" font-size="10.00">/bitrise/src/Source</text>
<text text-anchor="middle" x="649.867" y="-175.5" font-family="Helvetica,sans-Serif" font-size="10.00">/AR6/AR/ar3DUtil.c</text>
</g>
<!-- Node2 -->
<g id="node2" class="node"><title>Node2</title>
<polygon fill="white" stroke="#bfbfbf" points="684.867,-0.5 684.867,-19.5 732.867,-19.5 732.867,-0.5 684.867,-0.5"/>
<text text-anchor="middle" x="708.867" y="-7.5" font-family="Helvetica,sans-Serif" font-size="10.00">stdlib.h</text>
</g>
<!-- Node1&#45;&gt;Node2 -->
<g id="edge1" class="edge"><title>Node1&#45;&gt;Node2</title>
<path fill="none" stroke="midnightblue" d="M677.723,-168.353C708.077,-151.184 754.968,-119.097 774.867,-76 784.896,-54.2811 760.987,-35.8564 739.194,-24.2304"/>
<polygon fill="midnightblue" stroke="midnightblue" points="740.597,-21.0192 730.088,-19.6743 737.465,-27.2793 740.597,-21.0192"/>
</g>
<!-- Node3 -->
<g id="node3" class="node"><title>Node3</title>
<polygon fill="white" stroke="#bfbfbf" points="0.367362,-0.5 0.367362,-19.5 47.3674,-19.5 47.3674,-0.5 0.367362,-0.5"/>
<text text-anchor="middle" x="23.8674" y="-7.5" font-family="Helvetica,sans-Serif" font-size="10.00">math.h</text>
</g>
<!-- Node1&#45;&gt;Node3 -->
<g id="edge2" class="edge"><title>Node1&#45;&gt;Node3</title>
<path fill="none" stroke="midnightblue" d="M597.723,-182.139C458.236,-179.96 81.9664,-165.717 5.86736,-76 -5.5651,-62.5216 2.74089,-42.3412 11.484,-28.0471"/>
<polygon fill="midnightblue" stroke="midnightblue" points="14.4576,-29.8963 17.0895,-19.6336 8.63215,-26.0151 14.4576,-29.8963"/>
</g>
<!-- Node4 -->
<g id="node4" class="node"><title>Node4</title>
<g id="a_node4"><a xlink:href="ar_8h.html" target="_top" xlink:title="ARToolKit core routines. ">
<polygon fill="white" stroke="black" points="432.367,-112.5 432.367,-131.5 505.367,-131.5 505.367,-112.5 432.367,-112.5"/>
<text text-anchor="middle" x="468.867" y="-119.5" font-family="Helvetica,sans-Serif" font-size="10.00">AR6/AR/ar.h</text>
</a>
</g>
</g>
<!-- Node1&#45;&gt;Node4 -->
<g id="edge3" class="edge"><title>Node1&#45;&gt;Node4</title>
<path fill="none" stroke="midnightblue" d="M606.973,-168.399C575.833,-158.163 534.18,-144.47 504.788,-134.808"/>
<polygon fill="midnightblue" stroke="midnightblue" points="505.533,-131.369 494.94,-131.571 503.347,-138.019 505.533,-131.369"/>
</g>
<!-- Node14 -->
<g id="node14" class="node"><title>Node14</title>
<g id="a_node14"><a xlink:href="icp_8h.html" target="_top" xlink:title="AR6/AR/icp.h">
<polygon fill="white" stroke="black" points="860.367,-56.5 860.367,-75.5 937.367,-75.5 937.367,-56.5 860.367,-56.5"/>
<text text-anchor="middle" x="898.867" y="-63.5" font-family="Helvetica,sans-Serif" font-size="10.00">AR6/AR/icp.h</text>
</a>
</g>
</g>
<!-- Node1&#45;&gt;Node14 -->
<g id="edge26" class="edge"><title>Node1&#45;&gt;Node14</title>
<path fill="none" stroke="midnightblue" d="M702.123,-178.035C743.799,-172.453 802.216,-159.946 845.867,-132 864.578,-120.022 879.812,-99.2319 889.067,-84.3893"/>
<polygon fill="midnightblue" stroke="midnightblue" points="892.163,-86.0314 894.262,-75.6466 886.145,-82.4554 892.163,-86.0314"/>
</g>
<!-- Node4&#45;&gt;Node2 -->
<g id="edge5" class="edge"><title>Node4&#45;&gt;Node2</title>
<path fill="none" stroke="midnightblue" d="M505.674,-113.279C536.389,-106.031 580.805,-93.6489 616.867,-76 644.794,-62.3327 673.517,-40.5718 691.276,-26.0413"/>
<polygon fill="midnightblue" stroke="midnightblue" points="693.618,-28.6455 699.062,-19.5561 689.138,-23.2669 693.618,-28.6455"/>
</g>
<!-- Node5 -->
<g id="node5" class="node"><title>Node5</title>
<polygon fill="white" stroke="#bfbfbf" points="770.867,-0.5 770.867,-19.5 816.867,-19.5 816.867,-0.5 770.867,-0.5"/>
<text text-anchor="middle" x="793.867" y="-7.5" font-family="Helvetica,sans-Serif" font-size="10.00">stdio.h</text>
</g>
<!-- Node4&#45;&gt;Node5 -->
<g id="edge4" class="edge"><title>Node4&#45;&gt;Node5</title>
<path fill="none" stroke="midnightblue" d="M505.427,-120.422C577.696,-118.532 735.276,-110.46 774.867,-76 788.012,-64.5593 792.305,-44.5773 793.589,-29.7797"/>
<polygon fill="midnightblue" stroke="midnightblue" points="797.09,-29.8607 794.082,-19.7017 790.098,-29.5187 797.09,-29.8607"/>
</g>
<!-- Node6 -->
<g id="node6" class="node"><title>Node6</title>
<polygon fill="white" stroke="#bfbfbf" points="235.367,-56.5 235.367,-75.5 284.367,-75.5 284.367,-56.5 235.367,-56.5"/>
<text text-anchor="middle" x="259.867" y="-63.5" font-family="Helvetica,sans-Serif" font-size="10.00">stdint.h</text>
</g>
<!-- Node4&#45;&gt;Node6 -->
<g id="edge6" class="edge"><title>Node4&#45;&gt;Node6</title>
<path fill="none" stroke="midnightblue" d="M434.757,-112.45C401.279,-104.02 348.518,-90.6351 294.468,-76.3971"/>
<polygon fill="midnightblue" stroke="midnightblue" points="295.284,-72.9928 284.722,-73.8241 293.497,-79.7609 295.284,-72.9928"/>
</g>
<!-- Node7 -->
<g id="node7" class="node"><title>Node7</title>
<polygon fill="white" stroke="#bfbfbf" points="463.367,-0.5 463.367,-19.5 512.367,-19.5 512.367,-0.5 463.367,-0.5"/>
<text text-anchor="middle" x="487.867" y="-7.5" font-family="Helvetica,sans-Serif" font-size="10.00">string.h</text>
</g>
<!-- Node4&#45;&gt;Node7 -->
<g id="edge7" class="edge"><title>Node4&#45;&gt;Node7</title>
<path fill="none" stroke="midnightblue" d="M470.358,-112.368C473.424,-94.617 480.498,-53.6664 484.655,-29.5974"/>
<polygon fill="midnightblue" stroke="midnightblue" points="488.13,-30.0413 486.383,-19.5914 481.232,-28.8498 488.13,-30.0413"/>
</g>
<!-- Node8 -->
<g id="node8" class="node"><title>Node8</title>
<polygon fill="white" stroke="#bfbfbf" points="335.367,-0.5 335.367,-19.5 426.367,-19.5 426.367,-0.5 335.367,-0.5"/>
<text text-anchor="middle" x="380.867" y="-7.5" font-family="Helvetica,sans-Serif" font-size="10.00">AR6/AR/config.h</text>
</g>
<!-- Node4&#45;&gt;Node8 -->
<g id="edge8" class="edge"><title>Node4&#45;&gt;Node8</title>
<path fill="none" stroke="midnightblue" d="M464.944,-112.47C458.76,-99.5173 445.891,-74.4462 430.867,-56 421.969,-45.0745 410.351,-34.4515 400.555,-26.2729"/>
<polygon fill="midnightblue" stroke="midnightblue" points="402.501,-23.3453 392.528,-19.7686 398.094,-28.7838 402.501,-23.3453"/>
</g>
<!-- Node9 -->
<g id="node9" class="node"><title>Node9</title>
<g id="a_node9"><a xlink:href="ar_config_8h.html" target="_top" xlink:title="AR6/AR/arConfig.h">
<polygon fill="white" stroke="black" points="664.367,-56.5 664.367,-75.5 765.367,-75.5 765.367,-56.5 664.367,-56.5"/>
<text text-anchor="middle" x="714.867" y="-63.5" font-family="Helvetica,sans-Serif" font-size="10.00">AR6/AR/arConfig.h</text>
</a>
</g>
</g>
<!-- Node4&#45;&gt;Node9 -->
<g id="edge9" class="edge"><title>Node4&#45;&gt;Node9</title>
<path fill="none" stroke="midnightblue" d="M505.43,-112.974C548.076,-103.613 618.752,-88.0985 666.056,-77.7146"/>
<polygon fill="midnightblue" stroke="midnightblue" points="667.054,-81.079 676.071,-75.5162 665.553,-74.2417 667.054,-81.079"/>
</g>
<!-- Node10 -->
<g id="node10" class="node"><title>Node10</title>
<g id="a_node10"><a xlink:href="log_8h.html" target="_top" xlink:title="Logging utilities. ">
<polygon fill="white" stroke="black" points="515.867,-56.5 515.867,-75.5 607.867,-75.5 607.867,-56.5 515.867,-56.5"/>
<text text-anchor="middle" x="561.867" y="-63.5" font-family="Helvetica,sans-Serif" font-size="10.00">AR6/ARUtil/log.h</text>
</a>
</g>
</g>
<!-- Node4&#45;&gt;Node10 -->
<g id="edge10" class="edge"><title>Node4&#45;&gt;Node10</title>
<path fill="none" stroke="midnightblue" d="M483.809,-112.324C498.453,-103.822 521.001,-90.7288 538.105,-80.7975"/>
<polygon fill="midnightblue" stroke="midnightblue" points="540.072,-83.7027 546.962,-75.6545 536.557,-77.6491 540.072,-83.7027"/>
</g>
<!-- Node13 -->
<g id="node13" class="node"><title>Node13</title>
<g id="a_node13"><a xlink:href="_a_r_2include_2_a_r6_2_a_r_2matrix_8h.html" target="_top" xlink:title="AR6/AR/matrix.h">
<polygon fill="white" stroke="black" points="14.8674,-56.5 14.8674,-75.5 106.867,-75.5 106.867,-56.5 14.8674,-56.5"/>
<text text-anchor="middle" x="60.8674" y="-63.5" font-family="Helvetica,sans-Serif" font-size="10.00">AR6/AR/matrix.h</text>
</a>
</g>
</g>
<!-- Node4&#45;&gt;Node13 -->
<g id="edge16" class="edge"><title>Node4&#45;&gt;Node13</title>
<path fill="none" stroke="midnightblue" d="M432.221,-116.762C369.784,-109.447 238.544,-93.6632 117.265,-76.161"/>
<polygon fill="midnightblue" stroke="midnightblue" points="117.461,-72.6528 107.063,-74.6809 116.456,-79.5803 117.461,-72.6528"/>
</g>
<!-- Node4&#45;&gt;Node14 -->
<g id="edge18" class="edge"><title>Node4&#45;&gt;Node14</title>
<path fill="none" stroke="midnightblue" d="M505.529,-116.396C582.912,-106.678 762.946,-84.0692 850,-73.1368"/>
<polygon fill="midnightblue" stroke="midnightblue" points="850.657,-76.582 860.142,-71.8631 849.784,-69.6365 850.657,-76.582"/>
</g>
<!-- Node16 -->
<g id="node16" class="node"><title>Node16</title>
<g id="a_node16"><a xlink:href="param_8h.html" target="_top" xlink:title="ARToolKit functions for handling calibrated camera parameters. ">
<polygon fill="white" stroke="black" points="124.867,-56.5 124.867,-75.5 216.867,-75.5 216.867,-56.5 124.867,-56.5"/>
<text text-anchor="middle" x="170.867" y="-63.5" font-family="Helvetica,sans-Serif" font-size="10.00">AR6/AR/param.h</text>
</a>
</g>
</g>
<!-- Node4&#45;&gt;Node16 -->
<g id="edge21" class="edge"><title>Node4&#45;&gt;Node16</title>
<path fill="none" stroke="midnightblue" d="M432.307,-115.17C379.698,-106.134 282.693,-88.6201 222.726,-77.3853"/>
<polygon fill="midnightblue" stroke="midnightblue" points="223.18,-73.9095 212.706,-75.5014 221.887,-80.789 223.18,-73.9095"/>
</g>
<!-- Node17 -->
<g id="node17" class="node"><title>Node17</title>
<g id="a_node17"><a xlink:href="ar_image_proc_8h.html" target="_top" xlink:title="ARToolKit functions for 2D luminance image processing. ">
<polygon fill="white" stroke="black" points="301.867,-56.5 301.867,-75.5 421.867,-75.5 421.867,-56.5 301.867,-56.5"/>
<text text-anchor="middle" x="361.867" y="-63.5" font-family="Helvetica,sans-Serif" font-size="10.00">AR6/AR/arImageProc.h</text>
</a>
</g>
</g>
<!-- Node4&#45;&gt;Node17 -->
<g id="edge23" class="edge"><title>Node4&#45;&gt;Node17</title>
<path fill="none" stroke="midnightblue" d="M446.824,-112.444C427.874,-103.833 401.036,-90.429 382.508,-80.4062"/>
<polygon fill="midnightblue" stroke="midnightblue" points="384.108,-77.2913 373.663,-75.5164 380.721,-83.4176 384.108,-77.2913"/>
</g>
<!-- Node10&#45;&gt;Node2 -->
<g id="edge12" class="edge"><title>Node10&#45;&gt;Node2</title>
<path fill="none" stroke="midnightblue" d="M585.16,-56.4435C609.675,-47.4381 648.464,-33.1891 676.067,-23.049"/>
<polygon fill="midnightblue" stroke="midnightblue" points="677.504,-26.25 685.684,-19.5164 675.09,-19.6793 677.504,-26.25"/>
</g>
<!-- Node10&#45;&gt;Node5 -->
<g id="edge11" class="edge"><title>Node10&#45;&gt;Node5</title>
<path fill="none" stroke="midnightblue" d="M598.628,-56.4435C643.246,-46.0584 717.824,-28.6998 760.738,-18.7113"/>
<polygon fill="midnightblue" stroke="midnightblue" points="761.726,-22.0748 770.672,-16.3989 760.139,-15.2571 761.726,-22.0748"/>
</g>
<!-- Node10&#45;&gt;Node7 -->
<g id="edge13" class="edge"><title>Node10&#45;&gt;Node7</title>
<path fill="none" stroke="midnightblue" d="M549.978,-56.324C538.717,-48.1066 521.581,-35.6017 508.158,-25.8069"/>
<polygon fill="midnightblue" stroke="midnightblue" points="510.114,-22.9014 499.973,-19.8339 505.988,-28.5559 510.114,-22.9014"/>
</g>
<!-- Node11 -->
<g id="node11" class="node"><title>Node11</title>
<polygon fill="white" stroke="#bfbfbf" points="530.867,-0.5 530.867,-19.5 582.867,-19.5 582.867,-0.5 530.867,-0.5"/>
<text text-anchor="middle" x="556.867" y="-7.5" font-family="Helvetica,sans-Serif" font-size="10.00">stdarg.h</text>
</g>
<!-- Node10&#45;&gt;Node11 -->
<g id="edge14" class="edge"><title>Node10&#45;&gt;Node11</title>
<path fill="none" stroke="midnightblue" d="M561.042,-56.083C560.386,-49.0059 559.447,-38.8611 558.625,-29.9865"/>
<polygon fill="midnightblue" stroke="midnightblue" points="562.085,-29.3858 557.678,-19.7511 555.115,-30.0312 562.085,-29.3858"/>
</g>
<!-- Node12 -->
<g id="node12" class="node"><title>Node12</title>
<polygon fill="white" stroke="#bfbfbf" points="601.367,-0.5 601.367,-19.5 666.367,-19.5 666.367,-0.5 601.367,-0.5"/>
<text text-anchor="middle" x="633.867" y="-7.5" font-family="Helvetica,sans-Serif" font-size="10.00">sys/errno.h</text>
</g>
<!-- Node10&#45;&gt;Node12 -->
<g id="edge15" class="edge"><title>Node10&#45;&gt;Node12</title>
<path fill="none" stroke="midnightblue" d="M573.435,-56.324C584.288,-48.1849 600.748,-35.8395 613.751,-26.0874"/>
<polygon fill="midnightblue" stroke="midnightblue" points="616.189,-28.6339 622.089,-19.8339 611.989,-23.0339 616.189,-28.6339"/>
</g>
<!-- Node13&#45;&gt;Node3 -->
<g id="edge17" class="edge"><title>Node13&#45;&gt;Node3</title>
<path fill="none" stroke="midnightblue" d="M54.7576,-56.083C49.5851,-48.5341 42.0212,-37.4948 35.6729,-28.2298"/>
<polygon fill="midnightblue" stroke="midnightblue" points="38.4031,-26.0221 29.8635,-19.7511 32.6286,-29.9787 38.4031,-26.0221"/>
</g>
<!-- Node14&#45;&gt;Node5 -->
<g id="edge19" class="edge"><title>Node14&#45;&gt;Node5</title>
<path fill="none" stroke="midnightblue" d="M881.997,-56.324C865.159,-47.6641 839.061,-34.2424 819.629,-24.249"/>
<polygon fill="midnightblue" stroke="midnightblue" points="821.189,-21.1155 810.696,-19.6545 817.988,-27.3405 821.189,-21.1155"/>
</g>
<!-- Node15 -->
<g id="node15" class="node"><title>Node15</title>
<g id="a_node15"><a xlink:href="icp_core_8h.html" target="_top" xlink:title="AR6/AR/icpCore.h">
<polygon fill="white" stroke="black" points="849.867,-0.5 849.867,-19.5 947.867,-19.5 947.867,-0.5 849.867,-0.5"/>
<text text-anchor="middle" x="898.867" y="-7.5" font-family="Helvetica,sans-Serif" font-size="10.00">AR6/AR/icpCore.h</text>
</a>
</g>
</g>
<!-- Node14&#45;&gt;Node15 -->
<g id="edge20" class="edge"><title>Node14&#45;&gt;Node15</title>
<path fill="none" stroke="midnightblue" d="M898.867,-56.083C898.867,-49.0059 898.867,-38.8611 898.867,-29.9865"/>
<polygon fill="midnightblue" stroke="midnightblue" points="902.367,-29.751 898.867,-19.7511 895.367,-29.7511 902.367,-29.751"/>
</g>
<!-- Node16&#45;&gt;Node4 -->
<g id="edge22" class="edge"><title>Node16&#45;&gt;Node4</title>
<path fill="none" stroke="midnightblue" d="M217.03,-74.4881C272.893,-84.1767 366.204,-101.06 422.261,-111.6"/>
<polygon fill="midnightblue" stroke="midnightblue" points="421.801,-115.075 432.277,-113.492 423.1,-108.197 421.801,-115.075"/>
</g>
<!-- Node17&#45;&gt;Node4 -->
<g id="edge25" class="edge"><title>Node17&#45;&gt;Node4</title>
<path fill="none" stroke="midnightblue" d="M384.126,-75.6545C402.975,-84.2279 429.518,-97.4835 447.965,-107.453"/>
<polygon fill="midnightblue" stroke="midnightblue" points="446.345,-110.556 456.791,-112.324 449.727,-104.427 446.345,-110.556"/>
</g>
<!-- Node17&#45;&gt;Node8 -->
<g id="edge24" class="edge"><title>Node17&#45;&gt;Node8</title>
<path fill="none" stroke="midnightblue" d="M365.005,-56.083C367.55,-48.8486 371.224,-38.4087 374.394,-29.3968"/>
<polygon fill="midnightblue" stroke="midnightblue" points="377.771,-30.3459 377.788,-19.7511 371.168,-28.0225 377.771,-30.3459"/>
</g>
</g>
</svg>
        <g id="navigator" transform="translate(0 0)" fill="#404254">
                <rect fill="#f2f5e9" fill-opacity="0.5" stroke="#606060" stroke-width=".5" x="0" y="0" width="60" height="60"/>
                <use id="zoomplus" xlink:href="#zoomPlus" x="17" y="9" onmousedown="handleZoom(evt,'in')"/>
                <use id="zoomminus" xlink:href="#zoomMin" x="42" y="9" onmousedown="handleZoom(evt,'out')"/>
                <use id="reset" xlink:href="#resetDef" x="30" y="36" onmousedown="handleReset()"/>
                <g id="arrowUp" xlink:href="#dirArrow" transform="translate(30 24)" onmousedown="handlePan(0,-1)">
                  <use xlink:href="#rim" fill="#404040">
                        <set attributeName="fill" to="#808080" begin="arrowUp.mouseover" end="arrowUp.mouseout"/>
                  </use>
                  <path fill="none" stroke="white" stroke-width="1.5" d="M0,-3.0v7 M-2.5,-0.5L0,-3.0L2.5,-0.5"/>
                </g>
                <g id="arrowRight" xlink:href="#dirArrow" transform="rotate(90) translate(36 -43)" onmousedown="handlePan(1,0)">
                  <use xlink:href="#rim" fill="#404040">
                        <set attributeName="fill" to="#808080" begin="arrowRight.mouseover" end="arrowRight.mouseout"/>
                  </use>
                  <path fill="none" stroke="white" stroke-width="1.5" d="M0,-3.0v7 M-2.5,-0.5L0,-3.0L2.5,-0.5"/>
                </g>
                <g id="arrowDown" xlink:href="#dirArrow" transform="rotate(180) translate(-30 -48)" onmousedown="handlePan(0,1)">
                  <use xlink:href="#rim" fill="#404040">
                        <set attributeName="fill" to="#808080" begin="arrowDown.mouseover" end="arrowDown.mouseout"/>
                  </use>
                  <path fill="none" stroke="white" stroke-width="1.5" d="M0,-3.0v7 M-2.5,-0.5L0,-3.0L2.5,-0.5"/>
                </g>
                <g id="arrowLeft" xlink:href="#dirArrow" transform="rotate(270) translate(-36 17)" onmousedown="handlePan(-1,0)">
                  <use xlink:href="#rim" fill="#404040">
                        <set attributeName="fill" to="#808080" begin="arrowLeft.mouseover" end="arrowLeft.mouseout"/>
                  </use>
                  <path fill="none" stroke="white" stroke-width="1.5" d="M0,-3.0v7 M-2.5,-0.5L0,-3.0L2.5,-0.5"/>
                </g>
        </g>
        <svg viewBox="0 0 15 15" width="100%" height="30px" preserveAspectRatio="xMaxYMin meet">
         <g id="arrow_out" transform="scale(0.3 0.3)">
          <a xlink:href="ar3_d_util_8c__incl_org.svg" target="_base">
           <rect id="button" ry="5" rx="5" y="6" x="6" height="38" width="38"
                fill="#f2f5e9" fill-opacity="0.5" stroke="#606060" stroke-width="1.0"/>
           <path id="arrow"
             d="M 11.500037,31.436501 C 11.940474,20.09759 22.043105,11.32322 32.158766,21.979434 L 37.068811,17.246167 C 37.068811,17.246167 37.088388,32 37.088388,32 L 22.160133,31.978069 C 22.160133,31.978069 26.997745,27.140456 26.997745,27.140456 C 18.528582,18.264221 13.291696,25.230495 11.500037,31.436501 z"
             style="fill:#404040;"/>
          </a>
         </g>
        </svg>
</svg>
