<?xml version="1.0" encoding="UTF-8" standalone="no"?>
<!DOCTYPE svg PUBLIC "-//W3C//DTD SVG 1.1//EN"
 "http://www.w3.org/Graphics/SVG/1.1/DTD/svg11.dtd">
<!-- Generated by graphviz version 2.38.0 (20140413.2041)
 -->
<!-- Title: ar3DStereoCreateHandle Pages: 1 -->
<svg width="455pt" height="28pt"
 viewBox="0.00 0.00 455.00 28.00" xmlns="http://www.w3.org/2000/svg" xmlns:xlink="http://www.w3.org/1999/xlink">
<g id="graph0" class="graph" transform="scale(1 1) rotate(0) translate(4 24)">
<title>ar3DStereoCreateHandle</title>
<polygon fill="white" stroke="none" points="-4,4 -4,-24 451,-24 451,4 -4,4"/>
<!-- Node1 -->
<g id="node1" class="node"><title>Node1</title>
<polygon fill="#bfbfbf" stroke="black" points="0,-0.5 0,-19.5 126,-19.5 126,-0.5 0,-0.5"/>
<text text-anchor="middle" x="63" y="-7.5" font-family="Helvetica,sans-Serif" font-size="10.00">ar3DStereoCreateHandle</text>
</g>
<!-- Node2 -->
<g id="node2" class="node"><title>Node2</title>
<g id="a_node2"><a xlink:href="ar3_d_create_handle_8c.html#a650c1deb0a4e65221b3b3500f605d9c3" target="_top" xlink:title="ar3DStereoCreateHandle2">
<polygon fill="white" stroke="black" points="162,-0.5 162,-19.5 293,-19.5 293,-0.5 162,-0.5"/>
<text text-anchor="middle" x="227.5" y="-7.5" font-family="Helvetica,sans-Serif" font-size="10.00">ar3DStereoCreateHandle2</text>
</a>
</g>
</g>
<!-- Node1&#45;&gt;Node2 -->
<g id="edge1" class="edge"><title>Node1&#45;&gt;Node2</title>
<path fill="none" stroke="midnightblue" d="M126.362,-10C134.634,-10 143.183,-10 151.638,-10"/>
<polygon fill="midnightblue" stroke="midnightblue" points="151.882,-13.5001 161.882,-10 151.882,-6.5001 151.882,-13.5001"/>
</g>
<!-- Node3 -->
<g id="node3" class="node"><title>Node3</title>
<g id="a_node3"><a xlink:href="icp_stereo_handle_8c.html#a3b8536c78bbc2e44f7e3bd40ee02a66b" target="_top" xlink:title="icpStereoCreateHandle">
<polygon fill="white" stroke="black" points="329,-0.5 329,-19.5 447,-19.5 447,-0.5 329,-0.5"/>
<text text-anchor="middle" x="388" y="-7.5" font-family="Helvetica,sans-Serif" font-size="10.00">icpStereoCreateHandle</text>
</a>
</g>
</g>
<!-- Node2&#45;&gt;Node3 -->
<g id="edge2" class="edge"><title>Node2&#45;&gt;Node3</title>
<path fill="none" stroke="midnightblue" d="M293.425,-10C301.752,-10 310.297,-10 318.676,-10"/>
<polygon fill="midnightblue" stroke="midnightblue" points="318.788,-13.5001 328.788,-10 318.788,-6.5001 318.788,-13.5001"/>
</g>
</g>
</svg>
