<?xml version="1.0" encoding="UTF-8" standalone="no"?>
<!DOCTYPE svg PUBLIC "-//W3C//DTD SVG 1.1//EN"
 "http://www.w3.org/Graphics/SVG/1.1/DTD/svg11.dtd">
<!-- Generated by graphviz version 2.38.0 (20140413.2041)
 -->
<!-- Title: arPattGetIDGlobal Pages: 1 -->
<svg width="458pt" height="65pt"
 viewBox="0.00 0.00 458.00 64.61" xmlns="http://www.w3.org/2000/svg" xmlns:xlink="http://www.w3.org/1999/xlink">
<g id="graph0" class="graph" transform="scale(1 1) rotate(0) translate(4 60.6073)">
<title>arPattGetIDGlobal</title>
<polygon fill="white" stroke="none" points="-4,4 -4,-60.6073 454,-60.6073 454,4 -4,4"/>
<!-- Node1 -->
<g id="node1" class="node"><title>Node1</title>
<polygon fill="#bfbfbf" stroke="black" points="0,-2.67075 0,-21.6707 97,-21.6707 97,-2.67075 0,-2.67075"/>
<text text-anchor="middle" x="48.5" y="-9.67075" font-family="Helvetica,sans-Serif" font-size="10.00">arPattGetIDGlobal</text>
</g>
<!-- Node2 -->
<g id="node2" class="node"><title>Node2</title>
<g id="a_node2"><a xlink:href="ar_patt_get_i_d_8c.html#a85629f26a05cd8cb8644c5e95e581d4d" target="_top" xlink:title="Extract the image (i.e. locate and unwarp) of the pattern&#45;space portion of a detected square...">
<polygon fill="white" stroke="black" points="133,-21.6707 133,-40.6707 224,-40.6707 224,-21.6707 133,-21.6707"/>
<text text-anchor="middle" x="178.5" y="-28.6707" font-family="Helvetica,sans-Serif" font-size="10.00">arPattGetImage2</text>
</a>
</g>
</g>
<!-- Node1&#45;&gt;Node2 -->
<g id="edge1" class="edge"><title>Node1&#45;&gt;Node2</title>
<path fill="none" stroke="midnightblue" d="M97.1625,-19.2456C105.541,-20.4893 114.32,-21.7924 122.87,-23.0616"/>
<polygon fill="midnightblue" stroke="midnightblue" points="122.36,-26.5242 132.766,-24.5305 123.388,-19.6 122.36,-26.5242"/>
</g>
<!-- Node3 -->
<g id="node3" class="node"><title>Node3</title>
<g id="a_node3"><a xlink:href="ioapi_8h.html#a787fa3cf048117ba7123753c1e74fcd6" target="_top" xlink:title="int">
<polygon fill="white" stroke="black" points="421,-21.6707 421,-40.6707 450,-40.6707 450,-21.6707 421,-21.6707"/>
<text text-anchor="middle" x="435.5" y="-28.6707" font-family="Helvetica,sans-Serif" font-size="10.00">int</text>
</a>
</g>
</g>
<!-- Node1&#45;&gt;Node3 -->
<g id="edge5" class="edge"><title>Node1&#45;&gt;Node3</title>
<path fill="none" stroke="midnightblue" d="M97.2251,-6.75077C162.739,-0.535415 283.916,6.56287 385,-12.1707 393.88,-13.8164 403.224,-16.9913 411.372,-20.2816"/>
<polygon fill="midnightblue" stroke="midnightblue" points="410.037,-23.5174 420.606,-24.2572 412.805,-17.088 410.037,-23.5174"/>
</g>
<!-- Node2&#45;&gt;Node3 -->
<g id="edge2" class="edge"><title>Node2&#45;&gt;Node3</title>
<path fill="none" stroke="midnightblue" d="M212.094,-40.6775C226.62,-44.4419 244.025,-48.311 260,-50.1707 315.183,-56.5948 330.375,-60.2943 385,-50.1707 393.88,-48.5251 403.224,-45.3502 411.372,-42.0599"/>
<polygon fill="midnightblue" stroke="midnightblue" points="412.805,-45.2535 420.606,-38.0843 410.037,-38.8241 412.805,-45.2535"/>
</g>
<!-- Node4 -->
<g id="node4" class="node"><title>Node4</title>
<g id="a_node4"><a xlink:href="param_8h.html#af28ec15693678c1e60242cf44e1c1a3f" target="_top" xlink:title="Use a lookup&#45;table camera parameter to convert idealised (zero&#45;distortion) window coordinates to obse...">
<polygon fill="white" stroke="black" points="260,-21.6707 260,-40.6707 385,-40.6707 385,-21.6707 260,-21.6707"/>
<text text-anchor="middle" x="322.5" y="-28.6707" font-family="Helvetica,sans-Serif" font-size="10.00">arParamIdeal2ObservLTf</text>
</a>
</g>
</g>
<!-- Node2&#45;&gt;Node4 -->
<g id="edge3" class="edge"><title>Node2&#45;&gt;Node4</title>
<path fill="none" stroke="midnightblue" d="M224.04,-31.1707C232.224,-31.1707 240.956,-31.1707 249.704,-31.1707"/>
<polygon fill="midnightblue" stroke="midnightblue" points="249.949,-34.6708 259.949,-31.1707 249.949,-27.6708 249.949,-34.6708"/>
</g>
<!-- Node4&#45;&gt;Node3 -->
<g id="edge4" class="edge"><title>Node4&#45;&gt;Node3</title>
<path fill="none" stroke="midnightblue" d="M385.167,-31.1707C394.153,-31.1707 402.919,-31.1707 410.51,-31.1707"/>
<polygon fill="midnightblue" stroke="midnightblue" points="410.678,-34.6708 420.678,-31.1707 410.678,-27.6708 410.678,-34.6708"/>
</g>
</g>
</svg>
