<?xml version="1.0" encoding="UTF-8" standalone="no"?>
<!DOCTYPE svg PUBLIC "-//W3C//DTD SVG 1.1//EN"
 "http://www.w3.org/Graphics/SVG/1.1/DTD/svg11.dtd">
<!-- Generated by graphviz version 2.38.0 (20140413.2041)
 -->
<!-- Title: arUtilChangeToResourcesDirectory Pages: 1 -->
<svg width="787pt" height="151pt"
 viewBox="0.00 0.00 787.00 151.00" xmlns="http://www.w3.org/2000/svg" xmlns:xlink="http://www.w3.org/1999/xlink">
<g id="graph0" class="graph" transform="scale(1 1) rotate(0) translate(4 147)">
<title>arUtilChangeToResourcesDirectory</title>
<polygon fill="white" stroke="none" points="-4,4 -4,-147 783,-147 783,4 -4,4"/>
<!-- Node1 -->
<g id="node1" class="node"><title>Node1</title>
<polygon fill="#bfbfbf" stroke="black" points="0,-41.5 0,-60.5 172,-60.5 172,-41.5 0,-41.5"/>
<text text-anchor="middle" x="86" y="-48.5" font-family="Helvetica,sans-Serif" font-size="10.00">arUtilChangeToResourcesDirectory</text>
</g>
<!-- Node2 -->
<g id="node2" class="node"><title>Node2</title>
<g id="a_node2"><a xlink:href="ar_util_8c.html#ad5271b5188c065012893079f667e2eac" target="_top" xlink:title="Get the path to the resources directory using the specified behavior. ">
<polygon fill="white" stroke="black" points="208,-41.5 208,-60.5 371,-60.5 371,-41.5 208,-41.5"/>
<text text-anchor="middle" x="289.5" y="-48.5" font-family="Helvetica,sans-Serif" font-size="10.00">arUtilGetResourcesDirectoryPath</text>
</a>
</g>
</g>
<!-- Node1&#45;&gt;Node2 -->
<g id="edge1" class="edge"><title>Node1&#45;&gt;Node2</title>
<path fill="none" stroke="midnightblue" d="M172.162,-51C180.562,-51 189.11,-51 197.565,-51"/>
<polygon fill="midnightblue" stroke="midnightblue" points="197.815,-54.5001 207.815,-51 197.815,-47.5001 197.815,-54.5001"/>
</g>
<!-- Node2&#45;&gt;Node2 -->
<g id="edge4" class="edge"><title>Node2&#45;&gt;Node2</title>
<path fill="none" stroke="midnightblue" d="M258.982,-60.7571C244.136,-69.5653 254.309,-79 289.5,-79 314.244,-79 326.619,-74.3356 326.625,-68.5043"/>
<polygon fill="midnightblue" stroke="midnightblue" points="329.17,-66.0944 320.018,-60.7571 323.844,-70.6369 329.17,-66.0944"/>
</g>
<!-- Node3 -->
<g id="node3" class="node"><title>Node3</title>
<g id="a_node3"><a xlink:href="ar_util_8c.html#ae4f3e60c7edce9acfdddb9b454d13c1d" target="_top" xlink:title="arUtilGetDirectoryNameFromPath">
<polygon fill="white" stroke="black" points="407,-123.5 407,-142.5 571,-142.5 571,-123.5 407,-123.5"/>
<text text-anchor="middle" x="489" y="-130.5" font-family="Helvetica,sans-Serif" font-size="10.00">arUtilGetDirectoryNameFromPath</text>
</a>
</g>
</g>
<!-- Node2&#45;&gt;Node3 -->
<g id="edge2" class="edge"><title>Node2&#45;&gt;Node3</title>
<path fill="none" stroke="midnightblue" d="M305.336,-60.7028C326.897,-74.4057 368.524,-99.3828 407,-114 413.777,-116.574 421.009,-118.87 428.259,-120.896"/>
<polygon fill="midnightblue" stroke="midnightblue" points="427.552,-124.33 438.114,-123.494 429.336,-117.561 427.552,-124.33"/>
</g>
<!-- Node4 -->
<g id="node4" class="node"><title>Node4</title>
<g id="a_node4"><a xlink:href="ar_util_8c.html#ac0d48e09db3feb8db34b2911ca70f8d0" target="_top" xlink:title="arUtilGetFileNameFromPath">
<polygon fill="white" stroke="black" points="419,-85.5 419,-104.5 559,-104.5 559,-85.5 419,-85.5"/>
<text text-anchor="middle" x="489" y="-92.5" font-family="Helvetica,sans-Serif" font-size="10.00">arUtilGetFileNameFromPath</text>
</a>
</g>
</g>
<!-- Node2&#45;&gt;Node4 -->
<g id="edge3" class="edge"><title>Node2&#45;&gt;Node4</title>
<path fill="none" stroke="midnightblue" d="M333.355,-60.5473C363.247,-67.2069 403.328,-76.1363 435.195,-83.2358"/>
<polygon fill="midnightblue" stroke="midnightblue" points="434.707,-86.7129 445.229,-85.4713 436.229,-79.8804 434.707,-86.7129"/>
</g>
<!-- Node5 -->
<g id="node5" class="node"><title>Node5</title>
<g id="a_node5"><a xlink:href="ar_util_8c.html#aee3916e59439c65e24bd1e79c8579052" target="_top" xlink:title="Get the path to the resources directory using the specified behavior, creating the path if it doesn&#39;t...">
<polygon fill="white" stroke="black" points="414.5,-36 414.5,-66 563.5,-66 563.5,-36 414.5,-36"/>
<text text-anchor="start" x="422.5" y="-54" font-family="Helvetica,sans-Serif" font-size="10.00">arUtilGetAndCreateResources</text>
<text text-anchor="middle" x="489" y="-43" font-family="Helvetica,sans-Serif" font-size="10.00">DirectoryPath</text>
</a>
</g>
</g>
<!-- Node2&#45;&gt;Node5 -->
<g id="edge5" class="edge"><title>Node2&#45;&gt;Node5</title>
<path fill="none" stroke="midnightblue" d="M371.116,-44.3522C382.059,-44.2276 393.309,-44.2169 404.305,-44.3202"/>
<polygon fill="midnightblue" stroke="midnightblue" points="404.271,-47.82 414.315,-44.4471 404.36,-40.8205 404.271,-47.82"/>
</g>
<!-- Node5&#45;&gt;Node2 -->
<g id="edge6" class="edge"><title>Node5&#45;&gt;Node2</title>
<path fill="none" stroke="midnightblue" d="M414.315,-57.5529C403.528,-57.7259 392.314,-57.785 381.236,-57.7302"/>
<polygon fill="midnightblue" stroke="midnightblue" points="381.144,-54.2294 371.116,-57.6478 381.087,-61.2292 381.144,-54.2294"/>
</g>
<!-- Node6 -->
<g id="node6" class="node"><title>Node6</title>
<g id="a_node6"><a xlink:href="file__utils_8c.html#a9ea670a576a1537cb0a8d35778c0bbbc" target="_top" xlink:title="test_d">
<polygon fill="white" stroke="black" points="671,-77.5 671,-96.5 715,-96.5 715,-77.5 671,-77.5"/>
<text text-anchor="middle" x="693" y="-84.5" font-family="Helvetica,sans-Serif" font-size="10.00">test_d</text>
</a>
</g>
</g>
<!-- Node5&#45;&gt;Node6 -->
<g id="edge7" class="edge"><title>Node5&#45;&gt;Node6</title>
<path fill="none" stroke="midnightblue" d="M563.784,-64.1496C597.265,-70.1165 635.057,-76.8518 660.887,-81.4551"/>
<polygon fill="midnightblue" stroke="midnightblue" points="660.38,-84.9199 670.839,-83.2288 661.608,-78.0285 660.38,-84.9199"/>
</g>
<!-- Node7 -->
<g id="node7" class="node"><title>Node7</title>
<g id="a_node7"><a xlink:href="file__utils_8c.html#a6d0adb35b2ec47f5a5d3d9c2e424532a" target="_top" xlink:title="mkdir_p">
<polygon fill="white" stroke="black" points="667.5,-39.5 667.5,-58.5 718.5,-58.5 718.5,-39.5 667.5,-39.5"/>
<text text-anchor="middle" x="693" y="-46.5" font-family="Helvetica,sans-Serif" font-size="10.00">mkdir_p</text>
</a>
</g>
</g>
<!-- Node5&#45;&gt;Node7 -->
<g id="edge8" class="edge"><title>Node5&#45;&gt;Node7</title>
<path fill="none" stroke="midnightblue" d="M563.784,-50.2695C595.538,-49.9551 631.171,-49.6023 656.797,-49.3485"/>
<polygon fill="midnightblue" stroke="midnightblue" points="657.162,-52.8452 667.127,-49.2463 657.093,-45.8455 657.162,-52.8452"/>
</g>
<!-- Node8 -->
<g id="node8" class="node"><title>Node8</title>
<g id="a_node8"><a xlink:href="ar_util_8c.html#acd9f679696c2c26b378e434f6d78ae7d" target="_top" xlink:title="Change to the resources directory using the specified behavior. ">
<polygon fill="white" stroke="black" points="607,-0.5 607,-19.5 779,-19.5 779,-0.5 607,-0.5"/>
<text text-anchor="middle" x="693" y="-7.5" font-family="Helvetica,sans-Serif" font-size="10.00">arUtilChangeToResourcesDirectory</text>
</a>
</g>
</g>
<!-- Node5&#45;&gt;Node8 -->
<g id="edge9" class="edge"><title>Node5&#45;&gt;Node8</title>
<path fill="none" stroke="midnightblue" d="M563.784,-36.024C587.338,-31.2432 613.026,-26.0293 635.182,-21.5324"/>
<polygon fill="midnightblue" stroke="midnightblue" points="635.988,-24.9402 645.092,-19.5209 634.596,-18.08 635.988,-24.9402"/>
</g>
<!-- Node8&#45;&gt;Node2 -->
<g id="edge10" class="edge"><title>Node8&#45;&gt;Node2</title>
<path fill="none" stroke="midnightblue" d="M606.872,-11.3273C550.056,-13.0595 473.796,-17.0135 407,-26 384.008,-29.0933 358.803,-34.2742 337.736,-39.12"/>
<polygon fill="midnightblue" stroke="midnightblue" points="336.691,-35.7701 327.754,-41.4613 338.289,-42.5851 336.691,-35.7701"/>
</g>
</g>
</svg>
