<?xml version="1.0" encoding="UTF-8" standalone="no"?>
<!DOCTYPE svg PUBLIC "-//W3C//DTD SVG 1.1//EN"
 "http://www.w3.org/Graphics/SVG/1.1/DTD/svg11.dtd">
<!-- Generated by graphviz version 2.38.0 (20140413.2041)
 -->
<!-- Title: arGetStereoMatchingErrorSquare Pages: 1 -->
<!--zoomable 180 -->
<svg id="main" version="1.1" xmlns="http://www.w3.org/2000/svg" xmlns:xlink="http://www.w3.org/1999/xlink" xml:space="preserve" onload="init(evt)">
<style type="text/css"><![CDATA[
.edge:hover path { stroke: red; }
.edge:hover polygon { stroke: red; fill: red; }
]]></style>
<script type="text/javascript"><![CDATA[
var edges = document.getElementsByTagName('g');
if (edges && edges.length) {
  for (var i=0;i<edges.length;i++) {
    if (edges[i].id.substr(0,4)=='edge') {
      edges[i].setAttribute('class','edge');
    }
  }
}
]]></script>
        <defs>
                <circle id="rim" cx="0" cy="0" r="7"/>
                <circle id="rim2" cx="0" cy="0" r="3.5"/>
                <g id="zoomPlus">
                        <use xlink:href="#rim" fill="#404040">
                                <set attributeName="fill" to="#808080" begin="zoomplus.mouseover" end="zoomplus.mouseout"/>
                        </use>
                        <path d="M-4,0h8M0,-4v8" fill="none" stroke="white" stroke-width="1.5" pointer-events="none"/>
                </g>
                <g id="zoomMin">
                        <use xlink:href="#rim" fill="#404040">
                                <set attributeName="fill" to="#808080" begin="zoomminus.mouseover" end="zoomminus.mouseout"/>
                        </use>
                        <path d="M-4,0h8" fill="none" stroke="white" stroke-width="1.5" pointer-events="none"/>
                </g>
                <g id="dirArrow">
                        <path fill="none" stroke="white" stroke-width="1.5" d="M0,-3.0v7 M-2.5,-0.5L0,-3.0L2.5,-0.5"/>
                </g>
               <g id="resetDef">
                       <use xlink:href="#rim2" fill="#404040">
                               <set attributeName="fill" to="#808080" begin="reset.mouseover" end="reset.mouseout"/>
                       </use>
               </g>
        </defs>

<script type="text/javascript">
var viewWidth = 658;
var viewHeight = 180;
var sectionId = 'dynsection-24';
</script>
<script xlink:href="svgpan.js"/>
<svg id="graph" class="graph">
<g id="viewport">
<title>arGetStereoMatchingErrorSquare</title>
<polygon fill="white" stroke="none" points="-4,4 -4,-176 654,-176 654,4 -4,4"/>
<!-- Node1 -->
<g id="node1" class="node"><title>Node1</title>
<polygon fill="#bfbfbf" stroke="black" points="0,-52 0,-82 130,-82 130,-52 0,-52"/>
<text text-anchor="start" x="8" y="-70" font-family="Helvetica,sans-Serif" font-size="10.00">arGetStereoMatchingError</text>
<text text-anchor="middle" x="65" y="-59" font-family="Helvetica,sans-Serif" font-size="10.00">Square</text>
</g>
<!-- Node2 -->
<g id="node2" class="node"><title>Node2</title>
<g id="a_node2"><a xlink:href="ar3_d_util_8c.html#a1397dc905f26dd196deb79b07e983484" target="_top" xlink:title="arGetStereoMatchingError">
<polygon fill="white" stroke="black" points="166,-57.5 166,-76.5 296,-76.5 296,-57.5 166,-57.5"/>
<text text-anchor="middle" x="231" y="-64.5" font-family="Helvetica,sans-Serif" font-size="10.00">arGetStereoMatchingError</text>
</a>
</g>
</g>
<!-- Node1&#45;&gt;Node2 -->
<g id="edge1" class="edge"><title>Node1&#45;&gt;Node2</title>
<path fill="none" stroke="midnightblue" d="M130.346,-67C138.64,-67 147.187,-67 155.625,-67"/>
<polygon fill="midnightblue" stroke="midnightblue" points="155.839,-70.5001 165.839,-67 155.839,-63.5001 155.839,-70.5001"/>
</g>
<!-- Node3 -->
<g id="node3" class="node"><title>Node3</title>
<g id="a_node3"><a xlink:href="_a_r_2include_2_a_r6_2_a_r_2matrix_8h.html#a7169e4124d09fcbe1b8730ade678d64d" target="_top" xlink:title="arMatrixAlloc">
<polygon fill="white" stroke="black" points="457,-95.5 457,-114.5 531,-114.5 531,-95.5 457,-95.5"/>
<text text-anchor="middle" x="494" y="-102.5" font-family="Helvetica,sans-Serif" font-size="10.00">arMatrixAlloc</text>
</a>
</g>
</g>
<!-- Node2&#45;&gt;Node3 -->
<g id="edge2" class="edge"><title>Node2&#45;&gt;Node3</title>
<path fill="none" stroke="midnightblue" d="M296.182,-76.3445C342.894,-83.1455 405.047,-92.1945 446.906,-98.289"/>
<polygon fill="midnightblue" stroke="midnightblue" points="446.426,-101.756 456.826,-99.7333 447.435,-94.829 446.426,-101.756"/>
</g>
<!-- Node4 -->
<g id="node4" class="node"><title>Node4</title>
<g id="a_node4"><a xlink:href="_a_r_2include_2_a_r6_2_a_r_2matrix_8h.html#ab9ad3d00092c818fe63eb37184983069" target="_top" xlink:title="arMatrixAllocInv">
<polygon fill="white" stroke="black" points="333,-133.5 333,-152.5 420,-152.5 420,-133.5 333,-133.5"/>
<text text-anchor="middle" x="376.5" y="-140.5" font-family="Helvetica,sans-Serif" font-size="10.00">arMatrixAllocInv</text>
</a>
</g>
</g>
<!-- Node2&#45;&gt;Node4 -->
<g id="edge3" class="edge"><title>Node2&#45;&gt;Node4</title>
<path fill="none" stroke="midnightblue" d="M250.174,-76.6255C274.974,-89.7597 319.612,-113.401 348.378,-128.636"/>
<polygon fill="midnightblue" stroke="midnightblue" points="346.998,-131.865 357.473,-133.453 350.274,-125.679 346.998,-131.865"/>
</g>
<!-- Node8 -->
<g id="node8" class="node"><title>Node8</title>
<g id="a_node8"><a xlink:href="_a_r_2include_2_a_r6_2_a_r_2matrix_8h.html#ac4b7a714cce9fffda773d86363380454" target="_top" xlink:title="arMatrixFree">
<polygon fill="white" stroke="black" points="458.5,-57.5 458.5,-76.5 529.5,-76.5 529.5,-57.5 458.5,-57.5"/>
<text text-anchor="middle" x="494" y="-64.5" font-family="Helvetica,sans-Serif" font-size="10.00">arMatrixFree</text>
</a>
</g>
</g>
<!-- Node2&#45;&gt;Node8 -->
<g id="edge14" class="edge"><title>Node2&#45;&gt;Node8</title>
<path fill="none" stroke="midnightblue" d="M296.182,-67C343.352,-67 406.266,-67 448.131,-67"/>
<polygon fill="midnightblue" stroke="midnightblue" points="448.299,-70.5001 458.299,-67 448.299,-63.5001 448.299,-70.5001"/>
</g>
<!-- Node9 -->
<g id="node9" class="node"><title>Node9</title>
<g id="a_node9"><a xlink:href="_a_r_2include_2_a_r6_2_a_r_2matrix_8h.html#a4d8d5ab04ba588d275e08c9f92694925" target="_top" xlink:title="arMatrixAllocMul">
<polygon fill="white" stroke="black" points="332,-19.5 332,-38.5 421,-38.5 421,-19.5 332,-19.5"/>
<text text-anchor="middle" x="376.5" y="-26.5" font-family="Helvetica,sans-Serif" font-size="10.00">arMatrixAllocMul</text>
</a>
</g>
</g>
<!-- Node2&#45;&gt;Node9 -->
<g id="edge9" class="edge"><title>Node2&#45;&gt;Node9</title>
<path fill="none" stroke="midnightblue" d="M268.211,-57.411C286.821,-52.4831 309.697,-46.4251 329.539,-41.1709"/>
<polygon fill="midnightblue" stroke="midnightblue" points="330.53,-44.5292 339.3,-38.5859 328.738,-37.7625 330.53,-44.5292"/>
</g>
<!-- Node10 -->
<g id="node10" class="node"><title>Node10</title>
<g id="a_node10"><a xlink:href="_a_r_2include_2_a_r6_2_a_r_2matrix_8h.html#a202bc2db43d563792c99e852ea0b7ba4" target="_top" xlink:title="arMatrixMul">
<polygon fill="white" stroke="black" points="460,-0.5 460,-19.5 528,-19.5 528,-0.5 460,-0.5"/>
<text text-anchor="middle" x="494" y="-7.5" font-family="Helvetica,sans-Serif" font-size="10.00">arMatrixMul</text>
</a>
</g>
</g>
<!-- Node2&#45;&gt;Node10 -->
<g id="edge13" class="edge"><title>Node2&#45;&gt;Node10</title>
<path fill="none" stroke="midnightblue" d="M244.014,-57.3479C261.917,-43.6505 297.23,-19.2136 332,-10 370.887,0.304469 416.936,-0.977457 449.804,-4.07493"/>
<polygon fill="midnightblue" stroke="midnightblue" points="449.679,-7.58061 459.987,-5.13201 450.401,-0.618033 449.679,-7.58061"/>
</g>
<!-- Node4&#45;&gt;Node3 -->
<g id="edge4" class="edge"><title>Node4&#45;&gt;Node3</title>
<path fill="none" stroke="midnightblue" d="M406.646,-133.411C421.008,-128.686 438.529,-122.921 454.026,-117.823"/>
<polygon fill="midnightblue" stroke="midnightblue" points="455.459,-121.036 463.864,-114.586 453.271,-114.387 455.459,-121.036"/>
</g>
<!-- Node5 -->
<g id="node5" class="node"><title>Node5</title>
<g id="a_node5"><a xlink:href="_a_r_2include_2_a_r6_2_a_r_2matrix_8h.html#abebae87acb77ccf8cd0c5da106238a86" target="_top" xlink:title="arMatrixInv">
<polygon fill="white" stroke="black" points="461.5,-133.5 461.5,-152.5 526.5,-152.5 526.5,-133.5 461.5,-133.5"/>
<text text-anchor="middle" x="494" y="-140.5" font-family="Helvetica,sans-Serif" font-size="10.00">arMatrixInv</text>
</a>
</g>
</g>
<!-- Node4&#45;&gt;Node5 -->
<g id="edge5" class="edge"><title>Node4&#45;&gt;Node5</title>
<path fill="none" stroke="midnightblue" d="M420.18,-143C430.291,-143 441.065,-143 451.139,-143"/>
<polygon fill="midnightblue" stroke="midnightblue" points="451.327,-146.5 461.327,-143 451.327,-139.5 451.327,-146.5"/>
</g>
<!-- Node4&#45;&gt;Node8 -->
<g id="edge8" class="edge"><title>Node4&#45;&gt;Node8</title>
<path fill="none" stroke="midnightblue" d="M389.804,-133.373C405.126,-121.575 432.3,-101.274 457,-86 459.479,-84.4668 462.094,-82.9344 464.737,-81.4423"/>
<polygon fill="midnightblue" stroke="midnightblue" points="466.559,-84.4355 473.671,-76.5822 463.214,-78.2864 466.559,-84.4355"/>
</g>
<!-- Node6 -->
<g id="node6" class="node"><title>Node6</title>
<g id="a_node6"><a xlink:href="_a_r_2include_2_a_r6_2_a_r_2matrix_8h.html#a988e4c76394edccbf1e86005b97f725a" target="_top" xlink:title="arMatrixDup">
<polygon fill="white" stroke="black" points="573.5,-152.5 573.5,-171.5 643.5,-171.5 643.5,-152.5 573.5,-152.5"/>
<text text-anchor="middle" x="608.5" y="-159.5" font-family="Helvetica,sans-Serif" font-size="10.00">arMatrixDup</text>
</a>
</g>
</g>
<!-- Node5&#45;&gt;Node6 -->
<g id="edge6" class="edge"><title>Node5&#45;&gt;Node6</title>
<path fill="none" stroke="midnightblue" d="M526.637,-148.343C538.01,-150.264 551.055,-152.467 563.301,-154.535"/>
<polygon fill="midnightblue" stroke="midnightblue" points="562.902,-158.017 573.345,-156.232 564.068,-151.115 562.902,-158.017"/>
</g>
<!-- Node7 -->
<g id="node7" class="node"><title>Node7</title>
<g id="a_node7"><a xlink:href="_a_r_2include_2_a_r6_2_a_r_2matrix_8h.html#a929738025b539a0c1bbd2f395ad4d981" target="_top" xlink:title="arMatrixSelfInv">
<polygon fill="white" stroke="black" points="567,-114.5 567,-133.5 650,-133.5 650,-114.5 567,-114.5"/>
<text text-anchor="middle" x="608.5" y="-121.5" font-family="Helvetica,sans-Serif" font-size="10.00">arMatrixSelfInv</text>
</a>
</g>
</g>
<!-- Node5&#45;&gt;Node7 -->
<g id="edge7" class="edge"><title>Node5&#45;&gt;Node7</title>
<path fill="none" stroke="midnightblue" d="M526.637,-137.657C535.995,-136.076 546.486,-134.305 556.732,-132.574"/>
<polygon fill="midnightblue" stroke="midnightblue" points="557.568,-135.983 566.845,-130.866 556.402,-129.08 557.568,-135.983"/>
</g>
<!-- Node9&#45;&gt;Node3 -->
<g id="edge10" class="edge"><title>Node9&#45;&gt;Node3</title>
<path fill="none" stroke="midnightblue" d="M389.804,-38.6273C405.126,-50.4247 432.3,-70.726 457,-86 459.479,-87.5332 462.094,-89.0656 464.737,-90.5577"/>
<polygon fill="midnightblue" stroke="midnightblue" points="463.214,-93.7136 473.671,-95.4178 466.559,-87.5645 463.214,-93.7136"/>
</g>
<!-- Node9&#45;&gt;Node8 -->
<g id="edge12" class="edge"><title>Node9&#45;&gt;Node8</title>
<path fill="none" stroke="midnightblue" d="M406.646,-38.589C421.008,-43.3144 438.529,-49.0789 454.026,-54.1774"/>
<polygon fill="midnightblue" stroke="midnightblue" points="453.271,-57.6134 463.864,-57.4141 455.459,-50.9641 453.271,-57.6134"/>
</g>
<!-- Node9&#45;&gt;Node10 -->
<g id="edge11" class="edge"><title>Node9&#45;&gt;Node10</title>
<path fill="none" stroke="midnightblue" d="M421.166,-21.8169C430.548,-20.2734 440.459,-18.6431 449.823,-17.1027"/>
<polygon fill="midnightblue" stroke="midnightblue" points="450.419,-20.5517 459.719,-15.4749 449.283,-13.6446 450.419,-20.5517"/>
</g>
</g>
</svg>
        <g id="navigator" transform="translate(0 0)" fill="#404254">
                <rect fill="#f2f5e9" fill-opacity="0.5" stroke="#606060" stroke-width=".5" x="0" y="0" width="60" height="60"/>
                <use id="zoomplus" xlink:href="#zoomPlus" x="17" y="9" onmousedown="handleZoom(evt,'in')"/>
                <use id="zoomminus" xlink:href="#zoomMin" x="42" y="9" onmousedown="handleZoom(evt,'out')"/>
                <use id="reset" xlink:href="#resetDef" x="30" y="36" onmousedown="handleReset()"/>
                <g id="arrowUp" xlink:href="#dirArrow" transform="translate(30 24)" onmousedown="handlePan(0,-1)">
                  <use xlink:href="#rim" fill="#404040">
                        <set attributeName="fill" to="#808080" begin="arrowUp.mouseover" end="arrowUp.mouseout"/>
                  </use>
                  <path fill="none" stroke="white" stroke-width="1.5" d="M0,-3.0v7 M-2.5,-0.5L0,-3.0L2.5,-0.5"/>
                </g>
                <g id="arrowRight" xlink:href="#dirArrow" transform="rotate(90) translate(36 -43)" onmousedown="handlePan(1,0)">
                  <use xlink:href="#rim" fill="#404040">
                        <set attributeName="fill" to="#808080" begin="arrowRight.mouseover" end="arrowRight.mouseout"/>
                  </use>
                  <path fill="none" stroke="white" stroke-width="1.5" d="M0,-3.0v7 M-2.5,-0.5L0,-3.0L2.5,-0.5"/>
                </g>
                <g id="arrowDown" xlink:href="#dirArrow" transform="rotate(180) translate(-30 -48)" onmousedown="handlePan(0,1)">
                  <use xlink:href="#rim" fill="#404040">
                        <set attributeName="fill" to="#808080" begin="arrowDown.mouseover" end="arrowDown.mouseout"/>
                  </use>
                  <path fill="none" stroke="white" stroke-width="1.5" d="M0,-3.0v7 M-2.5,-0.5L0,-3.0L2.5,-0.5"/>
                </g>
                <g id="arrowLeft" xlink:href="#dirArrow" transform="rotate(270) translate(-36 17)" onmousedown="handlePan(-1,0)">
                  <use xlink:href="#rim" fill="#404040">
                        <set attributeName="fill" to="#808080" begin="arrowLeft.mouseover" end="arrowLeft.mouseout"/>
                  </use>
                  <path fill="none" stroke="white" stroke-width="1.5" d="M0,-3.0v7 M-2.5,-0.5L0,-3.0L2.5,-0.5"/>
                </g>
        </g>
        <svg viewBox="0 0 15 15" width="100%" height="30px" preserveAspectRatio="xMaxYMin meet">
         <g id="arrow_out" transform="scale(0.3 0.3)">
          <a xlink:href="ar_8h_a65bd9329ac9a1e8d3ca04c938dfc7fd2_cgraph_org.svg" target="_base">
           <rect id="button" ry="5" rx="5" y="6" x="6" height="38" width="38"
                fill="#f2f5e9" fill-opacity="0.5" stroke="#606060" stroke-width="1.0"/>
           <path id="arrow"
             d="M 11.500037,31.436501 C 11.940474,20.09759 22.043105,11.32322 32.158766,21.979434 L 37.068811,17.246167 C 37.068811,17.246167 37.088388,32 37.088388,32 L 22.160133,31.978069 C 22.160133,31.978069 26.997745,27.140456 26.997745,27.140456 C 18.528582,18.264221 13.291696,25.230495 11.500037,31.436501 z"
             style="fill:#404040;"/>
          </a>
         </g>
        </svg>
</svg>
