<?xml version="1.0" encoding="UTF-8" standalone="no"?>
<!DOCTYPE svg PUBLIC "-//W3C//DTD SVG 1.1//EN"
 "http://www.w3.org/Graphics/SVG/1.1/DTD/svg11.dtd">
<!-- Generated by graphviz version 2.38.0 (20140413.2041)
 -->
<!-- Title: arPattGetID2 Pages: 1 -->
<!--zoomable 65 -->
<svg id="main" version="1.1" xmlns="http://www.w3.org/2000/svg" xmlns:xlink="http://www.w3.org/1999/xlink" xml:space="preserve" onload="init(evt)">
<style type="text/css"><![CDATA[
.edge:hover path { stroke: red; }
.edge:hover polygon { stroke: red; fill: red; }
]]></style>
<script type="text/javascript"><![CDATA[
var edges = document.getElementsByTagName('g');
if (edges && edges.length) {
  for (var i=0;i<edges.length;i++) {
    if (edges[i].id.substr(0,4)=='edge') {
      edges[i].setAttribute('class','edge');
    }
  }
}
]]></script>
        <defs>
                <circle id="rim" cx="0" cy="0" r="7"/>
                <circle id="rim2" cx="0" cy="0" r="3.5"/>
                <g id="zoomPlus">
                        <use xlink:href="#rim" fill="#404040">
                                <set attributeName="fill" to="#808080" begin="zoomplus.mouseover" end="zoomplus.mouseout"/>
                        </use>
                        <path d="M-4,0h8M0,-4v8" fill="none" stroke="white" stroke-width="1.5" pointer-events="none"/>
                </g>
                <g id="zoomMin">
                        <use xlink:href="#rim" fill="#404040">
                                <set attributeName="fill" to="#808080" begin="zoomminus.mouseover" end="zoomminus.mouseout"/>
                        </use>
                        <path d="M-4,0h8" fill="none" stroke="white" stroke-width="1.5" pointer-events="none"/>
                </g>
                <g id="dirArrow">
                        <path fill="none" stroke="white" stroke-width="1.5" d="M0,-3.0v7 M-2.5,-0.5L0,-3.0L2.5,-0.5"/>
                </g>
               <g id="resetDef">
                       <use xlink:href="#rim2" fill="#404040">
                               <set attributeName="fill" to="#808080" begin="reset.mouseover" end="reset.mouseout"/>
                       </use>
               </g>
        </defs>

<script type="text/javascript">
var viewWidth = 568;
var viewHeight = 65;
var sectionId = 'dynsection-37';
</script>
<script xlink:href="svgpan.js"/>
<svg id="graph" class="graph">
<g id="viewport">
<title>arPattGetID2</title>
<polygon fill="white" stroke="none" points="-4,4 -4,-60.6073 564,-60.6073 564,4 -4,4"/>
<!-- Node1 -->
<g id="node1" class="node"><title>Node1</title>
<polygon fill="#bfbfbf" stroke="black" points="0,-2.67075 0,-21.6707 74,-21.6707 74,-2.67075 0,-2.67075"/>
<text text-anchor="middle" x="37" y="-9.67075" font-family="Helvetica,sans-Serif" font-size="10.00">arPattGetID2</text>
</g>
<!-- Node2 -->
<g id="node2" class="node"><title>Node2</title>
<g id="a_node2"><a xlink:href="ar_patt_get_i_d_8c.html#acce963b8d7e85cedfcb4d33ece5f20db" target="_top" xlink:title="Match the interior of a detected square against known patterns with variable border width...">
<polygon fill="white" stroke="black" points="110,-2.67075 110,-21.6707 207,-21.6707 207,-2.67075 110,-2.67075"/>
<text text-anchor="middle" x="158.5" y="-9.67075" font-family="Helvetica,sans-Serif" font-size="10.00">arPattGetIDGlobal</text>
</a>
</g>
</g>
<!-- Node1&#45;&gt;Node2 -->
<g id="edge1" class="edge"><title>Node1&#45;&gt;Node2</title>
<path fill="none" stroke="midnightblue" d="M74.1782,-12.1707C82.2757,-12.1707 91.061,-12.1707 99.7883,-12.1707"/>
<polygon fill="midnightblue" stroke="midnightblue" points="99.962,-15.6708 109.962,-12.1707 99.9619,-8.67084 99.962,-15.6708"/>
</g>
<!-- Node3 -->
<g id="node3" class="node"><title>Node3</title>
<g id="a_node3"><a xlink:href="ar_patt_get_i_d_8c.html#a85629f26a05cd8cb8644c5e95e581d4d" target="_top" xlink:title="Extract the image (i.e. locate and unwarp) of the pattern&#45;space portion of a detected square...">
<polygon fill="white" stroke="black" points="243,-21.6707 243,-40.6707 334,-40.6707 334,-21.6707 243,-21.6707"/>
<text text-anchor="middle" x="288.5" y="-28.6707" font-family="Helvetica,sans-Serif" font-size="10.00">arPattGetImage2</text>
</a>
</g>
</g>
<!-- Node2&#45;&gt;Node3 -->
<g id="edge2" class="edge"><title>Node2&#45;&gt;Node3</title>
<path fill="none" stroke="midnightblue" d="M207.162,-19.2456C215.541,-20.4893 224.32,-21.7924 232.87,-23.0616"/>
<polygon fill="midnightblue" stroke="midnightblue" points="232.36,-26.5242 242.766,-24.5305 233.388,-19.6 232.36,-26.5242"/>
</g>
<!-- Node4 -->
<g id="node4" class="node"><title>Node4</title>
<g id="a_node4"><a xlink:href="ioapi_8h.html#a787fa3cf048117ba7123753c1e74fcd6" target="_top" xlink:title="int">
<polygon fill="white" stroke="black" points="531,-21.6707 531,-40.6707 560,-40.6707 560,-21.6707 531,-21.6707"/>
<text text-anchor="middle" x="545.5" y="-28.6707" font-family="Helvetica,sans-Serif" font-size="10.00">int</text>
</a>
</g>
</g>
<!-- Node2&#45;&gt;Node4 -->
<g id="edge6" class="edge"><title>Node2&#45;&gt;Node4</title>
<path fill="none" stroke="midnightblue" d="M207.225,-6.75077C272.739,-0.535415 393.916,6.56287 495,-12.1707 503.88,-13.8164 513.224,-16.9913 521.372,-20.2816"/>
<polygon fill="midnightblue" stroke="midnightblue" points="520.037,-23.5174 530.606,-24.2572 522.805,-17.088 520.037,-23.5174"/>
</g>
<!-- Node3&#45;&gt;Node4 -->
<g id="edge3" class="edge"><title>Node3&#45;&gt;Node4</title>
<path fill="none" stroke="midnightblue" d="M322.094,-40.6775C336.62,-44.4419 354.025,-48.311 370,-50.1707 425.183,-56.5948 440.375,-60.2943 495,-50.1707 503.88,-48.5251 513.224,-45.3502 521.372,-42.0599"/>
<polygon fill="midnightblue" stroke="midnightblue" points="522.805,-45.2535 530.606,-38.0843 520.037,-38.8241 522.805,-45.2535"/>
</g>
<!-- Node5 -->
<g id="node5" class="node"><title>Node5</title>
<g id="a_node5"><a xlink:href="param_8h.html#af28ec15693678c1e60242cf44e1c1a3f" target="_top" xlink:title="Use a lookup&#45;table camera parameter to convert idealised (zero&#45;distortion) window coordinates to obse...">
<polygon fill="white" stroke="black" points="370,-21.6707 370,-40.6707 495,-40.6707 495,-21.6707 370,-21.6707"/>
<text text-anchor="middle" x="432.5" y="-28.6707" font-family="Helvetica,sans-Serif" font-size="10.00">arParamIdeal2ObservLTf</text>
</a>
</g>
</g>
<!-- Node3&#45;&gt;Node5 -->
<g id="edge4" class="edge"><title>Node3&#45;&gt;Node5</title>
<path fill="none" stroke="midnightblue" d="M334.04,-31.1707C342.224,-31.1707 350.956,-31.1707 359.704,-31.1707"/>
<polygon fill="midnightblue" stroke="midnightblue" points="359.949,-34.6708 369.949,-31.1707 359.949,-27.6708 359.949,-34.6708"/>
</g>
<!-- Node5&#45;&gt;Node4 -->
<g id="edge5" class="edge"><title>Node5&#45;&gt;Node4</title>
<path fill="none" stroke="midnightblue" d="M495.167,-31.1707C504.153,-31.1707 512.919,-31.1707 520.51,-31.1707"/>
<polygon fill="midnightblue" stroke="midnightblue" points="520.678,-34.6708 530.678,-31.1707 520.678,-27.6708 520.678,-34.6708"/>
</g>
</g>
</svg>
        <g id="navigator" transform="translate(0 0)" fill="#404254">
                <rect fill="#f2f5e9" fill-opacity="0.5" stroke="#606060" stroke-width=".5" x="0" y="0" width="60" height="60"/>
                <use id="zoomplus" xlink:href="#zoomPlus" x="17" y="9" onmousedown="handleZoom(evt,'in')"/>
                <use id="zoomminus" xlink:href="#zoomMin" x="42" y="9" onmousedown="handleZoom(evt,'out')"/>
                <use id="reset" xlink:href="#resetDef" x="30" y="36" onmousedown="handleReset()"/>
                <g id="arrowUp" xlink:href="#dirArrow" transform="translate(30 24)" onmousedown="handlePan(0,-1)">
                  <use xlink:href="#rim" fill="#404040">
                        <set attributeName="fill" to="#808080" begin="arrowUp.mouseover" end="arrowUp.mouseout"/>
                  </use>
                  <path fill="none" stroke="white" stroke-width="1.5" d="M0,-3.0v7 M-2.5,-0.5L0,-3.0L2.5,-0.5"/>
                </g>
                <g id="arrowRight" xlink:href="#dirArrow" transform="rotate(90) translate(36 -43)" onmousedown="handlePan(1,0)">
                  <use xlink:href="#rim" fill="#404040">
                        <set attributeName="fill" to="#808080" begin="arrowRight.mouseover" end="arrowRight.mouseout"/>
                  </use>
                  <path fill="none" stroke="white" stroke-width="1.5" d="M0,-3.0v7 M-2.5,-0.5L0,-3.0L2.5,-0.5"/>
                </g>
                <g id="arrowDown" xlink:href="#dirArrow" transform="rotate(180) translate(-30 -48)" onmousedown="handlePan(0,1)">
                  <use xlink:href="#rim" fill="#404040">
                        <set attributeName="fill" to="#808080" begin="arrowDown.mouseover" end="arrowDown.mouseout"/>
                  </use>
                  <path fill="none" stroke="white" stroke-width="1.5" d="M0,-3.0v7 M-2.5,-0.5L0,-3.0L2.5,-0.5"/>
                </g>
                <g id="arrowLeft" xlink:href="#dirArrow" transform="rotate(270) translate(-36 17)" onmousedown="handlePan(-1,0)">
                  <use xlink:href="#rim" fill="#404040">
                        <set attributeName="fill" to="#808080" begin="arrowLeft.mouseover" end="arrowLeft.mouseout"/>
                  </use>
                  <path fill="none" stroke="white" stroke-width="1.5" d="M0,-3.0v7 M-2.5,-0.5L0,-3.0L2.5,-0.5"/>
                </g>
        </g>
        <svg viewBox="0 0 15 15" width="100%" height="30px" preserveAspectRatio="xMaxYMin meet">
         <g id="arrow_out" transform="scale(0.3 0.3)">
          <a xlink:href="ar_8h_a071ba5b145ecdb22b2100f0b1240a450_cgraph_org.svg" target="_base">
           <rect id="button" ry="5" rx="5" y="6" x="6" height="38" width="38"
                fill="#f2f5e9" fill-opacity="0.5" stroke="#606060" stroke-width="1.0"/>
           <path id="arrow"
             d="M 11.500037,31.436501 C 11.940474,20.09759 22.043105,11.32322 32.158766,21.979434 L 37.068811,17.246167 C 37.068811,17.246167 37.088388,32 37.088388,32 L 22.160133,31.978069 C 22.160133,31.978069 26.997745,27.140456 26.997745,27.140456 C 18.528582,18.264221 13.291696,25.230495 11.500037,31.436501 z"
             style="fill:#404040;"/>
          </a>
         </g>
        </svg>
</svg>
