<?xml version="1.0" encoding="UTF-8" standalone="no"?>
<!DOCTYPE svg PUBLIC "-//W3C//DTD SVG 1.1//EN"
 "http://www.w3.org/Graphics/SVG/1.1/DTD/svg11.dtd">
<!-- Generated by graphviz version 2.38.0 (20140413.2041)
 -->
<!-- Title: arGetTransMatStereo Pages: 1 -->
<!--zoomable 259 -->
<svg id="main" version="1.1" xmlns="http://www.w3.org/2000/svg" xmlns:xlink="http://www.w3.org/1999/xlink" xml:space="preserve" onload="init(evt)">
<style type="text/css"><![CDATA[
.edge:hover path { stroke: red; }
.edge:hover polygon { stroke: red; fill: red; }
]]></style>
<script type="text/javascript"><![CDATA[
var edges = document.getElementsByTagName('g');
if (edges && edges.length) {
  for (var i=0;i<edges.length;i++) {
    if (edges[i].id.substr(0,4)=='edge') {
      edges[i].setAttribute('class','edge');
    }
  }
}
]]></script>
        <defs>
                <circle id="rim" cx="0" cy="0" r="7"/>
                <circle id="rim2" cx="0" cy="0" r="3.5"/>
                <g id="zoomPlus">
                        <use xlink:href="#rim" fill="#404040">
                                <set attributeName="fill" to="#808080" begin="zoomplus.mouseover" end="zoomplus.mouseout"/>
                        </use>
                        <path d="M-4,0h8M0,-4v8" fill="none" stroke="white" stroke-width="1.5" pointer-events="none"/>
                </g>
                <g id="zoomMin">
                        <use xlink:href="#rim" fill="#404040">
                                <set attributeName="fill" to="#808080" begin="zoomminus.mouseover" end="zoomminus.mouseout"/>
                        </use>
                        <path d="M-4,0h8" fill="none" stroke="white" stroke-width="1.5" pointer-events="none"/>
                </g>
                <g id="dirArrow">
                        <path fill="none" stroke="white" stroke-width="1.5" d="M0,-3.0v7 M-2.5,-0.5L0,-3.0L2.5,-0.5"/>
                </g>
               <g id="resetDef">
                       <use xlink:href="#rim2" fill="#404040">
                               <set attributeName="fill" to="#808080" begin="reset.mouseover" end="reset.mouseout"/>
                       </use>
               </g>
        </defs>

<script type="text/javascript">
var viewWidth = 663;
var viewHeight = 259;
var sectionId = 'dynsection-31';
</script>
<script xlink:href="svgpan.js"/>
<svg id="graph" class="graph">
<g id="viewport">
<title>arGetTransMatStereo</title>
<polygon fill="white" stroke="none" points="-4,4 -4,-254.502 659,-254.502 659,4 -4,4"/>
<!-- Node1 -->
<g id="node1" class="node"><title>Node1</title>
<polygon fill="#bfbfbf" stroke="black" points="0,-136.002 0,-155.002 110,-155.002 110,-136.002 0,-136.002"/>
<text text-anchor="middle" x="55" y="-143.002" font-family="Helvetica,sans-Serif" font-size="10.00">arGetTransMatStereo</text>
</g>
<!-- Node2 -->
<g id="node2" class="node"><title>Node2</title>
<g id="a_node2"><a xlink:href="icp_stereo_point_8c.html#afa05ec4cb1c2537d535521e4ee42c5ac" target="_top" xlink:title="icpStereoPoint">
<polygon fill="white" stroke="black" points="146,-136.002 146,-155.002 226,-155.002 226,-136.002 146,-136.002"/>
<text text-anchor="middle" x="186" y="-143.002" font-family="Helvetica,sans-Serif" font-size="10.00">icpStereoPoint</text>
</a>
</g>
</g>
<!-- Node1&#45;&gt;Node2 -->
<g id="edge1" class="edge"><title>Node1&#45;&gt;Node2</title>
<path fill="none" stroke="midnightblue" d="M110.334,-145.502C118.661,-145.502 127.22,-145.502 135.437,-145.502"/>
<polygon fill="midnightblue" stroke="midnightblue" points="135.62,-149.002 145.619,-145.502 135.619,-142.002 135.62,-149.002"/>
</g>
<!-- Node3 -->
<g id="node3" class="node"><title>Node3</title>
<g id="a_node3"><a xlink:href="ar_util_8c.html#ae28eeba3e16224a7d77b46bd34b8f4fe" target="_top" xlink:title="arUtilMatMul">
<polygon fill="white" stroke="black" points="299,-231.002 299,-250.002 371,-250.002 371,-231.002 299,-231.002"/>
<text text-anchor="middle" x="335" y="-238.002" font-family="Helvetica,sans-Serif" font-size="10.00">arUtilMatMul</text>
</a>
</g>
</g>
<!-- Node2&#45;&gt;Node3 -->
<g id="edge2" class="edge"><title>Node2&#45;&gt;Node3</title>
<path fill="none" stroke="midnightblue" d="M194.745,-155.167C207.337,-170.284 233.701,-199.544 262,-216.502 270.388,-221.529 279.965,-225.658 289.335,-228.988"/>
<polygon fill="midnightblue" stroke="midnightblue" points="288.373,-232.357 298.967,-232.173 290.571,-225.71 288.373,-232.357"/>
</g>
<!-- Node4 -->
<g id="node4" class="node"><title>Node4</title>
<g id="a_node4"><a xlink:href="icp_core_8c.html#a5bbc6e7577592a3268ef3d391b0ba96d" target="_top" xlink:title="icpDispMat">
<polygon fill="white" stroke="black" points="460,-193.002 460,-212.002 526,-212.002 526,-193.002 460,-193.002"/>
<text text-anchor="middle" x="493" y="-200.002" font-family="Helvetica,sans-Serif" font-size="10.00">icpDispMat</text>
</a>
</g>
</g>
<!-- Node2&#45;&gt;Node4 -->
<g id="edge3" class="edge"><title>Node2&#45;&gt;Node4</title>
<path fill="none" stroke="midnightblue" d="M201.525,-155.014C216.144,-164.056 239.668,-177.184 262,-183.502 325.621,-201.501 402.79,-204.19 449.605,-203.828"/>
<polygon fill="midnightblue" stroke="midnightblue" points="449.733,-207.327 459.687,-203.699 449.643,-200.328 449.733,-207.327"/>
</g>
<!-- Node5 -->
<g id="node5" class="node"><title>Node5</title>
<g id="a_node5"><a xlink:href="icp_core_8c.html#aceeb3fd72a762c2078d8fb88ec03ccfb" target="_top" xlink:title="icpGetU_from_X_by_MatX2U">
<polygon fill="white" stroke="black" points="262,-117.002 262,-136.002 408,-136.002 408,-117.002 262,-117.002"/>
<text text-anchor="middle" x="335" y="-124.002" font-family="Helvetica,sans-Serif" font-size="10.00">icpGetU_from_X_by_MatX2U</text>
</a>
</g>
</g>
<!-- Node2&#45;&gt;Node5 -->
<g id="edge4" class="edge"><title>Node2&#45;&gt;Node5</title>
<path fill="none" stroke="midnightblue" d="M226.007,-140.461C234.041,-139.422 242.786,-138.292 251.707,-137.139"/>
<polygon fill="midnightblue" stroke="midnightblue" points="252.355,-140.584 261.824,-135.831 251.458,-133.642 252.355,-140.584"/>
</g>
<!-- Node6 -->
<g id="node6" class="node"><title>Node6</title>
<g id="a_node6"><a xlink:href="icp_core_8c.html#ac384ca6737fdee325d58740d665eda0a" target="_top" xlink:title="icpGetJ_U_S">
<polygon fill="white" stroke="black" points="297.5,-155.002 297.5,-174.002 372.5,-174.002 372.5,-155.002 297.5,-155.002"/>
<text text-anchor="middle" x="335" y="-162.002" font-family="Helvetica,sans-Serif" font-size="10.00">icpGetJ_U_S</text>
</a>
</g>
</g>
<!-- Node2&#45;&gt;Node6 -->
<g id="edge5" class="edge"><title>Node2&#45;&gt;Node6</title>
<path fill="none" stroke="midnightblue" d="M226.007,-150.544C244.84,-152.978 267.579,-155.917 287.325,-158.469"/>
<polygon fill="midnightblue" stroke="midnightblue" points="286.975,-161.953 297.341,-159.764 287.872,-155.011 286.975,-161.953"/>
</g>
<!-- Node7 -->
<g id="node7" class="node"><title>Node7</title>
<g id="a_node7"><a xlink:href="icp_core_8c.html#a4906398b4594d29ab8035b4016a7e9de" target="_top" xlink:title="icpGetDeltaS">
<polygon fill="white" stroke="black" points="297.5,-79.0023 297.5,-98.0023 372.5,-98.0023 372.5,-79.0023 297.5,-79.0023"/>
<text text-anchor="middle" x="335" y="-86.0023" font-family="Helvetica,sans-Serif" font-size="10.00">icpGetDeltaS</text>
</a>
</g>
</g>
<!-- Node2&#45;&gt;Node7 -->
<g id="edge7" class="edge"><title>Node2&#45;&gt;Node7</title>
<path fill="none" stroke="midnightblue" d="M203.516,-135.854C218.414,-127.465 241.126,-115.442 262,-107.502 270.077,-104.43 278.845,-101.667 287.392,-99.2605"/>
<polygon fill="midnightblue" stroke="midnightblue" points="288.522,-102.581 297.27,-96.6028 286.704,-95.8212 288.522,-102.581"/>
</g>
<!-- Node16 -->
<g id="node16" class="node"><title>Node16</title>
<g id="a_node16"><a xlink:href="icp_core_8c.html#a94201124387610a46b975cdb9d8a1db6" target="_top" xlink:title="icpUpdateMat">
<polygon fill="white" stroke="black" points="296.5,-41.0023 296.5,-60.0023 373.5,-60.0023 373.5,-41.0023 296.5,-41.0023"/>
<text text-anchor="middle" x="335" y="-48.0023" font-family="Helvetica,sans-Serif" font-size="10.00">icpUpdateMat</text>
</a>
</g>
</g>
<!-- Node2&#45;&gt;Node16 -->
<g id="edge20" class="edge"><title>Node2&#45;&gt;Node16</title>
<path fill="none" stroke="midnightblue" d="M193.681,-135.962C205.531,-119.769 231.843,-86.9701 262,-69.5023 269.478,-65.171 277.959,-61.8061 286.41,-59.1984"/>
<polygon fill="midnightblue" stroke="midnightblue" points="287.552,-62.514 296.256,-56.4724 285.684,-55.7678 287.552,-62.514"/>
</g>
<!-- Node6&#45;&gt;Node4 -->
<g id="edge6" class="edge"><title>Node6&#45;&gt;Node4</title>
<path fill="none" stroke="midnightblue" d="M372.575,-173.412C395.742,-179.055 425.777,-186.371 449.931,-192.255"/>
<polygon fill="midnightblue" stroke="midnightblue" points="449.341,-195.713 459.885,-194.679 450.998,-188.912 449.341,-195.713"/>
</g>
<!-- Node8 -->
<g id="node8" class="node"><title>Node8</title>
<g id="a_node8"><a xlink:href="_a_r_2include_2_a_r6_2_a_r_2matrix_8h.html#a60f36997579d355f6030f872faad84a2" target="_top" xlink:title="arMatrixDisp">
<polygon fill="white" stroke="black" points="457,-41.0023 457,-60.0023 529,-60.0023 529,-41.0023 457,-41.0023"/>
<text text-anchor="middle" x="493" y="-48.0023" font-family="Helvetica,sans-Serif" font-size="10.00">arMatrixDisp</text>
</a>
</g>
</g>
<!-- Node7&#45;&gt;Node8 -->
<g id="edge8" class="edge"><title>Node7&#45;&gt;Node8</title>
<path fill="none" stroke="midnightblue" d="M372.575,-79.593C394.875,-74.1609 423.54,-67.1786 447.196,-61.4161"/>
<polygon fill="midnightblue" stroke="midnightblue" points="448.107,-64.7966 456.994,-59.0293 446.45,-57.9955 448.107,-64.7966"/>
</g>
<!-- Node9 -->
<g id="node9" class="node"><title>Node9</title>
<g id="a_node9"><a xlink:href="_a_r_2include_2_a_r6_2_a_r_2matrix_8h.html#a49e8f4e71a6048683feebdc15336bb67" target="_top" xlink:title="arMatrixAllocTrans">
<polygon fill="white" stroke="black" points="444,-155.002 444,-174.002 542,-174.002 542,-155.002 444,-155.002"/>
<text text-anchor="middle" x="493" y="-162.002" font-family="Helvetica,sans-Serif" font-size="10.00">arMatrixAllocTrans</text>
</a>
</g>
</g>
<!-- Node7&#45;&gt;Node9 -->
<g id="edge9" class="edge"><title>Node7&#45;&gt;Node9</title>
<path fill="none" stroke="midnightblue" d="M372.709,-94.0728C384.531,-96.9182 397.325,-101.172 408,-107.502 428.011,-119.368 424.729,-132.469 444,-145.502 446.747,-147.36 449.702,-149.078 452.749,-150.657"/>
<polygon fill="midnightblue" stroke="midnightblue" points="451.5,-153.936 462.044,-154.981 454.453,-147.59 451.5,-153.936"/>
</g>
<!-- Node12 -->
<g id="node12" class="node"><title>Node12</title>
<g id="a_node12"><a xlink:href="_a_r_2include_2_a_r6_2_a_r_2matrix_8h.html#ac4b7a714cce9fffda773d86363380454" target="_top" xlink:title="arMatrixFree">
<polygon fill="white" stroke="black" points="581,-98.0023 581,-117.002 652,-117.002 652,-98.0023 581,-98.0023"/>
<text text-anchor="middle" x="616.5" y="-105.002" font-family="Helvetica,sans-Serif" font-size="10.00">arMatrixFree</text>
</a>
</g>
</g>
<!-- Node7&#45;&gt;Node12 -->
<g id="edge17" class="edge"><title>Node7&#45;&gt;Node12</title>
<path fill="none" stroke="midnightblue" d="M372.709,-82.9318C384.531,-80.0864 397.325,-75.8321 408,-69.5023 428.011,-57.6369 422.629,-40.6948 444,-31.5023 484.011,-14.2922 501.901,-14.4985 542,-31.5023 569.612,-43.2109 591.919,-70.9338 604.444,-89.4586"/>
<polygon fill="midnightblue" stroke="midnightblue" points="601.561,-91.4459 609.933,-97.9387 607.438,-87.642 601.561,-91.4459"/>
</g>
<!-- Node13 -->
<g id="node13" class="node"><title>Node13</title>
<g id="a_node13"><a xlink:href="_a_r_2include_2_a_r6_2_a_r_2matrix_8h.html#a4d8d5ab04ba588d275e08c9f92694925" target="_top" xlink:title="arMatrixAllocMul">
<polygon fill="white" stroke="black" points="448.5,-117.002 448.5,-136.002 537.5,-136.002 537.5,-117.002 448.5,-117.002"/>
<text text-anchor="middle" x="493" y="-124.002" font-family="Helvetica,sans-Serif" font-size="10.00">arMatrixAllocMul</text>
</a>
</g>
</g>
<!-- Node7&#45;&gt;Node13 -->
<g id="edge13" class="edge"><title>Node7&#45;&gt;Node13</title>
<path fill="none" stroke="midnightblue" d="M372.575,-97.4116C393.599,-102.533 420.279,-109.032 443.087,-114.588"/>
<polygon fill="midnightblue" stroke="midnightblue" points="442.383,-118.018 452.927,-116.985 444.04,-111.217 442.383,-118.018"/>
</g>
<!-- Node14 -->
<g id="node14" class="node"><title>Node14</title>
<g id="a_node14"><a xlink:href="_a_r_2include_2_a_r6_2_a_r_2matrix_8h.html#a202bc2db43d563792c99e852ea0b7ba4" target="_top" xlink:title="arMatrixMul">
<polygon fill="white" stroke="black" points="582.5,-13.0023 582.5,-32.0023 650.5,-32.0023 650.5,-13.0023 582.5,-13.0023"/>
<text text-anchor="middle" x="616.5" y="-20.0023" font-family="Helvetica,sans-Serif" font-size="10.00">arMatrixMul</text>
</a>
</g>
</g>
<!-- Node7&#45;&gt;Node14 -->
<g id="edge19" class="edge"><title>Node7&#45;&gt;Node14</title>
<path fill="none" stroke="midnightblue" d="M372.68,-84.1902C384.763,-81.432 397.723,-76.9112 408,-69.5023 431.699,-52.4175 418.3,-28.3963 444,-14.5023 485.702,8.04304 541.784,-0.513292 578.281,-10.228"/>
<polygon fill="midnightblue" stroke="midnightblue" points="577.453,-13.6309 588.027,-12.9738 579.351,-6.89318 577.453,-13.6309"/>
</g>
<!-- Node15 -->
<g id="node15" class="node"><title>Node15</title>
<g id="a_node15"><a xlink:href="_a_r_2include_2_a_r6_2_a_r_2matrix_8h.html#a929738025b539a0c1bbd2f395ad4d981" target="_top" xlink:title="arMatrixSelfInv">
<polygon fill="white" stroke="black" points="451.5,-79.0023 451.5,-98.0023 534.5,-98.0023 534.5,-79.0023 451.5,-79.0023"/>
<text text-anchor="middle" x="493" y="-86.0023" font-family="Helvetica,sans-Serif" font-size="10.00">arMatrixSelfInv</text>
</a>
</g>
</g>
<!-- Node7&#45;&gt;Node15 -->
<g id="edge18" class="edge"><title>Node7&#45;&gt;Node15</title>
<path fill="none" stroke="midnightblue" d="M372.575,-88.5023C393.036,-88.5023 418.855,-88.5023 441.247,-88.5023"/>
<polygon fill="midnightblue" stroke="midnightblue" points="441.263,-92.0024 451.263,-88.5023 441.263,-85.0024 441.263,-92.0024"/>
</g>
<!-- Node10 -->
<g id="node10" class="node"><title>Node10</title>
<g id="a_node10"><a xlink:href="_a_r_2include_2_a_r6_2_a_r_2matrix_8h.html#a7169e4124d09fcbe1b8730ade678d64d" target="_top" xlink:title="arMatrixAlloc">
<polygon fill="white" stroke="black" points="579.5,-136.002 579.5,-155.002 653.5,-155.002 653.5,-136.002 579.5,-136.002"/>
<text text-anchor="middle" x="616.5" y="-143.002" font-family="Helvetica,sans-Serif" font-size="10.00">arMatrixAlloc</text>
</a>
</g>
</g>
<!-- Node9&#45;&gt;Node10 -->
<g id="edge10" class="edge"><title>Node9&#45;&gt;Node10</title>
<path fill="none" stroke="midnightblue" d="M542.02,-156.993C551.08,-155.576 560.536,-154.097 569.532,-152.691"/>
<polygon fill="midnightblue" stroke="midnightblue" points="570.108,-156.143 579.447,-151.14 569.026,-149.227 570.108,-156.143"/>
</g>
<!-- Node11 -->
<g id="node11" class="node"><title>Node11</title>
<g id="a_node11"><a xlink:href="_a_r_2include_2_a_r6_2_a_r_2matrix_8h.html#ad3d9712dd27f655902a8a3315e623d85" target="_top" xlink:title="arMatrixTrans">
<polygon fill="white" stroke="black" points="578,-174.002 578,-193.002 655,-193.002 655,-174.002 578,-174.002"/>
<text text-anchor="middle" x="616.5" y="-181.002" font-family="Helvetica,sans-Serif" font-size="10.00">arMatrixTrans</text>
</a>
</g>
</g>
<!-- Node9&#45;&gt;Node11 -->
<g id="edge11" class="edge"><title>Node9&#45;&gt;Node11</title>
<path fill="none" stroke="midnightblue" d="M542.02,-172.012C550.508,-173.339 559.344,-174.721 567.822,-176.047"/>
<polygon fill="midnightblue" stroke="midnightblue" points="567.52,-179.542 577.941,-177.629 568.601,-172.626 567.52,-179.542"/>
</g>
<!-- Node9&#45;&gt;Node12 -->
<g id="edge12" class="edge"><title>Node9&#45;&gt;Node12</title>
<path fill="none" stroke="midnightblue" d="M519.627,-154.954C526.924,-152.075 534.835,-148.799 542,-145.502 558.435,-137.94 561.93,-134.813 578,-126.502 580.982,-124.96 584.103,-123.359 587.217,-121.769"/>
<polygon fill="midnightblue" stroke="midnightblue" points="589.062,-124.757 596.391,-117.107 585.891,-118.517 589.062,-124.757"/>
</g>
<!-- Node13&#45;&gt;Node10 -->
<g id="edge14" class="edge"><title>Node13&#45;&gt;Node10</title>
<path fill="none" stroke="midnightblue" d="M537.521,-133.308C547.837,-134.921 558.876,-136.647 569.306,-138.279"/>
<polygon fill="midnightblue" stroke="midnightblue" points="569.063,-141.783 579.484,-139.87 570.145,-134.867 569.063,-141.783"/>
</g>
<!-- Node13&#45;&gt;Node12 -->
<g id="edge16" class="edge"><title>Node13&#45;&gt;Node12</title>
<path fill="none" stroke="midnightblue" d="M537.521,-119.697C548.254,-118.018 559.769,-116.217 570.568,-114.529"/>
<polygon fill="midnightblue" stroke="midnightblue" points="571.313,-117.955 580.652,-112.952 570.232,-111.039 571.313,-117.955"/>
</g>
<!-- Node13&#45;&gt;Node14 -->
<g id="edge15" class="edge"><title>Node13&#45;&gt;Node14</title>
<path fill="none" stroke="midnightblue" d="M524.59,-116.955C530.639,-114.375 536.738,-111.238 542,-107.502 567.974,-89.0621 590.715,-59.5659 603.781,-40.6188"/>
<polygon fill="midnightblue" stroke="midnightblue" points="606.725,-42.5138 609.39,-32.2596 600.912,-38.6136 606.725,-42.5138"/>
</g>
</g>
</svg>
        <g id="navigator" transform="translate(0 0)" fill="#404254">
                <rect fill="#f2f5e9" fill-opacity="0.5" stroke="#606060" stroke-width=".5" x="0" y="0" width="60" height="60"/>
                <use id="zoomplus" xlink:href="#zoomPlus" x="17" y="9" onmousedown="handleZoom(evt,'in')"/>
                <use id="zoomminus" xlink:href="#zoomMin" x="42" y="9" onmousedown="handleZoom(evt,'out')"/>
                <use id="reset" xlink:href="#resetDef" x="30" y="36" onmousedown="handleReset()"/>
                <g id="arrowUp" xlink:href="#dirArrow" transform="translate(30 24)" onmousedown="handlePan(0,-1)">
                  <use xlink:href="#rim" fill="#404040">
                        <set attributeName="fill" to="#808080" begin="arrowUp.mouseover" end="arrowUp.mouseout"/>
                  </use>
                  <path fill="none" stroke="white" stroke-width="1.5" d="M0,-3.0v7 M-2.5,-0.5L0,-3.0L2.5,-0.5"/>
                </g>
                <g id="arrowRight" xlink:href="#dirArrow" transform="rotate(90) translate(36 -43)" onmousedown="handlePan(1,0)">
                  <use xlink:href="#rim" fill="#404040">
                        <set attributeName="fill" to="#808080" begin="arrowRight.mouseover" end="arrowRight.mouseout"/>
                  </use>
                  <path fill="none" stroke="white" stroke-width="1.5" d="M0,-3.0v7 M-2.5,-0.5L0,-3.0L2.5,-0.5"/>
                </g>
                <g id="arrowDown" xlink:href="#dirArrow" transform="rotate(180) translate(-30 -48)" onmousedown="handlePan(0,1)">
                  <use xlink:href="#rim" fill="#404040">
                        <set attributeName="fill" to="#808080" begin="arrowDown.mouseover" end="arrowDown.mouseout"/>
                  </use>
                  <path fill="none" stroke="white" stroke-width="1.5" d="M0,-3.0v7 M-2.5,-0.5L0,-3.0L2.5,-0.5"/>
                </g>
                <g id="arrowLeft" xlink:href="#dirArrow" transform="rotate(270) translate(-36 17)" onmousedown="handlePan(-1,0)">
                  <use xlink:href="#rim" fill="#404040">
                        <set attributeName="fill" to="#808080" begin="arrowLeft.mouseover" end="arrowLeft.mouseout"/>
                  </use>
                  <path fill="none" stroke="white" stroke-width="1.5" d="M0,-3.0v7 M-2.5,-0.5L0,-3.0L2.5,-0.5"/>
                </g>
        </g>
        <svg viewBox="0 0 15 15" width="100%" height="30px" preserveAspectRatio="xMaxYMin meet">
         <g id="arrow_out" transform="scale(0.3 0.3)">
          <a xlink:href="ar_8h_a9bfdb18b5ce08354463c844a65060dc5_cgraph_org.svg" target="_base">
           <rect id="button" ry="5" rx="5" y="6" x="6" height="38" width="38"
                fill="#f2f5e9" fill-opacity="0.5" stroke="#606060" stroke-width="1.0"/>
           <path id="arrow"
             d="M 11.500037,31.436501 C 11.940474,20.09759 22.043105,11.32322 32.158766,21.979434 L 37.068811,17.246167 C 37.068811,17.246167 37.088388,32 37.088388,32 L 22.160133,31.978069 C 22.160133,31.978069 26.997745,27.140456 26.997745,27.140456 C 18.528582,18.264221 13.291696,25.230495 11.500037,31.436501 z"
             style="fill:#404040;"/>
          </a>
         </g>
        </svg>
</svg>
