<?xml version="1.0" encoding="UTF-8" standalone="no"?>
<!DOCTYPE svg PUBLIC "-//W3C//DTD SVG 1.1//EN"
 "http://www.w3.org/Graphics/SVG/1.1/DTD/svg11.dtd">
<!-- Generated by graphviz version 2.38.0 (20140413.2041)
 -->
<!-- Title: arGetTransMatSquareContStereo Pages: 1 -->
<!--zoomable 259 -->
<svg id="main" version="1.1" xmlns="http://www.w3.org/2000/svg" xmlns:xlink="http://www.w3.org/1999/xlink" xml:space="preserve" onload="init(evt)">
<style type="text/css"><![CDATA[
.edge:hover path { stroke: red; }
.edge:hover polygon { stroke: red; fill: red; }
]]></style>
<script type="text/javascript"><![CDATA[
var edges = document.getElementsByTagName('g');
if (edges && edges.length) {
  for (var i=0;i<edges.length;i++) {
    if (edges[i].id.substr(0,4)=='edge') {
      edges[i].setAttribute('class','edge');
    }
  }
}
]]></script>
        <defs>
                <circle id="rim" cx="0" cy="0" r="7"/>
                <circle id="rim2" cx="0" cy="0" r="3.5"/>
                <g id="zoomPlus">
                        <use xlink:href="#rim" fill="#404040">
                                <set attributeName="fill" to="#808080" begin="zoomplus.mouseover" end="zoomplus.mouseout"/>
                        </use>
                        <path d="M-4,0h8M0,-4v8" fill="none" stroke="white" stroke-width="1.5" pointer-events="none"/>
                </g>
                <g id="zoomMin">
                        <use xlink:href="#rim" fill="#404040">
                                <set attributeName="fill" to="#808080" begin="zoomminus.mouseover" end="zoomminus.mouseout"/>
                        </use>
                        <path d="M-4,0h8" fill="none" stroke="white" stroke-width="1.5" pointer-events="none"/>
                </g>
                <g id="dirArrow">
                        <path fill="none" stroke="white" stroke-width="1.5" d="M0,-3.0v7 M-2.5,-0.5L0,-3.0L2.5,-0.5"/>
                </g>
               <g id="resetDef">
                       <use xlink:href="#rim2" fill="#404040">
                               <set attributeName="fill" to="#808080" begin="reset.mouseover" end="reset.mouseout"/>
                       </use>
               </g>
        </defs>

<script type="text/javascript">
var viewWidth = 715;
var viewHeight = 259;
var sectionId = 'dynsection-29';
</script>
<script xlink:href="svgpan.js"/>
<svg id="graph" class="graph">
<g id="viewport">
<title>arGetTransMatSquareContStereo</title>
<polygon fill="white" stroke="none" points="-4,4 -4,-254.502 711,-254.502 711,4 -4,4"/>
<!-- Node1 -->
<g id="node1" class="node"><title>Node1</title>
<polygon fill="#bfbfbf" stroke="black" points="0,-136.002 0,-155.002 162,-155.002 162,-136.002 0,-136.002"/>
<text text-anchor="middle" x="81" y="-143.002" font-family="Helvetica,sans-Serif" font-size="10.00">arGetTransMatSquareContStereo</text>
</g>
<!-- Node2 -->
<g id="node2" class="node"><title>Node2</title>
<g id="a_node2"><a xlink:href="icp_stereo_point_8c.html#afa05ec4cb1c2537d535521e4ee42c5ac" target="_top" xlink:title="icpStereoPoint">
<polygon fill="white" stroke="black" points="198,-136.002 198,-155.002 278,-155.002 278,-136.002 198,-136.002"/>
<text text-anchor="middle" x="238" y="-143.002" font-family="Helvetica,sans-Serif" font-size="10.00">icpStereoPoint</text>
</a>
</g>
</g>
<!-- Node1&#45;&gt;Node2 -->
<g id="edge1" class="edge"><title>Node1&#45;&gt;Node2</title>
<path fill="none" stroke="midnightblue" d="M162.224,-145.502C170.95,-145.502 179.63,-145.502 187.82,-145.502"/>
<polygon fill="midnightblue" stroke="midnightblue" points="187.9,-149.002 197.899,-145.502 187.899,-142.002 187.9,-149.002"/>
</g>
<!-- Node3 -->
<g id="node3" class="node"><title>Node3</title>
<g id="a_node3"><a xlink:href="ar_util_8c.html#ae28eeba3e16224a7d77b46bd34b8f4fe" target="_top" xlink:title="arUtilMatMul">
<polygon fill="white" stroke="black" points="351,-231.002 351,-250.002 423,-250.002 423,-231.002 351,-231.002"/>
<text text-anchor="middle" x="387" y="-238.002" font-family="Helvetica,sans-Serif" font-size="10.00">arUtilMatMul</text>
</a>
</g>
</g>
<!-- Node2&#45;&gt;Node3 -->
<g id="edge2" class="edge"><title>Node2&#45;&gt;Node3</title>
<path fill="none" stroke="midnightblue" d="M246.745,-155.167C259.337,-170.284 285.701,-199.544 314,-216.502 322.388,-221.529 331.965,-225.658 341.335,-228.988"/>
<polygon fill="midnightblue" stroke="midnightblue" points="340.373,-232.357 350.967,-232.173 342.571,-225.71 340.373,-232.357"/>
</g>
<!-- Node4 -->
<g id="node4" class="node"><title>Node4</title>
<g id="a_node4"><a xlink:href="icp_core_8c.html#a5bbc6e7577592a3268ef3d391b0ba96d" target="_top" xlink:title="icpDispMat">
<polygon fill="white" stroke="black" points="512,-193.002 512,-212.002 578,-212.002 578,-193.002 512,-193.002"/>
<text text-anchor="middle" x="545" y="-200.002" font-family="Helvetica,sans-Serif" font-size="10.00">icpDispMat</text>
</a>
</g>
</g>
<!-- Node2&#45;&gt;Node4 -->
<g id="edge3" class="edge"><title>Node2&#45;&gt;Node4</title>
<path fill="none" stroke="midnightblue" d="M253.525,-155.014C268.144,-164.056 291.668,-177.184 314,-183.502 377.621,-201.501 454.79,-204.19 501.605,-203.828"/>
<polygon fill="midnightblue" stroke="midnightblue" points="501.733,-207.327 511.687,-203.699 501.643,-200.328 501.733,-207.327"/>
</g>
<!-- Node5 -->
<g id="node5" class="node"><title>Node5</title>
<g id="a_node5"><a xlink:href="icp_core_8c.html#aceeb3fd72a762c2078d8fb88ec03ccfb" target="_top" xlink:title="icpGetU_from_X_by_MatX2U">
<polygon fill="white" stroke="black" points="314,-117.002 314,-136.002 460,-136.002 460,-117.002 314,-117.002"/>
<text text-anchor="middle" x="387" y="-124.002" font-family="Helvetica,sans-Serif" font-size="10.00">icpGetU_from_X_by_MatX2U</text>
</a>
</g>
</g>
<!-- Node2&#45;&gt;Node5 -->
<g id="edge4" class="edge"><title>Node2&#45;&gt;Node5</title>
<path fill="none" stroke="midnightblue" d="M278.007,-140.461C286.041,-139.422 294.786,-138.292 303.707,-137.139"/>
<polygon fill="midnightblue" stroke="midnightblue" points="304.355,-140.584 313.824,-135.831 303.458,-133.642 304.355,-140.584"/>
</g>
<!-- Node6 -->
<g id="node6" class="node"><title>Node6</title>
<g id="a_node6"><a xlink:href="icp_core_8c.html#ac384ca6737fdee325d58740d665eda0a" target="_top" xlink:title="icpGetJ_U_S">
<polygon fill="white" stroke="black" points="349.5,-155.002 349.5,-174.002 424.5,-174.002 424.5,-155.002 349.5,-155.002"/>
<text text-anchor="middle" x="387" y="-162.002" font-family="Helvetica,sans-Serif" font-size="10.00">icpGetJ_U_S</text>
</a>
</g>
</g>
<!-- Node2&#45;&gt;Node6 -->
<g id="edge5" class="edge"><title>Node2&#45;&gt;Node6</title>
<path fill="none" stroke="midnightblue" d="M278.007,-150.544C296.84,-152.978 319.579,-155.917 339.325,-158.469"/>
<polygon fill="midnightblue" stroke="midnightblue" points="338.975,-161.953 349.341,-159.764 339.872,-155.011 338.975,-161.953"/>
</g>
<!-- Node7 -->
<g id="node7" class="node"><title>Node7</title>
<g id="a_node7"><a xlink:href="icp_core_8c.html#a4906398b4594d29ab8035b4016a7e9de" target="_top" xlink:title="icpGetDeltaS">
<polygon fill="white" stroke="black" points="349.5,-79.0023 349.5,-98.0023 424.5,-98.0023 424.5,-79.0023 349.5,-79.0023"/>
<text text-anchor="middle" x="387" y="-86.0023" font-family="Helvetica,sans-Serif" font-size="10.00">icpGetDeltaS</text>
</a>
</g>
</g>
<!-- Node2&#45;&gt;Node7 -->
<g id="edge7" class="edge"><title>Node2&#45;&gt;Node7</title>
<path fill="none" stroke="midnightblue" d="M255.516,-135.854C270.414,-127.465 293.126,-115.442 314,-107.502 322.077,-104.43 330.845,-101.667 339.392,-99.2605"/>
<polygon fill="midnightblue" stroke="midnightblue" points="340.522,-102.581 349.27,-96.6028 338.704,-95.8212 340.522,-102.581"/>
</g>
<!-- Node16 -->
<g id="node16" class="node"><title>Node16</title>
<g id="a_node16"><a xlink:href="icp_core_8c.html#a94201124387610a46b975cdb9d8a1db6" target="_top" xlink:title="icpUpdateMat">
<polygon fill="white" stroke="black" points="348.5,-41.0023 348.5,-60.0023 425.5,-60.0023 425.5,-41.0023 348.5,-41.0023"/>
<text text-anchor="middle" x="387" y="-48.0023" font-family="Helvetica,sans-Serif" font-size="10.00">icpUpdateMat</text>
</a>
</g>
</g>
<!-- Node2&#45;&gt;Node16 -->
<g id="edge20" class="edge"><title>Node2&#45;&gt;Node16</title>
<path fill="none" stroke="midnightblue" d="M245.681,-135.962C257.531,-119.769 283.843,-86.9701 314,-69.5023 321.478,-65.171 329.959,-61.8061 338.41,-59.1984"/>
<polygon fill="midnightblue" stroke="midnightblue" points="339.552,-62.514 348.256,-56.4724 337.684,-55.7678 339.552,-62.514"/>
</g>
<!-- Node6&#45;&gt;Node4 -->
<g id="edge6" class="edge"><title>Node6&#45;&gt;Node4</title>
<path fill="none" stroke="midnightblue" d="M424.575,-173.412C447.742,-179.055 477.777,-186.371 501.931,-192.255"/>
<polygon fill="midnightblue" stroke="midnightblue" points="501.341,-195.713 511.885,-194.679 502.998,-188.912 501.341,-195.713"/>
</g>
<!-- Node8 -->
<g id="node8" class="node"><title>Node8</title>
<g id="a_node8"><a xlink:href="_a_r_2include_2_a_r6_2_a_r_2matrix_8h.html#a60f36997579d355f6030f872faad84a2" target="_top" xlink:title="arMatrixDisp">
<polygon fill="white" stroke="black" points="509,-41.0023 509,-60.0023 581,-60.0023 581,-41.0023 509,-41.0023"/>
<text text-anchor="middle" x="545" y="-48.0023" font-family="Helvetica,sans-Serif" font-size="10.00">arMatrixDisp</text>
</a>
</g>
</g>
<!-- Node7&#45;&gt;Node8 -->
<g id="edge8" class="edge"><title>Node7&#45;&gt;Node8</title>
<path fill="none" stroke="midnightblue" d="M424.575,-79.593C446.875,-74.1609 475.54,-67.1786 499.196,-61.4161"/>
<polygon fill="midnightblue" stroke="midnightblue" points="500.107,-64.7966 508.994,-59.0293 498.45,-57.9955 500.107,-64.7966"/>
</g>
<!-- Node9 -->
<g id="node9" class="node"><title>Node9</title>
<g id="a_node9"><a xlink:href="_a_r_2include_2_a_r6_2_a_r_2matrix_8h.html#a49e8f4e71a6048683feebdc15336bb67" target="_top" xlink:title="arMatrixAllocTrans">
<polygon fill="white" stroke="black" points="496,-155.002 496,-174.002 594,-174.002 594,-155.002 496,-155.002"/>
<text text-anchor="middle" x="545" y="-162.002" font-family="Helvetica,sans-Serif" font-size="10.00">arMatrixAllocTrans</text>
</a>
</g>
</g>
<!-- Node7&#45;&gt;Node9 -->
<g id="edge9" class="edge"><title>Node7&#45;&gt;Node9</title>
<path fill="none" stroke="midnightblue" d="M424.709,-94.0728C436.531,-96.9182 449.325,-101.172 460,-107.502 480.011,-119.368 476.729,-132.469 496,-145.502 498.747,-147.36 501.702,-149.078 504.749,-150.657"/>
<polygon fill="midnightblue" stroke="midnightblue" points="503.5,-153.936 514.044,-154.981 506.453,-147.59 503.5,-153.936"/>
</g>
<!-- Node12 -->
<g id="node12" class="node"><title>Node12</title>
<g id="a_node12"><a xlink:href="_a_r_2include_2_a_r6_2_a_r_2matrix_8h.html#ac4b7a714cce9fffda773d86363380454" target="_top" xlink:title="arMatrixFree">
<polygon fill="white" stroke="black" points="633,-98.0023 633,-117.002 704,-117.002 704,-98.0023 633,-98.0023"/>
<text text-anchor="middle" x="668.5" y="-105.002" font-family="Helvetica,sans-Serif" font-size="10.00">arMatrixFree</text>
</a>
</g>
</g>
<!-- Node7&#45;&gt;Node12 -->
<g id="edge17" class="edge"><title>Node7&#45;&gt;Node12</title>
<path fill="none" stroke="midnightblue" d="M424.709,-82.9318C436.531,-80.0864 449.325,-75.8321 460,-69.5023 480.011,-57.6369 474.629,-40.6948 496,-31.5023 536.011,-14.2922 553.901,-14.4985 594,-31.5023 621.612,-43.2109 643.919,-70.9338 656.444,-89.4586"/>
<polygon fill="midnightblue" stroke="midnightblue" points="653.561,-91.4459 661.933,-97.9387 659.438,-87.642 653.561,-91.4459"/>
</g>
<!-- Node13 -->
<g id="node13" class="node"><title>Node13</title>
<g id="a_node13"><a xlink:href="_a_r_2include_2_a_r6_2_a_r_2matrix_8h.html#a4d8d5ab04ba588d275e08c9f92694925" target="_top" xlink:title="arMatrixAllocMul">
<polygon fill="white" stroke="black" points="500.5,-117.002 500.5,-136.002 589.5,-136.002 589.5,-117.002 500.5,-117.002"/>
<text text-anchor="middle" x="545" y="-124.002" font-family="Helvetica,sans-Serif" font-size="10.00">arMatrixAllocMul</text>
</a>
</g>
</g>
<!-- Node7&#45;&gt;Node13 -->
<g id="edge13" class="edge"><title>Node7&#45;&gt;Node13</title>
<path fill="none" stroke="midnightblue" d="M424.575,-97.4116C445.599,-102.533 472.279,-109.032 495.087,-114.588"/>
<polygon fill="midnightblue" stroke="midnightblue" points="494.383,-118.018 504.927,-116.985 496.04,-111.217 494.383,-118.018"/>
</g>
<!-- Node14 -->
<g id="node14" class="node"><title>Node14</title>
<g id="a_node14"><a xlink:href="_a_r_2include_2_a_r6_2_a_r_2matrix_8h.html#a202bc2db43d563792c99e852ea0b7ba4" target="_top" xlink:title="arMatrixMul">
<polygon fill="white" stroke="black" points="634.5,-13.0023 634.5,-32.0023 702.5,-32.0023 702.5,-13.0023 634.5,-13.0023"/>
<text text-anchor="middle" x="668.5" y="-20.0023" font-family="Helvetica,sans-Serif" font-size="10.00">arMatrixMul</text>
</a>
</g>
</g>
<!-- Node7&#45;&gt;Node14 -->
<g id="edge19" class="edge"><title>Node7&#45;&gt;Node14</title>
<path fill="none" stroke="midnightblue" d="M424.68,-84.1902C436.763,-81.432 449.723,-76.9112 460,-69.5023 483.699,-52.4175 470.3,-28.3963 496,-14.5023 537.702,8.04304 593.784,-0.513292 630.281,-10.228"/>
<polygon fill="midnightblue" stroke="midnightblue" points="629.453,-13.6309 640.027,-12.9738 631.351,-6.89318 629.453,-13.6309"/>
</g>
<!-- Node15 -->
<g id="node15" class="node"><title>Node15</title>
<g id="a_node15"><a xlink:href="_a_r_2include_2_a_r6_2_a_r_2matrix_8h.html#a929738025b539a0c1bbd2f395ad4d981" target="_top" xlink:title="arMatrixSelfInv">
<polygon fill="white" stroke="black" points="503.5,-79.0023 503.5,-98.0023 586.5,-98.0023 586.5,-79.0023 503.5,-79.0023"/>
<text text-anchor="middle" x="545" y="-86.0023" font-family="Helvetica,sans-Serif" font-size="10.00">arMatrixSelfInv</text>
</a>
</g>
</g>
<!-- Node7&#45;&gt;Node15 -->
<g id="edge18" class="edge"><title>Node7&#45;&gt;Node15</title>
<path fill="none" stroke="midnightblue" d="M424.575,-88.5023C445.036,-88.5023 470.855,-88.5023 493.247,-88.5023"/>
<polygon fill="midnightblue" stroke="midnightblue" points="493.263,-92.0024 503.263,-88.5023 493.263,-85.0024 493.263,-92.0024"/>
</g>
<!-- Node10 -->
<g id="node10" class="node"><title>Node10</title>
<g id="a_node10"><a xlink:href="_a_r_2include_2_a_r6_2_a_r_2matrix_8h.html#a7169e4124d09fcbe1b8730ade678d64d" target="_top" xlink:title="arMatrixAlloc">
<polygon fill="white" stroke="black" points="631.5,-136.002 631.5,-155.002 705.5,-155.002 705.5,-136.002 631.5,-136.002"/>
<text text-anchor="middle" x="668.5" y="-143.002" font-family="Helvetica,sans-Serif" font-size="10.00">arMatrixAlloc</text>
</a>
</g>
</g>
<!-- Node9&#45;&gt;Node10 -->
<g id="edge10" class="edge"><title>Node9&#45;&gt;Node10</title>
<path fill="none" stroke="midnightblue" d="M594.02,-156.993C603.08,-155.576 612.536,-154.097 621.532,-152.691"/>
<polygon fill="midnightblue" stroke="midnightblue" points="622.108,-156.143 631.447,-151.14 621.026,-149.227 622.108,-156.143"/>
</g>
<!-- Node11 -->
<g id="node11" class="node"><title>Node11</title>
<g id="a_node11"><a xlink:href="_a_r_2include_2_a_r6_2_a_r_2matrix_8h.html#ad3d9712dd27f655902a8a3315e623d85" target="_top" xlink:title="arMatrixTrans">
<polygon fill="white" stroke="black" points="630,-174.002 630,-193.002 707,-193.002 707,-174.002 630,-174.002"/>
<text text-anchor="middle" x="668.5" y="-181.002" font-family="Helvetica,sans-Serif" font-size="10.00">arMatrixTrans</text>
</a>
</g>
</g>
<!-- Node9&#45;&gt;Node11 -->
<g id="edge11" class="edge"><title>Node9&#45;&gt;Node11</title>
<path fill="none" stroke="midnightblue" d="M594.02,-172.012C602.508,-173.339 611.344,-174.721 619.822,-176.047"/>
<polygon fill="midnightblue" stroke="midnightblue" points="619.52,-179.542 629.941,-177.629 620.601,-172.626 619.52,-179.542"/>
</g>
<!-- Node9&#45;&gt;Node12 -->
<g id="edge12" class="edge"><title>Node9&#45;&gt;Node12</title>
<path fill="none" stroke="midnightblue" d="M571.627,-154.954C578.924,-152.075 586.835,-148.799 594,-145.502 610.435,-137.94 613.93,-134.813 630,-126.502 632.982,-124.96 636.103,-123.359 639.217,-121.769"/>
<polygon fill="midnightblue" stroke="midnightblue" points="641.062,-124.757 648.391,-117.107 637.891,-118.517 641.062,-124.757"/>
</g>
<!-- Node13&#45;&gt;Node10 -->
<g id="edge14" class="edge"><title>Node13&#45;&gt;Node10</title>
<path fill="none" stroke="midnightblue" d="M589.521,-133.308C599.837,-134.921 610.876,-136.647 621.306,-138.279"/>
<polygon fill="midnightblue" stroke="midnightblue" points="621.063,-141.783 631.484,-139.87 622.145,-134.867 621.063,-141.783"/>
</g>
<!-- Node13&#45;&gt;Node12 -->
<g id="edge16" class="edge"><title>Node13&#45;&gt;Node12</title>
<path fill="none" stroke="midnightblue" d="M589.521,-119.697C600.254,-118.018 611.769,-116.217 622.568,-114.529"/>
<polygon fill="midnightblue" stroke="midnightblue" points="623.313,-117.955 632.652,-112.952 622.232,-111.039 623.313,-117.955"/>
</g>
<!-- Node13&#45;&gt;Node14 -->
<g id="edge15" class="edge"><title>Node13&#45;&gt;Node14</title>
<path fill="none" stroke="midnightblue" d="M576.59,-116.955C582.639,-114.375 588.738,-111.238 594,-107.502 619.974,-89.0621 642.715,-59.5659 655.781,-40.6188"/>
<polygon fill="midnightblue" stroke="midnightblue" points="658.725,-42.5138 661.39,-32.2596 652.912,-38.6136 658.725,-42.5138"/>
</g>
</g>
</svg>
        <g id="navigator" transform="translate(0 0)" fill="#404254">
                <rect fill="#f2f5e9" fill-opacity="0.5" stroke="#606060" stroke-width=".5" x="0" y="0" width="60" height="60"/>
                <use id="zoomplus" xlink:href="#zoomPlus" x="17" y="9" onmousedown="handleZoom(evt,'in')"/>
                <use id="zoomminus" xlink:href="#zoomMin" x="42" y="9" onmousedown="handleZoom(evt,'out')"/>
                <use id="reset" xlink:href="#resetDef" x="30" y="36" onmousedown="handleReset()"/>
                <g id="arrowUp" xlink:href="#dirArrow" transform="translate(30 24)" onmousedown="handlePan(0,-1)">
                  <use xlink:href="#rim" fill="#404040">
                        <set attributeName="fill" to="#808080" begin="arrowUp.mouseover" end="arrowUp.mouseout"/>
                  </use>
                  <path fill="none" stroke="white" stroke-width="1.5" d="M0,-3.0v7 M-2.5,-0.5L0,-3.0L2.5,-0.5"/>
                </g>
                <g id="arrowRight" xlink:href="#dirArrow" transform="rotate(90) translate(36 -43)" onmousedown="handlePan(1,0)">
                  <use xlink:href="#rim" fill="#404040">
                        <set attributeName="fill" to="#808080" begin="arrowRight.mouseover" end="arrowRight.mouseout"/>
                  </use>
                  <path fill="none" stroke="white" stroke-width="1.5" d="M0,-3.0v7 M-2.5,-0.5L0,-3.0L2.5,-0.5"/>
                </g>
                <g id="arrowDown" xlink:href="#dirArrow" transform="rotate(180) translate(-30 -48)" onmousedown="handlePan(0,1)">
                  <use xlink:href="#rim" fill="#404040">
                        <set attributeName="fill" to="#808080" begin="arrowDown.mouseover" end="arrowDown.mouseout"/>
                  </use>
                  <path fill="none" stroke="white" stroke-width="1.5" d="M0,-3.0v7 M-2.5,-0.5L0,-3.0L2.5,-0.5"/>
                </g>
                <g id="arrowLeft" xlink:href="#dirArrow" transform="rotate(270) translate(-36 17)" onmousedown="handlePan(-1,0)">
                  <use xlink:href="#rim" fill="#404040">
                        <set attributeName="fill" to="#808080" begin="arrowLeft.mouseover" end="arrowLeft.mouseout"/>
                  </use>
                  <path fill="none" stroke="white" stroke-width="1.5" d="M0,-3.0v7 M-2.5,-0.5L0,-3.0L2.5,-0.5"/>
                </g>
        </g>
        <svg viewBox="0 0 15 15" width="100%" height="30px" preserveAspectRatio="xMaxYMin meet">
         <g id="arrow_out" transform="scale(0.3 0.3)">
          <a xlink:href="ar_8h_a11bbe8858d5af324a0c81613a3e2c2b4_cgraph_org.svg" target="_base">
           <rect id="button" ry="5" rx="5" y="6" x="6" height="38" width="38"
                fill="#f2f5e9" fill-opacity="0.5" stroke="#606060" stroke-width="1.0"/>
           <path id="arrow"
             d="M 11.500037,31.436501 C 11.940474,20.09759 22.043105,11.32322 32.158766,21.979434 L 37.068811,17.246167 C 37.068811,17.246167 37.088388,32 37.088388,32 L 22.160133,31.978069 C 22.160133,31.978069 26.997745,27.140456 26.997745,27.140456 C 18.528582,18.264221 13.291696,25.230495 11.500037,31.436501 z"
             style="fill:#404040;"/>
          </a>
         </g>
        </svg>
</svg>
