<?xml version="1.0" encoding="UTF-8" standalone="no"?>
<!DOCTYPE svg PUBLIC "-//W3C//DTD SVG 1.1//EN"
 "http://www.w3.org/Graphics/SVG/1.1/DTD/svg11.dtd">
<!-- Generated by graphviz version 2.38.0 (20140413.2041)
 -->
<!-- Title: arUtilGetAndCreateResourcesDirectoryPath Pages: 1 -->
<svg width="764pt" height="217pt"
 viewBox="0.00 0.00 764.00 216.84" xmlns="http://www.w3.org/2000/svg" xmlns:xlink="http://www.w3.org/1999/xlink">
<g id="graph0" class="graph" transform="scale(1 1) rotate(0) translate(4 212.843)">
<title>arUtilGetAndCreateResourcesDirectoryPath</title>
<polygon fill="white" stroke="none" points="-4,4 -4,-212.843 760,-212.843 760,4 -4,4"/>
<!-- Node1 -->
<g id="node1" class="node"><title>Node1</title>
<polygon fill="#bfbfbf" stroke="black" points="0,-122.191 0,-152.191 149,-152.191 149,-122.191 0,-122.191"/>
<text text-anchor="start" x="8" y="-140.191" font-family="Helvetica,sans-Serif" font-size="10.00">arUtilGetAndCreateResources</text>
<text text-anchor="middle" x="74.5" y="-129.191" font-family="Helvetica,sans-Serif" font-size="10.00">DirectoryPath</text>
</g>
<!-- Node2 -->
<g id="node2" class="node"><title>Node2</title>
<g id="a_node2"><a xlink:href="ar_util_8c.html#ad5271b5188c065012893079f667e2eac" target="_top" xlink:title="Get the path to the resources directory using the specified behavior. ">
<polygon fill="white" stroke="black" points="185,-67.6909 185,-86.6909 348,-86.6909 348,-67.6909 185,-67.6909"/>
<text text-anchor="middle" x="266.5" y="-74.6909" font-family="Helvetica,sans-Serif" font-size="10.00">arUtilGetResourcesDirectoryPath</text>
</a>
</g>
</g>
<!-- Node1&#45;&gt;Node2 -->
<g id="edge1" class="edge"><title>Node1&#45;&gt;Node2</title>
<path fill="none" stroke="midnightblue" d="M123.445,-122.05C155.051,-112.07 195.953,-99.1531 225.746,-89.7449"/>
<polygon fill="midnightblue" stroke="midnightblue" points="226.912,-93.047 235.394,-86.6981 224.804,-86.3719 226.912,-93.047"/>
</g>
<!-- Node6 -->
<g id="node6" class="node"><title>Node6</title>
<g id="a_node6"><a xlink:href="file__utils_8c.html#a9ea670a576a1537cb0a8d35778c0bbbc" target="_top" xlink:title="test_d">
<polygon fill="white" stroke="black" points="648,-173.691 648,-192.691 692,-192.691 692,-173.691 648,-173.691"/>
<text text-anchor="middle" x="670" y="-180.691" font-family="Helvetica,sans-Serif" font-size="10.00">test_d</text>
</a>
</g>
</g>
<!-- Node1&#45;&gt;Node6 -->
<g id="edge11" class="edge"><title>Node1&#45;&gt;Node6</title>
<path fill="none" stroke="midnightblue" d="M99.1594,-152.232C120.611,-164.92 153.589,-182.111 185,-189.191 352.16,-226.866 560.099,-200.716 637.8,-188.515"/>
<polygon fill="midnightblue" stroke="midnightblue" points="638.564,-191.937 647.882,-186.894 637.453,-185.026 638.564,-191.937"/>
</g>
<!-- Node7 -->
<g id="node7" class="node"><title>Node7</title>
<g id="a_node7"><a xlink:href="file__utils_8c.html#a6d0adb35b2ec47f5a5d3d9c2e424532a" target="_top" xlink:title="mkdir_p">
<polygon fill="white" stroke="black" points="644.5,-75.6909 644.5,-94.6909 695.5,-94.6909 695.5,-75.6909 644.5,-75.6909"/>
<text text-anchor="middle" x="670" y="-82.6909" font-family="Helvetica,sans-Serif" font-size="10.00">mkdir_p</text>
</a>
</g>
</g>
<!-- Node1&#45;&gt;Node7 -->
<g id="edge12" class="edge"><title>Node1&#45;&gt;Node7</title>
<path fill="none" stroke="midnightblue" d="M141.87,-152.234C234.605,-170.491 407.376,-194.402 548,-156.191 587.217,-145.535 626.714,-118.609 649.467,-101.148"/>
<polygon fill="midnightblue" stroke="midnightblue" points="651.902,-103.685 657.602,-94.7546 647.577,-98.1811 651.902,-103.685"/>
</g>
<!-- Node8 -->
<g id="node8" class="node"><title>Node8</title>
<g id="a_node8"><a xlink:href="ar_util_8c.html#acd9f679696c2c26b378e434f6d78ae7d" target="_top" xlink:title="Change to the resources directory using the specified behavior. ">
<polygon fill="white" stroke="black" points="584,-1.69089 584,-20.6909 756,-20.6909 756,-1.69089 584,-1.69089"/>
<text text-anchor="middle" x="670" y="-8.69089" font-family="Helvetica,sans-Serif" font-size="10.00">arUtilChangeToResourcesDirectory</text>
</a>
</g>
</g>
<!-- Node1&#45;&gt;Node8 -->
<g id="edge13" class="edge"><title>Node1&#45;&gt;Node8</title>
<path fill="none" stroke="midnightblue" d="M92.0512,-122.156C112.465,-104.383 148.91,-75.0903 185,-58.1909 309.736,0.21762 472.058,3.26816 573.399,-2.20295"/>
<polygon fill="midnightblue" stroke="midnightblue" points="573.435,-5.7108 583.62,-2.7949 573.839,1.27749 573.435,-5.7108"/>
</g>
<!-- Node2&#45;&gt;Node2 -->
<g id="edge4" class="edge"><title>Node2&#45;&gt;Node2</title>
<path fill="none" stroke="midnightblue" d="M236.907,-86.948C222.511,-95.7562 232.375,-105.191 266.5,-105.191 290.494,-105.191 302.494,-100.527 302.5,-94.6952"/>
<polygon fill="midnightblue" stroke="midnightblue" points="305.163,-92.4234 296.093,-86.948 299.769,-96.8846 305.163,-92.4234"/>
</g>
<!-- Node3 -->
<g id="node3" class="node"><title>Node3</title>
<g id="a_node3"><a xlink:href="ar_util_8c.html#ae4f3e60c7edce9acfdddb9b454d13c1d" target="_top" xlink:title="arUtilGetDirectoryNameFromPath">
<polygon fill="white" stroke="black" points="384,-127.691 384,-146.691 548,-146.691 548,-127.691 384,-127.691"/>
<text text-anchor="middle" x="466" y="-134.691" font-family="Helvetica,sans-Serif" font-size="10.00">arUtilGetDirectoryNameFromPath</text>
</a>
</g>
</g>
<!-- Node2&#45;&gt;Node3 -->
<g id="edge2" class="edge"><title>Node2&#45;&gt;Node3</title>
<path fill="none" stroke="midnightblue" d="M292.245,-86.7755C315.657,-95.6339 351.895,-108.806 384,-118.191 392.461,-120.664 401.492,-123.038 410.34,-125.22"/>
<polygon fill="midnightblue" stroke="midnightblue" points="409.67,-128.658 420.211,-127.596 411.308,-121.853 409.67,-128.658"/>
</g>
<!-- Node4 -->
<g id="node4" class="node"><title>Node4</title>
<g id="a_node4"><a xlink:href="ar_util_8c.html#ac0d48e09db3feb8db34b2911ca70f8d0" target="_top" xlink:title="arUtilGetFileNameFromPath">
<polygon fill="white" stroke="black" points="396,-89.6909 396,-108.691 536,-108.691 536,-89.6909 396,-89.6909"/>
<text text-anchor="middle" x="466" y="-96.6909" font-family="Helvetica,sans-Serif" font-size="10.00">arUtilGetFileNameFromPath</text>
</a>
</g>
</g>
<!-- Node2&#45;&gt;Node4 -->
<g id="edge3" class="edge"><title>Node2&#45;&gt;Node4</title>
<path fill="none" stroke="midnightblue" d="M348.116,-86.1709C360.448,-87.5446 373.172,-88.962 385.481,-90.3331"/>
<polygon fill="midnightblue" stroke="midnightblue" points="385.379,-93.8433 395.705,-91.472 386.154,-86.8863 385.379,-93.8433"/>
</g>
<!-- Node5 -->
<g id="node5" class="node"><title>Node5</title>
<g id="a_node5"><a xlink:href="ar_util_8c.html#aee3916e59439c65e24bd1e79c8579052" target="_top" xlink:title="Get the path to the resources directory using the specified behavior, creating the path if it doesn&#39;t...">
<polygon fill="white" stroke="black" points="391.5,-40.1909 391.5,-70.1909 540.5,-70.1909 540.5,-40.1909 391.5,-40.1909"/>
<text text-anchor="start" x="399.5" y="-58.1909" font-family="Helvetica,sans-Serif" font-size="10.00">arUtilGetAndCreateResources</text>
<text text-anchor="middle" x="466" y="-47.1909" font-family="Helvetica,sans-Serif" font-size="10.00">DirectoryPath</text>
</a>
</g>
</g>
<!-- Node2&#45;&gt;Node5 -->
<g id="edge5" class="edge"><title>Node2&#45;&gt;Node5</title>
<path fill="none" stroke="midnightblue" d="M304.648,-67.6414C326.248,-64.1419 354.395,-60.583 381.066,-57.8585"/>
<polygon fill="midnightblue" stroke="midnightblue" points="381.592,-61.3236 391.199,-56.857 380.904,-54.3576 381.592,-61.3236"/>
</g>
<!-- Node5&#45;&gt;Node2 -->
<g id="edge6" class="edge"><title>Node5&#45;&gt;Node2</title>
<path fill="none" stroke="midnightblue" d="M391.315,-69.9518C380.528,-71.3264 369.314,-72.6346 358.236,-73.8138"/>
<polygon fill="midnightblue" stroke="midnightblue" points="357.703,-70.3501 348.116,-74.8587 358.422,-77.3131 357.703,-70.3501"/>
</g>
<!-- Node5&#45;&gt;Node6 -->
<g id="edge7" class="edge"><title>Node5&#45;&gt;Node6</title>
<path fill="none" stroke="midnightblue" d="M526.126,-70.3361C533.686,-73.1638 541.163,-76.4357 548,-80.1909 570.337,-92.4604 623.459,-140.671 651.294,-166.552"/>
<polygon fill="midnightblue" stroke="midnightblue" points="649.046,-169.242 658.744,-173.508 653.824,-164.125 649.046,-169.242"/>
</g>
<!-- Node5&#45;&gt;Node7 -->
<g id="edge8" class="edge"><title>Node5&#45;&gt;Node7</title>
<path fill="none" stroke="midnightblue" d="M540.784,-66.1489C572.68,-70.8859 608.489,-76.2041 634.14,-80.0137"/>
<polygon fill="midnightblue" stroke="midnightblue" points="633.722,-83.4898 644.127,-81.4969 634.75,-76.5658 633.722,-83.4898"/>
</g>
<!-- Node5&#45;&gt;Node8 -->
<g id="edge9" class="edge"><title>Node5&#45;&gt;Node8</title>
<path fill="none" stroke="midnightblue" d="M535.952,-40.1717C561.969,-34.5045 591.152,-28.148 615.542,-22.8353"/>
<polygon fill="midnightblue" stroke="midnightblue" points="616.303,-26.2515 625.329,-20.7033 614.814,-19.4119 616.303,-26.2515"/>
</g>
<!-- Node8&#45;&gt;Node2 -->
<g id="edge10" class="edge"><title>Node8&#45;&gt;Node2</title>
<path fill="none" stroke="midnightblue" d="M583.806,-9.87328C526.628,-10.6891 449.983,-15.088 384,-30.1909 352.376,-37.4294 318.169,-52.1243 295.058,-63.1666"/>
<polygon fill="midnightblue" stroke="midnightblue" points="293.329,-60.1158 285.873,-67.643 296.395,-66.4084 293.329,-60.1158"/>
</g>
</g>
</svg>
