<?xml version="1.0" encoding="UTF-8" standalone="no"?>
<!DOCTYPE svg PUBLIC "-//W3C//DTD SVG 1.1//EN"
 "http://www.w3.org/Graphics/SVG/1.1/DTD/svg11.dtd">
<!-- Generated by graphviz version 2.38.0 (20140413.2041)
 -->
<!-- Title: arGetTransMatStereoRobust Pages: 1 -->
<!--zoomable 297 -->
<svg id="main" version="1.1" xmlns="http://www.w3.org/2000/svg" xmlns:xlink="http://www.w3.org/1999/xlink" xml:space="preserve" onload="init(evt)">
<style type="text/css"><![CDATA[
.edge:hover path { stroke: red; }
.edge:hover polygon { stroke: red; fill: red; }
]]></style>
<script type="text/javascript"><![CDATA[
var edges = document.getElementsByTagName('g');
if (edges && edges.length) {
  for (var i=0;i<edges.length;i++) {
    if (edges[i].id.substr(0,4)=='edge') {
      edges[i].setAttribute('class','edge');
    }
  }
}
]]></script>
        <defs>
                <circle id="rim" cx="0" cy="0" r="7"/>
                <circle id="rim2" cx="0" cy="0" r="3.5"/>
                <g id="zoomPlus">
                        <use xlink:href="#rim" fill="#404040">
                                <set attributeName="fill" to="#808080" begin="zoomplus.mouseover" end="zoomplus.mouseout"/>
                        </use>
                        <path d="M-4,0h8M0,-4v8" fill="none" stroke="white" stroke-width="1.5" pointer-events="none"/>
                </g>
                <g id="zoomMin">
                        <use xlink:href="#rim" fill="#404040">
                                <set attributeName="fill" to="#808080" begin="zoomminus.mouseover" end="zoomminus.mouseout"/>
                        </use>
                        <path d="M-4,0h8" fill="none" stroke="white" stroke-width="1.5" pointer-events="none"/>
                </g>
                <g id="dirArrow">
                        <path fill="none" stroke="white" stroke-width="1.5" d="M0,-3.0v7 M-2.5,-0.5L0,-3.0L2.5,-0.5"/>
                </g>
               <g id="resetDef">
                       <use xlink:href="#rim2" fill="#404040">
                               <set attributeName="fill" to="#808080" begin="reset.mouseover" end="reset.mouseout"/>
                       </use>
               </g>
        </defs>

<script type="text/javascript">
var viewWidth = 727;
var viewHeight = 297;
var sectionId = 'dynsection-4';
</script>
<script xlink:href="svgpan.js"/>
<svg id="graph" class="graph">
<g id="viewport">
<title>arGetTransMatStereoRobust</title>
<polygon fill="white" stroke="none" points="-4,4 -4,-292.502 723,-292.502 723,4 -4,4"/>
<!-- Node1 -->
<g id="node1" class="node"><title>Node1</title>
<polygon fill="#bfbfbf" stroke="black" points="0,-155.002 0,-174.002 142,-174.002 142,-155.002 0,-155.002"/>
<text text-anchor="middle" x="71" y="-162.002" font-family="Helvetica,sans-Serif" font-size="10.00">arGetTransMatStereoRobust</text>
</g>
<!-- Node2 -->
<g id="node2" class="node"><title>Node2</title>
<g id="a_node2"><a xlink:href="icp_stereo_point_robust_8c.html#a4b6d126a648aed158a8cc1a495b83405" target="_top" xlink:title="icpStereoPointRobust">
<polygon fill="white" stroke="black" points="178,-155.002 178,-174.002 290,-174.002 290,-155.002 178,-155.002"/>
<text text-anchor="middle" x="234" y="-162.002" font-family="Helvetica,sans-Serif" font-size="10.00">icpStereoPointRobust</text>
</a>
</g>
</g>
<!-- Node1&#45;&gt;Node2 -->
<g id="edge1" class="edge"><title>Node1&#45;&gt;Node2</title>
<path fill="none" stroke="midnightblue" d="M142.149,-164.502C150.583,-164.502 159.171,-164.502 167.535,-164.502"/>
<polygon fill="midnightblue" stroke="midnightblue" points="167.6,-168.002 177.6,-164.502 167.6,-161.002 167.6,-168.002"/>
</g>
<!-- Node3 -->
<g id="node3" class="node"><title>Node3</title>
<g id="a_node3"><a xlink:href="ioapi_8h.html#a787fa3cf048117ba7123753c1e74fcd6" target="_top" xlink:title="int">
<polygon fill="white" stroke="black" points="384.5,-269.002 384.5,-288.002 413.5,-288.002 413.5,-269.002 384.5,-269.002"/>
<text text-anchor="middle" x="399" y="-276.002" font-family="Helvetica,sans-Serif" font-size="10.00">int</text>
</a>
</g>
</g>
<!-- Node2&#45;&gt;Node3 -->
<g id="edge2" class="edge"><title>Node2&#45;&gt;Node3</title>
<path fill="none" stroke="midnightblue" d="M241.502,-174.262C254.914,-193.607 287.629,-236.894 326,-259.502 340.734,-268.184 359.465,-272.966 374.129,-275.562"/>
<polygon fill="midnightblue" stroke="midnightblue" points="373.999,-279.083 384.416,-277.148 375.066,-272.165 373.999,-279.083"/>
</g>
<!-- Node4 -->
<g id="node4" class="node"><title>Node4</title>
<g id="a_node4"><a xlink:href="ar_util_8c.html#ae28eeba3e16224a7d77b46bd34b8f4fe" target="_top" xlink:title="arUtilMatMul">
<polygon fill="white" stroke="black" points="363,-231.002 363,-250.002 435,-250.002 435,-231.002 363,-231.002"/>
<text text-anchor="middle" x="399" y="-238.002" font-family="Helvetica,sans-Serif" font-size="10.00">arUtilMatMul</text>
</a>
</g>
</g>
<!-- Node2&#45;&gt;Node4 -->
<g id="edge3" class="edge"><title>Node2&#45;&gt;Node4</title>
<path fill="none" stroke="midnightblue" d="M247.575,-174.116C264.532,-186.66 296.065,-208.534 326,-221.502 334.537,-225.201 343.965,-228.321 353.107,-230.897"/>
<polygon fill="midnightblue" stroke="midnightblue" points="352.298,-234.303 362.861,-233.479 354.089,-227.536 352.298,-234.303"/>
</g>
<!-- Node5 -->
<g id="node5" class="node"><title>Node5</title>
<g id="a_node5"><a xlink:href="icp_core_8c.html#a5bbc6e7577592a3268ef3d391b0ba96d" target="_top" xlink:title="icpDispMat">
<polygon fill="white" stroke="black" points="524,-193.002 524,-212.002 590,-212.002 590,-193.002 524,-193.002"/>
<text text-anchor="middle" x="557" y="-200.002" font-family="Helvetica,sans-Serif" font-size="10.00">icpDispMat</text>
</a>
</g>
</g>
<!-- Node2&#45;&gt;Node5 -->
<g id="edge4" class="edge"><title>Node2&#45;&gt;Node5</title>
<path fill="none" stroke="midnightblue" d="M290.329,-166.706C338.525,-169.157 410.178,-174.081 472,-183.502 485.781,-185.602 500.666,-188.693 514.022,-191.774"/>
<polygon fill="midnightblue" stroke="midnightblue" points="513.357,-195.213 523.895,-194.112 514.97,-188.401 513.357,-195.213"/>
</g>
<!-- Node6 -->
<g id="node6" class="node"><title>Node6</title>
<g id="a_node6"><a xlink:href="icp_core_8c.html#aceeb3fd72a762c2078d8fb88ec03ccfb" target="_top" xlink:title="icpGetU_from_X_by_MatX2U">
<polygon fill="white" stroke="black" points="326,-117.002 326,-136.002 472,-136.002 472,-117.002 326,-117.002"/>
<text text-anchor="middle" x="399" y="-124.002" font-family="Helvetica,sans-Serif" font-size="10.00">icpGetU_from_X_by_MatX2U</text>
</a>
</g>
</g>
<!-- Node2&#45;&gt;Node6 -->
<g id="edge5" class="edge"><title>Node2&#45;&gt;Node6</title>
<path fill="none" stroke="midnightblue" d="M276.132,-154.913C297.738,-149.876 324.409,-143.658 347.286,-138.325"/>
<polygon fill="midnightblue" stroke="midnightblue" points="348.22,-141.701 357.164,-136.022 346.63,-134.884 348.22,-141.701"/>
</g>
<!-- Node7 -->
<g id="node7" class="node"><title>Node7</title>
<g id="a_node7"><a xlink:href="icp_core_8c.html#ac384ca6737fdee325d58740d665eda0a" target="_top" xlink:title="icpGetJ_U_S">
<polygon fill="white" stroke="black" points="361.5,-193.002 361.5,-212.002 436.5,-212.002 436.5,-193.002 361.5,-193.002"/>
<text text-anchor="middle" x="399" y="-200.002" font-family="Helvetica,sans-Serif" font-size="10.00">icpGetJ_U_S</text>
</a>
</g>
</g>
<!-- Node2&#45;&gt;Node7 -->
<g id="edge6" class="edge"><title>Node2&#45;&gt;Node7</title>
<path fill="none" stroke="midnightblue" d="M276.132,-174.091C299.073,-179.44 327.723,-186.119 351.48,-191.657"/>
<polygon fill="midnightblue" stroke="midnightblue" points="350.797,-195.092 361.331,-193.954 352.387,-188.275 350.797,-195.092"/>
</g>
<!-- Node8 -->
<g id="node8" class="node"><title>Node8</title>
<g id="a_node8"><a xlink:href="icp_core_8c.html#a4906398b4594d29ab8035b4016a7e9de" target="_top" xlink:title="icpGetDeltaS">
<polygon fill="white" stroke="black" points="361.5,-79.0023 361.5,-98.0023 436.5,-98.0023 436.5,-79.0023 361.5,-79.0023"/>
<text text-anchor="middle" x="399" y="-86.0023" font-family="Helvetica,sans-Serif" font-size="10.00">icpGetDeltaS</text>
</a>
</g>
</g>
<!-- Node2&#45;&gt;Node8 -->
<g id="edge8" class="edge"><title>Node2&#45;&gt;Node8</title>
<path fill="none" stroke="midnightblue" d="M247.575,-154.889C264.532,-142.345 296.065,-120.47 326,-107.502 334.102,-103.993 343.005,-101.003 351.706,-98.5064"/>
<polygon fill="midnightblue" stroke="midnightblue" points="352.646,-101.878 361.39,-95.8952 350.823,-95.1195 352.646,-101.878"/>
</g>
<!-- Node17 -->
<g id="node17" class="node"><title>Node17</title>
<g id="a_node17"><a xlink:href="icp_core_8c.html#a94201124387610a46b975cdb9d8a1db6" target="_top" xlink:title="icpUpdateMat">
<polygon fill="white" stroke="black" points="360.5,-41.0023 360.5,-60.0023 437.5,-60.0023 437.5,-41.0023 360.5,-41.0023"/>
<text text-anchor="middle" x="399" y="-48.0023" font-family="Helvetica,sans-Serif" font-size="10.00">icpUpdateMat</text>
</a>
</g>
</g>
<!-- Node2&#45;&gt;Node17 -->
<g id="edge21" class="edge"><title>Node2&#45;&gt;Node17</title>
<path fill="none" stroke="midnightblue" d="M241.502,-154.742C254.914,-135.397 287.629,-92.1109 326,-69.5023 333.445,-65.1154 341.911,-61.7241 350.357,-59.1075"/>
<polygon fill="midnightblue" stroke="midnightblue" points="351.499,-62.423 360.201,-56.3785 349.629,-55.6774 351.499,-62.423"/>
</g>
<!-- Node7&#45;&gt;Node5 -->
<g id="edge7" class="edge"><title>Node7&#45;&gt;Node5</title>
<path fill="none" stroke="midnightblue" d="M436.575,-202.502C459.639,-202.502 489.509,-202.502 513.607,-202.502"/>
<polygon fill="midnightblue" stroke="midnightblue" points="513.885,-206.002 523.885,-202.502 513.885,-199.002 513.885,-206.002"/>
</g>
<!-- Node9 -->
<g id="node9" class="node"><title>Node9</title>
<g id="a_node9"><a xlink:href="_a_r_2include_2_a_r6_2_a_r_2matrix_8h.html#a60f36997579d355f6030f872faad84a2" target="_top" xlink:title="arMatrixDisp">
<polygon fill="white" stroke="black" points="521,-41.0023 521,-60.0023 593,-60.0023 593,-41.0023 521,-41.0023"/>
<text text-anchor="middle" x="557" y="-48.0023" font-family="Helvetica,sans-Serif" font-size="10.00">arMatrixDisp</text>
</a>
</g>
</g>
<!-- Node8&#45;&gt;Node9 -->
<g id="edge9" class="edge"><title>Node8&#45;&gt;Node9</title>
<path fill="none" stroke="midnightblue" d="M436.575,-79.593C458.875,-74.1609 487.54,-67.1786 511.196,-61.4161"/>
<polygon fill="midnightblue" stroke="midnightblue" points="512.107,-64.7966 520.994,-59.0293 510.45,-57.9955 512.107,-64.7966"/>
</g>
<!-- Node10 -->
<g id="node10" class="node"><title>Node10</title>
<g id="a_node10"><a xlink:href="_a_r_2include_2_a_r6_2_a_r_2matrix_8h.html#a49e8f4e71a6048683feebdc15336bb67" target="_top" xlink:title="arMatrixAllocTrans">
<polygon fill="white" stroke="black" points="508,-155.002 508,-174.002 606,-174.002 606,-155.002 508,-155.002"/>
<text text-anchor="middle" x="557" y="-162.002" font-family="Helvetica,sans-Serif" font-size="10.00">arMatrixAllocTrans</text>
</a>
</g>
</g>
<!-- Node8&#45;&gt;Node10 -->
<g id="edge10" class="edge"><title>Node8&#45;&gt;Node10</title>
<path fill="none" stroke="midnightblue" d="M436.709,-94.0728C448.531,-96.9182 461.325,-101.172 472,-107.502 492.011,-119.368 488.729,-132.469 508,-145.502 510.747,-147.36 513.702,-149.078 516.749,-150.657"/>
<polygon fill="midnightblue" stroke="midnightblue" points="515.5,-153.936 526.044,-154.981 518.453,-147.59 515.5,-153.936"/>
</g>
<!-- Node13 -->
<g id="node13" class="node"><title>Node13</title>
<g id="a_node13"><a xlink:href="_a_r_2include_2_a_r6_2_a_r_2matrix_8h.html#ac4b7a714cce9fffda773d86363380454" target="_top" xlink:title="arMatrixFree">
<polygon fill="white" stroke="black" points="645,-98.0023 645,-117.002 716,-117.002 716,-98.0023 645,-98.0023"/>
<text text-anchor="middle" x="680.5" y="-105.002" font-family="Helvetica,sans-Serif" font-size="10.00">arMatrixFree</text>
</a>
</g>
</g>
<!-- Node8&#45;&gt;Node13 -->
<g id="edge18" class="edge"><title>Node8&#45;&gt;Node13</title>
<path fill="none" stroke="midnightblue" d="M436.709,-82.9318C448.531,-80.0864 461.325,-75.8321 472,-69.5023 492.011,-57.6369 486.629,-40.6948 508,-31.5023 548.011,-14.2922 565.901,-14.4985 606,-31.5023 633.612,-43.2109 655.919,-70.9338 668.444,-89.4586"/>
<polygon fill="midnightblue" stroke="midnightblue" points="665.561,-91.4459 673.933,-97.9387 671.438,-87.642 665.561,-91.4459"/>
</g>
<!-- Node14 -->
<g id="node14" class="node"><title>Node14</title>
<g id="a_node14"><a xlink:href="_a_r_2include_2_a_r6_2_a_r_2matrix_8h.html#a4d8d5ab04ba588d275e08c9f92694925" target="_top" xlink:title="arMatrixAllocMul">
<polygon fill="white" stroke="black" points="512.5,-117.002 512.5,-136.002 601.5,-136.002 601.5,-117.002 512.5,-117.002"/>
<text text-anchor="middle" x="557" y="-124.002" font-family="Helvetica,sans-Serif" font-size="10.00">arMatrixAllocMul</text>
</a>
</g>
</g>
<!-- Node8&#45;&gt;Node14 -->
<g id="edge14" class="edge"><title>Node8&#45;&gt;Node14</title>
<path fill="none" stroke="midnightblue" d="M436.575,-97.4116C457.599,-102.533 484.279,-109.032 507.087,-114.588"/>
<polygon fill="midnightblue" stroke="midnightblue" points="506.383,-118.018 516.927,-116.985 508.04,-111.217 506.383,-118.018"/>
</g>
<!-- Node15 -->
<g id="node15" class="node"><title>Node15</title>
<g id="a_node15"><a xlink:href="_a_r_2include_2_a_r6_2_a_r_2matrix_8h.html#a202bc2db43d563792c99e852ea0b7ba4" target="_top" xlink:title="arMatrixMul">
<polygon fill="white" stroke="black" points="646.5,-13.0023 646.5,-32.0023 714.5,-32.0023 714.5,-13.0023 646.5,-13.0023"/>
<text text-anchor="middle" x="680.5" y="-20.0023" font-family="Helvetica,sans-Serif" font-size="10.00">arMatrixMul</text>
</a>
</g>
</g>
<!-- Node8&#45;&gt;Node15 -->
<g id="edge20" class="edge"><title>Node8&#45;&gt;Node15</title>
<path fill="none" stroke="midnightblue" d="M436.68,-84.1902C448.763,-81.432 461.723,-76.9112 472,-69.5023 495.699,-52.4175 482.3,-28.3963 508,-14.5023 549.702,8.04304 605.784,-0.513292 642.281,-10.228"/>
<polygon fill="midnightblue" stroke="midnightblue" points="641.453,-13.6309 652.027,-12.9738 643.351,-6.89318 641.453,-13.6309"/>
</g>
<!-- Node16 -->
<g id="node16" class="node"><title>Node16</title>
<g id="a_node16"><a xlink:href="_a_r_2include_2_a_r6_2_a_r_2matrix_8h.html#a929738025b539a0c1bbd2f395ad4d981" target="_top" xlink:title="arMatrixSelfInv">
<polygon fill="white" stroke="black" points="515.5,-79.0023 515.5,-98.0023 598.5,-98.0023 598.5,-79.0023 515.5,-79.0023"/>
<text text-anchor="middle" x="557" y="-86.0023" font-family="Helvetica,sans-Serif" font-size="10.00">arMatrixSelfInv</text>
</a>
</g>
</g>
<!-- Node8&#45;&gt;Node16 -->
<g id="edge19" class="edge"><title>Node8&#45;&gt;Node16</title>
<path fill="none" stroke="midnightblue" d="M436.575,-88.5023C457.036,-88.5023 482.855,-88.5023 505.247,-88.5023"/>
<polygon fill="midnightblue" stroke="midnightblue" points="505.263,-92.0024 515.263,-88.5023 505.263,-85.0024 505.263,-92.0024"/>
</g>
<!-- Node11 -->
<g id="node11" class="node"><title>Node11</title>
<g id="a_node11"><a xlink:href="_a_r_2include_2_a_r6_2_a_r_2matrix_8h.html#a7169e4124d09fcbe1b8730ade678d64d" target="_top" xlink:title="arMatrixAlloc">
<polygon fill="white" stroke="black" points="643.5,-136.002 643.5,-155.002 717.5,-155.002 717.5,-136.002 643.5,-136.002"/>
<text text-anchor="middle" x="680.5" y="-143.002" font-family="Helvetica,sans-Serif" font-size="10.00">arMatrixAlloc</text>
</a>
</g>
</g>
<!-- Node10&#45;&gt;Node11 -->
<g id="edge11" class="edge"><title>Node10&#45;&gt;Node11</title>
<path fill="none" stroke="midnightblue" d="M606.02,-156.993C615.08,-155.576 624.536,-154.097 633.532,-152.691"/>
<polygon fill="midnightblue" stroke="midnightblue" points="634.108,-156.143 643.447,-151.14 633.026,-149.227 634.108,-156.143"/>
</g>
<!-- Node12 -->
<g id="node12" class="node"><title>Node12</title>
<g id="a_node12"><a xlink:href="_a_r_2include_2_a_r6_2_a_r_2matrix_8h.html#ad3d9712dd27f655902a8a3315e623d85" target="_top" xlink:title="arMatrixTrans">
<polygon fill="white" stroke="black" points="642,-174.002 642,-193.002 719,-193.002 719,-174.002 642,-174.002"/>
<text text-anchor="middle" x="680.5" y="-181.002" font-family="Helvetica,sans-Serif" font-size="10.00">arMatrixTrans</text>
</a>
</g>
</g>
<!-- Node10&#45;&gt;Node12 -->
<g id="edge12" class="edge"><title>Node10&#45;&gt;Node12</title>
<path fill="none" stroke="midnightblue" d="M606.02,-172.012C614.508,-173.339 623.344,-174.721 631.822,-176.047"/>
<polygon fill="midnightblue" stroke="midnightblue" points="631.52,-179.542 641.941,-177.629 632.601,-172.626 631.52,-179.542"/>
</g>
<!-- Node10&#45;&gt;Node13 -->
<g id="edge13" class="edge"><title>Node10&#45;&gt;Node13</title>
<path fill="none" stroke="midnightblue" d="M583.627,-154.954C590.924,-152.075 598.835,-148.799 606,-145.502 622.435,-137.94 625.93,-134.813 642,-126.502 644.982,-124.96 648.103,-123.359 651.217,-121.769"/>
<polygon fill="midnightblue" stroke="midnightblue" points="653.062,-124.757 660.391,-117.107 649.891,-118.517 653.062,-124.757"/>
</g>
<!-- Node14&#45;&gt;Node11 -->
<g id="edge15" class="edge"><title>Node14&#45;&gt;Node11</title>
<path fill="none" stroke="midnightblue" d="M601.521,-133.308C611.837,-134.921 622.876,-136.647 633.306,-138.279"/>
<polygon fill="midnightblue" stroke="midnightblue" points="633.063,-141.783 643.484,-139.87 634.145,-134.867 633.063,-141.783"/>
</g>
<!-- Node14&#45;&gt;Node13 -->
<g id="edge17" class="edge"><title>Node14&#45;&gt;Node13</title>
<path fill="none" stroke="midnightblue" d="M601.521,-119.697C612.254,-118.018 623.769,-116.217 634.568,-114.529"/>
<polygon fill="midnightblue" stroke="midnightblue" points="635.313,-117.955 644.652,-112.952 634.232,-111.039 635.313,-117.955"/>
</g>
<!-- Node14&#45;&gt;Node15 -->
<g id="edge16" class="edge"><title>Node14&#45;&gt;Node15</title>
<path fill="none" stroke="midnightblue" d="M588.59,-116.955C594.639,-114.375 600.738,-111.238 606,-107.502 631.974,-89.0621 654.715,-59.5659 667.781,-40.6188"/>
<polygon fill="midnightblue" stroke="midnightblue" points="670.725,-42.5138 673.39,-32.2596 664.912,-38.6136 670.725,-42.5138"/>
</g>
</g>
</svg>
        <g id="navigator" transform="translate(0 0)" fill="#404254">
                <rect fill="#f2f5e9" fill-opacity="0.5" stroke="#606060" stroke-width=".5" x="0" y="0" width="60" height="60"/>
                <use id="zoomplus" xlink:href="#zoomPlus" x="17" y="9" onmousedown="handleZoom(evt,'in')"/>
                <use id="zoomminus" xlink:href="#zoomMin" x="42" y="9" onmousedown="handleZoom(evt,'out')"/>
                <use id="reset" xlink:href="#resetDef" x="30" y="36" onmousedown="handleReset()"/>
                <g id="arrowUp" xlink:href="#dirArrow" transform="translate(30 24)" onmousedown="handlePan(0,-1)">
                  <use xlink:href="#rim" fill="#404040">
                        <set attributeName="fill" to="#808080" begin="arrowUp.mouseover" end="arrowUp.mouseout"/>
                  </use>
                  <path fill="none" stroke="white" stroke-width="1.5" d="M0,-3.0v7 M-2.5,-0.5L0,-3.0L2.5,-0.5"/>
                </g>
                <g id="arrowRight" xlink:href="#dirArrow" transform="rotate(90) translate(36 -43)" onmousedown="handlePan(1,0)">
                  <use xlink:href="#rim" fill="#404040">
                        <set attributeName="fill" to="#808080" begin="arrowRight.mouseover" end="arrowRight.mouseout"/>
                  </use>
                  <path fill="none" stroke="white" stroke-width="1.5" d="M0,-3.0v7 M-2.5,-0.5L0,-3.0L2.5,-0.5"/>
                </g>
                <g id="arrowDown" xlink:href="#dirArrow" transform="rotate(180) translate(-30 -48)" onmousedown="handlePan(0,1)">
                  <use xlink:href="#rim" fill="#404040">
                        <set attributeName="fill" to="#808080" begin="arrowDown.mouseover" end="arrowDown.mouseout"/>
                  </use>
                  <path fill="none" stroke="white" stroke-width="1.5" d="M0,-3.0v7 M-2.5,-0.5L0,-3.0L2.5,-0.5"/>
                </g>
                <g id="arrowLeft" xlink:href="#dirArrow" transform="rotate(270) translate(-36 17)" onmousedown="handlePan(-1,0)">
                  <use xlink:href="#rim" fill="#404040">
                        <set attributeName="fill" to="#808080" begin="arrowLeft.mouseover" end="arrowLeft.mouseout"/>
                  </use>
                  <path fill="none" stroke="white" stroke-width="1.5" d="M0,-3.0v7 M-2.5,-0.5L0,-3.0L2.5,-0.5"/>
                </g>
        </g>
        <svg viewBox="0 0 15 15" width="100%" height="30px" preserveAspectRatio="xMaxYMin meet">
         <g id="arrow_out" transform="scale(0.3 0.3)">
          <a xlink:href="ar_get_trans_mat_stereo_8c_a12593d630b3f48bb9bd7dd2e405648a2_cgraph_org.svg" target="_base">
           <rect id="button" ry="5" rx="5" y="6" x="6" height="38" width="38"
                fill="#f2f5e9" fill-opacity="0.5" stroke="#606060" stroke-width="1.0"/>
           <path id="arrow"
             d="M 11.500037,31.436501 C 11.940474,20.09759 22.043105,11.32322 32.158766,21.979434 L 37.068811,17.246167 C 37.068811,17.246167 37.088388,32 37.088388,32 L 22.160133,31.978069 C 22.160133,31.978069 26.997745,27.140456 26.997745,27.140456 C 18.528582,18.264221 13.291696,25.230495 11.500037,31.436501 z"
             style="fill:#404040;"/>
          </a>
         </g>
        </svg>
</svg>
