<?xml version="1.0" encoding="UTF-8" standalone="no"?>
<!DOCTYPE svg PUBLIC "-//W3C//DTD SVG 1.1//EN"
 "http://www.w3.org/Graphics/SVG/1.1/DTD/svg11.dtd">
<!-- Generated by graphviz version 2.38.0 (20140413.2041)
 -->
<!-- Title: arGetTransMatSquareCont Pages: 1 -->
<svg width="659pt" height="234pt"
 viewBox="0.00 0.00 659.00 234.15" xmlns="http://www.w3.org/2000/svg" xmlns:xlink="http://www.w3.org/1999/xlink">
<g id="graph0" class="graph" transform="scale(1 1) rotate(0) translate(4 230.149)">
<title>arGetTransMatSquareCont</title>
<polygon fill="white" stroke="none" points="-4,4 -4,-230.149 655,-230.149 655,4 -4,4"/>
<!-- Node1 -->
<g id="node1" class="node"><title>Node1</title>
<polygon fill="#bfbfbf" stroke="black" points="0,-111.649 0,-130.649 134,-130.649 134,-111.649 0,-111.649"/>
<text text-anchor="middle" x="67" y="-118.649" font-family="Helvetica,sans-Serif" font-size="10.00">arGetTransMatSquareCont</text>
</g>
<!-- Node2 -->
<g id="node2" class="node"><title>Node2</title>
<g id="a_node2"><a xlink:href="icp_point_8c.html#a466204966df0b17ea76bd05a3d396307" target="_top" xlink:title="icpPoint">
<polygon fill="white" stroke="black" points="170,-111.649 170,-130.649 222,-130.649 222,-111.649 170,-111.649"/>
<text text-anchor="middle" x="196" y="-118.649" font-family="Helvetica,sans-Serif" font-size="10.00">icpPoint</text>
</a>
</g>
</g>
<!-- Node1&#45;&gt;Node2 -->
<g id="edge1" class="edge"><title>Node1&#45;&gt;Node2</title>
<path fill="none" stroke="midnightblue" d="M134.104,-121.149C142.988,-121.149 151.804,-121.149 159.855,-121.149"/>
<polygon fill="midnightblue" stroke="midnightblue" points="159.94,-124.649 169.94,-121.149 159.94,-117.649 159.94,-124.649"/>
</g>
<!-- Node3 -->
<g id="node3" class="node"><title>Node3</title>
<g id="a_node3"><a xlink:href="icp_core_8c.html#a5bbc6e7577592a3268ef3d391b0ba96d" target="_top" xlink:title="icpDispMat">
<polygon fill="white" stroke="black" points="456,-206.649 456,-225.649 522,-225.649 522,-206.649 456,-206.649"/>
<text text-anchor="middle" x="489" y="-213.649" font-family="Helvetica,sans-Serif" font-size="10.00">icpDispMat</text>
</a>
</g>
</g>
<!-- Node2&#45;&gt;Node3 -->
<g id="edge2" class="edge"><title>Node2&#45;&gt;Node3</title>
<path fill="none" stroke="midnightblue" d="M201.413,-130.691C209.762,-147.507 229.613,-182.065 258,-197.149 317.168,-228.59 397.181,-227.062 445.556,-222.221"/>
<polygon fill="midnightblue" stroke="midnightblue" points="446.113,-225.681 455.673,-221.114 445.352,-218.723 446.113,-225.681"/>
</g>
<!-- Node4 -->
<g id="node4" class="node"><title>Node4</title>
<g id="a_node4"><a xlink:href="ar_util_8c.html#ae28eeba3e16224a7d77b46bd34b8f4fe" target="_top" xlink:title="arUtilMatMul">
<polygon fill="white" stroke="black" points="295,-130.649 295,-149.649 367,-149.649 367,-130.649 295,-130.649"/>
<text text-anchor="middle" x="331" y="-137.649" font-family="Helvetica,sans-Serif" font-size="10.00">arUtilMatMul</text>
</a>
</g>
</g>
<!-- Node2&#45;&gt;Node4 -->
<g id="edge3" class="edge"><title>Node2&#45;&gt;Node4</title>
<path fill="none" stroke="midnightblue" d="M222.016,-124.723C239.67,-127.245 263.818,-130.695 284.802,-133.692"/>
<polygon fill="midnightblue" stroke="midnightblue" points="284.413,-137.172 294.807,-135.122 285.403,-130.243 284.413,-137.172"/>
</g>
<!-- Node5 -->
<g id="node5" class="node"><title>Node5</title>
<g id="a_node5"><a xlink:href="icp_core_8c.html#aceeb3fd72a762c2078d8fb88ec03ccfb" target="_top" xlink:title="icpGetU_from_X_by_MatX2U">
<polygon fill="white" stroke="black" points="258,-92.6493 258,-111.649 404,-111.649 404,-92.6493 258,-92.6493"/>
<text text-anchor="middle" x="331" y="-99.6493" font-family="Helvetica,sans-Serif" font-size="10.00">icpGetU_from_X_by_MatX2U</text>
</a>
</g>
</g>
<!-- Node2&#45;&gt;Node5 -->
<g id="edge4" class="edge"><title>Node2&#45;&gt;Node5</title>
<path fill="none" stroke="midnightblue" d="M222.016,-117.576C231.154,-116.27 242.031,-114.716 253.308,-113.105"/>
<polygon fill="midnightblue" stroke="midnightblue" points="253.884,-116.559 263.288,-111.679 252.894,-109.629 253.884,-116.559"/>
</g>
<!-- Node6 -->
<g id="node6" class="node"><title>Node6</title>
<g id="a_node6"><a xlink:href="icp_core_8c.html#ac384ca6737fdee325d58740d665eda0a" target="_top" xlink:title="icpGetJ_U_S">
<polygon fill="white" stroke="black" points="293.5,-168.649 293.5,-187.649 368.5,-187.649 368.5,-168.649 293.5,-168.649"/>
<text text-anchor="middle" x="331" y="-175.649" font-family="Helvetica,sans-Serif" font-size="10.00">icpGetJ_U_S</text>
</a>
</g>
</g>
<!-- Node2&#45;&gt;Node6 -->
<g id="edge5" class="edge"><title>Node2&#45;&gt;Node6</title>
<path fill="none" stroke="midnightblue" d="M209.933,-130.813C221.868,-139.329 240.359,-151.533 258,-159.149 266.106,-162.649 275.012,-165.634 283.713,-168.129"/>
<polygon fill="midnightblue" stroke="midnightblue" points="282.831,-171.516 293.397,-170.74 284.653,-164.757 282.831,-171.516"/>
</g>
<!-- Node7 -->
<g id="node7" class="node"><title>Node7</title>
<g id="a_node7"><a xlink:href="icp_core_8c.html#a4906398b4594d29ab8035b4016a7e9de" target="_top" xlink:title="icpGetDeltaS">
<polygon fill="white" stroke="black" points="293.5,-54.6493 293.5,-73.6493 368.5,-73.6493 368.5,-54.6493 293.5,-54.6493"/>
<text text-anchor="middle" x="331" y="-61.6493" font-family="Helvetica,sans-Serif" font-size="10.00">icpGetDeltaS</text>
</a>
</g>
</g>
<!-- Node2&#45;&gt;Node7 -->
<g id="edge7" class="edge"><title>Node2&#45;&gt;Node7</title>
<path fill="none" stroke="midnightblue" d="M209.933,-111.486C221.868,-102.97 240.359,-90.7655 258,-83.1493 266.106,-79.6495 275.012,-76.6648 283.713,-74.1695"/>
<polygon fill="midnightblue" stroke="midnightblue" points="284.653,-77.5411 293.397,-71.5587 282.831,-70.7825 284.653,-77.5411"/>
</g>
<!-- Node16 -->
<g id="node16" class="node"><title>Node16</title>
<g id="a_node16"><a xlink:href="icp_core_8c.html#a94201124387610a46b975cdb9d8a1db6" target="_top" xlink:title="icpUpdateMat">
<polygon fill="white" stroke="black" points="292.5,-16.6493 292.5,-35.6493 369.5,-35.6493 369.5,-16.6493 292.5,-16.6493"/>
<text text-anchor="middle" x="331" y="-23.6493" font-family="Helvetica,sans-Serif" font-size="10.00">icpUpdateMat</text>
</a>
</g>
</g>
<!-- Node2&#45;&gt;Node16 -->
<g id="edge20" class="edge"><title>Node2&#45;&gt;Node16</title>
<path fill="none" stroke="midnightblue" d="M201.98,-111.579C210.933,-95.3436 231.329,-62.4801 258,-45.1493 265.404,-40.3384 273.981,-36.7422 282.58,-34.0549"/>
<polygon fill="midnightblue" stroke="midnightblue" points="283.526,-37.4246 292.235,-31.3908 281.665,-30.6768 283.526,-37.4246"/>
</g>
<!-- Node6&#45;&gt;Node3 -->
<g id="edge6" class="edge"><title>Node6&#45;&gt;Node3</title>
<path fill="none" stroke="midnightblue" d="M368.575,-187.059C391.742,-192.702 421.777,-200.018 445.931,-205.902"/>
<polygon fill="midnightblue" stroke="midnightblue" points="445.341,-209.36 455.885,-208.326 446.998,-202.559 445.341,-209.36"/>
</g>
<!-- Node8 -->
<g id="node8" class="node"><title>Node8</title>
<g id="a_node8"><a xlink:href="_a_r_2include_2_a_r6_2_a_r_2matrix_8h.html#a60f36997579d355f6030f872faad84a2" target="_top" xlink:title="arMatrixDisp">
<polygon fill="white" stroke="black" points="453,-35.6493 453,-54.6493 525,-54.6493 525,-35.6493 453,-35.6493"/>
<text text-anchor="middle" x="489" y="-42.6493" font-family="Helvetica,sans-Serif" font-size="10.00">arMatrixDisp</text>
</a>
</g>
</g>
<!-- Node7&#45;&gt;Node8 -->
<g id="edge8" class="edge"><title>Node7&#45;&gt;Node8</title>
<path fill="none" stroke="midnightblue" d="M368.575,-59.6946C390.776,-56.9907 419.284,-53.5186 442.879,-50.6448"/>
<polygon fill="midnightblue" stroke="midnightblue" points="443.491,-54.0962 452.994,-49.4128 442.645,-47.1475 443.491,-54.0962"/>
</g>
<!-- Node9 -->
<g id="node9" class="node"><title>Node9</title>
<g id="a_node9"><a xlink:href="_a_r_2include_2_a_r6_2_a_r_2matrix_8h.html#a49e8f4e71a6048683feebdc15336bb67" target="_top" xlink:title="arMatrixAllocTrans">
<polygon fill="white" stroke="black" points="440,-149.649 440,-168.649 538,-168.649 538,-149.649 440,-149.649"/>
<text text-anchor="middle" x="489" y="-156.649" font-family="Helvetica,sans-Serif" font-size="10.00">arMatrixAllocTrans</text>
</a>
</g>
</g>
<!-- Node7&#45;&gt;Node9 -->
<g id="edge9" class="edge"><title>Node7&#45;&gt;Node9</title>
<path fill="none" stroke="midnightblue" d="M368.749,-68.3662C380.838,-71.1168 393.783,-75.6571 404,-83.1493 428.162,-100.868 416.933,-121.026 440,-140.149 442.022,-141.826 444.211,-143.368 446.501,-144.784"/>
<polygon fill="midnightblue" stroke="midnightblue" points="445.224,-148.067 455.702,-149.639 448.491,-141.876 445.224,-148.067"/>
</g>
<!-- Node12 -->
<g id="node12" class="node"><title>Node12</title>
<g id="a_node12"><a xlink:href="_a_r_2include_2_a_r6_2_a_r_2matrix_8h.html#ac4b7a714cce9fffda773d86363380454" target="_top" xlink:title="arMatrixFree">
<polygon fill="white" stroke="black" points="577,-92.6493 577,-111.649 648,-111.649 648,-92.6493 577,-92.6493"/>
<text text-anchor="middle" x="612.5" y="-99.6493" font-family="Helvetica,sans-Serif" font-size="10.00">arMatrixFree</text>
</a>
</g>
</g>
<!-- Node7&#45;&gt;Node12 -->
<g id="edge17" class="edge"><title>Node7&#45;&gt;Node12</title>
<path fill="none" stroke="midnightblue" d="M368.774,-56.1624C380.234,-53.2192 392.799,-49.5173 404,-45.1493 420.855,-38.5764 422.439,-30.4991 440,-26.1493 482.278,-15.6771 497.901,-9.14544 538,-26.1493 565.612,-37.8579 587.919,-65.5808 600.444,-84.1056"/>
<polygon fill="midnightblue" stroke="midnightblue" points="597.561,-86.0929 605.933,-92.5856 603.438,-82.289 597.561,-86.0929"/>
</g>
<!-- Node13 -->
<g id="node13" class="node"><title>Node13</title>
<g id="a_node13"><a xlink:href="_a_r_2include_2_a_r6_2_a_r_2matrix_8h.html#a4d8d5ab04ba588d275e08c9f92694925" target="_top" xlink:title="arMatrixAllocMul">
<polygon fill="white" stroke="black" points="444.5,-111.649 444.5,-130.649 533.5,-130.649 533.5,-111.649 444.5,-111.649"/>
<text text-anchor="middle" x="489" y="-118.649" font-family="Helvetica,sans-Serif" font-size="10.00">arMatrixAllocMul</text>
</a>
</g>
</g>
<!-- Node7&#45;&gt;Node13 -->
<g id="edge13" class="edge"><title>Node7&#45;&gt;Node13</title>
<path fill="none" stroke="midnightblue" d="M368.774,-72.1361C380.234,-75.0794 392.799,-78.7812 404,-83.1493 420.855,-89.7221 423.565,-94.5866 440,-102.149 444.142,-104.055 448.534,-105.954 452.912,-107.773"/>
<polygon fill="midnightblue" stroke="midnightblue" points="451.79,-111.095 462.373,-111.601 454.415,-104.606 451.79,-111.095"/>
</g>
<!-- Node14 -->
<g id="node14" class="node"><title>Node14</title>
<g id="a_node14"><a xlink:href="_a_r_2include_2_a_r6_2_a_r_2matrix_8h.html#a202bc2db43d563792c99e852ea0b7ba4" target="_top" xlink:title="arMatrixMul">
<polygon fill="white" stroke="black" points="578.5,-7.64926 578.5,-26.6493 646.5,-26.6493 646.5,-7.64926 578.5,-7.64926"/>
<text text-anchor="middle" x="612.5" y="-14.6493" font-family="Helvetica,sans-Serif" font-size="10.00">arMatrixMul</text>
</a>
</g>
</g>
<!-- Node7&#45;&gt;Node14 -->
<g id="edge19" class="edge"><title>Node7&#45;&gt;Node14</title>
<path fill="none" stroke="midnightblue" d="M368.507,-58.2282C380.316,-55.3595 393.153,-51.18 404,-45.1493 423.235,-34.4551 419.549,-19.2801 440,-11.1493 481.198,5.23009 532.45,0.5397 568.146,-6.2597"/>
<polygon fill="midnightblue" stroke="midnightblue" points="567.74,-9.74886 578.238,-8.31667 569.138,-2.88989 567.74,-9.74886"/>
</g>
<!-- Node15 -->
<g id="node15" class="node"><title>Node15</title>
<g id="a_node15"><a xlink:href="_a_r_2include_2_a_r6_2_a_r_2matrix_8h.html#a929738025b539a0c1bbd2f395ad4d981" target="_top" xlink:title="arMatrixSelfInv">
<polygon fill="white" stroke="black" points="447.5,-73.6493 447.5,-92.6493 530.5,-92.6493 530.5,-73.6493 447.5,-73.6493"/>
<text text-anchor="middle" x="489" y="-80.6493" font-family="Helvetica,sans-Serif" font-size="10.00">arMatrixSelfInv</text>
</a>
</g>
</g>
<!-- Node7&#45;&gt;Node15 -->
<g id="edge18" class="edge"><title>Node7&#45;&gt;Node15</title>
<path fill="none" stroke="midnightblue" d="M368.575,-68.6039C389.036,-71.096 414.855,-74.2406 437.247,-76.9678"/>
<polygon fill="midnightblue" stroke="midnightblue" points="436.913,-80.4529 447.263,-78.1877 437.759,-73.5042 436.913,-80.4529"/>
</g>
<!-- Node10 -->
<g id="node10" class="node"><title>Node10</title>
<g id="a_node10"><a xlink:href="_a_r_2include_2_a_r6_2_a_r_2matrix_8h.html#a7169e4124d09fcbe1b8730ade678d64d" target="_top" xlink:title="arMatrixAlloc">
<polygon fill="white" stroke="black" points="575.5,-130.649 575.5,-149.649 649.5,-149.649 649.5,-130.649 575.5,-130.649"/>
<text text-anchor="middle" x="612.5" y="-137.649" font-family="Helvetica,sans-Serif" font-size="10.00">arMatrixAlloc</text>
</a>
</g>
</g>
<!-- Node9&#45;&gt;Node10 -->
<g id="edge10" class="edge"><title>Node9&#45;&gt;Node10</title>
<path fill="none" stroke="midnightblue" d="M538.02,-151.64C547.08,-150.223 556.536,-148.744 565.532,-147.338"/>
<polygon fill="midnightblue" stroke="midnightblue" points="566.108,-150.79 575.447,-145.787 565.026,-143.874 566.108,-150.79"/>
</g>
<!-- Node11 -->
<g id="node11" class="node"><title>Node11</title>
<g id="a_node11"><a xlink:href="_a_r_2include_2_a_r6_2_a_r_2matrix_8h.html#ad3d9712dd27f655902a8a3315e623d85" target="_top" xlink:title="arMatrixTrans">
<polygon fill="white" stroke="black" points="574,-168.649 574,-187.649 651,-187.649 651,-168.649 574,-168.649"/>
<text text-anchor="middle" x="612.5" y="-175.649" font-family="Helvetica,sans-Serif" font-size="10.00">arMatrixTrans</text>
</a>
</g>
</g>
<!-- Node9&#45;&gt;Node11 -->
<g id="edge11" class="edge"><title>Node9&#45;&gt;Node11</title>
<path fill="none" stroke="midnightblue" d="M538.02,-166.659C546.508,-167.986 555.344,-169.368 563.822,-170.694"/>
<polygon fill="midnightblue" stroke="midnightblue" points="563.52,-174.189 573.941,-172.276 564.601,-167.273 563.52,-174.189"/>
</g>
<!-- Node9&#45;&gt;Node12 -->
<g id="edge12" class="edge"><title>Node9&#45;&gt;Node12</title>
<path fill="none" stroke="midnightblue" d="M515.627,-149.601C522.924,-146.722 530.835,-143.446 538,-140.149 554.435,-132.587 557.93,-129.46 574,-121.149 576.982,-119.607 580.103,-118.006 583.217,-116.416"/>
<polygon fill="midnightblue" stroke="midnightblue" points="585.062,-119.404 592.391,-111.754 581.891,-113.164 585.062,-119.404"/>
</g>
<!-- Node13&#45;&gt;Node10 -->
<g id="edge14" class="edge"><title>Node13&#45;&gt;Node10</title>
<path fill="none" stroke="midnightblue" d="M533.521,-127.955C543.837,-129.568 554.876,-131.294 565.306,-132.925"/>
<polygon fill="midnightblue" stroke="midnightblue" points="565.063,-136.43 575.484,-134.517 566.145,-129.514 565.063,-136.43"/>
</g>
<!-- Node13&#45;&gt;Node12 -->
<g id="edge16" class="edge"><title>Node13&#45;&gt;Node12</title>
<path fill="none" stroke="midnightblue" d="M533.521,-114.343C544.254,-112.665 555.769,-110.864 566.568,-109.176"/>
<polygon fill="midnightblue" stroke="midnightblue" points="567.313,-112.602 576.652,-107.599 566.232,-105.686 567.313,-112.602"/>
</g>
<!-- Node13&#45;&gt;Node14 -->
<g id="edge15" class="edge"><title>Node13&#45;&gt;Node14</title>
<path fill="none" stroke="midnightblue" d="M520.59,-111.602C526.639,-109.022 532.738,-105.885 538,-102.149 563.974,-83.7091 586.715,-54.2129 599.781,-35.2658"/>
<polygon fill="midnightblue" stroke="midnightblue" points="602.725,-37.1607 605.39,-26.9066 596.912,-33.2606 602.725,-37.1607"/>
</g>
</g>
</svg>
