<?xml version="1.0" encoding="UTF-8" standalone="no"?>
<!DOCTYPE svg PUBLIC "-//W3C//DTD SVG 1.1//EN"
 "http://www.w3.org/Graphics/SVG/1.1/DTD/svg11.dtd">
<!-- Generated by graphviz version 2.38.0 (20140413.2041)
 -->
<!-- Title: arGetMarkerInfo Pages: 1 -->
<svg width="660pt" height="362pt"
 viewBox="0.00 0.00 660.00 361.57" xmlns="http://www.w3.org/2000/svg" xmlns:xlink="http://www.w3.org/1999/xlink">
<g id="graph0" class="graph" transform="scale(1 1) rotate(0) translate(4 357.568)">
<title>arGetMarkerInfo</title>
<polygon fill="white" stroke="none" points="-4,4 -4,-357.568 656,-357.568 656,4 -4,4"/>
<!-- Node1 -->
<g id="node1" class="node"><title>Node1</title>
<polygon fill="#bfbfbf" stroke="black" points="0,-231.667 0,-250.667 87,-250.667 87,-231.667 0,-231.667"/>
<text text-anchor="middle" x="43.5" y="-238.667" font-family="Helvetica,sans-Serif" font-size="10.00">arGetMarkerInfo</text>
</g>
<!-- Node2 -->
<g id="node2" class="node"><title>Node2</title>
<g id="a_node2"><a xlink:href="param_8h.html#a7929844b3a3b321f49d5aca138bd3d0c" target="_top" xlink:title="Use a lookup&#45;table camera parameter to convert observed (distorted) window coordinates to idealised (...">
<polygon fill="white" stroke="black" points="256,-231.667 256,-250.667 381,-250.667 381,-231.667 256,-231.667"/>
<text text-anchor="middle" x="318.5" y="-238.667" font-family="Helvetica,sans-Serif" font-size="10.00">arParamObserv2IdealLTf</text>
</a>
</g>
</g>
<!-- Node1&#45;&gt;Node2 -->
<g id="edge1" class="edge"><title>Node1&#45;&gt;Node2</title>
<path fill="none" stroke="midnightblue" d="M87.1562,-241.167C129.526,-241.167 195.277,-241.167 245.702,-241.167"/>
<polygon fill="midnightblue" stroke="midnightblue" points="245.893,-244.667 255.893,-241.167 245.893,-237.667 245.893,-244.667"/>
</g>
<!-- Node4 -->
<g id="node4" class="node"><title>Node4</title>
<g id="a_node4"><a xlink:href="ar_get_line_8c.html#a4edefe6026de468f8892a6359db67fbc" target="_top" xlink:title="arGetLine">
<polygon fill="white" stroke="black" points="142,-136.667 142,-155.667 201,-155.667 201,-136.667 142,-136.667"/>
<text text-anchor="middle" x="171.5" y="-143.667" font-family="Helvetica,sans-Serif" font-size="10.00">arGetLine</text>
</a>
</g>
</g>
<!-- Node1&#45;&gt;Node4 -->
<g id="edge3" class="edge"><title>Node1&#45;&gt;Node4</title>
<path fill="none" stroke="midnightblue" d="M57.5096,-231.358C79.315,-214.918 123.42,-181.664 149.611,-161.917"/>
<polygon fill="midnightblue" stroke="midnightblue" points="151.871,-164.596 157.749,-155.781 147.657,-159.007 151.871,-164.596"/>
</g>
<!-- Node12 -->
<g id="node12" class="node"><title>Node12</title>
<g id="a_node12"><a xlink:href="ar_patt_get_i_d_8c.html#acce963b8d7e85cedfcb4d33ece5f20db" target="_top" xlink:title="Match the interior of a detected square against known patterns with variable border width...">
<polygon fill="white" stroke="black" points="123,-288.667 123,-307.667 220,-307.667 220,-288.667 123,-288.667"/>
<text text-anchor="middle" x="171.5" y="-295.667" font-family="Helvetica,sans-Serif" font-size="10.00">arPattGetIDGlobal</text>
</a>
</g>
</g>
<!-- Node1&#45;&gt;Node12 -->
<g id="edge16" class="edge"><title>Node1&#45;&gt;Node12</title>
<path fill="none" stroke="midnightblue" d="M65.5896,-250.708C85.9411,-259.914 116.972,-273.952 140.011,-284.375"/>
<polygon fill="midnightblue" stroke="midnightblue" points="138.788,-287.663 149.342,-288.596 141.673,-281.285 138.788,-287.663"/>
</g>
<!-- Node3 -->
<g id="node3" class="node"><title>Node3</title>
<g id="a_node3"><a xlink:href="ioapi_8h.html#a787fa3cf048117ba7123753c1e74fcd6" target="_top" xlink:title="int">
<polygon fill="white" stroke="black" points="600.5,-269.667 600.5,-288.667 629.5,-288.667 629.5,-269.667 600.5,-269.667"/>
<text text-anchor="middle" x="615" y="-276.667" font-family="Helvetica,sans-Serif" font-size="10.00">int</text>
</a>
</g>
</g>
<!-- Node2&#45;&gt;Node3 -->
<g id="edge2" class="edge"><title>Node2&#45;&gt;Node3</title>
<path fill="none" stroke="midnightblue" d="M381.237,-249.133C446.369,-257.538 545.66,-270.349 590.533,-276.139"/>
<polygon fill="midnightblue" stroke="midnightblue" points="590.107,-279.613 600.473,-277.422 591.003,-272.671 590.107,-279.613"/>
</g>
<!-- Node4&#45;&gt;Node2 -->
<g id="edge7" class="edge"><title>Node4&#45;&gt;Node2</title>
<path fill="none" stroke="midnightblue" d="M181.944,-156.084C196.607,-171.016 226.267,-199.41 256,-217.167 262.78,-221.217 270.366,-224.825 277.833,-227.936"/>
<polygon fill="midnightblue" stroke="midnightblue" points="276.57,-231.2 287.157,-231.607 279.135,-224.687 276.57,-231.2"/>
</g>
<!-- Node4&#45;&gt;Node3 -->
<g id="edge6" class="edge"><title>Node4&#45;&gt;Node3</title>
<path fill="none" stroke="midnightblue" d="M201.1,-153.089C263.601,-168.46 416.795,-207.473 542,-250.167 558.627,-255.837 576.99,-263.252 591.01,-269.165"/>
<polygon fill="midnightblue" stroke="midnightblue" points="589.793,-272.451 600.364,-273.159 592.541,-266.013 589.793,-272.451"/>
</g>
<!-- Node5 -->
<g id="node5" class="node"><title>Node5</title>
<g id="a_node5"><a xlink:href="_a_r_2include_2_a_r6_2_a_r_2matrix_8h.html#ac94c691cd85259643eaef4162768e18a" target="_top" xlink:title="arVecAlloc">
<polygon fill="white" stroke="black" points="286.5,-41.6673 286.5,-60.6673 350.5,-60.6673 350.5,-41.6673 286.5,-41.6673"/>
<text text-anchor="middle" x="318.5" y="-48.6673" font-family="Helvetica,sans-Serif" font-size="10.00">arVecAlloc</text>
</a>
</g>
</g>
<!-- Node4&#45;&gt;Node5 -->
<g id="edge4" class="edge"><title>Node4&#45;&gt;Node5</title>
<path fill="none" stroke="midnightblue" d="M180.491,-136.543C194.288,-120.521 224.172,-88.3499 256,-70.1673 262.404,-66.5088 269.594,-63.4739 276.739,-60.9841"/>
<polygon fill="midnightblue" stroke="midnightblue" points="277.906,-64.2856 286.375,-57.9195 275.785,-57.6147 277.906,-64.2856"/>
</g>
<!-- Node6 -->
<g id="node6" class="node"><title>Node6</title>
<g id="a_node6"><a xlink:href="_a_r_2include_2_a_r6_2_a_r_2matrix_8h.html#a7169e4124d09fcbe1b8730ade678d64d" target="_top" xlink:title="arMatrixAlloc">
<polygon fill="white" stroke="black" points="578,-22.6673 578,-41.6673 652,-41.6673 652,-22.6673 578,-22.6673"/>
<text text-anchor="middle" x="615" y="-29.6673" font-family="Helvetica,sans-Serif" font-size="10.00">arMatrixAlloc</text>
</a>
</g>
</g>
<!-- Node4&#45;&gt;Node6 -->
<g id="edge5" class="edge"><title>Node4&#45;&gt;Node6</title>
<path fill="none" stroke="midnightblue" d="M176.044,-136.428C185.104,-113.177 211.583,-54.6911 256,-32.1673 358.631,19.8765 500.064,-3.35802 570.492,-20.2066"/>
<polygon fill="midnightblue" stroke="midnightblue" points="569.808,-23.6427 580.355,-22.6364 571.483,-16.8459 569.808,-23.6427"/>
</g>
<!-- Node7 -->
<g id="node7" class="node"><title>Node7</title>
<g id="a_node7"><a xlink:href="_a_r_2include_2_a_r6_2_a_r_2matrix_8h.html#a04d062f49b83d57ac0dec5e906dfcd32" target="_top" xlink:title="arMatrixPCA">
<polygon fill="white" stroke="black" points="282,-117.667 282,-136.667 355,-136.667 355,-117.667 282,-117.667"/>
<text text-anchor="middle" x="318.5" y="-124.667" font-family="Helvetica,sans-Serif" font-size="10.00">arMatrixPCA</text>
</a>
</g>
</g>
<!-- Node4&#45;&gt;Node7 -->
<g id="edge8" class="edge"><title>Node4&#45;&gt;Node7</title>
<path fill="none" stroke="midnightblue" d="M201.147,-142.414C221.35,-139.766 248.829,-136.166 272.01,-133.128"/>
<polygon fill="midnightblue" stroke="midnightblue" points="272.521,-136.591 281.981,-131.822 271.611,-129.651 272.521,-136.591"/>
</g>
<!-- Node10 -->
<g id="node10" class="node"><title>Node10</title>
<g id="a_node10"><a xlink:href="_a_r_2include_2_a_r6_2_a_r_2matrix_8h.html#ac4b7a714cce9fffda773d86363380454" target="_top" xlink:title="arMatrixFree">
<polygon fill="white" stroke="black" points="579.5,-117.667 579.5,-136.667 650.5,-136.667 650.5,-117.667 579.5,-117.667"/>
<text text-anchor="middle" x="615" y="-124.667" font-family="Helvetica,sans-Serif" font-size="10.00">arMatrixFree</text>
</a>
</g>
</g>
<!-- Node4&#45;&gt;Node10 -->
<g id="edge14" class="edge"><title>Node4&#45;&gt;Node10</title>
<path fill="none" stroke="midnightblue" d="M201.366,-147.691C263.762,-150.566 415.762,-155.307 542,-141.167 550.919,-140.168 560.384,-138.658 569.418,-136.994"/>
<polygon fill="midnightblue" stroke="midnightblue" points="570.229,-140.403 579.383,-135.069 568.901,-133.53 570.229,-140.403"/>
</g>
<!-- Node11 -->
<g id="node11" class="node"><title>Node11</title>
<g id="a_node11"><a xlink:href="_a_r_2include_2_a_r6_2_a_r_2matrix_8h.html#a08c0d02dd8ddfb8a05d07f3fb80db2c4" target="_top" xlink:title="arVecFree">
<polygon fill="white" stroke="black" points="287.5,-79.6673 287.5,-98.6673 349.5,-98.6673 349.5,-79.6673 287.5,-79.6673"/>
<text text-anchor="middle" x="318.5" y="-86.6673" font-family="Helvetica,sans-Serif" font-size="10.00">arVecFree</text>
</a>
</g>
</g>
<!-- Node4&#45;&gt;Node11 -->
<g id="edge15" class="edge"><title>Node4&#45;&gt;Node11</title>
<path fill="none" stroke="midnightblue" d="M191.773,-136.547C208.509,-128.4 233.52,-116.715 256,-108.167 262.894,-105.546 270.321,-103.013 277.548,-100.698"/>
<polygon fill="midnightblue" stroke="midnightblue" points="278.704,-104.004 287.21,-97.6873 276.622,-97.3207 278.704,-104.004"/>
</g>
<!-- Node8 -->
<g id="node8" class="node"><title>Node8</title>
<g id="a_node8"><a xlink:href="_a_r_2include_2_a_r6_2_a_r_2matrix_8h.html#a532fede01f09fff8e082d1e558a535b9" target="_top" xlink:title="arMatrixAllocDup">
<polygon fill="white" stroke="black" points="433.5,-79.6673 433.5,-98.6673 525.5,-98.6673 525.5,-79.6673 433.5,-79.6673"/>
<text text-anchor="middle" x="479.5" y="-86.6673" font-family="Helvetica,sans-Serif" font-size="10.00">arMatrixAllocDup</text>
</a>
</g>
</g>
<!-- Node7&#45;&gt;Node8 -->
<g id="edge9" class="edge"><title>Node7&#45;&gt;Node8</title>
<path fill="none" stroke="midnightblue" d="M355.183,-118.639C376.894,-113.451 404.945,-106.746 428.807,-101.044"/>
<polygon fill="midnightblue" stroke="midnightblue" points="429.834,-104.397 438.747,-98.6681 428.207,-97.5885 429.834,-104.397"/>
</g>
<!-- Node7&#45;&gt;Node10 -->
<g id="edge13" class="edge"><title>Node7&#45;&gt;Node10</title>
<path fill="none" stroke="midnightblue" d="M355.024,-127.167C408.71,-127.167 510.466,-127.167 569.175,-127.167"/>
<polygon fill="midnightblue" stroke="midnightblue" points="569.265,-130.667 579.265,-127.167 569.265,-123.667 569.265,-130.667"/>
</g>
<!-- Node8&#45;&gt;Node6 -->
<g id="edge10" class="edge"><title>Node8&#45;&gt;Node6</title>
<path fill="none" stroke="midnightblue" d="M502.845,-79.6268C524.6,-70.338 557.873,-56.1315 582.348,-45.6816"/>
<polygon fill="midnightblue" stroke="midnightblue" points="583.76,-48.8846 591.582,-41.739 581.011,-42.4469 583.76,-48.8846"/>
</g>
<!-- Node9 -->
<g id="node9" class="node"><title>Node9</title>
<g id="a_node9"><a xlink:href="_a_r_2include_2_a_r6_2_a_r_2matrix_8h.html#a988e4c76394edccbf1e86005b97f725a" target="_top" xlink:title="arMatrixDup">
<polygon fill="white" stroke="black" points="580,-79.6673 580,-98.6673 650,-98.6673 650,-79.6673 580,-79.6673"/>
<text text-anchor="middle" x="615" y="-86.6673" font-family="Helvetica,sans-Serif" font-size="10.00">arMatrixDup</text>
</a>
</g>
</g>
<!-- Node8&#45;&gt;Node9 -->
<g id="edge11" class="edge"><title>Node8&#45;&gt;Node9</title>
<path fill="none" stroke="midnightblue" d="M525.697,-89.1673C539.94,-89.1673 555.651,-89.1673 569.822,-89.1673"/>
<polygon fill="midnightblue" stroke="midnightblue" points="569.826,-92.6674 579.826,-89.1673 569.826,-85.6674 569.826,-92.6674"/>
</g>
<!-- Node8&#45;&gt;Node10 -->
<g id="edge12" class="edge"><title>Node8&#45;&gt;Node10</title>
<path fill="none" stroke="midnightblue" d="M514.188,-98.7563C531.263,-103.617 552.2,-109.576 570.482,-114.78"/>
<polygon fill="midnightblue" stroke="midnightblue" points="569.747,-118.21 580.323,-117.581 571.663,-111.477 569.747,-118.21"/>
</g>
<!-- Node12&#45;&gt;Node3 -->
<g id="edge21" class="edge"><title>Node12&#45;&gt;Node3</title>
<path fill="none" stroke="midnightblue" d="M197.108,-307.747C257.676,-329.842 418.055,-379.29 542,-336.167 564.657,-328.285 585.554,-309.976 598.932,-296.222"/>
<polygon fill="midnightblue" stroke="midnightblue" points="601.631,-298.46 605.897,-288.762 596.514,-293.683 601.631,-298.46"/>
</g>
<!-- Node13 -->
<g id="node13" class="node"><title>Node13</title>
<g id="a_node13"><a xlink:href="ar_patt_get_i_d_8c.html#a85629f26a05cd8cb8644c5e95e581d4d" target="_top" xlink:title="Extract the image (i.e. locate and unwarp) of the pattern&#45;space portion of a detected square...">
<polygon fill="white" stroke="black" points="273,-288.667 273,-307.667 364,-307.667 364,-288.667 273,-288.667"/>
<text text-anchor="middle" x="318.5" y="-295.667" font-family="Helvetica,sans-Serif" font-size="10.00">arPattGetImage2</text>
</a>
</g>
</g>
<!-- Node12&#45;&gt;Node13 -->
<g id="edge17" class="edge"><title>Node12&#45;&gt;Node13</title>
<path fill="none" stroke="midnightblue" d="M220.38,-298.167C233.79,-298.167 248.475,-298.167 262.274,-298.167"/>
<polygon fill="midnightblue" stroke="midnightblue" points="262.617,-301.667 272.617,-298.167 262.617,-294.667 262.617,-301.667"/>
</g>
<!-- Node13&#45;&gt;Node3 -->
<g id="edge18" class="edge"><title>Node13&#45;&gt;Node3</title>
<path fill="none" stroke="midnightblue" d="M364.228,-295.282C427.523,-291.198 540.991,-283.878 590.177,-280.704"/>
<polygon fill="midnightblue" stroke="midnightblue" points="590.693,-284.178 600.447,-280.042 590.243,-277.193 590.693,-284.178"/>
</g>
<!-- Node14 -->
<g id="node14" class="node"><title>Node14</title>
<g id="a_node14"><a xlink:href="param_8h.html#af28ec15693678c1e60242cf44e1c1a3f" target="_top" xlink:title="Use a lookup&#45;table camera parameter to convert idealised (zero&#45;distortion) window coordinates to obse...">
<polygon fill="white" stroke="black" points="417,-307.667 417,-326.667 542,-326.667 542,-307.667 417,-307.667"/>
<text text-anchor="middle" x="479.5" y="-314.667" font-family="Helvetica,sans-Serif" font-size="10.00">arParamIdeal2ObservLTf</text>
</a>
</g>
</g>
<!-- Node13&#45;&gt;Node14 -->
<g id="edge19" class="edge"><title>Node13&#45;&gt;Node14</title>
<path fill="none" stroke="midnightblue" d="M364.213,-303.51C377.498,-305.098 392.396,-306.878 406.936,-308.616"/>
<polygon fill="midnightblue" stroke="midnightblue" points="406.577,-312.098 416.922,-309.809 407.408,-305.147 406.577,-312.098"/>
</g>
<!-- Node14&#45;&gt;Node3 -->
<g id="edge20" class="edge"><title>Node14&#45;&gt;Node3</title>
<path fill="none" stroke="midnightblue" d="M514.188,-307.578C537.976,-300.807 569.259,-291.902 590.415,-285.881"/>
<polygon fill="midnightblue" stroke="midnightblue" points="591.525,-289.204 600.185,-283.1 589.609,-282.471 591.525,-289.204"/>
</g>
</g>
</svg>
