<?xml version="1.0" encoding="UTF-8" standalone="no"?>
<!DOCTYPE svg PUBLIC "-//W3C//DTD SVG 1.1//EN"
 "http://www.w3.org/Graphics/SVG/1.1/DTD/svg11.dtd">
<!-- Generated by graphviz version 2.38.0 (20140413.2041)
 -->
<!-- Title: /bitrise/src/Source/AR6/AR/arGetTransMatStereo.c Pages: 1 -->
<svg width="960pt" height="207pt"
 viewBox="0.00 0.00 959.56 207.00" xmlns="http://www.w3.org/2000/svg" xmlns:xlink="http://www.w3.org/1999/xlink">
<g id="graph0" class="graph" transform="scale(1 1) rotate(0) translate(4 203)">
<title>/bitrise/src/Source/AR6/AR/arGetTransMatStereo.c</title>
<polygon fill="white" stroke="none" points="-4,4 -4,-203 955.563,-203 955.563,4 -4,4"/>
<!-- Node1 -->
<g id="node1" class="node"><title>Node1</title>
<polygon fill="#bfbfbf" stroke="black" points="409.5,-168.5 409.5,-198.5 570.5,-198.5 570.5,-168.5 409.5,-168.5"/>
<text text-anchor="start" x="417.5" y="-186.5" font-family="Helvetica,sans-Serif" font-size="10.00">/bitrise/src/Source</text>
<text text-anchor="middle" x="490" y="-175.5" font-family="Helvetica,sans-Serif" font-size="10.00">/AR6/AR/arGetTransMatStereo.c</text>
</g>
<!-- Node2 -->
<g id="node2" class="node"><title>Node2</title>
<polygon fill="white" stroke="#bfbfbf" points="0,-0.5 0,-19.5 48,-19.5 48,-0.5 0,-0.5"/>
<text text-anchor="middle" x="24" y="-7.5" font-family="Helvetica,sans-Serif" font-size="10.00">stdlib.h</text>
</g>
<!-- Node1&#45;&gt;Node2 -->
<g id="edge1" class="edge"><title>Node1&#45;&gt;Node2</title>
<path fill="none" stroke="midnightblue" d="M409.28,-171.47C298.404,-154.9 106.599,-120.699 53,-76 38.934,-64.2698 31.4346,-44.3336 27.613,-29.6257"/>
<polygon fill="midnightblue" stroke="midnightblue" points="30.9713,-28.6069 25.3598,-19.6202 24.1424,-30.1448 30.9713,-28.6069"/>
</g>
<!-- Node3 -->
<g id="node3" class="node"><title>Node3</title>
<polygon fill="white" stroke="#bfbfbf" points="904.5,-0.5 904.5,-19.5 951.5,-19.5 951.5,-0.5 904.5,-0.5"/>
<text text-anchor="middle" x="928" y="-7.5" font-family="Helvetica,sans-Serif" font-size="10.00">math.h</text>
</g>
<!-- Node1&#45;&gt;Node3 -->
<g id="edge2" class="edge"><title>Node1&#45;&gt;Node3</title>
<path fill="none" stroke="midnightblue" d="M570.753,-175.476C688.941,-163.334 900.02,-133.956 946,-76 956.88,-62.2861 948.914,-42.4222 940.403,-28.2682"/>
<polygon fill="midnightblue" stroke="midnightblue" points="943.07,-25.9552 934.648,-19.5273 937.224,-29.8043 943.07,-25.9552"/>
</g>
<!-- Node4 -->
<g id="node4" class="node"><title>Node4</title>
<g id="a_node4"><a xlink:href="ar_8h.html" target="_top" xlink:title="ARToolKit core routines. ">
<polygon fill="white" stroke="black" points="453.5,-112.5 453.5,-131.5 526.5,-131.5 526.5,-112.5 453.5,-112.5"/>
<text text-anchor="middle" x="490" y="-119.5" font-family="Helvetica,sans-Serif" font-size="10.00">AR6/AR/ar.h</text>
</a>
</g>
</g>
<!-- Node1&#45;&gt;Node4 -->
<g id="edge3" class="edge"><title>Node1&#45;&gt;Node4</title>
<path fill="none" stroke="midnightblue" d="M490,-168.399C490,-160.466 490,-150.458 490,-141.858"/>
<polygon fill="midnightblue" stroke="midnightblue" points="493.5,-141.658 490,-131.658 486.5,-141.658 493.5,-141.658"/>
</g>
<!-- Node4&#45;&gt;Node2 -->
<g id="edge5" class="edge"><title>Node4&#45;&gt;Node2</title>
<path fill="none" stroke="midnightblue" d="M453.261,-120.327C365.346,-118.187 145.385,-109.538 81,-76 60.2759,-65.2047 43.6771,-43.4995 33.8509,-28.1468"/>
<polygon fill="midnightblue" stroke="midnightblue" points="36.8175,-26.2889 28.6315,-19.5628 30.8364,-29.9257 36.8175,-26.2889"/>
</g>
<!-- Node5 -->
<g id="node5" class="node"><title>Node5</title>
<polygon fill="white" stroke="#bfbfbf" points="290,-0.5 290,-19.5 336,-19.5 336,-0.5 290,-0.5"/>
<text text-anchor="middle" x="313" y="-7.5" font-family="Helvetica,sans-Serif" font-size="10.00">stdio.h</text>
</g>
<!-- Node4&#45;&gt;Node5 -->
<g id="edge4" class="edge"><title>Node4&#45;&gt;Node5</title>
<path fill="none" stroke="midnightblue" d="M453.308,-119.724C418.53,-116.579 366.984,-106.613 335,-76 322.504,-64.04 317.106,-44.7389 314.774,-30.2705"/>
<polygon fill="midnightblue" stroke="midnightblue" points="318.196,-29.4252 313.484,-19.9358 311.249,-30.2923 318.196,-29.4252"/>
</g>
<!-- Node6 -->
<g id="node6" class="node"><title>Node6</title>
<polygon fill="white" stroke="#bfbfbf" points="238.5,-56.5 238.5,-75.5 287.5,-75.5 287.5,-56.5 238.5,-56.5"/>
<text text-anchor="middle" x="263" y="-63.5" font-family="Helvetica,sans-Serif" font-size="10.00">stdint.h</text>
</g>
<!-- Node4&#45;&gt;Node6 -->
<g id="edge6" class="edge"><title>Node4&#45;&gt;Node6</title>
<path fill="none" stroke="midnightblue" d="M454.031,-112.444C411.068,-102.223 339.714,-85.2491 297.439,-75.1924"/>
<polygon fill="midnightblue" stroke="midnightblue" points="298.145,-71.7629 287.607,-72.8536 296.525,-78.5729 298.145,-71.7629"/>
</g>
<!-- Node7 -->
<g id="node7" class="node"><title>Node7</title>
<polygon fill="white" stroke="#bfbfbf" points="219.5,-0.5 219.5,-19.5 268.5,-19.5 268.5,-0.5 219.5,-0.5"/>
<text text-anchor="middle" x="244" y="-7.5" font-family="Helvetica,sans-Serif" font-size="10.00">string.h</text>
</g>
<!-- Node4&#45;&gt;Node7 -->
<g id="edge7" class="edge"><title>Node4&#45;&gt;Node7</title>
<path fill="none" stroke="midnightblue" d="M453.282,-120.257C388.309,-118.082 257.253,-109.541 229,-76 217.846,-62.7578 224.835,-42.8146 232.58,-28.5131"/>
<polygon fill="midnightblue" stroke="midnightblue" points="235.74,-30.0477 237.85,-19.665 229.726,-26.4658 235.74,-30.0477"/>
</g>
<!-- Node8 -->
<g id="node8" class="node"><title>Node8</title>
<polygon fill="white" stroke="#bfbfbf" points="672.5,-0.5 672.5,-19.5 763.5,-19.5 763.5,-0.5 672.5,-0.5"/>
<text text-anchor="middle" x="718" y="-7.5" font-family="Helvetica,sans-Serif" font-size="10.00">AR6/AR/config.h</text>
</g>
<!-- Node4&#45;&gt;Node8 -->
<g id="edge8" class="edge"><title>Node4&#45;&gt;Node8</title>
<path fill="none" stroke="midnightblue" d="M526.553,-121.347C600.393,-121.184 763.276,-116.166 798,-76 816.243,-54.8974 782.609,-35.3941 753.51,-23.3666"/>
<polygon fill="midnightblue" stroke="midnightblue" points="754.484,-19.9886 743.897,-19.5827 751.92,-26.5022 754.484,-19.9886"/>
</g>
<!-- Node9 -->
<g id="node9" class="node"><title>Node9</title>
<g id="a_node9"><a xlink:href="ar_config_8h.html" target="_top" xlink:title="AR6/AR/arConfig.h">
<polygon fill="white" stroke="black" points="439.5,-56.5 439.5,-75.5 540.5,-75.5 540.5,-56.5 439.5,-56.5"/>
<text text-anchor="middle" x="490" y="-63.5" font-family="Helvetica,sans-Serif" font-size="10.00">AR6/AR/arConfig.h</text>
</a>
</g>
</g>
<!-- Node4&#45;&gt;Node9 -->
<g id="edge9" class="edge"><title>Node4&#45;&gt;Node9</title>
<path fill="none" stroke="midnightblue" d="M490,-112.083C490,-105.006 490,-94.8611 490,-85.9865"/>
<polygon fill="midnightblue" stroke="midnightblue" points="493.5,-85.751 490,-75.7511 486.5,-85.7511 493.5,-85.751"/>
</g>
<!-- Node10 -->
<g id="node10" class="node"><title>Node10</title>
<g id="a_node10"><a xlink:href="log_8h.html" target="_top" xlink:title="Logging utilities. ">
<polygon fill="white" stroke="black" points="90,-56.5 90,-75.5 182,-75.5 182,-56.5 90,-56.5"/>
<text text-anchor="middle" x="136" y="-63.5" font-family="Helvetica,sans-Serif" font-size="10.00">AR6/ARUtil/log.h</text>
</a>
</g>
</g>
<!-- Node4&#45;&gt;Node10 -->
<g id="edge10" class="edge"><title>Node4&#45;&gt;Node10</title>
<path fill="none" stroke="midnightblue" d="M453.449,-115.424C391.445,-105.966 265.267,-86.7187 192.04,-75.5484"/>
<polygon fill="midnightblue" stroke="midnightblue" points="192.484,-72.0758 182.071,-74.0277 191.429,-78.9958 192.484,-72.0758"/>
</g>
<!-- Node13 -->
<g id="node13" class="node"><title>Node13</title>
<g id="a_node13"><a xlink:href="_a_r_2include_2_a_r6_2_a_r_2matrix_8h.html" target="_top" xlink:title="AR6/AR/matrix.h">
<polygon fill="white" stroke="black" points="845,-56.5 845,-75.5 937,-75.5 937,-56.5 845,-56.5"/>
<text text-anchor="middle" x="891" y="-63.5" font-family="Helvetica,sans-Serif" font-size="10.00">AR6/AR/matrix.h</text>
</a>
</g>
</g>
<!-- Node4&#45;&gt;Node13 -->
<g id="edge16" class="edge"><title>Node4&#45;&gt;Node13</title>
<path fill="none" stroke="midnightblue" d="M526.615,-116.384C589.092,-108.459 720.279,-91.6085 831,-76 832.261,-75.8222 833.537,-75.6411 834.824,-75.4574"/>
<polygon fill="midnightblue" stroke="midnightblue" points="835.428,-78.9065 844.824,-74.0105 834.426,-71.9786 835.428,-78.9065"/>
</g>
<!-- Node14 -->
<g id="node14" class="node"><title>Node14</title>
<g id="a_node14"><a xlink:href="icp_8h.html" target="_top" xlink:title="AR6/AR/icp.h">
<polygon fill="white" stroke="black" points="344.5,-56.5 344.5,-75.5 421.5,-75.5 421.5,-56.5 344.5,-56.5"/>
<text text-anchor="middle" x="383" y="-63.5" font-family="Helvetica,sans-Serif" font-size="10.00">AR6/AR/icp.h</text>
</a>
</g>
</g>
<!-- Node4&#45;&gt;Node14 -->
<g id="edge18" class="edge"><title>Node4&#45;&gt;Node14</title>
<path fill="none" stroke="midnightblue" d="M472.809,-112.324C455.649,-103.664 429.054,-90.2424 409.253,-80.249"/>
<polygon fill="midnightblue" stroke="midnightblue" points="410.653,-77.0354 400.149,-75.6545 407.499,-83.2847 410.653,-77.0354"/>
</g>
<!-- Node16 -->
<g id="node16" class="node"><title>Node16</title>
<g id="a_node16"><a xlink:href="param_8h.html" target="_top" xlink:title="ARToolKit functions for handling calibrated camera parameters. ">
<polygon fill="white" stroke="black" points="697,-56.5 697,-75.5 789,-75.5 789,-56.5 697,-56.5"/>
<text text-anchor="middle" x="743" y="-63.5" font-family="Helvetica,sans-Serif" font-size="10.00">AR6/AR/param.h</text>
</a>
</g>
</g>
<!-- Node4&#45;&gt;Node16 -->
<g id="edge21" class="edge"><title>Node4&#45;&gt;Node16</title>
<path fill="none" stroke="midnightblue" d="M525,-112.444C567.245,-102.984 638.542,-87.7384 688.102,-77.5472"/>
<polygon fill="midnightblue" stroke="midnightblue" points="688.924,-80.9515 698.019,-75.5164 687.52,-74.0938 688.924,-80.9515"/>
</g>
<!-- Node17 -->
<g id="node17" class="node"><title>Node17</title>
<g id="a_node17"><a xlink:href="ar_image_proc_8h.html" target="_top" xlink:title="ARToolKit functions for 2D luminance image processing. ">
<polygon fill="white" stroke="black" points="559,-56.5 559,-75.5 679,-75.5 679,-56.5 559,-56.5"/>
<text text-anchor="middle" x="619" y="-63.5" font-family="Helvetica,sans-Serif" font-size="10.00">AR6/AR/arImageProc.h</text>
</a>
</g>
</g>
<!-- Node4&#45;&gt;Node17 -->
<g id="edge23" class="edge"><title>Node4&#45;&gt;Node17</title>
<path fill="none" stroke="midnightblue" d="M505.352,-112.444C524.804,-103.478 558.418,-89.314 584.147,-79.1827"/>
<polygon fill="midnightblue" stroke="midnightblue" points="585.524,-82.4027 593.575,-75.5164 582.987,-75.8786 585.524,-82.4027"/>
</g>
<!-- Node10&#45;&gt;Node2 -->
<g id="edge12" class="edge"><title>Node10&#45;&gt;Node2</title>
<path fill="none" stroke="midnightblue" d="M118.005,-56.324C99.9623,-47.6247 71.9531,-34.1202 51.1973,-24.113"/>
<polygon fill="midnightblue" stroke="midnightblue" points="52.4778,-20.8449 41.9501,-19.6545 49.4377,-27.1502 52.4778,-20.8449"/>
</g>
<!-- Node10&#45;&gt;Node5 -->
<g id="edge11" class="edge"><title>Node10&#45;&gt;Node5</title>
<path fill="none" stroke="midnightblue" d="M164.046,-56.4435C195.584,-46.8219 246.741,-31.2147 280.129,-21.0283"/>
<polygon fill="midnightblue" stroke="midnightblue" points="281.336,-24.3195 289.88,-18.0537 279.293,-17.6242 281.336,-24.3195"/>
</g>
<!-- Node10&#45;&gt;Node7 -->
<g id="edge13" class="edge"><title>Node10&#45;&gt;Node7</title>
<path fill="none" stroke="midnightblue" d="M153.352,-56.324C170.672,-47.6641 197.515,-34.2424 217.502,-24.249"/>
<polygon fill="midnightblue" stroke="midnightblue" points="219.312,-27.2572 226.691,-19.6545 216.181,-20.9962 219.312,-27.2572"/>
</g>
<!-- Node11 -->
<g id="node11" class="node"><title>Node11</title>
<polygon fill="white" stroke="#bfbfbf" points="66,-0.5 66,-19.5 118,-19.5 118,-0.5 66,-0.5"/>
<text text-anchor="middle" x="92" y="-7.5" font-family="Helvetica,sans-Serif" font-size="10.00">stdarg.h</text>
</g>
<!-- Node10&#45;&gt;Node11 -->
<g id="edge14" class="edge"><title>Node10&#45;&gt;Node11</title>
<path fill="none" stroke="midnightblue" d="M128.734,-56.083C122.455,-48.3768 113.212,-37.0333 105.569,-27.6531"/>
<polygon fill="midnightblue" stroke="midnightblue" points="108.161,-25.2926 99.1305,-19.7511 102.734,-29.7143 108.161,-25.2926"/>
</g>
<!-- Node12 -->
<g id="node12" class="node"><title>Node12</title>
<polygon fill="white" stroke="#bfbfbf" points="136.5,-0.5 136.5,-19.5 201.5,-19.5 201.5,-0.5 136.5,-0.5"/>
<text text-anchor="middle" x="169" y="-7.5" font-family="Helvetica,sans-Serif" font-size="10.00">sys/errno.h</text>
</g>
<!-- Node10&#45;&gt;Node12 -->
<g id="edge15" class="edge"><title>Node10&#45;&gt;Node12</title>
<path fill="none" stroke="midnightblue" d="M141.449,-56.083C146.014,-48.6127 152.668,-37.7244 158.293,-28.5199"/>
<polygon fill="midnightblue" stroke="midnightblue" points="161.424,-30.109 163.652,-19.7511 155.451,-26.4588 161.424,-30.109"/>
</g>
<!-- Node13&#45;&gt;Node3 -->
<g id="edge17" class="edge"><title>Node13&#45;&gt;Node3</title>
<path fill="none" stroke="midnightblue" d="M897.11,-56.083C902.282,-48.5341 909.846,-37.4948 916.194,-28.2298"/>
<polygon fill="midnightblue" stroke="midnightblue" points="919.239,-29.9787 922.004,-19.7511 913.464,-26.0221 919.239,-29.9787"/>
</g>
<!-- Node14&#45;&gt;Node5 -->
<g id="edge19" class="edge"><title>Node14&#45;&gt;Node5</title>
<path fill="none" stroke="midnightblue" d="M371.753,-56.324C361.203,-48.1849 345.199,-35.8395 332.558,-26.0874"/>
<polygon fill="midnightblue" stroke="midnightblue" points="334.507,-23.1707 324.451,-19.8339 330.231,-28.7132 334.507,-23.1707"/>
</g>
<!-- Node15 -->
<g id="node15" class="node"><title>Node15</title>
<g id="a_node15"><a xlink:href="icp_core_8h.html" target="_top" xlink:title="AR6/AR/icpCore.h">
<polygon fill="white" stroke="black" points="354,-0.5 354,-19.5 452,-19.5 452,-0.5 354,-0.5"/>
<text text-anchor="middle" x="403" y="-7.5" font-family="Helvetica,sans-Serif" font-size="10.00">AR6/AR/icpCore.h</text>
</a>
</g>
</g>
<!-- Node14&#45;&gt;Node15 -->
<g id="edge20" class="edge"><title>Node14&#45;&gt;Node15</title>
<path fill="none" stroke="midnightblue" d="M386.303,-56.083C388.982,-48.8486 392.849,-38.4087 396.186,-29.3968"/>
<polygon fill="midnightblue" stroke="midnightblue" points="399.568,-30.3442 399.759,-19.7511 393.004,-27.9129 399.568,-30.3442"/>
</g>
<!-- Node16&#45;&gt;Node4 -->
<g id="edge22" class="edge"><title>Node16&#45;&gt;Node4</title>
<path fill="none" stroke="midnightblue" d="M707.979,-75.5611C663.295,-85.5667 586.131,-102.041 536.551,-112.163"/>
<polygon fill="midnightblue" stroke="midnightblue" points="535.819,-108.74 526.716,-114.161 537.212,-115.6 535.819,-108.74"/>
</g>
<!-- Node17&#45;&gt;Node4 -->
<g id="edge25" class="edge"><title>Node17&#45;&gt;Node4</title>
<path fill="none" stroke="midnightblue" d="M603.735,-75.5164C584.325,-84.4669 550.72,-98.6287 524.968,-108.772"/>
<polygon fill="midnightblue" stroke="midnightblue" points="523.58,-105.556 515.529,-112.444 526.118,-112.08 523.58,-105.556"/>
</g>
<!-- Node17&#45;&gt;Node8 -->
<g id="edge24" class="edge"><title>Node17&#45;&gt;Node8</title>
<path fill="none" stroke="midnightblue" d="M634.906,-56.324C650.638,-47.7428 674.942,-34.486 693.209,-24.5224"/>
<polygon fill="midnightblue" stroke="midnightblue" points="695.03,-27.5157 702.133,-19.6545 691.678,-21.3704 695.03,-27.5157"/>
</g>
</g>
</svg>
