<?xml version="1.0" encoding="UTF-8" standalone="no"?>
<!DOCTYPE svg PUBLIC "-//W3C//DTD SVG 1.1//EN"
 "http://www.w3.org/Graphics/SVG/1.1/DTD/svg11.dtd">
<!-- Generated by graphviz version 2.38.0 (20140413.2041)
 -->
<!-- Title: /bitrise/src/Source/AR6/AR/arGetTransMat.c Pages: 1 -->
<svg width="928pt" height="207pt"
 viewBox="0.00 0.00 928.00 207.00" xmlns="http://www.w3.org/2000/svg" xmlns:xlink="http://www.w3.org/1999/xlink">
<g id="graph0" class="graph" transform="scale(1 1) rotate(0) translate(4 203)">
<title>/bitrise/src/Source/AR6/AR/arGetTransMat.c</title>
<polygon fill="white" stroke="none" points="-4,4 -4,-203 924,-203 924,4 -4,4"/>
<!-- Node1 -->
<g id="node1" class="node"><title>Node1</title>
<polygon fill="#bfbfbf" stroke="black" points="300.5,-168.5 300.5,-198.5 433.5,-198.5 433.5,-168.5 300.5,-168.5"/>
<text text-anchor="start" x="308.5" y="-186.5" font-family="Helvetica,sans-Serif" font-size="10.00">/bitrise/src/Source</text>
<text text-anchor="middle" x="367" y="-175.5" font-family="Helvetica,sans-Serif" font-size="10.00">/AR6/AR/arGetTransMat.c</text>
</g>
<!-- Node2 -->
<g id="node2" class="node"><title>Node2</title>
<g id="a_node2"><a xlink:href="ar_8h.html" target="_top" xlink:title="ARToolKit core routines. ">
<polygon fill="white" stroke="black" points="437.5,-112.5 437.5,-131.5 510.5,-131.5 510.5,-112.5 437.5,-112.5"/>
<text text-anchor="middle" x="474" y="-119.5" font-family="Helvetica,sans-Serif" font-size="10.00">AR6/AR/ar.h</text>
</a>
</g>
</g>
<!-- Node1&#45;&gt;Node2 -->
<g id="edge1" class="edge"><title>Node1&#45;&gt;Node2</title>
<path fill="none" stroke="midnightblue" d="M392.358,-168.399C409.669,-158.773 432.476,-146.09 449.584,-136.577"/>
<polygon fill="midnightblue" stroke="midnightblue" points="451.392,-139.577 458.431,-131.658 447.99,-133.459 451.392,-139.577"/>
</g>
<!-- Node14 -->
<g id="node14" class="node"><title>Node14</title>
<g id="a_node14"><a xlink:href="icp_8h.html" target="_top" xlink:title="AR6/AR/icp.h">
<polygon fill="white" stroke="black" points="34.5,-56.5 34.5,-75.5 111.5,-75.5 111.5,-56.5 34.5,-56.5"/>
<text text-anchor="middle" x="73" y="-63.5" font-family="Helvetica,sans-Serif" font-size="10.00">AR6/AR/icp.h</text>
</a>
</g>
</g>
<!-- Node1&#45;&gt;Node14 -->
<g id="edge24" class="edge"><title>Node1&#45;&gt;Node14</title>
<path fill="none" stroke="midnightblue" d="M331.244,-168.453C273.186,-145.645 159.376,-100.933 104.315,-79.3022"/>
<polygon fill="midnightblue" stroke="midnightblue" points="105.331,-75.9412 94.744,-75.5423 102.772,-82.4565 105.331,-75.9412"/>
</g>
<!-- Node3 -->
<g id="node3" class="node"><title>Node3</title>
<polygon fill="white" stroke="#bfbfbf" points="116,-0.5 116,-19.5 162,-19.5 162,-0.5 116,-0.5"/>
<text text-anchor="middle" x="139" y="-7.5" font-family="Helvetica,sans-Serif" font-size="10.00">stdio.h</text>
</g>
<!-- Node2&#45;&gt;Node3 -->
<g id="edge2" class="edge"><title>Node2&#45;&gt;Node3</title>
<path fill="none" stroke="midnightblue" d="M437.266,-120.545C363.356,-118.883 200.211,-111.214 159,-76 145.696,-64.6315 141.093,-44.6382 139.575,-29.8181"/>
<polygon fill="midnightblue" stroke="midnightblue" points="143.061,-29.4756 138.923,-19.722 136.075,-29.9268 143.061,-29.4756"/>
</g>
<!-- Node4 -->
<g id="node4" class="node"><title>Node4</title>
<polygon fill="white" stroke="#bfbfbf" points="334,-0.5 334,-19.5 382,-19.5 382,-0.5 334,-0.5"/>
<text text-anchor="middle" x="358" y="-7.5" font-family="Helvetica,sans-Serif" font-size="10.00">stdlib.h</text>
</g>
<!-- Node2&#45;&gt;Node4 -->
<g id="edge3" class="edge"><title>Node2&#45;&gt;Node4</title>
<path fill="none" stroke="midnightblue" d="M437.151,-112.67C416.094,-106.083 390.811,-94.7722 375,-76 364.09,-63.0472 360.087,-43.8795 358.666,-29.7125"/>
<polygon fill="midnightblue" stroke="midnightblue" points="362.152,-29.3833 357.997,-19.6372 355.167,-29.8472 362.152,-29.3833"/>
</g>
<!-- Node5 -->
<g id="node5" class="node"><title>Node5</title>
<polygon fill="white" stroke="#bfbfbf" points="168.5,-56.5 168.5,-75.5 217.5,-75.5 217.5,-56.5 168.5,-56.5"/>
<text text-anchor="middle" x="193" y="-63.5" font-family="Helvetica,sans-Serif" font-size="10.00">stdint.h</text>
</g>
<!-- Node2&#45;&gt;Node5 -->
<g id="edge4" class="edge"><title>Node2&#45;&gt;Node5</title>
<path fill="none" stroke="midnightblue" d="M437.409,-115.257C390.922,-107.758 308.035,-93.7135 227.619,-75.992"/>
<polygon fill="midnightblue" stroke="midnightblue" points="228.349,-72.5688 217.827,-73.8128 226.828,-79.4017 228.349,-72.5688"/>
</g>
<!-- Node6 -->
<g id="node6" class="node"><title>Node6</title>
<polygon fill="white" stroke="#bfbfbf" points="444.5,-0.5 444.5,-19.5 493.5,-19.5 493.5,-0.5 444.5,-0.5"/>
<text text-anchor="middle" x="469" y="-7.5" font-family="Helvetica,sans-Serif" font-size="10.00">string.h</text>
</g>
<!-- Node2&#45;&gt;Node6 -->
<g id="edge5" class="edge"><title>Node2&#45;&gt;Node6</title>
<path fill="none" stroke="midnightblue" d="M479.907,-112.24C487.543,-99.8221 499.272,-76.3442 494,-56 491.454,-46.1752 486.247,-36.2118 481.241,-28.166"/>
<polygon fill="midnightblue" stroke="midnightblue" points="484.08,-26.1143 475.629,-19.7252 478.251,-29.9903 484.08,-26.1143"/>
</g>
<!-- Node7 -->
<g id="node7" class="node"><title>Node7</title>
<polygon fill="white" stroke="#bfbfbf" points="703.5,-0.5 703.5,-19.5 794.5,-19.5 794.5,-0.5 703.5,-0.5"/>
<text text-anchor="middle" x="749" y="-7.5" font-family="Helvetica,sans-Serif" font-size="10.00">AR6/AR/config.h</text>
</g>
<!-- Node2&#45;&gt;Node7 -->
<g id="edge6" class="edge"><title>Node2&#45;&gt;Node7</title>
<path fill="none" stroke="midnightblue" d="M510.717,-121.326C584.45,-121.115 746.44,-115.995 781,-76 793.629,-61.3851 779.592,-40.9153 766.337,-26.8734"/>
<polygon fill="midnightblue" stroke="midnightblue" points="768.789,-24.3758 759.228,-19.8118 763.856,-29.3422 768.789,-24.3758"/>
</g>
<!-- Node8 -->
<g id="node8" class="node"><title>Node8</title>
<g id="a_node8"><a xlink:href="ar_config_8h.html" target="_top" xlink:title="AR6/AR/arConfig.h">
<polygon fill="white" stroke="black" points="384.5,-56.5 384.5,-75.5 485.5,-75.5 485.5,-56.5 384.5,-56.5"/>
<text text-anchor="middle" x="435" y="-63.5" font-family="Helvetica,sans-Serif" font-size="10.00">AR6/AR/arConfig.h</text>
</a>
</g>
</g>
<!-- Node2&#45;&gt;Node8 -->
<g id="edge7" class="edge"><title>Node2&#45;&gt;Node8</title>
<path fill="none" stroke="midnightblue" d="M467.56,-112.083C462.051,-104.455 453.969,-93.2645 447.235,-83.9408"/>
<polygon fill="midnightblue" stroke="midnightblue" points="450.013,-81.8087 441.32,-75.7511 444.338,-85.9071 450.013,-81.8087"/>
</g>
<!-- Node9 -->
<g id="node9" class="node"><title>Node9</title>
<g id="a_node9"><a xlink:href="log_8h.html" target="_top" xlink:title="Logging utilities. ">
<polygon fill="white" stroke="black" points="236,-56.5 236,-75.5 328,-75.5 328,-56.5 236,-56.5"/>
<text text-anchor="middle" x="282" y="-63.5" font-family="Helvetica,sans-Serif" font-size="10.00">AR6/ARUtil/log.h</text>
</a>
</g>
</g>
<!-- Node2&#45;&gt;Node9 -->
<g id="edge8" class="edge"><title>Node2&#45;&gt;Node9</title>
<path fill="none" stroke="midnightblue" d="M443.577,-112.444C410.715,-103.201 358.215,-88.4356 322.026,-78.2572"/>
<polygon fill="midnightblue" stroke="midnightblue" points="322.855,-74.8547 312.281,-75.5164 320.96,-81.5932 322.855,-74.8547"/>
</g>
<!-- Node12 -->
<g id="node12" class="node"><title>Node12</title>
<g id="a_node12"><a xlink:href="_a_r_2include_2_a_r6_2_a_r_2matrix_8h.html" target="_top" xlink:title="AR6/AR/matrix.h">
<polygon fill="white" stroke="black" points="828,-56.5 828,-75.5 920,-75.5 920,-56.5 828,-56.5"/>
<text text-anchor="middle" x="874" y="-63.5" font-family="Helvetica,sans-Serif" font-size="10.00">AR6/AR/matrix.h</text>
</a>
</g>
</g>
<!-- Node2&#45;&gt;Node12 -->
<g id="edge14" class="edge"><title>Node2&#45;&gt;Node12</title>
<path fill="none" stroke="midnightblue" d="M510.757,-116.347C573.149,-108.401 703.749,-91.5637 814,-76 815.261,-75.8219 816.537,-75.6406 817.824,-75.4567"/>
<polygon fill="midnightblue" stroke="midnightblue" points="818.429,-78.9058 827.824,-74.0087 817.426,-71.978 818.429,-78.9058"/>
</g>
<!-- Node2&#45;&gt;Node14 -->
<g id="edge16" class="edge"><title>Node2&#45;&gt;Node14</title>
<path fill="none" stroke="midnightblue" d="M437.359,-116.746C373.853,-109.265 239.27,-92.934 126,-76 124.702,-75.8059 123.387,-75.606 122.06,-75.4015"/>
<polygon fill="midnightblue" stroke="midnightblue" points="122.184,-71.8775 111.759,-73.7638 121.085,-78.7907 122.184,-71.8775"/>
</g>
<!-- Node16 -->
<g id="node16" class="node"><title>Node16</title>
<g id="a_node16"><a xlink:href="param_8h.html" target="_top" xlink:title="ARToolKit functions for handling calibrated camera parameters. ">
<polygon fill="white" stroke="black" points="542,-56.5 542,-75.5 634,-75.5 634,-56.5 542,-56.5"/>
<text text-anchor="middle" x="588" y="-63.5" font-family="Helvetica,sans-Serif" font-size="10.00">AR6/AR/param.h</text>
</a>
</g>
</g>
<!-- Node2&#45;&gt;Node16 -->
<g id="edge19" class="edge"><title>Node2&#45;&gt;Node16</title>
<path fill="none" stroke="midnightblue" d="M487.201,-112.324C503.907,-103.507 532.705,-89.7527 555.346,-79.7074"/>
<polygon fill="midnightblue" stroke="midnightblue" points="556.858,-82.8664 564.619,-75.6545 554.054,-76.4523 556.858,-82.8664"/>
</g>
<!-- Node17 -->
<g id="node17" class="node"><title>Node17</title>
<g id="a_node17"><a xlink:href="ar_image_proc_8h.html" target="_top" xlink:title="ARToolKit functions for 2D luminance image processing. ">
<polygon fill="white" stroke="black" points="652,-56.5 652,-75.5 772,-75.5 772,-56.5 652,-56.5"/>
<text text-anchor="middle" x="712" y="-63.5" font-family="Helvetica,sans-Serif" font-size="10.00">AR6/AR/arImageProc.h</text>
</a>
</g>
</g>
<!-- Node2&#45;&gt;Node17 -->
<g id="edge21" class="edge"><title>Node2&#45;&gt;Node17</title>
<path fill="none" stroke="midnightblue" d="M506.623,-112.444C546.075,-103.023 612.743,-87.8656 659.445,-77.6752"/>
<polygon fill="midnightblue" stroke="midnightblue" points="660.355,-81.0592 669.385,-75.5164 658.87,-74.2187 660.355,-81.0592"/>
</g>
<!-- Node9&#45;&gt;Node3 -->
<g id="edge9" class="edge"><title>Node9&#45;&gt;Node3</title>
<path fill="none" stroke="midnightblue" d="M259.341,-56.4435C235.598,-47.4776 198.091,-33.314 171.262,-23.1827"/>
<polygon fill="midnightblue" stroke="midnightblue" points="172.144,-19.7749 161.553,-19.5164 169.671,-26.3235 172.144,-19.7749"/>
</g>
<!-- Node9&#45;&gt;Node4 -->
<g id="edge10" class="edge"><title>Node9&#45;&gt;Node4</title>
<path fill="none" stroke="midnightblue" d="M294.211,-56.324C305.776,-48.1066 323.375,-35.6017 337.161,-25.8069"/>
<polygon fill="midnightblue" stroke="midnightblue" points="339.443,-28.4791 345.567,-19.8339 335.388,-22.7729 339.443,-28.4791"/>
</g>
<!-- Node9&#45;&gt;Node6 -->
<g id="edge11" class="edge"><title>Node9&#45;&gt;Node6</title>
<path fill="none" stroke="midnightblue" d="M311.631,-56.4435C345,-46.8075 399.159,-31.168 434.431,-20.9826"/>
<polygon fill="midnightblue" stroke="midnightblue" points="435.649,-24.2738 444.285,-18.1368 433.707,-17.5486 435.649,-24.2738"/>
</g>
<!-- Node10 -->
<g id="node10" class="node"><title>Node10</title>
<polygon fill="white" stroke="#bfbfbf" points="264,-0.5 264,-19.5 316,-19.5 316,-0.5 264,-0.5"/>
<text text-anchor="middle" x="290" y="-7.5" font-family="Helvetica,sans-Serif" font-size="10.00">stdarg.h</text>
</g>
<!-- Node9&#45;&gt;Node10 -->
<g id="edge12" class="edge"><title>Node9&#45;&gt;Node10</title>
<path fill="none" stroke="midnightblue" d="M283.321,-56.083C284.381,-48.9272 285.906,-38.6353 287.231,-29.6911"/>
<polygon fill="midnightblue" stroke="midnightblue" points="290.7,-30.1561 288.704,-19.7511 283.776,-29.1302 290.7,-30.1561"/>
</g>
<!-- Node11 -->
<g id="node11" class="node"><title>Node11</title>
<polygon fill="white" stroke="#bfbfbf" points="180.5,-0.5 180.5,-19.5 245.5,-19.5 245.5,-0.5 180.5,-0.5"/>
<text text-anchor="middle" x="213" y="-7.5" font-family="Helvetica,sans-Serif" font-size="10.00">sys/errno.h</text>
</g>
<!-- Node9&#45;&gt;Node11 -->
<g id="edge13" class="edge"><title>Node9&#45;&gt;Node11</title>
<path fill="none" stroke="midnightblue" d="M270.914,-56.324C260.514,-48.1849 244.739,-35.8395 232.278,-26.0874"/>
<polygon fill="midnightblue" stroke="midnightblue" points="234.32,-23.2407 224.288,-19.8339 230.006,-28.7533 234.32,-23.2407"/>
</g>
<!-- Node13 -->
<g id="node13" class="node"><title>Node13</title>
<polygon fill="white" stroke="#bfbfbf" points="850.5,-0.5 850.5,-19.5 897.5,-19.5 897.5,-0.5 850.5,-0.5"/>
<text text-anchor="middle" x="874" y="-7.5" font-family="Helvetica,sans-Serif" font-size="10.00">math.h</text>
</g>
<!-- Node12&#45;&gt;Node13 -->
<g id="edge15" class="edge"><title>Node12&#45;&gt;Node13</title>
<path fill="none" stroke="midnightblue" d="M874,-56.083C874,-49.0059 874,-38.8611 874,-29.9865"/>
<polygon fill="midnightblue" stroke="midnightblue" points="877.5,-29.751 874,-19.7511 870.5,-29.7511 877.5,-29.751"/>
</g>
<!-- Node14&#45;&gt;Node3 -->
<g id="edge17" class="edge"><title>Node14&#45;&gt;Node3</title>
<path fill="none" stroke="midnightblue" d="M83.604,-56.324C93.4562,-48.2631 108.351,-36.0765 120.215,-26.3695"/>
<polygon fill="midnightblue" stroke="midnightblue" points="122.68,-28.8752 128.203,-19.8339 118.247,-23.4575 122.68,-28.8752"/>
</g>
<!-- Node15 -->
<g id="node15" class="node"><title>Node15</title>
<g id="a_node15"><a xlink:href="icp_core_8h.html" target="_top" xlink:title="AR6/AR/icpCore.h">
<polygon fill="white" stroke="black" points="0,-0.5 0,-19.5 98,-19.5 98,-0.5 0,-0.5"/>
<text text-anchor="middle" x="49" y="-7.5" font-family="Helvetica,sans-Serif" font-size="10.00">AR6/AR/icpCore.h</text>
</a>
</g>
</g>
<!-- Node14&#45;&gt;Node15 -->
<g id="edge18" class="edge"><title>Node14&#45;&gt;Node15</title>
<path fill="none" stroke="midnightblue" d="M69.0369,-56.083C65.7867,-48.77 61.0806,-38.1814 57.046,-29.1034"/>
<polygon fill="midnightblue" stroke="midnightblue" points="60.1492,-27.4677 52.8894,-19.7511 53.7525,-30.3107 60.1492,-27.4677"/>
</g>
<!-- Node16&#45;&gt;Node2 -->
<g id="edge20" class="edge"><title>Node16&#45;&gt;Node2</title>
<path fill="none" stroke="midnightblue" d="M575.101,-75.5164C558.401,-84.3486 529.288,-98.2553 506.484,-108.368"/>
<polygon fill="midnightblue" stroke="midnightblue" points="504.916,-105.234 497.152,-112.444 507.717,-111.648 504.916,-105.234"/>
</g>
<!-- Node17&#45;&gt;Node2 -->
<g id="edge23" class="edge"><title>Node17&#45;&gt;Node2</title>
<path fill="none" stroke="midnightblue" d="M679.539,-75.5177C638.383,-85.3469 567.426,-101.46 520.537,-111.634"/>
<polygon fill="midnightblue" stroke="midnightblue" points="519.662,-108.243 510.625,-113.773 521.138,-115.085 519.662,-108.243"/>
</g>
<!-- Node17&#45;&gt;Node7 -->
<g id="edge22" class="edge"><title>Node17&#45;&gt;Node7</title>
<path fill="none" stroke="midnightblue" d="M718.11,-56.083C723.282,-48.5341 730.846,-37.4948 737.194,-28.2298"/>
<polygon fill="midnightblue" stroke="midnightblue" points="740.239,-29.9787 743.004,-19.7511 734.464,-26.0221 740.239,-29.9787"/>
</g>
</g>
</svg>
