<?xml version="1.0" encoding="UTF-8" standalone="no"?>
<!DOCTYPE svg PUBLIC "-//W3C//DTD SVG 1.1//EN"
 "http://www.w3.org/Graphics/SVG/1.1/DTD/svg11.dtd">
<!-- Generated by graphviz version 2.38.0 (20140413.2041)
 -->
<!-- Title: /bitrise/src/Source/AR6/AR/include/AR6/AR/arImageProc.h Pages: 1 -->
<!--zoomable 218 -->
<svg id="main" version="1.1" xmlns="http://www.w3.org/2000/svg" xmlns:xlink="http://www.w3.org/1999/xlink" xml:space="preserve" onload="init(evt)">
<style type="text/css"><![CDATA[
.edge:hover path { stroke: red; }
.edge:hover polygon { stroke: red; fill: red; }
]]></style>
<script type="text/javascript"><![CDATA[
var edges = document.getElementsByTagName('g');
if (edges && edges.length) {
  for (var i=0;i<edges.length;i++) {
    if (edges[i].id.substr(0,4)=='edge') {
      edges[i].setAttribute('class','edge');
    }
  }
}
]]></script>
        <defs>
                <circle id="rim" cx="0" cy="0" r="7"/>
                <circle id="rim2" cx="0" cy="0" r="3.5"/>
                <g id="zoomPlus">
                        <use xlink:href="#rim" fill="#404040">
                                <set attributeName="fill" to="#808080" begin="zoomplus.mouseover" end="zoomplus.mouseout"/>
                        </use>
                        <path d="M-4,0h8M0,-4v8" fill="none" stroke="white" stroke-width="1.5" pointer-events="none"/>
                </g>
                <g id="zoomMin">
                        <use xlink:href="#rim" fill="#404040">
                                <set attributeName="fill" to="#808080" begin="zoomminus.mouseover" end="zoomminus.mouseout"/>
                        </use>
                        <path d="M-4,0h8" fill="none" stroke="white" stroke-width="1.5" pointer-events="none"/>
                </g>
                <g id="dirArrow">
                        <path fill="none" stroke="white" stroke-width="1.5" d="M0,-3.0v7 M-2.5,-0.5L0,-3.0L2.5,-0.5"/>
                </g>
               <g id="resetDef">
                       <use xlink:href="#rim2" fill="#404040">
                               <set attributeName="fill" to="#808080" begin="reset.mouseover" end="reset.mouseout"/>
                       </use>
               </g>
        </defs>

<script type="text/javascript">
var viewWidth = 826;
var viewHeight = 218;
var sectionId = 'dynsection-0';
</script>
<script xlink:href="svgpan.js"/>
<svg id="graph" class="graph">
<g id="viewport">
<title>/bitrise/src/Source/AR6/AR/include/AR6/AR/arImageProc.h</title>
<polygon fill="white" stroke="none" points="-4,4 -4,-214 821.5,-214 821.5,4 -4,4"/>
<!-- Node1 -->
<g id="node1" class="node"><title>Node1</title>
<polygon fill="#bfbfbf" stroke="black" points="318,-168.5 318,-209.5 431,-209.5 431,-168.5 318,-168.5"/>
<text text-anchor="start" x="326" y="-197.5" font-family="Helvetica,sans-Serif" font-size="10.00">/bitrise/src/Source</text>
<text text-anchor="start" x="326" y="-186.5" font-family="Helvetica,sans-Serif" font-size="10.00">/AR6/AR/include/AR6</text>
<text text-anchor="middle" x="374.5" y="-175.5" font-family="Helvetica,sans-Serif" font-size="10.00">/AR/arImageProc.h</text>
</g>
<!-- Node2 -->
<g id="node2" class="node"><title>Node2</title>
<polygon fill="white" stroke="#bfbfbf" points="0,-56.5 0,-75.5 91,-75.5 91,-56.5 0,-56.5"/>
<text text-anchor="middle" x="45.5" y="-63.5" font-family="Helvetica,sans-Serif" font-size="10.00">AR6/AR/config.h</text>
</g>
<!-- Node1&#45;&gt;Node2 -->
<g id="edge1" class="edge"><title>Node1&#45;&gt;Node2</title>
<path fill="none" stroke="midnightblue" d="M321.275,-168.425C252.65,-143.186 135.386,-100.058 78.4516,-79.119"/>
<polygon fill="midnightblue" stroke="midnightblue" points="79.466,-75.7629 68.8725,-75.596 77.0497,-82.3327 79.466,-75.7629"/>
</g>
<!-- Node3 -->
<g id="node3" class="node"><title>Node3</title>
<g id="a_node3"><a xlink:href="ar_8h.html" target="_top" xlink:title="ARToolKit core routines. ">
<polygon fill="white" stroke="black" points="338,-112.5 338,-131.5 411,-131.5 411,-112.5 338,-112.5"/>
<text text-anchor="middle" x="374.5" y="-119.5" font-family="Helvetica,sans-Serif" font-size="10.00">AR6/AR/ar.h</text>
</a>
</g>
</g>
<!-- Node1&#45;&gt;Node3 -->
<g id="edge2" class="edge"><title>Node1&#45;&gt;Node3</title>
<path fill="none" stroke="midnightblue" d="M368.255,-168.498C367.557,-159.969 367.583,-150.011 368.333,-141.59"/>
<polygon fill="midnightblue" stroke="midnightblue" points="371.803,-142.044 369.736,-131.652 364.872,-141.065 371.803,-142.044"/>
</g>
<!-- Node3&#45;&gt;Node1 -->
<g id="edge22" class="edge"><title>Node3&#45;&gt;Node1</title>
<path fill="none" stroke="midnightblue" d="M379.264,-131.652C380.727,-138.524 381.381,-148.559 381.228,-158.263"/>
<polygon fill="midnightblue" stroke="midnightblue" points="377.721,-158.344 380.745,-168.498 384.713,-158.674 377.721,-158.344"/>
</g>
<!-- Node3&#45;&gt;Node2 -->
<g id="edge7" class="edge"><title>Node3&#45;&gt;Node2</title>
<path fill="none" stroke="midnightblue" d="M337.717,-114.963C280.221,-105.526 168.67,-87.2164 101.257,-76.1515"/>
<polygon fill="midnightblue" stroke="midnightblue" points="101.672,-72.6729 91.2369,-74.507 100.538,-79.5805 101.672,-72.6729"/>
</g>
<!-- Node4 -->
<g id="node4" class="node"><title>Node4</title>
<polygon fill="white" stroke="#bfbfbf" points="277.5,-0.5 277.5,-19.5 323.5,-19.5 323.5,-0.5 277.5,-0.5"/>
<text text-anchor="middle" x="300.5" y="-7.5" font-family="Helvetica,sans-Serif" font-size="10.00">stdio.h</text>
</g>
<!-- Node3&#45;&gt;Node4 -->
<g id="edge3" class="edge"><title>Node3&#45;&gt;Node4</title>
<path fill="none" stroke="midnightblue" d="M338.648,-112.397C319.619,-105.81 297.873,-94.5894 286.5,-76 277.677,-61.579 283.531,-42.3849 290.157,-28.5986"/>
<polygon fill="midnightblue" stroke="midnightblue" points="293.305,-30.1326 294.918,-19.6614 287.127,-26.841 293.305,-30.1326"/>
</g>
<!-- Node5 -->
<g id="node5" class="node"><title>Node5</title>
<polygon fill="white" stroke="#bfbfbf" points="57.5,-0.5 57.5,-19.5 105.5,-19.5 105.5,-0.5 57.5,-0.5"/>
<text text-anchor="middle" x="81.5" y="-7.5" font-family="Helvetica,sans-Serif" font-size="10.00">stdlib.h</text>
</g>
<!-- Node3&#45;&gt;Node5 -->
<g id="edge4" class="edge"><title>Node3&#45;&gt;Node5</title>
<path fill="none" stroke="midnightblue" d="M337.6,-121.222C288.876,-119.966 201.858,-112.247 138.5,-76 118.433,-64.5199 101.879,-43.323 91.8747,-28.2583"/>
<polygon fill="midnightblue" stroke="midnightblue" points="94.8303,-26.3836 86.5194,-19.8125 88.9186,-30.1321 94.8303,-26.3836"/>
</g>
<!-- Node6 -->
<g id="node6" class="node"><title>Node6</title>
<polygon fill="white" stroke="#bfbfbf" points="391,-56.5 391,-75.5 440,-75.5 440,-56.5 391,-56.5"/>
<text text-anchor="middle" x="415.5" y="-63.5" font-family="Helvetica,sans-Serif" font-size="10.00">stdint.h</text>
</g>
<!-- Node3&#45;&gt;Node6 -->
<g id="edge5" class="edge"><title>Node3&#45;&gt;Node6</title>
<path fill="none" stroke="midnightblue" d="M381.27,-112.083C387.062,-104.455 395.558,-93.2645 402.638,-83.9408"/>
<polygon fill="midnightblue" stroke="midnightblue" points="405.596,-85.8321 408.856,-75.7511 400.021,-81.5991 405.596,-85.8321"/>
</g>
<!-- Node7 -->
<g id="node7" class="node"><title>Node7</title>
<polygon fill="white" stroke="#bfbfbf" points="526,-0.5 526,-19.5 575,-19.5 575,-0.5 526,-0.5"/>
<text text-anchor="middle" x="550.5" y="-7.5" font-family="Helvetica,sans-Serif" font-size="10.00">string.h</text>
</g>
<!-- Node3&#45;&gt;Node7 -->
<g id="edge6" class="edge"><title>Node3&#45;&gt;Node7</title>
<path fill="none" stroke="midnightblue" d="M411.183,-117.782C461.625,-112.51 548.357,-100.12 567.5,-76 578.341,-62.341 570.722,-42.4678 562.507,-28.2967"/>
<polygon fill="midnightblue" stroke="midnightblue" points="565.262,-26.1057 556.944,-19.5433 559.354,-29.8604 565.262,-26.1057"/>
</g>
<!-- Node8 -->
<g id="node8" class="node"><title>Node8</title>
<g id="a_node8"><a xlink:href="ar_config_8h.html" target="_top" xlink:title="AR6/AR/arConfig.h">
<polygon fill="white" stroke="black" points="458,-56.5 458,-75.5 559,-75.5 559,-56.5 458,-56.5"/>
<text text-anchor="middle" x="508.5" y="-63.5" font-family="Helvetica,sans-Serif" font-size="10.00">AR6/AR/arConfig.h</text>
</a>
</g>
</g>
<!-- Node3&#45;&gt;Node8 -->
<g id="edge8" class="edge"><title>Node3&#45;&gt;Node8</title>
<path fill="none" stroke="midnightblue" d="M395.733,-112.444C417.884,-103.517 452.819,-89.4387 477.936,-79.3168"/>
<polygon fill="midnightblue" stroke="midnightblue" points="479.4,-82.5006 487.367,-75.5164 476.783,-76.0079 479.4,-82.5006"/>
</g>
<!-- Node9 -->
<g id="node9" class="node"><title>Node9</title>
<g id="a_node9"><a xlink:href="log_8h.html" target="_top" xlink:title="Logging utilities. ">
<polygon fill="white" stroke="black" points="147.5,-56.5 147.5,-75.5 239.5,-75.5 239.5,-56.5 147.5,-56.5"/>
<text text-anchor="middle" x="193.5" y="-63.5" font-family="Helvetica,sans-Serif" font-size="10.00">AR6/ARUtil/log.h</text>
</a>
</g>
</g>
<!-- Node3&#45;&gt;Node9 -->
<g id="edge9" class="edge"><title>Node3&#45;&gt;Node9</title>
<path fill="none" stroke="midnightblue" d="M345.82,-112.444C314.973,-103.241 265.772,-88.5617 231.671,-78.3879"/>
<polygon fill="midnightblue" stroke="midnightblue" points="232.629,-75.0215 222.046,-75.5164 230.628,-81.7293 232.629,-75.0215"/>
</g>
<!-- Node12 -->
<g id="node12" class="node"><title>Node12</title>
<g id="a_node12"><a xlink:href="_a_r_2include_2_a_r6_2_a_r_2matrix_8h.html" target="_top" xlink:title="AR6/AR/matrix.h">
<polygon fill="white" stroke="black" points="725.5,-56.5 725.5,-75.5 817.5,-75.5 817.5,-56.5 725.5,-56.5"/>
<text text-anchor="middle" x="771.5" y="-63.5" font-family="Helvetica,sans-Serif" font-size="10.00">AR6/AR/matrix.h</text>
</a>
</g>
</g>
<!-- Node3&#45;&gt;Node12 -->
<g id="edge15" class="edge"><title>Node3&#45;&gt;Node12</title>
<path fill="none" stroke="midnightblue" d="M411.246,-116.549C472.165,-109.086 598.164,-93.2983 715.103,-76.1684"/>
<polygon fill="midnightblue" stroke="midnightblue" points="715.919,-79.5861 725.303,-74.6674 714.9,-72.6607 715.919,-79.5861"/>
</g>
<!-- Node14 -->
<g id="node14" class="node"><title>Node14</title>
<g id="a_node14"><a xlink:href="icp_8h.html" target="_top" xlink:title="AR6/AR/icp.h">
<polygon fill="white" stroke="black" points="296,-56.5 296,-75.5 373,-75.5 373,-56.5 296,-56.5"/>
<text text-anchor="middle" x="334.5" y="-63.5" font-family="Helvetica,sans-Serif" font-size="10.00">AR6/AR/icp.h</text>
</a>
</g>
</g>
<!-- Node3&#45;&gt;Node14 -->
<g id="edge17" class="edge"><title>Node3&#45;&gt;Node14</title>
<path fill="none" stroke="midnightblue" d="M367.895,-112.083C362.245,-104.455 353.955,-93.2645 347.049,-83.9408"/>
<polygon fill="midnightblue" stroke="midnightblue" points="349.747,-81.7034 340.982,-75.7511 344.122,-85.87 349.747,-81.7034"/>
</g>
<!-- Node16 -->
<g id="node16" class="node"><title>Node16</title>
<g id="a_node16"><a xlink:href="param_8h.html" target="_top" xlink:title="ARToolKit functions for handling calibrated camera parameters. ">
<polygon fill="white" stroke="black" points="615.5,-56.5 615.5,-75.5 707.5,-75.5 707.5,-56.5 615.5,-56.5"/>
<text text-anchor="middle" x="661.5" y="-63.5" font-family="Helvetica,sans-Serif" font-size="10.00">AR6/AR/param.h</text>
</a>
</g>
</g>
<!-- Node3&#45;&gt;Node16 -->
<g id="edge20" class="edge"><title>Node3&#45;&gt;Node16</title>
<path fill="none" stroke="midnightblue" d="M411.011,-113.206C460.103,-103.534 547.599,-87.0471 605.146,-76.6048"/>
<polygon fill="midnightblue" stroke="midnightblue" points="605.955,-80.0153 615.173,-74.792 604.71,-73.127 605.955,-80.0153"/>
</g>
<!-- Node9&#45;&gt;Node4 -->
<g id="edge10" class="edge"><title>Node9&#45;&gt;Node4</title>
<path fill="none" stroke="midnightblue" d="M210.691,-56.324C227.851,-47.6641 254.446,-34.2424 274.247,-24.249"/>
<polygon fill="midnightblue" stroke="midnightblue" points="276.001,-27.2847 283.351,-19.6545 272.847,-21.0354 276.001,-27.2847"/>
</g>
<!-- Node9&#45;&gt;Node5 -->
<g id="edge11" class="edge"><title>Node9&#45;&gt;Node5</title>
<path fill="none" stroke="midnightblue" d="M175.505,-56.324C157.462,-47.6247 129.453,-34.1202 108.697,-24.113"/>
<polygon fill="midnightblue" stroke="midnightblue" points="109.978,-20.8449 99.4501,-19.6545 106.938,-27.1502 109.978,-20.8449"/>
</g>
<!-- Node9&#45;&gt;Node7 -->
<g id="edge12" class="edge"><title>Node9&#45;&gt;Node7</title>
<path fill="none" stroke="midnightblue" d="M239.806,-57.9958C312.363,-47.0207 451.22,-26.0171 515.836,-16.2434"/>
<polygon fill="midnightblue" stroke="midnightblue" points="516.548,-19.6754 525.912,-14.7191 515.501,-12.7542 516.548,-19.6754"/>
</g>
<!-- Node10 -->
<g id="node10" class="node"><title>Node10</title>
<polygon fill="white" stroke="#bfbfbf" points="123.5,-0.5 123.5,-19.5 175.5,-19.5 175.5,-0.5 123.5,-0.5"/>
<text text-anchor="middle" x="149.5" y="-7.5" font-family="Helvetica,sans-Serif" font-size="10.00">stdarg.h</text>
</g>
<!-- Node9&#45;&gt;Node10 -->
<g id="edge13" class="edge"><title>Node9&#45;&gt;Node10</title>
<path fill="none" stroke="midnightblue" d="M186.234,-56.083C179.955,-48.3768 170.712,-37.0333 163.069,-27.6531"/>
<polygon fill="midnightblue" stroke="midnightblue" points="165.661,-25.2926 156.631,-19.7511 160.234,-29.7143 165.661,-25.2926"/>
</g>
<!-- Node11 -->
<g id="node11" class="node"><title>Node11</title>
<polygon fill="white" stroke="#bfbfbf" points="194,-0.5 194,-19.5 259,-19.5 259,-0.5 194,-0.5"/>
<text text-anchor="middle" x="226.5" y="-7.5" font-family="Helvetica,sans-Serif" font-size="10.00">sys/errno.h</text>
</g>
<!-- Node9&#45;&gt;Node11 -->
<g id="edge14" class="edge"><title>Node9&#45;&gt;Node11</title>
<path fill="none" stroke="midnightblue" d="M198.949,-56.083C203.514,-48.6127 210.168,-37.7244 215.793,-28.5199"/>
<polygon fill="midnightblue" stroke="midnightblue" points="218.924,-30.109 221.152,-19.7511 212.951,-26.4588 218.924,-30.109"/>
</g>
<!-- Node13 -->
<g id="node13" class="node"><title>Node13</title>
<polygon fill="white" stroke="#bfbfbf" points="748,-0.5 748,-19.5 795,-19.5 795,-0.5 748,-0.5"/>
<text text-anchor="middle" x="771.5" y="-7.5" font-family="Helvetica,sans-Serif" font-size="10.00">math.h</text>
</g>
<!-- Node12&#45;&gt;Node13 -->
<g id="edge16" class="edge"><title>Node12&#45;&gt;Node13</title>
<path fill="none" stroke="midnightblue" d="M771.5,-56.083C771.5,-49.0059 771.5,-38.8611 771.5,-29.9865"/>
<polygon fill="midnightblue" stroke="midnightblue" points="775,-29.751 771.5,-19.7511 768,-29.7511 775,-29.751"/>
</g>
<!-- Node14&#45;&gt;Node4 -->
<g id="edge18" class="edge"><title>Node14&#45;&gt;Node4</title>
<path fill="none" stroke="midnightblue" d="M328.886,-56.083C324.133,-48.5341 317.182,-37.4948 311.348,-28.2298"/>
<polygon fill="midnightblue" stroke="midnightblue" points="314.3,-26.3486 306.01,-19.7511 308.376,-30.0783 314.3,-26.3486"/>
</g>
<!-- Node15 -->
<g id="node15" class="node"><title>Node15</title>
<g id="a_node15"><a xlink:href="icp_core_8h.html" target="_top" xlink:title="AR6/AR/icpCore.h">
<polygon fill="white" stroke="black" points="341.5,-0.5 341.5,-19.5 439.5,-19.5 439.5,-0.5 341.5,-0.5"/>
<text text-anchor="middle" x="390.5" y="-7.5" font-family="Helvetica,sans-Serif" font-size="10.00">AR6/AR/icpCore.h</text>
</a>
</g>
</g>
<!-- Node14&#45;&gt;Node15 -->
<g id="edge19" class="edge"><title>Node14&#45;&gt;Node15</title>
<path fill="none" stroke="midnightblue" d="M343.497,-56.324C351.694,-48.4196 364.006,-36.5482 373.972,-26.9377"/>
<polygon fill="midnightblue" stroke="midnightblue" points="376.57,-29.2947 381.339,-19.8339 371.711,-24.2558 376.57,-29.2947"/>
</g>
<!-- Node16&#45;&gt;Node3 -->
<g id="edge21" class="edge"><title>Node16&#45;&gt;Node3</title>
<path fill="none" stroke="midnightblue" d="M621.055,-75.5678C568.315,-85.9177 476.502,-103.182 420.965,-113.183"/>
<polygon fill="midnightblue" stroke="midnightblue" points="420.261,-109.753 411.035,-114.963 421.496,-116.644 420.261,-109.753"/>
</g>
</g>
</svg>
        <g id="navigator" transform="translate(0 0)" fill="#404254">
                <rect fill="#f2f5e9" fill-opacity="0.5" stroke="#606060" stroke-width=".5" x="0" y="0" width="60" height="60"/>
                <use id="zoomplus" xlink:href="#zoomPlus" x="17" y="9" onmousedown="handleZoom(evt,'in')"/>
                <use id="zoomminus" xlink:href="#zoomMin" x="42" y="9" onmousedown="handleZoom(evt,'out')"/>
                <use id="reset" xlink:href="#resetDef" x="30" y="36" onmousedown="handleReset()"/>
                <g id="arrowUp" xlink:href="#dirArrow" transform="translate(30 24)" onmousedown="handlePan(0,-1)">
                  <use xlink:href="#rim" fill="#404040">
                        <set attributeName="fill" to="#808080" begin="arrowUp.mouseover" end="arrowUp.mouseout"/>
                  </use>
                  <path fill="none" stroke="white" stroke-width="1.5" d="M0,-3.0v7 M-2.5,-0.5L0,-3.0L2.5,-0.5"/>
                </g>
                <g id="arrowRight" xlink:href="#dirArrow" transform="rotate(90) translate(36 -43)" onmousedown="handlePan(1,0)">
                  <use xlink:href="#rim" fill="#404040">
                        <set attributeName="fill" to="#808080" begin="arrowRight.mouseover" end="arrowRight.mouseout"/>
                  </use>
                  <path fill="none" stroke="white" stroke-width="1.5" d="M0,-3.0v7 M-2.5,-0.5L0,-3.0L2.5,-0.5"/>
                </g>
                <g id="arrowDown" xlink:href="#dirArrow" transform="rotate(180) translate(-30 -48)" onmousedown="handlePan(0,1)">
                  <use xlink:href="#rim" fill="#404040">
                        <set attributeName="fill" to="#808080" begin="arrowDown.mouseover" end="arrowDown.mouseout"/>
                  </use>
                  <path fill="none" stroke="white" stroke-width="1.5" d="M0,-3.0v7 M-2.5,-0.5L0,-3.0L2.5,-0.5"/>
                </g>
                <g id="arrowLeft" xlink:href="#dirArrow" transform="rotate(270) translate(-36 17)" onmousedown="handlePan(-1,0)">
                  <use xlink:href="#rim" fill="#404040">
                        <set attributeName="fill" to="#808080" begin="arrowLeft.mouseover" end="arrowLeft.mouseout"/>
                  </use>
                  <path fill="none" stroke="white" stroke-width="1.5" d="M0,-3.0v7 M-2.5,-0.5L0,-3.0L2.5,-0.5"/>
                </g>
        </g>
        <svg viewBox="0 0 15 15" width="100%" height="30px" preserveAspectRatio="xMaxYMin meet">
         <g id="arrow_out" transform="scale(0.3 0.3)">
          <a xlink:href="ar_image_proc_8h__incl_org.svg" target="_base">
           <rect id="button" ry="5" rx="5" y="6" x="6" height="38" width="38"
                fill="#f2f5e9" fill-opacity="0.5" stroke="#606060" stroke-width="1.0"/>
           <path id="arrow"
             d="M 11.500037,31.436501 C 11.940474,20.09759 22.043105,11.32322 32.158766,21.979434 L 37.068811,17.246167 C 37.068811,17.246167 37.088388,32 37.088388,32 L 22.160133,31.978069 C 22.160133,31.978069 26.997745,27.140456 26.997745,27.140456 C 18.528582,18.264221 13.291696,25.230495 11.500037,31.436501 z"
             style="fill:#404040;"/>
          </a>
         </g>
        </svg>
</svg>
