<?xml version="1.0" encoding="UTF-8" standalone="no"?>
<!DOCTYPE svg PUBLIC "-//W3C//DTD SVG 1.1//EN"
 "http://www.w3.org/Graphics/SVG/1.1/DTD/svg11.dtd">
<!-- Generated by graphviz version 2.38.0 (20140413.2041)
 -->
<!-- Title: arImageProcLumaHistAndCDFAndMedian Pages: 1 -->
<svg width="722pt" height="66pt"
 viewBox="0.00 0.00 722.00 66.00" xmlns="http://www.w3.org/2000/svg" xmlns:xlink="http://www.w3.org/1999/xlink">
<g id="graph0" class="graph" transform="scale(1 1) rotate(0) translate(4 62)">
<title>arImageProcLumaHistAndCDFAndMedian</title>
<polygon fill="white" stroke="none" points="-4,4 -4,-62 718,-62 718,4 -4,4"/>
<!-- Node1 -->
<g id="node1" class="node"><title>Node1</title>
<polygon fill="#bfbfbf" stroke="black" points="0,-14 0,-44 170,-44 170,-14 0,-14"/>
<text text-anchor="start" x="8" y="-32" font-family="Helvetica,sans-Serif" font-size="10.00">arImageProcLumaHistAndCDFAnd</text>
<text text-anchor="middle" x="85" y="-21" font-family="Helvetica,sans-Serif" font-size="10.00">Median</text>
</g>
<!-- Node2 -->
<g id="node2" class="node"><title>Node2</title>
<g id="a_node2"><a xlink:href="ar_image_proc_8c.html#a4de5049bd51eed6d973d8242cba2ee00" target="_top" xlink:title="Calculate image histogram, cumulative density function, and luminance value at a given histogram perc...">
<polygon fill="white" stroke="black" points="206,-14 206,-44 376,-44 376,-14 206,-14"/>
<text text-anchor="start" x="214" y="-32" font-family="Helvetica,sans-Serif" font-size="10.00">arImageProcLumaHistAndCDFAnd</text>
<text text-anchor="middle" x="291" y="-21" font-family="Helvetica,sans-Serif" font-size="10.00">Percentile</text>
</a>
</g>
</g>
<!-- Node1&#45;&gt;Node2 -->
<g id="edge1" class="edge"><title>Node1&#45;&gt;Node2</title>
<path fill="none" stroke="midnightblue" d="M170.152,-29C178.501,-29 187.015,-29 195.46,-29"/>
<polygon fill="midnightblue" stroke="midnightblue" points="195.712,-32.5001 205.712,-29 195.712,-25.5001 195.712,-32.5001"/>
</g>
<!-- Node3 -->
<g id="node3" class="node"><title>Node3</title>
<g id="a_node3"><a xlink:href="ar_image_proc_8c.html#afb1e9977532aec222fb1895c3d66b5f3" target="_top" xlink:title="Calculate image histogram and cumulative density function. ">
<polygon fill="white" stroke="black" points="412,-38.5 412,-57.5 564,-57.5 564,-38.5 412,-38.5"/>
<text text-anchor="middle" x="488" y="-45.5" font-family="Helvetica,sans-Serif" font-size="10.00">arImageProcLumaHistAndCDF</text>
</a>
</g>
</g>
<!-- Node2&#45;&gt;Node3 -->
<g id="edge2" class="edge"><title>Node2&#45;&gt;Node3</title>
<path fill="none" stroke="midnightblue" d="M376.112,-37.1956C384.54,-38.0167 393.104,-38.8511 401.545,-39.6736"/>
<polygon fill="midnightblue" stroke="midnightblue" points="401.471,-43.1829 411.763,-40.6692 402.15,-36.2159 401.471,-43.1829"/>
</g>
<!-- Node5 -->
<g id="node5" class="node"><title>Node5</title>
<g id="a_node5"><a xlink:href="ioapi_8h.html#a787fa3cf048117ba7123753c1e74fcd6" target="_top" xlink:title="int">
<polygon fill="white" stroke="black" points="473.5,-0.5 473.5,-19.5 502.5,-19.5 502.5,-0.5 473.5,-0.5"/>
<text text-anchor="middle" x="488" y="-7.5" font-family="Helvetica,sans-Serif" font-size="10.00">int</text>
</a>
</g>
</g>
<!-- Node2&#45;&gt;Node5 -->
<g id="edge4" class="edge"><title>Node2&#45;&gt;Node5</title>
<path fill="none" stroke="midnightblue" d="M376.112,-20.8044C407.858,-17.7113 441.533,-14.4301 463.331,-12.3062"/>
<polygon fill="midnightblue" stroke="midnightblue" points="463.682,-15.7887 473.295,-11.3353 463.003,-8.82169 463.682,-15.7887"/>
</g>
<!-- Node4 -->
<g id="node4" class="node"><title>Node4</title>
<g id="a_node4"><a xlink:href="ar_image_proc_8c.html#a9bddf2e229ba8ea9a61ea1f2d5a61b2a" target="_top" xlink:title="Calculate luminance histogram. ">
<polygon fill="white" stroke="black" points="600,-38.5 600,-57.5 714,-57.5 714,-38.5 600,-38.5"/>
<text text-anchor="middle" x="657" y="-45.5" font-family="Helvetica,sans-Serif" font-size="10.00">arImageProcLumaHist</text>
</a>
</g>
</g>
<!-- Node3&#45;&gt;Node4 -->
<g id="edge3" class="edge"><title>Node3&#45;&gt;Node4</title>
<path fill="none" stroke="midnightblue" d="M564.195,-48C572.689,-48 581.298,-48 589.667,-48"/>
<polygon fill="midnightblue" stroke="midnightblue" points="589.732,-51.5001 599.732,-48 589.732,-44.5001 589.732,-51.5001"/>
</g>
</g>
</svg>
