<?xml version="1.0" encoding="UTF-8" standalone="no"?>
<!DOCTYPE svg PUBLIC "-//W3C//DTD SVG 1.1//EN"
 "http://www.w3.org/Graphics/SVG/1.1/DTD/svg11.dtd">
<!-- Generated by graphviz version 2.38.0 (20140413.2041)
 -->
<!-- Title: arImageProcLumaHistAndCDFAndPercentile Pages: 1 -->
<svg width="516pt" height="66pt"
 viewBox="0.00 0.00 516.00 66.00" xmlns="http://www.w3.org/2000/svg" xmlns:xlink="http://www.w3.org/1999/xlink">
<g id="graph0" class="graph" transform="scale(1 1) rotate(0) translate(4 62)">
<title>arImageProcLumaHistAndCDFAndPercentile</title>
<polygon fill="white" stroke="none" points="-4,4 -4,-62 512,-62 512,4 -4,4"/>
<!-- Node1 -->
<g id="node1" class="node"><title>Node1</title>
<polygon fill="#bfbfbf" stroke="black" points="0,-14 0,-44 170,-44 170,-14 0,-14"/>
<text text-anchor="start" x="8" y="-32" font-family="Helvetica,sans-Serif" font-size="10.00">arImageProcLumaHistAndCDFAnd</text>
<text text-anchor="middle" x="85" y="-21" font-family="Helvetica,sans-Serif" font-size="10.00">Percentile</text>
</g>
<!-- Node2 -->
<g id="node2" class="node"><title>Node2</title>
<g id="a_node2"><a xlink:href="ar_image_proc_8c.html#afb1e9977532aec222fb1895c3d66b5f3" target="_top" xlink:title="Calculate image histogram and cumulative density function. ">
<polygon fill="white" stroke="black" points="206,-38.5 206,-57.5 358,-57.5 358,-38.5 206,-38.5"/>
<text text-anchor="middle" x="282" y="-45.5" font-family="Helvetica,sans-Serif" font-size="10.00">arImageProcLumaHistAndCDF</text>
</a>
</g>
</g>
<!-- Node1&#45;&gt;Node2 -->
<g id="edge1" class="edge"><title>Node1&#45;&gt;Node2</title>
<path fill="none" stroke="midnightblue" d="M170.112,-37.1956C178.54,-38.0167 187.104,-38.8511 195.545,-39.6736"/>
<polygon fill="midnightblue" stroke="midnightblue" points="195.471,-43.1829 205.763,-40.6692 196.15,-36.2159 195.471,-43.1829"/>
</g>
<!-- Node4 -->
<g id="node4" class="node"><title>Node4</title>
<g id="a_node4"><a xlink:href="ioapi_8h.html#a787fa3cf048117ba7123753c1e74fcd6" target="_top" xlink:title="int">
<polygon fill="white" stroke="black" points="267.5,-0.5 267.5,-19.5 296.5,-19.5 296.5,-0.5 267.5,-0.5"/>
<text text-anchor="middle" x="282" y="-7.5" font-family="Helvetica,sans-Serif" font-size="10.00">int</text>
</a>
</g>
</g>
<!-- Node1&#45;&gt;Node4 -->
<g id="edge3" class="edge"><title>Node1&#45;&gt;Node4</title>
<path fill="none" stroke="midnightblue" d="M170.112,-20.8044C201.858,-17.7113 235.533,-14.4301 257.331,-12.3062"/>
<polygon fill="midnightblue" stroke="midnightblue" points="257.682,-15.7887 267.295,-11.3353 257.003,-8.82169 257.682,-15.7887"/>
</g>
<!-- Node3 -->
<g id="node3" class="node"><title>Node3</title>
<g id="a_node3"><a xlink:href="ar_image_proc_8c.html#a9bddf2e229ba8ea9a61ea1f2d5a61b2a" target="_top" xlink:title="Calculate luminance histogram. ">
<polygon fill="white" stroke="black" points="394,-38.5 394,-57.5 508,-57.5 508,-38.5 394,-38.5"/>
<text text-anchor="middle" x="451" y="-45.5" font-family="Helvetica,sans-Serif" font-size="10.00">arImageProcLumaHist</text>
</a>
</g>
</g>
<!-- Node2&#45;&gt;Node3 -->
<g id="edge2" class="edge"><title>Node2&#45;&gt;Node3</title>
<path fill="none" stroke="midnightblue" d="M358.195,-48C366.689,-48 375.298,-48 383.667,-48"/>
<polygon fill="midnightblue" stroke="midnightblue" points="383.732,-51.5001 393.732,-48 383.732,-44.5001 383.732,-51.5001"/>
</g>
</g>
</svg>
