<?xml version="1.0" encoding="UTF-8" standalone="no"?>
<!DOCTYPE svg PUBLIC "-//W3C//DTD SVG 1.1//EN"
 "http://www.w3.org/Graphics/SVG/1.1/DTD/svg11.dtd">
<!-- Generated by graphviz version 2.38.0 (20140413.2041)
 -->
<!-- Title: /bitrise/src/Source/AR6/AR/arLabelingSub/arLabelingSub.h Pages: 1 -->
<!--zoomable 218 -->
<svg id="main" version="1.1" xmlns="http://www.w3.org/2000/svg" xmlns:xlink="http://www.w3.org/1999/xlink" xml:space="preserve" onload="init(evt)">
<style type="text/css"><![CDATA[
.edge:hover path { stroke: red; }
.edge:hover polygon { stroke: red; fill: red; }
]]></style>
<script type="text/javascript"><![CDATA[
var edges = document.getElementsByTagName('g');
if (edges && edges.length) {
  for (var i=0;i<edges.length;i++) {
    if (edges[i].id.substr(0,4)=='edge') {
      edges[i].setAttribute('class','edge');
    }
  }
}
]]></script>
        <defs>
                <circle id="rim" cx="0" cy="0" r="7"/>
                <circle id="rim2" cx="0" cy="0" r="3.5"/>
                <g id="zoomPlus">
                        <use xlink:href="#rim" fill="#404040">
                                <set attributeName="fill" to="#808080" begin="zoomplus.mouseover" end="zoomplus.mouseout"/>
                        </use>
                        <path d="M-4,0h8M0,-4v8" fill="none" stroke="white" stroke-width="1.5" pointer-events="none"/>
                </g>
                <g id="zoomMin">
                        <use xlink:href="#rim" fill="#404040">
                                <set attributeName="fill" to="#808080" begin="zoomminus.mouseover" end="zoomminus.mouseout"/>
                        </use>
                        <path d="M-4,0h8" fill="none" stroke="white" stroke-width="1.5" pointer-events="none"/>
                </g>
                <g id="dirArrow">
                        <path fill="none" stroke="white" stroke-width="1.5" d="M0,-3.0v7 M-2.5,-0.5L0,-3.0L2.5,-0.5"/>
                </g>
               <g id="resetDef">
                       <use xlink:href="#rim2" fill="#404040">
                               <set attributeName="fill" to="#808080" begin="reset.mouseover" end="reset.mouseout"/>
                       </use>
               </g>
        </defs>

<script type="text/javascript">
var viewWidth = 999;
var viewHeight = 218;
var sectionId = 'dynsection-0';
</script>
<script xlink:href="svgpan.js"/>
<svg id="graph" class="graph">
<g id="viewport">
<title>/bitrise/src/Source/AR6/AR/arLabelingSub/arLabelingSub.h</title>
<polygon fill="white" stroke="none" points="-4,4 -4,-214 994.669,-214 994.669,4 -4,4"/>
<!-- Node1 -->
<g id="node1" class="node"><title>Node1</title>
<polygon fill="#bfbfbf" stroke="black" points="187.5,-168.5 187.5,-209.5 308.5,-209.5 308.5,-168.5 187.5,-168.5"/>
<text text-anchor="start" x="195.5" y="-197.5" font-family="Helvetica,sans-Serif" font-size="10.00">/bitrise/src/Source</text>
<text text-anchor="start" x="195.5" y="-186.5" font-family="Helvetica,sans-Serif" font-size="10.00">/AR6/AR/arLabelingSub</text>
<text text-anchor="middle" x="248" y="-175.5" font-family="Helvetica,sans-Serif" font-size="10.00">/arLabelingSub.h</text>
</g>
<!-- Node2 -->
<g id="node2" class="node"><title>Node2</title>
<polygon fill="white" stroke="#bfbfbf" points="0,-0.5 0,-19.5 48,-19.5 48,-0.5 0,-0.5"/>
<text text-anchor="middle" x="24" y="-7.5" font-family="Helvetica,sans-Serif" font-size="10.00">stdlib.h</text>
</g>
<!-- Node1&#45;&gt;Node2 -->
<g id="edge1" class="edge"><title>Node1&#45;&gt;Node2</title>
<path fill="none" stroke="midnightblue" d="M195.481,-168.494C173.138,-159.053 147.364,-146.587 126,-132 96.408,-111.794 91.0565,-103.429 68,-76 55.2995,-60.8909 42.8853,-42.071 34.4991,-28.5762"/>
<polygon fill="midnightblue" stroke="midnightblue" points="37.3537,-26.5348 29.1581,-19.8203 31.3777,-30.18 37.3537,-26.5348"/>
</g>
<!-- Node3 -->
<g id="node3" class="node"><title>Node3</title>
<polygon fill="white" stroke="#bfbfbf" points="339,-0.5 339,-19.5 385,-19.5 385,-0.5 339,-0.5"/>
<text text-anchor="middle" x="362" y="-7.5" font-family="Helvetica,sans-Serif" font-size="10.00">stdio.h</text>
</g>
<!-- Node1&#45;&gt;Node3 -->
<g id="edge2" class="edge"><title>Node1&#45;&gt;Node3</title>
<path fill="none" stroke="midnightblue" d="M245.444,-168.409C242.908,-140.597 242.394,-89.3481 267,-56 281.806,-35.9344 307.871,-24.4688 328.958,-18.1392"/>
<polygon fill="midnightblue" stroke="midnightblue" points="330.121,-21.4496 338.839,-15.4293 328.269,-14.6989 330.121,-21.4496"/>
</g>
<!-- Node4 -->
<g id="node4" class="node"><title>Node4</title>
<polygon fill="white" stroke="#bfbfbf" points="74.5,-0.5 74.5,-19.5 123.5,-19.5 123.5,-0.5 74.5,-0.5"/>
<text text-anchor="middle" x="99" y="-7.5" font-family="Helvetica,sans-Serif" font-size="10.00">string.h</text>
</g>
<!-- Node1&#45;&gt;Node4 -->
<g id="edge3" class="edge"><title>Node1&#45;&gt;Node4</title>
<path fill="none" stroke="midnightblue" d="M205.389,-168.327C170.804,-149.835 124.256,-118.618 102,-76 94.5645,-61.7621 94.4632,-43.2883 95.8427,-29.6762"/>
<polygon fill="midnightblue" stroke="midnightblue" points="99.3354,-29.9671 97.2213,-19.5853 92.3998,-29.0195 99.3354,-29.9671"/>
</g>
<!-- Node5 -->
<g id="node5" class="node"><title>Node5</title>
<g id="a_node5"><a xlink:href="ar_8h.html" target="_top" xlink:title="ARToolKit core routines. ">
<polygon fill="white" stroke="black" points="443.5,-112.5 443.5,-131.5 516.5,-131.5 516.5,-112.5 443.5,-112.5"/>
<text text-anchor="middle" x="480" y="-119.5" font-family="Helvetica,sans-Serif" font-size="10.00">AR6/AR/ar.h</text>
</a>
</g>
</g>
<!-- Node1&#45;&gt;Node5 -->
<g id="edge4" class="edge"><title>Node1&#45;&gt;Node5</title>
<path fill="none" stroke="midnightblue" d="M308.652,-171.007C350.009,-159.42 403.624,-144.398 439.778,-134.269"/>
<polygon fill="midnightblue" stroke="midnightblue" points="440.803,-137.617 449.488,-131.549 438.914,-130.876 440.803,-137.617"/>
</g>
<!-- Node18 -->
<g id="node18" class="node"><title>Node18</title>
<g id="a_node18"><a xlink:href="ar_labeling_private_8h.html" target="_top" xlink:title="arLabelingPrivate.h">
<polygon fill="white" stroke="black" points="744,-112.5 744,-131.5 844,-131.5 844,-112.5 744,-112.5"/>
<text text-anchor="middle" x="794" y="-119.5" font-family="Helvetica,sans-Serif" font-size="10.00">arLabelingPrivate.h</text>
</a>
</g>
</g>
<!-- Node1&#45;&gt;Node18 -->
<g id="edge27" class="edge"><title>Node1&#45;&gt;Node18</title>
<path fill="none" stroke="midnightblue" d="M308.518,-180.796C413.581,-168.288 628.524,-142.7 733.544,-130.197"/>
<polygon fill="midnightblue" stroke="midnightblue" points="734.146,-133.65 743.662,-128.993 733.318,-126.699 734.146,-133.65"/>
</g>
<!-- Node5&#45;&gt;Node2 -->
<g id="edge6" class="edge"><title>Node5&#45;&gt;Node2</title>
<path fill="none" stroke="midnightblue" d="M443.294,-119.283C360.745,-114.997 162.928,-102.236 102,-76 76.3185,-64.9413 52.5157,-42.631 38.1235,-27.2587"/>
<polygon fill="midnightblue" stroke="midnightblue" points="40.4496,-24.613 31.1439,-19.5478 35.2599,-29.3105 40.4496,-24.613"/>
</g>
<!-- Node5&#45;&gt;Node3 -->
<g id="edge5" class="edge"><title>Node5&#45;&gt;Node3</title>
<path fill="none" stroke="midnightblue" d="M468.728,-112.398C457.384,-103.598 439.532,-89.3595 425,-76 407.754,-60.146 389.232,-40.7169 376.767,-27.2513"/>
<polygon fill="midnightblue" stroke="midnightblue" points="379.196,-24.7214 369.854,-19.7229 374.04,-29.456 379.196,-24.7214"/>
</g>
<!-- Node5&#45;&gt;Node4 -->
<g id="edge8" class="edge"><title>Node5&#45;&gt;Node4</title>
<path fill="none" stroke="midnightblue" d="M443.294,-121.311C361.47,-121.251 167.502,-116.7 119,-76 105.595,-64.7509 101.008,-44.7387 99.5216,-29.8816"/>
<polygon fill="midnightblue" stroke="midnightblue" points="103.006,-29.5203 98.8949,-19.7556 96.0194,-29.9528 103.006,-29.5203"/>
</g>
<!-- Node6 -->
<g id="node6" class="node"><title>Node6</title>
<polygon fill="white" stroke="#bfbfbf" points="925.5,-56.5 925.5,-75.5 974.5,-75.5 974.5,-56.5 925.5,-56.5"/>
<text text-anchor="middle" x="950" y="-63.5" font-family="Helvetica,sans-Serif" font-size="10.00">stdint.h</text>
</g>
<!-- Node5&#45;&gt;Node6 -->
<g id="edge7" class="edge"><title>Node5&#45;&gt;Node6</title>
<path fill="none" stroke="midnightblue" d="M516.546,-119.261C590.335,-115.315 762.442,-103.918 915.202,-76.079"/>
<polygon fill="midnightblue" stroke="midnightblue" points="916.039,-79.4836 925.235,-74.2214 914.764,-72.6005 916.039,-79.4836"/>
</g>
<!-- Node7 -->
<g id="node7" class="node"><title>Node7</title>
<polygon fill="white" stroke="#bfbfbf" points="802.5,-0.5 802.5,-19.5 893.5,-19.5 893.5,-0.5 802.5,-0.5"/>
<text text-anchor="middle" x="848" y="-7.5" font-family="Helvetica,sans-Serif" font-size="10.00">AR6/AR/config.h</text>
</g>
<!-- Node5&#45;&gt;Node7 -->
<g id="edge9" class="edge"><title>Node5&#45;&gt;Node7</title>
<path fill="none" stroke="midnightblue" d="M516.578,-119.007C568.11,-115.247 664.352,-104.703 741,-76 758.571,-69.42 801.107,-42.1527 826.944,-25.0934"/>
<polygon fill="midnightblue" stroke="midnightblue" points="828.921,-27.9816 835.318,-19.5357 825.05,-22.1492 828.921,-27.9816"/>
</g>
<!-- Node8 -->
<g id="node8" class="node"><title>Node8</title>
<g id="a_node8"><a xlink:href="ar_config_8h.html" target="_top" xlink:title="AR6/AR/arConfig.h">
<polygon fill="white" stroke="black" points="276.5,-56.5 276.5,-75.5 377.5,-75.5 377.5,-56.5 276.5,-56.5"/>
<text text-anchor="middle" x="327" y="-63.5" font-family="Helvetica,sans-Serif" font-size="10.00">AR6/AR/arConfig.h</text>
</a>
</g>
</g>
<!-- Node5&#45;&gt;Node8 -->
<g id="edge10" class="edge"><title>Node5&#45;&gt;Node8</title>
<path fill="none" stroke="midnightblue" d="M455.757,-112.444C430.129,-103.399 389.515,-89.064 360.762,-78.9158"/>
<polygon fill="midnightblue" stroke="midnightblue" points="361.725,-75.5442 351.13,-75.5164 359.395,-82.1452 361.725,-75.5442"/>
</g>
<!-- Node9 -->
<g id="node9" class="node"><title>Node9</title>
<g id="a_node9"><a xlink:href="log_8h.html" target="_top" xlink:title="Logging utilities. ">
<polygon fill="white" stroke="black" points="128,-56.5 128,-75.5 220,-75.5 220,-56.5 128,-56.5"/>
<text text-anchor="middle" x="174" y="-63.5" font-family="Helvetica,sans-Serif" font-size="10.00">AR6/ARUtil/log.h</text>
</a>
</g>
</g>
<!-- Node5&#45;&gt;Node9 -->
<g id="edge11" class="edge"><title>Node5&#45;&gt;Node9</title>
<path fill="none" stroke="midnightblue" d="M443.393,-114.54C390.498,-105.205 292.243,-87.8664 230.143,-76.9076"/>
<polygon fill="midnightblue" stroke="midnightblue" points="230.578,-73.4303 220.122,-75.1392 229.361,-80.3238 230.578,-73.4303"/>
</g>
<!-- Node12 -->
<g id="node12" class="node"><title>Node12</title>
<g id="a_node12"><a xlink:href="_a_r_2include_2_a_r6_2_a_r_2matrix_8h.html" target="_top" xlink:title="AR6/AR/matrix.h">
<polygon fill="white" stroke="black" points="640,-56.5 640,-75.5 732,-75.5 732,-56.5 640,-56.5"/>
<text text-anchor="middle" x="686" y="-63.5" font-family="Helvetica,sans-Serif" font-size="10.00">AR6/AR/matrix.h</text>
</a>
</g>
</g>
<!-- Node5&#45;&gt;Node12 -->
<g id="edge17" class="edge"><title>Node5&#45;&gt;Node12</title>
<path fill="none" stroke="midnightblue" d="M512.641,-112.444C548.05,-103.162 604.709,-88.3093 643.553,-78.127"/>
<polygon fill="midnightblue" stroke="midnightblue" points="644.726,-81.4378 653.511,-75.5164 642.951,-74.6666 644.726,-81.4378"/>
</g>
<!-- Node14 -->
<g id="node14" class="node"><title>Node14</title>
<g id="a_node14"><a xlink:href="icp_8h.html" target="_top" xlink:title="AR6/AR/icp.h">
<polygon fill="white" stroke="black" points="544.5,-56.5 544.5,-75.5 621.5,-75.5 621.5,-56.5 544.5,-56.5"/>
<text text-anchor="middle" x="583" y="-63.5" font-family="Helvetica,sans-Serif" font-size="10.00">AR6/AR/icp.h</text>
</a>
</g>
</g>
<!-- Node5&#45;&gt;Node14 -->
<g id="edge19" class="edge"><title>Node5&#45;&gt;Node14</title>
<path fill="none" stroke="midnightblue" d="M496.549,-112.324C512.992,-103.703 538.435,-90.3643 557.468,-80.3855"/>
<polygon fill="midnightblue" stroke="midnightblue" points="559.261,-83.3977 566.492,-75.6545 556.011,-77.198 559.261,-83.3977"/>
</g>
<!-- Node16 -->
<g id="node16" class="node"><title>Node16</title>
<g id="a_node16"><a xlink:href="param_8h.html" target="_top" xlink:title="ARToolKit functions for handling calibrated camera parameters. ">
<polygon fill="white" stroke="black" points="434,-56.5 434,-75.5 526,-75.5 526,-56.5 434,-56.5"/>
<text text-anchor="middle" x="480" y="-63.5" font-family="Helvetica,sans-Serif" font-size="10.00">AR6/AR/param.h</text>
</a>
</g>
</g>
<!-- Node5&#45;&gt;Node16 -->
<g id="edge22" class="edge"><title>Node5&#45;&gt;Node16</title>
<path fill="none" stroke="midnightblue" d="M474.834,-112.083C473.324,-104.927 472.894,-94.6353 473.542,-85.6911"/>
<polygon fill="midnightblue" stroke="midnightblue" points="477.015,-86.1262 474.869,-75.7511 470.077,-85.2002 477.015,-86.1262"/>
</g>
<!-- Node17 -->
<g id="node17" class="node"><title>Node17</title>
<g id="a_node17"><a xlink:href="ar_image_proc_8h.html" target="_top" xlink:title="ARToolKit functions for 2D luminance image processing. ">
<polygon fill="white" stroke="black" points="788,-56.5 788,-75.5 908,-75.5 908,-56.5 788,-56.5"/>
<text text-anchor="middle" x="848" y="-63.5" font-family="Helvetica,sans-Serif" font-size="10.00">AR6/AR/arImageProc.h</text>
</a>
</g>
</g>
<!-- Node5&#45;&gt;Node17 -->
<g id="edge24" class="edge"><title>Node5&#45;&gt;Node17</title>
<path fill="none" stroke="midnightblue" d="M516.695,-114.963C577.482,-105.639 699.763,-87.6538 777.607,-76.5524"/>
<polygon fill="midnightblue" stroke="midnightblue" points="778.406,-79.9739 787.813,-75.1001 777.42,-73.0437 778.406,-79.9739"/>
</g>
<!-- Node9&#45;&gt;Node2 -->
<g id="edge13" class="edge"><title>Node9&#45;&gt;Node2</title>
<path fill="none" stroke="midnightblue" d="M150.232,-56.4435C125.107,-47.3986 85.289,-33.064 57.0996,-22.9158"/>
<polygon fill="midnightblue" stroke="midnightblue" points="58.2512,-19.6106 47.6567,-19.5164 55.8801,-26.1968 58.2512,-19.6106"/>
</g>
<!-- Node9&#45;&gt;Node3 -->
<g id="edge12" class="edge"><title>Node9&#45;&gt;Node3</title>
<path fill="none" stroke="midnightblue" d="M203.789,-56.4435C237.902,-46.6451 293.627,-30.6391 329.022,-20.4723"/>
<polygon fill="midnightblue" stroke="midnightblue" points="330.224,-23.7686 338.87,-17.6439 328.292,-17.0407 330.224,-23.7686"/>
</g>
<!-- Node9&#45;&gt;Node4 -->
<g id="edge14" class="edge"><title>Node9&#45;&gt;Node4</title>
<path fill="none" stroke="midnightblue" d="M161.95,-56.324C150.537,-48.1066 133.169,-35.6017 119.565,-25.8069"/>
<polygon fill="midnightblue" stroke="midnightblue" points="121.43,-22.8366 111.269,-19.8339 117.34,-28.5174 121.43,-22.8366"/>
</g>
<!-- Node10 -->
<g id="node10" class="node"><title>Node10</title>
<polygon fill="white" stroke="#bfbfbf" points="225,-0.5 225,-19.5 277,-19.5 277,-0.5 225,-0.5"/>
<text text-anchor="middle" x="251" y="-7.5" font-family="Helvetica,sans-Serif" font-size="10.00">stdarg.h</text>
</g>
<!-- Node9&#45;&gt;Node10 -->
<g id="edge15" class="edge"><title>Node9&#45;&gt;Node10</title>
<path fill="none" stroke="midnightblue" d="M186.371,-56.324C198.158,-48.0577 216.132,-35.4527 230.136,-25.6322"/>
<polygon fill="midnightblue" stroke="midnightblue" points="232.482,-28.2619 238.659,-19.6545 228.462,-22.5307 232.482,-28.2619"/>
</g>
<!-- Node11 -->
<g id="node11" class="node"><title>Node11</title>
<polygon fill="white" stroke="#bfbfbf" points="141.5,-0.5 141.5,-19.5 206.5,-19.5 206.5,-0.5 141.5,-0.5"/>
<text text-anchor="middle" x="174" y="-7.5" font-family="Helvetica,sans-Serif" font-size="10.00">sys/errno.h</text>
</g>
<!-- Node9&#45;&gt;Node11 -->
<g id="edge16" class="edge"><title>Node9&#45;&gt;Node11</title>
<path fill="none" stroke="midnightblue" d="M174,-56.083C174,-49.0059 174,-38.8611 174,-29.9865"/>
<polygon fill="midnightblue" stroke="midnightblue" points="177.5,-29.751 174,-19.7511 170.5,-29.7511 177.5,-29.751"/>
</g>
<!-- Node13 -->
<g id="node13" class="node"><title>Node13</title>
<polygon fill="white" stroke="#bfbfbf" points="662.5,-0.5 662.5,-19.5 709.5,-19.5 709.5,-0.5 662.5,-0.5"/>
<text text-anchor="middle" x="686" y="-7.5" font-family="Helvetica,sans-Serif" font-size="10.00">math.h</text>
</g>
<!-- Node12&#45;&gt;Node13 -->
<g id="edge18" class="edge"><title>Node12&#45;&gt;Node13</title>
<path fill="none" stroke="midnightblue" d="M686,-56.083C686,-49.0059 686,-38.8611 686,-29.9865"/>
<polygon fill="midnightblue" stroke="midnightblue" points="689.5,-29.751 686,-19.7511 682.5,-29.7511 689.5,-29.751"/>
</g>
<!-- Node14&#45;&gt;Node3 -->
<g id="edge20" class="edge"><title>Node14&#45;&gt;Node3</title>
<path fill="none" stroke="midnightblue" d="M547.982,-56.4435C505.906,-46.1626 435.861,-29.0475 394.799,-19.0141"/>
<polygon fill="midnightblue" stroke="midnightblue" points="395.563,-15.5981 385.018,-16.6243 393.902,-22.398 395.563,-15.5981"/>
</g>
<!-- Node15 -->
<g id="node15" class="node"><title>Node15</title>
<g id="a_node15"><a xlink:href="icp_core_8h.html" target="_top" xlink:title="AR6/AR/icpCore.h">
<polygon fill="white" stroke="black" points="534,-0.5 534,-19.5 632,-19.5 632,-0.5 534,-0.5"/>
<text text-anchor="middle" x="583" y="-7.5" font-family="Helvetica,sans-Serif" font-size="10.00">AR6/AR/icpCore.h</text>
</a>
</g>
</g>
<!-- Node14&#45;&gt;Node15 -->
<g id="edge21" class="edge"><title>Node14&#45;&gt;Node15</title>
<path fill="none" stroke="midnightblue" d="M583,-56.083C583,-49.0059 583,-38.8611 583,-29.9865"/>
<polygon fill="midnightblue" stroke="midnightblue" points="586.5,-29.751 583,-19.7511 579.5,-29.7511 586.5,-29.751"/>
</g>
<!-- Node16&#45;&gt;Node5 -->
<g id="edge23" class="edge"><title>Node16&#45;&gt;Node5</title>
<path fill="none" stroke="midnightblue" d="M485.131,-75.7511C486.657,-82.8579 487.104,-93.1357 486.472,-102.101"/>
<polygon fill="midnightblue" stroke="midnightblue" points="482.993,-101.713 485.166,-112.083 489.934,-102.622 482.993,-101.713"/>
</g>
<!-- Node17&#45;&gt;Node5 -->
<g id="edge26" class="edge"><title>Node17&#45;&gt;Node5</title>
<path fill="none" stroke="midnightblue" d="M795.105,-75.5069C723.09,-86.4276 595.526,-105.118 526.807,-114.792"/>
<polygon fill="midnightblue" stroke="midnightblue" points="526.122,-111.353 516.704,-116.208 527.094,-118.286 526.122,-111.353"/>
</g>
<!-- Node17&#45;&gt;Node7 -->
<g id="edge25" class="edge"><title>Node17&#45;&gt;Node7</title>
<path fill="none" stroke="midnightblue" d="M848,-56.083C848,-49.0059 848,-38.8611 848,-29.9865"/>
<polygon fill="midnightblue" stroke="midnightblue" points="851.5,-29.751 848,-19.7511 844.5,-29.7511 851.5,-29.751"/>
</g>
<!-- Node18&#45;&gt;Node7 -->
<g id="edge28" class="edge"><title>Node18&#45;&gt;Node7</title>
<path fill="none" stroke="midnightblue" d="M844.221,-116.078C894.521,-109.988 966.863,-97.6701 984,-76 1009.69,-43.5183 951.652,-26.3567 903.585,-17.9865"/>
<polygon fill="midnightblue" stroke="midnightblue" points="903.948,-14.4993 893.512,-16.3315 902.813,-21.4067 903.948,-14.4993"/>
</g>
</g>
</svg>
        <g id="navigator" transform="translate(0 0)" fill="#404254">
                <rect fill="#f2f5e9" fill-opacity="0.5" stroke="#606060" stroke-width=".5" x="0" y="0" width="60" height="60"/>
                <use id="zoomplus" xlink:href="#zoomPlus" x="17" y="9" onmousedown="handleZoom(evt,'in')"/>
                <use id="zoomminus" xlink:href="#zoomMin" x="42" y="9" onmousedown="handleZoom(evt,'out')"/>
                <use id="reset" xlink:href="#resetDef" x="30" y="36" onmousedown="handleReset()"/>
                <g id="arrowUp" xlink:href="#dirArrow" transform="translate(30 24)" onmousedown="handlePan(0,-1)">
                  <use xlink:href="#rim" fill="#404040">
                        <set attributeName="fill" to="#808080" begin="arrowUp.mouseover" end="arrowUp.mouseout"/>
                  </use>
                  <path fill="none" stroke="white" stroke-width="1.5" d="M0,-3.0v7 M-2.5,-0.5L0,-3.0L2.5,-0.5"/>
                </g>
                <g id="arrowRight" xlink:href="#dirArrow" transform="rotate(90) translate(36 -43)" onmousedown="handlePan(1,0)">
                  <use xlink:href="#rim" fill="#404040">
                        <set attributeName="fill" to="#808080" begin="arrowRight.mouseover" end="arrowRight.mouseout"/>
                  </use>
                  <path fill="none" stroke="white" stroke-width="1.5" d="M0,-3.0v7 M-2.5,-0.5L0,-3.0L2.5,-0.5"/>
                </g>
                <g id="arrowDown" xlink:href="#dirArrow" transform="rotate(180) translate(-30 -48)" onmousedown="handlePan(0,1)">
                  <use xlink:href="#rim" fill="#404040">
                        <set attributeName="fill" to="#808080" begin="arrowDown.mouseover" end="arrowDown.mouseout"/>
                  </use>
                  <path fill="none" stroke="white" stroke-width="1.5" d="M0,-3.0v7 M-2.5,-0.5L0,-3.0L2.5,-0.5"/>
                </g>
                <g id="arrowLeft" xlink:href="#dirArrow" transform="rotate(270) translate(-36 17)" onmousedown="handlePan(-1,0)">
                  <use xlink:href="#rim" fill="#404040">
                        <set attributeName="fill" to="#808080" begin="arrowLeft.mouseover" end="arrowLeft.mouseout"/>
                  </use>
                  <path fill="none" stroke="white" stroke-width="1.5" d="M0,-3.0v7 M-2.5,-0.5L0,-3.0L2.5,-0.5"/>
                </g>
        </g>
        <svg viewBox="0 0 15 15" width="100%" height="30px" preserveAspectRatio="xMaxYMin meet">
         <g id="arrow_out" transform="scale(0.3 0.3)">
          <a xlink:href="ar_labeling_sub_8h__incl_org.svg" target="_base">
           <rect id="button" ry="5" rx="5" y="6" x="6" height="38" width="38"
                fill="#f2f5e9" fill-opacity="0.5" stroke="#606060" stroke-width="1.0"/>
           <path id="arrow"
             d="M 11.500037,31.436501 C 11.940474,20.09759 22.043105,11.32322 32.158766,21.979434 L 37.068811,17.246167 C 37.068811,17.246167 37.088388,32 37.088388,32 L 22.160133,31.978069 C 22.160133,31.978069 26.997745,27.140456 26.997745,27.140456 C 18.528582,18.264221 13.291696,25.230495 11.500037,31.436501 z"
             style="fill:#404040;"/>
          </a>
         </g>
        </svg>
</svg>
