<?xml version="1.0" encoding="UTF-8" standalone="no"?>
<!DOCTYPE svg PUBLIC "-//W3C//DTD SVG 1.1//EN"
 "http://www.w3.org/Graphics/SVG/1.1/DTD/svg11.dtd">
<!-- Generated by graphviz version 2.38.0 (20140413.2041)
 -->
<!-- Title: /bitrise/src/Source/AR6/AR/arLabeling.c Pages: 1 -->
<!--zoomable 218 -->
<svg id="main" version="1.1" xmlns="http://www.w3.org/2000/svg" xmlns:xlink="http://www.w3.org/1999/xlink" xml:space="preserve" onload="init(evt)">
<style type="text/css"><![CDATA[
.edge:hover path { stroke: red; }
.edge:hover polygon { stroke: red; fill: red; }
]]></style>
<script type="text/javascript"><![CDATA[
var edges = document.getElementsByTagName('g');
if (edges && edges.length) {
  for (var i=0;i<edges.length;i++) {
    if (edges[i].id.substr(0,4)=='edge') {
      edges[i].setAttribute('class','edge');
    }
  }
}
]]></script>
        <defs>
                <circle id="rim" cx="0" cy="0" r="7"/>
                <circle id="rim2" cx="0" cy="0" r="3.5"/>
                <g id="zoomPlus">
                        <use xlink:href="#rim" fill="#404040">
                                <set attributeName="fill" to="#808080" begin="zoomplus.mouseover" end="zoomplus.mouseout"/>
                        </use>
                        <path d="M-4,0h8M0,-4v8" fill="none" stroke="white" stroke-width="1.5" pointer-events="none"/>
                </g>
                <g id="zoomMin">
                        <use xlink:href="#rim" fill="#404040">
                                <set attributeName="fill" to="#808080" begin="zoomminus.mouseover" end="zoomminus.mouseout"/>
                        </use>
                        <path d="M-4,0h8" fill="none" stroke="white" stroke-width="1.5" pointer-events="none"/>
                </g>
                <g id="dirArrow">
                        <path fill="none" stroke="white" stroke-width="1.5" d="M0,-3.0v7 M-2.5,-0.5L0,-3.0L2.5,-0.5"/>
                </g>
               <g id="resetDef">
                       <use xlink:href="#rim2" fill="#404040">
                               <set attributeName="fill" to="#808080" begin="reset.mouseover" end="reset.mouseout"/>
                       </use>
               </g>
        </defs>

<script type="text/javascript">
var viewWidth = 1035;
var viewHeight = 218;
var sectionId = 'dynsection-0';
</script>
<script xlink:href="svgpan.js"/>
<svg id="graph" class="graph">
<g id="viewport">
<title>/bitrise/src/Source/AR6/AR/arLabeling.c</title>
<polygon fill="white" stroke="none" points="-4,4 -4,-214 1030.5,-214 1030.5,4 -4,4"/>
<!-- Node1 -->
<g id="node1" class="node"><title>Node1</title>
<polygon fill="#bfbfbf" stroke="black" points="450.5,-179.5 450.5,-209.5 562.5,-209.5 562.5,-179.5 450.5,-179.5"/>
<text text-anchor="start" x="458.5" y="-197.5" font-family="Helvetica,sans-Serif" font-size="10.00">/bitrise/src/Source</text>
<text text-anchor="middle" x="506.5" y="-186.5" font-family="Helvetica,sans-Serif" font-size="10.00">/AR6/AR/arLabeling.c</text>
</g>
<!-- Node2 -->
<g id="node2" class="node"><title>Node2</title>
<polygon fill="white" stroke="#bfbfbf" points="775.5,-0.5 775.5,-19.5 823.5,-19.5 823.5,-0.5 775.5,-0.5"/>
<text text-anchor="middle" x="799.5" y="-7.5" font-family="Helvetica,sans-Serif" font-size="10.00">stdlib.h</text>
</g>
<!-- Node1&#45;&gt;Node2 -->
<g id="edge1" class="edge"><title>Node1&#45;&gt;Node2</title>
<path fill="none" stroke="midnightblue" d="M562.738,-190.395C634.971,-183.033 757.768,-158.364 814.5,-76 824.121,-62.0318 817.825,-42.7724 810.675,-28.8473"/>
<polygon fill="midnightblue" stroke="midnightblue" points="813.518,-26.766 805.533,-19.8024 807.432,-30.2256 813.518,-26.766"/>
</g>
<!-- Node3 -->
<g id="node3" class="node"><title>Node3</title>
<polygon fill="white" stroke="#bfbfbf" points="856.5,-0.5 856.5,-19.5 902.5,-19.5 902.5,-0.5 856.5,-0.5"/>
<text text-anchor="middle" x="879.5" y="-7.5" font-family="Helvetica,sans-Serif" font-size="10.00">stdio.h</text>
</g>
<!-- Node1&#45;&gt;Node3 -->
<g id="edge2" class="edge"><title>Node1&#45;&gt;Node3</title>
<path fill="none" stroke="midnightblue" d="M562.716,-192.355C619.198,-189.104 707.276,-178.179 774.5,-143 823.006,-117.617 856.665,-58.9074 871.292,-29.0861"/>
<polygon fill="midnightblue" stroke="midnightblue" points="874.551,-30.3808 875.665,-19.8447 868.224,-27.3865 874.551,-30.3808"/>
</g>
<!-- Node4 -->
<g id="node4" class="node"><title>Node4</title>
<g id="a_node4"><a xlink:href="ar_8h.html" target="_top" xlink:title="ARToolKit core routines. ">
<polygon fill="white" stroke="black" points="470,-118 470,-137 543,-137 543,-118 470,-118"/>
<text text-anchor="middle" x="506.5" y="-125" font-family="Helvetica,sans-Serif" font-size="10.00">AR6/AR/ar.h</text>
</a>
</g>
</g>
<!-- Node1&#45;&gt;Node4 -->
<g id="edge3" class="edge"><title>Node1&#45;&gt;Node4</title>
<path fill="none" stroke="midnightblue" d="M506.5,-179.396C506.5,-170.064 506.5,-157.714 506.5,-147.517"/>
<polygon fill="midnightblue" stroke="midnightblue" points="510,-147.195 506.5,-137.195 503,-147.195 510,-147.195"/>
</g>
<!-- Node7 -->
<g id="node7" class="node"><title>Node7</title>
<polygon fill="white" stroke="#bfbfbf" points="0,-0.5 0,-19.5 91,-19.5 91,-0.5 0,-0.5"/>
<text text-anchor="middle" x="45.5" y="-7.5" font-family="Helvetica,sans-Serif" font-size="10.00">AR6/AR/config.h</text>
</g>
<!-- Node1&#45;&gt;Node7 -->
<g id="edge26" class="edge"><title>Node1&#45;&gt;Node7</title>
<path fill="none" stroke="midnightblue" d="M450.311,-191.252C381.039,-187.131 260.461,-175.525 162.5,-143 103.05,-123.261 70.5829,-129.802 38.5,-76 30.0692,-61.8619 33.4377,-42.881 37.942,-29.0822"/>
<polygon fill="midnightblue" stroke="midnightblue" points="41.2236,-30.2991 41.4314,-19.7063 34.6632,-27.8575 41.2236,-30.2991"/>
</g>
<!-- Node18 -->
<g id="node18" class="node"><title>Node18</title>
<g id="a_node18"><a xlink:href="ar_labeling_private_8h.html" target="_top" xlink:title="arLabelingSub/arLabeling\lPrivate.h">
<polygon fill="white" stroke="black" points="172,-112.5 172,-142.5 297,-142.5 297,-112.5 172,-112.5"/>
<text text-anchor="start" x="180" y="-130.5" font-family="Helvetica,sans-Serif" font-size="10.00">arLabelingSub/arLabeling</text>
<text text-anchor="middle" x="234.5" y="-119.5" font-family="Helvetica,sans-Serif" font-size="10.00">Private.h</text>
</a>
</g>
</g>
<!-- Node1&#45;&gt;Node18 -->
<g id="edge27" class="edge"><title>Node1&#45;&gt;Node18</title>
<path fill="none" stroke="midnightblue" d="M450.471,-180.111C407.73,-169.897 348.645,-155.777 303.078,-144.888"/>
<polygon fill="midnightblue" stroke="midnightblue" points="303.817,-141.466 293.277,-142.546 302.19,-148.275 303.817,-141.466"/>
</g>
<!-- Node4&#45;&gt;Node2 -->
<g id="edge5" class="edge"><title>Node4&#45;&gt;Node2</title>
<path fill="none" stroke="midnightblue" d="M543.1,-121.693C584.864,-115.248 654.49,-101.539 709.5,-76 737.19,-63.1448 765.068,-41.3145 782.302,-26.5363"/>
<polygon fill="midnightblue" stroke="midnightblue" points="785.074,-28.7602 790.286,-19.5359 780.459,-23.4967 785.074,-28.7602"/>
</g>
<!-- Node4&#45;&gt;Node3 -->
<g id="edge4" class="edge"><title>Node4&#45;&gt;Node3</title>
<path fill="none" stroke="midnightblue" d="M543.168,-123.321C614.181,-116.707 767.613,-100.051 814.5,-76 836.579,-64.6747 855.815,-43.1289 867.518,-27.9553"/>
<polygon fill="midnightblue" stroke="midnightblue" points="870.358,-30.0008 873.502,-19.8831 864.735,-25.832 870.358,-30.0008"/>
</g>
<!-- Node5 -->
<g id="node5" class="node"><title>Node5</title>
<polygon fill="white" stroke="#bfbfbf" points="757,-56.5 757,-75.5 806,-75.5 806,-56.5 757,-56.5"/>
<text text-anchor="middle" x="781.5" y="-63.5" font-family="Helvetica,sans-Serif" font-size="10.00">stdint.h</text>
</g>
<!-- Node4&#45;&gt;Node5 -->
<g id="edge6" class="edge"><title>Node4&#45;&gt;Node5</title>
<path fill="none" stroke="midnightblue" d="M543.33,-118.809C589.799,-109.062 672.151,-91.643 742.5,-76 743.941,-75.6795 745.412,-75.3502 746.898,-75.0157"/>
<polygon fill="midnightblue" stroke="midnightblue" points="747.782,-78.4041 756.756,-72.7729 746.229,-71.5786 747.782,-78.4041"/>
</g>
<!-- Node6 -->
<g id="node6" class="node"><title>Node6</title>
<polygon fill="white" stroke="#bfbfbf" points="555,-0.5 555,-19.5 604,-19.5 604,-0.5 555,-0.5"/>
<text text-anchor="middle" x="579.5" y="-7.5" font-family="Helvetica,sans-Serif" font-size="10.00">string.h</text>
</g>
<!-- Node4&#45;&gt;Node6 -->
<g id="edge7" class="edge"><title>Node4&#45;&gt;Node6</title>
<path fill="none" stroke="midnightblue" d="M519.336,-117.985C531.897,-108.996 550.675,-93.6921 561.5,-76 570.189,-61.7981 574.779,-43.3203 577.143,-29.6976"/>
<polygon fill="midnightblue" stroke="midnightblue" points="580.636,-30.0031 578.646,-19.5969 573.712,-28.9729 580.636,-30.0031"/>
</g>
<!-- Node4&#45;&gt;Node7 -->
<g id="edge8" class="edge"><title>Node4&#45;&gt;Node7</title>
<path fill="none" stroke="midnightblue" d="M469.81,-123.989C372.941,-117.1 115.547,-97.0097 83.5,-76 67.1381,-65.2733 56.9191,-44.871 51.2529,-29.7735"/>
<polygon fill="midnightblue" stroke="midnightblue" points="54.4401,-28.2743 47.909,-19.932 47.8122,-30.5264 54.4401,-28.2743"/>
</g>
<!-- Node8 -->
<g id="node8" class="node"><title>Node8</title>
<g id="a_node8"><a xlink:href="ar_config_8h.html" target="_top" xlink:title="AR6/AR/arConfig.h">
<polygon fill="white" stroke="black" points="93,-56.5 93,-75.5 194,-75.5 194,-56.5 93,-56.5"/>
<text text-anchor="middle" x="143.5" y="-63.5" font-family="Helvetica,sans-Serif" font-size="10.00">AR6/AR/arConfig.h</text>
</a>
</g>
</g>
<!-- Node4&#45;&gt;Node8 -->
<g id="edge9" class="edge"><title>Node4&#45;&gt;Node8</title>
<path fill="none" stroke="midnightblue" d="M469.696,-120.467C407.251,-110.232 279.962,-89.3677 204.173,-76.9451"/>
<polygon fill="midnightblue" stroke="midnightblue" points="204.722,-73.4883 194.287,-75.3246 203.589,-80.3961 204.722,-73.4883"/>
</g>
<!-- Node9 -->
<g id="node9" class="node"><title>Node9</title>
<g id="a_node9"><a xlink:href="log_8h.html" target="_top" xlink:title="Logging utilities. ">
<polygon fill="white" stroke="black" points="608.5,-56.5 608.5,-75.5 700.5,-75.5 700.5,-56.5 608.5,-56.5"/>
<text text-anchor="middle" x="654.5" y="-63.5" font-family="Helvetica,sans-Serif" font-size="10.00">AR6/ARUtil/log.h</text>
</a>
</g>
</g>
<!-- Node4&#45;&gt;Node9 -->
<g id="edge10" class="edge"><title>Node4&#45;&gt;Node9</title>
<path fill="none" stroke="midnightblue" d="M527.705,-117.975C552.872,-107.857 595.04,-90.9046 623.779,-79.3507"/>
<polygon fill="midnightblue" stroke="midnightblue" points="625.362,-82.4867 633.335,-75.5091 622.751,-75.9919 625.362,-82.4867"/>
</g>
<!-- Node12 -->
<g id="node12" class="node"><title>Node12</title>
<g id="a_node12"><a xlink:href="_a_r_2include_2_a_r6_2_a_r_2matrix_8h.html" target="_top" xlink:title="AR6/AR/matrix.h">
<polygon fill="white" stroke="black" points="350.5,-56.5 350.5,-75.5 442.5,-75.5 442.5,-56.5 350.5,-56.5"/>
<text text-anchor="middle" x="396.5" y="-63.5" font-family="Helvetica,sans-Serif" font-size="10.00">AR6/AR/matrix.h</text>
</a>
</g>
</g>
<!-- Node4&#45;&gt;Node12 -->
<g id="edge16" class="edge"><title>Node4&#45;&gt;Node12</title>
<path fill="none" stroke="midnightblue" d="M490.74,-117.975C472.524,-108.122 442.327,-91.7883 421.032,-80.2697"/>
<polygon fill="midnightblue" stroke="midnightblue" points="422.692,-77.1883 412.231,-75.5091 419.362,-83.3453 422.692,-77.1883"/>
</g>
<!-- Node14 -->
<g id="node14" class="node"><title>Node14</title>
<g id="a_node14"><a xlink:href="icp_8h.html" target="_top" xlink:title="AR6/AR/icp.h">
<polygon fill="white" stroke="black" points="939,-56.5 939,-75.5 1016,-75.5 1016,-56.5 939,-56.5"/>
<text text-anchor="middle" x="977.5" y="-63.5" font-family="Helvetica,sans-Serif" font-size="10.00">AR6/AR/icp.h</text>
</a>
</g>
</g>
<!-- Node4&#45;&gt;Node14 -->
<g id="edge18" class="edge"><title>Node4&#45;&gt;Node14</title>
<path fill="none" stroke="midnightblue" d="M543.067,-121.881C627.128,-111.261 834.153,-85.1086 928.829,-73.1485"/>
<polygon fill="midnightblue" stroke="midnightblue" points="929.508,-76.5906 938.99,-71.8648 928.63,-69.6458 929.508,-76.5906"/>
</g>
<!-- Node16 -->
<g id="node16" class="node"><title>Node16</title>
<g id="a_node16"><a xlink:href="param_8h.html" target="_top" xlink:title="ARToolKit functions for handling calibrated camera parameters. ">
<polygon fill="white" stroke="black" points="460.5,-56.5 460.5,-75.5 552.5,-75.5 552.5,-56.5 460.5,-56.5"/>
<text text-anchor="middle" x="506.5" y="-63.5" font-family="Helvetica,sans-Serif" font-size="10.00">AR6/AR/param.h</text>
</a>
</g>
</g>
<!-- Node4&#45;&gt;Node16 -->
<g id="edge21" class="edge"><title>Node4&#45;&gt;Node16</title>
<path fill="none" stroke="midnightblue" d="M501.599,-117.975C499.768,-109.58 499.297,-96.4806 500.185,-85.6631"/>
<polygon fill="midnightblue" stroke="midnightblue" points="503.686,-85.897 501.603,-75.5091 496.754,-84.929 503.686,-85.897"/>
</g>
<!-- Node17 -->
<g id="node17" class="node"><title>Node17</title>
<g id="a_node17"><a xlink:href="ar_image_proc_8h.html" target="_top" xlink:title="ARToolKit functions for 2D luminance image processing. ">
<polygon fill="white" stroke="black" points="212.5,-56.5 212.5,-75.5 332.5,-75.5 332.5,-56.5 212.5,-56.5"/>
<text text-anchor="middle" x="272.5" y="-63.5" font-family="Helvetica,sans-Serif" font-size="10.00">AR6/AR/arImageProc.h</text>
</a>
</g>
</g>
<!-- Node4&#45;&gt;Node17 -->
<g id="edge23" class="edge"><title>Node4&#45;&gt;Node17</title>
<path fill="none" stroke="midnightblue" d="M469.895,-118.414C426.596,-108.008 355.098,-89.8791 311,-78.1644"/>
<polygon fill="midnightblue" stroke="midnightblue" points="311.785,-74.7513 301.22,-75.5502 309.977,-81.5139 311.785,-74.7513"/>
</g>
<!-- Node9&#45;&gt;Node2 -->
<g id="edge12" class="edge"><title>Node9&#45;&gt;Node2</title>
<path fill="none" stroke="midnightblue" d="M677.476,-56.4435C701.657,-47.4381 739.918,-33.1891 767.146,-23.049"/>
<polygon fill="midnightblue" stroke="midnightblue" points="768.482,-26.2864 776.632,-19.5164 766.039,-19.7265 768.482,-26.2864"/>
</g>
<!-- Node9&#45;&gt;Node3 -->
<g id="edge11" class="edge"><title>Node9&#45;&gt;Node3</title>
<path fill="none" stroke="midnightblue" d="M690.152,-56.4435C733.104,-46.1351 804.683,-28.9561 846.442,-18.934"/>
<polygon fill="midnightblue" stroke="midnightblue" points="847.473,-22.2859 856.38,-16.5488 845.839,-15.4792 847.473,-22.2859"/>
</g>
<!-- Node9&#45;&gt;Node6 -->
<g id="edge13" class="edge"><title>Node9&#45;&gt;Node6</title>
<path fill="none" stroke="midnightblue" d="M642.45,-56.324C631.037,-48.1066 613.669,-35.6017 600.065,-25.8069"/>
<polygon fill="midnightblue" stroke="midnightblue" points="601.93,-22.8366 591.769,-19.8339 597.84,-28.5174 601.93,-22.8366"/>
</g>
<!-- Node10 -->
<g id="node10" class="node"><title>Node10</title>
<polygon fill="white" stroke="#bfbfbf" points="705.5,-0.5 705.5,-19.5 757.5,-19.5 757.5,-0.5 705.5,-0.5"/>
<text text-anchor="middle" x="731.5" y="-7.5" font-family="Helvetica,sans-Serif" font-size="10.00">stdarg.h</text>
</g>
<!-- Node9&#45;&gt;Node10 -->
<g id="edge14" class="edge"><title>Node9&#45;&gt;Node10</title>
<path fill="none" stroke="midnightblue" d="M666.871,-56.324C678.658,-48.0577 696.632,-35.4527 710.636,-25.6322"/>
<polygon fill="midnightblue" stroke="midnightblue" points="712.982,-28.2619 719.159,-19.6545 708.962,-22.5307 712.982,-28.2619"/>
</g>
<!-- Node11 -->
<g id="node11" class="node"><title>Node11</title>
<polygon fill="white" stroke="#bfbfbf" points="622,-0.5 622,-19.5 687,-19.5 687,-0.5 622,-0.5"/>
<text text-anchor="middle" x="654.5" y="-7.5" font-family="Helvetica,sans-Serif" font-size="10.00">sys/errno.h</text>
</g>
<!-- Node9&#45;&gt;Node11 -->
<g id="edge15" class="edge"><title>Node9&#45;&gt;Node11</title>
<path fill="none" stroke="midnightblue" d="M654.5,-56.083C654.5,-49.0059 654.5,-38.8611 654.5,-29.9865"/>
<polygon fill="midnightblue" stroke="midnightblue" points="658,-29.751 654.5,-19.7511 651,-29.7511 658,-29.751"/>
</g>
<!-- Node13 -->
<g id="node13" class="node"><title>Node13</title>
<polygon fill="white" stroke="#bfbfbf" points="373,-0.5 373,-19.5 420,-19.5 420,-0.5 373,-0.5"/>
<text text-anchor="middle" x="396.5" y="-7.5" font-family="Helvetica,sans-Serif" font-size="10.00">math.h</text>
</g>
<!-- Node12&#45;&gt;Node13 -->
<g id="edge17" class="edge"><title>Node12&#45;&gt;Node13</title>
<path fill="none" stroke="midnightblue" d="M396.5,-56.083C396.5,-49.0059 396.5,-38.8611 396.5,-29.9865"/>
<polygon fill="midnightblue" stroke="midnightblue" points="400,-29.751 396.5,-19.7511 393,-29.7511 400,-29.751"/>
</g>
<!-- Node14&#45;&gt;Node3 -->
<g id="edge19" class="edge"><title>Node14&#45;&gt;Node3</title>
<path fill="none" stroke="midnightblue" d="M961.755,-56.324C946.181,-47.7428 922.123,-34.486 904.041,-24.5224"/>
<polygon fill="midnightblue" stroke="midnightblue" points="905.654,-21.4152 895.206,-19.6545 902.276,-27.546 905.654,-21.4152"/>
</g>
<!-- Node15 -->
<g id="node15" class="node"><title>Node15</title>
<g id="a_node15"><a xlink:href="icp_core_8h.html" target="_top" xlink:title="AR6/AR/icpCore.h">
<polygon fill="white" stroke="black" points="928.5,-0.5 928.5,-19.5 1026.5,-19.5 1026.5,-0.5 928.5,-0.5"/>
<text text-anchor="middle" x="977.5" y="-7.5" font-family="Helvetica,sans-Serif" font-size="10.00">AR6/AR/icpCore.h</text>
</a>
</g>
</g>
<!-- Node14&#45;&gt;Node15 -->
<g id="edge20" class="edge"><title>Node14&#45;&gt;Node15</title>
<path fill="none" stroke="midnightblue" d="M977.5,-56.083C977.5,-49.0059 977.5,-38.8611 977.5,-29.9865"/>
<polygon fill="midnightblue" stroke="midnightblue" points="981,-29.751 977.5,-19.7511 974,-29.7511 981,-29.751"/>
</g>
<!-- Node16&#45;&gt;Node4 -->
<g id="edge22" class="edge"><title>Node16&#45;&gt;Node4</title>
<path fill="none" stroke="midnightblue" d="M511.397,-75.5091C513.23,-83.898 513.703,-96.9962 512.817,-107.817"/>
<polygon fill="midnightblue" stroke="midnightblue" points="509.315,-107.588 511.401,-117.975 516.248,-108.554 509.315,-107.588"/>
</g>
<!-- Node17&#45;&gt;Node4 -->
<g id="edge25" class="edge"><title>Node17&#45;&gt;Node4</title>
<path fill="none" stroke="midnightblue" d="M310.861,-75.5091C354.3,-85.9732 424.44,-103.764 467.95,-115.322"/>
<polygon fill="midnightblue" stroke="midnightblue" points="467.309,-118.774 477.874,-117.975 469.117,-112.011 467.309,-118.774"/>
</g>
<!-- Node17&#45;&gt;Node7 -->
<g id="edge24" class="edge"><title>Node17&#45;&gt;Node7</title>
<path fill="none" stroke="midnightblue" d="M236.531,-56.4435C197.181,-47.0826 134.013,-32.0561 91.1859,-21.868"/>
<polygon fill="midnightblue" stroke="midnightblue" points="91.8391,-18.4258 81.3005,-19.5164 90.219,-25.2358 91.8391,-18.4258"/>
</g>
<!-- Node18&#45;&gt;Node7 -->
<g id="edge28" class="edge"><title>Node18&#45;&gt;Node7</title>
<path fill="none" stroke="midnightblue" d="M171.739,-117.13C124.763,-108.738 66.048,-94.844 50.5,-76 40.042,-63.325 39.8381,-44.12 41.621,-29.8686"/>
<polygon fill="midnightblue" stroke="midnightblue" points="45.1206,-30.1613 43.3189,-19.7208 38.2166,-29.006 45.1206,-30.1613"/>
</g>
</g>
</svg>
        <g id="navigator" transform="translate(0 0)" fill="#404254">
                <rect fill="#f2f5e9" fill-opacity="0.5" stroke="#606060" stroke-width=".5" x="0" y="0" width="60" height="60"/>
                <use id="zoomplus" xlink:href="#zoomPlus" x="17" y="9" onmousedown="handleZoom(evt,'in')"/>
                <use id="zoomminus" xlink:href="#zoomMin" x="42" y="9" onmousedown="handleZoom(evt,'out')"/>
                <use id="reset" xlink:href="#resetDef" x="30" y="36" onmousedown="handleReset()"/>
                <g id="arrowUp" xlink:href="#dirArrow" transform="translate(30 24)" onmousedown="handlePan(0,-1)">
                  <use xlink:href="#rim" fill="#404040">
                        <set attributeName="fill" to="#808080" begin="arrowUp.mouseover" end="arrowUp.mouseout"/>
                  </use>
                  <path fill="none" stroke="white" stroke-width="1.5" d="M0,-3.0v7 M-2.5,-0.5L0,-3.0L2.5,-0.5"/>
                </g>
                <g id="arrowRight" xlink:href="#dirArrow" transform="rotate(90) translate(36 -43)" onmousedown="handlePan(1,0)">
                  <use xlink:href="#rim" fill="#404040">
                        <set attributeName="fill" to="#808080" begin="arrowRight.mouseover" end="arrowRight.mouseout"/>
                  </use>
                  <path fill="none" stroke="white" stroke-width="1.5" d="M0,-3.0v7 M-2.5,-0.5L0,-3.0L2.5,-0.5"/>
                </g>
                <g id="arrowDown" xlink:href="#dirArrow" transform="rotate(180) translate(-30 -48)" onmousedown="handlePan(0,1)">
                  <use xlink:href="#rim" fill="#404040">
                        <set attributeName="fill" to="#808080" begin="arrowDown.mouseover" end="arrowDown.mouseout"/>
                  </use>
                  <path fill="none" stroke="white" stroke-width="1.5" d="M0,-3.0v7 M-2.5,-0.5L0,-3.0L2.5,-0.5"/>
                </g>
                <g id="arrowLeft" xlink:href="#dirArrow" transform="rotate(270) translate(-36 17)" onmousedown="handlePan(-1,0)">
                  <use xlink:href="#rim" fill="#404040">
                        <set attributeName="fill" to="#808080" begin="arrowLeft.mouseover" end="arrowLeft.mouseout"/>
                  </use>
                  <path fill="none" stroke="white" stroke-width="1.5" d="M0,-3.0v7 M-2.5,-0.5L0,-3.0L2.5,-0.5"/>
                </g>
        </g>
        <svg viewBox="0 0 15 15" width="100%" height="30px" preserveAspectRatio="xMaxYMin meet">
         <g id="arrow_out" transform="scale(0.3 0.3)">
          <a xlink:href="ar_labeling_8c__incl_org.svg" target="_base">
           <rect id="button" ry="5" rx="5" y="6" x="6" height="38" width="38"
                fill="#f2f5e9" fill-opacity="0.5" stroke="#606060" stroke-width="1.0"/>
           <path id="arrow"
             d="M 11.500037,31.436501 C 11.940474,20.09759 22.043105,11.32322 32.158766,21.979434 L 37.068811,17.246167 C 37.068811,17.246167 37.088388,32 37.088388,32 L 22.160133,31.978069 C 22.160133,31.978069 26.997745,27.140456 26.997745,27.140456 C 18.528582,18.264221 13.291696,25.230495 11.500037,31.436501 z"
             style="fill:#404040;"/>
          </a>
         </g>
        </svg>
</svg>
