<?xml version="1.0" encoding="UTF-8" standalone="no"?>
<!DOCTYPE svg PUBLIC "-//W3C//DTD SVG 1.1//EN"
 "http://www.w3.org/Graphics/SVG/1.1/DTD/svg11.dtd">
<!-- Generated by graphviz version 2.38.0 (20140413.2041)
 -->
<!-- Title: /bitrise/src/Source/AR6/AR/arLabelingSub/arLabelingSub.h Pages: 1 -->
<!--zoomable 128 -->
<svg id="main" version="1.1" xmlns="http://www.w3.org/2000/svg" xmlns:xlink="http://www.w3.org/1999/xlink" xml:space="preserve" onload="init(evt)">
<style type="text/css"><![CDATA[
.edge:hover path { stroke: red; }
.edge:hover polygon { stroke: red; fill: red; }
]]></style>
<script type="text/javascript"><![CDATA[
var edges = document.getElementsByTagName('g');
if (edges && edges.length) {
  for (var i=0;i<edges.length;i++) {
    if (edges[i].id.substr(0,4)=='edge') {
      edges[i].setAttribute('class','edge');
    }
  }
}
]]></script>
        <defs>
                <circle id="rim" cx="0" cy="0" r="7"/>
                <circle id="rim2" cx="0" cy="0" r="3.5"/>
                <g id="zoomPlus">
                        <use xlink:href="#rim" fill="#404040">
                                <set attributeName="fill" to="#808080" begin="zoomplus.mouseover" end="zoomplus.mouseout"/>
                        </use>
                        <path d="M-4,0h8M0,-4v8" fill="none" stroke="white" stroke-width="1.5" pointer-events="none"/>
                </g>
                <g id="zoomMin">
                        <use xlink:href="#rim" fill="#404040">
                                <set attributeName="fill" to="#808080" begin="zoomminus.mouseover" end="zoomminus.mouseout"/>
                        </use>
                        <path d="M-4,0h8" fill="none" stroke="white" stroke-width="1.5" pointer-events="none"/>
                </g>
                <g id="dirArrow">
                        <path fill="none" stroke="white" stroke-width="1.5" d="M0,-3.0v7 M-2.5,-0.5L0,-3.0L2.5,-0.5"/>
                </g>
               <g id="resetDef">
                       <use xlink:href="#rim2" fill="#404040">
                               <set attributeName="fill" to="#808080" begin="reset.mouseover" end="reset.mouseout"/>
                       </use>
               </g>
        </defs>

<script type="text/javascript">
var viewWidth = 1660;
var viewHeight = 128;
var sectionId = 'dynsection-1';
</script>
<script xlink:href="svgpan.js"/>
<svg id="graph" class="graph">
<g id="viewport">
<title>/bitrise/src/Source/AR6/AR/arLabelingSub/arLabelingSub.h</title>
<polygon fill="white" stroke="none" points="-4,4 -4,-124 1656,-124 1656,4 -4,4"/>
<!-- Node1 -->
<g id="node1" class="node"><title>Node1</title>
<polygon fill="#bfbfbf" stroke="black" points="766,-78.5 766,-119.5 887,-119.5 887,-78.5 766,-78.5"/>
<text text-anchor="start" x="774" y="-107.5" font-family="Helvetica,sans-Serif" font-size="10.00">/bitrise/src/Source</text>
<text text-anchor="start" x="774" y="-96.5" font-family="Helvetica,sans-Serif" font-size="10.00">/AR6/AR/arLabelingSub</text>
<text text-anchor="middle" x="826.5" y="-85.5" font-family="Helvetica,sans-Serif" font-size="10.00">/arLabelingSub.h</text>
</g>
<!-- Node2 -->
<g id="node2" class="node"><title>Node2</title>
<g id="a_node2"><a xlink:href="ar_labeling_sub_d_b_i_c_8c.html" target="_top" xlink:title="/bitrise/src/Source\l/AR6/AR/arLabelingSub\l/arLabelingSubDBIC.c">
<polygon fill="white" stroke="black" points="0,-0.5 0,-41.5 121,-41.5 121,-0.5 0,-0.5"/>
<text text-anchor="start" x="8" y="-29.5" font-family="Helvetica,sans-Serif" font-size="10.00">/bitrise/src/Source</text>
<text text-anchor="start" x="8" y="-18.5" font-family="Helvetica,sans-Serif" font-size="10.00">/AR6/AR/arLabelingSub</text>
<text text-anchor="middle" x="60.5" y="-7.5" font-family="Helvetica,sans-Serif" font-size="10.00">/arLabelingSubDBIC.c</text>
</a>
</g>
</g>
<!-- Node1&#45;&gt;Node2 -->
<g id="edge1" class="edge"><title>Node1&#45;&gt;Node2</title>
<path fill="none" stroke="midnightblue" d="M755.495,-97.0134C628.763,-94.2085 355.693,-83.4286 129.5,-42 126.801,-41.5057 124.056,-40.9486 121.294,-40.3432"/>
<polygon fill="midnightblue" stroke="midnightblue" points="755.76,-100.52 765.831,-97.2316 755.908,-93.5213 755.76,-100.52"/>
</g>
<!-- Node3 -->
<g id="node3" class="node"><title>Node3</title>
<g id="a_node3"><a xlink:href="ar_labeling_sub_d_b_r_c_8c.html" target="_top" xlink:title="/bitrise/src/Source\l/AR6/AR/arLabelingSub\l/arLabelingSubDBRC.c">
<polygon fill="white" stroke="black" points="139,-0.5 139,-41.5 260,-41.5 260,-0.5 139,-0.5"/>
<text text-anchor="start" x="147" y="-29.5" font-family="Helvetica,sans-Serif" font-size="10.00">/bitrise/src/Source</text>
<text text-anchor="start" x="147" y="-18.5" font-family="Helvetica,sans-Serif" font-size="10.00">/AR6/AR/arLabelingSub</text>
<text text-anchor="middle" x="199.5" y="-7.5" font-family="Helvetica,sans-Serif" font-size="10.00">/arLabelingSubDBRC.c</text>
</a>
</g>
</g>
<!-- Node1&#45;&gt;Node3 -->
<g id="edge2" class="edge"><title>Node1&#45;&gt;Node3</title>
<path fill="none" stroke="midnightblue" d="M755.709,-95.0283C649.176,-89.6282 441.667,-75.4962 268.5,-42 265.806,-41.4789 263.066,-40.8997 260.306,-40.2761"/>
<polygon fill="midnightblue" stroke="midnightblue" points="755.537,-98.524 765.698,-95.524 755.884,-91.5326 755.537,-98.524"/>
</g>
<!-- Node4 -->
<g id="node4" class="node"><title>Node4</title>
<g id="a_node4"><a xlink:href="ar_labeling_sub_d_b_z_8c.html" target="_top" xlink:title="/bitrise/src/Source\l/AR6/AR/arLabelingSub\l/arLabelingSubDBZ.c">
<polygon fill="white" stroke="black" points="278,-0.5 278,-41.5 399,-41.5 399,-0.5 278,-0.5"/>
<text text-anchor="start" x="286" y="-29.5" font-family="Helvetica,sans-Serif" font-size="10.00">/bitrise/src/Source</text>
<text text-anchor="start" x="286" y="-18.5" font-family="Helvetica,sans-Serif" font-size="10.00">/AR6/AR/arLabelingSub</text>
<text text-anchor="middle" x="338.5" y="-7.5" font-family="Helvetica,sans-Serif" font-size="10.00">/arLabelingSubDBZ.c</text>
</a>
</g>
</g>
<!-- Node1&#45;&gt;Node4 -->
<g id="edge3" class="edge"><title>Node1&#45;&gt;Node4</title>
<path fill="none" stroke="midnightblue" d="M755.483,-91.7702C671.7,-83.6706 528.49,-67.4713 407.5,-42 404.815,-41.4347 402.082,-40.8189 399.329,-40.1654"/>
<polygon fill="midnightblue" stroke="midnightblue" points="755.363,-95.2746 765.651,-92.7415 756.029,-88.3063 755.363,-95.2746"/>
</g>
<!-- Node5 -->
<g id="node5" class="node"><title>Node5</title>
<g id="a_node5"><a xlink:href="ar_labeling_sub_d_w_i_c_8c.html" target="_top" xlink:title="/bitrise/src/Source\l/AR6/AR/arLabelingSub\l/arLabelingSubDWIC.c">
<polygon fill="white" stroke="black" points="417,-0.5 417,-41.5 538,-41.5 538,-0.5 417,-0.5"/>
<text text-anchor="start" x="425" y="-29.5" font-family="Helvetica,sans-Serif" font-size="10.00">/bitrise/src/Source</text>
<text text-anchor="start" x="425" y="-18.5" font-family="Helvetica,sans-Serif" font-size="10.00">/AR6/AR/arLabelingSub</text>
<text text-anchor="middle" x="477.5" y="-7.5" font-family="Helvetica,sans-Serif" font-size="10.00">/arLabelingSubDWIC.c</text>
</a>
</g>
</g>
<!-- Node1&#45;&gt;Node5 -->
<g id="edge4" class="edge"><title>Node1&#45;&gt;Node5</title>
<path fill="none" stroke="midnightblue" d="M755.859,-85.4422C699.25,-74.9898 617.925,-59.0993 547.5,-42 544.429,-41.2545 541.291,-40.4638 538.127,-39.6439"/>
<polygon fill="midnightblue" stroke="midnightblue" points="755.313,-88.9003 765.781,-87.2652 756.578,-82.0156 755.313,-88.9003"/>
</g>
<!-- Node6 -->
<g id="node6" class="node"><title>Node6</title>
<g id="a_node6"><a xlink:href="ar_labeling_sub_d_w_r_c_8c.html" target="_top" xlink:title="/bitrise/src/Source\l/AR6/AR/arLabelingSub\l/arLabelingSubDWRC.c">
<polygon fill="white" stroke="black" points="556.5,-0.5 556.5,-41.5 678.5,-41.5 678.5,-0.5 556.5,-0.5"/>
<text text-anchor="start" x="564.5" y="-29.5" font-family="Helvetica,sans-Serif" font-size="10.00">/bitrise/src/Source</text>
<text text-anchor="start" x="564.5" y="-18.5" font-family="Helvetica,sans-Serif" font-size="10.00">/AR6/AR/arLabelingSub</text>
<text text-anchor="middle" x="617.5" y="-7.5" font-family="Helvetica,sans-Serif" font-size="10.00">/arLabelingSubDWRC.c</text>
</a>
</g>
</g>
<!-- Node1&#45;&gt;Node6 -->
<g id="edge5" class="edge"><title>Node1&#45;&gt;Node6</title>
<path fill="none" stroke="midnightblue" d="M762.94,-74.8874C733.601,-64.2185 699.148,-51.6901 671.14,-41.5056"/>
<polygon fill="midnightblue" stroke="midnightblue" points="762.083,-78.2999 772.677,-78.4281 764.475,-71.7213 762.083,-78.2999"/>
</g>
<!-- Node7 -->
<g id="node7" class="node"><title>Node7</title>
<g id="a_node7"><a xlink:href="ar_labeling_sub_d_w_z_8c.html" target="_top" xlink:title="/bitrise/src/Source\l/AR6/AR/arLabelingSub\l/arLabelingSubDWZ.c">
<polygon fill="white" stroke="black" points="697,-0.5 697,-41.5 818,-41.5 818,-0.5 697,-0.5"/>
<text text-anchor="start" x="705" y="-29.5" font-family="Helvetica,sans-Serif" font-size="10.00">/bitrise/src/Source</text>
<text text-anchor="start" x="705" y="-18.5" font-family="Helvetica,sans-Serif" font-size="10.00">/AR6/AR/arLabelingSub</text>
<text text-anchor="middle" x="757.5" y="-7.5" font-family="Helvetica,sans-Serif" font-size="10.00">/arLabelingSubDWZ.c</text>
</a>
</g>
</g>
<!-- Node1&#45;&gt;Node7 -->
<g id="edge6" class="edge"><title>Node1&#45;&gt;Node7</title>
<path fill="none" stroke="midnightblue" d="M801.91,-70.9158C793.092,-61.2029 783.33,-50.4502 775.209,-41.5056"/>
<polygon fill="midnightblue" stroke="midnightblue" points="799.418,-73.3769 808.731,-78.4281 804.6,-68.6716 799.418,-73.3769"/>
</g>
<!-- Node8 -->
<g id="node8" class="node"><title>Node8</title>
<g id="a_node8"><a xlink:href="ar_labeling_sub_e_b_i_c_8c.html" target="_top" xlink:title="/bitrise/src/Source\l/AR6/AR/arLabelingSub\l/arLabelingSubEBIC.c">
<polygon fill="white" stroke="black" points="836,-0.5 836,-41.5 957,-41.5 957,-0.5 836,-0.5"/>
<text text-anchor="start" x="844" y="-29.5" font-family="Helvetica,sans-Serif" font-size="10.00">/bitrise/src/Source</text>
<text text-anchor="start" x="844" y="-18.5" font-family="Helvetica,sans-Serif" font-size="10.00">/AR6/AR/arLabelingSub</text>
<text text-anchor="middle" x="896.5" y="-7.5" font-family="Helvetica,sans-Serif" font-size="10.00">/arLabelingSubEBIC.c</text>
</a>
</g>
</g>
<!-- Node1&#45;&gt;Node8 -->
<g id="edge7" class="edge"><title>Node1&#45;&gt;Node8</title>
<path fill="none" stroke="midnightblue" d="M851.446,-70.9158C860.392,-61.2029 870.296,-50.4502 878.534,-41.5056"/>
<polygon fill="midnightblue" stroke="midnightblue" points="848.727,-68.7015 844.527,-78.4281 853.876,-73.4438 848.727,-68.7015"/>
</g>
<!-- Node9 -->
<g id="node9" class="node"><title>Node9</title>
<g id="a_node9"><a xlink:href="ar_labeling_sub_e_b_r_c_8c.html" target="_top" xlink:title="/bitrise/src/Source\l/AR6/AR/arLabelingSub\l/arLabelingSubEBRC.c">
<polygon fill="white" stroke="black" points="975,-0.5 975,-41.5 1096,-41.5 1096,-0.5 975,-0.5"/>
<text text-anchor="start" x="983" y="-29.5" font-family="Helvetica,sans-Serif" font-size="10.00">/bitrise/src/Source</text>
<text text-anchor="start" x="983" y="-18.5" font-family="Helvetica,sans-Serif" font-size="10.00">/AR6/AR/arLabelingSub</text>
<text text-anchor="middle" x="1035.5" y="-7.5" font-family="Helvetica,sans-Serif" font-size="10.00">/arLabelingSubEBRC.c</text>
</a>
</g>
</g>
<!-- Node1&#45;&gt;Node9 -->
<g id="edge8" class="edge"><title>Node1&#45;&gt;Node9</title>
<path fill="none" stroke="midnightblue" d="M890.06,-74.8874C919.399,-64.2185 953.852,-51.6901 981.86,-41.5056"/>
<polygon fill="midnightblue" stroke="midnightblue" points="888.525,-71.7213 880.323,-78.4281 890.917,-78.2999 888.525,-71.7213"/>
</g>
<!-- Node10 -->
<g id="node10" class="node"><title>Node10</title>
<g id="a_node10"><a xlink:href="ar_labeling_sub_e_b_z_8c.html" target="_top" xlink:title="/bitrise/src/Source\l/AR6/AR/arLabelingSub\l/arLabelingSubEBZ.c">
<polygon fill="white" stroke="black" points="1114,-0.5 1114,-41.5 1235,-41.5 1235,-0.5 1114,-0.5"/>
<text text-anchor="start" x="1122" y="-29.5" font-family="Helvetica,sans-Serif" font-size="10.00">/bitrise/src/Source</text>
<text text-anchor="start" x="1122" y="-18.5" font-family="Helvetica,sans-Serif" font-size="10.00">/AR6/AR/arLabelingSub</text>
<text text-anchor="middle" x="1174.5" y="-7.5" font-family="Helvetica,sans-Serif" font-size="10.00">/arLabelingSubEBZ.c</text>
</a>
</g>
</g>
<!-- Node1&#45;&gt;Node10 -->
<g id="edge9" class="edge"><title>Node1&#45;&gt;Node10</title>
<path fill="none" stroke="midnightblue" d="M897.159,-85.5158C953.778,-75.1047 1035.11,-59.234 1105.5,-42 1108.29,-41.3178 1111.13,-40.5968 1114,-39.8494"/>
<polygon fill="midnightblue" stroke="midnightblue" points="896.442,-82.0888 887.235,-87.3312 897.702,-88.9745 896.442,-82.0888"/>
</g>
<!-- Node11 -->
<g id="node11" class="node"><title>Node11</title>
<g id="a_node11"><a xlink:href="ar_labeling_sub_e_w_i_c_8c.html" target="_top" xlink:title="/bitrise/src/Source\l/AR6/AR/arLabelingSub\l/arLabelingSubEWIC.c">
<polygon fill="white" stroke="black" points="1253,-0.5 1253,-41.5 1374,-41.5 1374,-0.5 1253,-0.5"/>
<text text-anchor="start" x="1261" y="-29.5" font-family="Helvetica,sans-Serif" font-size="10.00">/bitrise/src/Source</text>
<text text-anchor="start" x="1261" y="-18.5" font-family="Helvetica,sans-Serif" font-size="10.00">/AR6/AR/arLabelingSub</text>
<text text-anchor="middle" x="1313.5" y="-7.5" font-family="Helvetica,sans-Serif" font-size="10.00">/arLabelingSubEWIC.c</text>
</a>
</g>
</g>
<!-- Node1&#45;&gt;Node11 -->
<g id="edge10" class="edge"><title>Node1&#45;&gt;Node11</title>
<path fill="none" stroke="midnightblue" d="M897.347,-91.7559C980.93,-83.6427 1123.8,-67.4306 1244.5,-42 1247.18,-41.4343 1249.92,-40.8181 1252.67,-40.1644"/>
<polygon fill="midnightblue" stroke="midnightblue" points="896.824,-88.2899 887.204,-92.7289 897.492,-95.258 896.824,-88.2899"/>
</g>
<!-- Node12 -->
<g id="node12" class="node"><title>Node12</title>
<g id="a_node12"><a xlink:href="ar_labeling_sub_e_w_r_c_8c.html" target="_top" xlink:title="/bitrise/src/Source\l/AR6/AR/arLabelingSub\l/arLabelingSubEWRC.c">
<polygon fill="white" stroke="black" points="1392,-0.5 1392,-41.5 1513,-41.5 1513,-0.5 1392,-0.5"/>
<text text-anchor="start" x="1400" y="-29.5" font-family="Helvetica,sans-Serif" font-size="10.00">/bitrise/src/Source</text>
<text text-anchor="start" x="1400" y="-18.5" font-family="Helvetica,sans-Serif" font-size="10.00">/AR6/AR/arLabelingSub</text>
<text text-anchor="middle" x="1452.5" y="-7.5" font-family="Helvetica,sans-Serif" font-size="10.00">/arLabelingSubEWRC.c</text>
</a>
</g>
</g>
<!-- Node1&#45;&gt;Node12 -->
<g id="edge11" class="edge"><title>Node1&#45;&gt;Node12</title>
<path fill="none" stroke="midnightblue" d="M897.486,-95.0006C1003.92,-89.5739 1210.82,-75.4185 1383.5,-42 1386.19,-41.4787 1388.93,-40.8992 1391.69,-40.2755"/>
<polygon fill="midnightblue" stroke="midnightblue" points="897.006,-91.5202 887.193,-95.5141 897.355,-98.5115 897.006,-91.5202"/>
</g>
<!-- Node13 -->
<g id="node13" class="node"><title>Node13</title>
<g id="a_node13"><a xlink:href="ar_labeling_sub_e_w_z_8c.html" target="_top" xlink:title="/bitrise/src/Source\l/AR6/AR/arLabelingSub\l/arLabelingSubEWZ.c">
<polygon fill="white" stroke="black" points="1531,-0.5 1531,-41.5 1652,-41.5 1652,-0.5 1531,-0.5"/>
<text text-anchor="start" x="1539" y="-29.5" font-family="Helvetica,sans-Serif" font-size="10.00">/bitrise/src/Source</text>
<text text-anchor="start" x="1539" y="-18.5" font-family="Helvetica,sans-Serif" font-size="10.00">/AR6/AR/arLabelingSub</text>
<text text-anchor="middle" x="1591.5" y="-7.5" font-family="Helvetica,sans-Serif" font-size="10.00">/arLabelingSubEWZ.c</text>
</a>
</g>
</g>
<!-- Node1&#45;&gt;Node13 -->
<g id="edge12" class="edge"><title>Node1&#45;&gt;Node13</title>
<path fill="none" stroke="midnightblue" d="M897.404,-97.0041C1023.95,-94.1845 1296.63,-83.3825 1522.5,-42 1525.2,-41.5055 1527.94,-40.9483 1530.71,-40.3428"/>
<polygon fill="midnightblue" stroke="midnightblue" points="897.005,-93.5117 887.082,-97.2234 897.154,-100.51 897.005,-93.5117"/>
</g>
</g>
</svg>
        <g id="navigator" transform="translate(0 0)" fill="#404254">
                <rect fill="#f2f5e9" fill-opacity="0.5" stroke="#606060" stroke-width=".5" x="0" y="0" width="60" height="60"/>
                <use id="zoomplus" xlink:href="#zoomPlus" x="17" y="9" onmousedown="handleZoom(evt,'in')"/>
                <use id="zoomminus" xlink:href="#zoomMin" x="42" y="9" onmousedown="handleZoom(evt,'out')"/>
                <use id="reset" xlink:href="#resetDef" x="30" y="36" onmousedown="handleReset()"/>
                <g id="arrowUp" xlink:href="#dirArrow" transform="translate(30 24)" onmousedown="handlePan(0,-1)">
                  <use xlink:href="#rim" fill="#404040">
                        <set attributeName="fill" to="#808080" begin="arrowUp.mouseover" end="arrowUp.mouseout"/>
                  </use>
                  <path fill="none" stroke="white" stroke-width="1.5" d="M0,-3.0v7 M-2.5,-0.5L0,-3.0L2.5,-0.5"/>
                </g>
                <g id="arrowRight" xlink:href="#dirArrow" transform="rotate(90) translate(36 -43)" onmousedown="handlePan(1,0)">
                  <use xlink:href="#rim" fill="#404040">
                        <set attributeName="fill" to="#808080" begin="arrowRight.mouseover" end="arrowRight.mouseout"/>
                  </use>
                  <path fill="none" stroke="white" stroke-width="1.5" d="M0,-3.0v7 M-2.5,-0.5L0,-3.0L2.5,-0.5"/>
                </g>
                <g id="arrowDown" xlink:href="#dirArrow" transform="rotate(180) translate(-30 -48)" onmousedown="handlePan(0,1)">
                  <use xlink:href="#rim" fill="#404040">
                        <set attributeName="fill" to="#808080" begin="arrowDown.mouseover" end="arrowDown.mouseout"/>
                  </use>
                  <path fill="none" stroke="white" stroke-width="1.5" d="M0,-3.0v7 M-2.5,-0.5L0,-3.0L2.5,-0.5"/>
                </g>
                <g id="arrowLeft" xlink:href="#dirArrow" transform="rotate(270) translate(-36 17)" onmousedown="handlePan(-1,0)">
                  <use xlink:href="#rim" fill="#404040">
                        <set attributeName="fill" to="#808080" begin="arrowLeft.mouseover" end="arrowLeft.mouseout"/>
                  </use>
                  <path fill="none" stroke="white" stroke-width="1.5" d="M0,-3.0v7 M-2.5,-0.5L0,-3.0L2.5,-0.5"/>
                </g>
        </g>
        <svg viewBox="0 0 15 15" width="100%" height="30px" preserveAspectRatio="xMaxYMin meet">
         <g id="arrow_out" transform="scale(0.3 0.3)">
          <a xlink:href="ar_labeling_sub_8h__dep__incl_org.svg" target="_base">
           <rect id="button" ry="5" rx="5" y="6" x="6" height="38" width="38"
                fill="#f2f5e9" fill-opacity="0.5" stroke="#606060" stroke-width="1.0"/>
           <path id="arrow"
             d="M 11.500037,31.436501 C 11.940474,20.09759 22.043105,11.32322 32.158766,21.979434 L 37.068811,17.246167 C 37.068811,17.246167 37.088388,32 37.088388,32 L 22.160133,31.978069 C 22.160133,31.978069 26.997745,27.140456 26.997745,27.140456 C 18.528582,18.264221 13.291696,25.230495 11.500037,31.436501 z"
             style="fill:#404040;"/>
          </a>
         </g>
        </svg>
</svg>
