<?xml version="1.0" encoding="UTF-8" standalone="no"?>
<!DOCTYPE svg PUBLIC "-//W3C//DTD SVG 1.1//EN"
 "http://www.w3.org/Graphics/SVG/1.1/DTD/svg11.dtd">
<!-- Generated by graphviz version 2.38.0 (20140413.2041)
 -->
<!-- Title: arGetTransMatMultiSquareRobust Pages: 1 -->
<!--zoomable 477 -->
<svg id="main" version="1.1" xmlns="http://www.w3.org/2000/svg" xmlns:xlink="http://www.w3.org/1999/xlink" xml:space="preserve" onload="init(evt)">
<style type="text/css"><![CDATA[
.edge:hover path { stroke: red; }
.edge:hover polygon { stroke: red; fill: red; }
]]></style>
<script type="text/javascript"><![CDATA[
var edges = document.getElementsByTagName('g');
if (edges && edges.length) {
  for (var i=0;i<edges.length;i++) {
    if (edges[i].id.substr(0,4)=='edge') {
      edges[i].setAttribute('class','edge');
    }
  }
}
]]></script>
        <defs>
                <circle id="rim" cx="0" cy="0" r="7"/>
                <circle id="rim2" cx="0" cy="0" r="3.5"/>
                <g id="zoomPlus">
                        <use xlink:href="#rim" fill="#404040">
                                <set attributeName="fill" to="#808080" begin="zoomplus.mouseover" end="zoomplus.mouseout"/>
                        </use>
                        <path d="M-4,0h8M0,-4v8" fill="none" stroke="white" stroke-width="1.5" pointer-events="none"/>
                </g>
                <g id="zoomMin">
                        <use xlink:href="#rim" fill="#404040">
                                <set attributeName="fill" to="#808080" begin="zoomminus.mouseover" end="zoomminus.mouseout"/>
                        </use>
                        <path d="M-4,0h8" fill="none" stroke="white" stroke-width="1.5" pointer-events="none"/>
                </g>
                <g id="dirArrow">
                        <path fill="none" stroke="white" stroke-width="1.5" d="M0,-3.0v7 M-2.5,-0.5L0,-3.0L2.5,-0.5"/>
                </g>
               <g id="resetDef">
                       <use xlink:href="#rim2" fill="#404040">
                               <set attributeName="fill" to="#808080" begin="reset.mouseover" end="reset.mouseout"/>
                       </use>
               </g>
        </defs>

<script type="text/javascript">
var viewWidth = 839;
var viewHeight = 477;
var sectionId = 'dynsection-1';
</script>
<script xlink:href="svgpan.js"/>
<svg id="graph" class="graph">
<g id="viewport">
<title>arGetTransMatMultiSquareRobust</title>
<polygon fill="white" stroke="none" points="-4,4 -4,-473 835,-473 835,4 -4,4"/>
<!-- Node1 -->
<g id="node1" class="node"><title>Node1</title>
<polygon fill="#bfbfbf" stroke="black" points="0,-109 0,-139 134,-139 134,-109 0,-109"/>
<text text-anchor="start" x="8" y="-127" font-family="Helvetica,sans-Serif" font-size="10.00">arGetTransMatMultiSquare</text>
<text text-anchor="middle" x="67" y="-116" font-family="Helvetica,sans-Serif" font-size="10.00">Robust</text>
</g>
<!-- Node2 -->
<g id="node2" class="node"><title>Node2</title>
<g id="a_node2"><a xlink:href="ar_get_trans_mat_8c.html#a4e7134891f6bb5fdae0594f8df049d19" target="_top" xlink:title="(description) ">
<polygon fill="white" stroke="black" points="170,-190.5 170,-209.5 283,-209.5 283,-190.5 170,-190.5"/>
<text text-anchor="middle" x="226.5" y="-197.5" font-family="Helvetica,sans-Serif" font-size="10.00">arGetTransMatSquare</text>
</a>
</g>
</g>
<!-- Node1&#45;&gt;Node2 -->
<g id="edge1" class="edge"><title>Node1&#45;&gt;Node2</title>
<path fill="none" stroke="midnightblue" d="M92.0956,-139.094C112.373,-151.394 142.398,-168.683 170,-181 174.704,-183.099 179.716,-185.11 184.73,-186.987"/>
<polygon fill="midnightblue" stroke="midnightblue" points="183.7,-190.336 194.295,-190.416 186.063,-183.746 183.7,-190.336"/>
</g>
<!-- Node13 -->
<g id="node13" class="node"><title>Node13</title>
<g id="a_node13"><a xlink:href="ar_util_8c.html#ae28eeba3e16224a7d77b46bd34b8f4fe" target="_top" xlink:title="arUtilMatMul">
<polygon fill="white" stroke="black" points="475,-38.5 475,-57.5 547,-57.5 547,-38.5 475,-38.5"/>
<text text-anchor="middle" x="511" y="-45.5" font-family="Helvetica,sans-Serif" font-size="10.00">arUtilMatMul</text>
</a>
</g>
</g>
<!-- Node1&#45;&gt;Node13 -->
<g id="edge29" class="edge"><title>Node1&#45;&gt;Node13</title>
<path fill="none" stroke="midnightblue" d="M134.085,-111.51C146.032,-109.303 158.382,-107.056 170,-105 275.453,-86.3405 399.59,-65.9194 464.778,-55.3146"/>
<polygon fill="midnightblue" stroke="midnightblue" points="465.414,-58.7574 474.723,-53.6987 464.291,-51.848 465.414,-58.7574"/>
</g>
<!-- Node19 -->
<g id="node19" class="node"><title>Node19</title>
<g id="a_node19"><a xlink:href="ar_get_trans_mat_8c.html#aa2cf850d015cfd553e78ca8fe82b71d2" target="_top" xlink:title="(description) ">
<polygon fill="white" stroke="black" points="185.5,-152.5 185.5,-171.5 267.5,-171.5 267.5,-152.5 185.5,-152.5"/>
<text text-anchor="middle" x="226.5" y="-159.5" font-family="Helvetica,sans-Serif" font-size="10.00">arGetTransMat</text>
</a>
</g>
</g>
<!-- Node1&#45;&gt;Node19 -->
<g id="edge30" class="edge"><title>Node1&#45;&gt;Node19</title>
<path fill="none" stroke="midnightblue" d="M130.248,-139.019C145.478,-142.693 161.57,-146.576 176.105,-150.083"/>
<polygon fill="midnightblue" stroke="midnightblue" points="175.348,-153.5 185.89,-152.443 176.989,-146.695 175.348,-153.5"/>
</g>
<!-- Node20 -->
<g id="node20" class="node"><title>Node20</title>
<g id="a_node20"><a xlink:href="icp_handle_8c.html#a9515de22165e8248a8742e1f5b9e4bef" target="_top" xlink:title="icpSetInlierProbability">
<polygon fill="white" stroke="black" points="171,-38.5 171,-57.5 282,-57.5 282,-38.5 171,-38.5"/>
<text text-anchor="middle" x="226.5" y="-45.5" font-family="Helvetica,sans-Serif" font-size="10.00">icpSetInlierProbability</text>
</a>
</g>
</g>
<!-- Node1&#45;&gt;Node20 -->
<g id="edge32" class="edge"><title>Node1&#45;&gt;Node20</title>
<path fill="none" stroke="midnightblue" d="M96.3395,-108.943C116.676,-98.2889 144.821,-83.8479 170,-72 177.413,-68.5117 185.465,-64.9196 193.077,-61.6113"/>
<polygon fill="midnightblue" stroke="midnightblue" points="194.598,-64.7673 202.402,-57.6017 191.832,-58.3365 194.598,-64.7673"/>
</g>
<!-- Node21 -->
<g id="node21" class="node"><title>Node21</title>
<g id="a_node21"><a xlink:href="ar_get_trans_mat_8c.html#a79bbea2635dfe6302cf64a55ad26dd5d" target="_top" xlink:title="(description) ">
<polygon fill="white" stroke="black" points="170,-114.5 170,-133.5 283,-133.5 283,-114.5 170,-114.5"/>
<text text-anchor="middle" x="226.5" y="-121.5" font-family="Helvetica,sans-Serif" font-size="10.00">arGetTransMatRobust</text>
</a>
</g>
</g>
<!-- Node1&#45;&gt;Node21 -->
<g id="edge33" class="edge"><title>Node1&#45;&gt;Node21</title>
<path fill="none" stroke="midnightblue" d="M134.338,-124C142.705,-124 151.265,-124 159.625,-124"/>
<polygon fill="midnightblue" stroke="midnightblue" points="159.698,-127.5 169.698,-124 159.698,-120.5 159.698,-127.5"/>
</g>
<!-- Node3 -->
<g id="node3" class="node"><title>Node3</title>
<g id="a_node3"><a xlink:href="icp_util_8c.html#a9a0da1f41013b11363f39d99a5c937e9" target="_top" xlink:title="icpGetInitXw2Xc_from\l_PlanarData">
<polygon fill="white" stroke="black" points="453.5,-340 453.5,-370 568.5,-370 568.5,-340 453.5,-340"/>
<text text-anchor="start" x="461.5" y="-358" font-family="Helvetica,sans-Serif" font-size="10.00">icpGetInitXw2Xc_from</text>
<text text-anchor="middle" x="511" y="-347" font-family="Helvetica,sans-Serif" font-size="10.00">_PlanarData</text>
</a>
</g>
</g>
<!-- Node2&#45;&gt;Node3 -->
<g id="edge2" class="edge"><title>Node2&#45;&gt;Node3</title>
<path fill="none" stroke="midnightblue" d="M245.172,-209.696C290.555,-234.597 411.938,-301.196 473.343,-334.888"/>
<polygon fill="midnightblue" stroke="midnightblue" points="471.857,-338.064 482.308,-339.806 475.224,-331.927 471.857,-338.064"/>
</g>
<!-- Node11 -->
<g id="node11" class="node"><title>Node11</title>
<g id="a_node11"><a xlink:href="icp_point_8c.html#a466204966df0b17ea76bd05a3d396307" target="_top" xlink:title="icpPoint">
<polygon fill="white" stroke="black" points="334.5,-171.5 334.5,-190.5 386.5,-190.5 386.5,-171.5 334.5,-171.5"/>
<text text-anchor="middle" x="360.5" y="-178.5" font-family="Helvetica,sans-Serif" font-size="10.00">icpPoint</text>
</a>
</g>
</g>
<!-- Node2&#45;&gt;Node11 -->
<g id="edge15" class="edge"><title>Node2&#45;&gt;Node11</title>
<path fill="none" stroke="midnightblue" d="M283.097,-191.997C297.079,-189.985 311.699,-187.88 324.363,-186.058"/>
<polygon fill="midnightblue" stroke="midnightblue" points="325.085,-189.49 334.484,-184.601 324.087,-182.561 325.085,-189.49"/>
</g>
<!-- Node4 -->
<g id="node4" class="node"><title>Node4</title>
<g id="a_node4"><a xlink:href="_a_r_2include_2_a_r6_2_a_r_2matrix_8h.html#a7169e4124d09fcbe1b8730ade678d64d" target="_top" xlink:title="arMatrixAlloc">
<polygon fill="white" stroke="black" points="755.5,-449.5 755.5,-468.5 829.5,-468.5 829.5,-449.5 755.5,-449.5"/>
<text text-anchor="middle" x="792.5" y="-456.5" font-family="Helvetica,sans-Serif" font-size="10.00">arMatrixAlloc</text>
</a>
</g>
</g>
<!-- Node3&#45;&gt;Node4 -->
<g id="edge3" class="edge"><title>Node3&#45;&gt;Node4</title>
<path fill="none" stroke="midnightblue" d="M523.6,-370.292C541.486,-392.516 578.143,-432.944 620,-450 659.957,-466.282 709.543,-467.032 745.103,-464.607"/>
<polygon fill="midnightblue" stroke="midnightblue" points="745.508,-468.086 755.201,-463.808 744.956,-461.108 745.508,-468.086"/>
</g>
<!-- Node5 -->
<g id="node5" class="node"><title>Node5</title>
<g id="a_node5"><a xlink:href="_a_r_2include_2_a_r6_2_a_r_2matrix_8h.html#ac4b7a714cce9fffda773d86363380454" target="_top" xlink:title="arMatrixFree">
<polygon fill="white" stroke="black" points="757,-354.5 757,-373.5 828,-373.5 828,-354.5 757,-354.5"/>
<text text-anchor="middle" x="792.5" y="-361.5" font-family="Helvetica,sans-Serif" font-size="10.00">arMatrixFree</text>
</a>
</g>
</g>
<!-- Node3&#45;&gt;Node5 -->
<g id="edge4" class="edge"><title>Node3&#45;&gt;Node5</title>
<path fill="none" stroke="midnightblue" d="M568.646,-366.876C585.128,-369.812 603.215,-372.535 620,-374 663.391,-377.788 674.544,-376.943 718,-374 727.341,-373.367 737.305,-372.288 746.784,-371.066"/>
<polygon fill="midnightblue" stroke="midnightblue" points="747.391,-374.515 756.827,-369.698 746.446,-367.579 747.391,-374.515"/>
</g>
<!-- Node6 -->
<g id="node6" class="node"><title>Node6</title>
<g id="a_node6"><a xlink:href="_a_r_2include_2_a_r6_2_a_r_2matrix_8h.html#a49e8f4e71a6048683feebdc15336bb67" target="_top" xlink:title="arMatrixAllocTrans">
<polygon fill="white" stroke="black" points="620,-421.5 620,-440.5 718,-440.5 718,-421.5 620,-421.5"/>
<text text-anchor="middle" x="669" y="-428.5" font-family="Helvetica,sans-Serif" font-size="10.00">arMatrixAllocTrans</text>
</a>
</g>
</g>
<!-- Node3&#45;&gt;Node6 -->
<g id="edge5" class="edge"><title>Node3&#45;&gt;Node6</title>
<path fill="none" stroke="midnightblue" d="M542.821,-370.015C570.78,-383.636 611.694,-403.569 639.055,-416.898"/>
<polygon fill="midnightblue" stroke="midnightblue" points="637.601,-420.083 648.124,-421.317 640.667,-413.79 637.601,-420.083"/>
</g>
<!-- Node8 -->
<g id="node8" class="node"><title>Node8</title>
<g id="a_node8"><a xlink:href="_a_r_2include_2_a_r6_2_a_r_2matrix_8h.html#a4d8d5ab04ba588d275e08c9f92694925" target="_top" xlink:title="arMatrixAllocMul">
<polygon fill="white" stroke="black" points="624.5,-345.5 624.5,-364.5 713.5,-364.5 713.5,-345.5 624.5,-345.5"/>
<text text-anchor="middle" x="669" y="-352.5" font-family="Helvetica,sans-Serif" font-size="10.00">arMatrixAllocMul</text>
</a>
</g>
</g>
<!-- Node3&#45;&gt;Node8 -->
<g id="edge9" class="edge"><title>Node3&#45;&gt;Node8</title>
<path fill="none" stroke="midnightblue" d="M568.761,-355C583.482,-355 599.297,-355 613.879,-355"/>
<polygon fill="midnightblue" stroke="midnightblue" points="614.245,-358.5 624.245,-355 614.245,-351.5 614.245,-358.5"/>
</g>
<!-- Node9 -->
<g id="node9" class="node"><title>Node9</title>
<g id="a_node9"><a xlink:href="_a_r_2include_2_a_r6_2_a_r_2matrix_8h.html#a202bc2db43d563792c99e852ea0b7ba4" target="_top" xlink:title="arMatrixMul">
<polygon fill="white" stroke="black" points="758.5,-269.5 758.5,-288.5 826.5,-288.5 826.5,-269.5 758.5,-269.5"/>
<text text-anchor="middle" x="792.5" y="-276.5" font-family="Helvetica,sans-Serif" font-size="10.00">arMatrixMul</text>
</a>
</g>
</g>
<!-- Node3&#45;&gt;Node9 -->
<g id="edge14" class="edge"><title>Node3&#45;&gt;Node9</title>
<path fill="none" stroke="midnightblue" d="M567.22,-339.985C620.393,-325.526 699.717,-303.957 748.392,-290.722"/>
<polygon fill="midnightblue" stroke="midnightblue" points="749.561,-294.031 758.293,-288.03 747.725,-287.276 749.561,-294.031"/>
</g>
<!-- Node10 -->
<g id="node10" class="node"><title>Node10</title>
<g id="a_node10"><a xlink:href="_a_r_2include_2_a_r6_2_a_r_2matrix_8h.html#a929738025b539a0c1bbd2f395ad4d981" target="_top" xlink:title="arMatrixSelfInv">
<polygon fill="white" stroke="black" points="627.5,-231.5 627.5,-250.5 710.5,-250.5 710.5,-231.5 627.5,-231.5"/>
<text text-anchor="middle" x="669" y="-238.5" font-family="Helvetica,sans-Serif" font-size="10.00">arMatrixSelfInv</text>
</a>
</g>
</g>
<!-- Node3&#45;&gt;Node10 -->
<g id="edge13" class="edge"><title>Node3&#45;&gt;Node10</title>
<path fill="none" stroke="midnightblue" d="M530.29,-339.753C561.055,-314.107 619.849,-265.099 620,-265 625.195,-261.602 630.937,-258.348 636.59,-255.392"/>
<polygon fill="midnightblue" stroke="midnightblue" points="638.531,-258.334 645.906,-250.726 635.397,-252.075 638.531,-258.334"/>
</g>
<!-- Node6&#45;&gt;Node4 -->
<g id="edge6" class="edge"><title>Node6&#45;&gt;Node4</title>
<path fill="none" stroke="midnightblue" d="M711.474,-440.558C722.421,-443.081 734.301,-445.818 745.473,-448.393"/>
<polygon fill="midnightblue" stroke="midnightblue" points="744.957,-451.866 755.488,-450.701 746.529,-445.045 744.957,-451.866"/>
</g>
<!-- Node6&#45;&gt;Node5 -->
<g id="edge8" class="edge"><title>Node6&#45;&gt;Node5</title>
<path fill="none" stroke="midnightblue" d="M689.767,-421.48C698.491,-417.186 708.825,-411.971 718,-407 734.634,-397.988 753.004,-387.241 767.218,-378.746"/>
<polygon fill="midnightblue" stroke="midnightblue" points="769.13,-381.68 775.899,-373.529 765.525,-375.68 769.13,-381.68"/>
</g>
<!-- Node7 -->
<g id="node7" class="node"><title>Node7</title>
<g id="a_node7"><a xlink:href="_a_r_2include_2_a_r6_2_a_r_2matrix_8h.html#ad3d9712dd27f655902a8a3315e623d85" target="_top" xlink:title="arMatrixTrans">
<polygon fill="white" stroke="black" points="754,-411.5 754,-430.5 831,-430.5 831,-411.5 754,-411.5"/>
<text text-anchor="middle" x="792.5" y="-418.5" font-family="Helvetica,sans-Serif" font-size="10.00">arMatrixTrans</text>
</a>
</g>
</g>
<!-- Node6&#45;&gt;Node7 -->
<g id="edge7" class="edge"><title>Node6&#45;&gt;Node7</title>
<path fill="none" stroke="midnightblue" d="M718.02,-427.048C726.508,-426.349 735.344,-425.622 743.822,-424.924"/>
<polygon fill="midnightblue" stroke="midnightblue" points="744.261,-428.4 753.941,-424.091 743.687,-421.423 744.261,-428.4"/>
</g>
<!-- Node8&#45;&gt;Node4 -->
<g id="edge10" class="edge"><title>Node8&#45;&gt;Node4</title>
<path fill="none" stroke="midnightblue" d="M677.739,-364.671C691.632,-381.575 722.319,-416.894 754,-440 756.115,-441.543 758.374,-443.026 760.695,-444.437"/>
<polygon fill="midnightblue" stroke="midnightblue" points="759.338,-447.687 769.779,-449.487 762.739,-441.569 759.338,-447.687"/>
</g>
<!-- Node8&#45;&gt;Node5 -->
<g id="edge12" class="edge"><title>Node8&#45;&gt;Node5</title>
<path fill="none" stroke="midnightblue" d="M713.521,-358.224C724.254,-359.019 735.769,-359.872 746.568,-360.672"/>
<polygon fill="midnightblue" stroke="midnightblue" points="746.421,-364.17 756.652,-361.419 746.938,-357.189 746.421,-364.17"/>
</g>
<!-- Node8&#45;&gt;Node9 -->
<g id="edge11" class="edge"><title>Node8&#45;&gt;Node9</title>
<path fill="none" stroke="midnightblue" d="M685.388,-345.375C706.112,-332.412 743.198,-309.214 767.576,-293.965"/>
<polygon fill="midnightblue" stroke="midnightblue" points="769.615,-296.818 776.237,-288.547 765.903,-290.883 769.615,-296.818"/>
</g>
<!-- Node12 -->
<g id="node12" class="node"><title>Node12</title>
<g id="a_node12"><a xlink:href="icp_core_8c.html#a5bbc6e7577592a3268ef3d391b0ba96d" target="_top" xlink:title="icpDispMat">
<polygon fill="white" stroke="black" points="636,-117.5 636,-136.5 702,-136.5 702,-117.5 636,-117.5"/>
<text text-anchor="middle" x="669" y="-124.5" font-family="Helvetica,sans-Serif" font-size="10.00">icpDispMat</text>
</a>
</g>
</g>
<!-- Node11&#45;&gt;Node12 -->
<g id="edge16" class="edge"><title>Node11&#45;&gt;Node12</title>
<path fill="none" stroke="midnightblue" d="M375.683,-190.561C390.491,-199.921 414.756,-213.545 438,-219 501.173,-233.826 528.896,-253.266 584,-219 614.72,-199.897 593.403,-170.52 620,-146 621.96,-144.193 624.113,-142.549 626.388,-141.055"/>
<polygon fill="midnightblue" stroke="midnightblue" points="628.519,-143.878 635.611,-136.007 625.158,-137.738 628.519,-143.878"/>
</g>
<!-- Node11&#45;&gt;Node13 -->
<g id="edge17" class="edge"><title>Node11&#45;&gt;Node13</title>
<path fill="none" stroke="midnightblue" d="M371.98,-171.481C380.252,-163.893 392.022,-152.93 402,-143 418.49,-126.589 420.836,-120.705 438,-105 454.169,-90.2053 473.735,-74.8635 488.387,-63.8282"/>
<polygon fill="midnightblue" stroke="midnightblue" points="490.874,-66.3396 496.8,-57.5572 486.691,-60.7271 490.874,-66.3396"/>
</g>
<!-- Node14 -->
<g id="node14" class="node"><title>Node14</title>
<g id="a_node14"><a xlink:href="icp_core_8c.html#aceeb3fd72a762c2078d8fb88ec03ccfb" target="_top" xlink:title="icpGetU_from_X_by_MatX2U">
<polygon fill="white" stroke="black" points="438,-152.5 438,-171.5 584,-171.5 584,-152.5 438,-152.5"/>
<text text-anchor="middle" x="511" y="-159.5" font-family="Helvetica,sans-Serif" font-size="10.00">icpGetU_from_X_by_MatX2U</text>
</a>
</g>
</g>
<!-- Node11&#45;&gt;Node14 -->
<g id="edge18" class="edge"><title>Node11&#45;&gt;Node14</title>
<path fill="none" stroke="midnightblue" d="M386.691,-177.777C398.255,-176.297 412.693,-174.45 427.575,-172.546"/>
<polygon fill="midnightblue" stroke="midnightblue" points="428.443,-175.963 437.918,-171.223 427.555,-169.02 428.443,-175.963"/>
</g>
<!-- Node15 -->
<g id="node15" class="node"><title>Node15</title>
<g id="a_node15"><a xlink:href="icp_core_8c.html#ac384ca6737fdee325d58740d665eda0a" target="_top" xlink:title="icpGetJ_U_S">
<polygon fill="white" stroke="black" points="473.5,-190.5 473.5,-209.5 548.5,-209.5 548.5,-190.5 473.5,-190.5"/>
<text text-anchor="middle" x="511" y="-197.5" font-family="Helvetica,sans-Serif" font-size="10.00">icpGetJ_U_S</text>
</a>
</g>
</g>
<!-- Node11&#45;&gt;Node15 -->
<g id="edge19" class="edge"><title>Node11&#45;&gt;Node15</title>
<path fill="none" stroke="midnightblue" d="M386.691,-184.223C407.564,-186.894 437.8,-190.762 463.107,-194"/>
<polygon fill="midnightblue" stroke="midnightblue" points="462.886,-197.5 473.249,-195.298 463.774,-190.557 462.886,-197.5"/>
</g>
<!-- Node16 -->
<g id="node16" class="node"><title>Node16</title>
<g id="a_node16"><a xlink:href="icp_core_8c.html#a4906398b4594d29ab8035b4016a7e9de" target="_top" xlink:title="icpGetDeltaS">
<polygon fill="white" stroke="black" points="473.5,-266.5 473.5,-285.5 548.5,-285.5 548.5,-266.5 473.5,-266.5"/>
<text text-anchor="middle" x="511" y="-273.5" font-family="Helvetica,sans-Serif" font-size="10.00">icpGetDeltaS</text>
</a>
</g>
</g>
<!-- Node11&#45;&gt;Node16 -->
<g id="edge21" class="edge"><title>Node11&#45;&gt;Node16</title>
<path fill="none" stroke="midnightblue" d="M369.443,-190.656C382.346,-205.761 409.317,-235.003 438,-252 445.908,-256.686 454.853,-260.601 463.683,-263.816"/>
<polygon fill="midnightblue" stroke="midnightblue" points="462.57,-267.134 473.164,-267.034 464.82,-260.506 462.57,-267.134"/>
</g>
<!-- Node18 -->
<g id="node18" class="node"><title>Node18</title>
<g id="a_node18"><a xlink:href="icp_core_8c.html#a94201124387610a46b975cdb9d8a1db6" target="_top" xlink:title="icpUpdateMat">
<polygon fill="white" stroke="black" points="472.5,-114.5 472.5,-133.5 549.5,-133.5 549.5,-114.5 472.5,-114.5"/>
<text text-anchor="middle" x="511" y="-121.5" font-family="Helvetica,sans-Serif" font-size="10.00">icpUpdateMat</text>
</a>
</g>
</g>
<!-- Node11&#45;&gt;Node18 -->
<g id="edge28" class="edge"><title>Node11&#45;&gt;Node18</title>
<path fill="none" stroke="midnightblue" d="M378.372,-171.372C393.584,-162.997 416.761,-150.983 438,-143 445.743,-140.09 454.113,-137.447 462.313,-135.121"/>
<polygon fill="midnightblue" stroke="midnightblue" points="463.444,-138.44 472.178,-132.443 461.61,-131.685 463.444,-138.44"/>
</g>
<!-- Node15&#45;&gt;Node12 -->
<g id="edge20" class="edge"><title>Node15&#45;&gt;Node12</title>
<path fill="none" stroke="midnightblue" d="M548.559,-194.171C560.371,-191.308 573.197,-187.109 584,-181 603.425,-170.015 601.262,-158.119 620,-146 622.91,-144.118 626.037,-142.37 629.247,-140.761"/>
<polygon fill="midnightblue" stroke="midnightblue" points="630.759,-143.918 638.41,-136.589 627.859,-137.547 630.759,-143.918"/>
</g>
<!-- Node16&#45;&gt;Node5 -->
<g id="edge25" class="edge"><title>Node16&#45;&gt;Node5</title>
<path fill="none" stroke="midnightblue" d="M547.998,-285.539C589.329,-296.709 659.023,-316.213 718,-336 731.28,-340.455 745.718,-345.836 758.254,-350.685"/>
<polygon fill="midnightblue" stroke="midnightblue" points="757.254,-354.051 767.842,-354.432 759.802,-347.532 757.254,-354.051"/>
</g>
<!-- Node16&#45;&gt;Node6 -->
<g id="edge23" class="edge"><title>Node16&#45;&gt;Node6</title>
<path fill="none" stroke="midnightblue" d="M526.544,-285.677C541.643,-296.042 565.583,-313.388 584,-331 602.014,-348.226 603.973,-354.912 620,-374 631.137,-387.264 643.753,-402.243 653.255,-413.517"/>
<polygon fill="midnightblue" stroke="midnightblue" points="650.717,-415.936 659.838,-421.325 656.068,-411.424 650.717,-415.936"/>
</g>
<!-- Node16&#45;&gt;Node8 -->
<g id="edge24" class="edge"><title>Node16&#45;&gt;Node8</title>
<path fill="none" stroke="midnightblue" d="M530.709,-285.581C552.228,-296.587 588.629,-315.169 620,-331 626.371,-334.215 633.226,-337.655 639.706,-340.896"/>
<polygon fill="midnightblue" stroke="midnightblue" points="638.321,-344.117 648.831,-345.456 641.45,-337.855 638.321,-344.117"/>
</g>
<!-- Node16&#45;&gt;Node9 -->
<g id="edge27" class="edge"><title>Node16&#45;&gt;Node9</title>
<path fill="none" stroke="midnightblue" d="M548.638,-266.69C560.33,-262.967 573.065,-258.091 584,-252 602.195,-241.864 600.417,-229.09 620,-222 660.954,-207.173 676.792,-207.894 718,-222 740.988,-229.869 762.345,-248.18 776.046,-261.939"/>
<polygon fill="midnightblue" stroke="midnightblue" points="773.742,-264.593 783.184,-269.401 778.801,-259.755 773.742,-264.593"/>
</g>
<!-- Node16&#45;&gt;Node10 -->
<g id="edge26" class="edge"><title>Node16&#45;&gt;Node10</title>
<path fill="none" stroke="midnightblue" d="M548.575,-267.794C569.036,-263.203 594.855,-257.411 617.247,-252.387"/>
<polygon fill="midnightblue" stroke="midnightblue" points="618.272,-255.744 627.263,-250.14 616.739,-248.914 618.272,-255.744"/>
</g>
<!-- Node17 -->
<g id="node17" class="node"><title>Node17</title>
<g id="a_node17"><a xlink:href="_a_r_2include_2_a_r6_2_a_r_2matrix_8h.html#a60f36997579d355f6030f872faad84a2" target="_top" xlink:title="arMatrixDisp">
<polygon fill="white" stroke="black" points="633,-155.5 633,-174.5 705,-174.5 705,-155.5 633,-155.5"/>
<text text-anchor="middle" x="669" y="-162.5" font-family="Helvetica,sans-Serif" font-size="10.00">arMatrixDisp</text>
</a>
</g>
</g>
<!-- Node16&#45;&gt;Node17 -->
<g id="edge22" class="edge"><title>Node16&#45;&gt;Node17</title>
<path fill="none" stroke="midnightblue" d="M548.643,-269.323C560.859,-265.733 573.912,-260.27 584,-252 608.94,-231.554 596.573,-211.162 620,-189 623.794,-185.41 628.229,-182.242 632.841,-179.483"/>
<polygon fill="midnightblue" stroke="midnightblue" points="634.648,-182.485 641.808,-174.677 631.341,-176.316 634.648,-182.485"/>
</g>
<!-- Node19&#45;&gt;Node11 -->
<g id="edge31" class="edge"><title>Node19&#45;&gt;Node11</title>
<path fill="none" stroke="midnightblue" d="M267.822,-167.804C285.779,-170.389 306.74,-173.406 324.084,-175.902"/>
<polygon fill="midnightblue" stroke="midnightblue" points="323.96,-179.42 334.356,-177.381 324.957,-172.492 323.96,-179.42"/>
</g>
<!-- Node22 -->
<g id="node22" class="node"><title>Node22</title>
<g id="a_node22"><a xlink:href="icp_point_robust_8c.html#a34b02ccedd9db2360adeccaea4fca916" target="_top" xlink:title="icpPointRobust">
<polygon fill="white" stroke="black" points="319,-114.5 319,-133.5 402,-133.5 402,-114.5 319,-114.5"/>
<text text-anchor="middle" x="360.5" y="-121.5" font-family="Helvetica,sans-Serif" font-size="10.00">icpPointRobust</text>
</a>
</g>
</g>
<!-- Node21&#45;&gt;Node22 -->
<g id="edge34" class="edge"><title>Node21&#45;&gt;Node22</title>
<path fill="none" stroke="midnightblue" d="M283.097,-124C291.613,-124 300.365,-124 308.769,-124"/>
<polygon fill="midnightblue" stroke="midnightblue" points="308.806,-127.5 318.806,-124 308.806,-120.5 308.806,-127.5"/>
</g>
<!-- Node22&#45;&gt;Node12 -->
<g id="edge36" class="edge"><title>Node22&#45;&gt;Node12</title>
<path fill="none" stroke="midnightblue" d="M392.444,-114.495C406.242,-110.73 422.786,-106.861 438,-105 502.409,-97.1212 519.643,-96.712 584,-105 598.919,-106.921 614.969,-110.687 629.003,-114.568"/>
<polygon fill="midnightblue" stroke="midnightblue" points="628.242,-117.991 638.82,-117.389 630.175,-111.263 628.242,-117.991"/>
</g>
<!-- Node22&#45;&gt;Node13 -->
<g id="edge37" class="edge"><title>Node22&#45;&gt;Node13</title>
<path fill="none" stroke="midnightblue" d="M378.743,-114.424C386.047,-110.204 394.57,-105.062 402,-100 418.752,-88.5883 420.129,-81.5645 438,-72 446.536,-67.4318 456.103,-63.5088 465.407,-60.2369"/>
<polygon fill="midnightblue" stroke="midnightblue" points="466.567,-63.5396 474.952,-57.0633 464.358,-56.8971 466.567,-63.5396"/>
</g>
<!-- Node22&#45;&gt;Node14 -->
<g id="edge38" class="edge"><title>Node22&#45;&gt;Node14</title>
<path fill="none" stroke="midnightblue" d="M398.973,-133.589C418.392,-138.558 442.302,-144.677 462.954,-149.961"/>
<polygon fill="midnightblue" stroke="midnightblue" points="462.241,-153.392 472.797,-152.48 463.976,-146.61 462.241,-153.392"/>
</g>
<!-- Node22&#45;&gt;Node15 -->
<g id="edge39" class="edge"><title>Node22&#45;&gt;Node15</title>
<path fill="none" stroke="midnightblue" d="M371.55,-133.512C385.43,-146.147 411.741,-168.342 438,-181 445.954,-184.834 454.788,-187.975 463.467,-190.519"/>
<polygon fill="midnightblue" stroke="midnightblue" points="462.577,-193.904 473.145,-193.143 464.409,-187.148 462.577,-193.904"/>
</g>
<!-- Node22&#45;&gt;Node16 -->
<g id="edge40" class="edge"><title>Node22&#45;&gt;Node16</title>
<path fill="none" stroke="midnightblue" d="M373.255,-133.615C381.775,-140.906 393.282,-151.443 402,-162 421.079,-185.104 417.969,-196.717 438,-219 452.434,-235.056 471.745,-250.076 486.734,-260.662"/>
<polygon fill="midnightblue" stroke="midnightblue" points="484.771,-263.56 494.99,-266.357 488.746,-257.798 484.771,-263.56"/>
</g>
<!-- Node22&#45;&gt;Node18 -->
<g id="edge41" class="edge"><title>Node22&#45;&gt;Node18</title>
<path fill="none" stroke="midnightblue" d="M402.078,-124C420.64,-124 442.765,-124 462.135,-124"/>
<polygon fill="midnightblue" stroke="midnightblue" points="462.275,-127.5 472.275,-124 462.275,-120.5 462.275,-127.5"/>
</g>
<!-- Node23 -->
<g id="node23" class="node"><title>Node23</title>
<g id="a_node23"><a xlink:href="ioapi_8h.html#a787fa3cf048117ba7123753c1e74fcd6" target="_top" xlink:title="int">
<polygon fill="white" stroke="black" points="496.5,-0.5 496.5,-19.5 525.5,-19.5 525.5,-0.5 496.5,-0.5"/>
<text text-anchor="middle" x="511" y="-7.5" font-family="Helvetica,sans-Serif" font-size="10.00">int</text>
</a>
</g>
</g>
<!-- Node22&#45;&gt;Node23 -->
<g id="edge35" class="edge"><title>Node22&#45;&gt;Node23</title>
<path fill="none" stroke="midnightblue" d="M366.56,-114.216C377.104,-94.8295 403.357,-51.4713 438,-29 452.488,-19.6024 471.46,-14.8389 486.291,-12.4321"/>
<polygon fill="midnightblue" stroke="midnightblue" points="486.807,-15.8942 496.236,-11.0635 485.852,-8.95959 486.807,-15.8942"/>
</g>
</g>
</svg>
        <g id="navigator" transform="translate(0 0)" fill="#404254">
                <rect fill="#f2f5e9" fill-opacity="0.5" stroke="#606060" stroke-width=".5" x="0" y="0" width="60" height="60"/>
                <use id="zoomplus" xlink:href="#zoomPlus" x="17" y="9" onmousedown="handleZoom(evt,'in')"/>
                <use id="zoomminus" xlink:href="#zoomMin" x="42" y="9" onmousedown="handleZoom(evt,'out')"/>
                <use id="reset" xlink:href="#resetDef" x="30" y="36" onmousedown="handleReset()"/>
                <g id="arrowUp" xlink:href="#dirArrow" transform="translate(30 24)" onmousedown="handlePan(0,-1)">
                  <use xlink:href="#rim" fill="#404040">
                        <set attributeName="fill" to="#808080" begin="arrowUp.mouseover" end="arrowUp.mouseout"/>
                  </use>
                  <path fill="none" stroke="white" stroke-width="1.5" d="M0,-3.0v7 M-2.5,-0.5L0,-3.0L2.5,-0.5"/>
                </g>
                <g id="arrowRight" xlink:href="#dirArrow" transform="rotate(90) translate(36 -43)" onmousedown="handlePan(1,0)">
                  <use xlink:href="#rim" fill="#404040">
                        <set attributeName="fill" to="#808080" begin="arrowRight.mouseover" end="arrowRight.mouseout"/>
                  </use>
                  <path fill="none" stroke="white" stroke-width="1.5" d="M0,-3.0v7 M-2.5,-0.5L0,-3.0L2.5,-0.5"/>
                </g>
                <g id="arrowDown" xlink:href="#dirArrow" transform="rotate(180) translate(-30 -48)" onmousedown="handlePan(0,1)">
                  <use xlink:href="#rim" fill="#404040">
                        <set attributeName="fill" to="#808080" begin="arrowDown.mouseover" end="arrowDown.mouseout"/>
                  </use>
                  <path fill="none" stroke="white" stroke-width="1.5" d="M0,-3.0v7 M-2.5,-0.5L0,-3.0L2.5,-0.5"/>
                </g>
                <g id="arrowLeft" xlink:href="#dirArrow" transform="rotate(270) translate(-36 17)" onmousedown="handlePan(-1,0)">
                  <use xlink:href="#rim" fill="#404040">
                        <set attributeName="fill" to="#808080" begin="arrowLeft.mouseover" end="arrowLeft.mouseout"/>
                  </use>
                  <path fill="none" stroke="white" stroke-width="1.5" d="M0,-3.0v7 M-2.5,-0.5L0,-3.0L2.5,-0.5"/>
                </g>
        </g>
        <svg viewBox="0 0 15 15" width="100%" height="30px" preserveAspectRatio="xMaxYMin meet">
         <g id="arrow_out" transform="scale(0.3 0.3)">
          <a xlink:href="ar_multi_get_trans_mat_8c_aa06dfa991e38d7352193ad8791c21e82_cgraph_org.svg" target="_base">
           <rect id="button" ry="5" rx="5" y="6" x="6" height="38" width="38"
                fill="#f2f5e9" fill-opacity="0.5" stroke="#606060" stroke-width="1.0"/>
           <path id="arrow"
             d="M 11.500037,31.436501 C 11.940474,20.09759 22.043105,11.32322 32.158766,21.979434 L 37.068811,17.246167 C 37.068811,17.246167 37.088388,32 37.088388,32 L 22.160133,31.978069 C 22.160133,31.978069 26.997745,27.140456 26.997745,27.140456 C 18.528582,18.264221 13.291696,25.230495 11.500037,31.436501 z"
             style="fill:#404040;"/>
          </a>
         </g>
        </svg>
</svg>
