<?xml version="1.0" encoding="UTF-8" standalone="no"?>
<!DOCTYPE svg PUBLIC "-//W3C//DTD SVG 1.1//EN"
 "http://www.w3.org/Graphics/SVG/1.1/DTD/svg11.dtd">
<!-- Generated by graphviz version 2.38.0 (20140413.2041)
 -->
<!-- Title: arGetTransMatMultiSquareStereoRobust Pages: 1 -->
<!--zoomable 503 -->
<svg id="main" version="1.1" xmlns="http://www.w3.org/2000/svg" xmlns:xlink="http://www.w3.org/1999/xlink" xml:space="preserve" onload="init(evt)">
<style type="text/css"><![CDATA[
.edge:hover path { stroke: red; }
.edge:hover polygon { stroke: red; fill: red; }
]]></style>
<script type="text/javascript"><![CDATA[
var edges = document.getElementsByTagName('g');
if (edges && edges.length) {
  for (var i=0;i<edges.length;i++) {
    if (edges[i].id.substr(0,4)=='edge') {
      edges[i].setAttribute('class','edge');
    }
  }
}
]]></script>
        <defs>
                <circle id="rim" cx="0" cy="0" r="7"/>
                <circle id="rim2" cx="0" cy="0" r="3.5"/>
                <g id="zoomPlus">
                        <use xlink:href="#rim" fill="#404040">
                                <set attributeName="fill" to="#808080" begin="zoomplus.mouseover" end="zoomplus.mouseout"/>
                        </use>
                        <path d="M-4,0h8M0,-4v8" fill="none" stroke="white" stroke-width="1.5" pointer-events="none"/>
                </g>
                <g id="zoomMin">
                        <use xlink:href="#rim" fill="#404040">
                                <set attributeName="fill" to="#808080" begin="zoomminus.mouseover" end="zoomminus.mouseout"/>
                        </use>
                        <path d="M-4,0h8" fill="none" stroke="white" stroke-width="1.5" pointer-events="none"/>
                </g>
                <g id="dirArrow">
                        <path fill="none" stroke="white" stroke-width="1.5" d="M0,-3.0v7 M-2.5,-0.5L0,-3.0L2.5,-0.5"/>
                </g>
               <g id="resetDef">
                       <use xlink:href="#rim2" fill="#404040">
                               <set attributeName="fill" to="#808080" begin="reset.mouseover" end="reset.mouseout"/>
                       </use>
               </g>
        </defs>

<script type="text/javascript">
var viewWidth = 897;
var viewHeight = 503;
var sectionId = 'dynsection-3';
</script>
<script xlink:href="svgpan.js"/>
<svg id="graph" class="graph">
<g id="viewport">
<title>arGetTransMatMultiSquareStereoRobust</title>
<polygon fill="white" stroke="none" points="-4,4 -4,-499.089 893,-499.089 893,4 -4,4"/>
<!-- Node1 -->
<g id="node1" class="node"><title>Node1</title>
<polygon fill="#bfbfbf" stroke="black" points="0,-109 0,-139 134,-139 134,-109 0,-109"/>
<text text-anchor="start" x="8" y="-127" font-family="Helvetica,sans-Serif" font-size="10.00">arGetTransMatMultiSquare</text>
<text text-anchor="middle" x="67" y="-116" font-family="Helvetica,sans-Serif" font-size="10.00">StereoRobust</text>
</g>
<!-- Node2 -->
<g id="node2" class="node"><title>Node2</title>
<g id="a_node2"><a xlink:href="ar_get_trans_mat_stereo_8c.html#a8062d2388e1450a896468287f6ba793c" target="_top" xlink:title="arGetTransMatSquareStereo">
<polygon fill="white" stroke="black" points="170.5,-239.5 170.5,-258.5 311.5,-258.5 311.5,-239.5 170.5,-239.5"/>
<text text-anchor="middle" x="241" y="-246.5" font-family="Helvetica,sans-Serif" font-size="10.00">arGetTransMatSquareStereo</text>
</a>
</g>
</g>
<!-- Node1&#45;&gt;Node2 -->
<g id="edge1" class="edge"><title>Node1&#45;&gt;Node2</title>
<path fill="none" stroke="midnightblue" d="M88.7472,-139.078C121.555,-162.921 185.099,-209.101 218.419,-233.316"/>
<polygon fill="midnightblue" stroke="midnightblue" points="216.437,-236.202 226.584,-239.25 220.552,-230.54 216.437,-236.202"/>
</g>
<!-- Node13 -->
<g id="node13" class="node"><title>Node13</title>
<g id="a_node13"><a xlink:href="ar_util_8c.html#ae28eeba3e16224a7d77b46bd34b8f4fe" target="_top" xlink:title="arUtilMatMul">
<polygon fill="white" stroke="black" points="533,-0.5 533,-19.5 605,-19.5 605,-0.5 533,-0.5"/>
<text text-anchor="middle" x="569" y="-7.5" font-family="Helvetica,sans-Serif" font-size="10.00">arUtilMatMul</text>
</a>
</g>
</g>
<!-- Node1&#45;&gt;Node13 -->
<g id="edge33" class="edge"><title>Node1&#45;&gt;Node13</title>
<path fill="none" stroke="midnightblue" d="M133.88,-108.979C237.06,-85.4543 434.131,-40.5221 522.8,-20.3057"/>
<polygon fill="midnightblue" stroke="midnightblue" points="523.838,-23.6589 532.809,-18.0234 522.282,-16.834 523.838,-23.6589"/>
</g>
<!-- Node20 -->
<g id="node20" class="node"><title>Node20</title>
<g id="a_node20"><a xlink:href="ar_get_trans_mat_stereo_8c.html#a9bfdb18b5ce08354463c844a65060dc5" target="_top" xlink:title="arGetTransMatStereo">
<polygon fill="white" stroke="black" points="186,-152.5 186,-171.5 296,-171.5 296,-152.5 186,-152.5"/>
<text text-anchor="middle" x="241" y="-159.5" font-family="Helvetica,sans-Serif" font-size="10.00">arGetTransMatStereo</text>
</a>
</g>
</g>
<!-- Node1&#45;&gt;Node20 -->
<g id="edge34" class="edge"><title>Node1&#45;&gt;Node20</title>
<path fill="none" stroke="midnightblue" d="M134.008,-138.583C151.424,-142.431 169.999,-146.535 186.655,-150.214"/>
<polygon fill="midnightblue" stroke="midnightblue" points="186.23,-153.705 196.75,-152.445 187.74,-146.87 186.23,-153.705"/>
</g>
<!-- Node21 -->
<g id="node21" class="node"><title>Node21</title>
<g id="a_node21"><a xlink:href="icp_stereo_handle_8c.html#a2e94d1f64e2a917b113151d78d857872" target="_top" xlink:title="icpStereoSetInlierProbability">
<polygon fill="white" stroke="black" points="171,-38.5 171,-57.5 311,-57.5 311,-38.5 171,-38.5"/>
<text text-anchor="middle" x="241" y="-45.5" font-family="Helvetica,sans-Serif" font-size="10.00">icpStereoSetInlierProbability</text>
</a>
</g>
</g>
<!-- Node1&#45;&gt;Node21 -->
<g id="edge36" class="edge"><title>Node1&#45;&gt;Node21</title>
<path fill="none" stroke="midnightblue" d="M95.2061,-108.801C115.472,-97.8088 144.013,-83.0142 170,-72 179.404,-68.0144 189.718,-64.1897 199.47,-60.8103"/>
<polygon fill="midnightblue" stroke="midnightblue" points="200.631,-64.1125 208.98,-57.5899 198.385,-57.4823 200.631,-64.1125"/>
</g>
<!-- Node22 -->
<g id="node22" class="node"><title>Node22</title>
<g id="a_node22"><a xlink:href="ar_get_trans_mat_stereo_8c.html#a12593d630b3f48bb9bd7dd2e405648a2" target="_top" xlink:title="arGetTransMatStereoRobust">
<polygon fill="white" stroke="black" points="170,-114.5 170,-133.5 312,-133.5 312,-114.5 170,-114.5"/>
<text text-anchor="middle" x="241" y="-121.5" font-family="Helvetica,sans-Serif" font-size="10.00">arGetTransMatStereoRobust</text>
</a>
</g>
</g>
<!-- Node1&#45;&gt;Node22 -->
<g id="edge37" class="edge"><title>Node1&#45;&gt;Node22</title>
<path fill="none" stroke="midnightblue" d="M134.008,-124C142.451,-124 151.167,-124 159.804,-124"/>
<polygon fill="midnightblue" stroke="midnightblue" points="159.886,-127.5 169.886,-124 159.886,-120.5 159.886,-127.5"/>
</g>
<!-- Node3 -->
<g id="node3" class="node"><title>Node3</title>
<g id="a_node3"><a xlink:href="icp_util_8c.html#a9a0da1f41013b11363f39d99a5c937e9" target="_top" xlink:title="icpGetInitXw2Xc_from\l_PlanarData">
<polygon fill="white" stroke="black" points="511.5,-305 511.5,-335 626.5,-335 626.5,-305 511.5,-305"/>
<text text-anchor="start" x="519.5" y="-323" font-family="Helvetica,sans-Serif" font-size="10.00">icpGetInitXw2Xc_from</text>
<text text-anchor="middle" x="569" y="-312" font-family="Helvetica,sans-Serif" font-size="10.00">_PlanarData</text>
</a>
</g>
</g>
<!-- Node2&#45;&gt;Node3 -->
<g id="edge2" class="edge"><title>Node2&#45;&gt;Node3</title>
<path fill="none" stroke="midnightblue" d="M285.628,-258.502C340.881,-270.535 436.644,-291.392 501.146,-305.44"/>
<polygon fill="midnightblue" stroke="midnightblue" points="500.703,-308.925 511.219,-307.634 502.193,-302.086 500.703,-308.925"/>
</g>
<!-- Node11 -->
<g id="node11" class="node"><title>Node11</title>
<g id="a_node11"><a xlink:href="ar_util_8c.html#a97c94e6c703a2e449272302c925944d1" target="_top" xlink:title="arUtilMatInv">
<polygon fill="white" stroke="black" points="534,-440.5 534,-459.5 604,-459.5 604,-440.5 534,-440.5"/>
<text text-anchor="middle" x="569" y="-447.5" font-family="Helvetica,sans-Serif" font-size="10.00">arUtilMatInv</text>
</a>
</g>
</g>
<!-- Node2&#45;&gt;Node11 -->
<g id="edge15" class="edge"><title>Node2&#45;&gt;Node11</title>
<path fill="none" stroke="midnightblue" d="M257.724,-258.695C310.335,-291.133 480.464,-396.028 543.879,-435.128"/>
<polygon fill="midnightblue" stroke="midnightblue" points="542.085,-438.134 552.434,-440.403 545.759,-432.175 542.085,-438.134"/>
</g>
<!-- Node12 -->
<g id="node12" class="node"><title>Node12</title>
<g id="a_node12"><a xlink:href="icp_stereo_point_8c.html#afa05ec4cb1c2537d535521e4ee42c5ac" target="_top" xlink:title="icpStereoPoint">
<polygon fill="white" stroke="black" points="364,-171.5 364,-190.5 444,-190.5 444,-171.5 364,-171.5"/>
<text text-anchor="middle" x="404" y="-178.5" font-family="Helvetica,sans-Serif" font-size="10.00">icpStereoPoint</text>
</a>
</g>
</g>
<!-- Node2&#45;&gt;Node12 -->
<g id="edge19" class="edge"><title>Node2&#45;&gt;Node12</title>
<path fill="none" stroke="midnightblue" d="M264.726,-239.401C292.414,-227.707 339.374,-207.873 370.783,-194.607"/>
<polygon fill="midnightblue" stroke="midnightblue" points="372.539,-197.665 380.39,-190.55 369.816,-191.216 372.539,-197.665"/>
</g>
<!-- Node4 -->
<g id="node4" class="node"><title>Node4</title>
<g id="a_node4"><a xlink:href="_a_r_2include_2_a_r6_2_a_r_2matrix_8h.html#a7169e4124d09fcbe1b8730ade678d64d" target="_top" xlink:title="arMatrixAlloc">
<polygon fill="white" stroke="black" points="813.5,-383.5 813.5,-402.5 887.5,-402.5 887.5,-383.5 813.5,-383.5"/>
<text text-anchor="middle" x="850.5" y="-390.5" font-family="Helvetica,sans-Serif" font-size="10.00">arMatrixAlloc</text>
</a>
</g>
</g>
<!-- Node3&#45;&gt;Node4 -->
<g id="edge3" class="edge"><title>Node3&#45;&gt;Node4</title>
<path fill="none" stroke="midnightblue" d="M593.859,-335.029C615.095,-347.634 647.439,-364.98 678,-374 719.14,-386.142 767.911,-390.645 802.907,-392.257"/>
<polygon fill="midnightblue" stroke="midnightblue" points="803.171,-395.77 813.302,-392.669 803.449,-388.775 803.171,-395.77"/>
</g>
<!-- Node5 -->
<g id="node5" class="node"><title>Node5</title>
<g id="a_node5"><a xlink:href="_a_r_2include_2_a_r6_2_a_r_2matrix_8h.html#ac4b7a714cce9fffda773d86363380454" target="_top" xlink:title="arMatrixFree">
<polygon fill="white" stroke="black" points="815,-307.5 815,-326.5 886,-326.5 886,-307.5 815,-307.5"/>
<text text-anchor="middle" x="850.5" y="-314.5" font-family="Helvetica,sans-Serif" font-size="10.00">arMatrixFree</text>
</a>
</g>
</g>
<!-- Node3&#45;&gt;Node5 -->
<g id="edge4" class="edge"><title>Node3&#45;&gt;Node5</title>
<path fill="none" stroke="midnightblue" d="M626.561,-319.393C679.02,-318.83 756.068,-318.003 804.473,-317.483"/>
<polygon fill="midnightblue" stroke="midnightblue" points="804.682,-320.981 814.644,-317.374 804.607,-313.982 804.682,-320.981"/>
</g>
<!-- Node6 -->
<g id="node6" class="node"><title>Node6</title>
<g id="a_node6"><a xlink:href="_a_r_2include_2_a_r6_2_a_r_2matrix_8h.html#a49e8f4e71a6048683feebdc15336bb67" target="_top" xlink:title="arMatrixAllocTrans">
<polygon fill="white" stroke="black" points="678,-345.5 678,-364.5 776,-364.5 776,-345.5 678,-345.5"/>
<text text-anchor="middle" x="727" y="-352.5" font-family="Helvetica,sans-Serif" font-size="10.00">arMatrixAllocTrans</text>
</a>
</g>
</g>
<!-- Node3&#45;&gt;Node6 -->
<g id="edge5" class="edge"><title>Node3&#45;&gt;Node6</title>
<path fill="none" stroke="midnightblue" d="M626.761,-332.735C641.908,-336.133 658.213,-339.791 673.141,-343.141"/>
<polygon fill="midnightblue" stroke="midnightblue" points="672.702,-346.629 683.226,-345.403 674.234,-339.799 672.702,-346.629"/>
</g>
<!-- Node8 -->
<g id="node8" class="node"><title>Node8</title>
<g id="a_node8"><a xlink:href="_a_r_2include_2_a_r6_2_a_r_2matrix_8h.html#a4d8d5ab04ba588d275e08c9f92694925" target="_top" xlink:title="arMatrixAllocMul">
<polygon fill="white" stroke="black" points="682.5,-269.5 682.5,-288.5 771.5,-288.5 771.5,-269.5 682.5,-269.5"/>
<text text-anchor="middle" x="727" y="-276.5" font-family="Helvetica,sans-Serif" font-size="10.00">arMatrixAllocMul</text>
</a>
</g>
</g>
<!-- Node3&#45;&gt;Node8 -->
<g id="edge9" class="edge"><title>Node3&#45;&gt;Node8</title>
<path fill="none" stroke="midnightblue" d="M626.761,-305.082C644.076,-300.531 662.902,-295.584 679.457,-291.233"/>
<polygon fill="midnightblue" stroke="midnightblue" points="680.655,-294.536 689.437,-288.609 678.876,-287.766 680.655,-294.536"/>
</g>
<!-- Node9 -->
<g id="node9" class="node"><title>Node9</title>
<g id="a_node9"><a xlink:href="_a_r_2include_2_a_r6_2_a_r_2matrix_8h.html#a202bc2db43d563792c99e852ea0b7ba4" target="_top" xlink:title="arMatrixMul">
<polygon fill="white" stroke="black" points="816.5,-193.5 816.5,-212.5 884.5,-212.5 884.5,-193.5 816.5,-193.5"/>
<text text-anchor="middle" x="850.5" y="-200.5" font-family="Helvetica,sans-Serif" font-size="10.00">arMatrixMul</text>
</a>
</g>
</g>
<!-- Node3&#45;&gt;Node9 -->
<g id="edge14" class="edge"><title>Node3&#45;&gt;Node9</title>
<path fill="none" stroke="midnightblue" d="M622.382,-304.875C629.199,-302.033 635.919,-298.752 642,-295 660.992,-283.284 658.93,-271.59 678,-260 718.316,-235.498 770.438,-220.115 806.588,-211.591"/>
<polygon fill="midnightblue" stroke="midnightblue" points="807.367,-215.003 816.338,-209.367 805.81,-208.179 807.367,-215.003"/>
</g>
<!-- Node10 -->
<g id="node10" class="node"><title>Node10</title>
<g id="a_node10"><a xlink:href="_a_r_2include_2_a_r6_2_a_r_2matrix_8h.html#a929738025b539a0c1bbd2f395ad4d981" target="_top" xlink:title="arMatrixSelfInv">
<polygon fill="white" stroke="black" points="685.5,-421.5 685.5,-440.5 768.5,-440.5 768.5,-421.5 685.5,-421.5"/>
<text text-anchor="middle" x="727" y="-428.5" font-family="Helvetica,sans-Serif" font-size="10.00">arMatrixSelfInv</text>
</a>
</g>
</g>
<!-- Node3&#45;&gt;Node10 -->
<g id="edge13" class="edge"><title>Node3&#45;&gt;Node10</title>
<path fill="none" stroke="midnightblue" d="M586.355,-335.046C606.807,-353.408 643.357,-384.752 678,-407 683.453,-410.502 689.487,-413.873 695.383,-416.926"/>
<polygon fill="midnightblue" stroke="midnightblue" points="693.921,-420.107 704.432,-421.433 697.042,-413.842 693.921,-420.107"/>
</g>
<!-- Node6&#45;&gt;Node4 -->
<g id="edge6" class="edge"><title>Node6&#45;&gt;Node4</title>
<path fill="none" stroke="midnightblue" d="M758.66,-364.589C773.912,-369.359 792.551,-375.189 808.967,-380.323"/>
<polygon fill="midnightblue" stroke="midnightblue" points="808.261,-383.769 818.85,-383.414 810.351,-377.089 808.261,-383.769"/>
</g>
<!-- Node6&#45;&gt;Node5 -->
<g id="edge8" class="edge"><title>Node6&#45;&gt;Node5</title>
<path fill="none" stroke="midnightblue" d="M758.66,-345.411C773.912,-340.641 792.551,-334.811 808.967,-329.677"/>
<polygon fill="midnightblue" stroke="midnightblue" points="810.351,-332.911 818.85,-326.586 808.261,-326.231 810.351,-332.911"/>
</g>
<!-- Node7 -->
<g id="node7" class="node"><title>Node7</title>
<g id="a_node7"><a xlink:href="_a_r_2include_2_a_r6_2_a_r_2matrix_8h.html#ad3d9712dd27f655902a8a3315e623d85" target="_top" xlink:title="arMatrixTrans">
<polygon fill="white" stroke="black" points="812,-345.5 812,-364.5 889,-364.5 889,-345.5 812,-345.5"/>
<text text-anchor="middle" x="850.5" y="-352.5" font-family="Helvetica,sans-Serif" font-size="10.00">arMatrixTrans</text>
</a>
</g>
</g>
<!-- Node6&#45;&gt;Node7 -->
<g id="edge7" class="edge"><title>Node6&#45;&gt;Node7</title>
<path fill="none" stroke="midnightblue" d="M776.02,-355C784.508,-355 793.344,-355 801.822,-355"/>
<polygon fill="midnightblue" stroke="midnightblue" points="801.941,-358.5 811.941,-355 801.941,-351.5 801.941,-358.5"/>
</g>
<!-- Node8&#45;&gt;Node4 -->
<g id="edge10" class="edge"><title>Node8&#45;&gt;Node4</title>
<path fill="none" stroke="midnightblue" d="M736.174,-288.651C755.52,-311.435 803.159,-367.168 812,-374 814.021,-375.562 816.191,-377.052 818.43,-378.46"/>
<polygon fill="midnightblue" stroke="midnightblue" points="816.825,-381.573 827.249,-383.469 820.282,-375.487 816.825,-381.573"/>
</g>
<!-- Node8&#45;&gt;Node5 -->
<g id="edge12" class="edge"><title>Node8&#45;&gt;Node5</title>
<path fill="none" stroke="midnightblue" d="M758.66,-288.589C773.912,-293.359 792.551,-299.189 808.967,-304.323"/>
<polygon fill="midnightblue" stroke="midnightblue" points="808.261,-307.769 818.85,-307.414 810.351,-301.089 808.261,-307.769"/>
</g>
<!-- Node8&#45;&gt;Node9 -->
<g id="edge11" class="edge"><title>Node8&#45;&gt;Node9</title>
<path fill="none" stroke="midnightblue" d="M743.388,-269.375C764.112,-256.412 801.198,-233.214 825.576,-217.965"/>
<polygon fill="midnightblue" stroke="midnightblue" points="827.615,-220.818 834.237,-212.547 823.903,-214.883 827.615,-220.818"/>
</g>
<!-- Node11&#45;&gt;Node4 -->
<g id="edge16" class="edge"><title>Node11&#45;&gt;Node4</title>
<path fill="none" stroke="midnightblue" d="M588.074,-459.603C625.182,-477.92 711.861,-513.43 776,-483 806.979,-468.303 829.222,-433.448 840.673,-411.682"/>
<polygon fill="midnightblue" stroke="midnightblue" points="843.812,-413.229 845.167,-402.721 837.555,-410.09 843.812,-413.229"/>
</g>
<!-- Node11&#45;&gt;Node5 -->
<g id="edge18" class="edge"><title>Node11&#45;&gt;Node5</title>
<path fill="none" stroke="midnightblue" d="M598.173,-459.541C641.079,-472.155 723.355,-488.583 776,-450 818.856,-418.592 777.614,-376.506 812,-336 813.004,-334.818 814.099,-333.701 815.264,-332.646"/>
<polygon fill="midnightblue" stroke="midnightblue" points="817.647,-335.245 823.728,-326.569 813.564,-329.558 817.647,-335.245"/>
</g>
<!-- Node11&#45;&gt;Node10 -->
<g id="edge17" class="edge"><title>Node11&#45;&gt;Node10</title>
<path fill="none" stroke="midnightblue" d="M604.235,-445.83C625.095,-443.29 652.13,-439.997 675.425,-437.16"/>
<polygon fill="midnightblue" stroke="midnightblue" points="675.986,-440.617 685.489,-435.934 675.139,-433.669 675.986,-440.617"/>
</g>
<!-- Node12&#45;&gt;Node13 -->
<g id="edge20" class="edge"><title>Node12&#45;&gt;Node13</title>
<path fill="none" stroke="midnightblue" d="M423.707,-171.41C435.333,-164.708 449.93,-154.852 460,-143 484.2,-114.517 472.739,-96.2548 496,-67 509.271,-50.3094 528.329,-35.5002 543.503,-25.1624"/>
<polygon fill="midnightblue" stroke="midnightblue" points="545.497,-28.0404 551.916,-19.6119 541.642,-22.1974 545.497,-28.0404"/>
</g>
<!-- Node14 -->
<g id="node14" class="node"><title>Node14</title>
<g id="a_node14"><a xlink:href="icp_core_8c.html#a5bbc6e7577592a3268ef3d391b0ba96d" target="_top" xlink:title="icpDispMat">
<polygon fill="white" stroke="black" points="694,-79.5 694,-98.5 760,-98.5 760,-79.5 694,-79.5"/>
<text text-anchor="middle" x="727" y="-86.5" font-family="Helvetica,sans-Serif" font-size="10.00">icpDispMat</text>
</a>
</g>
</g>
<!-- Node12&#45;&gt;Node14 -->
<g id="edge21" class="edge"><title>Node12&#45;&gt;Node14</title>
<path fill="none" stroke="midnightblue" d="M420.782,-190.504C461.411,-213.611 571.358,-267.405 642,-219 678.562,-193.947 651.47,-161.505 678,-126 684.264,-117.617 692.905,-110.164 701.131,-104.182"/>
<polygon fill="midnightblue" stroke="midnightblue" points="703.156,-107.038 709.436,-98.5049 699.206,-101.259 703.156,-107.038"/>
</g>
<!-- Node15 -->
<g id="node15" class="node"><title>Node15</title>
<g id="a_node15"><a xlink:href="icp_core_8c.html#aceeb3fd72a762c2078d8fb88ec03ccfb" target="_top" xlink:title="icpGetU_from_X_by_MatX2U">
<polygon fill="white" stroke="black" points="496,-114.5 496,-133.5 642,-133.5 642,-114.5 496,-114.5"/>
<text text-anchor="middle" x="569" y="-121.5" font-family="Helvetica,sans-Serif" font-size="10.00">icpGetU_from_X_by_MatX2U</text>
</a>
</g>
</g>
<!-- Node12&#45;&gt;Node15 -->
<g id="edge22" class="edge"><title>Node12&#45;&gt;Node15</title>
<path fill="none" stroke="midnightblue" d="M425.65,-171.417C443.894,-163.184 471.354,-151.354 496,-143 503.066,-140.605 510.605,-138.324 518.045,-136.228"/>
<polygon fill="midnightblue" stroke="midnightblue" points="518.997,-139.596 527.721,-133.584 517.152,-132.844 518.997,-139.596"/>
</g>
<!-- Node16 -->
<g id="node16" class="node"><title>Node16</title>
<g id="a_node16"><a xlink:href="icp_core_8c.html#ac384ca6737fdee325d58740d665eda0a" target="_top" xlink:title="icpGetJ_U_S">
<polygon fill="white" stroke="black" points="531.5,-190.5 531.5,-209.5 606.5,-209.5 606.5,-190.5 531.5,-190.5"/>
<text text-anchor="middle" x="569" y="-197.5" font-family="Helvetica,sans-Serif" font-size="10.00">icpGetJ_U_S</text>
</a>
</g>
</g>
<!-- Node12&#45;&gt;Node16 -->
<g id="edge23" class="edge"><title>Node12&#45;&gt;Node16</title>
<path fill="none" stroke="midnightblue" d="M444.043,-185.551C467.2,-188.25 496.702,-191.689 521.115,-194.535"/>
<polygon fill="midnightblue" stroke="midnightblue" points="520.895,-198.033 531.233,-195.714 521.706,-191.08 520.895,-198.033"/>
</g>
<!-- Node17 -->
<g id="node17" class="node"><title>Node17</title>
<g id="a_node17"><a xlink:href="icp_core_8c.html#a4906398b4594d29ab8035b4016a7e9de" target="_top" xlink:title="icpGetDeltaS">
<polygon fill="white" stroke="black" points="531.5,-266.5 531.5,-285.5 606.5,-285.5 606.5,-266.5 531.5,-266.5"/>
<text text-anchor="middle" x="569" y="-273.5" font-family="Helvetica,sans-Serif" font-size="10.00">icpGetDeltaS</text>
</a>
</g>
</g>
<!-- Node12&#45;&gt;Node17 -->
<g id="edge25" class="edge"><title>Node12&#45;&gt;Node17</title>
<path fill="none" stroke="midnightblue" d="M414.835,-190.555C430.711,-205.521 463.505,-234.578 496,-252 504.101,-256.344 513.135,-260.102 521.99,-263.272"/>
<polygon fill="midnightblue" stroke="midnightblue" points="520.882,-266.592 531.476,-266.481 523.125,-259.961 520.882,-266.592"/>
</g>
<!-- Node19 -->
<g id="node19" class="node"><title>Node19</title>
<g id="a_node19"><a xlink:href="icp_core_8c.html#a94201124387610a46b975cdb9d8a1db6" target="_top" xlink:title="icpUpdateMat">
<polygon fill="white" stroke="black" points="530.5,-152.5 530.5,-171.5 607.5,-171.5 607.5,-152.5 530.5,-152.5"/>
<text text-anchor="middle" x="569" y="-159.5" font-family="Helvetica,sans-Serif" font-size="10.00">icpUpdateMat</text>
</a>
</g>
</g>
<!-- Node12&#45;&gt;Node19 -->
<g id="edge32" class="edge"><title>Node12&#45;&gt;Node19</title>
<path fill="none" stroke="midnightblue" d="M444.043,-176.449C466.953,-173.779 496.073,-170.384 520.332,-167.556"/>
<polygon fill="midnightblue" stroke="midnightblue" points="520.871,-171.017 530.398,-166.383 520.06,-164.064 520.871,-171.017"/>
</g>
<!-- Node16&#45;&gt;Node14 -->
<g id="edge24" class="edge"><title>Node16&#45;&gt;Node14</title>
<path fill="none" stroke="midnightblue" d="M606.714,-196.305C618.937,-193.602 631.976,-188.957 642,-181 668.784,-159.739 653.54,-136.898 678,-113 681.736,-109.35 686.138,-106.147 690.735,-103.371"/>
<polygon fill="midnightblue" stroke="midnightblue" points="692.542,-106.374 699.691,-98.5539 689.226,-100.209 692.542,-106.374"/>
</g>
<!-- Node17&#45;&gt;Node5 -->
<g id="edge29" class="edge"><title>Node17&#45;&gt;Node5</title>
<path fill="none" stroke="midnightblue" d="M599.583,-266.495C640.448,-254.957 715.929,-239.437 776,-260 798.988,-267.869 820.345,-286.18 834.046,-299.939"/>
<polygon fill="midnightblue" stroke="midnightblue" points="831.742,-302.593 841.184,-307.401 836.801,-297.755 831.742,-302.593"/>
</g>
<!-- Node17&#45;&gt;Node6 -->
<g id="edge27" class="edge"><title>Node17&#45;&gt;Node6</title>
<path fill="none" stroke="midnightblue" d="M606.762,-283.629C618.339,-286.707 630.975,-290.788 642,-296 666.061,-307.376 690.636,-325.558 706.937,-338.734"/>
<polygon fill="midnightblue" stroke="midnightblue" points="705.147,-341.795 715.086,-345.464 709.604,-336.397 705.147,-341.795"/>
</g>
<!-- Node17&#45;&gt;Node8 -->
<g id="edge28" class="edge"><title>Node17&#45;&gt;Node8</title>
<path fill="none" stroke="midnightblue" d="M606.575,-276.703C626.167,-277.08 650.67,-277.551 672.374,-277.969"/>
<polygon fill="midnightblue" stroke="midnightblue" points="672.379,-281.469 682.445,-278.162 672.514,-274.471 672.379,-281.469"/>
</g>
<!-- Node17&#45;&gt;Node9 -->
<g id="edge31" class="edge"><title>Node17&#45;&gt;Node9</title>
<path fill="none" stroke="midnightblue" d="M606.843,-270.579C619.366,-267.099 632.563,-261.383 642,-252 677.281,-216.918 637.555,-174.978 678,-146 713.406,-120.633 734.792,-131.894 776,-146 798.988,-153.869 820.345,-172.18 834.046,-185.939"/>
<polygon fill="midnightblue" stroke="midnightblue" points="831.742,-188.593 841.184,-193.401 836.801,-183.755 831.742,-188.593"/>
</g>
<!-- Node17&#45;&gt;Node10 -->
<g id="edge30" class="edge"><title>Node17&#45;&gt;Node10</title>
<path fill="none" stroke="midnightblue" d="M606.614,-279.867C618.968,-282.706 632.117,-287.596 642,-296 671.087,-320.733 657.52,-341.776 678,-374 687.069,-388.269 699.388,-402.824 709.275,-413.655"/>
<polygon fill="midnightblue" stroke="midnightblue" points="706.885,-416.223 716.267,-421.144 712.001,-411.446 706.885,-416.223"/>
</g>
<!-- Node18 -->
<g id="node18" class="node"><title>Node18</title>
<g id="a_node18"><a xlink:href="_a_r_2include_2_a_r6_2_a_r_2matrix_8h.html#a60f36997579d355f6030f872faad84a2" target="_top" xlink:title="arMatrixDisp">
<polygon fill="white" stroke="black" points="691,-155.5 691,-174.5 763,-174.5 763,-155.5 691,-155.5"/>
<text text-anchor="middle" x="727" y="-162.5" font-family="Helvetica,sans-Serif" font-size="10.00">arMatrixDisp</text>
</a>
</g>
</g>
<!-- Node17&#45;&gt;Node18 -->
<g id="edge26" class="edge"><title>Node17&#45;&gt;Node18</title>
<path fill="none" stroke="midnightblue" d="M606.643,-269.323C618.859,-265.733 631.912,-260.27 642,-252 666.94,-231.554 654.573,-211.162 678,-189 681.794,-185.41 686.229,-182.242 690.841,-179.483"/>
<polygon fill="midnightblue" stroke="midnightblue" points="692.648,-182.485 699.808,-174.677 689.341,-176.316 692.648,-182.485"/>
</g>
<!-- Node20&#45;&gt;Node12 -->
<g id="edge35" class="edge"><title>Node20&#45;&gt;Node12</title>
<path fill="none" stroke="midnightblue" d="M296.059,-168.38C314.702,-170.58 335.474,-173.031 353.715,-175.184"/>
<polygon fill="midnightblue" stroke="midnightblue" points="353.501,-178.683 363.843,-176.379 354.322,-171.731 353.501,-178.683"/>
</g>
<!-- Node23 -->
<g id="node23" class="node"><title>Node23</title>
<g id="a_node23"><a xlink:href="icp_stereo_point_robust_8c.html#a4b6d126a648aed158a8cc1a495b83405" target="_top" xlink:title="icpStereoPointRobust">
<polygon fill="white" stroke="black" points="348,-114.5 348,-133.5 460,-133.5 460,-114.5 348,-114.5"/>
<text text-anchor="middle" x="404" y="-121.5" font-family="Helvetica,sans-Serif" font-size="10.00">icpStereoPointRobust</text>
</a>
</g>
</g>
<!-- Node22&#45;&gt;Node23 -->
<g id="edge38" class="edge"><title>Node22&#45;&gt;Node23</title>
<path fill="none" stroke="midnightblue" d="M312.149,-124C320.583,-124 329.171,-124 337.535,-124"/>
<polygon fill="midnightblue" stroke="midnightblue" points="337.6,-127.5 347.6,-124 337.6,-120.5 337.6,-127.5"/>
</g>
<!-- Node23&#45;&gt;Node13 -->
<g id="edge40" class="edge"><title>Node23&#45;&gt;Node13</title>
<path fill="none" stroke="midnightblue" d="M436.522,-114.435C444.822,-110.854 453.316,-106.121 460,-100 484.642,-77.434 470.371,-55.4384 496,-34 503.807,-27.4693 513.459,-22.6946 523.131,-19.2108"/>
<polygon fill="midnightblue" stroke="midnightblue" points="524.282,-22.5175 532.742,-16.14 522.151,-15.8495 524.282,-22.5175"/>
</g>
<!-- Node23&#45;&gt;Node14 -->
<g id="edge41" class="edge"><title>Node23&#45;&gt;Node14</title>
<path fill="none" stroke="midnightblue" d="M431.651,-114.454C440.964,-110.585 451.267,-105.681 460,-100 478.195,-88.165 475.771,-74.8686 496,-67 561.478,-41.5302 645.021,-61.21 691.26,-76.1813"/>
<polygon fill="midnightblue" stroke="midnightblue" points="690.22,-79.5241 700.814,-79.3811 692.443,-72.8864 690.22,-79.5241"/>
</g>
<!-- Node23&#45;&gt;Node15 -->
<g id="edge42" class="edge"><title>Node23&#45;&gt;Node15</title>
<path fill="none" stroke="midnightblue" d="M460.184,-124C468.416,-124 477.048,-124 485.693,-124"/>
<polygon fill="midnightblue" stroke="midnightblue" points="485.824,-127.5 495.824,-124 485.824,-120.5 485.824,-127.5"/>
</g>
<!-- Node23&#45;&gt;Node16 -->
<g id="edge43" class="edge"><title>Node23&#45;&gt;Node16</title>
<path fill="none" stroke="midnightblue" d="M419.161,-133.607C440.572,-148.006 480.348,-174.22 496,-181 504.102,-184.51 513.005,-187.499 521.706,-189.996"/>
<polygon fill="midnightblue" stroke="midnightblue" points="520.823,-193.383 531.39,-192.607 522.646,-186.624 520.823,-193.383"/>
</g>
<!-- Node23&#45;&gt;Node17 -->
<g id="edge44" class="edge"><title>Node23&#45;&gt;Node17</title>
<path fill="none" stroke="midnightblue" d="M422.468,-133.562C434.014,-140.451 448.991,-150.527 460,-162 480.745,-183.62 475.969,-196.717 496,-219 510.434,-235.056 529.745,-250.076 544.734,-260.662"/>
<polygon fill="midnightblue" stroke="midnightblue" points="542.771,-263.56 552.99,-266.357 546.746,-257.798 542.771,-263.56"/>
</g>
<!-- Node23&#45;&gt;Node19 -->
<g id="edge45" class="edge"><title>Node23&#45;&gt;Node19</title>
<path fill="none" stroke="midnightblue" d="M446.132,-133.589C468.743,-138.86 496.9,-145.425 520.451,-150.915"/>
<polygon fill="midnightblue" stroke="midnightblue" points="519.7,-154.334 530.233,-153.195 521.289,-147.516 519.7,-154.334"/>
</g>
<!-- Node24 -->
<g id="node24" class="node"><title>Node24</title>
<g id="a_node24"><a xlink:href="ioapi_8h.html#a787fa3cf048117ba7123753c1e74fcd6" target="_top" xlink:title="int">
<polygon fill="white" stroke="black" points="554.5,-76.5 554.5,-95.5 583.5,-95.5 583.5,-76.5 554.5,-76.5"/>
<text text-anchor="middle" x="569" y="-83.5" font-family="Helvetica,sans-Serif" font-size="10.00">int</text>
</a>
</g>
</g>
<!-- Node23&#45;&gt;Node24 -->
<g id="edge39" class="edge"><title>Node23&#45;&gt;Node24</title>
<path fill="none" stroke="midnightblue" d="M446.132,-114.411C477.16,-107.177 518.632,-97.509 544.315,-91.5217"/>
<polygon fill="midnightblue" stroke="midnightblue" points="545.334,-94.878 554.278,-89.1989 543.745,-88.0608 545.334,-94.878"/>
</g>
</g>
</svg>
        <g id="navigator" transform="translate(0 0)" fill="#404254">
                <rect fill="#f2f5e9" fill-opacity="0.5" stroke="#606060" stroke-width=".5" x="0" y="0" width="60" height="60"/>
                <use id="zoomplus" xlink:href="#zoomPlus" x="17" y="9" onmousedown="handleZoom(evt,'in')"/>
                <use id="zoomminus" xlink:href="#zoomMin" x="42" y="9" onmousedown="handleZoom(evt,'out')"/>
                <use id="reset" xlink:href="#resetDef" x="30" y="36" onmousedown="handleReset()"/>
                <g id="arrowUp" xlink:href="#dirArrow" transform="translate(30 24)" onmousedown="handlePan(0,-1)">
                  <use xlink:href="#rim" fill="#404040">
                        <set attributeName="fill" to="#808080" begin="arrowUp.mouseover" end="arrowUp.mouseout"/>
                  </use>
                  <path fill="none" stroke="white" stroke-width="1.5" d="M0,-3.0v7 M-2.5,-0.5L0,-3.0L2.5,-0.5"/>
                </g>
                <g id="arrowRight" xlink:href="#dirArrow" transform="rotate(90) translate(36 -43)" onmousedown="handlePan(1,0)">
                  <use xlink:href="#rim" fill="#404040">
                        <set attributeName="fill" to="#808080" begin="arrowRight.mouseover" end="arrowRight.mouseout"/>
                  </use>
                  <path fill="none" stroke="white" stroke-width="1.5" d="M0,-3.0v7 M-2.5,-0.5L0,-3.0L2.5,-0.5"/>
                </g>
                <g id="arrowDown" xlink:href="#dirArrow" transform="rotate(180) translate(-30 -48)" onmousedown="handlePan(0,1)">
                  <use xlink:href="#rim" fill="#404040">
                        <set attributeName="fill" to="#808080" begin="arrowDown.mouseover" end="arrowDown.mouseout"/>
                  </use>
                  <path fill="none" stroke="white" stroke-width="1.5" d="M0,-3.0v7 M-2.5,-0.5L0,-3.0L2.5,-0.5"/>
                </g>
                <g id="arrowLeft" xlink:href="#dirArrow" transform="rotate(270) translate(-36 17)" onmousedown="handlePan(-1,0)">
                  <use xlink:href="#rim" fill="#404040">
                        <set attributeName="fill" to="#808080" begin="arrowLeft.mouseover" end="arrowLeft.mouseout"/>
                  </use>
                  <path fill="none" stroke="white" stroke-width="1.5" d="M0,-3.0v7 M-2.5,-0.5L0,-3.0L2.5,-0.5"/>
                </g>
        </g>
        <svg viewBox="0 0 15 15" width="100%" height="30px" preserveAspectRatio="xMaxYMin meet">
         <g id="arrow_out" transform="scale(0.3 0.3)">
          <a xlink:href="ar_multi_8h_a3c7f3daa5f4c73421e0cff3d654b954d_cgraph_org.svg" target="_base">
           <rect id="button" ry="5" rx="5" y="6" x="6" height="38" width="38"
                fill="#f2f5e9" fill-opacity="0.5" stroke="#606060" stroke-width="1.0"/>
           <path id="arrow"
             d="M 11.500037,31.436501 C 11.940474,20.09759 22.043105,11.32322 32.158766,21.979434 L 37.068811,17.246167 C 37.068811,17.246167 37.088388,32 37.088388,32 L 22.160133,31.978069 C 22.160133,31.978069 26.997745,27.140456 26.997745,27.140456 C 18.528582,18.264221 13.291696,25.230495 11.500037,31.436501 z"
             style="fill:#404040;"/>
          </a>
         </g>
        </svg>
</svg>
