<?xml version="1.0" encoding="UTF-8" standalone="no"?>
<!DOCTYPE svg PUBLIC "-//W3C//DTD SVG 1.1//EN"
 "http://www.w3.org/Graphics/SVG/1.1/DTD/svg11.dtd">
<!-- Generated by graphviz version 2.38.0 (20140413.2041)
 -->
<!-- Title: arUtilGetAndCreateResourcesDirectoryPath Pages: 1 -->
<svg width="764pt" height="170pt"
 viewBox="0.00 0.00 764.00 170.00" xmlns="http://www.w3.org/2000/svg" xmlns:xlink="http://www.w3.org/1999/xlink">
<g id="graph0" class="graph" transform="scale(1 1) rotate(0) translate(4 166)">
<title>arUtilGetAndCreateResourcesDirectoryPath</title>
<polygon fill="white" stroke="none" points="-4,4 -4,-166 760,-166 760,4 -4,4"/>
<!-- Node1 -->
<g id="node1" class="node"><title>Node1</title>
<polygon fill="#bfbfbf" stroke="black" points="0,-71 0,-101 149,-101 149,-71 0,-71"/>
<text text-anchor="start" x="8" y="-89" font-family="Helvetica,sans-Serif" font-size="10.00">arUtilGetAndCreateResources</text>
<text text-anchor="middle" x="74.5" y="-78" font-family="Helvetica,sans-Serif" font-size="10.00">DirectoryPath</text>
</g>
<!-- Node2 -->
<g id="node2" class="node"><title>Node2</title>
<g id="a_node2"><a xlink:href="ar_util_8c.html#ad5271b5188c065012893079f667e2eac" target="_top" xlink:title="Get the path to the resources directory using the specified behavior. ">
<polygon fill="white" stroke="black" points="393,-123.5 393,-142.5 556,-142.5 556,-123.5 393,-123.5"/>
<text text-anchor="middle" x="474.5" y="-130.5" font-family="Helvetica,sans-Serif" font-size="10.00">arUtilGetResourcesDirectoryPath</text>
</a>
</g>
</g>
<!-- Node1&#45;&gt;Node2 -->
<g id="edge1" class="edge"><title>Node1&#45;&gt;Node2</title>
<path fill="none" stroke="midnightblue" d="M149.009,-90.6569C161.014,-92.5208 173.336,-94.4243 185,-96 266.152,-106.963 360.706,-115.302 418.834,-122.235"/>
<polygon fill="midnightblue" stroke="midnightblue" points="418.548,-125.726 428.899,-123.469 419.4,-118.778 418.548,-125.726"/>
</g>
<!-- Node5 -->
<g id="node5" class="node"><title>Node5</title>
<g id="a_node5"><a xlink:href="file__utils_8c.html#a9ea670a576a1537cb0a8d35778c0bbbc" target="_top" xlink:title="test_d">
<polygon fill="white" stroke="black" points="249,-76.5 249,-95.5 293,-95.5 293,-76.5 249,-76.5"/>
<text text-anchor="middle" x="271" y="-83.5" font-family="Helvetica,sans-Serif" font-size="10.00">test_d</text>
</a>
</g>
</g>
<!-- Node1&#45;&gt;Node5 -->
<g id="edge6" class="edge"><title>Node1&#45;&gt;Node5</title>
<path fill="none" stroke="midnightblue" d="M149.032,-86C180.143,-86 214.704,-86 238.891,-86"/>
<polygon fill="midnightblue" stroke="midnightblue" points="238.902,-89.5001 248.902,-86 238.902,-82.5001 238.902,-89.5001"/>
</g>
<!-- Node6 -->
<g id="node6" class="node"><title>Node6</title>
<g id="a_node6"><a xlink:href="file__utils_8c.html#a6d0adb35b2ec47f5a5d3d9c2e424532a" target="_top" xlink:title="mkdir_p">
<polygon fill="white" stroke="black" points="245.5,-38.5 245.5,-57.5 296.5,-57.5 296.5,-38.5 245.5,-38.5"/>
<text text-anchor="middle" x="271" y="-45.5" font-family="Helvetica,sans-Serif" font-size="10.00">mkdir_p</text>
</a>
</g>
</g>
<!-- Node1&#45;&gt;Node6 -->
<g id="edge7" class="edge"><title>Node1&#45;&gt;Node6</title>
<path fill="none" stroke="midnightblue" d="M149.032,-71.6338C178.644,-65.8484 211.381,-59.4526 235.323,-54.775"/>
<polygon fill="midnightblue" stroke="midnightblue" points="236.192,-58.1714 245.336,-52.8187 234.85,-51.3012 236.192,-58.1714"/>
</g>
<!-- Node7 -->
<g id="node7" class="node"><title>Node7</title>
<g id="a_node7"><a xlink:href="ar_util_8c.html#acd9f679696c2c26b378e434f6d78ae7d" target="_top" xlink:title="Change to the resources directory using the specified behavior. ">
<polygon fill="white" stroke="black" points="185,-0.5 185,-19.5 357,-19.5 357,-0.5 185,-0.5"/>
<text text-anchor="middle" x="271" y="-7.5" font-family="Helvetica,sans-Serif" font-size="10.00">arUtilChangeToResourcesDirectory</text>
</a>
</g>
</g>
<!-- Node1&#45;&gt;Node7 -->
<g id="edge8" class="edge"><title>Node1&#45;&gt;Node7</title>
<path fill="none" stroke="midnightblue" d="M99.8804,-70.9513C121.533,-58.169 154.398,-40.1683 185,-29 192.191,-26.3756 199.862,-24.0461 207.542,-21.9976"/>
<polygon fill="midnightblue" stroke="midnightblue" points="208.399,-25.3912 217.239,-19.552 206.687,-18.6037 208.399,-25.3912"/>
</g>
<!-- Node2&#45;&gt;Node1 -->
<g id="edge5" class="edge"><title>Node2&#45;&gt;Node1</title>
<path fill="none" stroke="midnightblue" d="M392.791,-134.319C334.839,-130.948 254.941,-123.448 185,-114 164.321,-111.206 141.572,-107.382 122.192,-103.218"/>
<polygon fill="midnightblue" stroke="midnightblue" points="122.918,-99.7943 112.393,-101.014 121.381,-106.624 122.918,-99.7943"/>
</g>
<!-- Node2&#45;&gt;Node2 -->
<g id="edge4" class="edge"><title>Node2&#45;&gt;Node2</title>
<path fill="none" stroke="midnightblue" d="M443.982,-142.757C429.136,-151.565 439.309,-161 474.5,-161 499.244,-161 511.619,-156.336 511.625,-150.504"/>
<polygon fill="midnightblue" stroke="midnightblue" points="514.17,-148.094 505.018,-142.757 508.844,-152.637 514.17,-148.094"/>
</g>
<!-- Node3 -->
<g id="node3" class="node"><title>Node3</title>
<g id="a_node3"><a xlink:href="ar_util_8c.html#ae4f3e60c7edce9acfdddb9b454d13c1d" target="_top" xlink:title="arUtilGetDirectoryNameFromPath">
<polygon fill="white" stroke="black" points="592,-142.5 592,-161.5 756,-161.5 756,-142.5 592,-142.5"/>
<text text-anchor="middle" x="674" y="-149.5" font-family="Helvetica,sans-Serif" font-size="10.00">arUtilGetDirectoryNameFromPath</text>
</a>
</g>
</g>
<!-- Node2&#45;&gt;Node3 -->
<g id="edge2" class="edge"><title>Node2&#45;&gt;Node3</title>
<path fill="none" stroke="midnightblue" d="M556.116,-140.755C564.549,-141.567 573.164,-142.396 581.705,-143.217"/>
<polygon fill="midnightblue" stroke="midnightblue" points="581.392,-146.703 591.682,-144.177 582.063,-139.735 581.392,-146.703"/>
</g>
<!-- Node4 -->
<g id="node4" class="node"><title>Node4</title>
<g id="a_node4"><a xlink:href="ar_util_8c.html#ac0d48e09db3feb8db34b2911ca70f8d0" target="_top" xlink:title="arUtilGetFileNameFromPath">
<polygon fill="white" stroke="black" points="604,-104.5 604,-123.5 744,-123.5 744,-104.5 604,-104.5"/>
<text text-anchor="middle" x="674" y="-111.5" font-family="Helvetica,sans-Serif" font-size="10.00">arUtilGetFileNameFromPath</text>
</a>
</g>
</g>
<!-- Node2&#45;&gt;Node4 -->
<g id="edge3" class="edge"><title>Node2&#45;&gt;Node4</title>
<path fill="none" stroke="midnightblue" d="M556.116,-125.245C568.448,-124.058 581.172,-122.834 593.481,-121.65"/>
<polygon fill="midnightblue" stroke="midnightblue" points="594.086,-125.108 603.705,-120.666 593.416,-118.14 594.086,-125.108"/>
</g>
<!-- Node7&#45;&gt;Node2 -->
<g id="edge9" class="edge"><title>Node7&#45;&gt;Node2</title>
<path fill="none" stroke="midnightblue" d="M332.784,-19.5882C341.162,-22.0475 349.467,-25.1323 357,-29 399.747,-50.9481 439.144,-92.3541 459.341,-115.756"/>
<polygon fill="midnightblue" stroke="midnightblue" points="456.754,-118.117 465.884,-123.493 462.099,-113.598 456.754,-118.117"/>
</g>
</g>
</svg>
