<?xml version="1.0" encoding="UTF-8" standalone="no"?>
<!DOCTYPE svg PUBLIC "-//W3C//DTD SVG 1.1//EN"
 "http://www.w3.org/Graphics/SVG/1.1/DTD/svg11.dtd">
<!-- Generated by graphviz version 2.38.0 (20140413.2041)
 -->
<!-- Title: /bitrise/src/Source/AR6/ARG/arg_gles2.h Pages: 1 -->
<svg width="240pt" height="106pt"
 viewBox="0.00 0.00 239.50 106.00" xmlns="http://www.w3.org/2000/svg" xmlns:xlink="http://www.w3.org/1999/xlink">
<g id="graph0" class="graph" transform="scale(1 1) rotate(0) translate(4 102)">
<title>/bitrise/src/Source/AR6/ARG/arg_gles2.h</title>
<polygon fill="white" stroke="none" points="-4,4 -4,-102 235.5,-102 235.5,4 -4,4"/>
<!-- Node1 -->
<g id="node1" class="node"><title>Node1</title>
<polygon fill="#bfbfbf" stroke="black" points="51.5,-67.5 51.5,-97.5 168.5,-97.5 168.5,-67.5 51.5,-67.5"/>
<text text-anchor="start" x="59.5" y="-85.5" font-family="Helvetica,sans-Serif" font-size="10.00">/bitrise/src/Source</text>
<text text-anchor="middle" x="110" y="-74.5" font-family="Helvetica,sans-Serif" font-size="10.00">/AR6/ARG/arg_gles2.h</text>
</g>
<!-- Node2 -->
<g id="node2" class="node"><title>Node2</title>
<g id="a_node2"><a xlink:href="arg_8c.html" target="_top" xlink:title="/bitrise/src/Source\l/AR6/ARG/arg.c">
<polygon fill="white" stroke="black" points="0,-0.5 0,-30.5 96,-30.5 96,-0.5 0,-0.5"/>
<text text-anchor="start" x="8" y="-18.5" font-family="Helvetica,sans-Serif" font-size="10.00">/bitrise/src/Source</text>
<text text-anchor="middle" x="48" y="-7.5" font-family="Helvetica,sans-Serif" font-size="10.00">/AR6/ARG/arg.c</text>
</a>
</g>
</g>
<!-- Node1&#45;&gt;Node2 -->
<g id="edge1" class="edge"><title>Node1&#45;&gt;Node2</title>
<path fill="none" stroke="midnightblue" d="M89.5154,-60.0243C80.278,-50.3398 69.6274,-39.1739 61.4268,-30.5765"/>
<polygon fill="midnightblue" stroke="midnightblue" points="87.1121,-62.5756 96.5469,-67.396 92.1774,-57.7441 87.1121,-62.5756"/>
</g>
<!-- Node3 -->
<g id="node3" class="node"><title>Node3</title>
<g id="a_node3"><a xlink:href="arg__gles2_8c.html" target="_top" xlink:title="/bitrise/src/Source\l/AR6/ARG/arg_gles2.c">
<polygon fill="white" stroke="black" points="114.5,-0.5 114.5,-30.5 231.5,-30.5 231.5,-0.5 114.5,-0.5"/>
<text text-anchor="start" x="122.5" y="-18.5" font-family="Helvetica,sans-Serif" font-size="10.00">/bitrise/src/Source</text>
<text text-anchor="middle" x="173" y="-7.5" font-family="Helvetica,sans-Serif" font-size="10.00">/AR6/ARG/arg_gles2.c</text>
</a>
</g>
</g>
<!-- Node1&#45;&gt;Node3 -->
<g id="edge2" class="edge"><title>Node1&#45;&gt;Node3</title>
<path fill="none" stroke="midnightblue" d="M130.815,-60.0243C140.201,-50.3398 151.024,-39.1739 159.357,-30.5765"/>
<polygon fill="midnightblue" stroke="midnightblue" points="128.117,-57.7793 123.67,-67.396 133.143,-62.6512 128.117,-57.7793"/>
</g>
</g>
</svg>
