<?xml version="1.0" encoding="UTF-8" standalone="no"?>
<!DOCTYPE svg PUBLIC "-//W3C//DTD SVG 1.1//EN"
 "http://www.w3.org/Graphics/SVG/1.1/DTD/svg11.dtd">
<!-- Generated by graphviz version 2.38.0 (20140413.2041)
 -->
<!-- Title: /bitrise/src/Source/AR6/ARG/include/AR6/ARG/arg_mtx.h Pages: 1 -->
<svg width="128pt" height="117pt"
 viewBox="0.00 0.00 128.00 117.00" xmlns="http://www.w3.org/2000/svg" xmlns:xlink="http://www.w3.org/1999/xlink">
<g id="graph0" class="graph" transform="scale(1 1) rotate(0) translate(4 113)">
<title>/bitrise/src/Source/AR6/ARG/include/AR6/ARG/arg_mtx.h</title>
<polygon fill="white" stroke="none" points="-4,4 -4,-113 124,-113 124,4 -4,4"/>
<!-- Node1 -->
<g id="node1" class="node"><title>Node1</title>
<polygon fill="#bfbfbf" stroke="black" points="-7.10543e-15,-67.5 -7.10543e-15,-108.5 120,-108.5 120,-67.5 -7.10543e-15,-67.5"/>
<text text-anchor="start" x="8" y="-96.5" font-family="Helvetica,sans-Serif" font-size="10.00">/bitrise/src/Source</text>
<text text-anchor="start" x="8" y="-85.5" font-family="Helvetica,sans-Serif" font-size="10.00">/AR6/ARG/include/AR6</text>
<text text-anchor="middle" x="60" y="-74.5" font-family="Helvetica,sans-Serif" font-size="10.00">/ARG/arg_mtx.h</text>
</g>
<!-- Node2 -->
<g id="node2" class="node"><title>Node2</title>
<g id="a_node2"><a xlink:href="arg__mtx_8c.html" target="_top" xlink:title="/bitrise/src/Source\l/AR6/ARG/arg_mtx.c">
<polygon fill="white" stroke="black" points="5,-0.5 5,-30.5 115,-30.5 115,-0.5 5,-0.5"/>
<text text-anchor="start" x="13" y="-18.5" font-family="Helvetica,sans-Serif" font-size="10.00">/bitrise/src/Source</text>
<text text-anchor="middle" x="60" y="-7.5" font-family="Helvetica,sans-Serif" font-size="10.00">/AR6/ARG/arg_mtx.c</text>
</a>
</g>
</g>
<!-- Node1&#45;&gt;Node2 -->
<g id="edge1" class="edge"><title>Node1&#45;&gt;Node2</title>
<path fill="none" stroke="midnightblue" d="M60,-57.08C60,-48.0061 60,-38.4498 60,-30.8916"/>
<polygon fill="midnightblue" stroke="midnightblue" points="56.5001,-57.3618 60,-67.3618 63.5001,-57.3619 56.5001,-57.3618"/>
</g>
</g>
</svg>
