<?xml version="1.0" encoding="UTF-8" standalone="no"?>
<!DOCTYPE svg PUBLIC "-//W3C//DTD SVG 1.1//EN"
 "http://www.w3.org/Graphics/SVG/1.1/DTD/svg11.dtd">
<!-- Generated by graphviz version 2.38.0 (20140413.2041)
 -->
<!-- Title: /bitrise/src/Source/AR6/ARG/arg_private.h Pages: 1 -->
<svg width="484pt" height="173pt"
 viewBox="0.00 0.00 484.00 173.00" xmlns="http://www.w3.org/2000/svg" xmlns:xlink="http://www.w3.org/1999/xlink">
<g id="graph0" class="graph" transform="scale(1 1) rotate(0) translate(4 169)">
<title>/bitrise/src/Source/AR6/ARG/arg_private.h</title>
<polygon fill="white" stroke="none" points="-4,4 -4,-169 480,-169 480,4 -4,4"/>
<!-- Node1 -->
<g id="node1" class="node"><title>Node1</title>
<polygon fill="#bfbfbf" stroke="black" points="179,-134.5 179,-164.5 302,-164.5 302,-134.5 179,-134.5"/>
<text text-anchor="start" x="187" y="-152.5" font-family="Helvetica,sans-Serif" font-size="10.00">/bitrise/src/Source</text>
<text text-anchor="middle" x="240.5" y="-141.5" font-family="Helvetica,sans-Serif" font-size="10.00">/AR6/ARG/arg_private.h</text>
</g>
<!-- Node2 -->
<g id="node2" class="node"><title>Node2</title>
<g id="a_node2"><a xlink:href="arg__gl_8h.html" target="_top" xlink:title="/bitrise/src/Source\l/AR6/ARG/arg_gl.h">
<polygon fill="white" stroke="black" points="317,-67.5 317,-97.5 418,-97.5 418,-67.5 317,-67.5"/>
<text text-anchor="start" x="325" y="-85.5" font-family="Helvetica,sans-Serif" font-size="10.00">/bitrise/src/Source</text>
<text text-anchor="middle" x="367.5" y="-74.5" font-family="Helvetica,sans-Serif" font-size="10.00">/AR6/ARG/arg_gl.h</text>
</a>
</g>
</g>
<!-- Node1&#45;&gt;Node2 -->
<g id="edge1" class="edge"><title>Node1&#45;&gt;Node2</title>
<path fill="none" stroke="midnightblue" d="M277.204,-129.714C297.234,-119.463 321.619,-106.983 339.997,-97.5765"/>
<polygon fill="midnightblue" stroke="midnightblue" points="275.364,-126.724 268.057,-134.396 278.554,-132.956 275.364,-126.724"/>
</g>
<!-- Node5 -->
<g id="node5" class="node"><title>Node5</title>
<g id="a_node5"><a xlink:href="arg__gl3_8h.html" target="_top" xlink:title="/bitrise/src/Source\l/AR6/ARG/arg_gl3.h">
<polygon fill="white" stroke="black" points="57,-67.5 57,-97.5 164,-97.5 164,-67.5 57,-67.5"/>
<text text-anchor="start" x="65" y="-85.5" font-family="Helvetica,sans-Serif" font-size="10.00">/bitrise/src/Source</text>
<text text-anchor="middle" x="110.5" y="-74.5" font-family="Helvetica,sans-Serif" font-size="10.00">/AR6/ARG/arg_gl3.h</text>
</a>
</g>
</g>
<!-- Node1&#45;&gt;Node5 -->
<g id="edge4" class="edge"><title>Node1&#45;&gt;Node5</title>
<path fill="none" stroke="midnightblue" d="M203.207,-129.853C182.652,-119.576 157.55,-107.025 138.653,-97.5765"/>
<polygon fill="midnightblue" stroke="midnightblue" points="201.782,-133.054 212.292,-134.396 204.913,-126.793 201.782,-133.054"/>
</g>
<!-- Node7 -->
<g id="node7" class="node"><title>Node7</title>
<g id="a_node7"><a xlink:href="arg__gles2_8h.html" target="_top" xlink:title="/bitrise/src/Source\l/AR6/ARG/arg_gles2.h">
<polygon fill="white" stroke="black" points="182,-67.5 182,-97.5 299,-97.5 299,-67.5 182,-67.5"/>
<text text-anchor="start" x="190" y="-85.5" font-family="Helvetica,sans-Serif" font-size="10.00">/bitrise/src/Source</text>
<text text-anchor="middle" x="240.5" y="-74.5" font-family="Helvetica,sans-Serif" font-size="10.00">/AR6/ARG/arg_gles2.h</text>
</a>
</g>
</g>
<!-- Node1&#45;&gt;Node7 -->
<g id="edge7" class="edge"><title>Node1&#45;&gt;Node7</title>
<path fill="none" stroke="midnightblue" d="M240.5,-124.108C240.5,-115.154 240.5,-105.323 240.5,-97.5765"/>
<polygon fill="midnightblue" stroke="midnightblue" points="237,-124.396 240.5,-134.396 244,-124.396 237,-124.396"/>
</g>
<!-- Node3 -->
<g id="node3" class="node"><title>Node3</title>
<g id="a_node3"><a xlink:href="arg_8c.html" target="_top" xlink:title="/bitrise/src/Source\l/AR6/ARG/arg.c">
<polygon fill="white" stroke="black" points="125.5,-0.5 125.5,-30.5 221.5,-30.5 221.5,-0.5 125.5,-0.5"/>
<text text-anchor="start" x="133.5" y="-18.5" font-family="Helvetica,sans-Serif" font-size="10.00">/bitrise/src/Source</text>
<text text-anchor="middle" x="173.5" y="-7.5" font-family="Helvetica,sans-Serif" font-size="10.00">/AR6/ARG/arg.c</text>
</a>
</g>
</g>
<!-- Node2&#45;&gt;Node3 -->
<g id="edge2" class="edge"><title>Node2&#45;&gt;Node3</title>
<path fill="none" stroke="midnightblue" d="M315.543,-64.0917C284.226,-53.5988 244.857,-40.4082 215.513,-30.5765"/>
<polygon fill="midnightblue" stroke="midnightblue" points="314.811,-67.5376 325.405,-67.396 317.035,-60.9003 314.811,-67.5376"/>
</g>
<!-- Node4 -->
<g id="node4" class="node"><title>Node4</title>
<g id="a_node4"><a xlink:href="arg__gl_8c.html" target="_top" xlink:title="/bitrise/src/Source\l/AR6/ARG/arg_gl.c">
<polygon fill="white" stroke="black" points="375,-0.5 375,-30.5 476,-30.5 476,-0.5 375,-0.5"/>
<text text-anchor="start" x="383" y="-18.5" font-family="Helvetica,sans-Serif" font-size="10.00">/bitrise/src/Source</text>
<text text-anchor="middle" x="425.5" y="-7.5" font-family="Helvetica,sans-Serif" font-size="10.00">/AR6/ARG/arg_gl.c</text>
</a>
</g>
</g>
<!-- Node2&#45;&gt;Node4 -->
<g id="edge3" class="edge"><title>Node2&#45;&gt;Node4</title>
<path fill="none" stroke="midnightblue" d="M386.92,-59.7362C395.502,-50.119 405.344,-39.0888 412.939,-30.5765"/>
<polygon fill="midnightblue" stroke="midnightblue" points="384.132,-57.6043 380.085,-67.396 389.355,-62.2648 384.132,-57.6043"/>
</g>
<!-- Node5&#45;&gt;Node3 -->
<g id="edge5" class="edge"><title>Node5&#45;&gt;Node3</title>
<path fill="none" stroke="midnightblue" d="M131.315,-60.0243C140.701,-50.3398 151.524,-39.1739 159.857,-30.5765"/>
<polygon fill="midnightblue" stroke="midnightblue" points="128.617,-57.7793 124.17,-67.396 133.643,-62.6512 128.617,-57.7793"/>
</g>
<!-- Node6 -->
<g id="node6" class="node"><title>Node6</title>
<g id="a_node6"><a xlink:href="arg__gl3_8c.html" target="_top" xlink:title="/bitrise/src/Source\l/AR6/ARG/arg_gl3.c">
<polygon fill="white" stroke="black" points="0,-0.5 0,-30.5 107,-30.5 107,-0.5 0,-0.5"/>
<text text-anchor="start" x="8" y="-18.5" font-family="Helvetica,sans-Serif" font-size="10.00">/bitrise/src/Source</text>
<text text-anchor="middle" x="53.5" y="-7.5" font-family="Helvetica,sans-Serif" font-size="10.00">/AR6/ARG/arg_gl3.c</text>
</a>
</g>
</g>
<!-- Node5&#45;&gt;Node6 -->
<g id="edge6" class="edge"><title>Node5&#45;&gt;Node6</title>
<path fill="none" stroke="midnightblue" d="M91.4148,-59.7362C82.9813,-50.119 73.3086,-39.0888 65.844,-30.5765"/>
<polygon fill="midnightblue" stroke="midnightblue" points="88.9071,-62.185 98.1318,-67.396 94.1701,-57.5697 88.9071,-62.185"/>
</g>
<!-- Node7&#45;&gt;Node3 -->
<g id="edge8" class="edge"><title>Node7&#45;&gt;Node3</title>
<path fill="none" stroke="midnightblue" d="M218.66,-60.3115C208.609,-50.5612 196.959,-39.259 188.01,-30.5765"/>
<polygon fill="midnightblue" stroke="midnightblue" points="216.347,-62.9449 225.962,-67.396 221.222,-57.9207 216.347,-62.9449"/>
</g>
<!-- Node8 -->
<g id="node8" class="node"><title>Node8</title>
<g id="a_node8"><a xlink:href="arg__gles2_8c.html" target="_top" xlink:title="/bitrise/src/Source\l/AR6/ARG/arg_gles2.c">
<polygon fill="white" stroke="black" points="240,-0.5 240,-30.5 357,-30.5 357,-0.5 240,-0.5"/>
<text text-anchor="start" x="248" y="-18.5" font-family="Helvetica,sans-Serif" font-size="10.00">/bitrise/src/Source</text>
<text text-anchor="middle" x="298.5" y="-7.5" font-family="Helvetica,sans-Serif" font-size="10.00">/AR6/ARG/arg_gles2.c</text>
</a>
</g>
</g>
<!-- Node7&#45;&gt;Node8 -->
<g id="edge9" class="edge"><title>Node7&#45;&gt;Node8</title>
<path fill="none" stroke="midnightblue" d="M259.92,-59.7362C268.502,-50.119 278.344,-39.0888 285.939,-30.5765"/>
<polygon fill="midnightblue" stroke="midnightblue" points="257.132,-57.6043 253.085,-67.396 262.355,-62.2648 257.132,-57.6043"/>
</g>
</g>
</svg>
