<?xml version="1.0" encoding="UTF-8" standalone="no"?>
<!DOCTYPE svg PUBLIC "-//W3C//DTD SVG 1.1//EN"
 "http://www.w3.org/Graphics/SVG/1.1/DTD/svg11.dtd">
<!-- Generated by graphviz version 2.38.0 (20140413.2041)
 -->
<!-- Title: /bitrise/src/Source/AR6/ARG/arg.c Pages: 1 -->
<svg width="923pt" height="375pt"
 viewBox="0.00 0.00 922.50 375.00" xmlns="http://www.w3.org/2000/svg" xmlns:xlink="http://www.w3.org/1999/xlink">
<g id="graph0" class="graph" transform="scale(1 1) rotate(0) translate(4 371)">
<title>/bitrise/src/Source/AR6/ARG/arg.c</title>
<polygon fill="white" stroke="none" points="-4,4 -4,-371 918.5,-371 918.5,4 -4,4"/>
<!-- Node1 -->
<g id="node1" class="node"><title>Node1</title>
<polygon fill="#bfbfbf" stroke="black" points="167.5,-336.5 167.5,-366.5 263.5,-366.5 263.5,-336.5 167.5,-336.5"/>
<text text-anchor="start" x="175.5" y="-354.5" font-family="Helvetica,sans-Serif" font-size="10.00">/bitrise/src/Source</text>
<text text-anchor="middle" x="215.5" y="-343.5" font-family="Helvetica,sans-Serif" font-size="10.00">/AR6/ARG/arg.c</text>
</g>
<!-- Node2 -->
<g id="node2" class="node"><title>Node2</title>
<g id="a_node2"><a xlink:href="arg_8h.html" target="_top" xlink:title="A collection of useful graphics routines for ARToolKit. ">
<polygon fill="white" stroke="black" points="303.5,-168.5 303.5,-187.5 389.5,-187.5 389.5,-168.5 303.5,-168.5"/>
<text text-anchor="middle" x="346.5" y="-175.5" font-family="Helvetica,sans-Serif" font-size="10.00">AR6/ARG/arg.h</text>
</a>
</g>
</g>
<!-- Node1&#45;&gt;Node2 -->
<g id="edge1" class="edge"><title>Node1&#45;&gt;Node2</title>
<path fill="none" stroke="midnightblue" d="M263.678,-339.773C286.114,-332.316 311.176,-319.998 326.5,-300 349.41,-270.101 350.207,-223.743 348.513,-197.951"/>
<polygon fill="midnightblue" stroke="midnightblue" points="351.974,-197.345 347.63,-187.681 345,-197.945 351.974,-197.345"/>
</g>
<!-- Node7 -->
<g id="node7" class="node"><title>Node7</title>
<polygon fill="white" stroke="#bfbfbf" points="0,-0.5 0,-19.5 49,-19.5 49,-0.5 0,-0.5"/>
<text text-anchor="middle" x="24.5" y="-7.5" font-family="Helvetica,sans-Serif" font-size="10.00">string.h</text>
</g>
<!-- Node1&#45;&gt;Node7 -->
<g id="edge25" class="edge"><title>Node1&#45;&gt;Node7</title>
<path fill="none" stroke="midnightblue" d="M167.474,-345.718C104.38,-336.484 1.5,-309.938 1.5,-235 1.5,-235 1.5,-235 1.5,-121 1.5,-88.12 11.4676,-50.8595 18.2792,-29.2353"/>
<polygon fill="midnightblue" stroke="midnightblue" points="21.6123,-30.3032 21.3981,-19.7105 14.9599,-28.1248 21.6123,-30.3032"/>
</g>
<!-- Node19 -->
<g id="node19" class="node"><title>Node19</title>
<g id="a_node19"><a xlink:href="arg__gl_8h.html" target="_top" xlink:title="arg_gl.h">
<polygon fill="white" stroke="black" points="267,-280.5 267,-299.5 318,-299.5 318,-280.5 267,-280.5"/>
<text text-anchor="middle" x="292.5" y="-287.5" font-family="Helvetica,sans-Serif" font-size="10.00">arg_gl.h</text>
</a>
</g>
</g>
<!-- Node1&#45;&gt;Node19 -->
<g id="edge26" class="edge"><title>Node1&#45;&gt;Node19</title>
<path fill="none" stroke="midnightblue" d="M233.748,-336.399C245.629,-327.218 261.107,-315.258 273.194,-305.918"/>
<polygon fill="midnightblue" stroke="midnightblue" points="275.523,-308.542 281.296,-299.658 271.243,-303.003 275.523,-308.542"/>
</g>
<!-- Node21 -->
<g id="node21" class="node"><title>Node21</title>
<g id="a_node21"><a xlink:href="arg__gl3_8h.html" target="_top" xlink:title="arg_gl3.h">
<polygon fill="white" stroke="black" points="107.5,-280.5 107.5,-299.5 163.5,-299.5 163.5,-280.5 107.5,-280.5"/>
<text text-anchor="middle" x="135.5" y="-287.5" font-family="Helvetica,sans-Serif" font-size="10.00">arg_gl3.h</text>
</a>
</g>
</g>
<!-- Node1&#45;&gt;Node21 -->
<g id="edge29" class="edge"><title>Node1&#45;&gt;Node21</title>
<path fill="none" stroke="midnightblue" d="M196.541,-336.399C184.077,-327.129 167.803,-315.025 155.193,-305.647"/>
<polygon fill="midnightblue" stroke="midnightblue" points="157.253,-302.817 147.141,-299.658 153.076,-308.434 157.253,-302.817"/>
</g>
<!-- Node22 -->
<g id="node22" class="node"><title>Node22</title>
<g id="a_node22"><a xlink:href="arg__gles2_8h.html" target="_top" xlink:title="arg_gles2.h">
<polygon fill="white" stroke="black" points="182,-280.5 182,-299.5 249,-299.5 249,-280.5 182,-280.5"/>
<text text-anchor="middle" x="215.5" y="-287.5" font-family="Helvetica,sans-Serif" font-size="10.00">arg_gles2.h</text>
</a>
</g>
</g>
<!-- Node1&#45;&gt;Node22 -->
<g id="edge31" class="edge"><title>Node1&#45;&gt;Node22</title>
<path fill="none" stroke="midnightblue" d="M215.5,-336.399C215.5,-328.466 215.5,-318.458 215.5,-309.858"/>
<polygon fill="midnightblue" stroke="midnightblue" points="219,-309.658 215.5,-299.658 212,-309.658 219,-309.658"/>
</g>
<!-- Node3 -->
<g id="node3" class="node"><title>Node3</title>
<g id="a_node3"><a xlink:href="ar_8h.html" target="_top" xlink:title="ARToolKit core routines. ">
<polygon fill="white" stroke="black" points="389,-112.5 389,-131.5 462,-131.5 462,-112.5 389,-112.5"/>
<text text-anchor="middle" x="425.5" y="-119.5" font-family="Helvetica,sans-Serif" font-size="10.00">AR6/AR/ar.h</text>
</a>
</g>
</g>
<!-- Node2&#45;&gt;Node3 -->
<g id="edge2" class="edge"><title>Node2&#45;&gt;Node3</title>
<path fill="none" stroke="midnightblue" d="M359.193,-168.324C371.401,-159.979 390.078,-147.212 404.503,-137.352"/>
<polygon fill="midnightblue" stroke="midnightblue" points="406.558,-140.187 412.839,-131.655 402.608,-134.408 406.558,-140.187"/>
</g>
<!-- Node4 -->
<g id="node4" class="node"><title>Node4</title>
<polygon fill="white" stroke="#bfbfbf" points="287.5,-0.5 287.5,-19.5 333.5,-19.5 333.5,-0.5 287.5,-0.5"/>
<text text-anchor="middle" x="310.5" y="-7.5" font-family="Helvetica,sans-Serif" font-size="10.00">stdio.h</text>
</g>
<!-- Node3&#45;&gt;Node4 -->
<g id="edge3" class="edge"><title>Node3&#45;&gt;Node4</title>
<path fill="none" stroke="midnightblue" d="M388.744,-116.838C362.826,-111.793 329.77,-100.642 312.5,-76 303.195,-62.7225 303.7,-43.8867 305.937,-29.9071"/>
<polygon fill="midnightblue" stroke="midnightblue" points="309.402,-30.4303 307.949,-19.9357 302.54,-29.0462 309.402,-30.4303"/>
</g>
<!-- Node5 -->
<g id="node5" class="node"><title>Node5</title>
<polygon fill="white" stroke="#bfbfbf" points="67.5,-0.5 67.5,-19.5 115.5,-19.5 115.5,-0.5 67.5,-0.5"/>
<text text-anchor="middle" x="91.5" y="-7.5" font-family="Helvetica,sans-Serif" font-size="10.00">stdlib.h</text>
</g>
<!-- Node3&#45;&gt;Node5 -->
<g id="edge4" class="edge"><title>Node3&#45;&gt;Node5</title>
<path fill="none" stroke="midnightblue" d="M388.81,-121.512C311.491,-121.749 135.695,-117.585 96.5,-76 85.1177,-63.9236 85.1337,-44.3577 87.225,-29.8433"/>
<polygon fill="midnightblue" stroke="midnightblue" points="90.6799,-30.4089 89.0745,-19.9364 83.7987,-29.1242 90.6799,-30.4089"/>
</g>
<!-- Node6 -->
<g id="node6" class="node"><title>Node6</title>
<polygon fill="white" stroke="#bfbfbf" points="106,-56.5 106,-75.5 155,-75.5 155,-56.5 106,-56.5"/>
<text text-anchor="middle" x="130.5" y="-63.5" font-family="Helvetica,sans-Serif" font-size="10.00">stdint.h</text>
</g>
<!-- Node3&#45;&gt;Node6 -->
<g id="edge5" class="edge"><title>Node3&#45;&gt;Node6</title>
<path fill="none" stroke="midnightblue" d="M388.992,-115.744C340.225,-108.496 250.958,-94.4377 165.216,-75.9923"/>
<polygon fill="midnightblue" stroke="midnightblue" points="165.837,-72.5455 155.321,-73.8403 164.349,-79.3856 165.837,-72.5455"/>
</g>
<!-- Node3&#45;&gt;Node7 -->
<g id="edge6" class="edge"><title>Node3&#45;&gt;Node7</title>
<path fill="none" stroke="midnightblue" d="M388.878,-119.352C311.887,-115.379 136.025,-103.498 83.5,-76 62.4792,-64.9952 45.205,-43.3353 34.8949,-28.0503"/>
<polygon fill="midnightblue" stroke="midnightblue" points="37.7559,-26.0283 29.4041,-19.5093 31.8677,-29.8137 37.7559,-26.0283"/>
</g>
<!-- Node8 -->
<g id="node8" class="node"><title>Node8</title>
<polygon fill="white" stroke="#bfbfbf" points="655,-0.5 655,-19.5 746,-19.5 746,-0.5 655,-0.5"/>
<text text-anchor="middle" x="700.5" y="-7.5" font-family="Helvetica,sans-Serif" font-size="10.00">AR6/AR/config.h</text>
</g>
<!-- Node3&#45;&gt;Node8 -->
<g id="edge7" class="edge"><title>Node3&#45;&gt;Node8</title>
<path fill="none" stroke="midnightblue" d="M462.249,-119.656C506.403,-116.639 581.524,-106.951 637.5,-76 658.684,-64.2867 677.183,-43.1373 688.56,-28.1473"/>
<polygon fill="midnightblue" stroke="midnightblue" points="691.619,-29.8917 694.683,-19.7494 685.963,-25.7676 691.619,-29.8917"/>
</g>
<!-- Node9 -->
<g id="node9" class="node"><title>Node9</title>
<g id="a_node9"><a xlink:href="ar_config_8h.html" target="_top" xlink:title="AR6/AR/arConfig.h">
<polygon fill="white" stroke="black" points="322,-56.5 322,-75.5 423,-75.5 423,-56.5 322,-56.5"/>
<text text-anchor="middle" x="372.5" y="-63.5" font-family="Helvetica,sans-Serif" font-size="10.00">AR6/AR/arConfig.h</text>
</a>
</g>
</g>
<!-- Node3&#45;&gt;Node9 -->
<g id="edge8" class="edge"><title>Node3&#45;&gt;Node9</title>
<path fill="none" stroke="midnightblue" d="M416.748,-112.083C409.03,-104.22 397.595,-92.5688 388.283,-83.0813"/>
<polygon fill="midnightblue" stroke="midnightblue" points="390.592,-80.4363 381.089,-75.7511 385.596,-85.3396 390.592,-80.4363"/>
</g>
<!-- Node10 -->
<g id="node10" class="node"><title>Node10</title>
<g id="a_node10"><a xlink:href="log_8h.html" target="_top" xlink:title="Logging utilities. ">
<polygon fill="white" stroke="black" points="173.5,-56.5 173.5,-75.5 265.5,-75.5 265.5,-56.5 173.5,-56.5"/>
<text text-anchor="middle" x="219.5" y="-63.5" font-family="Helvetica,sans-Serif" font-size="10.00">AR6/ARUtil/log.h</text>
</a>
</g>
</g>
<!-- Node3&#45;&gt;Node10 -->
<g id="edge9" class="edge"><title>Node3&#45;&gt;Node10</title>
<path fill="none" stroke="midnightblue" d="M392.859,-112.444C357.45,-103.162 300.791,-88.3093 261.947,-78.127"/>
<polygon fill="midnightblue" stroke="midnightblue" points="262.549,-74.6666 251.989,-75.5164 260.774,-81.4378 262.549,-74.6666"/>
</g>
<!-- Node13 -->
<g id="node13" class="node"><title>Node13</title>
<g id="a_node13"><a xlink:href="_a_r_2include_2_a_r6_2_a_r_2matrix_8h.html" target="_top" xlink:title="AR6/AR/matrix.h">
<polygon fill="white" stroke="black" points="822.5,-56.5 822.5,-75.5 914.5,-75.5 914.5,-56.5 822.5,-56.5"/>
<text text-anchor="middle" x="868.5" y="-63.5" font-family="Helvetica,sans-Serif" font-size="10.00">AR6/AR/matrix.h</text>
</a>
</g>
</g>
<!-- Node3&#45;&gt;Node13 -->
<g id="edge15" class="edge"><title>Node3&#45;&gt;Node13</title>
<path fill="none" stroke="midnightblue" d="M462.217,-117.32C529.493,-110.451 677.274,-94.784 812.206,-76.1253"/>
<polygon fill="midnightblue" stroke="midnightblue" points="812.888,-79.5642 822.31,-74.719 811.923,-72.631 812.888,-79.5642"/>
</g>
<!-- Node15 -->
<g id="node15" class="node"><title>Node15</title>
<g id="a_node15"><a xlink:href="icp_8h.html" target="_top" xlink:title="AR6/AR/icp.h">
<polygon fill="white" stroke="black" points="441,-56.5 441,-75.5 518,-75.5 518,-56.5 441,-56.5"/>
<text text-anchor="middle" x="479.5" y="-63.5" font-family="Helvetica,sans-Serif" font-size="10.00">AR6/AR/icp.h</text>
</a>
</g>
</g>
<!-- Node3&#45;&gt;Node15 -->
<g id="edge17" class="edge"><title>Node3&#45;&gt;Node15</title>
<path fill="none" stroke="midnightblue" d="M434.417,-112.083C442.28,-104.22 453.931,-92.5688 463.419,-83.0813"/>
<polygon fill="midnightblue" stroke="midnightblue" points="466.153,-85.2971 470.749,-75.7511 461.203,-80.3473 466.153,-85.2971"/>
</g>
<!-- Node17 -->
<g id="node17" class="node"><title>Node17</title>
<g id="a_node17"><a xlink:href="param_8h.html" target="_top" xlink:title="ARToolKit functions for handling calibrated camera parameters. ">
<polygon fill="white" stroke="black" points="536.5,-56.5 536.5,-75.5 628.5,-75.5 628.5,-56.5 536.5,-56.5"/>
<text text-anchor="middle" x="582.5" y="-63.5" font-family="Helvetica,sans-Serif" font-size="10.00">AR6/AR/param.h</text>
</a>
</g>
</g>
<!-- Node3&#45;&gt;Node17 -->
<g id="edge20" class="edge"><title>Node3&#45;&gt;Node17</title>
<path fill="none" stroke="midnightblue" d="M445.288,-112.444C469.814,-103.32 511.797,-88.8133 542.958,-78.6509"/>
<polygon fill="midnightblue" stroke="midnightblue" points="544.22,-81.9215 552.659,-75.5164 542.068,-75.2606 544.22,-81.9215"/>
</g>
<!-- Node18 -->
<g id="node18" class="node"><title>Node18</title>
<g id="a_node18"><a xlink:href="ar_image_proc_8h.html" target="_top" xlink:title="ARToolKit functions for 2D luminance image processing. ">
<polygon fill="white" stroke="black" points="684.5,-56.5 684.5,-75.5 804.5,-75.5 804.5,-56.5 684.5,-56.5"/>
<text text-anchor="middle" x="744.5" y="-63.5" font-family="Helvetica,sans-Serif" font-size="10.00">AR6/AR/arImageProc.h</text>
</a>
</g>
</g>
<!-- Node3&#45;&gt;Node18 -->
<g id="edge22" class="edge"><title>Node3&#45;&gt;Node18</title>
<path fill="none" stroke="midnightblue" d="M462.16,-113.996C515.073,-104.623 613.411,-87.9374 678.964,-77.1772"/>
<polygon fill="midnightblue" stroke="midnightblue" points="679.888,-80.5726 689.191,-75.5032 678.757,-73.6645 679.888,-80.5726"/>
</g>
<!-- Node10&#45;&gt;Node4 -->
<g id="edge10" class="edge"><title>Node10&#45;&gt;Node4</title>
<path fill="none" stroke="midnightblue" d="M234.121,-56.324C248.449,-47.8215 270.513,-34.7288 287.249,-24.7975"/>
<polygon fill="midnightblue" stroke="midnightblue" points="289.102,-27.7677 295.916,-19.6545 285.53,-21.7478 289.102,-27.7677"/>
</g>
<!-- Node10&#45;&gt;Node5 -->
<g id="edge11" class="edge"><title>Node10&#45;&gt;Node5</title>
<path fill="none" stroke="midnightblue" d="M199.218,-56.4435C178.153,-47.5566 144.983,-33.5632 121.014,-23.4514"/>
<polygon fill="midnightblue" stroke="midnightblue" points="122.261,-20.1787 111.687,-19.5164 119.54,-26.6283 122.261,-20.1787"/>
</g>
<!-- Node10&#45;&gt;Node7 -->
<g id="edge12" class="edge"><title>Node10&#45;&gt;Node7</title>
<path fill="none" stroke="midnightblue" d="M188.602,-56.4435C153.263,-46.6574 95.5642,-30.6793 58.8442,-20.5107"/>
<polygon fill="midnightblue" stroke="midnightblue" points="59.651,-17.1025 49.0796,-17.8067 57.7828,-23.8486 59.651,-17.1025"/>
</g>
<!-- Node11 -->
<g id="node11" class="node"><title>Node11</title>
<polygon fill="white" stroke="#bfbfbf" points="133.5,-0.5 133.5,-19.5 185.5,-19.5 185.5,-0.5 133.5,-0.5"/>
<text text-anchor="middle" x="159.5" y="-7.5" font-family="Helvetica,sans-Serif" font-size="10.00">stdarg.h</text>
</g>
<!-- Node10&#45;&gt;Node11 -->
<g id="edge13" class="edge"><title>Node10&#45;&gt;Node11</title>
<path fill="none" stroke="midnightblue" d="M209.86,-56.324C200.99,-48.3414 187.625,-36.3128 176.892,-26.6529"/>
<polygon fill="midnightblue" stroke="midnightblue" points="179.09,-23.922 169.315,-19.8339 174.407,-29.1251 179.09,-23.922"/>
</g>
<!-- Node12 -->
<g id="node12" class="node"><title>Node12</title>
<polygon fill="white" stroke="#bfbfbf" points="204,-0.5 204,-19.5 269,-19.5 269,-0.5 204,-0.5"/>
<text text-anchor="middle" x="236.5" y="-7.5" font-family="Helvetica,sans-Serif" font-size="10.00">sys/errno.h</text>
</g>
<!-- Node10&#45;&gt;Node12 -->
<g id="edge14" class="edge"><title>Node10&#45;&gt;Node12</title>
<path fill="none" stroke="midnightblue" d="M222.307,-56.083C224.585,-48.8486 227.871,-38.4087 230.708,-29.3968"/>
<polygon fill="midnightblue" stroke="midnightblue" points="234.081,-30.3406 233.745,-19.7511 227.404,-28.2385 234.081,-30.3406"/>
</g>
<!-- Node14 -->
<g id="node14" class="node"><title>Node14</title>
<polygon fill="white" stroke="#bfbfbf" points="845,-0.5 845,-19.5 892,-19.5 892,-0.5 845,-0.5"/>
<text text-anchor="middle" x="868.5" y="-7.5" font-family="Helvetica,sans-Serif" font-size="10.00">math.h</text>
</g>
<!-- Node13&#45;&gt;Node14 -->
<g id="edge16" class="edge"><title>Node13&#45;&gt;Node14</title>
<path fill="none" stroke="midnightblue" d="M868.5,-56.083C868.5,-49.0059 868.5,-38.8611 868.5,-29.9865"/>
<polygon fill="midnightblue" stroke="midnightblue" points="872,-29.751 868.5,-19.7511 865,-29.7511 872,-29.751"/>
</g>
<!-- Node15&#45;&gt;Node4 -->
<g id="edge18" class="edge"><title>Node15&#45;&gt;Node4</title>
<path fill="none" stroke="midnightblue" d="M452.721,-56.4435C423.075,-46.9707 375.271,-31.6961 343.376,-21.5048"/>
<polygon fill="midnightblue" stroke="midnightblue" points="344.214,-18.0982 333.623,-18.3884 342.083,-24.7661 344.214,-18.0982"/>
</g>
<!-- Node16 -->
<g id="node16" class="node"><title>Node16</title>
<g id="a_node16"><a xlink:href="icp_core_8h.html" target="_top" xlink:title="AR6/AR/icpCore.h">
<polygon fill="white" stroke="black" points="430.5,-0.5 430.5,-19.5 528.5,-19.5 528.5,-0.5 430.5,-0.5"/>
<text text-anchor="middle" x="479.5" y="-7.5" font-family="Helvetica,sans-Serif" font-size="10.00">AR6/AR/icpCore.h</text>
</a>
</g>
</g>
<!-- Node15&#45;&gt;Node16 -->
<g id="edge19" class="edge"><title>Node15&#45;&gt;Node16</title>
<path fill="none" stroke="midnightblue" d="M479.5,-56.083C479.5,-49.0059 479.5,-38.8611 479.5,-29.9865"/>
<polygon fill="midnightblue" stroke="midnightblue" points="483,-29.751 479.5,-19.7511 476,-29.7511 483,-29.751"/>
</g>
<!-- Node17&#45;&gt;Node3 -->
<g id="edge21" class="edge"><title>Node17&#45;&gt;Node3</title>
<path fill="none" stroke="midnightblue" d="M562.819,-75.5164C538.345,-84.6246 496.372,-99.1294 465.179,-109.304"/>
<polygon fill="midnightblue" stroke="midnightblue" points="463.905,-106.038 455.466,-112.444 466.058,-112.699 463.905,-106.038"/>
</g>
<!-- Node18&#45;&gt;Node3 -->
<g id="edge24" class="edge"><title>Node18&#45;&gt;Node3</title>
<path fill="none" stroke="midnightblue" d="M699.152,-75.5373C638.889,-86.1326 533.181,-104.008 472.23,-113.893"/>
<polygon fill="midnightblue" stroke="midnightblue" points="471.433,-110.476 462.118,-115.525 472.548,-117.386 471.433,-110.476"/>
</g>
<!-- Node18&#45;&gt;Node8 -->
<g id="edge23" class="edge"><title>Node18&#45;&gt;Node8</title>
<path fill="none" stroke="midnightblue" d="M737.234,-56.083C730.955,-48.3768 721.712,-37.0333 714.069,-27.6531"/>
<polygon fill="midnightblue" stroke="midnightblue" points="716.661,-25.2926 707.631,-19.7511 711.234,-29.7143 716.661,-25.2926"/>
</g>
<!-- Node20 -->
<g id="node20" class="node"><title>Node20</title>
<g id="a_node20"><a xlink:href="arg__private_8h.html" target="_top" xlink:title="arg_private.h">
<polygon fill="white" stroke="black" points="212,-224.5 212,-243.5 285,-243.5 285,-224.5 212,-224.5"/>
<text text-anchor="middle" x="248.5" y="-231.5" font-family="Helvetica,sans-Serif" font-size="10.00">arg_private.h</text>
</a>
</g>
</g>
<!-- Node19&#45;&gt;Node20 -->
<g id="edge27" class="edge"><title>Node19&#45;&gt;Node20</title>
<path fill="none" stroke="midnightblue" d="M285.234,-280.083C278.955,-272.377 269.712,-261.033 262.069,-251.653"/>
<polygon fill="midnightblue" stroke="midnightblue" points="264.661,-249.293 255.631,-243.751 259.234,-253.714 264.661,-249.293"/>
</g>
<!-- Node20&#45;&gt;Node2 -->
<g id="edge28" class="edge"><title>Node20&#45;&gt;Node2</title>
<path fill="none" stroke="midnightblue" d="M264.245,-224.324C279.819,-215.743 303.877,-202.486 321.959,-192.522"/>
<polygon fill="midnightblue" stroke="midnightblue" points="323.724,-195.546 330.794,-187.655 320.346,-189.415 323.724,-195.546"/>
</g>
<!-- Node21&#45;&gt;Node20 -->
<g id="edge30" class="edge"><title>Node21&#45;&gt;Node20</title>
<path fill="none" stroke="midnightblue" d="M153.405,-280.444C171.754,-271.675 200.505,-257.935 221.594,-247.858"/>
<polygon fill="midnightblue" stroke="midnightblue" points="223.165,-250.986 230.679,-243.516 220.147,-244.67 223.165,-250.986"/>
</g>
<!-- Node22&#45;&gt;Node20 -->
<g id="edge32" class="edge"><title>Node22&#45;&gt;Node20</title>
<path fill="none" stroke="midnightblue" d="M220.949,-280.083C225.514,-272.613 232.168,-261.724 237.793,-252.52"/>
<polygon fill="midnightblue" stroke="midnightblue" points="240.924,-254.109 243.152,-243.751 234.951,-250.459 240.924,-254.109"/>
</g>
</g>
</svg>
