<?xml version="1.0" encoding="UTF-8" standalone="no"?>
<!DOCTYPE svg PUBLIC "-//W3C//DTD SVG 1.1//EN"
 "http://www.w3.org/Graphics/SVG/1.1/DTD/svg11.dtd">
<!-- Generated by graphviz version 2.38.0 (20140413.2041)
 -->
<!-- Title: /bitrise/src/Source/AR6/InstantOn/include/AR6/InstantOn/extensions/attitude_sample.h Pages: 1 -->
<!--zoomable 339 -->
<svg id="main" version="1.1" xmlns="http://www.w3.org/2000/svg" xmlns:xlink="http://www.w3.org/1999/xlink" xml:space="preserve" onload="init(evt)">
<style type="text/css"><![CDATA[
.edge:hover path { stroke: red; }
.edge:hover polygon { stroke: red; fill: red; }
]]></style>
<script type="text/javascript"><![CDATA[
var edges = document.getElementsByTagName('g');
if (edges && edges.length) {
  for (var i=0;i<edges.length;i++) {
    if (edges[i].id.substr(0,4)=='edge') {
      edges[i].setAttribute('class','edge');
    }
  }
}
]]></script>
        <defs>
                <circle id="rim" cx="0" cy="0" r="7"/>
                <circle id="rim2" cx="0" cy="0" r="3.5"/>
                <g id="zoomPlus">
                        <use xlink:href="#rim" fill="#404040">
                                <set attributeName="fill" to="#808080" begin="zoomplus.mouseover" end="zoomplus.mouseout"/>
                        </use>
                        <path d="M-4,0h8M0,-4v8" fill="none" stroke="white" stroke-width="1.5" pointer-events="none"/>
                </g>
                <g id="zoomMin">
                        <use xlink:href="#rim" fill="#404040">
                                <set attributeName="fill" to="#808080" begin="zoomminus.mouseover" end="zoomminus.mouseout"/>
                        </use>
                        <path d="M-4,0h8" fill="none" stroke="white" stroke-width="1.5" pointer-events="none"/>
                </g>
                <g id="dirArrow">
                        <path fill="none" stroke="white" stroke-width="1.5" d="M0,-3.0v7 M-2.5,-0.5L0,-3.0L2.5,-0.5"/>
                </g>
               <g id="resetDef">
                       <use xlink:href="#rim2" fill="#404040">
                               <set attributeName="fill" to="#808080" begin="reset.mouseover" end="reset.mouseout"/>
                       </use>
               </g>
        </defs>

<script type="text/javascript">
var viewWidth = 1173;
var viewHeight = 339;
var sectionId = 'dynsection-1';
</script>
<script xlink:href="svgpan.js"/>
<svg id="graph" class="graph">
<g id="viewport">
<title>/bitrise/src/Source/AR6/InstantOn/include/AR6/InstantOn/extensions/attitude_sample.h</title>
<polygon fill="white" stroke="none" points="-4,4 -4,-335 1169.03,-335 1169.03,4 -4,4"/>
<!-- Node1 -->
<g id="node1" class="node"><title>Node1</title>
<polygon fill="#bfbfbf" stroke="black" points="607.5,-278.5 607.5,-330.5 742.5,-330.5 742.5,-278.5 607.5,-278.5"/>
<text text-anchor="start" x="615.5" y="-318.5" font-family="Helvetica,sans-Serif" font-size="10.00">/bitrise/src/Source</text>
<text text-anchor="start" x="615.5" y="-307.5" font-family="Helvetica,sans-Serif" font-size="10.00">/AR6/InstantOn/include</text>
<text text-anchor="start" x="615.5" y="-296.5" font-family="Helvetica,sans-Serif" font-size="10.00">/AR6/InstantOn/extensions</text>
<text text-anchor="middle" x="675" y="-285.5" font-family="Helvetica,sans-Serif" font-size="10.00">/attitude_sample.h</text>
</g>
<!-- Node2 -->
<g id="node2" class="node"><title>Node2</title>
<g id="a_node2"><a xlink:href="homography__tracker__filter_8cpp.html" target="_top" xlink:title="/bitrise/src/Source\l/AR6/InstantOn/extensions\l/homography_tracker_filter.cpp">
<polygon fill="white" stroke="black" points="648.5,-100.5 648.5,-141.5 799.5,-141.5 799.5,-100.5 648.5,-100.5"/>
<text text-anchor="start" x="656.5" y="-129.5" font-family="Helvetica,sans-Serif" font-size="10.00">/bitrise/src/Source</text>
<text text-anchor="start" x="656.5" y="-118.5" font-family="Helvetica,sans-Serif" font-size="10.00">/AR6/InstantOn/extensions</text>
<text text-anchor="middle" x="724" y="-107.5" font-family="Helvetica,sans-Serif" font-size="10.00">/homography_tracker_filter.cpp</text>
</a>
</g>
</g>
<!-- Node1&#45;&gt;Node2 -->
<g id="edge1" class="edge"><title>Node1&#45;&gt;Node2</title>
<path fill="none" stroke="midnightblue" d="M693.868,-269.369C698.062,-260.652 702.114,-251.152 705,-242 715.846,-207.601 720.68,-165.615 722.694,-141.526"/>
<polygon fill="midnightblue" stroke="midnightblue" points="690.66,-267.959 689.309,-278.467 696.918,-271.095 690.66,-267.959"/>
</g>
<!-- Node3 -->
<g id="node3" class="node"><title>Node3</title>
<g id="a_node3"><a xlink:href="attitude__listener__base_8h.html" target="_top" xlink:title="/bitrise/src/Source\l/AR6/InstantOn/include\l/AR6/InstantOn/extensions\l/attitude_listener_base.h">
<polygon fill="white" stroke="black" points="303.5,-189.5 303.5,-241.5 438.5,-241.5 438.5,-189.5 303.5,-189.5"/>
<text text-anchor="start" x="311.5" y="-229.5" font-family="Helvetica,sans-Serif" font-size="10.00">/bitrise/src/Source</text>
<text text-anchor="start" x="311.5" y="-218.5" font-family="Helvetica,sans-Serif" font-size="10.00">/AR6/InstantOn/include</text>
<text text-anchor="start" x="311.5" y="-207.5" font-family="Helvetica,sans-Serif" font-size="10.00">/AR6/InstantOn/extensions</text>
<text text-anchor="middle" x="371" y="-196.5" font-family="Helvetica,sans-Serif" font-size="10.00">/attitude_listener_base.h</text>
</a>
</g>
</g>
<!-- Node1&#45;&gt;Node3 -->
<g id="edge2" class="edge"><title>Node1&#45;&gt;Node3</title>
<path fill="none" stroke="midnightblue" d="M597.537,-281.331C548.487,-267.294 485.675,-249.318 438.638,-235.857"/>
<polygon fill="midnightblue" stroke="midnightblue" points="596.578,-284.697 607.155,-284.084 598.504,-277.967 596.578,-284.697"/>
</g>
<!-- Node4 -->
<g id="node4" class="node"><title>Node4</title>
<g id="a_node4"><a xlink:href="attitude__sync__filter_8h.html" target="_top" xlink:title="/bitrise/src/Source\l/AR6/InstantOn/include\l/AR6/InstantOn/extensions\l/attitude_sync_filter.h">
<polygon fill="white" stroke="black" points="456.5,-95 456.5,-147 591.5,-147 591.5,-95 456.5,-95"/>
<text text-anchor="start" x="464.5" y="-135" font-family="Helvetica,sans-Serif" font-size="10.00">/bitrise/src/Source</text>
<text text-anchor="start" x="464.5" y="-124" font-family="Helvetica,sans-Serif" font-size="10.00">/AR6/InstantOn/include</text>
<text text-anchor="start" x="464.5" y="-113" font-family="Helvetica,sans-Serif" font-size="10.00">/AR6/InstantOn/extensions</text>
<text text-anchor="middle" x="524" y="-102" font-family="Helvetica,sans-Serif" font-size="10.00">/attitude_sync_filter.h</text>
</a>
</g>
</g>
<!-- Node1&#45;&gt;Node4 -->
<g id="edge18" class="edge"><title>Node1&#45;&gt;Node4</title>
<path fill="none" stroke="midnightblue" d="M598.249,-280.625C578.955,-271.473 560.049,-258.948 547,-242 525.906,-214.603 522.35,-173.445 522.549,-147.157"/>
<polygon fill="midnightblue" stroke="midnightblue" points="596.866,-283.84 607.424,-284.724 599.721,-277.449 596.866,-283.84"/>
</g>
<!-- Node12 -->
<g id="node12" class="node"><title>Node12</title>
<g id="a_node12"><a xlink:href="attitude__sample__io_8h.html" target="_top" xlink:title="/bitrise/src/Source\l/AR6/InstantOn/include\l/AR6/InstantOn/extensions\l/attitude_sample_io.h">
<polygon fill="white" stroke="black" points="817.5,-189.5 817.5,-241.5 952.5,-241.5 952.5,-189.5 817.5,-189.5"/>
<text text-anchor="start" x="825.5" y="-229.5" font-family="Helvetica,sans-Serif" font-size="10.00">/bitrise/src/Source</text>
<text text-anchor="start" x="825.5" y="-218.5" font-family="Helvetica,sans-Serif" font-size="10.00">/AR6/InstantOn/include</text>
<text text-anchor="start" x="825.5" y="-207.5" font-family="Helvetica,sans-Serif" font-size="10.00">/AR6/InstantOn/extensions</text>
<text text-anchor="middle" x="885" y="-196.5" font-family="Helvetica,sans-Serif" font-size="10.00">/attitude_sample_io.h</text>
</a>
</g>
</g>
<!-- Node1&#45;&gt;Node12 -->
<g id="edge12" class="edge"><title>Node1&#45;&gt;Node12</title>
<path fill="none" stroke="midnightblue" d="M744.816,-274.576C770.643,-263.876 799.683,-251.846 824.604,-241.521"/>
<polygon fill="midnightblue" stroke="midnightblue" points="743.358,-271.392 735.459,-278.453 746.037,-277.859 743.358,-271.392"/>
</g>
<!-- Node14 -->
<g id="node14" class="node"><title>Node14</title>
<g id="a_node14"><a xlink:href="attitude__sampler_8h.html" target="_top" xlink:title="/bitrise/src/Source\l/AR6/InstantOn/include\l/AR6/InstantOn/extensions\l/attitude_sampler.h">
<polygon fill="white" stroke="black" points="1009.5,-189.5 1009.5,-241.5 1144.5,-241.5 1144.5,-189.5 1009.5,-189.5"/>
<text text-anchor="start" x="1017.5" y="-229.5" font-family="Helvetica,sans-Serif" font-size="10.00">/bitrise/src/Source</text>
<text text-anchor="start" x="1017.5" y="-218.5" font-family="Helvetica,sans-Serif" font-size="10.00">/AR6/InstantOn/include</text>
<text text-anchor="start" x="1017.5" y="-207.5" font-family="Helvetica,sans-Serif" font-size="10.00">/AR6/InstantOn/extensions</text>
<text text-anchor="middle" x="1077" y="-196.5" font-family="Helvetica,sans-Serif" font-size="10.00">/attitude_sampler.h</text>
</a>
</g>
</g>
<!-- Node1&#45;&gt;Node14 -->
<g id="edge15" class="edge"><title>Node1&#45;&gt;Node14</title>
<path fill="none" stroke="midnightblue" d="M752.375,-287.075C810.156,-274.772 891.049,-257.468 962,-242 977.285,-238.668 993.705,-235.05 1009.22,-231.615"/>
<polygon fill="midnightblue" stroke="midnightblue" points="751.638,-283.654 742.586,-289.159 753.095,-290.5 751.638,-283.654"/>
</g>
<!-- Node16 -->
<g id="node16" class="node"><title>Node16</title>
<g id="a_node16"><a xlink:href="homography__tracker__filter_8h.html" target="_top" xlink:title="/bitrise/src/Source\l/AR6/InstantOn/include\l/AR6/InstantOn/extensions\l/homography_tracker_filter.h">
<polygon fill="white" stroke="black" points="556,-189.5 556,-241.5 696,-241.5 696,-189.5 556,-189.5"/>
<text text-anchor="start" x="564" y="-229.5" font-family="Helvetica,sans-Serif" font-size="10.00">/bitrise/src/Source</text>
<text text-anchor="start" x="564" y="-218.5" font-family="Helvetica,sans-Serif" font-size="10.00">/AR6/InstantOn/include</text>
<text text-anchor="start" x="564" y="-207.5" font-family="Helvetica,sans-Serif" font-size="10.00">/AR6/InstantOn/extensions</text>
<text text-anchor="middle" x="626" y="-196.5" font-family="Helvetica,sans-Serif" font-size="10.00">/homography_tracker_filter.h</text>
</a>
</g>
</g>
<!-- Node1&#45;&gt;Node16 -->
<g id="edge19" class="edge"><title>Node1&#45;&gt;Node16</title>
<path fill="none" stroke="midnightblue" d="M655.766,-269.35C650.557,-260.1 645.014,-250.259 640.141,-241.607"/>
<polygon fill="midnightblue" stroke="midnightblue" points="652.87,-271.34 660.827,-278.336 658.969,-267.905 652.87,-271.34"/>
</g>
<!-- Node3&#45;&gt;Node4 -->
<g id="edge3" class="edge"><title>Node3&#45;&gt;Node4</title>
<path fill="none" stroke="midnightblue" d="M421.044,-184.245C440.955,-172.207 463.594,-158.52 482.563,-147.052"/>
<polygon fill="midnightblue" stroke="midnightblue" points="419.151,-181.299 412.404,-189.468 422.772,-187.29 419.151,-181.299"/>
</g>
<!-- Node7 -->
<g id="node7" class="node"><title>Node7</title>
<g id="a_node7"><a xlink:href="_vision4d-_instant_on_8h.html" target="_top" xlink:title="/bitrise/src/Source\l/AR6/InstantOn/include\l/AR6/InstantOn/extensions\l/Vision4d&#45;InstantOn.h">
<polygon fill="white" stroke="black" points="303.5,-95 303.5,-147 438.5,-147 438.5,-95 303.5,-95"/>
<text text-anchor="start" x="311.5" y="-135" font-family="Helvetica,sans-Serif" font-size="10.00">/bitrise/src/Source</text>
<text text-anchor="start" x="311.5" y="-124" font-family="Helvetica,sans-Serif" font-size="10.00">/AR6/InstantOn/include</text>
<text text-anchor="start" x="311.5" y="-113" font-family="Helvetica,sans-Serif" font-size="10.00">/AR6/InstantOn/extensions</text>
<text text-anchor="middle" x="371" y="-102" font-family="Helvetica,sans-Serif" font-size="10.00">/Vision4d&#45;InstantOn.h</text>
</a>
</g>
</g>
<!-- Node3&#45;&gt;Node7 -->
<g id="edge6" class="edge"><title>Node3&#45;&gt;Node7</title>
<path fill="none" stroke="midnightblue" d="M371,-178.993C371,-168.409 371,-157.031 371,-147.245"/>
<polygon fill="midnightblue" stroke="midnightblue" points="367.5,-179.224 371,-189.224 374.5,-179.224 367.5,-179.224"/>
</g>
<!-- Node8 -->
<g id="node8" class="node"><title>Node8</title>
<g id="a_node8"><a xlink:href="android__attitude__listener_8h.html" target="_top" xlink:title="/bitrise/src/Source\l/AR6/InstantOn/include\l/AR6/InstantOn/external\l/platform/android/device\l/android_attitude_listener.h">
<polygon fill="white" stroke="black" points="6,-89.5 6,-152.5 140,-152.5 140,-89.5 6,-89.5"/>
<text text-anchor="start" x="14" y="-140.5" font-family="Helvetica,sans-Serif" font-size="10.00">/bitrise/src/Source</text>
<text text-anchor="start" x="14" y="-129.5" font-family="Helvetica,sans-Serif" font-size="10.00">/AR6/InstantOn/include</text>
<text text-anchor="start" x="14" y="-118.5" font-family="Helvetica,sans-Serif" font-size="10.00">/AR6/InstantOn/external</text>
<text text-anchor="start" x="14" y="-107.5" font-family="Helvetica,sans-Serif" font-size="10.00">/platform/android/device</text>
<text text-anchor="middle" x="73" y="-96.5" font-family="Helvetica,sans-Serif" font-size="10.00">/android_attitude_listener.h</text>
</a>
</g>
</g>
<!-- Node3&#45;&gt;Node8 -->
<g id="edge8" class="edge"><title>Node3&#45;&gt;Node8</title>
<path fill="none" stroke="midnightblue" d="M293.334,-194.936C250.939,-183.72 197.714,-168.763 151,-153 147.41,-151.789 143.745,-150.504 140.057,-149.172"/>
<polygon fill="midnightblue" stroke="midnightblue" points="292.475,-198.329 303.036,-197.487 294.255,-191.559 292.475,-198.329"/>
</g>
<!-- Node10 -->
<g id="node10" class="node"><title>Node10</title>
<g id="a_node10"><a xlink:href="i_o_s__attitude__listener_8h.html" target="_top" xlink:title="/bitrise/src/Source\l/AR6/InstantOn/include\l/AR6/InstantOn/external\l/platform/iOS/device/iOS\l_attitude_listener.h">
<polygon fill="white" stroke="black" points="160.5,-89.5 160.5,-152.5 285.5,-152.5 285.5,-89.5 160.5,-89.5"/>
<text text-anchor="start" x="168.5" y="-140.5" font-family="Helvetica,sans-Serif" font-size="10.00">/bitrise/src/Source</text>
<text text-anchor="start" x="168.5" y="-129.5" font-family="Helvetica,sans-Serif" font-size="10.00">/AR6/InstantOn/include</text>
<text text-anchor="start" x="168.5" y="-118.5" font-family="Helvetica,sans-Serif" font-size="10.00">/AR6/InstantOn/external</text>
<text text-anchor="start" x="168.5" y="-107.5" font-family="Helvetica,sans-Serif" font-size="10.00">/platform/iOS/device/iOS</text>
<text text-anchor="middle" x="223" y="-96.5" font-family="Helvetica,sans-Serif" font-size="10.00">_attitude_listener.h</text>
</a>
</g>
</g>
<!-- Node3&#45;&gt;Node10 -->
<g id="edge10" class="edge"><title>Node3&#45;&gt;Node10</title>
<path fill="none" stroke="midnightblue" d="M322.21,-184.006C306.103,-173.94 288.187,-162.742 272.06,-152.663"/>
<polygon fill="midnightblue" stroke="midnightblue" points="320.614,-187.136 330.949,-189.468 324.324,-181.2 320.614,-187.136"/>
</g>
<!-- Node5 -->
<g id="node5" class="node"><title>Node5</title>
<g id="a_node5"><a xlink:href="attitude__sync__filter_8cpp.html" target="_top" xlink:title="/bitrise/src/Source\l/AR6/InstantOn/extensions\l/attitude_sync_filter.cpp">
<polygon fill="white" stroke="black" points="913.5,-6 913.5,-47 1048.5,-47 1048.5,-6 913.5,-6"/>
<text text-anchor="start" x="921.5" y="-35" font-family="Helvetica,sans-Serif" font-size="10.00">/bitrise/src/Source</text>
<text text-anchor="start" x="921.5" y="-24" font-family="Helvetica,sans-Serif" font-size="10.00">/AR6/InstantOn/extensions</text>
<text text-anchor="middle" x="981" y="-13" font-family="Helvetica,sans-Serif" font-size="10.00">/attitude_sync_filter.cpp</text>
</a>
</g>
</g>
<!-- Node4&#45;&gt;Node5 -->
<g id="edge4" class="edge"><title>Node4&#45;&gt;Node5</title>
<path fill="none" stroke="midnightblue" d="M601.304,-98.3896C614.183,-95.0634 627.436,-91.8068 640,-89 734.229,-67.9498 844.34,-49.1208 913.381,-38.002"/>
<polygon fill="midnightblue" stroke="midnightblue" points="600.337,-95.0249 591.547,-100.94 602.107,-101.797 600.337,-95.0249"/>
</g>
<!-- Node6 -->
<g id="node6" class="node"><title>Node6</title>
<g id="a_node6"><a xlink:href="_vision4d-_instant_on_8cpp.html" target="_top" xlink:title="/bitrise/src/Source\l/AR6/InstantOn/extensions\l/Vision4d&#45;InstantOn.cpp">
<polygon fill="white" stroke="black" points="456.5,-6 456.5,-47 591.5,-47 591.5,-6 456.5,-6"/>
<text text-anchor="start" x="464.5" y="-35" font-family="Helvetica,sans-Serif" font-size="10.00">/bitrise/src/Source</text>
<text text-anchor="start" x="464.5" y="-24" font-family="Helvetica,sans-Serif" font-size="10.00">/AR6/InstantOn/extensions</text>
<text text-anchor="middle" x="524" y="-13" font-family="Helvetica,sans-Serif" font-size="10.00">/Vision4d&#45;InstantOn.cpp</text>
</a>
</g>
</g>
<!-- Node4&#45;&gt;Node6 -->
<g id="edge5" class="edge"><title>Node4&#45;&gt;Node6</title>
<path fill="none" stroke="midnightblue" d="M524,-84.45C524,-71.7959 524,-58.0112 524,-47.1735"/>
<polygon fill="midnightblue" stroke="midnightblue" points="520.5,-84.7239 524,-94.724 527.5,-84.724 520.5,-84.7239"/>
</g>
<!-- Node7&#45;&gt;Node6 -->
<g id="edge7" class="edge"><title>Node7&#45;&gt;Node6</title>
<path fill="none" stroke="midnightblue" d="M421.046,-89.7434C444.116,-75.7956 470.847,-59.6347 491.289,-47.2762"/>
<polygon fill="midnightblue" stroke="midnightblue" points="419.151,-86.7992 412.404,-94.9682 422.772,-92.7896 419.151,-86.7992"/>
</g>
<!-- Node9 -->
<g id="node9" class="node"><title>Node9</title>
<g id="a_node9"><a xlink:href="android__attitude__listener_8cpp.html" target="_top" xlink:title="/bitrise/src/Source\l/AR6/InstantOn/external\l/platform/android/device\l/android_attitude_listener.cpp">
<polygon fill="white" stroke="black" points="0,-0.5 0,-52.5 144,-52.5 144,-0.5 0,-0.5"/>
<text text-anchor="start" x="8" y="-40.5" font-family="Helvetica,sans-Serif" font-size="10.00">/bitrise/src/Source</text>
<text text-anchor="start" x="8" y="-29.5" font-family="Helvetica,sans-Serif" font-size="10.00">/AR6/InstantOn/external</text>
<text text-anchor="start" x="8" y="-18.5" font-family="Helvetica,sans-Serif" font-size="10.00">/platform/android/device</text>
<text text-anchor="middle" x="72" y="-7.5" font-family="Helvetica,sans-Serif" font-size="10.00">/android_attitude_listener.cpp</text>
</a>
</g>
</g>
<!-- Node8&#45;&gt;Node9 -->
<g id="edge9" class="edge"><title>Node8&#45;&gt;Node9</title>
<path fill="none" stroke="midnightblue" d="M72.5613,-79.4229C72.4633,-70.3585 72.3622,-60.999 72.2731,-52.7655"/>
<polygon fill="midnightblue" stroke="midnightblue" points="69.0618,-79.4941 72.6698,-89.4557 76.0614,-79.4184 69.0618,-79.4941"/>
</g>
<!-- Node11 -->
<g id="node11" class="node"><title>Node11</title>
<g id="a_node11"><a xlink:href="i_o_s__attitude__listener_8mm.html" target="_top" xlink:title="/bitrise/src/Source\l/AR6/InstantOn/external\l/platform/iOS/device/iOS\l_attitude_listener.mm">
<polygon fill="white" stroke="black" points="162.5,-0.5 162.5,-52.5 287.5,-52.5 287.5,-0.5 162.5,-0.5"/>
<text text-anchor="start" x="170.5" y="-40.5" font-family="Helvetica,sans-Serif" font-size="10.00">/bitrise/src/Source</text>
<text text-anchor="start" x="170.5" y="-29.5" font-family="Helvetica,sans-Serif" font-size="10.00">/AR6/InstantOn/external</text>
<text text-anchor="start" x="170.5" y="-18.5" font-family="Helvetica,sans-Serif" font-size="10.00">/platform/iOS/device/iOS</text>
<text text-anchor="middle" x="225" y="-7.5" font-family="Helvetica,sans-Serif" font-size="10.00">_attitude_listener.mm</text>
</a>
</g>
</g>
<!-- Node10&#45;&gt;Node11 -->
<g id="edge11" class="edge"><title>Node10&#45;&gt;Node11</title>
<path fill="none" stroke="midnightblue" d="M223.877,-79.4229C224.073,-70.3585 224.276,-60.999 224.454,-52.7655"/>
<polygon fill="midnightblue" stroke="midnightblue" points="220.377,-79.3823 223.66,-89.4557 227.376,-79.5337 220.377,-79.3823"/>
</g>
<!-- Node12&#45;&gt;Node5 -->
<g id="edge14" class="edge"><title>Node12&#45;&gt;Node5</title>
<path fill="none" stroke="midnightblue" d="M935.514,-183.177C945.749,-174.597 955.388,-164.453 962,-153 981.28,-119.602 983.08,-73.219 982.288,-47.211"/>
<polygon fill="midnightblue" stroke="midnightblue" points="933.282,-180.481 927.611,-189.43 937.625,-185.97 933.282,-180.481"/>
</g>
<!-- Node13 -->
<g id="node13" class="node"><title>Node13</title>
<g id="a_node13"><a xlink:href="attitude__sample__io_8cpp.html" target="_top" xlink:title="/bitrise/src/Source\l/AR6/InstantOn/extensions\l/attitude_sample_io.cpp">
<polygon fill="white" stroke="black" points="817.5,-100.5 817.5,-141.5 952.5,-141.5 952.5,-100.5 817.5,-100.5"/>
<text text-anchor="start" x="825.5" y="-129.5" font-family="Helvetica,sans-Serif" font-size="10.00">/bitrise/src/Source</text>
<text text-anchor="start" x="825.5" y="-118.5" font-family="Helvetica,sans-Serif" font-size="10.00">/AR6/InstantOn/extensions</text>
<text text-anchor="middle" x="885" y="-107.5" font-family="Helvetica,sans-Serif" font-size="10.00">/attitude_sample_io.cpp</text>
</a>
</g>
</g>
<!-- Node12&#45;&gt;Node13 -->
<g id="edge13" class="edge"><title>Node12&#45;&gt;Node13</title>
<path fill="none" stroke="midnightblue" d="M885,-178.95C885,-166.296 885,-152.511 885,-141.673"/>
<polygon fill="midnightblue" stroke="midnightblue" points="881.5,-179.224 885,-189.224 888.5,-179.224 881.5,-179.224"/>
</g>
<!-- Node14&#45;&gt;Node5 -->
<g id="edge17" class="edge"><title>Node14&#45;&gt;Node5</title>
<path fill="none" stroke="midnightblue" d="M1130.03,-182.803C1139.72,-174.407 1148.5,-164.435 1154,-153 1166.33,-127.368 1170.4,-112.239 1154,-89 1130.2,-55.2749 1086.21,-39.9327 1048.54,-33.005"/>
<polygon fill="midnightblue" stroke="midnightblue" points="1127.69,-180.193 1122.1,-189.196 1132.08,-185.641 1127.69,-180.193"/>
</g>
<!-- Node15 -->
<g id="node15" class="node"><title>Node15</title>
<g id="a_node15"><a xlink:href="attitude__sampler_8cpp.html" target="_top" xlink:title="/bitrise/src/Source\l/AR6/InstantOn/extensions\l/attitude_sampler.cpp">
<polygon fill="white" stroke="black" points="1009.5,-100.5 1009.5,-141.5 1144.5,-141.5 1144.5,-100.5 1009.5,-100.5"/>
<text text-anchor="start" x="1017.5" y="-129.5" font-family="Helvetica,sans-Serif" font-size="10.00">/bitrise/src/Source</text>
<text text-anchor="start" x="1017.5" y="-118.5" font-family="Helvetica,sans-Serif" font-size="10.00">/AR6/InstantOn/extensions</text>
<text text-anchor="middle" x="1077" y="-107.5" font-family="Helvetica,sans-Serif" font-size="10.00">/attitude_sampler.cpp</text>
</a>
</g>
</g>
<!-- Node14&#45;&gt;Node15 -->
<g id="edge16" class="edge"><title>Node14&#45;&gt;Node15</title>
<path fill="none" stroke="midnightblue" d="M1077,-178.95C1077,-166.296 1077,-152.511 1077,-141.673"/>
<polygon fill="midnightblue" stroke="midnightblue" points="1073.5,-179.224 1077,-189.224 1080.5,-179.224 1073.5,-179.224"/>
</g>
<!-- Node16&#45;&gt;Node2 -->
<g id="edge20" class="edge"><title>Node16&#45;&gt;Node2</title>
<path fill="none" stroke="midnightblue" d="M659.824,-182.574C674.184,-169.02 690.474,-153.645 703.048,-141.776"/>
<polygon fill="midnightblue" stroke="midnightblue" points="657.39,-180.059 652.52,-189.468 662.195,-185.149 657.39,-180.059"/>
</g>
<!-- Node16&#45;&gt;Node6 -->
<g id="edge21" class="edge"><title>Node16&#45;&gt;Node6</title>
<path fill="none" stroke="midnightblue" d="M624.996,-179.109C622.809,-152.598 616.664,-116.341 600,-89 589.665,-72.0427 572.902,-57.7395 557.745,-47.2063"/>
<polygon fill="midnightblue" stroke="midnightblue" points="621.505,-179.367 625.673,-189.107 628.489,-178.894 621.505,-179.367"/>
</g>
</g>
</svg>
        <g id="navigator" transform="translate(0 0)" fill="#404254">
                <rect fill="#f2f5e9" fill-opacity="0.5" stroke="#606060" stroke-width=".5" x="0" y="0" width="60" height="60"/>
                <use id="zoomplus" xlink:href="#zoomPlus" x="17" y="9" onmousedown="handleZoom(evt,'in')"/>
                <use id="zoomminus" xlink:href="#zoomMin" x="42" y="9" onmousedown="handleZoom(evt,'out')"/>
                <use id="reset" xlink:href="#resetDef" x="30" y="36" onmousedown="handleReset()"/>
                <g id="arrowUp" xlink:href="#dirArrow" transform="translate(30 24)" onmousedown="handlePan(0,-1)">
                  <use xlink:href="#rim" fill="#404040">
                        <set attributeName="fill" to="#808080" begin="arrowUp.mouseover" end="arrowUp.mouseout"/>
                  </use>
                  <path fill="none" stroke="white" stroke-width="1.5" d="M0,-3.0v7 M-2.5,-0.5L0,-3.0L2.5,-0.5"/>
                </g>
                <g id="arrowRight" xlink:href="#dirArrow" transform="rotate(90) translate(36 -43)" onmousedown="handlePan(1,0)">
                  <use xlink:href="#rim" fill="#404040">
                        <set attributeName="fill" to="#808080" begin="arrowRight.mouseover" end="arrowRight.mouseout"/>
                  </use>
                  <path fill="none" stroke="white" stroke-width="1.5" d="M0,-3.0v7 M-2.5,-0.5L0,-3.0L2.5,-0.5"/>
                </g>
                <g id="arrowDown" xlink:href="#dirArrow" transform="rotate(180) translate(-30 -48)" onmousedown="handlePan(0,1)">
                  <use xlink:href="#rim" fill="#404040">
                        <set attributeName="fill" to="#808080" begin="arrowDown.mouseover" end="arrowDown.mouseout"/>
                  </use>
                  <path fill="none" stroke="white" stroke-width="1.5" d="M0,-3.0v7 M-2.5,-0.5L0,-3.0L2.5,-0.5"/>
                </g>
                <g id="arrowLeft" xlink:href="#dirArrow" transform="rotate(270) translate(-36 17)" onmousedown="handlePan(-1,0)">
                  <use xlink:href="#rim" fill="#404040">
                        <set attributeName="fill" to="#808080" begin="arrowLeft.mouseover" end="arrowLeft.mouseout"/>
                  </use>
                  <path fill="none" stroke="white" stroke-width="1.5" d="M0,-3.0v7 M-2.5,-0.5L0,-3.0L2.5,-0.5"/>
                </g>
        </g>
        <svg viewBox="0 0 15 15" width="100%" height="30px" preserveAspectRatio="xMaxYMin meet">
         <g id="arrow_out" transform="scale(0.3 0.3)">
          <a xlink:href="attitude__sample_8h__dep__incl_org.svg" target="_base">
           <rect id="button" ry="5" rx="5" y="6" x="6" height="38" width="38"
                fill="#f2f5e9" fill-opacity="0.5" stroke="#606060" stroke-width="1.0"/>
           <path id="arrow"
             d="M 11.500037,31.436501 C 11.940474,20.09759 22.043105,11.32322 32.158766,21.979434 L 37.068811,17.246167 C 37.068811,17.246167 37.088388,32 37.088388,32 L 22.160133,31.978069 C 22.160133,31.978069 26.997745,27.140456 26.997745,27.140456 C 18.528582,18.264221 13.291696,25.230495 11.500037,31.436501 z"
             style="fill:#404040;"/>
          </a>
         </g>
        </svg>
</svg>
