<?xml version="1.0" encoding="UTF-8" standalone="no"?>
<!DOCTYPE svg PUBLIC "-//W3C//DTD SVG 1.1//EN"
 "http://www.w3.org/Graphics/SVG/1.1/DTD/svg11.dtd">
<!-- Generated by graphviz version 2.38.0 (20140413.2041)
 -->
<!-- Title: /bitrise/src/Source/AR6/InstantOn/include/AR6/InstantOn/extensions/attitude_sample.h Pages: 1 -->
<svg width="639pt" height="374pt"
 viewBox="0.00 0.00 638.50 374.00" xmlns="http://www.w3.org/2000/svg" xmlns:xlink="http://www.w3.org/1999/xlink">
<g id="graph0" class="graph" transform="scale(1 1) rotate(0) translate(4 370)">
<title>/bitrise/src/Source/AR6/InstantOn/include/AR6/InstantOn/extensions/attitude_sample.h</title>
<polygon fill="white" stroke="none" points="-4,4 -4,-370 634.5,-370 634.5,4 -4,4"/>
<!-- Node1 -->
<g id="node1" class="node"><title>Node1</title>
<polygon fill="#bfbfbf" stroke="black" points="495.5,-313.5 495.5,-365.5 630.5,-365.5 630.5,-313.5 495.5,-313.5"/>
<text text-anchor="start" x="503.5" y="-353.5" font-family="Helvetica,sans-Serif" font-size="10.00">/bitrise/src/Source</text>
<text text-anchor="start" x="503.5" y="-342.5" font-family="Helvetica,sans-Serif" font-size="10.00">/AR6/InstantOn/include</text>
<text text-anchor="start" x="503.5" y="-331.5" font-family="Helvetica,sans-Serif" font-size="10.00">/AR6/InstantOn/extensions</text>
<text text-anchor="middle" x="563" y="-320.5" font-family="Helvetica,sans-Serif" font-size="10.00">/attitude_sample.h</text>
</g>
<!-- Node2 -->
<g id="node2" class="node"><title>Node2</title>
<g id="a_node2"><a xlink:href="sample_8h.html" target="_top" xlink:title="AR6/InstantOn/framework\l/sample.h">
<polygon fill="white" stroke="black" points="447.5,-246.5 447.5,-276.5 578.5,-276.5 578.5,-246.5 447.5,-246.5"/>
<text text-anchor="start" x="455.5" y="-264.5" font-family="Helvetica,sans-Serif" font-size="10.00">AR6/InstantOn/framework</text>
<text text-anchor="middle" x="513" y="-253.5" font-family="Helvetica,sans-Serif" font-size="10.00">/sample.h</text>
</a>
</g>
</g>
<!-- Node1&#45;&gt;Node2 -->
<g id="edge1" class="edge"><title>Node1&#45;&gt;Node2</title>
<path fill="none" stroke="midnightblue" d="M546.351,-313.193C540.447,-304.22 533.842,-294.179 528.077,-285.416"/>
<polygon fill="midnightblue" stroke="midnightblue" points="530.858,-283.276 522.438,-276.845 525.01,-287.123 530.858,-283.276"/>
</g>
<!-- Node10 -->
<g id="node10" class="node"><title>Node10</title>
<polygon fill="white" stroke="#bfbfbf" points="273,-6 273,-25 317,-25 317,-6 273,-6"/>
<text text-anchor="middle" x="295" y="-13" font-family="Helvetica,sans-Serif" font-size="10.00">vector</text>
</g>
<!-- Node1&#45;&gt;Node10 -->
<g id="edge25" class="edge"><title>Node1&#45;&gt;Node10</title>
<path fill="none" stroke="midnightblue" d="M577.357,-313.029C591.179,-286.075 610,-241.869 610,-201 610,-201 610,-201 610,-137.5 610,-3.94223 455.463,-73.9502 329,-31 327.132,-30.3654 325.221,-29.6741 323.307,-28.9488"/>
<polygon fill="midnightblue" stroke="midnightblue" points="324.448,-25.6352 313.864,-25.1447 321.832,-32.1281 324.448,-25.6352"/>
</g>
<!-- Node3 -->
<g id="node3" class="node"><title>Node3</title>
<g id="a_node3"><a xlink:href="stream_8h.html" target="_top" xlink:title="stream.h">
<polygon fill="white" stroke="black" points="402.5,-190.5 402.5,-209.5 457.5,-209.5 457.5,-190.5 402.5,-190.5"/>
<text text-anchor="middle" x="430" y="-197.5" font-family="Helvetica,sans-Serif" font-size="10.00">stream.h</text>
</a>
</g>
</g>
<!-- Node2&#45;&gt;Node3 -->
<g id="edge2" class="edge"><title>Node2&#45;&gt;Node3</title>
<path fill="none" stroke="midnightblue" d="M493.33,-246.399C480.399,-237.129 463.514,-225.025 450.432,-215.647"/>
<polygon fill="midnightblue" stroke="midnightblue" points="452.244,-212.639 442.077,-209.658 448.165,-218.329 452.244,-212.639"/>
</g>
<!-- Node14 -->
<g id="node14" class="node"><title>Node14</title>
<polygon fill="white" stroke="#bfbfbf" points="473,-6 473,-25 525,-25 525,-6 473,-6"/>
<text text-anchor="middle" x="499" y="-13" font-family="Helvetica,sans-Serif" font-size="10.00">memory</text>
</g>
<!-- Node2&#45;&gt;Node14 -->
<g id="edge24" class="edge"><title>Node2&#45;&gt;Node14</title>
<path fill="none" stroke="midnightblue" d="M528.647,-246.247C537.664,-236.934 548.147,-223.943 553,-210 557.14,-198.106 564.404,-174.051 552,-123 543.792,-89.2163 523.461,-53.8119 510.5,-33.5267"/>
<polygon fill="midnightblue" stroke="midnightblue" points="513.382,-31.5392 504.974,-25.093 507.527,-35.3756 513.382,-31.5392"/>
</g>
<!-- Node18 -->
<g id="node18" class="node"><title>Node18</title>
<g id="a_node18"><a xlink:href="date__time_8h.html" target="_top" xlink:title="date_time.h">
<polygon fill="white" stroke="black" points="476,-190.5 476,-209.5 544,-209.5 544,-190.5 476,-190.5"/>
<text text-anchor="middle" x="510" y="-197.5" font-family="Helvetica,sans-Serif" font-size="10.00">date_time.h</text>
</a>
</g>
</g>
<!-- Node2&#45;&gt;Node18 -->
<g id="edge22" class="edge"><title>Node2&#45;&gt;Node18</title>
<path fill="none" stroke="midnightblue" d="M512.289,-246.399C511.889,-238.466 511.384,-228.458 510.951,-219.858"/>
<polygon fill="midnightblue" stroke="midnightblue" points="514.436,-219.469 510.437,-209.658 507.445,-219.821 514.436,-219.469"/>
</g>
<!-- Node4 -->
<g id="node4" class="node"><title>Node4</title>
<polygon fill="white" stroke="#bfbfbf" points="0,-0.5 0,-30.5 102,-30.5 102,-0.5 0,-0.5"/>
<text text-anchor="start" x="8" y="-18.5" font-family="Helvetica,sans-Serif" font-size="10.00">artvision/framework</text>
<text text-anchor="middle" x="51" y="-7.5" font-family="Helvetica,sans-Serif" font-size="10.00">/error.h</text>
</g>
<!-- Node3&#45;&gt;Node4 -->
<g id="edge3" class="edge"><title>Node3&#45;&gt;Node4</title>
<path fill="none" stroke="midnightblue" d="M402.315,-199.776C333.344,-200.062 153.155,-190.374 66,-87 55.2255,-74.2205 51.6111,-55.5828 50.6182,-40.6798"/>
<polygon fill="midnightblue" stroke="midnightblue" points="54.1145,-40.5071 50.2936,-30.6253 47.1182,-40.7331 54.1145,-40.5071"/>
</g>
<!-- Node5 -->
<g id="node5" class="node"><title>Node5</title>
<g id="a_node5"><a xlink:href="linear__algebra_8h.html" target="_top" xlink:title="AR6/InstantOn/math\l/linear_algebra.h">
<polygon fill="white" stroke="black" points="243.5,-123.5 243.5,-153.5 350.5,-153.5 350.5,-123.5 243.5,-123.5"/>
<text text-anchor="start" x="251.5" y="-141.5" font-family="Helvetica,sans-Serif" font-size="10.00">AR6/InstantOn/math</text>
<text text-anchor="middle" x="297" y="-130.5" font-family="Helvetica,sans-Serif" font-size="10.00">/linear_algebra.h</text>
</a>
</g>
</g>
<!-- Node3&#45;&gt;Node5 -->
<g id="edge4" class="edge"><title>Node3&#45;&gt;Node5</title>
<path fill="none" stroke="midnightblue" d="M410.944,-190.475C391.921,-181.965 362.09,-168.619 337.723,-157.718"/>
<polygon fill="midnightblue" stroke="midnightblue" points="338.903,-154.412 328.345,-153.523 336.044,-160.802 338.903,-154.412"/>
</g>
<!-- Node13 -->
<g id="node13" class="node"><title>Node13</title>
<g id="a_node13"><a xlink:href="indexing_8h.html" target="_top" xlink:title="indexing.h">
<polygon fill="white" stroke="black" points="399.5,-67.5 399.5,-86.5 460.5,-86.5 460.5,-67.5 399.5,-67.5"/>
<text text-anchor="middle" x="430" y="-74.5" font-family="Helvetica,sans-Serif" font-size="10.00">indexing.h</text>
</a>
</g>
</g>
<!-- Node3&#45;&gt;Node13 -->
<g id="edge19" class="edge"><title>Node3&#45;&gt;Node13</title>
<path fill="none" stroke="midnightblue" d="M430,-190.298C430,-170.85 430,-123.49 430,-96.9036"/>
<polygon fill="midnightblue" stroke="midnightblue" points="433.5,-96.6231 430,-86.6232 426.5,-96.6232 433.5,-96.6231"/>
</g>
<!-- Node3&#45;&gt;Node14 -->
<g id="edge21" class="edge"><title>Node3&#45;&gt;Node14</title>
<path fill="none" stroke="midnightblue" d="M433.328,-190.198C444.007,-161.952 477.563,-73.2001 492.134,-34.6606"/>
<polygon fill="midnightblue" stroke="midnightblue" points="495.443,-35.8056 495.705,-25.214 488.895,-33.33 495.443,-35.8056"/>
</g>
<!-- Node17 -->
<g id="node17" class="node"><title>Node17</title>
<polygon fill="white" stroke="#bfbfbf" points="502.5,-129 502.5,-148 543.5,-148 543.5,-129 502.5,-129"/>
<text text-anchor="middle" x="523" y="-136" font-family="Helvetica,sans-Serif" font-size="10.00">string</text>
</g>
<!-- Node3&#45;&gt;Node17 -->
<g id="edge20" class="edge"><title>Node3&#45;&gt;Node17</title>
<path fill="none" stroke="midnightblue" d="M443.325,-190.475C458.38,-180.843 483.116,-165.017 501.037,-153.552"/>
<polygon fill="midnightblue" stroke="midnightblue" points="503.163,-156.347 509.7,-148.009 499.39,-150.45 503.163,-156.347"/>
</g>
<!-- Node6 -->
<g id="node6" class="node"><title>Node6</title>
<g id="a_node6"><a xlink:href="math__utils_8h.html" target="_top" xlink:title="math_utils.h">
<polygon fill="white" stroke="black" points="75,-67.5 75,-86.5 145,-86.5 145,-67.5 75,-67.5"/>
<text text-anchor="middle" x="110" y="-74.5" font-family="Helvetica,sans-Serif" font-size="10.00">math_utils.h</text>
</a>
</g>
</g>
<!-- Node5&#45;&gt;Node6 -->
<g id="edge5" class="edge"><title>Node5&#45;&gt;Node6</title>
<path fill="none" stroke="midnightblue" d="M252.684,-123.399C220.371,-113.118 177.102,-99.3506 146.714,-89.6818"/>
<polygon fill="midnightblue" stroke="midnightblue" points="147.528,-86.2678 136.937,-86.5709 145.405,-92.9383 147.528,-86.2678"/>
</g>
<!-- Node8 -->
<g id="node8" class="node"><title>Node8</title>
<g id="a_node8"><a xlink:href="_instant_on_2include_2_a_r6_2_instant_on_2math_2matrix_8h.html" target="_top" xlink:title="matrix.h">
<polygon fill="white" stroke="black" points="163,-67.5 163,-86.5 215,-86.5 215,-67.5 163,-67.5"/>
<text text-anchor="middle" x="189" y="-74.5" font-family="Helvetica,sans-Serif" font-size="10.00">matrix.h</text>
</a>
</g>
</g>
<!-- Node5&#45;&gt;Node8 -->
<g id="edge8" class="edge"><title>Node5&#45;&gt;Node8</title>
<path fill="none" stroke="midnightblue" d="M271.406,-123.399C253.932,-113.773 230.912,-101.09 213.644,-91.5772"/>
<polygon fill="midnightblue" stroke="midnightblue" points="215.163,-88.4177 204.715,-86.6578 211.785,-94.5488 215.163,-88.4177"/>
</g>
<!-- Node9 -->
<g id="node9" class="node"><title>Node9</title>
<g id="a_node9"><a xlink:href="vector_8h.html" target="_top" xlink:title="vector.h">
<polygon fill="white" stroke="black" points="196,-6 196,-25 248,-25 248,-6 196,-6"/>
<text text-anchor="middle" x="222" y="-13" font-family="Helvetica,sans-Serif" font-size="10.00">vector.h</text>
</a>
</g>
</g>
<!-- Node5&#45;&gt;Node9 -->
<g id="edge12" class="edge"><title>Node5&#45;&gt;Node9</title>
<path fill="none" stroke="midnightblue" d="M286.539,-123.147C279.391,-113.165 269.833,-99.4638 262,-87 250.927,-69.3808 239.3,-48.5933 231.453,-34.1766"/>
<polygon fill="midnightblue" stroke="midnightblue" points="234.509,-32.4681 226.678,-25.3309 228.349,-35.7932 234.509,-32.4681"/>
</g>
<!-- Node11 -->
<g id="node11" class="node"><title>Node11</title>
<polygon fill="white" stroke="#bfbfbf" points="271,-67.5 271,-86.5 323,-86.5 323,-67.5 271,-67.5"/>
<text text-anchor="middle" x="297" y="-74.5" font-family="Helvetica,sans-Serif" font-size="10.00">assert.h</text>
</g>
<!-- Node5&#45;&gt;Node11 -->
<g id="edge13" class="edge"><title>Node5&#45;&gt;Node11</title>
<path fill="none" stroke="midnightblue" d="M297,-123.399C297,-115.466 297,-105.458 297,-96.8583"/>
<polygon fill="midnightblue" stroke="midnightblue" points="300.5,-96.6577 297,-86.6578 293.5,-96.6578 300.5,-96.6577"/>
</g>
<!-- Node12 -->
<g id="node12" class="node"><title>Node12</title>
<polygon fill="white" stroke="#bfbfbf" points="341,-67.5 341,-86.5 381,-86.5 381,-67.5 341,-67.5"/>
<text text-anchor="middle" x="361" y="-74.5" font-family="Helvetica,sans-Serif" font-size="10.00">limits</text>
</g>
<!-- Node5&#45;&gt;Node12 -->
<g id="edge14" class="edge"><title>Node5&#45;&gt;Node12</title>
<path fill="none" stroke="midnightblue" d="M312.167,-123.399C321.755,-114.486 334.161,-102.952 344.069,-93.7408"/>
<polygon fill="midnightblue" stroke="midnightblue" points="346.747,-96.0301 351.687,-86.6578 341.98,-90.9033 346.747,-96.0301"/>
</g>
<!-- Node5&#45;&gt;Node13 -->
<g id="edge15" class="edge"><title>Node5&#45;&gt;Node13</title>
<path fill="none" stroke="midnightblue" d="M328.519,-123.399C350.635,-113.505 379.967,-100.383 401.406,-90.7919"/>
<polygon fill="midnightblue" stroke="midnightblue" points="402.948,-93.9364 410.647,-86.6578 400.09,-87.5466 402.948,-93.9364"/>
</g>
<!-- Node6&#45;&gt;Node4 -->
<g id="edge7" class="edge"><title>Node6&#45;&gt;Node4</title>
<path fill="none" stroke="midnightblue" d="M101.547,-67.4751C93.8547,-59.7179 82.1792,-47.9435 71.9867,-37.6645"/>
<polygon fill="midnightblue" stroke="midnightblue" points="74.4316,-35.1594 64.9051,-30.523 69.461,-40.0883 74.4316,-35.1594"/>
</g>
<!-- Node7 -->
<g id="node7" class="node"><title>Node7</title>
<polygon fill="white" stroke="#bfbfbf" points="120,-6 120,-25 164,-25 164,-6 120,-6"/>
<text text-anchor="middle" x="142" y="-13" font-family="Helvetica,sans-Serif" font-size="10.00">cmath</text>
</g>
<!-- Node6&#45;&gt;Node7 -->
<g id="edge6" class="edge"><title>Node6&#45;&gt;Node7</title>
<path fill="none" stroke="midnightblue" d="M114.585,-67.4751C119.242,-58.8152 126.592,-45.1486 132.51,-34.1453"/>
<polygon fill="midnightblue" stroke="midnightblue" points="135.77,-35.474 137.424,-25.0091 129.605,-32.1584 135.77,-35.474"/>
</g>
<!-- Node8&#45;&gt;Node4 -->
<g id="edge9" class="edge"><title>Node8&#45;&gt;Node4</title>
<path fill="none" stroke="midnightblue" d="M169.228,-67.4751C149.402,-58.9271 118.263,-45.5011 92.9182,-34.5734"/>
<polygon fill="midnightblue" stroke="midnightblue" points="94.0925,-31.2683 83.5239,-30.523 91.3209,-37.6963 94.0925,-31.2683"/>
</g>
<!-- Node8&#45;&gt;Node9 -->
<g id="edge10" class="edge"><title>Node8&#45;&gt;Node9</title>
<path fill="none" stroke="midnightblue" d="M193.728,-67.4751C198.58,-58.7268 206.266,-44.8691 212.4,-33.8093"/>
<polygon fill="midnightblue" stroke="midnightblue" points="215.491,-35.4517 217.281,-25.0091 209.37,-32.0566 215.491,-35.4517"/>
</g>
<!-- Node8&#45;&gt;Node10 -->
<g id="edge11" class="edge"><title>Node8&#45;&gt;Node10</title>
<path fill="none" stroke="midnightblue" d="M204.187,-67.4751C221.662,-57.6664 250.579,-41.4346 271.083,-29.925"/>
<polygon fill="midnightblue" stroke="midnightblue" points="272.834,-32.956 279.841,-25.0091 269.408,-26.8519 272.834,-32.956"/>
</g>
<!-- Node13&#45;&gt;Node14 -->
<g id="edge16" class="edge"><title>Node13&#45;&gt;Node14</title>
<path fill="none" stroke="midnightblue" d="M439.886,-67.4751C450.646,-58.1966 468.071,-43.1706 481.221,-31.831"/>
<polygon fill="midnightblue" stroke="midnightblue" points="483.845,-34.1902 489.132,-25.0091 479.273,-28.889 483.845,-34.1902"/>
</g>
<!-- Node15 -->
<g id="node15" class="node"><title>Node15</title>
<polygon fill="white" stroke="#bfbfbf" points="338.5,-6 338.5,-25 387.5,-25 387.5,-6 338.5,-6"/>
<text text-anchor="middle" x="363" y="-13" font-family="Helvetica,sans-Serif" font-size="10.00">cstddef</text>
</g>
<!-- Node13&#45;&gt;Node15 -->
<g id="edge17" class="edge"><title>Node13&#45;&gt;Node15</title>
<path fill="none" stroke="midnightblue" d="M420.401,-67.4751C409.952,-58.1966 393.032,-43.1706 380.264,-31.831"/>
<polygon fill="midnightblue" stroke="midnightblue" points="382.383,-29.0323 372.582,-25.0091 377.735,-34.2663 382.383,-29.0323"/>
</g>
<!-- Node16 -->
<g id="node16" class="node"><title>Node16</title>
<polygon fill="white" stroke="#bfbfbf" points="405.5,-6 405.5,-25 454.5,-25 454.5,-6 405.5,-6"/>
<text text-anchor="middle" x="430" y="-13" font-family="Helvetica,sans-Serif" font-size="10.00">string.h</text>
</g>
<!-- Node13&#45;&gt;Node16 -->
<g id="edge18" class="edge"><title>Node13&#45;&gt;Node16</title>
<path fill="none" stroke="midnightblue" d="M430,-67.4751C430,-59.0803 430,-45.9806 430,-35.1631"/>
<polygon fill="midnightblue" stroke="midnightblue" points="433.5,-35.0091 430,-25.0091 426.5,-35.0091 433.5,-35.0091"/>
</g>
<!-- Node18&#45;&gt;Node17 -->
<g id="edge23" class="edge"><title>Node18&#45;&gt;Node17</title>
<path fill="none" stroke="midnightblue" d="M511.863,-190.475C513.716,-181.992 516.619,-168.704 518.997,-157.822"/>
<polygon fill="midnightblue" stroke="midnightblue" points="522.426,-158.526 521.141,-148.009 515.587,-157.032 522.426,-158.526"/>
</g>
</g>
</svg>
