<?xml version="1.0" encoding="UTF-8" standalone="no"?>
<!DOCTYPE svg PUBLIC "-//W3C//DTD SVG 1.1//EN"
 "http://www.w3.org/Graphics/SVG/1.1/DTD/svg11.dtd">
<!-- Generated by graphviz version 2.38.0 (20140413.2041)
 -->
<!-- Title: /bitrise/src/Source/AR6/InstantOn/include/AR6/InstantOn/extensions/attitude_listener_base.h Pages: 1 -->
<svg width="602pt" height="250pt"
 viewBox="0.00 0.00 602.00 250.00" xmlns="http://www.w3.org/2000/svg" xmlns:xlink="http://www.w3.org/1999/xlink">
<g id="graph0" class="graph" transform="scale(1 1) rotate(0) translate(4 246)">
<title>/bitrise/src/Source/AR6/InstantOn/include/AR6/InstantOn/extensions/attitude_listener_base.h</title>
<polygon fill="white" stroke="none" points="-4,4 -4,-246 598,-246 598,4 -4,4"/>
<!-- Node1 -->
<g id="node1" class="node"><title>Node1</title>
<polygon fill="#bfbfbf" stroke="black" points="234,-189.5 234,-241.5 369,-241.5 369,-189.5 234,-189.5"/>
<text text-anchor="start" x="242" y="-229.5" font-family="Helvetica,sans-Serif" font-size="10.00">/bitrise/src/Source</text>
<text text-anchor="start" x="242" y="-218.5" font-family="Helvetica,sans-Serif" font-size="10.00">/AR6/InstantOn/include</text>
<text text-anchor="start" x="242" y="-207.5" font-family="Helvetica,sans-Serif" font-size="10.00">/AR6/InstantOn/extensions</text>
<text text-anchor="middle" x="301.5" y="-196.5" font-family="Helvetica,sans-Serif" font-size="10.00">/attitude_listener_base.h</text>
</g>
<!-- Node2 -->
<g id="node2" class="node"><title>Node2</title>
<g id="a_node2"><a xlink:href="attitude__sync__filter_8h.html" target="_top" xlink:title="/bitrise/src/Source\l/AR6/InstantOn/include\l/AR6/InstantOn/extensions\l/attitude_sync_filter.h">
<polygon fill="white" stroke="black" points="5,-95 5,-147 140,-147 140,-95 5,-95"/>
<text text-anchor="start" x="13" y="-135" font-family="Helvetica,sans-Serif" font-size="10.00">/bitrise/src/Source</text>
<text text-anchor="start" x="13" y="-124" font-family="Helvetica,sans-Serif" font-size="10.00">/AR6/InstantOn/include</text>
<text text-anchor="start" x="13" y="-113" font-family="Helvetica,sans-Serif" font-size="10.00">/AR6/InstantOn/extensions</text>
<text text-anchor="middle" x="72.5" y="-102" font-family="Helvetica,sans-Serif" font-size="10.00">/attitude_sync_filter.h</text>
</a>
</g>
</g>
<!-- Node1&#45;&gt;Node2 -->
<g id="edge1" class="edge"><title>Node1&#45;&gt;Node2</title>
<path fill="none" stroke="midnightblue" d="M229.329,-185.578C203.785,-175.318 174.853,-163.671 148.5,-153 143.745,-151.075 138.825,-149.078 133.879,-147.067"/>
<polygon fill="midnightblue" stroke="midnightblue" points="228.357,-188.959 238.941,-189.437 230.965,-182.463 228.357,-188.959"/>
</g>
<!-- Node5 -->
<g id="node5" class="node"><title>Node5</title>
<g id="a_node5"><a xlink:href="_vision4d-_instant_on_8h.html" target="_top" xlink:title="/bitrise/src/Source\l/AR6/InstantOn/include\l/AR6/InstantOn/extensions\l/Vision4d&#45;InstantOn.h">
<polygon fill="white" stroke="black" points="158,-95 158,-147 293,-147 293,-95 158,-95"/>
<text text-anchor="start" x="166" y="-135" font-family="Helvetica,sans-Serif" font-size="10.00">/bitrise/src/Source</text>
<text text-anchor="start" x="166" y="-124" font-family="Helvetica,sans-Serif" font-size="10.00">/AR6/InstantOn/include</text>
<text text-anchor="start" x="166" y="-113" font-family="Helvetica,sans-Serif" font-size="10.00">/AR6/InstantOn/extensions</text>
<text text-anchor="middle" x="225.5" y="-102" font-family="Helvetica,sans-Serif" font-size="10.00">/Vision4d&#45;InstantOn.h</text>
</a>
</g>
</g>
<!-- Node1&#45;&gt;Node5 -->
<g id="edge4" class="edge"><title>Node1&#45;&gt;Node5</title>
<path fill="none" stroke="midnightblue" d="M274.218,-181.295C265.001,-170.077 254.869,-157.745 246.242,-147.245"/>
<polygon fill="midnightblue" stroke="midnightblue" points="271.68,-183.719 280.733,-189.224 277.089,-179.276 271.68,-183.719"/>
</g>
<!-- Node6 -->
<g id="node6" class="node"><title>Node6</title>
<g id="a_node6"><a xlink:href="android__attitude__listener_8h.html" target="_top" xlink:title="/bitrise/src/Source\l/AR6/InstantOn/include\l/AR6/InstantOn/external\l/platform/android/device\l/android_attitude_listener.h">
<polygon fill="white" stroke="black" points="311.5,-89.5 311.5,-152.5 445.5,-152.5 445.5,-89.5 311.5,-89.5"/>
<text text-anchor="start" x="319.5" y="-140.5" font-family="Helvetica,sans-Serif" font-size="10.00">/bitrise/src/Source</text>
<text text-anchor="start" x="319.5" y="-129.5" font-family="Helvetica,sans-Serif" font-size="10.00">/AR6/InstantOn/include</text>
<text text-anchor="start" x="319.5" y="-118.5" font-family="Helvetica,sans-Serif" font-size="10.00">/AR6/InstantOn/external</text>
<text text-anchor="start" x="319.5" y="-107.5" font-family="Helvetica,sans-Serif" font-size="10.00">/platform/android/device</text>
<text text-anchor="middle" x="378.5" y="-96.5" font-family="Helvetica,sans-Serif" font-size="10.00">/android_attitude_listener.h</text>
</a>
</g>
</g>
<!-- Node1&#45;&gt;Node6 -->
<g id="edge6" class="edge"><title>Node1&#45;&gt;Node6</title>
<path fill="none" stroke="midnightblue" d="M328.958,-181.514C336.825,-172.064 345.363,-161.807 353.101,-152.512"/>
<polygon fill="midnightblue" stroke="midnightblue" points="326.248,-179.299 322.541,-189.224 331.628,-183.778 326.248,-179.299"/>
</g>
<!-- Node8 -->
<g id="node8" class="node"><title>Node8</title>
<g id="a_node8"><a xlink:href="i_o_s__attitude__listener_8h.html" target="_top" xlink:title="/bitrise/src/Source\l/AR6/InstantOn/include\l/AR6/InstantOn/external\l/platform/iOS/device/iOS\l_attitude_listener.h">
<polygon fill="white" stroke="black" points="466,-89.5 466,-152.5 591,-152.5 591,-89.5 466,-89.5"/>
<text text-anchor="start" x="474" y="-140.5" font-family="Helvetica,sans-Serif" font-size="10.00">/bitrise/src/Source</text>
<text text-anchor="start" x="474" y="-129.5" font-family="Helvetica,sans-Serif" font-size="10.00">/AR6/InstantOn/include</text>
<text text-anchor="start" x="474" y="-118.5" font-family="Helvetica,sans-Serif" font-size="10.00">/AR6/InstantOn/external</text>
<text text-anchor="start" x="474" y="-107.5" font-family="Helvetica,sans-Serif" font-size="10.00">/platform/iOS/device/iOS</text>
<text text-anchor="middle" x="528.5" y="-96.5" font-family="Helvetica,sans-Serif" font-size="10.00">_attitude_listener.h</text>
</a>
</g>
</g>
<!-- Node1&#45;&gt;Node8 -->
<g id="edge8" class="edge"><title>Node1&#45;&gt;Node8</title>
<path fill="none" stroke="midnightblue" d="M374.07,-185.58C399.535,-175.366 428.315,-163.747 454.5,-153 458.237,-151.466 462.077,-149.882 465.948,-148.279"/>
<polygon fill="midnightblue" stroke="midnightblue" points="372.465,-182.452 364.485,-189.421 375.069,-188.95 372.465,-182.452"/>
</g>
<!-- Node3 -->
<g id="node3" class="node"><title>Node3</title>
<g id="a_node3"><a xlink:href="attitude__sync__filter_8cpp.html" target="_top" xlink:title="/bitrise/src/Source\l/AR6/InstantOn/extensions\l/attitude_sync_filter.cpp">
<polygon fill="white" stroke="black" points="0,-6 0,-47 135,-47 135,-6 0,-6"/>
<text text-anchor="start" x="8" y="-35" font-family="Helvetica,sans-Serif" font-size="10.00">/bitrise/src/Source</text>
<text text-anchor="start" x="8" y="-24" font-family="Helvetica,sans-Serif" font-size="10.00">/AR6/InstantOn/extensions</text>
<text text-anchor="middle" x="67.5" y="-13" font-family="Helvetica,sans-Serif" font-size="10.00">/attitude_sync_filter.cpp</text>
</a>
</g>
</g>
<!-- Node2&#45;&gt;Node3 -->
<g id="edge2" class="edge"><title>Node2&#45;&gt;Node3</title>
<path fill="none" stroke="midnightblue" d="M70.5784,-84.45C69.8944,-71.7959 69.1493,-58.0112 68.5634,-47.1735"/>
<polygon fill="midnightblue" stroke="midnightblue" points="67.099,-84.9275 71.1337,-94.724 74.0888,-84.5496 67.099,-84.9275"/>
</g>
<!-- Node4 -->
<g id="node4" class="node"><title>Node4</title>
<g id="a_node4"><a xlink:href="_vision4d-_instant_on_8cpp.html" target="_top" xlink:title="/bitrise/src/Source\l/AR6/InstantOn/extensions\l/Vision4d&#45;InstantOn.cpp">
<polygon fill="white" stroke="black" points="153,-6 153,-47 288,-47 288,-6 153,-6"/>
<text text-anchor="start" x="161" y="-35" font-family="Helvetica,sans-Serif" font-size="10.00">/bitrise/src/Source</text>
<text text-anchor="start" x="161" y="-24" font-family="Helvetica,sans-Serif" font-size="10.00">/AR6/InstantOn/extensions</text>
<text text-anchor="middle" x="220.5" y="-13" font-family="Helvetica,sans-Serif" font-size="10.00">/Vision4d&#45;InstantOn.cpp</text>
</a>
</g>
</g>
<!-- Node2&#45;&gt;Node4 -->
<g id="edge3" class="edge"><title>Node2&#45;&gt;Node4</title>
<path fill="none" stroke="midnightblue" d="M121.206,-89.559C143.455,-75.6533 169.172,-59.5803 188.858,-47.2762"/>
<polygon fill="midnightblue" stroke="midnightblue" points="119.176,-86.7001 112.551,-94.9682 122.886,-92.6361 119.176,-86.7001"/>
</g>
<!-- Node5&#45;&gt;Node4 -->
<g id="edge5" class="edge"><title>Node5&#45;&gt;Node4</title>
<path fill="none" stroke="midnightblue" d="M223.578,-84.45C222.894,-71.7959 222.149,-58.0112 221.563,-47.1735"/>
<polygon fill="midnightblue" stroke="midnightblue" points="220.099,-84.9275 224.134,-94.724 227.089,-84.5496 220.099,-84.9275"/>
</g>
<!-- Node7 -->
<g id="node7" class="node"><title>Node7</title>
<g id="a_node7"><a xlink:href="android__attitude__listener_8cpp.html" target="_top" xlink:title="/bitrise/src/Source\l/AR6/InstantOn/external\l/platform/android/device\l/android_attitude_listener.cpp">
<polygon fill="white" stroke="black" points="306.5,-0.5 306.5,-52.5 450.5,-52.5 450.5,-0.5 306.5,-0.5"/>
<text text-anchor="start" x="314.5" y="-40.5" font-family="Helvetica,sans-Serif" font-size="10.00">/bitrise/src/Source</text>
<text text-anchor="start" x="314.5" y="-29.5" font-family="Helvetica,sans-Serif" font-size="10.00">/AR6/InstantOn/external</text>
<text text-anchor="start" x="314.5" y="-18.5" font-family="Helvetica,sans-Serif" font-size="10.00">/platform/android/device</text>
<text text-anchor="middle" x="378.5" y="-7.5" font-family="Helvetica,sans-Serif" font-size="10.00">/android_attitude_listener.cpp</text>
</a>
</g>
</g>
<!-- Node6&#45;&gt;Node7 -->
<g id="edge7" class="edge"><title>Node6&#45;&gt;Node7</title>
<path fill="none" stroke="midnightblue" d="M378.5,-79.4229C378.5,-70.3585 378.5,-60.999 378.5,-52.7655"/>
<polygon fill="midnightblue" stroke="midnightblue" points="375,-79.4556 378.5,-89.4557 382,-79.4557 375,-79.4556"/>
</g>
<!-- Node9 -->
<g id="node9" class="node"><title>Node9</title>
<g id="a_node9"><a xlink:href="i_o_s__attitude__listener_8mm.html" target="_top" xlink:title="/bitrise/src/Source\l/AR6/InstantOn/external\l/platform/iOS/device/iOS\l_attitude_listener.mm">
<polygon fill="white" stroke="black" points="469,-0.5 469,-52.5 594,-52.5 594,-0.5 469,-0.5"/>
<text text-anchor="start" x="477" y="-40.5" font-family="Helvetica,sans-Serif" font-size="10.00">/bitrise/src/Source</text>
<text text-anchor="start" x="477" y="-29.5" font-family="Helvetica,sans-Serif" font-size="10.00">/AR6/InstantOn/external</text>
<text text-anchor="start" x="477" y="-18.5" font-family="Helvetica,sans-Serif" font-size="10.00">/platform/iOS/device/iOS</text>
<text text-anchor="middle" x="531.5" y="-7.5" font-family="Helvetica,sans-Serif" font-size="10.00">_attitude_listener.mm</text>
</a>
</g>
</g>
<!-- Node8&#45;&gt;Node9 -->
<g id="edge9" class="edge"><title>Node8&#45;&gt;Node9</title>
<path fill="none" stroke="midnightblue" d="M529.816,-79.4229C530.11,-70.3585 530.414,-60.999 530.681,-52.7655"/>
<polygon fill="midnightblue" stroke="midnightblue" points="526.317,-79.3475 529.491,-89.4557 533.313,-79.5744 526.317,-79.3475"/>
</g>
</g>
</svg>
