<?xml version="1.0" encoding="UTF-8" standalone="no"?>
<!DOCTYPE svg PUBLIC "-//W3C//DTD SVG 1.1//EN"
 "http://www.w3.org/Graphics/SVG/1.1/DTD/svg11.dtd">
<!-- Generated by graphviz version 2.38.0 (20140413.2041)
 -->
<!-- Title: /bitrise/src/Source/AR6/InstantOn/include/AR6/InstantOn/cv/geometry/camera.h Pages: 1 -->
<svg width="720pt" height="417pt"
 viewBox="0.00 0.00 719.50 417.00" xmlns="http://www.w3.org/2000/svg" xmlns:xlink="http://www.w3.org/1999/xlink">
<g id="graph0" class="graph" transform="scale(1 1) rotate(0) translate(4 413)">
<title>/bitrise/src/Source/AR6/InstantOn/include/AR6/InstantOn/cv/geometry/camera.h</title>
<polygon fill="white" stroke="none" points="-4,4 -4,-413 715.5,-413 715.5,4 -4,4"/>
<!-- Node1 -->
<g id="node1" class="node"><title>Node1</title>
<polygon fill="#bfbfbf" stroke="black" points="251.5,-356.5 251.5,-408.5 393.5,-408.5 393.5,-356.5 251.5,-356.5"/>
<text text-anchor="start" x="259.5" y="-396.5" font-family="Helvetica,sans-Serif" font-size="10.00">/bitrise/src/Source</text>
<text text-anchor="start" x="259.5" y="-385.5" font-family="Helvetica,sans-Serif" font-size="10.00">/AR6/InstantOn/include</text>
<text text-anchor="start" x="259.5" y="-374.5" font-family="Helvetica,sans-Serif" font-size="10.00">/AR6/InstantOn/cv/geometry</text>
<text text-anchor="middle" x="322.5" y="-363.5" font-family="Helvetica,sans-Serif" font-size="10.00">/camera.h</text>
</g>
<!-- Node2 -->
<g id="node2" class="node"><title>Node2</title>
<g id="a_node2"><a xlink:href="harris__ncc__tracker_8cpp.html" target="_top" xlink:title="/bitrise/src/Source\l/AR6/InstantOn/cv/trackers\l/harris_ncc_tracker.cpp">
<polygon fill="white" stroke="black" points="0,-184 0,-225 137,-225 137,-184 0,-184"/>
<text text-anchor="start" x="8" y="-213" font-family="Helvetica,sans-Serif" font-size="10.00">/bitrise/src/Source</text>
<text text-anchor="start" x="8" y="-202" font-family="Helvetica,sans-Serif" font-size="10.00">/AR6/InstantOn/cv/trackers</text>
<text text-anchor="middle" x="68.5" y="-191" font-family="Helvetica,sans-Serif" font-size="10.00">/harris_ncc_tracker.cpp</text>
</a>
</g>
</g>
<!-- Node1&#45;&gt;Node2 -->
<g id="edge1" class="edge"><title>Node1&#45;&gt;Node2</title>
<path fill="none" stroke="midnightblue" d="M241.177,-369.801C181.819,-359.559 108.258,-342.75 87.5,-320 63.8678,-294.1 63.5831,-250.511 65.8254,-225.245"/>
<polygon fill="midnightblue" stroke="midnightblue" points="240.881,-373.3 251.324,-371.512 242.045,-366.398 240.881,-373.3"/>
</g>
<!-- Node3 -->
<g id="node3" class="node"><title>Node3</title>
<g id="a_node3"><a xlink:href="homography__tracker__filter_8cpp.html" target="_top" xlink:title="/bitrise/src/Source\l/AR6/InstantOn/extensions\l/homography_tracker_filter.cpp">
<polygon fill="white" stroke="black" points="155,-184 155,-225 306,-225 306,-184 155,-184"/>
<text text-anchor="start" x="163" y="-213" font-family="Helvetica,sans-Serif" font-size="10.00">/bitrise/src/Source</text>
<text text-anchor="start" x="163" y="-202" font-family="Helvetica,sans-Serif" font-size="10.00">/AR6/InstantOn/extensions</text>
<text text-anchor="middle" x="230.5" y="-191" font-family="Helvetica,sans-Serif" font-size="10.00">/homography_tracker_filter.cpp</text>
</a>
</g>
</g>
<!-- Node1&#45;&gt;Node3 -->
<g id="edge2" class="edge"><title>Node1&#45;&gt;Node3</title>
<path fill="none" stroke="midnightblue" d="M300.749,-347.828C295.243,-338.899 289.482,-329.184 284.5,-320 266.893,-287.545 249.139,-248.376 239.014,-225.283"/>
<polygon fill="midnightblue" stroke="midnightblue" points="297.865,-349.818 306.131,-356.446 303.802,-346.11 297.865,-349.818"/>
</g>
<!-- Node4 -->
<g id="node4" class="node"><title>Node4</title>
<g id="a_node4"><a xlink:href="cv_2geometry_2homography_8h.html" target="_top" xlink:title="/bitrise/src/Source\l/AR6/InstantOn/include\l/AR6/InstantOn/cv/geometry\l/homography.h">
<polygon fill="white" stroke="black" points="96.5,-267.5 96.5,-319.5 238.5,-319.5 238.5,-267.5 96.5,-267.5"/>
<text text-anchor="start" x="104.5" y="-307.5" font-family="Helvetica,sans-Serif" font-size="10.00">/bitrise/src/Source</text>
<text text-anchor="start" x="104.5" y="-296.5" font-family="Helvetica,sans-Serif" font-size="10.00">/AR6/InstantOn/include</text>
<text text-anchor="start" x="104.5" y="-285.5" font-family="Helvetica,sans-Serif" font-size="10.00">/AR6/InstantOn/cv/geometry</text>
<text text-anchor="middle" x="167.5" y="-274.5" font-family="Helvetica,sans-Serif" font-size="10.00">/homography.h</text>
</a>
</g>
</g>
<!-- Node1&#45;&gt;Node4 -->
<g id="edge3" class="edge"><title>Node1&#45;&gt;Node4</title>
<path fill="none" stroke="midnightblue" d="M268.79,-351.353C250.338,-340.996 229.893,-329.521 212.232,-319.607"/>
<polygon fill="midnightblue" stroke="midnightblue" points="267.234,-354.493 277.668,-356.336 270.66,-348.389 267.234,-354.493"/>
</g>
<!-- Node5 -->
<g id="node5" class="node"><title>Node5</title>
<g id="a_node5"><a xlink:href="p3p_8h.html" target="_top" xlink:title="/bitrise/src/Source\l/AR6/InstantOn/include\l/AR6/InstantOn/cv/geometry/p3p.h">
<polygon fill="white" stroke="black" points="294,-273 294,-314 463,-314 463,-273 294,-273"/>
<text text-anchor="start" x="302" y="-302" font-family="Helvetica,sans-Serif" font-size="10.00">/bitrise/src/Source</text>
<text text-anchor="start" x="302" y="-291" font-family="Helvetica,sans-Serif" font-size="10.00">/AR6/InstantOn/include</text>
<text text-anchor="middle" x="378.5" y="-280" font-family="Helvetica,sans-Serif" font-size="10.00">/AR6/InstantOn/cv/geometry/p3p.h</text>
</a>
</g>
</g>
<!-- Node1&#45;&gt;Node5 -->
<g id="edge6" class="edge"><title>Node1&#45;&gt;Node5</title>
<path fill="none" stroke="midnightblue" d="M344.165,-347.842C351.519,-336.417 359.488,-324.037 365.895,-314.082"/>
<polygon fill="midnightblue" stroke="midnightblue" points="341.167,-346.033 338.698,-356.336 347.053,-349.822 341.167,-346.033"/>
</g>
<!-- Node9 -->
<g id="node9" class="node"><title>Node9</title>
<g id="a_node9"><a xlink:href="pinhole__lens__model_8h.html" target="_top" xlink:title="/bitrise/src/Source\l/AR6/InstantOn/include\l/AR6/InstantOn/cv/geometry\l/pinhole_lens_model.h">
<polygon fill="white" stroke="black" points="481.5,-267.5 481.5,-319.5 623.5,-319.5 623.5,-267.5 481.5,-267.5"/>
<text text-anchor="start" x="489.5" y="-307.5" font-family="Helvetica,sans-Serif" font-size="10.00">/bitrise/src/Source</text>
<text text-anchor="start" x="489.5" y="-296.5" font-family="Helvetica,sans-Serif" font-size="10.00">/AR6/InstantOn/include</text>
<text text-anchor="start" x="489.5" y="-285.5" font-family="Helvetica,sans-Serif" font-size="10.00">/AR6/InstantOn/cv/geometry</text>
<text text-anchor="middle" x="552.5" y="-274.5" font-family="Helvetica,sans-Serif" font-size="10.00">/pinhole_lens_model.h</text>
</a>
</g>
</g>
<!-- Node1&#45;&gt;Node9 -->
<g id="edge13" class="edge"><title>Node1&#45;&gt;Node9</title>
<path fill="none" stroke="midnightblue" d="M398.221,-352.858C426.694,-342.087 458.818,-329.936 486.352,-319.521"/>
<polygon fill="midnightblue" stroke="midnightblue" points="396.832,-349.641 388.717,-356.453 399.308,-356.188 396.832,-349.641"/>
</g>
<!-- Node10 -->
<g id="node10" class="node"><title>Node10</title>
<g id="a_node10"><a xlink:href="radial__lens__model_8h.html" target="_top" xlink:title="/bitrise/src/Source\l/AR6/InstantOn/include\l/AR6/InstantOn/cv/geometry\l/radial_lens_model.h">
<polygon fill="white" stroke="black" points="569.5,-178.5 569.5,-230.5 711.5,-230.5 711.5,-178.5 569.5,-178.5"/>
<text text-anchor="start" x="577.5" y="-218.5" font-family="Helvetica,sans-Serif" font-size="10.00">/bitrise/src/Source</text>
<text text-anchor="start" x="577.5" y="-207.5" font-family="Helvetica,sans-Serif" font-size="10.00">/AR6/InstantOn/include</text>
<text text-anchor="start" x="577.5" y="-196.5" font-family="Helvetica,sans-Serif" font-size="10.00">/AR6/InstantOn/cv/geometry</text>
<text text-anchor="middle" x="640.5" y="-185.5" font-family="Helvetica,sans-Serif" font-size="10.00">/radial_lens_model.h</text>
</a>
</g>
</g>
<!-- Node1&#45;&gt;Node10 -->
<g id="edge15" class="edge"><title>Node1&#45;&gt;Node10</title>
<path fill="none" stroke="midnightblue" d="M403.764,-376.334C485.302,-369.314 602.93,-353.555 632.5,-320 653.843,-295.781 651.377,-256.362 646.689,-230.68"/>
<polygon fill="midnightblue" stroke="midnightblue" points="403.185,-372.87 393.509,-377.188 403.765,-379.846 403.185,-372.87"/>
</g>
<!-- Node4&#45;&gt;Node2 -->
<g id="edge4" class="edge"><title>Node4&#45;&gt;Node2</title>
<path fill="none" stroke="midnightblue" d="M131.103,-260.515C117.587,-248.637 102.667,-235.525 90.7831,-225.082"/>
<polygon fill="midnightblue" stroke="midnightblue" points="129.043,-263.364 138.865,-267.336 133.664,-258.106 129.043,-263.364"/>
</g>
<!-- Node4&#45;&gt;Node3 -->
<g id="edge5" class="edge"><title>Node4&#45;&gt;Node3</title>
<path fill="none" stroke="midnightblue" d="M191.63,-259.178C199.97,-247.66 209.04,-235.135 216.32,-225.082"/>
<polygon fill="midnightblue" stroke="midnightblue" points="188.753,-257.184 185.722,-267.336 194.422,-261.289 188.753,-257.184"/>
</g>
<!-- Node6 -->
<g id="node6" class="node"><title>Node6</title>
<g id="a_node6"><a xlink:href="pnp__jacobians_8h.html" target="_top" xlink:title="/bitrise/src/Source\l/AR6/InstantOn/include\l/AR6/InstantOn/cv/pnp\l_estimation/pnp_jacobians.h">
<polygon fill="white" stroke="black" points="362.5,-178.5 362.5,-230.5 502.5,-230.5 502.5,-178.5 362.5,-178.5"/>
<text text-anchor="start" x="370.5" y="-218.5" font-family="Helvetica,sans-Serif" font-size="10.00">/bitrise/src/Source</text>
<text text-anchor="start" x="370.5" y="-207.5" font-family="Helvetica,sans-Serif" font-size="10.00">/AR6/InstantOn/include</text>
<text text-anchor="start" x="370.5" y="-196.5" font-family="Helvetica,sans-Serif" font-size="10.00">/AR6/InstantOn/cv/pnp</text>
<text text-anchor="middle" x="432.5" y="-185.5" font-family="Helvetica,sans-Serif" font-size="10.00">_estimation/pnp_jacobians.h</text>
</a>
</g>
</g>
<!-- Node5&#45;&gt;Node6 -->
<g id="edge7" class="edge"><title>Node5&#45;&gt;Node6</title>
<path fill="none" stroke="midnightblue" d="M396.108,-264.131C402.778,-253.385 410.321,-241.232 416.804,-230.788"/>
<polygon fill="midnightblue" stroke="midnightblue" points="393.053,-262.416 390.753,-272.758 399.001,-266.108 393.053,-262.416"/>
</g>
<!-- Node7 -->
<g id="node7" class="node"><title>Node7</title>
<g id="a_node7"><a xlink:href="pnp__solver_8h.html" target="_top" xlink:title="/bitrise/src/Source\l/AR6/InstantOn/include\l/AR6/InstantOn/cv/pnp\l_estimation/pnp_solver.h">
<polygon fill="white" stroke="black" points="309,-89.5 309,-141.5 434,-141.5 434,-89.5 309,-89.5"/>
<text text-anchor="start" x="317" y="-129.5" font-family="Helvetica,sans-Serif" font-size="10.00">/bitrise/src/Source</text>
<text text-anchor="start" x="317" y="-118.5" font-family="Helvetica,sans-Serif" font-size="10.00">/AR6/InstantOn/include</text>
<text text-anchor="start" x="317" y="-107.5" font-family="Helvetica,sans-Serif" font-size="10.00">/AR6/InstantOn/cv/pnp</text>
<text text-anchor="middle" x="371.5" y="-96.5" font-family="Helvetica,sans-Serif" font-size="10.00">_estimation/pnp_solver.h</text>
</a>
</g>
</g>
<!-- Node5&#45;&gt;Node7 -->
<g id="edge11" class="edge"><title>Node5&#45;&gt;Node7</title>
<path fill="none" stroke="midnightblue" d="M364.13,-263.73C359.818,-253.638 355.662,-242.058 353.5,-231 348.981,-207.882 350.158,-201.317 353.5,-178 355.252,-165.776 358.869,-152.59 362.404,-141.575"/>
<polygon fill="midnightblue" stroke="midnightblue" points="360.955,-265.203 368.253,-272.884 367.338,-262.329 360.955,-265.203"/>
</g>
<!-- Node8 -->
<g id="node8" class="node"><title>Node8</title>
<g id="a_node8"><a xlink:href="robust__pnp_8h.html" target="_top" xlink:title="/bitrise/src/Source\l/AR6/InstantOn/include\l/AR6/InstantOn/cv/pnp\l_estimation/robust_pnp.h">
<polygon fill="white" stroke="black" points="399.5,-0.5 399.5,-52.5 525.5,-52.5 525.5,-0.5 399.5,-0.5"/>
<text text-anchor="start" x="407.5" y="-40.5" font-family="Helvetica,sans-Serif" font-size="10.00">/bitrise/src/Source</text>
<text text-anchor="start" x="407.5" y="-29.5" font-family="Helvetica,sans-Serif" font-size="10.00">/AR6/InstantOn/include</text>
<text text-anchor="start" x="407.5" y="-18.5" font-family="Helvetica,sans-Serif" font-size="10.00">/AR6/InstantOn/cv/pnp</text>
<text text-anchor="middle" x="462.5" y="-7.5" font-family="Helvetica,sans-Serif" font-size="10.00">_estimation/robust_pnp.h</text>
</a>
</g>
</g>
<!-- Node5&#45;&gt;Node8 -->
<g id="edge12" class="edge"><title>Node5&#45;&gt;Node8</title>
<path fill="none" stroke="midnightblue" d="M467.12,-268.574C484.684,-259.664 500.94,-247.518 511.5,-231 547.713,-174.358 505.997,-93.3073 480.073,-52.7062"/>
<polygon fill="midnightblue" stroke="midnightblue" points="465.395,-265.518 457.839,-272.944 468.377,-271.851 465.395,-265.518"/>
</g>
<!-- Node6&#45;&gt;Node7 -->
<g id="edge8" class="edge"><title>Node6&#45;&gt;Node7</title>
<path fill="none" stroke="midnightblue" d="M408.96,-169.927C402.358,-160.511 395.297,-150.439 389.104,-141.607"/>
<polygon fill="midnightblue" stroke="midnightblue" points="406.25,-172.157 414.856,-178.336 411.981,-168.139 406.25,-172.157"/>
</g>
<!-- Node6&#45;&gt;Node8 -->
<g id="edge10" class="edge"><title>Node6&#45;&gt;Node8</title>
<path fill="none" stroke="midnightblue" d="M438.509,-168.249C444.34,-134.038 453.045,-82.9693 458.21,-52.6697"/>
<polygon fill="midnightblue" stroke="midnightblue" points="435.028,-167.838 436.798,-178.283 441.929,-169.014 435.028,-167.838"/>
</g>
<!-- Node7&#45;&gt;Node8 -->
<g id="edge9" class="edge"><title>Node7&#45;&gt;Node8</title>
<path fill="none" stroke="midnightblue" d="M405.114,-82.3631C415.387,-72.542 426.529,-61.8899 436.238,-52.6075"/>
<polygon fill="midnightblue" stroke="midnightblue" points="402.63,-79.8957 397.821,-89.336 407.468,-84.9554 402.63,-79.8957"/>
</g>
<!-- Node9&#45;&gt;Node10 -->
<g id="edge14" class="edge"><title>Node9&#45;&gt;Node10</title>
<path fill="none" stroke="midnightblue" d="M585.296,-260.077C595.149,-250.335 605.806,-239.8 615.104,-230.607"/>
<polygon fill="midnightblue" stroke="midnightblue" points="582.604,-257.816 577.953,-267.336 587.525,-262.794 582.604,-257.816"/>
</g>
</g>
</svg>
