<?xml version="1.0" encoding="UTF-8" standalone="no"?>
<!DOCTYPE svg PUBLIC "-//W3C//DTD SVG 1.1//EN"
 "http://www.w3.org/Graphics/SVG/1.1/DTD/svg11.dtd">
<!-- Generated by graphviz version 2.38.0 (20140413.2041)
 -->
<!-- Title: /bitrise/src/Source/AR6/InstantOn/include/AR6/InstantOn/extensions/camera_listener_base.h Pages: 1 -->
<svg width="412pt" height="228pt"
 viewBox="0.00 0.00 412.00 228.00" xmlns="http://www.w3.org/2000/svg" xmlns:xlink="http://www.w3.org/1999/xlink">
<g id="graph0" class="graph" transform="scale(1 1) rotate(0) translate(4 224)">
<title>/bitrise/src/Source/AR6/InstantOn/include/AR6/InstantOn/extensions/camera_listener_base.h</title>
<polygon fill="white" stroke="none" points="-4,4 -4,-224 408,-224 408,4 -4,4"/>
<!-- Node1 -->
<g id="node1" class="node"><title>Node1</title>
<polygon fill="#bfbfbf" stroke="black" points="125,-167.5 125,-219.5 260,-219.5 260,-167.5 125,-167.5"/>
<text text-anchor="start" x="133" y="-207.5" font-family="Helvetica,sans-Serif" font-size="10.00">/bitrise/src/Source</text>
<text text-anchor="start" x="133" y="-196.5" font-family="Helvetica,sans-Serif" font-size="10.00">/AR6/InstantOn/include</text>
<text text-anchor="start" x="133" y="-185.5" font-family="Helvetica,sans-Serif" font-size="10.00">/AR6/InstantOn/extensions</text>
<text text-anchor="middle" x="192.5" y="-174.5" font-family="Helvetica,sans-Serif" font-size="10.00">/camera_listener_base.h</text>
</g>
<!-- Node2 -->
<g id="node2" class="node"><title>Node2</title>
<g id="a_node2"><a xlink:href="camera__filter_8cpp.html" target="_top" xlink:title="/bitrise/src/Source\l/AR6/InstantOn/extensions\l/camera_filter.cpp">
<polygon fill="white" stroke="black" points="0,-0.5 0,-41.5 135,-41.5 135,-0.5 0,-0.5"/>
<text text-anchor="start" x="8" y="-29.5" font-family="Helvetica,sans-Serif" font-size="10.00">/bitrise/src/Source</text>
<text text-anchor="start" x="8" y="-18.5" font-family="Helvetica,sans-Serif" font-size="10.00">/AR6/InstantOn/extensions</text>
<text text-anchor="middle" x="67.5" y="-7.5" font-family="Helvetica,sans-Serif" font-size="10.00">/camera_filter.cpp</text>
</a>
</g>
</g>
<!-- Node1&#45;&gt;Node2 -->
<g id="edge1" class="edge"><title>Node1&#45;&gt;Node2</title>
<path fill="none" stroke="midnightblue" d="M115.403,-170.772C96.5341,-161.628 78.5937,-148.822 67.5,-131 50.5994,-103.85 56.0129,-65.0433 61.6443,-41.8029"/>
<polygon fill="midnightblue" stroke="midnightblue" points="114.16,-174.051 124.715,-174.972 117.039,-167.67 114.16,-174.051"/>
</g>
<!-- Node3 -->
<g id="node3" class="node"><title>Node3</title>
<g id="a_node3"><a xlink:href="_vision4d-_instant_on_8cpp.html" target="_top" xlink:title="/bitrise/src/Source\l/AR6/InstantOn/extensions\l/Vision4d&#45;InstantOn.cpp">
<polygon fill="white" stroke="black" points="173,-0.5 173,-41.5 308,-41.5 308,-0.5 173,-0.5"/>
<text text-anchor="start" x="181" y="-29.5" font-family="Helvetica,sans-Serif" font-size="10.00">/bitrise/src/Source</text>
<text text-anchor="start" x="181" y="-18.5" font-family="Helvetica,sans-Serif" font-size="10.00">/AR6/InstantOn/extensions</text>
<text text-anchor="middle" x="240.5" y="-7.5" font-family="Helvetica,sans-Serif" font-size="10.00">/Vision4d&#45;InstantOn.cpp</text>
</a>
</g>
</g>
<!-- Node1&#45;&gt;Node3 -->
<g id="edge2" class="edge"><title>Node1&#45;&gt;Node3</title>
<path fill="none" stroke="midnightblue" d="M209.904,-158.213C213.824,-149.5 217.66,-140.041 220.5,-131 230.071,-100.53 235.639,-63.7446 238.371,-41.6456"/>
<polygon fill="midnightblue" stroke="midnightblue" points="206.712,-156.777 205.66,-167.32 213.057,-159.734 206.712,-156.777"/>
</g>
<!-- Node4 -->
<g id="node4" class="node"><title>Node4</title>
<g id="a_node4"><a xlink:href="camera__filter_8h.html" target="_top" xlink:title="/bitrise/src/Source\l/AR6/InstantOn/include\l/AR6/InstantOn/extensions\l/camera_filter.h">
<polygon fill="white" stroke="black" points="77,-78.5 77,-130.5 212,-130.5 212,-78.5 77,-78.5"/>
<text text-anchor="start" x="85" y="-118.5" font-family="Helvetica,sans-Serif" font-size="10.00">/bitrise/src/Source</text>
<text text-anchor="start" x="85" y="-107.5" font-family="Helvetica,sans-Serif" font-size="10.00">/AR6/InstantOn/include</text>
<text text-anchor="start" x="85" y="-96.5" font-family="Helvetica,sans-Serif" font-size="10.00">/AR6/InstantOn/extensions</text>
<text text-anchor="middle" x="144.5" y="-85.5" font-family="Helvetica,sans-Serif" font-size="10.00">/camera_filter.h</text>
</a>
</g>
</g>
<!-- Node1&#45;&gt;Node4 -->
<g id="edge3" class="edge"><title>Node1&#45;&gt;Node4</title>
<path fill="none" stroke="midnightblue" d="M173.659,-158.35C168.555,-149.1 163.126,-139.259 158.352,-130.607"/>
<polygon fill="midnightblue" stroke="midnightblue" points="170.721,-160.271 178.616,-167.336 176.85,-156.889 170.721,-160.271"/>
</g>
<!-- Node5 -->
<g id="node5" class="node"><title>Node5</title>
<g id="a_node5"><a xlink:href="_vision4d-_instant_on_8h.html" target="_top" xlink:title="/bitrise/src/Source\l/AR6/InstantOn/include\l/AR6/InstantOn/extensions\l/Vision4d&#45;InstantOn.h">
<polygon fill="white" stroke="black" points="269,-78.5 269,-130.5 404,-130.5 404,-78.5 269,-78.5"/>
<text text-anchor="start" x="277" y="-118.5" font-family="Helvetica,sans-Serif" font-size="10.00">/bitrise/src/Source</text>
<text text-anchor="start" x="277" y="-107.5" font-family="Helvetica,sans-Serif" font-size="10.00">/AR6/InstantOn/include</text>
<text text-anchor="start" x="277" y="-96.5" font-family="Helvetica,sans-Serif" font-size="10.00">/AR6/InstantOn/extensions</text>
<text text-anchor="middle" x="336.5" y="-85.5" font-family="Helvetica,sans-Serif" font-size="10.00">/Vision4d&#45;InstantOn.h</text>
</a>
</g>
</g>
<!-- Node1&#45;&gt;Node5 -->
<g id="edge6" class="edge"><title>Node1&#45;&gt;Node5</title>
<path fill="none" stroke="midnightblue" d="M242.866,-162.07C259.886,-151.788 278.684,-140.431 294.943,-130.607"/>
<polygon fill="midnightblue" stroke="midnightblue" points="240.9,-159.169 234.151,-167.336 244.52,-165.161 240.9,-159.169"/>
</g>
<!-- Node4&#45;&gt;Node2 -->
<g id="edge4" class="edge"><title>Node4&#45;&gt;Node2</title>
<path fill="none" stroke="midnightblue" d="M113.582,-70.7754C104.251,-60.8991 94.3016,-50.3679 86.0445,-41.6282"/>
<polygon fill="midnightblue" stroke="midnightblue" points="111.147,-73.2944 120.559,-78.1596 116.235,-68.4871 111.147,-73.2944"/>
</g>
<!-- Node4&#45;&gt;Node3 -->
<g id="edge5" class="edge"><title>Node4&#45;&gt;Node3</title>
<path fill="none" stroke="midnightblue" d="M181.772,-71.8579C193.722,-61.7125 206.608,-50.7733 217.255,-41.7338"/>
<polygon fill="midnightblue" stroke="midnightblue" points="179.445,-69.2422 174.086,-78.3823 183.975,-74.5786 179.445,-69.2422"/>
</g>
<!-- Node5&#45;&gt;Node3 -->
<g id="edge7" class="edge"><title>Node5&#45;&gt;Node3</title>
<path fill="none" stroke="midnightblue" d="M299.228,-71.8579C287.278,-61.7125 274.392,-50.7733 263.745,-41.7338"/>
<polygon fill="midnightblue" stroke="midnightblue" points="297.025,-74.5786 306.914,-78.3823 301.555,-69.2422 297.025,-74.5786"/>
</g>
</g>
</svg>
