<?xml version="1.0" encoding="UTF-8" standalone="no"?>
<!DOCTYPE svg PUBLIC "-//W3C//DTD SVG 1.1//EN"
 "http://www.w3.org/Graphics/SVG/1.1/DTD/svg11.dtd">
<!-- Generated by graphviz version 2.38.0 (20140413.2041)
 -->
<!-- Title: /bitrise/src/Source/AR6/InstantOn/include/AR6/InstantOn/extensions/camera_listener_base.h Pages: 1 -->
<!--zoomable 452 -->
<svg id="main" version="1.1" xmlns="http://www.w3.org/2000/svg" xmlns:xlink="http://www.w3.org/1999/xlink" xml:space="preserve" onload="init(evt)">
<style type="text/css"><![CDATA[
.edge:hover path { stroke: red; }
.edge:hover polygon { stroke: red; fill: red; }
]]></style>
<script type="text/javascript"><![CDATA[
var edges = document.getElementsByTagName('g');
if (edges && edges.length) {
  for (var i=0;i<edges.length;i++) {
    if (edges[i].id.substr(0,4)=='edge') {
      edges[i].setAttribute('class','edge');
    }
  }
}
]]></script>
        <defs>
                <circle id="rim" cx="0" cy="0" r="7"/>
                <circle id="rim2" cx="0" cy="0" r="3.5"/>
                <g id="zoomPlus">
                        <use xlink:href="#rim" fill="#404040">
                                <set attributeName="fill" to="#808080" begin="zoomplus.mouseover" end="zoomplus.mouseout"/>
                        </use>
                        <path d="M-4,0h8M0,-4v8" fill="none" stroke="white" stroke-width="1.5" pointer-events="none"/>
                </g>
                <g id="zoomMin">
                        <use xlink:href="#rim" fill="#404040">
                                <set attributeName="fill" to="#808080" begin="zoomminus.mouseover" end="zoomminus.mouseout"/>
                        </use>
                        <path d="M-4,0h8" fill="none" stroke="white" stroke-width="1.5" pointer-events="none"/>
                </g>
                <g id="dirArrow">
                        <path fill="none" stroke="white" stroke-width="1.5" d="M0,-3.0v7 M-2.5,-0.5L0,-3.0L2.5,-0.5"/>
                </g>
               <g id="resetDef">
                       <use xlink:href="#rim2" fill="#404040">
                               <set attributeName="fill" to="#808080" begin="reset.mouseover" end="reset.mouseout"/>
                       </use>
               </g>
        </defs>

<script type="text/javascript">
var viewWidth = 1146;
var viewHeight = 452;
var sectionId = 'dynsection-0';
</script>
<script xlink:href="svgpan.js"/>
<svg id="graph" class="graph">
<g id="viewport">
<title>/bitrise/src/Source/AR6/InstantOn/include/AR6/InstantOn/extensions/camera_listener_base.h</title>
<polygon fill="white" stroke="none" points="-4,4 -4,-448 1142,-448 1142,4 -4,4"/>
<!-- Node1 -->
<g id="node1" class="node"><title>Node1</title>
<polygon fill="#bfbfbf" stroke="black" points="286.5,-391.5 286.5,-443.5 421.5,-443.5 421.5,-391.5 286.5,-391.5"/>
<text text-anchor="start" x="294.5" y="-431.5" font-family="Helvetica,sans-Serif" font-size="10.00">/bitrise/src/Source</text>
<text text-anchor="start" x="294.5" y="-420.5" font-family="Helvetica,sans-Serif" font-size="10.00">/AR6/InstantOn/include</text>
<text text-anchor="start" x="294.5" y="-409.5" font-family="Helvetica,sans-Serif" font-size="10.00">/AR6/InstantOn/extensions</text>
<text text-anchor="middle" x="354" y="-398.5" font-family="Helvetica,sans-Serif" font-size="10.00">/camera_listener_base.h</text>
</g>
<!-- Node2 -->
<g id="node2" class="node"><title>Node2</title>
<polygon fill="white" stroke="#bfbfbf" points="233,-330 233,-349 279,-349 279,-330 233,-330"/>
<text text-anchor="middle" x="256" y="-337" font-family="Helvetica,sans-Serif" font-size="10.00">cstdint</text>
</g>
<!-- Node1&#45;&gt;Node2 -->
<g id="edge1" class="edge"><title>Node1&#45;&gt;Node2</title>
<path fill="none" stroke="midnightblue" d="M321.64,-391.404C306.273,-379.487 288.429,-365.649 275.227,-355.411"/>
<polygon fill="midnightblue" stroke="midnightblue" points="277.343,-352.622 267.296,-349.26 273.053,-358.154 277.343,-352.622"/>
</g>
<!-- Node3 -->
<g id="node3" class="node"><title>Node3</title>
<g id="a_node3"><a xlink:href="sample_8h.html" target="_top" xlink:title="AR6/InstantOn/framework\l/sample.h">
<polygon fill="white" stroke="black" points="528.5,-257.5 528.5,-287.5 659.5,-287.5 659.5,-257.5 528.5,-257.5"/>
<text text-anchor="start" x="536.5" y="-275.5" font-family="Helvetica,sans-Serif" font-size="10.00">AR6/InstantOn/framework</text>
<text text-anchor="middle" x="594" y="-264.5" font-family="Helvetica,sans-Serif" font-size="10.00">/sample.h</text>
</a>
</g>
</g>
<!-- Node1&#45;&gt;Node3 -->
<g id="edge2" class="edge"><title>Node1&#45;&gt;Node3</title>
<path fill="none" stroke="midnightblue" d="M407.697,-391.416C429.282,-380.824 454.175,-367.955 476,-355 508.416,-335.759 543.763,-310.769 567.236,-293.561"/>
<polygon fill="midnightblue" stroke="midnightblue" points="569.35,-296.352 575.319,-287.599 565.194,-290.719 569.35,-296.352"/>
</g>
<!-- Node20 -->
<g id="node20" class="node"><title>Node20</title>
<g id="a_node20"><a xlink:href="listener__base_8h.html" target="_top" xlink:title="AR6/InstantOn/framework\l/listener_base.h">
<polygon fill="white" stroke="black" points="113.5,-257.5 113.5,-287.5 244.5,-287.5 244.5,-257.5 113.5,-257.5"/>
<text text-anchor="start" x="121.5" y="-275.5" font-family="Helvetica,sans-Serif" font-size="10.00">AR6/InstantOn/framework</text>
<text text-anchor="middle" x="179" y="-264.5" font-family="Helvetica,sans-Serif" font-size="10.00">/listener_base.h</text>
</a>
</g>
</g>
<!-- Node1&#45;&gt;Node20 -->
<g id="edge26" class="edge"><title>Node1&#45;&gt;Node20</title>
<path fill="none" stroke="midnightblue" d="M340.905,-391.365C329.271,-371.023 310.624,-342.766 288,-324 271.521,-310.331 250.731,-299.504 231.737,-291.438"/>
<polygon fill="midnightblue" stroke="midnightblue" points="232.875,-288.122 222.293,-287.586 230.231,-294.604 232.875,-288.122"/>
</g>
<!-- Node29 -->
<g id="node29" class="node"><title>Node29</title>
<g id="a_node29"><a xlink:href="image__sample_8h.html" target="_top" xlink:title="AR6/InstantOn/extensions\l/image_sample.h">
<polygon fill="white" stroke="black" points="335,-324.5 335,-354.5 467,-354.5 467,-324.5 335,-324.5"/>
<text text-anchor="start" x="343" y="-342.5" font-family="Helvetica,sans-Serif" font-size="10.00">AR6/InstantOn/extensions</text>
<text text-anchor="middle" x="401" y="-331.5" font-family="Helvetica,sans-Serif" font-size="10.00">/image_sample.h</text>
</a>
</g>
</g>
<!-- Node1&#45;&gt;Node29 -->
<g id="edge37" class="edge"><title>Node1&#45;&gt;Node29</title>
<path fill="none" stroke="midnightblue" d="M369.65,-391.193C375.2,-382.22 381.409,-372.179 386.828,-363.416"/>
<polygon fill="midnightblue" stroke="midnightblue" points="389.846,-365.191 392.129,-354.845 383.892,-361.509 389.846,-365.191"/>
</g>
<!-- Node4 -->
<g id="node4" class="node"><title>Node4</title>
<g id="a_node4"><a xlink:href="stream_8h.html" target="_top" xlink:title="stream.h">
<polygon fill="white" stroke="black" points="702.5,-201.5 702.5,-220.5 757.5,-220.5 757.5,-201.5 702.5,-201.5"/>
<text text-anchor="middle" x="730" y="-208.5" font-family="Helvetica,sans-Serif" font-size="10.00">stream.h</text>
</a>
</g>
</g>
<!-- Node3&#45;&gt;Node4 -->
<g id="edge3" class="edge"><title>Node3&#45;&gt;Node4</title>
<path fill="none" stroke="midnightblue" d="M626.23,-257.399C648.845,-247.505 678.838,-234.383 700.761,-224.792"/>
<polygon fill="midnightblue" stroke="midnightblue" points="702.452,-227.873 710.211,-220.658 699.646,-221.459 702.452,-227.873"/>
</g>
<!-- Node15 -->
<g id="node15" class="node"><title>Node15</title>
<polygon fill="white" stroke="#bfbfbf" points="522,-6 522,-25 574,-25 574,-6 522,-6"/>
<text text-anchor="middle" x="548" y="-13" font-family="Helvetica,sans-Serif" font-size="10.00">memory</text>
</g>
<!-- Node3&#45;&gt;Node15 -->
<g id="edge25" class="edge"><title>Node3&#45;&gt;Node15</title>
<path fill="none" stroke="midnightblue" d="M591.461,-257.427C583.684,-214.316 560.186,-84.0515 551.38,-35.2391"/>
<polygon fill="midnightblue" stroke="midnightblue" points="554.781,-34.3766 549.562,-25.1568 547.893,-35.6193 554.781,-34.3766"/>
</g>
<!-- Node19 -->
<g id="node19" class="node"><title>Node19</title>
<g id="a_node19"><a xlink:href="date__time_8h.html" target="_top" xlink:title="date_time.h">
<polygon fill="white" stroke="black" points="849,-201.5 849,-220.5 917,-220.5 917,-201.5 849,-201.5"/>
<text text-anchor="middle" x="883" y="-208.5" font-family="Helvetica,sans-Serif" font-size="10.00">date_time.h</text>
</a>
</g>
</g>
<!-- Node3&#45;&gt;Node19 -->
<g id="edge23" class="edge"><title>Node3&#45;&gt;Node19</title>
<path fill="none" stroke="midnightblue" d="M659.579,-257.999C714.348,-246.723 790.937,-230.954 838.718,-221.117"/>
<polygon fill="midnightblue" stroke="midnightblue" points="839.662,-224.496 848.751,-219.051 838.251,-217.64 839.662,-224.496"/>
</g>
<!-- Node5 -->
<g id="node5" class="node"><title>Node5</title>
<polygon fill="white" stroke="#bfbfbf" points="620,-0.5 620,-30.5 722,-30.5 722,-0.5 620,-0.5"/>
<text text-anchor="start" x="628" y="-18.5" font-family="Helvetica,sans-Serif" font-size="10.00">artvision/framework</text>
<text text-anchor="middle" x="671" y="-7.5" font-family="Helvetica,sans-Serif" font-size="10.00">/error.h</text>
</g>
<!-- Node4&#45;&gt;Node5 -->
<g id="edge4" class="edge"><title>Node4&#45;&gt;Node5</title>
<path fill="none" stroke="midnightblue" d="M727.389,-201.436C718.839,-173.395 691.476,-83.6528 678.268,-40.3369"/>
<polygon fill="midnightblue" stroke="midnightblue" points="681.573,-39.1744 675.308,-30.6299 674.877,-41.216 681.573,-39.1744"/>
</g>
<!-- Node6 -->
<g id="node6" class="node"><title>Node6</title>
<g id="a_node6"><a xlink:href="linear__algebra_8h.html" target="_top" xlink:title="AR6/InstantOn/math\l/linear_algebra.h">
<polygon fill="white" stroke="black" points="788.5,-134.5 788.5,-164.5 895.5,-164.5 895.5,-134.5 788.5,-134.5"/>
<text text-anchor="start" x="796.5" y="-152.5" font-family="Helvetica,sans-Serif" font-size="10.00">AR6/InstantOn/math</text>
<text text-anchor="middle" x="842" y="-141.5" font-family="Helvetica,sans-Serif" font-size="10.00">/linear_algebra.h</text>
</a>
</g>
</g>
<!-- Node4&#45;&gt;Node6 -->
<g id="edge5" class="edge"><title>Node4&#45;&gt;Node6</title>
<path fill="none" stroke="midnightblue" d="M746.047,-201.475C761.783,-193.115 786.301,-180.09 806.614,-169.299"/>
<polygon fill="midnightblue" stroke="midnightblue" points="808.415,-172.305 815.604,-164.523 805.131,-166.124 808.415,-172.305"/>
</g>
<!-- Node14 -->
<g id="node14" class="node"><title>Node14</title>
<g id="a_node14"><a xlink:href="indexing_8h.html" target="_top" xlink:title="indexing.h">
<polygon fill="white" stroke="black" points="736.5,-73 736.5,-92 797.5,-92 797.5,-73 736.5,-73"/>
<text text-anchor="middle" x="767" y="-80" font-family="Helvetica,sans-Serif" font-size="10.00">indexing.h</text>
</a>
</g>
</g>
<!-- Node4&#45;&gt;Node14 -->
<g id="edge20" class="edge"><title>Node4&#45;&gt;Node14</title>
<path fill="none" stroke="midnightblue" d="M732.543,-201.305C738.51,-180.904 753.516,-129.6 761.616,-101.908"/>
<polygon fill="midnightblue" stroke="midnightblue" points="764.991,-102.836 764.439,-92.2557 758.272,-100.871 764.991,-102.836"/>
</g>
<!-- Node4&#45;&gt;Node15 -->
<g id="edge22" class="edge"><title>Node4&#45;&gt;Node15</title>
<path fill="none" stroke="midnightblue" d="M723.314,-201.188C705.628,-178.102 655.694,-114.377 608,-67 595.252,-54.3374 579.703,-41.3099 567.628,-31.6588"/>
<polygon fill="midnightblue" stroke="midnightblue" points="569.559,-28.7245 559.54,-25.2816 565.225,-34.2215 569.559,-28.7245"/>
</g>
<!-- Node18 -->
<g id="node18" class="node"><title>Node18</title>
<polygon fill="white" stroke="#bfbfbf" points="913.5,-140 913.5,-159 954.5,-159 954.5,-140 913.5,-140"/>
<text text-anchor="middle" x="934" y="-147" font-family="Helvetica,sans-Serif" font-size="10.00">string</text>
</g>
<!-- Node4&#45;&gt;Node18 -->
<g id="edge21" class="edge"><title>Node4&#45;&gt;Node18</title>
<path fill="none" stroke="midnightblue" d="M757.634,-204.615C792.389,-197.445 853.616,-183.486 904,-165 905.426,-164.477 906.874,-163.909 908.326,-163.31"/>
<polygon fill="midnightblue" stroke="midnightblue" points="910.063,-166.367 917.748,-159.074 907.192,-159.982 910.063,-166.367"/>
</g>
<!-- Node7 -->
<g id="node7" class="node"><title>Node7</title>
<g id="a_node7"><a xlink:href="math__utils_8h.html" target="_top" xlink:title="math_utils.h">
<polygon fill="white" stroke="black" points="944,-73 944,-92 1014,-92 1014,-73 944,-73"/>
<text text-anchor="middle" x="979" y="-80" font-family="Helvetica,sans-Serif" font-size="10.00">math_utils.h</text>
</a>
</g>
</g>
<!-- Node6&#45;&gt;Node7 -->
<g id="edge6" class="edge"><title>Node6&#45;&gt;Node7</title>
<path fill="none" stroke="midnightblue" d="M871.727,-134.396C895.552,-123.092 928.709,-107.361 951.831,-96.3903"/>
<polygon fill="midnightblue" stroke="midnightblue" points="953.535,-99.4557 961.07,-92.007 950.535,-93.1314 953.535,-99.4557"/>
</g>
<!-- Node9 -->
<g id="node9" class="node"><title>Node9</title>
<g id="a_node9"><a xlink:href="_instant_on_2include_2_a_r6_2_instant_on_2math_2matrix_8h.html" target="_top" xlink:title="matrix.h">
<polygon fill="white" stroke="black" points="1032,-73 1032,-92 1084,-92 1084,-73 1032,-73"/>
<text text-anchor="middle" x="1058" y="-80" font-family="Helvetica,sans-Serif" font-size="10.00">matrix.h</text>
</a>
</g>
</g>
<!-- Node6&#45;&gt;Node9 -->
<g id="edge9" class="edge"><title>Node6&#45;&gt;Node9</title>
<path fill="none" stroke="midnightblue" d="M895.584,-135.364C931.886,-126.023 980.752,-112.585 1023,-98 1024.91,-97.34 1026.87,-96.6293 1028.83,-95.8897"/>
<polygon fill="midnightblue" stroke="midnightblue" points="1030.53,-98.984 1038.54,-92.0507 1027.95,-92.4748 1030.53,-98.984"/>
</g>
<!-- Node10 -->
<g id="node10" class="node"><title>Node10</title>
<g id="a_node10"><a xlink:href="vector_8h.html" target="_top" xlink:title="vector.h">
<polygon fill="white" stroke="black" points="1086,-6 1086,-25 1138,-25 1138,-6 1086,-6"/>
<text text-anchor="middle" x="1112" y="-13" font-family="Helvetica,sans-Serif" font-size="10.00">vector.h</text>
</a>
</g>
</g>
<!-- Node6&#45;&gt;Node10 -->
<g id="edge13" class="edge"><title>Node6&#45;&gt;Node10</title>
<path fill="none" stroke="midnightblue" d="M895.586,-136.025C898.769,-135.328 901.925,-134.648 905,-134 988.245,-116.456 1031.66,-156.946 1093,-98 1109.83,-81.8272 1113.02,-53.8557 1113.06,-35.2638"/>
<polygon fill="midnightblue" stroke="midnightblue" points="1116.55,-34.9862 1112.77,-25.0891 1109.56,-35.184 1116.55,-34.9862"/>
</g>
<!-- Node12 -->
<g id="node12" class="node"><title>Node12</title>
<polygon fill="white" stroke="#bfbfbf" points="816,-73 816,-92 868,-92 868,-73 816,-73"/>
<text text-anchor="middle" x="842" y="-80" font-family="Helvetica,sans-Serif" font-size="10.00">assert.h</text>
</g>
<!-- Node6&#45;&gt;Node12 -->
<g id="edge14" class="edge"><title>Node6&#45;&gt;Node12</title>
<path fill="none" stroke="midnightblue" d="M842,-134.396C842,-125.064 842,-112.714 842,-102.517"/>
<polygon fill="midnightblue" stroke="midnightblue" points="845.5,-102.195 842,-92.1945 838.5,-102.195 845.5,-102.195"/>
</g>
<!-- Node13 -->
<g id="node13" class="node"><title>Node13</title>
<polygon fill="white" stroke="#bfbfbf" points="886,-73 886,-92 926,-92 926,-73 886,-73"/>
<text text-anchor="middle" x="906" y="-80" font-family="Helvetica,sans-Serif" font-size="10.00">limits</text>
</g>
<!-- Node6&#45;&gt;Node13 -->
<g id="edge15" class="edge"><title>Node6&#45;&gt;Node13</title>
<path fill="none" stroke="midnightblue" d="M855.887,-134.396C865.965,-124.161 879.616,-110.296 890.126,-99.622"/>
<polygon fill="midnightblue" stroke="midnightblue" points="892.917,-101.776 897.439,-92.1945 887.929,-96.8646 892.917,-101.776"/>
</g>
<!-- Node6&#45;&gt;Node14 -->
<g id="edge16" class="edge"><title>Node6&#45;&gt;Node14</title>
<path fill="none" stroke="midnightblue" d="M825.726,-134.396C813.685,-123.96 797.289,-109.751 784.882,-98.9978"/>
<polygon fill="midnightblue" stroke="midnightblue" points="786.881,-96.099 777.032,-92.1945 782.297,-101.389 786.881,-96.099"/>
</g>
<!-- Node7&#45;&gt;Node5 -->
<g id="edge8" class="edge"><title>Node7&#45;&gt;Node5</title>
<path fill="none" stroke="midnightblue" d="M954.975,-72.8953C948.54,-70.7802 941.551,-68.6514 935,-67 846.149,-44.6034 821.722,-49.603 732,-31 731.9,-30.9793 731.8,-30.9585 731.7,-30.9377"/>
<polygon fill="midnightblue" stroke="midnightblue" points="732.719,-27.5768 722.207,-28.8992 731.249,-34.4208 732.719,-27.5768"/>
</g>
<!-- Node8 -->
<g id="node8" class="node"><title>Node8</title>
<polygon fill="white" stroke="#bfbfbf" points="957,-6 957,-25 1001,-25 1001,-6 957,-6"/>
<text text-anchor="middle" x="979" y="-13" font-family="Helvetica,sans-Serif" font-size="10.00">cmath</text>
</g>
<!-- Node7&#45;&gt;Node8 -->
<g id="edge7" class="edge"><title>Node7&#45;&gt;Node8</title>
<path fill="none" stroke="midnightblue" d="M979,-72.7338C979,-63.1826 979,-47.6183 979,-35.2829"/>
<polygon fill="midnightblue" stroke="midnightblue" points="982.5,-35.1273 979,-25.1273 975.5,-35.1273 982.5,-35.1273"/>
</g>
<!-- Node9&#45;&gt;Node5 -->
<g id="edge10" class="edge"><title>Node9&#45;&gt;Node5</title>
<path fill="none" stroke="midnightblue" d="M1039.79,-72.8696C1034.48,-70.6511 1028.6,-68.4763 1023,-67 896.991,-33.7591 860.255,-54.104 732,-31 731.9,-30.9819 731.799,-30.9638 731.698,-30.9455"/>
<polygon fill="midnightblue" stroke="midnightblue" points="732.653,-27.5655 722.169,-29.0957 731.319,-34.4372 732.653,-27.5655"/>
</g>
<!-- Node9&#45;&gt;Node10 -->
<g id="edge11" class="edge"><title>Node9&#45;&gt;Node10</title>
<path fill="none" stroke="midnightblue" d="M1065.28,-72.7338C1073.7,-62.5979 1087.75,-45.6899 1098.25,-33.0556"/>
<polygon fill="midnightblue" stroke="midnightblue" points="1101.13,-35.0558 1104.83,-25.1273 1095.75,-30.5826 1101.13,-35.0558"/>
</g>
<!-- Node11 -->
<g id="node11" class="node"><title>Node11</title>
<polygon fill="white" stroke="#bfbfbf" points="1024,-6 1024,-25 1068,-25 1068,-6 1024,-6"/>
<text text-anchor="middle" x="1046" y="-13" font-family="Helvetica,sans-Serif" font-size="10.00">vector</text>
</g>
<!-- Node9&#45;&gt;Node11 -->
<g id="edge12" class="edge"><title>Node9&#45;&gt;Node11</title>
<path fill="none" stroke="midnightblue" d="M1056.38,-72.7338C1054.62,-63.1826 1051.74,-47.6183 1049.47,-35.2829"/>
<polygon fill="midnightblue" stroke="midnightblue" points="1052.85,-34.3257 1047.59,-25.1273 1045.97,-35.5966 1052.85,-34.3257"/>
</g>
<!-- Node14&#45;&gt;Node15 -->
<g id="edge17" class="edge"><title>Node14&#45;&gt;Node15</title>
<path fill="none" stroke="midnightblue" d="M737.918,-72.8685C698.171,-61.0713 626.917,-39.9228 583.894,-27.1535"/>
<polygon fill="midnightblue" stroke="midnightblue" points="584.704,-23.7432 574.122,-24.2531 582.713,-30.4538 584.704,-23.7432"/>
</g>
<!-- Node16 -->
<g id="node16" class="node"><title>Node16</title>
<polygon fill="white" stroke="#bfbfbf" points="808.5,-6 808.5,-25 857.5,-25 857.5,-6 808.5,-6"/>
<text text-anchor="middle" x="833" y="-13" font-family="Helvetica,sans-Serif" font-size="10.00">cstddef</text>
</g>
<!-- Node14&#45;&gt;Node16 -->
<g id="edge18" class="edge"><title>Node14&#45;&gt;Node16</title>
<path fill="none" stroke="midnightblue" d="M775.901,-72.7338C786.391,-62.403 804.024,-45.0371 816.925,-32.3315"/>
<polygon fill="midnightblue" stroke="midnightblue" points="819.571,-34.6379 824.24,-25.1273 814.659,-29.6505 819.571,-34.6379"/>
</g>
<!-- Node17 -->
<g id="node17" class="node"><title>Node17</title>
<polygon fill="white" stroke="#bfbfbf" points="741.5,-6 741.5,-25 790.5,-25 790.5,-6 741.5,-6"/>
<text text-anchor="middle" x="766" y="-13" font-family="Helvetica,sans-Serif" font-size="10.00">string.h</text>
</g>
<!-- Node14&#45;&gt;Node17 -->
<g id="edge19" class="edge"><title>Node14&#45;&gt;Node17</title>
<path fill="none" stroke="midnightblue" d="M766.865,-72.7338C766.718,-63.1826 766.479,-47.6183 766.289,-35.2829"/>
<polygon fill="midnightblue" stroke="midnightblue" points="769.786,-35.0722 766.133,-25.1273 762.787,-35.18 769.786,-35.0722"/>
</g>
<!-- Node19&#45;&gt;Node18 -->
<g id="edge24" class="edge"><title>Node19&#45;&gt;Node18</title>
<path fill="none" stroke="midnightblue" d="M890.307,-201.475C898.033,-192.462 910.408,-178.025 920.018,-166.812"/>
<polygon fill="midnightblue" stroke="midnightblue" points="922.856,-168.879 926.706,-159.009 917.541,-164.324 922.856,-168.879"/>
</g>
<!-- Node21 -->
<g id="node21" class="node"><title>Node21</title>
<g id="a_node21"><a xlink:href="thread_8h.html" target="_top" xlink:title="thread.h">
<polygon fill="white" stroke="black" points="68,-201.5 68,-220.5 120,-220.5 120,-201.5 68,-201.5"/>
<text text-anchor="middle" x="94" y="-208.5" font-family="Helvetica,sans-Serif" font-size="10.00">thread.h</text>
</a>
</g>
</g>
<!-- Node20&#45;&gt;Node21 -->
<g id="edge27" class="edge"><title>Node20&#45;&gt;Node21</title>
<path fill="none" stroke="midnightblue" d="M158.856,-257.399C145.613,-248.129 128.322,-236.025 114.924,-226.647"/>
<polygon fill="midnightblue" stroke="midnightblue" points="116.568,-223.525 106.368,-220.658 112.553,-229.26 116.568,-223.525"/>
</g>
<!-- Node24 -->
<g id="node24" class="node"><title>Node24</title>
<g id="a_node24"><a xlink:href="synchronization_8h.html" target="_top" xlink:title="synchronization.h">
<polygon fill="white" stroke="black" points="106.5,-73 106.5,-92 199.5,-92 199.5,-73 106.5,-73"/>
<text text-anchor="middle" x="153" y="-80" font-family="Helvetica,sans-Serif" font-size="10.00">synchronization.h</text>
</a>
</g>
</g>
<!-- Node20&#45;&gt;Node24 -->
<g id="edge30" class="edge"><title>Node20&#45;&gt;Node24</title>
<path fill="none" stroke="midnightblue" d="M176.657,-257.366C175.005,-247.249 172.779,-233.299 171,-221 164.876,-178.658 158.581,-128.846 155.303,-102.336"/>
<polygon fill="midnightblue" stroke="midnightblue" points="158.75,-101.696 154.056,-92.1983 151.803,-102.551 158.75,-101.696"/>
</g>
<!-- Node26 -->
<g id="node26" class="node"><title>Node26</title>
<g id="a_node26"><a xlink:href="lockfree__queue_8h.html" target="_top" xlink:title="lockfree_queue.h">
<polygon fill="white" stroke="black" points="180.5,-201.5 180.5,-220.5 271.5,-220.5 271.5,-201.5 180.5,-201.5"/>
<text text-anchor="middle" x="226" y="-208.5" font-family="Helvetica,sans-Serif" font-size="10.00">lockfree_queue.h</text>
</a>
</g>
</g>
<!-- Node20&#45;&gt;Node26 -->
<g id="edge32" class="edge"><title>Node20&#45;&gt;Node26</title>
<path fill="none" stroke="midnightblue" d="M190.138,-257.399C196.968,-248.753 205.745,-237.642 212.906,-228.576"/>
<polygon fill="midnightblue" stroke="midnightblue" points="215.709,-230.674 219.161,-220.658 210.216,-226.335 215.709,-230.674"/>
</g>
<!-- Node22 -->
<g id="node22" class="node"><title>Node22</title>
<polygon fill="white" stroke="#bfbfbf" points="0,-140 0,-159 46,-159 46,-140 0,-140"/>
<text text-anchor="middle" x="23" y="-147" font-family="Helvetica,sans-Serif" font-size="10.00">atomic</text>
</g>
<!-- Node21&#45;&gt;Node22 -->
<g id="edge28" class="edge"><title>Node21&#45;&gt;Node22</title>
<path fill="none" stroke="midnightblue" d="M83.8274,-201.475C72.6502,-192.108 54.4833,-176.884 40.9088,-165.508"/>
<polygon fill="midnightblue" stroke="midnightblue" points="43.0663,-162.75 33.1537,-159.009 38.5701,-168.115 43.0663,-162.75"/>
</g>
<!-- Node23 -->
<g id="node23" class="node"><title>Node23</title>
<polygon fill="white" stroke="#bfbfbf" points="64.5,-140 64.5,-159 123.5,-159 123.5,-140 64.5,-140"/>
<text text-anchor="middle" x="94" y="-147" font-family="Helvetica,sans-Serif" font-size="10.00">stdexcept</text>
</g>
<!-- Node21&#45;&gt;Node23 -->
<g id="edge29" class="edge"><title>Node21&#45;&gt;Node23</title>
<path fill="none" stroke="midnightblue" d="M94,-201.475C94,-193.08 94,-179.981 94,-169.163"/>
<polygon fill="midnightblue" stroke="midnightblue" points="97.5001,-169.009 94,-159.009 90.5001,-169.009 97.5001,-169.009"/>
</g>
<!-- Node25 -->
<g id="node25" class="node"><title>Node25</title>
<polygon fill="white" stroke="#bfbfbf" points="279,-0.5 279,-30.5 381,-30.5 381,-0.5 279,-0.5"/>
<text text-anchor="start" x="287" y="-18.5" font-family="Helvetica,sans-Serif" font-size="10.00">artvision/framework</text>
<text text-anchor="middle" x="330" y="-7.5" font-family="Helvetica,sans-Serif" font-size="10.00">/exception.h</text>
</g>
<!-- Node24&#45;&gt;Node25 -->
<g id="edge31" class="edge"><title>Node24&#45;&gt;Node25</title>
<path fill="none" stroke="midnightblue" d="M176.504,-72.8685C203.294,-63.0306 247.792,-46.6895 281.998,-34.1277"/>
<polygon fill="midnightblue" stroke="midnightblue" points="283.62,-37.2608 291.8,-30.5281 281.207,-30.6899 283.62,-37.2608"/>
</g>
<!-- Node26&#45;&gt;Node5 -->
<g id="edge33" class="edge"><title>Node26&#45;&gt;Node5</title>
<path fill="none" stroke="midnightblue" d="M271.636,-207.156C346.385,-201.877 491.1,-188.866 536,-165 591.682,-135.402 636.107,-73.4327 657.361,-39.6562"/>
<polygon fill="midnightblue" stroke="midnightblue" points="660.472,-41.2786 662.732,-30.9275 654.51,-37.6104 660.472,-41.2786"/>
</g>
<!-- Node27 -->
<g id="node27" class="node"><title>Node27</title>
<g id="a_node27"><a xlink:href="queue_8h.html" target="_top" xlink:title="queue.h">
<polygon fill="white" stroke="black" points="200.5,-140 200.5,-159 251.5,-159 251.5,-140 200.5,-140"/>
<text text-anchor="middle" x="226" y="-147" font-family="Helvetica,sans-Serif" font-size="10.00">queue.h</text>
</a>
</g>
</g>
<!-- Node26&#45;&gt;Node27 -->
<g id="edge34" class="edge"><title>Node26&#45;&gt;Node27</title>
<path fill="none" stroke="midnightblue" d="M226,-201.475C226,-193.08 226,-179.981 226,-169.163"/>
<polygon fill="midnightblue" stroke="midnightblue" points="229.5,-169.009 226,-159.009 222.5,-169.009 229.5,-169.009"/>
</g>
<!-- Node27&#45;&gt;Node24 -->
<g id="edge36" class="edge"><title>Node27&#45;&gt;Node24</title>
<path fill="none" stroke="midnightblue" d="M216.155,-139.734C204.443,-129.305 184.681,-111.709 170.378,-98.9732"/>
<polygon fill="midnightblue" stroke="midnightblue" points="172.485,-96.1634 162.689,-92.1273 167.83,-101.391 172.485,-96.1634"/>
</g>
<!-- Node28 -->
<g id="node28" class="node"><title>Node28</title>
<polygon fill="white" stroke="#bfbfbf" points="217.5,-73 217.5,-92 260.5,-92 260.5,-73 217.5,-73"/>
<text text-anchor="middle" x="239" y="-80" font-family="Helvetica,sans-Serif" font-size="10.00">queue</text>
</g>
<!-- Node27&#45;&gt;Node28 -->
<g id="edge35" class="edge"><title>Node27&#45;&gt;Node28</title>
<path fill="none" stroke="midnightblue" d="M227.753,-139.734C229.663,-130.183 232.776,-114.618 235.243,-102.283"/>
<polygon fill="midnightblue" stroke="midnightblue" points="238.745,-102.62 237.275,-92.1273 231.881,-101.247 238.745,-102.62"/>
</g>
<!-- Node29&#45;&gt;Node3 -->
<g id="edge38" class="edge"><title>Node29&#45;&gt;Node3</title>
<path fill="none" stroke="midnightblue" d="M442.878,-324.396C472.089,-314.558 511.257,-301.367 542.398,-290.879"/>
<polygon fill="midnightblue" stroke="midnightblue" points="543.844,-294.085 552.204,-287.577 541.61,-287.451 543.844,-294.085"/>
</g>
<!-- Node29&#45;&gt;Node15 -->
<g id="edge48" class="edge"><title>Node29&#45;&gt;Node15</title>
<path fill="none" stroke="midnightblue" d="M391.383,-324.313C363.186,-280.797 286.528,-147.306 349,-67 368.81,-41.5353 460.113,-26.8324 511.891,-20.4047"/>
<polygon fill="midnightblue" stroke="midnightblue" points="512.482,-23.859 521.994,-19.1932 511.648,-16.9088 512.482,-23.859"/>
</g>
<!-- Node30 -->
<g id="node30" class="node"><title>Node30</title>
<g id="a_node30"><a xlink:href="image_8h.html" target="_top" xlink:title="AR6/InstantOn/framework\l/image.h">
<polygon fill="white" stroke="black" points="358.5,-67.5 358.5,-97.5 489.5,-97.5 489.5,-67.5 358.5,-67.5"/>
<text text-anchor="start" x="366.5" y="-85.5" font-family="Helvetica,sans-Serif" font-size="10.00">AR6/InstantOn/framework</text>
<text text-anchor="middle" x="424" y="-74.5" font-family="Helvetica,sans-Serif" font-size="10.00">/image.h</text>
</a>
</g>
</g>
<!-- Node29&#45;&gt;Node30 -->
<g id="edge39" class="edge"><title>Node29&#45;&gt;Node30</title>
<path fill="none" stroke="midnightblue" d="M396.486,-324.413C386.395,-290.584 364.594,-202.491 387,-134 390.396,-123.618 396.828,-113.605 403.389,-105.271"/>
<polygon fill="midnightblue" stroke="midnightblue" points="406.128,-107.451 409.885,-97.5447 400.771,-102.946 406.128,-107.451"/>
</g>
<!-- Node31 -->
<g id="node31" class="node"><title>Node31</title>
<g id="a_node31"><a xlink:href="image__yuv_8h.html" target="_top" xlink:title="AR6/InstantOn/framework\l/image_yuv.h">
<polygon fill="white" stroke="black" points="396.5,-134.5 396.5,-164.5 527.5,-164.5 527.5,-134.5 396.5,-134.5"/>
<text text-anchor="start" x="404.5" y="-152.5" font-family="Helvetica,sans-Serif" font-size="10.00">AR6/InstantOn/framework</text>
<text text-anchor="middle" x="462" y="-141.5" font-family="Helvetica,sans-Serif" font-size="10.00">/image_yuv.h</text>
</a>
</g>
</g>
<!-- Node29&#45;&gt;Node31 -->
<g id="edge43" class="edge"><title>Node29&#45;&gt;Node31</title>
<path fill="none" stroke="midnightblue" d="M405.585,-324.369C415.988,-292.308 441.47,-213.774 454.322,-174.164"/>
<polygon fill="midnightblue" stroke="midnightblue" points="457.688,-175.13 457.445,-164.538 451.03,-172.97 457.688,-175.13"/>
</g>
<!-- Node30&#45;&gt;Node5 -->
<g id="edge41" class="edge"><title>Node30&#45;&gt;Node5</title>
<path fill="none" stroke="midnightblue" d="M477.291,-67.476C516.334,-57.2016 569.395,-43.2381 610.111,-32.5233"/>
<polygon fill="midnightblue" stroke="midnightblue" points="611.136,-35.8729 619.916,-29.9431 609.355,-29.1033 611.136,-35.8729"/>
</g>
<!-- Node30&#45;&gt;Node15 -->
<g id="edge42" class="edge"><title>Node30&#45;&gt;Node15</title>
<path fill="none" stroke="midnightblue" d="M450.906,-67.396C472.278,-56.1928 501.946,-40.6412 522.847,-29.6853"/>
<polygon fill="midnightblue" stroke="midnightblue" points="524.539,-32.7497 531.771,-25.007 521.289,-26.5499 524.539,-32.7497"/>
</g>
<!-- Node30&#45;&gt;Node25 -->
<g id="edge40" class="edge"><title>Node30&#45;&gt;Node25</title>
<path fill="none" stroke="midnightblue" d="M403.603,-67.396C390.546,-58.3672 373.405,-46.5141 358.95,-36.5184"/>
<polygon fill="midnightblue" stroke="midnightblue" points="360.573,-33.3853 350.357,-30.5765 356.591,-39.1429 360.573,-33.3853"/>
</g>
<!-- Node31&#45;&gt;Node5 -->
<g id="edge45" class="edge"><title>Node31&#45;&gt;Node5</title>
<path fill="none" stroke="midnightblue" d="M484.367,-134.374C521.922,-110.655 597.71,-62.7885 640.247,-35.9226"/>
<polygon fill="midnightblue" stroke="midnightblue" points="642.208,-38.8239 648.794,-30.5247 638.47,-32.9055 642.208,-38.8239"/>
</g>
<!-- Node31&#45;&gt;Node15 -->
<g id="edge46" class="edge"><title>Node31&#45;&gt;Node15</title>
<path fill="none" stroke="midnightblue" d="M472.667,-134.1C479.977,-124.096 489.798,-110.389 498,-98 512.401,-76.2475 527.964,-50.488 537.835,-33.839"/>
<polygon fill="midnightblue" stroke="midnightblue" points="540.872,-35.5797 542.937,-25.1882 534.842,-32.0235 540.872,-35.5797"/>
</g>
<!-- Node31&#45;&gt;Node25 -->
<g id="edge44" class="edge"><title>Node31&#45;&gt;Node25</title>
<path fill="none" stroke="midnightblue" d="M404.836,-134.463C384.537,-126.805 363.221,-115.239 349,-98 335.754,-81.9439 331.383,-58.334 330.103,-40.6536"/>
<polygon fill="midnightblue" stroke="midnightblue" points="333.593,-40.3665 329.653,-30.5318 326.6,-40.6774 333.593,-40.3665"/>
</g>
<!-- Node31&#45;&gt;Node30 -->
<g id="edge47" class="edge"><title>Node31&#45;&gt;Node30</title>
<path fill="none" stroke="midnightblue" d="M453.755,-134.396C448.974,-126.219 442.839,-115.725 437.384,-106.393"/>
<polygon fill="midnightblue" stroke="midnightblue" points="440.298,-104.443 432.229,-97.5765 434.255,-107.976 440.298,-104.443"/>
</g>
</g>
</svg>
        <g id="navigator" transform="translate(0 0)" fill="#404254">
                <rect fill="#f2f5e9" fill-opacity="0.5" stroke="#606060" stroke-width=".5" x="0" y="0" width="60" height="60"/>
                <use id="zoomplus" xlink:href="#zoomPlus" x="17" y="9" onmousedown="handleZoom(evt,'in')"/>
                <use id="zoomminus" xlink:href="#zoomMin" x="42" y="9" onmousedown="handleZoom(evt,'out')"/>
                <use id="reset" xlink:href="#resetDef" x="30" y="36" onmousedown="handleReset()"/>
                <g id="arrowUp" xlink:href="#dirArrow" transform="translate(30 24)" onmousedown="handlePan(0,-1)">
                  <use xlink:href="#rim" fill="#404040">
                        <set attributeName="fill" to="#808080" begin="arrowUp.mouseover" end="arrowUp.mouseout"/>
                  </use>
                  <path fill="none" stroke="white" stroke-width="1.5" d="M0,-3.0v7 M-2.5,-0.5L0,-3.0L2.5,-0.5"/>
                </g>
                <g id="arrowRight" xlink:href="#dirArrow" transform="rotate(90) translate(36 -43)" onmousedown="handlePan(1,0)">
                  <use xlink:href="#rim" fill="#404040">
                        <set attributeName="fill" to="#808080" begin="arrowRight.mouseover" end="arrowRight.mouseout"/>
                  </use>
                  <path fill="none" stroke="white" stroke-width="1.5" d="M0,-3.0v7 M-2.5,-0.5L0,-3.0L2.5,-0.5"/>
                </g>
                <g id="arrowDown" xlink:href="#dirArrow" transform="rotate(180) translate(-30 -48)" onmousedown="handlePan(0,1)">
                  <use xlink:href="#rim" fill="#404040">
                        <set attributeName="fill" to="#808080" begin="arrowDown.mouseover" end="arrowDown.mouseout"/>
                  </use>
                  <path fill="none" stroke="white" stroke-width="1.5" d="M0,-3.0v7 M-2.5,-0.5L0,-3.0L2.5,-0.5"/>
                </g>
                <g id="arrowLeft" xlink:href="#dirArrow" transform="rotate(270) translate(-36 17)" onmousedown="handlePan(-1,0)">
                  <use xlink:href="#rim" fill="#404040">
                        <set attributeName="fill" to="#808080" begin="arrowLeft.mouseover" end="arrowLeft.mouseout"/>
                  </use>
                  <path fill="none" stroke="white" stroke-width="1.5" d="M0,-3.0v7 M-2.5,-0.5L0,-3.0L2.5,-0.5"/>
                </g>
        </g>
        <svg viewBox="0 0 15 15" width="100%" height="30px" preserveAspectRatio="xMaxYMin meet">
         <g id="arrow_out" transform="scale(0.3 0.3)">
          <a xlink:href="camera__listener__base_8h__incl_org.svg" target="_base">
           <rect id="button" ry="5" rx="5" y="6" x="6" height="38" width="38"
                fill="#f2f5e9" fill-opacity="0.5" stroke="#606060" stroke-width="1.0"/>
           <path id="arrow"
             d="M 11.500037,31.436501 C 11.940474,20.09759 22.043105,11.32322 32.158766,21.979434 L 37.068811,17.246167 C 37.068811,17.246167 37.088388,32 37.088388,32 L 22.160133,31.978069 C 22.160133,31.978069 26.997745,27.140456 26.997745,27.140456 C 18.528582,18.264221 13.291696,25.230495 11.500037,31.436501 z"
             style="fill:#404040;"/>
          </a>
         </g>
        </svg>
</svg>
