<?xml version="1.0" encoding="UTF-8" standalone="no"?>
<!DOCTYPE svg PUBLIC "-//W3C//DTD SVG 1.1//EN"
 "http://www.w3.org/Graphics/SVG/1.1/DTD/svg11.dtd">
<!-- Generated by graphviz version 2.38.0 (20140413.2041)
 -->
<!-- Title: /bitrise/src/Source/AR6/InstantOn/extensions/camera_filter.cpp Pages: 1 -->
<svg width="1341pt" height="620pt"
 viewBox="0.00 0.00 1340.50 620.00" xmlns="http://www.w3.org/2000/svg" xmlns:xlink="http://www.w3.org/1999/xlink">
<g id="graph0" class="graph" transform="scale(1 1) rotate(0) translate(4 616)">
<title>/bitrise/src/Source/AR6/InstantOn/extensions/camera_filter.cpp</title>
<polygon fill="white" stroke="none" points="-4,4 -4,-616 1336.5,-616 1336.5,4 -4,4"/>
<!-- Node1 -->
<g id="node1" class="node"><title>Node1</title>
<polygon fill="#bfbfbf" stroke="black" points="549.5,-570.5 549.5,-611.5 684.5,-611.5 684.5,-570.5 549.5,-570.5"/>
<text text-anchor="start" x="557.5" y="-599.5" font-family="Helvetica,sans-Serif" font-size="10.00">/bitrise/src/Source</text>
<text text-anchor="start" x="557.5" y="-588.5" font-family="Helvetica,sans-Serif" font-size="10.00">/AR6/InstantOn/extensions</text>
<text text-anchor="middle" x="617" y="-577.5" font-family="Helvetica,sans-Serif" font-size="10.00">/camera_filter.cpp</text>
</g>
<!-- Node2 -->
<g id="node2" class="node"><title>Node2</title>
<g id="a_node2"><a xlink:href="camera__filter_8h.html" target="_top" xlink:title="AR6/InstantOn/extensions\l/camera_filter.h">
<polygon fill="white" stroke="black" points="457,-503.5 457,-533.5 589,-533.5 589,-503.5 457,-503.5"/>
<text text-anchor="start" x="465" y="-521.5" font-family="Helvetica,sans-Serif" font-size="10.00">AR6/InstantOn/extensions</text>
<text text-anchor="middle" x="523" y="-510.5" font-family="Helvetica,sans-Serif" font-size="10.00">/camera_filter.h</text>
</a>
</g>
</g>
<!-- Node1&#45;&gt;Node2 -->
<g id="edge1" class="edge"><title>Node1&#45;&gt;Node2</title>
<path fill="none" stroke="midnightblue" d="M590.816,-570.362C578.071,-560.803 562.767,-549.325 549.925,-539.694"/>
<polygon fill="midnightblue" stroke="midnightblue" points="551.993,-536.87 541.893,-533.67 547.793,-542.47 551.993,-536.87"/>
</g>
<!-- Node37 -->
<g id="node37" class="node"><title>Node37</title>
<g id="a_node37"><a xlink:href="camera__listener__base_8h.html" target="_top" xlink:title="camera_listener_base.h">
<polygon fill="white" stroke="black" points="556,-442 556,-461 676,-461 676,-442 556,-442"/>
<text text-anchor="middle" x="616" y="-449" font-family="Helvetica,sans-Serif" font-size="10.00">camera_listener_base.h</text>
</a>
</g>
</g>
<!-- Node1&#45;&gt;Node37 -->
<g id="edge74" class="edge"><title>Node1&#45;&gt;Node37</title>
<path fill="none" stroke="midnightblue" d="M616.857,-570.3C616.665,-543.897 616.326,-497.358 616.137,-471.38"/>
<polygon fill="midnightblue" stroke="midnightblue" points="619.635,-471.012 616.062,-461.038 612.635,-471.063 619.635,-471.012"/>
</g>
<!-- Node40 -->
<g id="node40" class="node"><title>Node40</title>
<polygon fill="white" stroke="#bfbfbf" points="645,-509 645,-528 689,-528 689,-509 645,-509"/>
<text text-anchor="middle" x="667" y="-516" font-family="Helvetica,sans-Serif" font-size="10.00">thread</text>
</g>
<!-- Node1&#45;&gt;Node40 -->
<g id="edge75" class="edge"><title>Node1&#45;&gt;Node40</title>
<path fill="none" stroke="midnightblue" d="M630.928,-570.362C638.45,-559.756 647.647,-546.787 654.873,-536.6"/>
<polygon fill="midnightblue" stroke="midnightblue" points="657.919,-538.355 660.849,-528.173 652.209,-534.305 657.919,-538.355"/>
</g>
<!-- Node3 -->
<g id="node3" class="node"><title>Node3</title>
<g id="a_node3"><a xlink:href="source__filter_8h.html" target="_top" xlink:title="AR6/InstantOn/framework\l/source_filter.h">
<polygon fill="white" stroke="black" points="312.5,-436.5 312.5,-466.5 443.5,-466.5 443.5,-436.5 312.5,-436.5"/>
<text text-anchor="start" x="320.5" y="-454.5" font-family="Helvetica,sans-Serif" font-size="10.00">AR6/InstantOn/framework</text>
<text text-anchor="middle" x="378" y="-443.5" font-family="Helvetica,sans-Serif" font-size="10.00">/source_filter.h</text>
</a>
</g>
</g>
<!-- Node2&#45;&gt;Node3 -->
<g id="edge2" class="edge"><title>Node2&#45;&gt;Node3</title>
<path fill="none" stroke="midnightblue" d="M491.537,-503.396C470.161,-493.814 441.688,-481.05 418.603,-470.702"/>
<polygon fill="midnightblue" stroke="midnightblue" points="419.958,-467.473 409.401,-466.577 417.095,-473.861 419.958,-467.473"/>
</g>
<!-- Node35 -->
<g id="node35" class="node"><title>Node35</title>
<g id="a_node35"><a xlink:href="image__sample_8h.html" target="_top" xlink:title="image_sample.h">
<polygon fill="white" stroke="black" points="516,-313.5 516,-332.5 604,-332.5 604,-313.5 516,-313.5"/>
<text text-anchor="middle" x="560" y="-320.5" font-family="Helvetica,sans-Serif" font-size="10.00">image_sample.h</text>
</a>
</g>
</g>
<!-- Node2&#45;&gt;Node35 -->
<g id="edge57" class="edge"><title>Node2&#45;&gt;Node35</title>
<path fill="none" stroke="midnightblue" d="M525.721,-503.271C532.313,-468.796 549.137,-380.812 556.481,-342.403"/>
<polygon fill="midnightblue" stroke="midnightblue" points="559.919,-343.056 558.36,-332.577 553.044,-341.742 559.919,-343.056"/>
</g>
<!-- Node2&#45;&gt;Node37 -->
<g id="edge66" class="edge"><title>Node2&#45;&gt;Node37</title>
<path fill="none" stroke="midnightblue" d="M543.18,-503.396C558.631,-492.597 579.864,-477.756 595.415,-466.887"/>
<polygon fill="midnightblue" stroke="midnightblue" points="597.637,-469.605 603.828,-461.007 593.627,-463.867 597.637,-469.605"/>
</g>
<!-- Node4 -->
<g id="node4" class="node"><title>Node4</title>
<g id="a_node4"><a xlink:href="filter_8h.html" target="_top" xlink:title="filter.h">
<polygon fill="white" stroke="black" points="653,-375 653,-394 697,-394 697,-375 653,-375"/>
<text text-anchor="middle" x="675" y="-382" font-family="Helvetica,sans-Serif" font-size="10.00">filter.h</text>
</a>
</g>
</g>
<!-- Node3&#45;&gt;Node4 -->
<g id="edge3" class="edge"><title>Node3&#45;&gt;Node4</title>
<path fill="none" stroke="midnightblue" d="M442.079,-436.476C504.038,-422.916 595.358,-402.93 643.164,-392.467"/>
<polygon fill="midnightblue" stroke="midnightblue" points="643.936,-395.881 652.956,-390.324 642.439,-389.043 643.936,-395.881"/>
</g>
<!-- Node5 -->
<g id="node5" class="node"><title>Node5</title>
<g id="a_node5"><a xlink:href="container_8h.html" target="_top" xlink:title="container.h">
<polygon fill="white" stroke="black" points="432.5,-313.5 432.5,-332.5 497.5,-332.5 497.5,-313.5 432.5,-313.5"/>
<text text-anchor="middle" x="465" y="-320.5" font-family="Helvetica,sans-Serif" font-size="10.00">container.h</text>
</a>
</g>
</g>
<!-- Node3&#45;&gt;Node5 -->
<g id="edge55" class="edge"><title>Node3&#45;&gt;Node5</title>
<path fill="none" stroke="midnightblue" d="M387.643,-436.479C403.649,-413.206 435.658,-366.663 453.064,-341.355"/>
<polygon fill="midnightblue" stroke="midnightblue" points="456.173,-343.011 458.956,-332.789 450.405,-339.045 456.173,-343.011"/>
</g>
<!-- Node14 -->
<g id="node14" class="node"><title>Node14</title>
<polygon fill="white" stroke="#bfbfbf" points="16,-6 16,-25 60,-25 60,-6 16,-6"/>
<text text-anchor="middle" x="38" y="-13" font-family="Helvetica,sans-Serif" font-size="10.00">vector</text>
</g>
<!-- Node3&#45;&gt;Node14 -->
<g id="edge56" class="edge"><title>Node3&#45;&gt;Node14</title>
<path fill="none" stroke="midnightblue" d="M312.157,-442.235C203.858,-426.78 0,-389.05 0,-324 0,-324 0,-324 0,-137.5 0,-99.3116 17.4417,-57.3296 28.692,-34.2224"/>
<polygon fill="midnightblue" stroke="midnightblue" points="31.9579,-35.5195 33.3405,-25.0153 25.7091,-32.3646 31.9579,-35.5195"/>
</g>
<!-- Node4&#45;&gt;Node5 -->
<g id="edge4" class="edge"><title>Node4&#45;&gt;Node5</title>
<path fill="none" stroke="midnightblue" d="M652.923,-377.245C617.85,-367.308 548.887,-347.768 504.966,-335.324"/>
<polygon fill="midnightblue" stroke="midnightblue" points="505.762,-331.912 495.187,-332.553 503.854,-338.646 505.762,-331.912"/>
</g>
<!-- Node4&#45;&gt;Node14 -->
<g id="edge51" class="edge"><title>Node4&#45;&gt;Node14</title>
<path fill="none" stroke="midnightblue" d="M652.968,-380.91C608.59,-375.298 505.624,-360.272 423,-333 236.881,-271.568 164.472,-250.902 57,-87 46.6974,-71.2879 41.9557,-50.137 39.7892,-35.1121"/>
<polygon fill="midnightblue" stroke="midnightblue" points="43.2439,-34.5236 38.5849,-25.0082 36.2931,-35.3521 43.2439,-34.5236"/>
</g>
<!-- Node18 -->
<g id="node18" class="node"><title>Node18</title>
<polygon fill="white" stroke="#bfbfbf" points="549,-6 549,-25 601,-25 601,-6 549,-6"/>
<text text-anchor="middle" x="575" y="-13" font-family="Helvetica,sans-Serif" font-size="10.00">memory</text>
</g>
<!-- Node4&#45;&gt;Node18 -->
<g id="edge53" class="edge"><title>Node4&#45;&gt;Node18</title>
<path fill="none" stroke="midnightblue" d="M670.128,-374.814C664.773,-364.949 656.236,-348.239 651,-333 611.65,-218.476 624.474,-183.66 592,-67 589.008,-56.2513 585.062,-44.4216 581.725,-34.9151"/>
<polygon fill="midnightblue" stroke="midnightblue" points="584.966,-33.585 578.299,-25.3508 578.376,-35.9454 584.966,-33.585"/>
</g>
<!-- Node24 -->
<g id="node24" class="node"><title>Node24</title>
<polygon fill="white" stroke="#bfbfbf" points="698.5,-252 698.5,-271 733.5,-271 733.5,-252 698.5,-252"/>
<text text-anchor="middle" x="716" y="-259" font-family="Helvetica,sans-Serif" font-size="10.00">map</text>
</g>
<!-- Node4&#45;&gt;Node24 -->
<g id="edge54" class="edge"><title>Node4&#45;&gt;Node24</title>
<path fill="none" stroke="midnightblue" d="M679.82,-374.796C685.129,-364.915 693.624,-348.191 699,-333 705.032,-315.955 709.646,-295.848 712.535,-281.478"/>
<polygon fill="midnightblue" stroke="midnightblue" points="716.031,-281.832 714.476,-271.352 709.156,-280.514 716.031,-281.832"/>
</g>
<!-- Node25 -->
<g id="node25" class="node"><title>Node25</title>
<g id="a_node25"><a xlink:href="thread_8h.html" target="_top" xlink:title="thread.h">
<polygon fill="white" stroke="black" points="1217,-313.5 1217,-332.5 1269,-332.5 1269,-313.5 1217,-313.5"/>
<text text-anchor="middle" x="1243" y="-320.5" font-family="Helvetica,sans-Serif" font-size="10.00">thread.h</text>
</a>
</g>
</g>
<!-- Node4&#45;&gt;Node25 -->
<g id="edge34" class="edge"><title>Node4&#45;&gt;Node25</title>
<path fill="none" stroke="midnightblue" d="M690.353,-374.967C695.218,-372.636 700.71,-370.376 706,-369 919.305,-313.499 985.302,-367.373 1206.75,-332.892"/>
<polygon fill="midnightblue" stroke="midnightblue" points="1207.41,-336.331 1216.73,-331.295 1206.31,-329.419 1207.41,-336.331"/>
</g>
<!-- Node28 -->
<g id="node28" class="node"><title>Node28</title>
<g id="a_node28"><a xlink:href="wait__queue_8h.html" target="_top" xlink:title="wait_queue.h">
<polygon fill="white" stroke="black" points="1015,-313.5 1015,-332.5 1089,-332.5 1089,-313.5 1015,-313.5"/>
<text text-anchor="middle" x="1052" y="-320.5" font-family="Helvetica,sans-Serif" font-size="10.00">wait_queue.h</text>
</a>
</g>
</g>
<!-- Node4&#45;&gt;Node28 -->
<g id="edge37" class="edge"><title>Node4&#45;&gt;Node28</title>
<path fill="none" stroke="midnightblue" d="M691.043,-374.851C695.748,-372.632 700.98,-370.462 706,-369 734.112,-360.812 917.121,-339.324 1005.02,-329.296"/>
<polygon fill="midnightblue" stroke="midnightblue" points="1005.46,-332.769 1015,-328.16 1004.67,-325.814 1005.46,-332.769"/>
</g>
<!-- Node32 -->
<g id="node32" class="node"><title>Node32</title>
<g id="a_node32"><a xlink:href="lockfree__queue_8h.html" target="_top" xlink:title="lockfree_queue.h">
<polygon fill="white" stroke="black" points="1107.5,-313.5 1107.5,-332.5 1198.5,-332.5 1198.5,-313.5 1107.5,-313.5"/>
<text text-anchor="middle" x="1153" y="-320.5" font-family="Helvetica,sans-Serif" font-size="10.00">lockfree_queue.h</text>
</a>
</g>
</g>
<!-- Node4&#45;&gt;Node32 -->
<g id="edge44" class="edge"><title>Node4&#45;&gt;Node32</title>
<path fill="none" stroke="midnightblue" d="M690.689,-374.88C695.475,-372.605 700.839,-370.398 706,-369 871.736,-324.103 922.57,-353.984 1097.37,-332.961"/>
<polygon fill="midnightblue" stroke="midnightblue" points="1097.93,-336.419 1107.42,-331.713 1097.06,-329.472 1097.93,-336.419"/>
</g>
<!-- Node33 -->
<g id="node33" class="node"><title>Node33</title>
<g id="a_node33"><a xlink:href="image_8h.html" target="_top" xlink:title="image.h">
<polygon fill="white" stroke="black" points="841.5,-190.5 841.5,-209.5 892.5,-209.5 892.5,-190.5 841.5,-190.5"/>
<text text-anchor="middle" x="867" y="-197.5" font-family="Helvetica,sans-Serif" font-size="10.00">image.h</text>
</a>
</g>
</g>
<!-- Node4&#45;&gt;Node33 -->
<g id="edge47" class="edge"><title>Node4&#45;&gt;Node33</title>
<path fill="none" stroke="midnightblue" d="M693.342,-374.876C697.5,-372.934 701.898,-370.889 706,-369 795.975,-327.571 855.326,-360.253 909,-277 922.057,-256.747 902.434,-232.156 885.851,-216.54"/>
<polygon fill="midnightblue" stroke="midnightblue" points="887.909,-213.686 878.111,-209.653 883.256,-218.916 887.909,-213.686"/>
</g>
<!-- Node34 -->
<g id="node34" class="node"><title>Node34</title>
<polygon fill="white" stroke="#bfbfbf" points="660,-313.5 660,-332.5 690,-332.5 690,-313.5 660,-313.5"/>
<text text-anchor="middle" x="675" y="-320.5" font-family="Helvetica,sans-Serif" font-size="10.00">set</text>
</g>
<!-- Node4&#45;&gt;Node34 -->
<g id="edge52" class="edge"><title>Node4&#45;&gt;Node34</title>
<path fill="none" stroke="midnightblue" d="M675,-374.975C675,-366.58 675,-353.481 675,-342.663"/>
<polygon fill="midnightblue" stroke="midnightblue" points="678.5,-342.509 675,-332.509 671.5,-342.509 678.5,-342.509"/>
</g>
<!-- Node6 -->
<g id="node6" class="node"><title>Node6</title>
<g id="a_node6"><a xlink:href="sample_8h.html" target="_top" xlink:title="sample.h">
<polygon fill="white" stroke="black" points="435,-252 435,-271 491,-271 491,-252 435,-252"/>
<text text-anchor="middle" x="463" y="-259" font-family="Helvetica,sans-Serif" font-size="10.00">sample.h</text>
</a>
</g>
</g>
<!-- Node5&#45;&gt;Node6 -->
<g id="edge5" class="edge"><title>Node5&#45;&gt;Node6</title>
<path fill="none" stroke="midnightblue" d="M464.713,-313.475C464.431,-305.08 463.991,-291.981 463.627,-281.163"/>
<polygon fill="midnightblue" stroke="midnightblue" points="467.12,-280.886 463.286,-271.009 460.124,-281.121 467.12,-280.886"/>
</g>
<!-- Node15 -->
<g id="node15" class="node"><title>Node15</title>
<polygon fill="white" stroke="#bfbfbf" points="66,-67.5 66,-86.5 118,-86.5 118,-67.5 66,-67.5"/>
<text text-anchor="middle" x="92" y="-74.5" font-family="Helvetica,sans-Serif" font-size="10.00">assert.h</text>
</g>
<!-- Node5&#45;&gt;Node15 -->
<g id="edge29" class="edge"><title>Node5&#45;&gt;Node15</title>
<path fill="none" stroke="midnightblue" d="M438.528,-313.494C415.452,-305.566 381.471,-292.633 354,-277 253.891,-220.03 148.926,-129.333 108.873,-93.3937"/>
<polygon fill="midnightblue" stroke="midnightblue" points="111.104,-90.6924 101.337,-86.5876 106.413,-95.8875 111.104,-90.6924"/>
</g>
<!-- Node5&#45;&gt;Node18 -->
<g id="edge33" class="edge"><title>Node5&#45;&gt;Node18</title>
<path fill="none" stroke="midnightblue" d="M478.038,-313.394C503.2,-295.632 556,-252.255 556,-201 556,-201 556,-201 556,-137.5 556,-100.786 564.642,-58.5556 570.27,-34.9499"/>
<polygon fill="midnightblue" stroke="midnightblue" points="573.67,-35.7793 572.67,-25.2318 566.874,-34.1007 573.67,-35.7793"/>
</g>
<!-- Node21 -->
<g id="node21" class="node"><title>Node21</title>
<polygon fill="white" stroke="#bfbfbf" points="241.5,-129 241.5,-148 282.5,-148 282.5,-129 241.5,-129"/>
<text text-anchor="middle" x="262" y="-136" font-family="Helvetica,sans-Serif" font-size="10.00">string</text>
</g>
<!-- Node5&#45;&gt;Node21 -->
<g id="edge32" class="edge"><title>Node5&#45;&gt;Node21</title>
<path fill="none" stroke="midnightblue" d="M451.419,-313.465C424.201,-296.002 361.756,-254.102 317,-210 300.151,-193.397 283.875,-171.582 273.458,-156.642"/>
<polygon fill="midnightblue" stroke="midnightblue" points="276.311,-154.614 267.776,-148.336 270.533,-158.565 276.311,-154.614"/>
</g>
<!-- Node23 -->
<g id="node23" class="node"><title>Node23</title>
<polygon fill="white" stroke="#bfbfbf" points="736,-123.5 736,-153.5 838,-153.5 838,-123.5 736,-123.5"/>
<text text-anchor="start" x="744" y="-141.5" font-family="Helvetica,sans-Serif" font-size="10.00">artvision/framework</text>
<text text-anchor="middle" x="787" y="-130.5" font-family="Helvetica,sans-Serif" font-size="10.00">/exception.h</text>
</g>
<!-- Node5&#45;&gt;Node23 -->
<g id="edge30" class="edge"><title>Node5&#45;&gt;Node23</title>
<path fill="none" stroke="midnightblue" d="M488.018,-313.366C509.624,-304.976 542.627,-291.42 570,-277 640.584,-239.818 718.474,-187.466 759,-159.296"/>
<polygon fill="midnightblue" stroke="midnightblue" points="761.104,-162.096 767.299,-153.501 757.096,-156.356 761.104,-162.096"/>
</g>
<!-- Node5&#45;&gt;Node24 -->
<g id="edge31" class="edge"><title>Node5&#45;&gt;Node24</title>
<path fill="none" stroke="midnightblue" d="M497.552,-314.989C500.744,-314.313 503.934,-313.64 507,-313 585.582,-296.59 607.624,-301.722 684,-277 685.871,-276.394 687.779,-275.711 689.684,-274.979"/>
<polygon fill="midnightblue" stroke="midnightblue" points="691.151,-278.159 699.01,-271.053 688.435,-271.708 691.151,-278.159"/>
</g>
<!-- Node7 -->
<g id="node7" class="node"><title>Node7</title>
<g id="a_node7"><a xlink:href="stream_8h.html" target="_top" xlink:title="stream.h">
<polygon fill="white" stroke="black" points="420.5,-190.5 420.5,-209.5 475.5,-209.5 475.5,-190.5 420.5,-190.5"/>
<text text-anchor="middle" x="448" y="-197.5" font-family="Helvetica,sans-Serif" font-size="10.00">stream.h</text>
</a>
</g>
</g>
<!-- Node6&#45;&gt;Node7 -->
<g id="edge6" class="edge"><title>Node6&#45;&gt;Node7</title>
<path fill="none" stroke="midnightblue" d="M460.851,-251.975C458.712,-243.492 455.362,-230.204 452.619,-219.322"/>
<polygon fill="midnightblue" stroke="midnightblue" points="455.984,-218.35 450.145,-209.509 449.196,-220.061 455.984,-218.35"/>
</g>
<!-- Node6&#45;&gt;Node18 -->
<g id="edge28" class="edge"><title>Node6&#45;&gt;Node18</title>
<path fill="none" stroke="midnightblue" d="M466.59,-251.931C470.79,-241.893 477.94,-224.756 484,-210 510.056,-146.558 510.204,-127.768 542,-67 548.108,-55.3263 556.182,-42.9313 562.814,-33.3426"/>
<polygon fill="midnightblue" stroke="midnightblue" points="565.709,-35.3113 568.62,-25.1244 559.992,-31.2721 565.709,-35.3113"/>
</g>
<!-- Node22 -->
<g id="node22" class="node"><title>Node22</title>
<g id="a_node22"><a xlink:href="date__time_8h.html" target="_top" xlink:title="date_time.h">
<polygon fill="white" stroke="black" points="326,-190.5 326,-209.5 394,-209.5 394,-190.5 326,-190.5"/>
<text text-anchor="middle" x="360" y="-197.5" font-family="Helvetica,sans-Serif" font-size="10.00">date_time.h</text>
</a>
</g>
</g>
<!-- Node6&#45;&gt;Node22 -->
<g id="edge26" class="edge"><title>Node6&#45;&gt;Node22</title>
<path fill="none" stroke="midnightblue" d="M448.243,-251.975C431.339,-242.211 403.417,-226.081 383.51,-214.581"/>
<polygon fill="midnightblue" stroke="midnightblue" points="385.14,-211.481 374.73,-209.509 381.638,-217.542 385.14,-211.481"/>
</g>
<!-- Node8 -->
<g id="node8" class="node"><title>Node8</title>
<polygon fill="white" stroke="#bfbfbf" points="853,-0.5 853,-30.5 955,-30.5 955,-0.5 853,-0.5"/>
<text text-anchor="start" x="861" y="-18.5" font-family="Helvetica,sans-Serif" font-size="10.00">artvision/framework</text>
<text text-anchor="middle" x="904" y="-7.5" font-family="Helvetica,sans-Serif" font-size="10.00">/error.h</text>
</g>
<!-- Node7&#45;&gt;Node8 -->
<g id="edge7" class="edge"><title>Node7&#45;&gt;Node8</title>
<path fill="none" stroke="midnightblue" d="M469.382,-190.442C539.433,-162.407 763.03,-72.919 859.26,-34.4059"/>
<polygon fill="midnightblue" stroke="midnightblue" points="860.729,-37.5879 868.712,-30.6228 858.128,-31.0891 860.729,-37.5879"/>
</g>
<!-- Node9 -->
<g id="node9" class="node"><title>Node9</title>
<g id="a_node9"><a xlink:href="linear__algebra_8h.html" target="_top" xlink:title="AR6/InstantOn/math\l/linear_algebra.h">
<polygon fill="white" stroke="black" points="300.5,-123.5 300.5,-153.5 407.5,-153.5 407.5,-123.5 300.5,-123.5"/>
<text text-anchor="start" x="308.5" y="-141.5" font-family="Helvetica,sans-Serif" font-size="10.00">AR6/InstantOn/math</text>
<text text-anchor="middle" x="354" y="-130.5" font-family="Helvetica,sans-Serif" font-size="10.00">/linear_algebra.h</text>
</a>
</g>
</g>
<!-- Node7&#45;&gt;Node9 -->
<g id="edge8" class="edge"><title>Node7&#45;&gt;Node9</title>
<path fill="none" stroke="midnightblue" d="M434.532,-190.475C421.563,-182.266 401.487,-169.558 384.624,-158.885"/>
<polygon fill="midnightblue" stroke="midnightblue" points="386.475,-155.914 376.154,-153.523 382.732,-161.829 386.475,-155.914"/>
</g>
<!-- Node17 -->
<g id="node17" class="node"><title>Node17</title>
<g id="a_node17"><a xlink:href="indexing_8h.html" target="_top" xlink:title="indexing.h">
<polygon fill="white" stroke="black" points="390.5,-67.5 390.5,-86.5 451.5,-86.5 451.5,-67.5 390.5,-67.5"/>
<text text-anchor="middle" x="421" y="-74.5" font-family="Helvetica,sans-Serif" font-size="10.00">indexing.h</text>
</a>
</g>
</g>
<!-- Node7&#45;&gt;Node17 -->
<g id="edge23" class="edge"><title>Node7&#45;&gt;Node17</title>
<path fill="none" stroke="midnightblue" d="M446.058,-190.298C441.699,-170.763 431.056,-123.065 425.139,-96.5471"/>
<polygon fill="midnightblue" stroke="midnightblue" points="428.518,-95.6209 422.924,-86.6232 421.686,-97.1454 428.518,-95.6209"/>
</g>
<!-- Node7&#45;&gt;Node18 -->
<g id="edge25" class="edge"><title>Node7&#45;&gt;Node18</title>
<path fill="none" stroke="midnightblue" d="M449.898,-190.436C455.192,-168.088 471.879,-106.975 504,-67 516.319,-51.6694 534.438,-38.885 549.289,-30.0149"/>
<polygon fill="midnightblue" stroke="midnightblue" points="551.092,-33.0156 558.032,-25.0101 547.614,-26.9405 551.092,-33.0156"/>
</g>
<!-- Node7&#45;&gt;Node21 -->
<g id="edge24" class="edge"><title>Node7&#45;&gt;Node21</title>
<path fill="none" stroke="midnightblue" d="M420.266,-192.696C388.491,-185.099 335.124,-171.185 291,-154 289.623,-153.464 288.224,-152.885 286.821,-152.278"/>
<polygon fill="midnightblue" stroke="midnightblue" points="288.256,-149.086 277.715,-148.017 285.289,-155.426 288.256,-149.086"/>
</g>
<!-- Node10 -->
<g id="node10" class="node"><title>Node10</title>
<g id="a_node10"><a xlink:href="math__utils_8h.html" target="_top" xlink:title="math_utils.h">
<polygon fill="white" stroke="black" points="244,-67.5 244,-86.5 314,-86.5 314,-67.5 244,-67.5"/>
<text text-anchor="middle" x="279" y="-74.5" font-family="Helvetica,sans-Serif" font-size="10.00">math_utils.h</text>
</a>
</g>
</g>
<!-- Node9&#45;&gt;Node10 -->
<g id="edge9" class="edge"><title>Node9&#45;&gt;Node10</title>
<path fill="none" stroke="midnightblue" d="M336.226,-123.399C324.654,-114.218 309.577,-102.258 297.804,-92.9182"/>
<polygon fill="midnightblue" stroke="midnightblue" points="299.923,-90.1309 289.913,-86.6578 295.572,-95.6148 299.923,-90.1309"/>
</g>
<!-- Node12 -->
<g id="node12" class="node"><title>Node12</title>
<g id="a_node12"><a xlink:href="_instant_on_2include_2_a_r6_2_instant_on_2math_2matrix_8h.html" target="_top" xlink:title="matrix.h">
<polygon fill="white" stroke="black" points="174,-67.5 174,-86.5 226,-86.5 226,-67.5 174,-67.5"/>
<text text-anchor="middle" x="200" y="-74.5" font-family="Helvetica,sans-Serif" font-size="10.00">matrix.h</text>
</a>
</g>
</g>
<!-- Node9&#45;&gt;Node12 -->
<g id="edge12" class="edge"><title>Node9&#45;&gt;Node12</title>
<path fill="none" stroke="midnightblue" d="M317.504,-123.399C291.435,-113.327 256.706,-99.9093 231.776,-90.2769"/>
<polygon fill="midnightblue" stroke="midnightblue" points="232.998,-86.997 222.408,-86.6578 230.475,-93.5266 232.998,-86.997"/>
</g>
<!-- Node13 -->
<g id="node13" class="node"><title>Node13</title>
<g id="a_node13"><a xlink:href="vector_8h.html" target="_top" xlink:title="vector.h">
<polygon fill="white" stroke="black" points="147,-6 147,-25 199,-25 199,-6 147,-6"/>
<text text-anchor="middle" x="173" y="-13" font-family="Helvetica,sans-Serif" font-size="10.00">vector.h</text>
</a>
</g>
</g>
<!-- Node9&#45;&gt;Node13 -->
<g id="edge16" class="edge"><title>Node9&#45;&gt;Node13</title>
<path fill="none" stroke="midnightblue" d="M300.455,-124.88C246.08,-111.811 169.253,-92.5391 165,-87 153.662,-72.2351 158.499,-50.3339 164.364,-34.8674"/>
<polygon fill="midnightblue" stroke="midnightblue" points="167.716,-35.9273 168.403,-25.3547 161.273,-33.1916 167.716,-35.9273"/>
</g>
<!-- Node9&#45;&gt;Node15 -->
<g id="edge17" class="edge"><title>Node9&#45;&gt;Node15</title>
<path fill="none" stroke="midnightblue" d="M300.387,-125.146C297.211,-124.419 294.064,-123.699 291,-123 233.976,-109.99 167.721,-95.0413 127.868,-86.0675"/>
<polygon fill="midnightblue" stroke="midnightblue" points="128.609,-82.6467 118.084,-83.865 127.071,-89.4758 128.609,-82.6467"/>
</g>
<!-- Node16 -->
<g id="node16" class="node"><title>Node16</title>
<polygon fill="white" stroke="#bfbfbf" points="332,-67.5 332,-86.5 372,-86.5 372,-67.5 332,-67.5"/>
<text text-anchor="middle" x="352" y="-74.5" font-family="Helvetica,sans-Serif" font-size="10.00">limits</text>
</g>
<!-- Node9&#45;&gt;Node16 -->
<g id="edge18" class="edge"><title>Node9&#45;&gt;Node16</title>
<path fill="none" stroke="midnightblue" d="M353.526,-123.399C353.259,-115.466 352.923,-105.458 352.634,-96.8583"/>
<polygon fill="midnightblue" stroke="midnightblue" points="356.125,-96.5345 352.291,-86.6578 349.129,-96.7697 356.125,-96.5345"/>
</g>
<!-- Node9&#45;&gt;Node17 -->
<g id="edge19" class="edge"><title>Node9&#45;&gt;Node17</title>
<path fill="none" stroke="midnightblue" d="M369.878,-123.399C380.015,-114.397 393.162,-102.721 403.585,-93.4652"/>
<polygon fill="midnightblue" stroke="midnightblue" points="406.098,-95.915 411.251,-86.6578 401.45,-90.681 406.098,-95.915"/>
</g>
<!-- Node10&#45;&gt;Node8 -->
<g id="edge11" class="edge"><title>Node10&#45;&gt;Node8</title>
<path fill="none" stroke="midnightblue" d="M314.001,-68.4625C317.037,-67.9236 320.068,-67.4259 323,-67 511.36,-39.6425 736.385,-25.2321 842.653,-19.5063"/>
<polygon fill="midnightblue" stroke="midnightblue" points="843.068,-22.9892 852.868,-18.963 842.696,-15.9991 843.068,-22.9892"/>
</g>
<!-- Node11 -->
<g id="node11" class="node"><title>Node11</title>
<polygon fill="white" stroke="#bfbfbf" points="257,-6 257,-25 301,-25 301,-6 257,-6"/>
<text text-anchor="middle" x="279" y="-13" font-family="Helvetica,sans-Serif" font-size="10.00">cmath</text>
</g>
<!-- Node10&#45;&gt;Node11 -->
<g id="edge10" class="edge"><title>Node10&#45;&gt;Node11</title>
<path fill="none" stroke="midnightblue" d="M279,-67.4751C279,-59.0803 279,-45.9806 279,-35.1631"/>
<polygon fill="midnightblue" stroke="midnightblue" points="282.5,-35.0091 279,-25.0091 275.5,-35.0091 282.5,-35.0091"/>
</g>
<!-- Node12&#45;&gt;Node8 -->
<g id="edge13" class="edge"><title>Node12&#45;&gt;Node8</title>
<path fill="none" stroke="midnightblue" d="M226.267,-68.7158C229.198,-68.0614 232.152,-67.4698 235,-67 351.041,-47.8545 700.315,-27.4894 842.637,-19.7429"/>
<polygon fill="midnightblue" stroke="midnightblue" points="843.131,-23.2214 852.927,-19.1852 842.752,-16.2316 843.131,-23.2214"/>
</g>
<!-- Node12&#45;&gt;Node13 -->
<g id="edge14" class="edge"><title>Node12&#45;&gt;Node13</title>
<path fill="none" stroke="midnightblue" d="M196.132,-67.4751C192.202,-58.8152 186,-45.1486 181.007,-34.1453"/>
<polygon fill="midnightblue" stroke="midnightblue" points="184.181,-32.6691 176.861,-25.0091 177.806,-35.5617 184.181,-32.6691"/>
</g>
<!-- Node12&#45;&gt;Node14 -->
<g id="edge15" class="edge"><title>Node12&#45;&gt;Node14</title>
<path fill="none" stroke="midnightblue" d="M176.789,-67.4751C148.685,-57.1528 101.213,-39.7171 69.7393,-28.1573"/>
<polygon fill="midnightblue" stroke="midnightblue" points="70.7211,-24.7894 60.1275,-24.6271 68.3077,-31.3602 70.7211,-24.7894"/>
</g>
<!-- Node17&#45;&gt;Node18 -->
<g id="edge20" class="edge"><title>Node17&#45;&gt;Node18</title>
<path fill="none" stroke="midnightblue" d="M443.064,-67.4751C469.367,-57.3129 513.513,-40.2564 543.425,-28.6996"/>
<polygon fill="midnightblue" stroke="midnightblue" points="544.91,-31.8779 552.976,-25.0091 542.387,-25.3483 544.91,-31.8779"/>
</g>
<!-- Node19 -->
<g id="node19" class="node"><title>Node19</title>
<polygon fill="white" stroke="#bfbfbf" points="429.5,-6 429.5,-25 478.5,-25 478.5,-6 429.5,-6"/>
<text text-anchor="middle" x="454" y="-13" font-family="Helvetica,sans-Serif" font-size="10.00">cstddef</text>
</g>
<!-- Node17&#45;&gt;Node19 -->
<g id="edge21" class="edge"><title>Node17&#45;&gt;Node19</title>
<path fill="none" stroke="midnightblue" d="M425.728,-67.4751C430.58,-58.7268 438.266,-44.8691 444.4,-33.8093"/>
<polygon fill="midnightblue" stroke="midnightblue" points="447.491,-35.4517 449.281,-25.0091 441.37,-32.0566 447.491,-35.4517"/>
</g>
<!-- Node20 -->
<g id="node20" class="node"><title>Node20</title>
<polygon fill="white" stroke="#bfbfbf" points="362.5,-6 362.5,-25 411.5,-25 411.5,-6 362.5,-6"/>
<text text-anchor="middle" x="387" y="-13" font-family="Helvetica,sans-Serif" font-size="10.00">string.h</text>
</g>
<!-- Node17&#45;&gt;Node20 -->
<g id="edge22" class="edge"><title>Node17&#45;&gt;Node20</title>
<path fill="none" stroke="midnightblue" d="M416.129,-67.4751C411.13,-58.7268 403.211,-44.8691 396.891,-33.8093"/>
<polygon fill="midnightblue" stroke="midnightblue" points="399.863,-31.955 391.862,-25.0091 393.785,-35.428 399.863,-31.955"/>
</g>
<!-- Node22&#45;&gt;Node21 -->
<g id="edge27" class="edge"><title>Node22&#45;&gt;Node21</title>
<path fill="none" stroke="midnightblue" d="M345.959,-190.475C329.949,-180.755 303.55,-164.727 284.626,-153.237"/>
<polygon fill="midnightblue" stroke="midnightblue" points="286.379,-150.207 276.015,-148.009 282.746,-156.191 286.379,-150.207"/>
</g>
<!-- Node26 -->
<g id="node26" class="node"><title>Node26</title>
<polygon fill="white" stroke="#bfbfbf" points="1209,-252 1209,-271 1255,-271 1255,-252 1209,-252"/>
<text text-anchor="middle" x="1232" y="-259" font-family="Helvetica,sans-Serif" font-size="10.00">atomic</text>
</g>
<!-- Node25&#45;&gt;Node26 -->
<g id="edge35" class="edge"><title>Node25&#45;&gt;Node26</title>
<path fill="none" stroke="midnightblue" d="M1241.42,-313.475C1239.87,-305.08 1237.45,-291.981 1235.45,-281.163"/>
<polygon fill="midnightblue" stroke="midnightblue" points="1238.83,-280.206 1233.57,-271.009 1231.95,-281.479 1238.83,-280.206"/>
</g>
<!-- Node27 -->
<g id="node27" class="node"><title>Node27</title>
<polygon fill="white" stroke="#bfbfbf" points="1273.5,-252 1273.5,-271 1332.5,-271 1332.5,-252 1273.5,-252"/>
<text text-anchor="middle" x="1303" y="-259" font-family="Helvetica,sans-Serif" font-size="10.00">stdexcept</text>
</g>
<!-- Node25&#45;&gt;Node27 -->
<g id="edge36" class="edge"><title>Node25&#45;&gt;Node27</title>
<path fill="none" stroke="midnightblue" d="M1251.6,-313.475C1260.86,-304.285 1275.82,-289.456 1287.21,-278.156"/>
<polygon fill="midnightblue" stroke="midnightblue" points="1289.78,-280.536 1294.42,-271.009 1284.85,-275.565 1289.78,-280.536"/>
</g>
<!-- Node28&#45;&gt;Node8 -->
<g id="edge43" class="edge"><title>Node28&#45;&gt;Node8</title>
<path fill="none" stroke="midnightblue" d="M1069.29,-313.491C1083.13,-305.807 1101.99,-293.225 1113,-277 1132.61,-248.099 1133,-235.928 1133,-201 1133,-201 1133,-201 1133,-137.5 1133,-61.4763 1033.12,-33.0929 965.283,-22.5828"/>
<polygon fill="midnightblue" stroke="midnightblue" points="965.507,-19.0787 955.107,-21.1015 964.498,-26.0056 965.507,-19.0787"/>
</g>
<!-- Node29 -->
<g id="node29" class="node"><title>Node29</title>
<g id="a_node29"><a xlink:href="queue_8h.html" target="_top" xlink:title="queue.h">
<polygon fill="white" stroke="black" points="1053.5,-252 1053.5,-271 1104.5,-271 1104.5,-252 1053.5,-252"/>
<text text-anchor="middle" x="1079" y="-259" font-family="Helvetica,sans-Serif" font-size="10.00">queue.h</text>
</a>
</g>
</g>
<!-- Node28&#45;&gt;Node29 -->
<g id="edge38" class="edge"><title>Node28&#45;&gt;Node29</title>
<path fill="none" stroke="midnightblue" d="M1055.87,-313.475C1059.8,-304.815 1066,-291.149 1070.99,-280.145"/>
<polygon fill="midnightblue" stroke="midnightblue" points="1074.19,-281.562 1075.14,-271.009 1067.82,-278.669 1074.19,-281.562"/>
</g>
<!-- Node31 -->
<g id="node31" class="node"><title>Node31</title>
<g id="a_node31"><a xlink:href="synchronization_8h.html" target="_top" xlink:title="synchronization.h">
<polygon fill="white" stroke="black" points="950.5,-190.5 950.5,-209.5 1043.5,-209.5 1043.5,-190.5 950.5,-190.5"/>
<text text-anchor="middle" x="997" y="-197.5" font-family="Helvetica,sans-Serif" font-size="10.00">synchronization.h</text>
</a>
</g>
</g>
<!-- Node28&#45;&gt;Node31 -->
<g id="edge42" class="edge"><title>Node28&#45;&gt;Node31</title>
<path fill="none" stroke="midnightblue" d="M1048.04,-313.298C1039.09,-293.589 1017.1,-245.211 1005.11,-218.842"/>
<polygon fill="midnightblue" stroke="midnightblue" points="1008.24,-217.279 1000.92,-209.623 1001.87,-220.175 1008.24,-217.279"/>
</g>
<!-- Node30 -->
<g id="node30" class="node"><title>Node30</title>
<polygon fill="white" stroke="#bfbfbf" points="1061.5,-190.5 1061.5,-209.5 1104.5,-209.5 1104.5,-190.5 1061.5,-190.5"/>
<text text-anchor="middle" x="1083" y="-197.5" font-family="Helvetica,sans-Serif" font-size="10.00">queue</text>
</g>
<!-- Node29&#45;&gt;Node30 -->
<g id="edge39" class="edge"><title>Node29&#45;&gt;Node30</title>
<path fill="none" stroke="midnightblue" d="M1079.57,-251.975C1080.14,-243.58 1081.02,-230.481 1081.75,-219.663"/>
<polygon fill="midnightblue" stroke="midnightblue" points="1085.25,-219.721 1082.43,-209.509 1078.26,-219.252 1085.25,-219.721"/>
</g>
<!-- Node29&#45;&gt;Node31 -->
<g id="edge40" class="edge"><title>Node29&#45;&gt;Node31</title>
<path fill="none" stroke="midnightblue" d="M1067.25,-251.975C1054.22,-242.52 1032.96,-227.096 1017.24,-215.687"/>
<polygon fill="midnightblue" stroke="midnightblue" points="1018.88,-212.549 1008.73,-209.509 1014.77,-218.215 1018.88,-212.549"/>
</g>
<!-- Node31&#45;&gt;Node23 -->
<g id="edge41" class="edge"><title>Node31&#45;&gt;Node23</title>
<path fill="none" stroke="midnightblue" d="M966.912,-190.475C935.547,-181.588 885.572,-167.429 846.244,-156.286"/>
<polygon fill="midnightblue" stroke="midnightblue" points="847.068,-152.882 836.493,-153.523 845.16,-159.617 847.068,-152.882"/>
</g>
<!-- Node32&#45;&gt;Node8 -->
<g id="edge45" class="edge"><title>Node32&#45;&gt;Node8</title>
<path fill="none" stroke="midnightblue" d="M1155.21,-313.261C1160.01,-293.436 1171,-243.476 1171,-201 1171,-201 1171,-201 1171,-137.5 1171,-47.7605 1044.32,-24.2383 965.479,-18.2889"/>
<polygon fill="midnightblue" stroke="midnightblue" points="965.378,-14.7741 955.164,-17.5894 964.905,-21.758 965.378,-14.7741"/>
</g>
<!-- Node32&#45;&gt;Node29 -->
<g id="edge46" class="edge"><title>Node32&#45;&gt;Node29</title>
<path fill="none" stroke="midnightblue" d="M1142.4,-313.475C1130.75,-304.108 1111.81,-288.884 1097.67,-277.508"/>
<polygon fill="midnightblue" stroke="midnightblue" points="1099.57,-274.548 1089.58,-271.009 1095.18,-280.003 1099.57,-274.548"/>
</g>
<!-- Node33&#45;&gt;Node8 -->
<g id="edge49" class="edge"><title>Node33&#45;&gt;Node8</title>
<path fill="none" stroke="midnightblue" d="M869.772,-190.446C872.617,-181.447 877.035,-166.836 880,-154 889.1,-114.605 896.533,-68.1532 900.606,-40.5779"/>
<polygon fill="midnightblue" stroke="midnightblue" points="904.074,-41.0543 902.047,-30.6552 897.146,-40.0486 904.074,-41.0543"/>
</g>
<!-- Node33&#45;&gt;Node18 -->
<g id="edge50" class="edge"><title>Node33&#45;&gt;Node18</title>
<path fill="none" stroke="midnightblue" d="M867.041,-190.392C866.663,-175.057 863.769,-142.769 847,-123 786.036,-51.1276 670.242,-27.4809 611.353,-19.918"/>
<polygon fill="midnightblue" stroke="midnightblue" points="611.731,-16.4383 601.385,-18.7227 610.897,-23.3886 611.731,-16.4383"/>
</g>
<!-- Node33&#45;&gt;Node23 -->
<g id="edge48" class="edge"><title>Node33&#45;&gt;Node23</title>
<path fill="none" stroke="midnightblue" d="M855.538,-190.475C844.804,-182.492 828.35,-170.254 814.254,-159.77"/>
<polygon fill="midnightblue" stroke="midnightblue" points="815.967,-156.682 805.854,-153.523 811.79,-162.299 815.967,-156.682"/>
</g>
<!-- Node35&#45;&gt;Node6 -->
<g id="edge58" class="edge"><title>Node35&#45;&gt;Node6</title>
<path fill="none" stroke="midnightblue" d="M546.102,-313.475C530.328,-303.799 504.363,-287.872 485.651,-276.394"/>
<polygon fill="midnightblue" stroke="midnightblue" points="487.226,-273.254 476.872,-271.009 483.566,-279.221 487.226,-273.254"/>
</g>
<!-- Node35&#45;&gt;Node18 -->
<g id="edge65" class="edge"><title>Node35&#45;&gt;Node18</title>
<path fill="none" stroke="midnightblue" d="M562.432,-313.461C564.866,-304.474 568.462,-289.873 570,-277 580.767,-186.898 577.73,-78.0442 575.911,-35.1556"/>
<polygon fill="midnightblue" stroke="midnightblue" points="579.404,-34.9185 575.453,-25.0878 572.411,-35.2365 579.404,-34.9185"/>
</g>
<!-- Node35&#45;&gt;Node33 -->
<g id="edge59" class="edge"><title>Node35&#45;&gt;Node33</title>
<path fill="none" stroke="midnightblue" d="M604.147,-317.541C692.11,-308.448 881.642,-287.716 891,-277 905.59,-260.292 892.495,-234.706 880.668,-217.914"/>
<polygon fill="midnightblue" stroke="midnightblue" points="883.221,-215.486 874.411,-209.601 877.629,-219.696 883.221,-215.486"/>
</g>
<!-- Node36 -->
<g id="node36" class="node"><title>Node36</title>
<g id="a_node36"><a xlink:href="image__yuv_8h.html" target="_top" xlink:title="AR6/InstantOn/framework\l/image_yuv.h">
<polygon fill="white" stroke="black" points="751.5,-246.5 751.5,-276.5 882.5,-276.5 882.5,-246.5 751.5,-246.5"/>
<text text-anchor="start" x="759.5" y="-264.5" font-family="Helvetica,sans-Serif" font-size="10.00">AR6/InstantOn/framework</text>
<text text-anchor="middle" x="817" y="-253.5" font-family="Helvetica,sans-Serif" font-size="10.00">/image_yuv.h</text>
</a>
</g>
</g>
<!-- Node35&#45;&gt;Node36 -->
<g id="edge60" class="edge"><title>Node35&#45;&gt;Node36</title>
<path fill="none" stroke="midnightblue" d="M596.822,-313.475C635.776,-304.456 698.185,-290.008 746.629,-278.792"/>
<polygon fill="midnightblue" stroke="midnightblue" points="747.477,-282.188 756.43,-276.523 745.898,-275.369 747.477,-282.188"/>
</g>
<!-- Node36&#45;&gt;Node8 -->
<g id="edge62" class="edge"><title>Node36&#45;&gt;Node8</title>
<path fill="none" stroke="midnightblue" d="M856.485,-246.377C873.071,-238.346 890.84,-226.524 901,-210 933.573,-157.024 920.611,-79.4967 910.933,-40.6161"/>
<polygon fill="midnightblue" stroke="midnightblue" points="914.26,-39.5072 908.331,-30.7271 907.491,-41.2886 914.26,-39.5072"/>
</g>
<!-- Node36&#45;&gt;Node18 -->
<g id="edge63" class="edge"><title>Node36&#45;&gt;Node18</title>
<path fill="none" stroke="midnightblue" d="M802.97,-246.238C784.139,-226.607 750.361,-189.63 727,-154 703.351,-117.93 714.88,-97.1124 684,-67 663.709,-47.2136 634.247,-34.2038 611.067,-26.3515"/>
<polygon fill="midnightblue" stroke="midnightblue" points="611.831,-22.9209 601.239,-23.1991 609.692,-29.5863 611.831,-22.9209"/>
</g>
<!-- Node36&#45;&gt;Node23 -->
<g id="edge61" class="edge"><title>Node36&#45;&gt;Node23</title>
<path fill="none" stroke="midnightblue" d="M813.441,-246.145C808.411,-225.859 799.157,-188.533 793.04,-163.862"/>
<polygon fill="midnightblue" stroke="midnightblue" points="796.358,-162.701 790.555,-153.837 789.564,-164.385 796.358,-162.701"/>
</g>
<!-- Node36&#45;&gt;Node33 -->
<g id="edge64" class="edge"><title>Node36&#45;&gt;Node33</title>
<path fill="none" stroke="midnightblue" d="M828.849,-246.399C836.115,-237.753 845.452,-226.642 853.071,-217.576"/>
<polygon fill="midnightblue" stroke="midnightblue" points="855.971,-219.565 859.725,-209.658 850.612,-215.062 855.971,-219.565"/>
</g>
<!-- Node37&#45;&gt;Node6 -->
<g id="edge68" class="edge"><title>Node37&#45;&gt;Node6</title>
<path fill="none" stroke="midnightblue" d="M584.592,-441.975C539.407,-427.823 457.687,-394.728 423,-333 412.315,-313.986 429.229,-292.155 444.24,-277.887"/>
<polygon fill="midnightblue" stroke="midnightblue" points="446.634,-280.442 451.76,-271.17 441.971,-275.221 446.634,-280.442"/>
</g>
<!-- Node37&#45;&gt;Node35 -->
<g id="edge73" class="edge"><title>Node37&#45;&gt;Node35</title>
<path fill="none" stroke="midnightblue" d="M612.151,-441.805C603.079,-421.313 580.207,-369.645 567.987,-342.042"/>
<polygon fill="midnightblue" stroke="midnightblue" points="571.124,-340.483 563.876,-332.756 564.724,-343.317 571.124,-340.483"/>
</g>
<!-- Node38 -->
<g id="node38" class="node"><title>Node38</title>
<polygon fill="white" stroke="#bfbfbf" points="715,-375 715,-394 761,-394 761,-375 715,-375"/>
<text text-anchor="middle" x="738" y="-382" font-family="Helvetica,sans-Serif" font-size="10.00">cstdint</text>
</g>
<!-- Node37&#45;&gt;Node38 -->
<g id="edge67" class="edge"><title>Node37&#45;&gt;Node38</title>
<path fill="none" stroke="midnightblue" d="M632.201,-441.869C652.8,-430.893 688.591,-411.824 712.777,-398.938"/>
<polygon fill="midnightblue" stroke="midnightblue" points="714.553,-401.958 721.732,-394.167 711.261,-395.78 714.553,-401.958"/>
</g>
<!-- Node39 -->
<g id="node39" class="node"><title>Node39</title>
<g id="a_node39"><a xlink:href="listener__base_8h.html" target="_top" xlink:title="AR6/InstantOn/framework\l/listener_base.h">
<polygon fill="white" stroke="black" points="1004.5,-369.5 1004.5,-399.5 1135.5,-399.5 1135.5,-369.5 1004.5,-369.5"/>
<text text-anchor="start" x="1012.5" y="-387.5" font-family="Helvetica,sans-Serif" font-size="10.00">AR6/InstantOn/framework</text>
<text text-anchor="middle" x="1070" y="-376.5" font-family="Helvetica,sans-Serif" font-size="10.00">/listener_base.h</text>
</a>
</g>
</g>
<!-- Node37&#45;&gt;Node39 -->
<g id="edge69" class="edge"><title>Node37&#45;&gt;Node39</title>
<path fill="none" stroke="midnightblue" d="M675.819,-441.936C757.661,-430.218 904.562,-409.186 994.072,-396.371"/>
<polygon fill="midnightblue" stroke="midnightblue" points="994.755,-399.809 1004.16,-394.927 993.763,-392.879 994.755,-399.809"/>
</g>
<!-- Node39&#45;&gt;Node25 -->
<g id="edge70" class="edge"><title>Node39&#45;&gt;Node25</title>
<path fill="none" stroke="midnightblue" d="M1111,-369.399C1140.63,-359.207 1180.23,-345.59 1208.3,-335.935"/>
<polygon fill="midnightblue" stroke="midnightblue" points="1209.76,-339.133 1218.08,-332.571 1207.48,-332.514 1209.76,-339.133"/>
</g>
<!-- Node39&#45;&gt;Node31 -->
<g id="edge71" class="edge"><title>Node39&#45;&gt;Node31</title>
<path fill="none" stroke="midnightblue" d="M1043.03,-369.448C1029.46,-360.856 1014.19,-348.523 1006,-333 986.776,-296.557 990.073,-246.378 993.769,-219.604"/>
<polygon fill="midnightblue" stroke="midnightblue" points="997.236,-220.089 995.313,-209.67 990.319,-219.014 997.236,-220.089"/>
</g>
<!-- Node39&#45;&gt;Node32 -->
<g id="edge72" class="edge"><title>Node39&#45;&gt;Node32</title>
<path fill="none" stroke="midnightblue" d="M1089.67,-369.399C1102.6,-360.129 1119.49,-348.025 1132.57,-338.647"/>
<polygon fill="midnightblue" stroke="midnightblue" points="1134.83,-341.329 1140.92,-332.658 1130.76,-335.639 1134.83,-341.329"/>
</g>
</g>
</svg>
