<?xml version="1.0" encoding="UTF-8" standalone="no"?>
<!DOCTYPE svg PUBLIC "-//W3C//DTD SVG 1.1//EN"
 "http://www.w3.org/Graphics/SVG/1.1/DTD/svg11.dtd">
<!-- Generated by graphviz version 2.38.0 (20140413.2041)
 -->
<!-- Title: /bitrise/src/Source/AR6/InstantOn/include/AR6/InstantOn/math/cholesky.h Pages: 1 -->
<svg width="536pt" height="484pt"
 viewBox="0.00 0.00 536.00 484.00" xmlns="http://www.w3.org/2000/svg" xmlns:xlink="http://www.w3.org/1999/xlink">
<g id="graph0" class="graph" transform="scale(1 1) rotate(0) translate(4 480)">
<title>/bitrise/src/Source/AR6/InstantOn/include/AR6/InstantOn/math/cholesky.h</title>
<polygon fill="white" stroke="none" points="-4,4 -4,-480 532,-480 532,4 -4,4"/>
<!-- Node1 -->
<g id="node1" class="node"><title>Node1</title>
<polygon fill="#bfbfbf" stroke="black" points="229.5,-434.5 229.5,-475.5 389.5,-475.5 389.5,-434.5 229.5,-434.5"/>
<text text-anchor="start" x="237.5" y="-463.5" font-family="Helvetica,sans-Serif" font-size="10.00">/bitrise/src/Source</text>
<text text-anchor="start" x="237.5" y="-452.5" font-family="Helvetica,sans-Serif" font-size="10.00">/AR6/InstantOn/include</text>
<text text-anchor="middle" x="309.5" y="-441.5" font-family="Helvetica,sans-Serif" font-size="10.00">/AR6/InstantOn/math/cholesky.h</text>
</g>
<!-- Node2 -->
<g id="node2" class="node"><title>Node2</title>
<g id="a_node2"><a xlink:href="cholesky__linear__solvers_8h.html" target="_top" xlink:title="/bitrise/src/Source\l/AR6/InstantOn/include\l/AR6/InstantOn/math/cholesky\l_linear_solvers.h">
<polygon fill="white" stroke="black" points="233.5,-345.5 233.5,-397.5 385.5,-397.5 385.5,-345.5 233.5,-345.5"/>
<text text-anchor="start" x="241.5" y="-385.5" font-family="Helvetica,sans-Serif" font-size="10.00">/bitrise/src/Source</text>
<text text-anchor="start" x="241.5" y="-374.5" font-family="Helvetica,sans-Serif" font-size="10.00">/AR6/InstantOn/include</text>
<text text-anchor="start" x="241.5" y="-363.5" font-family="Helvetica,sans-Serif" font-size="10.00">/AR6/InstantOn/math/cholesky</text>
<text text-anchor="middle" x="309.5" y="-352.5" font-family="Helvetica,sans-Serif" font-size="10.00">_linear_solvers.h</text>
</a>
</g>
</g>
<!-- Node1&#45;&gt;Node2 -->
<g id="edge1" class="edge"><title>Node1&#45;&gt;Node2</title>
<path fill="none" stroke="midnightblue" d="M309.5,-424.121C309.5,-415.413 309.5,-405.989 309.5,-397.607"/>
<polygon fill="midnightblue" stroke="midnightblue" points="306,-424.271 309.5,-434.271 313,-424.271 306,-424.271"/>
</g>
<!-- Node3 -->
<g id="node3" class="node"><title>Node3</title>
<g id="a_node3"><a xlink:href="robust__homography_8h.html" target="_top" xlink:title="/bitrise/src/Source\l/AR6/InstantOn/include\l/AR6/InstantOn/cv/homography\l_estimation/robust_homography.h">
<polygon fill="white" stroke="black" points="64.5,-256.5 64.5,-308.5 228.5,-308.5 228.5,-256.5 64.5,-256.5"/>
<text text-anchor="start" x="72.5" y="-296.5" font-family="Helvetica,sans-Serif" font-size="10.00">/bitrise/src/Source</text>
<text text-anchor="start" x="72.5" y="-285.5" font-family="Helvetica,sans-Serif" font-size="10.00">/AR6/InstantOn/include</text>
<text text-anchor="start" x="72.5" y="-274.5" font-family="Helvetica,sans-Serif" font-size="10.00">/AR6/InstantOn/cv/homography</text>
<text text-anchor="middle" x="146.5" y="-263.5" font-family="Helvetica,sans-Serif" font-size="10.00">_estimation/robust_homography.h</text>
</a>
</g>
</g>
<!-- Node2&#45;&gt;Node3 -->
<g id="edge2" class="edge"><title>Node2&#45;&gt;Node3</title>
<path fill="none" stroke="midnightblue" d="M253.283,-340.494C233.809,-330.101 212.198,-318.566 193.54,-308.607"/>
<polygon fill="midnightblue" stroke="midnightblue" points="251.884,-343.715 262.354,-345.336 255.18,-337.54 251.884,-343.715"/>
</g>
<!-- Node9 -->
<g id="node9" class="node"><title>Node9</title>
<g id="a_node9"><a xlink:href="robust__pnp_8h.html" target="_top" xlink:title="/bitrise/src/Source\l/AR6/InstantOn/include\l/AR6/InstantOn/cv/pnp\l_estimation/robust_pnp.h">
<polygon fill="white" stroke="black" points="246.5,-256.5 246.5,-308.5 372.5,-308.5 372.5,-256.5 246.5,-256.5"/>
<text text-anchor="start" x="254.5" y="-296.5" font-family="Helvetica,sans-Serif" font-size="10.00">/bitrise/src/Source</text>
<text text-anchor="start" x="254.5" y="-285.5" font-family="Helvetica,sans-Serif" font-size="10.00">/AR6/InstantOn/include</text>
<text text-anchor="start" x="254.5" y="-274.5" font-family="Helvetica,sans-Serif" font-size="10.00">/AR6/InstantOn/cv/pnp</text>
<text text-anchor="middle" x="309.5" y="-263.5" font-family="Helvetica,sans-Serif" font-size="10.00">_estimation/robust_pnp.h</text>
</a>
</g>
</g>
<!-- Node2&#45;&gt;Node9 -->
<g id="edge8" class="edge"><title>Node2&#45;&gt;Node9</title>
<path fill="none" stroke="midnightblue" d="M309.5,-335.191C309.5,-326.282 309.5,-316.899 309.5,-308.607"/>
<polygon fill="midnightblue" stroke="midnightblue" points="306,-335.336 309.5,-345.336 313,-335.336 306,-335.336"/>
</g>
<!-- Node10 -->
<g id="node10" class="node"><title>Node10</title>
<g id="a_node10"><a xlink:href="homography__tracker_8h.html" target="_top" xlink:title="/bitrise/src/Source\l/AR6/InstantOn/include\l/AR6/InstantOn/cv/trackers\l/homography_tracker.h">
<polygon fill="white" stroke="black" points="391,-256.5 391,-308.5 528,-308.5 528,-256.5 391,-256.5"/>
<text text-anchor="start" x="399" y="-296.5" font-family="Helvetica,sans-Serif" font-size="10.00">/bitrise/src/Source</text>
<text text-anchor="start" x="399" y="-285.5" font-family="Helvetica,sans-Serif" font-size="10.00">/AR6/InstantOn/include</text>
<text text-anchor="start" x="399" y="-274.5" font-family="Helvetica,sans-Serif" font-size="10.00">/AR6/InstantOn/cv/trackers</text>
<text text-anchor="middle" x="459.5" y="-263.5" font-family="Helvetica,sans-Serif" font-size="10.00">/homography_tracker.h</text>
</a>
</g>
</g>
<!-- Node2&#45;&gt;Node10 -->
<g id="edge9" class="edge"><title>Node2&#45;&gt;Node10</title>
<path fill="none" stroke="midnightblue" d="M361.965,-340.07C379.694,-329.788 399.275,-318.431 416.211,-308.607"/>
<polygon fill="midnightblue" stroke="midnightblue" points="359.781,-337.291 352.886,-345.336 363.293,-343.346 359.781,-337.291"/>
</g>
<!-- Node4 -->
<g id="node4" class="node"><title>Node4</title>
<g id="a_node4"><a xlink:href="harris__ncc__tracker_8h.html" target="_top" xlink:title="/bitrise/src/Source\l/AR6/InstantOn/include\l/AR6/InstantOn/cv/trackers\l/harris_ncc_tracker.h">
<polygon fill="white" stroke="black" points="78,-167.5 78,-219.5 215,-219.5 215,-167.5 78,-167.5"/>
<text text-anchor="start" x="86" y="-207.5" font-family="Helvetica,sans-Serif" font-size="10.00">/bitrise/src/Source</text>
<text text-anchor="start" x="86" y="-196.5" font-family="Helvetica,sans-Serif" font-size="10.00">/AR6/InstantOn/include</text>
<text text-anchor="start" x="86" y="-185.5" font-family="Helvetica,sans-Serif" font-size="10.00">/AR6/InstantOn/cv/trackers</text>
<text text-anchor="middle" x="146.5" y="-174.5" font-family="Helvetica,sans-Serif" font-size="10.00">/harris_ncc_tracker.h</text>
</a>
</g>
</g>
<!-- Node3&#45;&gt;Node4 -->
<g id="edge3" class="edge"><title>Node3&#45;&gt;Node4</title>
<path fill="none" stroke="midnightblue" d="M146.5,-246.191C146.5,-237.282 146.5,-227.899 146.5,-219.607"/>
<polygon fill="midnightblue" stroke="midnightblue" points="143,-246.336 146.5,-256.336 150,-246.336 143,-246.336"/>
</g>
<!-- Node5 -->
<g id="node5" class="node"><title>Node5</title>
<g id="a_node5"><a xlink:href="harris__ncc__tracker_8cpp.html" target="_top" xlink:title="/bitrise/src/Source\l/AR6/InstantOn/cv/trackers\l/harris_ncc_tracker.cpp">
<polygon fill="white" stroke="black" points="0,-84 0,-125 137,-125 137,-84 0,-84"/>
<text text-anchor="start" x="8" y="-113" font-family="Helvetica,sans-Serif" font-size="10.00">/bitrise/src/Source</text>
<text text-anchor="start" x="8" y="-102" font-family="Helvetica,sans-Serif" font-size="10.00">/AR6/InstantOn/cv/trackers</text>
<text text-anchor="middle" x="68.5" y="-91" font-family="Helvetica,sans-Serif" font-size="10.00">/harris_ncc_tracker.cpp</text>
</a>
</g>
</g>
<!-- Node4&#45;&gt;Node5 -->
<g id="edge4" class="edge"><title>Node4&#45;&gt;Node5</title>
<path fill="none" stroke="midnightblue" d="M117.225,-159.847C106.736,-148.148 95.2441,-135.33 86.0564,-125.082"/>
<polygon fill="midnightblue" stroke="midnightblue" points="114.658,-162.227 123.939,-167.336 119.87,-157.554 114.658,-162.227"/>
</g>
<!-- Node6 -->
<g id="node6" class="node"><title>Node6</title>
<g id="a_node6"><a xlink:href="homography__tracker__filter_8h.html" target="_top" xlink:title="/bitrise/src/Source\l/AR6/InstantOn/include\l/AR6/InstantOn/extensions\l/homography_tracker_filter.h">
<polygon fill="white" stroke="black" points="155.5,-78.5 155.5,-130.5 295.5,-130.5 295.5,-78.5 155.5,-78.5"/>
<text text-anchor="start" x="163.5" y="-118.5" font-family="Helvetica,sans-Serif" font-size="10.00">/bitrise/src/Source</text>
<text text-anchor="start" x="163.5" y="-107.5" font-family="Helvetica,sans-Serif" font-size="10.00">/AR6/InstantOn/include</text>
<text text-anchor="start" x="163.5" y="-96.5" font-family="Helvetica,sans-Serif" font-size="10.00">/AR6/InstantOn/extensions</text>
<text text-anchor="middle" x="225.5" y="-85.5" font-family="Helvetica,sans-Serif" font-size="10.00">/homography_tracker_filter.h</text>
</a>
</g>
</g>
<!-- Node4&#45;&gt;Node6 -->
<g id="edge5" class="edge"><title>Node4&#45;&gt;Node6</title>
<path fill="none" stroke="midnightblue" d="M176.202,-159.79C184.975,-150.129 194.436,-139.71 202.701,-130.607"/>
<polygon fill="midnightblue" stroke="midnightblue" points="173.481,-157.58 169.35,-167.336 178.664,-162.286 173.481,-157.58"/>
</g>
<!-- Node7 -->
<g id="node7" class="node"><title>Node7</title>
<g id="a_node7"><a xlink:href="homography__tracker__filter_8cpp.html" target="_top" xlink:title="/bitrise/src/Source\l/AR6/InstantOn/extensions\l/homography_tracker_filter.cpp">
<polygon fill="white" stroke="black" points="70,-0.5 70,-41.5 221,-41.5 221,-0.5 70,-0.5"/>
<text text-anchor="start" x="78" y="-29.5" font-family="Helvetica,sans-Serif" font-size="10.00">/bitrise/src/Source</text>
<text text-anchor="start" x="78" y="-18.5" font-family="Helvetica,sans-Serif" font-size="10.00">/AR6/InstantOn/extensions</text>
<text text-anchor="middle" x="145.5" y="-7.5" font-family="Helvetica,sans-Serif" font-size="10.00">/homography_tracker_filter.cpp</text>
</a>
</g>
</g>
<!-- Node6&#45;&gt;Node7 -->
<g id="edge6" class="edge"><title>Node6&#45;&gt;Node7</title>
<path fill="none" stroke="midnightblue" d="M193.378,-70.7754C183.683,-60.8991 173.346,-50.3679 164.767,-41.6282"/>
<polygon fill="midnightblue" stroke="midnightblue" points="191.123,-73.475 200.626,-78.1596 196.119,-68.5714 191.123,-73.475"/>
</g>
<!-- Node8 -->
<g id="node8" class="node"><title>Node8</title>
<g id="a_node8"><a xlink:href="_vision4d-_instant_on_8cpp.html" target="_top" xlink:title="/bitrise/src/Source\l/AR6/InstantOn/extensions\l/Vision4d&#45;InstantOn.cpp">
<polygon fill="white" stroke="black" points="239,-0.5 239,-41.5 374,-41.5 374,-0.5 239,-0.5"/>
<text text-anchor="start" x="247" y="-29.5" font-family="Helvetica,sans-Serif" font-size="10.00">/bitrise/src/Source</text>
<text text-anchor="start" x="247" y="-18.5" font-family="Helvetica,sans-Serif" font-size="10.00">/AR6/InstantOn/extensions</text>
<text text-anchor="middle" x="306.5" y="-7.5" font-family="Helvetica,sans-Serif" font-size="10.00">/Vision4d&#45;InstantOn.cpp</text>
</a>
</g>
</g>
<!-- Node6&#45;&gt;Node8 -->
<g id="edge7" class="edge"><title>Node6&#45;&gt;Node8</title>
<path fill="none" stroke="midnightblue" d="M257.735,-71.0656C267.634,-61.1057 278.221,-50.4536 286.992,-41.6282"/>
<polygon fill="midnightblue" stroke="midnightblue" points="255.252,-68.5996 250.685,-78.1596 260.217,-73.5341 255.252,-68.5996"/>
</g>
</g>
</svg>
