<?xml version="1.0" encoding="UTF-8" standalone="no"?>
<!DOCTYPE svg PUBLIC "-//W3C//DTD SVG 1.1//EN"
 "http://www.w3.org/Graphics/SVG/1.1/DTD/svg11.dtd">
<!-- Generated by graphviz version 2.38.0 (20140413.2041)
 -->
<!-- Title: /bitrise/src/Source/AR6/InstantOn/include/AR6/InstantOn/math/cholesky_linear_solvers.h Pages: 1 -->
<!--zoomable 296 -->
<svg id="main" version="1.1" xmlns="http://www.w3.org/2000/svg" xmlns:xlink="http://www.w3.org/1999/xlink" xml:space="preserve" onload="init(evt)">
<style type="text/css"><![CDATA[
.edge:hover path { stroke: red; }
.edge:hover polygon { stroke: red; fill: red; }
]]></style>
<script type="text/javascript"><![CDATA[
var edges = document.getElementsByTagName('g');
if (edges && edges.length) {
  for (var i=0;i<edges.length;i++) {
    if (edges[i].id.substr(0,4)=='edge') {
      edges[i].setAttribute('class','edge');
    }
  }
}
]]></script>
        <defs>
                <circle id="rim" cx="0" cy="0" r="7"/>
                <circle id="rim2" cx="0" cy="0" r="3.5"/>
                <g id="zoomPlus">
                        <use xlink:href="#rim" fill="#404040">
                                <set attributeName="fill" to="#808080" begin="zoomplus.mouseover" end="zoomplus.mouseout"/>
                        </use>
                        <path d="M-4,0h8M0,-4v8" fill="none" stroke="white" stroke-width="1.5" pointer-events="none"/>
                </g>
                <g id="zoomMin">
                        <use xlink:href="#rim" fill="#404040">
                                <set attributeName="fill" to="#808080" begin="zoomminus.mouseover" end="zoomminus.mouseout"/>
                        </use>
                        <path d="M-4,0h8" fill="none" stroke="white" stroke-width="1.5" pointer-events="none"/>
                </g>
                <g id="dirArrow">
                        <path fill="none" stroke="white" stroke-width="1.5" d="M0,-3.0v7 M-2.5,-0.5L0,-3.0L2.5,-0.5"/>
                </g>
               <g id="resetDef">
                       <use xlink:href="#rim2" fill="#404040">
                               <set attributeName="fill" to="#808080" begin="reset.mouseover" end="reset.mouseout"/>
                       </use>
               </g>
        </defs>

<script type="text/javascript">
var viewWidth = 542;
var viewHeight = 296;
var sectionId = 'dynsection-0';
</script>
<script xlink:href="svgpan.js"/>
<svg id="graph" class="graph">
<g id="viewport">
<title>/bitrise/src/Source/AR6/InstantOn/include/AR6/InstantOn/math/cholesky_linear_solvers.h</title>
<polygon fill="white" stroke="none" points="-4,4 -4,-292 537.5,-292 537.5,4 -4,4"/>
<!-- Node1 -->
<g id="node1" class="node"><title>Node1</title>
<polygon fill="#bfbfbf" stroke="black" points="143,-235.5 143,-287.5 295,-287.5 295,-235.5 143,-235.5"/>
<text text-anchor="start" x="151" y="-275.5" font-family="Helvetica,sans-Serif" font-size="10.00">/bitrise/src/Source</text>
<text text-anchor="start" x="151" y="-264.5" font-family="Helvetica,sans-Serif" font-size="10.00">/AR6/InstantOn/include</text>
<text text-anchor="start" x="151" y="-253.5" font-family="Helvetica,sans-Serif" font-size="10.00">/AR6/InstantOn/math/cholesky</text>
<text text-anchor="middle" x="219" y="-242.5" font-family="Helvetica,sans-Serif" font-size="10.00">_linear_solvers.h</text>
</g>
<!-- Node2 -->
<g id="node2" class="node"><title>Node2</title>
<g id="a_node2"><a xlink:href="cholesky_8h.html" target="_top" xlink:title="cholesky.h">
<polygon fill="white" stroke="black" points="100,-179.5 100,-198.5 164,-198.5 164,-179.5 100,-179.5"/>
<text text-anchor="middle" x="132" y="-186.5" font-family="Helvetica,sans-Serif" font-size="10.00">cholesky.h</text>
</a>
</g>
</g>
<!-- Node1&#45;&gt;Node2 -->
<g id="edge1" class="edge"><title>Node1&#45;&gt;Node2</title>
<path fill="none" stroke="midnightblue" d="M188.082,-235.446C175.596,-225.328 161.596,-213.983 150.708,-205.16"/>
<polygon fill="midnightblue" stroke="midnightblue" points="152.704,-202.272 142.731,-198.695 148.296,-207.711 152.704,-202.272"/>
</g>
<!-- Node6 -->
<g id="node6" class="node"><title>Node6</title>
<g id="a_node6"><a xlink:href="linear__algebra_8h.html" target="_top" xlink:title="linear_algebra.h">
<polygon fill="white" stroke="black" points="220.5,-123.5 220.5,-142.5 305.5,-142.5 305.5,-123.5 220.5,-123.5"/>
<text text-anchor="middle" x="263" y="-130.5" font-family="Helvetica,sans-Serif" font-size="10.00">linear_algebra.h</text>
</a>
</g>
</g>
<!-- Node1&#45;&gt;Node6 -->
<g id="edge18" class="edge"><title>Node1&#45;&gt;Node6</title>
<path fill="none" stroke="midnightblue" d="M227.798,-235.205C236.337,-210.656 249.086,-174.002 256.67,-152.199"/>
<polygon fill="midnightblue" stroke="midnightblue" points="260.047,-153.145 260.026,-142.55 253.435,-150.845 260.047,-153.145"/>
</g>
<!-- Node7 -->
<g id="node7" class="node"><title>Node7</title>
<g id="a_node7"><a xlink:href="_instant_on_2include_2_a_r6_2_instant_on_2math_2matrix_8h.html" target="_top" xlink:title="matrix.h">
<polygon fill="white" stroke="black" points="175,-67.5 175,-86.5 227,-86.5 227,-67.5 175,-67.5"/>
<text text-anchor="middle" x="201" y="-74.5" font-family="Helvetica,sans-Serif" font-size="10.00">matrix.h</text>
</a>
</g>
</g>
<!-- Node1&#45;&gt;Node7 -->
<g id="edge19" class="edge"><title>Node1&#45;&gt;Node7</title>
<path fill="none" stroke="midnightblue" d="M216.497,-235.124C212.833,-197.977 206.093,-129.642 202.846,-96.7114"/>
<polygon fill="midnightblue" stroke="midnightblue" points="206.318,-96.2571 201.853,-86.649 199.352,-96.9443 206.318,-96.2571"/>
</g>
<!-- Node16 -->
<g id="node16" class="node"><title>Node16</title>
<g id="a_node16"><a xlink:href="math__io_8h.html" target="_top" xlink:title="math_io.h">
<polygon fill="white" stroke="black" points="314.5,-179.5 314.5,-198.5 373.5,-198.5 373.5,-179.5 314.5,-179.5"/>
<text text-anchor="middle" x="344" y="-186.5" font-family="Helvetica,sans-Serif" font-size="10.00">math_io.h</text>
</a>
</g>
</g>
<!-- Node1&#45;&gt;Node16 -->
<g id="edge20" class="edge"><title>Node1&#45;&gt;Node16</title>
<path fill="none" stroke="midnightblue" d="M263.422,-235.446C282.546,-224.66 304.139,-212.481 320.156,-203.448"/>
<polygon fill="midnightblue" stroke="midnightblue" points="321.89,-206.488 328.881,-198.527 318.452,-200.391 321.89,-206.488"/>
</g>
<!-- Node3 -->
<g id="node3" class="node"><title>Node3</title>
<g id="a_node3"><a xlink:href="math__utils_8h.html" target="_top" xlink:title="math_utils.h">
<polygon fill="white" stroke="black" points="81,-67.5 81,-86.5 151,-86.5 151,-67.5 81,-67.5"/>
<text text-anchor="middle" x="116" y="-74.5" font-family="Helvetica,sans-Serif" font-size="10.00">math_utils.h</text>
</a>
</g>
</g>
<!-- Node2&#45;&gt;Node3 -->
<g id="edge2" class="edge"><title>Node2&#45;&gt;Node3</title>
<path fill="none" stroke="midnightblue" d="M130.745,-179.368C128.162,-161.617 122.206,-120.666 118.705,-96.5974"/>
<polygon fill="midnightblue" stroke="midnightblue" points="122.153,-95.9835 117.25,-86.5914 115.226,-96.9911 122.153,-95.9835"/>
</g>
<!-- Node2&#45;&gt;Node6 -->
<g id="edge5" class="edge"><title>Node2&#45;&gt;Node6</title>
<path fill="none" stroke="midnightblue" d="M152.757,-179.444C174.316,-170.557 208.263,-156.563 232.794,-146.451"/>
<polygon fill="midnightblue" stroke="midnightblue" points="234.428,-149.563 242.34,-142.516 231.761,-143.092 234.428,-149.563"/>
</g>
<!-- Node4 -->
<g id="node4" class="node"><title>Node4</title>
<polygon fill="white" stroke="#bfbfbf" points="0,-6 0,-25 44,-25 44,-6 0,-6"/>
<text text-anchor="middle" x="22" y="-13" font-family="Helvetica,sans-Serif" font-size="10.00">cmath</text>
</g>
<!-- Node3&#45;&gt;Node4 -->
<g id="edge3" class="edge"><title>Node3&#45;&gt;Node4</title>
<path fill="none" stroke="midnightblue" d="M102.532,-67.4751C87.3152,-57.8431 62.3133,-42.0175 44.1992,-30.5517"/>
<polygon fill="midnightblue" stroke="midnightblue" points="45.7644,-27.4002 35.4429,-25.0091 42.0205,-33.3149 45.7644,-27.4002"/>
</g>
<!-- Node5 -->
<g id="node5" class="node"><title>Node5</title>
<polygon fill="white" stroke="#bfbfbf" points="62,-0.5 62,-30.5 164,-30.5 164,-0.5 62,-0.5"/>
<text text-anchor="start" x="70" y="-18.5" font-family="Helvetica,sans-Serif" font-size="10.00">artvision/framework</text>
<text text-anchor="middle" x="113" y="-7.5" font-family="Helvetica,sans-Serif" font-size="10.00">/error.h</text>
</g>
<!-- Node3&#45;&gt;Node5 -->
<g id="edge4" class="edge"><title>Node3&#45;&gt;Node5</title>
<path fill="none" stroke="midnightblue" d="M115.57,-67.4751C115.217,-60.471 114.699,-50.1919 114.22,-40.6956"/>
<polygon fill="midnightblue" stroke="midnightblue" points="117.706,-40.334 113.707,-30.523 110.715,-40.6866 117.706,-40.334"/>
</g>
<!-- Node6&#45;&gt;Node3 -->
<g id="edge6" class="edge"><title>Node6&#45;&gt;Node3</title>
<path fill="none" stroke="midnightblue" d="M239.707,-123.444C215.193,-114.438 176.404,-100.189 148.8,-90.049"/>
<polygon fill="midnightblue" stroke="midnightblue" points="149.777,-86.6793 139.184,-86.5164 147.363,-93.25 149.777,-86.6793"/>
</g>
<!-- Node6&#45;&gt;Node7 -->
<g id="edge7" class="edge"><title>Node6&#45;&gt;Node7</title>
<path fill="none" stroke="midnightblue" d="M253.039,-123.324C243.873,-115.341 230.063,-103.313 218.972,-93.6529"/>
<polygon fill="midnightblue" stroke="midnightblue" points="220.982,-90.7624 211.143,-86.8339 216.385,-96.041 220.982,-90.7624"/>
</g>
<!-- Node8 -->
<g id="node8" class="node"><title>Node8</title>
<g id="a_node8"><a xlink:href="vector_8h.html" target="_top" xlink:title="vector.h">
<polygon fill="white" stroke="black" points="244,-6 244,-25 296,-25 296,-6 244,-6"/>
<text text-anchor="middle" x="270" y="-13" font-family="Helvetica,sans-Serif" font-size="10.00">vector.h</text>
</a>
</g>
</g>
<!-- Node6&#45;&gt;Node8 -->
<g id="edge11" class="edge"><title>Node6&#45;&gt;Node8</title>
<path fill="none" stroke="midnightblue" d="M263.526,-123.319C264.651,-104.757 267.313,-60.8391 268.85,-35.4734"/>
<polygon fill="midnightblue" stroke="midnightblue" points="272.356,-35.4755 269.468,-25.282 265.369,-35.0519 272.356,-35.4755"/>
</g>
<!-- Node10 -->
<g id="node10" class="node"><title>Node10</title>
<polygon fill="white" stroke="#bfbfbf" points="283,-67.5 283,-86.5 335,-86.5 335,-67.5 283,-67.5"/>
<text text-anchor="middle" x="309" y="-74.5" font-family="Helvetica,sans-Serif" font-size="10.00">assert.h</text>
</g>
<!-- Node6&#45;&gt;Node10 -->
<g id="edge12" class="edge"><title>Node6&#45;&gt;Node10</title>
<path fill="none" stroke="midnightblue" d="M270.596,-123.083C277.227,-115.298 287.021,-103.801 295.058,-94.3665"/>
<polygon fill="midnightblue" stroke="midnightblue" points="297.725,-96.6332 301.545,-86.7511 292.396,-92.0939 297.725,-96.6332"/>
</g>
<!-- Node11 -->
<g id="node11" class="node"><title>Node11</title>
<polygon fill="white" stroke="#bfbfbf" points="353,-67.5 353,-86.5 393,-86.5 393,-67.5 353,-67.5"/>
<text text-anchor="middle" x="373" y="-74.5" font-family="Helvetica,sans-Serif" font-size="10.00">limits</text>
</g>
<!-- Node6&#45;&gt;Node11 -->
<g id="edge13" class="edge"><title>Node6&#45;&gt;Node11</title>
<path fill="none" stroke="midnightblue" d="M280.673,-123.324C298.394,-114.625 325.903,-101.12 346.288,-91.113"/>
<polygon fill="midnightblue" stroke="midnightblue" points="347.936,-94.2031 355.37,-86.6545 344.851,-87.9195 347.936,-94.2031"/>
</g>
<!-- Node12 -->
<g id="node12" class="node"><title>Node12</title>
<g id="a_node12"><a xlink:href="indexing_8h.html" target="_top" xlink:title="indexing.h">
<polygon fill="white" stroke="black" points="411.5,-67.5 411.5,-86.5 472.5,-86.5 472.5,-67.5 411.5,-67.5"/>
<text text-anchor="middle" x="442" y="-74.5" font-family="Helvetica,sans-Serif" font-size="10.00">indexing.h</text>
</a>
</g>
</g>
<!-- Node6&#45;&gt;Node12 -->
<g id="edge14" class="edge"><title>Node6&#45;&gt;Node12</title>
<path fill="none" stroke="midnightblue" d="M291.363,-123.444C321.738,-114.28 370.11,-99.6876 403.816,-89.5192"/>
<polygon fill="midnightblue" stroke="midnightblue" points="405.207,-92.7555 413.77,-86.5164 403.185,-86.0538 405.207,-92.7555"/>
</g>
<!-- Node7&#45;&gt;Node5 -->
<g id="edge8" class="edge"><title>Node7&#45;&gt;Node5</title>
<path fill="none" stroke="midnightblue" d="M188.392,-67.4751C176.362,-59.3413 157.8,-46.7909 142.105,-36.1788"/>
<polygon fill="midnightblue" stroke="midnightblue" points="143.984,-33.2248 133.74,-30.523 140.064,-39.0237 143.984,-33.2248"/>
</g>
<!-- Node7&#45;&gt;Node8 -->
<g id="edge9" class="edge"><title>Node7&#45;&gt;Node8</title>
<path fill="none" stroke="midnightblue" d="M210.886,-67.4751C221.646,-58.1966 239.071,-43.1706 252.221,-31.831"/>
<polygon fill="midnightblue" stroke="midnightblue" points="254.845,-34.1902 260.132,-25.0091 250.273,-28.889 254.845,-34.1902"/>
</g>
<!-- Node9 -->
<g id="node9" class="node"><title>Node9</title>
<polygon fill="white" stroke="#bfbfbf" points="182,-6 182,-25 226,-25 226,-6 182,-6"/>
<text text-anchor="middle" x="204" y="-13" font-family="Helvetica,sans-Serif" font-size="10.00">vector</text>
</g>
<!-- Node7&#45;&gt;Node9 -->
<g id="edge10" class="edge"><title>Node7&#45;&gt;Node9</title>
<path fill="none" stroke="midnightblue" d="M201.43,-67.4751C201.853,-59.0803 202.514,-45.9806 203.059,-35.1631"/>
<polygon fill="midnightblue" stroke="midnightblue" points="206.563,-35.1727 203.571,-25.0091 199.572,-34.8201 206.563,-35.1727"/>
</g>
<!-- Node13 -->
<g id="node13" class="node"><title>Node13</title>
<polygon fill="white" stroke="#bfbfbf" points="347,-6 347,-25 399,-25 399,-6 347,-6"/>
<text text-anchor="middle" x="373" y="-13" font-family="Helvetica,sans-Serif" font-size="10.00">memory</text>
</g>
<!-- Node12&#45;&gt;Node13 -->
<g id="edge15" class="edge"><title>Node12&#45;&gt;Node13</title>
<path fill="none" stroke="midnightblue" d="M432.114,-67.4751C421.354,-58.1966 403.929,-43.1706 390.779,-31.831"/>
<polygon fill="midnightblue" stroke="midnightblue" points="392.727,-28.889 382.868,-25.0091 388.155,-34.1902 392.727,-28.889"/>
</g>
<!-- Node14 -->
<g id="node14" class="node"><title>Node14</title>
<polygon fill="white" stroke="#bfbfbf" points="417.5,-6 417.5,-25 466.5,-25 466.5,-6 417.5,-6"/>
<text text-anchor="middle" x="442" y="-13" font-family="Helvetica,sans-Serif" font-size="10.00">cstddef</text>
</g>
<!-- Node12&#45;&gt;Node14 -->
<g id="edge16" class="edge"><title>Node12&#45;&gt;Node14</title>
<path fill="none" stroke="midnightblue" d="M442,-67.4751C442,-59.0803 442,-45.9806 442,-35.1631"/>
<polygon fill="midnightblue" stroke="midnightblue" points="445.5,-35.0091 442,-25.0091 438.5,-35.0091 445.5,-35.0091"/>
</g>
<!-- Node15 -->
<g id="node15" class="node"><title>Node15</title>
<polygon fill="white" stroke="#bfbfbf" points="484.5,-6 484.5,-25 533.5,-25 533.5,-6 484.5,-6"/>
<text text-anchor="middle" x="509" y="-13" font-family="Helvetica,sans-Serif" font-size="10.00">string.h</text>
</g>
<!-- Node12&#45;&gt;Node15 -->
<g id="edge17" class="edge"><title>Node12&#45;&gt;Node15</title>
<path fill="none" stroke="midnightblue" d="M451.599,-67.4751C462.048,-58.1966 478.968,-43.1706 491.736,-31.831"/>
<polygon fill="midnightblue" stroke="midnightblue" points="494.265,-34.2663 499.418,-25.0091 489.617,-29.0323 494.265,-34.2663"/>
</g>
<!-- Node17 -->
<g id="node17" class="node"><title>Node17</title>
<polygon fill="white" stroke="#bfbfbf" points="323.5,-123.5 323.5,-142.5 364.5,-142.5 364.5,-123.5 323.5,-123.5"/>
<text text-anchor="middle" x="344" y="-130.5" font-family="Helvetica,sans-Serif" font-size="10.00">string</text>
</g>
<!-- Node16&#45;&gt;Node17 -->
<g id="edge21" class="edge"><title>Node16&#45;&gt;Node17</title>
<path fill="none" stroke="midnightblue" d="M344,-179.083C344,-172.006 344,-161.861 344,-152.986"/>
<polygon fill="midnightblue" stroke="midnightblue" points="347.5,-152.751 344,-142.751 340.5,-152.751 347.5,-152.751"/>
</g>
<!-- Node18 -->
<g id="node18" class="node"><title>Node18</title>
<polygon fill="white" stroke="#bfbfbf" points="383,-123.5 383,-142.5 437,-142.5 437,-123.5 383,-123.5"/>
<text text-anchor="middle" x="410" y="-130.5" font-family="Helvetica,sans-Serif" font-size="10.00">iostream</text>
</g>
<!-- Node16&#45;&gt;Node18 -->
<g id="edge22" class="edge"><title>Node16&#45;&gt;Node18</title>
<path fill="none" stroke="midnightblue" d="M354.604,-179.324C364.456,-171.263 379.351,-159.077 391.215,-149.369"/>
<polygon fill="midnightblue" stroke="midnightblue" points="393.68,-151.875 399.203,-142.834 389.247,-146.457 393.68,-151.875"/>
</g>
</g>
</svg>
        <g id="navigator" transform="translate(0 0)" fill="#404254">
                <rect fill="#f2f5e9" fill-opacity="0.5" stroke="#606060" stroke-width=".5" x="0" y="0" width="60" height="60"/>
                <use id="zoomplus" xlink:href="#zoomPlus" x="17" y="9" onmousedown="handleZoom(evt,'in')"/>
                <use id="zoomminus" xlink:href="#zoomMin" x="42" y="9" onmousedown="handleZoom(evt,'out')"/>
                <use id="reset" xlink:href="#resetDef" x="30" y="36" onmousedown="handleReset()"/>
                <g id="arrowUp" xlink:href="#dirArrow" transform="translate(30 24)" onmousedown="handlePan(0,-1)">
                  <use xlink:href="#rim" fill="#404040">
                        <set attributeName="fill" to="#808080" begin="arrowUp.mouseover" end="arrowUp.mouseout"/>
                  </use>
                  <path fill="none" stroke="white" stroke-width="1.5" d="M0,-3.0v7 M-2.5,-0.5L0,-3.0L2.5,-0.5"/>
                </g>
                <g id="arrowRight" xlink:href="#dirArrow" transform="rotate(90) translate(36 -43)" onmousedown="handlePan(1,0)">
                  <use xlink:href="#rim" fill="#404040">
                        <set attributeName="fill" to="#808080" begin="arrowRight.mouseover" end="arrowRight.mouseout"/>
                  </use>
                  <path fill="none" stroke="white" stroke-width="1.5" d="M0,-3.0v7 M-2.5,-0.5L0,-3.0L2.5,-0.5"/>
                </g>
                <g id="arrowDown" xlink:href="#dirArrow" transform="rotate(180) translate(-30 -48)" onmousedown="handlePan(0,1)">
                  <use xlink:href="#rim" fill="#404040">
                        <set attributeName="fill" to="#808080" begin="arrowDown.mouseover" end="arrowDown.mouseout"/>
                  </use>
                  <path fill="none" stroke="white" stroke-width="1.5" d="M0,-3.0v7 M-2.5,-0.5L0,-3.0L2.5,-0.5"/>
                </g>
                <g id="arrowLeft" xlink:href="#dirArrow" transform="rotate(270) translate(-36 17)" onmousedown="handlePan(-1,0)">
                  <use xlink:href="#rim" fill="#404040">
                        <set attributeName="fill" to="#808080" begin="arrowLeft.mouseover" end="arrowLeft.mouseout"/>
                  </use>
                  <path fill="none" stroke="white" stroke-width="1.5" d="M0,-3.0v7 M-2.5,-0.5L0,-3.0L2.5,-0.5"/>
                </g>
        </g>
        <svg viewBox="0 0 15 15" width="100%" height="30px" preserveAspectRatio="xMaxYMin meet">
         <g id="arrow_out" transform="scale(0.3 0.3)">
          <a xlink:href="cholesky__linear__solvers_8h__incl_org.svg" target="_base">
           <rect id="button" ry="5" rx="5" y="6" x="6" height="38" width="38"
                fill="#f2f5e9" fill-opacity="0.5" stroke="#606060" stroke-width="1.0"/>
           <path id="arrow"
             d="M 11.500037,31.436501 C 11.940474,20.09759 22.043105,11.32322 32.158766,21.979434 L 37.068811,17.246167 C 37.068811,17.246167 37.088388,32 37.088388,32 L 22.160133,31.978069 C 22.160133,31.978069 26.997745,27.140456 26.997745,27.140456 C 18.528582,18.264221 13.291696,25.230495 11.500037,31.436501 z"
             style="fill:#404040;"/>
          </a>
         </g>
        </svg>
</svg>
