<?xml version="1.0" encoding="UTF-8" standalone="no"?>
<!DOCTYPE svg PUBLIC "-//W3C//DTD SVG 1.1//EN"
 "http://www.w3.org/Graphics/SVG/1.1/DTD/svg11.dtd">
<!-- Generated by graphviz version 2.38.0 (20140413.2041)
 -->
<!-- Title: artvision_instanton::RobustHomography::find Pages: 1 -->
<svg width="1092pt" height="487pt"
 viewBox="0.00 0.00 1092.00 487.00" xmlns="http://www.w3.org/2000/svg" xmlns:xlink="http://www.w3.org/1999/xlink">
<g id="graph0" class="graph" transform="scale(1 1) rotate(0) translate(4 483)">
<title>artvision_instanton::RobustHomography::find</title>
<polygon fill="white" stroke="none" points="-4,4 -4,-483 1088,-483 1088,4 -4,4"/>
<!-- Node1 -->
<g id="node1" class="node"><title>Node1</title>
<polygon fill="#bfbfbf" stroke="black" points="0,-252.5 0,-282.5 131,-282.5 131,-252.5 0,-252.5"/>
<text text-anchor="start" x="8" y="-270.5" font-family="Helvetica,sans-Serif" font-size="10.00">artvision_instanton</text>
<text text-anchor="middle" x="65.5" y="-259.5" font-family="Helvetica,sans-Serif" font-size="10.00">::RobustHomography::find</text>
</g>
<!-- Node2 -->
<g id="node2" class="node"><title>Node2</title>
<g id="a_node2"><a xlink:href="namespaceartvision__instanton.html#a7f8b7cc3b9437aec2cb809a54491ba75" target="_top" xlink:title="Minimizes the Cauchy Robustified error between points H*p and q in the functional f(Hp&#45;q)...">
<polygon fill="white" stroke="black" points="167,-252.5 167,-282.5 272,-282.5 272,-252.5 167,-252.5"/>
<text text-anchor="start" x="175" y="-270.5" font-family="Helvetica,sans-Serif" font-size="10.00">artvision_instanton</text>
<text text-anchor="middle" x="219.5" y="-259.5" font-family="Helvetica,sans-Serif" font-size="10.00">::PolishHomography</text>
</a>
</g>
</g>
<!-- Node1&#45;&gt;Node2 -->
<g id="edge1" class="edge"><title>Node1&#45;&gt;Node2</title>
<path fill="none" stroke="midnightblue" d="M131.403,-267.5C139.778,-267.5 148.337,-267.5 156.661,-267.5"/>
<polygon fill="midnightblue" stroke="midnightblue" points="156.67,-271 166.67,-267.5 156.67,-264 156.67,-271"/>
</g>
<!-- Node3 -->
<g id="node3" class="node"><title>Node3</title>
<g id="a_node3"><a xlink:href="namespaceartvision__instanton.html#a346aad18ded6dcb188124e2b663e2824" target="_top" xlink:title="Normalize a homography such that H(3,3) = 1. ">
<polygon fill="white" stroke="black" points="547,-448.5 547,-478.5 669,-478.5 669,-448.5 547,-448.5"/>
<text text-anchor="start" x="555" y="-466.5" font-family="Helvetica,sans-Serif" font-size="10.00">artvision_instanton</text>
<text text-anchor="middle" x="608" y="-455.5" font-family="Helvetica,sans-Serif" font-size="10.00">::NormalizeHomography</text>
</a>
</g>
</g>
<!-- Node2&#45;&gt;Node3 -->
<g id="edge2" class="edge"><title>Node2&#45;&gt;Node3</title>
<path fill="none" stroke="midnightblue" d="M224.926,-282.89C234.54,-313.322 260.385,-381.045 308,-413.5 375.803,-459.716 471.92,-468.184 536.715,-467.741"/>
<polygon fill="midnightblue" stroke="midnightblue" points="536.886,-471.239 546.836,-467.598 536.787,-464.24 536.886,-471.239"/>
</g>
<!-- Node4 -->
<g id="node4" class="node"><title>Node4</title>
<g id="a_node4"><a xlink:href="namespaceartvision__instanton.html#ad86c7a71a52e1f604306cb3af0f89403" target="_top" xlink:title="Compute the Cauchy reprojection cost for H*p&#45;q. ">
<polygon fill="white" stroke="black" points="520,-46.5 520,-76.5 696,-76.5 696,-46.5 520,-46.5"/>
<text text-anchor="start" x="528" y="-64.5" font-family="Helvetica,sans-Serif" font-size="10.00">artvision_instanton</text>
<text text-anchor="middle" x="608" y="-53.5" font-family="Helvetica,sans-Serif" font-size="10.00">::CauchyProjectiveReprojectionCost</text>
</a>
</g>
</g>
<!-- Node2&#45;&gt;Node4 -->
<g id="edge3" class="edge"><title>Node2&#45;&gt;Node4</title>
<path fill="none" stroke="midnightblue" d="M261.595,-252.347C276.142,-247.266 292.695,-241.805 308,-237.5 385.127,-215.807 424.846,-252.537 484,-198.5 522.916,-162.95 482.005,-122.033 520,-85.5 521.094,-84.448 522.23,-83.4412 523.403,-82.4778"/>
<polygon fill="midnightblue" stroke="midnightblue" points="525.44,-85.3245 531.632,-76.7279 521.43,-79.5864 525.44,-85.3245"/>
</g>
<!-- Node9 -->
<g id="node9" class="node"><title>Node9</title>
<g id="a_node9"><a xlink:href="namespaceartvision__instanton.html#a3ad1dd24aa94296d3df2b1fa830198d8" target="_top" xlink:title="Compute the normal equations for the post multiplied homography update. ">
<polygon fill="white" stroke="black" points="308,-247 308,-288 484,-288 484,-247 308,-247"/>
<text text-anchor="start" x="316" y="-276" font-family="Helvetica,sans-Serif" font-size="10.00">artvision_instanton</text>
<text text-anchor="start" x="316" y="-265" font-family="Helvetica,sans-Serif" font-size="10.00">::ComputeDirectHomographyNormal</text>
<text text-anchor="middle" x="396" y="-254" font-family="Helvetica,sans-Serif" font-size="10.00">EquationsPostMultiply</text>
</a>
</g>
</g>
<!-- Node2&#45;&gt;Node9 -->
<g id="edge8" class="edge"><title>Node2&#45;&gt;Node9</title>
<path fill="none" stroke="midnightblue" d="M272.383,-267.5C280.398,-267.5 288.893,-267.5 297.523,-267.5"/>
<polygon fill="midnightblue" stroke="midnightblue" points="297.695,-271 307.695,-267.5 297.695,-264 297.695,-271"/>
</g>
<!-- Node19 -->
<g id="node19" class="node"><title>Node19</title>
<g id="a_node19"><a xlink:href="namespaceartvision__instanton.html#afd6dbbd9acca322a19536bce2c32b43c" target="_top" xlink:title="artvision_instanton\l::CopyVector">
<polygon fill="white" stroke="black" points="347,-159.5 347,-189.5 445,-189.5 445,-159.5 347,-159.5"/>
<text text-anchor="start" x="355" y="-177.5" font-family="Helvetica,sans-Serif" font-size="10.00">artvision_instanton</text>
<text text-anchor="middle" x="396" y="-166.5" font-family="Helvetica,sans-Serif" font-size="10.00">::CopyVector</text>
</a>
</g>
</g>
<!-- Node2&#45;&gt;Node19 -->
<g id="edge22" class="edge"><title>Node2&#45;&gt;Node19</title>
<path fill="none" stroke="midnightblue" d="M238.255,-252.321C255.252,-238.389 282.072,-217.934 308,-204.5 317.245,-199.71 327.422,-195.414 337.456,-191.672"/>
<polygon fill="midnightblue" stroke="midnightblue" points="338.763,-194.922 346.998,-188.256 336.403,-188.331 338.763,-194.922"/>
</g>
<!-- Node20 -->
<g id="node20" class="node"><title>Node20</title>
<g id="a_node20"><a xlink:href="namespaceartvision__instanton.html#a60fbe9d4a05443919cfa46f424e933a9" target="_top" xlink:title="Regularize the 8x8 system with Levenberg&#45;Marquardt. ">
<polygon fill="white" stroke="black" points="309.5,-110.5 309.5,-140.5 482.5,-140.5 482.5,-110.5 309.5,-110.5"/>
<text text-anchor="start" x="317.5" y="-128.5" font-family="Helvetica,sans-Serif" font-size="10.00">artvision_instanton</text>
<text text-anchor="middle" x="396" y="-117.5" font-family="Helvetica,sans-Serif" font-size="10.00">::RegularizeLevenbergMarquardt8x8</text>
</a>
</g>
</g>
<!-- Node2&#45;&gt;Node20 -->
<g id="edge23" class="edge"><title>Node2&#45;&gt;Node20</title>
<path fill="none" stroke="midnightblue" d="M227.57,-252.281C240.107,-227 268.664,-176.467 308,-149.5 310.284,-147.934 312.667,-146.471 315.125,-145.102"/>
<polygon fill="midnightblue" stroke="midnightblue" points="316.901,-148.128 324.306,-140.551 313.792,-141.856 316.901,-148.128"/>
</g>
<!-- Node21 -->
<g id="node21" class="node"><title>Node21</title>
<g id="a_node21"><a xlink:href="namespaceartvision__instanton.html#a509823cf0acbdb400afe91ac4cef21c1" target="_top" xlink:title="Update homography with projective motion. ">
<polygon fill="white" stroke="black" points="319.5,-363 319.5,-404 472.5,-404 472.5,-363 319.5,-363"/>
<text text-anchor="start" x="327.5" y="-392" font-family="Helvetica,sans-Serif" font-size="10.00">artvision_instanton</text>
<text text-anchor="start" x="327.5" y="-381" font-family="Helvetica,sans-Serif" font-size="10.00">::UpdateDirectProjectiveMotion</text>
<text text-anchor="middle" x="396" y="-370" font-family="Helvetica,sans-Serif" font-size="10.00">PostMultiply</text>
</a>
</g>
</g>
<!-- Node2&#45;&gt;Node21 -->
<g id="edge24" class="edge"><title>Node2&#45;&gt;Node21</title>
<path fill="none" stroke="midnightblue" d="M237.921,-282.712C255.114,-297.362 282.458,-319.71 308,-336.5 319.432,-344.014 332.176,-351.405 344.309,-358.02"/>
<polygon fill="midnightblue" stroke="midnightblue" points="342.969,-361.273 353.435,-362.917 346.278,-355.105 342.969,-361.273"/>
</g>
<!-- Node22 -->
<g id="node22" class="node"><title>Node22</title>
<g id="a_node22"><a xlink:href="namespaceartvision__instanton.html#ae7ddea6e66a6048556b4f1e119603636" target="_top" xlink:title="artvision_instanton\l::CopyVector9">
<polygon fill="white" stroke="black" points="559,-350.5 559,-380.5 657,-380.5 657,-350.5 559,-350.5"/>
<text text-anchor="start" x="567" y="-368.5" font-family="Helvetica,sans-Serif" font-size="10.00">artvision_instanton</text>
<text text-anchor="middle" x="608" y="-357.5" font-family="Helvetica,sans-Serif" font-size="10.00">::CopyVector9</text>
</a>
</g>
</g>
<!-- Node2&#45;&gt;Node22 -->
<g id="edge28" class="edge"><title>Node2&#45;&gt;Node22</title>
<path fill="none" stroke="midnightblue" d="M261.609,-282.605C276.157,-287.681 292.707,-293.153 308,-297.5 390.775,-321.03 488.231,-341.957 548.824,-354.187"/>
<polygon fill="midnightblue" stroke="midnightblue" points="548.467,-357.685 558.96,-356.221 549.844,-350.822 548.467,-357.685"/>
</g>
<!-- Node5 -->
<g id="node5" class="node"><title>Node5</title>
<g id="a_node5"><a xlink:href="namespaceartvision__instanton.html#aac7359704d1486d43ac7b00356511175" target="_top" xlink:title="Multiply an in&#45;homogenous point by a transform. ">
<polygon fill="white" stroke="black" points="732,-49.5 732,-79.5 930,-79.5 930,-49.5 732,-49.5"/>
<text text-anchor="start" x="740" y="-67.5" font-family="Helvetica,sans-Serif" font-size="10.00">artvision_instanton</text>
<text text-anchor="middle" x="831" y="-56.5" font-family="Helvetica,sans-Serif" font-size="10.00">::MultiplyPointHomographyInhomogenous</text>
</a>
</g>
</g>
<!-- Node4&#45;&gt;Node5 -->
<g id="edge4" class="edge"><title>Node4&#45;&gt;Node5</title>
<path fill="none" stroke="midnightblue" d="M696.028,-62.6814C704.449,-62.7957 713.061,-62.9126 721.656,-63.0293"/>
<polygon fill="midnightblue" stroke="midnightblue" points="721.678,-66.5298 731.724,-63.1659 721.773,-59.5304 721.678,-66.5298"/>
</g>
<!-- Node6 -->
<g id="node6" class="node"><title>Node6</title>
<g id="a_node6"><a xlink:href="namespaceartvision__instanton.html#a7f364fe0dfa85b3e8e808022f9e53d1f" target="_top" xlink:title="As one_over_scale2 gets larger, cost increases. ">
<polygon fill="white" stroke="black" points="782,-0.5 782,-30.5 880,-30.5 880,-0.5 782,-0.5"/>
<text text-anchor="start" x="790" y="-18.5" font-family="Helvetica,sans-Serif" font-size="10.00">artvision_instanton</text>
<text text-anchor="middle" x="831" y="-7.5" font-family="Helvetica,sans-Serif" font-size="10.00">::CauchyCost</text>
</a>
</g>
</g>
<!-- Node4&#45;&gt;Node6 -->
<g id="edge5" class="edge"><title>Node4&#45;&gt;Node6</title>
<path fill="none" stroke="midnightblue" d="M681.364,-46.4379C710.738,-40.3238 744.211,-33.3566 771.945,-27.5839"/>
<polygon fill="midnightblue" stroke="midnightblue" points="772.808,-30.9794 781.885,-25.515 771.381,-24.1263 772.808,-30.9794"/>
</g>
<!-- Node7 -->
<g id="node7" class="node"><title>Node7</title>
<g id="a_node7"><a xlink:href="namespaceartvision__instanton.html#aabfdfd6e431693d8b92948d037feaf4f" target="_top" xlink:title="artvision_instanton::log">
<polygon fill="white" stroke="black" points="966.5,-36 966.5,-55 1083.5,-55 1083.5,-36 966.5,-36"/>
<text text-anchor="middle" x="1025" y="-43" font-family="Helvetica,sans-Serif" font-size="10.00">artvision_instanton::log</text>
</a>
</g>
</g>
<!-- Node6&#45;&gt;Node7 -->
<g id="edge6" class="edge"><title>Node6&#45;&gt;Node7</title>
<path fill="none" stroke="midnightblue" d="M880.45,-23.0703C903.395,-26.6554 931.188,-30.9981 956.184,-34.9038"/>
<polygon fill="midnightblue" stroke="midnightblue" points="955.916,-38.4043 966.337,-36.4901 956.997,-31.4882 955.916,-38.4043"/>
</g>
<!-- Node8 -->
<g id="node8" class="node"><title>Node8</title>
<g id="a_node8"><a xlink:href="namespaceartvision__instanton.html#aaf2781e37f3d7d4e78dd2c872d0799b6" target="_top" xlink:title="artvision_instanton::sqr">
<polygon fill="white" stroke="black" points="966,-104 966,-123 1084,-123 1084,-104 966,-104"/>
<text text-anchor="middle" x="1025" y="-111" font-family="Helvetica,sans-Serif" font-size="10.00">artvision_instanton::sqr</text>
</a>
</g>
</g>
<!-- Node6&#45;&gt;Node8 -->
<g id="edge7" class="edge"><title>Node6&#45;&gt;Node8</title>
<path fill="none" stroke="midnightblue" d="M880.277,-23.0463C896.591,-26.6986 914.569,-31.9786 930,-39.5 946.046,-47.3212 982.923,-78.0017 1005.42,-97.3177"/>
<polygon fill="midnightblue" stroke="midnightblue" points="1003.14,-99.9708 1013,-103.857 1007.71,-94.6722 1003.14,-99.9708"/>
</g>
<!-- Node10 -->
<g id="node10" class="node"><title>Node10</title>
<g id="a_node10"><a xlink:href="namespaceartvision__instanton.html#a4e3faf7c78294e7ca0b205d5285287e4" target="_top" xlink:title="artvision_instanton\l::ZeroVector">
<polygon fill="white" stroke="black" points="559,-154.5 559,-184.5 657,-184.5 657,-154.5 559,-154.5"/>
<text text-anchor="start" x="567" y="-172.5" font-family="Helvetica,sans-Serif" font-size="10.00">artvision_instanton</text>
<text text-anchor="middle" x="608" y="-161.5" font-family="Helvetica,sans-Serif" font-size="10.00">::ZeroVector</text>
</a>
</g>
</g>
<!-- Node9&#45;&gt;Node10 -->
<g id="edge9" class="edge"><title>Node9&#45;&gt;Node10</title>
<path fill="none" stroke="midnightblue" d="M458.221,-246.911C467.21,-242.754 476.094,-237.955 484,-232.5 503.416,-219.104 499.856,-205.775 520,-193.5 528.923,-188.063 539.101,-183.83 549.274,-180.543"/>
<polygon fill="midnightblue" stroke="midnightblue" points="550.388,-183.863 558.985,-177.672 548.404,-177.15 550.388,-183.863"/>
</g>
<!-- Node11 -->
<g id="node11" class="node"><title>Node11</title>
<g id="a_node11"><a xlink:href="namespaceartvision__instanton.html#a107150aa3e5fcfda7c0fa07e9c1a8c65" target="_top" xlink:title="Compute the Homography Jacobian of the Post Multiplied Update equation. ">
<polygon fill="white" stroke="black" points="533.5,-95 533.5,-136 682.5,-136 682.5,-95 533.5,-95"/>
<text text-anchor="start" x="541.5" y="-124" font-family="Helvetica,sans-Serif" font-size="10.00">artvision_instanton</text>
<text text-anchor="start" x="541.5" y="-113" font-family="Helvetica,sans-Serif" font-size="10.00">::RobustHomographyJacobian</text>
<text text-anchor="middle" x="608" y="-102" font-family="Helvetica,sans-Serif" font-size="10.00">DirectPostMultiply</text>
</a>
</g>
</g>
<!-- Node9&#45;&gt;Node11 -->
<g id="edge10" class="edge"><title>Node9&#45;&gt;Node11</title>
<path fill="none" stroke="midnightblue" d="M464.561,-246.888C471.664,-242.878 478.343,-238.124 484,-232.5 513.967,-202.707 489.142,-173.37 520,-144.5 521.482,-143.113 523.033,-141.793 524.641,-140.535"/>
<polygon fill="midnightblue" stroke="midnightblue" points="526.824,-143.283 533.114,-134.758 522.88,-137.499 526.824,-143.283"/>
</g>
<!-- Node16 -->
<g id="node16" class="node"><title>Node16</title>
<g id="a_node16"><a xlink:href="namespaceartvision__instanton.html#adf48d283b154203b12c526bbd11f0717" target="_top" xlink:title="C += A&#39;*A. ">
<polygon fill="white" stroke="black" points="537,-301.5 537,-331.5 679,-331.5 679,-301.5 537,-301.5"/>
<text text-anchor="start" x="545" y="-319.5" font-family="Helvetica,sans-Serif" font-size="10.00">artvision_instanton</text>
<text text-anchor="middle" x="608" y="-308.5" font-family="Helvetica,sans-Serif" font-size="10.00">::MultiplyAndAccumulateAtA</text>
</a>
</g>
</g>
<!-- Node9&#45;&gt;Node16 -->
<g id="edge19" class="edge"><title>Node9&#45;&gt;Node16</title>
<path fill="none" stroke="midnightblue" d="M484.235,-287.855C500.227,-291.586 516.785,-295.45 532.368,-299.086"/>
<polygon fill="midnightblue" stroke="midnightblue" points="531.917,-302.575 542.451,-301.439 533.508,-295.758 531.917,-302.575"/>
</g>
<!-- Node17 -->
<g id="node17" class="node"><title>Node17</title>
<g id="a_node17"><a xlink:href="namespaceartvision__instanton.html#a5e1d6095eb08dc2ac1697fe595df3c24" target="_top" xlink:title="y += A&#39;*x ">
<polygon fill="white" stroke="black" points="538,-252.5 538,-282.5 678,-282.5 678,-252.5 538,-252.5"/>
<text text-anchor="start" x="546" y="-270.5" font-family="Helvetica,sans-Serif" font-size="10.00">artvision_instanton</text>
<text text-anchor="middle" x="608" y="-259.5" font-family="Helvetica,sans-Serif" font-size="10.00">::MultiplyAndAccumulateAtx</text>
</a>
</g>
</g>
<!-- Node9&#45;&gt;Node17 -->
<g id="edge20" class="edge"><title>Node9&#45;&gt;Node17</title>
<path fill="none" stroke="midnightblue" d="M484.235,-267.5C498.653,-267.5 513.531,-267.5 527.739,-267.5"/>
<polygon fill="midnightblue" stroke="midnightblue" points="527.951,-271 537.951,-267.5 527.951,-264 527.951,-271"/>
</g>
<!-- Node18 -->
<g id="node18" class="node"><title>Node18</title>
<g id="a_node18"><a xlink:href="namespaceartvision__instanton.html#a6b7cf4cecd3a7d2fd08f75eb0a6c8233" target="_top" xlink:title="Extend the upper right triangular matrix to the lower left. ">
<polygon fill="white" stroke="black" points="526,-203.5 526,-233.5 690,-233.5 690,-203.5 526,-203.5"/>
<text text-anchor="start" x="534" y="-221.5" font-family="Helvetica,sans-Serif" font-size="10.00">artvision_instanton</text>
<text text-anchor="middle" x="608" y="-210.5" font-family="Helvetica,sans-Serif" font-size="10.00">::SymmetricExtendUpperToLower</text>
</a>
</g>
</g>
<!-- Node9&#45;&gt;Node18 -->
<g id="edge21" class="edge"><title>Node9&#45;&gt;Node18</title>
<path fill="none" stroke="midnightblue" d="M484.235,-247.145C500.227,-243.414 516.785,-239.55 532.368,-235.914"/>
<polygon fill="midnightblue" stroke="midnightblue" points="533.508,-239.242 542.451,-233.561 531.917,-232.425 533.508,-239.242"/>
</g>
<!-- Node11&#45;&gt;Node5 -->
<g id="edge11" class="edge"><title>Node11&#45;&gt;Node5</title>
<path fill="none" stroke="midnightblue" d="M682.59,-98.5177C705.882,-93.1426 731.646,-87.197 755.034,-81.7999"/>
<polygon fill="midnightblue" stroke="midnightblue" points="755.94,-85.1827 764.897,-79.5237 754.366,-78.362 755.94,-85.1827"/>
</g>
<!-- Node12 -->
<g id="node12" class="node"><title>Node12</title>
<g id="a_node12"><a xlink:href="namespaceartvision__instanton.html#a51389ed6d530f5a2988d9eabfdfc09ae" target="_top" xlink:title="Compute the Jacobian of the 8 DOF of the homography directly on the first 8 parameters assuming the l...">
<polygon fill="white" stroke="black" points="759.5,-147.5 759.5,-177.5 902.5,-177.5 902.5,-147.5 759.5,-147.5"/>
<text text-anchor="start" x="767.5" y="-165.5" font-family="Helvetica,sans-Serif" font-size="10.00">artvision_instanton</text>
<text text-anchor="middle" x="831" y="-154.5" font-family="Helvetica,sans-Serif" font-size="10.00">::HomographyJacobianDirect</text>
</a>
</g>
</g>
<!-- Node11&#45;&gt;Node12 -->
<g id="edge12" class="edge"><title>Node11&#45;&gt;Node12</title>
<path fill="none" stroke="midnightblue" d="M682.59,-131.15C704.041,-135.712 727.588,-140.72 749.445,-145.368"/>
<polygon fill="midnightblue" stroke="midnightblue" points="748.846,-148.819 759.355,-147.476 750.302,-141.972 748.846,-148.819"/>
</g>
<!-- Node14 -->
<g id="node14" class="node"><title>Node14</title>
<g id="a_node14"><a xlink:href="namespaceartvision__instanton.html#a4dc10058ab0d51b3533fab033d195834" target="_top" xlink:title="Compute the Cauchy Cost Jacobian. ">
<polygon fill="white" stroke="black" points="753,-98.5 753,-128.5 909,-128.5 909,-98.5 753,-98.5"/>
<text text-anchor="start" x="761" y="-116.5" font-family="Helvetica,sans-Serif" font-size="10.00">artvision_instanton</text>
<text text-anchor="middle" x="831" y="-105.5" font-family="Helvetica,sans-Serif" font-size="10.00">::ComputeCauchyCostJacobian</text>
</a>
</g>
</g>
<!-- Node11&#45;&gt;Node14 -->
<g id="edge15" class="edge"><title>Node11&#45;&gt;Node14</title>
<path fill="none" stroke="midnightblue" d="M682.59,-114.834C701.925,-114.659 722.963,-114.469 742.931,-114.288"/>
<polygon fill="midnightblue" stroke="midnightblue" points="742.979,-117.788 752.947,-114.197 742.916,-110.788 742.979,-117.788"/>
</g>
<!-- Node15 -->
<g id="node15" class="node"><title>Node15</title>
<g id="a_node15"><a xlink:href="namespaceartvision__instanton.html#aacd695c7bcdd6f82699a2c8bfcd9a926" target="_top" xlink:title="General matrix multiplication. ">
<polygon fill="white" stroke="black" points="782,-196.5 782,-226.5 880,-226.5 880,-196.5 782,-196.5"/>
<text text-anchor="start" x="790" y="-214.5" font-family="Helvetica,sans-Serif" font-size="10.00">artvision_instanton</text>
<text text-anchor="middle" x="831" y="-203.5" font-family="Helvetica,sans-Serif" font-size="10.00">::Multiply</text>
</a>
</g>
</g>
<!-- Node11&#45;&gt;Node15 -->
<g id="edge18" class="edge"><title>Node11&#45;&gt;Node15</title>
<path fill="none" stroke="midnightblue" d="M681.227,-136.07C686.39,-138.589 691.376,-141.391 696,-144.5 716.402,-158.218 711.117,-173.525 732,-186.5 744.001,-193.957 758.141,-199.196 771.888,-202.875"/>
<polygon fill="midnightblue" stroke="midnightblue" points="771.249,-206.322 781.793,-205.287 772.905,-199.52 771.249,-206.322"/>
</g>
<!-- Node12&#45;&gt;Node8 -->
<g id="edge14" class="edge"><title>Node12&#45;&gt;Node8</title>
<path fill="none" stroke="midnightblue" d="M890.818,-147.497C903.728,-144.204 917.325,-140.735 930,-137.5 945.116,-133.642 961.6,-129.434 976.482,-125.634"/>
<polygon fill="midnightblue" stroke="midnightblue" points="977.669,-128.943 986.493,-123.078 975.937,-122.161 977.669,-128.943"/>
</g>
<!-- Node13 -->
<g id="node13" class="node"><title>Node13</title>
<g id="a_node13"><a xlink:href="namespaceartvision__instanton.html#a7353501a2ebe28e96528be2f2bfe4eaf" target="_top" xlink:title="Safe reciprical (1/x). ">
<polygon fill="white" stroke="black" points="976,-147.5 976,-177.5 1074,-177.5 1074,-147.5 976,-147.5"/>
<text text-anchor="start" x="984" y="-165.5" font-family="Helvetica,sans-Serif" font-size="10.00">artvision_instanton</text>
<text text-anchor="middle" x="1025" y="-154.5" font-family="Helvetica,sans-Serif" font-size="10.00">::SafeReciprocal</text>
</a>
</g>
</g>
<!-- Node12&#45;&gt;Node13 -->
<g id="edge13" class="edge"><title>Node12&#45;&gt;Node13</title>
<path fill="none" stroke="midnightblue" d="M902.676,-162.5C923.436,-162.5 945.898,-162.5 965.785,-162.5"/>
<polygon fill="midnightblue" stroke="midnightblue" points="965.928,-166 975.928,-162.5 965.928,-159 965.928,-166"/>
</g>
<!-- Node14&#45;&gt;Node7 -->
<g id="edge17" class="edge"><title>Node14&#45;&gt;Node7</title>
<path fill="none" stroke="midnightblue" d="M897.854,-98.433C908.693,-95.4595 919.735,-92.1243 930,-88.5 953.056,-80.3596 978.197,-68.7039 996.673,-59.5806"/>
<polygon fill="midnightblue" stroke="midnightblue" points="998.304,-62.6781 1005.68,-55.0726 995.171,-56.4183 998.304,-62.6781"/>
</g>
<!-- Node14&#45;&gt;Node8 -->
<g id="edge16" class="edge"><title>Node14&#45;&gt;Node8</title>
<path fill="none" stroke="midnightblue" d="M909.264,-113.5C924.588,-113.5 940.575,-113.5 955.58,-113.5"/>
<polygon fill="midnightblue" stroke="midnightblue" points="955.791,-117 965.791,-113.5 955.791,-110 955.791,-117"/>
</g>
<!-- Node21&#45;&gt;Node3 -->
<g id="edge27" class="edge"><title>Node21&#45;&gt;Node3</title>
<path fill="none" stroke="midnightblue" d="M437.884,-404.083C461.5,-415.471 491.99,-429.333 520,-439.5 525.799,-441.605 531.873,-443.63 537.999,-445.551"/>
<polygon fill="midnightblue" stroke="midnightblue" points="537.051,-448.921 547.637,-448.478 539.086,-442.223 537.051,-448.921"/>
</g>
<!-- Node21&#45;&gt;Node22 -->
<g id="edge25" class="edge"><title>Node21&#45;&gt;Node22</title>
<path fill="none" stroke="midnightblue" d="M472.518,-377.027C497.613,-374.876 525.154,-372.515 548.741,-370.494"/>
<polygon fill="midnightblue" stroke="midnightblue" points="549.267,-373.961 558.931,-369.62 548.669,-366.987 549.267,-373.961"/>
</g>
<!-- Node23 -->
<g id="node23" class="node"><title>Node23</title>
<g id="a_node23"><a xlink:href="namespaceartvision__instanton.html#a8ea3dc9f1c83ddd0195faaef6a95a928" target="_top" xlink:title="artvision_instanton\l::AddVector">
<polygon fill="white" stroke="black" points="559,-399.5 559,-429.5 657,-429.5 657,-399.5 559,-399.5"/>
<text text-anchor="start" x="567" y="-417.5" font-family="Helvetica,sans-Serif" font-size="10.00">artvision_instanton</text>
<text text-anchor="middle" x="608" y="-406.5" font-family="Helvetica,sans-Serif" font-size="10.00">::AddVector</text>
</a>
</g>
</g>
<!-- Node21&#45;&gt;Node23 -->
<g id="edge26" class="edge"><title>Node21&#45;&gt;Node23</title>
<path fill="none" stroke="midnightblue" d="M472.518,-394.648C497.613,-398.352 525.154,-402.418 548.741,-405.9"/>
<polygon fill="midnightblue" stroke="midnightblue" points="548.527,-409.406 558.931,-407.404 549.55,-402.481 548.527,-409.406"/>
</g>
</g>
</svg>
