<?xml version="1.0" encoding="UTF-8" standalone="no"?>
<!DOCTYPE svg PUBLIC "-//W3C//DTD SVG 1.1//EN"
 "http://www.w3.org/Graphics/SVG/1.1/DTD/svg11.dtd">
<!-- Generated by graphviz version 2.38.0 (20140413.2041)
 -->
<!-- Title: artvision_instanton::SampleTuple::ExtractFilter Pages: 1 -->
<!--zoomable 262 -->
<svg id="main" version="1.1" xmlns="http://www.w3.org/2000/svg" xmlns:xlink="http://www.w3.org/1999/xlink" xml:space="preserve" onload="init(evt)">
<style type="text/css"><![CDATA[
.edge:hover path { stroke: red; }
.edge:hover polygon { stroke: red; fill: red; }
]]></style>
<script type="text/javascript"><![CDATA[
var edges = document.getElementsByTagName('g');
if (edges && edges.length) {
  for (var i=0;i<edges.length;i++) {
    if (edges[i].id.substr(0,4)=='edge') {
      edges[i].setAttribute('class','edge');
    }
  }
}
]]></script>
        <defs>
                <circle id="rim" cx="0" cy="0" r="7"/>
                <circle id="rim2" cx="0" cy="0" r="3.5"/>
                <g id="zoomPlus">
                        <use xlink:href="#rim" fill="#404040">
                                <set attributeName="fill" to="#808080" begin="zoomplus.mouseover" end="zoomplus.mouseout"/>
                        </use>
                        <path d="M-4,0h8M0,-4v8" fill="none" stroke="white" stroke-width="1.5" pointer-events="none"/>
                </g>
                <g id="zoomMin">
                        <use xlink:href="#rim" fill="#404040">
                                <set attributeName="fill" to="#808080" begin="zoomminus.mouseover" end="zoomminus.mouseout"/>
                        </use>
                        <path d="M-4,0h8" fill="none" stroke="white" stroke-width="1.5" pointer-events="none"/>
                </g>
                <g id="dirArrow">
                        <path fill="none" stroke="white" stroke-width="1.5" d="M0,-3.0v7 M-2.5,-0.5L0,-3.0L2.5,-0.5"/>
                </g>
               <g id="resetDef">
                       <use xlink:href="#rim2" fill="#404040">
                               <set attributeName="fill" to="#808080" begin="reset.mouseover" end="reset.mouseout"/>
                       </use>
               </g>
        </defs>

<script type="text/javascript">
var viewWidth = 1100;
var viewHeight = 262;
var sectionId = 'dynsection-1';
</script>
<script xlink:href="svgpan.js"/>
<svg id="graph" class="graph">
<g id="viewport">
<title>artvision_instanton::SampleTuple::ExtractFilter</title>
<polygon fill="white" stroke="none" points="-4,4 -4,-257.5 1096,-257.5 1096,4 -4,4"/>
<!-- Node1 -->
<g id="node1" class="node"><title>Node1</title>
<polygon fill="#bfbfbf" stroke="black" points="953,-4 953,-34 1092,-34 1092,-4 953,-4"/>
<text text-anchor="start" x="961" y="-22" font-family="Helvetica,sans-Serif" font-size="10.00">artvision_instanton</text>
<text text-anchor="middle" x="1022.5" y="-11" font-family="Helvetica,sans-Serif" font-size="10.00">::SampleTuple::ExtractFilter</text>
</g>
<!-- Node2 -->
<g id="node2" class="node"><title>Node2</title>
<g id="a_node2"><a xlink:href="classartvision__instanton_1_1_transform_filter.html" target="_top" xlink:title="artvision_instanton\l::TransformFilter">
<polygon fill="white" stroke="black" points="812.5,-36 812.5,-66 910.5,-66 910.5,-36 812.5,-36"/>
<text text-anchor="start" x="820.5" y="-54" font-family="Helvetica,sans-Serif" font-size="10.00">artvision_instanton</text>
<text text-anchor="middle" x="861.5" y="-43" font-family="Helvetica,sans-Serif" font-size="10.00">::TransformFilter</text>
</a>
</g>
</g>
<!-- Node2&#45;&gt;Node1 -->
<g id="edge1" class="edge"><title>Node2&#45;&gt;Node1</title>
<path fill="none" stroke="midnightblue" d="M920.553,-39.3164C931.097,-37.1943 942.186,-34.9627 952.997,-32.7867"/>
<polygon fill="midnightblue" stroke="midnightblue" points="919.75,-35.9078 910.637,-41.3121 921.131,-42.7702 919.75,-35.9078"/>
</g>
<!-- Node3 -->
<g id="node3" class="node"><title>Node3</title>
<g id="a_node3"><a xlink:href="classartvision__instanton_1_1_filter.html" target="_top" xlink:title="artvision_instanton\l::Filter">
<polygon fill="white" stroke="black" points="630,-88 630,-118 728,-118 728,-88 630,-88"/>
<text text-anchor="start" x="638" y="-106" font-family="Helvetica,sans-Serif" font-size="10.00">artvision_instanton</text>
<text text-anchor="middle" x="679" y="-95" font-family="Helvetica,sans-Serif" font-size="10.00">::Filter</text>
</a>
</g>
</g>
<!-- Node3&#45;&gt;Node2 -->
<g id="edge2" class="edge"><title>Node3&#45;&gt;Node2</title>
<path fill="none" stroke="midnightblue" d="M738.058,-86.2742C762.026,-79.3693 789.48,-71.4601 812.309,-64.8833"/>
<polygon fill="midnightblue" stroke="midnightblue" points="737.011,-82.9334 728.371,-89.065 738.949,-89.6598 737.011,-82.9334"/>
</g>
<!-- Node9 -->
<g id="node9" class="node"><title>Node9</title>
<polygon fill="white" stroke="#bfbfbf" points="807,-100 807,-130 916,-130 916,-100 807,-100"/>
<text text-anchor="start" x="815" y="-118" font-family="Helvetica,sans-Serif" font-size="10.00">std::vector&lt; artvision</text>
<text text-anchor="middle" x="861.5" y="-107" font-family="Helvetica,sans-Serif" font-size="10.00">_instanton::Filter * &gt;</text>
</g>
<!-- Node3&#45;&gt;Node9 -->
<g id="edge10" class="edge"><title>Node3&#45;&gt;Node9</title>
<path fill="none" stroke="#9a32cd" stroke-dasharray="5,2" d="M738.2,-94.2255C754.668,-92.9626 772.576,-92.7463 789,-95 797.045,-96.104 805.461,-97.8759 813.577,-99.92"/>
<polygon fill="#9a32cd" stroke="#9a32cd" points="737.803,-90.7471 728.159,-95.1344 738.434,-97.7186 737.803,-90.7471"/>
<text text-anchor="middle" x="767.5" y="-98" font-family="Helvetica,sans-Serif" font-size="10.00"> elements</text>
</g>
<!-- Node4 -->
<g id="node4" class="node"><title>Node4</title>
<g id="a_node4"><a xlink:href="classartvision__instanton_1_1_task.html" target="_top" xlink:title="A task is a recurring event. ">
<polygon fill="white" stroke="black" points="376.5,-174 376.5,-204 474.5,-204 474.5,-174 376.5,-174"/>
<text text-anchor="start" x="384.5" y="-192" font-family="Helvetica,sans-Serif" font-size="10.00">artvision_instanton</text>
<text text-anchor="middle" x="425.5" y="-181" font-family="Helvetica,sans-Serif" font-size="10.00">::Task</text>
</a>
</g>
</g>
<!-- Node4&#45;&gt;Node3 -->
<g id="edge3" class="edge"><title>Node4&#45;&gt;Node3</title>
<path fill="none" stroke="midnightblue" d="M484.692,-178.155C521.91,-170.201 570.762,-157.845 612,-141 627.055,-134.85 642.879,-125.838 655.258,-118.133"/>
<polygon fill="midnightblue" stroke="midnightblue" points="483.592,-174.81 474.52,-180.282 485.024,-181.662 483.592,-174.81"/>
</g>
<!-- Node5 -->
<g id="node5" class="node"><title>Node5</title>
<g id="a_node5"><a xlink:href="classartvision__instanton_1_1_runnable.html" target="_top" xlink:title="artvision_instanton\l::Runnable">
<polygon fill="white" stroke="black" points="146.5,-174 146.5,-204 244.5,-204 244.5,-174 146.5,-174"/>
<text text-anchor="start" x="154.5" y="-192" font-family="Helvetica,sans-Serif" font-size="10.00">artvision_instanton</text>
<text text-anchor="middle" x="195.5" y="-181" font-family="Helvetica,sans-Serif" font-size="10.00">::Runnable</text>
</a>
</g>
</g>
<!-- Node5&#45;&gt;Node4 -->
<g id="edge4" class="edge"><title>Node5&#45;&gt;Node4</title>
<path fill="none" stroke="midnightblue" d="M254.902,-189C292.6,-189 341.039,-189 376.491,-189"/>
<polygon fill="midnightblue" stroke="midnightblue" points="254.574,-185.5 244.574,-189 254.574,-192.5 254.574,-185.5"/>
</g>
<!-- Node6 -->
<g id="node6" class="node"><title>Node6</title>
<polygon fill="white" stroke="#bfbfbf" points="373,-125 373,-155 478,-155 478,-125 373,-125"/>
<text text-anchor="start" x="381" y="-143" font-family="Helvetica,sans-Serif" font-size="10.00">std::multimap&lt; std</text>
<text text-anchor="middle" x="425.5" y="-132" font-family="Helvetica,sans-Serif" font-size="10.00">::string, std::string &gt;</text>
</g>
<!-- Node6&#45;&gt;Node3 -->
<g id="edge5" class="edge"><title>Node6&#45;&gt;Node3</title>
<path fill="none" stroke="#9a32cd" stroke-dasharray="5,2" d="M488.496,-131.719C524.57,-126.798 570.896,-120.305 612,-114 617.741,-113.119 623.757,-112.163 629.722,-111.194"/>
<polygon fill="#9a32cd" stroke="#9a32cd" points="487.565,-128.313 478.128,-133.129 488.508,-135.25 487.565,-128.313"/>
<text text-anchor="middle" x="573" y="-129" font-family="Helvetica,sans-Serif" font-size="10.00"> mInputStreams</text>
</g>
<!-- Node7 -->
<g id="node7" class="node"><title>Node7</title>
<g id="a_node7"><a xlink:title="STL class. ">
<polygon fill="white" stroke="#bfbfbf" points="165.5,-55.5 165.5,-74.5 225.5,-74.5 225.5,-55.5 165.5,-55.5"/>
<text text-anchor="middle" x="195.5" y="-62.5" font-family="Helvetica,sans-Serif" font-size="10.00">std::string</text>
</a>
</g>
</g>
<!-- Node7&#45;&gt;Node1 -->
<g id="edge15" class="edge"><title>Node7&#45;&gt;Node1</title>
<path fill="none" stroke="#9a32cd" stroke-dasharray="5,2" d="M225.277,-51.209C267.808,-32.128 350.419,-0 424.5,-0 424.5,-0 424.5,-0 862.5,-0 892.247,-0 924.904,-3.31926 952.842,-7.18309"/>
<polygon fill="#9a32cd" stroke="#9a32cd" points="223.73,-48.0677 216.091,-55.409 226.641,-54.4339 223.73,-48.0677"/>
<text text-anchor="middle" x="679" y="-3" font-family="Helvetica,sans-Serif" font-size="10.00"> mInputStream</text>
</g>
<!-- Node7&#45;&gt;Node3 -->
<g id="edge8" class="edge"><title>Node7&#45;&gt;Node3</title>
<path fill="none" stroke="#9a32cd" stroke-dasharray="5,2" d="M236.031,-59.351C296.637,-51.6817 416.006,-40.4976 516,-55 558.964,-61.2312 606.396,-76.3005 638.77,-87.9063"/>
<polygon fill="#9a32cd" stroke="#9a32cd" points="235.231,-55.9256 225.767,-60.6881 236.135,-62.867 235.231,-55.9256"/>
<text text-anchor="middle" x="425.5" y="-58" font-family="Helvetica,sans-Serif" font-size="10.00"> mName</text>
</g>
<!-- Node7&#45;&gt;Node6 -->
<g id="edge6" class="edge"><title>Node7&#45;&gt;Node6</title>
<path fill="none" stroke="#9a32cd" stroke-dasharray="5,2" d="M231.003,-78.261C258.877,-88.7786 299.217,-103.561 335,-115 347.14,-118.881 360.31,-122.747 372.719,-126.239"/>
<polygon fill="#9a32cd" stroke="#9a32cd" points="231.921,-74.8658 221.33,-74.5932 229.439,-81.4112 231.921,-74.8658"/>
<text text-anchor="middle" x="297" y="-123" font-family="Helvetica,sans-Serif" font-size="10.00"> keys</text>
<text text-anchor="middle" x="297" y="-112" font-family="Helvetica,sans-Serif" font-size="10.00">elements</text>
</g>
<!-- Node12 -->
<g id="node12" class="node"><title>Node12</title>
<polygon fill="white" stroke="#bfbfbf" points="354,-76 354,-106 497,-106 497,-76 354,-76"/>
<text text-anchor="start" x="362" y="-94" font-family="Helvetica,sans-Serif" font-size="10.00">std::map&lt; std::string,</text>
<text text-anchor="middle" x="425.5" y="-83" font-family="Helvetica,sans-Serif" font-size="10.00"> std::shared_ptr&lt; Stream &gt; &gt;</text>
</g>
<!-- Node7&#45;&gt;Node12 -->
<g id="edge14" class="edge"><title>Node7&#45;&gt;Node12</title>
<path fill="none" stroke="#9a32cd" stroke-dasharray="5,2" d="M235.808,-69.4824C268.143,-73.1699 314.8,-78.4903 353.627,-82.918"/>
<polygon fill="#9a32cd" stroke="#9a32cd" points="236.172,-66.0015 225.84,-68.3458 235.379,-72.9564 236.172,-66.0015"/>
<text text-anchor="middle" x="297" y="-81" font-family="Helvetica,sans-Serif" font-size="10.00"> keys</text>
</g>
<!-- Node8 -->
<g id="node8" class="node"><title>Node8</title>
<g id="a_node8"><a xlink:title="STL class. ">
<polygon fill="white" stroke="#bfbfbf" points="0,-50 0,-80 95,-80 95,-50 0,-50"/>
<text text-anchor="start" x="8" y="-68" font-family="Helvetica,sans-Serif" font-size="10.00">std::basic_string&lt;</text>
<text text-anchor="middle" x="47.5" y="-57" font-family="Helvetica,sans-Serif" font-size="10.00"> char &gt;</text>
</a>
</g>
</g>
<!-- Node8&#45;&gt;Node7 -->
<g id="edge7" class="edge"><title>Node8&#45;&gt;Node7</title>
<path fill="none" stroke="midnightblue" d="M105.304,-65C125.813,-65 148.117,-65 165.292,-65"/>
<polygon fill="midnightblue" stroke="midnightblue" points="105.097,-61.5001 95.0967,-65 105.097,-68.5001 105.097,-61.5001"/>
</g>
<!-- Node9&#45;&gt;Node3 -->
<g id="edge9" class="edge"><title>Node9&#45;&gt;Node3</title>
<path fill="none" stroke="#9a32cd" stroke-dasharray="5,2" d="M796.785,-111.27C780.245,-110.256 762.454,-109.126 746,-108 740.268,-107.608 734.257,-107.178 728.295,-106.74"/>
<polygon fill="#9a32cd" stroke="#9a32cd" points="796.705,-114.771 806.899,-111.885 797.13,-107.784 796.705,-114.771"/>
<text text-anchor="middle" x="767.5" y="-114" font-family="Helvetica,sans-Serif" font-size="10.00"> mFilters</text>
</g>
<!-- Node10 -->
<g id="node10" class="node"><title>Node10</title>
<polygon fill="white" stroke="#bfbfbf" points="335,-223 335,-253 516,-253 516,-223 335,-223"/>
<text text-anchor="start" x="343" y="-241" font-family="Helvetica,sans-Serif" font-size="10.00">std::unique_ptr&lt; artvision</text>
<text text-anchor="middle" x="425.5" y="-230" font-family="Helvetica,sans-Serif" font-size="10.00">_instanton::IQueue&lt; ContainerPtr &gt; &gt;</text>
</g>
<!-- Node10&#45;&gt;Node3 -->
<g id="edge11" class="edge"><title>Node10&#45;&gt;Node3</title>
<path fill="none" stroke="#9a32cd" stroke-dasharray="5,2" d="M498.64,-219.886C534.75,-208.637 577.912,-191.726 612,-168 632.724,-153.576 652.852,-132.397 665.321,-118.173"/>
<polygon fill="#9a32cd" stroke="#9a32cd" points="497.211,-216.661 488.655,-222.91 499.24,-223.361 497.211,-216.661"/>
<text text-anchor="middle" x="573" y="-211" font-family="Helvetica,sans-Serif" font-size="10.00"> mInputQueue</text>
</g>
<!-- Node11 -->
<g id="node11" class="node"><title>Node11</title>
<g id="a_node11"><a xlink:href="classartvision__instanton_1_1_i_queue.html" target="_top" xlink:title="artvision_instanton\l::IQueue\&lt; ContainerPtr \&gt;">
<polygon fill="white" stroke="black" points="132,-223 132,-253 259,-253 259,-223 132,-223"/>
<text text-anchor="start" x="140" y="-241" font-family="Helvetica,sans-Serif" font-size="10.00">artvision_instanton</text>
<text text-anchor="middle" x="195.5" y="-230" font-family="Helvetica,sans-Serif" font-size="10.00">::IQueue&lt; ContainerPtr &gt;</text>
</a>
</g>
</g>
<!-- Node11&#45;&gt;Node10 -->
<g id="edge12" class="edge"><title>Node11&#45;&gt;Node10</title>
<path fill="none" stroke="#9a32cd" stroke-dasharray="5,2" d="M269.148,-238C289.989,-238 312.963,-238 334.705,-238"/>
<polygon fill="#9a32cd" stroke="#9a32cd" points="269.104,-234.5 259.104,-238 269.104,-241.5 269.104,-234.5"/>
<text text-anchor="middle" x="297" y="-241" font-family="Helvetica,sans-Serif" font-size="10.00"> ptr</text>
</g>
<!-- Node12&#45;&gt;Node3 -->
<g id="edge13" class="edge"><title>Node12&#45;&gt;Node3</title>
<path fill="none" stroke="#9a32cd" stroke-dasharray="5,2" d="M507.312,-94.8559C547.634,-96.7798 595.054,-99.0423 629.665,-100.694"/>
<polygon fill="#9a32cd" stroke="#9a32cd" points="507.382,-91.3553 497.226,-94.3746 507.048,-98.3473 507.382,-91.3553"/>
<text text-anchor="middle" x="573" y="-103" font-family="Helvetica,sans-Serif" font-size="10.00"> mOutputStreams</text>
</g>
</g>
</svg>
        <g id="navigator" transform="translate(0 0)" fill="#404254">
                <rect fill="#f2f5e9" fill-opacity="0.5" stroke="#606060" stroke-width=".5" x="0" y="0" width="60" height="60"/>
                <use id="zoomplus" xlink:href="#zoomPlus" x="17" y="9" onmousedown="handleZoom(evt,'in')"/>
                <use id="zoomminus" xlink:href="#zoomMin" x="42" y="9" onmousedown="handleZoom(evt,'out')"/>
                <use id="reset" xlink:href="#resetDef" x="30" y="36" onmousedown="handleReset()"/>
                <g id="arrowUp" xlink:href="#dirArrow" transform="translate(30 24)" onmousedown="handlePan(0,-1)">
                  <use xlink:href="#rim" fill="#404040">
                        <set attributeName="fill" to="#808080" begin="arrowUp.mouseover" end="arrowUp.mouseout"/>
                  </use>
                  <path fill="none" stroke="white" stroke-width="1.5" d="M0,-3.0v7 M-2.5,-0.5L0,-3.0L2.5,-0.5"/>
                </g>
                <g id="arrowRight" xlink:href="#dirArrow" transform="rotate(90) translate(36 -43)" onmousedown="handlePan(1,0)">
                  <use xlink:href="#rim" fill="#404040">
                        <set attributeName="fill" to="#808080" begin="arrowRight.mouseover" end="arrowRight.mouseout"/>
                  </use>
                  <path fill="none" stroke="white" stroke-width="1.5" d="M0,-3.0v7 M-2.5,-0.5L0,-3.0L2.5,-0.5"/>
                </g>
                <g id="arrowDown" xlink:href="#dirArrow" transform="rotate(180) translate(-30 -48)" onmousedown="handlePan(0,1)">
                  <use xlink:href="#rim" fill="#404040">
                        <set attributeName="fill" to="#808080" begin="arrowDown.mouseover" end="arrowDown.mouseout"/>
                  </use>
                  <path fill="none" stroke="white" stroke-width="1.5" d="M0,-3.0v7 M-2.5,-0.5L0,-3.0L2.5,-0.5"/>
                </g>
                <g id="arrowLeft" xlink:href="#dirArrow" transform="rotate(270) translate(-36 17)" onmousedown="handlePan(-1,0)">
                  <use xlink:href="#rim" fill="#404040">
                        <set attributeName="fill" to="#808080" begin="arrowLeft.mouseover" end="arrowLeft.mouseout"/>
                  </use>
                  <path fill="none" stroke="white" stroke-width="1.5" d="M0,-3.0v7 M-2.5,-0.5L0,-3.0L2.5,-0.5"/>
                </g>
        </g>
        <svg viewBox="0 0 15 15" width="100%" height="30px" preserveAspectRatio="xMaxYMin meet">
         <g id="arrow_out" transform="scale(0.3 0.3)">
          <a xlink:href="classartvision__instanton_1_1_sample_tuple_1_1_extract_filter__coll__graph_org.svg" target="_base">
           <rect id="button" ry="5" rx="5" y="6" x="6" height="38" width="38"
                fill="#f2f5e9" fill-opacity="0.5" stroke="#606060" stroke-width="1.0"/>
           <path id="arrow"
             d="M 11.500037,31.436501 C 11.940474,20.09759 22.043105,11.32322 32.158766,21.979434 L 37.068811,17.246167 C 37.068811,17.246167 37.088388,32 37.088388,32 L 22.160133,31.978069 C 22.160133,31.978069 26.997745,27.140456 26.997745,27.140456 C 18.528582,18.264221 13.291696,25.230495 11.500037,31.436501 z"
             style="fill:#404040;"/>
          </a>
         </g>
        </svg>
</svg>
