<?xml version="1.0" encoding="UTF-8" standalone="no"?>
<!DOCTYPE svg PUBLIC "-//W3C//DTD SVG 1.1//EN"
 "http://www.w3.org/Graphics/SVG/1.1/DTD/svg11.dtd">
<!-- Generated by graphviz version 2.38.0 (20140413.2041)
 -->
<!-- Title: artvision_instanton::BinomialPyramid8u::build Pages: 1 -->
<!--zoomable 685 -->
<svg id="main" version="1.1" xmlns="http://www.w3.org/2000/svg" xmlns:xlink="http://www.w3.org/1999/xlink" xml:space="preserve" onload="init(evt)">
<style type="text/css"><![CDATA[
.edge:hover path { stroke: red; }
.edge:hover polygon { stroke: red; fill: red; }
]]></style>
<script type="text/javascript"><![CDATA[
var edges = document.getElementsByTagName('g');
if (edges && edges.length) {
  for (var i=0;i<edges.length;i++) {
    if (edges[i].id.substr(0,4)=='edge') {
      edges[i].setAttribute('class','edge');
    }
  }
}
]]></script>
        <defs>
                <circle id="rim" cx="0" cy="0" r="7"/>
                <circle id="rim2" cx="0" cy="0" r="3.5"/>
                <g id="zoomPlus">
                        <use xlink:href="#rim" fill="#404040">
                                <set attributeName="fill" to="#808080" begin="zoomplus.mouseover" end="zoomplus.mouseout"/>
                        </use>
                        <path d="M-4,0h8M0,-4v8" fill="none" stroke="white" stroke-width="1.5" pointer-events="none"/>
                </g>
                <g id="zoomMin">
                        <use xlink:href="#rim" fill="#404040">
                                <set attributeName="fill" to="#808080" begin="zoomminus.mouseover" end="zoomminus.mouseout"/>
                        </use>
                        <path d="M-4,0h8" fill="none" stroke="white" stroke-width="1.5" pointer-events="none"/>
                </g>
                <g id="dirArrow">
                        <path fill="none" stroke="white" stroke-width="1.5" d="M0,-3.0v7 M-2.5,-0.5L0,-3.0L2.5,-0.5"/>
                </g>
               <g id="resetDef">
                       <use xlink:href="#rim2" fill="#404040">
                               <set attributeName="fill" to="#808080" begin="reset.mouseover" end="reset.mouseout"/>
                       </use>
               </g>
        </defs>

<script type="text/javascript">
var viewWidth = 773;
var viewHeight = 685;
var sectionId = 'dynsection-3';
</script>
<script xlink:href="svgpan.js"/>
<svg id="graph" class="graph">
<g id="viewport">
<title>artvision_instanton::BinomialPyramid8u::build</title>
<polygon fill="white" stroke="none" points="-4,4 -4,-681.325 769,-681.325 769,4 -4,4"/>
<!-- Node1 -->
<g id="node1" class="node"><title>Node1</title>
<polygon fill="#bfbfbf" stroke="black" points="0,-360.325 0,-401.325 107,-401.325 107,-360.325 0,-360.325"/>
<text text-anchor="start" x="8" y="-389.325" font-family="Helvetica,sans-Serif" font-size="10.00">artvision_instanton</text>
<text text-anchor="start" x="8" y="-378.325" font-family="Helvetica,sans-Serif" font-size="10.00">::BinomialPyramid8u</text>
<text text-anchor="middle" x="53.5" y="-367.325" font-family="Helvetica,sans-Serif" font-size="10.00">::build</text>
</g>
<!-- Node2 -->
<g id="node2" class="node"><title>Node2</title>
<g id="a_node2"><a xlink:href="classartvision__instanton_1_1_image.html#aa2c82bdd1f3bd615c52618e532daae8a" target="_top" xlink:title="Copy functions. ">
<polygon fill="white" stroke="black" points="149.5,-463.825 149.5,-493.825 249.5,-493.825 249.5,-463.825 149.5,-463.825"/>
<text text-anchor="start" x="157.5" y="-481.825" font-family="Helvetica,sans-Serif" font-size="10.00">artvision_instanton</text>
<text text-anchor="middle" x="199.5" y="-470.825" font-family="Helvetica,sans-Serif" font-size="10.00">::Image::deepCopy</text>
</a>
</g>
</g>
<!-- Node1&#45;&gt;Node2 -->
<g id="edge1" class="edge"><title>Node1&#45;&gt;Node2</title>
<path fill="none" stroke="midnightblue" d="M84.6871,-401.369C109.073,-417.965 143.252,-441.225 167.779,-457.918"/>
<polygon fill="midnightblue" stroke="midnightblue" points="166.106,-461.013 176.343,-463.746 170.045,-455.226 166.106,-461.013"/>
</g>
<!-- Node5 -->
<g id="node5" class="node"><title>Node5</title>
<g id="a_node5"><a xlink:href="classartvision__instanton_1_1_image.html#abfe6de817ab2c75f289b7f679c3a1e54" target="_top" xlink:title="artvision_instanton\l::Image::step">
<polygon fill="white" stroke="black" points="512.5,-646.825 512.5,-676.825 610.5,-676.825 610.5,-646.825 512.5,-646.825"/>
<text text-anchor="start" x="520.5" y="-664.825" font-family="Helvetica,sans-Serif" font-size="10.00">artvision_instanton</text>
<text text-anchor="middle" x="561.5" y="-653.825" font-family="Helvetica,sans-Serif" font-size="10.00">::Image::step</text>
</a>
</g>
</g>
<!-- Node1&#45;&gt;Node5 -->
<g id="edge23" class="edge"><title>Node1&#45;&gt;Node5</title>
<path fill="none" stroke="midnightblue" d="M57.6547,-401.468C65.0011,-442.442 87.0791,-534.425 143,-584.825 243.063,-675.009 413.044,-675.67 502.111,-668.668"/>
<polygon fill="midnightblue" stroke="midnightblue" points="502.632,-672.136 512.301,-667.805 502.041,-665.161 502.632,-672.136"/>
</g>
<!-- Node6 -->
<g id="node6" class="node"><title>Node6</title>
<g id="a_node6"><a xlink:href="ioapi_8h.html#a787fa3cf048117ba7123753c1e74fcd6" target="_top" xlink:title="int">
<polygon fill="white" stroke="black" points="547,-608.325 547,-627.325 576,-627.325 576,-608.325 547,-608.325"/>
<text text-anchor="middle" x="561.5" y="-615.325" font-family="Helvetica,sans-Serif" font-size="10.00">int</text>
</a>
</g>
</g>
<!-- Node1&#45;&gt;Node6 -->
<g id="edge22" class="edge"><title>Node1&#45;&gt;Node6</title>
<path fill="none" stroke="midnightblue" d="M60.1828,-401.554C70.6992,-436.019 96.4774,-505.046 143,-542.825 262.949,-640.231 466.734,-628.349 536.353,-620.893"/>
<polygon fill="midnightblue" stroke="midnightblue" points="537.159,-624.324 546.695,-619.708 536.362,-617.369 537.159,-624.324"/>
</g>
<!-- Node8 -->
<g id="node8" class="node"><title>Node8</title>
<g id="a_node8"><a xlink:href="classartvision__instanton_1_1_image.html#ac6859f6426c8d6729f2ada431148506f" target="_top" xlink:title="Get the image type. ">
<polygon fill="white" stroke="black" points="512.5,-558.825 512.5,-588.825 610.5,-588.825 610.5,-558.825 512.5,-558.825"/>
<text text-anchor="start" x="520.5" y="-576.825" font-family="Helvetica,sans-Serif" font-size="10.00">artvision_instanton</text>
<text text-anchor="middle" x="561.5" y="-565.825" font-family="Helvetica,sans-Serif" font-size="10.00">::Image::type</text>
</a>
</g>
</g>
<!-- Node1&#45;&gt;Node8 -->
<g id="edge19" class="edge"><title>Node1&#45;&gt;Node8</title>
<path fill="none" stroke="midnightblue" d="M64.4871,-401.464C78.4961,-428.383 106.421,-475.279 143,-502.825 249.668,-583.152 415.118,-585.239 502.258,-579.671"/>
<polygon fill="midnightblue" stroke="midnightblue" points="502.754,-583.145 512.487,-578.958 502.268,-576.161 502.754,-583.145"/>
</g>
<!-- Node9 -->
<g id="node9" class="node"><title>Node9</title>
<g id="a_node9"><a xlink:href="classartvision__instanton_1_1_image.html#a8376556c69707ff32d49a1e2b3d63a43" target="_top" xlink:title="artvision_instanton\l::Image::channels">
<polygon fill="white" stroke="black" points="512.5,-421.825 512.5,-451.825 610.5,-451.825 610.5,-421.825 512.5,-421.825"/>
<text text-anchor="start" x="520.5" y="-439.825" font-family="Helvetica,sans-Serif" font-size="10.00">artvision_instanton</text>
<text text-anchor="middle" x="561.5" y="-428.825" font-family="Helvetica,sans-Serif" font-size="10.00">::Image::channels</text>
</a>
</g>
</g>
<!-- Node1&#45;&gt;Node9 -->
<g id="edge24" class="edge"><title>Node1&#45;&gt;Node9</title>
<path fill="none" stroke="midnightblue" d="M107.219,-386.659C202.563,-397.211 402.95,-419.389 502.221,-430.375"/>
<polygon fill="midnightblue" stroke="midnightblue" points="502.047,-433.877 512.371,-431.498 502.817,-426.92 502.047,-433.877"/>
</g>
<!-- Node10 -->
<g id="node10" class="node"><title>Node10</title>
<g id="a_node10"><a xlink:href="classartvision__instanton_1_1_image.html#a26334124ea185241a9af99e03bdd6385" target="_top" xlink:title="Get the dimensions of the image. ">
<polygon fill="white" stroke="black" points="512.5,-372.825 512.5,-402.825 610.5,-402.825 610.5,-372.825 512.5,-372.825"/>
<text text-anchor="start" x="520.5" y="-390.825" font-family="Helvetica,sans-Serif" font-size="10.00">artvision_instanton</text>
<text text-anchor="middle" x="561.5" y="-379.825" font-family="Helvetica,sans-Serif" font-size="10.00">::Image::width</text>
</a>
</g>
</g>
<!-- Node1&#45;&gt;Node10 -->
<g id="edge20" class="edge"><title>Node1&#45;&gt;Node10</title>
<path fill="none" stroke="midnightblue" d="M107.22,-371.097C118.957,-369.319 131.369,-367.739 143,-366.825 281.683,-355.923 317.572,-353.054 456,-366.825 471.111,-368.328 487.272,-371.026 502.258,-373.997"/>
<polygon fill="midnightblue" stroke="midnightblue" points="501.917,-377.5 512.417,-376.087 503.327,-370.644 501.917,-377.5"/>
</g>
<!-- Node11 -->
<g id="node11" class="node"><title>Node11</title>
<g id="a_node11"><a xlink:href="classartvision__instanton_1_1_image.html#a8fe378f1d9a2fbeb89112b9c9600bdd6" target="_top" xlink:title="artvision_instanton\l::Image::height">
<polygon fill="white" stroke="black" points="512.5,-323.825 512.5,-353.825 610.5,-353.825 610.5,-323.825 512.5,-323.825"/>
<text text-anchor="start" x="520.5" y="-341.825" font-family="Helvetica,sans-Serif" font-size="10.00">artvision_instanton</text>
<text text-anchor="middle" x="561.5" y="-330.825" font-family="Helvetica,sans-Serif" font-size="10.00">::Image::height</text>
</a>
</g>
</g>
<!-- Node1&#45;&gt;Node11 -->
<g id="edge21" class="edge"><title>Node1&#45;&gt;Node11</title>
<path fill="none" stroke="midnightblue" d="M107.399,-363.703C119.015,-360.557 131.332,-357.684 143,-355.825 269.925,-335.602 421.137,-335.228 502.226,-336.916"/>
<polygon fill="midnightblue" stroke="midnightblue" points="502.161,-340.415 512.238,-337.142 502.319,-333.417 502.161,-340.415"/>
</g>
<!-- Node12 -->
<g id="node12" class="node"><title>Node12</title>
<g id="a_node12"><a xlink:href="classartvision__instanton_1_1_image.html#aa2721566b360cd4862e5b061e0a1a8ab" target="_top" xlink:title="Get a pointer to the image data. ">
<polygon fill="white" stroke="black" points="150.5,-207.825 150.5,-237.825 248.5,-237.825 248.5,-207.825 150.5,-207.825"/>
<text text-anchor="start" x="158.5" y="-225.825" font-family="Helvetica,sans-Serif" font-size="10.00">artvision_instanton</text>
<text text-anchor="middle" x="199.5" y="-214.825" font-family="Helvetica,sans-Serif" font-size="10.00">::Image::get</text>
</a>
</g>
</g>
<!-- Node1&#45;&gt;Node12 -->
<g id="edge18" class="edge"><title>Node1&#45;&gt;Node12</title>
<path fill="none" stroke="midnightblue" d="M64.8987,-359.968C79.3633,-332.607 107.791,-284.379 143,-252.825 146.877,-249.35 151.228,-246.132 155.742,-243.194"/>
<polygon fill="midnightblue" stroke="midnightblue" points="157.781,-246.052 164.545,-237.897 154.172,-240.054 157.781,-246.052"/>
</g>
<!-- Node13 -->
<g id="node13" class="node"><title>Node13</title>
<g id="a_node13"><a xlink:href="namespaceartvision__instanton.html#afd0c89bdf2ffc2dbb7f6319be4e46364" target="_top" xlink:title="Decimate the source image by a factor of 2 with a [1,4,6,4,1] kernel. ">
<polygon fill="white" stroke="black" points="143,-115.825 143,-145.825 256,-145.825 256,-115.825 143,-115.825"/>
<text text-anchor="start" x="151" y="-133.825" font-family="Helvetica,sans-Serif" font-size="10.00">artvision_instanton</text>
<text text-anchor="middle" x="199.5" y="-122.825" font-family="Helvetica,sans-Serif" font-size="10.00">::BinomialDecimate8u</text>
</a>
</g>
</g>
<!-- Node1&#45;&gt;Node13 -->
<g id="edge25" class="edge"><title>Node1&#45;&gt;Node13</title>
<path fill="none" stroke="midnightblue" d="M62.547,-360.208C76.5468,-325.4 107.325,-253.346 143,-197.825 153.047,-182.189 166.258,-166.105 177.27,-153.616"/>
<polygon fill="midnightblue" stroke="midnightblue" points="180.058,-155.749 184.133,-145.969 174.849,-151.074 180.058,-155.749"/>
</g>
<!-- Node3 -->
<g id="node3" class="node"><title>Node3</title>
<g id="a_node3"><a xlink:href="classartvision__instanton_1_1_image.html#af2b536a2073964b44f3328d7b9a5853a" target="_top" xlink:title="Allocate the image data. ">
<polygon fill="white" stroke="black" points="325,-485.825 325,-515.825 423,-515.825 423,-485.825 325,-485.825"/>
<text text-anchor="start" x="333" y="-503.825" font-family="Helvetica,sans-Serif" font-size="10.00">artvision_instanton</text>
<text text-anchor="middle" x="374" y="-492.825" font-family="Helvetica,sans-Serif" font-size="10.00">::Image::alloc</text>
</a>
</g>
</g>
<!-- Node2&#45;&gt;Node3 -->
<g id="edge2" class="edge"><title>Node2&#45;&gt;Node3</title>
<path fill="none" stroke="midnightblue" d="M249.932,-485.129C270.123,-487.704 293.629,-490.702 314.655,-493.384"/>
<polygon fill="midnightblue" stroke="midnightblue" points="314.39,-496.878 324.752,-494.672 315.275,-489.935 314.39,-496.878"/>
</g>
<!-- Node2&#45;&gt;Node5 -->
<g id="edge16" class="edge"><title>Node2&#45;&gt;Node5</title>
<path fill="none" stroke="midnightblue" d="M208.079,-493.89C221.461,-518.895 251.715,-568.791 292,-594.825 356.426,-636.46 444.931,-652.223 502.419,-658.19"/>
<polygon fill="midnightblue" stroke="midnightblue" points="502.135,-661.679 512.427,-659.162 502.812,-654.712 502.135,-661.679"/>
</g>
<!-- Node2&#45;&gt;Node6 -->
<g id="edge15" class="edge"><title>Node2&#45;&gt;Node6</title>
<path fill="none" stroke="midnightblue" d="M213.8,-493.935C230.336,-511.745 260.277,-540.923 292,-556.825 375.653,-598.757 488.366,-612.229 536.786,-616.247"/>
<polygon fill="midnightblue" stroke="midnightblue" points="536.647,-619.747 546.886,-617.023 537.183,-612.767 536.647,-619.747"/>
</g>
<!-- Node2&#45;&gt;Node8 -->
<g id="edge12" class="edge"><title>Node2&#45;&gt;Node8</title>
<path fill="none" stroke="midnightblue" d="M224.862,-493.879C242.809,-504.328 268.143,-517.768 292,-525.825 362.322,-549.575 447.188,-562.236 502.425,-568.484"/>
<polygon fill="midnightblue" stroke="midnightblue" points="502.061,-571.965 512.384,-569.577 502.825,-565.007 502.061,-571.965"/>
</g>
<!-- Node2&#45;&gt;Node9 -->
<g id="edge17" class="edge"><title>Node2&#45;&gt;Node9</title>
<path fill="none" stroke="midnightblue" d="M249.802,-473.073C315.693,-465.386 432.281,-451.784 502.375,-443.606"/>
<polygon fill="midnightblue" stroke="midnightblue" points="502.84,-447.076 512.368,-442.44 502.029,-440.123 502.84,-447.076"/>
</g>
<!-- Node2&#45;&gt;Node10 -->
<g id="edge13" class="edge"><title>Node2&#45;&gt;Node10</title>
<path fill="none" stroke="midnightblue" d="M238.86,-463.7C255.093,-457.638 274.307,-450.902 292,-445.825 363.636,-425.269 447.866,-408.197 502.621,-398.014"/>
<polygon fill="midnightblue" stroke="midnightblue" points="503.292,-401.45 512.492,-396.194 502.023,-394.566 503.292,-401.45"/>
</g>
<!-- Node2&#45;&gt;Node11 -->
<g id="edge14" class="edge"><title>Node2&#45;&gt;Node11</title>
<path fill="none" stroke="midnightblue" d="M214.906,-463.71C231.811,-446.859 261.436,-419.988 292,-404.825 359.806,-371.185 445.951,-353.946 502.117,-345.666"/>
<polygon fill="midnightblue" stroke="midnightblue" points="502.838,-349.099 512.244,-344.223 501.85,-342.169 502.838,-349.099"/>
</g>
<!-- Node4 -->
<g id="node4" class="node"><title>Node4</title>
<g id="a_node4"><a xlink:href="classartvision__instanton_1_1_image.html#a5da9991c89d2324c7ec145973298c130" target="_top" xlink:title="artvision_instanton\l::Image::size">
<polygon fill="white" stroke="black" points="667,-492.825 667,-522.825 765,-522.825 765,-492.825 667,-492.825"/>
<text text-anchor="start" x="675" y="-510.825" font-family="Helvetica,sans-Serif" font-size="10.00">artvision_instanton</text>
<text text-anchor="middle" x="716" y="-499.825" font-family="Helvetica,sans-Serif" font-size="10.00">::Image::size</text>
</a>
</g>
</g>
<!-- Node3&#45;&gt;Node4 -->
<g id="edge3" class="edge"><title>Node3&#45;&gt;Node4</title>
<path fill="none" stroke="midnightblue" d="M423.053,-505.357C444.18,-507.134 469.301,-508.953 492,-509.825 553.732,-512.196 569.227,-510.56 631,-509.825 639.192,-509.727 647.833,-509.576 656.331,-509.4"/>
<polygon fill="midnightblue" stroke="midnightblue" points="656.666,-512.894 666.587,-509.174 656.512,-505.895 656.666,-512.894"/>
</g>
<!-- Node3&#45;&gt;Node5 -->
<g id="edge4" class="edge"><title>Node3&#45;&gt;Node5</title>
<path fill="none" stroke="midnightblue" d="M384.336,-516.13C402.027,-543.934 443.075,-602.983 492,-636.825 495.455,-639.215 499.166,-641.406 503.008,-643.408"/>
<polygon fill="midnightblue" stroke="midnightblue" points="501.616,-646.622 512.151,-647.745 504.616,-640.297 501.616,-646.622"/>
</g>
<!-- Node3&#45;&gt;Node6 -->
<g id="edge5" class="edge"><title>Node3&#45;&gt;Node6</title>
<path fill="none" stroke="midnightblue" d="M392.895,-515.854C425.494,-543.229 491.295,-598.454 492,-598.825 506.051,-606.21 523.273,-610.97 536.934,-613.879"/>
<polygon fill="midnightblue" stroke="midnightblue" points="536.514,-617.363 546.998,-615.83 537.847,-610.491 536.514,-617.363"/>
</g>
<!-- Node7 -->
<g id="node7" class="node"><title>Node7</title>
<g id="a_node7"><a xlink:href="classartvision__instanton_1_1_image.html#a31fdf398f739c5eccf617ae7e20c88ab" target="_top" xlink:title="Calculate the size of a single unit. ">
<polygon fill="white" stroke="black" points="492,-470.825 492,-500.825 631,-500.825 631,-470.825 492,-470.825"/>
<text text-anchor="start" x="500" y="-488.825" font-family="Helvetica,sans-Serif" font-size="10.00">artvision_instanton</text>
<text text-anchor="middle" x="561.5" y="-477.825" font-family="Helvetica,sans-Serif" font-size="10.00">::Image::calculate_unit_size</text>
</a>
</g>
</g>
<!-- Node3&#45;&gt;Node7 -->
<g id="edge6" class="edge"><title>Node3&#45;&gt;Node7</title>
<path fill="none" stroke="midnightblue" d="M423.254,-496.923C441.161,-495.475 461.969,-493.792 481.886,-492.182"/>
<polygon fill="midnightblue" stroke="midnightblue" points="482.201,-495.668 491.887,-491.373 481.637,-488.691 482.201,-495.668"/>
</g>
<!-- Node3&#45;&gt;Node8 -->
<g id="edge8" class="edge"><title>Node3&#45;&gt;Node8</title>
<path fill="none" stroke="midnightblue" d="M416.731,-515.958C429.381,-520.631 443.29,-525.858 456,-530.825 475.606,-538.487 497.134,-547.28 515.53,-554.91"/>
<polygon fill="midnightblue" stroke="midnightblue" points="514.26,-558.172 524.837,-558.782 516.948,-551.709 514.26,-558.172"/>
</g>
<!-- Node3&#45;&gt;Node9 -->
<g id="edge9" class="edge"><title>Node3&#45;&gt;Node9</title>
<path fill="none" stroke="midnightblue" d="M418.492,-485.82C445.026,-476.665 479.138,-464.896 507.278,-455.187"/>
<polygon fill="midnightblue" stroke="midnightblue" points="508.648,-458.417 516.96,-451.847 506.365,-451.8 508.648,-458.417"/>
</g>
<!-- Node3&#45;&gt;Node10 -->
<g id="edge10" class="edge"><title>Node3&#45;&gt;Node10</title>
<path fill="none" stroke="midnightblue" d="M391.286,-485.757C412.897,-466.421 452.895,-432.867 492,-411.825 495.459,-409.964 499.091,-408.2 502.803,-406.537"/>
<polygon fill="midnightblue" stroke="midnightblue" points="504.277,-409.715 512.142,-402.616 501.566,-403.261 504.277,-409.715"/>
</g>
<!-- Node3&#45;&gt;Node11 -->
<g id="edge11" class="edge"><title>Node3&#45;&gt;Node11</title>
<path fill="none" stroke="midnightblue" d="M383.963,-485.669C401.339,-457.533 442.304,-396.991 492,-362.825 495.505,-360.416 499.276,-358.224 503.182,-356.236"/>
<polygon fill="midnightblue" stroke="midnightblue" points="504.861,-359.316 512.481,-351.955 501.934,-352.957 504.861,-359.316"/>
</g>
<!-- Node7&#45;&gt;Node4 -->
<g id="edge7" class="edge"><title>Node7&#45;&gt;Node4</title>
<path fill="none" stroke="midnightblue" d="M631.166,-495.731C639.709,-496.963 648.381,-498.214 656.745,-499.421"/>
<polygon fill="midnightblue" stroke="midnightblue" points="656.37,-502.903 666.768,-500.867 657.37,-495.975 656.37,-502.903"/>
</g>
<!-- Node14 -->
<g id="node14" class="node"><title>Node14</title>
<g id="a_node14"><a xlink:href="namespaceartvision__instanton.html#a0b57dc1d8130f4f23288cecaec79cdc6" target="_top" xlink:title="Reset the 5 row pointers. ">
<polygon fill="white" stroke="black" points="512.5,-161.825 512.5,-191.825 610.5,-191.825 610.5,-161.825 512.5,-161.825"/>
<text text-anchor="start" x="520.5" y="-179.825" font-family="Helvetica,sans-Serif" font-size="10.00">artvision_instanton</text>
<text text-anchor="middle" x="561.5" y="-168.825" font-family="Helvetica,sans-Serif" font-size="10.00">::ResetPointers</text>
</a>
</g>
</g>
<!-- Node13&#45;&gt;Node14 -->
<g id="edge26" class="edge"><title>Node13&#45;&gt;Node14</title>
<path fill="none" stroke="midnightblue" d="M212.159,-145.842C227.896,-164.748 257.918,-196.27 292,-208.825 365.969,-236.074 458.421,-213.808 513.285,-195.261"/>
<polygon fill="midnightblue" stroke="midnightblue" points="514.452,-198.56 522.749,-191.971 512.154,-191.948 514.452,-198.56"/>
</g>
<!-- Node15 -->
<g id="node15" class="node"><title>Node15</title>
<g id="a_node15"><a xlink:href="namespaceartvision__instanton.html#acedb869751009d61d9702bb3f953e2da" target="_top" xlink:title="Binomial decimate (n*2)+4 bytes into n bytes. ">
<polygon fill="white" stroke="black" points="301,-169.825 301,-199.825 447,-199.825 447,-169.825 301,-169.825"/>
<text text-anchor="start" x="309" y="-187.825" font-family="Helvetica,sans-Serif" font-size="10.00">artvision_instanton</text>
<text text-anchor="middle" x="374" y="-176.825" font-family="Helvetica,sans-Serif" font-size="10.00">::HorizontalBinomialDecimate</text>
</a>
</g>
</g>
<!-- Node13&#45;&gt;Node15 -->
<g id="edge27" class="edge"><title>Node13&#45;&gt;Node15</title>
<path fill="none" stroke="midnightblue" d="M245.561,-145.884C260.33,-150.744 276.839,-156.095 292,-160.825 298.397,-162.821 305.09,-164.869 311.771,-166.886"/>
<polygon fill="midnightblue" stroke="midnightblue" points="310.929,-170.288 321.513,-169.812 312.942,-163.584 310.929,-170.288"/>
</g>
<!-- Node17 -->
<g id="node17" class="node"><title>Node17</title>
<g id="a_node17"><a xlink:href="namespaceartvision__instanton.html#ab5c7d9238b9298256f3cc1d8eddea111" target="_top" xlink:title="Apply vertical binomial on a pixel. ">
<polygon fill="white" stroke="black" points="512.5,-58.825 512.5,-88.825 610.5,-88.825 610.5,-58.825 512.5,-58.825"/>
<text text-anchor="start" x="520.5" y="-76.825" font-family="Helvetica,sans-Serif" font-size="10.00">artvision_instanton</text>
<text text-anchor="middle" x="561.5" y="-65.825" font-family="Helvetica,sans-Serif" font-size="10.00">::VerticalBinomial</text>
</a>
</g>
</g>
<!-- Node13&#45;&gt;Node17 -->
<g id="edge29" class="edge"><title>Node13&#45;&gt;Node17</title>
<path fill="none" stroke="midnightblue" d="M210.091,-115.756C224.725,-94.3418 254.882,-56.0202 292,-40.825 359.455,-13.2101 383.962,-29.7208 456,-40.825 475.038,-43.7596 495.364,-49.535 512.98,-55.445"/>
<polygon fill="midnightblue" stroke="midnightblue" points="511.868,-58.7637 522.462,-58.725 514.156,-52.1483 511.868,-58.7637"/>
</g>
<!-- Node18 -->
<g id="node18" class="node"><title>Node18</title>
<g id="a_node18"><a xlink:href="namespaceartvision__instanton.html#a38e9129602426b4c1b5cf46cdeb18200" target="_top" xlink:title="Swap the pointers in a &quot;rolling shutter&quot; style. ">
<polygon fill="white" stroke="black" points="512.5,-9.82499 512.5,-39.825 610.5,-39.825 610.5,-9.82499 512.5,-9.82499"/>
<text text-anchor="start" x="520.5" y="-27.825" font-family="Helvetica,sans-Serif" font-size="10.00">artvision_instanton</text>
<text text-anchor="middle" x="561.5" y="-16.825" font-family="Helvetica,sans-Serif" font-size="10.00">::SwapPointers</text>
</a>
</g>
</g>
<!-- Node13&#45;&gt;Node18 -->
<g id="edge30" class="edge"><title>Node13&#45;&gt;Node18</title>
<path fill="none" stroke="midnightblue" d="M207.732,-115.593C220.603,-90.5092 250.124,-41.3468 292,-21.825 358.963,9.39179 445.92,0.807446 502.451,-10.262"/>
<polygon fill="midnightblue" stroke="midnightblue" points="501.796,-13.7003 512.294,-12.2747 503.198,-6.84219 501.796,-13.7003"/>
</g>
<!-- Node19 -->
<g id="node19" class="node"><title>Node19</title>
<g id="a_node19"><a xlink:href="namespaceartvision__instanton.html#afe2af0431ceada10e9f1c2fabd777bf7" target="_top" xlink:title="Decimate the left/right border pixels. ">
<polygon fill="white" stroke="black" points="292,-50.325 292,-91.325 456,-91.325 456,-50.325 292,-50.325"/>
<text text-anchor="start" x="300" y="-79.325" font-family="Helvetica,sans-Serif" font-size="10.00">artvision_instanton</text>
<text text-anchor="start" x="300" y="-68.325" font-family="Helvetica,sans-Serif" font-size="10.00">::BinomialVerticalBorderDecimate</text>
<text text-anchor="middle" x="374" y="-57.325" font-family="Helvetica,sans-Serif" font-size="10.00">EvenWidth8u</text>
</a>
</g>
</g>
<!-- Node13&#45;&gt;Node19 -->
<g id="edge31" class="edge"><title>Node13&#45;&gt;Node19</title>
<path fill="none" stroke="midnightblue" d="M244.029,-115.684C262.295,-109.331 283.982,-101.788 304.31,-94.7173"/>
<polygon fill="midnightblue" stroke="midnightblue" points="305.551,-97.9911 313.846,-91.4001 303.252,-91.3797 305.551,-97.9911"/>
</g>
<!-- Node20 -->
<g id="node20" class="node"><title>Node20</title>
<g id="a_node20"><a xlink:href="namespaceartvision__instanton.html#a3cb292eebb5deee022ef9c2c817d4a9c" target="_top" xlink:title="Decimate the left/right border pixels. ">
<polygon fill="white" stroke="black" points="292,-110.325 292,-151.325 456,-151.325 456,-110.325 292,-110.325"/>
<text text-anchor="start" x="300" y="-139.325" font-family="Helvetica,sans-Serif" font-size="10.00">artvision_instanton</text>
<text text-anchor="start" x="300" y="-128.325" font-family="Helvetica,sans-Serif" font-size="10.00">::BinomialVerticalBorderDecimate</text>
<text text-anchor="middle" x="374" y="-117.325" font-family="Helvetica,sans-Serif" font-size="10.00">OddWidth8u</text>
</a>
</g>
</g>
<!-- Node13&#45;&gt;Node20 -->
<g id="edge36" class="edge"><title>Node13&#45;&gt;Node20</title>
<path fill="none" stroke="midnightblue" d="M256.03,-130.825C264.241,-130.825 272.88,-130.825 281.59,-130.825"/>
<polygon fill="midnightblue" stroke="midnightblue" points="281.825,-134.325 291.825,-130.825 281.825,-127.325 281.825,-134.325"/>
</g>
<!-- Node16 -->
<g id="node16" class="node"><title>Node16</title>
<g id="a_node16"><a xlink:href="namespaceartvision__instanton.html#a1ad1d52c7a87c6d66c51feed11508538" target="_top" xlink:title="Apply horizontal binomial. ">
<polygon fill="white" stroke="black" points="509.5,-112.825 509.5,-142.825 613.5,-142.825 613.5,-112.825 509.5,-112.825"/>
<text text-anchor="start" x="517.5" y="-130.825" font-family="Helvetica,sans-Serif" font-size="10.00">artvision_instanton</text>
<text text-anchor="middle" x="561.5" y="-119.825" font-family="Helvetica,sans-Serif" font-size="10.00">::HorizontalBinomial</text>
</a>
</g>
</g>
<!-- Node15&#45;&gt;Node16 -->
<g id="edge28" class="edge"><title>Node15&#45;&gt;Node16</title>
<path fill="none" stroke="midnightblue" d="M426.461,-169.727C436.278,-166.805 446.463,-163.743 456,-160.825 471.446,-156.098 488.141,-150.877 503.557,-146.009"/>
<polygon fill="midnightblue" stroke="midnightblue" points="504.999,-149.224 513.477,-142.87 502.887,-142.55 504.999,-149.224"/>
</g>
<!-- Node19&#45;&gt;Node14 -->
<g id="edge32" class="edge"><title>Node19&#45;&gt;Node14</title>
<path fill="none" stroke="midnightblue" d="M441.347,-91.4824C446.521,-94.2487 451.482,-97.3518 456,-100.825 477.996,-117.735 469.964,-134.967 492,-151.825 495.546,-154.538 499.415,-156.977 503.45,-159.168"/>
<polygon fill="midnightblue" stroke="midnightblue" points="501.968,-162.339 512.491,-163.574 505.035,-156.047 501.968,-162.339"/>
</g>
<!-- Node19&#45;&gt;Node16 -->
<g id="edge33" class="edge"><title>Node19&#45;&gt;Node16</title>
<path fill="none" stroke="midnightblue" d="M441.97,-91.4033C461.589,-97.4317 482.879,-103.974 501.932,-109.828"/>
<polygon fill="midnightblue" stroke="midnightblue" points="501.084,-113.229 511.671,-112.821 503.14,-106.538 501.084,-113.229"/>
</g>
<!-- Node19&#45;&gt;Node17 -->
<g id="edge34" class="edge"><title>Node19&#45;&gt;Node17</title>
<path fill="none" stroke="midnightblue" d="M456.093,-72.1365C471.548,-72.3864 487.441,-72.6434 502.02,-72.8792"/>
<polygon fill="midnightblue" stroke="midnightblue" points="502.323,-76.3845 512.378,-73.0467 502.436,-69.3854 502.323,-76.3845"/>
</g>
<!-- Node19&#45;&gt;Node18 -->
<g id="edge35" class="edge"><title>Node19&#45;&gt;Node18</title>
<path fill="none" stroke="midnightblue" d="M456.093,-50.7156C471.698,-46.846 487.75,-42.8655 502.444,-39.2216"/>
<polygon fill="midnightblue" stroke="midnightblue" points="503.514,-42.5623 512.378,-36.7582 501.83,-35.7681 503.514,-42.5623"/>
</g>
<!-- Node20&#45;&gt;Node14 -->
<g id="edge37" class="edge"><title>Node20&#45;&gt;Node14</title>
<path fill="none" stroke="midnightblue" d="M456.093,-150.934C471.698,-154.804 487.75,-158.784 502.444,-162.428"/>
<polygon fill="midnightblue" stroke="midnightblue" points="501.83,-165.882 512.378,-164.892 503.514,-159.088 501.83,-165.882"/>
</g>
<!-- Node20&#45;&gt;Node16 -->
<g id="edge38" class="edge"><title>Node20&#45;&gt;Node16</title>
<path fill="none" stroke="midnightblue" d="M456.093,-129.514C470.543,-129.28 485.377,-129.04 499.161,-128.817"/>
<polygon fill="midnightblue" stroke="midnightblue" points="499.531,-132.312 509.473,-128.65 499.418,-125.312 499.531,-132.312"/>
</g>
<!-- Node20&#45;&gt;Node17 -->
<g id="edge39" class="edge"><title>Node20&#45;&gt;Node17</title>
<path fill="none" stroke="midnightblue" d="M441.97,-110.247C461.765,-104.164 483.263,-97.5582 502.447,-91.6635"/>
<polygon fill="midnightblue" stroke="midnightblue" points="503.715,-94.9352 512.246,-88.6523 501.659,-88.244 503.715,-94.9352"/>
</g>
<!-- Node20&#45;&gt;Node18 -->
<g id="edge40" class="edge"><title>Node20&#45;&gt;Node18</title>
<path fill="none" stroke="midnightblue" d="M441.382,-110.212C446.548,-107.436 451.498,-104.319 456,-100.825 478.206,-83.5913 469.642,-65.8614 492,-48.825 495.535,-46.1316 499.395,-43.7249 503.425,-41.5769"/>
<polygon fill="midnightblue" stroke="midnightblue" points="504.932,-44.7359 512.457,-37.2771 501.923,-38.4156 504.932,-44.7359"/>
</g>
</g>
</svg>
        <g id="navigator" transform="translate(0 0)" fill="#404254">
                <rect fill="#f2f5e9" fill-opacity="0.5" stroke="#606060" stroke-width=".5" x="0" y="0" width="60" height="60"/>
                <use id="zoomplus" xlink:href="#zoomPlus" x="17" y="9" onmousedown="handleZoom(evt,'in')"/>
                <use id="zoomminus" xlink:href="#zoomMin" x="42" y="9" onmousedown="handleZoom(evt,'out')"/>
                <use id="reset" xlink:href="#resetDef" x="30" y="36" onmousedown="handleReset()"/>
                <g id="arrowUp" xlink:href="#dirArrow" transform="translate(30 24)" onmousedown="handlePan(0,-1)">
                  <use xlink:href="#rim" fill="#404040">
                        <set attributeName="fill" to="#808080" begin="arrowUp.mouseover" end="arrowUp.mouseout"/>
                  </use>
                  <path fill="none" stroke="white" stroke-width="1.5" d="M0,-3.0v7 M-2.5,-0.5L0,-3.0L2.5,-0.5"/>
                </g>
                <g id="arrowRight" xlink:href="#dirArrow" transform="rotate(90) translate(36 -43)" onmousedown="handlePan(1,0)">
                  <use xlink:href="#rim" fill="#404040">
                        <set attributeName="fill" to="#808080" begin="arrowRight.mouseover" end="arrowRight.mouseout"/>
                  </use>
                  <path fill="none" stroke="white" stroke-width="1.5" d="M0,-3.0v7 M-2.5,-0.5L0,-3.0L2.5,-0.5"/>
                </g>
                <g id="arrowDown" xlink:href="#dirArrow" transform="rotate(180) translate(-30 -48)" onmousedown="handlePan(0,1)">
                  <use xlink:href="#rim" fill="#404040">
                        <set attributeName="fill" to="#808080" begin="arrowDown.mouseover" end="arrowDown.mouseout"/>
                  </use>
                  <path fill="none" stroke="white" stroke-width="1.5" d="M0,-3.0v7 M-2.5,-0.5L0,-3.0L2.5,-0.5"/>
                </g>
                <g id="arrowLeft" xlink:href="#dirArrow" transform="rotate(270) translate(-36 17)" onmousedown="handlePan(-1,0)">
                  <use xlink:href="#rim" fill="#404040">
                        <set attributeName="fill" to="#808080" begin="arrowLeft.mouseover" end="arrowLeft.mouseout"/>
                  </use>
                  <path fill="none" stroke="white" stroke-width="1.5" d="M0,-3.0v7 M-2.5,-0.5L0,-3.0L2.5,-0.5"/>
                </g>
        </g>
        <svg viewBox="0 0 15 15" width="100%" height="30px" preserveAspectRatio="xMaxYMin meet">
         <g id="arrow_out" transform="scale(0.3 0.3)">
          <a xlink:href="classartvision__instanton_1_1_binomial_pyramid8u_a681c6c13f90c11e79b12047aa2e5c3ba_cgraph_org.svg" target="_base">
           <rect id="button" ry="5" rx="5" y="6" x="6" height="38" width="38"
                fill="#f2f5e9" fill-opacity="0.5" stroke="#606060" stroke-width="1.0"/>
           <path id="arrow"
             d="M 11.500037,31.436501 C 11.940474,20.09759 22.043105,11.32322 32.158766,21.979434 L 37.068811,17.246167 C 37.068811,17.246167 37.088388,32 37.088388,32 L 22.160133,31.978069 C 22.160133,31.978069 26.997745,27.140456 26.997745,27.140456 C 18.528582,18.264221 13.291696,25.230495 11.500037,31.436501 z"
             style="fill:#404040;"/>
          </a>
         </g>
        </svg>
</svg>
