<?xml version="1.0" encoding="UTF-8" standalone="no"?>
<!DOCTYPE svg PUBLIC "-//W3C//DTD SVG 1.1//EN"
 "http://www.w3.org/Graphics/SVG/1.1/DTD/svg11.dtd">
<!-- Generated by graphviz version 2.38.0 (20140413.2041)
 -->
<!-- Title: artvision_instanton::NCCMatcher::match Pages: 1 -->
<svg width="358pt" height="187pt"
 viewBox="0.00 0.00 358.00 186.50" xmlns="http://www.w3.org/2000/svg" xmlns:xlink="http://www.w3.org/1999/xlink">
<g id="graph0" class="graph" transform="scale(1 1) rotate(0) translate(4 182.5)">
<title>artvision_instanton::NCCMatcher::match</title>
<polygon fill="white" stroke="none" points="-4,4 -4,-182.5 354,-182.5 354,4 -4,4"/>
<!-- Node1 -->
<g id="node1" class="node"><title>Node1</title>
<polygon fill="#bfbfbf" stroke="black" points="0,-71.5 0,-101.5 113,-101.5 113,-71.5 0,-71.5"/>
<text text-anchor="start" x="8" y="-89.5" font-family="Helvetica,sans-Serif" font-size="10.00">artvision_instanton</text>
<text text-anchor="middle" x="56.5" y="-78.5" font-family="Helvetica,sans-Serif" font-size="10.00">::NCCMatcher::match</text>
</g>
<!-- Node2 -->
<g id="node2" class="node"><title>Node2</title>
<g id="a_node2"><a xlink:href="structartvision__instanton_1_1_n_c_c_matcher_1_1mutual__feature.html#aa0c3783ff1b147ced4d87601e48f9b1a" target="_top" xlink:title="Find the best match. ">
<polygon fill="white" stroke="black" points="159,-137 159,-178 275,-178 275,-137 159,-137"/>
<text text-anchor="start" x="167" y="-166" font-family="Helvetica,sans-Serif" font-size="10.00">artvision_instanton</text>
<text text-anchor="start" x="167" y="-155" font-family="Helvetica,sans-Serif" font-size="10.00">::NCCMatcher::mutual</text>
<text text-anchor="middle" x="217" y="-144" font-family="Helvetica,sans-Serif" font-size="10.00">_feature::best_match</text>
</a>
</g>
</g>
<!-- Node1&#45;&gt;Node2 -->
<g id="edge1" class="edge"><title>Node1&#45;&gt;Node2</title>
<path fill="none" stroke="midnightblue" d="M91.1138,-101.557C111.32,-110.609 137.531,-122.35 160.72,-132.737"/>
<polygon fill="midnightblue" stroke="midnightblue" points="159.552,-136.049 170.109,-136.943 162.413,-129.661 159.552,-136.049"/>
</g>
<!-- Node3 -->
<g id="node3" class="node"><title>Node3</title>
<g id="a_node3"><a xlink:href="ioapi_8h.html#a787fa3cf048117ba7123753c1e74fcd6" target="_top" xlink:title="int">
<polygon fill="white" stroke="black" points="321,-123 321,-142 350,-142 350,-123 321,-123"/>
<text text-anchor="middle" x="335.5" y="-130" font-family="Helvetica,sans-Serif" font-size="10.00">int</text>
</a>
</g>
</g>
<!-- Node1&#45;&gt;Node3 -->
<g id="edge5" class="edge"><title>Node1&#45;&gt;Node3</title>
<path fill="none" stroke="midnightblue" d="M113.222,-95.7535C173.664,-105.791 267.327,-121.345 310.817,-128.567"/>
<polygon fill="midnightblue" stroke="midnightblue" points="310.304,-132.03 320.742,-130.215 311.451,-125.124 310.304,-132.03"/>
</g>
<!-- Node4 -->
<g id="node4" class="node"><title>Node4</title>
<g id="a_node4"><a xlink:href="classartvision__instanton_1_1_n_c_c_template_store.html#a0b9cd7ed6fe1ded973b9eae2915db68e" target="_top" xlink:title="artvision_instanton\l::NCCTemplateStore::size">
<polygon fill="white" stroke="black" points="150.5,-49.5 150.5,-79.5 283.5,-79.5 283.5,-49.5 150.5,-49.5"/>
<text text-anchor="start" x="158.5" y="-67.5" font-family="Helvetica,sans-Serif" font-size="10.00">artvision_instanton</text>
<text text-anchor="middle" x="217" y="-56.5" font-family="Helvetica,sans-Serif" font-size="10.00">::NCCTemplateStore::size</text>
</a>
</g>
</g>
<!-- Node1&#45;&gt;Node4 -->
<g id="edge3" class="edge"><title>Node1&#45;&gt;Node4</title>
<path fill="none" stroke="midnightblue" d="M113.381,-78.7436C122.059,-77.5392 131.146,-76.2778 140.175,-75.0246"/>
<polygon fill="midnightblue" stroke="midnightblue" points="140.894,-78.4584 150.318,-73.6167 139.932,-71.5249 140.894,-78.4584"/>
</g>
<!-- Node5 -->
<g id="node5" class="node"><title>Node5</title>
<g id="a_node5"><a xlink:href="classartvision__instanton_1_1_n_c_c_template_store.html#aab0f51935b41d310e51b6e78c73df02d" target="_top" xlink:title="Get point at an index. ">
<polygon fill="white" stroke="black" points="149,-0.5 149,-30.5 285,-30.5 285,-0.5 149,-0.5"/>
<text text-anchor="start" x="157" y="-18.5" font-family="Helvetica,sans-Serif" font-size="10.00">artvision_instanton</text>
<text text-anchor="middle" x="217" y="-7.5" font-family="Helvetica,sans-Serif" font-size="10.00">::NCCTemplateStore::point</text>
</a>
</g>
</g>
<!-- Node1&#45;&gt;Node5 -->
<g id="edge4" class="edge"><title>Node1&#45;&gt;Node5</title>
<path fill="none" stroke="midnightblue" d="M85.5608,-71.3972C103.476,-62.0047 127.327,-49.9582 149,-40.5 153.785,-38.4121 158.805,-36.3356 163.854,-34.3231"/>
<polygon fill="midnightblue" stroke="midnightblue" points="165.5,-37.4382 173.547,-30.5457 162.958,-30.916 165.5,-37.4382"/>
</g>
<!-- Node2&#45;&gt;Node3 -->
<g id="edge2" class="edge"><title>Node2&#45;&gt;Node3</title>
<path fill="none" stroke="midnightblue" d="M275.226,-145.22C287.868,-142.507 300.574,-139.78 310.961,-137.551"/>
<polygon fill="midnightblue" stroke="midnightblue" points="311.804,-140.95 320.847,-135.43 310.335,-134.106 311.804,-140.95"/>
</g>
</g>
</svg>
