<?xml version="1.0" encoding="UTF-8" standalone="no"?>
<!DOCTYPE svg PUBLIC "-//W3C//DTD SVG 1.1//EN"
 "http://www.w3.org/Graphics/SVG/1.1/DTD/svg11.dtd">
<!-- Generated by graphviz version 2.38.0 (20140413.2041)
 -->
<!-- Title: artvision_instanton::NCCMatcher::numBuckets Pages: 1 -->
<!--zoomable 258 -->
<svg id="main" version="1.1" xmlns="http://www.w3.org/2000/svg" xmlns:xlink="http://www.w3.org/1999/xlink" xml:space="preserve" onload="init(evt)">
<style type="text/css"><![CDATA[
.edge:hover path { stroke: red; }
.edge:hover polygon { stroke: red; fill: red; }
]]></style>
<script type="text/javascript"><![CDATA[
var edges = document.getElementsByTagName('g');
if (edges && edges.length) {
  for (var i=0;i<edges.length;i++) {
    if (edges[i].id.substr(0,4)=='edge') {
      edges[i].setAttribute('class','edge');
    }
  }
}
]]></script>
        <defs>
                <circle id="rim" cx="0" cy="0" r="7"/>
                <circle id="rim2" cx="0" cy="0" r="3.5"/>
                <g id="zoomPlus">
                        <use xlink:href="#rim" fill="#404040">
                                <set attributeName="fill" to="#808080" begin="zoomplus.mouseover" end="zoomplus.mouseout"/>
                        </use>
                        <path d="M-4,0h8M0,-4v8" fill="none" stroke="white" stroke-width="1.5" pointer-events="none"/>
                </g>
                <g id="zoomMin">
                        <use xlink:href="#rim" fill="#404040">
                                <set attributeName="fill" to="#808080" begin="zoomminus.mouseover" end="zoomminus.mouseout"/>
                        </use>
                        <path d="M-4,0h8" fill="none" stroke="white" stroke-width="1.5" pointer-events="none"/>
                </g>
                <g id="dirArrow">
                        <path fill="none" stroke="white" stroke-width="1.5" d="M0,-3.0v7 M-2.5,-0.5L0,-3.0L2.5,-0.5"/>
                </g>
               <g id="resetDef">
                       <use xlink:href="#rim2" fill="#404040">
                               <set attributeName="fill" to="#808080" begin="reset.mouseover" end="reset.mouseout"/>
                       </use>
               </g>
        </defs>

<script type="text/javascript">
var viewWidth = 619;
var viewHeight = 258;
var sectionId = 'dynsection-2';
</script>
<script xlink:href="svgpan.js"/>
<svg id="graph" class="graph">
<g id="viewport">
<title>artvision_instanton::NCCMatcher::numBuckets</title>
<polygon fill="white" stroke="none" points="-4,4 -4,-253.5 615,-253.5 615,4 -4,4"/>
<!-- Node1 -->
<g id="node1" class="node"><title>Node1</title>
<polygon fill="#bfbfbf" stroke="black" points="0,-153 0,-183 141,-183 141,-153 0,-153"/>
<text text-anchor="start" x="8" y="-171" font-family="Helvetica,sans-Serif" font-size="10.00">artvision_instanton</text>
<text text-anchor="middle" x="70.5" y="-160" font-family="Helvetica,sans-Serif" font-size="10.00">::NCCMatcher::numBuckets</text>
</g>
<!-- Node2 -->
<g id="node2" class="node"><title>Node2</title>
<g id="a_node2"><a xlink:href="namespaceartvision__instanton.html#af8ace30a02307ff76481d37502ced60b" target="_top" xlink:title="Clip a scalar to be within a range. ">
<polygon fill="white" stroke="black" points="196,-219 196,-249 294,-249 294,-219 196,-219"/>
<text text-anchor="start" x="204" y="-237" font-family="Helvetica,sans-Serif" font-size="10.00">artvision_instanton</text>
<text text-anchor="middle" x="245" y="-226" font-family="Helvetica,sans-Serif" font-size="10.00">::ClipScalar</text>
</a>
</g>
</g>
<!-- Node1&#45;&gt;Node2 -->
<g id="edge1" class="edge"><title>Node1&#45;&gt;Node2</title>
<path fill="none" stroke="midnightblue" d="M110.035,-183.12C129.996,-190.915 154.78,-200.537 177,-209 182.426,-211.067 188.105,-213.212 193.764,-215.339"/>
<polygon fill="midnightblue" stroke="midnightblue" points="192.629,-218.651 203.221,-218.884 195.086,-212.097 192.629,-218.651"/>
</g>
<!-- Node3 -->
<g id="node3" class="node"><title>Node3</title>
<g id="a_node3"><a xlink:href="namespaceartvision__instanton.html#aaf2781e37f3d7d4e78dd2c872d0799b6" target="_top" xlink:title="artvision_instanton::sqr">
<polygon fill="white" stroke="black" points="186,-180.5 186,-199.5 304,-199.5 304,-180.5 186,-180.5"/>
<text text-anchor="middle" x="245" y="-187.5" font-family="Helvetica,sans-Serif" font-size="10.00">artvision_instanton::sqr</text>
</a>
</g>
</g>
<!-- Node1&#45;&gt;Node3 -->
<g id="edge2" class="edge"><title>Node1&#45;&gt;Node3</title>
<path fill="none" stroke="midnightblue" d="M141.165,-176.885C152.664,-178.351 164.572,-179.87 176.029,-181.331"/>
<polygon fill="midnightblue" stroke="midnightblue" points="175.597,-184.804 185.959,-182.598 176.482,-177.861 175.597,-184.804"/>
</g>
<!-- Node4 -->
<g id="node4" class="node"><title>Node4</title>
<g id="a_node4"><a xlink:href="classartvision__instanton_1_1_n_c_c_template_store.html#aab0f51935b41d310e51b6e78c73df02d" target="_top" xlink:title="Get point at an index. ">
<polygon fill="white" stroke="black" points="177,-131 177,-161 313,-161 313,-131 177,-131"/>
<text text-anchor="start" x="185" y="-149" font-family="Helvetica,sans-Serif" font-size="10.00">artvision_instanton</text>
<text text-anchor="middle" x="245" y="-138" font-family="Helvetica,sans-Serif" font-size="10.00">::NCCTemplateStore::point</text>
</a>
</g>
</g>
<!-- Node1&#45;&gt;Node4 -->
<g id="edge3" class="edge"><title>Node1&#45;&gt;Node4</title>
<path fill="none" stroke="midnightblue" d="M141.165,-159.115C149.633,-158.035 158.323,-156.927 166.891,-155.834"/>
<polygon fill="midnightblue" stroke="midnightblue" points="167.396,-159.298 176.873,-154.561 166.51,-152.354 167.396,-159.298"/>
</g>
<!-- Node5 -->
<g id="node5" class="node"><title>Node5</title>
<g id="a_node5"><a xlink:href="namespaceartvision__instanton.html#afb83898376bbe47049800bdfcc182d78" target="_top" xlink:title="Compute the NCC score between features contained in NCC stores. ">
<polygon fill="white" stroke="black" points="190.5,-82 190.5,-112 299.5,-112 299.5,-82 190.5,-82"/>
<text text-anchor="start" x="198.5" y="-100" font-family="Helvetica,sans-Serif" font-size="10.00">artvision_instanton</text>
<text text-anchor="middle" x="245" y="-89" font-family="Helvetica,sans-Serif" font-size="10.00">::NCCScoreFeatures</text>
</a>
</g>
</g>
<!-- Node1&#45;&gt;Node5 -->
<g id="edge4" class="edge"><title>Node1&#45;&gt;Node5</title>
<path fill="none" stroke="midnightblue" d="M105.038,-152.825C125.675,-143.625 152.732,-131.81 177,-122 182.108,-119.935 187.458,-117.835 192.813,-115.774"/>
<polygon fill="midnightblue" stroke="midnightblue" points="194.305,-118.951 202.406,-112.122 191.815,-112.409 194.305,-118.951"/>
</g>
<!-- Node6 -->
<g id="node6" class="node"><title>Node6</title>
<g id="a_node6"><a xlink:href="classartvision__instanton_1_1_n_c_c_template_store.html#a3863074b551053a1818f073395ed8c22" target="_top" xlink:title="Get NCC scalars at an index. ">
<polygon fill="white" stroke="black" points="355.5,-147.5 355.5,-188.5 470.5,-188.5 470.5,-147.5 355.5,-147.5"/>
<text text-anchor="start" x="363.5" y="-176.5" font-family="Helvetica,sans-Serif" font-size="10.00">artvision_instanton</text>
<text text-anchor="start" x="363.5" y="-165.5" font-family="Helvetica,sans-Serif" font-size="10.00">::NCCTemplateStore::</text>
<text text-anchor="middle" x="413" y="-154.5" font-family="Helvetica,sans-Serif" font-size="10.00">scalars</text>
</a>
</g>
</g>
<!-- Node5&#45;&gt;Node6 -->
<g id="edge5" class="edge"><title>Node5&#45;&gt;Node6</title>
<path fill="none" stroke="midnightblue" d="M288.013,-112.105C296.339,-115.259 304.982,-118.647 313,-122 322.279,-125.88 340.88,-134.449 359.479,-143.153"/>
<polygon fill="midnightblue" stroke="midnightblue" points="358.028,-146.338 368.568,-147.416 361.001,-140.001 358.028,-146.338"/>
</g>
<!-- Node7 -->
<g id="node7" class="node"><title>Node7</title>
<g id="a_node7"><a xlink:href="namespaceartvision__instanton.html#a98b490948a290f738651f321eed6bf72" target="_top" xlink:title="artvision_instanton::ncc">
<polygon fill="white" stroke="black" points="353,-109.5 353,-128.5 473,-128.5 473,-109.5 353,-109.5"/>
<text text-anchor="middle" x="413" y="-116.5" font-family="Helvetica,sans-Serif" font-size="10.00">artvision_instanton::ncc</text>
</a>
</g>
</g>
<!-- Node5&#45;&gt;Node7 -->
<g id="edge6" class="edge"><title>Node5&#45;&gt;Node7</title>
<path fill="none" stroke="midnightblue" d="M299.895,-104.143C313.532,-105.95 328.368,-107.916 342.65,-109.809"/>
<polygon fill="midnightblue" stroke="midnightblue" points="342.553,-113.327 352.926,-111.171 343.472,-106.387 342.553,-113.327"/>
</g>
<!-- Node9 -->
<g id="node9" class="node"><title>Node9</title>
<g id="a_node9"><a xlink:href="classartvision__instanton_1_1_n_c_c_template_store.html#a175a81a7a994ebe97285da71b28eace6" target="_top" xlink:title="Get a template at an index. ">
<polygon fill="white" stroke="black" points="349,-60 349,-90 477,-90 477,-60 349,-60"/>
<text text-anchor="start" x="357" y="-78" font-family="Helvetica,sans-Serif" font-size="10.00">artvision_instanton</text>
<text text-anchor="middle" x="413" y="-67" font-family="Helvetica,sans-Serif" font-size="10.00">::NCCTemplateStore::get</text>
</a>
</g>
</g>
<!-- Node5&#45;&gt;Node9 -->
<g id="edge8" class="edge"><title>Node5&#45;&gt;Node9</title>
<path fill="none" stroke="midnightblue" d="M299.895,-89.8572C312.343,-88.2075 325.791,-86.4253 338.904,-84.6875"/>
<polygon fill="midnightblue" stroke="midnightblue" points="339.39,-88.1536 348.844,-83.3701 338.471,-81.2143 339.39,-88.1536"/>
</g>
<!-- Node10 -->
<g id="node10" class="node"><title>Node10</title>
<g id="a_node10"><a xlink:href="classartvision__instanton_1_1_n_c_c_template_store.html#a0612de74a3b46413c131faf8e485f118" target="_top" xlink:title="artvision_instanton\l::NCCTemplateStore::\lnumPixels">
<polygon fill="white" stroke="black" points="355.5,-0.5 355.5,-41.5 470.5,-41.5 470.5,-0.5 355.5,-0.5"/>
<text text-anchor="start" x="363.5" y="-29.5" font-family="Helvetica,sans-Serif" font-size="10.00">artvision_instanton</text>
<text text-anchor="start" x="363.5" y="-18.5" font-family="Helvetica,sans-Serif" font-size="10.00">::NCCTemplateStore::</text>
<text text-anchor="middle" x="413" y="-7.5" font-family="Helvetica,sans-Serif" font-size="10.00">numPixels</text>
</a>
</g>
</g>
<!-- Node5&#45;&gt;Node10 -->
<g id="edge9" class="edge"><title>Node5&#45;&gt;Node10</title>
<path fill="none" stroke="midnightblue" d="M278.796,-81.9848C301.265,-71.6979 331.596,-57.8114 357.64,-45.8878"/>
<polygon fill="midnightblue" stroke="midnightblue" points="359.383,-48.9393 367.018,-41.5941 356.469,-42.5746 359.383,-48.9393"/>
</g>
<!-- Node8 -->
<g id="node8" class="node"><title>Node8</title>
<g id="a_node8"><a xlink:href="namespaceartvision__instanton_1_1details.html#a64545afa12d78d9705729c27033a7377" target="_top" xlink:title="artvision_instanton\l::details::nccCPU">
<polygon fill="white" stroke="black" points="513,-104 513,-134 611,-134 611,-104 513,-104"/>
<text text-anchor="start" x="521" y="-122" font-family="Helvetica,sans-Serif" font-size="10.00">artvision_instanton</text>
<text text-anchor="middle" x="562" y="-111" font-family="Helvetica,sans-Serif" font-size="10.00">::details::nccCPU</text>
</a>
</g>
</g>
<!-- Node7&#45;&gt;Node8 -->
<g id="edge7" class="edge"><title>Node7&#45;&gt;Node8</title>
<path fill="none" stroke="midnightblue" d="M473.367,-119C482.964,-119 492.895,-119 502.471,-119"/>
<polygon fill="midnightblue" stroke="midnightblue" points="502.692,-122.5 512.692,-119 502.692,-115.5 502.692,-122.5"/>
</g>
</g>
</svg>
        <g id="navigator" transform="translate(0 0)" fill="#404254">
                <rect fill="#f2f5e9" fill-opacity="0.5" stroke="#606060" stroke-width=".5" x="0" y="0" width="60" height="60"/>
                <use id="zoomplus" xlink:href="#zoomPlus" x="17" y="9" onmousedown="handleZoom(evt,'in')"/>
                <use id="zoomminus" xlink:href="#zoomMin" x="42" y="9" onmousedown="handleZoom(evt,'out')"/>
                <use id="reset" xlink:href="#resetDef" x="30" y="36" onmousedown="handleReset()"/>
                <g id="arrowUp" xlink:href="#dirArrow" transform="translate(30 24)" onmousedown="handlePan(0,-1)">
                  <use xlink:href="#rim" fill="#404040">
                        <set attributeName="fill" to="#808080" begin="arrowUp.mouseover" end="arrowUp.mouseout"/>
                  </use>
                  <path fill="none" stroke="white" stroke-width="1.5" d="M0,-3.0v7 M-2.5,-0.5L0,-3.0L2.5,-0.5"/>
                </g>
                <g id="arrowRight" xlink:href="#dirArrow" transform="rotate(90) translate(36 -43)" onmousedown="handlePan(1,0)">
                  <use xlink:href="#rim" fill="#404040">
                        <set attributeName="fill" to="#808080" begin="arrowRight.mouseover" end="arrowRight.mouseout"/>
                  </use>
                  <path fill="none" stroke="white" stroke-width="1.5" d="M0,-3.0v7 M-2.5,-0.5L0,-3.0L2.5,-0.5"/>
                </g>
                <g id="arrowDown" xlink:href="#dirArrow" transform="rotate(180) translate(-30 -48)" onmousedown="handlePan(0,1)">
                  <use xlink:href="#rim" fill="#404040">
                        <set attributeName="fill" to="#808080" begin="arrowDown.mouseover" end="arrowDown.mouseout"/>
                  </use>
                  <path fill="none" stroke="white" stroke-width="1.5" d="M0,-3.0v7 M-2.5,-0.5L0,-3.0L2.5,-0.5"/>
                </g>
                <g id="arrowLeft" xlink:href="#dirArrow" transform="rotate(270) translate(-36 17)" onmousedown="handlePan(-1,0)">
                  <use xlink:href="#rim" fill="#404040">
                        <set attributeName="fill" to="#808080" begin="arrowLeft.mouseover" end="arrowLeft.mouseout"/>
                  </use>
                  <path fill="none" stroke="white" stroke-width="1.5" d="M0,-3.0v7 M-2.5,-0.5L0,-3.0L2.5,-0.5"/>
                </g>
        </g>
        <svg viewBox="0 0 15 15" width="100%" height="30px" preserveAspectRatio="xMaxYMin meet">
         <g id="arrow_out" transform="scale(0.3 0.3)">
          <a xlink:href="classartvision__instanton_1_1_n_c_c_matcher_a82d4d6af3cd2591d78acdd4ada66bb01_cgraph_org.svg" target="_base">
           <rect id="button" ry="5" rx="5" y="6" x="6" height="38" width="38"
                fill="#f2f5e9" fill-opacity="0.5" stroke="#606060" stroke-width="1.0"/>
           <path id="arrow"
             d="M 11.500037,31.436501 C 11.940474,20.09759 22.043105,11.32322 32.158766,21.979434 L 37.068811,17.246167 C 37.068811,17.246167 37.088388,32 37.088388,32 L 22.160133,31.978069 C 22.160133,31.978069 26.997745,27.140456 26.997745,27.140456 C 18.528582,18.264221 13.291696,25.230495 11.500037,31.436501 z"
             style="fill:#404040;"/>
          </a>
         </g>
        </svg>
</svg>
