<?xml version="1.0" encoding="UTF-8" standalone="no"?>
<!DOCTYPE svg PUBLIC "-//W3C//DTD SVG 1.1//EN"
 "http://www.w3.org/Graphics/SVG/1.1/DTD/svg11.dtd">
<!-- Generated by graphviz version 2.38.0 (20140413.2041)
 -->
<!-- Title: ARTracker2D::update Pages: 1 -->
<svg width="929pt" height="356pt"
 viewBox="0.00 0.00 929.00 356.00" xmlns="http://www.w3.org/2000/svg" xmlns:xlink="http://www.w3.org/1999/xlink">
<g id="graph0" class="graph" transform="scale(1 1) rotate(0) translate(4 352)">
<title>ARTracker2D::update</title>
<polygon fill="white" stroke="none" points="-4,4 -4,-352 925,-352 925,4 -4,4"/>
<!-- Node1 -->
<g id="node1" class="node"><title>Node1</title>
<polygon fill="#bfbfbf" stroke="black" points="0,-164.5 0,-183.5 112,-183.5 112,-164.5 0,-164.5"/>
<text text-anchor="middle" x="56" y="-171.5" font-family="Helvetica,sans-Serif" font-size="10.00">ARTracker2D::update</text>
</g>
<!-- Node2 -->
<g id="node2" class="node"><title>Node2</title>
<g id="a_node2"><a xlink:href="class_a_r_tracker2_d.html#acf206b0c66042ea3ec2c540dd4996deb" target="_top" xlink:title="ARTracker2D::isRunning">
<polygon fill="white" stroke="black" points="167,-328.5 167,-347.5 293,-347.5 293,-328.5 167,-328.5"/>
<text text-anchor="middle" x="230" y="-335.5" font-family="Helvetica,sans-Serif" font-size="10.00">ARTracker2D::isRunning</text>
</a>
</g>
</g>
<!-- Node1&#45;&gt;Node2 -->
<g id="edge1" class="edge"><title>Node1&#45;&gt;Node2</title>
<path fill="none" stroke="midnightblue" d="M60.0929,-183.591C69.0635,-209.801 97.7005,-283.063 148,-319 150.909,-321.078 154.012,-322.932 157.246,-324.586"/>
<polygon fill="midnightblue" stroke="midnightblue" points="156.086,-327.9 166.648,-328.736 158.912,-321.496 156.086,-327.9"/>
</g>
<!-- Node3 -->
<g id="node3" class="node"><title>Node3</title>
<g id="a_node3"><a xlink:href="class_tracker_pipeline.html#ade14435bcbb0e019d1e36e0fd19f73a0" target="_top" xlink:title="TrackerPipeline::Recognize\lAndTrack">
<polygon fill="white" stroke="black" points="161.5,-279 161.5,-309 298.5,-309 298.5,-279 161.5,-279"/>
<text text-anchor="start" x="169.5" y="-297" font-family="Helvetica,sans-Serif" font-size="10.00">TrackerPipeline::Recognize</text>
<text text-anchor="middle" x="230" y="-286" font-family="Helvetica,sans-Serif" font-size="10.00">AndTrack</text>
</a>
</g>
</g>
<!-- Node1&#45;&gt;Node3 -->
<g id="edge2" class="edge"><title>Node1&#45;&gt;Node3</title>
<path fill="none" stroke="midnightblue" d="M63.5833,-183.626C77.1411,-202.729 110.105,-245.603 148,-269 151.424,-271.114 155.041,-273.062 158.77,-274.855"/>
<polygon fill="midnightblue" stroke="midnightblue" points="157.662,-278.19 168.226,-278.998 160.471,-271.779 157.662,-278.19"/>
</g>
<!-- Node4 -->
<g id="node4" class="node"><title>Node4</title>
<g id="a_node4"><a xlink:href="ioapi_8h.html#a787fa3cf048117ba7123753c1e74fcd6" target="_top" xlink:title="int">
<polygon fill="white" stroke="black" points="215.5,-240.5 215.5,-259.5 244.5,-259.5 244.5,-240.5 215.5,-240.5"/>
<text text-anchor="middle" x="230" y="-247.5" font-family="Helvetica,sans-Serif" font-size="10.00">int</text>
</a>
</g>
</g>
<!-- Node1&#45;&gt;Node4 -->
<g id="edge3" class="edge"><title>Node1&#45;&gt;Node4</title>
<path fill="none" stroke="midnightblue" d="M69.2338,-183.521C86.0611,-196.168 117.717,-218.375 148,-231 166.592,-238.751 188.964,-243.696 205.481,-246.591"/>
<polygon fill="midnightblue" stroke="midnightblue" points="204.959,-250.052 215.391,-248.207 206.085,-243.143 204.959,-250.052"/>
</g>
<!-- Node5 -->
<g id="node5" class="node"><title>Node5</title>
<g id="a_node5"><a xlink:href="class_tracker_pipeline.html#a15056ab90e5bd28d8cd331aa28d92b63" target="_top" xlink:title="TrackerPipeline::UpdateSmoother">
<polygon fill="white" stroke="black" points="148,-202.5 148,-221.5 312,-221.5 312,-202.5 148,-202.5"/>
<text text-anchor="middle" x="230" y="-209.5" font-family="Helvetica,sans-Serif" font-size="10.00">TrackerPipeline::UpdateSmoother</text>
</a>
</g>
</g>
<!-- Node1&#45;&gt;Node5 -->
<g id="edge4" class="edge"><title>Node1&#45;&gt;Node5</title>
<path fill="none" stroke="midnightblue" d="M100.403,-183.589C123.407,-188.671 151.851,-194.955 176.134,-200.32"/>
<polygon fill="midnightblue" stroke="midnightblue" points="175.39,-203.74 185.909,-202.48 176.9,-196.905 175.39,-203.74"/>
</g>
<!-- Node6 -->
<g id="node6" class="node"><title>Node6</title>
<g id="a_node6"><a xlink:href="class_a_r_trackable2_d.html#a512eecccffb708b5033db319502cc86a" target="_top" xlink:title="ARTrackable2D::updateWith2\lDTrackingResults">
<polygon fill="white" stroke="black" points="349,-197 349,-227 496,-227 496,-197 349,-197"/>
<text text-anchor="start" x="357" y="-215" font-family="Helvetica,sans-Serif" font-size="10.00">ARTrackable2D::updateWith2</text>
<text text-anchor="middle" x="422.5" y="-204" font-family="Helvetica,sans-Serif" font-size="10.00">DTrackingResults</text>
</a>
</g>
</g>
<!-- Node1&#45;&gt;Node6 -->
<g id="edge14" class="edge"><title>Node1&#45;&gt;Node6</title>
<path fill="none" stroke="midnightblue" d="M112.118,-176.554C163.869,-179.318 243.38,-184.511 312,-193 320.695,-194.076 329.751,-195.368 338.766,-196.765"/>
<polygon fill="midnightblue" stroke="midnightblue" points="338.479,-200.264 348.906,-198.382 339.582,-193.351 338.479,-200.264"/>
</g>
<!-- Node15 -->
<g id="node15" class="node"><title>Node15</title>
<g id="a_node15"><a xlink:href="class_tracker_pipeline.html#a15a827599e042391ef455a68840c626c" target="_top" xlink:title="TrackerPipeline::AddTarget\lImage">
<polygon fill="white" stroke="black" points="162.5,-115 162.5,-145 297.5,-145 297.5,-115 162.5,-115"/>
<text text-anchor="start" x="170.5" y="-133" font-family="Helvetica,sans-Serif" font-size="10.00">TrackerPipeline::AddTarget</text>
<text text-anchor="middle" x="230" y="-122" font-family="Helvetica,sans-Serif" font-size="10.00">Image</text>
</a>
</g>
</g>
<!-- Node1&#45;&gt;Node15 -->
<g id="edge15" class="edge"><title>Node1&#45;&gt;Node15</title>
<path fill="none" stroke="midnightblue" d="M94.3214,-164.453C113.6,-159.521 137.745,-153.344 160.247,-147.588"/>
<polygon fill="midnightblue" stroke="midnightblue" points="161.288,-150.935 170.108,-145.065 159.553,-144.153 161.288,-150.935"/>
</g>
<!-- Node19 -->
<g id="node19" class="node"><title>Node19</title>
<g id="a_node19"><a xlink:href="class_tracker_pipeline.html#a7095a927792abd7c765d4c08dafb6e33" target="_top" xlink:title="TrackerPipeline::AddSmoother">
<polygon fill="white" stroke="black" points="155.5,-76.5 155.5,-95.5 304.5,-95.5 304.5,-76.5 155.5,-76.5"/>
<text text-anchor="middle" x="230" y="-83.5" font-family="Helvetica,sans-Serif" font-size="10.00">TrackerPipeline::AddSmoother</text>
</a>
</g>
</g>
<!-- Node1&#45;&gt;Node19 -->
<g id="edge19" class="edge"><title>Node1&#45;&gt;Node19</title>
<path fill="none" stroke="midnightblue" d="M67.0201,-164.331C82.8926,-149.551 115.375,-121.435 148,-106 154.07,-103.128 160.598,-100.641 167.219,-98.4923"/>
<polygon fill="midnightblue" stroke="midnightblue" points="168.366,-101.802 176.943,-95.5823 166.359,-95.0962 168.366,-101.802"/>
</g>
<!-- Node20 -->
<g id="node20" class="node"><title>Node20</title>
<g id="a_node20"><a xlink:href="class_tracker_pipeline.html#a8164d59907fd0948082c7bbb4b84d941" target="_top" xlink:title="TrackerPipeline::InitRecognizer">
<polygon fill="white" stroke="black" points="153.5,-38.5 153.5,-57.5 306.5,-57.5 306.5,-38.5 153.5,-38.5"/>
<text text-anchor="middle" x="230" y="-45.5" font-family="Helvetica,sans-Serif" font-size="10.00">TrackerPipeline::InitRecognizer</text>
</a>
</g>
</g>
<!-- Node1&#45;&gt;Node20 -->
<g id="edge20" class="edge"><title>Node1&#45;&gt;Node20</title>
<path fill="none" stroke="midnightblue" d="M62.3654,-164.21C74.5687,-142.919 106.583,-92.2913 148,-67 151.606,-64.7981 155.445,-62.8513 159.417,-61.1302"/>
<polygon fill="midnightblue" stroke="midnightblue" points="160.791,-64.352 168.88,-57.5095 158.29,-57.8142 160.791,-64.352"/>
</g>
<!-- Node21 -->
<g id="node21" class="node"><title>Node21</title>
<g id="a_node21"><a xlink:href="class_tracker_pipeline.html#a25dfcd851ca745d5314783adc173079b" target="_top" xlink:title="TrackerPipeline::InitTracker">
<polygon fill="white" stroke="black" points="161.5,-0.5 161.5,-19.5 298.5,-19.5 298.5,-0.5 161.5,-0.5"/>
<text text-anchor="middle" x="230" y="-7.5" font-family="Helvetica,sans-Serif" font-size="10.00">TrackerPipeline::InitTracker</text>
</a>
</g>
</g>
<!-- Node1&#45;&gt;Node21 -->
<g id="edge21" class="edge"><title>Node1&#45;&gt;Node21</title>
<path fill="none" stroke="midnightblue" d="M60.0929,-164.409C69.0635,-138.199 97.7005,-64.9374 148,-29 150.703,-27.0687 153.574,-25.3311 156.562,-23.7679"/>
<polygon fill="midnightblue" stroke="midnightblue" points="158.149,-26.8912 165.82,-19.5825 155.266,-20.5127 158.149,-26.8912"/>
</g>
<!-- Node5&#45;&gt;Node6 -->
<g id="edge5" class="edge"><title>Node5&#45;&gt;Node6</title>
<path fill="none" stroke="midnightblue" d="M312.065,-212C320.873,-212 329.845,-212 338.673,-212"/>
<polygon fill="midnightblue" stroke="midnightblue" points="338.951,-215.5 348.951,-212 338.951,-208.5 338.951,-215.5"/>
</g>
<!-- Node7 -->
<g id="node7" class="node"><title>Node7</title>
<g id="a_node7"><a xlink:href="class_a_r_trackable.html#a445a8894d99c98bc966ebff530d58278" target="_top" xlink:title="Completes an update begun in the parent class, performing filtering, generating OpenGL view matrix an...">
<polygon fill="white" stroke="black" points="533,-202.5 533,-221.5 642,-221.5 642,-202.5 533,-202.5"/>
<text text-anchor="middle" x="587.5" y="-209.5" font-family="Helvetica,sans-Serif" font-size="10.00">ARTrackable::update</text>
</a>
</g>
</g>
<!-- Node6&#45;&gt;Node7 -->
<g id="edge6" class="edge"><title>Node6&#45;&gt;Node7</title>
<path fill="none" stroke="midnightblue" d="M496.418,-212C505.096,-212 513.905,-212 522.446,-212"/>
<polygon fill="midnightblue" stroke="midnightblue" points="522.704,-215.5 532.704,-212 522.704,-208.5 522.704,-215.5"/>
</g>
<!-- Node8 -->
<g id="node8" class="node"><title>Node8</title>
<g id="a_node8"><a xlink:href="ar_filter_trans_mat_8c.html#a575d29079692c1af23b19f0477ee2123" target="_top" xlink:title="Filters the supplied pose estimate transformation matrix in&#45;place. ">
<polygon fill="white" stroke="black" points="687.5,-259.5 687.5,-278.5 775.5,-278.5 775.5,-259.5 687.5,-259.5"/>
<text text-anchor="middle" x="731.5" y="-266.5" font-family="Helvetica,sans-Serif" font-size="10.00">arFilterTransMat</text>
</a>
</g>
</g>
<!-- Node7&#45;&gt;Node8 -->
<g id="edge7" class="edge"><title>Node7&#45;&gt;Node8</title>
<path fill="none" stroke="midnightblue" d="M610.067,-221.546C628.112,-229.438 654.59,-240.802 678,-250 682.948,-251.944 688.185,-253.927 693.361,-255.843"/>
<polygon fill="midnightblue" stroke="midnightblue" points="692.552,-259.274 703.146,-259.418 694.954,-252.699 692.552,-259.274"/>
</g>
<!-- Node12 -->
<g id="node12" class="node"><title>Node12</title>
<g id="a_node12"><a xlink:href="param_g_l_8h.html#a069eee4b7a32208a45b8c438283e9a7f" target="_top" xlink:title="arglCameraViewRHf">
<polygon fill="white" stroke="black" points="678,-221.5 678,-240.5 785,-240.5 785,-221.5 678,-221.5"/>
<text text-anchor="middle" x="731.5" y="-228.5" font-family="Helvetica,sans-Serif" font-size="10.00">arglCameraViewRHf</text>
</a>
</g>
</g>
<!-- Node7&#45;&gt;Node12 -->
<g id="edge11" class="edge"><title>Node7&#45;&gt;Node12</title>
<path fill="none" stroke="midnightblue" d="M642.184,-219.183C650.539,-220.301 659.234,-221.464 667.768,-222.606"/>
<polygon fill="midnightblue" stroke="midnightblue" points="667.305,-226.075 677.681,-223.933 668.234,-219.137 667.305,-226.075"/>
</g>
<!-- Node13 -->
<g id="node13" class="node"><title>Node13</title>
<g id="a_node13"><a xlink:href="param_g_l_8h.html#a21250f8dd05058fe653e4a0116e7f592" target="_top" xlink:title="Create an OpenGL viewing transformation matrix. ">
<polygon fill="white" stroke="black" points="679.5,-183.5 679.5,-202.5 783.5,-202.5 783.5,-183.5 679.5,-183.5"/>
<text text-anchor="middle" x="731.5" y="-190.5" font-family="Helvetica,sans-Serif" font-size="10.00">arglCameraViewRH</text>
</a>
</g>
</g>
<!-- Node7&#45;&gt;Node13 -->
<g id="edge12" class="edge"><title>Node7&#45;&gt;Node13</title>
<path fill="none" stroke="midnightblue" d="M642.184,-204.817C650.972,-203.641 660.137,-202.415 669.094,-201.216"/>
<polygon fill="midnightblue" stroke="midnightblue" points="669.64,-204.675 679.087,-199.879 668.711,-197.736 669.64,-204.675"/>
</g>
<!-- Node14 -->
<g id="node14" class="node"><title>Node14</title>
<g id="a_node14"><a xlink:href="ar_util_8c.html#ae28eeba3e16224a7d77b46bd34b8f4fe" target="_top" xlink:title="arUtilMatMul">
<polygon fill="white" stroke="black" points="695.5,-145.5 695.5,-164.5 767.5,-164.5 767.5,-145.5 695.5,-145.5"/>
<text text-anchor="middle" x="731.5" y="-152.5" font-family="Helvetica,sans-Serif" font-size="10.00">arUtilMatMul</text>
</a>
</g>
</g>
<!-- Node7&#45;&gt;Node14 -->
<g id="edge13" class="edge"><title>Node7&#45;&gt;Node14</title>
<path fill="none" stroke="midnightblue" d="M610.067,-202.454C628.112,-194.562 654.59,-183.198 678,-174 682.948,-172.056 688.185,-170.073 693.361,-168.157"/>
<polygon fill="midnightblue" stroke="midnightblue" points="694.954,-171.301 703.146,-164.582 692.552,-164.726 694.954,-171.301"/>
</g>
<!-- Node9 -->
<g id="node9" class="node"><title>Node9</title>
<g id="a_node9"><a xlink:href="ar_util_8c.html#adb4a9f8d233d3b954fd85bbb3deda173" target="_top" xlink:title="arUtilMat2QuatPos">
<polygon fill="white" stroke="black" points="821,-297.5 821,-316.5 921,-316.5 921,-297.5 821,-297.5"/>
<text text-anchor="middle" x="871" y="-304.5" font-family="Helvetica,sans-Serif" font-size="10.00">arUtilMat2QuatPos</text>
</a>
</g>
</g>
<!-- Node8&#45;&gt;Node9 -->
<g id="edge8" class="edge"><title>Node8&#45;&gt;Node9</title>
<path fill="none" stroke="midnightblue" d="M767.197,-278.589C784.866,-283.472 806.549,-289.464 825.439,-294.685"/>
<polygon fill="midnightblue" stroke="midnightblue" points="824.743,-298.124 835.314,-297.414 826.608,-291.377 824.743,-298.124"/>
</g>
<!-- Node10 -->
<g id="node10" class="node"><title>Node10</title>
<g id="a_node10"><a xlink:href="ar_util_8c.html#aa543b10d8b401ccf5626aba7dfa12e09" target="_top" xlink:title="arUtilQuatNorm">
<polygon fill="white" stroke="black" points="828.5,-259.5 828.5,-278.5 913.5,-278.5 913.5,-259.5 828.5,-259.5"/>
<text text-anchor="middle" x="871" y="-266.5" font-family="Helvetica,sans-Serif" font-size="10.00">arUtilQuatNorm</text>
</a>
</g>
</g>
<!-- Node8&#45;&gt;Node10 -->
<g id="edge9" class="edge"><title>Node8&#45;&gt;Node10</title>
<path fill="none" stroke="midnightblue" d="M775.629,-269C789.191,-269 804.306,-269 818.395,-269"/>
<polygon fill="midnightblue" stroke="midnightblue" points="818.435,-272.5 828.435,-269 818.435,-265.5 818.435,-272.5"/>
</g>
<!-- Node11 -->
<g id="node11" class="node"><title>Node11</title>
<g id="a_node11"><a xlink:href="ar_util_8c.html#a016bf9cc45eee7cd9eae471cecc68e9a" target="_top" xlink:title="arUtilQuatPos2Mat">
<polygon fill="white" stroke="black" points="821,-221.5 821,-240.5 921,-240.5 921,-221.5 821,-221.5"/>
<text text-anchor="middle" x="871" y="-228.5" font-family="Helvetica,sans-Serif" font-size="10.00">arUtilQuatPos2Mat</text>
</a>
</g>
</g>
<!-- Node8&#45;&gt;Node11 -->
<g id="edge10" class="edge"><title>Node8&#45;&gt;Node11</title>
<path fill="none" stroke="midnightblue" d="M767.197,-259.411C784.866,-254.528 806.549,-248.536 825.439,-243.315"/>
<polygon fill="midnightblue" stroke="midnightblue" points="826.608,-246.623 835.314,-240.586 824.743,-239.876 826.608,-246.623"/>
</g>
<!-- Node16 -->
<g id="node16" class="node"><title>Node16</title>
<g id="a_node16"><a xlink:href="class_a_r_trackable2_d.html#a077b2f77ba3440b291a5e7ea56fd72ca" target="_top" xlink:title="ARTrackable2D::getRefImage\lWidth">
<polygon fill="white" stroke="black" points="348,-148 348,-178 497,-178 497,-148 348,-148"/>
<text text-anchor="start" x="356" y="-166" font-family="Helvetica,sans-Serif" font-size="10.00">ARTrackable2D::getRefImage</text>
<text text-anchor="middle" x="422.5" y="-155" font-family="Helvetica,sans-Serif" font-size="10.00">Width</text>
</a>
</g>
</g>
<!-- Node15&#45;&gt;Node16 -->
<g id="edge16" class="edge"><title>Node15&#45;&gt;Node16</title>
<path fill="none" stroke="midnightblue" d="M297.628,-141.542C310.538,-143.778 324.222,-146.149 337.603,-148.467"/>
<polygon fill="midnightblue" stroke="midnightblue" points="337.308,-151.968 347.758,-150.226 338.502,-145.07 337.308,-151.968"/>
</g>
<!-- Node17 -->
<g id="node17" class="node"><title>Node17</title>
<g id="a_node17"><a xlink:href="class_a_r_trackable2_d.html#a53f04623f5ed8f039b0a357073a99fb8" target="_top" xlink:title="ARTrackable2D::getRefImage\lHeight">
<polygon fill="white" stroke="black" points="348,-99 348,-129 497,-129 497,-99 348,-99"/>
<text text-anchor="start" x="356" y="-117" font-family="Helvetica,sans-Serif" font-size="10.00">ARTrackable2D::getRefImage</text>
<text text-anchor="middle" x="422.5" y="-106" font-family="Helvetica,sans-Serif" font-size="10.00">Height</text>
</a>
</g>
</g>
<!-- Node15&#45;&gt;Node17 -->
<g id="edge17" class="edge"><title>Node15&#45;&gt;Node17</title>
<path fill="none" stroke="midnightblue" d="M297.628,-124.404C310.538,-123.32 324.222,-122.17 337.603,-121.046"/>
<polygon fill="midnightblue" stroke="midnightblue" points="338.086,-124.518 347.758,-120.194 337.5,-117.543 338.086,-124.518"/>
</g>
<!-- Node18 -->
<g id="node18" class="node"><title>Node18</title>
<g id="a_node18"><a xlink:href="class_a_r_trackable2_d.html#aa627214d857b1c6eb9f884c70407e256" target="_top" xlink:title="ARTrackable2D::getRefImage">
<polygon fill="white" stroke="black" points="348,-60.5 348,-79.5 497,-79.5 497,-60.5 348,-60.5"/>
<text text-anchor="middle" x="422.5" y="-67.5" font-family="Helvetica,sans-Serif" font-size="10.00">ARTrackable2D::getRefImage</text>
</a>
</g>
</g>
<!-- Node15&#45;&gt;Node18 -->
<g id="edge18" class="edge"><title>Node15&#45;&gt;Node18</title>
<path fill="none" stroke="midnightblue" d="M282.233,-114.999C292.165,-111.863 302.451,-108.454 312,-105 328.3,-99.104 331.603,-95.6206 348,-90 356.002,-87.2569 364.595,-84.6359 372.983,-82.2472"/>
<polygon fill="midnightblue" stroke="midnightblue" points="373.986,-85.6011 382.688,-79.5565 372.116,-78.8555 373.986,-85.6011"/>
</g>
</g>
</svg>
