<?xml version="1.0" encoding="UTF-8" standalone="no"?>
<!DOCTYPE svg PUBLIC "-//W3C//DTD SVG 1.1//EN"
 "http://www.w3.org/Graphics/SVG/1.1/DTD/svg11.dtd">
<!-- Generated by graphviz version 2.38.0 (20140413.2041)
 -->
<!-- Title: ARVideoSource::captureFrame Pages: 1 -->
<svg width="710pt" height="560pt"
 viewBox="0.00 0.00 710.00 560.00" xmlns="http://www.w3.org/2000/svg" xmlns:xlink="http://www.w3.org/1999/xlink">
<g id="graph0" class="graph" transform="scale(1 1) rotate(0) translate(4 556)">
<title>ARVideoSource::captureFrame</title>
<polygon fill="white" stroke="none" points="-4,4 -4,-556 706,-556 706,4 -4,4"/>
<!-- Node1 -->
<g id="node1" class="node"><title>Node1</title>
<polygon fill="#bfbfbf" stroke="black" points="0,-342.5 0,-361.5 152,-361.5 152,-342.5 0,-342.5"/>
<text text-anchor="middle" x="76" y="-349.5" font-family="Helvetica,sans-Serif" font-size="10.00">ARVideoSource::captureFrame</text>
</g>
<!-- Node2 -->
<g id="node2" class="node"><title>Node2</title>
<g id="a_node2"><a xlink:href="video_8h.html#a0dbd5f4535b07a354ab860dc1a28ba13" target="_top" xlink:title="ar2VideoGetImage">
<polygon fill="white" stroke="black" points="188,-342.5 188,-361.5 286,-361.5 286,-342.5 188,-342.5"/>
<text text-anchor="middle" x="237" y="-349.5" font-family="Helvetica,sans-Serif" font-size="10.00">ar2VideoGetImage</text>
</a>
</g>
</g>
<!-- Node1&#45;&gt;Node2 -->
<g id="edge1" class="edge"><title>Node1&#45;&gt;Node2</title>
<path fill="none" stroke="midnightblue" d="M152.309,-352C160.775,-352 169.304,-352 177.511,-352"/>
<polygon fill="midnightblue" stroke="midnightblue" points="177.706,-355.5 187.706,-352 177.706,-348.5 177.706,-355.5"/>
</g>
<!-- Node3 -->
<g id="node3" class="node"><title>Node3</title>
<g id="a_node3"><a xlink:href="video_dummy_8h.html#a9d99f8db2e250352a561ed1f4815d787" target="_top" xlink:title="ar2VideoGetImageDummy">
<polygon fill="white" stroke="black" points="335.5,-532.5 335.5,-551.5 467.5,-551.5 467.5,-532.5 335.5,-532.5"/>
<text text-anchor="middle" x="401.5" y="-539.5" font-family="Helvetica,sans-Serif" font-size="10.00">ar2VideoGetImageDummy</text>
</a>
</g>
</g>
<!-- Node2&#45;&gt;Node3 -->
<g id="edge2" class="edge"><title>Node2&#45;&gt;Node3</title>
<path fill="none" stroke="midnightblue" d="M239.743,-361.531C245.588,-390.651 267.292,-479.136 322,-523 324.181,-524.749 326.499,-526.34 328.918,-527.789"/>
<polygon fill="midnightblue" stroke="midnightblue" points="327.562,-531.025 338.063,-532.431 330.73,-524.784 327.562,-531.025"/>
</g>
<!-- Node4 -->
<g id="node4" class="node"><title>Node4</title>
<g id="a_node4"><a xlink:href="video_v4_l2_8h.html#a4ed571b37c42df8b8179d0fcc13e4dcf" target="_top" xlink:title="ar2VideoGetImageV4L2">
<polygon fill="white" stroke="black" points="341.5,-494.5 341.5,-513.5 461.5,-513.5 461.5,-494.5 341.5,-494.5"/>
<text text-anchor="middle" x="401.5" y="-501.5" font-family="Helvetica,sans-Serif" font-size="10.00">ar2VideoGetImageV4L2</text>
</a>
</g>
</g>
<!-- Node2&#45;&gt;Node4 -->
<g id="edge3" class="edge"><title>Node2&#45;&gt;Node4</title>
<path fill="none" stroke="midnightblue" d="M241.257,-361.846C250.012,-386.708 276.515,-452.358 322,-485 325.087,-487.215 328.399,-489.174 331.855,-490.906"/>
<polygon fill="midnightblue" stroke="midnightblue" points="330.714,-494.226 341.282,-494.983 333.493,-487.801 330.714,-494.226"/>
</g>
<!-- Node5 -->
<g id="node5" class="node"><title>Node5</title>
<g id="a_node5"><a xlink:href="video1394_8h.html#ab79fe53e260d3c16958b511e77625ea8" target="_top" xlink:title="ar2VideoGetImage1394">
<polygon fill="white" stroke="black" points="342,-456.5 342,-475.5 461,-475.5 461,-456.5 342,-456.5"/>
<text text-anchor="middle" x="401.5" y="-463.5" font-family="Helvetica,sans-Serif" font-size="10.00">ar2VideoGetImage1394</text>
</a>
</g>
</g>
<!-- Node2&#45;&gt;Node5 -->
<g id="edge4" class="edge"><title>Node2&#45;&gt;Node5</title>
<path fill="none" stroke="midnightblue" d="M243.588,-361.54C255.434,-380.877 285.036,-424.736 322,-447 325.648,-449.198 329.536,-451.141 333.555,-452.86"/>
<polygon fill="midnightblue" stroke="midnightblue" points="332.529,-456.214 343.12,-456.477 335.005,-449.666 332.529,-456.214"/>
</g>
<!-- Node6 -->
<g id="node6" class="node"><title>Node6</title>
<g id="a_node6"><a xlink:href="video_a_v_foundation_8h.html#aad99b0428037a3f727de35853639b851" target="_top" xlink:title="ar2VideoGetImageAVFoundation">
<polygon fill="white" stroke="black" points="322,-418.5 322,-437.5 481,-437.5 481,-418.5 322,-418.5"/>
<text text-anchor="middle" x="401.5" y="-425.5" font-family="Helvetica,sans-Serif" font-size="10.00">ar2VideoGetImageAVFoundation</text>
</a>
</g>
</g>
<!-- Node2&#45;&gt;Node6 -->
<g id="edge5" class="edge"><title>Node2&#45;&gt;Node6</title>
<path fill="none" stroke="midnightblue" d="M249.173,-361.541C264.571,-374.21 293.638,-396.442 322,-409 327.637,-411.496 333.654,-413.695 339.753,-415.626"/>
<polygon fill="midnightblue" stroke="midnightblue" points="338.782,-418.989 349.363,-418.443 340.751,-412.271 338.782,-418.989"/>
</g>
<!-- Node7 -->
<g id="node7" class="node"><title>Node7</title>
<g id="a_node7"><a xlink:href="video_image_8h.html#a011bf1d53feddc3494993d92115cc1ed" target="_top" xlink:title="ar2VideoGetImageImage">
<polygon fill="white" stroke="black" points="339,-380.5 339,-399.5 464,-399.5 464,-380.5 339,-380.5"/>
<text text-anchor="middle" x="401.5" y="-387.5" font-family="Helvetica,sans-Serif" font-size="10.00">ar2VideoGetImageImage</text>
</a>
</g>
</g>
<!-- Node2&#45;&gt;Node7 -->
<g id="edge6" class="edge"><title>Node2&#45;&gt;Node7</title>
<path fill="none" stroke="midnightblue" d="M279.006,-361.589C300.546,-366.626 327.135,-372.844 349.941,-378.177"/>
<polygon fill="midnightblue" stroke="midnightblue" points="349.255,-381.611 359.789,-380.48 350.849,-374.795 349.255,-381.611"/>
</g>
<!-- Node8 -->
<g id="node8" class="node"><title>Node8</title>
<g id="a_node8"><a xlink:href="video_android_8h.html#a1a25a95765371fcdbf082424d4417661" target="_top" xlink:title="ar2VideoGetImageAndroid">
<polygon fill="white" stroke="black" points="336,-342.5 336,-361.5 467,-361.5 467,-342.5 336,-342.5"/>
<text text-anchor="middle" x="401.5" y="-349.5" font-family="Helvetica,sans-Serif" font-size="10.00">ar2VideoGetImageAndroid</text>
</a>
</g>
</g>
<!-- Node2&#45;&gt;Node8 -->
<g id="edge7" class="edge"><title>Node2&#45;&gt;Node8</title>
<path fill="none" stroke="midnightblue" d="M286.315,-352C298.691,-352 312.294,-352 325.664,-352"/>
<polygon fill="midnightblue" stroke="midnightblue" points="325.818,-355.5 335.818,-352 325.818,-348.5 325.818,-355.5"/>
</g>
<!-- Node9 -->
<g id="node9" class="node"><title>Node9</title>
<g id="a_node9"><a xlink:href="time_8h.html#ab80828fdf39cd90319db43f6b56b0948" target="_top" xlink:title="Get the time in seconds since midnight (00:00:00), January 1, 1970, coordinated universal time (UTC)...">
<polygon fill="white" stroke="black" points="344.5,-304.5 344.5,-323.5 458.5,-323.5 458.5,-304.5 344.5,-304.5"/>
<text text-anchor="middle" x="401.5" y="-311.5" font-family="Helvetica,sans-Serif" font-size="10.00">arUtilTimeSinceEpoch</text>
</a>
</g>
</g>
<!-- Node2&#45;&gt;Node9 -->
<g id="edge8" class="edge"><title>Node2&#45;&gt;Node9</title>
<path fill="none" stroke="midnightblue" d="M279.006,-342.411C300.546,-337.374 327.135,-331.156 349.941,-325.823"/>
<polygon fill="midnightblue" stroke="midnightblue" points="350.849,-329.205 359.789,-323.52 349.255,-322.389 350.849,-329.205"/>
</g>
<!-- Node10 -->
<g id="node10" class="node"><title>Node10</title>
<g id="a_node10"><a xlink:href="video2_8c.html#a7780fac88f8c59974d8d9fe6d4a8047a" target="_top" xlink:title="ar2VideoGetPixelFormat">
<polygon fill="white" stroke="black" points="340,-266.5 340,-285.5 463,-285.5 463,-266.5 340,-266.5"/>
<text text-anchor="middle" x="401.5" y="-273.5" font-family="Helvetica,sans-Serif" font-size="10.00">ar2VideoGetPixelFormat</text>
</a>
</g>
</g>
<!-- Node2&#45;&gt;Node10 -->
<g id="edge9" class="edge"><title>Node2&#45;&gt;Node10</title>
<path fill="none" stroke="midnightblue" d="M249.173,-342.459C264.571,-329.79 293.638,-307.558 322,-295 327.637,-292.504 333.654,-290.305 339.753,-288.374"/>
<polygon fill="midnightblue" stroke="midnightblue" points="340.751,-291.729 349.363,-285.557 338.782,-285.011 340.751,-291.729"/>
</g>
<!-- Node17 -->
<g id="node17" class="node"><title>Node17</title>
<g id="a_node17"><a xlink:href="video2_8c.html#acc7f53f8bda5c4e3fc3a9c662b5196fb" target="_top" xlink:title="ar2VideoGetSize">
<polygon fill="white" stroke="black" points="356.5,-152.5 356.5,-171.5 446.5,-171.5 446.5,-152.5 356.5,-152.5"/>
<text text-anchor="middle" x="401.5" y="-159.5" font-family="Helvetica,sans-Serif" font-size="10.00">ar2VideoGetSize</text>
</a>
</g>
</g>
<!-- Node2&#45;&gt;Node17 -->
<g id="edge16" class="edge"><title>Node2&#45;&gt;Node17</title>
<path fill="none" stroke="midnightblue" d="M246.282,-342.317C272.137,-312.086 351.634,-219.135 385.245,-179.837"/>
<polygon fill="midnightblue" stroke="midnightblue" points="388.2,-181.766 392.04,-171.892 382.88,-177.216 388.2,-181.766"/>
</g>
<!-- Node24 -->
<g id="node24" class="node"><title>Node24</title>
<g id="a_node24"><a xlink:href="video_luma_8h.html#a6d74b1b7f2c20f3e81e3c416f2154267" target="_top" xlink:title="arVideoLumaInit">
<polygon fill="white" stroke="black" points="358,-114.5 358,-133.5 445,-133.5 445,-114.5 358,-114.5"/>
<text text-anchor="middle" x="401.5" y="-121.5" font-family="Helvetica,sans-Serif" font-size="10.00">arVideoLumaInit</text>
</a>
</g>
</g>
<!-- Node2&#45;&gt;Node24 -->
<g id="edge23" class="edge"><title>Node2&#45;&gt;Node24</title>
<path fill="none" stroke="midnightblue" d="M238.832,-342.334C242.234,-309.057 258.111,-198.255 322,-143 329.399,-136.601 338.596,-132.278 348.06,-129.376"/>
<polygon fill="midnightblue" stroke="midnightblue" points="349.139,-132.713 357.956,-126.838 347.4,-125.932 349.139,-132.713"/>
</g>
<!-- Node25 -->
<g id="node25" class="node"><title>Node25</title>
<g id="a_node25"><a xlink:href="video_luma_8h.html#a639d18be34603fc2ab1835ee493baf55" target="_top" xlink:title="arVideoLuma">
<polygon fill="white" stroke="black" points="364.5,-76.5 364.5,-95.5 438.5,-95.5 438.5,-76.5 364.5,-76.5"/>
<text text-anchor="middle" x="401.5" y="-83.5" font-family="Helvetica,sans-Serif" font-size="10.00">arVideoLuma</text>
</a>
</g>
</g>
<!-- Node2&#45;&gt;Node25 -->
<g id="edge24" class="edge"><title>Node2&#45;&gt;Node25</title>
<path fill="none" stroke="midnightblue" d="M238.159,-342.458C239.314,-305.709 248.597,-172.054 322,-105 330.808,-96.954 342.431,-92.1574 354.027,-89.3392"/>
<polygon fill="midnightblue" stroke="midnightblue" points="355.006,-92.7133 364.137,-87.3398 353.648,-85.8463 355.006,-92.7133"/>
</g>
<!-- Node11 -->
<g id="node11" class="node"><title>Node11</title>
<g id="a_node11"><a xlink:href="video_dummy_8h.html#aef5bd63c5abf5e4479664647c084644b" target="_top" xlink:title="ar2VideoGetPixelFormatDummy">
<polygon fill="white" stroke="black" points="530.5,-418.5 530.5,-437.5 688.5,-437.5 688.5,-418.5 530.5,-418.5"/>
<text text-anchor="middle" x="609.5" y="-425.5" font-family="Helvetica,sans-Serif" font-size="10.00">ar2VideoGetPixelFormatDummy</text>
</a>
</g>
</g>
<!-- Node10&#45;&gt;Node11 -->
<g id="edge10" class="edge"><title>Node10&#45;&gt;Node11</title>
<path fill="none" stroke="midnightblue" d="M463.232,-283.813C469.759,-286.574 475.876,-290.215 481,-295 519.834,-331.264 477.578,-373.376 517,-409 518.712,-410.547 520.515,-411.98 522.396,-413.308"/>
<polygon fill="midnightblue" stroke="midnightblue" points="520.7,-416.372 531.083,-418.48 524.281,-410.357 520.7,-416.372"/>
</g>
<!-- Node12 -->
<g id="node12" class="node"><title>Node12</title>
<g id="a_node12"><a xlink:href="video_v4_l2_8h.html#aab61669af9d839aa23ecd79d1c4bde5a" target="_top" xlink:title="ar2VideoGetPixelFormatV4L2">
<polygon fill="white" stroke="black" points="536.5,-380.5 536.5,-399.5 682.5,-399.5 682.5,-380.5 536.5,-380.5"/>
<text text-anchor="middle" x="609.5" y="-387.5" font-family="Helvetica,sans-Serif" font-size="10.00">ar2VideoGetPixelFormatV4L2</text>
</a>
</g>
</g>
<!-- Node10&#45;&gt;Node12 -->
<g id="edge11" class="edge"><title>Node10&#45;&gt;Node12</title>
<path fill="none" stroke="midnightblue" d="M463.019,-284.673C469.505,-287.292 475.67,-290.664 481,-295 509.993,-318.587 487.625,-347.891 517,-371 520.138,-373.469 523.518,-375.638 527.065,-377.544"/>
<polygon fill="midnightblue" stroke="midnightblue" points="525.636,-380.739 536.182,-381.755 528.571,-374.384 525.636,-380.739"/>
</g>
<!-- Node13 -->
<g id="node13" class="node"><title>Node13</title>
<g id="a_node13"><a xlink:href="video1394_8h.html#a1eb40205f18baab9d12c0bc187e9b50e" target="_top" xlink:title="ar2VideoGetPixelFormat1394">
<polygon fill="white" stroke="black" points="537.5,-342.5 537.5,-361.5 681.5,-361.5 681.5,-342.5 537.5,-342.5"/>
<text text-anchor="middle" x="609.5" y="-349.5" font-family="Helvetica,sans-Serif" font-size="10.00">ar2VideoGetPixelFormat1394</text>
</a>
</g>
</g>
<!-- Node10&#45;&gt;Node13 -->
<g id="edge12" class="edge"><title>Node10&#45;&gt;Node13</title>
<path fill="none" stroke="midnightblue" d="M459.344,-285.598C466.897,-288.054 474.326,-291.135 481,-295 501.132,-306.659 496.68,-321.672 517,-333 521.014,-335.238 525.261,-337.213 529.638,-338.957"/>
<polygon fill="midnightblue" stroke="midnightblue" points="528.799,-342.372 539.393,-342.415 531.138,-335.775 528.799,-342.372"/>
</g>
<!-- Node14 -->
<g id="node14" class="node"><title>Node14</title>
<g id="a_node14"><a xlink:href="video_a_v_foundation_8h.html#a98d99736ba21ff6f85c9da3e0e2acab8" target="_top" xlink:title="ar2VideoGetPixelFormatAVFoundation">
<polygon fill="white" stroke="black" points="517,-304.5 517,-323.5 702,-323.5 702,-304.5 517,-304.5"/>
<text text-anchor="middle" x="609.5" y="-311.5" font-family="Helvetica,sans-Serif" font-size="10.00">ar2VideoGetPixelFormatAVFoundation</text>
</a>
</g>
</g>
<!-- Node10&#45;&gt;Node14 -->
<g id="edge13" class="edge"><title>Node10&#45;&gt;Node14</title>
<path fill="none" stroke="midnightblue" d="M454.217,-285.54C482.256,-290.712 517.102,-297.14 546.579,-302.578"/>
<polygon fill="midnightblue" stroke="midnightblue" points="546.293,-306.084 556.762,-304.456 547.563,-299.2 546.293,-306.084"/>
</g>
<!-- Node15 -->
<g id="node15" class="node"><title>Node15</title>
<g id="a_node15"><a xlink:href="video_image_8h.html#a4e14913d6bea4a02cd3d17ddd95e2544" target="_top" xlink:title="ar2VideoGetPixelFormatImage">
<polygon fill="white" stroke="black" points="534.5,-266.5 534.5,-285.5 684.5,-285.5 684.5,-266.5 534.5,-266.5"/>
<text text-anchor="middle" x="609.5" y="-273.5" font-family="Helvetica,sans-Serif" font-size="10.00">ar2VideoGetPixelFormatImage</text>
</a>
</g>
</g>
<!-- Node10&#45;&gt;Node15 -->
<g id="edge14" class="edge"><title>Node10&#45;&gt;Node15</title>
<path fill="none" stroke="midnightblue" d="M463.193,-276C482.28,-276 503.713,-276 524.136,-276"/>
<polygon fill="midnightblue" stroke="midnightblue" points="524.384,-279.5 534.384,-276 524.384,-272.5 524.384,-279.5"/>
</g>
<!-- Node16 -->
<g id="node16" class="node"><title>Node16</title>
<g id="a_node16"><a xlink:href="video_android_8h.html#ac511ed131837c08ea6f17725dd87d2bc" target="_top" xlink:title="ar2VideoGetPixelFormatAndroid">
<polygon fill="white" stroke="black" points="531.5,-228.5 531.5,-247.5 687.5,-247.5 687.5,-228.5 531.5,-228.5"/>
<text text-anchor="middle" x="609.5" y="-235.5" font-family="Helvetica,sans-Serif" font-size="10.00">ar2VideoGetPixelFormatAndroid</text>
</a>
</g>
</g>
<!-- Node10&#45;&gt;Node16 -->
<g id="edge15" class="edge"><title>Node10&#45;&gt;Node16</title>
<path fill="none" stroke="midnightblue" d="M454.217,-266.46C482.256,-261.288 517.102,-254.86 546.579,-249.422"/>
<polygon fill="midnightblue" stroke="midnightblue" points="547.563,-252.8 556.762,-247.544 546.293,-245.916 547.563,-252.8"/>
</g>
<!-- Node18 -->
<g id="node18" class="node"><title>Node18</title>
<g id="a_node18"><a xlink:href="video_dummy_8h.html#a98be3ece55a3751acf6653ccd4d76c57" target="_top" xlink:title="ar2VideoGetSizeDummy">
<polygon fill="white" stroke="black" points="547,-190.5 547,-209.5 672,-209.5 672,-190.5 547,-190.5"/>
<text text-anchor="middle" x="609.5" y="-197.5" font-family="Helvetica,sans-Serif" font-size="10.00">ar2VideoGetSizeDummy</text>
</a>
</g>
</g>
<!-- Node17&#45;&gt;Node18 -->
<g id="edge17" class="edge"><title>Node17&#45;&gt;Node18</title>
<path fill="none" stroke="midnightblue" d="M446.692,-170.152C475.815,-175.524 514.371,-182.636 546.54,-188.571"/>
<polygon fill="midnightblue" stroke="midnightblue" points="546.272,-192.08 556.741,-190.452 547.542,-185.196 546.272,-192.08"/>
</g>
<!-- Node19 -->
<g id="node19" class="node"><title>Node19</title>
<g id="a_node19"><a xlink:href="video_v4_l2_8h.html#a4cd15e53200db9db8334fa4c42fc1b56" target="_top" xlink:title="ar2VideoGetSizeV4L2">
<polygon fill="white" stroke="black" points="553,-152.5 553,-171.5 666,-171.5 666,-152.5 553,-152.5"/>
<text text-anchor="middle" x="609.5" y="-159.5" font-family="Helvetica,sans-Serif" font-size="10.00">ar2VideoGetSizeV4L2</text>
</a>
</g>
</g>
<!-- Node17&#45;&gt;Node19 -->
<g id="edge18" class="edge"><title>Node17&#45;&gt;Node19</title>
<path fill="none" stroke="midnightblue" d="M446.692,-162C474.627,-162 511.24,-162 542.572,-162"/>
<polygon fill="midnightblue" stroke="midnightblue" points="542.975,-165.5 552.975,-162 542.975,-158.5 542.975,-165.5"/>
</g>
<!-- Node20 -->
<g id="node20" class="node"><title>Node20</title>
<g id="a_node20"><a xlink:href="video1394_8h.html#a8edcf3e75cdc9d9a0a46e5c949fe024c" target="_top" xlink:title="ar2VideoGetSize1394">
<polygon fill="white" stroke="black" points="554,-114.5 554,-133.5 665,-133.5 665,-114.5 554,-114.5"/>
<text text-anchor="middle" x="609.5" y="-121.5" font-family="Helvetica,sans-Serif" font-size="10.00">ar2VideoGetSize1394</text>
</a>
</g>
</g>
<!-- Node17&#45;&gt;Node20 -->
<g id="edge19" class="edge"><title>Node17&#45;&gt;Node20</title>
<path fill="none" stroke="midnightblue" d="M446.692,-153.848C475.815,-148.476 514.371,-141.364 546.54,-135.429"/>
<polygon fill="midnightblue" stroke="midnightblue" points="547.542,-138.804 556.741,-133.548 546.272,-131.92 547.542,-138.804"/>
</g>
<!-- Node21 -->
<g id="node21" class="node"><title>Node21</title>
<g id="a_node21"><a xlink:href="video_a_v_foundation_8h.html#a039c73ba8a3e6ec85abe801637b2be6f" target="_top" xlink:title="ar2VideoGetSizeAVFoundation">
<polygon fill="white" stroke="black" points="533.5,-76.5 533.5,-95.5 685.5,-95.5 685.5,-76.5 533.5,-76.5"/>
<text text-anchor="middle" x="609.5" y="-83.5" font-family="Helvetica,sans-Serif" font-size="10.00">ar2VideoGetSizeAVFoundation</text>
</a>
</g>
</g>
<!-- Node17&#45;&gt;Node21 -->
<g id="edge20" class="edge"><title>Node17&#45;&gt;Node21</title>
<path fill="none" stroke="midnightblue" d="M446.57,-155.987C458.282,-153.171 470.565,-149.044 481,-143 501.132,-131.341 496.68,-116.328 517,-105 521.014,-102.762 525.261,-100.787 529.638,-99.0433"/>
<polygon fill="midnightblue" stroke="midnightblue" points="531.138,-102.225 539.393,-95.5851 528.799,-95.6276 531.138,-102.225"/>
</g>
<!-- Node22 -->
<g id="node22" class="node"><title>Node22</title>
<g id="a_node22"><a xlink:href="video_image_8h.html#a0faf54541ccba547d219e20002c36302" target="_top" xlink:title="ar2VideoGetSizeImage">
<polygon fill="white" stroke="black" points="551,-38.5 551,-57.5 668,-57.5 668,-38.5 551,-38.5"/>
<text text-anchor="middle" x="609.5" y="-45.5" font-family="Helvetica,sans-Serif" font-size="10.00">ar2VideoGetSizeImage</text>
</a>
</g>
</g>
<!-- Node17&#45;&gt;Node22 -->
<g id="edge21" class="edge"><title>Node17&#45;&gt;Node22</title>
<path fill="none" stroke="midnightblue" d="M446.775,-158.347C458.882,-155.572 471.319,-150.876 481,-143 509.993,-119.413 487.625,-90.1095 517,-67 524.041,-61.4607 532.302,-57.4271 540.928,-54.5073"/>
<polygon fill="midnightblue" stroke="midnightblue" points="542.142,-57.8 550.778,-51.6631 540.2,-51.0748 542.142,-57.8"/>
</g>
<!-- Node23 -->
<g id="node23" class="node"><title>Node23</title>
<g id="a_node23"><a xlink:href="video_android_8h.html#aafb49599502c8ce1d9f2c360cbb86caa" target="_top" xlink:title="ar2VideoGetSizeAndroid">
<polygon fill="white" stroke="black" points="548,-0.5 548,-19.5 671,-19.5 671,-0.5 548,-0.5"/>
<text text-anchor="middle" x="609.5" y="-7.5" font-family="Helvetica,sans-Serif" font-size="10.00">ar2VideoGetSizeAndroid</text>
</a>
</g>
</g>
<!-- Node17&#45;&gt;Node23 -->
<g id="edge22" class="edge"><title>Node17&#45;&gt;Node23</title>
<path fill="none" stroke="midnightblue" d="M446.672,-159.349C459.059,-156.627 471.674,-151.709 481,-143 519.834,-106.736 477.578,-64.6235 517,-29 523.076,-23.5093 530.313,-19.4452 538.018,-16.4585"/>
<polygon fill="midnightblue" stroke="midnightblue" points="539.183,-19.76 547.6,-13.3263 537.008,-13.1064 539.183,-19.76"/>
</g>
</g>
</svg>
