<?xml version="1.0" encoding="UTF-8" standalone="no"?>
<!DOCTYPE svg PUBLIC "-//W3C//DTD SVG 1.1//EN"
 "http://www.w3.org/Graphics/SVG/1.1/DTD/svg11.dtd">
<!-- Generated by graphviz version 2.38.0 (20140413.2041)
 -->
<!-- Title: ARTrackerSquare::update Pages: 1 -->
<svg width="1189pt" height="828pt"
 viewBox="0.00 0.00 1189.00 827.50" xmlns="http://www.w3.org/2000/svg" xmlns:xlink="http://www.w3.org/1999/xlink">
<g id="graph0" class="graph" transform="scale(1 1) rotate(0) translate(4 823.5)">
<title>ARTrackerSquare::update</title>
<polygon fill="white" stroke="none" points="-4,4 -4,-823.5 1185,-823.5 1185,4 -4,4"/>
<!-- Node1 -->
<g id="node1" class="node"><title>Node1</title>
<polygon fill="#bfbfbf" stroke="black" points="0,-176 0,-195 130,-195 130,-176 0,-176"/>
<text text-anchor="middle" x="65" y="-183" font-family="Helvetica,sans-Serif" font-size="10.00">ARTrackerSquare::update</text>
</g>
<!-- Node2 -->
<g id="node2" class="node"><title>Node2</title>
<g id="a_node2"><a xlink:href="class_a_r_tracker_square.html#ad3779816b31db6d35d79f338c9d28162" target="_top" xlink:title="ARTrackerSquare::isRunning">
<polygon fill="white" stroke="black" points="166,-233 166,-252 310,-252 310,-233 166,-233"/>
<text text-anchor="middle" x="238" y="-240" font-family="Helvetica,sans-Serif" font-size="10.00">ARTrackerSquare::isRunning</text>
</a>
</g>
</g>
<!-- Node1&#45;&gt;Node2 -->
<g id="edge1" class="edge"><title>Node1&#45;&gt;Node2</title>
<path fill="none" stroke="midnightblue" d="M89.1997,-195.085C109.316,-203.211 139.312,-214.883 166,-223.5 173.261,-225.844 181.004,-228.13 188.607,-230.257"/>
<polygon fill="midnightblue" stroke="midnightblue" points="187.901,-233.692 198.47,-232.953 189.746,-226.94 187.901,-233.692"/>
</g>
<!-- Node3 -->
<g id="node3" class="node"><title>Node3</title>
<g id="a_node3"><a xlink:href="ar_detect_marker_8c.html#adeadff776d15aea8c84d0df8c1057993" target="_top" xlink:title="Detect markers in a video frame. ">
<polygon fill="white" stroke="black" points="196,-195 196,-214 280,-214 280,-195 196,-195"/>
<text text-anchor="middle" x="238" y="-202" font-family="Helvetica,sans-Serif" font-size="10.00">arDetectMarker</text>
</a>
</g>
</g>
<!-- Node1&#45;&gt;Node3 -->
<g id="edge2" class="edge"><title>Node1&#45;&gt;Node3</title>
<path fill="none" stroke="midnightblue" d="M130.161,-192.629C148.54,-194.671 168.325,-196.869 185.813,-198.813"/>
<polygon fill="midnightblue" stroke="midnightblue" points="185.491,-202.298 195.817,-199.924 186.265,-195.341 185.491,-202.298"/>
</g>
<!-- Node39 -->
<g id="node39" class="node"><title>Node39</title>
<g id="a_node39"><a xlink:href="ar_create_handle_8c.html#a7a7d62717225b316679764f034cf43fb" target="_top" xlink:title="Get information on the markers detected in a video frame. ">
<polygon fill="white" stroke="black" points="202.5,-157 202.5,-176 273.5,-176 273.5,-157 202.5,-157"/>
<text text-anchor="middle" x="238" y="-164" font-family="Helvetica,sans-Serif" font-size="10.00">arGetMarker</text>
</a>
</g>
</g>
<!-- Node1&#45;&gt;Node39 -->
<g id="edge49" class="edge"><title>Node1&#45;&gt;Node39</title>
<path fill="none" stroke="midnightblue" d="M130.161,-178.371C150.791,-176.079 173.192,-173.59 192.128,-171.486"/>
<polygon fill="midnightblue" stroke="midnightblue" points="192.706,-174.943 202.259,-170.36 191.933,-167.986 192.706,-174.943"/>
</g>
<!-- Node40 -->
<g id="node40" class="node"><title>Node40</title>
<g id="a_node40"><a xlink:href="ar_create_handle_8c.html#a0dfba3e38e7fdf62aa42bfa9d27b07b4" target="_top" xlink:title="Get the number of markers detected in a video frame. ">
<polygon fill="white" stroke="black" points="192,-119 192,-138 284,-138 284,-119 192,-119"/>
<text text-anchor="middle" x="238" y="-126" font-family="Helvetica,sans-Serif" font-size="10.00">arGetMarkerNum</text>
</a>
</g>
</g>
<!-- Node1&#45;&gt;Node40 -->
<g id="edge50" class="edge"><title>Node1&#45;&gt;Node40</title>
<path fill="none" stroke="midnightblue" d="M89.1997,-175.915C109.316,-167.789 139.312,-156.117 166,-147.5 173.261,-145.156 181.004,-142.87 188.607,-140.743"/>
<polygon fill="midnightblue" stroke="midnightblue" points="189.746,-144.06 198.47,-138.047 187.901,-137.308 189.746,-144.06"/>
</g>
<!-- Node4 -->
<g id="node4" class="node"><title>Node4</title>
<g id="a_node4"><a xlink:href="ar_labeling_8c.html#afff1a4731c179bd43f92e4c3d3b5e1fe" target="_top" xlink:title="arLabeling">
<polygon fill="white" stroke="black" points="400.5,-572 400.5,-591 461.5,-591 461.5,-572 400.5,-572"/>
<text text-anchor="middle" x="431" y="-579" font-family="Helvetica,sans-Serif" font-size="10.00">arLabeling</text>
</a>
</g>
</g>
<!-- Node3&#45;&gt;Node4 -->
<g id="edge3" class="edge"><title>Node3&#45;&gt;Node4</title>
<path fill="none" stroke="midnightblue" d="M280.028,-208.372C290.871,-211.161 301.818,-215.81 310,-223.5 310.411,-223.886 398.877,-488.413 423.631,-562.449"/>
<polygon fill="midnightblue" stroke="midnightblue" points="420.312,-563.562 426.803,-571.936 426.951,-561.342 420.312,-563.562"/>
</g>
<!-- Node17 -->
<g id="node17" class="node"><title>Node17</title>
<g id="a_node17"><a xlink:href="ar_detect_marker2_8c.html#a8885f3a9c2ae28575db17bc235752ea4" target="_top" xlink:title="arDetectMarker2">
<polygon fill="white" stroke="black" points="386.5,-302 386.5,-321 475.5,-321 475.5,-302 386.5,-302"/>
<text text-anchor="middle" x="431" y="-309" font-family="Helvetica,sans-Serif" font-size="10.00">arDetectMarker2</text>
</a>
</g>
</g>
<!-- Node3&#45;&gt;Node17 -->
<g id="edge16" class="edge"><title>Node3&#45;&gt;Node17</title>
<path fill="none" stroke="midnightblue" d="M280.199,-212.548C290.238,-215.309 300.744,-218.9 310,-223.5 328.151,-232.522 329.75,-239.384 346,-251.5 366.8,-267.007 390.937,-284.163 407.985,-296.144"/>
<polygon fill="midnightblue" stroke="midnightblue" points="406.002,-299.027 416.199,-301.901 410.02,-293.295 406.002,-299.027"/>
</g>
<!-- Node19 -->
<g id="node19" class="node"><title>Node19</title>
<g id="a_node19"><a xlink:href="ar_get_marker_info_8c.html#a9147cb6fc8ecd03a0ff580dc91f792c2" target="_top" xlink:title="Examine a set of detected squares for match with known markers. ">
<polygon fill="white" stroke="black" points="387.5,-223 387.5,-242 474.5,-242 474.5,-223 387.5,-223"/>
<text text-anchor="middle" x="431" y="-230" font-family="Helvetica,sans-Serif" font-size="10.00">arGetMarkerInfo</text>
</a>
</g>
</g>
<!-- Node3&#45;&gt;Node19 -->
<g id="edge18" class="edge"><title>Node3&#45;&gt;Node19</title>
<path fill="none" stroke="midnightblue" d="M280.444,-210.576C308.833,-214.737 346.725,-220.292 377.264,-224.769"/>
<polygon fill="midnightblue" stroke="midnightblue" points="376.912,-228.255 387.314,-226.242 377.928,-221.329 376.912,-228.255"/>
</g>
<!-- Node33 -->
<g id="node33" class="node"><title>Node33</title>
<g id="a_node33"><a xlink:href="ar_image_proc_8c.html#ad9cec305d9c18fa63cd9db8ff50dc0a8" target="_top" xlink:title="Calculate image histogram, and box filter image. ">
<polygon fill="white" stroke="black" points="356.5,-0.5 356.5,-30.5 505.5,-30.5 505.5,-0.5 356.5,-0.5"/>
<text text-anchor="start" x="364.5" y="-18.5" font-family="Helvetica,sans-Serif" font-size="10.00">arImageProcLumaHistAndBox</text>
<text text-anchor="middle" x="431" y="-7.5" font-family="Helvetica,sans-Serif" font-size="10.00">FilterWithBias</text>
</a>
</g>
</g>
<!-- Node3&#45;&gt;Node33 -->
<g id="edge40" class="edge"><title>Node3&#45;&gt;Node33</title>
<path fill="none" stroke="midnightblue" d="M280.223,-200.343C290.944,-197.542 301.778,-192.959 310,-185.5 343.75,-154.883 320.132,-127.014 346,-89.5 360.222,-68.8751 381.42,-50.2582 398.962,-36.8566"/>
<polygon fill="midnightblue" stroke="midnightblue" points="401.294,-39.4842 407.234,-30.7107 397.119,-33.8655 401.294,-39.4842"/>
</g>
<!-- Node35 -->
<g id="node35" class="node"><title>Node35</title>
<g id="a_node35"><a xlink:href="ar_image_proc_8c.html#a6e24e17a37a606c5eac24258b961c1e3" target="_top" xlink:title="Calculate image histogram, cumulative density function, and median luminance value. ">
<polygon fill="white" stroke="black" points="346,-161.5 346,-191.5 516,-191.5 516,-161.5 346,-161.5"/>
<text text-anchor="start" x="354" y="-179.5" font-family="Helvetica,sans-Serif" font-size="10.00">arImageProcLumaHistAndCDFAnd</text>
<text text-anchor="middle" x="431" y="-168.5" font-family="Helvetica,sans-Serif" font-size="10.00">Median</text>
</a>
</g>
</g>
<!-- Node3&#45;&gt;Node35 -->
<g id="edge42" class="edge"><title>Node3&#45;&gt;Node35</title>
<path fill="none" stroke="midnightblue" d="M280.444,-198.424C296.794,-196.028 316.297,-193.169 335.731,-190.32"/>
<polygon fill="midnightblue" stroke="midnightblue" points="336.484,-193.747 345.871,-188.833 335.469,-186.821 336.484,-193.747"/>
</g>
<!-- Node38 -->
<g id="node38" class="node"><title>Node38</title>
<g id="a_node38"><a xlink:href="ar_image_proc_8c.html#a943eb762bf7444095b99a1c8d9320dcf" target="_top" xlink:title="Calculate image histogram, and binarize image using Otsu&#39;s method for foreground/background separatio...">
<polygon fill="white" stroke="black" points="355,-99 355,-118 507,-118 507,-99 355,-99"/>
<text text-anchor="middle" x="431" y="-106" font-family="Helvetica,sans-Serif" font-size="10.00">arImageProcLumaHistAndOtsu</text>
</a>
</g>
</g>
<!-- Node3&#45;&gt;Node38 -->
<g id="edge47" class="edge"><title>Node3&#45;&gt;Node38</title>
<path fill="none" stroke="midnightblue" d="M280.099,-197.073C290.245,-194.29 300.826,-190.532 310,-185.5 329.03,-175.061 328.237,-164.974 346,-152.5 362.556,-140.874 382.572,-130.271 398.912,-122.388"/>
<polygon fill="midnightblue" stroke="midnightblue" points="400.504,-125.507 408.054,-118.073 397.517,-119.176 400.504,-125.507"/>
</g>
<!-- Node5 -->
<g id="node5" class="node"><title>Node5</title>
<g id="a_node5"><a xlink:href="ar_labeling_private_8h.html#adfbd9da264905210ca8baa760ba4a215" target="_top" xlink:title="arLabelingSubDBZ">
<polygon fill="white" stroke="black" points="588,-724 588,-743 686,-743 686,-724 588,-724"/>
<text text-anchor="middle" x="637" y="-731" font-family="Helvetica,sans-Serif" font-size="10.00">arLabelingSubDBZ</text>
</a>
</g>
</g>
<!-- Node4&#45;&gt;Node5 -->
<g id="edge4" class="edge"><title>Node4&#45;&gt;Node5</title>
<path fill="none" stroke="midnightblue" d="M437.617,-591.035C452.7,-615.737 496.711,-682.135 552,-714.5 559.96,-719.159 568.961,-722.677 578.04,-725.331"/>
<polygon fill="midnightblue" stroke="midnightblue" points="577.317,-728.76 587.875,-727.887 579.077,-721.985 577.317,-728.76"/>
</g>
<!-- Node6 -->
<g id="node6" class="node"><title>Node6</title>
<g id="a_node6"><a xlink:href="ar_labeling_private_8h.html#a9c53562c077c1c65ddd84bb0e228c23f" target="_top" xlink:title="arLabelingSubDBRC">
<polygon fill="white" stroke="black" points="583.5,-686 583.5,-705 690.5,-705 690.5,-686 583.5,-686"/>
<text text-anchor="middle" x="637" y="-693" font-family="Helvetica,sans-Serif" font-size="10.00">arLabelingSubDBRC</text>
</a>
</g>
</g>
<!-- Node4&#45;&gt;Node6 -->
<g id="edge5" class="edge"><title>Node4&#45;&gt;Node6</title>
<path fill="none" stroke="midnightblue" d="M440.943,-591.007C459.634,-610.281 505.015,-654.033 552,-676.5 558.753,-679.729 566.077,-682.422 573.491,-684.665"/>
<polygon fill="midnightblue" stroke="midnightblue" points="572.677,-688.071 583.248,-687.361 574.541,-681.324 572.677,-688.071"/>
</g>
<!-- Node7 -->
<g id="node7" class="node"><title>Node7</title>
<g id="a_node7"><a xlink:href="ar_labeling_private_8h.html#a01ab2f426dfa5d7495b51718cd2a437b" target="_top" xlink:title="arLabelingSubDBIC">
<polygon fill="white" stroke="black" points="585.5,-648 585.5,-667 688.5,-667 688.5,-648 585.5,-648"/>
<text text-anchor="middle" x="637" y="-655" font-family="Helvetica,sans-Serif" font-size="10.00">arLabelingSubDBIC</text>
</a>
</g>
</g>
<!-- Node4&#45;&gt;Node7 -->
<g id="edge6" class="edge"><title>Node4&#45;&gt;Node7</title>
<path fill="none" stroke="midnightblue" d="M448.982,-591.046C471.785,-603.516 513.854,-625.308 552,-638.5 559.534,-641.106 567.574,-643.45 575.582,-645.529"/>
<polygon fill="midnightblue" stroke="midnightblue" points="574.75,-648.929 585.298,-647.933 576.432,-642.134 574.75,-648.929"/>
</g>
<!-- Node8 -->
<g id="node8" class="node"><title>Node8</title>
<g id="a_node8"><a xlink:href="ar_labeling_private_8h.html#a70cda24a726bd6376e860587b5d02c80" target="_top" xlink:title="arLabelingSubDWZ">
<polygon fill="white" stroke="black" points="586.5,-610 586.5,-629 687.5,-629 687.5,-610 586.5,-610"/>
<text text-anchor="middle" x="637" y="-617" font-family="Helvetica,sans-Serif" font-size="10.00">arLabelingSubDWZ</text>
</a>
</g>
</g>
<!-- Node4&#45;&gt;Node8 -->
<g id="edge7" class="edge"><title>Node4&#45;&gt;Node8</title>
<path fill="none" stroke="midnightblue" d="M461.663,-587.026C491.588,-592.6 538.628,-601.362 576.306,-608.381"/>
<polygon fill="midnightblue" stroke="midnightblue" points="575.692,-611.826 586.164,-610.217 576.974,-604.945 575.692,-611.826"/>
</g>
<!-- Node9 -->
<g id="node9" class="node"><title>Node9</title>
<g id="a_node9"><a xlink:href="ar_labeling_private_8h.html#ae8605e2e0a0f4ca9234abd9705bcc12d" target="_top" xlink:title="arLabelingSubDWRC">
<polygon fill="white" stroke="black" points="582,-572 582,-591 692,-591 692,-572 582,-572"/>
<text text-anchor="middle" x="637" y="-579" font-family="Helvetica,sans-Serif" font-size="10.00">arLabelingSubDWRC</text>
</a>
</g>
</g>
<!-- Node4&#45;&gt;Node9 -->
<g id="edge8" class="edge"><title>Node4&#45;&gt;Node9</title>
<path fill="none" stroke="midnightblue" d="M461.663,-581.5C490.35,-581.5 534.764,-581.5 571.582,-581.5"/>
<polygon fill="midnightblue" stroke="midnightblue" points="571.746,-585 581.746,-581.5 571.746,-578 571.746,-585"/>
</g>
<!-- Node10 -->
<g id="node10" class="node"><title>Node10</title>
<g id="a_node10"><a xlink:href="ar_labeling_private_8h.html#a0d5560b509fa46e721d16608e6e81a80" target="_top" xlink:title="arLabelingSubDWIC">
<polygon fill="white" stroke="black" points="584,-534 584,-553 690,-553 690,-534 584,-534"/>
<text text-anchor="middle" x="637" y="-541" font-family="Helvetica,sans-Serif" font-size="10.00">arLabelingSubDWIC</text>
</a>
</g>
</g>
<!-- Node4&#45;&gt;Node10 -->
<g id="edge9" class="edge"><title>Node4&#45;&gt;Node10</title>
<path fill="none" stroke="midnightblue" d="M461.663,-575.974C491.158,-570.48 537.278,-561.889 574.675,-554.923"/>
<polygon fill="midnightblue" stroke="midnightblue" points="575.78,-558.278 584.97,-553.006 574.499,-551.396 575.78,-558.278"/>
</g>
<!-- Node11 -->
<g id="node11" class="node"><title>Node11</title>
<g id="a_node11"><a xlink:href="ar_labeling_private_8h.html#a77d10e682cefa55c9bb7101ce0c87252" target="_top" xlink:title="arLabelingSubEBZ">
<polygon fill="white" stroke="black" points="588,-496 588,-515 686,-515 686,-496 588,-496"/>
<text text-anchor="middle" x="637" y="-503" font-family="Helvetica,sans-Serif" font-size="10.00">arLabelingSubEBZ</text>
</a>
</g>
</g>
<!-- Node4&#45;&gt;Node11 -->
<g id="edge10" class="edge"><title>Node4&#45;&gt;Node11</title>
<path fill="none" stroke="midnightblue" d="M448.982,-571.954C471.785,-559.484 513.854,-537.692 552,-524.5 560.316,-521.624 569.248,-519.066 578.073,-516.832"/>
<polygon fill="midnightblue" stroke="midnightblue" points="579.053,-520.197 587.953,-514.448 577.411,-513.392 579.053,-520.197"/>
</g>
<!-- Node12 -->
<g id="node12" class="node"><title>Node12</title>
<g id="a_node12"><a xlink:href="ar_labeling_private_8h.html#a4eb04acfccf00cff5f83d11caec59b57" target="_top" xlink:title="arLabelingSubEBRC">
<polygon fill="white" stroke="black" points="583.5,-458 583.5,-477 690.5,-477 690.5,-458 583.5,-458"/>
<text text-anchor="middle" x="637" y="-465" font-family="Helvetica,sans-Serif" font-size="10.00">arLabelingSubEBRC</text>
</a>
</g>
</g>
<!-- Node4&#45;&gt;Node12 -->
<g id="edge11" class="edge"><title>Node4&#45;&gt;Node12</title>
<path fill="none" stroke="midnightblue" d="M440.943,-571.993C459.634,-552.719 505.015,-508.967 552,-486.5 558.753,-483.271 566.077,-480.578 573.491,-478.335"/>
<polygon fill="midnightblue" stroke="midnightblue" points="574.541,-481.676 583.248,-475.639 572.677,-474.929 574.541,-481.676"/>
</g>
<!-- Node13 -->
<g id="node13" class="node"><title>Node13</title>
<g id="a_node13"><a xlink:href="ar_labeling_private_8h.html#a30603a3b7b928fb832e93d0524cd88e4" target="_top" xlink:title="arLabelingSubEBIC">
<polygon fill="white" stroke="black" points="586,-420 586,-439 688,-439 688,-420 586,-420"/>
<text text-anchor="middle" x="637" y="-427" font-family="Helvetica,sans-Serif" font-size="10.00">arLabelingSubEBIC</text>
</a>
</g>
</g>
<!-- Node4&#45;&gt;Node13 -->
<g id="edge12" class="edge"><title>Node4&#45;&gt;Node13</title>
<path fill="none" stroke="midnightblue" d="M437.617,-571.965C452.7,-547.263 496.711,-480.865 552,-448.5 559.327,-444.211 567.536,-440.89 575.875,-438.319"/>
<polygon fill="midnightblue" stroke="midnightblue" points="576.961,-441.65 585.68,-435.631 575.111,-434.899 576.961,-441.65"/>
</g>
<!-- Node14 -->
<g id="node14" class="node"><title>Node14</title>
<g id="a_node14"><a xlink:href="ar_labeling_private_8h.html#a55acba595c2539135641d14631167a55" target="_top" xlink:title="arLabelingSubEWZ">
<polygon fill="white" stroke="black" points="586.5,-382 586.5,-401 687.5,-401 687.5,-382 586.5,-382"/>
<text text-anchor="middle" x="637" y="-389" font-family="Helvetica,sans-Serif" font-size="10.00">arLabelingSubEWZ</text>
</a>
</g>
</g>
<!-- Node4&#45;&gt;Node14 -->
<g id="edge13" class="edge"><title>Node4&#45;&gt;Node14</title>
<path fill="none" stroke="midnightblue" d="M435.757,-571.877C447.753,-542.49 488.139,-453.321 552,-410.5 559.399,-405.539 567.903,-401.858 576.598,-399.13"/>
<polygon fill="midnightblue" stroke="midnightblue" points="577.724,-402.451 586.447,-396.437 575.878,-395.698 577.724,-402.451"/>
</g>
<!-- Node15 -->
<g id="node15" class="node"><title>Node15</title>
<g id="a_node15"><a xlink:href="ar_labeling_private_8h.html#ad90a588db535feaba241624116cb1fdb" target="_top" xlink:title="arLabelingSubEWRC">
<polygon fill="white" stroke="black" points="582,-800 582,-819 692,-819 692,-800 582,-800"/>
<text text-anchor="middle" x="637" y="-807" font-family="Helvetica,sans-Serif" font-size="10.00">arLabelingSubEWRC</text>
</a>
</g>
</g>
<!-- Node4&#45;&gt;Node15 -->
<g id="edge14" class="edge"><title>Node4&#45;&gt;Node15</title>
<path fill="none" stroke="midnightblue" d="M434.549,-591.281C443.85,-624.934 479.296,-736.817 552,-790.5 557.954,-794.896 564.746,-798.303 571.829,-800.938"/>
<polygon fill="midnightblue" stroke="midnightblue" points="571.027,-804.356 581.618,-804.074 573.162,-797.69 571.027,-804.356"/>
</g>
<!-- Node16 -->
<g id="node16" class="node"><title>Node16</title>
<g id="a_node16"><a xlink:href="ar_labeling_private_8h.html#afd2ba7ccd8dd8e4d17a184c9a37215c8" target="_top" xlink:title="arLabelingSubEWIC">
<polygon fill="white" stroke="black" points="584.5,-762 584.5,-781 689.5,-781 689.5,-762 584.5,-762"/>
<text text-anchor="middle" x="637" y="-769" font-family="Helvetica,sans-Serif" font-size="10.00">arLabelingSubEWIC</text>
</a>
</g>
</g>
<!-- Node4&#45;&gt;Node16 -->
<g id="edge15" class="edge"><title>Node4&#45;&gt;Node16</title>
<path fill="none" stroke="midnightblue" d="M435.757,-591.123C447.753,-620.51 488.139,-709.679 552,-752.5 558.798,-757.058 566.53,-760.536 574.485,-763.187"/>
<polygon fill="midnightblue" stroke="midnightblue" points="573.672,-766.595 584.252,-766.027 575.627,-759.874 573.672,-766.595"/>
</g>
<!-- Node18 -->
<g id="node18" class="node"><title>Node18</title>
<g id="a_node18"><a xlink:href="ar_detect_marker2_8c.html#a274e403d1435733b05081af10ad416d3" target="_top" xlink:title="arGetContour">
<polygon fill="white" stroke="black" points="599.5,-344 599.5,-363 674.5,-363 674.5,-344 599.5,-344"/>
<text text-anchor="middle" x="637" y="-351" font-family="Helvetica,sans-Serif" font-size="10.00">arGetContour</text>
</a>
</g>
</g>
<!-- Node17&#45;&gt;Node18 -->
<g id="edge17" class="edge"><title>Node17&#45;&gt;Node18</title>
<path fill="none" stroke="midnightblue" d="M475.513,-320.459C508.918,-327.336 554.963,-336.816 589.168,-343.858"/>
<polygon fill="midnightblue" stroke="midnightblue" points="588.876,-347.371 599.377,-345.96 590.288,-340.515 588.876,-347.371"/>
</g>
<!-- Node20 -->
<g id="node20" class="node"><title>Node20</title>
<g id="a_node20"><a xlink:href="param_8h.html#a7929844b3a3b321f49d5aca138bd3d0c" target="_top" xlink:title="Use a lookup&#45;table camera parameter to convert observed (distorted) window coordinates to idealised (...">
<polygon fill="white" stroke="black" points="771.5,-259 771.5,-278 896.5,-278 896.5,-259 771.5,-259"/>
<text text-anchor="middle" x="834" y="-266" font-family="Helvetica,sans-Serif" font-size="10.00">arParamObserv2IdealLTf</text>
</a>
</g>
</g>
<!-- Node19&#45;&gt;Node20 -->
<g id="edge19" class="edge"><title>Node19&#45;&gt;Node20</title>
<path fill="none" stroke="midnightblue" d="M474.534,-236.319C542.839,-242.451 677.752,-254.563 761.184,-262.053"/>
<polygon fill="midnightblue" stroke="midnightblue" points="761.074,-265.557 771.347,-262.965 761.7,-258.585 761.074,-265.557"/>
</g>
<!-- Node22 -->
<g id="node22" class="node"><title>Node22</title>
<g id="a_node22"><a xlink:href="ar_get_line_8c.html#a4edefe6026de468f8892a6359db67fbc" target="_top" xlink:title="arGetLine">
<polygon fill="white" stroke="black" points="607.5,-306 607.5,-325 666.5,-325 666.5,-306 607.5,-306"/>
<text text-anchor="middle" x="637" y="-313" font-family="Helvetica,sans-Serif" font-size="10.00">arGetLine</text>
</a>
</g>
</g>
<!-- Node19&#45;&gt;Node22 -->
<g id="edge21" class="edge"><title>Node19&#45;&gt;Node22</title>
<path fill="none" stroke="midnightblue" d="M455.401,-242.021C491.735,-256.804 561.829,-285.323 603.195,-302.153"/>
<polygon fill="midnightblue" stroke="midnightblue" points="601.976,-305.436 612.558,-305.962 604.615,-298.952 601.976,-305.436"/>
</g>
<!-- Node30 -->
<g id="node30" class="node"><title>Node30</title>
<g id="a_node30"><a xlink:href="ar_patt_get_i_d_8c.html#acce963b8d7e85cedfcb4d33ece5f20db" target="_top" xlink:title="Match the interior of a detected square against known patterns with variable border width...">
<polygon fill="white" stroke="black" points="588.5,-197 588.5,-216 685.5,-216 685.5,-197 588.5,-197"/>
<text text-anchor="middle" x="637" y="-204" font-family="Helvetica,sans-Serif" font-size="10.00">arPattGetIDGlobal</text>
</a>
</g>
</g>
<!-- Node19&#45;&gt;Node30 -->
<g id="edge34" class="edge"><title>Node19&#45;&gt;Node30</title>
<path fill="none" stroke="midnightblue" d="M474.765,-227.05C504.835,-223.217 545.417,-218.045 578.343,-213.848"/>
<polygon fill="midnightblue" stroke="midnightblue" points="578.819,-217.316 588.296,-212.58 577.934,-210.372 578.819,-217.316"/>
</g>
<!-- Node21 -->
<g id="node21" class="node"><title>Node21</title>
<g id="a_node21"><a xlink:href="ioapi_8h.html#a787fa3cf048117ba7123753c1e74fcd6" target="_top" xlink:title="int">
<polygon fill="white" stroke="black" points="1129.5,-202 1129.5,-221 1158.5,-221 1158.5,-202 1129.5,-202"/>
<text text-anchor="middle" x="1144" y="-209" font-family="Helvetica,sans-Serif" font-size="10.00">int</text>
</a>
</g>
</g>
<!-- Node20&#45;&gt;Node21 -->
<g id="edge20" class="edge"><title>Node20&#45;&gt;Node21</title>
<path fill="none" stroke="midnightblue" d="M888.459,-258.946C936.314,-250.348 1008.38,-237.292 1071,-225.5 1087.25,-222.439 1105.55,-218.88 1119.63,-216.116"/>
<polygon fill="midnightblue" stroke="midnightblue" points="1120.34,-219.545 1129.47,-214.18 1118.99,-212.676 1120.34,-219.545"/>
</g>
<!-- Node22&#45;&gt;Node20 -->
<g id="edge25" class="edge"><title>Node22&#45;&gt;Node20</title>
<path fill="none" stroke="midnightblue" d="M666.773,-308.565C697.374,-301.189 746.352,-289.384 783.233,-280.495"/>
<polygon fill="midnightblue" stroke="midnightblue" points="784.388,-283.817 793.289,-278.071 782.747,-277.012 784.388,-283.817"/>
</g>
<!-- Node22&#45;&gt;Node21 -->
<g id="edge24" class="edge"><title>Node22&#45;&gt;Node21</title>
<path fill="none" stroke="midnightblue" d="M666.643,-315.322C737.569,-314.015 926.109,-305.229 1071,-250.5 1088.4,-243.929 1106.81,-233.89 1120.67,-225.643"/>
<polygon fill="midnightblue" stroke="midnightblue" points="1122.74,-228.478 1129.46,-220.285 1119.1,-222.5 1122.74,-228.478"/>
</g>
<!-- Node23 -->
<g id="node23" class="node"><title>Node23</title>
<g id="a_node23"><a xlink:href="_a_r_2include_2_a_r6_2_a_r_2matrix_8h.html#ac94c691cd85259643eaef4162768e18a" target="_top" xlink:title="arVecAlloc">
<polygon fill="white" stroke="black" points="802,-411 802,-430 866,-430 866,-411 802,-411"/>
<text text-anchor="middle" x="834" y="-418" font-family="Helvetica,sans-Serif" font-size="10.00">arVecAlloc</text>
</a>
</g>
</g>
<!-- Node22&#45;&gt;Node23 -->
<g id="edge22" class="edge"><title>Node22&#45;&gt;Node23</title>
<path fill="none" stroke="midnightblue" d="M666.837,-316.33C684.258,-318.129 706.094,-322.815 722,-334.5 747.679,-353.365 733.168,-376.533 758,-396.5 767.739,-404.331 780.085,-409.629 791.934,-413.205"/>
<polygon fill="midnightblue" stroke="midnightblue" points="791.138,-416.615 801.703,-415.822 792.949,-409.854 791.138,-416.615"/>
</g>
<!-- Node24 -->
<g id="node24" class="node"><title>Node24</title>
<g id="a_node24"><a xlink:href="_a_r_2include_2_a_r6_2_a_r_2matrix_8h.html#a7169e4124d09fcbe1b8730ade678d64d" target="_top" xlink:title="arMatrixAlloc">
<polygon fill="white" stroke="black" points="1107,-487 1107,-506 1181,-506 1181,-487 1107,-487"/>
<text text-anchor="middle" x="1144" y="-494" font-family="Helvetica,sans-Serif" font-size="10.00">arMatrixAlloc</text>
</a>
</g>
</g>
<!-- Node22&#45;&gt;Node24 -->
<g id="edge23" class="edge"><title>Node22&#45;&gt;Node24</title>
<path fill="none" stroke="midnightblue" d="M666.877,-314.772C684.986,-315.888 707.556,-320.401 722,-334.5 768.9,-380.279 707.318,-435.947 758,-477.5 857.551,-559.119 1024.88,-528.806 1101.91,-508.692"/>
<polygon fill="midnightblue" stroke="midnightblue" points="1102.98,-512.03 1111.73,-506.055 1101.16,-505.269 1102.98,-512.03"/>
</g>
<!-- Node25 -->
<g id="node25" class="node"><title>Node25</title>
<g id="a_node25"><a xlink:href="_a_r_2include_2_a_r6_2_a_r_2matrix_8h.html#a04d062f49b83d57ac0dec5e906dfcd32" target="_top" xlink:title="arMatrixPCA">
<polygon fill="white" stroke="black" points="797.5,-449 797.5,-468 870.5,-468 870.5,-449 797.5,-449"/>
<text text-anchor="middle" x="834" y="-456" font-family="Helvetica,sans-Serif" font-size="10.00">arMatrixPCA</text>
</a>
</g>
</g>
<!-- Node22&#45;&gt;Node25 -->
<g id="edge26" class="edge"><title>Node22&#45;&gt;Node25</title>
<path fill="none" stroke="midnightblue" d="M666.89,-315.214C684.774,-316.539 707.09,-321.117 722,-334.5 758.713,-367.453 721.712,-406.079 758,-439.5 766.17,-447.024 776.886,-451.67 787.652,-454.512"/>
<polygon fill="midnightblue" stroke="midnightblue" points="786.967,-457.945 797.482,-456.646 788.452,-451.104 786.967,-457.945"/>
</g>
<!-- Node28 -->
<g id="node28" class="node"><title>Node28</title>
<g id="a_node28"><a xlink:href="_a_r_2include_2_a_r6_2_a_r_2matrix_8h.html#ac4b7a714cce9fffda773d86363380454" target="_top" xlink:title="arMatrixFree">
<polygon fill="white" stroke="black" points="1108.5,-411 1108.5,-430 1179.5,-430 1179.5,-411 1108.5,-411"/>
<text text-anchor="middle" x="1144" y="-418" font-family="Helvetica,sans-Serif" font-size="10.00">arMatrixFree</text>
</a>
</g>
</g>
<!-- Node22&#45;&gt;Node28 -->
<g id="edge32" class="edge"><title>Node22&#45;&gt;Node28</title>
<path fill="none" stroke="midnightblue" d="M666.687,-318.691C683.441,-321.347 704.635,-326.106 722,-334.5 740.498,-343.442 739.178,-355.262 758,-363.5 818.374,-389.924 1010.28,-409.174 1098.21,-416.841"/>
<polygon fill="midnightblue" stroke="midnightblue" points="1098.14,-420.348 1108.41,-417.718 1098.74,-413.373 1098.14,-420.348"/>
</g>
<!-- Node29 -->
<g id="node29" class="node"><title>Node29</title>
<g id="a_node29"><a xlink:href="_a_r_2include_2_a_r6_2_a_r_2matrix_8h.html#a08c0d02dd8ddfb8a05d07f3fb80db2c4" target="_top" xlink:title="arVecFree">
<polygon fill="white" stroke="black" points="803,-335 803,-354 865,-354 865,-335 803,-335"/>
<text text-anchor="middle" x="834" y="-342" font-family="Helvetica,sans-Serif" font-size="10.00">arVecFree</text>
</a>
</g>
</g>
<!-- Node22&#45;&gt;Node29 -->
<g id="edge33" class="edge"><title>Node22&#45;&gt;Node29</title>
<path fill="none" stroke="midnightblue" d="M666.773,-319.779C700.085,-324.733 755.176,-332.926 792.731,-338.511"/>
<polygon fill="midnightblue" stroke="midnightblue" points="792.419,-342.003 802.825,-340.012 793.449,-335.079 792.419,-342.003"/>
</g>
<!-- Node26 -->
<g id="node26" class="node"><title>Node26</title>
<g id="a_node26"><a xlink:href="_a_r_2include_2_a_r6_2_a_r_2matrix_8h.html#a532fede01f09fff8e082d1e558a535b9" target="_top" xlink:title="arMatrixAllocDup">
<polygon fill="white" stroke="black" points="962.5,-449 962.5,-468 1054.5,-468 1054.5,-449 962.5,-449"/>
<text text-anchor="middle" x="1008.5" y="-456" font-family="Helvetica,sans-Serif" font-size="10.00">arMatrixAllocDup</text>
</a>
</g>
</g>
<!-- Node25&#45;&gt;Node26 -->
<g id="edge27" class="edge"><title>Node25&#45;&gt;Node26</title>
<path fill="none" stroke="midnightblue" d="M870.742,-458.5C894.177,-458.5 925.294,-458.5 951.924,-458.5"/>
<polygon fill="midnightblue" stroke="midnightblue" points="952.264,-462 962.264,-458.5 952.264,-455 952.264,-462"/>
</g>
<!-- Node25&#45;&gt;Node28 -->
<g id="edge31" class="edge"><title>Node25&#45;&gt;Node28</title>
<path fill="none" stroke="midnightblue" d="M870.891,-451.669C892.577,-447.713 920.807,-442.866 946,-439.5 998.054,-432.544 1058.17,-427.122 1098.17,-423.881"/>
<polygon fill="midnightblue" stroke="midnightblue" points="1098.7,-427.35 1108.39,-423.065 1098.15,-420.372 1098.7,-427.35"/>
</g>
<!-- Node26&#45;&gt;Node24 -->
<g id="edge28" class="edge"><title>Node26&#45;&gt;Node24</title>
<path fill="none" stroke="midnightblue" d="M1043.19,-468.089C1060.26,-472.949 1081.2,-478.909 1099.48,-484.113"/>
<polygon fill="midnightblue" stroke="midnightblue" points="1098.75,-487.543 1109.32,-486.914 1100.66,-480.81 1098.75,-487.543"/>
</g>
<!-- Node27 -->
<g id="node27" class="node"><title>Node27</title>
<g id="a_node27"><a xlink:href="_a_r_2include_2_a_r6_2_a_r_2matrix_8h.html#a988e4c76394edccbf1e86005b97f725a" target="_top" xlink:title="arMatrixDup">
<polygon fill="white" stroke="black" points="1109,-449 1109,-468 1179,-468 1179,-449 1109,-449"/>
<text text-anchor="middle" x="1144" y="-456" font-family="Helvetica,sans-Serif" font-size="10.00">arMatrixDup</text>
</a>
</g>
</g>
<!-- Node26&#45;&gt;Node27 -->
<g id="edge29" class="edge"><title>Node26&#45;&gt;Node27</title>
<path fill="none" stroke="midnightblue" d="M1054.7,-458.5C1068.94,-458.5 1084.65,-458.5 1098.82,-458.5"/>
<polygon fill="midnightblue" stroke="midnightblue" points="1098.83,-462 1108.83,-458.5 1098.83,-455 1098.83,-462"/>
</g>
<!-- Node26&#45;&gt;Node28 -->
<g id="edge30" class="edge"><title>Node26&#45;&gt;Node28</title>
<path fill="none" stroke="midnightblue" d="M1043.19,-448.911C1060.26,-444.051 1081.2,-438.091 1099.48,-432.887"/>
<polygon fill="midnightblue" stroke="midnightblue" points="1100.66,-436.19 1109.32,-430.086 1098.75,-429.457 1100.66,-436.19"/>
</g>
<!-- Node30&#45;&gt;Node21 -->
<g id="edge39" class="edge"><title>Node30&#45;&gt;Node21</title>
<path fill="none" stroke="midnightblue" d="M671.181,-196.956C744.504,-177.377 925.372,-137.428 1071,-173.5 1088.95,-177.945 1107.35,-187.77 1121.06,-196.315"/>
<polygon fill="midnightblue" stroke="midnightblue" points="1119.44,-199.438 1129.74,-201.945 1123.25,-193.566 1119.44,-199.438"/>
</g>
<!-- Node31 -->
<g id="node31" class="node"><title>Node31</title>
<g id="a_node31"><a xlink:href="ar_patt_get_i_d_8c.html#a85629f26a05cd8cb8644c5e95e581d4d" target="_top" xlink:title="Extract the image (i.e. locate and unwarp) of the pattern&#45;space portion of a detected square...">
<polygon fill="white" stroke="black" points="788.5,-197 788.5,-216 879.5,-216 879.5,-197 788.5,-197"/>
<text text-anchor="middle" x="834" y="-204" font-family="Helvetica,sans-Serif" font-size="10.00">arPattGetImage2</text>
</a>
</g>
</g>
<!-- Node30&#45;&gt;Node31 -->
<g id="edge35" class="edge"><title>Node30&#45;&gt;Node31</title>
<path fill="none" stroke="midnightblue" d="M685.702,-206.5C713.742,-206.5 749.292,-206.5 778.442,-206.5"/>
<polygon fill="midnightblue" stroke="midnightblue" points="778.464,-210 788.464,-206.5 778.464,-203 778.464,-210"/>
</g>
<!-- Node31&#45;&gt;Node21 -->
<g id="edge36" class="edge"><title>Node31&#45;&gt;Node21</title>
<path fill="none" stroke="midnightblue" d="M879.543,-208.965C899.812,-209.969 924.111,-211.007 946,-211.5 1008.28,-212.902 1081.67,-212.309 1118.83,-211.85"/>
<polygon fill="midnightblue" stroke="midnightblue" points="1119.19,-215.346 1129.14,-211.714 1119.1,-208.346 1119.19,-215.346"/>
</g>
<!-- Node32 -->
<g id="node32" class="node"><title>Node32</title>
<g id="a_node32"><a xlink:href="param_8h.html#af28ec15693678c1e60242cf44e1c1a3f" target="_top" xlink:title="Use a lookup&#45;table camera parameter to convert idealised (zero&#45;distortion) window coordinates to obse...">
<polygon fill="white" stroke="black" points="946,-183 946,-202 1071,-202 1071,-183 946,-183"/>
<text text-anchor="middle" x="1008.5" y="-190" font-family="Helvetica,sans-Serif" font-size="10.00">arParamIdeal2ObservLTf</text>
</a>
</g>
</g>
<!-- Node31&#45;&gt;Node32 -->
<g id="edge37" class="edge"><title>Node31&#45;&gt;Node32</title>
<path fill="none" stroke="midnightblue" d="M879.872,-202.858C896.965,-201.471 916.899,-199.853 935.863,-198.314"/>
<polygon fill="midnightblue" stroke="midnightblue" points="936.287,-201.791 945.971,-197.494 935.721,-194.814 936.287,-201.791"/>
</g>
<!-- Node32&#45;&gt;Node21 -->
<g id="edge38" class="edge"><title>Node32&#45;&gt;Node21</title>
<path fill="none" stroke="midnightblue" d="M1071.17,-201.277C1088.25,-203.708 1105.78,-206.202 1119.24,-208.118"/>
<polygon fill="midnightblue" stroke="midnightblue" points="1119.1,-211.634 1129.5,-209.578 1120.09,-204.704 1119.1,-211.634"/>
</g>
<!-- Node34 -->
<g id="node34" class="node"><title>Node34</title>
<g id="a_node34"><a xlink:href="ar_image_proc_8c.html#a9bddf2e229ba8ea9a61ea1f2d5a61b2a" target="_top" xlink:title="Calculate luminance histogram. ">
<polygon fill="white" stroke="black" points="951.5,-31 951.5,-50 1065.5,-50 1065.5,-31 951.5,-31"/>
<text text-anchor="middle" x="1008.5" y="-38" font-family="Helvetica,sans-Serif" font-size="10.00">arImageProcLumaHist</text>
</a>
</g>
</g>
<!-- Node33&#45;&gt;Node34 -->
<g id="edge41" class="edge"><title>Node33&#45;&gt;Node34</title>
<path fill="none" stroke="midnightblue" d="M505.842,-14.4672C599.878,-13.779 767.302,-14.6558 910,-26.5 920.203,-27.3468 930.965,-28.5632 941.469,-29.93"/>
<polygon fill="midnightblue" stroke="midnightblue" points="941.053,-33.4056 951.432,-31.2794 941.992,-26.4689 941.053,-33.4056"/>
</g>
<!-- Node36 -->
<g id="node36" class="node"><title>Node36</title>
<g id="a_node36"><a xlink:href="ar_image_proc_8c.html#a4de5049bd51eed6d973d8242cba2ee00" target="_top" xlink:title="Calculate image histogram, cumulative density function, and luminance value at a given histogram perc...">
<polygon fill="white" stroke="black" points="552,-101.5 552,-131.5 722,-131.5 722,-101.5 552,-101.5"/>
<text text-anchor="start" x="560" y="-119.5" font-family="Helvetica,sans-Serif" font-size="10.00">arImageProcLumaHistAndCDFAnd</text>
<text text-anchor="middle" x="637" y="-108.5" font-family="Helvetica,sans-Serif" font-size="10.00">Percentile</text>
</a>
</g>
</g>
<!-- Node35&#45;&gt;Node36 -->
<g id="edge43" class="edge"><title>Node35&#45;&gt;Node36</title>
<path fill="none" stroke="midnightblue" d="M483.214,-161.437C511.102,-153.235 545.791,-143.032 575.063,-134.423"/>
<polygon fill="midnightblue" stroke="midnightblue" points="576.158,-137.749 584.764,-131.569 574.183,-131.033 576.158,-137.749"/>
</g>
<!-- Node36&#45;&gt;Node21 -->
<g id="edge46" class="edge"><title>Node36&#45;&gt;Node21</title>
<path fill="none" stroke="midnightblue" d="M722.185,-110.356C811.852,-106.902 956.365,-110.319 1071,-155.5 1092.92,-164.14 1113.68,-181.655 1127.23,-194.809"/>
<polygon fill="midnightblue" stroke="midnightblue" points="1124.79,-197.323 1134.32,-201.95 1129.76,-192.39 1124.79,-197.323"/>
</g>
<!-- Node37 -->
<g id="node37" class="node"><title>Node37</title>
<g id="a_node37"><a xlink:href="ar_image_proc_8c.html#afb1e9977532aec222fb1895c3d66b5f3" target="_top" xlink:title="Calculate image histogram and cumulative density function. ">
<polygon fill="white" stroke="black" points="758,-69 758,-88 910,-88 910,-69 758,-69"/>
<text text-anchor="middle" x="834" y="-76" font-family="Helvetica,sans-Serif" font-size="10.00">arImageProcLumaHistAndCDF</text>
</a>
</g>
</g>
<!-- Node36&#45;&gt;Node37 -->
<g id="edge44" class="edge"><title>Node36&#45;&gt;Node37</title>
<path fill="none" stroke="midnightblue" d="M715.069,-101.481C734.831,-97.6303 755.766,-93.5507 774.425,-89.9145"/>
<polygon fill="midnightblue" stroke="midnightblue" points="775.099,-93.3491 784.245,-88.0009 773.76,-86.4784 775.099,-93.3491"/>
</g>
<!-- Node37&#45;&gt;Node34 -->
<g id="edge45" class="edge"><title>Node37&#45;&gt;Node34</title>
<path fill="none" stroke="midnightblue" d="M878.529,-68.911C901.6,-63.8287 930.127,-57.5446 954.481,-52.1797"/>
<polygon fill="midnightblue" stroke="midnightblue" points="955.271,-55.5895 964.284,-50.0201 953.765,-48.7534 955.271,-55.5895"/>
</g>
<!-- Node38&#45;&gt;Node34 -->
<g id="edge48" class="edge"><title>Node38&#45;&gt;Node34</title>
<path fill="none" stroke="midnightblue" d="M486.923,-98.989C551.589,-88.0828 662.315,-70.3196 758,-59.5 819.99,-52.4905 890.944,-47.3662 941.298,-44.2178"/>
<polygon fill="midnightblue" stroke="midnightblue" points="941.637,-47.7037 951.403,-43.5953 941.206,-40.717 941.637,-47.7037"/>
</g>
</g>
</svg>
