<?xml version="1.0" encoding="UTF-8" standalone="no"?>
<!DOCTYPE svg PUBLIC "-//W3C//DTD SVG 1.1//EN"
 "http://www.w3.org/Graphics/SVG/1.1/DTD/svg11.dtd">
<!-- Generated by graphviz version 2.38.0 (20140413.2041)
 -->
<!-- Title: ARTracker2D::drawFeatures Pages: 1 -->
<svg width="912pt" height="389pt"
 viewBox="0.00 0.00 912.00 389.34" xmlns="http://www.w3.org/2000/svg" xmlns:xlink="http://www.w3.org/1999/xlink">
<g id="graph0" class="graph" transform="scale(1 1) rotate(0) translate(4 385.337)">
<title>ARTracker2D::drawFeatures</title>
<polygon fill="white" stroke="none" points="-4,4 -4,-385.337 908,-385.337 908,4 -4,4"/>
<!-- Node1 -->
<g id="node1" class="node"><title>Node1</title>
<polygon fill="#bfbfbf" stroke="black" points="0,-153 0,-172 142,-172 142,-153 0,-153"/>
<text text-anchor="middle" x="71" y="-160" font-family="Helvetica,sans-Serif" font-size="10.00">ARTracker2D::drawFeatures</text>
</g>
<!-- Node2 -->
<g id="node2" class="node"><title>Node2</title>
<g id="a_node2"><a xlink:href="class_tracker_pipeline.html#aab4cccea701a77d3f7517f153b8191ce" target="_top" xlink:title="TrackerPipeline::drawFeatures">
<polygon fill="white" stroke="black" points="178,-153 178,-172 327,-172 327,-153 178,-153"/>
<text text-anchor="middle" x="252.5" y="-160" font-family="Helvetica,sans-Serif" font-size="10.00">TrackerPipeline::drawFeatures</text>
</a>
</g>
</g>
<!-- Node1&#45;&gt;Node2 -->
<g id="edge1" class="edge"><title>Node1&#45;&gt;Node2</title>
<path fill="none" stroke="midnightblue" d="M142.171,-162.5C150.581,-162.5 159.232,-162.5 167.809,-162.5"/>
<polygon fill="midnightblue" stroke="midnightblue" points="167.825,-166 177.825,-162.5 167.825,-159 167.825,-166"/>
</g>
<!-- Node3 -->
<g id="node3" class="node"><title>Node3</title>
<g id="a_node3"><a xlink:href="namespaceartvision__instanton.html#a60740c65f31f9305d3cef9c2b5adb5e1" target="_top" xlink:title="artvision_instanton\l::Gray2BGR">
<polygon fill="white" stroke="black" points="363,-147.5 363,-177.5 461,-177.5 461,-147.5 363,-147.5"/>
<text text-anchor="start" x="371" y="-165.5" font-family="Helvetica,sans-Serif" font-size="10.00">artvision_instanton</text>
<text text-anchor="middle" x="412" y="-154.5" font-family="Helvetica,sans-Serif" font-size="10.00">::Gray2BGR</text>
</a>
</g>
</g>
<!-- Node2&#45;&gt;Node3 -->
<g id="edge2" class="edge"><title>Node2&#45;&gt;Node3</title>
<path fill="none" stroke="midnightblue" d="M327.177,-162.5C335.621,-162.5 344.143,-162.5 352.353,-162.5"/>
<polygon fill="midnightblue" stroke="midnightblue" points="352.555,-166 362.555,-162.5 352.555,-159 352.555,-166"/>
</g>
<!-- Node4 -->
<g id="node4" class="node"><title>Node4</title>
<g id="a_node4"><a xlink:href="classartvision__instanton_1_1_image.html#af2b536a2073964b44f3328d7b9a5853a" target="_top" xlink:title="Allocate the image data. ">
<polygon fill="white" stroke="black" points="497,-169.5 497,-199.5 595,-199.5 595,-169.5 497,-169.5"/>
<text text-anchor="start" x="505" y="-187.5" font-family="Helvetica,sans-Serif" font-size="10.00">artvision_instanton</text>
<text text-anchor="middle" x="546" y="-176.5" font-family="Helvetica,sans-Serif" font-size="10.00">::Image::alloc</text>
</a>
</g>
</g>
<!-- Node3&#45;&gt;Node4 -->
<g id="edge3" class="edge"><title>Node3&#45;&gt;Node4</title>
<path fill="none" stroke="midnightblue" d="M461.028,-170.505C469.4,-171.9 478.188,-173.365 486.798,-174.8"/>
<polygon fill="midnightblue" stroke="midnightblue" points="486.347,-178.273 496.786,-176.464 487.498,-171.368 486.347,-178.273"/>
</g>
<!-- Node5 -->
<g id="node5" class="node"><title>Node5</title>
<g id="a_node5"><a xlink:href="classartvision__instanton_1_1_image.html#a5da9991c89d2324c7ec145973298c130" target="_top" xlink:title="artvision_instanton\l::Image::size">
<polygon fill="white" stroke="black" points="806,-191.5 806,-221.5 904,-221.5 904,-191.5 806,-191.5"/>
<text text-anchor="start" x="814" y="-209.5" font-family="Helvetica,sans-Serif" font-size="10.00">artvision_instanton</text>
<text text-anchor="middle" x="855" y="-198.5" font-family="Helvetica,sans-Serif" font-size="10.00">::Image::size</text>
</a>
</g>
</g>
<!-- Node3&#45;&gt;Node5 -->
<g id="edge17" class="edge"><title>Node3&#45;&gt;Node5</title>
<path fill="none" stroke="midnightblue" d="M420.488,-177.733C433.35,-202.706 461.696,-252.835 497,-285.5 547.418,-332.149 564.634,-344.79 631,-362.5 690.689,-378.428 716.963,-394.179 770,-362.5 817.83,-333.931 840.028,-267.7 848.921,-231.399"/>
<polygon fill="midnightblue" stroke="midnightblue" points="852.346,-232.119 851.177,-221.589 845.525,-230.55 852.346,-232.119"/>
</g>
<!-- Node7 -->
<g id="node7" class="node"><title>Node7</title>
<g id="a_node7"><a xlink:href="ioapi_8h.html#a787fa3cf048117ba7123753c1e74fcd6" target="_top" xlink:title="int">
<polygon fill="white" stroke="black" points="686,-334 686,-353 715,-353 715,-334 686,-334"/>
<text text-anchor="middle" x="700.5" y="-341" font-family="Helvetica,sans-Serif" font-size="10.00">int</text>
</a>
</g>
</g>
<!-- Node3&#45;&gt;Node7 -->
<g id="edge14" class="edge"><title>Node3&#45;&gt;Node7</title>
<path fill="none" stroke="midnightblue" d="M428.843,-177.603C463.014,-209.382 547.34,-283.588 631,-324.5 645.172,-331.43 662.27,-336.177 675.839,-339.193"/>
<polygon fill="midnightblue" stroke="midnightblue" points="675.34,-342.663 685.84,-341.249 676.75,-335.807 675.34,-342.663"/>
</g>
<!-- Node11 -->
<g id="node11" class="node"><title>Node11</title>
<g id="a_node11"><a xlink:href="classartvision__instanton_1_1_image.html#a26334124ea185241a9af99e03bdd6385" target="_top" xlink:title="Get the dimensions of the image. ">
<polygon fill="white" stroke="black" points="651.5,-49.5 651.5,-79.5 749.5,-79.5 749.5,-49.5 651.5,-49.5"/>
<text text-anchor="start" x="659.5" y="-67.5" font-family="Helvetica,sans-Serif" font-size="10.00">artvision_instanton</text>
<text text-anchor="middle" x="700.5" y="-56.5" font-family="Helvetica,sans-Serif" font-size="10.00">::Image::width</text>
</a>
</g>
</g>
<!-- Node3&#45;&gt;Node11 -->
<g id="edge13" class="edge"><title>Node3&#45;&gt;Node11</title>
<path fill="none" stroke="midnightblue" d="M461.249,-155.885C499.06,-149.406 552.244,-137.381 595,-116.5 613.214,-107.605 613.202,-98.2004 631,-88.5 634.51,-86.5872 638.201,-84.78 641.975,-83.0815"/>
<polygon fill="midnightblue" stroke="midnightblue" points="643.612,-86.19 651.472,-79.0854 640.897,-79.738 643.612,-86.19"/>
</g>
<!-- Node12 -->
<g id="node12" class="node"><title>Node12</title>
<g id="a_node12"><a xlink:href="classartvision__instanton_1_1_image.html#a8fe378f1d9a2fbeb89112b9c9600bdd6" target="_top" xlink:title="artvision_instanton\l::Image::height">
<polygon fill="white" stroke="black" points="651.5,-0.5 651.5,-30.5 749.5,-30.5 749.5,-0.5 651.5,-0.5"/>
<text text-anchor="start" x="659.5" y="-18.5" font-family="Helvetica,sans-Serif" font-size="10.00">artvision_instanton</text>
<text text-anchor="middle" x="700.5" y="-7.5" font-family="Helvetica,sans-Serif" font-size="10.00">::Image::height</text>
</a>
</g>
</g>
<!-- Node3&#45;&gt;Node12 -->
<g id="edge15" class="edge"><title>Node3&#45;&gt;Node12</title>
<path fill="none" stroke="midnightblue" d="M437.806,-147.484C454.244,-137.895 476.482,-125.601 497,-116.5 539.143,-97.8074 557.051,-108.678 595,-82.5 615.517,-68.3472 610.505,-53.6841 631,-39.5 634.497,-37.0798 638.263,-34.8805 642.165,-32.8861"/>
<polygon fill="midnightblue" stroke="midnightblue" points="643.845,-35.9655 651.458,-28.5965 640.911,-29.61 643.845,-35.9655"/>
</g>
<!-- Node13 -->
<g id="node13" class="node"><title>Node13</title>
<g id="a_node13"><a xlink:href="classartvision__instanton_1_1_image.html#aa2721566b360cd4862e5b061e0a1a8ab" target="_top" xlink:title="Get a pointer to the image data. ">
<polygon fill="white" stroke="black" points="497,-43.5 497,-73.5 595,-73.5 595,-43.5 497,-43.5"/>
<text text-anchor="start" x="505" y="-61.5" font-family="Helvetica,sans-Serif" font-size="10.00">artvision_instanton</text>
<text text-anchor="middle" x="546" y="-50.5" font-family="Helvetica,sans-Serif" font-size="10.00">::Image::get</text>
</a>
</g>
</g>
<!-- Node3&#45;&gt;Node13 -->
<g id="edge16" class="edge"><title>Node3&#45;&gt;Node13</title>
<path fill="none" stroke="midnightblue" d="M428.752,-147.216C445.154,-131.645 471.909,-107.197 497,-88.5 501.226,-85.3513 505.787,-82.2053 510.358,-79.1991"/>
<polygon fill="midnightblue" stroke="midnightblue" points="512.535,-81.9617 519.075,-73.6264 508.765,-76.0639 512.535,-81.9617"/>
</g>
<!-- Node4&#45;&gt;Node5 -->
<g id="edge4" class="edge"><title>Node4&#45;&gt;Node5</title>
<path fill="none" stroke="midnightblue" d="M595.306,-187.962C649.626,-191.854 737.808,-198.174 795.859,-202.334"/>
<polygon fill="midnightblue" stroke="midnightblue" points="795.751,-205.835 805.975,-203.058 796.251,-198.853 795.751,-205.835"/>
</g>
<!-- Node6 -->
<g id="node6" class="node"><title>Node6</title>
<g id="a_node6"><a xlink:href="classartvision__instanton_1_1_image.html#abfe6de817ab2c75f289b7f679c3a1e54" target="_top" xlink:title="artvision_instanton\l::Image::step">
<polygon fill="white" stroke="black" points="651.5,-98.5 651.5,-128.5 749.5,-128.5 749.5,-98.5 651.5,-98.5"/>
<text text-anchor="start" x="659.5" y="-116.5" font-family="Helvetica,sans-Serif" font-size="10.00">artvision_instanton</text>
<text text-anchor="middle" x="700.5" y="-105.5" font-family="Helvetica,sans-Serif" font-size="10.00">::Image::step</text>
</a>
</g>
</g>
<!-- Node4&#45;&gt;Node6 -->
<g id="edge5" class="edge"><title>Node4&#45;&gt;Node6</title>
<path fill="none" stroke="midnightblue" d="M571.41,-169.358C587.869,-159.522 610.282,-146.841 631,-137.5 635.051,-135.674 639.286,-133.895 643.577,-132.185"/>
<polygon fill="midnightblue" stroke="midnightblue" points="644.931,-135.415 653.012,-128.562 642.422,-128.88 644.931,-135.415"/>
</g>
<!-- Node4&#45;&gt;Node7 -->
<g id="edge6" class="edge"><title>Node4&#45;&gt;Node7</title>
<path fill="none" stroke="midnightblue" d="M556.736,-199.734C566.559,-215.192 582.079,-239.86 595,-261.5 611.533,-289.189 605.545,-304.699 631,-324.5 643.808,-334.463 661.529,-339.204 675.738,-341.459"/>
<polygon fill="midnightblue" stroke="midnightblue" points="675.416,-344.946 685.78,-342.744 676.305,-338.003 675.416,-344.946"/>
</g>
<!-- Node8 -->
<g id="node8" class="node"><title>Node8</title>
<g id="a_node8"><a xlink:href="classartvision__instanton_1_1_image.html#a31fdf398f739c5eccf617ae7e20c88ab" target="_top" xlink:title="Calculate the size of a single unit. ">
<polygon fill="white" stroke="black" points="631,-147.5 631,-177.5 770,-177.5 770,-147.5 631,-147.5"/>
<text text-anchor="start" x="639" y="-165.5" font-family="Helvetica,sans-Serif" font-size="10.00">artvision_instanton</text>
<text text-anchor="middle" x="700.5" y="-154.5" font-family="Helvetica,sans-Serif" font-size="10.00">::Image::calculate_unit_size</text>
</a>
</g>
</g>
<!-- Node4&#45;&gt;Node8 -->
<g id="edge7" class="edge"><title>Node4&#45;&gt;Node8</title>
<path fill="none" stroke="midnightblue" d="M595.252,-177.539C603.494,-176.35 612.243,-175.088 621.031,-173.82"/>
<polygon fill="midnightblue" stroke="midnightblue" points="621.547,-177.282 630.945,-172.39 620.548,-170.354 621.547,-177.282"/>
</g>
<!-- Node9 -->
<g id="node9" class="node"><title>Node9</title>
<g id="a_node9"><a xlink:href="classartvision__instanton_1_1_image.html#ac6859f6426c8d6729f2ada431148506f" target="_top" xlink:title="Get the image type. ">
<polygon fill="white" stroke="black" points="651.5,-284.5 651.5,-314.5 749.5,-314.5 749.5,-284.5 651.5,-284.5"/>
<text text-anchor="start" x="659.5" y="-302.5" font-family="Helvetica,sans-Serif" font-size="10.00">artvision_instanton</text>
<text text-anchor="middle" x="700.5" y="-291.5" font-family="Helvetica,sans-Serif" font-size="10.00">::Image::type</text>
</a>
</g>
</g>
<!-- Node4&#45;&gt;Node9 -->
<g id="edge9" class="edge"><title>Node4&#45;&gt;Node9</title>
<path fill="none" stroke="midnightblue" d="M557.216,-199.519C571.53,-219.504 599.372,-254.725 631,-275.5 634.495,-277.796 638.236,-279.9 642.099,-281.823"/>
<polygon fill="midnightblue" stroke="midnightblue" points="640.725,-285.043 651.278,-285.988 643.617,-278.669 640.725,-285.043"/>
</g>
<!-- Node10 -->
<g id="node10" class="node"><title>Node10</title>
<g id="a_node10"><a xlink:href="classartvision__instanton_1_1_image.html#a8376556c69707ff32d49a1e2b3d63a43" target="_top" xlink:title="artvision_instanton\l::Image::channels">
<polygon fill="white" stroke="black" points="651.5,-235.5 651.5,-265.5 749.5,-265.5 749.5,-235.5 651.5,-235.5"/>
<text text-anchor="start" x="659.5" y="-253.5" font-family="Helvetica,sans-Serif" font-size="10.00">artvision_instanton</text>
<text text-anchor="middle" x="700.5" y="-242.5" font-family="Helvetica,sans-Serif" font-size="10.00">::Image::channels</text>
</a>
</g>
</g>
<!-- Node4&#45;&gt;Node10 -->
<g id="edge10" class="edge"><title>Node4&#45;&gt;Node10</title>
<path fill="none" stroke="midnightblue" d="M581.987,-199.642C603.782,-209.074 632.013,-221.293 655.342,-231.389"/>
<polygon fill="midnightblue" stroke="midnightblue" points="654.109,-234.669 664.676,-235.429 656.889,-228.245 654.109,-234.669"/>
</g>
<!-- Node4&#45;&gt;Node11 -->
<g id="edge11" class="edge"><title>Node4&#45;&gt;Node11</title>
<path fill="none" stroke="midnightblue" d="M576.472,-169.41C583.066,-165.169 589.675,-160.15 595,-154.5 617.916,-130.184 605.535,-110.133 631,-88.5 634.442,-85.5757 638.263,-82.9997 642.29,-80.732"/>
<polygon fill="midnightblue" stroke="midnightblue" points="643.953,-83.8142 651.366,-76.2441 640.85,-77.5395 643.953,-83.8142"/>
</g>
<!-- Node4&#45;&gt;Node12 -->
<g id="edge12" class="edge"><title>Node4&#45;&gt;Node12</title>
<path fill="none" stroke="midnightblue" d="M558.869,-169.355C569.118,-155.907 583.972,-135.496 595,-116.5 613.967,-83.8289 602.981,-64.8397 631,-39.5 634.404,-36.4215 638.226,-33.7332 642.278,-31.3863"/>
<polygon fill="midnightblue" stroke="midnightblue" points="644.083,-34.3962 651.443,-26.7752 640.937,-28.1429 644.083,-34.3962"/>
</g>
<!-- Node8&#45;&gt;Node5 -->
<g id="edge8" class="edge"><title>Node8&#45;&gt;Node5</title>
<path fill="none" stroke="midnightblue" d="M753.555,-177.519C767.164,-181.446 781.92,-185.703 795.825,-189.715"/>
<polygon fill="midnightblue" stroke="midnightblue" points="795.193,-193.175 805.771,-192.585 797.133,-186.45 795.193,-193.175"/>
</g>
</g>
</svg>
