<?xml version="1.0" encoding="UTF-8" standalone="no"?>
<!DOCTYPE svg PUBLIC "-//W3C//DTD SVG 1.1//EN"
 "http://www.w3.org/Graphics/SVG/1.1/DTD/svg11.dtd">
<!-- Generated by graphviz version 2.38.0 (20140413.2041)
 -->
<!-- Title: ARTrackableMultiSquare::updateWithDetectedMarkersStereo Pages: 1 -->
<!--zoomable 522 -->
<svg id="main" version="1.1" xmlns="http://www.w3.org/2000/svg" xmlns:xlink="http://www.w3.org/1999/xlink" xml:space="preserve" onload="init(evt)">
<style type="text/css"><![CDATA[
.edge:hover path { stroke: red; }
.edge:hover polygon { stroke: red; fill: red; }
]]></style>
<script type="text/javascript"><![CDATA[
var edges = document.getElementsByTagName('g');
if (edges && edges.length) {
  for (var i=0;i<edges.length;i++) {
    if (edges[i].id.substr(0,4)=='edge') {
      edges[i].setAttribute('class','edge');
    }
  }
}
]]></script>
        <defs>
                <circle id="rim" cx="0" cy="0" r="7"/>
                <circle id="rim2" cx="0" cy="0" r="3.5"/>
                <g id="zoomPlus">
                        <use xlink:href="#rim" fill="#404040">
                                <set attributeName="fill" to="#808080" begin="zoomplus.mouseover" end="zoomplus.mouseout"/>
                        </use>
                        <path d="M-4,0h8M0,-4v8" fill="none" stroke="white" stroke-width="1.5" pointer-events="none"/>
                </g>
                <g id="zoomMin">
                        <use xlink:href="#rim" fill="#404040">
                                <set attributeName="fill" to="#808080" begin="zoomminus.mouseover" end="zoomminus.mouseout"/>
                        </use>
                        <path d="M-4,0h8" fill="none" stroke="white" stroke-width="1.5" pointer-events="none"/>
                </g>
                <g id="dirArrow">
                        <path fill="none" stroke="white" stroke-width="1.5" d="M0,-3.0v7 M-2.5,-0.5L0,-3.0L2.5,-0.5"/>
                </g>
               <g id="resetDef">
                       <use xlink:href="#rim2" fill="#404040">
                               <set attributeName="fill" to="#808080" begin="reset.mouseover" end="reset.mouseout"/>
                       </use>
               </g>
        </defs>

<script type="text/javascript">
var viewWidth = 1109;
var viewHeight = 522;
var sectionId = 'dynsection-6';
</script>
<script xlink:href="svgpan.js"/>
<svg id="graph" class="graph">
<g id="viewport">
<title>ARTrackableMultiSquare::updateWithDetectedMarkersStereo</title>
<polygon fill="white" stroke="none" points="-4,4 -4,-518 1105,-518 1105,4 -4,4"/>
<!-- Node1 -->
<g id="node1" class="node"><title>Node1</title>
<polygon fill="#bfbfbf" stroke="black" points="0,-109 0,-139 176,-139 176,-109 0,-109"/>
<text text-anchor="start" x="8" y="-127" font-family="Helvetica,sans-Serif" font-size="10.00">ARTrackableMultiSquare</text>
<text text-anchor="middle" x="88" y="-116" font-family="Helvetica,sans-Serif" font-size="10.00">::updateWithDetectedMarkersStereo</text>
</g>
<!-- Node2 -->
<g id="node2" class="node"><title>Node2</title>
<g id="a_node2"><a xlink:href="ar_multi_get_trans_mat_stereo_8c.html#a3c7f3daa5f4c73421e0cff3d654b954d" target="_top" xlink:title="arGetTransMatMultiSquare\lStereoRobust">
<polygon fill="white" stroke="black" points="212,-280 212,-310 346,-310 346,-280 212,-280"/>
<text text-anchor="start" x="220" y="-298" font-family="Helvetica,sans-Serif" font-size="10.00">arGetTransMatMultiSquare</text>
<text text-anchor="middle" x="279" y="-287" font-family="Helvetica,sans-Serif" font-size="10.00">StereoRobust</text>
</a>
</g>
</g>
<!-- Node1&#45;&gt;Node2 -->
<g id="edge1" class="edge"><title>Node1&#45;&gt;Node2</title>
<path fill="none" stroke="midnightblue" d="M105.772,-139.175C139.257,-169.47 214.515,-237.561 253.52,-272.852"/>
<polygon fill="midnightblue" stroke="midnightblue" points="251.502,-275.745 261.265,-279.859 256.198,-270.554 251.502,-275.745"/>
</g>
<!-- Node26 -->
<g id="node26" class="node"><title>Node26</title>
<g id="a_node26"><a xlink:href="ar_multi_get_trans_mat_stereo_8c.html#adc78591a44b6245d34a62cc4190c4e23" target="_top" xlink:title="arGetTransMatMultiSquare\lStereo">
<polygon fill="white" stroke="black" points="212,-65 212,-95 346,-95 346,-65 212,-65"/>
<text text-anchor="start" x="220" y="-83" font-family="Helvetica,sans-Serif" font-size="10.00">arGetTransMatMultiSquare</text>
<text text-anchor="middle" x="279" y="-72" font-family="Helvetica,sans-Serif" font-size="10.00">Stereo</text>
</a>
</g>
</g>
<!-- Node1&#45;&gt;Node26 -->
<g id="edge47" class="edge"><title>Node1&#45;&gt;Node26</title>
<path fill="none" stroke="midnightblue" d="M153.514,-108.981C169.543,-105.249 186.856,-101.219 203.328,-97.384"/>
<polygon fill="midnightblue" stroke="midnightblue" points="204.51,-100.703 213.456,-95.0262 202.922,-93.8848 204.51,-100.703"/>
</g>
<!-- Node27 -->
<g id="node27" class="node"><title>Node27</title>
<g id="a_node27"><a xlink:href="class_a_r_trackable.html#a445a8894d99c98bc966ebff530d58278" target="_top" xlink:title="Completes an update begun in the parent class, performing filtering, generating OpenGL view matrix an...">
<polygon fill="white" stroke="black" points="224.5,-114.5 224.5,-133.5 333.5,-133.5 333.5,-114.5 224.5,-114.5"/>
<text text-anchor="middle" x="279" y="-121.5" font-family="Helvetica,sans-Serif" font-size="10.00">ARTrackable::update</text>
</a>
</g>
</g>
<!-- Node1&#45;&gt;Node27 -->
<g id="edge48" class="edge"><title>Node1&#45;&gt;Node27</title>
<path fill="none" stroke="midnightblue" d="M176.032,-124C188.899,-124 201.952,-124 214.228,-124"/>
<polygon fill="midnightblue" stroke="midnightblue" points="214.337,-127.5 224.337,-124 214.337,-120.5 214.337,-127.5"/>
</g>
<!-- Node3 -->
<g id="node3" class="node"><title>Node3</title>
<g id="a_node3"><a xlink:href="ar_get_trans_mat_stereo_8c.html#a8062d2388e1450a896468287f6ba793c" target="_top" xlink:title="arGetTransMatSquareStereo">
<polygon fill="white" stroke="black" points="382.5,-228.5 382.5,-247.5 523.5,-247.5 523.5,-228.5 382.5,-228.5"/>
<text text-anchor="middle" x="453" y="-235.5" font-family="Helvetica,sans-Serif" font-size="10.00">arGetTransMatSquareStereo</text>
</a>
</g>
</g>
<!-- Node2&#45;&gt;Node3 -->
<g id="edge2" class="edge"><title>Node2&#45;&gt;Node3</title>
<path fill="none" stroke="midnightblue" d="M325.641,-279.875C353.087,-270.779 387.624,-259.334 413.652,-250.708"/>
<polygon fill="midnightblue" stroke="midnightblue" points="414.787,-254.019 423.179,-247.551 412.585,-247.375 414.787,-254.019"/>
</g>
<!-- Node14 -->
<g id="node14" class="node"><title>Node14</title>
<g id="a_node14"><a xlink:href="ar_util_8c.html#ae28eeba3e16224a7d77b46bd34b8f4fe" target="_top" xlink:title="arUtilMatMul">
<polygon fill="white" stroke="black" points="745,-228.5 745,-247.5 817,-247.5 817,-228.5 745,-228.5"/>
<text text-anchor="middle" x="781" y="-235.5" font-family="Helvetica,sans-Serif" font-size="10.00">arUtilMatMul</text>
</a>
</g>
</g>
<!-- Node2&#45;&gt;Node14 -->
<g id="edge34" class="edge"><title>Node2&#45;&gt;Node14</title>
<path fill="none" stroke="midnightblue" d="M346.138,-287.46C449.408,-275.687 646.284,-253.244 734.853,-243.147"/>
<polygon fill="midnightblue" stroke="midnightblue" points="735.312,-246.617 744.851,-242.007 734.519,-239.662 735.312,-246.617"/>
</g>
<!-- Node21 -->
<g id="node21" class="node"><title>Node21</title>
<g id="a_node21"><a xlink:href="ar_get_trans_mat_stereo_8c.html#a9bfdb18b5ce08354463c844a65060dc5" target="_top" xlink:title="arGetTransMatStereo">
<polygon fill="white" stroke="black" points="398,-304.5 398,-323.5 508,-323.5 508,-304.5 398,-304.5"/>
<text text-anchor="middle" x="453" y="-311.5" font-family="Helvetica,sans-Serif" font-size="10.00">arGetTransMatStereo</text>
</a>
</g>
</g>
<!-- Node2&#45;&gt;Node21 -->
<g id="edge35" class="edge"><title>Node2&#45;&gt;Node21</title>
<path fill="none" stroke="midnightblue" d="M346.008,-302.292C359.672,-303.801 374.049,-305.389 387.653,-306.892"/>
<polygon fill="midnightblue" stroke="midnightblue" points="387.557,-310.402 397.881,-308.022 388.325,-303.445 387.557,-310.402"/>
</g>
<!-- Node22 -->
<g id="node22" class="node"><title>Node22</title>
<g id="a_node22"><a xlink:href="icp_stereo_handle_8c.html#a2e94d1f64e2a917b113151d78d857872" target="_top" xlink:title="icpStereoSetInlierProbability">
<polygon fill="white" stroke="black" points="383,-380.5 383,-399.5 523,-399.5 523,-380.5 383,-380.5"/>
<text text-anchor="middle" x="453" y="-387.5" font-family="Helvetica,sans-Serif" font-size="10.00">icpStereoSetInlierProbability</text>
</a>
</g>
</g>
<!-- Node2&#45;&gt;Node22 -->
<g id="edge37" class="edge"><title>Node2&#45;&gt;Node22</title>
<path fill="none" stroke="midnightblue" d="M296.045,-310.015C315.135,-327.113 348.637,-354.773 382,-371 386.883,-373.375 392.108,-375.489 397.42,-377.363"/>
<polygon fill="midnightblue" stroke="midnightblue" points="396.43,-380.721 407.022,-380.48 398.592,-374.064 396.43,-380.721"/>
</g>
<!-- Node23 -->
<g id="node23" class="node"><title>Node23</title>
<g id="a_node23"><a xlink:href="ar_get_trans_mat_stereo_8c.html#a12593d630b3f48bb9bd7dd2e405648a2" target="_top" xlink:title="arGetTransMatStereoRobust">
<polygon fill="white" stroke="black" points="382,-342.5 382,-361.5 524,-361.5 524,-342.5 382,-342.5"/>
<text text-anchor="middle" x="453" y="-349.5" font-family="Helvetica,sans-Serif" font-size="10.00">arGetTransMatStereoRobust</text>
</a>
</g>
</g>
<!-- Node2&#45;&gt;Node23 -->
<g id="edge38" class="edge"><title>Node2&#45;&gt;Node23</title>
<path fill="none" stroke="midnightblue" d="M317.975,-310.091C337.044,-317.427 360.59,-326.122 382,-333 389.252,-335.33 396.986,-337.619 404.568,-339.758"/>
<polygon fill="midnightblue" stroke="midnightblue" points="403.825,-343.183 414.396,-342.472 405.689,-336.436 403.825,-343.183"/>
</g>
<!-- Node4 -->
<g id="node4" class="node"><title>Node4</title>
<g id="a_node4"><a xlink:href="icp_util_8c.html#a9a0da1f41013b11363f39d99a5c937e9" target="_top" xlink:title="icpGetInitXw2Xc_from\l_PlanarData">
<polygon fill="white" stroke="black" points="723.5,-179 723.5,-209 838.5,-209 838.5,-179 723.5,-179"/>
<text text-anchor="start" x="731.5" y="-197" font-family="Helvetica,sans-Serif" font-size="10.00">icpGetInitXw2Xc_from</text>
<text text-anchor="middle" x="781" y="-186" font-family="Helvetica,sans-Serif" font-size="10.00">_PlanarData</text>
</a>
</g>
</g>
<!-- Node3&#45;&gt;Node4 -->
<g id="edge3" class="edge"><title>Node3&#45;&gt;Node4</title>
<path fill="none" stroke="midnightblue" d="M523.874,-231.626C566.726,-227.389 622.654,-221.275 672,-214 685.304,-212.039 699.474,-209.64 713.024,-207.194"/>
<polygon fill="midnightblue" stroke="midnightblue" points="714.035,-210.567 723.239,-205.321 712.772,-203.682 714.035,-210.567"/>
</g>
<!-- Node12 -->
<g id="node12" class="node"><title>Node12</title>
<g id="a_node12"><a xlink:href="ar_util_8c.html#a97c94e6c703a2e449272302c925944d1" target="_top" xlink:title="arUtilMatInv">
<polygon fill="white" stroke="black" points="746,-73.5 746,-92.5 816,-92.5 816,-73.5 746,-73.5"/>
<text text-anchor="middle" x="781" y="-80.5" font-family="Helvetica,sans-Serif" font-size="10.00">arUtilMatInv</text>
</a>
</g>
</g>
<!-- Node3&#45;&gt;Node12 -->
<g id="edge16" class="edge"><title>Node3&#45;&gt;Node12</title>
<path fill="none" stroke="midnightblue" d="M474.393,-228.304C530.079,-201.827 684.921,-128.206 750.282,-97.1297"/>
<polygon fill="midnightblue" stroke="midnightblue" points="752.087,-100.147 759.615,-92.6923 749.081,-93.8254 752.087,-100.147"/>
</g>
<!-- Node13 -->
<g id="node13" class="node"><title>Node13</title>
<g id="a_node13"><a xlink:href="icp_stereo_point_8c.html#afa05ec4cb1c2537d535521e4ee42c5ac" target="_top" xlink:title="icpStereoPoint">
<polygon fill="white" stroke="black" points="576,-304.5 576,-323.5 656,-323.5 656,-304.5 576,-304.5"/>
<text text-anchor="middle" x="616" y="-311.5" font-family="Helvetica,sans-Serif" font-size="10.00">icpStereoPoint</text>
</a>
</g>
</g>
<!-- Node3&#45;&gt;Node13 -->
<g id="edge20" class="edge"><title>Node3&#45;&gt;Node13</title>
<path fill="none" stroke="midnightblue" d="M474.391,-247.625C502.456,-260.874 553.17,-284.813 585.408,-300.031"/>
<polygon fill="midnightblue" stroke="midnightblue" points="584.238,-303.349 594.775,-304.453 587.226,-297.019 584.238,-303.349"/>
</g>
<!-- Node5 -->
<g id="node5" class="node"><title>Node5</title>
<g id="a_node5"><a xlink:href="_a_r_2include_2_a_r6_2_a_r_2matrix_8h.html#a7169e4124d09fcbe1b8730ade678d64d" target="_top" xlink:title="arMatrixAlloc">
<polygon fill="white" stroke="black" points="1025.5,-130.5 1025.5,-149.5 1099.5,-149.5 1099.5,-130.5 1025.5,-130.5"/>
<text text-anchor="middle" x="1062.5" y="-137.5" font-family="Helvetica,sans-Serif" font-size="10.00">arMatrixAlloc</text>
</a>
</g>
</g>
<!-- Node4&#45;&gt;Node5 -->
<g id="edge4" class="edge"><title>Node4&#45;&gt;Node5</title>
<path fill="none" stroke="midnightblue" d="M821.731,-178.984C841.911,-171.908 866.973,-163.953 890,-159 931.802,-150.009 980.304,-145.137 1015.04,-142.587"/>
<polygon fill="midnightblue" stroke="midnightblue" points="1015.62,-146.054 1025.36,-141.867 1015.14,-139.071 1015.62,-146.054"/>
</g>
<!-- Node6 -->
<g id="node6" class="node"><title>Node6</title>
<g id="a_node6"><a xlink:href="_a_r_2include_2_a_r6_2_a_r_2matrix_8h.html#ac4b7a714cce9fffda773d86363380454" target="_top" xlink:title="arMatrixFree">
<polygon fill="white" stroke="black" points="1027,-206.5 1027,-225.5 1098,-225.5 1098,-206.5 1027,-206.5"/>
<text text-anchor="middle" x="1062.5" y="-213.5" font-family="Helvetica,sans-Serif" font-size="10.00">arMatrixFree</text>
</a>
</g>
</g>
<!-- Node4&#45;&gt;Node6 -->
<g id="edge5" class="edge"><title>Node4&#45;&gt;Node6</title>
<path fill="none" stroke="midnightblue" d="M838.561,-198.452C891.02,-202.581 968.068,-208.646 1016.47,-212.456"/>
<polygon fill="midnightblue" stroke="midnightblue" points="1016.4,-215.961 1026.64,-213.256 1016.95,-208.982 1016.4,-215.961"/>
</g>
<!-- Node7 -->
<g id="node7" class="node"><title>Node7</title>
<g id="a_node7"><a xlink:href="_a_r_2include_2_a_r6_2_a_r_2matrix_8h.html#a49e8f4e71a6048683feebdc15336bb67" target="_top" xlink:title="arMatrixAllocTrans">
<polygon fill="white" stroke="black" points="890,-168.5 890,-187.5 988,-187.5 988,-168.5 890,-168.5"/>
<text text-anchor="middle" x="939" y="-175.5" font-family="Helvetica,sans-Serif" font-size="10.00">arMatrixAllocTrans</text>
</a>
</g>
</g>
<!-- Node4&#45;&gt;Node7 -->
<g id="edge6" class="edge"><title>Node4&#45;&gt;Node7</title>
<path fill="none" stroke="midnightblue" d="M838.761,-188.178C852.09,-186.811 866.315,-185.352 879.709,-183.979"/>
<polygon fill="midnightblue" stroke="midnightblue" points="880.172,-187.45 889.762,-182.947 879.457,-180.486 880.172,-187.45"/>
</g>
<!-- Node9 -->
<g id="node9" class="node"><title>Node9</title>
<g id="a_node9"><a xlink:href="_a_r_2include_2_a_r6_2_a_r_2matrix_8h.html#a4d8d5ab04ba588d275e08c9f92694925" target="_top" xlink:title="arMatrixAllocMul">
<polygon fill="white" stroke="black" points="894.5,-244.5 894.5,-263.5 983.5,-263.5 983.5,-244.5 894.5,-244.5"/>
<text text-anchor="middle" x="939" y="-251.5" font-family="Helvetica,sans-Serif" font-size="10.00">arMatrixAllocMul</text>
</a>
</g>
</g>
<!-- Node4&#45;&gt;Node9 -->
<g id="edge10" class="edge"><title>Node4&#45;&gt;Node9</title>
<path fill="none" stroke="midnightblue" d="M826.706,-209.051C835.775,-212.237 845.222,-215.651 854,-219 871.602,-225.716 891.032,-233.77 906.768,-240.458"/>
<polygon fill="midnightblue" stroke="midnightblue" points="905.468,-243.708 916.039,-244.421 908.22,-237.272 905.468,-243.708"/>
</g>
<!-- Node10 -->
<g id="node10" class="node"><title>Node10</title>
<g id="a_node10"><a xlink:href="_a_r_2include_2_a_r6_2_a_r_2matrix_8h.html#a202bc2db43d563792c99e852ea0b7ba4" target="_top" xlink:title="arMatrixMul">
<polygon fill="white" stroke="black" points="1028.5,-320.5 1028.5,-339.5 1096.5,-339.5 1096.5,-320.5 1028.5,-320.5"/>
<text text-anchor="middle" x="1062.5" y="-327.5" font-family="Helvetica,sans-Serif" font-size="10.00">arMatrixMul</text>
</a>
</g>
</g>
<!-- Node4&#45;&gt;Node10 -->
<g id="edge15" class="edge"><title>Node4&#45;&gt;Node10</title>
<path fill="none" stroke="midnightblue" d="M837.775,-209.172C843.542,-211.943 849.081,-215.194 854,-219 876.813,-236.651 867.069,-255.502 890,-273 927.961,-301.968 981.399,-316.639 1018.5,-323.773"/>
<polygon fill="midnightblue" stroke="midnightblue" points="1018.03,-327.247 1028.5,-325.591 1019.29,-320.359 1018.03,-327.247"/>
</g>
<!-- Node11 -->
<g id="node11" class="node"><title>Node11</title>
<g id="a_node11"><a xlink:href="_a_r_2include_2_a_r6_2_a_r_2matrix_8h.html#a929738025b539a0c1bbd2f395ad4d981" target="_top" xlink:title="arMatrixSelfInv">
<polygon fill="white" stroke="black" points="897.5,-92.5 897.5,-111.5 980.5,-111.5 980.5,-92.5 897.5,-92.5"/>
<text text-anchor="middle" x="939" y="-99.5" font-family="Helvetica,sans-Serif" font-size="10.00">arMatrixSelfInv</text>
</a>
</g>
</g>
<!-- Node4&#45;&gt;Node11 -->
<g id="edge14" class="edge"><title>Node4&#45;&gt;Node11</title>
<path fill="none" stroke="midnightblue" d="M804.776,-178.741C826.365,-164.499 859.881,-142.958 890,-126 895.861,-122.7 902.233,-119.353 908.362,-116.248"/>
<polygon fill="midnightblue" stroke="midnightblue" points="910.292,-119.197 917.685,-111.608 907.173,-112.93 910.292,-119.197"/>
</g>
<!-- Node7&#45;&gt;Node5 -->
<g id="edge7" class="edge"><title>Node7&#45;&gt;Node5</title>
<path fill="none" stroke="midnightblue" d="M970.66,-168.411C985.912,-163.641 1004.55,-157.811 1020.97,-152.677"/>
<polygon fill="midnightblue" stroke="midnightblue" points="1022.35,-155.911 1030.85,-149.586 1020.26,-149.231 1022.35,-155.911"/>
</g>
<!-- Node7&#45;&gt;Node6 -->
<g id="edge9" class="edge"><title>Node7&#45;&gt;Node6</title>
<path fill="none" stroke="midnightblue" d="M970.66,-187.589C985.912,-192.359 1004.55,-198.189 1020.97,-203.323"/>
<polygon fill="midnightblue" stroke="midnightblue" points="1020.26,-206.769 1030.85,-206.414 1022.35,-200.089 1020.26,-206.769"/>
</g>
<!-- Node8 -->
<g id="node8" class="node"><title>Node8</title>
<g id="a_node8"><a xlink:href="_a_r_2include_2_a_r6_2_a_r_2matrix_8h.html#ad3d9712dd27f655902a8a3315e623d85" target="_top" xlink:title="arMatrixTrans">
<polygon fill="white" stroke="black" points="1024,-168.5 1024,-187.5 1101,-187.5 1101,-168.5 1024,-168.5"/>
<text text-anchor="middle" x="1062.5" y="-175.5" font-family="Helvetica,sans-Serif" font-size="10.00">arMatrixTrans</text>
</a>
</g>
</g>
<!-- Node7&#45;&gt;Node8 -->
<g id="edge8" class="edge"><title>Node7&#45;&gt;Node8</title>
<path fill="none" stroke="midnightblue" d="M988.02,-178C996.508,-178 1005.34,-178 1013.82,-178"/>
<polygon fill="midnightblue" stroke="midnightblue" points="1013.94,-181.5 1023.94,-178 1013.94,-174.5 1013.94,-181.5"/>
</g>
<!-- Node9&#45;&gt;Node5 -->
<g id="edge11" class="edge"><title>Node9&#45;&gt;Node5</title>
<path fill="none" stroke="midnightblue" d="M948.174,-244.349C967.52,-221.565 1015.16,-165.832 1024,-159 1026.02,-157.438 1028.19,-155.948 1030.43,-154.54"/>
<polygon fill="midnightblue" stroke="midnightblue" points="1032.28,-157.513 1039.25,-149.531 1028.82,-151.427 1032.28,-157.513"/>
</g>
<!-- Node9&#45;&gt;Node6 -->
<g id="edge13" class="edge"><title>Node9&#45;&gt;Node6</title>
<path fill="none" stroke="midnightblue" d="M970.66,-244.411C985.912,-239.641 1004.55,-233.811 1020.97,-228.677"/>
<polygon fill="midnightblue" stroke="midnightblue" points="1022.35,-231.911 1030.85,-225.586 1020.26,-225.231 1022.35,-231.911"/>
</g>
<!-- Node9&#45;&gt;Node10 -->
<g id="edge12" class="edge"><title>Node9&#45;&gt;Node10</title>
<path fill="none" stroke="midnightblue" d="M955.388,-263.625C976.112,-276.588 1013.2,-299.786 1037.58,-315.035"/>
<polygon fill="midnightblue" stroke="midnightblue" points="1035.9,-318.117 1046.24,-320.453 1039.61,-312.182 1035.9,-318.117"/>
</g>
<!-- Node12&#45;&gt;Node5 -->
<g id="edge17" class="edge"><title>Node12&#45;&gt;Node5</title>
<path fill="none" stroke="midnightblue" d="M800.074,-73.3968C837.182,-55.0801 923.861,-19.5704 988,-50 1018.98,-64.6975 1041.22,-99.552 1052.67,-121.318"/>
<polygon fill="midnightblue" stroke="midnightblue" points="1049.56,-122.91 1057.17,-130.279 1055.81,-119.771 1049.56,-122.91"/>
</g>
<!-- Node12&#45;&gt;Node6 -->
<g id="edge19" class="edge"><title>Node12&#45;&gt;Node6</title>
<path fill="none" stroke="midnightblue" d="M810.173,-73.4587C853.079,-60.8452 935.355,-44.4175 988,-83 1030.86,-114.408 989.614,-156.494 1024,-197 1025,-198.182 1026.1,-199.299 1027.26,-200.354"/>
<polygon fill="midnightblue" stroke="midnightblue" points="1025.56,-203.442 1035.73,-206.431 1029.65,-197.755 1025.56,-203.442"/>
</g>
<!-- Node12&#45;&gt;Node11 -->
<g id="edge18" class="edge"><title>Node12&#45;&gt;Node11</title>
<path fill="none" stroke="midnightblue" d="M816.235,-87.1696C837.095,-89.7103 864.13,-93.003 887.425,-95.8402"/>
<polygon fill="midnightblue" stroke="midnightblue" points="887.139,-99.3312 897.489,-97.066 887.986,-92.3826 887.139,-99.3312"/>
</g>
<!-- Node13&#45;&gt;Node14 -->
<g id="edge21" class="edge"><title>Node13&#45;&gt;Node14</title>
<path fill="none" stroke="midnightblue" d="M643.651,-304.454C652.964,-300.585 663.267,-295.681 672,-290 690.195,-278.165 688.952,-267.406 708,-257 716.248,-252.494 725.619,-249.015 734.809,-246.343"/>
<polygon fill="midnightblue" stroke="midnightblue" points="735.871,-249.683 744.648,-243.75 734.087,-242.914 735.871,-249.683"/>
</g>
<!-- Node15 -->
<g id="node15" class="node"><title>Node15</title>
<g id="a_node15"><a xlink:href="icp_core_8c.html#a5bbc6e7577592a3268ef3d391b0ba96d" target="_top" xlink:title="icpDispMat">
<polygon fill="white" stroke="black" points="906,-434.5 906,-453.5 972,-453.5 972,-434.5 906,-434.5"/>
<text text-anchor="middle" x="939" y="-441.5" font-family="Helvetica,sans-Serif" font-size="10.00">icpDispMat</text>
</a>
</g>
</g>
<!-- Node13&#45;&gt;Node15 -->
<g id="edge22" class="edge"><title>Node13&#45;&gt;Node15</title>
<path fill="none" stroke="midnightblue" d="M656.178,-306.04C706.646,-298.083 794.893,-292.196 854,-333 884.758,-354.234 866.164,-380.212 890,-409 896.213,-416.503 904.375,-423.234 912.203,-428.742"/>
<polygon fill="midnightblue" stroke="midnightblue" points="910.506,-431.815 920.777,-434.415 914.369,-425.978 910.506,-431.815"/>
</g>
<!-- Node16 -->
<g id="node16" class="node"><title>Node16</title>
<g id="a_node16"><a xlink:href="icp_core_8c.html#aceeb3fd72a762c2078d8fb88ec03ccfb" target="_top" xlink:title="icpGetU_from_X_by_MatX2U">
<polygon fill="white" stroke="black" points="708,-380.5 708,-399.5 854,-399.5 854,-380.5 708,-380.5"/>
<text text-anchor="middle" x="781" y="-387.5" font-family="Helvetica,sans-Serif" font-size="10.00">icpGetU_from_X_by_MatX2U</text>
</a>
</g>
</g>
<!-- Node13&#45;&gt;Node16 -->
<g id="edge23" class="edge"><title>Node13&#45;&gt;Node16</title>
<path fill="none" stroke="midnightblue" d="M631.161,-323.607C652.572,-338.006 692.348,-364.22 708,-371 713.472,-373.37 719.309,-375.503 725.202,-377.408"/>
<polygon fill="midnightblue" stroke="midnightblue" points="724.535,-380.862 735.119,-380.398 726.556,-374.16 724.535,-380.862"/>
</g>
<!-- Node17 -->
<g id="node17" class="node"><title>Node17</title>
<g id="a_node17"><a xlink:href="icp_core_8c.html#ac384ca6737fdee325d58740d665eda0a" target="_top" xlink:title="icpGetJ_U_S">
<polygon fill="white" stroke="black" points="743.5,-418.5 743.5,-437.5 818.5,-437.5 818.5,-418.5 743.5,-418.5"/>
<text text-anchor="middle" x="781" y="-425.5" font-family="Helvetica,sans-Serif" font-size="10.00">icpGetJ_U_S</text>
</a>
</g>
</g>
<!-- Node13&#45;&gt;Node17 -->
<g id="edge24" class="edge"><title>Node13&#45;&gt;Node17</title>
<path fill="none" stroke="midnightblue" d="M634.468,-323.562C646.014,-330.451 660.991,-340.527 672,-352 692.745,-373.62 683.838,-391.281 708,-409 715.503,-414.502 724.478,-418.412 733.504,-421.191"/>
<polygon fill="midnightblue" stroke="midnightblue" points="732.687,-424.595 743.251,-423.783 734.486,-417.83 732.687,-424.595"/>
</g>
<!-- Node18 -->
<g id="node18" class="node"><title>Node18</title>
<g id="a_node18"><a xlink:href="icp_core_8c.html#a4906398b4594d29ab8035b4016a7e9de" target="_top" xlink:title="icpGetDeltaS">
<polygon fill="white" stroke="black" points="743.5,-266.5 743.5,-285.5 818.5,-285.5 818.5,-266.5 743.5,-266.5"/>
<text text-anchor="middle" x="781" y="-273.5" font-family="Helvetica,sans-Serif" font-size="10.00">icpGetDeltaS</text>
</a>
</g>
</g>
<!-- Node13&#45;&gt;Node18 -->
<g id="edge26" class="edge"><title>Node13&#45;&gt;Node18</title>
<path fill="none" stroke="midnightblue" d="M656.043,-304.898C679.303,-299.475 708.966,-292.56 733.442,-286.854"/>
<polygon fill="midnightblue" stroke="midnightblue" points="734.289,-290.251 743.233,-284.571 732.7,-283.433 734.289,-290.251"/>
</g>
<!-- Node20 -->
<g id="node20" class="node"><title>Node20</title>
<g id="a_node20"><a xlink:href="icp_core_8c.html#a94201124387610a46b975cdb9d8a1db6" target="_top" xlink:title="icpUpdateMat">
<polygon fill="white" stroke="black" points="742.5,-342.5 742.5,-361.5 819.5,-361.5 819.5,-342.5 742.5,-342.5"/>
<text text-anchor="middle" x="781" y="-349.5" font-family="Helvetica,sans-Serif" font-size="10.00">icpUpdateMat</text>
</a>
</g>
</g>
<!-- Node13&#45;&gt;Node20 -->
<g id="edge33" class="edge"><title>Node13&#45;&gt;Node20</title>
<path fill="none" stroke="midnightblue" d="M656.043,-323.102C679.055,-328.467 708.333,-335.292 732.656,-340.963"/>
<polygon fill="midnightblue" stroke="midnightblue" points="731.865,-344.372 742.398,-343.234 733.454,-337.555 731.865,-344.372"/>
</g>
<!-- Node17&#45;&gt;Node15 -->
<g id="edge25" class="edge"><title>Node17&#45;&gt;Node15</title>
<path fill="none" stroke="midnightblue" d="M818.575,-431.751C841.742,-434.127 871.777,-437.208 895.931,-439.685"/>
<polygon fill="midnightblue" stroke="midnightblue" points="895.58,-443.168 905.885,-440.706 896.294,-436.204 895.58,-443.168"/>
</g>
<!-- Node18&#45;&gt;Node6 -->
<g id="edge30" class="edge"><title>Node18&#45;&gt;Node6</title>
<path fill="none" stroke="midnightblue" d="M818.565,-282.277C860.719,-287.985 931.461,-292.815 988,-273 1010.93,-264.964 1032.3,-246.682 1046.02,-232.976"/>
<polygon fill="midnightblue" stroke="midnightblue" points="1048.75,-235.179 1053.17,-225.546 1043.71,-230.326 1048.75,-235.179"/>
</g>
<!-- Node18&#45;&gt;Node7 -->
<g id="edge28" class="edge"><title>Node18&#45;&gt;Node7</title>
<path fill="none" stroke="midnightblue" d="M818.869,-269.975C830.576,-267.109 843.26,-262.957 854,-257 882.436,-241.229 908.602,-213.67 923.932,-195.629"/>
<polygon fill="midnightblue" stroke="midnightblue" points="926.872,-197.566 930.55,-187.63 921.479,-193.104 926.872,-197.566"/>
</g>
<!-- Node18&#45;&gt;Node9 -->
<g id="edge29" class="edge"><title>Node18&#45;&gt;Node9</title>
<path fill="none" stroke="midnightblue" d="M818.575,-270.842C838.167,-268.079 862.67,-264.623 884.374,-261.563"/>
<polygon fill="midnightblue" stroke="midnightblue" points="885.032,-265.005 894.445,-260.142 884.054,-258.073 885.032,-265.005"/>
</g>
<!-- Node18&#45;&gt;Node10 -->
<g id="edge32" class="edge"><title>Node18&#45;&gt;Node10</title>
<path fill="none" stroke="midnightblue" d="M818.514,-281.763C831.003,-285.278 844.264,-290.928 854,-300 884.616,-328.527 855.21,-363.745 890,-387 926.211,-411.205 946.792,-401.106 988,-387 1010.99,-379.131 1032.34,-360.82 1046.05,-347.061"/>
<polygon fill="midnightblue" stroke="midnightblue" points="1048.8,-349.245 1053.18,-339.599 1043.74,-344.407 1048.8,-349.245"/>
</g>
<!-- Node18&#45;&gt;Node11 -->
<g id="edge31" class="edge"><title>Node18&#45;&gt;Node11</title>
<path fill="none" stroke="midnightblue" d="M818.602,-273.204C831.099,-270.6 844.343,-265.789 854,-257 888.317,-225.768 866.704,-199.13 890,-159 898.488,-144.378 910.819,-129.83 920.857,-119.092"/>
<polygon fill="midnightblue" stroke="midnightblue" points="923.574,-121.317 927.985,-111.684 918.529,-116.463 923.574,-121.317"/>
</g>
<!-- Node19 -->
<g id="node19" class="node"><title>Node19</title>
<g id="a_node19"><a xlink:href="_a_r_2include_2_a_r6_2_a_r_2matrix_8h.html#a60f36997579d355f6030f872faad84a2" target="_top" xlink:title="arMatrixDisp">
<polygon fill="white" stroke="black" points="903,-358.5 903,-377.5 975,-377.5 975,-358.5 903,-358.5"/>
<text text-anchor="middle" x="939" y="-365.5" font-family="Helvetica,sans-Serif" font-size="10.00">arMatrixDisp</text>
</a>
</g>
</g>
<!-- Node18&#45;&gt;Node19 -->
<g id="edge27" class="edge"><title>Node18&#45;&gt;Node19</title>
<path fill="none" stroke="midnightblue" d="M818.643,-283.881C830.59,-287.545 843.476,-292.747 854,-300 874.805,-314.338 870.264,-328.223 890,-344 894.457,-347.563 899.53,-350.795 904.667,-353.651"/>
<polygon fill="midnightblue" stroke="midnightblue" points="903.372,-356.92 913.867,-358.374 906.569,-350.693 903.372,-356.92"/>
</g>
<!-- Node21&#45;&gt;Node13 -->
<g id="edge36" class="edge"><title>Node21&#45;&gt;Node13</title>
<path fill="none" stroke="midnightblue" d="M508.059,-314C526.702,-314 547.474,-314 565.715,-314"/>
<polygon fill="midnightblue" stroke="midnightblue" points="565.843,-317.5 575.843,-314 565.843,-310.5 565.843,-317.5"/>
</g>
<!-- Node24 -->
<g id="node24" class="node"><title>Node24</title>
<g id="a_node24"><a xlink:href="icp_stereo_point_robust_8c.html#a4b6d126a648aed158a8cc1a495b83405" target="_top" xlink:title="icpStereoPointRobust">
<polygon fill="white" stroke="black" points="560,-361.5 560,-380.5 672,-380.5 672,-361.5 560,-361.5"/>
<text text-anchor="middle" x="616" y="-368.5" font-family="Helvetica,sans-Serif" font-size="10.00">icpStereoPointRobust</text>
</a>
</g>
</g>
<!-- Node23&#45;&gt;Node24 -->
<g id="edge39" class="edge"><title>Node23&#45;&gt;Node24</title>
<path fill="none" stroke="midnightblue" d="M524.149,-360.278C532.583,-361.274 541.171,-362.287 549.535,-363.274"/>
<polygon fill="midnightblue" stroke="midnightblue" points="549.259,-366.766 559.6,-364.462 550.079,-359.814 549.259,-366.766"/>
</g>
<!-- Node24&#45;&gt;Node14 -->
<g id="edge41" class="edge"><title>Node24&#45;&gt;Node14</title>
<path fill="none" stroke="midnightblue" d="M635.707,-361.41C647.333,-354.708 661.93,-344.852 672,-333 696.2,-304.517 679.251,-280.884 708,-257 715.676,-250.623 725.268,-246.365 734.924,-243.527"/>
<polygon fill="midnightblue" stroke="midnightblue" points="736.063,-246.851 744.931,-241.054 734.384,-240.055 736.063,-246.851"/>
</g>
<!-- Node24&#45;&gt;Node15 -->
<g id="edge42" class="edge"><title>Node24&#45;&gt;Node15</title>
<path fill="none" stroke="midnightblue" d="M624.473,-380.618C638.576,-397.888 671.041,-433.596 708,-447 770.431,-469.641 848.807,-461.601 896.068,-453.186"/>
<polygon fill="midnightblue" stroke="midnightblue" points="896.763,-456.617 905.95,-451.34 895.477,-449.736 896.763,-456.617"/>
</g>
<!-- Node24&#45;&gt;Node16 -->
<g id="edge43" class="edge"><title>Node24&#45;&gt;Node16</title>
<path fill="none" stroke="midnightblue" d="M672.184,-377.433C680.416,-378.392 689.048,-379.398 697.693,-380.406"/>
<polygon fill="midnightblue" stroke="midnightblue" points="697.486,-383.905 707.824,-381.587 698.296,-376.952 697.486,-383.905"/>
</g>
<!-- Node24&#45;&gt;Node17 -->
<g id="edge44" class="edge"><title>Node24&#45;&gt;Node17</title>
<path fill="none" stroke="midnightblue" d="M637.65,-380.583C655.894,-388.816 683.354,-400.646 708,-409 716.184,-411.774 725.003,-414.395 733.568,-416.753"/>
<polygon fill="midnightblue" stroke="midnightblue" points="732.887,-420.194 743.451,-419.395 734.694,-413.431 732.887,-420.194"/>
</g>
<!-- Node24&#45;&gt;Node18 -->
<g id="edge45" class="edge"><title>Node24&#45;&gt;Node18</title>
<path fill="none" stroke="midnightblue" d="M633.526,-361.368C662.083,-344.725 720.84,-310.48 754.613,-290.796"/>
<polygon fill="midnightblue" stroke="midnightblue" points="756.553,-293.717 763.43,-285.657 753.028,-287.669 756.553,-293.717"/>
</g>
<!-- Node24&#45;&gt;Node20 -->
<g id="edge46" class="edge"><title>Node24&#45;&gt;Node20</title>
<path fill="none" stroke="midnightblue" d="M672.184,-364.567C691.666,-362.297 713.395,-359.764 732.214,-357.57"/>
<polygon fill="midnightblue" stroke="midnightblue" points="732.808,-361.025 742.336,-356.39 731.998,-354.072 732.808,-361.025"/>
</g>
<!-- Node25 -->
<g id="node25" class="node"><title>Node25</title>
<g id="a_node25"><a xlink:href="ioapi_8h.html#a787fa3cf048117ba7123753c1e74fcd6" target="_top" xlink:title="int">
<polygon fill="white" stroke="black" points="766.5,-494.5 766.5,-513.5 795.5,-513.5 795.5,-494.5 766.5,-494.5"/>
<text text-anchor="middle" x="781" y="-501.5" font-family="Helvetica,sans-Serif" font-size="10.00">int</text>
</a>
</g>
</g>
<!-- Node24&#45;&gt;Node25 -->
<g id="edge40" class="edge"><title>Node24&#45;&gt;Node25</title>
<path fill="none" stroke="midnightblue" d="M622.497,-380.695C634.963,-401.828 667.469,-452.363 708,-480 722.542,-489.915 741.511,-496.018 756.328,-499.587"/>
<polygon fill="midnightblue" stroke="midnightblue" points="755.744,-503.041 766.261,-501.756 757.238,-496.203 755.744,-503.041"/>
</g>
<!-- Node27&#45;&gt;Node14 -->
<g id="edge55" class="edge"><title>Node27&#45;&gt;Node14</title>
<path fill="none" stroke="midnightblue" d="M321.77,-133.523C414.843,-154.744 638.622,-205.766 734.809,-227.696"/>
<polygon fill="midnightblue" stroke="midnightblue" points="734.274,-231.164 744.802,-229.975 735.83,-224.339 734.274,-231.164"/>
</g>
<!-- Node28 -->
<g id="node28" class="node"><title>Node28</title>
<g id="a_node28"><a xlink:href="ar_filter_trans_mat_8c.html#a575d29079692c1af23b19f0477ee2123" target="_top" xlink:title="Filters the supplied pose estimate transformation matrix in&#45;place. ">
<polygon fill="white" stroke="black" points="409,-38.5 409,-57.5 497,-57.5 497,-38.5 409,-38.5"/>
<text text-anchor="middle" x="453" y="-45.5" font-family="Helvetica,sans-Serif" font-size="10.00">arFilterTransMat</text>
</a>
</g>
</g>
<!-- Node27&#45;&gt;Node28 -->
<g id="edge49" class="edge"><title>Node27&#45;&gt;Node28</title>
<path fill="none" stroke="midnightblue" d="M322.904,-114.45C330.895,-111.727 338.943,-108.295 346,-104 365.6,-92.0728 362.228,-78.6398 382,-67 387.214,-63.9306 392.936,-61.344 398.793,-59.1672"/>
<polygon fill="midnightblue" stroke="midnightblue" points="400.32,-62.3483 408.71,-55.8778 398.116,-55.7043 400.32,-62.3483"/>
</g>
<!-- Node32 -->
<g id="node32" class="node"><title>Node32</title>
<g id="a_node32"><a xlink:href="param_g_l_8h.html#a069eee4b7a32208a45b8c438283e9a7f" target="_top" xlink:title="arglCameraViewRHf">
<polygon fill="white" stroke="black" points="399.5,-76.5 399.5,-95.5 506.5,-95.5 506.5,-76.5 399.5,-76.5"/>
<text text-anchor="middle" x="453" y="-83.5" font-family="Helvetica,sans-Serif" font-size="10.00">arglCameraViewRHf</text>
</a>
</g>
</g>
<!-- Node27&#45;&gt;Node32 -->
<g id="edge53" class="edge"><title>Node27&#45;&gt;Node32</title>
<path fill="none" stroke="midnightblue" d="M323.403,-114.411C346.407,-109.329 374.851,-103.045 399.134,-97.6797"/>
<polygon fill="midnightblue" stroke="midnightblue" points="399.9,-101.095 408.909,-95.5201 398.39,-94.2598 399.9,-101.095"/>
</g>
<!-- Node33 -->
<g id="node33" class="node"><title>Node33</title>
<g id="a_node33"><a xlink:href="param_g_l_8h.html#a21250f8dd05058fe653e4a0116e7f592" target="_top" xlink:title="Create an OpenGL viewing transformation matrix. ">
<polygon fill="white" stroke="black" points="401,-114.5 401,-133.5 505,-133.5 505,-114.5 401,-114.5"/>
<text text-anchor="middle" x="453" y="-121.5" font-family="Helvetica,sans-Serif" font-size="10.00">arglCameraViewRH</text>
</a>
</g>
</g>
<!-- Node27&#45;&gt;Node33 -->
<g id="edge54" class="edge"><title>Node27&#45;&gt;Node33</title>
<path fill="none" stroke="midnightblue" d="M333.95,-124C351.988,-124 372.222,-124 390.774,-124"/>
<polygon fill="midnightblue" stroke="midnightblue" points="390.883,-127.5 400.883,-124 390.883,-120.5 390.883,-127.5"/>
</g>
<!-- Node29 -->
<g id="node29" class="node"><title>Node29</title>
<g id="a_node29"><a xlink:href="ar_util_8c.html#adb4a9f8d233d3b954fd85bbb3deda173" target="_top" xlink:title="arUtilMat2QuatPos">
<polygon fill="white" stroke="black" points="566,-76.5 566,-95.5 666,-95.5 666,-76.5 566,-76.5"/>
<text text-anchor="middle" x="616" y="-83.5" font-family="Helvetica,sans-Serif" font-size="10.00">arUtilMat2QuatPos</text>
</a>
</g>
</g>
<!-- Node28&#45;&gt;Node29 -->
<g id="edge50" class="edge"><title>Node28&#45;&gt;Node29</title>
<path fill="none" stroke="midnightblue" d="M494.627,-57.589C515.968,-62.6261 542.312,-68.8438 564.908,-74.1771"/>
<polygon fill="midnightblue" stroke="midnightblue" points="564.128,-77.5891 574.665,-76.4799 565.736,-70.7763 564.128,-77.5891"/>
</g>
<!-- Node30 -->
<g id="node30" class="node"><title>Node30</title>
<g id="a_node30"><a xlink:href="ar_util_8c.html#aa543b10d8b401ccf5626aba7dfa12e09" target="_top" xlink:title="arUtilQuatNorm">
<polygon fill="white" stroke="black" points="573.5,-38.5 573.5,-57.5 658.5,-57.5 658.5,-38.5 573.5,-38.5"/>
<text text-anchor="middle" x="616" y="-45.5" font-family="Helvetica,sans-Serif" font-size="10.00">arUtilQuatNorm</text>
</a>
</g>
</g>
<!-- Node28&#45;&gt;Node30 -->
<g id="edge51" class="edge"><title>Node28&#45;&gt;Node30</title>
<path fill="none" stroke="midnightblue" d="M497.145,-48C517.477,-48 541.894,-48 563.217,-48"/>
<polygon fill="midnightblue" stroke="midnightblue" points="563.404,-51.5001 573.404,-48 563.404,-44.5001 563.404,-51.5001"/>
</g>
<!-- Node31 -->
<g id="node31" class="node"><title>Node31</title>
<g id="a_node31"><a xlink:href="ar_util_8c.html#a016bf9cc45eee7cd9eae471cecc68e9a" target="_top" xlink:title="arUtilQuatPos2Mat">
<polygon fill="white" stroke="black" points="566,-0.5 566,-19.5 666,-19.5 666,-0.5 566,-0.5"/>
<text text-anchor="middle" x="616" y="-7.5" font-family="Helvetica,sans-Serif" font-size="10.00">arUtilQuatPos2Mat</text>
</a>
</g>
</g>
<!-- Node28&#45;&gt;Node31 -->
<g id="edge52" class="edge"><title>Node28&#45;&gt;Node31</title>
<path fill="none" stroke="midnightblue" d="M494.627,-38.411C515.968,-33.3739 542.312,-27.1562 564.908,-21.8229"/>
<polygon fill="midnightblue" stroke="midnightblue" points="565.736,-25.2237 574.665,-19.5201 564.128,-18.4109 565.736,-25.2237"/>
</g>
</g>
</svg>
        <g id="navigator" transform="translate(0 0)" fill="#404254">
                <rect fill="#f2f5e9" fill-opacity="0.5" stroke="#606060" stroke-width=".5" x="0" y="0" width="60" height="60"/>
                <use id="zoomplus" xlink:href="#zoomPlus" x="17" y="9" onmousedown="handleZoom(evt,'in')"/>
                <use id="zoomminus" xlink:href="#zoomMin" x="42" y="9" onmousedown="handleZoom(evt,'out')"/>
                <use id="reset" xlink:href="#resetDef" x="30" y="36" onmousedown="handleReset()"/>
                <g id="arrowUp" xlink:href="#dirArrow" transform="translate(30 24)" onmousedown="handlePan(0,-1)">
                  <use xlink:href="#rim" fill="#404040">
                        <set attributeName="fill" to="#808080" begin="arrowUp.mouseover" end="arrowUp.mouseout"/>
                  </use>
                  <path fill="none" stroke="white" stroke-width="1.5" d="M0,-3.0v7 M-2.5,-0.5L0,-3.0L2.5,-0.5"/>
                </g>
                <g id="arrowRight" xlink:href="#dirArrow" transform="rotate(90) translate(36 -43)" onmousedown="handlePan(1,0)">
                  <use xlink:href="#rim" fill="#404040">
                        <set attributeName="fill" to="#808080" begin="arrowRight.mouseover" end="arrowRight.mouseout"/>
                  </use>
                  <path fill="none" stroke="white" stroke-width="1.5" d="M0,-3.0v7 M-2.5,-0.5L0,-3.0L2.5,-0.5"/>
                </g>
                <g id="arrowDown" xlink:href="#dirArrow" transform="rotate(180) translate(-30 -48)" onmousedown="handlePan(0,1)">
                  <use xlink:href="#rim" fill="#404040">
                        <set attributeName="fill" to="#808080" begin="arrowDown.mouseover" end="arrowDown.mouseout"/>
                  </use>
                  <path fill="none" stroke="white" stroke-width="1.5" d="M0,-3.0v7 M-2.5,-0.5L0,-3.0L2.5,-0.5"/>
                </g>
                <g id="arrowLeft" xlink:href="#dirArrow" transform="rotate(270) translate(-36 17)" onmousedown="handlePan(-1,0)">
                  <use xlink:href="#rim" fill="#404040">
                        <set attributeName="fill" to="#808080" begin="arrowLeft.mouseover" end="arrowLeft.mouseout"/>
                  </use>
                  <path fill="none" stroke="white" stroke-width="1.5" d="M0,-3.0v7 M-2.5,-0.5L0,-3.0L2.5,-0.5"/>
                </g>
        </g>
        <svg viewBox="0 0 15 15" width="100%" height="30px" preserveAspectRatio="xMaxYMin meet">
         <g id="arrow_out" transform="scale(0.3 0.3)">
          <a xlink:href="class_a_r_trackable_multi_square_a8e797a3798aa42a53542f08fabc8a94a_cgraph_org.svg" target="_base">
           <rect id="button" ry="5" rx="5" y="6" x="6" height="38" width="38"
                fill="#f2f5e9" fill-opacity="0.5" stroke="#606060" stroke-width="1.0"/>
           <path id="arrow"
             d="M 11.500037,31.436501 C 11.940474,20.09759 22.043105,11.32322 32.158766,21.979434 L 37.068811,17.246167 C 37.068811,17.246167 37.088388,32 37.088388,32 L 22.160133,31.978069 C 22.160133,31.978069 26.997745,27.140456 26.997745,27.140456 C 18.528582,18.264221 13.291696,25.230495 11.500037,31.436501 z"
             style="fill:#404040;"/>
          </a>
         </g>
        </svg>
</svg>
