<?xml version="1.0" encoding="UTF-8" standalone="no"?>
<!DOCTYPE svg PUBLIC "-//W3C//DTD SVG 1.1//EN"
 "http://www.w3.org/Graphics/SVG/1.1/DTD/svg11.dtd">
<!-- Generated by graphviz version 2.38.0 (20140413.2041)
 -->
<!-- Title: artvision_instanton::ImageSample::image Pages: 1 -->
<svg width="886pt" height="361pt"
 viewBox="0.00 0.00 886.00 361.00" xmlns="http://www.w3.org/2000/svg" xmlns:xlink="http://www.w3.org/1999/xlink">
<g id="graph0" class="graph" transform="scale(1 1) rotate(0) translate(4 357)">
<title>artvision_instanton::ImageSample::image</title>
<polygon fill="white" stroke="none" points="-4,4 -4,-357 882,-357 882,4 -4,4"/>
<!-- Node1 -->
<g id="node1" class="node"><title>Node1</title>
<polygon fill="#bfbfbf" stroke="black" points="0,-95.5 0,-125.5 115,-125.5 115,-95.5 0,-95.5"/>
<text text-anchor="start" x="8" y="-113.5" font-family="Helvetica,sans-Serif" font-size="10.00">artvision_instanton</text>
<text text-anchor="middle" x="57.5" y="-102.5" font-family="Helvetica,sans-Serif" font-size="10.00">::ImageSample::image</text>
</g>
<!-- Node2 -->
<g id="node2" class="node"><title>Node2</title>
<g id="a_node2"><a xlink:href="classartvision__instanton_1_1_image_sample.html#a9830d796fddf9bfed1cc6b7a84a86b0b" target="_top" xlink:title="artvision_instanton\l::ImageSample::deepCopy">
<polygon fill="white" stroke="black" points="151,-95.5 151,-125.5 284,-125.5 284,-95.5 151,-95.5"/>
<text text-anchor="start" x="159" y="-113.5" font-family="Helvetica,sans-Serif" font-size="10.00">artvision_instanton</text>
<text text-anchor="middle" x="217.5" y="-102.5" font-family="Helvetica,sans-Serif" font-size="10.00">::ImageSample::deepCopy</text>
</a>
</g>
</g>
<!-- Node1&#45;&gt;Node2 -->
<g id="edge1" class="edge"><title>Node1&#45;&gt;Node2</title>
<path fill="none" stroke="midnightblue" d="M115.095,-110.5C123.433,-110.5 132.133,-110.5 140.781,-110.5"/>
<polygon fill="midnightblue" stroke="midnightblue" points="140.883,-114 150.883,-110.5 140.883,-107 140.883,-114"/>
</g>
<!-- Node3 -->
<g id="node3" class="node"><title>Node3</title>
<g id="a_node3"><a xlink:href="classartvision__instanton_1_1_image.html#aa2c82bdd1f3bd615c52618e532daae8a" target="_top" xlink:title="Copy functions. ">
<polygon fill="white" stroke="black" points="327.5,-144.5 327.5,-174.5 427.5,-174.5 427.5,-144.5 327.5,-144.5"/>
<text text-anchor="start" x="335.5" y="-162.5" font-family="Helvetica,sans-Serif" font-size="10.00">artvision_instanton</text>
<text text-anchor="middle" x="377.5" y="-151.5" font-family="Helvetica,sans-Serif" font-size="10.00">::Image::deepCopy</text>
</a>
</g>
</g>
<!-- Node2&#45;&gt;Node3 -->
<g id="edge2" class="edge"><title>Node2&#45;&gt;Node3</title>
<path fill="none" stroke="midnightblue" d="M267.194,-125.601C283.339,-130.608 301.474,-136.232 318.262,-141.439"/>
<polygon fill="midnightblue" stroke="midnightblue" points="317.378,-144.829 327.966,-144.448 319.452,-138.143 317.378,-144.829"/>
</g>
<!-- Node13 -->
<g id="node13" class="node"><title>Node13</title>
<g id="a_node13"><a xlink:href="classartvision__instanton_1_1_image_sample.html#a35c53a5db36e9a3dff1d53df5319536b" target="_top" xlink:title="Get the image. ">
<polygon fill="white" stroke="black" points="320,-95.5 320,-125.5 435,-125.5 435,-95.5 320,-95.5"/>
<text text-anchor="start" x="328" y="-113.5" font-family="Helvetica,sans-Serif" font-size="10.00">artvision_instanton</text>
<text text-anchor="middle" x="377.5" y="-102.5" font-family="Helvetica,sans-Serif" font-size="10.00">::ImageSample::image</text>
</a>
</g>
</g>
<!-- Node2&#45;&gt;Node13 -->
<g id="edge19" class="edge"><title>Node2&#45;&gt;Node13</title>
<path fill="none" stroke="midnightblue" d="M284.134,-110.5C292.572,-110.5 301.221,-110.5 309.678,-110.5"/>
<polygon fill="midnightblue" stroke="midnightblue" points="309.873,-114 319.873,-110.5 309.873,-107 309.873,-114"/>
</g>
<!-- Node14 -->
<g id="node14" class="node"><title>Node14</title>
<g id="a_node14"><a xlink:href="classartvision__instanton_1_1_sample.html#a49f9a53122b15156492deb3f1f6ceb01" target="_top" xlink:title="artvision_instanton\l::Sample::deepCopy">
<polygon fill="white" stroke="black" points="324.5,-46.5 324.5,-76.5 430.5,-76.5 430.5,-46.5 324.5,-46.5"/>
<text text-anchor="start" x="332.5" y="-64.5" font-family="Helvetica,sans-Serif" font-size="10.00">artvision_instanton</text>
<text text-anchor="middle" x="377.5" y="-53.5" font-family="Helvetica,sans-Serif" font-size="10.00">::Sample::deepCopy</text>
</a>
</g>
</g>
<!-- Node2&#45;&gt;Node14 -->
<g id="edge20" class="edge"><title>Node2&#45;&gt;Node14</title>
<path fill="none" stroke="midnightblue" d="M267.194,-95.3986C283.339,-90.3917 301.474,-84.7676 318.262,-79.561"/>
<polygon fill="midnightblue" stroke="midnightblue" points="319.452,-82.8567 327.966,-76.5516 317.378,-76.1708 319.452,-82.8567"/>
</g>
<!-- Node4 -->
<g id="node4" class="node"><title>Node4</title>
<g id="a_node4"><a xlink:href="classartvision__instanton_1_1_image.html#af2b536a2073964b44f3328d7b9a5853a" target="_top" xlink:title="Allocate the image data. ">
<polygon fill="white" stroke="black" points="471,-188.5 471,-218.5 569,-218.5 569,-188.5 471,-188.5"/>
<text text-anchor="start" x="479" y="-206.5" font-family="Helvetica,sans-Serif" font-size="10.00">artvision_instanton</text>
<text text-anchor="middle" x="520" y="-195.5" font-family="Helvetica,sans-Serif" font-size="10.00">::Image::alloc</text>
</a>
</g>
</g>
<!-- Node3&#45;&gt;Node4 -->
<g id="edge3" class="edge"><title>Node3&#45;&gt;Node4</title>
<path fill="none" stroke="midnightblue" d="M426.459,-174.519C437.638,-178.02 449.657,-181.784 461.212,-185.403"/>
<polygon fill="midnightblue" stroke="midnightblue" points="460.191,-188.75 470.78,-188.399 462.283,-182.07 460.191,-188.75"/>
</g>
<!-- Node6 -->
<g id="node6" class="node"><title>Node6</title>
<g id="a_node6"><a xlink:href="classartvision__instanton_1_1_image.html#abfe6de817ab2c75f289b7f679c3a1e54" target="_top" xlink:title="artvision_instanton\l::Image::step">
<polygon fill="white" stroke="black" points="625.5,-322.5 625.5,-352.5 723.5,-352.5 723.5,-322.5 625.5,-322.5"/>
<text text-anchor="start" x="633.5" y="-340.5" font-family="Helvetica,sans-Serif" font-size="10.00">artvision_instanton</text>
<text text-anchor="middle" x="674.5" y="-329.5" font-family="Helvetica,sans-Serif" font-size="10.00">::Image::step</text>
</a>
</g>
</g>
<!-- Node3&#45;&gt;Node6 -->
<g id="edge17" class="edge"><title>Node3&#45;&gt;Node6</title>
<path fill="none" stroke="midnightblue" d="M388.72,-174.717C404.167,-196.669 435.46,-237.241 471,-261.5 515.311,-291.745 573.234,-311.903 615.775,-323.812"/>
<polygon fill="midnightblue" stroke="midnightblue" points="614.854,-327.188 625.422,-326.446 616.697,-320.435 614.854,-327.188"/>
</g>
<!-- Node7 -->
<g id="node7" class="node"><title>Node7</title>
<g id="a_node7"><a xlink:href="ioapi_8h.html#a787fa3cf048117ba7123753c1e74fcd6" target="_top" xlink:title="int">
<polygon fill="white" stroke="black" points="660,-284 660,-303 689,-303 689,-284 660,-284"/>
<text text-anchor="middle" x="674.5" y="-291" font-family="Helvetica,sans-Serif" font-size="10.00">int</text>
</a>
</g>
</g>
<!-- Node3&#45;&gt;Node7 -->
<g id="edge16" class="edge"><title>Node3&#45;&gt;Node7</title>
<path fill="none" stroke="midnightblue" d="M395.086,-174.565C412.77,-189.952 442.148,-213.635 471,-228.5 532.054,-259.956 611.295,-280.017 650.06,-288.635"/>
<polygon fill="midnightblue" stroke="midnightblue" points="649.356,-292.064 659.871,-290.762 650.84,-285.223 649.356,-292.064"/>
</g>
<!-- Node9 -->
<g id="node9" class="node"><title>Node9</title>
<g id="a_node9"><a xlink:href="classartvision__instanton_1_1_image.html#ac6859f6426c8d6729f2ada431148506f" target="_top" xlink:title="Get the image type. ">
<polygon fill="white" stroke="black" points="625.5,-147.5 625.5,-177.5 723.5,-177.5 723.5,-147.5 625.5,-147.5"/>
<text text-anchor="start" x="633.5" y="-165.5" font-family="Helvetica,sans-Serif" font-size="10.00">artvision_instanton</text>
<text text-anchor="middle" x="674.5" y="-154.5" font-family="Helvetica,sans-Serif" font-size="10.00">::Image::type</text>
</a>
</g>
</g>
<!-- Node3&#45;&gt;Node9 -->
<g id="edge13" class="edge"><title>Node3&#45;&gt;Node9</title>
<path fill="none" stroke="midnightblue" d="M427.544,-159.999C479.107,-160.523 560.21,-161.348 615.056,-161.906"/>
<polygon fill="midnightblue" stroke="midnightblue" points="615.284,-165.408 625.319,-162.01 615.355,-158.408 615.284,-165.408"/>
</g>
<!-- Node10 -->
<g id="node10" class="node"><title>Node10</title>
<g id="a_node10"><a xlink:href="classartvision__instanton_1_1_image.html#a8376556c69707ff32d49a1e2b3d63a43" target="_top" xlink:title="artvision_instanton\l::Image::channels">
<polygon fill="white" stroke="black" points="625.5,-98.5 625.5,-128.5 723.5,-128.5 723.5,-98.5 625.5,-98.5"/>
<text text-anchor="start" x="633.5" y="-116.5" font-family="Helvetica,sans-Serif" font-size="10.00">artvision_instanton</text>
<text text-anchor="middle" x="674.5" y="-105.5" font-family="Helvetica,sans-Serif" font-size="10.00">::Image::channels</text>
</a>
</g>
</g>
<!-- Node3&#45;&gt;Node10 -->
<g id="edge18" class="edge"><title>Node3&#45;&gt;Node10</title>
<path fill="none" stroke="midnightblue" d="M427.544,-151.852C479.214,-143.795 560.548,-131.113 615.398,-122.56"/>
<polygon fill="midnightblue" stroke="midnightblue" points="615.977,-126.012 625.319,-121.013 614.899,-119.096 615.977,-126.012"/>
</g>
<!-- Node11 -->
<g id="node11" class="node"><title>Node11</title>
<g id="a_node11"><a xlink:href="classartvision__instanton_1_1_image.html#a26334124ea185241a9af99e03bdd6385" target="_top" xlink:title="Get the dimensions of the image. ">
<polygon fill="white" stroke="black" points="625.5,-49.5 625.5,-79.5 723.5,-79.5 723.5,-49.5 625.5,-49.5"/>
<text text-anchor="start" x="633.5" y="-67.5" font-family="Helvetica,sans-Serif" font-size="10.00">artvision_instanton</text>
<text text-anchor="middle" x="674.5" y="-56.5" font-family="Helvetica,sans-Serif" font-size="10.00">::Image::width</text>
</a>
</g>
</g>
<!-- Node3&#45;&gt;Node11 -->
<g id="edge14" class="edge"><title>Node3&#45;&gt;Node11</title>
<path fill="none" stroke="midnightblue" d="M421.234,-144.402C436.857,-138.966 454.694,-132.855 471,-127.5 519.635,-111.526 575.173,-94.3207 615.77,-81.9328"/>
<polygon fill="midnightblue" stroke="midnightblue" points="616.948,-85.2326 625.494,-78.9703 614.909,-78.5364 616.948,-85.2326"/>
</g>
<!-- Node12 -->
<g id="node12" class="node"><title>Node12</title>
<g id="a_node12"><a xlink:href="classartvision__instanton_1_1_image.html#a8fe378f1d9a2fbeb89112b9c9600bdd6" target="_top" xlink:title="artvision_instanton\l::Image::height">
<polygon fill="white" stroke="black" points="625.5,-0.5 625.5,-30.5 723.5,-30.5 723.5,-0.5 625.5,-0.5"/>
<text text-anchor="start" x="633.5" y="-18.5" font-family="Helvetica,sans-Serif" font-size="10.00">artvision_instanton</text>
<text text-anchor="middle" x="674.5" y="-7.5" font-family="Helvetica,sans-Serif" font-size="10.00">::Image::height</text>
</a>
</g>
</g>
<!-- Node3&#45;&gt;Node12 -->
<g id="edge15" class="edge"><title>Node3&#45;&gt;Node12</title>
<path fill="none" stroke="midnightblue" d="M418.278,-144.471C424.113,-141.545 429.876,-138.215 435,-134.5 454.364,-120.462 451.447,-108.275 471,-94.5 523.629,-57.4239 544.824,-62.3735 605,-39.5 609.809,-37.672 614.827,-35.8167 619.864,-33.9892"/>
<polygon fill="midnightblue" stroke="midnightblue" points="621.294,-37.1946 629.525,-30.5236 618.93,-30.6057 621.294,-37.1946"/>
</g>
<!-- Node5 -->
<g id="node5" class="node"><title>Node5</title>
<g id="a_node5"><a xlink:href="classartvision__instanton_1_1_image.html#a5da9991c89d2324c7ec145973298c130" target="_top" xlink:title="artvision_instanton\l::Image::size">
<polygon fill="white" stroke="black" points="780,-218.5 780,-248.5 878,-248.5 878,-218.5 780,-218.5"/>
<text text-anchor="start" x="788" y="-236.5" font-family="Helvetica,sans-Serif" font-size="10.00">artvision_instanton</text>
<text text-anchor="middle" x="829" y="-225.5" font-family="Helvetica,sans-Serif" font-size="10.00">::Image::size</text>
</a>
</g>
</g>
<!-- Node4&#45;&gt;Node5 -->
<g id="edge4" class="edge"><title>Node4&#45;&gt;Node5</title>
<path fill="none" stroke="midnightblue" d="M551.291,-218.583C566.915,-225.532 586.526,-233.001 605,-236.5 660.058,-246.927 724.135,-244.606 769.438,-240.618"/>
<polygon fill="midnightblue" stroke="midnightblue" points="770.038,-244.077 779.669,-239.661 769.386,-237.107 770.038,-244.077"/>
</g>
<!-- Node4&#45;&gt;Node6 -->
<g id="edge5" class="edge"><title>Node4&#45;&gt;Node6</title>
<path fill="none" stroke="midnightblue" d="M528.991,-218.734C541.959,-242.069 569.726,-286.669 605,-312.5 608.447,-315.024 612.176,-317.318 616.052,-319.397"/>
<polygon fill="midnightblue" stroke="midnightblue" points="614.775,-322.667 625.301,-323.868 617.822,-316.365 614.775,-322.667"/>
</g>
<!-- Node4&#45;&gt;Node7 -->
<g id="edge6" class="edge"><title>Node4&#45;&gt;Node7</title>
<path fill="none" stroke="midnightblue" d="M536.903,-218.64C553.001,-233.297 579.142,-255.324 605,-269.5 619.124,-277.243 636.222,-283.238 649.803,-287.299"/>
<polygon fill="midnightblue" stroke="midnightblue" points="649.24,-290.777 659.816,-290.138 651.15,-284.043 649.24,-290.777"/>
</g>
<!-- Node8 -->
<g id="node8" class="node"><title>Node8</title>
<g id="a_node8"><a xlink:href="classartvision__instanton_1_1_image.html#a31fdf398f739c5eccf617ae7e20c88ab" target="_top" xlink:title="Calculate the size of a single unit. ">
<polygon fill="white" stroke="black" points="605,-196.5 605,-226.5 744,-226.5 744,-196.5 605,-196.5"/>
<text text-anchor="start" x="613" y="-214.5" font-family="Helvetica,sans-Serif" font-size="10.00">artvision_instanton</text>
<text text-anchor="middle" x="674.5" y="-203.5" font-family="Helvetica,sans-Serif" font-size="10.00">::Image::calculate_unit_size</text>
</a>
</g>
</g>
<!-- Node4&#45;&gt;Node8 -->
<g id="edge7" class="edge"><title>Node4&#45;&gt;Node8</title>
<path fill="none" stroke="midnightblue" d="M569.252,-206.031C577.405,-206.459 586.055,-206.913 594.748,-207.369"/>
<polygon fill="midnightblue" stroke="midnightblue" points="594.776,-210.875 604.945,-207.904 595.142,-203.885 594.776,-210.875"/>
</g>
<!-- Node4&#45;&gt;Node9 -->
<g id="edge9" class="edge"><title>Node4&#45;&gt;Node9</title>
<path fill="none" stroke="midnightblue" d="M569.252,-190.527C583.926,-186.582 600.207,-182.205 615.456,-178.105"/>
<polygon fill="midnightblue" stroke="midnightblue" points="616.552,-181.435 625.3,-175.459 614.735,-174.675 616.552,-181.435"/>
</g>
<!-- Node4&#45;&gt;Node10 -->
<g id="edge10" class="edge"><title>Node4&#45;&gt;Node10</title>
<path fill="none" stroke="midnightblue" d="M536.903,-188.36C553.001,-173.703 579.142,-151.676 605,-137.5 608.505,-135.579 612.193,-133.765 615.964,-132.062"/>
<polygon fill="midnightblue" stroke="midnightblue" points="617.603,-135.169 625.456,-128.057 614.882,-128.719 617.603,-135.169"/>
</g>
<!-- Node4&#45;&gt;Node11 -->
<g id="edge11" class="edge"><title>Node4&#45;&gt;Node11</title>
<path fill="none" stroke="midnightblue" d="M528.324,-188.16C540.759,-163.677 568.271,-115.759 605,-88.5 608.415,-85.9654 612.12,-83.682 615.98,-81.6276"/>
<polygon fill="midnightblue" stroke="midnightblue" points="617.676,-84.6967 625.201,-77.239 614.668,-78.3759 617.676,-84.6967"/>
</g>
<!-- Node4&#45;&gt;Node12 -->
<g id="edge12" class="edge"><title>Node4&#45;&gt;Node12</title>
<path fill="none" stroke="midnightblue" d="M524.631,-188.471C533.121,-156.47 557.265,-81.1326 605,-39.5 608.404,-36.5312 612.198,-33.9232 616.205,-31.6333"/>
<polygon fill="midnightblue" stroke="midnightblue" points="617.871,-34.7133 625.251,-27.1115 614.742,-28.4519 617.871,-34.7133"/>
</g>
<!-- Node8&#45;&gt;Node5 -->
<g id="edge8" class="edge"><title>Node8&#45;&gt;Node5</title>
<path fill="none" stroke="midnightblue" d="M744.166,-221.406C752.709,-222.638 761.381,-223.889 769.745,-225.096"/>
<polygon fill="midnightblue" stroke="midnightblue" points="769.37,-228.578 779.768,-226.542 770.37,-221.65 769.37,-228.578"/>
</g>
</g>
</svg>
