<?xml version="1.0" encoding="UTF-8" standalone="no"?>
<!DOCTYPE svg PUBLIC "-//W3C//DTD SVG 1.1//EN"
 "http://www.w3.org/Graphics/SVG/1.1/DTD/svg11.dtd">
<!-- Generated by graphviz version 2.38.0 (20140413.2041)
 -->
<!-- Title: artvision_instanton::ImageSample::deepCopy Pages: 1 -->
<svg width="735pt" height="361pt"
 viewBox="0.00 0.00 735.00 361.00" xmlns="http://www.w3.org/2000/svg" xmlns:xlink="http://www.w3.org/1999/xlink">
<g id="graph0" class="graph" transform="scale(1 1) rotate(0) translate(4 357)">
<title>artvision_instanton::ImageSample::deepCopy</title>
<polygon fill="white" stroke="none" points="-4,4 -4,-357 731,-357 731,4 -4,4"/>
<!-- Node1 -->
<g id="node1" class="node"><title>Node1</title>
<polygon fill="#bfbfbf" stroke="black" points="0,-95.5 0,-125.5 133,-125.5 133,-95.5 0,-95.5"/>
<text text-anchor="start" x="8" y="-113.5" font-family="Helvetica,sans-Serif" font-size="10.00">artvision_instanton</text>
<text text-anchor="middle" x="66.5" y="-102.5" font-family="Helvetica,sans-Serif" font-size="10.00">::ImageSample::deepCopy</text>
</g>
<!-- Node2 -->
<g id="node2" class="node"><title>Node2</title>
<g id="a_node2"><a xlink:href="classartvision__instanton_1_1_image.html#aa2c82bdd1f3bd615c52618e532daae8a" target="_top" xlink:title="Copy functions. ">
<polygon fill="white" stroke="black" points="176.5,-144.5 176.5,-174.5 276.5,-174.5 276.5,-144.5 176.5,-144.5"/>
<text text-anchor="start" x="184.5" y="-162.5" font-family="Helvetica,sans-Serif" font-size="10.00">artvision_instanton</text>
<text text-anchor="middle" x="226.5" y="-151.5" font-family="Helvetica,sans-Serif" font-size="10.00">::Image::deepCopy</text>
</a>
</g>
</g>
<!-- Node1&#45;&gt;Node2 -->
<g id="edge1" class="edge"><title>Node1&#45;&gt;Node2</title>
<path fill="none" stroke="midnightblue" d="M116.194,-125.601C132.339,-130.608 150.474,-136.232 167.262,-141.439"/>
<polygon fill="midnightblue" stroke="midnightblue" points="166.378,-144.829 176.966,-144.448 168.452,-138.143 166.378,-144.829"/>
</g>
<!-- Node12 -->
<g id="node12" class="node"><title>Node12</title>
<g id="a_node12"><a xlink:href="classartvision__instanton_1_1_image_sample.html#a35c53a5db36e9a3dff1d53df5319536b" target="_top" xlink:title="Get the image. ">
<polygon fill="white" stroke="black" points="169,-95.5 169,-125.5 284,-125.5 284,-95.5 169,-95.5"/>
<text text-anchor="start" x="177" y="-113.5" font-family="Helvetica,sans-Serif" font-size="10.00">artvision_instanton</text>
<text text-anchor="middle" x="226.5" y="-102.5" font-family="Helvetica,sans-Serif" font-size="10.00">::ImageSample::image</text>
</a>
</g>
</g>
<!-- Node1&#45;&gt;Node12 -->
<g id="edge18" class="edge"><title>Node1&#45;&gt;Node12</title>
<path fill="none" stroke="midnightblue" d="M133.134,-110.5C141.572,-110.5 150.221,-110.5 158.678,-110.5"/>
<polygon fill="midnightblue" stroke="midnightblue" points="158.873,-114 168.873,-110.5 158.873,-107 158.873,-114"/>
</g>
<!-- Node13 -->
<g id="node13" class="node"><title>Node13</title>
<g id="a_node13"><a xlink:href="classartvision__instanton_1_1_sample.html#a49f9a53122b15156492deb3f1f6ceb01" target="_top" xlink:title="artvision_instanton\l::Sample::deepCopy">
<polygon fill="white" stroke="black" points="173.5,-46.5 173.5,-76.5 279.5,-76.5 279.5,-46.5 173.5,-46.5"/>
<text text-anchor="start" x="181.5" y="-64.5" font-family="Helvetica,sans-Serif" font-size="10.00">artvision_instanton</text>
<text text-anchor="middle" x="226.5" y="-53.5" font-family="Helvetica,sans-Serif" font-size="10.00">::Sample::deepCopy</text>
</a>
</g>
</g>
<!-- Node1&#45;&gt;Node13 -->
<g id="edge19" class="edge"><title>Node1&#45;&gt;Node13</title>
<path fill="none" stroke="midnightblue" d="M116.194,-95.3986C132.339,-90.3917 150.474,-84.7676 167.262,-79.561"/>
<polygon fill="midnightblue" stroke="midnightblue" points="168.452,-82.8567 176.966,-76.5516 166.378,-76.1708 168.452,-82.8567"/>
</g>
<!-- Node3 -->
<g id="node3" class="node"><title>Node3</title>
<g id="a_node3"><a xlink:href="classartvision__instanton_1_1_image.html#af2b536a2073964b44f3328d7b9a5853a" target="_top" xlink:title="Allocate the image data. ">
<polygon fill="white" stroke="black" points="320,-188.5 320,-218.5 418,-218.5 418,-188.5 320,-188.5"/>
<text text-anchor="start" x="328" y="-206.5" font-family="Helvetica,sans-Serif" font-size="10.00">artvision_instanton</text>
<text text-anchor="middle" x="369" y="-195.5" font-family="Helvetica,sans-Serif" font-size="10.00">::Image::alloc</text>
</a>
</g>
</g>
<!-- Node2&#45;&gt;Node3 -->
<g id="edge2" class="edge"><title>Node2&#45;&gt;Node3</title>
<path fill="none" stroke="midnightblue" d="M275.459,-174.519C286.638,-178.02 298.657,-181.784 310.212,-185.403"/>
<polygon fill="midnightblue" stroke="midnightblue" points="309.191,-188.75 319.78,-188.399 311.283,-182.07 309.191,-188.75"/>
</g>
<!-- Node5 -->
<g id="node5" class="node"><title>Node5</title>
<g id="a_node5"><a xlink:href="classartvision__instanton_1_1_image.html#abfe6de817ab2c75f289b7f679c3a1e54" target="_top" xlink:title="artvision_instanton\l::Image::step">
<polygon fill="white" stroke="black" points="474.5,-322.5 474.5,-352.5 572.5,-352.5 572.5,-322.5 474.5,-322.5"/>
<text text-anchor="start" x="482.5" y="-340.5" font-family="Helvetica,sans-Serif" font-size="10.00">artvision_instanton</text>
<text text-anchor="middle" x="523.5" y="-329.5" font-family="Helvetica,sans-Serif" font-size="10.00">::Image::step</text>
</a>
</g>
</g>
<!-- Node2&#45;&gt;Node5 -->
<g id="edge16" class="edge"><title>Node2&#45;&gt;Node5</title>
<path fill="none" stroke="midnightblue" d="M237.72,-174.717C253.167,-196.669 284.46,-237.241 320,-261.5 364.311,-291.745 422.234,-311.903 464.775,-323.812"/>
<polygon fill="midnightblue" stroke="midnightblue" points="463.854,-327.188 474.422,-326.446 465.697,-320.435 463.854,-327.188"/>
</g>
<!-- Node6 -->
<g id="node6" class="node"><title>Node6</title>
<g id="a_node6"><a xlink:href="ioapi_8h.html#a787fa3cf048117ba7123753c1e74fcd6" target="_top" xlink:title="int">
<polygon fill="white" stroke="black" points="509,-284 509,-303 538,-303 538,-284 509,-284"/>
<text text-anchor="middle" x="523.5" y="-291" font-family="Helvetica,sans-Serif" font-size="10.00">int</text>
</a>
</g>
</g>
<!-- Node2&#45;&gt;Node6 -->
<g id="edge15" class="edge"><title>Node2&#45;&gt;Node6</title>
<path fill="none" stroke="midnightblue" d="M244.086,-174.565C261.77,-189.952 291.148,-213.635 320,-228.5 381.054,-259.956 460.295,-280.017 499.06,-288.635"/>
<polygon fill="midnightblue" stroke="midnightblue" points="498.356,-292.064 508.871,-290.762 499.84,-285.223 498.356,-292.064"/>
</g>
<!-- Node8 -->
<g id="node8" class="node"><title>Node8</title>
<g id="a_node8"><a xlink:href="classartvision__instanton_1_1_image.html#ac6859f6426c8d6729f2ada431148506f" target="_top" xlink:title="Get the image type. ">
<polygon fill="white" stroke="black" points="474.5,-147.5 474.5,-177.5 572.5,-177.5 572.5,-147.5 474.5,-147.5"/>
<text text-anchor="start" x="482.5" y="-165.5" font-family="Helvetica,sans-Serif" font-size="10.00">artvision_instanton</text>
<text text-anchor="middle" x="523.5" y="-154.5" font-family="Helvetica,sans-Serif" font-size="10.00">::Image::type</text>
</a>
</g>
</g>
<!-- Node2&#45;&gt;Node8 -->
<g id="edge12" class="edge"><title>Node2&#45;&gt;Node8</title>
<path fill="none" stroke="midnightblue" d="M276.544,-159.999C328.107,-160.523 409.21,-161.348 464.056,-161.906"/>
<polygon fill="midnightblue" stroke="midnightblue" points="464.284,-165.408 474.319,-162.01 464.355,-158.408 464.284,-165.408"/>
</g>
<!-- Node9 -->
<g id="node9" class="node"><title>Node9</title>
<g id="a_node9"><a xlink:href="classartvision__instanton_1_1_image.html#a8376556c69707ff32d49a1e2b3d63a43" target="_top" xlink:title="artvision_instanton\l::Image::channels">
<polygon fill="white" stroke="black" points="474.5,-98.5 474.5,-128.5 572.5,-128.5 572.5,-98.5 474.5,-98.5"/>
<text text-anchor="start" x="482.5" y="-116.5" font-family="Helvetica,sans-Serif" font-size="10.00">artvision_instanton</text>
<text text-anchor="middle" x="523.5" y="-105.5" font-family="Helvetica,sans-Serif" font-size="10.00">::Image::channels</text>
</a>
</g>
</g>
<!-- Node2&#45;&gt;Node9 -->
<g id="edge17" class="edge"><title>Node2&#45;&gt;Node9</title>
<path fill="none" stroke="midnightblue" d="M276.544,-151.852C328.214,-143.795 409.548,-131.113 464.398,-122.56"/>
<polygon fill="midnightblue" stroke="midnightblue" points="464.977,-126.012 474.319,-121.013 463.899,-119.096 464.977,-126.012"/>
</g>
<!-- Node10 -->
<g id="node10" class="node"><title>Node10</title>
<g id="a_node10"><a xlink:href="classartvision__instanton_1_1_image.html#a26334124ea185241a9af99e03bdd6385" target="_top" xlink:title="Get the dimensions of the image. ">
<polygon fill="white" stroke="black" points="474.5,-49.5 474.5,-79.5 572.5,-79.5 572.5,-49.5 474.5,-49.5"/>
<text text-anchor="start" x="482.5" y="-67.5" font-family="Helvetica,sans-Serif" font-size="10.00">artvision_instanton</text>
<text text-anchor="middle" x="523.5" y="-56.5" font-family="Helvetica,sans-Serif" font-size="10.00">::Image::width</text>
</a>
</g>
</g>
<!-- Node2&#45;&gt;Node10 -->
<g id="edge13" class="edge"><title>Node2&#45;&gt;Node10</title>
<path fill="none" stroke="midnightblue" d="M270.234,-144.402C285.857,-138.966 303.694,-132.855 320,-127.5 368.635,-111.526 424.173,-94.3207 464.77,-81.9328"/>
<polygon fill="midnightblue" stroke="midnightblue" points="465.948,-85.2326 474.494,-78.9703 463.909,-78.5364 465.948,-85.2326"/>
</g>
<!-- Node11 -->
<g id="node11" class="node"><title>Node11</title>
<g id="a_node11"><a xlink:href="classartvision__instanton_1_1_image.html#a8fe378f1d9a2fbeb89112b9c9600bdd6" target="_top" xlink:title="artvision_instanton\l::Image::height">
<polygon fill="white" stroke="black" points="474.5,-0.5 474.5,-30.5 572.5,-30.5 572.5,-0.5 474.5,-0.5"/>
<text text-anchor="start" x="482.5" y="-18.5" font-family="Helvetica,sans-Serif" font-size="10.00">artvision_instanton</text>
<text text-anchor="middle" x="523.5" y="-7.5" font-family="Helvetica,sans-Serif" font-size="10.00">::Image::height</text>
</a>
</g>
</g>
<!-- Node2&#45;&gt;Node11 -->
<g id="edge14" class="edge"><title>Node2&#45;&gt;Node11</title>
<path fill="none" stroke="midnightblue" d="M267.278,-144.471C273.113,-141.545 278.876,-138.215 284,-134.5 303.364,-120.462 300.447,-108.275 320,-94.5 372.629,-57.4239 393.824,-62.3735 454,-39.5 458.809,-37.672 463.827,-35.8167 468.864,-33.9892"/>
<polygon fill="midnightblue" stroke="midnightblue" points="470.294,-37.1946 478.525,-30.5236 467.93,-30.6057 470.294,-37.1946"/>
</g>
<!-- Node4 -->
<g id="node4" class="node"><title>Node4</title>
<g id="a_node4"><a xlink:href="classartvision__instanton_1_1_image.html#a5da9991c89d2324c7ec145973298c130" target="_top" xlink:title="artvision_instanton\l::Image::size">
<polygon fill="white" stroke="black" points="629,-218.5 629,-248.5 727,-248.5 727,-218.5 629,-218.5"/>
<text text-anchor="start" x="637" y="-236.5" font-family="Helvetica,sans-Serif" font-size="10.00">artvision_instanton</text>
<text text-anchor="middle" x="678" y="-225.5" font-family="Helvetica,sans-Serif" font-size="10.00">::Image::size</text>
</a>
</g>
</g>
<!-- Node3&#45;&gt;Node4 -->
<g id="edge3" class="edge"><title>Node3&#45;&gt;Node4</title>
<path fill="none" stroke="midnightblue" d="M400.291,-218.583C415.915,-225.532 435.526,-233.001 454,-236.5 509.058,-246.927 573.135,-244.606 618.438,-240.618"/>
<polygon fill="midnightblue" stroke="midnightblue" points="619.038,-244.077 628.669,-239.661 618.386,-237.107 619.038,-244.077"/>
</g>
<!-- Node3&#45;&gt;Node5 -->
<g id="edge4" class="edge"><title>Node3&#45;&gt;Node5</title>
<path fill="none" stroke="midnightblue" d="M377.991,-218.734C390.959,-242.069 418.726,-286.669 454,-312.5 457.447,-315.024 461.176,-317.318 465.052,-319.397"/>
<polygon fill="midnightblue" stroke="midnightblue" points="463.775,-322.667 474.301,-323.868 466.822,-316.365 463.775,-322.667"/>
</g>
<!-- Node3&#45;&gt;Node6 -->
<g id="edge5" class="edge"><title>Node3&#45;&gt;Node6</title>
<path fill="none" stroke="midnightblue" d="M385.903,-218.64C402.001,-233.297 428.142,-255.324 454,-269.5 468.124,-277.243 485.222,-283.238 498.803,-287.299"/>
<polygon fill="midnightblue" stroke="midnightblue" points="498.24,-290.777 508.816,-290.138 500.15,-284.043 498.24,-290.777"/>
</g>
<!-- Node7 -->
<g id="node7" class="node"><title>Node7</title>
<g id="a_node7"><a xlink:href="classartvision__instanton_1_1_image.html#a31fdf398f739c5eccf617ae7e20c88ab" target="_top" xlink:title="Calculate the size of a single unit. ">
<polygon fill="white" stroke="black" points="454,-196.5 454,-226.5 593,-226.5 593,-196.5 454,-196.5"/>
<text text-anchor="start" x="462" y="-214.5" font-family="Helvetica,sans-Serif" font-size="10.00">artvision_instanton</text>
<text text-anchor="middle" x="523.5" y="-203.5" font-family="Helvetica,sans-Serif" font-size="10.00">::Image::calculate_unit_size</text>
</a>
</g>
</g>
<!-- Node3&#45;&gt;Node7 -->
<g id="edge6" class="edge"><title>Node3&#45;&gt;Node7</title>
<path fill="none" stroke="midnightblue" d="M418.252,-206.031C426.405,-206.459 435.055,-206.913 443.748,-207.369"/>
<polygon fill="midnightblue" stroke="midnightblue" points="443.776,-210.875 453.945,-207.904 444.142,-203.885 443.776,-210.875"/>
</g>
<!-- Node3&#45;&gt;Node8 -->
<g id="edge8" class="edge"><title>Node3&#45;&gt;Node8</title>
<path fill="none" stroke="midnightblue" d="M418.252,-190.527C432.926,-186.582 449.207,-182.205 464.456,-178.105"/>
<polygon fill="midnightblue" stroke="midnightblue" points="465.552,-181.435 474.3,-175.459 463.735,-174.675 465.552,-181.435"/>
</g>
<!-- Node3&#45;&gt;Node9 -->
<g id="edge9" class="edge"><title>Node3&#45;&gt;Node9</title>
<path fill="none" stroke="midnightblue" d="M385.903,-188.36C402.001,-173.703 428.142,-151.676 454,-137.5 457.505,-135.579 461.193,-133.765 464.964,-132.062"/>
<polygon fill="midnightblue" stroke="midnightblue" points="466.603,-135.169 474.456,-128.057 463.882,-128.719 466.603,-135.169"/>
</g>
<!-- Node3&#45;&gt;Node10 -->
<g id="edge10" class="edge"><title>Node3&#45;&gt;Node10</title>
<path fill="none" stroke="midnightblue" d="M377.324,-188.16C389.759,-163.677 417.271,-115.759 454,-88.5 457.415,-85.9654 461.12,-83.682 464.98,-81.6276"/>
<polygon fill="midnightblue" stroke="midnightblue" points="466.676,-84.6967 474.201,-77.239 463.668,-78.3759 466.676,-84.6967"/>
</g>
<!-- Node3&#45;&gt;Node11 -->
<g id="edge11" class="edge"><title>Node3&#45;&gt;Node11</title>
<path fill="none" stroke="midnightblue" d="M373.631,-188.471C382.121,-156.47 406.265,-81.1326 454,-39.5 457.404,-36.5312 461.198,-33.9232 465.205,-31.6333"/>
<polygon fill="midnightblue" stroke="midnightblue" points="466.871,-34.7133 474.251,-27.1115 463.742,-28.4519 466.871,-34.7133"/>
</g>
<!-- Node7&#45;&gt;Node4 -->
<g id="edge7" class="edge"><title>Node7&#45;&gt;Node4</title>
<path fill="none" stroke="midnightblue" d="M593.166,-221.406C601.709,-222.638 610.381,-223.889 618.745,-225.096"/>
<polygon fill="midnightblue" stroke="midnightblue" points="618.37,-228.578 628.768,-226.542 619.37,-221.65 618.37,-228.578"/>
</g>
</g>
</svg>
