<?xml version="1.0" encoding="UTF-8" standalone="no"?>
<!DOCTYPE svg PUBLIC "-//W3C//DTD SVG 1.1//EN"
 "http://www.w3.org/Graphics/SVG/1.1/DTD/svg11.dtd">
<!-- Generated by graphviz version 2.38.0 (20140413.2041)
 -->
<!-- Title: artvision_instanton::AttitudeSyncFilter Pages: 1 -->
<svg width="1154pt" height="258pt"
 viewBox="0.00 0.00 1154.00 257.50" xmlns="http://www.w3.org/2000/svg" xmlns:xlink="http://www.w3.org/1999/xlink">
<g id="graph0" class="graph" transform="scale(1 1) rotate(0) translate(4 253.5)">
<title>artvision_instanton::AttitudeSyncFilter</title>
<polygon fill="white" stroke="none" points="-4,4 -4,-253.5 1150,-253.5 1150,4 -4,4"/>
<!-- Node1 -->
<g id="node1" class="node"><title>Node1</title>
<polygon fill="#bfbfbf" stroke="black" points="1045,-55 1045,-85 1146,-85 1146,-55 1045,-55"/>
<text text-anchor="start" x="1053" y="-73" font-family="Helvetica,sans-Serif" font-size="10.00">artvision_instanton</text>
<text text-anchor="middle" x="1095.5" y="-62" font-family="Helvetica,sans-Serif" font-size="10.00">::AttitudeSyncFilter</text>
</g>
<!-- Node2 -->
<g id="node2" class="node"><title>Node2</title>
<g id="a_node2"><a xlink:href="classartvision__instanton_1_1_transform_filter.html" target="_top" xlink:title="artvision_instanton\l::TransformFilter">
<polygon fill="white" stroke="black" points="825.5,-148 825.5,-178 923.5,-178 923.5,-148 825.5,-148"/>
<text text-anchor="start" x="833.5" y="-166" font-family="Helvetica,sans-Serif" font-size="10.00">artvision_instanton</text>
<text text-anchor="middle" x="874.5" y="-155" font-family="Helvetica,sans-Serif" font-size="10.00">::TransformFilter</text>
</a>
</g>
</g>
<!-- Node2&#45;&gt;Node1 -->
<g id="edge1" class="edge"><title>Node2&#45;&gt;Node1</title>
<path fill="none" stroke="midnightblue" d="M926.318,-144.254C931.631,-142.187 936.937,-140.078 942,-138 983.969,-120.772 1031.62,-99.195 1062.32,-85.0246"/>
<polygon fill="midnightblue" stroke="midnightblue" points="924.878,-141.058 916.8,-147.912 927.39,-147.592 924.878,-141.058"/>
</g>
<!-- Node3 -->
<g id="node3" class="node"><title>Node3</title>
<g id="a_node3"><a xlink:href="classartvision__instanton_1_1_filter.html" target="_top" xlink:title="artvision_instanton\l::Filter">
<polygon fill="white" stroke="black" points="630,-122 630,-152 728,-152 728,-122 630,-122"/>
<text text-anchor="start" x="638" y="-140" font-family="Helvetica,sans-Serif" font-size="10.00">artvision_instanton</text>
<text text-anchor="middle" x="679" y="-129" font-family="Helvetica,sans-Serif" font-size="10.00">::Filter</text>
</a>
</g>
</g>
<!-- Node3&#45;&gt;Node2 -->
<g id="edge2" class="edge"><title>Node3&#45;&gt;Node2</title>
<path fill="none" stroke="midnightblue" d="M738.335,-144.838C766.174,-148.579 799.079,-153 825.452,-156.544"/>
<polygon fill="midnightblue" stroke="midnightblue" points="738.706,-141.357 728.329,-143.494 737.774,-148.294 738.706,-141.357"/>
</g>
<!-- Node9 -->
<g id="node9" class="node"><title>Node9</title>
<polygon fill="white" stroke="#bfbfbf" points="820,-99 820,-129 929,-129 929,-99 820,-99"/>
<text text-anchor="start" x="828" y="-117" font-family="Helvetica,sans-Serif" font-size="10.00">std::vector&lt; artvision</text>
<text text-anchor="middle" x="874.5" y="-106" font-family="Helvetica,sans-Serif" font-size="10.00">_instanton::Filter * &gt;</text>
</g>
<!-- Node3&#45;&gt;Node9 -->
<g id="edge10" class="edge"><title>Node3&#45;&gt;Node9</title>
<path fill="none" stroke="#9a32cd" stroke-dasharray="5,2" d="M738.362,-130.063C764.19,-126.993 794.374,-123.405 819.656,-120.4"/>
<polygon fill="#9a32cd" stroke="#9a32cd" points="737.846,-126.6 728.329,-131.255 738.672,-133.551 737.846,-126.6"/>
<text text-anchor="middle" x="767.5" y="-132" font-family="Helvetica,sans-Serif" font-size="10.00"> elements</text>
</g>
<!-- Node4 -->
<g id="node4" class="node"><title>Node4</title>
<g id="a_node4"><a xlink:href="classartvision__instanton_1_1_task.html" target="_top" xlink:title="A task is a recurring event. ">
<polygon fill="white" stroke="black" points="376.5,-219 376.5,-249 474.5,-249 474.5,-219 376.5,-219"/>
<text text-anchor="start" x="384.5" y="-237" font-family="Helvetica,sans-Serif" font-size="10.00">artvision_instanton</text>
<text text-anchor="middle" x="425.5" y="-226" font-family="Helvetica,sans-Serif" font-size="10.00">::Task</text>
</a>
</g>
</g>
<!-- Node4&#45;&gt;Node3 -->
<g id="edge3" class="edge"><title>Node4&#45;&gt;Node3</title>
<path fill="none" stroke="midnightblue" d="M485.147,-233.31C523.162,-230.727 572.729,-223.221 612,-203 635.483,-190.909 655.819,-167.458 667.495,-152.015"/>
<polygon fill="midnightblue" stroke="midnightblue" points="484.529,-229.84 474.749,-233.915 484.935,-236.828 484.529,-229.84"/>
</g>
<!-- Node5 -->
<g id="node5" class="node"><title>Node5</title>
<g id="a_node5"><a xlink:href="classartvision__instanton_1_1_runnable.html" target="_top" xlink:title="artvision_instanton\l::Runnable">
<polygon fill="white" stroke="black" points="146.5,-219 146.5,-249 244.5,-249 244.5,-219 146.5,-219"/>
<text text-anchor="start" x="154.5" y="-237" font-family="Helvetica,sans-Serif" font-size="10.00">artvision_instanton</text>
<text text-anchor="middle" x="195.5" y="-226" font-family="Helvetica,sans-Serif" font-size="10.00">::Runnable</text>
</a>
</g>
</g>
<!-- Node5&#45;&gt;Node4 -->
<g id="edge4" class="edge"><title>Node5&#45;&gt;Node4</title>
<path fill="none" stroke="midnightblue" d="M254.902,-234C292.6,-234 341.039,-234 376.491,-234"/>
<polygon fill="midnightblue" stroke="midnightblue" points="254.574,-230.5 244.574,-234 254.574,-237.5 254.574,-230.5"/>
</g>
<!-- Node6 -->
<g id="node6" class="node"><title>Node6</title>
<polygon fill="white" stroke="#bfbfbf" points="373,-122 373,-152 478,-152 478,-122 373,-122"/>
<text text-anchor="start" x="381" y="-140" font-family="Helvetica,sans-Serif" font-size="10.00">std::multimap&lt; std</text>
<text text-anchor="middle" x="425.5" y="-129" font-family="Helvetica,sans-Serif" font-size="10.00">::string, std::string &gt;</text>
</g>
<!-- Node6&#45;&gt;Node3 -->
<g id="edge5" class="edge"><title>Node6&#45;&gt;Node3</title>
<path fill="none" stroke="#9a32cd" stroke-dasharray="5,2" d="M488.225,-137C531.928,-137 589.701,-137 629.975,-137"/>
<polygon fill="#9a32cd" stroke="#9a32cd" points="488.002,-133.5 478.002,-137 488.002,-140.5 488.002,-133.5"/>
<text text-anchor="middle" x="573" y="-140" font-family="Helvetica,sans-Serif" font-size="10.00"> mInputStreams</text>
</g>
<!-- Node7 -->
<g id="node7" class="node"><title>Node7</title>
<g id="a_node7"><a xlink:title="STL class. ">
<polygon fill="white" stroke="#bfbfbf" points="165.5,-127.5 165.5,-146.5 225.5,-146.5 225.5,-127.5 165.5,-127.5"/>
<text text-anchor="middle" x="195.5" y="-134.5" font-family="Helvetica,sans-Serif" font-size="10.00">std::string</text>
</a>
</g>
</g>
<!-- Node7&#45;&gt;Node3 -->
<g id="edge8" class="edge"><title>Node7&#45;&gt;Node3</title>
<path fill="none" stroke="#9a32cd" stroke-dasharray="5,2" d="M229.101,-150.091C243.526,-155.21 260.851,-160.457 277,-163 294.561,-165.766 299.222,-163.089 317,-163 448.201,-162.341 482.442,-172.706 612,-152 617.802,-151.073 623.855,-149.936 629.84,-148.706"/>
<polygon fill="#9a32cd" stroke="#9a32cd" points="230.221,-146.773 219.628,-146.602 227.802,-153.342 230.221,-146.773"/>
<text text-anchor="middle" x="425.5" y="-169" font-family="Helvetica,sans-Serif" font-size="10.00"> mName</text>
</g>
<!-- Node7&#45;&gt;Node6 -->
<g id="edge6" class="edge"><title>Node7&#45;&gt;Node6</title>
<path fill="none" stroke="#9a32cd" stroke-dasharray="5,2" d="M235.967,-137C273.807,-137 331.152,-137 372.661,-137"/>
<polygon fill="#9a32cd" stroke="#9a32cd" points="235.84,-133.5 225.84,-137 235.84,-140.5 235.84,-133.5"/>
<text text-anchor="middle" x="297" y="-151" font-family="Helvetica,sans-Serif" font-size="10.00"> keys</text>
<text text-anchor="middle" x="297" y="-140" font-family="Helvetica,sans-Serif" font-size="10.00">elements</text>
</g>
<!-- Node12 -->
<g id="node12" class="node"><title>Node12</title>
<polygon fill="white" stroke="#bfbfbf" points="354,-73 354,-103 497,-103 497,-73 354,-73"/>
<text text-anchor="start" x="362" y="-91" font-family="Helvetica,sans-Serif" font-size="10.00">std::map&lt; std::string,</text>
<text text-anchor="middle" x="425.5" y="-80" font-family="Helvetica,sans-Serif" font-size="10.00"> std::shared_ptr&lt; Stream &gt; &gt;</text>
</g>
<!-- Node7&#45;&gt;Node12 -->
<g id="edge14" class="edge"><title>Node7&#45;&gt;Node12</title>
<path fill="none" stroke="#9a32cd" stroke-dasharray="5,2" d="M235.886,-128.535C268.488,-121.529 315.607,-111.402 354.593,-103.024"/>
<polygon fill="#9a32cd" stroke="#9a32cd" points="234.882,-125.171 225.84,-130.694 236.352,-132.015 234.882,-125.171"/>
<text text-anchor="middle" x="297" y="-122" font-family="Helvetica,sans-Serif" font-size="10.00"> keys</text>
</g>
<!-- Node8 -->
<g id="node8" class="node"><title>Node8</title>
<g id="a_node8"><a xlink:title="STL class. ">
<polygon fill="white" stroke="#bfbfbf" points="0,-122 0,-152 95,-152 95,-122 0,-122"/>
<text text-anchor="start" x="8" y="-140" font-family="Helvetica,sans-Serif" font-size="10.00">std::basic_string&lt;</text>
<text text-anchor="middle" x="47.5" y="-129" font-family="Helvetica,sans-Serif" font-size="10.00"> char &gt;</text>
</a>
</g>
</g>
<!-- Node8&#45;&gt;Node7 -->
<g id="edge7" class="edge"><title>Node8&#45;&gt;Node7</title>
<path fill="none" stroke="midnightblue" d="M105.304,-137C125.813,-137 148.117,-137 165.292,-137"/>
<polygon fill="midnightblue" stroke="midnightblue" points="105.097,-133.5 95.0967,-137 105.097,-140.5 105.097,-133.5"/>
</g>
<!-- Node9&#45;&gt;Node3 -->
<g id="edge9" class="edge"><title>Node9&#45;&gt;Node3</title>
<path fill="none" stroke="#9a32cd" stroke-dasharray="5,2" d="M809.695,-101.328C789.153,-99.2803 766.427,-99.1778 746,-104 731.038,-107.532 715.601,-115.004 703.422,-121.946"/>
<polygon fill="#9a32cd" stroke="#9a32cd" points="809.56,-104.836 819.898,-102.518 810.371,-97.8831 809.56,-104.836"/>
<text text-anchor="middle" x="767.5" y="-107" font-family="Helvetica,sans-Serif" font-size="10.00"> mFilters</text>
</g>
<!-- Node10 -->
<g id="node10" class="node"><title>Node10</title>
<polygon fill="white" stroke="#bfbfbf" points="335,-24 335,-54 516,-54 516,-24 335,-24"/>
<text text-anchor="start" x="343" y="-42" font-family="Helvetica,sans-Serif" font-size="10.00">std::unique_ptr&lt; artvision</text>
<text text-anchor="middle" x="425.5" y="-31" font-family="Helvetica,sans-Serif" font-size="10.00">_instanton::IQueue&lt; ContainerPtr &gt; &gt;</text>
</g>
<!-- Node10&#45;&gt;Node3 -->
<g id="edge11" class="edge"><title>Node10&#45;&gt;Node3</title>
<path fill="none" stroke="#9a32cd" stroke-dasharray="5,2" d="M508.177,-56.6647C541.297,-65.3775 579.357,-77.4147 612,-93 628.653,-100.951 645.955,-112.634 658.665,-121.963"/>
<polygon fill="#9a32cd" stroke="#9a32cd" points="508.625,-53.1662 498.069,-54.0672 506.883,-59.9459 508.625,-53.1662"/>
<text text-anchor="middle" x="573" y="-96" font-family="Helvetica,sans-Serif" font-size="10.00"> mInputQueue</text>
</g>
<!-- Node11 -->
<g id="node11" class="node"><title>Node11</title>
<g id="a_node11"><a xlink:href="classartvision__instanton_1_1_i_queue.html" target="_top" xlink:title="artvision_instanton\l::IQueue\&lt; ContainerPtr \&gt;">
<polygon fill="white" stroke="black" points="132,-24 132,-54 259,-54 259,-24 132,-24"/>
<text text-anchor="start" x="140" y="-42" font-family="Helvetica,sans-Serif" font-size="10.00">artvision_instanton</text>
<text text-anchor="middle" x="195.5" y="-31" font-family="Helvetica,sans-Serif" font-size="10.00">::IQueue&lt; ContainerPtr &gt;</text>
</a>
</g>
</g>
<!-- Node11&#45;&gt;Node10 -->
<g id="edge12" class="edge"><title>Node11&#45;&gt;Node10</title>
<path fill="none" stroke="#9a32cd" stroke-dasharray="5,2" d="M269.148,-39C289.989,-39 312.963,-39 334.705,-39"/>
<polygon fill="#9a32cd" stroke="#9a32cd" points="269.104,-35.5001 259.104,-39 269.104,-42.5001 269.104,-35.5001"/>
<text text-anchor="middle" x="297" y="-42" font-family="Helvetica,sans-Serif" font-size="10.00"> ptr</text>
</g>
<!-- Node12&#45;&gt;Node3 -->
<g id="edge13" class="edge"><title>Node12&#45;&gt;Node3</title>
<path fill="none" stroke="#9a32cd" stroke-dasharray="5,2" d="M507.051,-102C539.689,-107.872 577.702,-114.963 612,-122 617.755,-123.181 623.78,-124.473 629.75,-125.787"/>
<polygon fill="#9a32cd" stroke="#9a32cd" points="507.564,-98.5365 497.104,-100.218 506.33,-105.427 507.564,-98.5365"/>
<text text-anchor="middle" x="573" y="-125" font-family="Helvetica,sans-Serif" font-size="10.00"> mOutputStreams</text>
</g>
<!-- Node13 -->
<g id="node13" class="node"><title>Node13</title>
<polygon fill="white" stroke="#bfbfbf" points="807,-60.5 807,-79.5 942,-79.5 942,-60.5 807,-60.5"/>
<text text-anchor="middle" x="874.5" y="-67.5" font-family="Helvetica,sans-Serif" font-size="10.00">std::queue&lt; ContainerPtr &gt;</text>
</g>
<!-- Node13&#45;&gt;Node1 -->
<g id="edge15" class="edge"><title>Node13&#45;&gt;Node1</title>
<path fill="none" stroke="#9a32cd" stroke-dasharray="5,2" d="M952.36,-70C983.088,-70 1017.59,-70 1044.91,-70"/>
<polygon fill="#9a32cd" stroke="#9a32cd" points="952.099,-66.5001 942.099,-70 952.099,-73.5001 952.099,-66.5001"/>
<text text-anchor="middle" x="993.5" y="-73" font-family="Helvetica,sans-Serif" font-size="10.00"> mQueue</text>
</g>
<!-- Node14 -->
<g id="node14" class="node"><title>Node14</title>
<polygon fill="white" stroke="#bfbfbf" points="820.5,-0.5 820.5,-41.5 928.5,-41.5 928.5,-0.5 820.5,-0.5"/>
<text text-anchor="start" x="828.5" y="-29.5" font-family="Helvetica,sans-Serif" font-size="10.00">std::deque&lt; artvision</text>
<text text-anchor="start" x="828.5" y="-18.5" font-family="Helvetica,sans-Serif" font-size="10.00">_instanton::attitude</text>
<text text-anchor="middle" x="874.5" y="-7.5" font-family="Helvetica,sans-Serif" font-size="10.00">_data &gt;</text>
</g>
<!-- Node14&#45;&gt;Node1 -->
<g id="edge16" class="edge"><title>Node14&#45;&gt;Node1</title>
<path fill="none" stroke="#9a32cd" stroke-dasharray="5,2" d="M938.314,-35.0543C972.188,-42.6334 1013.4,-51.8533 1044.98,-58.9194"/>
<polygon fill="#9a32cd" stroke="#9a32cd" points="939.037,-31.6295 928.514,-32.8615 937.508,-38.4606 939.037,-31.6295"/>
<text text-anchor="middle" x="993.5" y="-58" font-family="Helvetica,sans-Serif" font-size="10.00"> mAttitudeData</text>
</g>
<!-- Node15 -->
<g id="node15" class="node"><title>Node15</title>
<g id="a_node15"><a xlink:href="structartvision__instanton_1_1attitude__data.html" target="_top" xlink:title="Represents attitude data. ">
<polygon fill="white" stroke="black" points="630,-6 630,-36 728,-36 728,-6 630,-6"/>
<text text-anchor="start" x="638" y="-24" font-family="Helvetica,sans-Serif" font-size="10.00">artvision_instanton</text>
<text text-anchor="middle" x="679" y="-13" font-family="Helvetica,sans-Serif" font-size="10.00">::attitude_data</text>
</a>
</g>
</g>
<!-- Node15&#45;&gt;Node14 -->
<g id="edge17" class="edge"><title>Node15&#45;&gt;Node14</title>
<path fill="none" stroke="#9a32cd" stroke-dasharray="5,2" d="M738.445,-21C764.491,-21 794.952,-21 820.347,-21"/>
<polygon fill="#9a32cd" stroke="#9a32cd" points="738.329,-17.5001 728.329,-21 738.329,-24.5001 738.329,-17.5001"/>
<text text-anchor="middle" x="767.5" y="-24" font-family="Helvetica,sans-Serif" font-size="10.00"> elements</text>
</g>
</g>
</svg>
