<?xml version="1.0" encoding="UTF-8" standalone="no"?>
<!DOCTYPE svg PUBLIC "-//W3C//DTD SVG 1.1//EN"
 "http://www.w3.org/Graphics/SVG/1.1/DTD/svg11.dtd">
<!-- Generated by graphviz version 2.38.0 (20140413.2041)
 -->
<!-- Title: artvision_instanton::BinomialPyramidUChar::alloc Pages: 1 -->
<svg width="474pt" height="50pt"
 viewBox="0.00 0.00 474.00 50.00" xmlns="http://www.w3.org/2000/svg" xmlns:xlink="http://www.w3.org/1999/xlink">
<g id="graph0" class="graph" transform="scale(1 1) rotate(0) translate(4 46)">
<title>artvision_instanton::BinomialPyramidUChar::alloc</title>
<polygon fill="white" stroke="none" points="-4,4 -4,-46 470,-46 470,4 -4,4"/>
<!-- Node1 -->
<g id="node1" class="node"><title>Node1</title>
<polygon fill="#bfbfbf" stroke="black" points="0,-0.5 0,-41.5 125,-41.5 125,-0.5 0,-0.5"/>
<text text-anchor="start" x="8" y="-29.5" font-family="Helvetica,sans-Serif" font-size="10.00">artvision_instanton</text>
<text text-anchor="start" x="8" y="-18.5" font-family="Helvetica,sans-Serif" font-size="10.00">::BinomialPyramidUChar</text>
<text text-anchor="middle" x="62.5" y="-7.5" font-family="Helvetica,sans-Serif" font-size="10.00">::alloc</text>
</g>
<!-- Node2 -->
<g id="node2" class="node"><title>Node2</title>
<g id="a_node2"><a xlink:href="classartvision__instanton_1_1_gaussian_scale_space_pyramid.html#ab04750ef86cdfbf0a6375df18ad71a39" target="_top" xlink:title="Configure the pyramid. ">
<polygon fill="white" stroke="black" points="161,-0.5 161,-41.5 313,-41.5 313,-0.5 161,-0.5"/>
<text text-anchor="start" x="169" y="-29.5" font-family="Helvetica,sans-Serif" font-size="10.00">artvision_instanton</text>
<text text-anchor="start" x="169" y="-18.5" font-family="Helvetica,sans-Serif" font-size="10.00">::GaussianScaleSpacePyramid</text>
<text text-anchor="middle" x="237" y="-7.5" font-family="Helvetica,sans-Serif" font-size="10.00">::configure</text>
</a>
</g>
</g>
<!-- Node1&#45;&gt;Node2 -->
<g id="edge1" class="edge"><title>Node1&#45;&gt;Node2</title>
<path fill="none" stroke="midnightblue" d="M125.289,-21C133.558,-21 142.153,-21 150.736,-21"/>
<polygon fill="midnightblue" stroke="midnightblue" points="150.785,-24.5001 160.785,-21 150.785,-17.5001 150.785,-24.5001"/>
</g>
<!-- Node3 -->
<g id="node3" class="node"><title>Node3</title>
<g id="a_node3"><a xlink:href="namespaceartvision__instanton.html#aabfdfd6e431693d8b92948d037feaf4f" target="_top" xlink:title="artvision_instanton::log">
<polygon fill="white" stroke="black" points="349,-11.5 349,-30.5 466,-30.5 466,-11.5 349,-11.5"/>
<text text-anchor="middle" x="407.5" y="-18.5" font-family="Helvetica,sans-Serif" font-size="10.00">artvision_instanton::log</text>
</a>
</g>
</g>
<!-- Node2&#45;&gt;Node3 -->
<g id="edge2" class="edge"><title>Node2&#45;&gt;Node3</title>
<path fill="none" stroke="midnightblue" d="M313.379,-21C321.851,-21 330.444,-21 338.811,-21"/>
<polygon fill="midnightblue" stroke="midnightblue" points="338.88,-24.5001 348.88,-21 338.88,-17.5001 338.88,-24.5001"/>
</g>
</g>
</svg>
