<?xml version="1.0" encoding="UTF-8" standalone="no"?>
<!DOCTYPE svg PUBLIC "-//W3C//DTD SVG 1.1//EN"
 "http://www.w3.org/Graphics/SVG/1.1/DTD/svg11.dtd">
<!-- Generated by graphviz version 2.38.0 (20140413.2041)
 -->
<!-- Title: ARTrackerSquare::newWithConfig Pages: 1 -->
<svg width="848pt" height="402pt"
 viewBox="0.00 0.00 848.00 401.74" xmlns="http://www.w3.org/2000/svg" xmlns:xlink="http://www.w3.org/1999/xlink">
<g id="graph0" class="graph" transform="scale(1 1) rotate(0) translate(4 397.744)">
<title>ARTrackerSquare::newWithConfig</title>
<polygon fill="white" stroke="none" points="-4,4 -4,-397.744 844,-397.744 844,4 -4,4"/>
<!-- Node1 -->
<g id="node1" class="node"><title>Node1</title>
<polygon fill="#bfbfbf" stroke="black" points="0,-261 0,-291 139,-291 139,-261 0,-261"/>
<text text-anchor="start" x="8" y="-279" font-family="Helvetica,sans-Serif" font-size="10.00">ARTrackerSquare::newWith</text>
<text text-anchor="middle" x="69.5" y="-268" font-family="Helvetica,sans-Serif" font-size="10.00">Config</text>
</g>
<!-- Node2 -->
<g id="node2" class="node"><title>Node2</title>
<g id="a_node2"><a xlink:href="class_a_r_trackable_square.html#a4560a444d86ca5c8bba655a6e3762239" target="_top" xlink:title="ARTrackableSquare::\linitWithPatternFromBuffer">
<polygon fill="white" stroke="black" points="175,-310 175,-340 305,-340 305,-310 175,-310"/>
<text text-anchor="start" x="183" y="-328" font-family="Helvetica,sans-Serif" font-size="10.00">ARTrackableSquare::</text>
<text text-anchor="middle" x="240" y="-317" font-family="Helvetica,sans-Serif" font-size="10.00">initWithPatternFromBuffer</text>
</a>
</g>
</g>
<!-- Node1&#45;&gt;Node2 -->
<g id="edge1" class="edge"><title>Node1&#45;&gt;Node2</title>
<path fill="none" stroke="midnightblue" d="M122.43,-291.101C139.809,-296.155 159.35,-301.838 177.394,-307.085"/>
<polygon fill="midnightblue" stroke="midnightblue" points="176.661,-310.517 187.241,-309.948 178.616,-303.795 176.661,-310.517"/>
</g>
<!-- Node9 -->
<g id="node9" class="node"><title>Node9</title>
<g id="a_node9"><a xlink:href="class_a_r_trackable_square.html#ab9c1c7b822288dcd5c93b25df629da2f" target="_top" xlink:title="ARTrackableSquare::\linitWithBarcode">
<polygon fill="white" stroke="black" points="185,-261 185,-291 295,-291 295,-261 185,-261"/>
<text text-anchor="start" x="193" y="-279" font-family="Helvetica,sans-Serif" font-size="10.00">ARTrackableSquare::</text>
<text text-anchor="middle" x="240" y="-268" font-family="Helvetica,sans-Serif" font-size="10.00">initWithBarcode</text>
</a>
</g>
</g>
<!-- Node1&#45;&gt;Node9 -->
<g id="edge9" class="edge"><title>Node1&#45;&gt;Node9</title>
<path fill="none" stroke="midnightblue" d="M139.035,-276C150.874,-276 163.143,-276 174.86,-276"/>
<polygon fill="midnightblue" stroke="midnightblue" points="174.99,-279.5 184.99,-276 174.99,-272.5 174.99,-279.5"/>
</g>
<!-- Node11 -->
<g id="node11" class="node"><title>Node11</title>
<g id="a_node11"><a xlink:href="class_a_r_trackable_multi_square.html#a7dff28becb57da09cd3c9c07416abd00" target="_top" xlink:title="ARTrackableMultiSquare\l::load">
<polygon fill="white" stroke="black" points="177.5,-193 177.5,-223 302.5,-223 302.5,-193 177.5,-193"/>
<text text-anchor="start" x="185.5" y="-211" font-family="Helvetica,sans-Serif" font-size="10.00">ARTrackableMultiSquare</text>
<text text-anchor="middle" x="240" y="-200" font-family="Helvetica,sans-Serif" font-size="10.00">::load</text>
</a>
</g>
</g>
<!-- Node1&#45;&gt;Node11 -->
<g id="edge13" class="edge"><title>Node1&#45;&gt;Node11</title>
<path fill="none" stroke="midnightblue" d="M107.896,-260.909C132.765,-250.872 165.621,-237.613 192.219,-226.879"/>
<polygon fill="midnightblue" stroke="midnightblue" points="193.745,-230.037 201.709,-223.049 191.126,-223.546 193.745,-230.037"/>
</g>
<!-- Node3 -->
<g id="node3" class="node"><title>Node3</title>
<g id="a_node3"><a xlink:href="class_a_r_trackable_square.html#a9f5452921633ac1bd40b661081a9da79" target="_top" xlink:title="ARTrackableSquare::\lunload">
<polygon fill="white" stroke="black" points="361,-320 361,-350 471,-350 471,-320 361,-320"/>
<text text-anchor="start" x="369" y="-338" font-family="Helvetica,sans-Serif" font-size="10.00">ARTrackableSquare::</text>
<text text-anchor="middle" x="416" y="-327" font-family="Helvetica,sans-Serif" font-size="10.00">unload</text>
</a>
</g>
</g>
<!-- Node2&#45;&gt;Node3 -->
<g id="edge2" class="edge"><title>Node2&#45;&gt;Node3</title>
<path fill="none" stroke="midnightblue" d="M305.297,-328.695C320.163,-329.55 335.98,-330.459 350.84,-331.313"/>
<polygon fill="midnightblue" stroke="midnightblue" points="350.768,-334.814 360.952,-331.894 351.169,-327.826 350.768,-334.814"/>
</g>
<!-- Node6 -->
<g id="node6" class="node"><title>Node6</title>
<g id="a_node6"><a xlink:href="ar_patt_load_8c.html#a1eb242ab9531966ab8bd8a5379e78792" target="_top" xlink:title="arPattLoadFromBuffer">
<polygon fill="white" stroke="black" points="727,-232.5 727,-251.5 840,-251.5 840,-232.5 727,-232.5"/>
<text text-anchor="middle" x="783.5" y="-239.5" font-family="Helvetica,sans-Serif" font-size="10.00">arPattLoadFromBuffer</text>
</a>
</g>
</g>
<!-- Node2&#45;&gt;Node6 -->
<g id="edge5" class="edge"><title>Node2&#45;&gt;Node6</title>
<path fill="none" stroke="midnightblue" d="M274.951,-340.089C293.96,-347.713 318.333,-356.148 341,-360 494.379,-386.066 551.448,-422.775 691,-354 731.362,-334.109 760.054,-287.18 773.635,-260.817"/>
<polygon fill="midnightblue" stroke="midnightblue" points="776.939,-262.032 778.237,-251.517 770.665,-258.927 776.939,-262.032"/>
</g>
<!-- Node7 -->
<g id="node7" class="node"><title>Node7</title>
<g id="a_node7"><a xlink:href="class_a_r_trackable.html#a913458e15352cfd5488f893c95f9c4f5" target="_top" xlink:title="Allocates space for patterns within this marker. ">
<polygon fill="white" stroke="black" points="341,-281.5 341,-300.5 491,-300.5 491,-281.5 341,-281.5"/>
<text text-anchor="middle" x="416" y="-288.5" font-family="Helvetica,sans-Serif" font-size="10.00">ARTrackable::allocatePatterns</text>
</a>
</g>
</g>
<!-- Node2&#45;&gt;Node7 -->
<g id="edge6" class="edge"><title>Node2&#45;&gt;Node7</title>
<path fill="none" stroke="midnightblue" d="M305.297,-312.436C321.972,-309.178 339.844,-305.686 356.22,-302.486"/>
<polygon fill="midnightblue" stroke="midnightblue" points="357.055,-305.889 366.199,-300.536 355.713,-299.019 357.055,-305.889"/>
</g>
<!-- Node8 -->
<g id="node8" class="node"><title>Node8</title>
<g id="a_node8"><a xlink:href="class_a_r_trackable_appearance.html#a9c872ae6cf5c3a16762c0a931e341548" target="_top" xlink:title="ARTrackableAppearance\l::loadTemplate">
<polygon fill="white" stroke="black" points="353.5,-232 353.5,-262 478.5,-262 478.5,-232 353.5,-232"/>
<text text-anchor="start" x="361.5" y="-250" font-family="Helvetica,sans-Serif" font-size="10.00">ARTrackableAppearance</text>
<text text-anchor="middle" x="416" y="-239" font-family="Helvetica,sans-Serif" font-size="10.00">::loadTemplate</text>
</a>
</g>
</g>
<!-- Node2&#45;&gt;Node8 -->
<g id="edge8" class="edge"><title>Node2&#45;&gt;Node8</title>
<path fill="none" stroke="midnightblue" d="M286.583,-309.972C292.919,-307.294 299.228,-304.293 305,-301 322.846,-290.819 322.989,-281.885 341,-272 344.917,-269.85 349.052,-267.839 353.284,-265.967"/>
<polygon fill="midnightblue" stroke="midnightblue" points="354.752,-269.148 362.656,-262.092 352.077,-262.679 354.752,-269.148"/>
</g>
<!-- Node4 -->
<g id="node4" class="node"><title>Node4</title>
<g id="a_node4"><a xlink:href="class_a_r_trackable.html#aa425f1e3e1ba8d8b39ec6a34f8e2f403" target="_top" xlink:title="Frees allocated patterns and resets the pattern count to zero. ">
<polygon fill="white" stroke="black" points="542.5,-281.5 542.5,-300.5 675.5,-300.5 675.5,-281.5 542.5,-281.5"/>
<text text-anchor="middle" x="609" y="-288.5" font-family="Helvetica,sans-Serif" font-size="10.00">ARTrackable::freePatterns</text>
</a>
</g>
</g>
<!-- Node3&#45;&gt;Node4 -->
<g id="edge3" class="edge"><title>Node3&#45;&gt;Node4</title>
<path fill="none" stroke="midnightblue" d="M471.222,-322.509C498.116,-316.314 530.418,-308.872 556.876,-302.777"/>
<polygon fill="midnightblue" stroke="midnightblue" points="557.747,-306.168 566.707,-300.513 556.176,-299.347 557.747,-306.168"/>
</g>
<!-- Node5 -->
<g id="node5" class="node"><title>Node5</title>
<g id="a_node5"><a xlink:href="ar_patt_load_8c.html#a7e05342aa3eec9d14b56886aa9bd3731" target="_top" xlink:title="Frees (unloads) a pattern file from memory. ">
<polygon fill="white" stroke="black" points="578,-325.5 578,-344.5 640,-344.5 640,-325.5 578,-325.5"/>
<text text-anchor="middle" x="609" y="-332.5" font-family="Helvetica,sans-Serif" font-size="10.00">arPattFree</text>
</a>
</g>
</g>
<!-- Node3&#45;&gt;Node5 -->
<g id="edge4" class="edge"><title>Node3&#45;&gt;Node5</title>
<path fill="none" stroke="midnightblue" d="M471.222,-335C501.93,-335 539.688,-335 567.748,-335"/>
<polygon fill="midnightblue" stroke="midnightblue" points="567.992,-338.5 577.992,-335 567.992,-331.5 567.992,-338.5"/>
</g>
<!-- Node7&#45;&gt;Node4 -->
<g id="edge7" class="edge"><title>Node7&#45;&gt;Node4</title>
<path fill="none" stroke="midnightblue" d="M491.119,-291C504.572,-291 518.622,-291 532.125,-291"/>
<polygon fill="midnightblue" stroke="midnightblue" points="532.326,-294.5 542.326,-291 532.326,-287.5 532.326,-294.5"/>
</g>
<!-- Node9&#45;&gt;Node3 -->
<g id="edge10" class="edge"><title>Node9&#45;&gt;Node3</title>
<path fill="none" stroke="midnightblue" d="M285.299,-291.082C302.665,-296.989 322.765,-303.82 341,-310 347.385,-312.164 354.082,-314.431 360.727,-316.678"/>
<polygon fill="midnightblue" stroke="midnightblue" points="359.791,-320.056 370.386,-319.943 362.033,-313.425 359.791,-320.056"/>
</g>
<!-- Node9&#45;&gt;Node7 -->
<g id="edge11" class="edge"><title>Node9&#45;&gt;Node7</title>
<path fill="none" stroke="midnightblue" d="M295.101,-280.664C306.402,-281.638 318.572,-282.687 330.672,-283.73"/>
<polygon fill="midnightblue" stroke="midnightblue" points="330.537,-287.232 340.8,-284.603 331.138,-280.257 330.537,-287.232"/>
</g>
<!-- Node10 -->
<g id="node10" class="node"><title>Node10</title>
<g id="a_node10"><a xlink:href="class_a_r_trackable_appearance.html#a5f40fc9fd7aa907696081a43ff24d105" target="_top" xlink:title="ARTrackableAppearance\l::loadMatrix">
<polygon fill="white" stroke="black" points="353.5,-183 353.5,-213 478.5,-213 478.5,-183 353.5,-183"/>
<text text-anchor="start" x="361.5" y="-201" font-family="Helvetica,sans-Serif" font-size="10.00">ARTrackableAppearance</text>
<text text-anchor="middle" x="416" y="-190" font-family="Helvetica,sans-Serif" font-size="10.00">::loadMatrix</text>
</a>
</g>
</g>
<!-- Node9&#45;&gt;Node10 -->
<g id="edge12" class="edge"><title>Node9&#45;&gt;Node10</title>
<path fill="none" stroke="midnightblue" d="M265.854,-260.936C285.715,-249.304 314.517,-233.334 341,-222 345.423,-220.107 350.049,-218.276 354.734,-216.526"/>
<polygon fill="midnightblue" stroke="midnightblue" points="356.164,-219.732 364.391,-213.056 353.796,-213.145 356.164,-219.732"/>
</g>
<!-- Node11&#45;&gt;Node7 -->
<g id="edge26" class="edge"><title>Node11&#45;&gt;Node7</title>
<path fill="none" stroke="midnightblue" d="M263.166,-223.055C287.534,-239.408 325.308,-264.122 341,-271 347.388,-273.8 354.261,-276.291 361.154,-278.484"/>
<polygon fill="midnightblue" stroke="midnightblue" points="360.629,-281.979 371.212,-281.482 362.629,-275.271 360.629,-281.979"/>
</g>
<!-- Node11&#45;&gt;Node8 -->
<g id="edge27" class="edge"><title>Node11&#45;&gt;Node8</title>
<path fill="none" stroke="midnightblue" d="M302.836,-221.86C315.913,-224.791 329.82,-227.908 343.229,-230.913"/>
<polygon fill="midnightblue" stroke="midnightblue" points="342.84,-234.413 353.363,-233.185 344.371,-227.582 342.84,-234.413"/>
</g>
<!-- Node11&#45;&gt;Node10 -->
<g id="edge28" class="edge"><title>Node11&#45;&gt;Node10</title>
<path fill="none" stroke="midnightblue" d="M302.836,-204.446C315.913,-203.695 329.82,-202.895 343.229,-202.125"/>
<polygon fill="midnightblue" stroke="midnightblue" points="343.581,-205.61 353.363,-201.542 343.179,-198.622 343.581,-205.61"/>
</g>
<!-- Node12 -->
<g id="node12" class="node"><title>Node12</title>
<g id="a_node12"><a xlink:href="class_a_r_trackable_multi_square.html#a57881bb2ce7acf1852db2ee6665cd0f4" target="_top" xlink:title="ARTrackableMultiSquare\l::unload">
<polygon fill="white" stroke="black" points="353.5,-134 353.5,-164 478.5,-164 478.5,-134 353.5,-134"/>
<text text-anchor="start" x="361.5" y="-152" font-family="Helvetica,sans-Serif" font-size="10.00">ARTrackableMultiSquare</text>
<text text-anchor="middle" x="416" y="-141" font-family="Helvetica,sans-Serif" font-size="10.00">::unload</text>
</a>
</g>
</g>
<!-- Node11&#45;&gt;Node12 -->
<g id="edge14" class="edge"><title>Node11&#45;&gt;Node12</title>
<path fill="none" stroke="midnightblue" d="M283.258,-192.968C301.052,-186.701 322.001,-179.405 341,-173 346.575,-171.121 352.396,-169.186 358.217,-167.269"/>
<polygon fill="midnightblue" stroke="midnightblue" points="359.557,-170.513 367.97,-164.073 357.378,-163.861 359.557,-170.513"/>
</g>
<!-- Node14 -->
<g id="node14" class="node"><title>Node14</title>
<g id="a_node14"><a xlink:href="ar_multi_read_config_file_8c.html#ad54b103e4097609ddc76b1e721eb20eb" target="_top" xlink:title="arMultiReadConfigFile">
<polygon fill="white" stroke="black" points="359.5,-95.5 359.5,-114.5 472.5,-114.5 472.5,-95.5 359.5,-95.5"/>
<text text-anchor="middle" x="416" y="-102.5" font-family="Helvetica,sans-Serif" font-size="10.00">arMultiReadConfigFile</text>
</a>
</g>
</g>
<!-- Node11&#45;&gt;Node14 -->
<g id="edge17" class="edge"><title>Node11&#45;&gt;Node14</title>
<path fill="none" stroke="midnightblue" d="M254.719,-192.893C272.713,-173.993 306.117,-141.939 341,-124 345.528,-121.671 350.363,-119.614 355.31,-117.798"/>
<polygon fill="midnightblue" stroke="midnightblue" points="356.53,-121.081 364.91,-114.598 354.316,-114.44 356.53,-121.081"/>
</g>
<!-- Node12&#45;&gt;Node4 -->
<g id="edge15" class="edge"><title>Node12&#45;&gt;Node4</title>
<path fill="none" stroke="midnightblue" d="M475.173,-164.111C480.748,-166.651 486.13,-169.595 491,-173 512.276,-187.876 509.226,-200.077 527,-219 546.306,-239.554 570.769,-260.719 587.734,-274.735"/>
<polygon fill="midnightblue" stroke="midnightblue" points="585.897,-277.754 595.855,-281.372 590.327,-272.334 585.897,-277.754"/>
</g>
<!-- Node13 -->
<g id="node13" class="node"><title>Node13</title>
<g id="a_node13"><a xlink:href="ar_multi_free_config_8c.html#a0f33d2031514e1b5af6ba4dfa152633f" target="_top" xlink:title="arMultiFreeConfig">
<polygon fill="white" stroke="black" points="562,-190.5 562,-209.5 656,-209.5 656,-190.5 562,-190.5"/>
<text text-anchor="middle" x="609" y="-197.5" font-family="Helvetica,sans-Serif" font-size="10.00">arMultiFreeConfig</text>
</a>
</g>
</g>
<!-- Node12&#45;&gt;Node13 -->
<g id="edge16" class="edge"><title>Node12&#45;&gt;Node13</title>
<path fill="none" stroke="midnightblue" d="M466.676,-164.053C485.509,-169.602 507.186,-175.798 527,-181 536.228,-183.423 546.087,-185.86 555.637,-188.144"/>
<polygon fill="midnightblue" stroke="midnightblue" points="554.9,-191.566 565.437,-190.46 556.51,-184.754 554.9,-191.566"/>
</g>
<!-- Node15 -->
<g id="node15" class="node"><title>Node15</title>
<g id="a_node15"><a xlink:href="ar_util_8c.html#ae4f3e60c7edce9acfdddb9b454d13c1d" target="_top" xlink:title="arUtilGetDirectoryNameFromPath">
<polygon fill="white" stroke="black" points="527,-152.5 527,-171.5 691,-171.5 691,-152.5 527,-152.5"/>
<text text-anchor="middle" x="609" y="-159.5" font-family="Helvetica,sans-Serif" font-size="10.00">arUtilGetDirectoryNameFromPath</text>
</a>
</g>
</g>
<!-- Node14&#45;&gt;Node15 -->
<g id="edge18" class="edge"><title>Node14&#45;&gt;Node15</title>
<path fill="none" stroke="midnightblue" d="M461.359,-114.585C471.254,-117.219 481.596,-120.369 491,-124 507.877,-130.516 510.055,-136.66 527,-143 533.79,-145.54 541.03,-147.815 548.284,-149.83"/>
<polygon fill="midnightblue" stroke="midnightblue" points="547.581,-153.264 558.142,-152.418 549.359,-146.493 547.581,-153.264"/>
</g>
<!-- Node16 -->
<g id="node16" class="node"><title>Node16</title>
<g id="a_node16"><a xlink:href="ar_patt_load_8c.html#a6c3899cc1122ad7ae5bd93b4c00a64cf" target="_top" xlink:title="Load a pattern file into a pattern handle. ">
<polygon fill="white" stroke="black" points="577,-114.5 577,-133.5 641,-133.5 641,-114.5 577,-114.5"/>
<text text-anchor="middle" x="609" y="-121.5" font-family="Helvetica,sans-Serif" font-size="10.00">arPattLoad</text>
</a>
</g>
</g>
<!-- Node14&#45;&gt;Node16 -->
<g id="edge19" class="edge"><title>Node14&#45;&gt;Node16</title>
<path fill="none" stroke="midnightblue" d="M472.502,-110.521C502.583,-113.513 539.126,-117.149 566.679,-119.889"/>
<polygon fill="midnightblue" stroke="midnightblue" points="566.468,-123.386 576.766,-120.893 567.161,-116.42 566.468,-123.386"/>
</g>
<!-- Node17 -->
<g id="node17" class="node"><title>Node17</title>
<g id="a_node17"><a xlink:href="ioapi_8h.html#a787fa3cf048117ba7123753c1e74fcd6" target="_top" xlink:title="int">
<polygon fill="white" stroke="black" points="594.5,-76.5 594.5,-95.5 623.5,-95.5 623.5,-76.5 594.5,-76.5"/>
<text text-anchor="middle" x="609" y="-83.5" font-family="Helvetica,sans-Serif" font-size="10.00">int</text>
</a>
</g>
</g>
<!-- Node14&#45;&gt;Node17 -->
<g id="edge21" class="edge"><title>Node14&#45;&gt;Node17</title>
<path fill="none" stroke="midnightblue" d="M472.502,-99.4789C509.646,-95.7839 556.643,-91.1088 584.399,-88.3477"/>
<polygon fill="midnightblue" stroke="midnightblue" points="584.763,-91.8289 594.367,-87.3561 584.07,-84.8633 584.763,-91.8289"/>
</g>
<!-- Node18 -->
<g id="node18" class="node"><title>Node18</title>
<g id="a_node18"><a xlink:href="ar_util_8c.html#a97c94e6c703a2e449272302c925944d1" target="_top" xlink:title="arUtilMatInv">
<polygon fill="white" stroke="black" points="574,-38.5 574,-57.5 644,-57.5 644,-38.5 574,-38.5"/>
<text text-anchor="middle" x="609" y="-45.5" font-family="Helvetica,sans-Serif" font-size="10.00">arUtilMatInv</text>
</a>
</g>
</g>
<!-- Node14&#45;&gt;Node18 -->
<g id="edge22" class="edge"><title>Node14&#45;&gt;Node18</title>
<path fill="none" stroke="midnightblue" d="M442.544,-95.3435C464.688,-87.1735 497.692,-75.4756 527,-67 538.924,-63.5516 551.971,-60.2773 564.042,-57.4488"/>
<polygon fill="midnightblue" stroke="midnightblue" points="564.944,-60.8329 573.907,-55.1837 563.377,-54.0105 564.944,-60.8329"/>
</g>
<!-- Node16&#45;&gt;Node6 -->
<g id="edge20" class="edge"><title>Node16&#45;&gt;Node6</title>
<path fill="none" stroke="midnightblue" d="M641.221,-126.938C656.977,-129.475 675.899,-134.201 691,-143 726.013,-163.401 755.52,-201.493 770.953,-224.013"/>
<polygon fill="midnightblue" stroke="midnightblue" points="768.049,-225.967 776.508,-232.347 773.874,-222.085 768.049,-225.967"/>
</g>
<!-- Node19 -->
<g id="node19" class="node"><title>Node19</title>
<g id="a_node19"><a xlink:href="_a_r_2include_2_a_r6_2_a_r_2matrix_8h.html#a7169e4124d09fcbe1b8730ade678d64d" target="_top" xlink:title="arMatrixAlloc">
<polygon fill="white" stroke="black" points="746.5,-76.5 746.5,-95.5 820.5,-95.5 820.5,-76.5 746.5,-76.5"/>
<text text-anchor="middle" x="783.5" y="-83.5" font-family="Helvetica,sans-Serif" font-size="10.00">arMatrixAlloc</text>
</a>
</g>
</g>
<!-- Node18&#45;&gt;Node19 -->
<g id="edge23" class="edge"><title>Node18&#45;&gt;Node19</title>
<path fill="none" stroke="midnightblue" d="M644.08,-55.5076C670.518,-61.3314 707.43,-69.4628 736.488,-75.8641"/>
<polygon fill="midnightblue" stroke="midnightblue" points="735.89,-79.3162 746.409,-78.0495 737.396,-72.4801 735.89,-79.3162"/>
</g>
<!-- Node20 -->
<g id="node20" class="node"><title>Node20</title>
<g id="a_node20"><a xlink:href="_a_r_2include_2_a_r6_2_a_r_2matrix_8h.html#a929738025b539a0c1bbd2f395ad4d981" target="_top" xlink:title="arMatrixSelfInv">
<polygon fill="white" stroke="black" points="742,-38.5 742,-57.5 825,-57.5 825,-38.5 742,-38.5"/>
<text text-anchor="middle" x="783.5" y="-45.5" font-family="Helvetica,sans-Serif" font-size="10.00">arMatrixSelfInv</text>
</a>
</g>
</g>
<!-- Node18&#45;&gt;Node20 -->
<g id="edge24" class="edge"><title>Node18&#45;&gt;Node20</title>
<path fill="none" stroke="midnightblue" d="M644.08,-48C669.091,-48 703.475,-48 731.716,-48"/>
<polygon fill="midnightblue" stroke="midnightblue" points="731.815,-51.5001 741.814,-48 731.814,-44.5001 731.815,-51.5001"/>
</g>
<!-- Node21 -->
<g id="node21" class="node"><title>Node21</title>
<g id="a_node21"><a xlink:href="_a_r_2include_2_a_r6_2_a_r_2matrix_8h.html#ac4b7a714cce9fffda773d86363380454" target="_top" xlink:title="arMatrixFree">
<polygon fill="white" stroke="black" points="748,-0.5 748,-19.5 819,-19.5 819,-0.5 748,-0.5"/>
<text text-anchor="middle" x="783.5" y="-7.5" font-family="Helvetica,sans-Serif" font-size="10.00">arMatrixFree</text>
</a>
</g>
</g>
<!-- Node18&#45;&gt;Node21 -->
<g id="edge25" class="edge"><title>Node18&#45;&gt;Node21</title>
<path fill="none" stroke="midnightblue" d="M644.08,-40.4924C670.957,-34.5718 708.659,-26.2664 737.93,-19.8184"/>
<polygon fill="midnightblue" stroke="midnightblue" points="738.887,-23.1915 747.9,-17.622 737.381,-16.3554 738.887,-23.1915"/>
</g>
</g>
</svg>
