<?xml version="1.0" encoding="UTF-8" standalone="no"?>
<!DOCTYPE svg PUBLIC "-//W3C//DTD SVG 1.1//EN"
 "http://www.w3.org/Graphics/SVG/1.1/DTD/svg11.dtd">
<!-- Generated by graphviz version 2.38.0 (20140413.2041)
 -->
<!-- Title: artvision_instanton::AndroidAttitudeListener::stop Pages: 1 -->
<svg width="314pt" height="50pt"
 viewBox="0.00 0.00 314.00 50.00" xmlns="http://www.w3.org/2000/svg" xmlns:xlink="http://www.w3.org/1999/xlink">
<g id="graph0" class="graph" transform="scale(1 1) rotate(0) translate(4 46)">
<title>artvision_instanton::AndroidAttitudeListener::stop</title>
<polygon fill="white" stroke="none" points="-4,4 -4,-46 310,-46 310,4 -4,4"/>
<!-- Node1 -->
<g id="node1" class="node"><title>Node1</title>
<polygon fill="#bfbfbf" stroke="black" points="-2.84217e-14,-6 -2.84217e-14,-36 149,-36 149,-6 -2.84217e-14,-6"/>
<text text-anchor="start" x="8" y="-24" font-family="Helvetica,sans-Serif" font-size="10.00">artvision_instanton</text>
<text text-anchor="middle" x="74.5" y="-13" font-family="Helvetica,sans-Serif" font-size="10.00">::AndroidAttitudeListener::stop</text>
</g>
<!-- Node2 -->
<g id="node2" class="node"><title>Node2</title>
<g id="a_node2"><a xlink:href="classartvision__instanton_1_1_listener_base.html#a9cac555417cd8f7b4b2fb4c6d589c3ab" target="_top" xlink:title="artvision_instanton\l::ListenerBase\&lt; attitude\l_data \&gt;::stop">
<polygon fill="white" stroke="black" points="185,-0.5 185,-41.5 306,-41.5 306,-0.5 185,-0.5"/>
<text text-anchor="start" x="193" y="-29.5" font-family="Helvetica,sans-Serif" font-size="10.00">artvision_instanton</text>
<text text-anchor="start" x="193" y="-18.5" font-family="Helvetica,sans-Serif" font-size="10.00">::ListenerBase&lt; attitude</text>
<text text-anchor="middle" x="245.5" y="-7.5" font-family="Helvetica,sans-Serif" font-size="10.00">_data &gt;::stop</text>
</a>
</g>
</g>
<!-- Node1&#45;&gt;Node2 -->
<g id="edge1" class="edge"><title>Node1&#45;&gt;Node2</title>
<path fill="none" stroke="midnightblue" d="M149.134,-21C157.608,-21 166.23,-21 174.652,-21"/>
<polygon fill="midnightblue" stroke="midnightblue" points="174.802,-24.5001 184.802,-21 174.802,-17.5001 174.802,-24.5001"/>
</g>
</g>
</svg>
