<?xml version="1.0" encoding="UTF-8" standalone="no"?>
<!DOCTYPE svg PUBLIC "-//W3C//DTD SVG 1.1//EN"
 "http://www.w3.org/Graphics/SVG/1.1/DTD/svg11.dtd">
<!-- Generated by graphviz version 2.38.0 (20140413.2041)
 -->
<!-- Title: artvision_instanton::AndroidAttitudeListener::svc Pages: 1 -->
<svg width="656pt" height="196pt"
 viewBox="0.00 0.00 656.00 196.00" xmlns="http://www.w3.org/2000/svg" xmlns:xlink="http://www.w3.org/1999/xlink">
<g id="graph0" class="graph" transform="scale(1 1) rotate(0) translate(4 192)">
<title>artvision_instanton::AndroidAttitudeListener::svc</title>
<polygon fill="white" stroke="none" points="-4,4 -4,-192 652,-192 652,4 -4,4"/>
<!-- Node1 -->
<g id="node1" class="node"><title>Node1</title>
<polygon fill="#bfbfbf" stroke="black" points="0,-81.5 0,-111.5 146,-111.5 146,-81.5 0,-81.5"/>
<text text-anchor="start" x="8" y="-99.5" font-family="Helvetica,sans-Serif" font-size="10.00">artvision_instanton</text>
<text text-anchor="middle" x="73" y="-88.5" font-family="Helvetica,sans-Serif" font-size="10.00">::AndroidAttitudeListener::svc</text>
</g>
<!-- Node2 -->
<g id="node2" class="node"><title>Node2</title>
<g id="a_node2"><a xlink:href="namespaceartvision__instanton.html#ae45ee6891c87f52629c7cc8682f2de46" target="_top" xlink:title="Compute the Rodrigues rotation matrix. ">
<polygon fill="white" stroke="black" points="211,-157.5 211,-187.5 315,-187.5 315,-157.5 211,-157.5"/>
<text text-anchor="start" x="219" y="-175.5" font-family="Helvetica,sans-Serif" font-size="10.00">artvision_instanton</text>
<text text-anchor="middle" x="263" y="-164.5" font-family="Helvetica,sans-Serif" font-size="10.00">::RodriguesRotation</text>
</a>
</g>
</g>
<!-- Node1&#45;&gt;Node2 -->
<g id="edge1" class="edge"><title>Node1&#45;&gt;Node2</title>
<path fill="none" stroke="midnightblue" d="M102.335,-111.659C123.809,-122.772 154.256,-137.736 182,-148.5 188.176,-150.896 194.696,-153.202 201.24,-155.372"/>
<polygon fill="midnightblue" stroke="midnightblue" points="200.217,-158.719 210.808,-158.451 202.361,-152.056 200.217,-158.719"/>
</g>
<!-- Node3 -->
<g id="node3" class="node"><title>Node3</title>
<g id="a_node3"><a xlink:href="namespaceartvision__instanton.html#a2a6b4c2d4cba42d93da9660540cca1ed" target="_top" xlink:title="Rotation Matrix to Quaternion. ">
<polygon fill="white" stroke="black" points="190.5,-108.5 190.5,-138.5 335.5,-138.5 335.5,-108.5 190.5,-108.5"/>
<text text-anchor="start" x="198.5" y="-126.5" font-family="Helvetica,sans-Serif" font-size="10.00">artvision_instanton</text>
<text text-anchor="middle" x="263" y="-115.5" font-family="Helvetica,sans-Serif" font-size="10.00">::RotationMatrixToQuaternion</text>
</a>
</g>
</g>
<!-- Node1&#45;&gt;Node3 -->
<g id="edge2" class="edge"><title>Node1&#45;&gt;Node3</title>
<path fill="none" stroke="midnightblue" d="M146.148,-106.862C157.36,-108.472 169.012,-110.145 180.415,-111.783"/>
<polygon fill="midnightblue" stroke="midnightblue" points="179.959,-115.253 190.355,-113.211 180.955,-108.324 179.959,-115.253"/>
</g>
<!-- Node8 -->
<g id="node8" class="node"><title>Node8</title>
<g id="a_node8"><a xlink:href="classartvision__instanton_1_1_android_attitude_listener.html#a53043500c30e0db55597bbddb4d94b7d" target="_top" xlink:title="artvision_instanton\l::AndroidAttitudeListener\l::convertMotionScale">
<polygon fill="white" stroke="black" points="201,-49 201,-90 325,-90 325,-49 201,-49"/>
<text text-anchor="start" x="209" y="-78" font-family="Helvetica,sans-Serif" font-size="10.00">artvision_instanton</text>
<text text-anchor="start" x="209" y="-67" font-family="Helvetica,sans-Serif" font-size="10.00">::AndroidAttitudeListener</text>
<text text-anchor="middle" x="263" y="-56" font-family="Helvetica,sans-Serif" font-size="10.00">::convertMotionScale</text>
</a>
</g>
</g>
<!-- Node1&#45;&gt;Node8 -->
<g id="edge7" class="edge"><title>Node1&#45;&gt;Node8</title>
<path fill="none" stroke="midnightblue" d="M146.148,-86.1383C160.787,-84.0359 176.175,-81.8259 190.782,-79.7281"/>
<polygon fill="midnightblue" stroke="midnightblue" points="191.35,-83.1826 200.751,-78.2964 190.355,-76.2537 191.35,-83.1826"/>
</g>
<!-- Node9 -->
<g id="node9" class="node"><title>Node9</title>
<g id="a_node9"><a xlink:href="classartvision__instanton_1_1_fixed_size_lock_free_queue.html#a045d02b7b57e58745fcd8dd152a173e7" target="_top" xlink:title="Push an item onto the queue. ">
<polygon fill="white" stroke="black" points="182,-0.5 182,-30.5 344,-30.5 344,-0.5 182,-0.5"/>
<text text-anchor="start" x="190" y="-18.5" font-family="Helvetica,sans-Serif" font-size="10.00">artvision_instanton</text>
<text text-anchor="middle" x="263" y="-7.5" font-family="Helvetica,sans-Serif" font-size="10.00">::FixedSizeLockFreeQueue::push</text>
</a>
</g>
</g>
<!-- Node1&#45;&gt;Node9 -->
<g id="edge8" class="edge"><title>Node1&#45;&gt;Node9</title>
<path fill="none" stroke="midnightblue" d="M99.0774,-81.472C120.548,-69.0464 152.569,-51.5477 182,-39.5 186.825,-37.525 191.872,-35.6313 196.985,-33.8352"/>
<polygon fill="midnightblue" stroke="midnightblue" points="198.498,-37.0184 206.855,-30.5054 196.261,-30.3856 198.498,-37.0184"/>
</g>
<!-- Node4 -->
<g id="node4" class="node"><title>Node4</title>
<g id="a_node4"><a xlink:href="namespaceartvision__instanton.html#a1fa75eeba87180bee6aee2ab3c07be5a" target="_top" xlink:title="Normalize a quaternion so that it has unit norm. ">
<polygon fill="white" stroke="black" points="380,-108.5 380,-138.5 494,-138.5 494,-108.5 380,-108.5"/>
<text text-anchor="start" x="388" y="-126.5" font-family="Helvetica,sans-Serif" font-size="10.00">artvision_instanton</text>
<text text-anchor="middle" x="437" y="-115.5" font-family="Helvetica,sans-Serif" font-size="10.00">::NormalizeQuaternion</text>
</a>
</g>
</g>
<!-- Node3&#45;&gt;Node4 -->
<g id="edge3" class="edge"><title>Node3&#45;&gt;Node4</title>
<path fill="none" stroke="midnightblue" d="M335.947,-123.5C347.153,-123.5 358.687,-123.5 369.758,-123.5"/>
<polygon fill="midnightblue" stroke="midnightblue" points="369.774,-127 379.774,-123.5 369.774,-120 369.774,-127"/>
</g>
<!-- Node5 -->
<g id="node5" class="node"><title>Node5</title>
<g id="a_node5"><a xlink:href="namespaceartvision__instanton.html#aaf2781e37f3d7d4e78dd2c872d0799b6" target="_top" xlink:title="artvision_instanton::sqr">
<polygon fill="white" stroke="black" points="530,-158 530,-177 648,-177 648,-158 530,-158"/>
<text text-anchor="middle" x="589" y="-165" font-family="Helvetica,sans-Serif" font-size="10.00">artvision_instanton::sqr</text>
</a>
</g>
</g>
<!-- Node4&#45;&gt;Node5 -->
<g id="edge4" class="edge"><title>Node4&#45;&gt;Node5</title>
<path fill="none" stroke="midnightblue" d="M489.202,-138.519C507.506,-143.888 527.92,-149.877 545.419,-155.01"/>
<polygon fill="midnightblue" stroke="midnightblue" points="544.766,-158.465 555.347,-157.922 546.736,-151.748 544.766,-158.465"/>
</g>
<!-- Node6 -->
<g id="node6" class="node"><title>Node6</title>
<g id="a_node6"><a xlink:href="namespaceartvision__instanton.html#adc1e30b0cec389f6c8e8b5512b69fb2e" target="_top" xlink:title="artvision_instanton\l::sign">
<polygon fill="white" stroke="black" points="540,-108.5 540,-138.5 638,-138.5 638,-108.5 540,-108.5"/>
<text text-anchor="start" x="548" y="-126.5" font-family="Helvetica,sans-Serif" font-size="10.00">artvision_instanton</text>
<text text-anchor="middle" x="589" y="-115.5" font-family="Helvetica,sans-Serif" font-size="10.00">::sign</text>
</a>
</g>
</g>
<!-- Node4&#45;&gt;Node6 -->
<g id="edge5" class="edge"><title>Node4&#45;&gt;Node6</title>
<path fill="none" stroke="midnightblue" d="M494.281,-123.5C505.855,-123.5 518.063,-123.5 529.706,-123.5"/>
<polygon fill="midnightblue" stroke="midnightblue" points="529.762,-127 539.762,-123.5 529.762,-120 529.762,-127"/>
</g>
<!-- Node7 -->
<g id="node7" class="node"><title>Node7</title>
<g id="a_node7"><a xlink:href="namespaceartvision__instanton.html#a15dadc526841cbe9f7a5d74530ca7746" target="_top" xlink:title="artvision_instanton\l::ScaleVector4">
<polygon fill="white" stroke="black" points="540,-59.5 540,-89.5 638,-89.5 638,-59.5 540,-59.5"/>
<text text-anchor="start" x="548" y="-77.5" font-family="Helvetica,sans-Serif" font-size="10.00">artvision_instanton</text>
<text text-anchor="middle" x="589" y="-66.5" font-family="Helvetica,sans-Serif" font-size="10.00">::ScaleVector4</text>
</a>
</g>
</g>
<!-- Node4&#45;&gt;Node7 -->
<g id="edge6" class="edge"><title>Node4&#45;&gt;Node7</title>
<path fill="none" stroke="midnightblue" d="M484.229,-108.399C499.413,-103.438 516.451,-97.8726 532.264,-92.7071"/>
<polygon fill="midnightblue" stroke="midnightblue" points="533.505,-95.9838 541.924,-89.5516 531.331,-89.3298 533.505,-95.9838"/>
</g>
</g>
</svg>
