<?xml version="1.0" encoding="UTF-8" standalone="no"?>
<!DOCTYPE svg PUBLIC "-//W3C//DTD SVG 1.1//EN"
 "http://www.w3.org/Graphics/SVG/1.1/DTD/svg11.dtd">
<!-- Generated by graphviz version 2.38.0 (20140413.2041)
 -->
<!-- Title: artvision_instanton::SampleTuple Pages: 1 -->
<svg width="252pt" height="117pt"
 viewBox="0.00 0.00 251.50 117.00" xmlns="http://www.w3.org/2000/svg" xmlns:xlink="http://www.w3.org/1999/xlink">
<g id="graph0" class="graph" transform="scale(1 1) rotate(0) translate(4 113)">
<title>artvision_instanton::SampleTuple</title>
<polygon fill="white" stroke="none" points="-4,4 -4,-113 247.5,-113 247.5,4 -4,4"/>
<!-- Node1 -->
<g id="node1" class="node"><title>Node1</title>
<polygon fill="#bfbfbf" stroke="black" points="65,-0.5 65,-30.5 163,-30.5 163,-0.5 65,-0.5"/>
<text text-anchor="start" x="73" y="-18.5" font-family="Helvetica,sans-Serif" font-size="10.00">artvision_instanton</text>
<text text-anchor="middle" x="114" y="-7.5" font-family="Helvetica,sans-Serif" font-size="10.00">::SampleTuple</text>
</g>
<!-- Node2 -->
<g id="node2" class="node"><title>Node2</title>
<g id="a_node2"><a xlink:href="classartvision__instanton_1_1_sample.html" target="_top" xlink:title="artvision_instanton\l::Sample">
<polygon fill="white" stroke="black" points="0,-78.5 0,-108.5 98,-108.5 98,-78.5 0,-78.5"/>
<text text-anchor="start" x="8" y="-96.5" font-family="Helvetica,sans-Serif" font-size="10.00">artvision_instanton</text>
<text text-anchor="middle" x="49" y="-85.5" font-family="Helvetica,sans-Serif" font-size="10.00">::Sample</text>
</a>
</g>
</g>
<!-- Node2&#45;&gt;Node1 -->
<g id="edge1" class="edge"><title>Node2&#45;&gt;Node1</title>
<path fill="none" stroke="midnightblue" d="M67.9813,-70.3065C78.9061,-57.5329 92.3109,-41.8596 101.829,-30.7309"/>
<polygon fill="midnightblue" stroke="midnightblue" points="65.0658,-68.3304 61.226,-78.205 70.3856,-72.8802 65.0658,-68.3304"/>
</g>
<!-- Node3 -->
<g id="node3" class="node"><title>Node3</title>
<polygon fill="white" stroke="#bfbfbf" points="116.5,-84 116.5,-103 243.5,-103 243.5,-84 116.5,-84"/>
<text text-anchor="middle" x="180" y="-91" font-family="Helvetica,sans-Serif" font-size="10.00">std::vector&lt; SamplePtr &gt;</text>
</g>
<!-- Node3&#45;&gt;Node1 -->
<g id="edge2" class="edge"><title>Node3&#45;&gt;Node1</title>
<path fill="none" stroke="#9a32cd" stroke-dasharray="5,2" d="M165.793,-76.1406C153.99,-62.5495 137.376,-43.4181 126.175,-30.5198"/>
<polygon fill="#9a32cd" stroke="#9a32cd" points="163.229,-78.5264 172.429,-83.7818 168.515,-73.9366 163.229,-78.5264"/>
<text text-anchor="middle" x="171" y="-52" font-family="Helvetica,sans-Serif" font-size="10.00"> samples</text>
</g>
</g>
</svg>
