<?xml version="1.0" encoding="UTF-8" standalone="no"?>
<!DOCTYPE svg PUBLIC "-//W3C//DTD SVG 1.1//EN"
 "http://www.w3.org/Graphics/SVG/1.1/DTD/svg11.dtd">
<!-- Generated by graphviz version 2.38.0 (20140413.2041)
 -->
<!-- Title: artvision_instanton::AttitudeSyncFilter::synchronize Pages: 1 -->
<!--zoomable 235 -->
<svg id="main" version="1.1" xmlns="http://www.w3.org/2000/svg" xmlns:xlink="http://www.w3.org/1999/xlink" xml:space="preserve" onload="init(evt)">
<style type="text/css"><![CDATA[
.edge:hover path { stroke: red; }
.edge:hover polygon { stroke: red; fill: red; }
]]></style>
<script type="text/javascript"><![CDATA[
var edges = document.getElementsByTagName('g');
if (edges && edges.length) {
  for (var i=0;i<edges.length;i++) {
    if (edges[i].id.substr(0,4)=='edge') {
      edges[i].setAttribute('class','edge');
    }
  }
}
]]></script>
        <defs>
                <circle id="rim" cx="0" cy="0" r="7"/>
                <circle id="rim2" cx="0" cy="0" r="3.5"/>
                <g id="zoomPlus">
                        <use xlink:href="#rim" fill="#404040">
                                <set attributeName="fill" to="#808080" begin="zoomplus.mouseover" end="zoomplus.mouseout"/>
                        </use>
                        <path d="M-4,0h8M0,-4v8" fill="none" stroke="white" stroke-width="1.5" pointer-events="none"/>
                </g>
                <g id="zoomMin">
                        <use xlink:href="#rim" fill="#404040">
                                <set attributeName="fill" to="#808080" begin="zoomminus.mouseover" end="zoomminus.mouseout"/>
                        </use>
                        <path d="M-4,0h8" fill="none" stroke="white" stroke-width="1.5" pointer-events="none"/>
                </g>
                <g id="dirArrow">
                        <path fill="none" stroke="white" stroke-width="1.5" d="M0,-3.0v7 M-2.5,-0.5L0,-3.0L2.5,-0.5"/>
                </g>
               <g id="resetDef">
                       <use xlink:href="#rim2" fill="#404040">
                               <set attributeName="fill" to="#808080" begin="reset.mouseover" end="reset.mouseout"/>
                       </use>
               </g>
        </defs>

<script type="text/javascript">
var viewWidth = 718;
var viewHeight = 235;
var sectionId = 'dynsection-9';
</script>
<script xlink:href="svgpan.js"/>
<svg id="graph" class="graph">
<g id="viewport">
<title>artvision_instanton::AttitudeSyncFilter::synchronize</title>
<polygon fill="white" stroke="none" points="-4,4 -4,-231 714,-231 714,4 -4,4"/>
<!-- Node1 -->
<g id="node1" class="node"><title>Node1</title>
<polygon fill="#bfbfbf" stroke="black" points="0,-147 0,-188 101,-188 101,-147 0,-147"/>
<text text-anchor="start" x="8" y="-176" font-family="Helvetica,sans-Serif" font-size="10.00">artvision_instanton</text>
<text text-anchor="start" x="8" y="-165" font-family="Helvetica,sans-Serif" font-size="10.00">::AttitudeSyncFilter</text>
<text text-anchor="middle" x="50.5" y="-154" font-family="Helvetica,sans-Serif" font-size="10.00">::synchronize</text>
</g>
<!-- Node2 -->
<g id="node2" class="node"><title>Node2</title>
<g id="a_node2"><a xlink:href="classartvision__instanton_1_1_attitude_sampler.html#a8eafd799481f3e0fb6f919de9c3ff375" target="_top" xlink:title="Sample the attitude data at given timestamps. ">
<polygon fill="white" stroke="black" points="137,-152.5 137,-182.5 267,-182.5 267,-152.5 137,-152.5"/>
<text text-anchor="start" x="145" y="-170.5" font-family="Helvetica,sans-Serif" font-size="10.00">artvision_instanton</text>
<text text-anchor="middle" x="202" y="-159.5" font-family="Helvetica,sans-Serif" font-size="10.00">::AttitudeSampler::sample</text>
</a>
</g>
</g>
<!-- Node1&#45;&gt;Node2 -->
<g id="edge1" class="edge"><title>Node1&#45;&gt;Node2</title>
<path fill="none" stroke="midnightblue" d="M101.281,-167.5C109.462,-167.5 118.094,-167.5 126.717,-167.5"/>
<polygon fill="midnightblue" stroke="midnightblue" points="126.809,-171 136.809,-167.5 126.809,-164 126.809,-171"/>
</g>
<!-- Node3 -->
<g id="node3" class="node"><title>Node3</title>
<g id="a_node3"><a xlink:href="namespaceartvision__instanton.html#abc0c3a1f6eabdadcc0b31b91a25e4ffa" target="_top" xlink:title="artvision_instanton\l::CopyVector4">
<polygon fill="white" stroke="black" points="450,-196.5 450,-226.5 548,-226.5 548,-196.5 450,-196.5"/>
<text text-anchor="start" x="458" y="-214.5" font-family="Helvetica,sans-Serif" font-size="10.00">artvision_instanton</text>
<text text-anchor="middle" x="499" y="-203.5" font-family="Helvetica,sans-Serif" font-size="10.00">::CopyVector4</text>
</a>
</g>
</g>
<!-- Node2&#45;&gt;Node3 -->
<g id="edge2" class="edge"><title>Node2&#45;&gt;Node3</title>
<path fill="none" stroke="midnightblue" d="M256.923,-182.531C271.762,-186.242 287.923,-189.896 303,-192.5 348.537,-200.366 400.662,-205.234 439.556,-208.071"/>
<polygon fill="midnightblue" stroke="midnightblue" points="439.431,-211.571 449.652,-208.784 439.924,-204.588 439.431,-211.571"/>
</g>
<!-- Node4 -->
<g id="node4" class="node"><title>Node4</title>
<g id="a_node4"><a xlink:href="namespaceartvision__instanton.html#ae795a71faee044cca88539e959546170" target="_top" xlink:title="Safe division (x/y). ">
<polygon fill="white" stroke="black" points="305.5,-152.5 305.5,-182.5 403.5,-182.5 403.5,-152.5 305.5,-152.5"/>
<text text-anchor="start" x="313.5" y="-170.5" font-family="Helvetica,sans-Serif" font-size="10.00">artvision_instanton</text>
<text text-anchor="middle" x="354.5" y="-159.5" font-family="Helvetica,sans-Serif" font-size="10.00">::SafeDivision</text>
</a>
</g>
</g>
<!-- Node2&#45;&gt;Node4 -->
<g id="edge3" class="edge"><title>Node2&#45;&gt;Node4</title>
<path fill="none" stroke="midnightblue" d="M267.262,-167.5C276.55,-167.5 286.066,-167.5 295.227,-167.5"/>
<polygon fill="midnightblue" stroke="midnightblue" points="295.389,-171 305.389,-167.5 295.389,-164 295.389,-171"/>
</g>
<!-- Node5 -->
<g id="node5" class="node"><title>Node5</title>
<g id="a_node5"><a xlink:href="namespaceartvision__instanton.html#a752c0f8ffe9cd5be9bcabcf6be164773" target="_top" xlink:title="Quaternion Spherical Linear Interpolation (SLERP). ">
<polygon fill="white" stroke="black" points="303,-103.5 303,-133.5 406,-133.5 406,-103.5 303,-103.5"/>
<text text-anchor="start" x="311" y="-121.5" font-family="Helvetica,sans-Serif" font-size="10.00">artvision_instanton</text>
<text text-anchor="middle" x="354.5" y="-110.5" font-family="Helvetica,sans-Serif" font-size="10.00">::QuaternionSLERP</text>
</a>
</g>
</g>
<!-- Node2&#45;&gt;Node5 -->
<g id="edge4" class="edge"><title>Node2&#45;&gt;Node5</title>
<path fill="none" stroke="midnightblue" d="M249.383,-152.399C264.618,-147.438 281.713,-141.873 297.578,-136.707"/>
<polygon fill="midnightblue" stroke="midnightblue" points="298.845,-139.976 307.27,-133.552 296.678,-133.319 298.845,-139.976"/>
</g>
<!-- Node5&#45;&gt;Node3 -->
<g id="edge6" class="edge"><title>Node5&#45;&gt;Node3</title>
<path fill="none" stroke="midnightblue" d="M390.903,-133.595C396.194,-136.529 401.408,-139.844 406,-143.5 425.768,-159.237 421.809,-172.31 442,-187.5 443.786,-188.843 445.658,-190.128 447.59,-191.356"/>
<polygon fill="midnightblue" stroke="midnightblue" points="445.947,-194.448 456.366,-196.368 449.418,-188.369 445.947,-194.448"/>
</g>
<!-- Node6 -->
<g id="node6" class="node"><title>Node6</title>
<g id="a_node6"><a xlink:href="namespaceartvision__instanton.html#a52c0dfbde7558c411db7c1277228bbd1" target="_top" xlink:title="artvision_instanton\l::DotProduct4">
<polygon fill="white" stroke="black" points="450,-147.5 450,-177.5 548,-177.5 548,-147.5 450,-147.5"/>
<text text-anchor="start" x="458" y="-165.5" font-family="Helvetica,sans-Serif" font-size="10.00">artvision_instanton</text>
<text text-anchor="middle" x="499" y="-154.5" font-family="Helvetica,sans-Serif" font-size="10.00">::DotProduct4</text>
</a>
</g>
</g>
<!-- Node5&#45;&gt;Node6 -->
<g id="edge5" class="edge"><title>Node5&#45;&gt;Node6</title>
<path fill="none" stroke="midnightblue" d="M404.142,-133.519C415.606,-137.059 427.941,-140.868 439.78,-144.523"/>
<polygon fill="midnightblue" stroke="midnightblue" points="438.99,-147.942 449.577,-147.548 441.055,-141.254 438.99,-147.942"/>
</g>
<!-- Node7 -->
<g id="node7" class="node"><title>Node7</title>
<g id="a_node7"><a xlink:href="namespaceartvision__instanton.html#aabc9e98c268ae008c284be49a6bd1430" target="_top" xlink:title="w = a*u + b*v ">
<polygon fill="white" stroke="black" points="444.5,-98.5 444.5,-128.5 553.5,-128.5 553.5,-98.5 444.5,-98.5"/>
<text text-anchor="start" x="452.5" y="-116.5" font-family="Helvetica,sans-Serif" font-size="10.00">artvision_instanton</text>
<text text-anchor="middle" x="499" y="-105.5" font-family="Helvetica,sans-Serif" font-size="10.00">::AddScaledVectors4</text>
</a>
</g>
</g>
<!-- Node5&#45;&gt;Node7 -->
<g id="edge7" class="edge"><title>Node5&#45;&gt;Node7</title>
<path fill="none" stroke="midnightblue" d="M406.141,-116.723C415.189,-116.406 424.721,-116.071 434.082,-115.743"/>
<polygon fill="midnightblue" stroke="midnightblue" points="434.272,-119.238 444.143,-115.39 434.026,-112.243 434.272,-119.238"/>
</g>
<!-- Node8 -->
<g id="node8" class="node"><title>Node8</title>
<g id="a_node8"><a xlink:href="namespaceartvision__instanton.html#a1fa75eeba87180bee6aee2ab3c07be5a" target="_top" xlink:title="Normalize a quaternion so that it has unit norm. ">
<polygon fill="white" stroke="black" points="442,-49.5 442,-79.5 556,-79.5 556,-49.5 442,-49.5"/>
<text text-anchor="start" x="450" y="-67.5" font-family="Helvetica,sans-Serif" font-size="10.00">artvision_instanton</text>
<text text-anchor="middle" x="499" y="-56.5" font-family="Helvetica,sans-Serif" font-size="10.00">::NormalizeQuaternion</text>
</a>
</g>
</g>
<!-- Node5&#45;&gt;Node8 -->
<g id="edge8" class="edge"><title>Node5&#45;&gt;Node8</title>
<path fill="none" stroke="midnightblue" d="M395.194,-103.458C411.732,-97.1912 431.111,-89.8473 448.56,-83.2352"/>
<polygon fill="midnightblue" stroke="midnightblue" points="449.914,-86.4652 458.024,-79.6486 447.433,-79.9194 449.914,-86.4652"/>
</g>
<!-- Node9 -->
<g id="node9" class="node"><title>Node9</title>
<g id="a_node9"><a xlink:href="namespaceartvision__instanton.html#aaf2781e37f3d7d4e78dd2c872d0799b6" target="_top" xlink:title="artvision_instanton::sqr">
<polygon fill="white" stroke="black" points="592,-99 592,-118 710,-118 710,-99 592,-99"/>
<text text-anchor="middle" x="651" y="-106" font-family="Helvetica,sans-Serif" font-size="10.00">artvision_instanton::sqr</text>
</a>
</g>
</g>
<!-- Node8&#45;&gt;Node9 -->
<g id="edge9" class="edge"><title>Node8&#45;&gt;Node9</title>
<path fill="none" stroke="midnightblue" d="M551.202,-79.5192C569.506,-84.8885 589.92,-90.8766 607.419,-96.0095"/>
<polygon fill="midnightblue" stroke="midnightblue" points="606.766,-99.4654 617.347,-98.9217 608.736,-92.7484 606.766,-99.4654"/>
</g>
<!-- Node10 -->
<g id="node10" class="node"><title>Node10</title>
<g id="a_node10"><a xlink:href="namespaceartvision__instanton.html#adc1e30b0cec389f6c8e8b5512b69fb2e" target="_top" xlink:title="artvision_instanton\l::sign">
<polygon fill="white" stroke="black" points="602,-49.5 602,-79.5 700,-79.5 700,-49.5 602,-49.5"/>
<text text-anchor="start" x="610" y="-67.5" font-family="Helvetica,sans-Serif" font-size="10.00">artvision_instanton</text>
<text text-anchor="middle" x="651" y="-56.5" font-family="Helvetica,sans-Serif" font-size="10.00">::sign</text>
</a>
</g>
</g>
<!-- Node8&#45;&gt;Node10 -->
<g id="edge10" class="edge"><title>Node8&#45;&gt;Node10</title>
<path fill="none" stroke="midnightblue" d="M556.281,-64.5C567.855,-64.5 580.063,-64.5 591.706,-64.5"/>
<polygon fill="midnightblue" stroke="midnightblue" points="591.762,-68.0001 601.762,-64.5 591.762,-61.0001 591.762,-68.0001"/>
</g>
<!-- Node11 -->
<g id="node11" class="node"><title>Node11</title>
<g id="a_node11"><a xlink:href="namespaceartvision__instanton.html#a15dadc526841cbe9f7a5d74530ca7746" target="_top" xlink:title="artvision_instanton\l::ScaleVector4">
<polygon fill="white" stroke="black" points="602,-0.5 602,-30.5 700,-30.5 700,-0.5 602,-0.5"/>
<text text-anchor="start" x="610" y="-18.5" font-family="Helvetica,sans-Serif" font-size="10.00">artvision_instanton</text>
<text text-anchor="middle" x="651" y="-7.5" font-family="Helvetica,sans-Serif" font-size="10.00">::ScaleVector4</text>
</a>
</g>
</g>
<!-- Node8&#45;&gt;Node11 -->
<g id="edge11" class="edge"><title>Node8&#45;&gt;Node11</title>
<path fill="none" stroke="midnightblue" d="M546.229,-49.3986C561.413,-44.4385 578.451,-38.8726 594.264,-33.7071"/>
<polygon fill="midnightblue" stroke="midnightblue" points="595.505,-36.9838 603.924,-30.5516 593.331,-30.3298 595.505,-36.9838"/>
</g>
</g>
</svg>
        <g id="navigator" transform="translate(0 0)" fill="#404254">
                <rect fill="#f2f5e9" fill-opacity="0.5" stroke="#606060" stroke-width=".5" x="0" y="0" width="60" height="60"/>
                <use id="zoomplus" xlink:href="#zoomPlus" x="17" y="9" onmousedown="handleZoom(evt,'in')"/>
                <use id="zoomminus" xlink:href="#zoomMin" x="42" y="9" onmousedown="handleZoom(evt,'out')"/>
                <use id="reset" xlink:href="#resetDef" x="30" y="36" onmousedown="handleReset()"/>
                <g id="arrowUp" xlink:href="#dirArrow" transform="translate(30 24)" onmousedown="handlePan(0,-1)">
                  <use xlink:href="#rim" fill="#404040">
                        <set attributeName="fill" to="#808080" begin="arrowUp.mouseover" end="arrowUp.mouseout"/>
                  </use>
                  <path fill="none" stroke="white" stroke-width="1.5" d="M0,-3.0v7 M-2.5,-0.5L0,-3.0L2.5,-0.5"/>
                </g>
                <g id="arrowRight" xlink:href="#dirArrow" transform="rotate(90) translate(36 -43)" onmousedown="handlePan(1,0)">
                  <use xlink:href="#rim" fill="#404040">
                        <set attributeName="fill" to="#808080" begin="arrowRight.mouseover" end="arrowRight.mouseout"/>
                  </use>
                  <path fill="none" stroke="white" stroke-width="1.5" d="M0,-3.0v7 M-2.5,-0.5L0,-3.0L2.5,-0.5"/>
                </g>
                <g id="arrowDown" xlink:href="#dirArrow" transform="rotate(180) translate(-30 -48)" onmousedown="handlePan(0,1)">
                  <use xlink:href="#rim" fill="#404040">
                        <set attributeName="fill" to="#808080" begin="arrowDown.mouseover" end="arrowDown.mouseout"/>
                  </use>
                  <path fill="none" stroke="white" stroke-width="1.5" d="M0,-3.0v7 M-2.5,-0.5L0,-3.0L2.5,-0.5"/>
                </g>
                <g id="arrowLeft" xlink:href="#dirArrow" transform="rotate(270) translate(-36 17)" onmousedown="handlePan(-1,0)">
                  <use xlink:href="#rim" fill="#404040">
                        <set attributeName="fill" to="#808080" begin="arrowLeft.mouseover" end="arrowLeft.mouseout"/>
                  </use>
                  <path fill="none" stroke="white" stroke-width="1.5" d="M0,-3.0v7 M-2.5,-0.5L0,-3.0L2.5,-0.5"/>
                </g>
        </g>
        <svg viewBox="0 0 15 15" width="100%" height="30px" preserveAspectRatio="xMaxYMin meet">
         <g id="arrow_out" transform="scale(0.3 0.3)">
          <a xlink:href="classartvision__instanton_1_1_attitude_sync_filter_adf63ab08ee724604c895db00f3873e86_cgraph_org.svg" target="_base">
           <rect id="button" ry="5" rx="5" y="6" x="6" height="38" width="38"
                fill="#f2f5e9" fill-opacity="0.5" stroke="#606060" stroke-width="1.0"/>
           <path id="arrow"
             d="M 11.500037,31.436501 C 11.940474,20.09759 22.043105,11.32322 32.158766,21.979434 L 37.068811,17.246167 C 37.068811,17.246167 37.088388,32 37.088388,32 L 22.160133,31.978069 C 22.160133,31.978069 26.997745,27.140456 26.997745,27.140456 C 18.528582,18.264221 13.291696,25.230495 11.500037,31.436501 z"
             style="fill:#404040;"/>
          </a>
         </g>
        </svg>
</svg>
