<?xml version="1.0" encoding="UTF-8" standalone="no"?>
<!DOCTYPE svg PUBLIC "-//W3C//DTD SVG 1.1//EN"
 "http://www.w3.org/Graphics/SVG/1.1/DTD/svg11.dtd">
<!-- Generated by graphviz version 2.38.0 (20140413.2041)
 -->
<!-- Title: artvision_instanton::RobustPnP::find Pages: 1 -->
<svg width="1235pt" height="589pt"
 viewBox="0.00 0.00 1235.00 589.01" xmlns="http://www.w3.org/2000/svg" xmlns:xlink="http://www.w3.org/1999/xlink">
<g id="graph0" class="graph" transform="scale(1 1) rotate(0) translate(4 585.007)">
<title>artvision_instanton::RobustPnP::find</title>
<polygon fill="white" stroke="none" points="-4,4 -4,-585.007 1231,-585.007 1231,4 -4,4"/>
<!-- Node1 -->
<g id="node1" class="node"><title>Node1</title>
<polygon fill="#bfbfbf" stroke="black" points="0,-265.5 0,-295.5 98,-295.5 98,-265.5 0,-265.5"/>
<text text-anchor="start" x="8" y="-283.5" font-family="Helvetica,sans-Serif" font-size="10.00">artvision_instanton</text>
<text text-anchor="middle" x="49" y="-272.5" font-family="Helvetica,sans-Serif" font-size="10.00">::RobustPnP::find</text>
</g>
<!-- Node2 -->
<g id="node2" class="node"><title>Node2</title>
<g id="a_node2"><a xlink:href="namespaceartvision__instanton.html#ad6b25c9436bddeb4a360c4c37cebed21" target="_top" xlink:title="Take a projection matrix and 2d&#45;3d correspondences. ">
<polygon fill="white" stroke="black" points="340.5,-404.5 340.5,-434.5 438.5,-434.5 438.5,-404.5 340.5,-404.5"/>
<text text-anchor="start" x="348.5" y="-422.5" font-family="Helvetica,sans-Serif" font-size="10.00">artvision_instanton</text>
<text text-anchor="middle" x="389.5" y="-411.5" font-family="Helvetica,sans-Serif" font-size="10.00">::FindPnPInliers</text>
</a>
</g>
</g>
<!-- Node1&#45;&gt;Node2 -->
<g id="edge1" class="edge"><title>Node1&#45;&gt;Node2</title>
<path fill="none" stroke="midnightblue" d="M86.547,-295.508C148.546,-320.966 274.212,-372.569 342.244,-400.506"/>
<polygon fill="midnightblue" stroke="midnightblue" points="341.269,-403.889 351.849,-404.45 343.928,-397.414 341.269,-403.889"/>
</g>
<!-- Node9 -->
<g id="node9" class="node"><title>Node9</title>
<g id="a_node9"><a xlink:href="namespaceartvision__instanton.html#a7fca9c648cca2c195504a215827c2680" target="_top" xlink:title="Minimizes the Cauchy Robustified error between points P*X and x in the functional f(P*X&#45;x)...">
<polygon fill="white" stroke="black" points="134,-204.5 134,-234.5 267,-234.5 267,-204.5 134,-204.5"/>
<text text-anchor="start" x="142" y="-222.5" font-family="Helvetica,sans-Serif" font-size="10.00">artvision_instanton</text>
<text text-anchor="middle" x="200.5" y="-211.5" font-family="Helvetica,sans-Serif" font-size="10.00">::PolishRobustPerspective</text>
</a>
</g>
</g>
<!-- Node1&#45;&gt;Node9 -->
<g id="edge8" class="edge"><title>Node1&#45;&gt;Node9</title>
<path fill="none" stroke="midnightblue" d="M86.9551,-265.421C106.976,-257.252 131.905,-247.081 153.209,-238.388"/>
<polygon fill="midnightblue" stroke="midnightblue" points="154.775,-241.529 162.711,-234.511 152.13,-235.048 154.775,-241.529"/>
</g>
<!-- Node3 -->
<g id="node3" class="node"><title>Node3</title>
<g id="a_node3"><a xlink:href="namespaceartvision__instanton.html#ae2f91e798164e94f8da847fa07dc5dec" target="_top" xlink:title="Extract a rotation matrix and translation from a projection matrix. ">
<polygon fill="white" stroke="black" points="740,-238.5 740,-268.5 880,-268.5 880,-238.5 740,-238.5"/>
<text text-anchor="start" x="748" y="-256.5" font-family="Helvetica,sans-Serif" font-size="10.00">artvision_instanton</text>
<text text-anchor="middle" x="810" y="-245.5" font-family="Helvetica,sans-Serif" font-size="10.00">::ExtractRt_ProjectionMatrix</text>
</a>
</g>
</g>
<!-- Node2&#45;&gt;Node3 -->
<g id="edge2" class="edge"><title>Node2&#45;&gt;Node3</title>
<path fill="none" stroke="midnightblue" d="M399.529,-404.09C417.109,-375.678 458.905,-315.481 512,-288.5 548.857,-269.771 654.8,-260.799 729.607,-256.693"/>
<polygon fill="midnightblue" stroke="midnightblue" points="730.145,-260.169 739.946,-256.145 729.774,-253.179 730.145,-260.169"/>
</g>
<!-- Node4 -->
<g id="node4" class="node"><title>Node4</title>
<g id="a_node4"><a xlink:href="namespaceartvision__instanton.html#aaf2781e37f3d7d4e78dd2c872d0799b6" target="_top" xlink:title="artvision_instanton::sqr">
<polygon fill="white" stroke="black" points="1109,-431 1109,-450 1227,-450 1227,-431 1109,-431"/>
<text text-anchor="middle" x="1168" y="-438" font-family="Helvetica,sans-Serif" font-size="10.00">artvision_instanton::sqr</text>
</a>
</g>
</g>
<!-- Node2&#45;&gt;Node4 -->
<g id="edge3" class="edge"><title>Node2&#45;&gt;Node4</title>
<path fill="none" stroke="midnightblue" d="M405.496,-434.744C427.072,-455.764 469.026,-493.331 512,-513.5 602.683,-556.06 632.427,-551.545 732,-562.5 883.118,-579.125 937.304,-604.055 1073,-535.5 1108.7,-517.465 1138.94,-480.646 1154.89,-458.515"/>
<polygon fill="midnightblue" stroke="midnightblue" points="1157.96,-460.229 1160.82,-450.028 1152.23,-456.218 1157.96,-460.229"/>
</g>
<!-- Node5 -->
<g id="node5" class="node"><title>Node5</title>
<g id="a_node5"><a xlink:href="namespaceartvision__instanton.html#a24d7ae588e0e2ec2eb7d5fc233427ad8" target="_top" xlink:title="Compute the reprojection error from an observed point and 3d point. ">
<polygon fill="white" stroke="black" points="535,-473.5 535,-503.5 673,-503.5 673,-473.5 535,-473.5"/>
<text text-anchor="start" x="543" y="-491.5" font-family="Helvetica,sans-Serif" font-size="10.00">artvision_instanton</text>
<text text-anchor="middle" x="604" y="-480.5" font-family="Helvetica,sans-Serif" font-size="10.00">::ComputeReprojectionError</text>
</a>
</g>
</g>
<!-- Node2&#45;&gt;Node5 -->
<g id="edge4" class="edge"><title>Node2&#45;&gt;Node5</title>
<path fill="none" stroke="midnightblue" d="M436.871,-434.557C469.216,-445.059 512.552,-459.131 546.853,-470.269"/>
<polygon fill="midnightblue" stroke="midnightblue" points="546.135,-473.716 556.727,-473.475 548.297,-467.058 546.135,-473.716"/>
</g>
<!-- Node6 -->
<g id="node6" class="node"><title>Node6</title>
<g id="a_node6"><a xlink:href="namespaceartvision__instanton.html#a2e4a1c1738a313cb7c2c174d94f6de59" target="_top" xlink:title="Compute the Pinhole Projection of a 3D point in camera space. ">
<polygon fill="white" stroke="black" points="741,-473.5 741,-503.5 879,-503.5 879,-473.5 741,-473.5"/>
<text text-anchor="start" x="749" y="-491.5" font-family="Helvetica,sans-Serif" font-size="10.00">artvision_instanton</text>
<text text-anchor="middle" x="810" y="-480.5" font-family="Helvetica,sans-Serif" font-size="10.00">::ComputePinholeProjection</text>
</a>
</g>
</g>
<!-- Node5&#45;&gt;Node6 -->
<g id="edge5" class="edge"><title>Node5&#45;&gt;Node6</title>
<path fill="none" stroke="midnightblue" d="M673.213,-488.5C691.671,-488.5 711.794,-488.5 730.756,-488.5"/>
<polygon fill="midnightblue" stroke="midnightblue" points="730.852,-492 740.852,-488.5 730.852,-485 730.852,-492"/>
</g>
<!-- Node8 -->
<g id="node8" class="node"><title>Node8</title>
<g id="a_node8"><a xlink:href="namespaceartvision__instanton.html#a7335db5e597223e1ac30919089f27045" target="_top" xlink:title="Subtract two vectors. ">
<polygon fill="white" stroke="black" points="761,-522.5 761,-552.5 859,-552.5 859,-522.5 761,-522.5"/>
<text text-anchor="start" x="769" y="-540.5" font-family="Helvetica,sans-Serif" font-size="10.00">artvision_instanton</text>
<text text-anchor="middle" x="810" y="-529.5" font-family="Helvetica,sans-Serif" font-size="10.00">::SubVector2</text>
</a>
</g>
</g>
<!-- Node5&#45;&gt;Node8 -->
<g id="edge7" class="edge"><title>Node5&#45;&gt;Node8</title>
<path fill="none" stroke="midnightblue" d="M667.593,-503.535C694.18,-509.921 724.988,-517.321 751.048,-523.58"/>
<polygon fill="midnightblue" stroke="midnightblue" points="750.243,-526.986 760.784,-525.919 751.878,-520.18 750.243,-526.986"/>
</g>
<!-- Node7 -->
<g id="node7" class="node"><title>Node7</title>
<g id="a_node7"><a xlink:href="namespaceartvision__instanton.html#a7353501a2ebe28e96528be2f2bfe4eaf" target="_top" xlink:title="Safe reciprical (1/x). ">
<polygon fill="white" stroke="black" points="949.5,-495.5 949.5,-525.5 1047.5,-525.5 1047.5,-495.5 949.5,-495.5"/>
<text text-anchor="start" x="957.5" y="-513.5" font-family="Helvetica,sans-Serif" font-size="10.00">artvision_instanton</text>
<text text-anchor="middle" x="998.5" y="-502.5" font-family="Helvetica,sans-Serif" font-size="10.00">::SafeReciprocal</text>
</a>
</g>
</g>
<!-- Node6&#45;&gt;Node7 -->
<g id="edge6" class="edge"><title>Node6&#45;&gt;Node7</title>
<path fill="none" stroke="midnightblue" d="M879.122,-496.536C898.88,-498.867 920.264,-501.389 939.35,-503.641"/>
<polygon fill="midnightblue" stroke="midnightblue" points="939.055,-507.13 949.396,-504.826 939.875,-500.178 939.055,-507.13"/>
</g>
<!-- Node10 -->
<g id="node10" class="node"><title>Node10</title>
<g id="a_node10"><a xlink:href="namespaceartvision__instanton.html#a4afeef708244d526c4e5851f42ac04c0" target="_top" xlink:title="Compute the Cauchy reprojection cost for perspective P*X&#45;x. ">
<polygon fill="white" stroke="black" points="512,-298.5 512,-328.5 696,-328.5 696,-298.5 512,-298.5"/>
<text text-anchor="start" x="520" y="-316.5" font-family="Helvetica,sans-Serif" font-size="10.00">artvision_instanton</text>
<text text-anchor="middle" x="604" y="-305.5" font-family="Helvetica,sans-Serif" font-size="10.00">::CauchyPerspectiveReprojectionCost</text>
</a>
</g>
</g>
<!-- Node9&#45;&gt;Node10 -->
<g id="edge9" class="edge"><title>Node9&#45;&gt;Node10</title>
<path fill="none" stroke="midnightblue" d="M218.344,-234.765C237.365,-250.992 269.987,-275.883 303,-287.5 366.633,-309.892 442.336,-316.317 501.775,-317.181"/>
<polygon fill="midnightblue" stroke="midnightblue" points="501.89,-320.682 511.923,-317.277 501.956,-313.683 501.89,-320.682"/>
</g>
<!-- Node16 -->
<g id="node16" class="node"><title>Node16</title>
<g id="a_node16"><a xlink:href="namespaceartvision__instanton.html#a7bda844303dde26222b65b1480d1e0e8" target="_top" xlink:title="Compute the normal equations for the post multiplied perspective update. ">
<polygon fill="white" stroke="black" points="316.5,-148 316.5,-189 462.5,-189 462.5,-148 316.5,-148"/>
<text text-anchor="start" x="324.5" y="-177" font-family="Helvetica,sans-Serif" font-size="10.00">artvision_instanton</text>
<text text-anchor="start" x="324.5" y="-166" font-family="Helvetica,sans-Serif" font-size="10.00">::ComputePerspectiveNormal</text>
<text text-anchor="middle" x="389.5" y="-155" font-family="Helvetica,sans-Serif" font-size="10.00">EquationsPostMultiply</text>
</a>
</g>
</g>
<!-- Node9&#45;&gt;Node16 -->
<g id="edge17" class="edge"><title>Node9&#45;&gt;Node16</title>
<path fill="none" stroke="midnightblue" d="M256.595,-204.474C272.265,-200.2 289.678,-195.452 306.578,-190.842"/>
<polygon fill="midnightblue" stroke="midnightblue" points="307.725,-194.157 316.452,-188.15 305.883,-187.404 307.725,-194.157"/>
</g>
<!-- Node30 -->
<g id="node30" class="node"><title>Node30</title>
<g id="a_node30"><a xlink:href="namespaceartvision__instanton.html#adc67ef2cae6364ac0ad66d1f11db0dfa" target="_top" xlink:title="artvision_instanton\l::printPnPDelta">
<polygon fill="white" stroke="black" points="340.5,-99.5 340.5,-129.5 438.5,-129.5 438.5,-99.5 340.5,-99.5"/>
<text text-anchor="start" x="348.5" y="-117.5" font-family="Helvetica,sans-Serif" font-size="10.00">artvision_instanton</text>
<text text-anchor="middle" x="389.5" y="-106.5" font-family="Helvetica,sans-Serif" font-size="10.00">::printPnPDelta</text>
</a>
</g>
</g>
<!-- Node9&#45;&gt;Node30 -->
<g id="edge38" class="edge"><title>Node9&#45;&gt;Node30</title>
<path fill="none" stroke="midnightblue" d="M216.292,-204.456C234.93,-186.317 268.692,-156.083 303,-138.5 311.554,-134.116 321.012,-130.444 330.427,-127.397"/>
<polygon fill="midnightblue" stroke="midnightblue" points="331.626,-130.691 340.183,-124.445 329.598,-123.991 331.626,-130.691"/>
</g>
<!-- Node31 -->
<g id="node31" class="node"><title>Node31</title>
<g id="a_node31"><a xlink:href="namespaceartvision__instanton.html#afd6dbbd9acca322a19536bce2c32b43c" target="_top" xlink:title="artvision_instanton\l::CopyVector">
<polygon fill="white" stroke="black" points="340.5,-50.5 340.5,-80.5 438.5,-80.5 438.5,-50.5 340.5,-50.5"/>
<text text-anchor="start" x="348.5" y="-68.5" font-family="Helvetica,sans-Serif" font-size="10.00">artvision_instanton</text>
<text text-anchor="middle" x="389.5" y="-57.5" font-family="Helvetica,sans-Serif" font-size="10.00">::CopyVector</text>
</a>
</g>
</g>
<!-- Node9&#45;&gt;Node31 -->
<g id="edge39" class="edge"><title>Node9&#45;&gt;Node31</title>
<path fill="none" stroke="midnightblue" d="M209.251,-204.076C223.792,-176.735 257.817,-119.804 303,-89.5 311.355,-83.8966 321.005,-79.5904 330.748,-76.2843"/>
<polygon fill="midnightblue" stroke="midnightblue" points="331.943,-79.5788 340.477,-73.3004 329.89,-72.8865 331.943,-79.5788"/>
</g>
<!-- Node32 -->
<g id="node32" class="node"><title>Node32</title>
<g id="a_node32"><a xlink:href="namespaceartvision__instanton.html#adbdb9565a96d5a3de8523d299129e423" target="_top" xlink:title="Regularize the 6x6 system with Levenberg&#45;Marquardt. ">
<polygon fill="white" stroke="black" points="303,-248.5 303,-278.5 476,-278.5 476,-248.5 303,-248.5"/>
<text text-anchor="start" x="311" y="-266.5" font-family="Helvetica,sans-Serif" font-size="10.00">artvision_instanton</text>
<text text-anchor="middle" x="389.5" y="-255.5" font-family="Helvetica,sans-Serif" font-size="10.00">::RegularizeLevenbergMarquardt6x6</text>
</a>
</g>
</g>
<!-- Node9&#45;&gt;Node32 -->
<g id="edge40" class="edge"><title>Node9&#45;&gt;Node32</title>
<path fill="none" stroke="midnightblue" d="M265.332,-234.519C281.191,-238.251 298.321,-242.281 314.618,-246.116"/>
<polygon fill="midnightblue" stroke="midnightblue" points="314.103,-249.59 324.639,-248.474 315.706,-242.776 314.103,-249.59"/>
</g>
<!-- Node33 -->
<g id="node33" class="node"><title>Node33</title>
<g id="a_node33"><a xlink:href="namespaceartvision__instanton.html#a3716ef5fb6bd1f411ef093881cbbd0a7" target="_top" xlink:title="Update Rigid transformation based on delta. ">
<polygon fill="white" stroke="black" points="533.5,-200 533.5,-241 674.5,-241 674.5,-200 533.5,-200"/>
<text text-anchor="start" x="541.5" y="-229" font-family="Helvetica,sans-Serif" font-size="10.00">artvision_instanton</text>
<text text-anchor="start" x="541.5" y="-218" font-family="Helvetica,sans-Serif" font-size="10.00">::UpdateRigidTransformPost</text>
<text text-anchor="middle" x="604" y="-207" font-family="Helvetica,sans-Serif" font-size="10.00">Multiply</text>
</a>
</g>
</g>
<!-- Node9&#45;&gt;Node33 -->
<g id="edge41" class="edge"><title>Node9&#45;&gt;Node33</title>
<path fill="none" stroke="midnightblue" d="M267.35,-219.664C337.361,-219.838 448.113,-220.114 523.074,-220.301"/>
<polygon fill="midnightblue" stroke="midnightblue" points="523.397,-223.802 533.406,-220.327 523.414,-216.802 523.397,-223.802"/>
</g>
<!-- Node10&#45;&gt;Node3 -->
<g id="edge10" class="edge"><title>Node10&#45;&gt;Node3</title>
<path fill="none" stroke="midnightblue" d="M656.214,-298.437C684.102,-290.235 718.791,-280.032 748.063,-271.423"/>
<polygon fill="midnightblue" stroke="midnightblue" points="749.158,-274.749 757.764,-268.569 747.183,-268.033 749.158,-274.749"/>
</g>
<!-- Node11 -->
<g id="node11" class="node"><title>Node11</title>
<g id="a_node11"><a xlink:href="namespaceartvision__instanton.html#a0bcd54deb4ce42595592e6acbe8dd7d1" target="_top" xlink:title="Perform a rigid transformation on a point. ">
<polygon fill="white" stroke="black" points="941.5,-331.5 941.5,-361.5 1055.5,-361.5 1055.5,-331.5 941.5,-331.5"/>
<text text-anchor="start" x="949.5" y="-349.5" font-family="Helvetica,sans-Serif" font-size="10.00">artvision_instanton</text>
<text text-anchor="middle" x="998.5" y="-338.5" font-family="Helvetica,sans-Serif" font-size="10.00">::ApplyRigidTransform</text>
</a>
</g>
</g>
<!-- Node10&#45;&gt;Node11 -->
<g id="edge11" class="edge"><title>Node10&#45;&gt;Node11</title>
<path fill="none" stroke="midnightblue" d="M696.195,-323.132C708.232,-324.316 720.41,-325.47 732,-326.5 799.803,-332.523 877.453,-338.234 931.185,-342"/>
<polygon fill="midnightblue" stroke="midnightblue" points="931.048,-345.499 941.267,-342.703 931.535,-338.516 931.048,-345.499"/>
</g>
<!-- Node14 -->
<g id="node14" class="node"><title>Node14</title>
<g id="a_node14"><a xlink:href="namespaceartvision__instanton.html#a7f364fe0dfa85b3e8e808022f9e53d1f" target="_top" xlink:title="As one_over_scale2 gets larger, cost increases. ">
<polygon fill="white" stroke="black" points="761,-424.5 761,-454.5 859,-454.5 859,-424.5 761,-424.5"/>
<text text-anchor="start" x="769" y="-442.5" font-family="Helvetica,sans-Serif" font-size="10.00">artvision_instanton</text>
<text text-anchor="middle" x="810" y="-431.5" font-family="Helvetica,sans-Serif" font-size="10.00">::CauchyCost</text>
</a>
</g>
</g>
<!-- Node10&#45;&gt;Node14 -->
<g id="edge14" class="edge"><title>Node10&#45;&gt;Node14</title>
<path fill="none" stroke="midnightblue" d="M682.451,-328.517C687.292,-331.063 691.87,-334.034 696,-337.5 725.248,-362.042 703.302,-390.316 732,-415.5 737.644,-420.453 744.302,-424.384 751.302,-427.503"/>
<polygon fill="midnightblue" stroke="midnightblue" points="750.407,-430.911 760.995,-431.275 752.945,-424.387 750.407,-430.911"/>
</g>
<!-- Node12 -->
<g id="node12" class="node"><title>Node12</title>
<g id="a_node12"><a xlink:href="namespaceartvision__instanton.html#a614c9cf49c0617570fffd18befe57f8a" target="_top" xlink:title="y = A*x where A is a 3x3 and x is a 3x1. ">
<polygon fill="white" stroke="black" points="1119,-306.5 1119,-336.5 1217,-336.5 1217,-306.5 1119,-306.5"/>
<text text-anchor="start" x="1127" y="-324.5" font-family="Helvetica,sans-Serif" font-size="10.00">artvision_instanton</text>
<text text-anchor="middle" x="1168" y="-313.5" font-family="Helvetica,sans-Serif" font-size="10.00">::Multiply_3x3_3x1</text>
</a>
</g>
</g>
<!-- Node11&#45;&gt;Node12 -->
<g id="edge12" class="edge"><title>Node11&#45;&gt;Node12</title>
<path fill="none" stroke="midnightblue" d="M1055.74,-338.106C1072.82,-335.556 1091.62,-332.751 1108.83,-330.183"/>
<polygon fill="midnightblue" stroke="midnightblue" points="1109.37,-333.64 1118.75,-328.702 1108.34,-326.716 1109.37,-333.64"/>
</g>
<!-- Node13 -->
<g id="node13" class="node"><title>Node13</title>
<g id="a_node13"><a xlink:href="namespaceartvision__instanton.html#ab4058805b1bbef9fbba6688a6f4ce7b6" target="_top" xlink:title="artvision_instanton\l::AddVector3">
<polygon fill="white" stroke="black" points="1119,-355.5 1119,-385.5 1217,-385.5 1217,-355.5 1119,-355.5"/>
<text text-anchor="start" x="1127" y="-373.5" font-family="Helvetica,sans-Serif" font-size="10.00">artvision_instanton</text>
<text text-anchor="middle" x="1168" y="-362.5" font-family="Helvetica,sans-Serif" font-size="10.00">::AddVector3</text>
</a>
</g>
</g>
<!-- Node11&#45;&gt;Node13 -->
<g id="edge13" class="edge"><title>Node11&#45;&gt;Node13</title>
<path fill="none" stroke="midnightblue" d="M1055.74,-354.558C1072.82,-357.006 1091.62,-359.699 1108.83,-362.165"/>
<polygon fill="midnightblue" stroke="midnightblue" points="1108.35,-365.632 1118.75,-363.586 1109.35,-358.703 1108.35,-365.632"/>
</g>
<!-- Node14&#45;&gt;Node4 -->
<g id="edge16" class="edge"><title>Node14&#45;&gt;Node4</title>
<path fill="none" stroke="midnightblue" d="M859.073,-443.656C879.127,-445.194 902.674,-446.746 924,-447.5 990.181,-449.84 1006.82,-449.961 1073,-447.5 1081.35,-447.19 1090.1,-446.725 1098.77,-446.18"/>
<polygon fill="midnightblue" stroke="midnightblue" points="1099.13,-449.664 1108.87,-445.507 1098.66,-442.679 1099.13,-449.664"/>
</g>
<!-- Node15 -->
<g id="node15" class="node"><title>Node15</title>
<g id="a_node15"><a xlink:href="namespaceartvision__instanton.html#aabfdfd6e431693d8b92948d037feaf4f" target="_top" xlink:title="artvision_instanton::log">
<polygon fill="white" stroke="black" points="940,-419 940,-438 1057,-438 1057,-419 940,-419"/>
<text text-anchor="middle" x="998.5" y="-426" font-family="Helvetica,sans-Serif" font-size="10.00">artvision_instanton::log</text>
</a>
</g>
</g>
<!-- Node14&#45;&gt;Node15 -->
<g id="edge15" class="edge"><title>Node14&#45;&gt;Node15</title>
<path fill="none" stroke="midnightblue" d="M859.028,-436.667C880.464,-435.403 906.105,-433.891 929.465,-432.513"/>
<polygon fill="midnightblue" stroke="midnightblue" points="929.887,-435.994 939.664,-431.911 929.475,-429.006 929.887,-435.994"/>
</g>
<!-- Node17 -->
<g id="node17" class="node"><title>Node17</title>
<g id="a_node17"><a xlink:href="namespaceartvision__instanton.html#a4e3faf7c78294e7ca0b205d5285287e4" target="_top" xlink:title="artvision_instanton\l::ZeroVector">
<polygon fill="white" stroke="black" points="1119,-202.5 1119,-232.5 1217,-232.5 1217,-202.5 1119,-202.5"/>
<text text-anchor="start" x="1127" y="-220.5" font-family="Helvetica,sans-Serif" font-size="10.00">artvision_instanton</text>
<text text-anchor="middle" x="1168" y="-209.5" font-family="Helvetica,sans-Serif" font-size="10.00">::ZeroVector</text>
</a>
</g>
</g>
<!-- Node16&#45;&gt;Node17 -->
<g id="edge18" class="edge"><title>Node16&#45;&gt;Node17</title>
<path fill="none" stroke="midnightblue" d="M460.339,-147.865C465.843,-145.094 471.142,-141.984 476,-138.5 497.097,-123.371 488.662,-103.871 512,-92.5 585.516,-56.6812 614.612,-84.5234 696,-92.5 854.136,-107.999 1033.75,-168.036 1118.21,-198.919"/>
<polygon fill="midnightblue" stroke="midnightblue" points="1117.2,-202.274 1127.79,-202.445 1119.62,-195.706 1117.2,-202.274"/>
</g>
<!-- Node18 -->
<g id="node18" class="node"><title>Node18</title>
<g id="a_node18"><a xlink:href="namespaceartvision__instanton.html#a62b99613981a1f98a6beb3096f7f645d" target="_top" xlink:title="Compute the Perspective Jacobian of the Post Multiplied Update equation. ">
<polygon fill="white" stroke="black" points="531.5,-347 531.5,-388 676.5,-388 676.5,-347 531.5,-347"/>
<text text-anchor="start" x="539.5" y="-376" font-family="Helvetica,sans-Serif" font-size="10.00">artvision_instanton</text>
<text text-anchor="start" x="539.5" y="-365" font-family="Helvetica,sans-Serif" font-size="10.00">::RobustPerspectiveJacobian</text>
<text text-anchor="middle" x="604" y="-354" font-family="Helvetica,sans-Serif" font-size="10.00">PostMultiply</text>
</a>
</g>
</g>
<!-- Node16&#45;&gt;Node18 -->
<g id="edge19" class="edge"><title>Node16&#45;&gt;Node18</title>
<path fill="none" stroke="midnightblue" d="M423.436,-189.066C441.088,-201.516 462.019,-218.782 476,-238.5 503.08,-276.693 478.396,-304.9 512,-337.5 515.244,-340.647 518.825,-343.465 522.634,-345.986"/>
<polygon fill="midnightblue" stroke="midnightblue" points="520.897,-349.025 531.296,-351.048 524.428,-342.981 520.897,-349.025"/>
</g>
<!-- Node27 -->
<g id="node27" class="node"><title>Node27</title>
<g id="a_node27"><a xlink:href="namespaceartvision__instanton.html#adf48d283b154203b12c526bbd11f0717" target="_top" xlink:title="C += A&#39;*A. ">
<polygon fill="white" stroke="black" points="533,-102.5 533,-132.5 675,-132.5 675,-102.5 533,-102.5"/>
<text text-anchor="start" x="541" y="-120.5" font-family="Helvetica,sans-Serif" font-size="10.00">artvision_instanton</text>
<text text-anchor="middle" x="604" y="-109.5" font-family="Helvetica,sans-Serif" font-size="10.00">::MultiplyAndAccumulateAtA</text>
</a>
</g>
</g>
<!-- Node16&#45;&gt;Node27 -->
<g id="edge35" class="edge"><title>Node16&#45;&gt;Node27</title>
<path fill="none" stroke="midnightblue" d="M462.739,-151.163C484.546,-145.929 508.49,-140.182 530.326,-134.942"/>
<polygon fill="midnightblue" stroke="midnightblue" points="531.288,-138.31 540.195,-132.573 529.654,-131.504 531.288,-138.31"/>
</g>
<!-- Node28 -->
<g id="node28" class="node"><title>Node28</title>
<g id="a_node28"><a xlink:href="namespaceartvision__instanton.html#a5e1d6095eb08dc2ac1697fe595df3c24" target="_top" xlink:title="y += A&#39;*x ">
<polygon fill="white" stroke="black" points="534,-14.5 534,-44.5 674,-44.5 674,-14.5 534,-14.5"/>
<text text-anchor="start" x="542" y="-32.5" font-family="Helvetica,sans-Serif" font-size="10.00">artvision_instanton</text>
<text text-anchor="middle" x="604" y="-21.5" font-family="Helvetica,sans-Serif" font-size="10.00">::MultiplyAndAccumulateAtx</text>
</a>
</g>
</g>
<!-- Node16&#45;&gt;Node28 -->
<g id="edge36" class="edge"><title>Node16&#45;&gt;Node28</title>
<path fill="none" stroke="midnightblue" d="M462.555,-148.332C467.384,-145.473 471.935,-142.214 476,-138.5 504.485,-112.473 483.269,-85.255 512,-59.5 516.364,-55.5877 521.251,-52.184 526.434,-49.2231"/>
<polygon fill="midnightblue" stroke="midnightblue" points="528.082,-52.3117 535.396,-44.6464 524.898,-46.0776 528.082,-52.3117"/>
</g>
<!-- Node29 -->
<g id="node29" class="node"><title>Node29</title>
<g id="a_node29"><a xlink:href="namespaceartvision__instanton.html#a6b7cf4cecd3a7d2fd08f75eb0a6c8233" target="_top" xlink:title="Extend the upper right triangular matrix to the lower left. ">
<polygon fill="white" stroke="black" points="522,-151.5 522,-181.5 686,-181.5 686,-151.5 522,-151.5"/>
<text text-anchor="start" x="530" y="-169.5" font-family="Helvetica,sans-Serif" font-size="10.00">artvision_instanton</text>
<text text-anchor="middle" x="604" y="-158.5" font-family="Helvetica,sans-Serif" font-size="10.00">::SymmetricExtendUpperToLower</text>
</a>
</g>
</g>
<!-- Node16&#45;&gt;Node29 -->
<g id="edge37" class="edge"><title>Node16&#45;&gt;Node29</title>
<path fill="none" stroke="midnightblue" d="M462.739,-167.82C478.483,-167.672 495.339,-167.513 511.713,-167.359"/>
<polygon fill="midnightblue" stroke="midnightblue" points="511.864,-170.858 521.83,-167.264 511.798,-163.858 511.864,-170.858"/>
</g>
<!-- Node18&#45;&gt;Node3 -->
<g id="edge20" class="edge"><title>Node18&#45;&gt;Node3</title>
<path fill="none" stroke="midnightblue" d="M676.637,-349.481C683.55,-346.132 690.153,-342.174 696,-337.5 720.29,-318.081 707.552,-296.72 732,-277.5 733.789,-276.094 735.661,-274.769 737.598,-273.522"/>
<polygon fill="midnightblue" stroke="midnightblue" points="739.461,-276.49 746.456,-268.532 736.026,-270.391 739.461,-276.49"/>
</g>
<!-- Node18&#45;&gt;Node6 -->
<g id="edge21" class="edge"><title>Node18&#45;&gt;Node6</title>
<path fill="none" stroke="midnightblue" d="M627.2,-388.38C651.326,-410.084 691.829,-443.729 732,-464.5 735.537,-466.329 739.238,-468.048 743.024,-469.658"/>
<polygon fill="midnightblue" stroke="midnightblue" points="741.976,-473.007 752.562,-473.439 744.556,-466.5 741.976,-473.007"/>
</g>
<!-- Node19 -->
<g id="node19" class="node"><title>Node19</title>
<g id="a_node19"><a xlink:href="namespaceartvision__instanton.html#a6ffb7b16edab5abc8d818e06918bf296" target="_top" xlink:title="Compute the Jacobian for the perspective transformation. ">
<polygon fill="white" stroke="black" points="753.5,-287.5 753.5,-317.5 866.5,-317.5 866.5,-287.5 753.5,-287.5"/>
<text text-anchor="start" x="761.5" y="-305.5" font-family="Helvetica,sans-Serif" font-size="10.00">artvision_instanton</text>
<text text-anchor="middle" x="810" y="-294.5" font-family="Helvetica,sans-Serif" font-size="10.00">::PerspectiveJacobian</text>
</a>
</g>
</g>
<!-- Node18&#45;&gt;Node19 -->
<g id="edge22" class="edge"><title>Node18&#45;&gt;Node19</title>
<path fill="none" stroke="midnightblue" d="M669.547,-346.934C696.045,-338.491 726.458,-328.8 752.107,-320.628"/>
<polygon fill="midnightblue" stroke="midnightblue" points="753.22,-323.946 761.686,-317.576 751.095,-317.277 753.22,-323.946"/>
</g>
<!-- Node26 -->
<g id="node26" class="node"><title>Node26</title>
<g id="a_node26"><a xlink:href="namespaceartvision__instanton.html#a4dc10058ab0d51b3533fab033d195834" target="_top" xlink:title="Compute the Cauchy Cost Jacobian. ">
<polygon fill="white" stroke="black" points="732,-375.5 732,-405.5 888,-405.5 888,-375.5 732,-375.5"/>
<text text-anchor="start" x="740" y="-393.5" font-family="Helvetica,sans-Serif" font-size="10.00">artvision_instanton</text>
<text text-anchor="middle" x="810" y="-382.5" font-family="Helvetica,sans-Serif" font-size="10.00">::ComputeCauchyCostJacobian</text>
</a>
</g>
</g>
<!-- Node18&#45;&gt;Node26 -->
<g id="edge32" class="edge"><title>Node18&#45;&gt;Node26</title>
<path fill="none" stroke="midnightblue" d="M676.636,-375.577C691.188,-377.217 706.646,-378.96 721.671,-380.654"/>
<polygon fill="midnightblue" stroke="midnightblue" points="721.658,-384.175 731.988,-381.817 722.443,-377.219 721.658,-384.175"/>
</g>
<!-- Node19&#45;&gt;Node11 -->
<g id="edge23" class="edge"><title>Node19&#45;&gt;Node11</title>
<path fill="none" stroke="midnightblue" d="M866.704,-315.642C887.089,-320.451 910.348,-325.939 931.544,-330.939"/>
<polygon fill="midnightblue" stroke="midnightblue" points="930.903,-334.384 941.439,-333.274 932.51,-327.571 930.903,-334.384"/>
</g>
<!-- Node20 -->
<g id="node20" class="node"><title>Node20</title>
<g id="a_node20"><a xlink:href="namespaceartvision__instanton.html#a082aeedecdb5fcd65eb5a2ef8131ac32" target="_top" xlink:title="Compute the Jacobian for the perspective division. ">
<polygon fill="white" stroke="black" points="924,-282.5 924,-312.5 1073,-312.5 1073,-282.5 924,-282.5"/>
<text text-anchor="start" x="932" y="-300.5" font-family="Helvetica,sans-Serif" font-size="10.00">artvision_instanton</text>
<text text-anchor="middle" x="998.5" y="-289.5" font-family="Helvetica,sans-Serif" font-size="10.00">::PerspectiveDivisionJacobian</text>
</a>
</g>
</g>
<!-- Node19&#45;&gt;Node20 -->
<g id="edge24" class="edge"><title>Node19&#45;&gt;Node20</title>
<path fill="none" stroke="midnightblue" d="M866.704,-301.007C881.408,-300.612 897.607,-300.178 913.448,-299.753"/>
<polygon fill="midnightblue" stroke="midnightblue" points="913.885,-303.243 923.788,-299.476 913.697,-296.246 913.885,-303.243"/>
</g>
<!-- Node21 -->
<g id="node21" class="node"><title>Node21</title>
<g id="a_node21"><a xlink:href="namespaceartvision__instanton.html#af21696f6d0ec10dd9b3bc2dbf7072200" target="_top" xlink:title="Compute the Jacobian for Rotation matrix in association with a 3x1 Vector. ">
<polygon fill="white" stroke="black" points="935,-50.5 935,-80.5 1062,-80.5 1062,-50.5 935,-50.5"/>
<text text-anchor="start" x="943" y="-68.5" font-family="Helvetica,sans-Serif" font-size="10.00">artvision_instanton</text>
<text text-anchor="middle" x="998.5" y="-57.5" font-family="Helvetica,sans-Serif" font-size="10.00">::RotatingVectorJacobian</text>
</a>
</g>
</g>
<!-- Node19&#45;&gt;Node21 -->
<g id="edge27" class="edge"><title>Node19&#45;&gt;Node21</title>
<path fill="none" stroke="midnightblue" d="M866.782,-290.237C874.435,-286.945 881.786,-282.776 888,-277.5 903.76,-264.118 961.529,-142.686 986.204,-89.8608"/>
<polygon fill="midnightblue" stroke="midnightblue" points="989.492,-91.092 990.543,-80.5494 983.147,-88.1357 989.492,-91.092"/>
</g>
<!-- Node25 -->
<g id="node25" class="node"><title>Node25</title>
<g id="a_node25"><a xlink:href="namespaceartvision__instanton.html#acb750555524d289e9fc3f7805e13534e" target="_top" xlink:title="C = A*B where A is a 2x3 and B a 3x3. ">
<polygon fill="white" stroke="black" points="949.5,-233.5 949.5,-263.5 1047.5,-263.5 1047.5,-233.5 949.5,-233.5"/>
<text text-anchor="start" x="957.5" y="-251.5" font-family="Helvetica,sans-Serif" font-size="10.00">artvision_instanton</text>
<text text-anchor="middle" x="998.5" y="-240.5" font-family="Helvetica,sans-Serif" font-size="10.00">::Multiply2x3_3x3</text>
</a>
</g>
</g>
<!-- Node19&#45;&gt;Node25 -->
<g id="edge31" class="edge"><title>Node19&#45;&gt;Node25</title>
<path fill="none" stroke="midnightblue" d="M862.951,-287.458C886.728,-280.573 914.994,-272.389 939.467,-265.303"/>
<polygon fill="midnightblue" stroke="midnightblue" points="940.713,-268.586 949.345,-262.443 938.766,-261.862 940.713,-268.586"/>
</g>
<!-- Node20&#45;&gt;Node4 -->
<g id="edge26" class="edge"><title>Node20&#45;&gt;Node4</title>
<path fill="none" stroke="midnightblue" d="M1059.87,-312.608C1064.59,-315.13 1069.04,-318.071 1073,-321.5 1100.34,-345.193 1086.28,-366.353 1109,-394.5 1118.59,-406.373 1131.76,-417.128 1143.12,-425.248"/>
<polygon fill="midnightblue" stroke="midnightblue" points="1141.15,-428.14 1151.38,-430.918 1145.12,-422.37 1141.15,-428.14"/>
</g>
<!-- Node20&#45;&gt;Node17 -->
<g id="edge25" class="edge"><title>Node20&#45;&gt;Node17</title>
<path fill="none" stroke="midnightblue" d="M1048.28,-282.456C1056.64,-279.44 1065.15,-276.085 1073,-272.5 1094.53,-262.663 1117.48,-249.295 1135.31,-238.202"/>
<polygon fill="midnightblue" stroke="midnightblue" points="1137.54,-240.933 1144.14,-232.639 1133.81,-235.011 1137.54,-240.933"/>
</g>
<!-- Node22 -->
<g id="node22" class="node"><title>Node22</title>
<g id="a_node22"><a xlink:href="namespaceartvision__instanton.html#ad3933fe06996e714aeae7b03787cc6dd" target="_top" xlink:title="Skew&#45;Symmetric Matrix. ">
<polygon fill="white" stroke="black" points="1119,-49.5 1119,-79.5 1217,-79.5 1217,-49.5 1119,-49.5"/>
<text text-anchor="start" x="1127" y="-67.5" font-family="Helvetica,sans-Serif" font-size="10.00">artvision_instanton</text>
<text text-anchor="middle" x="1168" y="-56.5" font-family="Helvetica,sans-Serif" font-size="10.00">::SkewSymmetric</text>
</a>
</g>
</g>
<!-- Node21&#45;&gt;Node22 -->
<g id="edge28" class="edge"><title>Node21&#45;&gt;Node22</title>
<path fill="none" stroke="midnightblue" d="M1062.35,-65.1248C1077.58,-65.0338 1093.8,-64.937 1108.81,-64.8474"/>
<polygon fill="midnightblue" stroke="midnightblue" points="1109.01,-68.3464 1118.99,-64.7867 1108.96,-61.3465 1109.01,-68.3464"/>
</g>
<!-- Node23 -->
<g id="node23" class="node"><title>Node23</title>
<g id="a_node23"><a xlink:href="namespaceartvision__instanton.html#a77d8d8df593b392f9d9c81a9d70eaa2e" target="_top" xlink:title="C = A*B where A,B and C are 3x3 matrices. ">
<polygon fill="white" stroke="black" points="1119,-98.5 1119,-128.5 1217,-128.5 1217,-98.5 1119,-98.5"/>
<text text-anchor="start" x="1127" y="-116.5" font-family="Helvetica,sans-Serif" font-size="10.00">artvision_instanton</text>
<text text-anchor="middle" x="1168" y="-105.5" font-family="Helvetica,sans-Serif" font-size="10.00">::Multiply3x3_3x3</text>
</a>
</g>
</g>
<!-- Node21&#45;&gt;Node23 -->
<g id="edge29" class="edge"><title>Node21&#45;&gt;Node23</title>
<path fill="none" stroke="midnightblue" d="M1052.04,-80.5558C1070.17,-85.7529 1090.59,-91.6029 1109.13,-96.9154"/>
<polygon fill="midnightblue" stroke="midnightblue" points="1108.34,-100.33 1118.92,-99.7208 1110.27,-93.6013 1108.34,-100.33"/>
</g>
<!-- Node24 -->
<g id="node24" class="node"><title>Node24</title>
<g id="a_node24"><a xlink:href="namespaceartvision__instanton.html#a41b79f3ef269aeca8553c6daea6a60c9" target="_top" xlink:title="artvision_instanton\l::ScaleVector9">
<polygon fill="white" stroke="black" points="1119,-0.5 1119,-30.5 1217,-30.5 1217,-0.5 1119,-0.5"/>
<text text-anchor="start" x="1127" y="-18.5" font-family="Helvetica,sans-Serif" font-size="10.00">artvision_instanton</text>
<text text-anchor="middle" x="1168" y="-7.5" font-family="Helvetica,sans-Serif" font-size="10.00">::ScaleVector9</text>
</a>
</g>
</g>
<!-- Node21&#45;&gt;Node24 -->
<g id="edge30" class="edge"><title>Node21&#45;&gt;Node24</title>
<path fill="none" stroke="midnightblue" d="M1049.76,-50.4984C1068.47,-44.9124 1089.85,-38.5291 1109.19,-32.7568"/>
<polygon fill="midnightblue" stroke="midnightblue" points="1110.21,-36.1045 1118.79,-29.8903 1108.21,-29.3969 1110.21,-36.1045"/>
</g>
<!-- Node26&#45;&gt;Node4 -->
<g id="edge33" class="edge"><title>Node26&#45;&gt;Node4</title>
<path fill="none" stroke="midnightblue" d="M888.189,-391.124C940.727,-392.76 1011.6,-397.342 1073,-409.5 1093.57,-413.574 1115.89,-420.809 1133.62,-427.265"/>
<polygon fill="midnightblue" stroke="midnightblue" points="1132.89,-430.727 1143.48,-430.947 1135.34,-424.17 1132.89,-430.727"/>
</g>
<!-- Node26&#45;&gt;Node15 -->
<g id="edge34" class="edge"><title>Node26&#45;&gt;Node15</title>
<path fill="none" stroke="midnightblue" d="M884.71,-405.519C903.349,-409.316 923.079,-413.337 940.737,-416.934"/>
<polygon fill="midnightblue" stroke="midnightblue" points="940.373,-420.432 950.87,-418.999 941.771,-413.573 940.373,-420.432"/>
</g>
<!-- Node33&#45;&gt;Node3 -->
<g id="edge42" class="edge"><title>Node33&#45;&gt;Node3</title>
<path fill="none" stroke="midnightblue" d="M674.635,-231.764C692.359,-234.632 711.539,-237.734 729.706,-240.673"/>
<polygon fill="midnightblue" stroke="midnightblue" points="729.249,-244.144 739.679,-242.286 730.366,-237.234 729.249,-244.144"/>
</g>
<!-- Node33&#45;&gt;Node23 -->
<g id="edge44" class="edge"><title>Node33&#45;&gt;Node23</title>
<path fill="none" stroke="midnightblue" d="M674.787,-203.36C682.37,-199.83 689.633,-195.59 696,-190.5 720.29,-171.081 705.243,-146.348 732,-130.5 794.005,-93.7761 1005.02,-102.332 1108.63,-109.086"/>
<polygon fill="midnightblue" stroke="midnightblue" points="1108.71,-112.598 1118.92,-109.773 1109.17,-105.614 1108.71,-112.598"/>
</g>
<!-- Node34 -->
<g id="node34" class="node"><title>Node34</title>
<g id="a_node34"><a xlink:href="namespaceartvision__instanton.html#ae45ee6891c87f52629c7cc8682f2de46" target="_top" xlink:title="Compute the Rodrigues rotation matrix. ">
<polygon fill="white" stroke="black" points="758,-140.5 758,-170.5 862,-170.5 862,-140.5 758,-140.5"/>
<text text-anchor="start" x="766" y="-158.5" font-family="Helvetica,sans-Serif" font-size="10.00">artvision_instanton</text>
<text text-anchor="middle" x="810" y="-147.5" font-family="Helvetica,sans-Serif" font-size="10.00">::RodriguesRotation</text>
</a>
</g>
</g>
<!-- Node33&#45;&gt;Node34 -->
<g id="edge43" class="edge"><title>Node33&#45;&gt;Node34</title>
<path fill="none" stroke="midnightblue" d="M668.266,-199.936C688.604,-193.363 711.241,-186.086 732,-179.5 738.044,-177.583 744.358,-175.593 750.659,-173.616"/>
<polygon fill="midnightblue" stroke="midnightblue" points="752.01,-176.86 760.508,-170.532 749.919,-170.18 752.01,-176.86"/>
</g>
<!-- Node35 -->
<g id="node35" class="node"><title>Node35</title>
<g id="a_node35"><a xlink:href="namespaceartvision__instanton.html#a4a34a017c3300e59d4404b63b3b24125" target="_top" xlink:title="Create a projection matrix from a rotation matrix (R) and translation (t) of the camera. ">
<polygon fill="white" stroke="black" points="741,-189.5 741,-219.5 879,-219.5 879,-189.5 741,-189.5"/>
<text text-anchor="start" x="749" y="-207.5" font-family="Helvetica,sans-Serif" font-size="10.00">artvision_instanton</text>
<text text-anchor="middle" x="810" y="-196.5" font-family="Helvetica,sans-Serif" font-size="10.00">::CreateProjectionMatrix_Rt</text>
</a>
</g>
</g>
<!-- Node33&#45;&gt;Node35 -->
<g id="edge45" class="edge"><title>Node33&#45;&gt;Node35</title>
<path fill="none" stroke="midnightblue" d="M674.635,-215.038C692.652,-213.625 712.172,-212.094 730.604,-210.649"/>
<polygon fill="midnightblue" stroke="midnightblue" points="731.02,-214.127 740.715,-209.856 730.472,-207.148 731.02,-214.127"/>
</g>
</g>
</svg>
