<?xml version="1.0" encoding="UTF-8" standalone="no"?>
<!DOCTYPE svg PUBLIC "-//W3C//DTD SVG 1.1//EN"
 "http://www.w3.org/Graphics/SVG/1.1/DTD/svg11.dtd">
<!-- Generated by graphviz version 2.38.0 (20140413.2041)
 -->
<!-- Title: artvision_instanton::CameraFilter::start Pages: 1 -->
<svg width="514pt" height="88pt"
 viewBox="0.00 0.00 514.00 88.00" xmlns="http://www.w3.org/2000/svg" xmlns:xlink="http://www.w3.org/1999/xlink">
<g id="graph0" class="graph" transform="scale(1 1) rotate(0) translate(4 84)">
<title>artvision_instanton::CameraFilter::start</title>
<polygon fill="white" stroke="none" points="-4,4 -4,-84 510,-84 510,4 -4,4"/>
<!-- Node1 -->
<g id="node1" class="node"><title>Node1</title>
<polygon fill="#bfbfbf" stroke="black" points="0,-24.5 0,-54.5 104,-54.5 104,-24.5 0,-24.5"/>
<text text-anchor="start" x="8" y="-42.5" font-family="Helvetica,sans-Serif" font-size="10.00">artvision_instanton</text>
<text text-anchor="middle" x="52" y="-31.5" font-family="Helvetica,sans-Serif" font-size="10.00">::CameraFilter::start</text>
</g>
<!-- Node2 -->
<g id="node2" class="node"><title>Node2</title>
<g id="a_node2"><a xlink:href="classartvision__instanton_1_1_filter.html#a3e94d07d5bb67bbc930b1c3983445ec4" target="_top" xlink:title="Start the filter. ">
<polygon fill="white" stroke="black" points="140,-24.5 140,-54.5 238,-54.5 238,-24.5 140,-24.5"/>
<text text-anchor="start" x="148" y="-42.5" font-family="Helvetica,sans-Serif" font-size="10.00">artvision_instanton</text>
<text text-anchor="middle" x="189" y="-31.5" font-family="Helvetica,sans-Serif" font-size="10.00">::Filter::start</text>
</a>
</g>
</g>
<!-- Node1&#45;&gt;Node2 -->
<g id="edge1" class="edge"><title>Node1&#45;&gt;Node2</title>
<path fill="none" stroke="midnightblue" d="M104.038,-39.5C112.319,-39.5 120.952,-39.5 129.396,-39.5"/>
<polygon fill="midnightblue" stroke="midnightblue" points="129.566,-43.0001 139.566,-39.5 129.566,-36.0001 129.566,-43.0001"/>
</g>
<!-- Node3 -->
<g id="node3" class="node"><title>Node3</title>
<g id="a_node3"><a xlink:href="classartvision__instanton_1_1_task.html#a5d6a1d3c6cd5b587d2414737fab9f3ed" target="_top" xlink:title="Start the task. ">
<polygon fill="white" stroke="black" points="274,-49.5 274,-79.5 372,-79.5 372,-49.5 274,-49.5"/>
<text text-anchor="start" x="282" y="-67.5" font-family="Helvetica,sans-Serif" font-size="10.00">artvision_instanton</text>
<text text-anchor="middle" x="323" y="-56.5" font-family="Helvetica,sans-Serif" font-size="10.00">::Task::start</text>
</a>
</g>
</g>
<!-- Node2&#45;&gt;Node3 -->
<g id="edge2" class="edge"><title>Node2&#45;&gt;Node3</title>
<path fill="none" stroke="midnightblue" d="M238.028,-48.5963C246.4,-50.1818 255.188,-51.8463 263.798,-53.4769"/>
<polygon fill="midnightblue" stroke="midnightblue" points="263.309,-56.9465 273.786,-55.3686 264.612,-50.0688 263.309,-56.9465"/>
</g>
<!-- Node5 -->
<g id="node5" class="node"><title>Node5</title>
<g id="a_node5"><a xlink:href="classartvision__instanton_1_1_task.html#aed1edcdf4d79cbdb49a6f8fb4ef1fe98" target="_top" xlink:title="set_up: a place for resource allocation for/in the svc() thread after its starting point ...">
<polygon fill="white" stroke="black" points="274,-0.5 274,-30.5 372,-30.5 372,-0.5 274,-0.5"/>
<text text-anchor="start" x="282" y="-18.5" font-family="Helvetica,sans-Serif" font-size="10.00">artvision_instanton</text>
<text text-anchor="middle" x="323" y="-7.5" font-family="Helvetica,sans-Serif" font-size="10.00">::Task::svcSetUp</text>
</a>
</g>
</g>
<!-- Node2&#45;&gt;Node5 -->
<g id="edge4" class="edge"><title>Node2&#45;&gt;Node5</title>
<path fill="none" stroke="midnightblue" d="M238.028,-30.7676C246.4,-29.2455 255.188,-27.6475 263.798,-26.0822"/>
<polygon fill="midnightblue" stroke="midnightblue" points="264.574,-29.4986 273.786,-24.2662 263.321,-22.6116 264.574,-29.4986"/>
</g>
<!-- Node4 -->
<g id="node4" class="node"><title>Node4</title>
<g id="a_node4"><a xlink:href="classartvision__instanton_1_1_thread.html#a51bc5725c88a3c82465234fbaf271881" target="_top" xlink:title="Create the thread. ">
<polygon fill="white" stroke="black" points="408,-49.5 408,-79.5 506,-79.5 506,-49.5 408,-49.5"/>
<text text-anchor="start" x="416" y="-67.5" font-family="Helvetica,sans-Serif" font-size="10.00">artvision_instanton</text>
<text text-anchor="middle" x="457" y="-56.5" font-family="Helvetica,sans-Serif" font-size="10.00">::Thread::create</text>
</a>
</g>
</g>
<!-- Node3&#45;&gt;Node4 -->
<g id="edge3" class="edge"><title>Node3&#45;&gt;Node4</title>
<path fill="none" stroke="midnightblue" d="M372.028,-64.5C380.309,-64.5 388.997,-64.5 397.517,-64.5"/>
<polygon fill="midnightblue" stroke="midnightblue" points="397.786,-68.0001 407.786,-64.5 397.786,-61.0001 397.786,-68.0001"/>
</g>
</g>
</svg>
