<?xml version="1.0" encoding="UTF-8" standalone="no"?>
<!DOCTYPE svg PUBLIC "-//W3C//DTD SVG 1.1//EN"
 "http://www.w3.org/Graphics/SVG/1.1/DTD/svg11.dtd">
<!-- Generated by graphviz version 2.38.0 (20140413.2041)
 -->
<!-- Title: artvision_instanton::WaitQueue::push Pages: 1 -->
<svg width="240pt" height="284pt"
 viewBox="0.00 0.00 240.00 284.00" xmlns="http://www.w3.org/2000/svg" xmlns:xlink="http://www.w3.org/1999/xlink">
<g id="graph0" class="graph" transform="scale(1 1) rotate(0) translate(4 280)">
<title>artvision_instanton::WaitQueue::push</title>
<polygon fill="white" stroke="none" points="-4,4 -4,-280 236,-280 236,4 -4,4"/>
<!-- Node1 -->
<g id="node1" class="node"><title>Node1</title>
<polygon fill="#bfbfbf" stroke="black" points="0,-122.5 0,-152.5 98,-152.5 98,-122.5 0,-122.5"/>
<text text-anchor="start" x="8" y="-140.5" font-family="Helvetica,sans-Serif" font-size="10.00">artvision_instanton</text>
<text text-anchor="middle" x="49" y="-129.5" font-family="Helvetica,sans-Serif" font-size="10.00">::WaitQueue::push</text>
</g>
<!-- Node2 -->
<g id="node2" class="node"><title>Node2</title>
<g id="a_node2"><a xlink:href="classartvision__instanton_1_1_guard.html#a7150e4d06668a64e07bb39741c6c4caa" target="_top" xlink:title="Lock the mutex. ">
<polygon fill="white" stroke="black" points="134,-245.5 134,-275.5 232,-275.5 232,-245.5 134,-245.5"/>
<text text-anchor="start" x="142" y="-263.5" font-family="Helvetica,sans-Serif" font-size="10.00">artvision_instanton</text>
<text text-anchor="middle" x="183" y="-252.5" font-family="Helvetica,sans-Serif" font-size="10.00">::Guard::lock</text>
</a>
</g>
</g>
<!-- Node1&#45;&gt;Node2 -->
<g id="edge1" class="edge"><title>Node1&#45;&gt;Node2</title>
<path fill="none" stroke="midnightblue" d="M59.852,-152.572C74.1558,-173.543 102.437,-211.729 134,-236.5 135.567,-237.73 137.206,-238.921 138.896,-240.072"/>
<polygon fill="midnightblue" stroke="midnightblue" points="137.306,-243.204 147.653,-245.483 140.985,-237.249 137.306,-243.204"/>
</g>
<!-- Node3 -->
<g id="node3" class="node"><title>Node3</title>
<g id="a_node3"><a xlink:href="classartvision__instanton_1_1_guard.html#a59b1ce219967accaa28e6ea74042507d" target="_top" xlink:title="Unlock the mutex. ">
<polygon fill="white" stroke="black" points="134,-196.5 134,-226.5 232,-226.5 232,-196.5 134,-196.5"/>
<text text-anchor="start" x="142" y="-214.5" font-family="Helvetica,sans-Serif" font-size="10.00">artvision_instanton</text>
<text text-anchor="middle" x="183" y="-203.5" font-family="Helvetica,sans-Serif" font-size="10.00">::Guard::unlock</text>
</a>
</g>
</g>
<!-- Node1&#45;&gt;Node3 -->
<g id="edge2" class="edge"><title>Node1&#45;&gt;Node3</title>
<path fill="none" stroke="midnightblue" d="M74.3527,-152.638C90.9762,-162.812 113.599,-176.347 134,-187.5 136.653,-188.95 139.405,-190.419 142.188,-191.877"/>
<polygon fill="midnightblue" stroke="midnightblue" points="140.606,-195 151.099,-196.467 143.812,-188.777 140.606,-195"/>
</g>
<!-- Node4 -->
<g id="node4" class="node"><title>Node4</title>
<g id="a_node4"><a xlink:href="classartvision__instanton_1_1_guard.html#a12225e7b1666f22c638095320eaf2f2d" target="_top" xlink:title="Wait for the condition to be signaled. ">
<polygon fill="white" stroke="black" points="134,-147.5 134,-177.5 232,-177.5 232,-147.5 134,-147.5"/>
<text text-anchor="start" x="142" y="-165.5" font-family="Helvetica,sans-Serif" font-size="10.00">artvision_instanton</text>
<text text-anchor="middle" x="183" y="-154.5" font-family="Helvetica,sans-Serif" font-size="10.00">::Guard::wait</text>
</a>
</g>
</g>
<!-- Node1&#45;&gt;Node4 -->
<g id="edge3" class="edge"><title>Node1&#45;&gt;Node4</title>
<path fill="none" stroke="midnightblue" d="M98.0284,-146.596C106.4,-148.182 115.188,-149.846 123.798,-151.477"/>
<polygon fill="midnightblue" stroke="midnightblue" points="123.309,-154.947 133.786,-153.369 124.612,-148.069 123.309,-154.947"/>
</g>
<!-- Node5 -->
<g id="node5" class="node"><title>Node5</title>
<g id="a_node5"><a xlink:href="classartvision__instanton_1_1_mutex.html#ad91be808bf0a60a16f10b897ec246d3a" target="_top" xlink:title="Lock the mutex. ">
<polygon fill="white" stroke="black" points="134,-98.5 134,-128.5 232,-128.5 232,-98.5 134,-98.5"/>
<text text-anchor="start" x="142" y="-116.5" font-family="Helvetica,sans-Serif" font-size="10.00">artvision_instanton</text>
<text text-anchor="middle" x="183" y="-105.5" font-family="Helvetica,sans-Serif" font-size="10.00">::Mutex::lock</text>
</a>
</g>
</g>
<!-- Node1&#45;&gt;Node5 -->
<g id="edge4" class="edge"><title>Node1&#45;&gt;Node5</title>
<path fill="none" stroke="midnightblue" d="M98.0284,-128.768C106.4,-127.246 115.188,-125.648 123.798,-124.082"/>
<polygon fill="midnightblue" stroke="midnightblue" points="124.574,-127.499 133.786,-122.266 123.321,-120.612 124.574,-127.499"/>
</g>
<!-- Node6 -->
<g id="node6" class="node"><title>Node6</title>
<g id="a_node6"><a xlink:href="classartvision__instanton_1_1_mutex.html#a546a5b797ba29959357586aa2b3740a8" target="_top" xlink:title="Unlock the mutex. ">
<polygon fill="white" stroke="black" points="134,-49.5 134,-79.5 232,-79.5 232,-49.5 134,-49.5"/>
<text text-anchor="start" x="142" y="-67.5" font-family="Helvetica,sans-Serif" font-size="10.00">artvision_instanton</text>
<text text-anchor="middle" x="183" y="-56.5" font-family="Helvetica,sans-Serif" font-size="10.00">::Mutex::unlock</text>
</a>
</g>
</g>
<!-- Node1&#45;&gt;Node6 -->
<g id="edge5" class="edge"><title>Node1&#45;&gt;Node6</title>
<path fill="none" stroke="midnightblue" d="M75.9607,-122.318C92.4852,-112.741 114.392,-100.203 134,-89.5 137.104,-87.8055 140.333,-86.0688 143.584,-84.339"/>
<polygon fill="midnightblue" stroke="midnightblue" points="145.501,-87.2846 152.713,-79.5228 142.235,-81.0934 145.501,-87.2846"/>
</g>
<!-- Node7 -->
<g id="node7" class="node"><title>Node7</title>
<g id="a_node7"><a xlink:href="classartvision__instanton_1_1_guard.html#ab5bce48515607e3e64f335343ad91330" target="_top" xlink:title="Signal the condition variable. ">
<polygon fill="white" stroke="black" points="134,-0.5 134,-30.5 232,-30.5 232,-0.5 134,-0.5"/>
<text text-anchor="start" x="142" y="-18.5" font-family="Helvetica,sans-Serif" font-size="10.00">artvision_instanton</text>
<text text-anchor="middle" x="183" y="-7.5" font-family="Helvetica,sans-Serif" font-size="10.00">::Guard::signal</text>
</a>
</g>
</g>
<!-- Node1&#45;&gt;Node7 -->
<g id="edge6" class="edge"><title>Node1&#45;&gt;Node7</title>
<path fill="none" stroke="midnightblue" d="M60.2217,-122.472C74.7488,-101.956 103.06,-64.9436 134,-40.5 136,-38.9201 138.115,-37.3943 140.298,-35.9289"/>
<polygon fill="midnightblue" stroke="midnightblue" points="142.283,-38.8171 148.958,-30.5895 138.609,-32.8586 142.283,-38.8171"/>
</g>
</g>
</svg>
