<?xml version="1.0" encoding="UTF-8" standalone="no"?>
<!DOCTYPE svg PUBLIC "-//W3C//DTD SVG 1.1//EN"
 "http://www.w3.org/Graphics/SVG/1.1/DTD/svg11.dtd">
<!-- Generated by graphviz version 2.38.0 (20140413.2041)
 -->
<!-- Title: TrackerPipeline::AddTargetImage Pages: 1 -->
<svg width="328pt" height="127pt"
 viewBox="0.00 0.00 328.00 126.50" xmlns="http://www.w3.org/2000/svg" xmlns:xlink="http://www.w3.org/1999/xlink">
<g id="graph0" class="graph" transform="scale(1 1) rotate(0) translate(4 122.5)">
<title>TrackerPipeline::AddTargetImage</title>
<polygon fill="white" stroke="none" points="-4,4 -4,-122.5 324,-122.5 324,4 -4,4"/>
<!-- Node1 -->
<g id="node1" class="node"><title>Node1</title>
<polygon fill="#bfbfbf" stroke="black" points="0,-39 0,-69 135,-69 135,-39 0,-39"/>
<text text-anchor="start" x="8" y="-57" font-family="Helvetica,sans-Serif" font-size="10.00">TrackerPipeline::AddTarget</text>
<text text-anchor="middle" x="67.5" y="-46" font-family="Helvetica,sans-Serif" font-size="10.00">Image</text>
</g>
<!-- Node2 -->
<g id="node2" class="node"><title>Node2</title>
<g id="a_node2"><a xlink:href="class_a_r_trackable2_d.html#a077b2f77ba3440b291a5e7ea56fd72ca" target="_top" xlink:title="ARTrackable2D::getRefImage\lWidth">
<polygon fill="white" stroke="black" points="171,-88 171,-118 320,-118 320,-88 171,-88"/>
<text text-anchor="start" x="179" y="-106" font-family="Helvetica,sans-Serif" font-size="10.00">ARTrackable2D::getRefImage</text>
<text text-anchor="middle" x="245.5" y="-95" font-family="Helvetica,sans-Serif" font-size="10.00">Width</text>
</a>
</g>
</g>
<!-- Node1&#45;&gt;Node2 -->
<g id="edge1" class="edge"><title>Node1&#45;&gt;Node2</title>
<path fill="none" stroke="midnightblue" d="M122.742,-69.1014C141.062,-74.2019 161.683,-79.9429 180.675,-85.2305"/>
<polygon fill="midnightblue" stroke="midnightblue" points="179.865,-88.638 190.437,-87.9484 181.742,-81.8945 179.865,-88.638"/>
</g>
<!-- Node3 -->
<g id="node3" class="node"><title>Node3</title>
<g id="a_node3"><a xlink:href="class_a_r_trackable2_d.html#a53f04623f5ed8f039b0a357073a99fb8" target="_top" xlink:title="ARTrackable2D::getRefImage\lHeight">
<polygon fill="white" stroke="black" points="171,-39 171,-69 320,-69 320,-39 171,-39"/>
<text text-anchor="start" x="179" y="-57" font-family="Helvetica,sans-Serif" font-size="10.00">ARTrackable2D::getRefImage</text>
<text text-anchor="middle" x="245.5" y="-46" font-family="Helvetica,sans-Serif" font-size="10.00">Height</text>
</a>
</g>
</g>
<!-- Node1&#45;&gt;Node3 -->
<g id="edge2" class="edge"><title>Node1&#45;&gt;Node3</title>
<path fill="none" stroke="midnightblue" d="M135.038,-54C143.434,-54 152.107,-54 160.727,-54"/>
<polygon fill="midnightblue" stroke="midnightblue" points="160.8,-57.5001 170.8,-54 160.8,-50.5001 160.8,-57.5001"/>
</g>
<!-- Node4 -->
<g id="node4" class="node"><title>Node4</title>
<g id="a_node4"><a xlink:href="class_a_r_trackable2_d.html#aa627214d857b1c6eb9f884c70407e256" target="_top" xlink:title="ARTrackable2D::getRefImage">
<polygon fill="white" stroke="black" points="171,-0.5 171,-19.5 320,-19.5 320,-0.5 171,-0.5"/>
<text text-anchor="middle" x="245.5" y="-7.5" font-family="Helvetica,sans-Serif" font-size="10.00">ARTrackable2D::getRefImage</text>
</a>
</g>
</g>
<!-- Node1&#45;&gt;Node4 -->
<g id="edge3" class="edge"><title>Node1&#45;&gt;Node4</title>
<path fill="none" stroke="midnightblue" d="M128.577,-38.9808C150.742,-33.4396 175.543,-27.2393 196.5,-22.0001"/>
<polygon fill="midnightblue" stroke="midnightblue" points="197.598,-25.3333 206.45,-19.5124 195.9,-18.5423 197.598,-25.3333"/>
</g>
</g>
</svg>
