<?xml version="1.0" encoding="UTF-8" standalone="no"?>
<!DOCTYPE svg PUBLIC "-//W3C//DTD SVG 1.1//EN"
 "http://www.w3.org/Graphics/SVG/1.1/DTD/svg11.dtd">
<!-- Generated by graphviz version 2.38.0 (20140413.2041)
 -->
<!-- Title: ARTrackableMultiSquare::load Pages: 1 -->
<svg width="668pt" height="256pt"
 viewBox="0.00 0.00 668.00 256.00" xmlns="http://www.w3.org/2000/svg" xmlns:xlink="http://www.w3.org/1999/xlink">
<g id="graph0" class="graph" transform="scale(1 1) rotate(0) translate(4 252)">
<title>ARTrackableMultiSquare::load</title>
<polygon fill="white" stroke="none" points="-4,4 -4,-252 664,-252 664,4 -4,4"/>
<!-- Node1 -->
<g id="node1" class="node"><title>Node1</title>
<polygon fill="#bfbfbf" stroke="black" points="0,-122 0,-152 125,-152 125,-122 0,-122"/>
<text text-anchor="start" x="8" y="-140" font-family="Helvetica,sans-Serif" font-size="10.00">ARTrackableMultiSquare</text>
<text text-anchor="middle" x="62.5" y="-129" font-family="Helvetica,sans-Serif" font-size="10.00">::load</text>
</g>
<!-- Node2 -->
<g id="node2" class="node"><title>Node2</title>
<g id="a_node2"><a xlink:href="class_a_r_trackable_multi_square.html#a57881bb2ce7acf1852db2ee6665cd0f4" target="_top" xlink:title="ARTrackableMultiSquare\l::unload">
<polygon fill="white" stroke="black" points="173.5,-179 173.5,-209 298.5,-209 298.5,-179 173.5,-179"/>
<text text-anchor="start" x="181.5" y="-197" font-family="Helvetica,sans-Serif" font-size="10.00">ARTrackableMultiSquare</text>
<text text-anchor="middle" x="236" y="-186" font-family="Helvetica,sans-Serif" font-size="10.00">::unload</text>
</a>
</g>
</g>
<!-- Node1&#45;&gt;Node2 -->
<g id="edge1" class="edge"><title>Node1&#45;&gt;Node2</title>
<path fill="none" stroke="midnightblue" d="M109.009,-152.125C130.803,-159.369 157.082,-168.103 179.989,-175.716"/>
<polygon fill="midnightblue" stroke="midnightblue" points="178.983,-179.07 189.577,-178.903 181.191,-172.428 178.983,-179.07"/>
</g>
<!-- Node5 -->
<g id="node5" class="node"><title>Node5</title>
<g id="a_node5"><a xlink:href="ar_multi_read_config_file_8c.html#ad54b103e4097609ddc76b1e721eb20eb" target="_top" xlink:title="arMultiReadConfigFile">
<polygon fill="white" stroke="black" points="179.5,-127.5 179.5,-146.5 292.5,-146.5 292.5,-127.5 179.5,-127.5"/>
<text text-anchor="middle" x="236" y="-134.5" font-family="Helvetica,sans-Serif" font-size="10.00">arMultiReadConfigFile</text>
</a>
</g>
</g>
<!-- Node1&#45;&gt;Node5 -->
<g id="edge4" class="edge"><title>Node1&#45;&gt;Node5</title>
<path fill="none" stroke="midnightblue" d="M125.415,-137C139.621,-137 154.775,-137 169.141,-137"/>
<polygon fill="midnightblue" stroke="midnightblue" points="169.437,-140.5 179.437,-137 169.437,-133.5 169.437,-140.5"/>
</g>
<!-- Node14 -->
<g id="node14" class="node"><title>Node14</title>
<g id="a_node14"><a xlink:href="class_a_r_trackable.html#a913458e15352cfd5488f893c95f9c4f5" target="_top" xlink:title="Allocates space for patterns within this marker. ">
<polygon fill="white" stroke="black" points="161,-228.5 161,-247.5 311,-247.5 311,-228.5 161,-228.5"/>
<text text-anchor="middle" x="236" y="-235.5" font-family="Helvetica,sans-Serif" font-size="10.00">ARTrackable::allocatePatterns</text>
</a>
</g>
</g>
<!-- Node1&#45;&gt;Node14 -->
<g id="edge13" class="edge"><title>Node1&#45;&gt;Node14</title>
<path fill="none" stroke="midnightblue" d="M77.1777,-152.069C94.7888,-170.56 127.174,-201.592 161,-219 165.528,-221.33 170.362,-223.389 175.308,-225.205"/>
<polygon fill="midnightblue" stroke="midnightblue" points="174.314,-228.563 184.908,-228.406 176.529,-221.922 174.314,-228.563"/>
</g>
<!-- Node15 -->
<g id="node15" class="node"><title>Node15</title>
<g id="a_node15"><a xlink:href="class_a_r_trackable_appearance.html#a9c872ae6cf5c3a16762c0a931e341548" target="_top" xlink:title="ARTrackableAppearance\l::loadTemplate">
<polygon fill="white" stroke="black" points="173.5,-78 173.5,-108 298.5,-108 298.5,-78 173.5,-78"/>
<text text-anchor="start" x="181.5" y="-96" font-family="Helvetica,sans-Serif" font-size="10.00">ARTrackableAppearance</text>
<text text-anchor="middle" x="236" y="-85" font-family="Helvetica,sans-Serif" font-size="10.00">::loadTemplate</text>
</a>
</g>
</g>
<!-- Node1&#45;&gt;Node15 -->
<g id="edge15" class="edge"><title>Node1&#45;&gt;Node15</title>
<path fill="none" stroke="midnightblue" d="M122.041,-121.981C136.311,-118.32 151.703,-114.371 166.395,-110.601"/>
<polygon fill="midnightblue" stroke="midnightblue" points="167.615,-113.902 176.432,-108.026 165.876,-107.121 167.615,-113.902"/>
</g>
<!-- Node16 -->
<g id="node16" class="node"><title>Node16</title>
<g id="a_node16"><a xlink:href="class_a_r_trackable_appearance.html#a5f40fc9fd7aa907696081a43ff24d105" target="_top" xlink:title="ARTrackableAppearance\l::loadMatrix">
<polygon fill="white" stroke="black" points="173.5,-29 173.5,-59 298.5,-59 298.5,-29 173.5,-29"/>
<text text-anchor="start" x="181.5" y="-47" font-family="Helvetica,sans-Serif" font-size="10.00">ARTrackableAppearance</text>
<text text-anchor="middle" x="236" y="-36" font-family="Helvetica,sans-Serif" font-size="10.00">::loadMatrix</text>
</a>
</g>
</g>
<!-- Node1&#45;&gt;Node16 -->
<g id="edge16" class="edge"><title>Node1&#45;&gt;Node16</title>
<path fill="none" stroke="midnightblue" d="M81.9136,-121.761C100.806,-106.721 131.522,-83.8776 161,-69 165.313,-66.8233 169.858,-64.7683 174.488,-62.8433"/>
<polygon fill="midnightblue" stroke="midnightblue" points="176.038,-65.9948 184.063,-59.0771 173.476,-59.4806 176.038,-65.9948"/>
</g>
<!-- Node3 -->
<g id="node3" class="node"><title>Node3</title>
<g id="a_node3"><a xlink:href="class_a_r_trackable.html#aa425f1e3e1ba8d8b39ec6a34f8e2f403" target="_top" xlink:title="Frees allocated patterns and resets the pattern count to zero. ">
<polygon fill="white" stroke="black" points="362.5,-228.5 362.5,-247.5 495.5,-247.5 495.5,-228.5 362.5,-228.5"/>
<text text-anchor="middle" x="429" y="-235.5" font-family="Helvetica,sans-Serif" font-size="10.00">ARTrackable::freePatterns</text>
</a>
</g>
</g>
<!-- Node2&#45;&gt;Node3 -->
<g id="edge2" class="edge"><title>Node2&#45;&gt;Node3</title>
<path fill="none" stroke="midnightblue" d="M298.748,-208.225C323.925,-214.025 352.694,-220.652 376.688,-226.18"/>
<polygon fill="midnightblue" stroke="midnightblue" points="376.125,-229.641 386.655,-228.476 377.696,-222.82 376.125,-229.641"/>
</g>
<!-- Node4 -->
<g id="node4" class="node"><title>Node4</title>
<g id="a_node4"><a xlink:href="ar_multi_free_config_8c.html#a0f33d2031514e1b5af6ba4dfa152633f" target="_top" xlink:title="arMultiFreeConfig">
<polygon fill="white" stroke="black" points="382,-190.5 382,-209.5 476,-209.5 476,-190.5 382,-190.5"/>
<text text-anchor="middle" x="429" y="-197.5" font-family="Helvetica,sans-Serif" font-size="10.00">arMultiFreeConfig</text>
</a>
</g>
</g>
<!-- Node2&#45;&gt;Node4 -->
<g id="edge3" class="edge"><title>Node2&#45;&gt;Node4</title>
<path fill="none" stroke="midnightblue" d="M298.748,-195.94C322.188,-196.676 348.741,-197.51 371.657,-198.23"/>
<polygon fill="midnightblue" stroke="midnightblue" points="371.8,-201.736 381.905,-198.552 372.02,-194.74 371.8,-201.736"/>
</g>
<!-- Node6 -->
<g id="node6" class="node"><title>Node6</title>
<g id="a_node6"><a xlink:href="ar_util_8c.html#ae4f3e60c7edce9acfdddb9b454d13c1d" target="_top" xlink:title="arUtilGetDirectoryNameFromPath">
<polygon fill="white" stroke="black" points="347,-152.5 347,-171.5 511,-171.5 511,-152.5 347,-152.5"/>
<text text-anchor="middle" x="429" y="-159.5" font-family="Helvetica,sans-Serif" font-size="10.00">arUtilGetDirectoryNameFromPath</text>
</a>
</g>
</g>
<!-- Node5&#45;&gt;Node6 -->
<g id="edge5" class="edge"><title>Node5&#45;&gt;Node6</title>
<path fill="none" stroke="midnightblue" d="M292.502,-144.265C308.891,-146.41 327.198,-148.806 344.924,-151.126"/>
<polygon fill="midnightblue" stroke="midnightblue" points="344.905,-154.654 355.275,-152.481 345.814,-147.713 344.905,-154.654"/>
</g>
<!-- Node7 -->
<g id="node7" class="node"><title>Node7</title>
<g id="a_node7"><a xlink:href="ar_patt_load_8c.html#a6c3899cc1122ad7ae5bd93b4c00a64cf" target="_top" xlink:title="Load a pattern file into a pattern handle. ">
<polygon fill="white" stroke="black" points="397,-114.5 397,-133.5 461,-133.5 461,-114.5 397,-114.5"/>
<text text-anchor="middle" x="429" y="-121.5" font-family="Helvetica,sans-Serif" font-size="10.00">arPattLoad</text>
</a>
</g>
</g>
<!-- Node5&#45;&gt;Node7 -->
<g id="edge6" class="edge"><title>Node5&#45;&gt;Node7</title>
<path fill="none" stroke="midnightblue" d="M292.502,-133.222C322.583,-131.175 359.126,-128.688 386.679,-126.812"/>
<polygon fill="midnightblue" stroke="midnightblue" points="387.027,-130.297 396.766,-126.126 386.551,-123.313 387.027,-130.297"/>
</g>
<!-- Node9 -->
<g id="node9" class="node"><title>Node9</title>
<g id="a_node9"><a xlink:href="ioapi_8h.html#a787fa3cf048117ba7123753c1e74fcd6" target="_top" xlink:title="int">
<polygon fill="white" stroke="black" points="414.5,-76.5 414.5,-95.5 443.5,-95.5 443.5,-76.5 414.5,-76.5"/>
<text text-anchor="middle" x="429" y="-83.5" font-family="Helvetica,sans-Serif" font-size="10.00">int</text>
</a>
</g>
</g>
<!-- Node5&#45;&gt;Node9 -->
<g id="edge8" class="edge"><title>Node5&#45;&gt;Node9</title>
<path fill="none" stroke="midnightblue" d="M277.136,-127.436C288.171,-124.606 300.099,-121.359 311,-118 327.257,-112.99 330.692,-109.839 347,-105 366.014,-99.3576 387.935,-94.3018 404.173,-90.8266"/>
<polygon fill="midnightblue" stroke="midnightblue" points="405.331,-94.1602 414.402,-88.6855 403.897,-87.3087 405.331,-94.1602"/>
</g>
<!-- Node10 -->
<g id="node10" class="node"><title>Node10</title>
<g id="a_node10"><a xlink:href="ar_util_8c.html#a97c94e6c703a2e449272302c925944d1" target="_top" xlink:title="arUtilMatInv">
<polygon fill="white" stroke="black" points="394,-38.5 394,-57.5 464,-57.5 464,-38.5 394,-38.5"/>
<text text-anchor="middle" x="429" y="-45.5" font-family="Helvetica,sans-Serif" font-size="10.00">arUtilMatInv</text>
</a>
</g>
</g>
<!-- Node5&#45;&gt;Node10 -->
<g id="edge9" class="edge"><title>Node5&#45;&gt;Node10</title>
<path fill="none" stroke="midnightblue" d="M292.264,-127.493C298.898,-125.025 305.322,-121.916 311,-118 333.84,-102.249 323.996,-82.5114 347,-67 357.867,-59.6722 371.208,-55.1521 383.902,-52.3698"/>
<polygon fill="midnightblue" stroke="midnightblue" points="384.705,-55.7802 393.885,-50.4907 383.41,-48.901 384.705,-55.7802"/>
</g>
<!-- Node8 -->
<g id="node8" class="node"><title>Node8</title>
<g id="a_node8"><a xlink:href="ar_patt_load_8c.html#a1eb242ab9531966ab8bd8a5379e78792" target="_top" xlink:title="arPattLoadFromBuffer">
<polygon fill="white" stroke="black" points="547,-114.5 547,-133.5 660,-133.5 660,-114.5 547,-114.5"/>
<text text-anchor="middle" x="603.5" y="-121.5" font-family="Helvetica,sans-Serif" font-size="10.00">arPattLoadFromBuffer</text>
</a>
</g>
</g>
<!-- Node7&#45;&gt;Node8 -->
<g id="edge7" class="edge"><title>Node7&#45;&gt;Node8</title>
<path fill="none" stroke="midnightblue" d="M461.238,-124C482.238,-124 510.704,-124 536.581,-124"/>
<polygon fill="midnightblue" stroke="midnightblue" points="536.726,-127.5 546.726,-124 536.726,-120.5 536.726,-127.5"/>
</g>
<!-- Node11 -->
<g id="node11" class="node"><title>Node11</title>
<g id="a_node11"><a xlink:href="_a_r_2include_2_a_r6_2_a_r_2matrix_8h.html#a7169e4124d09fcbe1b8730ade678d64d" target="_top" xlink:title="arMatrixAlloc">
<polygon fill="white" stroke="black" points="566.5,-76.5 566.5,-95.5 640.5,-95.5 640.5,-76.5 566.5,-76.5"/>
<text text-anchor="middle" x="603.5" y="-83.5" font-family="Helvetica,sans-Serif" font-size="10.00">arMatrixAlloc</text>
</a>
</g>
</g>
<!-- Node10&#45;&gt;Node11 -->
<g id="edge10" class="edge"><title>Node10&#45;&gt;Node11</title>
<path fill="none" stroke="midnightblue" d="M464.08,-55.5076C490.518,-61.3314 527.43,-69.4628 556.488,-75.8641"/>
<polygon fill="midnightblue" stroke="midnightblue" points="555.89,-79.3162 566.409,-78.0495 557.396,-72.4801 555.89,-79.3162"/>
</g>
<!-- Node12 -->
<g id="node12" class="node"><title>Node12</title>
<g id="a_node12"><a xlink:href="_a_r_2include_2_a_r6_2_a_r_2matrix_8h.html#a929738025b539a0c1bbd2f395ad4d981" target="_top" xlink:title="arMatrixSelfInv">
<polygon fill="white" stroke="black" points="562,-38.5 562,-57.5 645,-57.5 645,-38.5 562,-38.5"/>
<text text-anchor="middle" x="603.5" y="-45.5" font-family="Helvetica,sans-Serif" font-size="10.00">arMatrixSelfInv</text>
</a>
</g>
</g>
<!-- Node10&#45;&gt;Node12 -->
<g id="edge11" class="edge"><title>Node10&#45;&gt;Node12</title>
<path fill="none" stroke="midnightblue" d="M464.08,-48C489.091,-48 523.475,-48 551.716,-48"/>
<polygon fill="midnightblue" stroke="midnightblue" points="551.815,-51.5001 561.814,-48 551.814,-44.5001 551.815,-51.5001"/>
</g>
<!-- Node13 -->
<g id="node13" class="node"><title>Node13</title>
<g id="a_node13"><a xlink:href="_a_r_2include_2_a_r6_2_a_r_2matrix_8h.html#ac4b7a714cce9fffda773d86363380454" target="_top" xlink:title="arMatrixFree">
<polygon fill="white" stroke="black" points="568,-0.5 568,-19.5 639,-19.5 639,-0.5 568,-0.5"/>
<text text-anchor="middle" x="603.5" y="-7.5" font-family="Helvetica,sans-Serif" font-size="10.00">arMatrixFree</text>
</a>
</g>
</g>
<!-- Node10&#45;&gt;Node13 -->
<g id="edge12" class="edge"><title>Node10&#45;&gt;Node13</title>
<path fill="none" stroke="midnightblue" d="M464.08,-40.4924C490.957,-34.5718 528.659,-26.2664 557.93,-19.8184"/>
<polygon fill="midnightblue" stroke="midnightblue" points="558.887,-23.1915 567.9,-17.622 557.381,-16.3554 558.887,-23.1915"/>
</g>
<!-- Node14&#45;&gt;Node3 -->
<g id="edge14" class="edge"><title>Node14&#45;&gt;Node3</title>
<path fill="none" stroke="midnightblue" d="M311.119,-238C324.572,-238 338.622,-238 352.125,-238"/>
<polygon fill="midnightblue" stroke="midnightblue" points="352.326,-241.5 362.326,-238 352.326,-234.5 352.326,-241.5"/>
</g>
</g>
</svg>
