<?xml version="1.0" encoding="UTF-8" standalone="no"?>
<!DOCTYPE svg PUBLIC "-//W3C//DTD SVG 1.1//EN"
 "http://www.w3.org/Graphics/SVG/1.1/DTD/svg11.dtd">
<!-- Generated by graphviz version 2.38.0 (20140413.2041)
 -->
<!-- Title: artvision_instanton::AttitudeSyncFilter Pages: 1 -->
<svg width="109pt" height="307pt"
 viewBox="0.00 0.00 109.00 307.00" xmlns="http://www.w3.org/2000/svg" xmlns:xlink="http://www.w3.org/1999/xlink">
<g id="graph0" class="graph" transform="scale(1 1) rotate(0) translate(4 303)">
<title>artvision_instanton::AttitudeSyncFilter</title>
<polygon fill="white" stroke="none" points="-4,4 -4,-303 105,-303 105,4 -4,4"/>
<!-- Node1 -->
<g id="node1" class="node"><title>Node1</title>
<polygon fill="#bfbfbf" stroke="black" points="0,-0.5 0,-30.5 101,-30.5 101,-0.5 0,-0.5"/>
<text text-anchor="start" x="8" y="-18.5" font-family="Helvetica,sans-Serif" font-size="10.00">artvision_instanton</text>
<text text-anchor="middle" x="50.5" y="-7.5" font-family="Helvetica,sans-Serif" font-size="10.00">::AttitudeSyncFilter</text>
</g>
<!-- Node2 -->
<g id="node2" class="node"><title>Node2</title>
<g id="a_node2"><a xlink:href="classartvision__instanton_1_1_transform_filter.html" target="_top" xlink:title="artvision_instanton\l::TransformFilter">
<polygon fill="white" stroke="black" points="1.5,-67.5 1.5,-97.5 99.5,-97.5 99.5,-67.5 1.5,-67.5"/>
<text text-anchor="start" x="9.5" y="-85.5" font-family="Helvetica,sans-Serif" font-size="10.00">artvision_instanton</text>
<text text-anchor="middle" x="50.5" y="-74.5" font-family="Helvetica,sans-Serif" font-size="10.00">::TransformFilter</text>
</a>
</g>
</g>
<!-- Node2&#45;&gt;Node1 -->
<g id="edge1" class="edge"><title>Node2&#45;&gt;Node1</title>
<path fill="none" stroke="midnightblue" d="M50.5,-57.1081C50.5,-48.1539 50.5,-38.3227 50.5,-30.5765"/>
<polygon fill="midnightblue" stroke="midnightblue" points="47.0001,-57.3959 50.5,-67.396 54.0001,-57.396 47.0001,-57.3959"/>
</g>
<!-- Node3 -->
<g id="node3" class="node"><title>Node3</title>
<g id="a_node3"><a xlink:href="classartvision__instanton_1_1_filter.html" target="_top" xlink:title="artvision_instanton\l::Filter">
<polygon fill="white" stroke="black" points="1.5,-134.5 1.5,-164.5 99.5,-164.5 99.5,-134.5 1.5,-134.5"/>
<text text-anchor="start" x="9.5" y="-152.5" font-family="Helvetica,sans-Serif" font-size="10.00">artvision_instanton</text>
<text text-anchor="middle" x="50.5" y="-141.5" font-family="Helvetica,sans-Serif" font-size="10.00">::Filter</text>
</a>
</g>
</g>
<!-- Node3&#45;&gt;Node2 -->
<g id="edge2" class="edge"><title>Node3&#45;&gt;Node2</title>
<path fill="none" stroke="midnightblue" d="M50.5,-124.108C50.5,-115.154 50.5,-105.323 50.5,-97.5765"/>
<polygon fill="midnightblue" stroke="midnightblue" points="47.0001,-124.396 50.5,-134.396 54.0001,-124.396 47.0001,-124.396"/>
</g>
<!-- Node4 -->
<g id="node4" class="node"><title>Node4</title>
<g id="a_node4"><a xlink:href="classartvision__instanton_1_1_task.html" target="_top" xlink:title="A task is a recurring event. ">
<polygon fill="white" stroke="black" points="1.5,-201.5 1.5,-231.5 99.5,-231.5 99.5,-201.5 1.5,-201.5"/>
<text text-anchor="start" x="9.5" y="-219.5" font-family="Helvetica,sans-Serif" font-size="10.00">artvision_instanton</text>
<text text-anchor="middle" x="50.5" y="-208.5" font-family="Helvetica,sans-Serif" font-size="10.00">::Task</text>
</a>
</g>
</g>
<!-- Node4&#45;&gt;Node3 -->
<g id="edge3" class="edge"><title>Node4&#45;&gt;Node3</title>
<path fill="none" stroke="midnightblue" d="M50.5,-191.108C50.5,-182.154 50.5,-172.323 50.5,-164.577"/>
<polygon fill="midnightblue" stroke="midnightblue" points="47.0001,-191.396 50.5,-201.396 54.0001,-191.396 47.0001,-191.396"/>
</g>
<!-- Node5 -->
<g id="node5" class="node"><title>Node5</title>
<g id="a_node5"><a xlink:href="classartvision__instanton_1_1_runnable.html" target="_top" xlink:title="artvision_instanton\l::Runnable">
<polygon fill="white" stroke="black" points="1.5,-268.5 1.5,-298.5 99.5,-298.5 99.5,-268.5 1.5,-268.5"/>
<text text-anchor="start" x="9.5" y="-286.5" font-family="Helvetica,sans-Serif" font-size="10.00">artvision_instanton</text>
<text text-anchor="middle" x="50.5" y="-275.5" font-family="Helvetica,sans-Serif" font-size="10.00">::Runnable</text>
</a>
</g>
</g>
<!-- Node5&#45;&gt;Node4 -->
<g id="edge4" class="edge"><title>Node5&#45;&gt;Node4</title>
<path fill="none" stroke="midnightblue" d="M50.5,-258.108C50.5,-249.154 50.5,-239.323 50.5,-231.577"/>
<polygon fill="midnightblue" stroke="midnightblue" points="47.0001,-258.396 50.5,-268.396 54.0001,-258.396 47.0001,-258.396"/>
</g>
</g>
</svg>
