<?xml version="1.0" encoding="UTF-8" standalone="no"?>
<!DOCTYPE svg PUBLIC "-//W3C//DTD SVG 1.1//EN"
 "http://www.w3.org/Graphics/SVG/1.1/DTD/svg11.dtd">
<!-- Generated by graphviz version 2.38.0 (20140413.2041)
 -->
<!-- Title: artvision_instanton::WaitQueue::drop Pages: 1 -->
<svg width="374pt" height="186pt"
 viewBox="0.00 0.00 374.00 186.00" xmlns="http://www.w3.org/2000/svg" xmlns:xlink="http://www.w3.org/1999/xlink">
<g id="graph0" class="graph" transform="scale(1 1) rotate(0) translate(4 182)">
<title>artvision_instanton::WaitQueue::drop</title>
<polygon fill="white" stroke="none" points="-4,4 -4,-182 370,-182 370,4 -4,4"/>
<!-- Node1 -->
<g id="node1" class="node"><title>Node1</title>
<polygon fill="#bfbfbf" stroke="black" points="0,-73.5 0,-103.5 98,-103.5 98,-73.5 0,-73.5"/>
<text text-anchor="start" x="8" y="-91.5" font-family="Helvetica,sans-Serif" font-size="10.00">artvision_instanton</text>
<text text-anchor="middle" x="49" y="-80.5" font-family="Helvetica,sans-Serif" font-size="10.00">::WaitQueue::drop</text>
</g>
<!-- Node2 -->
<g id="node2" class="node"><title>Node2</title>
<g id="a_node2"><a xlink:href="classartvision__instanton_1_1_wait_queue.html#adfa21c4b4c92f272b870a2a8fa107543" target="_top" xlink:title="Pop an item from the queue. ">
<polygon fill="white" stroke="black" points="134,-73.5 134,-103.5 232,-103.5 232,-73.5 134,-73.5"/>
<text text-anchor="start" x="142" y="-91.5" font-family="Helvetica,sans-Serif" font-size="10.00">artvision_instanton</text>
<text text-anchor="middle" x="183" y="-80.5" font-family="Helvetica,sans-Serif" font-size="10.00">::WaitQueue::pop</text>
</a>
</g>
</g>
<!-- Node1&#45;&gt;Node2 -->
<g id="edge1" class="edge"><title>Node1&#45;&gt;Node2</title>
<path fill="none" stroke="midnightblue" d="M98.0284,-88.5C106.309,-88.5 114.997,-88.5 123.517,-88.5"/>
<polygon fill="midnightblue" stroke="midnightblue" points="123.786,-92.0001 133.786,-88.5 123.786,-85.0001 123.786,-92.0001"/>
</g>
<!-- Node3 -->
<g id="node3" class="node"><title>Node3</title>
<g id="a_node3"><a xlink:href="classartvision__instanton_1_1_guard.html#a7150e4d06668a64e07bb39741c6c4caa" target="_top" xlink:title="Lock the mutex. ">
<polygon fill="white" stroke="black" points="268,-147.5 268,-177.5 366,-177.5 366,-147.5 268,-147.5"/>
<text text-anchor="start" x="276" y="-165.5" font-family="Helvetica,sans-Serif" font-size="10.00">artvision_instanton</text>
<text text-anchor="middle" x="317" y="-154.5" font-family="Helvetica,sans-Serif" font-size="10.00">::Guard::lock</text>
</a>
</g>
</g>
<!-- Node2&#45;&gt;Node3 -->
<g id="edge2" class="edge"><title>Node2&#45;&gt;Node3</title>
<path fill="none" stroke="midnightblue" d="M208.353,-103.638C224.976,-113.812 247.599,-127.347 268,-138.5 270.653,-139.95 273.405,-141.419 276.188,-142.877"/>
<polygon fill="midnightblue" stroke="midnightblue" points="274.606,-146 285.099,-147.467 277.812,-139.777 274.606,-146"/>
</g>
<!-- Node4 -->
<g id="node4" class="node"><title>Node4</title>
<g id="a_node4"><a xlink:href="classartvision__instanton_1_1_guard.html#a12225e7b1666f22c638095320eaf2f2d" target="_top" xlink:title="Wait for the condition to be signaled. ">
<polygon fill="white" stroke="black" points="268,-98.5 268,-128.5 366,-128.5 366,-98.5 268,-98.5"/>
<text text-anchor="start" x="276" y="-116.5" font-family="Helvetica,sans-Serif" font-size="10.00">artvision_instanton</text>
<text text-anchor="middle" x="317" y="-105.5" font-family="Helvetica,sans-Serif" font-size="10.00">::Guard::wait</text>
</a>
</g>
</g>
<!-- Node2&#45;&gt;Node4 -->
<g id="edge3" class="edge"><title>Node2&#45;&gt;Node4</title>
<path fill="none" stroke="midnightblue" d="M232.028,-97.5963C240.4,-99.1818 249.188,-100.846 257.798,-102.477"/>
<polygon fill="midnightblue" stroke="midnightblue" points="257.309,-105.947 267.786,-104.369 258.612,-99.0688 257.309,-105.947"/>
</g>
<!-- Node5 -->
<g id="node5" class="node"><title>Node5</title>
<g id="a_node5"><a xlink:href="classartvision__instanton_1_1_guard.html#a59b1ce219967accaa28e6ea74042507d" target="_top" xlink:title="Unlock the mutex. ">
<polygon fill="white" stroke="black" points="268,-49.5 268,-79.5 366,-79.5 366,-49.5 268,-49.5"/>
<text text-anchor="start" x="276" y="-67.5" font-family="Helvetica,sans-Serif" font-size="10.00">artvision_instanton</text>
<text text-anchor="middle" x="317" y="-56.5" font-family="Helvetica,sans-Serif" font-size="10.00">::Guard::unlock</text>
</a>
</g>
</g>
<!-- Node2&#45;&gt;Node5 -->
<g id="edge4" class="edge"><title>Node2&#45;&gt;Node5</title>
<path fill="none" stroke="midnightblue" d="M232.028,-79.7676C240.4,-78.2455 249.188,-76.6475 257.798,-75.0822"/>
<polygon fill="midnightblue" stroke="midnightblue" points="258.574,-78.4986 267.786,-73.2662 257.321,-71.6116 258.574,-78.4986"/>
</g>
<!-- Node6 -->
<g id="node6" class="node"><title>Node6</title>
<g id="a_node6"><a xlink:href="classartvision__instanton_1_1_guard.html#ab5bce48515607e3e64f335343ad91330" target="_top" xlink:title="Signal the condition variable. ">
<polygon fill="white" stroke="black" points="268,-0.5 268,-30.5 366,-30.5 366,-0.5 268,-0.5"/>
<text text-anchor="start" x="276" y="-18.5" font-family="Helvetica,sans-Serif" font-size="10.00">artvision_instanton</text>
<text text-anchor="middle" x="317" y="-7.5" font-family="Helvetica,sans-Serif" font-size="10.00">::Guard::signal</text>
</a>
</g>
</g>
<!-- Node2&#45;&gt;Node6 -->
<g id="edge5" class="edge"><title>Node2&#45;&gt;Node6</title>
<path fill="none" stroke="midnightblue" d="M209.961,-73.3181C226.485,-63.741 248.392,-51.2033 268,-40.5 271.104,-38.8055 274.333,-37.0688 277.584,-35.339"/>
<polygon fill="midnightblue" stroke="midnightblue" points="279.501,-38.2846 286.713,-30.5228 276.235,-32.0934 279.501,-38.2846"/>
</g>
</g>
</svg>
