<?xml version="1.0" encoding="UTF-8" standalone="no"?>
<!DOCTYPE svg PUBLIC "-//W3C//DTD SVG 1.1//EN"
 "http://www.w3.org/Graphics/SVG/1.1/DTD/svg11.dtd">
<!-- Generated by graphviz version 2.38.0 (20140413.2041)
 -->
<!-- Title: ARTrackableSquare::updateWithDetectedMarkers Pages: 1 -->
<svg width="891pt" height="382pt"
 viewBox="0.00 0.00 891.00 382.00" xmlns="http://www.w3.org/2000/svg" xmlns:xlink="http://www.w3.org/1999/xlink">
<g id="graph0" class="graph" transform="scale(1 1) rotate(0) translate(4 378)">
<title>ARTrackableSquare::updateWithDetectedMarkers</title>
<polygon fill="white" stroke="none" points="-4,4 -4,-378 887,-378 887,4 -4,4"/>
<!-- Node1 -->
<g id="node1" class="node"><title>Node1</title>
<polygon fill="#bfbfbf" stroke="black" points="0,-194 0,-224 141,-224 141,-194 0,-194"/>
<text text-anchor="start" x="8" y="-212" font-family="Helvetica,sans-Serif" font-size="10.00">ARTrackableSquare::</text>
<text text-anchor="middle" x="70.5" y="-201" font-family="Helvetica,sans-Serif" font-size="10.00">updateWithDetectedMarkers</text>
</g>
<!-- Node2 -->
<g id="node2" class="node"><title>Node2</title>
<g id="a_node2"><a xlink:href="ar_get_trans_mat_8c.html#a340510d7028a7bc041ed68824f92652e" target="_top" xlink:title="(description) ">
<polygon fill="white" stroke="black" points="177,-237.5 177,-256.5 311,-256.5 311,-237.5 177,-237.5"/>
<text text-anchor="middle" x="244" y="-244.5" font-family="Helvetica,sans-Serif" font-size="10.00">arGetTransMatSquareCont</text>
</a>
</g>
</g>
<!-- Node1&#45;&gt;Node2 -->
<g id="edge1" class="edge"><title>Node1&#45;&gt;Node2</title>
<path fill="none" stroke="midnightblue" d="M139.281,-224.019C156.262,-227.781 174.226,-231.761 190.347,-235.333"/>
<polygon fill="midnightblue" stroke="midnightblue" points="189.6,-238.753 200.121,-237.499 191.115,-231.919 189.6,-238.753"/>
</g>
<!-- Node18 -->
<g id="node18" class="node"><title>Node18</title>
<g id="a_node18"><a xlink:href="ar_get_trans_mat_8c.html#a4e7134891f6bb5fdae0594f8df049d19" target="_top" xlink:title="(description) ">
<polygon fill="white" stroke="black" points="187.5,-199.5 187.5,-218.5 300.5,-218.5 300.5,-199.5 187.5,-199.5"/>
<text text-anchor="middle" x="244" y="-206.5" font-family="Helvetica,sans-Serif" font-size="10.00">arGetTransMatSquare</text>
</a>
</g>
</g>
<!-- Node1&#45;&gt;Node18 -->
<g id="edge22" class="edge"><title>Node1&#45;&gt;Node18</title>
<path fill="none" stroke="midnightblue" d="M141.256,-209C153.162,-209 165.495,-209 177.292,-209"/>
<polygon fill="midnightblue" stroke="midnightblue" points="177.497,-212.5 187.497,-209 177.496,-205.5 177.497,-212.5"/>
</g>
<!-- Node20 -->
<g id="node20" class="node"><title>Node20</title>
<g id="a_node20"><a xlink:href="class_a_r_trackable.html#a445a8894d99c98bc966ebff530d58278" target="_top" xlink:title="Completes an update begun in the parent class, performing filtering, generating OpenGL view matrix an...">
<polygon fill="white" stroke="black" points="189.5,-120.5 189.5,-139.5 298.5,-139.5 298.5,-120.5 189.5,-120.5"/>
<text text-anchor="middle" x="244" y="-127.5" font-family="Helvetica,sans-Serif" font-size="10.00">ARTrackable::update</text>
</a>
</g>
</g>
<!-- Node1&#45;&gt;Node20 -->
<g id="edge31" class="edge"><title>Node1&#45;&gt;Node20</title>
<path fill="none" stroke="midnightblue" d="M104.162,-193.955C135.556,-179.493 182.604,-157.821 213.055,-143.794"/>
<polygon fill="midnightblue" stroke="midnightblue" points="214.699,-146.89 222.317,-139.527 211.77,-140.532 214.699,-146.89"/>
</g>
<!-- Node3 -->
<g id="node3" class="node"><title>Node3</title>
<g id="a_node3"><a xlink:href="icp_point_8c.html#a466204966df0b17ea76bd05a3d396307" target="_top" xlink:title="icpPoint">
<polygon fill="white" stroke="black" points="374.5,-238.5 374.5,-257.5 426.5,-257.5 426.5,-238.5 374.5,-238.5"/>
<text text-anchor="middle" x="400.5" y="-245.5" font-family="Helvetica,sans-Serif" font-size="10.00">icpPoint</text>
</a>
</g>
</g>
<!-- Node2&#45;&gt;Node3 -->
<g id="edge2" class="edge"><title>Node2&#45;&gt;Node3</title>
<path fill="none" stroke="midnightblue" d="M311.419,-247.43C329.493,-247.547 348.375,-247.669 364,-247.77"/>
<polygon fill="midnightblue" stroke="midnightblue" points="364.224,-251.272 374.247,-247.837 364.27,-244.272 364.224,-251.272"/>
</g>
<!-- Node4 -->
<g id="node4" class="node"><title>Node4</title>
<g id="a_node4"><a xlink:href="icp_core_8c.html#a5bbc6e7577592a3268ef3d391b0ba96d" target="_top" xlink:title="icpDispMat">
<polygon fill="white" stroke="black" points="688,-354.5 688,-373.5 754,-373.5 754,-354.5 688,-354.5"/>
<text text-anchor="middle" x="721" y="-361.5" font-family="Helvetica,sans-Serif" font-size="10.00">icpDispMat</text>
</a>
</g>
</g>
<!-- Node3&#45;&gt;Node4 -->
<g id="edge3" class="edge"><title>Node3&#45;&gt;Node4</title>
<path fill="none" stroke="midnightblue" d="M406.832,-257.615C418.703,-277.953 449.492,-325.091 490,-345 550.133,-374.554 629.85,-373.604 677.904,-369.392"/>
<polygon fill="midnightblue" stroke="midnightblue" points="678.333,-372.866 687.951,-368.422 677.661,-365.899 678.333,-372.866"/>
</g>
<!-- Node5 -->
<g id="node5" class="node"><title>Node5</title>
<g id="a_node5"><a xlink:href="ar_util_8c.html#ae28eeba3e16224a7d77b46bd34b8f4fe" target="_top" xlink:title="arUtilMatMul">
<polygon fill="white" stroke="black" points="527,-164.5 527,-183.5 599,-183.5 599,-164.5 527,-164.5"/>
<text text-anchor="middle" x="563" y="-171.5" font-family="Helvetica,sans-Serif" font-size="10.00">arUtilMatMul</text>
</a>
</g>
</g>
<!-- Node3&#45;&gt;Node5 -->
<g id="edge4" class="edge"><title>Node3&#45;&gt;Node5</title>
<path fill="none" stroke="midnightblue" d="M424.646,-238.49C434.04,-234.248 444.818,-228.88 454,-223 471.539,-211.768 471.491,-202.551 490,-193 498.353,-188.69 507.768,-185.296 516.969,-182.644"/>
<polygon fill="midnightblue" stroke="midnightblue" points="518.031,-185.984 526.808,-180.051 516.247,-179.215 518.031,-185.984"/>
</g>
<!-- Node6 -->
<g id="node6" class="node"><title>Node6</title>
<g id="a_node6"><a xlink:href="icp_core_8c.html#aceeb3fd72a762c2078d8fb88ec03ccfb" target="_top" xlink:title="icpGetU_from_X_by_MatX2U">
<polygon fill="white" stroke="black" points="490,-278.5 490,-297.5 636,-297.5 636,-278.5 490,-278.5"/>
<text text-anchor="middle" x="563" y="-285.5" font-family="Helvetica,sans-Serif" font-size="10.00">icpGetU_from_X_by_MatX2U</text>
</a>
</g>
</g>
<!-- Node3&#45;&gt;Node6 -->
<g id="edge5" class="edge"><title>Node3&#45;&gt;Node6</title>
<path fill="none" stroke="midnightblue" d="M426.578,-254.25C449.844,-260.048 485.101,-268.835 513.808,-275.989"/>
<polygon fill="midnightblue" stroke="midnightblue" points="513.109,-279.422 523.658,-278.444 514.801,-272.63 513.109,-279.422"/>
</g>
<!-- Node7 -->
<g id="node7" class="node"><title>Node7</title>
<g id="a_node7"><a xlink:href="icp_core_8c.html#ac384ca6737fdee325d58740d665eda0a" target="_top" xlink:title="icpGetJ_U_S">
<polygon fill="white" stroke="black" points="525.5,-316.5 525.5,-335.5 600.5,-335.5 600.5,-316.5 525.5,-316.5"/>
<text text-anchor="middle" x="563" y="-323.5" font-family="Helvetica,sans-Serif" font-size="10.00">icpGetJ_U_S</text>
</a>
</g>
</g>
<!-- Node3&#45;&gt;Node7 -->
<g id="edge6" class="edge"><title>Node3&#45;&gt;Node7</title>
<path fill="none" stroke="midnightblue" d="M413.067,-257.555C429.299,-270.515 460.196,-293.583 490,-307 498.051,-310.624 506.931,-313.667 515.624,-316.181"/>
<polygon fill="midnightblue" stroke="midnightblue" points="514.739,-319.567 525.306,-318.797 516.565,-312.81 514.739,-319.567"/>
</g>
<!-- Node8 -->
<g id="node8" class="node"><title>Node8</title>
<g id="a_node8"><a xlink:href="icp_core_8c.html#a4906398b4594d29ab8035b4016a7e9de" target="_top" xlink:title="icpGetDeltaS">
<polygon fill="white" stroke="black" points="525.5,-240.5 525.5,-259.5 600.5,-259.5 600.5,-240.5 525.5,-240.5"/>
<text text-anchor="middle" x="563" y="-247.5" font-family="Helvetica,sans-Serif" font-size="10.00">icpGetDeltaS</text>
</a>
</g>
</g>
<!-- Node3&#45;&gt;Node8 -->
<g id="edge8" class="edge"><title>Node3&#45;&gt;Node8</title>
<path fill="none" stroke="midnightblue" d="M426.578,-248.312C450.213,-248.607 486.224,-249.056 515.171,-249.416"/>
<polygon fill="midnightblue" stroke="midnightblue" points="515.437,-252.92 525.48,-249.545 515.524,-245.92 515.437,-252.92"/>
</g>
<!-- Node17 -->
<g id="node17" class="node"><title>Node17</title>
<g id="a_node17"><a xlink:href="icp_core_8c.html#a94201124387610a46b975cdb9d8a1db6" target="_top" xlink:title="icpUpdateMat">
<polygon fill="white" stroke="black" points="524.5,-202.5 524.5,-221.5 601.5,-221.5 601.5,-202.5 524.5,-202.5"/>
<text text-anchor="middle" x="563" y="-209.5" font-family="Helvetica,sans-Serif" font-size="10.00">icpUpdateMat</text>
</a>
</g>
</g>
<!-- Node3&#45;&gt;Node17 -->
<g id="edge21" class="edge"><title>Node3&#45;&gt;Node17</title>
<path fill="none" stroke="midnightblue" d="M426.578,-242.375C450.002,-237.121 485.579,-229.141 514.391,-222.679"/>
<polygon fill="midnightblue" stroke="midnightblue" points="515.277,-226.067 524.268,-220.463 513.745,-219.237 515.277,-226.067"/>
</g>
<!-- Node7&#45;&gt;Node4 -->
<g id="edge7" class="edge"><title>Node7&#45;&gt;Node4</title>
<path fill="none" stroke="midnightblue" d="M600.575,-334.909C623.742,-340.553 653.777,-347.869 677.931,-353.752"/>
<polygon fill="midnightblue" stroke="midnightblue" points="677.341,-357.211 687.885,-356.177 678.998,-350.41 677.341,-357.211"/>
</g>
<!-- Node9 -->
<g id="node9" class="node"><title>Node9</title>
<g id="a_node9"><a xlink:href="_a_r_2include_2_a_r6_2_a_r_2matrix_8h.html#a60f36997579d355f6030f872faad84a2" target="_top" xlink:title="arMatrixDisp">
<polygon fill="white" stroke="black" points="685,-278.5 685,-297.5 757,-297.5 757,-278.5 685,-278.5"/>
<text text-anchor="middle" x="721" y="-285.5" font-family="Helvetica,sans-Serif" font-size="10.00">arMatrixDisp</text>
</a>
</g>
</g>
<!-- Node8&#45;&gt;Node9 -->
<g id="edge9" class="edge"><title>Node8&#45;&gt;Node9</title>
<path fill="none" stroke="midnightblue" d="M600.575,-258.909C622.875,-264.341 651.54,-271.324 675.196,-277.086"/>
<polygon fill="midnightblue" stroke="midnightblue" points="674.45,-280.507 684.994,-279.473 676.107,-273.706 674.45,-280.507"/>
</g>
<!-- Node10 -->
<g id="node10" class="node"><title>Node10</title>
<g id="a_node10"><a xlink:href="_a_r_2include_2_a_r6_2_a_r_2matrix_8h.html#a49e8f4e71a6048683feebdc15336bb67" target="_top" xlink:title="arMatrixAllocTrans">
<polygon fill="white" stroke="black" points="672,-50.5 672,-69.5 770,-69.5 770,-50.5 672,-50.5"/>
<text text-anchor="middle" x="721" y="-57.5" font-family="Helvetica,sans-Serif" font-size="10.00">arMatrixAllocTrans</text>
</a>
</g>
</g>
<!-- Node8&#45;&gt;Node10 -->
<g id="edge10" class="edge"><title>Node8&#45;&gt;Node10</title>
<path fill="none" stroke="midnightblue" d="M600.828,-247.447C613.348,-244.867 626.549,-240.009 636,-231 674.459,-194.339 646.392,-163.555 672,-117 680.149,-102.186 692.487,-87.6422 702.613,-76.9536"/>
<polygon fill="midnightblue" stroke="midnightblue" points="705.326,-79.1854 709.82,-69.5908 700.324,-74.289 705.326,-79.1854"/>
</g>
<!-- Node13 -->
<g id="node13" class="node"><title>Node13</title>
<g id="a_node13"><a xlink:href="_a_r_2include_2_a_r6_2_a_r_2matrix_8h.html#ac4b7a714cce9fffda773d86363380454" target="_top" xlink:title="arMatrixFree">
<polygon fill="white" stroke="black" points="809,-107.5 809,-126.5 880,-126.5 880,-107.5 809,-107.5"/>
<text text-anchor="middle" x="844.5" y="-114.5" font-family="Helvetica,sans-Serif" font-size="10.00">arMatrixFree</text>
</a>
</g>
</g>
<!-- Node8&#45;&gt;Node13 -->
<g id="edge18" class="edge"><title>Node8&#45;&gt;Node13</title>
<path fill="none" stroke="midnightblue" d="M600.792,-256.8C645.101,-262.867 719.815,-266.09 770,-231 800.631,-209.583 784.571,-185.623 806,-155 811.231,-147.525 817.984,-140.18 824.315,-133.97"/>
<polygon fill="midnightblue" stroke="midnightblue" points="827.069,-136.185 831.962,-126.787 822.277,-131.082 827.069,-136.185"/>
</g>
<!-- Node14 -->
<g id="node14" class="node"><title>Node14</title>
<g id="a_node14"><a xlink:href="_a_r_2include_2_a_r6_2_a_r_2matrix_8h.html#a4d8d5ab04ba588d275e08c9f92694925" target="_top" xlink:title="arMatrixAllocMul">
<polygon fill="white" stroke="black" points="676.5,-126.5 676.5,-145.5 765.5,-145.5 765.5,-126.5 676.5,-126.5"/>
<text text-anchor="middle" x="721" y="-133.5" font-family="Helvetica,sans-Serif" font-size="10.00">arMatrixAllocMul</text>
</a>
</g>
</g>
<!-- Node8&#45;&gt;Node14 -->
<g id="edge14" class="edge"><title>Node8&#45;&gt;Node14</title>
<path fill="none" stroke="midnightblue" d="M600.838,-244.643C612.669,-241.812 625.435,-237.512 636,-231 644.545,-225.733 683.55,-179.752 705.276,-153.743"/>
<polygon fill="midnightblue" stroke="midnightblue" points="708.202,-155.699 711.913,-145.776 702.823,-151.219 708.202,-155.699"/>
</g>
<!-- Node15 -->
<g id="node15" class="node"><title>Node15</title>
<g id="a_node15"><a xlink:href="_a_r_2include_2_a_r6_2_a_r_2matrix_8h.html#a202bc2db43d563792c99e852ea0b7ba4" target="_top" xlink:title="arMatrixMul">
<polygon fill="white" stroke="black" points="810.5,-164.5 810.5,-183.5 878.5,-183.5 878.5,-164.5 810.5,-164.5"/>
<text text-anchor="middle" x="844.5" y="-171.5" font-family="Helvetica,sans-Serif" font-size="10.00">arMatrixMul</text>
</a>
</g>
</g>
<!-- Node8&#45;&gt;Node15 -->
<g id="edge20" class="edge"><title>Node8&#45;&gt;Node15</title>
<path fill="none" stroke="midnightblue" d="M600.709,-255.571C612.531,-258.416 625.325,-262.67 636,-269 656.011,-280.865 650.629,-297.808 672,-307 712.011,-324.21 732.485,-329.13 770,-307 811.891,-282.288 831.565,-224.192 839.295,-193.612"/>
<polygon fill="midnightblue" stroke="midnightblue" points="842.743,-194.238 841.622,-183.703 835.929,-192.638 842.743,-194.238"/>
</g>
<!-- Node16 -->
<g id="node16" class="node"><title>Node16</title>
<g id="a_node16"><a xlink:href="_a_r_2include_2_a_r6_2_a_r_2matrix_8h.html#a929738025b539a0c1bbd2f395ad4d981" target="_top" xlink:title="arMatrixSelfInv">
<polygon fill="white" stroke="black" points="679.5,-202.5 679.5,-221.5 762.5,-221.5 762.5,-202.5 679.5,-202.5"/>
<text text-anchor="middle" x="721" y="-209.5" font-family="Helvetica,sans-Serif" font-size="10.00">arMatrixSelfInv</text>
</a>
</g>
</g>
<!-- Node8&#45;&gt;Node16 -->
<g id="edge19" class="edge"><title>Node8&#45;&gt;Node16</title>
<path fill="none" stroke="midnightblue" d="M600.575,-241.091C621.599,-235.969 648.279,-229.47 671.087,-223.915"/>
<polygon fill="midnightblue" stroke="midnightblue" points="672.04,-227.285 680.927,-221.518 670.383,-220.484 672.04,-227.285"/>
</g>
<!-- Node11 -->
<g id="node11" class="node"><title>Node11</title>
<g id="a_node11"><a xlink:href="_a_r_2include_2_a_r6_2_a_r_2matrix_8h.html#a7169e4124d09fcbe1b8730ade678d64d" target="_top" xlink:title="arMatrixAlloc">
<polygon fill="white" stroke="black" points="807.5,-21.5 807.5,-40.5 881.5,-40.5 881.5,-21.5 807.5,-21.5"/>
<text text-anchor="middle" x="844.5" y="-28.5" font-family="Helvetica,sans-Serif" font-size="10.00">arMatrixAlloc</text>
</a>
</g>
</g>
<!-- Node10&#45;&gt;Node11 -->
<g id="edge11" class="edge"><title>Node10&#45;&gt;Node11</title>
<path fill="none" stroke="midnightblue" d="M762.12,-50.4239C773.347,-47.7443 785.641,-44.81 797.194,-42.0524"/>
<polygon fill="midnightblue" stroke="midnightblue" points="798.197,-45.4114 807.112,-39.6853 796.572,-38.6026 798.197,-45.4114"/>
</g>
<!-- Node12 -->
<g id="node12" class="node"><title>Node12</title>
<g id="a_node12"><a xlink:href="_a_r_2include_2_a_r6_2_a_r_2matrix_8h.html#ad3d9712dd27f655902a8a3315e623d85" target="_top" xlink:title="arMatrixTrans">
<polygon fill="white" stroke="black" points="806,-59.5 806,-78.5 883,-78.5 883,-59.5 806,-59.5"/>
<text text-anchor="middle" x="844.5" y="-66.5" font-family="Helvetica,sans-Serif" font-size="10.00">arMatrixTrans</text>
</a>
</g>
</g>
<!-- Node10&#45;&gt;Node12 -->
<g id="edge12" class="edge"><title>Node10&#45;&gt;Node12</title>
<path fill="none" stroke="midnightblue" d="M770.02,-63.557C778.508,-64.1858 787.344,-64.8403 795.822,-65.4683"/>
<polygon fill="midnightblue" stroke="midnightblue" points="795.709,-68.9694 805.941,-66.2178 796.226,-61.9886 795.709,-68.9694"/>
</g>
<!-- Node10&#45;&gt;Node13 -->
<g id="edge13" class="edge"><title>Node10&#45;&gt;Node13</title>
<path fill="none" stroke="midnightblue" d="M742.336,-69.5405C761.873,-78.7061 791.616,-92.6595 813.802,-103.068"/>
<polygon fill="midnightblue" stroke="midnightblue" points="812.557,-106.35 823.097,-107.428 815.531,-100.012 812.557,-106.35"/>
</g>
<!-- Node14&#45;&gt;Node11 -->
<g id="edge15" class="edge"><title>Node14&#45;&gt;Node11</title>
<path fill="none" stroke="midnightblue" d="M729.496,-126.477C743.245,-109.469 774.03,-73.4605 806,-50 808.059,-48.4888 810.257,-47.0356 812.516,-45.6529"/>
<polygon fill="midnightblue" stroke="midnightblue" points="814.356,-48.6338 821.372,-40.6952 810.937,-42.5256 814.356,-48.6338"/>
</g>
<!-- Node14&#45;&gt;Node13 -->
<g id="edge17" class="edge"><title>Node14&#45;&gt;Node13</title>
<path fill="none" stroke="midnightblue" d="M765.521,-129.194C776.254,-127.516 787.769,-125.715 798.568,-124.026"/>
<polygon fill="midnightblue" stroke="midnightblue" points="799.313,-127.452 808.652,-122.449 798.232,-120.537 799.313,-127.452"/>
</g>
<!-- Node14&#45;&gt;Node15 -->
<g id="edge16" class="edge"><title>Node14&#45;&gt;Node15</title>
<path fill="none" stroke="midnightblue" d="M752.66,-145.589C767.912,-150.359 786.551,-156.189 802.967,-161.323"/>
<polygon fill="midnightblue" stroke="midnightblue" points="802.261,-164.769 812.85,-164.414 804.351,-158.089 802.261,-164.769"/>
</g>
<!-- Node18&#45;&gt;Node3 -->
<g id="edge30" class="edge"><title>Node18&#45;&gt;Node3</title>
<path fill="none" stroke="midnightblue" d="M282.795,-218.54C307.652,-224.815 339.96,-232.971 364.279,-239.109"/>
<polygon fill="midnightblue" stroke="midnightblue" points="363.615,-242.551 374.167,-241.605 365.328,-235.764 363.615,-242.551"/>
</g>
<!-- Node19 -->
<g id="node19" class="node"><title>Node19</title>
<g id="a_node19"><a xlink:href="icp_util_8c.html#a9a0da1f41013b11363f39d99a5c937e9" target="_top" xlink:title="icpGetInitXw2Xc_from\l_PlanarData">
<polygon fill="white" stroke="black" points="505.5,-115 505.5,-145 620.5,-145 620.5,-115 505.5,-115"/>
<text text-anchor="start" x="513.5" y="-133" font-family="Helvetica,sans-Serif" font-size="10.00">icpGetInitXw2Xc_from</text>
<text text-anchor="middle" x="563" y="-122" font-family="Helvetica,sans-Serif" font-size="10.00">_PlanarData</text>
</a>
</g>
</g>
<!-- Node18&#45;&gt;Node19 -->
<g id="edge23" class="edge"><title>Node18&#45;&gt;Node19</title>
<path fill="none" stroke="midnightblue" d="M300.611,-212.222C344.144,-212.644 405.27,-208.514 454,-187 473.584,-178.354 471.534,-165.83 490,-155 493.595,-152.891 497.396,-150.923 501.297,-149.093"/>
<polygon fill="midnightblue" stroke="midnightblue" points="502.762,-152.272 510.532,-145.07 499.967,-145.855 502.762,-152.272"/>
</g>
<!-- Node19&#45;&gt;Node10 -->
<g id="edge26" class="edge"><title>Node19&#45;&gt;Node10</title>
<path fill="none" stroke="midnightblue" d="M611.767,-114.878C619.96,-111.871 628.306,-108.539 636,-105 652.828,-97.2591 655.708,-92.8132 672,-84 678.167,-80.6642 684.855,-77.2158 691.226,-74.0093"/>
<polygon fill="midnightblue" stroke="midnightblue" points="692.842,-77.1145 700.236,-69.5256 689.724,-70.8477 692.842,-77.1145"/>
</g>
<!-- Node19&#45;&gt;Node11 -->
<g id="edge24" class="edge"><title>Node19&#45;&gt;Node11</title>
<path fill="none" stroke="midnightblue" d="M620.798,-114.829C626.245,-112.068 631.432,-108.819 636,-105 661.039,-84.068 644.32,-58.2893 672,-41 709.342,-17.6756 760.645,-17.9258 797.391,-22.318"/>
<polygon fill="midnightblue" stroke="midnightblue" points="796.969,-25.7928 807.345,-23.6506 797.898,-18.8546 796.969,-25.7928"/>
</g>
<!-- Node19&#45;&gt;Node13 -->
<g id="edge25" class="edge"><title>Node19&#45;&gt;Node13</title>
<path fill="none" stroke="midnightblue" d="M620.776,-121.872C637.261,-119.863 655.316,-118 672,-117 714.961,-114.424 764.084,-114.757 798.714,-115.535"/>
<polygon fill="midnightblue" stroke="midnightblue" points="798.889,-119.04 808.973,-115.788 799.062,-112.042 798.889,-119.04"/>
</g>
<!-- Node19&#45;&gt;Node14 -->
<g id="edge27" class="edge"><title>Node19&#45;&gt;Node14</title>
<path fill="none" stroke="midnightblue" d="M620.761,-132.183C635.482,-132.749 651.297,-133.358 665.879,-133.918"/>
<polygon fill="midnightblue" stroke="midnightblue" points="666.118,-137.43 676.245,-134.317 666.387,-130.435 666.118,-137.43"/>
</g>
<!-- Node19&#45;&gt;Node15 -->
<g id="edge29" class="edge"><title>Node19&#45;&gt;Node15</title>
<path fill="none" stroke="midnightblue" d="M620.639,-144.425C637.121,-148.265 655.21,-152.137 672,-155 715.354,-162.393 765.386,-167.555 800.178,-170.614"/>
<polygon fill="midnightblue" stroke="midnightblue" points="800.2,-174.129 810.462,-171.496 800.798,-167.154 800.2,-174.129"/>
</g>
<!-- Node19&#45;&gt;Node16 -->
<g id="edge28" class="edge"><title>Node19&#45;&gt;Node16</title>
<path fill="none" stroke="midnightblue" d="M615.9,-145.136C622.863,-147.989 629.751,-151.27 636,-155 654.638,-166.123 654.12,-175.694 672,-188 677.113,-191.519 682.816,-194.832 688.456,-197.808"/>
<polygon fill="midnightblue" stroke="midnightblue" points="687.262,-201.125 697.771,-202.475 690.398,-194.866 687.262,-201.125"/>
</g>
<!-- Node20&#45;&gt;Node5 -->
<g id="edge38" class="edge"><title>Node20&#45;&gt;Node5</title>
<path fill="none" stroke="midnightblue" d="M298.51,-132.842C340.885,-135.579 401.477,-140.574 454,-149 474.875,-152.349 497.721,-157.427 517.003,-162.134"/>
<polygon fill="midnightblue" stroke="midnightblue" points="516.183,-165.536 526.732,-164.55 517.87,-158.743 516.183,-165.536"/>
</g>
<!-- Node21 -->
<g id="node21" class="node"><title>Node21</title>
<g id="a_node21"><a xlink:href="ar_filter_trans_mat_8c.html#a575d29079692c1af23b19f0477ee2123" target="_top" xlink:title="Filters the supplied pose estimate transformation matrix in&#45;place. ">
<polygon fill="white" stroke="black" points="356.5,-76.5 356.5,-95.5 444.5,-95.5 444.5,-76.5 356.5,-76.5"/>
<text text-anchor="middle" x="400.5" y="-83.5" font-family="Helvetica,sans-Serif" font-size="10.00">arFilterTransMat</text>
</a>
</g>
</g>
<!-- Node20&#45;&gt;Node21 -->
<g id="edge32" class="edge"><title>Node20&#45;&gt;Node21</title>
<path fill="none" stroke="midnightblue" d="M278.524,-120.453C301.301,-113.966 331.639,-105.326 356.236,-98.3211"/>
<polygon fill="midnightblue" stroke="midnightblue" points="357.382,-101.634 366.041,-95.5287 355.465,-94.9016 357.382,-101.634"/>
</g>
<!-- Node25 -->
<g id="node25" class="node"><title>Node25</title>
<g id="a_node25"><a xlink:href="param_g_l_8h.html#a069eee4b7a32208a45b8c438283e9a7f" target="_top" xlink:title="arglCameraViewRHf">
<polygon fill="white" stroke="black" points="347,-158.5 347,-177.5 454,-177.5 454,-158.5 347,-158.5"/>
<text text-anchor="middle" x="400.5" y="-165.5" font-family="Helvetica,sans-Serif" font-size="10.00">arglCameraViewRHf</text>
</a>
</g>
</g>
<!-- Node20&#45;&gt;Node25 -->
<g id="edge36" class="edge"><title>Node20&#45;&gt;Node25</title>
<path fill="none" stroke="midnightblue" d="M283.987,-139.589C304.283,-144.581 329.293,-150.732 350.846,-156.033"/>
<polygon fill="midnightblue" stroke="midnightblue" points="350.247,-159.49 360.793,-158.48 351.919,-152.693 350.247,-159.49"/>
</g>
<!-- Node26 -->
<g id="node26" class="node"><title>Node26</title>
<g id="a_node26"><a xlink:href="param_g_l_8h.html#a21250f8dd05058fe653e4a0116e7f592" target="_top" xlink:title="Create an OpenGL viewing transformation matrix. ">
<polygon fill="white" stroke="black" points="348.5,-38.5 348.5,-57.5 452.5,-57.5 452.5,-38.5 348.5,-38.5"/>
<text text-anchor="middle" x="400.5" y="-45.5" font-family="Helvetica,sans-Serif" font-size="10.00">arglCameraViewRH</text>
</a>
</g>
</g>
<!-- Node20&#45;&gt;Node26 -->
<g id="edge37" class="edge"><title>Node20&#45;&gt;Node26</title>
<path fill="none" stroke="midnightblue" d="M258.669,-120.285C277.768,-107.012 313.831,-83.0332 347,-67 351.301,-64.9211 355.891,-62.9384 360.501,-61.0921"/>
<polygon fill="midnightblue" stroke="midnightblue" points="361.805,-64.3405 369.901,-57.5064 359.311,-57.8001 361.805,-64.3405"/>
</g>
<!-- Node22 -->
<g id="node22" class="node"><title>Node22</title>
<g id="a_node22"><a xlink:href="ar_util_8c.html#adb4a9f8d233d3b954fd85bbb3deda173" target="_top" xlink:title="arUtilMat2QuatPos">
<polygon fill="white" stroke="black" points="513,-76.5 513,-95.5 613,-95.5 613,-76.5 513,-76.5"/>
<text text-anchor="middle" x="563" y="-83.5" font-family="Helvetica,sans-Serif" font-size="10.00">arUtilMat2QuatPos</text>
</a>
</g>
</g>
<!-- Node21&#45;&gt;Node22 -->
<g id="edge33" class="edge"><title>Node21&#45;&gt;Node22</title>
<path fill="none" stroke="midnightblue" d="M444.511,-86C462.378,-86 483.41,-86 502.704,-86"/>
<polygon fill="midnightblue" stroke="midnightblue" points="502.909,-89.5001 512.909,-86 502.909,-82.5001 502.909,-89.5001"/>
</g>
<!-- Node23 -->
<g id="node23" class="node"><title>Node23</title>
<g id="a_node23"><a xlink:href="ar_util_8c.html#aa543b10d8b401ccf5626aba7dfa12e09" target="_top" xlink:title="arUtilQuatNorm">
<polygon fill="white" stroke="black" points="520.5,-38.5 520.5,-57.5 605.5,-57.5 605.5,-38.5 520.5,-38.5"/>
<text text-anchor="middle" x="563" y="-45.5" font-family="Helvetica,sans-Serif" font-size="10.00">arUtilQuatNorm</text>
</a>
</g>
</g>
<!-- Node21&#45;&gt;Node23 -->
<g id="edge34" class="edge"><title>Node21&#45;&gt;Node23</title>
<path fill="none" stroke="midnightblue" d="M442.001,-76.411C463.181,-71.3965 489.302,-65.2119 511.76,-59.8947"/>
<polygon fill="midnightblue" stroke="midnightblue" points="512.866,-63.2299 521.79,-57.5201 511.253,-56.4182 512.866,-63.2299"/>
</g>
<!-- Node24 -->
<g id="node24" class="node"><title>Node24</title>
<g id="a_node24"><a xlink:href="ar_util_8c.html#a016bf9cc45eee7cd9eae471cecc68e9a" target="_top" xlink:title="arUtilQuatPos2Mat">
<polygon fill="white" stroke="black" points="513,-0.5 513,-19.5 613,-19.5 613,-0.5 513,-0.5"/>
<text text-anchor="middle" x="563" y="-7.5" font-family="Helvetica,sans-Serif" font-size="10.00">arUtilQuatPos2Mat</text>
</a>
</g>
</g>
<!-- Node21&#45;&gt;Node24 -->
<g id="edge35" class="edge"><title>Node21&#45;&gt;Node24</title>
<path fill="none" stroke="midnightblue" d="M435.105,-76.4811C441.641,-73.9111 448.243,-70.7706 454,-67 473.462,-54.2538 469.989,-40.8654 490,-29 494.16,-26.5336 498.641,-24.3823 503.261,-22.5067"/>
<polygon fill="midnightblue" stroke="midnightblue" points="504.665,-25.721 512.881,-19.0313 502.286,-19.1374 504.665,-25.721"/>
</g>
</g>
</svg>
