<?xml version="1.0" encoding="UTF-8" standalone="no"?>
<!DOCTYPE svg PUBLIC "-//W3C//DTD SVG 1.1//EN"
 "http://www.w3.org/Graphics/SVG/1.1/DTD/svg11.dtd">
<!-- Generated by graphviz version 2.38.0 (20140413.2041)
 -->
<!-- Title: ARView::initWithVideoSource Pages: 1 -->
<svg width="672pt" height="458pt"
 viewBox="0.00 0.00 672.00 458.00" xmlns="http://www.w3.org/2000/svg" xmlns:xlink="http://www.w3.org/1999/xlink">
<g id="graph0" class="graph" transform="scale(1 1) rotate(0) translate(4 454)">
<title>ARView::initWithVideoSource</title>
<polygon fill="white" stroke="none" points="-4,4 -4,-454 668,-454 668,4 -4,4"/>
<!-- Node1 -->
<g id="node1" class="node"><title>Node1</title>
<polygon fill="#bfbfbf" stroke="black" points="0,-209.5 0,-228.5 147,-228.5 147,-209.5 0,-209.5"/>
<text text-anchor="middle" x="73.5" y="-216.5" font-family="Helvetica,sans-Serif" font-size="10.00">ARView::initWithVideoSource</text>
</g>
<!-- Node2 -->
<g id="node2" class="node"><title>Node2</title>
<g id="a_node2"><a xlink:href="arg_8c.html#a85f626e83b50240007e8b8cc349f1ddf" target="_top" xlink:title="Free memory used by arg associated with the specified context. ">
<polygon fill="white" stroke="black" points="228.5,-430.5 228.5,-449.5 296.5,-449.5 296.5,-430.5 228.5,-430.5"/>
<text text-anchor="middle" x="262.5" y="-437.5" font-family="Helvetica,sans-Serif" font-size="10.00">arglCleanup</text>
</a>
</g>
</g>
<!-- Node1&#45;&gt;Node2 -->
<g id="edge1" class="edge"><title>Node1&#45;&gt;Node2</title>
<path fill="none" stroke="midnightblue" d="M76.7454,-228.858C84.7745,-261.764 115.265,-368.682 183,-421 193.057,-428.768 205.831,-433.417 218.138,-436.182"/>
<polygon fill="midnightblue" stroke="midnightblue" points="217.822,-439.684 228.296,-438.089 219.114,-432.804 217.822,-439.684"/>
</g>
<!-- Node3 -->
<g id="node3" class="node"><title>Node3</title>
<g id="a_node3"><a xlink:href="class_a_r_video_source.html#a5fcaa2cdbbe4a214da643b8b3c9f56e8" target="_top" xlink:title="Returns the camera parameters for the video source. ">
<polygon fill="white" stroke="black" points="192.5,-381 192.5,-411 332.5,-411 332.5,-381 192.5,-381"/>
<text text-anchor="start" x="200.5" y="-399" font-family="Helvetica,sans-Serif" font-size="10.00">ARVideoSource::getCamera</text>
<text text-anchor="middle" x="262.5" y="-388" font-family="Helvetica,sans-Serif" font-size="10.00">Parameters</text>
</a>
</g>
</g>
<!-- Node1&#45;&gt;Node3 -->
<g id="edge2" class="edge"><title>Node1&#45;&gt;Node3</title>
<path fill="none" stroke="midnightblue" d="M78.764,-228.839C90.9324,-255.766 128.492,-331.292 183,-371 185.659,-372.937 188.474,-374.728 191.395,-376.383"/>
<polygon fill="midnightblue" stroke="midnightblue" points="189.925,-379.562 200.428,-380.952 193.085,-373.315 189.925,-379.562"/>
</g>
<!-- Node4 -->
<g id="node4" class="node"><title>Node4</title>
<g id="a_node4"><a xlink:href="arg_8c.html#ad95c0c2dafc0b081fde74cb34f8cf7ce" target="_top" xlink:title="Initialise the arg library for the current OpenGL context. ">
<polygon fill="white" stroke="black" points="193,-342.5 193,-361.5 332,-361.5 332,-342.5 193,-342.5"/>
<text text-anchor="middle" x="262.5" y="-349.5" font-family="Helvetica,sans-Serif" font-size="10.00">arglSetupForCurrentContext</text>
</a>
</g>
</g>
<!-- Node1&#45;&gt;Node4 -->
<g id="edge3" class="edge"><title>Node1&#45;&gt;Node4</title>
<path fill="none" stroke="midnightblue" d="M80.7872,-228.721C95.6788,-250.919 135.444,-305.531 183,-333 186.861,-335.23 190.974,-337.199 195.216,-338.938"/>
<polygon fill="midnightblue" stroke="midnightblue" points="194.07,-342.245 204.664,-342.388 196.471,-335.67 194.07,-342.245"/>
</g>
<!-- Node7 -->
<g id="node7" class="node"><title>Node7</title>
<g id="a_node7"><a xlink:href="class_a_r_video_source.html#aa7b003e7ab2ce739d0940172bd91ca3c" target="_top" xlink:title="Returns the pixel format of the video. ">
<polygon fill="white" stroke="black" points="183.5,-304.5 183.5,-323.5 341.5,-323.5 341.5,-304.5 183.5,-304.5"/>
<text text-anchor="middle" x="262.5" y="-311.5" font-family="Helvetica,sans-Serif" font-size="10.00">ARVideoSource::getPixelFormat</text>
</a>
</g>
</g>
<!-- Node1&#45;&gt;Node7 -->
<g id="edge7" class="edge"><title>Node1&#45;&gt;Node7</title>
<path fill="none" stroke="midnightblue" d="M85.3556,-228.729C103.978,-244.904 143.806,-277.297 183,-295 188.403,-297.44 194.163,-299.593 200.014,-301.486"/>
<polygon fill="midnightblue" stroke="midnightblue" points="199.317,-304.931 209.9,-304.433 201.316,-298.222 199.317,-304.931"/>
</g>
<!-- Node8 -->
<g id="node8" class="node"><title>Node8</title>
<g id="a_node8"><a xlink:href="param_8h.html#a408e5586069334fc2ae229b1924f132c" target="_top" xlink:title="Create a camera parameter structure representing an idealised lens. ">
<polygon fill="white" stroke="black" points="224,-266.5 224,-285.5 301,-285.5 301,-266.5 224,-266.5"/>
<text text-anchor="middle" x="262.5" y="-273.5" font-family="Helvetica,sans-Serif" font-size="10.00">arParamClear</text>
</a>
</g>
</g>
<!-- Node1&#45;&gt;Node8 -->
<g id="edge8" class="edge"><title>Node1&#45;&gt;Node8</title>
<path fill="none" stroke="midnightblue" d="M99.6982,-228.626C121.541,-236.777 154.097,-248.464 183,-257 192.884,-259.919 203.563,-262.728 213.767,-265.25"/>
<polygon fill="midnightblue" stroke="midnightblue" points="213.221,-268.719 223.764,-267.669 214.868,-261.915 213.221,-268.719"/>
</g>
<!-- Node10 -->
<g id="node10" class="node"><title>Node10</title>
<g id="a_node10"><a xlink:href="class_a_r_video_source.html#abee133d378f5c800b9184a983b02a46d" target="_top" xlink:title="Returns the width of the video in pixels. ">
<polygon fill="white" stroke="black" points="184.5,-228.5 184.5,-247.5 340.5,-247.5 340.5,-228.5 184.5,-228.5"/>
<text text-anchor="middle" x="262.5" y="-235.5" font-family="Helvetica,sans-Serif" font-size="10.00">ARVideoSource::getVideoWidth</text>
</a>
</g>
</g>
<!-- Node1&#45;&gt;Node10 -->
<g id="edge10" class="edge"><title>Node1&#45;&gt;Node10</title>
<path fill="none" stroke="midnightblue" d="M147.067,-226.373C155.943,-227.275 165.085,-228.204 174.149,-229.125"/>
<polygon fill="midnightblue" stroke="midnightblue" points="174.03,-232.631 184.332,-230.159 174.737,-225.666 174.03,-232.631"/>
</g>
<!-- Node11 -->
<g id="node11" class="node"><title>Node11</title>
<g id="a_node11"><a xlink:href="class_a_r_video_source.html#ad891987fbd5707889d159319841f866d" target="_top" xlink:title="Returns the height of the video in pixels. ">
<polygon fill="white" stroke="black" points="183,-190.5 183,-209.5 342,-209.5 342,-190.5 183,-190.5"/>
<text text-anchor="middle" x="262.5" y="-197.5" font-family="Helvetica,sans-Serif" font-size="10.00">ARVideoSource::getVideoHeight</text>
</a>
</g>
</g>
<!-- Node1&#45;&gt;Node11 -->
<g id="edge11" class="edge"><title>Node1&#45;&gt;Node11</title>
<path fill="none" stroke="midnightblue" d="M147.067,-211.627C155.479,-210.772 164.129,-209.893 172.726,-209.02"/>
<polygon fill="midnightblue" stroke="midnightblue" points="173.181,-212.492 182.776,-207.999 172.474,-205.528 173.181,-212.492"/>
</g>
<!-- Node12 -->
<g id="node12" class="node"><title>Node12</title>
<g id="a_node12"><a xlink:href="arg_8c.html#a4cf2d1c5f499640230f2dcc5cce8dc2a" target="_top" xlink:title="Set or unset a 90 degree rotation in all OpenGL drawing performed by ARGL. ">
<polygon fill="white" stroke="black" points="219,-152.5 219,-171.5 306,-171.5 306,-152.5 219,-152.5"/>
<text text-anchor="middle" x="262.5" y="-159.5" font-family="Helvetica,sans-Serif" font-size="10.00">arglSetRotate90</text>
</a>
</g>
</g>
<!-- Node1&#45;&gt;Node12 -->
<g id="edge12" class="edge"><title>Node1&#45;&gt;Node12</title>
<path fill="none" stroke="midnightblue" d="M99.6982,-209.374C121.541,-201.223 154.097,-189.536 183,-181 191.403,-178.518 200.38,-176.116 209.151,-173.903"/>
<polygon fill="midnightblue" stroke="midnightblue" points="210.055,-177.285 218.925,-171.489 208.377,-170.489 210.055,-177.285"/>
</g>
<!-- Node13 -->
<g id="node13" class="node"><title>Node13</title>
<g id="a_node13"><a xlink:href="arg_8c.html#a336171b329a6dff60ebe3a23157737e6" target="_top" xlink:title="arglSetFlipH">
<polygon fill="white" stroke="black" points="227,-114.5 227,-133.5 298,-133.5 298,-114.5 227,-114.5"/>
<text text-anchor="middle" x="262.5" y="-121.5" font-family="Helvetica,sans-Serif" font-size="10.00">arglSetFlipH</text>
</a>
</g>
</g>
<!-- Node1&#45;&gt;Node13 -->
<g id="edge13" class="edge"><title>Node1&#45;&gt;Node13</title>
<path fill="none" stroke="midnightblue" d="M85.3556,-209.271C103.978,-193.096 143.806,-160.703 183,-143 193.674,-138.179 205.74,-134.481 217.154,-131.686"/>
<polygon fill="midnightblue" stroke="midnightblue" points="217.988,-135.086 226.964,-129.458 216.437,-128.26 217.988,-135.086"/>
</g>
<!-- Node14 -->
<g id="node14" class="node"><title>Node14</title>
<g id="a_node14"><a xlink:href="arg_8c.html#a077eb626510231817d6d7d146a2fb7e0" target="_top" xlink:title="arglSetFlipV">
<polygon fill="white" stroke="black" points="227.5,-76.5 227.5,-95.5 297.5,-95.5 297.5,-76.5 227.5,-76.5"/>
<text text-anchor="middle" x="262.5" y="-83.5" font-family="Helvetica,sans-Serif" font-size="10.00">arglSetFlipV</text>
</a>
</g>
</g>
<!-- Node1&#45;&gt;Node14 -->
<g id="edge14" class="edge"><title>Node1&#45;&gt;Node14</title>
<path fill="none" stroke="midnightblue" d="M80.7872,-209.279C95.6788,-187.081 135.444,-132.469 183,-105 193.424,-98.9789 205.685,-94.8595 217.379,-92.0433"/>
<polygon fill="midnightblue" stroke="midnightblue" points="218.402,-95.4037 227.448,-89.889 216.937,-88.5586 218.402,-95.4037"/>
</g>
<!-- Node15 -->
<g id="node15" class="node"><title>Node15</title>
<g id="a_node15"><a xlink:href="arg_8c.html#aa5ca20b707a271f658448b5550783a0a" target="_top" xlink:title="Set compensation for camera lens distortion in arglDispImage to off or on. ">
<polygon fill="white" stroke="black" points="186.5,-38.5 186.5,-57.5 338.5,-57.5 338.5,-38.5 186.5,-38.5"/>
<text text-anchor="middle" x="262.5" y="-45.5" font-family="Helvetica,sans-Serif" font-size="10.00">arglDistortionCompensationSet</text>
</a>
</g>
</g>
<!-- Node1&#45;&gt;Node15 -->
<g id="edge15" class="edge"><title>Node1&#45;&gt;Node15</title>
<path fill="none" stroke="midnightblue" d="M78.4509,-209.347C90.0655,-182.24 126.851,-104.935 183,-67 185.936,-65.0167 189.056,-63.2398 192.297,-61.6479"/>
<polygon fill="midnightblue" stroke="midnightblue" points="193.873,-64.7808 201.694,-57.6336 191.123,-58.3436 193.873,-64.7808"/>
</g>
<!-- Node16 -->
<g id="node16" class="node"><title>Node16</title>
<g id="a_node16"><a xlink:href="ioapi_8h.html#a787fa3cf048117ba7123753c1e74fcd6" target="_top" xlink:title="int">
<polygon fill="white" stroke="black" points="248,-0.5 248,-19.5 277,-19.5 277,-0.5 248,-0.5"/>
<text text-anchor="middle" x="262.5" y="-7.5" font-family="Helvetica,sans-Serif" font-size="10.00">int</text>
</a>
</g>
</g>
<!-- Node1&#45;&gt;Node16 -->
<g id="edge16" class="edge"><title>Node1&#45;&gt;Node16</title>
<path fill="none" stroke="midnightblue" d="M77.0565,-209.28C85.8619,-177.8 118.027,-77.8517 183,-29 198.813,-17.1105 221.041,-12.5552 237.809,-10.8613"/>
<polygon fill="midnightblue" stroke="midnightblue" points="238.203,-14.3418 247.918,-10.113 237.686,-7.3609 238.203,-14.3418"/>
</g>
<!-- Node5 -->
<g id="node5" class="node"><title>Node5</title>
<g id="a_node5"><a xlink:href="arg_8c.html#aabe153eb55c310c8ae24bb7347f58f07" target="_top" xlink:title="arglIsOpenGLES2OrLater">
<polygon fill="white" stroke="black" points="536,-342.5 536,-361.5 664,-361.5 664,-342.5 536,-342.5"/>
<text text-anchor="middle" x="600" y="-349.5" font-family="Helvetica,sans-Serif" font-size="10.00">arglIsOpenGLES2OrLater</text>
</a>
</g>
</g>
<!-- Node4&#45;&gt;Node5 -->
<g id="edge4" class="edge"><title>Node4&#45;&gt;Node5</title>
<path fill="none" stroke="midnightblue" d="M332.203,-352C388.538,-352 468.092,-352 525.655,-352"/>
<polygon fill="midnightblue" stroke="midnightblue" points="525.776,-355.5 535.776,-352 525.776,-348.5 525.776,-355.5"/>
</g>
<!-- Node6 -->
<g id="node6" class="node"><title>Node6</title>
<g id="a_node6"><a xlink:href="arg_8c.html#a70f432550d41765bc7b7b13a53e6015d" target="_top" xlink:title="arglOpenGLVersion">
<polygon fill="white" stroke="black" points="388.5,-323.5 388.5,-342.5 489.5,-342.5 489.5,-323.5 388.5,-323.5"/>
<text text-anchor="middle" x="439" y="-330.5" font-family="Helvetica,sans-Serif" font-size="10.00">arglOpenGLVersion</text>
</a>
</g>
</g>
<!-- Node4&#45;&gt;Node6 -->
<g id="edge5" class="edge"><title>Node4&#45;&gt;Node6</title>
<path fill="none" stroke="midnightblue" d="M332.217,-344.518C347.482,-342.856 363.542,-341.107 378.407,-339.489"/>
<polygon fill="midnightblue" stroke="midnightblue" points="378.92,-342.954 388.483,-338.392 378.162,-335.995 378.92,-342.954"/>
</g>
<!-- Node6&#45;&gt;Node5 -->
<g id="edge6" class="edge"><title>Node6&#45;&gt;Node5</title>
<path fill="none" stroke="midnightblue" d="M489.872,-338.96C501.256,-340.32 513.586,-341.793 525.722,-343.244"/>
<polygon fill="midnightblue" stroke="midnightblue" points="525.5,-346.742 535.845,-344.453 526.331,-339.791 525.5,-346.742"/>
</g>
<!-- Node9 -->
<g id="node9" class="node"><title>Node9</title>
<g id="a_node9"><a xlink:href="param_clear_8c.html#a3a67c8e9b71679e2f01173cfdb2b950a" target="_top" xlink:title="arParamDistFactorClear">
<polygon fill="white" stroke="black" points="378,-266.5 378,-285.5 500,-285.5 500,-266.5 378,-266.5"/>
<text text-anchor="middle" x="439" y="-273.5" font-family="Helvetica,sans-Serif" font-size="10.00">arParamDistFactorClear</text>
</a>
</g>
</g>
<!-- Node8&#45;&gt;Node9 -->
<g id="edge9" class="edge"><title>Node8&#45;&gt;Node9</title>
<path fill="none" stroke="midnightblue" d="M301.364,-276C320.748,-276 344.982,-276 367.636,-276"/>
<polygon fill="midnightblue" stroke="midnightblue" points="367.911,-279.5 377.911,-276 367.911,-272.5 367.911,-279.5"/>
</g>
</g>
</svg>
