<?xml version="1.0" encoding="UTF-8" standalone="no"?>
<!DOCTYPE svg PUBLIC "-//W3C//DTD SVG 1.1//EN"
 "http://www.w3.org/Graphics/SVG/1.1/DTD/svg11.dtd">
<!-- Generated by graphviz version 2.38.0 (20140413.2041)
 -->
<!-- Title: artvision_instanton::Image::deepCopy Pages: 1 -->
<svg width="551pt" height="361pt"
 viewBox="0.00 0.00 551.00 361.00" xmlns="http://www.w3.org/2000/svg" xmlns:xlink="http://www.w3.org/1999/xlink">
<g id="graph0" class="graph" transform="scale(1 1) rotate(0) translate(4 357)">
<title>artvision_instanton::Image::deepCopy</title>
<polygon fill="white" stroke="none" points="-4,4 -4,-357 547,-357 547,4 -4,4"/>
<!-- Node1 -->
<g id="node1" class="node"><title>Node1</title>
<polygon fill="#bfbfbf" stroke="black" points="0,-144.5 0,-174.5 100,-174.5 100,-144.5 0,-144.5"/>
<text text-anchor="start" x="8" y="-162.5" font-family="Helvetica,sans-Serif" font-size="10.00">artvision_instanton</text>
<text text-anchor="middle" x="50" y="-151.5" font-family="Helvetica,sans-Serif" font-size="10.00">::Image::deepCopy</text>
</g>
<!-- Node2 -->
<g id="node2" class="node"><title>Node2</title>
<g id="a_node2"><a xlink:href="classartvision__instanton_1_1_image.html#af2b536a2073964b44f3328d7b9a5853a" target="_top" xlink:title="Allocate the image data. ">
<polygon fill="white" stroke="black" points="136,-188.5 136,-218.5 234,-218.5 234,-188.5 136,-188.5"/>
<text text-anchor="start" x="144" y="-206.5" font-family="Helvetica,sans-Serif" font-size="10.00">artvision_instanton</text>
<text text-anchor="middle" x="185" y="-195.5" font-family="Helvetica,sans-Serif" font-size="10.00">::Image::alloc</text>
</a>
</g>
</g>
<!-- Node1&#45;&gt;Node2 -->
<g id="edge1" class="edge"><title>Node1&#45;&gt;Node2</title>
<path fill="none" stroke="midnightblue" d="M96.3991,-174.519C106.77,-177.95 117.904,-181.634 128.64,-185.185"/>
<polygon fill="midnightblue" stroke="midnightblue" points="127.761,-188.581 138.354,-188.399 129.959,-181.935 127.761,-188.581"/>
</g>
<!-- Node4 -->
<g id="node4" class="node"><title>Node4</title>
<g id="a_node4"><a xlink:href="classartvision__instanton_1_1_image.html#abfe6de817ab2c75f289b7f679c3a1e54" target="_top" xlink:title="artvision_instanton\l::Image::step">
<polygon fill="white" stroke="black" points="290.5,-322.5 290.5,-352.5 388.5,-352.5 388.5,-322.5 290.5,-322.5"/>
<text text-anchor="start" x="298.5" y="-340.5" font-family="Helvetica,sans-Serif" font-size="10.00">artvision_instanton</text>
<text text-anchor="middle" x="339.5" y="-329.5" font-family="Helvetica,sans-Serif" font-size="10.00">::Image::step</text>
</a>
</g>
</g>
<!-- Node1&#45;&gt;Node4 -->
<g id="edge15" class="edge"><title>Node1&#45;&gt;Node4</title>
<path fill="none" stroke="midnightblue" d="M60.0967,-174.758C73.9248,-196.761 102.227,-237.396 136,-261.5 179.668,-292.666 237.666,-312.716 280.399,-324.351"/>
<polygon fill="midnightblue" stroke="midnightblue" points="279.53,-327.742 290.093,-326.918 281.322,-320.975 279.53,-327.742"/>
</g>
<!-- Node5 -->
<g id="node5" class="node"><title>Node5</title>
<g id="a_node5"><a xlink:href="ioapi_8h.html#a787fa3cf048117ba7123753c1e74fcd6" target="_top" xlink:title="int">
<polygon fill="white" stroke="black" points="325,-284 325,-303 354,-303 354,-284 325,-284"/>
<text text-anchor="middle" x="339.5" y="-291" font-family="Helvetica,sans-Serif" font-size="10.00">int</text>
</a>
</g>
</g>
<!-- Node1&#45;&gt;Node5 -->
<g id="edge14" class="edge"><title>Node1&#45;&gt;Node5</title>
<path fill="none" stroke="midnightblue" d="M66.3669,-174.673C82.5083,-189.879 109.225,-213.049 136,-227.5 196.528,-260.167 276.007,-280.207 314.942,-288.723"/>
<polygon fill="midnightblue" stroke="midnightblue" points="314.289,-292.163 324.798,-290.82 315.746,-285.316 314.289,-292.163"/>
</g>
<!-- Node7 -->
<g id="node7" class="node"><title>Node7</title>
<g id="a_node7"><a xlink:href="classartvision__instanton_1_1_image.html#ac6859f6426c8d6729f2ada431148506f" target="_top" xlink:title="Get the image type. ">
<polygon fill="white" stroke="black" points="290.5,-147.5 290.5,-177.5 388.5,-177.5 388.5,-147.5 290.5,-147.5"/>
<text text-anchor="start" x="298.5" y="-165.5" font-family="Helvetica,sans-Serif" font-size="10.00">artvision_instanton</text>
<text text-anchor="middle" x="339.5" y="-154.5" font-family="Helvetica,sans-Serif" font-size="10.00">::Image::type</text>
</a>
</g>
</g>
<!-- Node1&#45;&gt;Node7 -->
<g id="edge11" class="edge"><title>Node1&#45;&gt;Node7</title>
<path fill="none" stroke="midnightblue" d="M100.096,-160.012C149.864,-160.532 226.878,-161.335 279.831,-161.888"/>
<polygon fill="midnightblue" stroke="midnightblue" points="280.05,-165.39 290.086,-161.995 280.123,-158.391 280.05,-165.39"/>
</g>
<!-- Node8 -->
<g id="node8" class="node"><title>Node8</title>
<g id="a_node8"><a xlink:href="classartvision__instanton_1_1_image.html#a8376556c69707ff32d49a1e2b3d63a43" target="_top" xlink:title="artvision_instanton\l::Image::channels">
<polygon fill="white" stroke="black" points="290.5,-98.5 290.5,-128.5 388.5,-128.5 388.5,-98.5 290.5,-98.5"/>
<text text-anchor="start" x="298.5" y="-116.5" font-family="Helvetica,sans-Serif" font-size="10.00">artvision_instanton</text>
<text text-anchor="middle" x="339.5" y="-105.5" font-family="Helvetica,sans-Serif" font-size="10.00">::Image::channels</text>
</a>
</g>
</g>
<!-- Node1&#45;&gt;Node8 -->
<g id="edge16" class="edge"><title>Node1&#45;&gt;Node8</title>
<path fill="none" stroke="midnightblue" d="M100.096,-151.645C149.967,-143.665 227.199,-131.308 280.162,-122.834"/>
<polygon fill="midnightblue" stroke="midnightblue" points="280.764,-126.282 290.086,-121.246 279.658,-119.37 280.764,-126.282"/>
</g>
<!-- Node9 -->
<g id="node9" class="node"><title>Node9</title>
<g id="a_node9"><a xlink:href="classartvision__instanton_1_1_image.html#a26334124ea185241a9af99e03bdd6385" target="_top" xlink:title="Get the dimensions of the image. ">
<polygon fill="white" stroke="black" points="290.5,-49.5 290.5,-79.5 388.5,-79.5 388.5,-49.5 290.5,-49.5"/>
<text text-anchor="start" x="298.5" y="-67.5" font-family="Helvetica,sans-Serif" font-size="10.00">artvision_instanton</text>
<text text-anchor="middle" x="339.5" y="-56.5" font-family="Helvetica,sans-Serif" font-size="10.00">::Image::width</text>
</a>
</g>
</g>
<!-- Node1&#45;&gt;Node9 -->
<g id="edge12" class="edge"><title>Node1&#45;&gt;Node9</title>
<path fill="none" stroke="midnightblue" d="M89.7573,-144.364C104.205,-138.866 120.789,-132.724 136,-127.5 184.415,-110.871 239.972,-93.7221 280.632,-81.5226"/>
<polygon fill="midnightblue" stroke="midnightblue" points="281.795,-84.8278 290.373,-78.609 279.79,-78.1213 281.795,-84.8278"/>
</g>
<!-- Node10 -->
<g id="node10" class="node"><title>Node10</title>
<g id="a_node10"><a xlink:href="classartvision__instanton_1_1_image.html#a8fe378f1d9a2fbeb89112b9c9600bdd6" target="_top" xlink:title="artvision_instanton\l::Image::height">
<polygon fill="white" stroke="black" points="290.5,-0.5 290.5,-30.5 388.5,-30.5 388.5,-0.5 290.5,-0.5"/>
<text text-anchor="start" x="298.5" y="-18.5" font-family="Helvetica,sans-Serif" font-size="10.00">artvision_instanton</text>
<text text-anchor="middle" x="339.5" y="-7.5" font-family="Helvetica,sans-Serif" font-size="10.00">::Image::height</text>
</a>
</g>
</g>
<!-- Node1&#45;&gt;Node10 -->
<g id="edge13" class="edge"><title>Node1&#45;&gt;Node10</title>
<path fill="none" stroke="midnightblue" d="M67.5805,-144.356C84.0269,-129.903 110.407,-108.21 136,-93.5 191.669,-61.5035 209.907,-62.1217 270,-39.5 274.815,-37.6874 279.836,-35.8426 284.876,-34.0218"/>
<polygon fill="midnightblue" stroke="midnightblue" points="286.303,-37.2285 294.54,-30.5649 283.946,-30.6374 286.303,-37.2285"/>
</g>
<!-- Node3 -->
<g id="node3" class="node"><title>Node3</title>
<g id="a_node3"><a xlink:href="classartvision__instanton_1_1_image.html#a5da9991c89d2324c7ec145973298c130" target="_top" xlink:title="artvision_instanton\l::Image::size">
<polygon fill="white" stroke="black" points="445,-218.5 445,-248.5 543,-248.5 543,-218.5 445,-218.5"/>
<text text-anchor="start" x="453" y="-236.5" font-family="Helvetica,sans-Serif" font-size="10.00">artvision_instanton</text>
<text text-anchor="middle" x="494" y="-225.5" font-family="Helvetica,sans-Serif" font-size="10.00">::Image::size</text>
</a>
</g>
</g>
<!-- Node2&#45;&gt;Node3 -->
<g id="edge2" class="edge"><title>Node2&#45;&gt;Node3</title>
<path fill="none" stroke="midnightblue" d="M217.519,-218.635C232.954,-225.227 252.043,-232.195 270,-235.5 325.108,-245.641 389.179,-243.677 434.466,-240.053"/>
<polygon fill="midnightblue" stroke="midnightblue" points="435.027,-243.518 444.694,-239.181 434.433,-236.543 435.027,-243.518"/>
</g>
<!-- Node2&#45;&gt;Node4 -->
<g id="edge3" class="edge"><title>Node2&#45;&gt;Node4</title>
<path fill="none" stroke="midnightblue" d="M193.991,-218.734C206.959,-242.069 234.726,-286.669 270,-312.5 273.447,-315.024 277.176,-317.318 281.052,-319.397"/>
<polygon fill="midnightblue" stroke="midnightblue" points="279.775,-322.667 290.301,-323.868 282.822,-316.365 279.775,-322.667"/>
</g>
<!-- Node2&#45;&gt;Node5 -->
<g id="edge4" class="edge"><title>Node2&#45;&gt;Node5</title>
<path fill="none" stroke="midnightblue" d="M201.903,-218.64C218.001,-233.297 244.142,-255.324 270,-269.5 284.124,-277.243 301.222,-283.238 314.803,-287.299"/>
<polygon fill="midnightblue" stroke="midnightblue" points="314.24,-290.777 324.816,-290.138 316.15,-284.043 314.24,-290.777"/>
</g>
<!-- Node6 -->
<g id="node6" class="node"><title>Node6</title>
<g id="a_node6"><a xlink:href="classartvision__instanton_1_1_image.html#a31fdf398f739c5eccf617ae7e20c88ab" target="_top" xlink:title="Calculate the size of a single unit. ">
<polygon fill="white" stroke="black" points="270,-196.5 270,-226.5 409,-226.5 409,-196.5 270,-196.5"/>
<text text-anchor="start" x="278" y="-214.5" font-family="Helvetica,sans-Serif" font-size="10.00">artvision_instanton</text>
<text text-anchor="middle" x="339.5" y="-203.5" font-family="Helvetica,sans-Serif" font-size="10.00">::Image::calculate_unit_size</text>
</a>
</g>
</g>
<!-- Node2&#45;&gt;Node6 -->
<g id="edge5" class="edge"><title>Node2&#45;&gt;Node6</title>
<path fill="none" stroke="midnightblue" d="M234.252,-206.031C242.405,-206.459 251.055,-206.913 259.748,-207.369"/>
<polygon fill="midnightblue" stroke="midnightblue" points="259.776,-210.875 269.945,-207.904 260.142,-203.885 259.776,-210.875"/>
</g>
<!-- Node2&#45;&gt;Node7 -->
<g id="edge7" class="edge"><title>Node2&#45;&gt;Node7</title>
<path fill="none" stroke="midnightblue" d="M234.252,-190.527C248.926,-186.582 265.207,-182.205 280.456,-178.105"/>
<polygon fill="midnightblue" stroke="midnightblue" points="281.552,-181.435 290.3,-175.459 279.735,-174.675 281.552,-181.435"/>
</g>
<!-- Node2&#45;&gt;Node8 -->
<g id="edge8" class="edge"><title>Node2&#45;&gt;Node8</title>
<path fill="none" stroke="midnightblue" d="M201.903,-188.36C218.001,-173.703 244.142,-151.676 270,-137.5 273.505,-135.579 277.193,-133.765 280.964,-132.062"/>
<polygon fill="midnightblue" stroke="midnightblue" points="282.603,-135.169 290.456,-128.057 279.882,-128.719 282.603,-135.169"/>
</g>
<!-- Node2&#45;&gt;Node9 -->
<g id="edge9" class="edge"><title>Node2&#45;&gt;Node9</title>
<path fill="none" stroke="midnightblue" d="M193.324,-188.16C205.759,-163.677 233.271,-115.759 270,-88.5 273.415,-85.9654 277.12,-83.682 280.98,-81.6276"/>
<polygon fill="midnightblue" stroke="midnightblue" points="282.676,-84.6967 290.201,-77.239 279.668,-78.3759 282.676,-84.6967"/>
</g>
<!-- Node2&#45;&gt;Node10 -->
<g id="edge10" class="edge"><title>Node2&#45;&gt;Node10</title>
<path fill="none" stroke="midnightblue" d="M189.631,-188.471C198.121,-156.47 222.265,-81.1326 270,-39.5 273.404,-36.5312 277.198,-33.9232 281.205,-31.6333"/>
<polygon fill="midnightblue" stroke="midnightblue" points="282.871,-34.7133 290.251,-27.1115 279.742,-28.4519 282.871,-34.7133"/>
</g>
<!-- Node6&#45;&gt;Node3 -->
<g id="edge6" class="edge"><title>Node6&#45;&gt;Node3</title>
<path fill="none" stroke="midnightblue" d="M409.166,-221.406C417.709,-222.638 426.381,-223.889 434.745,-225.096"/>
<polygon fill="midnightblue" stroke="midnightblue" points="434.37,-228.578 444.768,-226.542 435.37,-221.65 434.37,-228.578"/>
</g>
</g>
</svg>
