<?xml version="1.0" encoding="UTF-8" standalone="no"?>
<!DOCTYPE svg PUBLIC "-//W3C//DTD SVG 1.1//EN"
 "http://www.w3.org/Graphics/SVG/1.1/DTD/svg11.dtd">
<!-- Generated by graphviz version 2.38.0 (20140413.2041)
 -->
<!-- Title: artvision_instanton::ImageYUV::uOffset Pages: 1 -->
<!--zoomable 147 -->
<svg id="main" version="1.1" xmlns="http://www.w3.org/2000/svg" xmlns:xlink="http://www.w3.org/1999/xlink" xml:space="preserve" onload="init(evt)">
<style type="text/css"><![CDATA[
.edge:hover path { stroke: red; }
.edge:hover polygon { stroke: red; fill: red; }
]]></style>
<script type="text/javascript"><![CDATA[
var edges = document.getElementsByTagName('g');
if (edges && edges.length) {
  for (var i=0;i<edges.length;i++) {
    if (edges[i].id.substr(0,4)=='edge') {
      edges[i].setAttribute('class','edge');
    }
  }
}
]]></script>
        <defs>
                <circle id="rim" cx="0" cy="0" r="7"/>
                <circle id="rim2" cx="0" cy="0" r="3.5"/>
                <g id="zoomPlus">
                        <use xlink:href="#rim" fill="#404040">
                                <set attributeName="fill" to="#808080" begin="zoomplus.mouseover" end="zoomplus.mouseout"/>
                        </use>
                        <path d="M-4,0h8M0,-4v8" fill="none" stroke="white" stroke-width="1.5" pointer-events="none"/>
                </g>
                <g id="zoomMin">
                        <use xlink:href="#rim" fill="#404040">
                                <set attributeName="fill" to="#808080" begin="zoomminus.mouseover" end="zoomminus.mouseout"/>
                        </use>
                        <path d="M-4,0h8" fill="none" stroke="white" stroke-width="1.5" pointer-events="none"/>
                </g>
                <g id="dirArrow">
                        <path fill="none" stroke="white" stroke-width="1.5" d="M0,-3.0v7 M-2.5,-0.5L0,-3.0L2.5,-0.5"/>
                </g>
               <g id="resetDef">
                       <use xlink:href="#rim2" fill="#404040">
                               <set attributeName="fill" to="#808080" begin="reset.mouseover" end="reset.mouseout"/>
                       </use>
               </g>
        </defs>

<script type="text/javascript">
var viewWidth = 547;
var viewHeight = 147;
var sectionId = 'dynsection-6';
</script>
<script xlink:href="svgpan.js"/>
<svg id="graph" class="graph">
<g id="viewport">
<title>artvision_instanton::ImageYUV::uOffset</title>
<polygon fill="white" stroke="none" points="-4,4 -4,-143 543,-143 543,4 -4,4"/>
<!-- Node1 -->
<g id="node1" class="node"><title>Node1</title>
<polygon fill="#bfbfbf" stroke="black" points="0,-46.5 0,-76.5 109,-76.5 109,-46.5 0,-46.5"/>
<text text-anchor="start" x="8" y="-64.5" font-family="Helvetica,sans-Serif" font-size="10.00">artvision_instanton</text>
<text text-anchor="middle" x="54.5" y="-53.5" font-family="Helvetica,sans-Serif" font-size="10.00">::ImageYUV::uOffset</text>
</g>
<!-- Node2 -->
<g id="node2" class="node"><title>Node2</title>
<g id="a_node2"><a xlink:href="classartvision__instanton_1_1_image_y_u_v.html#acedfcf5337dc1ffcc53ce2164d6f291a" target="_top" xlink:title="Copy functions. ">
<polygon fill="white" stroke="black" points="145,-46.5 145,-76.5 266,-76.5 266,-46.5 145,-46.5"/>
<text text-anchor="start" x="153" y="-64.5" font-family="Helvetica,sans-Serif" font-size="10.00">artvision_instanton</text>
<text text-anchor="middle" x="205.5" y="-53.5" font-family="Helvetica,sans-Serif" font-size="10.00">::ImageYUV::deepCopy</text>
</a>
</g>
</g>
<!-- Node1&#45;&gt;Node2 -->
<g id="edge1" class="edge"><title>Node1&#45;&gt;Node2</title>
<path fill="none" stroke="midnightblue" d="M109.292,-61.5C117.62,-61.5 126.323,-61.5 134.938,-61.5"/>
<polygon fill="midnightblue" stroke="midnightblue" points="134.982,-65.0001 144.982,-61.5 134.982,-58.0001 134.982,-65.0001"/>
</g>
<!-- Node3 -->
<g id="node3" class="node"><title>Node3</title>
<g id="a_node3"><a xlink:href="classartvision__instanton_1_1_image_y_u_v.html#af8fd6bec71fed648c949fea436ed3d23" target="_top" xlink:title="Allocate the image data. ">
<polygon fill="white" stroke="black" points="302,-68.5 302,-98.5 400,-98.5 400,-68.5 302,-68.5"/>
<text text-anchor="start" x="310" y="-86.5" font-family="Helvetica,sans-Serif" font-size="10.00">artvision_instanton</text>
<text text-anchor="middle" x="351" y="-75.5" font-family="Helvetica,sans-Serif" font-size="10.00">::ImageYUV::alloc</text>
</a>
</g>
</g>
<!-- Node2&#45;&gt;Node3 -->
<g id="edge2" class="edge"><title>Node2&#45;&gt;Node3</title>
<path fill="none" stroke="midnightblue" d="M266.11,-70.6389C274.541,-71.9314 283.202,-73.2592 291.61,-74.5482"/>
<polygon fill="midnightblue" stroke="midnightblue" points="291.292,-78.0402 301.707,-76.0961 292.352,-71.1211 291.292,-78.0402"/>
</g>
<!-- Node4 -->
<g id="node4" class="node"><title>Node4</title>
<g id="a_node4"><a xlink:href="classartvision__instanton_1_1_image_y_u_v.html#a99dbf05f44d2af9b2b9b13585b25e205" target="_top" xlink:title="artvision_instanton\l::ImageYUV::size">
<polygon fill="white" stroke="black" points="438.5,-108.5 438.5,-138.5 536.5,-138.5 536.5,-108.5 438.5,-108.5"/>
<text text-anchor="start" x="446.5" y="-126.5" font-family="Helvetica,sans-Serif" font-size="10.00">artvision_instanton</text>
<text text-anchor="middle" x="487.5" y="-115.5" font-family="Helvetica,sans-Serif" font-size="10.00">::ImageYUV::size</text>
</a>
</g>
</g>
<!-- Node2&#45;&gt;Node4 -->
<g id="edge8" class="edge"><title>Node2&#45;&gt;Node4</title>
<path fill="none" stroke="midnightblue" d="M231.455,-76.6295C250.172,-87.1907 276.798,-100.588 302,-107.5 343.237,-118.81 391.424,-122.687 428.209,-123.802"/>
<polygon fill="midnightblue" stroke="midnightblue" points="428.184,-127.302 438.267,-124.047 428.355,-120.304 428.184,-127.302"/>
</g>
<!-- Node5 -->
<g id="node5" class="node"><title>Node5</title>
<g id="a_node5"><a xlink:href="classartvision__instanton_1_1_image_y_u_v.html#a12ce8037b43ff05672ce85d095f85277" target="_top" xlink:title="Get the dimensions of the image. ">
<polygon fill="white" stroke="black" points="437.5,-56.5 437.5,-86.5 537.5,-86.5 537.5,-56.5 437.5,-56.5"/>
<text text-anchor="start" x="445.5" y="-74.5" font-family="Helvetica,sans-Serif" font-size="10.00">artvision_instanton</text>
<text text-anchor="middle" x="487.5" y="-63.5" font-family="Helvetica,sans-Serif" font-size="10.00">::ImageYUV::width</text>
</a>
</g>
</g>
<!-- Node2&#45;&gt;Node5 -->
<g id="edge6" class="edge"><title>Node2&#45;&gt;Node5</title>
<path fill="none" stroke="midnightblue" d="M266.293,-57.8007C304.572,-56.1171 355.272,-55.1577 400,-58.5 408.802,-59.1578 418.067,-60.187 427.13,-61.3851"/>
<polygon fill="midnightblue" stroke="midnightblue" points="426.853,-64.8804 437.241,-62.7988 427.822,-57.9478 426.853,-64.8804"/>
</g>
<!-- Node6 -->
<g id="node6" class="node"><title>Node6</title>
<g id="a_node6"><a xlink:href="classartvision__instanton_1_1_image_y_u_v.html#aa0db5e42440576206097d04bcc412120" target="_top" xlink:title="artvision_instanton\l::ImageYUV::height">
<polygon fill="white" stroke="black" points="436,-0.5 436,-30.5 539,-30.5 539,-0.5 436,-0.5"/>
<text text-anchor="start" x="444" y="-18.5" font-family="Helvetica,sans-Serif" font-size="10.00">artvision_instanton</text>
<text text-anchor="middle" x="487.5" y="-7.5" font-family="Helvetica,sans-Serif" font-size="10.00">::ImageYUV::height</text>
</a>
</g>
</g>
<!-- Node2&#45;&gt;Node6 -->
<g id="edge7" class="edge"><title>Node2&#45;&gt;Node6</title>
<path fill="none" stroke="midnightblue" d="M266.224,-51.6883C313.208,-43.9694 378.412,-33.2574 425.677,-25.4923"/>
<polygon fill="midnightblue" stroke="midnightblue" points="426.477,-28.9079 435.778,-23.833 425.342,-22.0005 426.477,-28.9079"/>
</g>
<!-- Node3&#45;&gt;Node4 -->
<g id="edge3" class="edge"><title>Node3&#45;&gt;Node4</title>
<path fill="none" stroke="midnightblue" d="M400.178,-97.8279C409.353,-100.557 419.044,-103.439 428.487,-106.247"/>
<polygon fill="midnightblue" stroke="midnightblue" points="427.624,-109.642 438.207,-109.138 429.619,-102.932 427.624,-109.642"/>
</g>
<!-- Node3&#45;&gt;Node5 -->
<g id="edge4" class="edge"><title>Node3&#45;&gt;Node5</title>
<path fill="none" stroke="midnightblue" d="M400.178,-79.2016C408.94,-78.4198 418.174,-77.596 427.213,-76.7896"/>
<polygon fill="midnightblue" stroke="midnightblue" points="427.651,-80.2645 437.3,-75.8896 427.029,-73.2922 427.651,-80.2645"/>
</g>
<!-- Node3&#45;&gt;Node6 -->
<g id="edge5" class="edge"><title>Node3&#45;&gt;Node6</title>
<path fill="none" stroke="midnightblue" d="M381.85,-68.4086C401.266,-58.5924 426.78,-45.6931 447.755,-35.0888"/>
<polygon fill="midnightblue" stroke="midnightblue" points="449.388,-38.1847 456.734,-30.5492 446.23,-31.9377 449.388,-38.1847"/>
</g>
</g>
</svg>
        <g id="navigator" transform="translate(0 0)" fill="#404254">
                <rect fill="#f2f5e9" fill-opacity="0.5" stroke="#606060" stroke-width=".5" x="0" y="0" width="60" height="60"/>
                <use id="zoomplus" xlink:href="#zoomPlus" x="17" y="9" onmousedown="handleZoom(evt,'in')"/>
                <use id="zoomminus" xlink:href="#zoomMin" x="42" y="9" onmousedown="handleZoom(evt,'out')"/>
                <use id="reset" xlink:href="#resetDef" x="30" y="36" onmousedown="handleReset()"/>
                <g id="arrowUp" xlink:href="#dirArrow" transform="translate(30 24)" onmousedown="handlePan(0,-1)">
                  <use xlink:href="#rim" fill="#404040">
                        <set attributeName="fill" to="#808080" begin="arrowUp.mouseover" end="arrowUp.mouseout"/>
                  </use>
                  <path fill="none" stroke="white" stroke-width="1.5" d="M0,-3.0v7 M-2.5,-0.5L0,-3.0L2.5,-0.5"/>
                </g>
                <g id="arrowRight" xlink:href="#dirArrow" transform="rotate(90) translate(36 -43)" onmousedown="handlePan(1,0)">
                  <use xlink:href="#rim" fill="#404040">
                        <set attributeName="fill" to="#808080" begin="arrowRight.mouseover" end="arrowRight.mouseout"/>
                  </use>
                  <path fill="none" stroke="white" stroke-width="1.5" d="M0,-3.0v7 M-2.5,-0.5L0,-3.0L2.5,-0.5"/>
                </g>
                <g id="arrowDown" xlink:href="#dirArrow" transform="rotate(180) translate(-30 -48)" onmousedown="handlePan(0,1)">
                  <use xlink:href="#rim" fill="#404040">
                        <set attributeName="fill" to="#808080" begin="arrowDown.mouseover" end="arrowDown.mouseout"/>
                  </use>
                  <path fill="none" stroke="white" stroke-width="1.5" d="M0,-3.0v7 M-2.5,-0.5L0,-3.0L2.5,-0.5"/>
                </g>
                <g id="arrowLeft" xlink:href="#dirArrow" transform="rotate(270) translate(-36 17)" onmousedown="handlePan(-1,0)">
                  <use xlink:href="#rim" fill="#404040">
                        <set attributeName="fill" to="#808080" begin="arrowLeft.mouseover" end="arrowLeft.mouseout"/>
                  </use>
                  <path fill="none" stroke="white" stroke-width="1.5" d="M0,-3.0v7 M-2.5,-0.5L0,-3.0L2.5,-0.5"/>
                </g>
        </g>
        <svg viewBox="0 0 15 15" width="100%" height="30px" preserveAspectRatio="xMaxYMin meet">
         <g id="arrow_out" transform="scale(0.3 0.3)">
          <a xlink:href="classartvision__instanton_1_1_image_y_u_v_a944509b97e21b3af9ba1eaa08a15ec54_cgraph_org.svg" target="_base">
           <rect id="button" ry="5" rx="5" y="6" x="6" height="38" width="38"
                fill="#f2f5e9" fill-opacity="0.5" stroke="#606060" stroke-width="1.0"/>
           <path id="arrow"
             d="M 11.500037,31.436501 C 11.940474,20.09759 22.043105,11.32322 32.158766,21.979434 L 37.068811,17.246167 C 37.068811,17.246167 37.088388,32 37.088388,32 L 22.160133,31.978069 C 22.160133,31.978069 26.997745,27.140456 26.997745,27.140456 C 18.528582,18.264221 13.291696,25.230495 11.500037,31.436501 z"
             style="fill:#404040;"/>
          </a>
         </g>
        </svg>
</svg>
