<?xml version="1.0" encoding="UTF-8" standalone="no"?>
<!DOCTYPE svg PUBLIC "-//W3C//DTD SVG 1.1//EN"
 "http://www.w3.org/Graphics/SVG/1.1/DTD/svg11.dtd">
<!-- Generated by graphviz version 2.38.0 (20140413.2041)
 -->
<!-- Title: artvision_instanton::NCCTemplateStore::set Pages: 1 -->
<svg width="444pt" height="186pt"
 viewBox="0.00 0.00 444.00 185.50" xmlns="http://www.w3.org/2000/svg" xmlns:xlink="http://www.w3.org/1999/xlink">
<g id="graph0" class="graph" transform="scale(1 1) rotate(0) translate(4 181.5)">
<title>artvision_instanton::NCCTemplateStore::set</title>
<polygon fill="white" stroke="none" points="-4,4 -4,-181.5 440,-181.5 440,4 -4,4"/>
<!-- Node1 -->
<g id="node1" class="node"><title>Node1</title>
<polygon fill="#bfbfbf" stroke="black" points="0,-81.5 0,-111.5 128,-111.5 128,-81.5 0,-81.5"/>
<text text-anchor="start" x="8" y="-99.5" font-family="Helvetica,sans-Serif" font-size="10.00">artvision_instanton</text>
<text text-anchor="middle" x="64" y="-88.5" font-family="Helvetica,sans-Serif" font-size="10.00">::NCCTemplateStore::set</text>
</g>
<!-- Node2 -->
<g id="node2" class="node"><title>Node2</title>
<g id="a_node2"><a xlink:href="ioapi_8h.html#a787fa3cf048117ba7123753c1e74fcd6" target="_top" xlink:title="int">
<polygon fill="white" stroke="black" points="208.5,-158 208.5,-177 237.5,-177 237.5,-158 208.5,-158"/>
<text text-anchor="middle" x="223" y="-165" font-family="Helvetica,sans-Serif" font-size="10.00">int</text>
</a>
</g>
</g>
<!-- Node1&#45;&gt;Node2 -->
<g id="edge1" class="edge"><title>Node1&#45;&gt;Node2</title>
<path fill="none" stroke="midnightblue" d="M90.8927,-111.63C110.536,-122.728 138.43,-137.686 164,-148.5 175.125,-153.205 187.844,-157.488 198.53,-160.791"/>
<polygon fill="midnightblue" stroke="midnightblue" points="197.821,-164.232 208.405,-163.747 199.829,-157.526 197.821,-164.232"/>
</g>
<!-- Node3 -->
<g id="node3" class="node"><title>Node3</title>
<g id="a_node3"><a xlink:href="namespaceartvision__instanton.html#afd6dbbd9acca322a19536bce2c32b43c" target="_top" xlink:title="artvision_instanton\l::CopyVector">
<polygon fill="white" stroke="black" points="174,-108.5 174,-138.5 272,-138.5 272,-108.5 174,-108.5"/>
<text text-anchor="start" x="182" y="-126.5" font-family="Helvetica,sans-Serif" font-size="10.00">artvision_instanton</text>
<text text-anchor="middle" x="223" y="-115.5" font-family="Helvetica,sans-Serif" font-size="10.00">::CopyVector</text>
</a>
</g>
</g>
<!-- Node1&#45;&gt;Node3 -->
<g id="edge2" class="edge"><title>Node1&#45;&gt;Node3</title>
<path fill="none" stroke="midnightblue" d="M128.405,-107.404C140.122,-109.419 152.304,-111.514 163.855,-113.501"/>
<polygon fill="midnightblue" stroke="midnightblue" points="163.368,-116.968 173.816,-115.214 164.554,-110.069 163.368,-116.968"/>
</g>
<!-- Node4 -->
<g id="node4" class="node"><title>Node4</title>
<g id="a_node4"><a xlink:href="classartvision__instanton_1_1_n_c_c_template_store.html#a3863074b551053a1818f073395ed8c22" target="_top" xlink:title="Get NCC scalars at an index. ">
<polygon fill="white" stroke="black" points="165.5,-49 165.5,-90 280.5,-90 280.5,-49 165.5,-49"/>
<text text-anchor="start" x="173.5" y="-78" font-family="Helvetica,sans-Serif" font-size="10.00">artvision_instanton</text>
<text text-anchor="start" x="173.5" y="-67" font-family="Helvetica,sans-Serif" font-size="10.00">::NCCTemplateStore::</text>
<text text-anchor="middle" x="223" y="-56" font-family="Helvetica,sans-Serif" font-size="10.00">scalars</text>
</a>
</g>
</g>
<!-- Node1&#45;&gt;Node4 -->
<g id="edge3" class="edge"><title>Node1&#45;&gt;Node4</title>
<path fill="none" stroke="midnightblue" d="M128.405,-85.5959C137.309,-84.0646 146.483,-82.4871 155.443,-80.9461"/>
<polygon fill="midnightblue" stroke="midnightblue" points="156.182,-84.3705 165.444,-79.2262 154.996,-77.4717 156.182,-84.3705"/>
</g>
<!-- Node5 -->
<g id="node5" class="node"><title>Node5</title>
<g id="a_node5"><a xlink:href="namespaceartvision__instanton.html#af73541d9cc5e6a6a0e46b048039084f5" target="_top" xlink:title="artvision_instanton\l::ComputeNCCScalars">
<polygon fill="white" stroke="black" points="164,-0.5 164,-30.5 282,-30.5 282,-0.5 164,-0.5"/>
<text text-anchor="start" x="172" y="-18.5" font-family="Helvetica,sans-Serif" font-size="10.00">artvision_instanton</text>
<text text-anchor="middle" x="223" y="-7.5" font-family="Helvetica,sans-Serif" font-size="10.00">::ComputeNCCScalars</text>
</a>
</g>
</g>
<!-- Node1&#45;&gt;Node5 -->
<g id="edge4" class="edge"><title>Node1&#45;&gt;Node5</title>
<path fill="none" stroke="midnightblue" d="M89.3332,-81.301C109.082,-69.2577 137.842,-52.3742 164,-39.5 167.324,-37.8638 170.789,-36.2389 174.297,-34.6512"/>
<polygon fill="midnightblue" stroke="midnightblue" points="175.876,-37.7807 183.622,-30.5528 173.059,-31.3723 175.876,-37.7807"/>
</g>
<!-- Node6 -->
<g id="node6" class="node"><title>Node6</title>
<g id="a_node6"><a xlink:href="namespaceartvision__instanton.html#aaf2781e37f3d7d4e78dd2c872d0799b6" target="_top" xlink:title="artvision_instanton::sqr">
<polygon fill="white" stroke="black" points="318,-6 318,-25 436,-25 436,-6 318,-6"/>
<text text-anchor="middle" x="377" y="-13" font-family="Helvetica,sans-Serif" font-size="10.00">artvision_instanton::sqr</text>
</a>
</g>
</g>
<!-- Node5&#45;&gt;Node6 -->
<g id="edge5" class="edge"><title>Node5&#45;&gt;Node6</title>
<path fill="none" stroke="midnightblue" d="M282.332,-15.5C290.606,-15.5 299.175,-15.5 307.617,-15.5"/>
<polygon fill="midnightblue" stroke="midnightblue" points="307.824,-19.0001 317.824,-15.5 307.824,-12.0001 307.824,-19.0001"/>
</g>
</g>
</svg>
