<?xml version="1.0" encoding="UTF-8" standalone="no"?>
<!DOCTYPE svg PUBLIC "-//W3C//DTD SVG 1.1//EN"
 "http://www.w3.org/Graphics/SVG/1.1/DTD/svg11.dtd">
<!-- Generated by graphviz version 2.38.0 (20140413.2041)
 -->
<!-- Title: artvision_instanton::Image::Image Pages: 1 -->
<svg width="415pt" height="186pt"
 viewBox="0.00 0.00 415.00 186.00" xmlns="http://www.w3.org/2000/svg" xmlns:xlink="http://www.w3.org/1999/xlink">
<g id="graph0" class="graph" transform="scale(1 1) rotate(0) translate(4 182)">
<title>artvision_instanton::Image::Image</title>
<polygon fill="white" stroke="none" points="-4,4 -4,-182 411,-182 411,4 -4,4"/>
<!-- Node1 -->
<g id="node1" class="node"><title>Node1</title>
<polygon fill="#bfbfbf" stroke="black" points="0,-73.5 0,-103.5 98,-103.5 98,-73.5 0,-73.5"/>
<text text-anchor="start" x="8" y="-91.5" font-family="Helvetica,sans-Serif" font-size="10.00">artvision_instanton</text>
<text text-anchor="middle" x="49" y="-80.5" font-family="Helvetica,sans-Serif" font-size="10.00">::Image::Image</text>
</g>
<!-- Node2 -->
<g id="node2" class="node"><title>Node2</title>
<g id="a_node2"><a xlink:href="classartvision__instanton_1_1_image.html#a31fdf398f739c5eccf617ae7e20c88ab" target="_top" xlink:title="Calculate the size of a single unit. ">
<polygon fill="white" stroke="black" points="134,-147.5 134,-177.5 273,-177.5 273,-147.5 134,-147.5"/>
<text text-anchor="start" x="142" y="-165.5" font-family="Helvetica,sans-Serif" font-size="10.00">artvision_instanton</text>
<text text-anchor="middle" x="203.5" y="-154.5" font-family="Helvetica,sans-Serif" font-size="10.00">::Image::calculate_unit_size</text>
</a>
</g>
</g>
<!-- Node1&#45;&gt;Node2 -->
<g id="edge1" class="edge"><title>Node1&#45;&gt;Node2</title>
<path fill="none" stroke="midnightblue" d="M72.4979,-103.574C89.0385,-114.234 112.319,-128.373 134,-138.5 137.853,-140.3 141.881,-142.042 145.971,-143.711"/>
<polygon fill="midnightblue" stroke="midnightblue" points="144.983,-147.083 155.571,-147.464 147.532,-140.563 144.983,-147.083"/>
</g>
<!-- Node4 -->
<g id="node4" class="node"><title>Node4</title>
<g id="a_node4"><a xlink:href="classartvision__instanton_1_1_image.html#a26334124ea185241a9af99e03bdd6385" target="_top" xlink:title="Get the dimensions of the image. ">
<polygon fill="white" stroke="black" points="154.5,-98.5 154.5,-128.5 252.5,-128.5 252.5,-98.5 154.5,-98.5"/>
<text text-anchor="start" x="162.5" y="-116.5" font-family="Helvetica,sans-Serif" font-size="10.00">artvision_instanton</text>
<text text-anchor="middle" x="203.5" y="-105.5" font-family="Helvetica,sans-Serif" font-size="10.00">::Image::width</text>
</a>
</g>
</g>
<!-- Node1&#45;&gt;Node4 -->
<g id="edge3" class="edge"><title>Node1&#45;&gt;Node4</title>
<path fill="none" stroke="midnightblue" d="M98.252,-96.4102C112.786,-98.7929 128.897,-101.434 144.02,-103.913"/>
<polygon fill="midnightblue" stroke="midnightblue" points="143.866,-107.434 154.3,-105.598 144.998,-100.527 143.866,-107.434"/>
</g>
<!-- Node5 -->
<g id="node5" class="node"><title>Node5</title>
<g id="a_node5"><a xlink:href="classartvision__instanton_1_1_image.html#abfe6de817ab2c75f289b7f679c3a1e54" target="_top" xlink:title="artvision_instanton\l::Image::step">
<polygon fill="white" stroke="black" points="154.5,-49.5 154.5,-79.5 252.5,-79.5 252.5,-49.5 154.5,-49.5"/>
<text text-anchor="start" x="162.5" y="-67.5" font-family="Helvetica,sans-Serif" font-size="10.00">artvision_instanton</text>
<text text-anchor="middle" x="203.5" y="-56.5" font-family="Helvetica,sans-Serif" font-size="10.00">::Image::step</text>
</a>
</g>
</g>
<!-- Node1&#45;&gt;Node5 -->
<g id="edge4" class="edge"><title>Node1&#45;&gt;Node5</title>
<path fill="none" stroke="midnightblue" d="M98.252,-80.9062C112.786,-78.6189 128.897,-76.0834 144.02,-73.7034"/>
<polygon fill="midnightblue" stroke="midnightblue" points="144.966,-77.0977 154.3,-72.0855 143.878,-70.1828 144.966,-77.0977"/>
</g>
<!-- Node6 -->
<g id="node6" class="node"><title>Node6</title>
<g id="a_node6"><a xlink:href="classartvision__instanton_1_1_image.html#a8fe378f1d9a2fbeb89112b9c9600bdd6" target="_top" xlink:title="artvision_instanton\l::Image::height">
<polygon fill="white" stroke="black" points="154.5,-0.5 154.5,-30.5 252.5,-30.5 252.5,-0.5 154.5,-0.5"/>
<text text-anchor="start" x="162.5" y="-18.5" font-family="Helvetica,sans-Serif" font-size="10.00">artvision_instanton</text>
<text text-anchor="middle" x="203.5" y="-7.5" font-family="Helvetica,sans-Serif" font-size="10.00">::Image::height</text>
</a>
</g>
</g>
<!-- Node1&#45;&gt;Node6 -->
<g id="edge5" class="edge"><title>Node1&#45;&gt;Node6</title>
<path fill="none" stroke="midnightblue" d="M74.0473,-73.3069C90.5382,-63.2532 113.128,-50.1876 134,-40.5 138.618,-38.3565 143.476,-36.2694 148.385,-34.274"/>
<polygon fill="midnightblue" stroke="midnightblue" points="149.809,-37.4747 157.836,-30.5589 147.248,-30.96 149.809,-37.4747"/>
</g>
<!-- Node3 -->
<g id="node3" class="node"><title>Node3</title>
<g id="a_node3"><a xlink:href="classartvision__instanton_1_1_image.html#a5da9991c89d2324c7ec145973298c130" target="_top" xlink:title="artvision_instanton\l::Image::size">
<polygon fill="white" stroke="black" points="309,-147.5 309,-177.5 407,-177.5 407,-147.5 309,-147.5"/>
<text text-anchor="start" x="317" y="-165.5" font-family="Helvetica,sans-Serif" font-size="10.00">artvision_instanton</text>
<text text-anchor="middle" x="358" y="-154.5" font-family="Helvetica,sans-Serif" font-size="10.00">::Image::size</text>
</a>
</g>
</g>
<!-- Node2&#45;&gt;Node3 -->
<g id="edge2" class="edge"><title>Node2&#45;&gt;Node3</title>
<path fill="none" stroke="midnightblue" d="M273.166,-162.5C281.709,-162.5 290.381,-162.5 298.745,-162.5"/>
<polygon fill="midnightblue" stroke="midnightblue" points="298.768,-166 308.768,-162.5 298.768,-159 298.768,-166"/>
</g>
</g>
</svg>
