<?xml version="1.0" encoding="UTF-8" standalone="no"?>
<!DOCTYPE svg PUBLIC "-//W3C//DTD SVG 1.1//EN"
 "http://www.w3.org/Graphics/SVG/1.1/DTD/svg11.dtd">
<!-- Generated by graphviz version 2.38.0 (20140413.2041)
 -->
<!-- Title: artvision_instanton::Filter::~Filter Pages: 1 -->
<!--zoomable 137 -->
<svg id="main" version="1.1" xmlns="http://www.w3.org/2000/svg" xmlns:xlink="http://www.w3.org/1999/xlink" xml:space="preserve" onload="init(evt)">
<style type="text/css"><![CDATA[
.edge:hover path { stroke: red; }
.edge:hover polygon { stroke: red; fill: red; }
]]></style>
<script type="text/javascript"><![CDATA[
var edges = document.getElementsByTagName('g');
if (edges && edges.length) {
  for (var i=0;i<edges.length;i++) {
    if (edges[i].id.substr(0,4)=='edge') {
      edges[i].setAttribute('class','edge');
    }
  }
}
]]></script>
        <defs>
                <circle id="rim" cx="0" cy="0" r="7"/>
                <circle id="rim2" cx="0" cy="0" r="3.5"/>
                <g id="zoomPlus">
                        <use xlink:href="#rim" fill="#404040">
                                <set attributeName="fill" to="#808080" begin="zoomplus.mouseover" end="zoomplus.mouseout"/>
                        </use>
                        <path d="M-4,0h8M0,-4v8" fill="none" stroke="white" stroke-width="1.5" pointer-events="none"/>
                </g>
                <g id="zoomMin">
                        <use xlink:href="#rim" fill="#404040">
                                <set attributeName="fill" to="#808080" begin="zoomminus.mouseover" end="zoomminus.mouseout"/>
                        </use>
                        <path d="M-4,0h8" fill="none" stroke="white" stroke-width="1.5" pointer-events="none"/>
                </g>
                <g id="dirArrow">
                        <path fill="none" stroke="white" stroke-width="1.5" d="M0,-3.0v7 M-2.5,-0.5L0,-3.0L2.5,-0.5"/>
                </g>
               <g id="resetDef">
                       <use xlink:href="#rim2" fill="#404040">
                               <set attributeName="fill" to="#808080" begin="reset.mouseover" end="reset.mouseout"/>
                       </use>
               </g>
        </defs>

<script type="text/javascript">
var viewWidth = 648;
var viewHeight = 137;
var sectionId = 'dynsection-3';
</script>
<script xlink:href="svgpan.js"/>
<svg id="graph" class="graph">
<g id="viewport">
<title>artvision_instanton::Filter::~Filter</title>
<polygon fill="white" stroke="none" points="-4,4 -4,-133 644,-133 644,4 -4,4"/>
<!-- Node1 -->
<g id="node1" class="node"><title>Node1</title>
<polygon fill="#bfbfbf" stroke="black" points="0,-49.5 0,-79.5 98,-79.5 98,-49.5 0,-49.5"/>
<text text-anchor="start" x="8" y="-67.5" font-family="Helvetica,sans-Serif" font-size="10.00">artvision_instanton</text>
<text text-anchor="middle" x="49" y="-56.5" font-family="Helvetica,sans-Serif" font-size="10.00">::Filter::~Filter</text>
</g>
<!-- Node2 -->
<g id="node2" class="node"><title>Node2</title>
<g id="a_node2"><a xlink:href="classartvision__instanton_1_1_filter.html#aa578baecf0c606c58c7d3d528617ab1e" target="_top" xlink:title="Stop the filter. ">
<polygon fill="white" stroke="black" points="134,-49.5 134,-79.5 232,-79.5 232,-49.5 134,-49.5"/>
<text text-anchor="start" x="142" y="-67.5" font-family="Helvetica,sans-Serif" font-size="10.00">artvision_instanton</text>
<text text-anchor="middle" x="183" y="-56.5" font-family="Helvetica,sans-Serif" font-size="10.00">::Filter::stop</text>
</a>
</g>
</g>
<!-- Node1&#45;&gt;Node2 -->
<g id="edge1" class="edge"><title>Node1&#45;&gt;Node2</title>
<path fill="none" stroke="midnightblue" d="M98.0284,-64.5C106.309,-64.5 114.997,-64.5 123.517,-64.5"/>
<polygon fill="midnightblue" stroke="midnightblue" points="123.786,-68.0001 133.786,-64.5 123.786,-61.0001 123.786,-68.0001"/>
</g>
<!-- Node3 -->
<g id="node3" class="node"><title>Node3</title>
<g id="a_node3"><a xlink:href="classartvision__instanton_1_1_task.html#a8c8552ba5ffc975be097ab38484b70c8" target="_top" xlink:title="Cancel the thread. ">
<polygon fill="white" stroke="black" points="271,-98.5 271,-128.5 369,-128.5 369,-98.5 271,-98.5"/>
<text text-anchor="start" x="279" y="-116.5" font-family="Helvetica,sans-Serif" font-size="10.00">artvision_instanton</text>
<text text-anchor="middle" x="320" y="-105.5" font-family="Helvetica,sans-Serif" font-size="10.00">::Task::cancel</text>
</a>
</g>
</g>
<!-- Node2&#45;&gt;Node3 -->
<g id="edge2" class="edge"><title>Node2&#45;&gt;Node3</title>
<path fill="none" stroke="midnightblue" d="M225.606,-79.6014C238.951,-84.4451 253.887,-89.8664 267.834,-94.9285"/>
<polygon fill="midnightblue" stroke="midnightblue" points="266.705,-98.2422 277.299,-98.3641 269.093,-91.6622 266.705,-98.2422"/>
</g>
<!-- Node4 -->
<g id="node4" class="node"><title>Node4</title>
<g id="a_node4"><a xlink:href="classartvision__instanton_1_1_task.html#a6cf4d3140c2e47b69a465c0ca3f85b21" target="_top" xlink:title="Join the thread task. ">
<polygon fill="white" stroke="black" points="271,-49.5 271,-79.5 369,-79.5 369,-49.5 271,-49.5"/>
<text text-anchor="start" x="279" y="-67.5" font-family="Helvetica,sans-Serif" font-size="10.00">artvision_instanton</text>
<text text-anchor="middle" x="320" y="-56.5" font-family="Helvetica,sans-Serif" font-size="10.00">::Task::join</text>
</a>
</g>
</g>
<!-- Node2&#45;&gt;Node4 -->
<g id="edge3" class="edge"><title>Node2&#45;&gt;Node4</title>
<path fill="none" stroke="midnightblue" d="M232.357,-64.5C241.58,-64.5 251.323,-64.5 260.815,-64.5"/>
<polygon fill="midnightblue" stroke="midnightblue" points="260.981,-68.0001 270.981,-64.5 260.981,-61.0001 260.981,-68.0001"/>
</g>
<!-- Node7 -->
<g id="node7" class="node"><title>Node7</title>
<g id="a_node7"><a xlink:href="classartvision__instanton_1_1_task.html#a4b81a1ce9ae862e2ebfd508f2d74ab78" target="_top" xlink:title="clean_up: a place for resource management to do clean up in the svc() thread before its exit ...">
<polygon fill="white" stroke="black" points="268,-0.5 268,-30.5 372,-30.5 372,-0.5 268,-0.5"/>
<text text-anchor="start" x="276" y="-18.5" font-family="Helvetica,sans-Serif" font-size="10.00">artvision_instanton</text>
<text text-anchor="middle" x="320" y="-7.5" font-family="Helvetica,sans-Serif" font-size="10.00">::Task::svcCleanUp</text>
</a>
</g>
</g>
<!-- Node2&#45;&gt;Node7 -->
<g id="edge6" class="edge"><title>Node2&#45;&gt;Node7</title>
<path fill="none" stroke="midnightblue" d="M225.606,-49.3986C238.951,-44.5549 253.887,-39.1336 267.834,-34.0715"/>
<polygon fill="midnightblue" stroke="midnightblue" points="269.093,-37.3378 277.299,-30.6359 266.705,-30.7578 269.093,-37.3378"/>
</g>
<!-- Node5 -->
<g id="node5" class="node"><title>Node5</title>
<g id="a_node5"><a xlink:href="classartvision__instanton_1_1_thread.html#a4d9d788e98388a3217831a9046709deb" target="_top" xlink:title="Join the thread. ">
<polygon fill="white" stroke="black" points="408,-49.5 408,-79.5 506,-79.5 506,-49.5 408,-49.5"/>
<text text-anchor="start" x="416" y="-67.5" font-family="Helvetica,sans-Serif" font-size="10.00">artvision_instanton</text>
<text text-anchor="middle" x="457" y="-56.5" font-family="Helvetica,sans-Serif" font-size="10.00">::Thread::join</text>
</a>
</g>
</g>
<!-- Node4&#45;&gt;Node5 -->
<g id="edge4" class="edge"><title>Node4&#45;&gt;Node5</title>
<path fill="none" stroke="midnightblue" d="M369.357,-64.5C378.58,-64.5 388.323,-64.5 397.815,-64.5"/>
<polygon fill="midnightblue" stroke="midnightblue" points="397.981,-68.0001 407.981,-64.5 397.981,-61.0001 397.981,-68.0001"/>
</g>
<!-- Node6 -->
<g id="node6" class="node"><title>Node6</title>
<g id="a_node6"><a xlink:href="classartvision__instanton_1_1_runnable.html#ab169148781de29d0a3c25bb7b99307f1" target="_top" xlink:title="Entry point for the runnable. ">
<polygon fill="white" stroke="black" points="542,-49.5 542,-79.5 640,-79.5 640,-49.5 542,-49.5"/>
<text text-anchor="start" x="550" y="-67.5" font-family="Helvetica,sans-Serif" font-size="10.00">artvision_instanton</text>
<text text-anchor="middle" x="591" y="-56.5" font-family="Helvetica,sans-Serif" font-size="10.00">::Runnable::run</text>
</a>
</g>
</g>
<!-- Node5&#45;&gt;Node6 -->
<g id="edge5" class="edge"><title>Node5&#45;&gt;Node6</title>
<path fill="none" stroke="midnightblue" d="M506.028,-64.5C514.309,-64.5 522.997,-64.5 531.517,-64.5"/>
<polygon fill="midnightblue" stroke="midnightblue" points="531.786,-68.0001 541.786,-64.5 531.786,-61.0001 531.786,-68.0001"/>
</g>
<!-- Node8 -->
<g id="node8" class="node"><title>Node8</title>
<g id="a_node8"><a xlink:href="namespaceartvision__instanton.html#a36563a91836ffd3b89afe9b9e3ee7d02" target="_top" xlink:title="artvision_instanton\l::setThreadPriority">
<polygon fill="white" stroke="black" points="408,-0.5 408,-30.5 506,-30.5 506,-0.5 408,-0.5"/>
<text text-anchor="start" x="416" y="-18.5" font-family="Helvetica,sans-Serif" font-size="10.00">artvision_instanton</text>
<text text-anchor="middle" x="457" y="-7.5" font-family="Helvetica,sans-Serif" font-size="10.00">::setThreadPriority</text>
</a>
</g>
</g>
<!-- Node7&#45;&gt;Node8 -->
<g id="edge7" class="edge"><title>Node7&#45;&gt;Node8</title>
<path fill="none" stroke="midnightblue" d="M372.038,-15.5C380.319,-15.5 388.952,-15.5 397.396,-15.5"/>
<polygon fill="midnightblue" stroke="midnightblue" points="397.566,-19.0001 407.566,-15.5 397.566,-12.0001 397.566,-19.0001"/>
</g>
<!-- Node9 -->
<g id="node9" class="node"><title>Node9</title>
<g id="a_node9"><a xlink:href="namespaceartvision__instanton.html#a13f6fbbe42247d249a6d070c3c33446f" target="_top" xlink:title="artvision_instanton\l::round">
<polygon fill="white" stroke="black" points="542,-0.5 542,-30.5 640,-30.5 640,-0.5 542,-0.5"/>
<text text-anchor="start" x="550" y="-18.5" font-family="Helvetica,sans-Serif" font-size="10.00">artvision_instanton</text>
<text text-anchor="middle" x="591" y="-7.5" font-family="Helvetica,sans-Serif" font-size="10.00">::round</text>
</a>
</g>
</g>
<!-- Node8&#45;&gt;Node9 -->
<g id="edge8" class="edge"><title>Node8&#45;&gt;Node9</title>
<path fill="none" stroke="midnightblue" d="M506.028,-15.5C514.309,-15.5 522.997,-15.5 531.517,-15.5"/>
<polygon fill="midnightblue" stroke="midnightblue" points="531.786,-19.0001 541.786,-15.5 531.786,-12.0001 531.786,-19.0001"/>
</g>
</g>
</svg>
        <g id="navigator" transform="translate(0 0)" fill="#404254">
                <rect fill="#f2f5e9" fill-opacity="0.5" stroke="#606060" stroke-width=".5" x="0" y="0" width="60" height="60"/>
                <use id="zoomplus" xlink:href="#zoomPlus" x="17" y="9" onmousedown="handleZoom(evt,'in')"/>
                <use id="zoomminus" xlink:href="#zoomMin" x="42" y="9" onmousedown="handleZoom(evt,'out')"/>
                <use id="reset" xlink:href="#resetDef" x="30" y="36" onmousedown="handleReset()"/>
                <g id="arrowUp" xlink:href="#dirArrow" transform="translate(30 24)" onmousedown="handlePan(0,-1)">
                  <use xlink:href="#rim" fill="#404040">
                        <set attributeName="fill" to="#808080" begin="arrowUp.mouseover" end="arrowUp.mouseout"/>
                  </use>
                  <path fill="none" stroke="white" stroke-width="1.5" d="M0,-3.0v7 M-2.5,-0.5L0,-3.0L2.5,-0.5"/>
                </g>
                <g id="arrowRight" xlink:href="#dirArrow" transform="rotate(90) translate(36 -43)" onmousedown="handlePan(1,0)">
                  <use xlink:href="#rim" fill="#404040">
                        <set attributeName="fill" to="#808080" begin="arrowRight.mouseover" end="arrowRight.mouseout"/>
                  </use>
                  <path fill="none" stroke="white" stroke-width="1.5" d="M0,-3.0v7 M-2.5,-0.5L0,-3.0L2.5,-0.5"/>
                </g>
                <g id="arrowDown" xlink:href="#dirArrow" transform="rotate(180) translate(-30 -48)" onmousedown="handlePan(0,1)">
                  <use xlink:href="#rim" fill="#404040">
                        <set attributeName="fill" to="#808080" begin="arrowDown.mouseover" end="arrowDown.mouseout"/>
                  </use>
                  <path fill="none" stroke="white" stroke-width="1.5" d="M0,-3.0v7 M-2.5,-0.5L0,-3.0L2.5,-0.5"/>
                </g>
                <g id="arrowLeft" xlink:href="#dirArrow" transform="rotate(270) translate(-36 17)" onmousedown="handlePan(-1,0)">
                  <use xlink:href="#rim" fill="#404040">
                        <set attributeName="fill" to="#808080" begin="arrowLeft.mouseover" end="arrowLeft.mouseout"/>
                  </use>
                  <path fill="none" stroke="white" stroke-width="1.5" d="M0,-3.0v7 M-2.5,-0.5L0,-3.0L2.5,-0.5"/>
                </g>
        </g>
        <svg viewBox="0 0 15 15" width="100%" height="30px" preserveAspectRatio="xMaxYMin meet">
         <g id="arrow_out" transform="scale(0.3 0.3)">
          <a xlink:href="classartvision__instanton_1_1_filter_a502ee334d42eac3edbaf32b599f9c35e_cgraph_org.svg" target="_base">
           <rect id="button" ry="5" rx="5" y="6" x="6" height="38" width="38"
                fill="#f2f5e9" fill-opacity="0.5" stroke="#606060" stroke-width="1.0"/>
           <path id="arrow"
             d="M 11.500037,31.436501 C 11.940474,20.09759 22.043105,11.32322 32.158766,21.979434 L 37.068811,17.246167 C 37.068811,17.246167 37.088388,32 37.088388,32 L 22.160133,31.978069 C 22.160133,31.978069 26.997745,27.140456 26.997745,27.140456 C 18.528582,18.264221 13.291696,25.230495 11.500037,31.436501 z"
             style="fill:#404040;"/>
          </a>
         </g>
        </svg>
</svg>
