<?xml version="1.0" encoding="UTF-8" standalone="no"?>
<!DOCTYPE svg PUBLIC "-//W3C//DTD SVG 1.1//EN"
 "http://www.w3.org/Graphics/SVG/1.1/DTD/svg11.dtd">
<!-- Generated by graphviz version 2.38.0 (20140413.2041)
 -->
<!-- Title: artvision_instanton::VideoStreamYUV::VideoStreamYUV Pages: 1 -->
<svg width="461pt" height="39pt"
 viewBox="0.00 0.00 461.00 39.00" xmlns="http://www.w3.org/2000/svg" xmlns:xlink="http://www.w3.org/1999/xlink">
<g id="graph0" class="graph" transform="scale(1 1) rotate(0) translate(4 35)">
<title>artvision_instanton::VideoStreamYUV::VideoStreamYUV</title>
<polygon fill="white" stroke="none" points="-4,4 -4,-35 457,-35 457,4 -4,4"/>
<!-- Node1 -->
<g id="node1" class="node"><title>Node1</title>
<polygon fill="#bfbfbf" stroke="black" points="0,-0.5 0,-30.5 183,-30.5 183,-0.5 0,-0.5"/>
<text text-anchor="start" x="8" y="-18.5" font-family="Helvetica,sans-Serif" font-size="10.00">artvision_instanton</text>
<text text-anchor="middle" x="91.5" y="-7.5" font-family="Helvetica,sans-Serif" font-size="10.00">::VideoStreamYUV::VideoStreamYUV</text>
</g>
<!-- Node2 -->
<g id="node2" class="node"><title>Node2</title>
<g id="a_node2"><a xlink:href="classartvision__instanton_1_1_stream.html#af3c202c1e84a14a7e2125db080dd4a79" target="_top" xlink:title="Set the name of the stream. ">
<polygon fill="white" stroke="black" points="219,-0.5 219,-30.5 319,-30.5 319,-0.5 219,-0.5"/>
<text text-anchor="start" x="227" y="-18.5" font-family="Helvetica,sans-Serif" font-size="10.00">artvision_instanton</text>
<text text-anchor="middle" x="269" y="-7.5" font-family="Helvetica,sans-Serif" font-size="10.00">::Stream::setName</text>
</a>
</g>
</g>
<!-- Node1&#45;&gt;Node2 -->
<g id="edge1" class="edge"><title>Node1&#45;&gt;Node2</title>
<path fill="none" stroke="midnightblue" d="M183.077,-15.5C191.681,-15.5 200.249,-15.5 208.449,-15.5"/>
<polygon fill="midnightblue" stroke="midnightblue" points="208.614,-19.0001 218.614,-15.5 208.614,-12.0001 208.614,-19.0001"/>
</g>
<!-- Node3 -->
<g id="node3" class="node"><title>Node3</title>
<g id="a_node3"><a xlink:href="classartvision__instanton_1_1_stream.html#aef76079019e4f47542ef06754038bbe0" target="_top" xlink:title="artvision_instanton\l::Stream::name">
<polygon fill="white" stroke="black" points="355,-0.5 355,-30.5 453,-30.5 453,-0.5 355,-0.5"/>
<text text-anchor="start" x="363" y="-18.5" font-family="Helvetica,sans-Serif" font-size="10.00">artvision_instanton</text>
<text text-anchor="middle" x="404" y="-7.5" font-family="Helvetica,sans-Serif" font-size="10.00">::Stream::name</text>
</a>
</g>
</g>
<!-- Node2&#45;&gt;Node3 -->
<g id="edge2" class="edge"><title>Node2&#45;&gt;Node3</title>
<path fill="none" stroke="midnightblue" d="M319.146,-15.5C327.458,-15.5 336.159,-15.5 344.678,-15.5"/>
<polygon fill="midnightblue" stroke="midnightblue" points="344.941,-19.0001 354.941,-15.5 344.941,-12.0001 344.941,-19.0001"/>
</g>
</g>
</svg>
