<?xml version="1.0" encoding="UTF-8" standalone="no"?>
<!DOCTYPE svg PUBLIC "-//W3C//DTD SVG 1.1//EN"
 "http://www.w3.org/Graphics/SVG/1.1/DTD/svg11.dtd">
<!-- Generated by graphviz version 2.38.0 (20140413.2041)
 -->
<!-- Title: artvision_instanton::Filter::status Pages: 1 -->
<svg width="648pt" height="415pt"
 viewBox="0.00 0.00 648.00 415.00" xmlns="http://www.w3.org/2000/svg" xmlns:xlink="http://www.w3.org/1999/xlink">
<g id="graph0" class="graph" transform="scale(1 1) rotate(0) translate(4 411)">
<title>artvision_instanton::Filter::status</title>
<polygon fill="white" stroke="none" points="-4,4 -4,-411 644,-411 644,4 -4,4"/>
<!-- Node1 -->
<g id="node1" class="node"><title>Node1</title>
<polygon fill="#bfbfbf" stroke="black" points="0,-154.5 0,-184.5 98,-184.5 98,-154.5 0,-154.5"/>
<text text-anchor="start" x="8" y="-172.5" font-family="Helvetica,sans-Serif" font-size="10.00">artvision_instanton</text>
<text text-anchor="middle" x="49" y="-161.5" font-family="Helvetica,sans-Serif" font-size="10.00">::Filter::status</text>
</g>
<!-- Node2 -->
<g id="node2" class="node"><title>Node2</title>
<g id="a_node2"><a xlink:href="classartvision__instanton_1_1_filter.html#a8e399a77a60c208c885a6d3d4497ed63" target="_top" xlink:title="Connect another filter to receive containers. ">
<polygon fill="white" stroke="black" points="134,-351.5 134,-381.5 232,-381.5 232,-351.5 134,-351.5"/>
<text text-anchor="start" x="142" y="-369.5" font-family="Helvetica,sans-Serif" font-size="10.00">artvision_instanton</text>
<text text-anchor="middle" x="183" y="-358.5" font-family="Helvetica,sans-Serif" font-size="10.00">::Filter::connect</text>
</a>
</g>
</g>
<!-- Node1&#45;&gt;Node2 -->
<g id="edge1" class="edge"><title>Node1&#45;&gt;Node2</title>
<path fill="none" stroke="midnightblue" d="M53.91,-184.729C62.9427,-217.255 88.0787,-294.375 134,-341.5 135.377,-342.913 136.851,-344.263 138.397,-345.55"/>
<polygon fill="midnightblue" stroke="midnightblue" points="136.45,-348.46 146.61,-351.466 140.542,-342.781 136.45,-348.46"/>
</g>
<!-- Node3 -->
<g id="node3" class="node"><title>Node3</title>
<g id="a_node3"><a xlink:href="classartvision__instanton_1_1_filter.html#a3e94d07d5bb67bbc930b1c3983445ec4" target="_top" xlink:title="Start the filter. ">
<polygon fill="white" stroke="black" points="134,-302.5 134,-332.5 232,-332.5 232,-302.5 134,-302.5"/>
<text text-anchor="start" x="142" y="-320.5" font-family="Helvetica,sans-Serif" font-size="10.00">artvision_instanton</text>
<text text-anchor="middle" x="183" y="-309.5" font-family="Helvetica,sans-Serif" font-size="10.00">::Filter::start</text>
</a>
</g>
</g>
<!-- Node1&#45;&gt;Node3 -->
<g id="edge2" class="edge"><title>Node1&#45;&gt;Node3</title>
<path fill="none" stroke="midnightblue" d="M62.9029,-184.791C79.2301,-204.049 108.322,-238.06 134,-266.5 142.571,-275.993 152.202,-286.295 160.576,-295.139"/>
<polygon fill="midnightblue" stroke="midnightblue" points="158.125,-297.641 167.552,-302.478 163.199,-292.819 158.125,-297.641"/>
</g>
<!-- Node7 -->
<g id="node7" class="node"><title>Node7</title>
<g id="a_node7"><a xlink:href="classartvision__instanton_1_1_filter.html#aa578baecf0c606c58c7d3d528617ab1e" target="_top" xlink:title="Stop the filter. ">
<polygon fill="white" stroke="black" points="134,-227.5 134,-257.5 232,-257.5 232,-227.5 134,-227.5"/>
<text text-anchor="start" x="142" y="-245.5" font-family="Helvetica,sans-Serif" font-size="10.00">artvision_instanton</text>
<text text-anchor="middle" x="183" y="-234.5" font-family="Helvetica,sans-Serif" font-size="10.00">::Filter::stop</text>
</a>
</g>
</g>
<!-- Node1&#45;&gt;Node7 -->
<g id="edge6" class="edge"><title>Node1&#45;&gt;Node7</title>
<path fill="none" stroke="midnightblue" d="M77.3505,-184.626C97.1731,-195.588 124.178,-210.522 145.789,-222.474"/>
<polygon fill="midnightblue" stroke="midnightblue" points="144.24,-225.617 154.685,-227.394 147.627,-219.491 144.24,-225.617"/>
</g>
<!-- Node15 -->
<g id="node15" class="node"><title>Node15</title>
<g id="a_node15"><a xlink:href="classartvision__instanton_1_1_filter.html#ac2884c25d6bed9467810757cb0751c10" target="_top" xlink:title="Send a container to the child filters. ">
<polygon fill="white" stroke="black" points="134,-176.5 134,-206.5 232,-206.5 232,-176.5 134,-176.5"/>
<text text-anchor="start" x="142" y="-194.5" font-family="Helvetica,sans-Serif" font-size="10.00">artvision_instanton</text>
<text text-anchor="middle" x="183" y="-183.5" font-family="Helvetica,sans-Serif" font-size="10.00">::Filter::send</text>
</a>
</g>
</g>
<!-- Node1&#45;&gt;Node15 -->
<g id="edge14" class="edge"><title>Node1&#45;&gt;Node15</title>
<path fill="none" stroke="midnightblue" d="M98.0284,-177.505C106.4,-178.9 115.188,-180.365 123.798,-181.8"/>
<polygon fill="midnightblue" stroke="midnightblue" points="123.347,-185.273 133.786,-183.464 124.498,-178.368 123.347,-185.273"/>
</g>
<!-- Node16 -->
<g id="node16" class="node"><title>Node16</title>
<g id="a_node16"><a xlink:href="classartvision__instanton_1_1_filter.html#a1fbc71bbe5593fa4ac9b71b5ac85738a" target="_top" xlink:title="Push a container onto the queue. ">
<polygon fill="white" stroke="black" points="134,-88.5 134,-118.5 232,-118.5 232,-88.5 134,-88.5"/>
<text text-anchor="start" x="142" y="-106.5" font-family="Helvetica,sans-Serif" font-size="10.00">artvision_instanton</text>
<text text-anchor="middle" x="183" y="-95.5" font-family="Helvetica,sans-Serif" font-size="10.00">::Filter::push</text>
</a>
</g>
</g>
<!-- Node1&#45;&gt;Node16 -->
<g id="edge15" class="edge"><title>Node1&#45;&gt;Node16</title>
<path fill="none" stroke="midnightblue" d="M80.2835,-154.358C98.8133,-145.093 122.718,-133.141 142.697,-123.151"/>
<polygon fill="midnightblue" stroke="midnightblue" points="144.478,-126.174 151.857,-118.571 141.348,-119.913 144.478,-126.174"/>
</g>
<!-- Node18 -->
<g id="node18" class="node"><title>Node18</title>
<g id="a_node18"><a xlink:href="classartvision__instanton_1_1_filter.html#aa194c3a0ef8a2ee9f980401f41985cf4" target="_top" xlink:title="Receive a container. ">
<polygon fill="white" stroke="black" points="271,-131.5 271,-161.5 369,-161.5 369,-131.5 271,-131.5"/>
<text text-anchor="start" x="279" y="-149.5" font-family="Helvetica,sans-Serif" font-size="10.00">artvision_instanton</text>
<text text-anchor="middle" x="320" y="-138.5" font-family="Helvetica,sans-Serif" font-size="10.00">::Filter::receive</text>
</a>
</g>
</g>
<!-- Node1&#45;&gt;Node18 -->
<g id="edge20" class="edge"><title>Node1&#45;&gt;Node18</title>
<path fill="none" stroke="midnightblue" d="M98.0918,-165.388C143.662,-161.492 212.183,-155.633 260.812,-151.475"/>
<polygon fill="midnightblue" stroke="midnightblue" points="261.206,-154.954 270.872,-150.615 260.61,-147.98 261.206,-154.954"/>
</g>
<!-- Node19 -->
<g id="node19" class="node"><title>Node19</title>
<g id="a_node19"><a xlink:href="classartvision__instanton_1_1_filter.html#ac1daec097c13a7e005102588d5ad5c87" target="_top" xlink:title="Call by the filter thread loop when there is no container. ">
<polygon fill="white" stroke="black" points="271,-33.5 271,-63.5 369,-63.5 369,-33.5 271,-33.5"/>
<text text-anchor="start" x="279" y="-51.5" font-family="Helvetica,sans-Serif" font-size="10.00">artvision_instanton</text>
<text text-anchor="middle" x="320" y="-40.5" font-family="Helvetica,sans-Serif" font-size="10.00">::Filter::process</text>
</a>
</g>
</g>
<!-- Node1&#45;&gt;Node19 -->
<g id="edge21" class="edge"><title>Node1&#45;&gt;Node19</title>
<path fill="none" stroke="midnightblue" d="M59.2534,-154.349C72.8461,-133.534 100.288,-96.6148 134,-78.5 172.774,-57.6652 222.23,-50.4728 260.25,-48.3226"/>
<polygon fill="midnightblue" stroke="midnightblue" points="260.825,-51.7999 270.653,-47.8427 260.502,-44.8073 260.825,-51.7999"/>
</g>
<!-- Node20 -->
<g id="node20" class="node"><title>Node20</title>
<g id="a_node20"><a xlink:href="classartvision__instanton_1_1_filter.html#a63775978e2342a26c556cd5c762bb353" target="_top" xlink:title="Flush all data from filter. ">
<polygon fill="white" stroke="black" points="134,-0.5 134,-30.5 232,-30.5 232,-0.5 134,-0.5"/>
<text text-anchor="start" x="142" y="-18.5" font-family="Helvetica,sans-Serif" font-size="10.00">artvision_instanton</text>
<text text-anchor="middle" x="183" y="-7.5" font-family="Helvetica,sans-Serif" font-size="10.00">::Filter::flush</text>
</a>
</g>
</g>
<!-- Node1&#45;&gt;Node20 -->
<g id="edge19" class="edge"><title>Node1&#45;&gt;Node20</title>
<path fill="none" stroke="midnightblue" d="M57.5961,-154.285C70.6135,-129.314 99.1777,-79.0635 134,-45.5 137.313,-42.3065 141.021,-39.2774 144.867,-36.4596"/>
<polygon fill="midnightblue" stroke="midnightblue" points="147.111,-39.1658 153.41,-30.6464 143.173,-33.3785 147.111,-39.1658"/>
</g>
<!-- Node4 -->
<g id="node4" class="node"><title>Node4</title>
<g id="a_node4"><a xlink:href="classartvision__instanton_1_1_task.html#a5d6a1d3c6cd5b587d2414737fab9f3ed" target="_top" xlink:title="Start the task. ">
<polygon fill="white" stroke="black" points="271,-376.5 271,-406.5 369,-406.5 369,-376.5 271,-376.5"/>
<text text-anchor="start" x="279" y="-394.5" font-family="Helvetica,sans-Serif" font-size="10.00">artvision_instanton</text>
<text text-anchor="middle" x="320" y="-383.5" font-family="Helvetica,sans-Serif" font-size="10.00">::Task::start</text>
</a>
</g>
</g>
<!-- Node3&#45;&gt;Node4 -->
<g id="edge3" class="edge"><title>Node3&#45;&gt;Node4</title>
<path fill="none" stroke="midnightblue" d="M214.281,-332.527C220.231,-335.688 226.371,-339.098 232,-342.5 248.672,-352.575 251.128,-357.763 268,-367.5 270.503,-368.944 273.107,-370.375 275.756,-371.776"/>
<polygon fill="midnightblue" stroke="midnightblue" points="274.35,-374.987 284.85,-376.399 277.522,-368.747 274.35,-374.987"/>
</g>
<!-- Node6 -->
<g id="node6" class="node"><title>Node6</title>
<g id="a_node6"><a xlink:href="classartvision__instanton_1_1_task.html#aed1edcdf4d79cbdb49a6f8fb4ef1fe98" target="_top" xlink:title="set_up: a place for resource allocation for/in the svc() thread after its starting point ...">
<polygon fill="white" stroke="black" points="271,-327.5 271,-357.5 369,-357.5 369,-327.5 271,-327.5"/>
<text text-anchor="start" x="279" y="-345.5" font-family="Helvetica,sans-Serif" font-size="10.00">artvision_instanton</text>
<text text-anchor="middle" x="320" y="-334.5" font-family="Helvetica,sans-Serif" font-size="10.00">::Task::svcSetUp</text>
</a>
</g>
</g>
<!-- Node3&#45;&gt;Node6 -->
<g id="edge5" class="edge"><title>Node3&#45;&gt;Node6</title>
<path fill="none" stroke="midnightblue" d="M232.357,-326.455C241.678,-328.181 251.53,-330.006 261.118,-331.781"/>
<polygon fill="midnightblue" stroke="midnightblue" points="260.511,-335.228 270.981,-333.608 261.785,-328.345 260.511,-335.228"/>
</g>
<!-- Node5 -->
<g id="node5" class="node"><title>Node5</title>
<g id="a_node5"><a xlink:href="classartvision__instanton_1_1_thread.html#a51bc5725c88a3c82465234fbaf271881" target="_top" xlink:title="Create the thread. ">
<polygon fill="white" stroke="black" points="408,-376.5 408,-406.5 506,-406.5 506,-376.5 408,-376.5"/>
<text text-anchor="start" x="416" y="-394.5" font-family="Helvetica,sans-Serif" font-size="10.00">artvision_instanton</text>
<text text-anchor="middle" x="457" y="-383.5" font-family="Helvetica,sans-Serif" font-size="10.00">::Thread::create</text>
</a>
</g>
</g>
<!-- Node4&#45;&gt;Node5 -->
<g id="edge4" class="edge"><title>Node4&#45;&gt;Node5</title>
<path fill="none" stroke="midnightblue" d="M369.357,-391.5C378.58,-391.5 388.323,-391.5 397.815,-391.5"/>
<polygon fill="midnightblue" stroke="midnightblue" points="397.981,-395 407.981,-391.5 397.981,-388 397.981,-395"/>
</g>
<!-- Node8 -->
<g id="node8" class="node"><title>Node8</title>
<g id="a_node8"><a xlink:href="classartvision__instanton_1_1_task.html#a8c8552ba5ffc975be097ab38484b70c8" target="_top" xlink:title="Cancel the thread. ">
<polygon fill="white" stroke="black" points="271,-180.5 271,-210.5 369,-210.5 369,-180.5 271,-180.5"/>
<text text-anchor="start" x="279" y="-198.5" font-family="Helvetica,sans-Serif" font-size="10.00">artvision_instanton</text>
<text text-anchor="middle" x="320" y="-187.5" font-family="Helvetica,sans-Serif" font-size="10.00">::Task::cancel</text>
</a>
</g>
</g>
<!-- Node7&#45;&gt;Node8 -->
<g id="edge7" class="edge"><title>Node7&#45;&gt;Node8</title>
<path fill="none" stroke="midnightblue" d="M227.086,-227.5C239.507,-223.175 253.203,-218.407 266.145,-213.902"/>
<polygon fill="midnightblue" stroke="midnightblue" points="267.567,-217.112 275.86,-210.519 265.265,-210.502 267.567,-217.112"/>
</g>
<!-- Node9 -->
<g id="node9" class="node"><title>Node9</title>
<g id="a_node9"><a xlink:href="classartvision__instanton_1_1_task.html#a6cf4d3140c2e47b69a465c0ca3f85b21" target="_top" xlink:title="Join the thread task. ">
<polygon fill="white" stroke="black" points="271,-278.5 271,-308.5 369,-308.5 369,-278.5 271,-278.5"/>
<text text-anchor="start" x="279" y="-296.5" font-family="Helvetica,sans-Serif" font-size="10.00">artvision_instanton</text>
<text text-anchor="middle" x="320" y="-285.5" font-family="Helvetica,sans-Serif" font-size="10.00">::Task::join</text>
</a>
</g>
</g>
<!-- Node7&#45;&gt;Node9 -->
<g id="edge8" class="edge"><title>Node7&#45;&gt;Node9</title>
<path fill="none" stroke="midnightblue" d="M223.774,-257.526C238.066,-262.925 254.364,-269.082 269.388,-274.758"/>
<polygon fill="midnightblue" stroke="midnightblue" points="268.452,-278.145 279.043,-278.405 270.926,-271.597 268.452,-278.145"/>
</g>
<!-- Node12 -->
<g id="node12" class="node"><title>Node12</title>
<g id="a_node12"><a xlink:href="classartvision__instanton_1_1_task.html#a4b81a1ce9ae862e2ebfd508f2d74ab78" target="_top" xlink:title="clean_up: a place for resource management to do clean up in the svc() thread before its exit ...">
<polygon fill="white" stroke="black" points="268,-229.5 268,-259.5 372,-259.5 372,-229.5 268,-229.5"/>
<text text-anchor="start" x="276" y="-247.5" font-family="Helvetica,sans-Serif" font-size="10.00">artvision_instanton</text>
<text text-anchor="middle" x="320" y="-236.5" font-family="Helvetica,sans-Serif" font-size="10.00">::Task::svcCleanUp</text>
</a>
</g>
</g>
<!-- Node7&#45;&gt;Node12 -->
<g id="edge11" class="edge"><title>Node7&#45;&gt;Node12</title>
<path fill="none" stroke="midnightblue" d="M232.357,-243.216C240.533,-243.338 249.117,-243.465 257.573,-243.59"/>
<polygon fill="midnightblue" stroke="midnightblue" points="257.737,-247.093 267.788,-243.741 257.841,-240.093 257.737,-247.093"/>
</g>
<!-- Node10 -->
<g id="node10" class="node"><title>Node10</title>
<g id="a_node10"><a xlink:href="classartvision__instanton_1_1_thread.html#a4d9d788e98388a3217831a9046709deb" target="_top" xlink:title="Join the thread. ">
<polygon fill="white" stroke="black" points="408,-278.5 408,-308.5 506,-308.5 506,-278.5 408,-278.5"/>
<text text-anchor="start" x="416" y="-296.5" font-family="Helvetica,sans-Serif" font-size="10.00">artvision_instanton</text>
<text text-anchor="middle" x="457" y="-285.5" font-family="Helvetica,sans-Serif" font-size="10.00">::Thread::join</text>
</a>
</g>
</g>
<!-- Node9&#45;&gt;Node10 -->
<g id="edge9" class="edge"><title>Node9&#45;&gt;Node10</title>
<path fill="none" stroke="midnightblue" d="M369.357,-293.5C378.58,-293.5 388.323,-293.5 397.815,-293.5"/>
<polygon fill="midnightblue" stroke="midnightblue" points="397.981,-297 407.981,-293.5 397.981,-290 397.981,-297"/>
</g>
<!-- Node11 -->
<g id="node11" class="node"><title>Node11</title>
<g id="a_node11"><a xlink:href="classartvision__instanton_1_1_runnable.html#ab169148781de29d0a3c25bb7b99307f1" target="_top" xlink:title="Entry point for the runnable. ">
<polygon fill="white" stroke="black" points="542,-278.5 542,-308.5 640,-308.5 640,-278.5 542,-278.5"/>
<text text-anchor="start" x="550" y="-296.5" font-family="Helvetica,sans-Serif" font-size="10.00">artvision_instanton</text>
<text text-anchor="middle" x="591" y="-285.5" font-family="Helvetica,sans-Serif" font-size="10.00">::Runnable::run</text>
</a>
</g>
</g>
<!-- Node10&#45;&gt;Node11 -->
<g id="edge10" class="edge"><title>Node10&#45;&gt;Node11</title>
<path fill="none" stroke="midnightblue" d="M506.028,-293.5C514.309,-293.5 522.997,-293.5 531.517,-293.5"/>
<polygon fill="midnightblue" stroke="midnightblue" points="531.786,-297 541.786,-293.5 531.786,-290 531.786,-297"/>
</g>
<!-- Node13 -->
<g id="node13" class="node"><title>Node13</title>
<g id="a_node13"><a xlink:href="namespaceartvision__instanton.html#a36563a91836ffd3b89afe9b9e3ee7d02" target="_top" xlink:title="artvision_instanton\l::setThreadPriority">
<polygon fill="white" stroke="black" points="408,-229.5 408,-259.5 506,-259.5 506,-229.5 408,-229.5"/>
<text text-anchor="start" x="416" y="-247.5" font-family="Helvetica,sans-Serif" font-size="10.00">artvision_instanton</text>
<text text-anchor="middle" x="457" y="-236.5" font-family="Helvetica,sans-Serif" font-size="10.00">::setThreadPriority</text>
</a>
</g>
</g>
<!-- Node12&#45;&gt;Node13 -->
<g id="edge12" class="edge"><title>Node12&#45;&gt;Node13</title>
<path fill="none" stroke="midnightblue" d="M372.038,-244.5C380.319,-244.5 388.952,-244.5 397.396,-244.5"/>
<polygon fill="midnightblue" stroke="midnightblue" points="397.566,-248 407.566,-244.5 397.566,-241 397.566,-248"/>
</g>
<!-- Node14 -->
<g id="node14" class="node"><title>Node14</title>
<g id="a_node14"><a xlink:href="namespaceartvision__instanton.html#a13f6fbbe42247d249a6d070c3c33446f" target="_top" xlink:title="artvision_instanton\l::round">
<polygon fill="white" stroke="black" points="542,-229.5 542,-259.5 640,-259.5 640,-229.5 542,-229.5"/>
<text text-anchor="start" x="550" y="-247.5" font-family="Helvetica,sans-Serif" font-size="10.00">artvision_instanton</text>
<text text-anchor="middle" x="591" y="-236.5" font-family="Helvetica,sans-Serif" font-size="10.00">::round</text>
</a>
</g>
</g>
<!-- Node13&#45;&gt;Node14 -->
<g id="edge13" class="edge"><title>Node13&#45;&gt;Node14</title>
<path fill="none" stroke="midnightblue" d="M506.028,-244.5C514.309,-244.5 522.997,-244.5 531.517,-244.5"/>
<polygon fill="midnightblue" stroke="midnightblue" points="531.786,-248 541.786,-244.5 531.786,-241 531.786,-248"/>
</g>
<!-- Node17 -->
<g id="node17" class="node"><title>Node17</title>
<g id="a_node17"><a xlink:href="classartvision__instanton_1_1_filter.html#a10db18def7f8e09741de41467d3bf589" target="_top" xlink:title="Get the name of the filter. ">
<polygon fill="white" stroke="black" points="271,-82.5 271,-112.5 369,-112.5 369,-82.5 271,-82.5"/>
<text text-anchor="start" x="279" y="-100.5" font-family="Helvetica,sans-Serif" font-size="10.00">artvision_instanton</text>
<text text-anchor="middle" x="320" y="-89.5" font-family="Helvetica,sans-Serif" font-size="10.00">::Filter::name</text>
</a>
</g>
</g>
<!-- Node16&#45;&gt;Node17 -->
<g id="edge16" class="edge"><title>Node16&#45;&gt;Node17</title>
<path fill="none" stroke="midnightblue" d="M232.357,-101.351C241.58,-100.941 251.323,-100.508 260.815,-100.086"/>
<polygon fill="midnightblue" stroke="midnightblue" points="261.146,-103.575 270.981,-99.6342 260.835,-96.5817 261.146,-103.575"/>
</g>
<!-- Node16&#45;&gt;Node18 -->
<g id="edge17" class="edge"><title>Node16&#45;&gt;Node18</title>
<path fill="none" stroke="midnightblue" d="M231.216,-118.539C241.127,-121.696 251.681,-125.058 261.908,-128.315"/>
<polygon fill="midnightblue" stroke="midnightblue" points="260.991,-131.696 271.582,-131.396 263.116,-125.027 260.991,-131.696"/>
</g>
<!-- Node16&#45;&gt;Node19 -->
<g id="edge18" class="edge"><title>Node16&#45;&gt;Node19</title>
<path fill="none" stroke="midnightblue" d="M220.889,-88.471C236.813,-81.9837 255.62,-74.3216 272.486,-67.4503"/>
<polygon fill="midnightblue" stroke="midnightblue" points="274.215,-70.5252 282.155,-63.5108 271.574,-64.0425 274.215,-70.5252"/>
</g>
</g>
</svg>
