<?xml version="1.0" encoding="UTF-8" standalone="no"?>
<!DOCTYPE svg PUBLIC "-//W3C//DTD SVG 1.1//EN"
 "http://www.w3.org/Graphics/SVG/1.1/DTD/svg11.dtd">
<!-- Generated by graphviz version 2.38.0 (20140413.2041)
 -->
<!-- Title: artvision_instanton::TrackIndex::debug_print Pages: 1 -->
<svg width="404pt" height="88pt"
 viewBox="0.00 0.00 404.00 88.00" xmlns="http://www.w3.org/2000/svg" xmlns:xlink="http://www.w3.org/1999/xlink">
<g id="graph0" class="graph" transform="scale(1 1) rotate(0) translate(4 84)">
<title>artvision_instanton::TrackIndex::debug_print</title>
<polygon fill="white" stroke="none" points="-4,4 -4,-84 400,-84 400,4 -4,4"/>
<!-- Node1 -->
<g id="node1" class="node"><title>Node1</title>
<polygon fill="#bfbfbf" stroke="black" points="0,-24.5 0,-54.5 128,-54.5 128,-24.5 0,-24.5"/>
<text text-anchor="start" x="8" y="-42.5" font-family="Helvetica,sans-Serif" font-size="10.00">artvision_instanton</text>
<text text-anchor="middle" x="64" y="-31.5" font-family="Helvetica,sans-Serif" font-size="10.00">::TrackIndex::debug_print</text>
</g>
<!-- Node2 -->
<g id="node2" class="node"><title>Node2</title>
<g id="a_node2"><a xlink:href="namespaceartvision__instanton.html#aa2485b1beb10d61e34223e3e30afa41a" target="_top" xlink:title="Create directories for a path the filesystem. ">
<polygon fill="white" stroke="black" points="164,-24.5 164,-54.5 262,-54.5 262,-24.5 164,-24.5"/>
<text text-anchor="start" x="172" y="-42.5" font-family="Helvetica,sans-Serif" font-size="10.00">artvision_instanton</text>
<text text-anchor="middle" x="213" y="-31.5" font-family="Helvetica,sans-Serif" font-size="10.00">::CreatePath</text>
</a>
</g>
</g>
<!-- Node1&#45;&gt;Node2 -->
<g id="edge1" class="edge"><title>Node1&#45;&gt;Node2</title>
<path fill="none" stroke="midnightblue" d="M128.194,-39.5C136.714,-39.5 145.422,-39.5 153.849,-39.5"/>
<polygon fill="midnightblue" stroke="midnightblue" points="153.956,-43.0001 163.956,-39.5 153.956,-36.0001 153.956,-43.0001"/>
</g>
<!-- Node3 -->
<g id="node3" class="node"><title>Node3</title>
<g id="a_node3"><a xlink:href="namespaceartvision__instanton.html#a04be610d3380b7c29d2c9a31906d1243" target="_top" xlink:title="Check if a file exists and is a directory. ">
<polygon fill="white" stroke="black" points="298,-49.5 298,-79.5 396,-79.5 396,-49.5 298,-49.5"/>
<text text-anchor="start" x="306" y="-67.5" font-family="Helvetica,sans-Serif" font-size="10.00">artvision_instanton</text>
<text text-anchor="middle" x="347" y="-56.5" font-family="Helvetica,sans-Serif" font-size="10.00">::DirExists</text>
</a>
</g>
</g>
<!-- Node2&#45;&gt;Node3 -->
<g id="edge2" class="edge"><title>Node2&#45;&gt;Node3</title>
<path fill="none" stroke="midnightblue" d="M262.028,-48.5963C270.4,-50.1818 279.188,-51.8463 287.798,-53.4769"/>
<polygon fill="midnightblue" stroke="midnightblue" points="287.309,-56.9465 297.786,-55.3686 288.612,-50.0688 287.309,-56.9465"/>
</g>
<!-- Node4 -->
<g id="node4" class="node"><title>Node4</title>
<g id="a_node4"><a xlink:href="namespaceartvision__instanton.html#a8648d7539e3fa6913497d5e0793778cc" target="_top" xlink:title="Create a directory on the filesystem. ">
<polygon fill="white" stroke="black" points="298,-0.5 298,-30.5 396,-30.5 396,-0.5 298,-0.5"/>
<text text-anchor="start" x="306" y="-18.5" font-family="Helvetica,sans-Serif" font-size="10.00">artvision_instanton</text>
<text text-anchor="middle" x="347" y="-7.5" font-family="Helvetica,sans-Serif" font-size="10.00">::CreateDirectory</text>
</a>
</g>
</g>
<!-- Node2&#45;&gt;Node4 -->
<g id="edge3" class="edge"><title>Node2&#45;&gt;Node4</title>
<path fill="none" stroke="midnightblue" d="M262.028,-30.7676C270.4,-29.2455 279.188,-27.6475 287.798,-26.0822"/>
<polygon fill="midnightblue" stroke="midnightblue" points="288.574,-29.4986 297.786,-24.2662 287.321,-22.6116 288.574,-29.4986"/>
</g>
</g>
</svg>
