<?xml version="1.0" encoding="UTF-8" standalone="no"?>
<!DOCTYPE svg PUBLIC "-//W3C//DTD SVG 1.1//EN"
 "http://www.w3.org/Graphics/SVG/1.1/DTD/svg11.dtd">
<!-- Generated by graphviz version 2.38.0 (20140413.2041)
 -->
<!-- Title: artvision::PinholeLensModel::undistort_image Pages: 1 -->
<svg width="569pt" height="509pt"
 viewBox="0.00 0.00 569.00 509.00" xmlns="http://www.w3.org/2000/svg" xmlns:xlink="http://www.w3.org/1999/xlink">
<g id="graph0" class="graph" transform="scale(1 1) rotate(0) translate(4 505)">
<title>artvision::PinholeLensModel::undistort_image</title>
<polygon fill="white" stroke="none" points="-4,4 -4,-505 565,-505 565,4 -4,4"/>
<!-- Node1 -->
<g id="node1" class="node"><title>Node1</title>
<polygon fill="#bfbfbf" stroke="black" points="0,-235.5 0,-265.5 139,-265.5 139,-235.5 0,-235.5"/>
<text text-anchor="start" x="8" y="-253.5" font-family="Helvetica,sans-Serif" font-size="10.00">artvision::PinholeLensModel</text>
<text text-anchor="middle" x="69.5" y="-242.5" font-family="Helvetica,sans-Serif" font-size="10.00">::undistort_image</text>
</g>
<!-- Node2 -->
<g id="node2" class="node"><title>Node2</title>
<g id="a_node2"><a xlink:href="classartvision__instanton_1_1_image.html#a26334124ea185241a9af99e03bdd6385" target="_top" xlink:title="Get the dimensions of the image. ">
<polygon fill="white" stroke="black" points="202,-470.5 202,-500.5 300,-500.5 300,-470.5 202,-470.5"/>
<text text-anchor="start" x="210" y="-488.5" font-family="Helvetica,sans-Serif" font-size="10.00">artvision_instanton</text>
<text text-anchor="middle" x="251" y="-477.5" font-family="Helvetica,sans-Serif" font-size="10.00">::Image::width</text>
</a>
</g>
</g>
<!-- Node1&#45;&gt;Node2 -->
<g id="edge1" class="edge"><title>Node1&#45;&gt;Node2</title>
<path fill="none" stroke="midnightblue" d="M73.7252,-265.78C82.6752,-304.424 111.466,-406.855 175,-461.5 180.153,-465.932 186.134,-469.548 192.426,-472.498"/>
<polygon fill="midnightblue" stroke="midnightblue" points="191.228,-475.789 201.807,-476.36 193.893,-469.316 191.228,-475.789"/>
</g>
<!-- Node3 -->
<g id="node3" class="node"><title>Node3</title>
<g id="a_node3"><a xlink:href="classartvision__instanton_1_1_image.html#a8fe378f1d9a2fbeb89112b9c9600bdd6" target="_top" xlink:title="artvision_instanton\l::Image::height">
<polygon fill="white" stroke="black" points="202,-421.5 202,-451.5 300,-451.5 300,-421.5 202,-421.5"/>
<text text-anchor="start" x="210" y="-439.5" font-family="Helvetica,sans-Serif" font-size="10.00">artvision_instanton</text>
<text text-anchor="middle" x="251" y="-428.5" font-family="Helvetica,sans-Serif" font-size="10.00">::Image::height</text>
</a>
</g>
</g>
<!-- Node1&#45;&gt;Node3 -->
<g id="edge2" class="edge"><title>Node1&#45;&gt;Node3</title>
<path fill="none" stroke="midnightblue" d="M76.3194,-265.813C89.1837,-297.645 123.076,-371.333 175,-411.5 180.325,-415.619 186.362,-419.077 192.643,-421.977"/>
<polygon fill="midnightblue" stroke="midnightblue" points="191.388,-425.245 201.967,-425.837 194.066,-418.778 191.388,-425.245"/>
</g>
<!-- Node4 -->
<g id="node4" class="node"><title>Node4</title>
<g id="a_node4"><a xlink:href="classartvision_1_1_pinhole_lens_model.html#a44aa5928a3a3a9163828486cc472952d" target="_top" xlink:title="Get K matrix as a const function. ">
<polygon fill="white" stroke="black" points="175,-383 175,-402 327,-402 327,-383 175,-383"/>
<text text-anchor="middle" x="251" y="-390" font-family="Helvetica,sans-Serif" font-size="10.00">artvision::PinholeLensModel::K</text>
</a>
</g>
</g>
<!-- Node1&#45;&gt;Node4 -->
<g id="edge3" class="edge"><title>Node1&#45;&gt;Node4</title>
<path fill="none" stroke="midnightblue" d="M78.9913,-265.609C94.5156,-291.796 130.055,-345.489 175,-373.5 178.429,-375.637 182.087,-377.534 185.874,-379.218"/>
<polygon fill="midnightblue" stroke="midnightblue" points="184.905,-382.597 195.493,-382.981 187.455,-376.078 184.905,-382.597"/>
</g>
<!-- Node5 -->
<g id="node5" class="node"><title>Node5</title>
<g id="a_node5"><a xlink:href="namespaceartvision__instanton.html#ae7ddea6e66a6048556b4f1e119603636" target="_top" xlink:title="artvision_instanton\l::CopyVector9">
<polygon fill="white" stroke="black" points="202,-333.5 202,-363.5 300,-363.5 300,-333.5 202,-333.5"/>
<text text-anchor="start" x="210" y="-351.5" font-family="Helvetica,sans-Serif" font-size="10.00">artvision_instanton</text>
<text text-anchor="middle" x="251" y="-340.5" font-family="Helvetica,sans-Serif" font-size="10.00">::CopyVector9</text>
</a>
</g>
</g>
<!-- Node1&#45;&gt;Node5 -->
<g id="edge4" class="edge"><title>Node1&#45;&gt;Node5</title>
<path fill="none" stroke="midnightblue" d="M88.2847,-265.694C108.256,-282.113 142.18,-308.119 175,-324.5 180.539,-327.265 186.465,-329.802 192.468,-332.106"/>
<polygon fill="midnightblue" stroke="midnightblue" points="191.325,-335.415 201.919,-335.534 193.712,-328.834 191.325,-335.415"/>
</g>
<!-- Node6 -->
<g id="node6" class="node"><title>Node6</title>
<g id="a_node6"><a xlink:href="ioapi_8h.html#a787fa3cf048117ba7123753c1e74fcd6" target="_top" xlink:title="int">
<polygon fill="white" stroke="black" points="447.5,-126 447.5,-145 476.5,-145 476.5,-126 447.5,-126"/>
<text text-anchor="middle" x="462" y="-133" font-family="Helvetica,sans-Serif" font-size="10.00">int</text>
</a>
</g>
</g>
<!-- Node1&#45;&gt;Node6 -->
<g id="edge5" class="edge"><title>Node1&#45;&gt;Node6</title>
<path fill="none" stroke="midnightblue" d="M135.708,-235.499C199.421,-220.658 291.796,-198.603 327,-187.5 366.498,-175.043 411.104,-156.882 437.593,-145.649"/>
<polygon fill="midnightblue" stroke="midnightblue" points="439.311,-148.721 447.129,-141.571 436.559,-142.284 439.311,-148.721"/>
</g>
<!-- Node7 -->
<g id="node7" class="node"><title>Node7</title>
<g id="a_node7"><a xlink:href="classartvision_1_1_pinhole_lens_model.html#a86893bf36c3fd1f6b55e7550d2c21b04" target="_top" xlink:title="take a point from image and project it to calibrated space ">
<polygon fill="white" stroke="black" points="181.5,-284.5 181.5,-314.5 320.5,-314.5 320.5,-284.5 181.5,-284.5"/>
<text text-anchor="start" x="189.5" y="-302.5" font-family="Helvetica,sans-Serif" font-size="10.00">artvision::PinholeLensModel</text>
<text text-anchor="middle" x="251" y="-291.5" font-family="Helvetica,sans-Serif" font-size="10.00">::image_to_calibrated</text>
</a>
</g>
</g>
<!-- Node1&#45;&gt;Node7 -->
<g id="edge6" class="edge"><title>Node1&#45;&gt;Node7</title>
<path fill="none" stroke="midnightblue" d="M125.821,-265.601C144.591,-270.725 165.729,-276.496 185.172,-281.803"/>
<polygon fill="midnightblue" stroke="midnightblue" points="184.293,-285.191 194.862,-284.448 186.137,-278.438 184.293,-285.191"/>
</g>
<!-- Node9 -->
<g id="node9" class="node"><title>Node9</title>
<g id="a_node9"><a xlink:href="classartvision_1_1_pinhole_lens_model.html#abd9de492e2e85e742611796fdfb2f749" target="_top" xlink:title="Takes a point from calibrated space and projects it to image. ">
<polygon fill="white" stroke="black" points="181.5,-235.5 181.5,-265.5 320.5,-265.5 320.5,-235.5 181.5,-235.5"/>
<text text-anchor="start" x="189.5" y="-253.5" font-family="Helvetica,sans-Serif" font-size="10.00">artvision::PinholeLensModel</text>
<text text-anchor="middle" x="251" y="-242.5" font-family="Helvetica,sans-Serif" font-size="10.00">::calibrated_to_image</text>
</a>
</g>
</g>
<!-- Node1&#45;&gt;Node9 -->
<g id="edge8" class="edge"><title>Node1&#45;&gt;Node9</title>
<path fill="none" stroke="midnightblue" d="M139.13,-250.5C149.63,-250.5 160.539,-250.5 171.237,-250.5"/>
<polygon fill="midnightblue" stroke="midnightblue" points="171.408,-254 181.408,-250.5 171.408,-247 171.408,-254"/>
</g>
<!-- Node10 -->
<g id="node10" class="node"><title>Node10</title>
<g id="a_node10"><a xlink:href="namespaceartvision__instanton.html#a13f6fbbe42247d249a6d070c3c33446f" target="_top" xlink:title="artvision_instanton\l::round">
<polygon fill="white" stroke="black" points="202,-147.5 202,-177.5 300,-177.5 300,-147.5 202,-147.5"/>
<text text-anchor="start" x="210" y="-165.5" font-family="Helvetica,sans-Serif" font-size="10.00">artvision_instanton</text>
<text text-anchor="middle" x="251" y="-154.5" font-family="Helvetica,sans-Serif" font-size="10.00">::round</text>
</a>
</g>
</g>
<!-- Node1&#45;&gt;Node10 -->
<g id="edge10" class="edge"><title>Node1&#45;&gt;Node10</title>
<path fill="none" stroke="midnightblue" d="M95.7938,-235.279C116.67,-223.006 147.263,-205.68 175,-192.5 183.007,-188.695 191.632,-184.941 200.082,-181.443"/>
<polygon fill="midnightblue" stroke="midnightblue" points="201.559,-184.621 209.506,-177.614 198.924,-178.136 201.559,-184.621"/>
</g>
<!-- Node11 -->
<g id="node11" class="node"><title>Node11</title>
<g id="a_node11"><a xlink:href="classartvision__instanton_1_1_image.html#aa2721566b360cd4862e5b061e0a1a8ab" target="_top" xlink:title="Get a pointer to the image data. ">
<polygon fill="white" stroke="black" points="202,-98.5 202,-128.5 300,-128.5 300,-98.5 202,-98.5"/>
<text text-anchor="start" x="210" y="-116.5" font-family="Helvetica,sans-Serif" font-size="10.00">artvision_instanton</text>
<text text-anchor="middle" x="251" y="-105.5" font-family="Helvetica,sans-Serif" font-size="10.00">::Image::get</text>
</a>
</g>
</g>
<!-- Node1&#45;&gt;Node11 -->
<g id="edge11" class="edge"><title>Node1&#45;&gt;Node11</title>
<path fill="none" stroke="midnightblue" d="M80.5339,-235.373C97.2984,-211.242 133.304,-164.055 175,-137.5 180.373,-134.078 186.274,-131.107 192.334,-128.536"/>
<polygon fill="midnightblue" stroke="midnightblue" points="193.873,-131.693 201.934,-124.817 191.345,-125.166 193.873,-131.693"/>
</g>
<!-- Node12 -->
<g id="node12" class="node"><title>Node12</title>
<g id="a_node12"><a xlink:href="namespaceartvision__instanton.html#afa84d0288f4c8164cfb4b8bbf69a6754" target="_top" xlink:title="Perform bilinear interpolation. ">
<polygon fill="white" stroke="black" points="195.5,-49.5 195.5,-79.5 306.5,-79.5 306.5,-49.5 195.5,-49.5"/>
<text text-anchor="start" x="203.5" y="-67.5" font-family="Helvetica,sans-Serif" font-size="10.00">artvision_instanton</text>
<text text-anchor="middle" x="251" y="-56.5" font-family="Helvetica,sans-Serif" font-size="10.00">::bilinear_interpolation</text>
</a>
</g>
</g>
<!-- Node1&#45;&gt;Node12 -->
<g id="edge12" class="edge"><title>Node1&#45;&gt;Node12</title>
<path fill="none" stroke="midnightblue" d="M76.2536,-235.042C88.9935,-202.917 122.663,-128.601 175,-88.5 178.418,-85.8808 182.131,-83.5428 186.014,-81.4564"/>
<polygon fill="midnightblue" stroke="midnightblue" points="187.795,-84.4851 195.324,-77.031 184.79,-78.163 187.795,-84.4851"/>
</g>
<!-- Node13 -->
<g id="node13" class="node"><title>Node13</title>
<g id="a_node13"><a xlink:href="classartvision__instanton_1_1_image.html#abfe6de817ab2c75f289b7f679c3a1e54" target="_top" xlink:title="artvision_instanton\l::Image::step">
<polygon fill="white" stroke="black" points="202,-0.5 202,-30.5 300,-30.5 300,-0.5 202,-0.5"/>
<text text-anchor="start" x="210" y="-18.5" font-family="Helvetica,sans-Serif" font-size="10.00">artvision_instanton</text>
<text text-anchor="middle" x="251" y="-7.5" font-family="Helvetica,sans-Serif" font-size="10.00">::Image::step</text>
</a>
</g>
</g>
<!-- Node1&#45;&gt;Node13 -->
<g id="edge14" class="edge"><title>Node1&#45;&gt;Node13</title>
<path fill="none" stroke="midnightblue" d="M73.7252,-235.22C82.6752,-196.576 111.466,-94.1448 175,-39.5 180.153,-35.0677 186.134,-31.4518 192.426,-28.5023"/>
<polygon fill="midnightblue" stroke="midnightblue" points="193.893,-31.6835 201.807,-24.6404 191.228,-25.2105 193.893,-31.6835"/>
</g>
<!-- Node8 -->
<g id="node8" class="node"><title>Node8</title>
<g id="a_node8"><a xlink:href="namespaceartvision__instanton.html#aac7359704d1486d43ac7b00356511175" target="_top" xlink:title="Multiply an in&#45;homogenous point by a transform. ">
<polygon fill="white" stroke="black" points="363,-259.5 363,-289.5 561,-289.5 561,-259.5 363,-259.5"/>
<text text-anchor="start" x="371" y="-277.5" font-family="Helvetica,sans-Serif" font-size="10.00">artvision_instanton</text>
<text text-anchor="middle" x="462" y="-266.5" font-family="Helvetica,sans-Serif" font-size="10.00">::MultiplyPointHomographyInhomogenous</text>
</a>
</g>
</g>
<!-- Node7&#45;&gt;Node8 -->
<g id="edge7" class="edge"><title>Node7&#45;&gt;Node8</title>
<path fill="none" stroke="midnightblue" d="M320.724,-291.279C331.017,-290.048 341.837,-288.754 352.712,-287.453"/>
<polygon fill="midnightblue" stroke="midnightblue" points="353.187,-290.921 362.701,-286.258 352.356,-283.971 353.187,-290.921"/>
</g>
<!-- Node9&#45;&gt;Node8 -->
<g id="edge9" class="edge"><title>Node9&#45;&gt;Node8</title>
<path fill="none" stroke="midnightblue" d="M320.724,-258.392C331.017,-259.574 341.837,-260.816 352.712,-262.065"/>
<polygon fill="midnightblue" stroke="midnightblue" points="352.366,-265.548 362.701,-263.212 353.165,-258.594 352.366,-265.548"/>
</g>
<!-- Node12&#45;&gt;Node6 -->
<g id="edge13" class="edge"><title>Node12&#45;&gt;Node6</title>
<path fill="none" stroke="midnightblue" d="M299.675,-79.5379C308.762,-82.4659 318.186,-85.5446 327,-88.5 366.001,-101.577 411.086,-117.573 437.756,-127.128"/>
<polygon fill="midnightblue" stroke="midnightblue" points="436.752,-130.486 447.347,-130.571 439.117,-123.898 436.752,-130.486"/>
</g>
</g>
</svg>
