<?xml version="1.0" encoding="UTF-8" standalone="no"?>
<!DOCTYPE svg PUBLIC "-//W3C//DTD SVG 1.1//EN"
 "http://www.w3.org/Graphics/SVG/1.1/DTD/svg11.dtd">
<!-- Generated by graphviz version 2.38.0 (20140413.2041)
 -->
<!-- Title: artvision::RadialLensModel::image_to_calibrated Pages: 1 -->
<svg width="551pt" height="107pt"
 viewBox="0.00 0.00 551.00 107.00" xmlns="http://www.w3.org/2000/svg" xmlns:xlink="http://www.w3.org/1999/xlink">
<g id="graph0" class="graph" transform="scale(1 1) rotate(0) translate(4 103)">
<title>artvision::RadialLensModel::image_to_calibrated</title>
<polygon fill="white" stroke="none" points="-4,4 -4,-103 547,-103 547,4 -4,4"/>
<!-- Node1 -->
<g id="node1" class="node"><title>Node1</title>
<polygon fill="#bfbfbf" stroke="black" points="0,-46.5 0,-76.5 134,-76.5 134,-46.5 0,-46.5"/>
<text text-anchor="start" x="8" y="-64.5" font-family="Helvetica,sans-Serif" font-size="10.00">artvision::RadialLensModel</text>
<text text-anchor="middle" x="67" y="-53.5" font-family="Helvetica,sans-Serif" font-size="10.00">::image_to_calibrated</text>
</g>
<!-- Node2 -->
<g id="node2" class="node"><title>Node2</title>
<g id="a_node2"><a xlink:href="classartvision_1_1_pinhole_lens_model.html#abac8fad2c6d9e19dc86fcba8dd6dd3ab" target="_top" xlink:title="Check if input image pixel is valid or not. ">
<polygon fill="white" stroke="black" points="170,-68.5 170,-98.5 309,-98.5 309,-68.5 170,-68.5"/>
<text text-anchor="start" x="178" y="-86.5" font-family="Helvetica,sans-Serif" font-size="10.00">artvision::PinholeLensModel</text>
<text text-anchor="middle" x="239.5" y="-75.5" font-family="Helvetica,sans-Serif" font-size="10.00">::validate_image_pixel</text>
</a>
</g>
</g>
<!-- Node1&#45;&gt;Node2 -->
<g id="edge1" class="edge"><title>Node1&#45;&gt;Node2</title>
<path fill="none" stroke="midnightblue" d="M134.408,-70.0688C142.651,-71.1324 151.141,-72.2279 159.549,-73.3128"/>
<polygon fill="midnightblue" stroke="midnightblue" points="159.377,-76.8195 169.742,-74.628 160.273,-69.877 159.377,-76.8195"/>
</g>
<!-- Node3 -->
<g id="node3" class="node"><title>Node3</title>
<g id="a_node3"><a xlink:href="namespaceartvision.html#a9d00942da55ff02843646e3149adee50" target="_top" xlink:title="Apply the lens model to a calibrated point. ">
<polygon fill="white" stroke="black" points="176.5,-30 176.5,-49 302.5,-49 302.5,-30 176.5,-30"/>
<text text-anchor="middle" x="239.5" y="-37" font-family="Helvetica,sans-Serif" font-size="10.00">artvision::ApplyDistortion</text>
</a>
</g>
</g>
<!-- Node1&#45;&gt;Node3 -->
<g id="edge2" class="edge"><title>Node1&#45;&gt;Node3</title>
<path fill="none" stroke="midnightblue" d="M134.408,-52.9312C144.895,-51.5781 155.782,-50.1733 166.391,-48.8043"/>
<polygon fill="midnightblue" stroke="midnightblue" points="166.986,-52.2567 176.456,-47.5057 166.09,-45.3143 166.986,-52.2567"/>
</g>
<!-- Node4 -->
<g id="node4" class="node"><title>Node4</title>
<g id="a_node4"><a xlink:href="namespaceartvision__instanton.html#afb233cb1aedda46513c8b085c60ed0c0" target="_top" xlink:title="Compute the dot product. ">
<polygon fill="white" stroke="black" points="395,-49.5 395,-79.5 493,-79.5 493,-49.5 395,-49.5"/>
<text text-anchor="start" x="403" y="-67.5" font-family="Helvetica,sans-Serif" font-size="10.00">artvision_instanton</text>
<text text-anchor="middle" x="444" y="-56.5" font-family="Helvetica,sans-Serif" font-size="10.00">::DotProduct2</text>
</a>
</g>
</g>
<!-- Node3&#45;&gt;Node4 -->
<g id="edge3" class="edge"><title>Node3&#45;&gt;Node4</title>
<path fill="none" stroke="midnightblue" d="M302.633,-47.1707C328.805,-50.4019 359.098,-54.1418 384.829,-57.3184"/>
<polygon fill="midnightblue" stroke="midnightblue" points="384.461,-60.7994 394.814,-58.5511 385.318,-53.8522 384.461,-60.7994"/>
</g>
<!-- Node5 -->
<g id="node5" class="node"><title>Node5</title>
<g id="a_node5"><a xlink:href="namespaceartvision__instanton.html#aac7359704d1486d43ac7b00356511175" target="_top" xlink:title="Multiply an in&#45;homogenous point by a transform. ">
<polygon fill="white" stroke="black" points="345,-0.5 345,-30.5 543,-30.5 543,-0.5 345,-0.5"/>
<text text-anchor="start" x="353" y="-18.5" font-family="Helvetica,sans-Serif" font-size="10.00">artvision_instanton</text>
<text text-anchor="middle" x="444" y="-7.5" font-family="Helvetica,sans-Serif" font-size="10.00">::MultiplyPointHomographyInhomogenous</text>
</a>
</g>
</g>
<!-- Node3&#45;&gt;Node5 -->
<g id="edge4" class="edge"><title>Node3&#45;&gt;Node5</title>
<path fill="none" stroke="midnightblue" d="M302.633,-32.1361C312.869,-30.9229 323.736,-29.635 334.714,-28.3339"/>
<polygon fill="midnightblue" stroke="midnightblue" points="335.293,-31.7899 344.811,-27.1372 334.469,-24.8385 335.293,-31.7899"/>
</g>
</g>
</svg>
