<?xml version="1.0" encoding="UTF-8" standalone="no"?>
<!DOCTYPE svg PUBLIC "-//W3C//DTD SVG 1.1//EN"
 "http://www.w3.org/Graphics/SVG/1.1/DTD/svg11.dtd">
<!-- Generated by graphviz version 2.38.0 (20140413.2041)
 -->
<!-- Title: artvision_instanton::AttitudeListenerBase Pages: 1 -->
<svg width="706pt" height="137pt"
 viewBox="0.00 0.00 706.00 137.00" xmlns="http://www.w3.org/2000/svg" xmlns:xlink="http://www.w3.org/1999/xlink">
<g id="graph0" class="graph" transform="scale(1 1) rotate(0) translate(4 133)">
<title>artvision_instanton::AttitudeListenerBase</title>
<polygon fill="white" stroke="none" points="-4,4 -4,-133 702,-133 702,4 -4,4"/>
<!-- Node1 -->
<g id="node1" class="node"><title>Node1</title>
<polygon fill="#bfbfbf" stroke="black" points="425,-49.5 425,-79.5 538,-79.5 538,-49.5 425,-49.5"/>
<text text-anchor="start" x="433" y="-67.5" font-family="Helvetica,sans-Serif" font-size="10.00">artvision_instanton</text>
<text text-anchor="middle" x="481.5" y="-56.5" font-family="Helvetica,sans-Serif" font-size="10.00">::AttitudeListenerBase</text>
</g>
<!-- Node5 -->
<g id="node5" class="node"><title>Node5</title>
<g id="a_node5"><a xlink:href="classartvision__instanton_1_1_android_attitude_listener.html" target="_top" xlink:title="Implements an iOS specific attitude listener. ">
<polygon fill="white" stroke="black" points="574,-98.5 574,-128.5 698,-128.5 698,-98.5 574,-98.5"/>
<text text-anchor="start" x="582" y="-116.5" font-family="Helvetica,sans-Serif" font-size="10.00">artvision_instanton</text>
<text text-anchor="middle" x="636" y="-105.5" font-family="Helvetica,sans-Serif" font-size="10.00">::AndroidAttitudeListener</text>
</a>
</g>
</g>
<!-- Node1&#45;&gt;Node5 -->
<g id="edge4" class="edge"><title>Node1&#45;&gt;Node5</title>
<path fill="none" stroke="midnightblue" d="M539.327,-82.7591C555.411,-87.9273 572.732,-93.4924 588.156,-98.4484"/>
<polygon fill="midnightblue" stroke="midnightblue" points="540.091,-79.3284 529.499,-79.6014 537.949,-85.9928 540.091,-79.3284"/>
</g>
<!-- Node6 -->
<g id="node6" class="node"><title>Node6</title>
<g id="a_node6"><a xlink:href="classartvision__instanton_1_1i_o_s_attitude_listener.html" target="_top" xlink:title="Implements an iOS specific attitude listener. ">
<polygon fill="white" stroke="black" points="582.5,-49.5 582.5,-79.5 689.5,-79.5 689.5,-49.5 582.5,-49.5"/>
<text text-anchor="start" x="590.5" y="-67.5" font-family="Helvetica,sans-Serif" font-size="10.00">artvision_instanton</text>
<text text-anchor="middle" x="636" y="-56.5" font-family="Helvetica,sans-Serif" font-size="10.00">::iOSAttitudeListener</text>
</a>
</g>
</g>
<!-- Node1&#45;&gt;Node6 -->
<g id="edge5" class="edge"><title>Node1&#45;&gt;Node6</title>
<path fill="none" stroke="midnightblue" d="M548.663,-64.5C559.94,-64.5 571.517,-64.5 582.383,-64.5"/>
<polygon fill="midnightblue" stroke="midnightblue" points="548.419,-61.0001 538.419,-64.5 548.419,-68.0001 548.419,-61.0001"/>
</g>
<!-- Node7 -->
<g id="node7" class="node"><title>Node7</title>
<g id="a_node7"><a xlink:href="classartvision__instanton_1_1_null_attitude_listener.html" target="_top" xlink:title="artvision_instanton\l::NullAttitudeListener">
<polygon fill="white" stroke="black" points="582,-0.5 582,-30.5 690,-30.5 690,-0.5 582,-0.5"/>
<text text-anchor="start" x="590" y="-18.5" font-family="Helvetica,sans-Serif" font-size="10.00">artvision_instanton</text>
<text text-anchor="middle" x="636" y="-7.5" font-family="Helvetica,sans-Serif" font-size="10.00">::NullAttitudeListener</text>
</a>
</g>
</g>
<!-- Node1&#45;&gt;Node7 -->
<g id="edge6" class="edge"><title>Node1&#45;&gt;Node7</title>
<path fill="none" stroke="midnightblue" d="M539.327,-46.2409C555.411,-41.0727 572.732,-35.5076 588.156,-30.5516"/>
<polygon fill="midnightblue" stroke="midnightblue" points="537.949,-43.0072 529.499,-49.3986 540.091,-49.6716 537.949,-43.0072"/>
</g>
<!-- Node2 -->
<g id="node2" class="node"><title>Node2</title>
<g id="a_node2"><a xlink:href="classartvision__instanton_1_1_listener_base.html" target="_top" xlink:title="artvision_instanton\l::ListenerBase\&lt; attitude\l_data \&gt;">
<polygon fill="white" stroke="black" points="268,-44 268,-85 389,-85 389,-44 268,-44"/>
<text text-anchor="start" x="276" y="-73" font-family="Helvetica,sans-Serif" font-size="10.00">artvision_instanton</text>
<text text-anchor="start" x="276" y="-62" font-family="Helvetica,sans-Serif" font-size="10.00">::ListenerBase&lt; attitude</text>
<text text-anchor="middle" x="328.5" y="-51" font-family="Helvetica,sans-Serif" font-size="10.00">_data &gt;</text>
</a>
</g>
</g>
<!-- Node2&#45;&gt;Node1 -->
<g id="edge1" class="edge"><title>Node2&#45;&gt;Node1</title>
<path fill="none" stroke="midnightblue" d="M399.435,-64.5C407.904,-64.5 416.468,-64.5 424.695,-64.5"/>
<polygon fill="midnightblue" stroke="midnightblue" points="399.179,-61.0001 389.179,-64.5 399.179,-68.0001 399.179,-61.0001"/>
</g>
<!-- Node3 -->
<g id="node3" class="node"><title>Node3</title>
<g id="a_node3"><a xlink:href="classartvision__instanton_1_1_task.html" target="_top" xlink:title="A task is a recurring event. ">
<polygon fill="white" stroke="black" points="134,-49.5 134,-79.5 232,-79.5 232,-49.5 134,-49.5"/>
<text text-anchor="start" x="142" y="-67.5" font-family="Helvetica,sans-Serif" font-size="10.00">artvision_instanton</text>
<text text-anchor="middle" x="183" y="-56.5" font-family="Helvetica,sans-Serif" font-size="10.00">::Task</text>
</a>
</g>
</g>
<!-- Node3&#45;&gt;Node2 -->
<g id="edge2" class="edge"><title>Node3&#45;&gt;Node2</title>
<path fill="none" stroke="midnightblue" d="M242.332,-64.5C250.785,-64.5 259.496,-64.5 267.972,-64.5"/>
<polygon fill="midnightblue" stroke="midnightblue" points="242.183,-61.0001 232.183,-64.5 242.183,-68.0001 242.183,-61.0001"/>
</g>
<!-- Node4 -->
<g id="node4" class="node"><title>Node4</title>
<g id="a_node4"><a xlink:href="classartvision__instanton_1_1_runnable.html" target="_top" xlink:title="artvision_instanton\l::Runnable">
<polygon fill="white" stroke="black" points="0,-49.5 0,-79.5 98,-79.5 98,-49.5 0,-49.5"/>
<text text-anchor="start" x="8" y="-67.5" font-family="Helvetica,sans-Serif" font-size="10.00">artvision_instanton</text>
<text text-anchor="middle" x="49" y="-56.5" font-family="Helvetica,sans-Serif" font-size="10.00">::Runnable</text>
</a>
</g>
</g>
<!-- Node4&#45;&gt;Node3 -->
<g id="edge3" class="edge"><title>Node4&#45;&gt;Node3</title>
<path fill="none" stroke="midnightblue" d="M108.292,-64.5C116.809,-64.5 125.5,-64.5 133.786,-64.5"/>
<polygon fill="midnightblue" stroke="midnightblue" points="108.028,-61.0001 98.0284,-64.5 108.028,-68.0001 108.028,-61.0001"/>
</g>
</g>
</svg>
