<?xml version="1.0" encoding="UTF-8" standalone="no"?>
<!DOCTYPE svg PUBLIC "-//W3C//DTD SVG 1.1//EN"
 "http://www.w3.org/Graphics/SVG/1.1/DTD/svg11.dtd">
<!-- Generated by graphviz version 2.38.0 (20140413.2041)
 -->
<!-- Title: ARTrackable::~ARTrackable Pages: 1 -->
<svg width="320pt" height="66pt"
 viewBox="0.00 0.00 320.00 66.00" xmlns="http://www.w3.org/2000/svg" xmlns:xlink="http://www.w3.org/1999/xlink">
<g id="graph0" class="graph" transform="scale(1 1) rotate(0) translate(4 62)">
<title>ARTrackable::~ARTrackable</title>
<polygon fill="white" stroke="none" points="-4,4 -4,-62 316,-62 316,4 -4,4"/>
<!-- Node1 -->
<g id="node1" class="node"><title>Node1</title>
<polygon fill="#bfbfbf" stroke="black" points="0,-19.5 0,-38.5 143,-38.5 143,-19.5 0,-19.5"/>
<text text-anchor="middle" x="71.5" y="-26.5" font-family="Helvetica,sans-Serif" font-size="10.00">ARTrackable::~ARTrackable</text>
</g>
<!-- Node2 -->
<g id="node2" class="node"><title>Node2</title>
<g id="a_node2"><a xlink:href="class_a_r_trackable.html#aa425f1e3e1ba8d8b39ec6a34f8e2f403" target="_top" xlink:title="Frees allocated patterns and resets the pattern count to zero. ">
<polygon fill="white" stroke="black" points="179,-38.5 179,-57.5 312,-57.5 312,-38.5 179,-38.5"/>
<text text-anchor="middle" x="245.5" y="-45.5" font-family="Helvetica,sans-Serif" font-size="10.00">ARTrackable::freePatterns</text>
</a>
</g>
</g>
<!-- Node1&#45;&gt;Node2 -->
<g id="edge1" class="edge"><title>Node1&#45;&gt;Node2</title>
<path fill="none" stroke="midnightblue" d="M143.452,-36.8377C151.807,-37.7607 160.358,-38.7052 168.775,-39.6351"/>
<polygon fill="midnightblue" stroke="midnightblue" points="168.631,-43.1403 178.955,-40.7595 169.4,-36.1826 168.631,-43.1403"/>
</g>
<!-- Node3 -->
<g id="node3" class="node"><title>Node3</title>
<g id="a_node3"><a xlink:href="ar_filter_trans_mat_8c.html#a52813489717ce82b433e44adfd3bc3dd" target="_top" xlink:title="Finalise a filter. ">
<polygon fill="white" stroke="black" points="191,-0.5 191,-19.5 300,-19.5 300,-0.5 191,-0.5"/>
<text text-anchor="middle" x="245.5" y="-7.5" font-family="Helvetica,sans-Serif" font-size="10.00">arFilterTransMatFinal</text>
</a>
</g>
</g>
<!-- Node1&#45;&gt;Node3 -->
<g id="edge2" class="edge"><title>Node1&#45;&gt;Node3</title>
<path fill="none" stroke="midnightblue" d="M143.452,-21.1623C155.814,-19.7967 168.605,-18.3837 180.759,-17.0412"/>
<polygon fill="midnightblue" stroke="midnightblue" points="181.24,-20.5094 190.795,-15.9325 180.471,-13.5518 181.24,-20.5094"/>
</g>
</g>
</svg>
