<?xml version="1.0" encoding="UTF-8" standalone="no"?>
<!DOCTYPE svg PUBLIC "-//W3C//DTD SVG 1.1//EN"
 "http://www.w3.org/Graphics/SVG/1.1/DTD/svg11.dtd">
<!-- Generated by graphviz version 2.38.0 (20140413.2041)
 -->
<!-- Title: artvision_instanton::ImageYUV::getUV Pages: 1 -->
<!--zoomable 199 -->
<svg id="main" version="1.1" xmlns="http://www.w3.org/2000/svg" xmlns:xlink="http://www.w3.org/1999/xlink" xml:space="preserve" onload="init(evt)">
<style type="text/css"><![CDATA[
.edge:hover path { stroke: red; }
.edge:hover polygon { stroke: red; fill: red; }
]]></style>
<script type="text/javascript"><![CDATA[
var edges = document.getElementsByTagName('g');
if (edges && edges.length) {
  for (var i=0;i<edges.length;i++) {
    if (edges[i].id.substr(0,4)=='edge') {
      edges[i].setAttribute('class','edge');
    }
  }
}
]]></script>
        <defs>
                <circle id="rim" cx="0" cy="0" r="7"/>
                <circle id="rim2" cx="0" cy="0" r="3.5"/>
                <g id="zoomPlus">
                        <use xlink:href="#rim" fill="#404040">
                                <set attributeName="fill" to="#808080" begin="zoomplus.mouseover" end="zoomplus.mouseout"/>
                        </use>
                        <path d="M-4,0h8M0,-4v8" fill="none" stroke="white" stroke-width="1.5" pointer-events="none"/>
                </g>
                <g id="zoomMin">
                        <use xlink:href="#rim" fill="#404040">
                                <set attributeName="fill" to="#808080" begin="zoomminus.mouseover" end="zoomminus.mouseout"/>
                        </use>
                        <path d="M-4,0h8" fill="none" stroke="white" stroke-width="1.5" pointer-events="none"/>
                </g>
                <g id="dirArrow">
                        <path fill="none" stroke="white" stroke-width="1.5" d="M0,-3.0v7 M-2.5,-0.5L0,-3.0L2.5,-0.5"/>
                </g>
               <g id="resetDef">
                       <use xlink:href="#rim2" fill="#404040">
                               <set attributeName="fill" to="#808080" begin="reset.mouseover" end="reset.mouseout"/>
                       </use>
               </g>
        </defs>

<script type="text/javascript">
var viewWidth = 687;
var viewHeight = 199;
var sectionId = 'dynsection-3';
</script>
<script xlink:href="svgpan.js"/>
<svg id="graph" class="graph">
<g id="viewport">
<title>artvision_instanton::ImageYUV::getUV</title>
<polygon fill="white" stroke="none" points="-4,4 -4,-195 683,-195 683,4 -4,4"/>
<!-- Node1 -->
<g id="node1" class="node"><title>Node1</title>
<polygon fill="#bfbfbf" stroke="black" points="0,-49.5 0,-79.5 104,-79.5 104,-49.5 0,-49.5"/>
<text text-anchor="start" x="8" y="-67.5" font-family="Helvetica,sans-Serif" font-size="10.00">artvision_instanton</text>
<text text-anchor="middle" x="52" y="-56.5" font-family="Helvetica,sans-Serif" font-size="10.00">::ImageYUV::getUV</text>
</g>
<!-- Node2 -->
<g id="node2" class="node"><title>Node2</title>
<g id="a_node2"><a xlink:href="classartvision__instanton_1_1_image_y_u_v.html#a944509b97e21b3af9ba1eaa08a15ec54" target="_top" xlink:title="artvision_instanton\l::ImageYUV::uOffset">
<polygon fill="white" stroke="black" points="140,-98.5 140,-128.5 249,-128.5 249,-98.5 140,-98.5"/>
<text text-anchor="start" x="148" y="-116.5" font-family="Helvetica,sans-Serif" font-size="10.00">artvision_instanton</text>
<text text-anchor="middle" x="194.5" y="-105.5" font-family="Helvetica,sans-Serif" font-size="10.00">::ImageYUV::uOffset</text>
</a>
</g>
</g>
<!-- Node1&#45;&gt;Node2 -->
<g id="edge1" class="edge"><title>Node1&#45;&gt;Node2</title>
<path fill="none" stroke="midnightblue" d="M96.3011,-79.6014C110.189,-84.4451 125.734,-89.8664 140.249,-94.9285"/>
<polygon fill="midnightblue" stroke="midnightblue" points="139.505,-98.3758 150.1,-98.3641 141.81,-91.7662 139.505,-98.3758"/>
</g>
<!-- Node8 -->
<g id="node8" class="node"><title>Node8</title>
<g id="a_node8"><a xlink:href="classartvision__instanton_1_1_image_y_u_v.html#a519d88cf49a487d14c35916c3b3ce2e0" target="_top" xlink:title="Gets a view to Y plane. ">
<polygon fill="white" stroke="black" points="145.5,-49.5 145.5,-79.5 243.5,-79.5 243.5,-49.5 145.5,-49.5"/>
<text text-anchor="start" x="153.5" y="-67.5" font-family="Helvetica,sans-Serif" font-size="10.00">artvision_instanton</text>
<text text-anchor="middle" x="194.5" y="-56.5" font-family="Helvetica,sans-Serif" font-size="10.00">::ImageYUV::Y</text>
</a>
</g>
</g>
<!-- Node1&#45;&gt;Node8 -->
<g id="edge10" class="edge"><title>Node1&#45;&gt;Node8</title>
<path fill="none" stroke="midnightblue" d="M104.121,-64.5C114.243,-64.5 124.938,-64.5 135.275,-64.5"/>
<polygon fill="midnightblue" stroke="midnightblue" points="135.458,-68.0001 145.458,-64.5 135.458,-61.0001 135.458,-68.0001"/>
</g>
<!-- Node9 -->
<g id="node9" class="node"><title>Node9</title>
<g id="a_node9"><a xlink:href="classartvision__instanton_1_1_image_y_u_v.html#ab9c770cf5e7c8d27d3f3ef3cc84fb017" target="_top" xlink:title="Gets a view to UV plane The returned Image share but DOES NOT retain the image buffer. ">
<polygon fill="white" stroke="black" points="145.5,-0.5 145.5,-30.5 243.5,-30.5 243.5,-0.5 145.5,-0.5"/>
<text text-anchor="start" x="153.5" y="-18.5" font-family="Helvetica,sans-Serif" font-size="10.00">artvision_instanton</text>
<text text-anchor="middle" x="194.5" y="-7.5" font-family="Helvetica,sans-Serif" font-size="10.00">::ImageYUV::UV</text>
</a>
</g>
</g>
<!-- Node1&#45;&gt;Node9 -->
<g id="edge11" class="edge"><title>Node1&#45;&gt;Node9</title>
<path fill="none" stroke="midnightblue" d="M96.3011,-49.3986C110.189,-44.5549 125.734,-39.1336 140.249,-34.0715"/>
<polygon fill="midnightblue" stroke="midnightblue" points="141.81,-37.2338 150.1,-30.6359 139.505,-30.6242 141.81,-37.2338"/>
</g>
<!-- Node3 -->
<g id="node3" class="node"><title>Node3</title>
<g id="a_node3"><a xlink:href="classartvision__instanton_1_1_image_y_u_v.html#acedfcf5337dc1ffcc53ce2164d6f291a" target="_top" xlink:title="Copy functions. ">
<polygon fill="white" stroke="black" points="285,-98.5 285,-128.5 406,-128.5 406,-98.5 285,-98.5"/>
<text text-anchor="start" x="293" y="-116.5" font-family="Helvetica,sans-Serif" font-size="10.00">artvision_instanton</text>
<text text-anchor="middle" x="345.5" y="-105.5" font-family="Helvetica,sans-Serif" font-size="10.00">::ImageYUV::deepCopy</text>
</a>
</g>
</g>
<!-- Node2&#45;&gt;Node3 -->
<g id="edge2" class="edge"><title>Node2&#45;&gt;Node3</title>
<path fill="none" stroke="midnightblue" d="M249.292,-113.5C257.62,-113.5 266.323,-113.5 274.938,-113.5"/>
<polygon fill="midnightblue" stroke="midnightblue" points="274.982,-117 284.982,-113.5 274.982,-110 274.982,-117"/>
</g>
<!-- Node4 -->
<g id="node4" class="node"><title>Node4</title>
<g id="a_node4"><a xlink:href="classartvision__instanton_1_1_image_y_u_v.html#af8fd6bec71fed648c949fea436ed3d23" target="_top" xlink:title="Allocate the image data. ">
<polygon fill="white" stroke="black" points="442,-120.5 442,-150.5 540,-150.5 540,-120.5 442,-120.5"/>
<text text-anchor="start" x="450" y="-138.5" font-family="Helvetica,sans-Serif" font-size="10.00">artvision_instanton</text>
<text text-anchor="middle" x="491" y="-127.5" font-family="Helvetica,sans-Serif" font-size="10.00">::ImageYUV::alloc</text>
</a>
</g>
</g>
<!-- Node3&#45;&gt;Node4 -->
<g id="edge3" class="edge"><title>Node3&#45;&gt;Node4</title>
<path fill="none" stroke="midnightblue" d="M406.11,-122.639C414.541,-123.931 423.202,-125.259 431.61,-126.548"/>
<polygon fill="midnightblue" stroke="midnightblue" points="431.292,-130.04 441.707,-128.096 432.352,-123.121 431.292,-130.04"/>
</g>
<!-- Node5 -->
<g id="node5" class="node"><title>Node5</title>
<g id="a_node5"><a xlink:href="classartvision__instanton_1_1_image_y_u_v.html#a99dbf05f44d2af9b2b9b13585b25e205" target="_top" xlink:title="artvision_instanton\l::ImageYUV::size">
<polygon fill="white" stroke="black" points="578.5,-160.5 578.5,-190.5 676.5,-190.5 676.5,-160.5 578.5,-160.5"/>
<text text-anchor="start" x="586.5" y="-178.5" font-family="Helvetica,sans-Serif" font-size="10.00">artvision_instanton</text>
<text text-anchor="middle" x="627.5" y="-167.5" font-family="Helvetica,sans-Serif" font-size="10.00">::ImageYUV::size</text>
</a>
</g>
</g>
<!-- Node3&#45;&gt;Node5 -->
<g id="edge9" class="edge"><title>Node3&#45;&gt;Node5</title>
<path fill="none" stroke="midnightblue" d="M370.614,-128.552C389.338,-139.436 416.349,-153.422 442,-160.5 483.201,-171.869 531.389,-175.473 568.184,-176.313"/>
<polygon fill="midnightblue" stroke="midnightblue" points="568.188,-179.813 578.245,-176.48 568.304,-172.814 568.188,-179.813"/>
</g>
<!-- Node6 -->
<g id="node6" class="node"><title>Node6</title>
<g id="a_node6"><a xlink:href="classartvision__instanton_1_1_image_y_u_v.html#a12ce8037b43ff05672ce85d095f85277" target="_top" xlink:title="Get the dimensions of the image. ">
<polygon fill="white" stroke="black" points="577.5,-108.5 577.5,-138.5 677.5,-138.5 677.5,-108.5 577.5,-108.5"/>
<text text-anchor="start" x="585.5" y="-126.5" font-family="Helvetica,sans-Serif" font-size="10.00">artvision_instanton</text>
<text text-anchor="middle" x="627.5" y="-115.5" font-family="Helvetica,sans-Serif" font-size="10.00">::ImageYUV::width</text>
</a>
</g>
</g>
<!-- Node3&#45;&gt;Node6 -->
<g id="edge7" class="edge"><title>Node3&#45;&gt;Node6</title>
<path fill="none" stroke="midnightblue" d="M406.282,-110.443C444.557,-109.088 495.256,-108.411 540,-111.5 548.792,-112.107 558.05,-113.057 567.11,-114.163"/>
<polygon fill="midnightblue" stroke="midnightblue" points="566.854,-117.659 577.22,-115.468 567.75,-110.716 566.854,-117.659"/>
</g>
<!-- Node7 -->
<g id="node7" class="node"><title>Node7</title>
<g id="a_node7"><a xlink:href="classartvision__instanton_1_1_image_y_u_v.html#aa0db5e42440576206097d04bcc412120" target="_top" xlink:title="artvision_instanton\l::ImageYUV::height">
<polygon fill="white" stroke="black" points="576,-52.5 576,-82.5 679,-82.5 679,-52.5 576,-52.5"/>
<text text-anchor="start" x="584" y="-70.5" font-family="Helvetica,sans-Serif" font-size="10.00">artvision_instanton</text>
<text text-anchor="middle" x="627.5" y="-59.5" font-family="Helvetica,sans-Serif" font-size="10.00">::ImageYUV::height</text>
</a>
</g>
</g>
<!-- Node3&#45;&gt;Node7 -->
<g id="edge8" class="edge"><title>Node3&#45;&gt;Node7</title>
<path fill="none" stroke="midnightblue" d="M406.224,-103.688C453.208,-95.9694 518.412,-85.2574 565.677,-77.4923"/>
<polygon fill="midnightblue" stroke="midnightblue" points="566.477,-80.9079 575.778,-75.833 565.342,-74.0005 566.477,-80.9079"/>
</g>
<!-- Node4&#45;&gt;Node5 -->
<g id="edge4" class="edge"><title>Node4&#45;&gt;Node5</title>
<path fill="none" stroke="midnightblue" d="M540.178,-149.828C549.353,-152.557 559.044,-155.439 568.487,-158.247"/>
<polygon fill="midnightblue" stroke="midnightblue" points="567.624,-161.642 578.207,-161.138 569.619,-154.932 567.624,-161.642"/>
</g>
<!-- Node4&#45;&gt;Node6 -->
<g id="edge5" class="edge"><title>Node4&#45;&gt;Node6</title>
<path fill="none" stroke="midnightblue" d="M540.178,-131.202C548.94,-130.42 558.174,-129.596 567.213,-128.79"/>
<polygon fill="midnightblue" stroke="midnightblue" points="567.651,-132.264 577.3,-127.89 567.029,-125.292 567.651,-132.264"/>
</g>
<!-- Node4&#45;&gt;Node7 -->
<g id="edge6" class="edge"><title>Node4&#45;&gt;Node7</title>
<path fill="none" stroke="midnightblue" d="M521.85,-120.409C541.266,-110.592 566.78,-97.6931 587.755,-87.0888"/>
<polygon fill="midnightblue" stroke="midnightblue" points="589.388,-90.1847 596.734,-82.5492 586.23,-83.9377 589.388,-90.1847"/>
</g>
</g>
</svg>
        <g id="navigator" transform="translate(0 0)" fill="#404254">
                <rect fill="#f2f5e9" fill-opacity="0.5" stroke="#606060" stroke-width=".5" x="0" y="0" width="60" height="60"/>
                <use id="zoomplus" xlink:href="#zoomPlus" x="17" y="9" onmousedown="handleZoom(evt,'in')"/>
                <use id="zoomminus" xlink:href="#zoomMin" x="42" y="9" onmousedown="handleZoom(evt,'out')"/>
                <use id="reset" xlink:href="#resetDef" x="30" y="36" onmousedown="handleReset()"/>
                <g id="arrowUp" xlink:href="#dirArrow" transform="translate(30 24)" onmousedown="handlePan(0,-1)">
                  <use xlink:href="#rim" fill="#404040">
                        <set attributeName="fill" to="#808080" begin="arrowUp.mouseover" end="arrowUp.mouseout"/>
                  </use>
                  <path fill="none" stroke="white" stroke-width="1.5" d="M0,-3.0v7 M-2.5,-0.5L0,-3.0L2.5,-0.5"/>
                </g>
                <g id="arrowRight" xlink:href="#dirArrow" transform="rotate(90) translate(36 -43)" onmousedown="handlePan(1,0)">
                  <use xlink:href="#rim" fill="#404040">
                        <set attributeName="fill" to="#808080" begin="arrowRight.mouseover" end="arrowRight.mouseout"/>
                  </use>
                  <path fill="none" stroke="white" stroke-width="1.5" d="M0,-3.0v7 M-2.5,-0.5L0,-3.0L2.5,-0.5"/>
                </g>
                <g id="arrowDown" xlink:href="#dirArrow" transform="rotate(180) translate(-30 -48)" onmousedown="handlePan(0,1)">
                  <use xlink:href="#rim" fill="#404040">
                        <set attributeName="fill" to="#808080" begin="arrowDown.mouseover" end="arrowDown.mouseout"/>
                  </use>
                  <path fill="none" stroke="white" stroke-width="1.5" d="M0,-3.0v7 M-2.5,-0.5L0,-3.0L2.5,-0.5"/>
                </g>
                <g id="arrowLeft" xlink:href="#dirArrow" transform="rotate(270) translate(-36 17)" onmousedown="handlePan(-1,0)">
                  <use xlink:href="#rim" fill="#404040">
                        <set attributeName="fill" to="#808080" begin="arrowLeft.mouseover" end="arrowLeft.mouseout"/>
                  </use>
                  <path fill="none" stroke="white" stroke-width="1.5" d="M0,-3.0v7 M-2.5,-0.5L0,-3.0L2.5,-0.5"/>
                </g>
        </g>
        <svg viewBox="0 0 15 15" width="100%" height="30px" preserveAspectRatio="xMaxYMin meet">
         <g id="arrow_out" transform="scale(0.3 0.3)">
          <a xlink:href="classartvision__instanton_1_1_image_y_u_v_a39c06926c6618fc22a9a9f9557ab6f48_cgraph_org.svg" target="_base">
           <rect id="button" ry="5" rx="5" y="6" x="6" height="38" width="38"
                fill="#f2f5e9" fill-opacity="0.5" stroke="#606060" stroke-width="1.0"/>
           <path id="arrow"
             d="M 11.500037,31.436501 C 11.940474,20.09759 22.043105,11.32322 32.158766,21.979434 L 37.068811,17.246167 C 37.068811,17.246167 37.088388,32 37.088388,32 L 22.160133,31.978069 C 22.160133,31.978069 26.997745,27.140456 26.997745,27.140456 C 18.528582,18.264221 13.291696,25.230495 11.500037,31.436501 z"
             style="fill:#404040;"/>
          </a>
         </g>
        </svg>
</svg>
