<?xml version="1.0" encoding="UTF-8" standalone="no"?>
<!DOCTYPE svg PUBLIC "-//W3C//DTD SVG 1.1//EN"
 "http://www.w3.org/Graphics/SVG/1.1/DTD/svg11.dtd">
<!-- Generated by graphviz version 2.38.0 (20140413.2041)
 -->
<!-- Title: artvision::RadialLensModel::operator= Pages: 1 -->
<svg width="451pt" height="186pt"
 viewBox="0.00 0.00 451.00 186.00" xmlns="http://www.w3.org/2000/svg" xmlns:xlink="http://www.w3.org/1999/xlink">
<g id="graph0" class="graph" transform="scale(1 1) rotate(0) translate(4 182)">
<title>artvision::RadialLensModel::operator=</title>
<polygon fill="white" stroke="none" points="-4,4 -4,-182 447,-182 447,4 -4,4"/>
<!-- Node1 -->
<g id="node1" class="node"><title>Node1</title>
<polygon fill="#bfbfbf" stroke="black" points="0,-73.5 0,-103.5 134,-103.5 134,-73.5 0,-73.5"/>
<text text-anchor="start" x="8" y="-91.5" font-family="Helvetica,sans-Serif" font-size="10.00">artvision::RadialLensModel</text>
<text text-anchor="middle" x="67" y="-80.5" font-family="Helvetica,sans-Serif" font-size="10.00">::operator=</text>
</g>
<!-- Node2 -->
<g id="node2" class="node"><title>Node2</title>
<g id="a_node2"><a xlink:href="classartvision_1_1_pinhole_lens_model.html#abb03b23250d158cee58760cf9b2fdf8b" target="_top" xlink:title="Copy from another object with same type. ">
<polygon fill="white" stroke="black" points="170,-147.5 170,-177.5 309,-177.5 309,-147.5 170,-147.5"/>
<text text-anchor="start" x="178" y="-165.5" font-family="Helvetica,sans-Serif" font-size="10.00">artvision::PinholeLensModel</text>
<text text-anchor="middle" x="239.5" y="-154.5" font-family="Helvetica,sans-Serif" font-size="10.00">::operator=</text>
</a>
</g>
</g>
<!-- Node1&#45;&gt;Node2 -->
<g id="edge1" class="edge"><title>Node1&#45;&gt;Node2</title>
<path fill="none" stroke="midnightblue" d="M96.5961,-103.653C116.815,-114.085 144.713,-127.916 170,-138.5 174.348,-140.32 178.888,-142.12 183.471,-143.868"/>
<polygon fill="midnightblue" stroke="midnightblue" points="182.298,-147.166 192.891,-147.371 184.738,-140.605 182.298,-147.166"/>
</g>
<!-- Node4 -->
<g id="node4" class="node"><title>Node4</title>
<g id="a_node4"><a xlink:href="classartvision_1_1_radial_lens_model.html#ae2e80fd3d36608a9ab102d64aefac207" target="_top" xlink:title="artvision::RadialLensModel\l::get_lens_coefficients">
<polygon fill="white" stroke="black" points="172.5,-98.5 172.5,-128.5 306.5,-128.5 306.5,-98.5 172.5,-98.5"/>
<text text-anchor="start" x="180.5" y="-116.5" font-family="Helvetica,sans-Serif" font-size="10.00">artvision::RadialLensModel</text>
<text text-anchor="middle" x="239.5" y="-105.5" font-family="Helvetica,sans-Serif" font-size="10.00">::get_lens_coefficients</text>
</a>
</g>
</g>
<!-- Node1&#45;&gt;Node4 -->
<g id="edge3" class="edge"><title>Node1&#45;&gt;Node4</title>
<path fill="none" stroke="midnightblue" d="M134.408,-98.2372C143.541,-99.5763 152.977,-100.96 162.269,-102.322"/>
<polygon fill="midnightblue" stroke="midnightblue" points="161.871,-105.801 172.273,-103.789 162.887,-98.8755 161.871,-105.801"/>
</g>
<!-- Node5 -->
<g id="node5" class="node"><title>Node5</title>
<g id="a_node5"><a xlink:href="namespaceartvision__instanton.html#abdbe4d81301554bf8ac25414dcd8c43e" target="_top" xlink:title="artvision_instanton\l::CastVector">
<polygon fill="white" stroke="black" points="190.5,-49.5 190.5,-79.5 288.5,-79.5 288.5,-49.5 190.5,-49.5"/>
<text text-anchor="start" x="198.5" y="-67.5" font-family="Helvetica,sans-Serif" font-size="10.00">artvision_instanton</text>
<text text-anchor="middle" x="239.5" y="-56.5" font-family="Helvetica,sans-Serif" font-size="10.00">::CastVector</text>
</a>
</g>
</g>
<!-- Node1&#45;&gt;Node5 -->
<g id="edge5" class="edge"><title>Node1&#45;&gt;Node5</title>
<path fill="none" stroke="midnightblue" d="M134.408,-79.1523C149.602,-77.0135 165.637,-74.7564 180.448,-72.6715"/>
<polygon fill="midnightblue" stroke="midnightblue" points="181.067,-76.119 190.482,-71.2592 180.091,-69.1873 181.067,-76.119"/>
</g>
<!-- Node6 -->
<g id="node6" class="node"><title>Node6</title>
<g id="a_node6"><a xlink:href="classartvision_1_1_radial_lens_model.html#a7111a3c2950d7f8de296360fcef90e1b" target="_top" xlink:title="Get number of iteration. ">
<polygon fill="white" stroke="black" points="172.5,-0.5 172.5,-30.5 306.5,-30.5 306.5,-0.5 172.5,-0.5"/>
<text text-anchor="start" x="180.5" y="-18.5" font-family="Helvetica,sans-Serif" font-size="10.00">artvision::RadialLensModel</text>
<text text-anchor="middle" x="239.5" y="-7.5" font-family="Helvetica,sans-Serif" font-size="10.00">::num_iterations</text>
</a>
</g>
</g>
<!-- Node1&#45;&gt;Node6 -->
<g id="edge6" class="edge"><title>Node1&#45;&gt;Node6</title>
<path fill="none" stroke="midnightblue" d="M98.0301,-73.4969C118.18,-63.6466 145.432,-50.7397 170,-40.5 175.112,-38.3693 180.478,-36.2366 185.861,-34.165"/>
<polygon fill="midnightblue" stroke="midnightblue" points="187.401,-37.3247 195.518,-30.5155 184.926,-30.7766 187.401,-37.3247"/>
</g>
<!-- Node3 -->
<g id="node3" class="node"><title>Node3</title>
<g id="a_node3"><a xlink:href="namespaceartvision__instanton.html#afd6dbbd9acca322a19536bce2c32b43c" target="_top" xlink:title="artvision_instanton\l::CopyVector">
<polygon fill="white" stroke="black" points="345,-122.5 345,-152.5 443,-152.5 443,-122.5 345,-122.5"/>
<text text-anchor="start" x="353" y="-140.5" font-family="Helvetica,sans-Serif" font-size="10.00">artvision_instanton</text>
<text text-anchor="middle" x="394" y="-129.5" font-family="Helvetica,sans-Serif" font-size="10.00">::CopyVector</text>
</a>
</g>
</g>
<!-- Node2&#45;&gt;Node3 -->
<g id="edge2" class="edge"><title>Node2&#45;&gt;Node3</title>
<path fill="none" stroke="midnightblue" d="M309.166,-151.243C317.709,-149.843 326.381,-148.421 334.745,-147.05"/>
<polygon fill="midnightblue" stroke="midnightblue" points="335.466,-150.479 344.768,-145.407 334.333,-143.571 335.466,-150.479"/>
</g>
<!-- Node4&#45;&gt;Node3 -->
<g id="edge4" class="edge"><title>Node4&#45;&gt;Node3</title>
<path fill="none" stroke="midnightblue" d="M306.502,-123.887C315.96,-125.376 325.633,-126.898 334.924,-128.36"/>
<polygon fill="midnightblue" stroke="midnightblue" points="334.404,-131.821 344.827,-129.919 335.492,-124.906 334.404,-131.821"/>
</g>
</g>
</svg>
