<?xml version="1.0" encoding="UTF-8" standalone="no"?>
<!DOCTYPE svg PUBLIC "-//W3C//DTD SVG 1.1//EN"
 "http://www.w3.org/Graphics/SVG/1.1/DTD/svg11.dtd">
<!-- Generated by graphviz version 2.38.0 (20140413.2041)
 -->
<!-- Title: artvision_instanton::Timer::~Timer Pages: 1 -->
<svg width="380pt" height="298pt"
 viewBox="0.00 0.00 380.00 297.50" xmlns="http://www.w3.org/2000/svg" xmlns:xlink="http://www.w3.org/1999/xlink">
<g id="graph0" class="graph" transform="scale(1 1) rotate(0) translate(4 293.5)">
<title>artvision_instanton::Timer::~Timer</title>
<polygon fill="white" stroke="none" points="-4,4 -4,-293.5 376,-293.5 376,4 -4,4"/>
<!-- Node1 -->
<g id="node1" class="node"><title>Node1</title>
<polygon fill="#bfbfbf" stroke="black" points="0,-137 0,-167 98,-167 98,-137 0,-137"/>
<text text-anchor="start" x="8" y="-155" font-family="Helvetica,sans-Serif" font-size="10.00">artvision_instanton</text>
<text text-anchor="middle" x="49" y="-144" font-family="Helvetica,sans-Serif" font-size="10.00">::Timer::~Timer</text>
</g>
<!-- Node2 -->
<g id="node2" class="node"><title>Node2</title>
<g id="a_node2"><a xlink:href="classartvision__instanton_1_1_timer.html#a3a8b5272198d029779dc9302a54305a8" target="_top" xlink:title="Start the timer–reet the accumulated time to 0. ">
<polygon fill="white" stroke="black" points="135.5,-225 135.5,-255 233.5,-255 233.5,-225 135.5,-225"/>
<text text-anchor="start" x="143.5" y="-243" font-family="Helvetica,sans-Serif" font-size="10.00">artvision_instanton</text>
<text text-anchor="middle" x="184.5" y="-232" font-family="Helvetica,sans-Serif" font-size="10.00">::Timer::start</text>
</a>
</g>
</g>
<!-- Node1&#45;&gt;Node2 -->
<g id="edge1" class="edge"><title>Node1&#45;&gt;Node2</title>
<path fill="none" stroke="midnightblue" d="M71.1689,-167.134C88.0136,-179.05 112.281,-195.938 134,-210 138.917,-213.184 144.162,-216.473 149.33,-219.655"/>
<polygon fill="midnightblue" stroke="midnightblue" points="147.524,-222.653 157.884,-224.871 151.168,-216.677 147.524,-222.653"/>
</g>
<!-- Node3 -->
<g id="node3" class="node"><title>Node3</title>
<g id="a_node3"><a xlink:href="classartvision__instanton_1_1_timer.html#a9020542d73357a4eef512eefaf57524b" target="_top" xlink:title="Reset the timer; reset the accumulated time to 0. ">
<polygon fill="white" stroke="black" points="272.5,-259 272.5,-289 370.5,-289 370.5,-259 272.5,-259"/>
<text text-anchor="start" x="280.5" y="-277" font-family="Helvetica,sans-Serif" font-size="10.00">artvision_instanton</text>
<text text-anchor="middle" x="321.5" y="-266" font-family="Helvetica,sans-Serif" font-size="10.00">::Timer::reset</text>
</a>
</g>
</g>
<!-- Node1&#45;&gt;Node3 -->
<g id="edge8" class="edge"><title>Node1&#45;&gt;Node3</title>
<path fill="none" stroke="midnightblue" d="M56.0483,-167.106C67.1556,-192.571 93.4491,-243.376 134,-265 173.123,-285.862 223.679,-287.001 262.283,-283.537"/>
<polygon fill="midnightblue" stroke="midnightblue" points="262.737,-287.008 272.329,-282.508 262.024,-280.045 262.737,-287.008"/>
</g>
<!-- Node4 -->
<g id="node4" class="node"><title>Node4</title>
<g id="a_node4"><a xlink:href="classartvision__instanton_1_1_timer.html#a4ac55a73bb3431db9d4d2fd70ae9a2e8" target="_top" xlink:title="Pause timer usage: Start or resume the timer. ">
<polygon fill="white" stroke="black" points="272.5,-191 272.5,-221 370.5,-221 370.5,-191 272.5,-191"/>
<text text-anchor="start" x="280.5" y="-209" font-family="Helvetica,sans-Serif" font-size="10.00">artvision_instanton</text>
<text text-anchor="middle" x="321.5" y="-198" font-family="Helvetica,sans-Serif" font-size="10.00">::Timer::resume</text>
</a>
</g>
</g>
<!-- Node1&#45;&gt;Node4 -->
<g id="edge6" class="edge"><title>Node1&#45;&gt;Node4</title>
<path fill="none" stroke="midnightblue" d="M98.1656,-166.823C109.827,-170.117 122.304,-173.398 134,-176 176.575,-185.471 225.249,-193.198 262.194,-198.437"/>
<polygon fill="midnightblue" stroke="midnightblue" points="261.9,-201.93 272.289,-199.849 262.869,-194.998 261.9,-201.93"/>
</g>
<!-- Node5 -->
<g id="node5" class="node"><title>Node5</title>
<g id="a_node5"><a xlink:href="classartvision__instanton_1_1_timer.html#a63f0eb44b27402196590a03781515dba" target="_top" xlink:title="Stop the timer. ">
<polygon fill="white" stroke="black" points="135.5,-137 135.5,-167 233.5,-167 233.5,-137 135.5,-137"/>
<text text-anchor="start" x="143.5" y="-155" font-family="Helvetica,sans-Serif" font-size="10.00">artvision_instanton</text>
<text text-anchor="middle" x="184.5" y="-144" font-family="Helvetica,sans-Serif" font-size="10.00">::Timer::stop</text>
</a>
</g>
</g>
<!-- Node1&#45;&gt;Node5 -->
<g id="edge4" class="edge"><title>Node1&#45;&gt;Node5</title>
<path fill="none" stroke="midnightblue" d="M98.1966,-152C106.987,-152 116.245,-152 125.289,-152"/>
<polygon fill="midnightblue" stroke="midnightblue" points="125.374,-155.5 135.374,-152 125.374,-148.5 125.374,-155.5"/>
</g>
<!-- Node6 -->
<g id="node6" class="node"><title>Node6</title>
<g id="a_node6"><a xlink:href="classartvision__instanton_1_1_timer.html#a0289effad7b573c508bc27e405900a23" target="_top" xlink:title="Pause timer usage: pause the timer. ">
<polygon fill="white" stroke="black" points="272.5,-109 272.5,-139 370.5,-139 370.5,-109 272.5,-109"/>
<text text-anchor="start" x="280.5" y="-127" font-family="Helvetica,sans-Serif" font-size="10.00">artvision_instanton</text>
<text text-anchor="middle" x="321.5" y="-116" font-family="Helvetica,sans-Serif" font-size="10.00">::Timer::pause</text>
</a>
</g>
</g>
<!-- Node1&#45;&gt;Node6 -->
<g id="edge7" class="edge"><title>Node1&#45;&gt;Node6</title>
<path fill="none" stroke="midnightblue" d="M92.2174,-136.987C105.425,-132.956 120.165,-129.129 134,-127 176.567,-120.45 225.241,-119.896 262.188,-120.876"/>
<polygon fill="midnightblue" stroke="midnightblue" points="262.18,-124.377 272.284,-121.189 262.397,-117.38 262.18,-124.377"/>
</g>
<!-- Node7 -->
<g id="node7" class="node"><title>Node7</title>
<g id="a_node7"><a xlink:href="classartvision__instanton_1_1_timer.html#ae2825671b9ca2365d983d573193fe712" target="_top" xlink:title="Get the timer in seconds. ">
<polygon fill="white" stroke="black" points="271,-33.5 271,-74.5 372,-74.5 372,-33.5 271,-33.5"/>
<text text-anchor="start" x="279" y="-62.5" font-family="Helvetica,sans-Serif" font-size="10.00">artvision_instanton</text>
<text text-anchor="start" x="279" y="-51.5" font-family="Helvetica,sans-Serif" font-size="10.00">::Timer::duration_in</text>
<text text-anchor="middle" x="321.5" y="-40.5" font-family="Helvetica,sans-Serif" font-size="10.00">_seconds</text>
</a>
</g>
</g>
<!-- Node1&#45;&gt;Node7 -->
<g id="edge9" class="edge"><title>Node1&#45;&gt;Node7</title>
<path fill="none" stroke="midnightblue" d="M84.5236,-136.984C99.6176,-130.583 117.589,-123.182 134,-117 176.129,-101.129 224.283,-84.9104 261.106,-72.9042"/>
<polygon fill="midnightblue" stroke="midnightblue" points="262.265,-76.208 270.694,-69.7897 260.102,-69.5504 262.265,-76.208"/>
</g>
<!-- Node8 -->
<g id="node8" class="node"><title>Node8</title>
<g id="a_node8"><a xlink:href="classartvision__instanton_1_1_timer.html#a8892da4ea9dc503f5b9e17ba8ece0b00" target="_top" xlink:title="Get the timer in milliseconds. ">
<polygon fill="white" stroke="black" points="134,-0.5 134,-41.5 235,-41.5 235,-0.5 134,-0.5"/>
<text text-anchor="start" x="142" y="-29.5" font-family="Helvetica,sans-Serif" font-size="10.00">artvision_instanton</text>
<text text-anchor="start" x="142" y="-18.5" font-family="Helvetica,sans-Serif" font-size="10.00">::Timer::duration_in</text>
<text text-anchor="middle" x="184.5" y="-7.5" font-family="Helvetica,sans-Serif" font-size="10.00">_milliseconds</text>
</a>
</g>
</g>
<!-- Node1&#45;&gt;Node8 -->
<g id="edge10" class="edge"><title>Node1&#45;&gt;Node8</title>
<path fill="none" stroke="midnightblue" d="M61.5251,-136.703C76.8599,-116.88 105.381,-81.8037 134,-56 137.122,-53.1853 140.474,-50.3969 143.91,-47.6953"/>
<polygon fill="midnightblue" stroke="midnightblue" points="146.138,-50.3985 152.006,-41.5771 141.917,-44.8138 146.138,-50.3985"/>
</g>
<!-- Node2&#45;&gt;Node3 -->
<g id="edge2" class="edge"><title>Node2&#45;&gt;Node3</title>
<path fill="none" stroke="midnightblue" d="M233.857,-252.179C243.178,-254.526 253.03,-257.008 262.618,-259.422"/>
<polygon fill="midnightblue" stroke="midnightblue" points="261.929,-262.858 272.481,-261.906 263.638,-256.07 261.929,-262.858"/>
</g>
<!-- Node2&#45;&gt;Node4 -->
<g id="edge3" class="edge"><title>Node2&#45;&gt;Node4</title>
<path fill="none" stroke="midnightblue" d="M233.857,-227.821C243.178,-225.474 253.03,-222.992 262.618,-220.578"/>
<polygon fill="midnightblue" stroke="midnightblue" points="263.638,-223.93 272.481,-218.094 261.929,-217.142 263.638,-223.93"/>
</g>
<!-- Node5&#45;&gt;Node6 -->
<g id="edge5" class="edge"><title>Node5&#45;&gt;Node6</title>
<path fill="none" stroke="midnightblue" d="M233.857,-141.97C243.178,-140.037 253.03,-137.994 262.618,-136.005"/>
<polygon fill="midnightblue" stroke="midnightblue" points="263.4,-139.418 272.481,-133.96 261.978,-132.563 263.4,-139.418"/>
</g>
<!-- Node8&#45;&gt;Node7 -->
<g id="edge11" class="edge"><title>Node8&#45;&gt;Node7</title>
<path fill="none" stroke="midnightblue" d="M235.002,-33.1006C243.332,-35.1367 252.056,-37.2692 260.614,-39.3613"/>
<polygon fill="midnightblue" stroke="midnightblue" points="260.007,-42.8157 270.552,-41.7904 261.669,-36.0159 260.007,-42.8157"/>
</g>
</g>
</svg>
