<?xml version="1.0" encoding="UTF-8" standalone="no"?>
<!DOCTYPE svg PUBLIC "-//W3C//DTD SVG 1.1//EN"
 "http://www.w3.org/Graphics/SVG/1.1/DTD/svg11.dtd">
<!-- Generated by graphviz version 2.38.0 (20140413.2041)
 -->
<!-- Title: artvision::RadialLensModel::calibrated_to_image Pages: 1 -->
<svg width="551pt" height="156pt"
 viewBox="0.00 0.00 551.00 156.00" xmlns="http://www.w3.org/2000/svg" xmlns:xlink="http://www.w3.org/1999/xlink">
<g id="graph0" class="graph" transform="scale(1 1) rotate(0) translate(4 152)">
<title>artvision::RadialLensModel::calibrated_to_image</title>
<polygon fill="white" stroke="none" points="-4,4 -4,-152 547,-152 547,4 -4,4"/>
<!-- Node1 -->
<g id="node1" class="node"><title>Node1</title>
<polygon fill="#bfbfbf" stroke="black" points="0,-49.5 0,-79.5 134,-79.5 134,-49.5 0,-49.5"/>
<text text-anchor="start" x="8" y="-67.5" font-family="Helvetica,sans-Serif" font-size="10.00">artvision::RadialLensModel</text>
<text text-anchor="middle" x="67" y="-56.5" font-family="Helvetica,sans-Serif" font-size="10.00">::calibrated_to_image</text>
</g>
<!-- Node2 -->
<g id="node2" class="node"><title>Node2</title>
<g id="a_node2"><a xlink:href="namespaceartvision.html#a9d00942da55ff02843646e3149adee50" target="_top" xlink:title="Apply the lens model to a calibrated point. ">
<polygon fill="white" stroke="black" points="176.5,-99 176.5,-118 302.5,-118 302.5,-99 176.5,-99"/>
<text text-anchor="middle" x="239.5" y="-106" font-family="Helvetica,sans-Serif" font-size="10.00">artvision::ApplyDistortion</text>
</a>
</g>
</g>
<!-- Node1&#45;&gt;Node2 -->
<g id="edge1" class="edge"><title>Node1&#45;&gt;Node2</title>
<path fill="none" stroke="midnightblue" d="M126.2,-79.5192C147.574,-85.0352 171.48,-91.2044 191.723,-96.4284"/>
<polygon fill="midnightblue" stroke="midnightblue" points="191.082,-99.8777 201.639,-98.9876 192.831,-93.0998 191.082,-99.8777"/>
</g>
<!-- Node5 -->
<g id="node5" class="node"><title>Node5</title>
<g id="a_node5"><a xlink:href="classartvision_1_1_pinhole_lens_model.html#a698271e618754ea1cd4e14dba19ca53b" target="_top" xlink:title="Check if input calibrated pixel is valid or not. ">
<polygon fill="white" stroke="black" points="170,-49.5 170,-79.5 309,-79.5 309,-49.5 170,-49.5"/>
<text text-anchor="start" x="178" y="-67.5" font-family="Helvetica,sans-Serif" font-size="10.00">artvision::PinholeLensModel</text>
<text text-anchor="middle" x="239.5" y="-56.5" font-family="Helvetica,sans-Serif" font-size="10.00">::validate_calibrated_pixel</text>
</a>
</g>
</g>
<!-- Node1&#45;&gt;Node5 -->
<g id="edge4" class="edge"><title>Node1&#45;&gt;Node5</title>
<path fill="none" stroke="midnightblue" d="M134.408,-64.5C142.651,-64.5 151.141,-64.5 159.549,-64.5"/>
<polygon fill="midnightblue" stroke="midnightblue" points="159.742,-68.0001 169.742,-64.5 159.742,-61.0001 159.742,-68.0001"/>
</g>
<!-- Node6 -->
<g id="node6" class="node"><title>Node6</title>
<g id="a_node6"><a xlink:href="classartvision_1_1_pinhole_lens_model.html#abac8fad2c6d9e19dc86fcba8dd6dd3ab" target="_top" xlink:title="Check if input image pixel is valid or not. ">
<polygon fill="white" stroke="black" points="170,-0.5 170,-30.5 309,-30.5 309,-0.5 170,-0.5"/>
<text text-anchor="start" x="178" y="-18.5" font-family="Helvetica,sans-Serif" font-size="10.00">artvision::PinholeLensModel</text>
<text text-anchor="middle" x="239.5" y="-7.5" font-family="Helvetica,sans-Serif" font-size="10.00">::validate_image_pixel</text>
</a>
</g>
</g>
<!-- Node1&#45;&gt;Node6 -->
<g id="edge5" class="edge"><title>Node1&#45;&gt;Node6</title>
<path fill="none" stroke="midnightblue" d="M120.547,-49.3986C138.213,-44.3215 158.087,-38.6098 176.416,-33.3423"/>
<polygon fill="midnightblue" stroke="midnightblue" points="177.482,-36.6776 186.127,-30.5516 175.549,-29.9499 177.482,-36.6776"/>
</g>
<!-- Node3 -->
<g id="node3" class="node"><title>Node3</title>
<g id="a_node3"><a xlink:href="namespaceartvision__instanton.html#afb233cb1aedda46513c8b085c60ed0c0" target="_top" xlink:title="Compute the dot product. ">
<polygon fill="white" stroke="black" points="395,-117.5 395,-147.5 493,-147.5 493,-117.5 395,-117.5"/>
<text text-anchor="start" x="403" y="-135.5" font-family="Helvetica,sans-Serif" font-size="10.00">artvision_instanton</text>
<text text-anchor="middle" x="444" y="-124.5" font-family="Helvetica,sans-Serif" font-size="10.00">::DotProduct2</text>
</a>
</g>
</g>
<!-- Node2&#45;&gt;Node3 -->
<g id="edge2" class="edge"><title>Node2&#45;&gt;Node3</title>
<path fill="none" stroke="midnightblue" d="M302.633,-115.864C328.805,-118.966 359.098,-122.556 384.829,-125.606"/>
<polygon fill="midnightblue" stroke="midnightblue" points="384.472,-129.088 394.814,-126.789 385.296,-122.136 384.472,-129.088"/>
</g>
<!-- Node4 -->
<g id="node4" class="node"><title>Node4</title>
<g id="a_node4"><a xlink:href="namespaceartvision__instanton.html#aac7359704d1486d43ac7b00356511175" target="_top" xlink:title="Multiply an in&#45;homogenous point by a transform. ">
<polygon fill="white" stroke="black" points="345,-68.5 345,-98.5 543,-98.5 543,-68.5 345,-68.5"/>
<text text-anchor="start" x="353" y="-86.5" font-family="Helvetica,sans-Serif" font-size="10.00">artvision_instanton</text>
<text text-anchor="middle" x="444" y="-75.5" font-family="Helvetica,sans-Serif" font-size="10.00">::MultiplyPointHomographyInhomogenous</text>
</a>
</g>
</g>
<!-- Node2&#45;&gt;Node4 -->
<g id="edge3" class="edge"><title>Node2&#45;&gt;Node4</title>
<path fill="none" stroke="midnightblue" d="M302.633,-100.829C312.869,-99.5655 323.736,-98.2239 334.714,-96.8687"/>
<polygon fill="midnightblue" stroke="midnightblue" points="335.316,-100.321 344.811,-95.622 334.458,-93.3738 335.316,-100.321"/>
</g>
</g>
</svg>
