<?xml version="1.0" encoding="UTF-8" standalone="no"?>
<!DOCTYPE svg PUBLIC "-//W3C//DTD SVG 1.1//EN"
 "http://www.w3.org/Graphics/SVG/1.1/DTD/svg11.dtd">
<!-- Generated by graphviz version 2.38.0 (20140413.2041)
 -->
<!-- Title: artvision_instanton::ImageYUV::deepCopy Pages: 1 -->
<svg width="402pt" height="147pt"
 viewBox="0.00 0.00 402.00 147.00" xmlns="http://www.w3.org/2000/svg" xmlns:xlink="http://www.w3.org/1999/xlink">
<g id="graph0" class="graph" transform="scale(1 1) rotate(0) translate(4 143)">
<title>artvision_instanton::ImageYUV::deepCopy</title>
<polygon fill="white" stroke="none" points="-4,4 -4,-143 398,-143 398,4 -4,4"/>
<!-- Node1 -->
<g id="node1" class="node"><title>Node1</title>
<polygon fill="#bfbfbf" stroke="black" points="0,-46.5 0,-76.5 121,-76.5 121,-46.5 0,-46.5"/>
<text text-anchor="start" x="8" y="-64.5" font-family="Helvetica,sans-Serif" font-size="10.00">artvision_instanton</text>
<text text-anchor="middle" x="60.5" y="-53.5" font-family="Helvetica,sans-Serif" font-size="10.00">::ImageYUV::deepCopy</text>
</g>
<!-- Node2 -->
<g id="node2" class="node"><title>Node2</title>
<g id="a_node2"><a xlink:href="classartvision__instanton_1_1_image_y_u_v.html#af8fd6bec71fed648c949fea436ed3d23" target="_top" xlink:title="Allocate the image data. ">
<polygon fill="white" stroke="black" points="157,-68.5 157,-98.5 255,-98.5 255,-68.5 157,-68.5"/>
<text text-anchor="start" x="165" y="-86.5" font-family="Helvetica,sans-Serif" font-size="10.00">artvision_instanton</text>
<text text-anchor="middle" x="206" y="-75.5" font-family="Helvetica,sans-Serif" font-size="10.00">::ImageYUV::alloc</text>
</a>
</g>
</g>
<!-- Node1&#45;&gt;Node2 -->
<g id="edge1" class="edge"><title>Node1&#45;&gt;Node2</title>
<path fill="none" stroke="midnightblue" d="M121.11,-70.6389C129.541,-71.9314 138.202,-73.2592 146.61,-74.5482"/>
<polygon fill="midnightblue" stroke="midnightblue" points="146.292,-78.0402 156.707,-76.0961 147.352,-71.1211 146.292,-78.0402"/>
</g>
<!-- Node3 -->
<g id="node3" class="node"><title>Node3</title>
<g id="a_node3"><a xlink:href="classartvision__instanton_1_1_image_y_u_v.html#a99dbf05f44d2af9b2b9b13585b25e205" target="_top" xlink:title="artvision_instanton\l::ImageYUV::size">
<polygon fill="white" stroke="black" points="293.5,-108.5 293.5,-138.5 391.5,-138.5 391.5,-108.5 293.5,-108.5"/>
<text text-anchor="start" x="301.5" y="-126.5" font-family="Helvetica,sans-Serif" font-size="10.00">artvision_instanton</text>
<text text-anchor="middle" x="342.5" y="-115.5" font-family="Helvetica,sans-Serif" font-size="10.00">::ImageYUV::size</text>
</a>
</g>
</g>
<!-- Node1&#45;&gt;Node3 -->
<g id="edge7" class="edge"><title>Node1&#45;&gt;Node3</title>
<path fill="none" stroke="midnightblue" d="M86.4546,-76.6295C105.172,-87.1907 131.798,-100.588 157,-107.5 198.237,-118.81 246.424,-122.687 283.209,-123.802"/>
<polygon fill="midnightblue" stroke="midnightblue" points="283.184,-127.302 293.267,-124.047 283.355,-120.304 283.184,-127.302"/>
</g>
<!-- Node4 -->
<g id="node4" class="node"><title>Node4</title>
<g id="a_node4"><a xlink:href="classartvision__instanton_1_1_image_y_u_v.html#a12ce8037b43ff05672ce85d095f85277" target="_top" xlink:title="Get the dimensions of the image. ">
<polygon fill="white" stroke="black" points="292.5,-56.5 292.5,-86.5 392.5,-86.5 392.5,-56.5 292.5,-56.5"/>
<text text-anchor="start" x="300.5" y="-74.5" font-family="Helvetica,sans-Serif" font-size="10.00">artvision_instanton</text>
<text text-anchor="middle" x="342.5" y="-63.5" font-family="Helvetica,sans-Serif" font-size="10.00">::ImageYUV::width</text>
</a>
</g>
</g>
<!-- Node1&#45;&gt;Node4 -->
<g id="edge5" class="edge"><title>Node1&#45;&gt;Node4</title>
<path fill="none" stroke="midnightblue" d="M121.293,-57.8007C159.572,-56.1171 210.272,-55.1577 255,-58.5 263.802,-59.1578 273.067,-60.187 282.13,-61.3851"/>
<polygon fill="midnightblue" stroke="midnightblue" points="281.853,-64.8804 292.241,-62.7988 282.822,-57.9478 281.853,-64.8804"/>
</g>
<!-- Node5 -->
<g id="node5" class="node"><title>Node5</title>
<g id="a_node5"><a xlink:href="classartvision__instanton_1_1_image_y_u_v.html#aa0db5e42440576206097d04bcc412120" target="_top" xlink:title="artvision_instanton\l::ImageYUV::height">
<polygon fill="white" stroke="black" points="291,-0.5 291,-30.5 394,-30.5 394,-0.5 291,-0.5"/>
<text text-anchor="start" x="299" y="-18.5" font-family="Helvetica,sans-Serif" font-size="10.00">artvision_instanton</text>
<text text-anchor="middle" x="342.5" y="-7.5" font-family="Helvetica,sans-Serif" font-size="10.00">::ImageYUV::height</text>
</a>
</g>
</g>
<!-- Node1&#45;&gt;Node5 -->
<g id="edge6" class="edge"><title>Node1&#45;&gt;Node5</title>
<path fill="none" stroke="midnightblue" d="M121.224,-51.6883C168.208,-43.9694 233.412,-33.2574 280.677,-25.4923"/>
<polygon fill="midnightblue" stroke="midnightblue" points="281.477,-28.9079 290.778,-23.833 280.342,-22.0005 281.477,-28.9079"/>
</g>
<!-- Node2&#45;&gt;Node3 -->
<g id="edge2" class="edge"><title>Node2&#45;&gt;Node3</title>
<path fill="none" stroke="midnightblue" d="M255.178,-97.8279C264.353,-100.557 274.044,-103.439 283.487,-106.247"/>
<polygon fill="midnightblue" stroke="midnightblue" points="282.624,-109.642 293.207,-109.138 284.619,-102.932 282.624,-109.642"/>
</g>
<!-- Node2&#45;&gt;Node4 -->
<g id="edge3" class="edge"><title>Node2&#45;&gt;Node4</title>
<path fill="none" stroke="midnightblue" d="M255.178,-79.2016C263.94,-78.4198 273.174,-77.596 282.213,-76.7896"/>
<polygon fill="midnightblue" stroke="midnightblue" points="282.651,-80.2645 292.3,-75.8896 282.029,-73.2922 282.651,-80.2645"/>
</g>
<!-- Node2&#45;&gt;Node5 -->
<g id="edge4" class="edge"><title>Node2&#45;&gt;Node5</title>
<path fill="none" stroke="midnightblue" d="M236.85,-68.4086C256.266,-58.5924 281.78,-45.6931 302.755,-35.0888"/>
<polygon fill="midnightblue" stroke="midnightblue" points="304.388,-38.1847 311.734,-30.5492 301.23,-31.9377 304.388,-38.1847"/>
</g>
</g>
</svg>
