<?xml version="1.0" encoding="UTF-8" standalone="no"?>
<!DOCTYPE svg PUBLIC "-//W3C//DTD SVG 1.1//EN"
 "http://www.w3.org/Graphics/SVG/1.1/DTD/svg11.dtd">
<!-- Generated by graphviz version 2.38.0 (20140413.2041)
 -->
<!-- Title: ARTrackableSquare::initWithBarcode Pages: 1 -->
<svg width="473pt" height="127pt"
 viewBox="0.00 0.00 473.00 126.50" xmlns="http://www.w3.org/2000/svg" xmlns:xlink="http://www.w3.org/1999/xlink">
<g id="graph0" class="graph" transform="scale(1 1) rotate(0) translate(4 122.5)">
<title>ARTrackableSquare::initWithBarcode</title>
<polygon fill="white" stroke="none" points="-4,4 -4,-122.5 469,-122.5 469,4 -4,4"/>
<!-- Node1 -->
<g id="node1" class="node"><title>Node1</title>
<polygon fill="#bfbfbf" stroke="black" points="0,-49.5 0,-79.5 110,-79.5 110,-49.5 0,-49.5"/>
<text text-anchor="start" x="8" y="-67.5" font-family="Helvetica,sans-Serif" font-size="10.00">ARTrackableSquare::</text>
<text text-anchor="middle" x="55" y="-56.5" font-family="Helvetica,sans-Serif" font-size="10.00">initWithBarcode</text>
</g>
<!-- Node2 -->
<g id="node2" class="node"><title>Node2</title>
<g id="a_node2"><a xlink:href="class_a_r_trackable_square.html#a9f5452921633ac1bd40b661081a9da79" target="_top" xlink:title="ARTrackableSquare::\lunload">
<polygon fill="white" stroke="black" points="166,-49.5 166,-79.5 276,-79.5 276,-49.5 166,-49.5"/>
<text text-anchor="start" x="174" y="-67.5" font-family="Helvetica,sans-Serif" font-size="10.00">ARTrackableSquare::</text>
<text text-anchor="middle" x="221" y="-56.5" font-family="Helvetica,sans-Serif" font-size="10.00">unload</text>
</a>
</g>
</g>
<!-- Node1&#45;&gt;Node2 -->
<g id="edge1" class="edge"><title>Node1&#45;&gt;Node2</title>
<path fill="none" stroke="midnightblue" d="M110.154,-64.5C124.709,-64.5 140.592,-64.5 155.643,-64.5"/>
<polygon fill="midnightblue" stroke="midnightblue" points="155.903,-68.0001 165.903,-64.5 155.903,-61.0001 155.903,-68.0001"/>
</g>
<!-- Node5 -->
<g id="node5" class="node"><title>Node5</title>
<g id="a_node5"><a xlink:href="class_a_r_trackable.html#a913458e15352cfd5488f893c95f9c4f5" target="_top" xlink:title="Allocates space for patterns within this marker. ">
<polygon fill="white" stroke="black" points="146,-99 146,-118 296,-118 296,-99 146,-99"/>
<text text-anchor="middle" x="221" y="-106" font-family="Helvetica,sans-Serif" font-size="10.00">ARTrackable::allocatePatterns</text>
</a>
</g>
</g>
<!-- Node1&#45;&gt;Node5 -->
<g id="edge4" class="edge"><title>Node1&#45;&gt;Node5</title>
<path fill="none" stroke="midnightblue" d="M109.731,-79.6108C121.66,-82.9139 134.25,-86.3599 146,-89.5 154.566,-91.789 163.703,-94.1781 172.53,-96.4588"/>
<polygon fill="midnightblue" stroke="midnightblue" points="171.76,-99.8747 182.317,-98.9768 173.504,-93.0955 171.76,-99.8747"/>
</g>
<!-- Node6 -->
<g id="node6" class="node"><title>Node6</title>
<g id="a_node6"><a xlink:href="class_a_r_trackable_appearance.html#a5f40fc9fd7aa907696081a43ff24d105" target="_top" xlink:title="ARTrackableAppearance\l::loadMatrix">
<polygon fill="white" stroke="black" points="158.5,-0.5 158.5,-30.5 283.5,-30.5 283.5,-0.5 158.5,-0.5"/>
<text text-anchor="start" x="166.5" y="-18.5" font-family="Helvetica,sans-Serif" font-size="10.00">ARTrackableAppearance</text>
<text text-anchor="middle" x="221" y="-7.5" font-family="Helvetica,sans-Serif" font-size="10.00">::loadMatrix</text>
</a>
</g>
</g>
<!-- Node1&#45;&gt;Node6 -->
<g id="edge6" class="edge"><title>Node1&#45;&gt;Node6</title>
<path fill="none" stroke="midnightblue" d="M106.544,-49.3986C123.458,-44.3449 142.477,-38.6624 160.039,-33.4152"/>
<polygon fill="midnightblue" stroke="midnightblue" points="161.044,-36.7679 169.623,-30.5516 159.04,-30.0609 161.044,-36.7679"/>
</g>
<!-- Node3 -->
<g id="node3" class="node"><title>Node3</title>
<g id="a_node3"><a xlink:href="class_a_r_trackable.html#aa425f1e3e1ba8d8b39ec6a34f8e2f403" target="_top" xlink:title="Frees allocated patterns and resets the pattern count to zero. ">
<polygon fill="white" stroke="black" points="332,-96 332,-115 465,-115 465,-96 332,-96"/>
<text text-anchor="middle" x="398.5" y="-103" font-family="Helvetica,sans-Serif" font-size="10.00">ARTrackable::freePatterns</text>
</a>
</g>
</g>
<!-- Node2&#45;&gt;Node3 -->
<g id="edge2" class="edge"><title>Node2&#45;&gt;Node3</title>
<path fill="none" stroke="midnightblue" d="M276.088,-77.1359C298.621,-82.4001 324.645,-88.4798 346.806,-93.6571"/>
<polygon fill="midnightblue" stroke="midnightblue" points="346.156,-97.0993 356.69,-95.9661 347.749,-90.2829 346.156,-97.0993"/>
</g>
<!-- Node4 -->
<g id="node4" class="node"><title>Node4</title>
<g id="a_node4"><a xlink:href="ar_patt_load_8c.html#a7e05342aa3eec9d14b56886aa9bd3731" target="_top" xlink:title="Frees (unloads) a pattern file from memory. ">
<polygon fill="white" stroke="black" points="367.5,-55 367.5,-74 429.5,-74 429.5,-55 367.5,-55"/>
<text text-anchor="middle" x="398.5" y="-62" font-family="Helvetica,sans-Serif" font-size="10.00">arPattFree</text>
</a>
</g>
</g>
<!-- Node2&#45;&gt;Node4 -->
<g id="edge3" class="edge"><title>Node2&#45;&gt;Node4</title>
<path fill="none" stroke="midnightblue" d="M276.088,-64.5C302.232,-64.5 333.075,-64.5 357.132,-64.5"/>
<polygon fill="midnightblue" stroke="midnightblue" points="357.329,-68.0001 367.329,-64.5 357.329,-61.0001 357.329,-68.0001"/>
</g>
<!-- Node5&#45;&gt;Node3 -->
<g id="edge5" class="edge"><title>Node5&#45;&gt;Node3</title>
<path fill="none" stroke="midnightblue" d="M296.173,-107.232C304.62,-107.088 313.239,-106.94 321.706,-106.796"/>
<polygon fill="midnightblue" stroke="midnightblue" points="321.999,-110.291 331.937,-106.621 321.879,-103.292 321.999,-110.291"/>
</g>
</g>
</svg>
