<?xml version="1.0" encoding="UTF-8" standalone="no"?>
<!DOCTYPE svg PUBLIC "-//W3C//DTD SVG 1.1//EN"
 "http://www.w3.org/Graphics/SVG/1.1/DTD/svg11.dtd">
<!-- Generated by graphviz version 2.38.0 (20140413.2041)
 -->
<!-- Title: artvision_instanton::ObjectPool::get Pages: 1 -->
<svg width="304pt" height="88pt"
 viewBox="0.00 0.00 304.00 88.00" xmlns="http://www.w3.org/2000/svg" xmlns:xlink="http://www.w3.org/1999/xlink">
<g id="graph0" class="graph" transform="scale(1 1) rotate(0) translate(4 84)">
<title>artvision_instanton::ObjectPool::get</title>
<polygon fill="white" stroke="none" points="-4,4 -4,-84 300,-84 300,4 -4,4"/>
<!-- Node1 -->
<g id="node1" class="node"><title>Node1</title>
<polygon fill="#bfbfbf" stroke="black" points="0,-24.5 0,-54.5 98,-54.5 98,-24.5 0,-24.5"/>
<text text-anchor="start" x="8" y="-42.5" font-family="Helvetica,sans-Serif" font-size="10.00">artvision_instanton</text>
<text text-anchor="middle" x="49" y="-31.5" font-family="Helvetica,sans-Serif" font-size="10.00">::ObjectPool::get</text>
</g>
<!-- Node2 -->
<g id="node2" class="node"><title>Node2</title>
<g id="a_node2"><a xlink:href="classartvision__instanton_1_1_fixed_size_lock_free_queue.html#a5836e43562ee85f38846f252588b3e81" target="_top" xlink:title="Pop an item from the queue. ">
<polygon fill="white" stroke="black" points="136.5,-49.5 136.5,-79.5 293.5,-79.5 293.5,-49.5 136.5,-49.5"/>
<text text-anchor="start" x="144.5" y="-67.5" font-family="Helvetica,sans-Serif" font-size="10.00">artvision_instanton</text>
<text text-anchor="middle" x="215" y="-56.5" font-family="Helvetica,sans-Serif" font-size="10.00">::FixedSizeLockFreeQueue::pop</text>
</a>
</g>
</g>
<!-- Node1&#45;&gt;Node2 -->
<g id="edge1" class="edge"><title>Node1&#45;&gt;Node2</title>
<path fill="none" stroke="midnightblue" d="M98.3184,-46.8656C107.224,-48.2232 116.772,-49.6786 126.423,-51.1498"/>
<polygon fill="midnightblue" stroke="midnightblue" points="126.082,-54.6382 136.495,-52.6852 127.137,-47.7181 126.082,-54.6382"/>
</g>
<!-- Node3 -->
<g id="node3" class="node"><title>Node3</title>
<g id="a_node3"><a xlink:href="classartvision__instanton_1_1_fixed_size_lock_free_queue.html#a045d02b7b57e58745fcd8dd152a173e7" target="_top" xlink:title="Push an item onto the queue. ">
<polygon fill="white" stroke="black" points="134,-0.5 134,-30.5 296,-30.5 296,-0.5 134,-0.5"/>
<text text-anchor="start" x="142" y="-18.5" font-family="Helvetica,sans-Serif" font-size="10.00">artvision_instanton</text>
<text text-anchor="middle" x="215" y="-7.5" font-family="Helvetica,sans-Serif" font-size="10.00">::FixedSizeLockFreeQueue::push</text>
</a>
</g>
</g>
<!-- Node1&#45;&gt;Node3 -->
<g id="edge2" class="edge"><title>Node1&#45;&gt;Node3</title>
<path fill="none" stroke="midnightblue" d="M98.3184,-32.429C106.419,-31.2436 115.05,-29.9804 123.807,-28.6989"/>
<polygon fill="midnightblue" stroke="midnightblue" points="124.339,-32.1585 133.727,-27.2473 123.325,-25.2323 124.339,-32.1585"/>
</g>
</g>
</svg>
