<?xml version="1.0" encoding="UTF-8" standalone="no"?>
<!DOCTYPE svg PUBLIC "-//W3C//DTD SVG 1.1//EN"
 "http://www.w3.org/Graphics/SVG/1.1/DTD/svg11.dtd">
<!-- Generated by graphviz version 2.38.0 (20140413.2041)
 -->
<!-- Title: ARTrackableSquare::updateWithDetectedMarkersStereo Pages: 1 -->
<!--zoomable 620 -->
<svg id="main" version="1.1" xmlns="http://www.w3.org/2000/svg" xmlns:xlink="http://www.w3.org/1999/xlink" xml:space="preserve" onload="init(evt)">
<style type="text/css"><![CDATA[
.edge:hover path { stroke: red; }
.edge:hover polygon { stroke: red; fill: red; }
]]></style>
<script type="text/javascript"><![CDATA[
var edges = document.getElementsByTagName('g');
if (edges && edges.length) {
  for (var i=0;i<edges.length;i++) {
    if (edges[i].id.substr(0,4)=='edge') {
      edges[i].setAttribute('class','edge');
    }
  }
}
]]></script>
        <defs>
                <circle id="rim" cx="0" cy="0" r="7"/>
                <circle id="rim2" cx="0" cy="0" r="3.5"/>
                <g id="zoomPlus">
                        <use xlink:href="#rim" fill="#404040">
                                <set attributeName="fill" to="#808080" begin="zoomplus.mouseover" end="zoomplus.mouseout"/>
                        </use>
                        <path d="M-4,0h8M0,-4v8" fill="none" stroke="white" stroke-width="1.5" pointer-events="none"/>
                </g>
                <g id="zoomMin">
                        <use xlink:href="#rim" fill="#404040">
                                <set attributeName="fill" to="#808080" begin="zoomminus.mouseover" end="zoomminus.mouseout"/>
                        </use>
                        <path d="M-4,0h8" fill="none" stroke="white" stroke-width="1.5" pointer-events="none"/>
                </g>
                <g id="dirArrow">
                        <path fill="none" stroke="white" stroke-width="1.5" d="M0,-3.0v7 M-2.5,-0.5L0,-3.0L2.5,-0.5"/>
                </g>
               <g id="resetDef">
                       <use xlink:href="#rim2" fill="#404040">
                               <set attributeName="fill" to="#808080" begin="reset.mouseover" end="reset.mouseout"/>
                       </use>
               </g>
        </defs>

<script type="text/javascript">
var viewWidth = 1046;
var viewHeight = 620;
var sectionId = 'dynsection-8';
</script>
<script xlink:href="svgpan.js"/>
<svg id="graph" class="graph">
<g id="viewport">
<title>ARTrackableSquare::updateWithDetectedMarkersStereo</title>
<polygon fill="white" stroke="none" points="-4,4 -4,-616 1042,-616 1042,4 -4,4"/>
<!-- Node1 -->
<g id="node1" class="node"><title>Node1</title>
<polygon fill="#bfbfbf" stroke="black" points="0,-112 0,-142 170,-142 170,-112 0,-112"/>
<text text-anchor="start" x="8" y="-130" font-family="Helvetica,sans-Serif" font-size="10.00">ARTrackableSquare::</text>
<text text-anchor="middle" x="85" y="-119" font-family="Helvetica,sans-Serif" font-size="10.00">updateWithDetectedMarkersStereo</text>
</g>
<!-- Node2 -->
<g id="node2" class="node"><title>Node2</title>
<g id="a_node2"><a xlink:href="ar3_d_util_8c.html#a65bd9329ac9a1e8d3ca04c938dfc7fd2" target="_top" xlink:title="arGetStereoMatchingError\lSquare">
<polygon fill="white" stroke="black" points="211.5,-112 211.5,-142 341.5,-142 341.5,-112 211.5,-112"/>
<text text-anchor="start" x="219.5" y="-130" font-family="Helvetica,sans-Serif" font-size="10.00">arGetStereoMatchingError</text>
<text text-anchor="middle" x="276.5" y="-119" font-family="Helvetica,sans-Serif" font-size="10.00">Square</text>
</a>
</g>
</g>
<!-- Node1&#45;&gt;Node2 -->
<g id="edge1" class="edge"><title>Node1&#45;&gt;Node2</title>
<path fill="none" stroke="midnightblue" d="M170.221,-127C180.6,-127 191.15,-127 201.364,-127"/>
<polygon fill="midnightblue" stroke="midnightblue" points="201.447,-130.5 211.447,-127 201.447,-123.5 201.447,-130.5"/>
</g>
<!-- Node12 -->
<g id="node12" class="node"><title>Node12</title>
<g id="a_node12"><a xlink:href="ar_get_trans_mat_stereo_8c.html#a8062d2388e1450a896468287f6ba793c" target="_top" xlink:title="arGetTransMatSquareStereo">
<polygon fill="white" stroke="black" points="206,-212.5 206,-231.5 347,-231.5 347,-212.5 206,-212.5"/>
<text text-anchor="middle" x="276.5" y="-219.5" font-family="Helvetica,sans-Serif" font-size="10.00">arGetTransMatSquareStereo</text>
</a>
</g>
</g>
<!-- Node1&#45;&gt;Node12 -->
<g id="edge16" class="edge"><title>Node1&#45;&gt;Node12</title>
<path fill="none" stroke="midnightblue" d="M116.027,-142.053C151.99,-160.082 211.784,-190.058 247.039,-207.732"/>
<polygon fill="midnightblue" stroke="midnightblue" points="245.784,-211.018 256.292,-212.371 248.921,-204.76 245.784,-211.018"/>
</g>
<!-- Node25 -->
<g id="node25" class="node"><title>Node25</title>
<g id="a_node25"><a xlink:href="class_a_r_trackable.html#a445a8894d99c98bc966ebff530d58278" target="_top" xlink:title="Completes an update begun in the parent class, performing filtering, generating OpenGL view matrix an...">
<polygon fill="white" stroke="black" points="222,-73.5 222,-92.5 331,-92.5 331,-73.5 222,-73.5"/>
<text text-anchor="middle" x="276.5" y="-80.5" font-family="Helvetica,sans-Serif" font-size="10.00">ARTrackable::update</text>
</a>
</g>
</g>
<!-- Node1&#45;&gt;Node25 -->
<g id="edge45" class="edge"><title>Node1&#45;&gt;Node25</title>
<path fill="none" stroke="midnightblue" d="M150.685,-111.981C174.875,-106.364 201.982,-100.07 224.739,-94.7863"/>
<polygon fill="midnightblue" stroke="midnightblue" points="225.583,-98.1835 234.532,-92.5124 223.999,-91.3649 225.583,-98.1835"/>
</g>
<!-- Node3 -->
<g id="node3" class="node"><title>Node3</title>
<g id="a_node3"><a xlink:href="ar3_d_util_8c.html#a1397dc905f26dd196deb79b07e983484" target="_top" xlink:title="arGetStereoMatchingError">
<polygon fill="white" stroke="black" points="534,-209.5 534,-228.5 664,-228.5 664,-209.5 534,-209.5"/>
<text text-anchor="middle" x="599" y="-216.5" font-family="Helvetica,sans-Serif" font-size="10.00">arGetStereoMatchingError</text>
</a>
</g>
</g>
<!-- Node2&#45;&gt;Node3 -->
<g id="edge2" class="edge"><title>Node2&#45;&gt;Node3</title>
<path fill="none" stroke="midnightblue" d="M330.065,-142.089C392.851,-160.112 496.683,-189.917 554.938,-206.639"/>
<polygon fill="midnightblue" stroke="midnightblue" points="553.996,-210.01 564.574,-209.405 555.928,-203.282 553.996,-210.01"/>
</g>
<!-- Node4 -->
<g id="node4" class="node"><title>Node4</title>
<g id="a_node4"><a xlink:href="_a_r_2include_2_a_r6_2_a_r_2matrix_8h.html#a7169e4124d09fcbe1b8730ade678d64d" target="_top" xlink:title="arMatrixAlloc">
<polygon fill="white" stroke="black" points="843.5,-165.5 843.5,-184.5 917.5,-184.5 917.5,-165.5 843.5,-165.5"/>
<text text-anchor="middle" x="880.5" y="-172.5" font-family="Helvetica,sans-Serif" font-size="10.00">arMatrixAlloc</text>
</a>
</g>
</g>
<!-- Node3&#45;&gt;Node4 -->
<g id="edge3" class="edge"><title>Node3&#45;&gt;Node4</title>
<path fill="none" stroke="midnightblue" d="M642.96,-209.495C662.709,-205.32 686.48,-200.567 708,-197 750.135,-190.016 798.41,-183.999 832.985,-180.032"/>
<polygon fill="midnightblue" stroke="midnightblue" points="833.711,-183.472 843.253,-178.868 832.922,-176.517 833.711,-183.472"/>
</g>
<!-- Node5 -->
<g id="node5" class="node"><title>Node5</title>
<g id="a_node5"><a xlink:href="_a_r_2include_2_a_r6_2_a_r_2matrix_8h.html#ab9ad3d00092c818fe63eb37184983069" target="_top" xlink:title="arMatrixAllocInv">
<polygon fill="white" stroke="black" points="713.5,-60.5 713.5,-79.5 800.5,-79.5 800.5,-60.5 713.5,-60.5"/>
<text text-anchor="middle" x="757" y="-67.5" font-family="Helvetica,sans-Serif" font-size="10.00">arMatrixAllocInv</text>
</a>
</g>
</g>
<!-- Node3&#45;&gt;Node5 -->
<g id="edge4" class="edge"><title>Node3&#45;&gt;Node5</title>
<path fill="none" stroke="midnightblue" d="M648.731,-209.475C657.281,-206.038 665.505,-201.362 672,-195 706.043,-161.652 676.406,-129.677 708,-94 711.227,-90.3555 715.137,-87.1989 719.316,-84.4829"/>
<polygon fill="midnightblue" stroke="midnightblue" points="721.145,-87.4697 728.139,-79.5115 717.709,-81.3711 721.145,-87.4697"/>
</g>
<!-- Node9 -->
<g id="node9" class="node"><title>Node9</title>
<g id="a_node9"><a xlink:href="_a_r_2include_2_a_r6_2_a_r_2matrix_8h.html#ac4b7a714cce9fffda773d86363380454" target="_top" xlink:title="arMatrixFree">
<polygon fill="white" stroke="black" points="845,-212.5 845,-231.5 916,-231.5 916,-212.5 845,-212.5"/>
<text text-anchor="middle" x="880.5" y="-219.5" font-family="Helvetica,sans-Serif" font-size="10.00">arMatrixFree</text>
</a>
</g>
</g>
<!-- Node3&#45;&gt;Node9 -->
<g id="edge15" class="edge"><title>Node3&#45;&gt;Node9</title>
<path fill="none" stroke="midnightblue" d="M649.671,-209.484C691.482,-202.828 752.8,-196.235 806,-203 817.211,-204.426 829.159,-207.028 840.091,-209.859"/>
<polygon fill="midnightblue" stroke="midnightblue" points="839.227,-213.251 849.795,-212.496 841.063,-206.496 839.227,-213.251"/>
</g>
<!-- Node10 -->
<g id="node10" class="node"><title>Node10</title>
<g id="a_node10"><a xlink:href="_a_r_2include_2_a_r6_2_a_r_2matrix_8h.html#a4d8d5ab04ba588d275e08c9f92694925" target="_top" xlink:title="arMatrixAllocMul">
<polygon fill="white" stroke="black" points="712.5,-212.5 712.5,-231.5 801.5,-231.5 801.5,-212.5 712.5,-212.5"/>
<text text-anchor="middle" x="757" y="-219.5" font-family="Helvetica,sans-Serif" font-size="10.00">arMatrixAllocMul</text>
</a>
</g>
</g>
<!-- Node3&#45;&gt;Node10 -->
<g id="edge10" class="edge"><title>Node3&#45;&gt;Node10</title>
<path fill="none" stroke="midnightblue" d="M664.352,-220.238C676.941,-220.48 690.02,-220.731 702.222,-220.966"/>
<polygon fill="midnightblue" stroke="midnightblue" points="702.169,-224.465 712.234,-221.158 702.303,-217.467 702.169,-224.465"/>
</g>
<!-- Node11 -->
<g id="node11" class="node"><title>Node11</title>
<g id="a_node11"><a xlink:href="_a_r_2include_2_a_r6_2_a_r_2matrix_8h.html#a202bc2db43d563792c99e852ea0b7ba4" target="_top" xlink:title="arMatrixMul">
<polygon fill="white" stroke="black" points="846.5,-345.5 846.5,-364.5 914.5,-364.5 914.5,-345.5 846.5,-345.5"/>
<text text-anchor="middle" x="880.5" y="-352.5" font-family="Helvetica,sans-Serif" font-size="10.00">arMatrixMul</text>
</a>
</g>
</g>
<!-- Node3&#45;&gt;Node11 -->
<g id="edge14" class="edge"><title>Node3&#45;&gt;Node11</title>
<path fill="none" stroke="midnightblue" d="M656.684,-228.641C662.217,-231.097 667.454,-234.166 672,-238 701.496,-262.875 678.013,-292.719 708,-317 727.364,-332.679 791.878,-343.824 836.017,-349.835"/>
<polygon fill="midnightblue" stroke="midnightblue" points="835.833,-353.342 846.206,-351.182 836.751,-346.402 835.833,-353.342"/>
</g>
<!-- Node5&#45;&gt;Node4 -->
<g id="edge5" class="edge"><title>Node5&#45;&gt;Node4</title>
<path fill="none" stroke="midnightblue" d="M782.096,-79.6726C790.123,-83.4954 798.836,-88.3392 806,-94 825.556,-109.453 825.232,-118.559 842,-137 848.454,-144.098 855.818,-151.668 862.303,-158.168"/>
<polygon fill="midnightblue" stroke="midnightblue" points="859.84,-160.654 869.403,-165.214 864.771,-155.686 859.84,-160.654"/>
</g>
<!-- Node6 -->
<g id="node6" class="node"><title>Node6</title>
<g id="a_node6"><a xlink:href="_a_r_2include_2_a_r6_2_a_r_2matrix_8h.html#abebae87acb77ccf8cd0c5da106238a86" target="_top" xlink:title="arMatrixInv">
<polygon fill="white" stroke="black" points="848,-108.5 848,-127.5 913,-127.5 913,-108.5 848,-108.5"/>
<text text-anchor="middle" x="880.5" y="-115.5" font-family="Helvetica,sans-Serif" font-size="10.00">arMatrixInv</text>
</a>
</g>
</g>
<!-- Node5&#45;&gt;Node6 -->
<g id="edge6" class="edge"><title>Node5&#45;&gt;Node6</title>
<path fill="none" stroke="midnightblue" d="M782.295,-79.5982C800.506,-86.7926 825.653,-96.727 845.806,-104.689"/>
<polygon fill="midnightblue" stroke="midnightblue" points="844.66,-107.999 855.247,-108.418 847.232,-101.489 844.66,-107.999"/>
</g>
<!-- Node5&#45;&gt;Node9 -->
<g id="edge9" class="edge"><title>Node5&#45;&gt;Node9</title>
<path fill="none" stroke="midnightblue" d="M766.237,-79.7901C776.151,-91.7607 793.078,-112.802 806,-132 823.792,-158.434 820.804,-170.208 842,-194 845.918,-198.398 850.625,-202.551 855.359,-206.245"/>
<polygon fill="midnightblue" stroke="midnightblue" points="853.602,-209.295 863.746,-212.351 857.722,-203.636 853.602,-209.295"/>
</g>
<!-- Node7 -->
<g id="node7" class="node"><title>Node7</title>
<g id="a_node7"><a xlink:href="_a_r_2include_2_a_r6_2_a_r_2matrix_8h.html#a988e4c76394edccbf1e86005b97f725a" target="_top" xlink:title="arMatrixDup">
<polygon fill="white" stroke="black" points="961.5,-108.5 961.5,-127.5 1031.5,-127.5 1031.5,-108.5 961.5,-108.5"/>
<text text-anchor="middle" x="996.5" y="-115.5" font-family="Helvetica,sans-Serif" font-size="10.00">arMatrixDup</text>
</a>
</g>
</g>
<!-- Node6&#45;&gt;Node7 -->
<g id="edge7" class="edge"><title>Node6&#45;&gt;Node7</title>
<path fill="none" stroke="midnightblue" d="M913.255,-118C924.888,-118 938.278,-118 950.83,-118"/>
<polygon fill="midnightblue" stroke="midnightblue" points="951.12,-121.5 961.12,-118 951.12,-114.5 951.12,-121.5"/>
</g>
<!-- Node8 -->
<g id="node8" class="node"><title>Node8</title>
<g id="a_node8"><a xlink:href="_a_r_2include_2_a_r6_2_a_r_2matrix_8h.html#a929738025b539a0c1bbd2f395ad4d981" target="_top" xlink:title="arMatrixSelfInv">
<polygon fill="white" stroke="black" points="955,-293.5 955,-312.5 1038,-312.5 1038,-293.5 955,-293.5"/>
<text text-anchor="middle" x="996.5" y="-300.5" font-family="Helvetica,sans-Serif" font-size="10.00">arMatrixSelfInv</text>
</a>
</g>
</g>
<!-- Node6&#45;&gt;Node8 -->
<g id="edge8" class="edge"><title>Node6&#45;&gt;Node8</title>
<path fill="none" stroke="midnightblue" d="M892.578,-127.565C900.563,-134.832 911.253,-145.36 919,-156 949.917,-198.465 975.646,-255.13 987.861,-284.14"/>
<polygon fill="midnightblue" stroke="midnightblue" points="984.676,-285.598 991.734,-293.499 991.144,-282.921 984.676,-285.598"/>
</g>
<!-- Node10&#45;&gt;Node4 -->
<g id="edge11" class="edge"><title>Node10&#45;&gt;Node4</title>
<path fill="none" stroke="midnightblue" d="M782.587,-212.489C800.584,-205.527 825.236,-195.991 845.174,-188.279"/>
<polygon fill="midnightblue" stroke="midnightblue" points="846.468,-191.53 854.532,-184.658 843.943,-185.002 846.468,-191.53"/>
</g>
<!-- Node10&#45;&gt;Node9 -->
<g id="edge13" class="edge"><title>Node10&#45;&gt;Node9</title>
<path fill="none" stroke="midnightblue" d="M801.521,-222C812.254,-222 823.769,-222 834.568,-222"/>
<polygon fill="midnightblue" stroke="midnightblue" points="834.653,-225.5 844.652,-222 834.652,-218.5 834.653,-225.5"/>
</g>
<!-- Node10&#45;&gt;Node11 -->
<g id="edge12" class="edge"><title>Node10&#45;&gt;Node11</title>
<path fill="none" stroke="midnightblue" d="M766.177,-231.592C781.005,-248.909 813.444,-286.433 842,-317 848.64,-324.107 856.137,-331.773 862.673,-338.345"/>
<polygon fill="midnightblue" stroke="midnightblue" points="860.247,-340.868 869.796,-345.459 865.194,-335.915 860.247,-340.868"/>
</g>
<!-- Node13 -->
<g id="node13" class="node"><title>Node13</title>
<g id="a_node13"><a xlink:href="icp_util_8c.html#a9a0da1f41013b11363f39d99a5c937e9" target="_top" xlink:title="icpGetInitXw2Xc_from\l_PlanarData">
<polygon fill="white" stroke="black" points="541.5,-248 541.5,-278 656.5,-278 656.5,-248 541.5,-248"/>
<text text-anchor="start" x="549.5" y="-266" font-family="Helvetica,sans-Serif" font-size="10.00">icpGetInitXw2Xc_from</text>
<text text-anchor="middle" x="599" y="-255" font-family="Helvetica,sans-Serif" font-size="10.00">_PlanarData</text>
</a>
</g>
</g>
<!-- Node12&#45;&gt;Node13 -->
<g id="edge17" class="edge"><title>Node12&#45;&gt;Node13</title>
<path fill="none" stroke="midnightblue" d="M347.044,-230.896C401.698,-237.888 477.342,-247.565 531.261,-254.462"/>
<polygon fill="midnightblue" stroke="midnightblue" points="531.041,-257.963 541.404,-255.76 531.929,-251.019 531.041,-257.963"/>
</g>
<!-- Node16 -->
<g id="node16" class="node"><title>Node16</title>
<g id="a_node16"><a xlink:href="ar_util_8c.html#a97c94e6c703a2e449272302c925944d1" target="_top" xlink:title="arUtilMatInv">
<polygon fill="white" stroke="black" points="722,-22.5 722,-41.5 792,-41.5 792,-22.5 722,-22.5"/>
<text text-anchor="middle" x="757" y="-29.5" font-family="Helvetica,sans-Serif" font-size="10.00">arUtilMatInv</text>
</a>
</g>
</g>
<!-- Node12&#45;&gt;Node16 -->
<g id="edge27" class="edge"><title>Node12&#45;&gt;Node16</title>
<path fill="none" stroke="midnightblue" d="M347.181,-216.048C446.898,-206.226 623.626,-183.557 672,-143 705.647,-114.79 677.013,-82.1084 708,-51 709.593,-49.4006 711.337,-47.9321 713.188,-46.584"/>
<polygon fill="midnightblue" stroke="midnightblue" points="715.05,-49.5483 721.839,-41.4139 711.459,-43.5396 715.05,-49.5483"/>
</g>
<!-- Node17 -->
<g id="node17" class="node"><title>Node17</title>
<g id="a_node17"><a xlink:href="icp_stereo_point_8c.html#afa05ec4cb1c2537d535521e4ee42c5ac" target="_top" xlink:title="icpStereoPoint">
<polygon fill="white" stroke="black" points="396.5,-440.5 396.5,-459.5 476.5,-459.5 476.5,-440.5 396.5,-440.5"/>
<text text-anchor="middle" x="436.5" y="-447.5" font-family="Helvetica,sans-Serif" font-size="10.00">icpStereoPoint</text>
</a>
</g>
</g>
<!-- Node12&#45;&gt;Node17 -->
<g id="edge31" class="edge"><title>Node12&#45;&gt;Node17</title>
<path fill="none" stroke="midnightblue" d="M284.088,-231.507C308.129,-266.199 391.384,-386.34 423.099,-432.105"/>
<polygon fill="midnightblue" stroke="midnightblue" points="420.311,-434.227 428.884,-440.453 426.065,-430.24 420.311,-434.227"/>
</g>
<!-- Node13&#45;&gt;Node4 -->
<g id="edge18" class="edge"><title>Node13&#45;&gt;Node4</title>
<path fill="none" stroke="midnightblue" d="M652.382,-247.875C659.199,-245.033 665.919,-241.752 672,-238 690.992,-226.284 688.07,-213.038 708,-203 747.237,-183.238 797.33,-176.898 833.231,-175.106"/>
<polygon fill="midnightblue" stroke="midnightblue" points="833.571,-178.595 843.423,-174.699 833.292,-171.601 833.571,-178.595"/>
</g>
<!-- Node13&#45;&gt;Node8 -->
<g id="edge25" class="edge"><title>Node13&#45;&gt;Node8</title>
<path fill="none" stroke="midnightblue" d="M613.855,-278.046C640.25,-306.53 696.174,-365.946 708,-371 794.241,-407.858 831.698,-408.27 919,-374 946.003,-363.4 969.15,-338.291 982.704,-320.965"/>
<polygon fill="midnightblue" stroke="midnightblue" points="985.68,-322.83 988.887,-312.732 980.083,-318.627 985.68,-322.83"/>
</g>
<!-- Node13&#45;&gt;Node9 -->
<g id="edge19" class="edge"><title>Node13&#45;&gt;Node9</title>
<path fill="none" stroke="midnightblue" d="M656.714,-259.192C698.271,-255.857 755.926,-250.095 806,-241 816.115,-239.163 826.889,-236.681 836.982,-234.119"/>
<polygon fill="midnightblue" stroke="midnightblue" points="838.01,-237.467 846.799,-231.55 836.238,-230.696 838.01,-237.467"/>
</g>
<!-- Node13&#45;&gt;Node10 -->
<g id="edge24" class="edge"><title>Node13&#45;&gt;Node10</title>
<path fill="none" stroke="midnightblue" d="M656.761,-248.082C674.076,-243.531 692.902,-238.584 709.457,-234.233"/>
<polygon fill="midnightblue" stroke="midnightblue" points="710.655,-237.536 719.437,-231.609 708.876,-230.766 710.655,-237.536"/>
</g>
<!-- Node13&#45;&gt;Node11 -->
<g id="edge26" class="edge"><title>Node13&#45;&gt;Node11</title>
<path fill="none" stroke="midnightblue" d="M612.771,-278.175C631.286,-298.895 667.795,-335.158 708,-350 749.583,-365.35 800.772,-364.544 836.349,-361.178"/>
<polygon fill="midnightblue" stroke="midnightblue" points="836.825,-364.647 846.404,-360.119 836.092,-357.686 836.825,-364.647"/>
</g>
<!-- Node14 -->
<g id="node14" class="node"><title>Node14</title>
<g id="a_node14"><a xlink:href="_a_r_2include_2_a_r6_2_a_r_2matrix_8h.html#a49e8f4e71a6048683feebdc15336bb67" target="_top" xlink:title="arMatrixAllocTrans">
<polygon fill="white" stroke="black" points="708,-288.5 708,-307.5 806,-307.5 806,-288.5 708,-288.5"/>
<text text-anchor="middle" x="757" y="-295.5" font-family="Helvetica,sans-Serif" font-size="10.00">arMatrixAllocTrans</text>
</a>
</g>
</g>
<!-- Node13&#45;&gt;Node14 -->
<g id="edge20" class="edge"><title>Node13&#45;&gt;Node14</title>
<path fill="none" stroke="midnightblue" d="M656.761,-275.735C671.908,-279.133 688.213,-282.791 703.141,-286.141"/>
<polygon fill="midnightblue" stroke="midnightblue" points="702.702,-289.629 713.226,-288.403 704.234,-282.799 702.702,-289.629"/>
</g>
<!-- Node14&#45;&gt;Node4 -->
<g id="edge21" class="edge"><title>Node14&#45;&gt;Node4</title>
<path fill="none" stroke="midnightblue" d="M765.975,-288.492C783.644,-267.507 825.803,-217.911 842,-203 846.595,-198.77 851.812,-194.555 856.863,-190.728"/>
<polygon fill="midnightblue" stroke="midnightblue" points="859.068,-193.452 865.068,-184.72 854.932,-187.804 859.068,-193.452"/>
</g>
<!-- Node14&#45;&gt;Node9 -->
<g id="edge23" class="edge"><title>Node14&#45;&gt;Node9</title>
<path fill="none" stroke="midnightblue" d="M778.924,-288.395C787.476,-284.25 797.368,-279.171 806,-274 824.545,-262.892 844.503,-248.61 858.936,-237.825"/>
<polygon fill="midnightblue" stroke="midnightblue" points="861.277,-240.442 867.146,-231.621 857.057,-234.857 861.277,-240.442"/>
</g>
<!-- Node15 -->
<g id="node15" class="node"><title>Node15</title>
<g id="a_node15"><a xlink:href="_a_r_2include_2_a_r6_2_a_r_2matrix_8h.html#ad3d9712dd27f655902a8a3315e623d85" target="_top" xlink:title="arMatrixTrans">
<polygon fill="white" stroke="black" points="842,-288.5 842,-307.5 919,-307.5 919,-288.5 842,-288.5"/>
<text text-anchor="middle" x="880.5" y="-295.5" font-family="Helvetica,sans-Serif" font-size="10.00">arMatrixTrans</text>
</a>
</g>
</g>
<!-- Node14&#45;&gt;Node15 -->
<g id="edge22" class="edge"><title>Node14&#45;&gt;Node15</title>
<path fill="none" stroke="midnightblue" d="M806.02,-298C814.508,-298 823.344,-298 831.822,-298"/>
<polygon fill="midnightblue" stroke="midnightblue" points="831.941,-301.5 841.941,-298 831.941,-294.5 831.941,-301.5"/>
</g>
<!-- Node16&#45;&gt;Node4 -->
<g id="edge28" class="edge"><title>Node16&#45;&gt;Node4</title>
<path fill="none" stroke="midnightblue" d="M792.082,-41.4936C797.172,-43.9888 802.033,-47.1094 806,-51 835.584,-80.0121 819.029,-102.514 842,-137 847.058,-144.594 853.771,-151.966 860.118,-158.164"/>
<polygon fill="midnightblue" stroke="midnightblue" points="858.103,-161.07 867.81,-165.316 862.87,-155.944 858.103,-161.07"/>
</g>
<!-- Node16&#45;&gt;Node8 -->
<g id="edge29" class="edge"><title>Node16&#45;&gt;Node8</title>
<path fill="none" stroke="midnightblue" d="M792.127,-37.8482C828.238,-45.7332 884.653,-63.1462 919,-99 970.313,-152.564 987.902,-243.772 993.323,-283.52"/>
<polygon fill="midnightblue" stroke="midnightblue" points="989.857,-284.009 994.571,-293.497 996.803,-283.14 989.857,-284.009"/>
</g>
<!-- Node16&#45;&gt;Node9 -->
<g id="edge30" class="edge"><title>Node16&#45;&gt;Node9</title>
<path fill="none" stroke="midnightblue" d="M792.116,-40.7558C797.325,-43.3455 802.217,-46.6886 806,-51 849.228,-100.261 805.644,-139.469 842,-194 845.021,-198.532 849.031,-202.61 853.305,-206.161"/>
<polygon fill="midnightblue" stroke="midnightblue" points="851.533,-209.203 861.659,-212.322 855.688,-203.57 851.533,-209.203"/>
</g>
<!-- Node18 -->
<g id="node18" class="node"><title>Node18</title>
<g id="a_node18"><a xlink:href="ar_util_8c.html#ae28eeba3e16224a7d77b46bd34b8f4fe" target="_top" xlink:title="arUtilMatMul">
<polygon fill="white" stroke="black" points="563,-351.5 563,-370.5 635,-370.5 635,-351.5 563,-351.5"/>
<text text-anchor="middle" x="599" y="-358.5" font-family="Helvetica,sans-Serif" font-size="10.00">arUtilMatMul</text>
</a>
</g>
</g>
<!-- Node17&#45;&gt;Node18 -->
<g id="edge32" class="edge"><title>Node17&#45;&gt;Node18</title>
<path fill="none" stroke="midnightblue" d="M450.899,-440.441C467.899,-428.534 498.342,-407.938 526,-393 538.251,-386.383 552.143,-379.969 564.433,-374.643"/>
<polygon fill="midnightblue" stroke="midnightblue" points="566.054,-377.757 573.885,-370.621 563.313,-371.316 566.054,-377.757"/>
</g>
<!-- Node19 -->
<g id="node19" class="node"><title>Node19</title>
<g id="a_node19"><a xlink:href="icp_core_8c.html#a5bbc6e7577592a3268ef3d391b0ba96d" target="_top" xlink:title="icpDispMat">
<polygon fill="white" stroke="black" points="724,-592.5 724,-611.5 790,-611.5 790,-592.5 724,-592.5"/>
<text text-anchor="middle" x="757" y="-599.5" font-family="Helvetica,sans-Serif" font-size="10.00">icpDispMat</text>
</a>
</g>
</g>
<!-- Node17&#45;&gt;Node19 -->
<g id="edge33" class="edge"><title>Node17&#45;&gt;Node19</title>
<path fill="none" stroke="midnightblue" d="M476.713,-458.634C541.433,-473.011 664.283,-500.886 672,-507 699.732,-528.97 682.912,-553.053 708,-578 711.53,-581.511 715.678,-584.601 720.032,-587.295"/>
<polygon fill="midnightblue" stroke="midnightblue" points="718.674,-590.541 729.127,-592.271 722.035,-584.4 718.674,-590.541"/>
</g>
<!-- Node20 -->
<g id="node20" class="node"><title>Node20</title>
<g id="a_node20"><a xlink:href="icp_core_8c.html#aceeb3fd72a762c2078d8fb88ec03ccfb" target="_top" xlink:title="icpGetU_from_X_by_MatX2U">
<polygon fill="white" stroke="black" points="526,-402.5 526,-421.5 672,-421.5 672,-402.5 526,-402.5"/>
<text text-anchor="middle" x="599" y="-409.5" font-family="Helvetica,sans-Serif" font-size="10.00">icpGetU_from_X_by_MatX2U</text>
</a>
</g>
</g>
<!-- Node17&#45;&gt;Node20 -->
<g id="edge34" class="edge"><title>Node17&#45;&gt;Node20</title>
<path fill="none" stroke="midnightblue" d="M476.763,-440.704C498.186,-435.632 524.936,-429.299 547.854,-423.873"/>
<polygon fill="midnightblue" stroke="midnightblue" points="548.823,-427.24 557.747,-421.53 547.21,-420.428 548.823,-427.24"/>
</g>
<!-- Node21 -->
<g id="node21" class="node"><title>Node21</title>
<g id="a_node21"><a xlink:href="icp_core_8c.html#ac384ca6737fdee325d58740d665eda0a" target="_top" xlink:title="icpGetJ_U_S">
<polygon fill="white" stroke="black" points="561.5,-516.5 561.5,-535.5 636.5,-535.5 636.5,-516.5 561.5,-516.5"/>
<text text-anchor="middle" x="599" y="-523.5" font-family="Helvetica,sans-Serif" font-size="10.00">icpGetJ_U_S</text>
</a>
</g>
</g>
<!-- Node17&#45;&gt;Node21 -->
<g id="edge35" class="edge"><title>Node17&#45;&gt;Node21</title>
<path fill="none" stroke="midnightblue" d="M451.716,-459.618C468.795,-470.87 498.581,-489.541 526,-502 535.081,-506.126 545.088,-509.911 554.678,-513.195"/>
<polygon fill="midnightblue" stroke="midnightblue" points="553.872,-516.615 564.466,-516.43 556.069,-509.969 553.872,-516.615"/>
</g>
<!-- Node22 -->
<g id="node22" class="node"><title>Node22</title>
<g id="a_node22"><a xlink:href="icp_core_8c.html#a4906398b4594d29ab8035b4016a7e9de" target="_top" xlink:title="icpGetDeltaS">
<polygon fill="white" stroke="black" points="561.5,-440.5 561.5,-459.5 636.5,-459.5 636.5,-440.5 561.5,-440.5"/>
<text text-anchor="middle" x="599" y="-447.5" font-family="Helvetica,sans-Serif" font-size="10.00">icpGetDeltaS</text>
</a>
</g>
</g>
<!-- Node17&#45;&gt;Node22 -->
<g id="edge37" class="edge"><title>Node17&#45;&gt;Node22</title>
<path fill="none" stroke="midnightblue" d="M476.763,-450C499.237,-450 527.573,-450 551.198,-450"/>
<polygon fill="midnightblue" stroke="midnightblue" points="551.343,-453.5 561.343,-450 551.343,-446.5 551.343,-453.5"/>
</g>
<!-- Node24 -->
<g id="node24" class="node"><title>Node24</title>
<g id="a_node24"><a xlink:href="icp_core_8c.html#a94201124387610a46b975cdb9d8a1db6" target="_top" xlink:title="icpUpdateMat">
<polygon fill="white" stroke="black" points="560.5,-554.5 560.5,-573.5 637.5,-573.5 637.5,-554.5 560.5,-554.5"/>
<text text-anchor="middle" x="599" y="-561.5" font-family="Helvetica,sans-Serif" font-size="10.00">icpUpdateMat</text>
</a>
</g>
</g>
<!-- Node17&#45;&gt;Node24 -->
<g id="edge44" class="edge"><title>Node17&#45;&gt;Node24</title>
<path fill="none" stroke="midnightblue" d="M443.756,-459.766C456.678,-479.121 488.286,-522.424 526,-545 533.415,-549.439 541.866,-552.855 550.307,-555.479"/>
<polygon fill="midnightblue" stroke="midnightblue" points="549.577,-558.909 560.149,-558.211 551.449,-552.164 549.577,-558.909"/>
</g>
<!-- Node21&#45;&gt;Node19 -->
<g id="edge36" class="edge"><title>Node21&#45;&gt;Node19</title>
<path fill="none" stroke="midnightblue" d="M636.824,-532.106C648.528,-534.978 661.222,-539.112 672,-545 691.048,-555.406 690.12,-565.694 708,-578 713.113,-581.519 718.816,-584.832 724.456,-587.808"/>
<polygon fill="midnightblue" stroke="midnightblue" points="723.262,-591.125 733.771,-592.475 726.398,-584.866 723.262,-591.125"/>
</g>
<!-- Node22&#45;&gt;Node8 -->
<g id="edge42" class="edge"><title>Node22&#45;&gt;Node8</title>
<path fill="none" stroke="midnightblue" d="M636.545,-452.191C648.893,-454.501 662.055,-458.873 672,-467 701.565,-491.16 675.839,-524.422 708,-545 744.688,-568.474 766.842,-564.072 806,-545 904.553,-497 966.962,-370.206 987.774,-321.982"/>
<polygon fill="midnightblue" stroke="midnightblue" points="991.028,-323.273 991.681,-312.698 984.576,-320.557 991.028,-323.273"/>
</g>
<!-- Node22&#45;&gt;Node9 -->
<g id="edge41" class="edge"><title>Node22&#45;&gt;Node9</title>
<path fill="none" stroke="midnightblue" d="M636.697,-443.656C648.393,-440.77 661.115,-436.687 672,-431 763.004,-383.453 838.916,-281.898 867.416,-240.322"/>
<polygon fill="midnightblue" stroke="midnightblue" points="870.361,-242.214 873.055,-231.967 864.559,-238.298 870.361,-242.214"/>
</g>
<!-- Node22&#45;&gt;Node10 -->
<g id="edge40" class="edge"><title>Node22&#45;&gt;Node10</title>
<path fill="none" stroke="midnightblue" d="M636.825,-447.896C649.495,-445.376 662.795,-440.442 672,-431 720.462,-381.289 676.793,-341.015 708,-279 715.507,-264.081 727.649,-249.714 737.842,-239.136"/>
<polygon fill="midnightblue" stroke="midnightblue" points="740.546,-241.382 745.148,-231.839 735.599,-236.43 740.546,-241.382"/>
</g>
<!-- Node22&#45;&gt;Node11 -->
<g id="edge43" class="edge"><title>Node22&#45;&gt;Node11</title>
<path fill="none" stroke="midnightblue" d="M636.527,-452.601C679.267,-454.139 751.162,-451.954 806,-426 831.302,-414.025 853.336,-389.841 866.518,-373.046"/>
<polygon fill="midnightblue" stroke="midnightblue" points="869.662,-374.69 872.895,-364.6 864.076,-370.471 869.662,-374.69"/>
</g>
<!-- Node22&#45;&gt;Node14 -->
<g id="edge39" class="edge"><title>Node22&#45;&gt;Node14</title>
<path fill="none" stroke="midnightblue" d="M636.749,-445.783C648.838,-443.032 661.783,-438.492 672,-431 712.209,-401.514 737.791,-346.436 749.157,-317.269"/>
<polygon fill="midnightblue" stroke="midnightblue" points="752.477,-318.383 752.702,-307.79 745.921,-315.931 752.477,-318.383"/>
</g>
<!-- Node23 -->
<g id="node23" class="node"><title>Node23</title>
<g id="a_node23"><a xlink:href="_a_r_2include_2_a_r6_2_a_r_2matrix_8h.html#a60f36997579d355f6030f872faad84a2" target="_top" xlink:title="arMatrixDisp">
<polygon fill="white" stroke="black" points="721,-516.5 721,-535.5 793,-535.5 793,-516.5 721,-516.5"/>
<text text-anchor="middle" x="757" y="-523.5" font-family="Helvetica,sans-Serif" font-size="10.00">arMatrixDisp</text>
</a>
</g>
</g>
<!-- Node22&#45;&gt;Node23 -->
<g id="edge38" class="edge"><title>Node22&#45;&gt;Node23</title>
<path fill="none" stroke="midnightblue" d="M636.518,-459.529C648.203,-463.266 660.964,-468.094 672,-474 689.871,-483.564 690.852,-491.193 708,-502 713.483,-505.456 719.53,-508.805 725.431,-511.851"/>
<polygon fill="midnightblue" stroke="midnightblue" points="723.968,-515.033 734.479,-516.36 727.09,-508.768 723.968,-515.033"/>
</g>
<!-- Node25&#45;&gt;Node18 -->
<g id="edge52" class="edge"><title>Node25&#45;&gt;Node18</title>
<path fill="none" stroke="midnightblue" d="M325.612,-92.5134C333.05,-95.001 340.433,-98.1139 347,-102 445.46,-160.269 446.33,-204.889 526,-287 544.957,-306.538 566.762,-328.939 581.364,-343.929"/>
<polygon fill="midnightblue" stroke="midnightblue" points="579.186,-346.709 588.671,-351.429 584.2,-341.824 579.186,-346.709"/>
</g>
<!-- Node26 -->
<g id="node26" class="node"><title>Node26</title>
<g id="a_node26"><a xlink:href="ar_filter_trans_mat_8c.html#a575d29079692c1af23b19f0477ee2123" target="_top" xlink:title="Filters the supplied pose estimate transformation matrix in&#45;place. ">
<polygon fill="white" stroke="black" points="392.5,-76.5 392.5,-95.5 480.5,-95.5 480.5,-76.5 392.5,-76.5"/>
<text text-anchor="middle" x="436.5" y="-83.5" font-family="Helvetica,sans-Serif" font-size="10.00">arFilterTransMat</text>
</a>
</g>
</g>
<!-- Node25&#45;&gt;Node26 -->
<g id="edge46" class="edge"><title>Node25&#45;&gt;Node26</title>
<path fill="none" stroke="midnightblue" d="M331.433,-84.024C347.713,-84.3332 365.577,-84.6724 381.84,-84.9811"/>
<polygon fill="midnightblue" stroke="midnightblue" points="382.197,-88.4885 392.262,-85.179 382.33,-81.4897 382.197,-88.4885"/>
</g>
<!-- Node30 -->
<g id="node30" class="node"><title>Node30</title>
<g id="a_node30"><a xlink:href="param_g_l_8h.html#a069eee4b7a32208a45b8c438283e9a7f" target="_top" xlink:title="arglCameraViewRHf">
<polygon fill="white" stroke="black" points="383,-38.5 383,-57.5 490,-57.5 490,-38.5 383,-38.5"/>
<text text-anchor="middle" x="436.5" y="-45.5" font-family="Helvetica,sans-Serif" font-size="10.00">arglCameraViewRHf</text>
</a>
</g>
</g>
<!-- Node25&#45;&gt;Node30 -->
<g id="edge50" class="edge"><title>Node25&#45;&gt;Node30</title>
<path fill="none" stroke="midnightblue" d="M320.674,-73.4361C339.746,-69.2113 362.352,-64.2037 382.441,-59.7536"/>
<polygon fill="midnightblue" stroke="midnightblue" points="383.372,-63.1323 392.378,-57.5523 381.858,-56.298 383.372,-63.1323"/>
</g>
<!-- Node31 -->
<g id="node31" class="node"><title>Node31</title>
<g id="a_node31"><a xlink:href="param_g_l_8h.html#a21250f8dd05058fe653e4a0116e7f592" target="_top" xlink:title="Create an OpenGL viewing transformation matrix. ">
<polygon fill="white" stroke="black" points="384.5,-0.5 384.5,-19.5 488.5,-19.5 488.5,-0.5 384.5,-0.5"/>
<text text-anchor="middle" x="436.5" y="-7.5" font-family="Helvetica,sans-Serif" font-size="10.00">arglCameraViewRH</text>
</a>
</g>
</g>
<!-- Node25&#45;&gt;Node31 -->
<g id="edge51" class="edge"><title>Node25&#45;&gt;Node31</title>
<path fill="none" stroke="midnightblue" d="M294.723,-73.3333C315.348,-61.9581 351.111,-42.866 383,-29 387.713,-26.9508 392.725,-24.9356 397.711,-23.028"/>
<polygon fill="midnightblue" stroke="midnightblue" points="399.024,-26.274 407.18,-19.5119 396.587,-19.7118 399.024,-26.274"/>
</g>
<!-- Node27 -->
<g id="node27" class="node"><title>Node27</title>
<g id="a_node27"><a xlink:href="ar_util_8c.html#adb4a9f8d233d3b954fd85bbb3deda173" target="_top" xlink:title="arUtilMat2QuatPos">
<polygon fill="white" stroke="black" points="549,-114.5 549,-133.5 649,-133.5 649,-114.5 549,-114.5"/>
<text text-anchor="middle" x="599" y="-121.5" font-family="Helvetica,sans-Serif" font-size="10.00">arUtilMat2QuatPos</text>
</a>
</g>
</g>
<!-- Node26&#45;&gt;Node27 -->
<g id="edge47" class="edge"><title>Node26&#45;&gt;Node27</title>
<path fill="none" stroke="midnightblue" d="M478.001,-95.589C499.181,-100.604 525.302,-106.788 547.76,-112.105"/>
<polygon fill="midnightblue" stroke="midnightblue" points="547.253,-115.582 557.79,-114.48 548.866,-108.77 547.253,-115.582"/>
</g>
<!-- Node28 -->
<g id="node28" class="node"><title>Node28</title>
<g id="a_node28"><a xlink:href="ar_util_8c.html#aa543b10d8b401ccf5626aba7dfa12e09" target="_top" xlink:title="arUtilQuatNorm">
<polygon fill="white" stroke="black" points="556.5,-76.5 556.5,-95.5 641.5,-95.5 641.5,-76.5 556.5,-76.5"/>
<text text-anchor="middle" x="599" y="-83.5" font-family="Helvetica,sans-Serif" font-size="10.00">arUtilQuatNorm</text>
</a>
</g>
</g>
<!-- Node26&#45;&gt;Node28 -->
<g id="edge48" class="edge"><title>Node26&#45;&gt;Node28</title>
<path fill="none" stroke="midnightblue" d="M480.511,-86C500.7,-86 524.929,-86 546.126,-86"/>
<polygon fill="midnightblue" stroke="midnightblue" points="546.258,-89.5001 556.258,-86 546.258,-82.5001 546.258,-89.5001"/>
</g>
<!-- Node29 -->
<g id="node29" class="node"><title>Node29</title>
<g id="a_node29"><a xlink:href="ar_util_8c.html#a016bf9cc45eee7cd9eae471cecc68e9a" target="_top" xlink:title="arUtilQuatPos2Mat">
<polygon fill="white" stroke="black" points="549,-38.5 549,-57.5 649,-57.5 649,-38.5 549,-38.5"/>
<text text-anchor="middle" x="599" y="-45.5" font-family="Helvetica,sans-Serif" font-size="10.00">arUtilQuatPos2Mat</text>
</a>
</g>
</g>
<!-- Node26&#45;&gt;Node29 -->
<g id="edge49" class="edge"><title>Node26&#45;&gt;Node29</title>
<path fill="none" stroke="midnightblue" d="M478.001,-76.411C499.181,-71.3965 525.302,-65.2119 547.76,-59.8947"/>
<polygon fill="midnightblue" stroke="midnightblue" points="548.866,-63.2299 557.79,-57.5201 547.253,-56.4182 548.866,-63.2299"/>
</g>
</g>
</svg>
        <g id="navigator" transform="translate(0 0)" fill="#404254">
                <rect fill="#f2f5e9" fill-opacity="0.5" stroke="#606060" stroke-width=".5" x="0" y="0" width="60" height="60"/>
                <use id="zoomplus" xlink:href="#zoomPlus" x="17" y="9" onmousedown="handleZoom(evt,'in')"/>
                <use id="zoomminus" xlink:href="#zoomMin" x="42" y="9" onmousedown="handleZoom(evt,'out')"/>
                <use id="reset" xlink:href="#resetDef" x="30" y="36" onmousedown="handleReset()"/>
                <g id="arrowUp" xlink:href="#dirArrow" transform="translate(30 24)" onmousedown="handlePan(0,-1)">
                  <use xlink:href="#rim" fill="#404040">
                        <set attributeName="fill" to="#808080" begin="arrowUp.mouseover" end="arrowUp.mouseout"/>
                  </use>
                  <path fill="none" stroke="white" stroke-width="1.5" d="M0,-3.0v7 M-2.5,-0.5L0,-3.0L2.5,-0.5"/>
                </g>
                <g id="arrowRight" xlink:href="#dirArrow" transform="rotate(90) translate(36 -43)" onmousedown="handlePan(1,0)">
                  <use xlink:href="#rim" fill="#404040">
                        <set attributeName="fill" to="#808080" begin="arrowRight.mouseover" end="arrowRight.mouseout"/>
                  </use>
                  <path fill="none" stroke="white" stroke-width="1.5" d="M0,-3.0v7 M-2.5,-0.5L0,-3.0L2.5,-0.5"/>
                </g>
                <g id="arrowDown" xlink:href="#dirArrow" transform="rotate(180) translate(-30 -48)" onmousedown="handlePan(0,1)">
                  <use xlink:href="#rim" fill="#404040">
                        <set attributeName="fill" to="#808080" begin="arrowDown.mouseover" end="arrowDown.mouseout"/>
                  </use>
                  <path fill="none" stroke="white" stroke-width="1.5" d="M0,-3.0v7 M-2.5,-0.5L0,-3.0L2.5,-0.5"/>
                </g>
                <g id="arrowLeft" xlink:href="#dirArrow" transform="rotate(270) translate(-36 17)" onmousedown="handlePan(-1,0)">
                  <use xlink:href="#rim" fill="#404040">
                        <set attributeName="fill" to="#808080" begin="arrowLeft.mouseover" end="arrowLeft.mouseout"/>
                  </use>
                  <path fill="none" stroke="white" stroke-width="1.5" d="M0,-3.0v7 M-2.5,-0.5L0,-3.0L2.5,-0.5"/>
                </g>
        </g>
        <svg viewBox="0 0 15 15" width="100%" height="30px" preserveAspectRatio="xMaxYMin meet">
         <g id="arrow_out" transform="scale(0.3 0.3)">
          <a xlink:href="class_a_r_trackable_square_ab814ff59e735aa21e4363333207b5d89_cgraph_org.svg" target="_base">
           <rect id="button" ry="5" rx="5" y="6" x="6" height="38" width="38"
                fill="#f2f5e9" fill-opacity="0.5" stroke="#606060" stroke-width="1.0"/>
           <path id="arrow"
             d="M 11.500037,31.436501 C 11.940474,20.09759 22.043105,11.32322 32.158766,21.979434 L 37.068811,17.246167 C 37.068811,17.246167 37.088388,32 37.088388,32 L 22.160133,31.978069 C 22.160133,31.978069 26.997745,27.140456 26.997745,27.140456 C 18.528582,18.264221 13.291696,25.230495 11.500037,31.436501 z"
             style="fill:#404040;"/>
          </a>
         </g>
        </svg>
</svg>
