<?xml version="1.0" encoding="UTF-8" standalone="no"?>
<!DOCTYPE svg PUBLIC "-//W3C//DTD SVG 1.1//EN"
 "http://www.w3.org/Graphics/SVG/1.1/DTD/svg11.dtd">
<!-- Generated by graphviz version 2.38.0 (20140413.2041)
 -->
<!-- Title: artvision_instanton::AttitudeSyncFilter::processQueue Pages: 1 -->
<svg width="887pt" height="627pt"
 viewBox="0.00 0.00 887.00 627.00" xmlns="http://www.w3.org/2000/svg" xmlns:xlink="http://www.w3.org/1999/xlink">
<g id="graph0" class="graph" transform="scale(1 1) rotate(0) translate(4 623)">
<title>artvision_instanton::AttitudeSyncFilter::processQueue</title>
<polygon fill="white" stroke="none" points="-4,4 -4,-623 883,-623 883,4 -4,4"/>
<!-- Node1 -->
<g id="node1" class="node"><title>Node1</title>
<polygon fill="#bfbfbf" stroke="black" points="0,-316 0,-357 101,-357 101,-316 0,-316"/>
<text text-anchor="start" x="8" y="-345" font-family="Helvetica,sans-Serif" font-size="10.00">artvision_instanton</text>
<text text-anchor="start" x="8" y="-334" font-family="Helvetica,sans-Serif" font-size="10.00">::AttitudeSyncFilter</text>
<text text-anchor="middle" x="50.5" y="-323" font-family="Helvetica,sans-Serif" font-size="10.00">::processQueue</text>
</g>
<!-- Node2 -->
<g id="node2" class="node"><title>Node2</title>
<g id="a_node2"><a xlink:href="classartvision__instanton_1_1_sample.html#a0c5451f20fdad414c06ca3c35f743d6e" target="_top" xlink:title="Get sample as a type. ">
<polygon fill="white" stroke="black" points="154.5,-588.5 154.5,-618.5 252.5,-618.5 252.5,-588.5 154.5,-588.5"/>
<text text-anchor="start" x="162.5" y="-606.5" font-family="Helvetica,sans-Serif" font-size="10.00">artvision_instanton</text>
<text text-anchor="middle" x="203.5" y="-595.5" font-family="Helvetica,sans-Serif" font-size="10.00">::Sample::get</text>
</a>
</g>
</g>
<!-- Node1&#45;&gt;Node2 -->
<g id="edge1" class="edge"><title>Node1&#45;&gt;Node2</title>
<path fill="none" stroke="midnightblue" d="M52.9632,-357.159C57.3232,-403.336 74.1617,-515.846 137,-579.5 139.622,-582.156 142.561,-584.52 145.704,-586.624"/>
<polygon fill="midnightblue" stroke="midnightblue" points="144.001,-589.682 154.419,-591.609 147.476,-583.606 144.001,-589.682"/>
</g>
<!-- Node3 -->
<g id="node3" class="node"><title>Node3</title>
<g id="a_node3"><a xlink:href="classartvision__instanton_1_1_filter.html#a00f9e5e9622b401a6ed5f4008af57ce5" target="_top" xlink:title="Get an input stream id with a type id. ">
<polygon fill="white" stroke="black" points="152,-539.5 152,-569.5 255,-569.5 255,-539.5 152,-539.5"/>
<text text-anchor="start" x="160" y="-557.5" font-family="Helvetica,sans-Serif" font-size="10.00">artvision_instanton</text>
<text text-anchor="middle" x="203.5" y="-546.5" font-family="Helvetica,sans-Serif" font-size="10.00">::Filter::inputStream</text>
</a>
</g>
</g>
<!-- Node1&#45;&gt;Node3 -->
<g id="edge2" class="edge"><title>Node1&#45;&gt;Node3</title>
<path fill="none" stroke="midnightblue" d="M55.0726,-357.134C62.9042,-396.315 85.1909,-481.9 137,-530.5 138.894,-532.276 140.929,-533.923 143.07,-535.45"/>
<polygon fill="midnightblue" stroke="midnightblue" points="141.412,-538.539 151.77,-540.765 145.061,-532.565 141.412,-538.539"/>
</g>
<!-- Node4 -->
<g id="node4" class="node"><title>Node4</title>
<g id="a_node4"><a xlink:href="classartvision__instanton_1_1_video_stream_gray.html#a76dc97039615a7c242b3a658c41383ea" target="_top" xlink:title="Get the stream type id. ">
<polygon fill="white" stroke="black" points="137,-490.5 137,-520.5 270,-520.5 270,-490.5 137,-490.5"/>
<text text-anchor="start" x="145" y="-508.5" font-family="Helvetica,sans-Serif" font-size="10.00">artvision_instanton</text>
<text text-anchor="middle" x="203.5" y="-497.5" font-family="Helvetica,sans-Serif" font-size="10.00">::VideoStreamGray::typeId</text>
</a>
</g>
</g>
<!-- Node1&#45;&gt;Node4 -->
<g id="edge3" class="edge"><title>Node1&#45;&gt;Node4</title>
<path fill="none" stroke="midnightblue" d="M58.4634,-357.052C70.0184,-388.206 96.0236,-447.361 137,-481.5 138.535,-482.779 140.145,-483.993 141.812,-485.145"/>
<polygon fill="midnightblue" stroke="midnightblue" points="140.188,-488.252 150.563,-490.401 143.793,-482.251 140.188,-488.252"/>
</g>
<!-- Node5 -->
<g id="node5" class="node"><title>Node5</title>
<g id="a_node5"><a xlink:href="namespaceartvision__instanton.html#a6c66861c017992a476041df30f253a6a" target="_top" xlink:title="Convert time to seconds since January 1, 1970. ">
<polygon fill="white" stroke="black" points="137.5,-441.5 137.5,-471.5 269.5,-471.5 269.5,-441.5 137.5,-441.5"/>
<text text-anchor="start" x="145.5" y="-459.5" font-family="Helvetica,sans-Serif" font-size="10.00">artvision_instanton</text>
<text text-anchor="middle" x="203.5" y="-448.5" font-family="Helvetica,sans-Serif" font-size="10.00">::secondsSinceUnixEpoch</text>
</a>
</g>
</g>
<!-- Node1&#45;&gt;Node5 -->
<g id="edge4" class="edge"><title>Node1&#45;&gt;Node5</title>
<path fill="none" stroke="midnightblue" d="M65.2426,-357.204C80.4807,-378.717 106.918,-412.043 137,-432.5 139.147,-433.96 141.394,-435.344 143.708,-436.654"/>
<polygon fill="midnightblue" stroke="midnightblue" points="142.407,-439.919 152.906,-441.347 145.589,-433.684 142.407,-439.919"/>
</g>
<!-- Node6 -->
<g id="node6" class="node"><title>Node6</title>
<g id="a_node6"><a xlink:href="classartvision__instanton_1_1_sample.html#aad71b692072280b82f2d6deaa84db100" target="_top" xlink:title="artvision_instanton\l::Sample::getFrameTime">
<polygon fill="white" stroke="black" points="141,-392.5 141,-422.5 266,-422.5 266,-392.5 141,-392.5"/>
<text text-anchor="start" x="149" y="-410.5" font-family="Helvetica,sans-Serif" font-size="10.00">artvision_instanton</text>
<text text-anchor="middle" x="203.5" y="-399.5" font-family="Helvetica,sans-Serif" font-size="10.00">::Sample::getFrameTime</text>
</a>
</g>
</g>
<!-- Node1&#45;&gt;Node6 -->
<g id="edge5" class="edge"><title>Node1&#45;&gt;Node6</title>
<path fill="none" stroke="midnightblue" d="M86.2449,-357.161C101.538,-365.845 119.886,-375.715 137,-383.5 140.845,-385.249 144.857,-386.967 148.921,-388.629"/>
<polygon fill="midnightblue" stroke="midnightblue" points="147.854,-391.971 158.44,-392.398 150.43,-385.463 147.854,-391.971"/>
</g>
<!-- Node7 -->
<g id="node7" class="node"><title>Node7</title>
<g id="a_node7"><a xlink:href="classartvision__instanton_1_1_sample.html#a12fe048eafa3b980de20e61fbdcd324e" target="_top" xlink:title="Set the stream. ">
<polygon fill="white" stroke="black" points="150,-343.5 150,-373.5 257,-373.5 257,-343.5 150,-343.5"/>
<text text-anchor="start" x="158" y="-361.5" font-family="Helvetica,sans-Serif" font-size="10.00">artvision_instanton</text>
<text text-anchor="middle" x="203.5" y="-350.5" font-family="Helvetica,sans-Serif" font-size="10.00">::Sample::setStream</text>
</a>
</g>
</g>
<!-- Node1&#45;&gt;Node7 -->
<g id="edge6" class="edge"><title>Node1&#45;&gt;Node7</title>
<path fill="none" stroke="midnightblue" d="M101.362,-343.765C113.63,-345.552 126.924,-347.489 139.717,-349.353"/>
<polygon fill="midnightblue" stroke="midnightblue" points="139.439,-352.849 149.839,-350.828 140.448,-345.922 139.439,-352.849"/>
</g>
<!-- Node8 -->
<g id="node8" class="node"><title>Node8</title>
<g id="a_node8"><a xlink:href="classartvision__instanton_1_1_sample.html#aae088d185f0970eb20ad3689ed3bdb01" target="_top" xlink:title="Get the stream. ">
<polygon fill="white" stroke="black" points="322,-321.5 322,-351.5 420,-351.5 420,-321.5 322,-321.5"/>
<text text-anchor="start" x="330" y="-339.5" font-family="Helvetica,sans-Serif" font-size="10.00">artvision_instanton</text>
<text text-anchor="middle" x="371" y="-328.5" font-family="Helvetica,sans-Serif" font-size="10.00">::Sample::stream</text>
</a>
</g>
</g>
<!-- Node1&#45;&gt;Node8 -->
<g id="edge23" class="edge"><title>Node1&#45;&gt;Node8</title>
<path fill="none" stroke="midnightblue" d="M101.229,-335.14C112.959,-334.874 125.419,-334.635 137,-334.5 196.107,-333.809 210.892,-333.909 270,-334.5 283.491,-334.635 298.004,-334.872 311.676,-335.137"/>
<polygon fill="midnightblue" stroke="midnightblue" points="311.868,-338.642 321.936,-335.344 312.009,-331.643 311.868,-338.642"/>
</g>
<!-- Node9 -->
<g id="node9" class="node"><title>Node9</title>
<g id="a_node9"><a xlink:href="classartvision__instanton_1_1_filter.html#adbb933af713b5ae070aa0d1711812f8d" target="_top" xlink:title="Get an output stream with a stream Id. ">
<polygon fill="white" stroke="black" points="149,-255.5 149,-285.5 258,-285.5 258,-255.5 149,-255.5"/>
<text text-anchor="start" x="157" y="-273.5" font-family="Helvetica,sans-Serif" font-size="10.00">artvision_instanton</text>
<text text-anchor="middle" x="203.5" y="-262.5" font-family="Helvetica,sans-Serif" font-size="10.00">::Filter::outputStream</text>
</a>
</g>
</g>
<!-- Node1&#45;&gt;Node9 -->
<g id="edge8" class="edge"><title>Node1&#45;&gt;Node9</title>
<path fill="none" stroke="midnightblue" d="M98.4496,-315.979C117.706,-307.562 139.868,-297.876 158.777,-289.611"/>
<polygon fill="midnightblue" stroke="midnightblue" points="160.292,-292.769 168.053,-285.556 157.488,-286.354 160.292,-292.769"/>
</g>
<!-- Node10 -->
<g id="node10" class="node"><title>Node10</title>
<g id="a_node10"><a xlink:href="classartvision__instanton_1_1_attitude_stream.html#a97689b8ec55f320dfa6b2e0359da1cf6" target="_top" xlink:title="Get the stream type id. ">
<polygon fill="white" stroke="black" points="143,-206.5 143,-236.5 264,-236.5 264,-206.5 143,-206.5"/>
<text text-anchor="start" x="151" y="-224.5" font-family="Helvetica,sans-Serif" font-size="10.00">artvision_instanton</text>
<text text-anchor="middle" x="203.5" y="-213.5" font-family="Helvetica,sans-Serif" font-size="10.00">::AttitudeStream::typeId</text>
</a>
</g>
</g>
<!-- Node1&#45;&gt;Node10 -->
<g id="edge9" class="edge"><title>Node1&#45;&gt;Node10</title>
<path fill="none" stroke="midnightblue" d="M66.7415,-315.713C82.4083,-295.619 108.485,-265.503 137,-246.5 139.925,-244.551 143.023,-242.724 146.218,-241.015"/>
<polygon fill="midnightblue" stroke="midnightblue" points="147.974,-244.053 155.417,-236.513 144.897,-237.765 147.974,-244.053"/>
</g>
<!-- Node11 -->
<g id="node11" class="node"><title>Node11</title>
<g id="a_node11"><a xlink:href="classartvision__instanton_1_1_attitude_sync_filter.html#adf63ab08ee724604c895db00f3873e86" target="_top" xlink:title="Synchronize the sensors. ">
<polygon fill="white" stroke="black" points="153,-147 153,-188 254,-188 254,-147 153,-147"/>
<text text-anchor="start" x="161" y="-176" font-family="Helvetica,sans-Serif" font-size="10.00">artvision_instanton</text>
<text text-anchor="start" x="161" y="-165" font-family="Helvetica,sans-Serif" font-size="10.00">::AttitudeSyncFilter</text>
<text text-anchor="middle" x="203.5" y="-154" font-family="Helvetica,sans-Serif" font-size="10.00">::synchronize</text>
</a>
</g>
</g>
<!-- Node1&#45;&gt;Node11 -->
<g id="edge10" class="edge"><title>Node1&#45;&gt;Node11</title>
<path fill="none" stroke="midnightblue" d="M59.5345,-315.957C72.0542,-286.286 98.8091,-231.296 137,-197.5 139.239,-195.518 141.631,-193.645 144.129,-191.878"/>
<polygon fill="midnightblue" stroke="midnightblue" points="146.39,-194.588 152.953,-186.27 142.635,-188.68 146.39,-194.588"/>
</g>
<!-- Node22 -->
<g id="node22" class="node"><title>Node22</title>
<g id="a_node22"><a xlink:href="classartvision__instanton_1_1_attitude_sample.html#a48a3e980390ce365717f2babf6b06059" target="_top" xlink:title="Get attitude data. ">
<polygon fill="white" stroke="black" points="149,-98.5 149,-128.5 258,-128.5 258,-98.5 149,-98.5"/>
<text text-anchor="start" x="157" y="-116.5" font-family="Helvetica,sans-Serif" font-size="10.00">artvision_instanton</text>
<text text-anchor="middle" x="203.5" y="-105.5" font-family="Helvetica,sans-Serif" font-size="10.00">::AttitudeSample::get</text>
</a>
</g>
</g>
<!-- Node1&#45;&gt;Node22 -->
<g id="edge22" class="edge"><title>Node1&#45;&gt;Node22</title>
<path fill="none" stroke="midnightblue" d="M54.7948,-315.962C62.2413,-276.076 84.0291,-187.656 137,-137.5 138.127,-136.433 139.305,-135.413 140.526,-134.437"/>
<polygon fill="midnightblue" stroke="midnightblue" points="142.803,-137.123 149.132,-128.626 138.885,-131.322 142.803,-137.123"/>
</g>
<!-- Node23 -->
<g id="node23" class="node"><title>Node23</title>
<g id="a_node23"><a xlink:href="classartvision__instanton_1_1_filter.html#ac2884c25d6bed9467810757cb0751c10" target="_top" xlink:title="Send a container to the child filters. ">
<polygon fill="white" stroke="black" points="154.5,-49.5 154.5,-79.5 252.5,-79.5 252.5,-49.5 154.5,-49.5"/>
<text text-anchor="start" x="162.5" y="-67.5" font-family="Helvetica,sans-Serif" font-size="10.00">artvision_instanton</text>
<text text-anchor="middle" x="203.5" y="-56.5" font-family="Helvetica,sans-Serif" font-size="10.00">::Filter::send</text>
</a>
</g>
</g>
<!-- Node1&#45;&gt;Node23 -->
<g id="edge24" class="edge"><title>Node1&#45;&gt;Node23</title>
<path fill="none" stroke="midnightblue" d="M52.8853,-315.919C57.0993,-269.341 73.6818,-154.836 137,-89.5 139.61,-86.8068 142.541,-84.3997 145.677,-82.249"/>
<polygon fill="midnightblue" stroke="midnightblue" points="147.532,-85.2183 154.38,-77.1338 143.985,-79.1835 147.532,-85.2183"/>
</g>
<!-- Node7&#45;&gt;Node8 -->
<g id="edge7" class="edge"><title>Node7&#45;&gt;Node8</title>
<path fill="none" stroke="midnightblue" d="M257.32,-351.479C274.639,-349.176 293.978,-346.606 311.679,-344.253"/>
<polygon fill="midnightblue" stroke="midnightblue" points="312.433,-347.683 321.885,-342.896 311.511,-340.744 312.433,-347.683"/>
</g>
<!-- Node12 -->
<g id="node12" class="node"><title>Node12</title>
<g id="a_node12"><a xlink:href="classartvision__instanton_1_1_attitude_sampler.html#a8eafd799481f3e0fb6f919de9c3ff375" target="_top" xlink:title="Sample the attitude data at given timestamps. ">
<polygon fill="white" stroke="black" points="306,-152.5 306,-182.5 436,-182.5 436,-152.5 306,-152.5"/>
<text text-anchor="start" x="314" y="-170.5" font-family="Helvetica,sans-Serif" font-size="10.00">artvision_instanton</text>
<text text-anchor="middle" x="371" y="-159.5" font-family="Helvetica,sans-Serif" font-size="10.00">::AttitudeSampler::sample</text>
</a>
</g>
</g>
<!-- Node11&#45;&gt;Node12 -->
<g id="edge11" class="edge"><title>Node11&#45;&gt;Node12</title>
<path fill="none" stroke="midnightblue" d="M254.155,-167.5C267.257,-167.5 281.684,-167.5 295.777,-167.5"/>
<polygon fill="midnightblue" stroke="midnightblue" points="295.956,-171 305.956,-167.5 295.956,-164 295.956,-171"/>
</g>
<!-- Node13 -->
<g id="node13" class="node"><title>Node13</title>
<g id="a_node13"><a xlink:href="namespaceartvision__instanton.html#abc0c3a1f6eabdadcc0b31b91a25e4ffa" target="_top" xlink:title="artvision_instanton\l::CopyVector4">
<polygon fill="white" stroke="black" points="619,-196.5 619,-226.5 717,-226.5 717,-196.5 619,-196.5"/>
<text text-anchor="start" x="627" y="-214.5" font-family="Helvetica,sans-Serif" font-size="10.00">artvision_instanton</text>
<text text-anchor="middle" x="668" y="-203.5" font-family="Helvetica,sans-Serif" font-size="10.00">::CopyVector4</text>
</a>
</g>
</g>
<!-- Node12&#45;&gt;Node13 -->
<g id="edge12" class="edge"><title>Node12&#45;&gt;Node13</title>
<path fill="none" stroke="midnightblue" d="M425.923,-182.531C440.762,-186.242 456.923,-189.896 472,-192.5 517.537,-200.366 569.662,-205.234 608.556,-208.071"/>
<polygon fill="midnightblue" stroke="midnightblue" points="608.431,-211.571 618.652,-208.784 608.924,-204.588 608.431,-211.571"/>
</g>
<!-- Node14 -->
<g id="node14" class="node"><title>Node14</title>
<g id="a_node14"><a xlink:href="namespaceartvision__instanton.html#ae795a71faee044cca88539e959546170" target="_top" xlink:title="Safe division (x/y). ">
<polygon fill="white" stroke="black" points="474.5,-152.5 474.5,-182.5 572.5,-182.5 572.5,-152.5 474.5,-152.5"/>
<text text-anchor="start" x="482.5" y="-170.5" font-family="Helvetica,sans-Serif" font-size="10.00">artvision_instanton</text>
<text text-anchor="middle" x="523.5" y="-159.5" font-family="Helvetica,sans-Serif" font-size="10.00">::SafeDivision</text>
</a>
</g>
</g>
<!-- Node12&#45;&gt;Node14 -->
<g id="edge13" class="edge"><title>Node12&#45;&gt;Node14</title>
<path fill="none" stroke="midnightblue" d="M436.262,-167.5C445.55,-167.5 455.066,-167.5 464.227,-167.5"/>
<polygon fill="midnightblue" stroke="midnightblue" points="464.389,-171 474.389,-167.5 464.389,-164 464.389,-171"/>
</g>
<!-- Node15 -->
<g id="node15" class="node"><title>Node15</title>
<g id="a_node15"><a xlink:href="namespaceartvision__instanton.html#a752c0f8ffe9cd5be9bcabcf6be164773" target="_top" xlink:title="Quaternion Spherical Linear Interpolation (SLERP). ">
<polygon fill="white" stroke="black" points="472,-103.5 472,-133.5 575,-133.5 575,-103.5 472,-103.5"/>
<text text-anchor="start" x="480" y="-121.5" font-family="Helvetica,sans-Serif" font-size="10.00">artvision_instanton</text>
<text text-anchor="middle" x="523.5" y="-110.5" font-family="Helvetica,sans-Serif" font-size="10.00">::QuaternionSLERP</text>
</a>
</g>
</g>
<!-- Node12&#45;&gt;Node15 -->
<g id="edge14" class="edge"><title>Node12&#45;&gt;Node15</title>
<path fill="none" stroke="midnightblue" d="M418.383,-152.399C433.618,-147.438 450.713,-141.873 466.578,-136.707"/>
<polygon fill="midnightblue" stroke="midnightblue" points="467.845,-139.976 476.27,-133.552 465.678,-133.319 467.845,-139.976"/>
</g>
<!-- Node15&#45;&gt;Node13 -->
<g id="edge16" class="edge"><title>Node15&#45;&gt;Node13</title>
<path fill="none" stroke="midnightblue" d="M559.903,-133.595C565.194,-136.529 570.408,-139.844 575,-143.5 594.768,-159.237 590.809,-172.31 611,-187.5 612.786,-188.843 614.658,-190.128 616.59,-191.356"/>
<polygon fill="midnightblue" stroke="midnightblue" points="614.947,-194.448 625.366,-196.368 618.418,-188.369 614.947,-194.448"/>
</g>
<!-- Node16 -->
<g id="node16" class="node"><title>Node16</title>
<g id="a_node16"><a xlink:href="namespaceartvision__instanton.html#a52c0dfbde7558c411db7c1277228bbd1" target="_top" xlink:title="artvision_instanton\l::DotProduct4">
<polygon fill="white" stroke="black" points="619,-147.5 619,-177.5 717,-177.5 717,-147.5 619,-147.5"/>
<text text-anchor="start" x="627" y="-165.5" font-family="Helvetica,sans-Serif" font-size="10.00">artvision_instanton</text>
<text text-anchor="middle" x="668" y="-154.5" font-family="Helvetica,sans-Serif" font-size="10.00">::DotProduct4</text>
</a>
</g>
</g>
<!-- Node15&#45;&gt;Node16 -->
<g id="edge15" class="edge"><title>Node15&#45;&gt;Node16</title>
<path fill="none" stroke="midnightblue" d="M573.142,-133.519C584.606,-137.059 596.941,-140.868 608.78,-144.523"/>
<polygon fill="midnightblue" stroke="midnightblue" points="607.99,-147.942 618.577,-147.548 610.055,-141.254 607.99,-147.942"/>
</g>
<!-- Node17 -->
<g id="node17" class="node"><title>Node17</title>
<g id="a_node17"><a xlink:href="namespaceartvision__instanton.html#aabc9e98c268ae008c284be49a6bd1430" target="_top" xlink:title="w = a*u + b*v ">
<polygon fill="white" stroke="black" points="613.5,-98.5 613.5,-128.5 722.5,-128.5 722.5,-98.5 613.5,-98.5"/>
<text text-anchor="start" x="621.5" y="-116.5" font-family="Helvetica,sans-Serif" font-size="10.00">artvision_instanton</text>
<text text-anchor="middle" x="668" y="-105.5" font-family="Helvetica,sans-Serif" font-size="10.00">::AddScaledVectors4</text>
</a>
</g>
</g>
<!-- Node15&#45;&gt;Node17 -->
<g id="edge17" class="edge"><title>Node15&#45;&gt;Node17</title>
<path fill="none" stroke="midnightblue" d="M575.141,-116.723C584.189,-116.406 593.721,-116.071 603.082,-115.743"/>
<polygon fill="midnightblue" stroke="midnightblue" points="603.272,-119.238 613.143,-115.39 603.026,-112.243 603.272,-119.238"/>
</g>
<!-- Node18 -->
<g id="node18" class="node"><title>Node18</title>
<g id="a_node18"><a xlink:href="namespaceartvision__instanton.html#a1fa75eeba87180bee6aee2ab3c07be5a" target="_top" xlink:title="Normalize a quaternion so that it has unit norm. ">
<polygon fill="white" stroke="black" points="611,-49.5 611,-79.5 725,-79.5 725,-49.5 611,-49.5"/>
<text text-anchor="start" x="619" y="-67.5" font-family="Helvetica,sans-Serif" font-size="10.00">artvision_instanton</text>
<text text-anchor="middle" x="668" y="-56.5" font-family="Helvetica,sans-Serif" font-size="10.00">::NormalizeQuaternion</text>
</a>
</g>
</g>
<!-- Node15&#45;&gt;Node18 -->
<g id="edge18" class="edge"><title>Node15&#45;&gt;Node18</title>
<path fill="none" stroke="midnightblue" d="M564.194,-103.458C580.732,-97.1912 600.111,-89.8473 617.56,-83.2352"/>
<polygon fill="midnightblue" stroke="midnightblue" points="618.914,-86.4652 627.024,-79.6486 616.433,-79.9194 618.914,-86.4652"/>
</g>
<!-- Node19 -->
<g id="node19" class="node"><title>Node19</title>
<g id="a_node19"><a xlink:href="namespaceartvision__instanton.html#aaf2781e37f3d7d4e78dd2c872d0799b6" target="_top" xlink:title="artvision_instanton::sqr">
<polygon fill="white" stroke="black" points="761,-99 761,-118 879,-118 879,-99 761,-99"/>
<text text-anchor="middle" x="820" y="-106" font-family="Helvetica,sans-Serif" font-size="10.00">artvision_instanton::sqr</text>
</a>
</g>
</g>
<!-- Node18&#45;&gt;Node19 -->
<g id="edge19" class="edge"><title>Node18&#45;&gt;Node19</title>
<path fill="none" stroke="midnightblue" d="M720.202,-79.5192C738.506,-84.8885 758.92,-90.8766 776.419,-96.0095"/>
<polygon fill="midnightblue" stroke="midnightblue" points="775.766,-99.4654 786.347,-98.9217 777.736,-92.7484 775.766,-99.4654"/>
</g>
<!-- Node20 -->
<g id="node20" class="node"><title>Node20</title>
<g id="a_node20"><a xlink:href="namespaceartvision__instanton.html#adc1e30b0cec389f6c8e8b5512b69fb2e" target="_top" xlink:title="artvision_instanton\l::sign">
<polygon fill="white" stroke="black" points="771,-49.5 771,-79.5 869,-79.5 869,-49.5 771,-49.5"/>
<text text-anchor="start" x="779" y="-67.5" font-family="Helvetica,sans-Serif" font-size="10.00">artvision_instanton</text>
<text text-anchor="middle" x="820" y="-56.5" font-family="Helvetica,sans-Serif" font-size="10.00">::sign</text>
</a>
</g>
</g>
<!-- Node18&#45;&gt;Node20 -->
<g id="edge20" class="edge"><title>Node18&#45;&gt;Node20</title>
<path fill="none" stroke="midnightblue" d="M725.281,-64.5C736.855,-64.5 749.063,-64.5 760.706,-64.5"/>
<polygon fill="midnightblue" stroke="midnightblue" points="760.762,-68.0001 770.762,-64.5 760.762,-61.0001 760.762,-68.0001"/>
</g>
<!-- Node21 -->
<g id="node21" class="node"><title>Node21</title>
<g id="a_node21"><a xlink:href="namespaceartvision__instanton.html#a15dadc526841cbe9f7a5d74530ca7746" target="_top" xlink:title="artvision_instanton\l::ScaleVector4">
<polygon fill="white" stroke="black" points="771,-0.5 771,-30.5 869,-30.5 869,-0.5 771,-0.5"/>
<text text-anchor="start" x="779" y="-18.5" font-family="Helvetica,sans-Serif" font-size="10.00">artvision_instanton</text>
<text text-anchor="middle" x="820" y="-7.5" font-family="Helvetica,sans-Serif" font-size="10.00">::ScaleVector4</text>
</a>
</g>
</g>
<!-- Node18&#45;&gt;Node21 -->
<g id="edge21" class="edge"><title>Node18&#45;&gt;Node21</title>
<path fill="none" stroke="midnightblue" d="M715.229,-49.3986C730.413,-44.4385 747.451,-38.8726 763.264,-33.7071"/>
<polygon fill="midnightblue" stroke="midnightblue" points="764.505,-36.9838 772.924,-30.5516 762.331,-30.3298 764.505,-36.9838"/>
</g>
</g>
</svg>
