<?xml version="1.0" encoding="UTF-8" standalone="no"?>
<!DOCTYPE svg PUBLIC "-//W3C//DTD SVG 1.1//EN"
 "http://www.w3.org/Graphics/SVG/1.1/DTD/svg11.dtd">
<!-- Generated by graphviz version 2.38.0 (20140413.2041)
 -->
<!-- Title: artvision_instanton::Image::alloc Pages: 1 -->
<svg width="415pt" height="351pt"
 viewBox="0.00 0.00 415.00 350.61" xmlns="http://www.w3.org/2000/svg" xmlns:xlink="http://www.w3.org/1999/xlink">
<g id="graph0" class="graph" transform="scale(1 1) rotate(0) translate(4 346.612)">
<title>artvision_instanton::Image::alloc</title>
<polygon fill="white" stroke="none" points="-4,4 -4,-346.612 411,-346.612 411,4 -4,4"/>
<!-- Node1 -->
<g id="node1" class="node"><title>Node1</title>
<polygon fill="#bfbfbf" stroke="black" points="0,-171.5 0,-201.5 98,-201.5 98,-171.5 0,-171.5"/>
<text text-anchor="start" x="8" y="-189.5" font-family="Helvetica,sans-Serif" font-size="10.00">artvision_instanton</text>
<text text-anchor="middle" x="49" y="-178.5" font-family="Helvetica,sans-Serif" font-size="10.00">::Image::alloc</text>
</g>
<!-- Node2 -->
<g id="node2" class="node"><title>Node2</title>
<g id="a_node2"><a xlink:href="classartvision__instanton_1_1_image.html#a5da9991c89d2324c7ec145973298c130" target="_top" xlink:title="artvision_instanton\l::Image::size">
<polygon fill="white" stroke="black" points="309,-262.5 309,-292.5 407,-292.5 407,-262.5 309,-262.5"/>
<text text-anchor="start" x="317" y="-280.5" font-family="Helvetica,sans-Serif" font-size="10.00">artvision_instanton</text>
<text text-anchor="middle" x="358" y="-269.5" font-family="Helvetica,sans-Serif" font-size="10.00">::Image::size</text>
</a>
</g>
</g>
<!-- Node1&#45;&gt;Node2 -->
<g id="edge1" class="edge"><title>Node1&#45;&gt;Node2</title>
<path fill="none" stroke="midnightblue" d="M53.9137,-201.708C62.5396,-231.661 86.3205,-297.704 134,-324.5 187.856,-354.766 213.221,-340.087 273,-324.5 292.735,-319.354 312.745,-308.432 328.282,-298.412"/>
<polygon fill="midnightblue" stroke="midnightblue" points="330.509,-301.133 336.878,-292.666 326.619,-295.314 330.509,-301.133"/>
</g>
<!-- Node3 -->
<g id="node3" class="node"><title>Node3</title>
<g id="a_node3"><a xlink:href="classartvision__instanton_1_1_image.html#abfe6de817ab2c75f289b7f679c3a1e54" target="_top" xlink:title="artvision_instanton\l::Image::step">
<polygon fill="white" stroke="black" points="154.5,-284.5 154.5,-314.5 252.5,-314.5 252.5,-284.5 154.5,-284.5"/>
<text text-anchor="start" x="162.5" y="-302.5" font-family="Helvetica,sans-Serif" font-size="10.00">artvision_instanton</text>
<text text-anchor="middle" x="203.5" y="-291.5" font-family="Helvetica,sans-Serif" font-size="10.00">::Image::step</text>
</a>
</g>
</g>
<!-- Node1&#45;&gt;Node3 -->
<g id="edge2" class="edge"><title>Node1&#45;&gt;Node3</title>
<path fill="none" stroke="midnightblue" d="M60.8679,-201.61C75.4922,-220.958 103.246,-254.382 134,-274.5 137.516,-276.8 141.272,-278.924 145.145,-280.878"/>
<polygon fill="midnightblue" stroke="midnightblue" points="143.797,-284.111 154.343,-285.136 146.738,-277.759 143.797,-284.111"/>
</g>
<!-- Node4 -->
<g id="node4" class="node"><title>Node4</title>
<g id="a_node4"><a xlink:href="ioapi_8h.html#a787fa3cf048117ba7123753c1e74fcd6" target="_top" xlink:title="int">
<polygon fill="white" stroke="black" points="189,-246 189,-265 218,-265 218,-246 189,-246"/>
<text text-anchor="middle" x="203.5" y="-253" font-family="Helvetica,sans-Serif" font-size="10.00">int</text>
</a>
</g>
</g>
<!-- Node1&#45;&gt;Node4 -->
<g id="edge3" class="edge"><title>Node1&#45;&gt;Node4</title>
<path fill="none" stroke="midnightblue" d="M71.6059,-201.553C88.0874,-212.482 111.682,-226.966 134,-236.5 148.418,-242.659 165.395,-247.385 178.841,-250.582"/>
<polygon fill="midnightblue" stroke="midnightblue" points="178.225,-254.031 188.75,-252.817 179.766,-247.203 178.225,-254.031"/>
</g>
<!-- Node5 -->
<g id="node5" class="node"><title>Node5</title>
<g id="a_node5"><a xlink:href="classartvision__instanton_1_1_image.html#a31fdf398f739c5eccf617ae7e20c88ab" target="_top" xlink:title="Calculate the size of a single unit. ">
<polygon fill="white" stroke="black" points="134,-196.5 134,-226.5 273,-226.5 273,-196.5 134,-196.5"/>
<text text-anchor="start" x="142" y="-214.5" font-family="Helvetica,sans-Serif" font-size="10.00">artvision_instanton</text>
<text text-anchor="middle" x="203.5" y="-203.5" font-family="Helvetica,sans-Serif" font-size="10.00">::Image::calculate_unit_size</text>
</a>
</g>
</g>
<!-- Node1&#45;&gt;Node5 -->
<g id="edge4" class="edge"><title>Node1&#45;&gt;Node5</title>
<path fill="none" stroke="midnightblue" d="M98.252,-194.41C106.494,-195.761 115.243,-197.196 124.031,-198.636"/>
<polygon fill="midnightblue" stroke="midnightblue" points="123.511,-202.098 133.945,-200.262 124.643,-195.19 123.511,-202.098"/>
</g>
<!-- Node6 -->
<g id="node6" class="node"><title>Node6</title>
<g id="a_node6"><a xlink:href="classartvision__instanton_1_1_image.html#ac6859f6426c8d6729f2ada431148506f" target="_top" xlink:title="Get the image type. ">
<polygon fill="white" stroke="black" points="154.5,-147.5 154.5,-177.5 252.5,-177.5 252.5,-147.5 154.5,-147.5"/>
<text text-anchor="start" x="162.5" y="-165.5" font-family="Helvetica,sans-Serif" font-size="10.00">artvision_instanton</text>
<text text-anchor="middle" x="203.5" y="-154.5" font-family="Helvetica,sans-Serif" font-size="10.00">::Image::type</text>
</a>
</g>
</g>
<!-- Node1&#45;&gt;Node6 -->
<g id="edge6" class="edge"><title>Node1&#45;&gt;Node6</title>
<path fill="none" stroke="midnightblue" d="M98.252,-178.906C112.786,-176.619 128.897,-174.083 144.02,-171.703"/>
<polygon fill="midnightblue" stroke="midnightblue" points="144.966,-175.098 154.3,-170.086 143.878,-168.183 144.966,-175.098"/>
</g>
<!-- Node7 -->
<g id="node7" class="node"><title>Node7</title>
<g id="a_node7"><a xlink:href="classartvision__instanton_1_1_image.html#a8376556c69707ff32d49a1e2b3d63a43" target="_top" xlink:title="artvision_instanton\l::Image::channels">
<polygon fill="white" stroke="black" points="154.5,-98.5 154.5,-128.5 252.5,-128.5 252.5,-98.5 154.5,-98.5"/>
<text text-anchor="start" x="162.5" y="-116.5" font-family="Helvetica,sans-Serif" font-size="10.00">artvision_instanton</text>
<text text-anchor="middle" x="203.5" y="-105.5" font-family="Helvetica,sans-Serif" font-size="10.00">::Image::channels</text>
</a>
</g>
</g>
<!-- Node1&#45;&gt;Node7 -->
<g id="edge7" class="edge"><title>Node1&#45;&gt;Node7</title>
<path fill="none" stroke="midnightblue" d="M74.0473,-171.307C90.5382,-161.253 113.128,-148.188 134,-138.5 138.618,-136.356 143.476,-134.269 148.385,-132.274"/>
<polygon fill="midnightblue" stroke="midnightblue" points="149.809,-135.475 157.836,-128.559 147.248,-128.96 149.809,-135.475"/>
</g>
<!-- Node8 -->
<g id="node8" class="node"><title>Node8</title>
<g id="a_node8"><a xlink:href="classartvision__instanton_1_1_image.html#a26334124ea185241a9af99e03bdd6385" target="_top" xlink:title="Get the dimensions of the image. ">
<polygon fill="white" stroke="black" points="154.5,-49.5 154.5,-79.5 252.5,-79.5 252.5,-49.5 154.5,-49.5"/>
<text text-anchor="start" x="162.5" y="-67.5" font-family="Helvetica,sans-Serif" font-size="10.00">artvision_instanton</text>
<text text-anchor="middle" x="203.5" y="-56.5" font-family="Helvetica,sans-Serif" font-size="10.00">::Image::width</text>
</a>
</g>
</g>
<!-- Node1&#45;&gt;Node8 -->
<g id="edge8" class="edge"><title>Node1&#45;&gt;Node8</title>
<path fill="none" stroke="midnightblue" d="M59.5497,-171.24C73.4944,-150.11 101.352,-112.005 134,-89.5 137.459,-87.1155 141.173,-84.9291 145.017,-82.9295"/>
<polygon fill="midnightblue" stroke="midnightblue" points="146.624,-86.041 154.163,-78.5975 143.628,-79.7147 146.624,-86.041"/>
</g>
<!-- Node9 -->
<g id="node9" class="node"><title>Node9</title>
<g id="a_node9"><a xlink:href="classartvision__instanton_1_1_image.html#a8fe378f1d9a2fbeb89112b9c9600bdd6" target="_top" xlink:title="artvision_instanton\l::Image::height">
<polygon fill="white" stroke="black" points="154.5,-0.5 154.5,-30.5 252.5,-30.5 252.5,-0.5 154.5,-0.5"/>
<text text-anchor="start" x="162.5" y="-18.5" font-family="Helvetica,sans-Serif" font-size="10.00">artvision_instanton</text>
<text text-anchor="middle" x="203.5" y="-7.5" font-family="Helvetica,sans-Serif" font-size="10.00">::Image::height</text>
</a>
</g>
</g>
<!-- Node1&#45;&gt;Node9 -->
<g id="edge9" class="edge"><title>Node1&#45;&gt;Node9</title>
<path fill="none" stroke="midnightblue" d="M54.7549,-171.383C64.7312,-142.033 90.5847,-77.0181 134,-40.5 137.473,-37.5791 141.316,-34.986 145.357,-32.6862"/>
<polygon fill="midnightblue" stroke="midnightblue" points="147.097,-35.729 154.456,-28.1067 143.95,-29.4763 147.097,-35.729"/>
</g>
<!-- Node5&#45;&gt;Node2 -->
<g id="edge5" class="edge"><title>Node5&#45;&gt;Node2</title>
<path fill="none" stroke="midnightblue" d="M247.886,-226.559C256.28,-229.691 264.961,-233.082 273,-236.5 288.191,-242.959 304.571,-250.758 318.798,-257.812"/>
<polygon fill="midnightblue" stroke="midnightblue" points="317.293,-260.973 327.802,-262.319 320.426,-254.713 317.293,-260.973"/>
</g>
</g>
</svg>
