<?xml version="1.0" encoding="UTF-8" standalone="no"?>
<!DOCTYPE svg PUBLIC "-//W3C//DTD SVG 1.1//EN"
 "http://www.w3.org/Graphics/SVG/1.1/DTD/svg11.dtd">
<!-- Generated by graphviz version 2.38.0 (20140413.2041)
 -->
<!-- Title: artvision_instanton::ThreadPriorityStateSaver Pages: 1 -->
<svg width="159pt" height="117pt"
 viewBox="0.00 0.00 159.00 117.00" xmlns="http://www.w3.org/2000/svg" xmlns:xlink="http://www.w3.org/1999/xlink">
<g id="graph0" class="graph" transform="scale(1 1) rotate(0) translate(4 113)">
<title>artvision_instanton::ThreadPriorityStateSaver</title>
<polygon fill="white" stroke="none" points="-4,4 -4,-113 155,-113 155,4 -4,4"/>
<!-- Node1 -->
<g id="node1" class="node"><title>Node1</title>
<polygon fill="#bfbfbf" stroke="black" points="9.5,-0.5 9.5,-30.5 141.5,-30.5 141.5,-0.5 9.5,-0.5"/>
<text text-anchor="start" x="17.5" y="-18.5" font-family="Helvetica,sans-Serif" font-size="10.00">artvision_instanton</text>
<text text-anchor="middle" x="75.5" y="-7.5" font-family="Helvetica,sans-Serif" font-size="10.00">::ThreadPriorityStateSaver</text>
</g>
<!-- Node2 -->
<g id="node2" class="node"><title>Node2</title>
<g id="a_node2"><a xlink:href="classartvision__instanton_1_1_thread_priority_state_saver_impl.html" target="_top" xlink:title="artvision_instanton\l::ThreadPriorityStateSaverImpl">
<polygon fill="white" stroke="black" points="0,-78.5 0,-108.5 151,-108.5 151,-78.5 0,-78.5"/>
<text text-anchor="start" x="8" y="-96.5" font-family="Helvetica,sans-Serif" font-size="10.00">artvision_instanton</text>
<text text-anchor="middle" x="75.5" y="-85.5" font-family="Helvetica,sans-Serif" font-size="10.00">::ThreadPriorityStateSaverImpl</text>
</a>
</g>
</g>
<!-- Node2&#45;&gt;Node1 -->
<g id="edge1" class="edge"><title>Node2&#45;&gt;Node1</title>
<path fill="none" stroke="#9a32cd" stroke-dasharray="5,2" d="M75.5,-68.0898C75.5,-55.7565 75.5,-41.2237 75.5,-30.7309"/>
<polygon fill="#9a32cd" stroke="#9a32cd" points="72.0001,-68.2049 75.5,-78.205 79.0001,-68.205 72.0001,-68.2049"/>
<text text-anchor="middle" x="91" y="-52" font-family="Helvetica,sans-Serif" font-size="10.00"> mImpl</text>
</g>
</g>
</svg>
