<?xml version="1.0" encoding="UTF-8" standalone="no"?>
<!DOCTYPE svg PUBLIC "-//W3C//DTD SVG 1.1//EN"
 "http://www.w3.org/Graphics/SVG/1.1/DTD/svg11.dtd">
<!-- Generated by graphviz version 2.38.0 (20140413.2041)
 -->
<!-- Title: ARTrackableMultiSquare::~ARTrackableMultiSquare Pages: 1 -->
<svg width="475pt" height="66pt"
 viewBox="0.00 0.00 475.00 66.00" xmlns="http://www.w3.org/2000/svg" xmlns:xlink="http://www.w3.org/1999/xlink">
<g id="graph0" class="graph" transform="scale(1 1) rotate(0) translate(4 62)">
<title>ARTrackableMultiSquare::~ARTrackableMultiSquare</title>
<polygon fill="white" stroke="none" points="-4,4 -4,-62 471,-62 471,4 -4,4"/>
<!-- Node1 -->
<g id="node1" class="node"><title>Node1</title>
<polygon fill="#bfbfbf" stroke="black" points="0,-14 0,-44 137,-44 137,-14 0,-14"/>
<text text-anchor="start" x="8" y="-32" font-family="Helvetica,sans-Serif" font-size="10.00">ARTrackableMultiSquare</text>
<text text-anchor="middle" x="68.5" y="-21" font-family="Helvetica,sans-Serif" font-size="10.00">::~ARTrackableMultiSquare</text>
</g>
<!-- Node2 -->
<g id="node2" class="node"><title>Node2</title>
<g id="a_node2"><a xlink:href="class_a_r_trackable_multi_square.html#a57881bb2ce7acf1852db2ee6665cd0f4" target="_top" xlink:title="ARTrackableMultiSquare\l::unload">
<polygon fill="white" stroke="black" points="173,-14 173,-44 298,-44 298,-14 173,-14"/>
<text text-anchor="start" x="181" y="-32" font-family="Helvetica,sans-Serif" font-size="10.00">ARTrackableMultiSquare</text>
<text text-anchor="middle" x="235.5" y="-21" font-family="Helvetica,sans-Serif" font-size="10.00">::unload</text>
</a>
</g>
</g>
<!-- Node1&#45;&gt;Node2 -->
<g id="edge1" class="edge"><title>Node1&#45;&gt;Node2</title>
<path fill="none" stroke="midnightblue" d="M137.088,-29C145.503,-29 154.132,-29 162.61,-29"/>
<polygon fill="midnightblue" stroke="midnightblue" points="162.85,-32.5001 172.85,-29 162.85,-25.5001 162.85,-32.5001"/>
</g>
<!-- Node3 -->
<g id="node3" class="node"><title>Node3</title>
<g id="a_node3"><a xlink:href="class_a_r_trackable.html#aa425f1e3e1ba8d8b39ec6a34f8e2f403" target="_top" xlink:title="Frees allocated patterns and resets the pattern count to zero. ">
<polygon fill="white" stroke="black" points="334,-38.5 334,-57.5 467,-57.5 467,-38.5 334,-38.5"/>
<text text-anchor="middle" x="400.5" y="-45.5" font-family="Helvetica,sans-Serif" font-size="10.00">ARTrackable::freePatterns</text>
</a>
</g>
</g>
<!-- Node2&#45;&gt;Node3 -->
<g id="edge2" class="edge"><title>Node2&#45;&gt;Node3</title>
<path fill="none" stroke="midnightblue" d="M298.123,-36.1831C306.547,-37.165 315.273,-38.1821 323.909,-39.1888"/>
<polygon fill="midnightblue" stroke="midnightblue" points="323.645,-42.6816 333.983,-40.3631 324.456,-35.7287 323.645,-42.6816"/>
</g>
<!-- Node4 -->
<g id="node4" class="node"><title>Node4</title>
<g id="a_node4"><a xlink:href="ar_multi_free_config_8c.html#a0f33d2031514e1b5af6ba4dfa152633f" target="_top" xlink:title="arMultiFreeConfig">
<polygon fill="white" stroke="black" points="353.5,-0.5 353.5,-19.5 447.5,-19.5 447.5,-0.5 353.5,-0.5"/>
<text text-anchor="middle" x="400.5" y="-7.5" font-family="Helvetica,sans-Serif" font-size="10.00">arMultiFreeConfig</text>
</a>
</g>
</g>
<!-- Node2&#45;&gt;Node4 -->
<g id="edge3" class="edge"><title>Node2&#45;&gt;Node4</title>
<path fill="none" stroke="midnightblue" d="M298.123,-21.8169C312.85,-20.1003 328.499,-18.2762 342.983,-16.5879"/>
<polygon fill="midnightblue" stroke="midnightblue" points="343.766,-20.0204 353.293,-15.3861 342.955,-13.0675 343.766,-20.0204"/>
</g>
</g>
</svg>
