<?xml version="1.0" encoding="UTF-8" standalone="no"?>
<!DOCTYPE svg PUBLIC "-//W3C//DTD SVG 1.1//EN"
 "http://www.w3.org/Graphics/SVG/1.1/DTD/svg11.dtd">
<!-- Generated by graphviz version 2.38.0 (20140413.2041)
 -->
<!-- Title: artvision_instanton::AndroidAttitudeListener::start Pages: 1 -->
<svg width="289pt" height="50pt"
 viewBox="0.00 0.00 289.00 50.00" xmlns="http://www.w3.org/2000/svg" xmlns:xlink="http://www.w3.org/1999/xlink">
<g id="graph0" class="graph" transform="scale(1 1) rotate(0) translate(4 46)">
<title>artvision_instanton::AndroidAttitudeListener::start</title>
<polygon fill="white" stroke="none" points="-4,4 -4,-46 285,-46 285,4 -4,4"/>
<!-- Node1 -->
<g id="node1" class="node"><title>Node1</title>
<polygon fill="#bfbfbf" stroke="black" points="0,-0.5 0,-41.5 124,-41.5 124,-0.5 0,-0.5"/>
<text text-anchor="start" x="8" y="-29.5" font-family="Helvetica,sans-Serif" font-size="10.00">artvision_instanton</text>
<text text-anchor="start" x="8" y="-18.5" font-family="Helvetica,sans-Serif" font-size="10.00">::AndroidAttitudeListener</text>
<text text-anchor="middle" x="62" y="-7.5" font-family="Helvetica,sans-Serif" font-size="10.00">::start</text>
</g>
<!-- Node2 -->
<g id="node2" class="node"><title>Node2</title>
<g id="a_node2"><a xlink:href="classartvision__instanton_1_1_listener_base.html#acaae2c6ca177f16562a0f74c2662ccd0" target="_top" xlink:title="artvision_instanton\l::ListenerBase\&lt; attitude\l_data \&gt;::start">
<polygon fill="white" stroke="black" points="160,-0.5 160,-41.5 281,-41.5 281,-0.5 160,-0.5"/>
<text text-anchor="start" x="168" y="-29.5" font-family="Helvetica,sans-Serif" font-size="10.00">artvision_instanton</text>
<text text-anchor="start" x="168" y="-18.5" font-family="Helvetica,sans-Serif" font-size="10.00">::ListenerBase&lt; attitude</text>
<text text-anchor="middle" x="220.5" y="-7.5" font-family="Helvetica,sans-Serif" font-size="10.00">_data &gt;::start</text>
</a>
</g>
</g>
<!-- Node1&#45;&gt;Node2 -->
<g id="edge1" class="edge"><title>Node1&#45;&gt;Node2</title>
<path fill="none" stroke="midnightblue" d="M124.404,-21C132.683,-21 141.227,-21 149.64,-21"/>
<polygon fill="midnightblue" stroke="midnightblue" points="149.811,-24.5001 159.811,-21 149.811,-17.5001 149.811,-24.5001"/>
</g>
</g>
</svg>
