<?xml version="1.0" encoding="UTF-8" standalone="no"?>
<!DOCTYPE svg PUBLIC "-//W3C//DTD SVG 1.1//EN"
 "http://www.w3.org/Graphics/SVG/1.1/DTD/svg11.dtd">
<!-- Generated by graphviz version 2.38.0 (20140413.2041)
 -->
<!-- Title: artvision::RadialLensModel::set_distortion_parameters Pages: 1 -->
<svg width="277pt" height="39pt"
 viewBox="0.00 0.00 277.00 39.00" xmlns="http://www.w3.org/2000/svg" xmlns:xlink="http://www.w3.org/1999/xlink">
<g id="graph0" class="graph" transform="scale(1 1) rotate(0) translate(4 35)">
<title>artvision::RadialLensModel::set_distortion_parameters</title>
<polygon fill="white" stroke="none" points="-4,4 -4,-35 273,-35 273,4 -4,4"/>
<!-- Node1 -->
<g id="node1" class="node"><title>Node1</title>
<polygon fill="#bfbfbf" stroke="black" points="0,-0.5 0,-30.5 135,-30.5 135,-0.5 0,-0.5"/>
<text text-anchor="start" x="8" y="-18.5" font-family="Helvetica,sans-Serif" font-size="10.00">artvision::RadialLensModel</text>
<text text-anchor="middle" x="67.5" y="-7.5" font-family="Helvetica,sans-Serif" font-size="10.00">::set_distortion_parameters</text>
</g>
<!-- Node2 -->
<g id="node2" class="node"><title>Node2</title>
<g id="a_node2"><a xlink:href="namespaceartvision__instanton.html#a5522cde33c6193def63a24abeb8822cd" target="_top" xlink:title="artvision_instanton\l::CopyVector5">
<polygon fill="white" stroke="black" points="171,-0.5 171,-30.5 269,-30.5 269,-0.5 171,-0.5"/>
<text text-anchor="start" x="179" y="-18.5" font-family="Helvetica,sans-Serif" font-size="10.00">artvision_instanton</text>
<text text-anchor="middle" x="220" y="-7.5" font-family="Helvetica,sans-Serif" font-size="10.00">::CopyVector5</text>
</a>
</g>
</g>
<!-- Node1&#45;&gt;Node2 -->
<g id="edge1" class="edge"><title>Node1&#45;&gt;Node2</title>
<path fill="none" stroke="midnightblue" d="M135.388,-15.5C143.778,-15.5 152.309,-15.5 160.556,-15.5"/>
<polygon fill="midnightblue" stroke="midnightblue" points="160.818,-19.0001 170.818,-15.5 160.818,-12.0001 160.818,-19.0001"/>
</g>
</g>
</svg>
