<?xml version="1.0" encoding="UTF-8" standalone="no"?>
<!DOCTYPE svg PUBLIC "-//W3C//DTD SVG 1.1//EN"
 "http://www.w3.org/Graphics/SVG/1.1/DTD/svg11.dtd">
<!-- Generated by graphviz version 2.38.0 (20140413.2041)
 -->
<!-- Title: ARVideoSource::close Pages: 1 -->
<svg width="444pt" height="484pt"
 viewBox="0.00 0.00 444.00 484.00" xmlns="http://www.w3.org/2000/svg" xmlns:xlink="http://www.w3.org/1999/xlink">
<g id="graph0" class="graph" transform="scale(1 1) rotate(0) translate(4 480)">
<title>ARVideoSource::close</title>
<polygon fill="white" stroke="none" points="-4,4 -4,-480 440,-480 440,4 -4,4"/>
<!-- Node1 -->
<g id="node1" class="node"><title>Node1</title>
<polygon fill="#bfbfbf" stroke="black" points="0,-247.5 0,-266.5 116,-266.5 116,-247.5 0,-247.5"/>
<text text-anchor="middle" x="58" y="-254.5" font-family="Helvetica,sans-Serif" font-size="10.00">ARVideoSource::close</text>
</g>
<!-- Node2 -->
<g id="node2" class="node"><title>Node2</title>
<g id="a_node2"><a xlink:href="video_8h.html#a7f44f09a5e412bb83330887458e96b84" target="_top" xlink:title="ar2VideoCapStop">
<polygon fill="white" stroke="black" points="152,-342.5 152,-361.5 245,-361.5 245,-342.5 152,-342.5"/>
<text text-anchor="middle" x="198.5" y="-349.5" font-family="Helvetica,sans-Serif" font-size="10.00">ar2VideoCapStop</text>
</a>
</g>
</g>
<!-- Node1&#45;&gt;Node2 -->
<g id="edge1" class="edge"><title>Node1&#45;&gt;Node2</title>
<path fill="none" stroke="midnightblue" d="M73.0423,-266.632C96.9955,-283.062 145.956,-316.645 174.814,-336.439"/>
<polygon fill="midnightblue" stroke="midnightblue" points="173.194,-339.572 183.421,-342.343 177.154,-333.8 173.194,-339.572"/>
</g>
<!-- Node9 -->
<g id="node9" class="node"><title>Node9</title>
<g id="a_node9"><a xlink:href="param_8h.html#a42d02aaf13cedaf0f2cd1b93a5d81643" target="_top" xlink:title="Dispose of a memory allocated to a lookup&#45;table camera parameter. ">
<polygon fill="white" stroke="black" points="156.5,-247.5 156.5,-266.5 240.5,-266.5 240.5,-247.5 156.5,-247.5"/>
<text text-anchor="middle" x="198.5" y="-254.5" font-family="Helvetica,sans-Serif" font-size="10.00">arParamLTFree</text>
</a>
</g>
</g>
<!-- Node1&#45;&gt;Node9 -->
<g id="edge8" class="edge"><title>Node1&#45;&gt;Node9</title>
<path fill="none" stroke="midnightblue" d="M116.133,-257C125.983,-257 136.17,-257 145.864,-257"/>
<polygon fill="midnightblue" stroke="midnightblue" points="146.151,-260.5 156.151,-257 146.151,-253.5 146.151,-260.5"/>
</g>
<!-- Node10 -->
<g id="node10" class="node"><title>Node10</title>
<g id="a_node10"><a xlink:href="video_8h.html#a4b8a9b1a18beed51b2f0600687de63b8" target="_top" xlink:title="ar2VideoClose">
<polygon fill="white" stroke="black" points="158.5,-133.5 158.5,-152.5 238.5,-152.5 238.5,-133.5 158.5,-133.5"/>
<text text-anchor="middle" x="198.5" y="-140.5" font-family="Helvetica,sans-Serif" font-size="10.00">ar2VideoClose</text>
</a>
</g>
</g>
<!-- Node1&#45;&gt;Node10 -->
<g id="edge9" class="edge"><title>Node1&#45;&gt;Node10</title>
<path fill="none" stroke="midnightblue" d="M70.8084,-247.28C94.6241,-227.678 148.627,-183.228 177.846,-159.177"/>
<polygon fill="midnightblue" stroke="midnightblue" points="180.225,-161.752 185.721,-152.695 175.776,-156.348 180.225,-161.752"/>
</g>
<!-- Node3 -->
<g id="node3" class="node"><title>Node3</title>
<g id="a_node3"><a xlink:href="video_dummy_8h.html#a78fa5654276bc8d340ffe8182d0bcd6c" target="_top" xlink:title="ar2VideoCapStopDummy">
<polygon fill="white" stroke="black" points="294.5,-456.5 294.5,-475.5 422.5,-475.5 422.5,-456.5 294.5,-456.5"/>
<text text-anchor="middle" x="358.5" y="-463.5" font-family="Helvetica,sans-Serif" font-size="10.00">ar2VideoCapStopDummy</text>
</a>
</g>
</g>
<!-- Node2&#45;&gt;Node3 -->
<g id="edge2" class="edge"><title>Node2&#45;&gt;Node3</title>
<path fill="none" stroke="midnightblue" d="M204.858,-361.525C216.233,-380.833 244.747,-424.644 281,-447 284.44,-449.121 288.104,-451.006 291.895,-452.68"/>
<polygon fill="midnightblue" stroke="midnightblue" points="290.936,-456.063 301.524,-456.425 293.473,-449.538 290.936,-456.063"/>
</g>
<!-- Node4 -->
<g id="node4" class="node"><title>Node4</title>
<g id="a_node4"><a xlink:href="video_v4_l2_8h.html#a530b43b034daf2f89586fb69e9de74aa" target="_top" xlink:title="ar2VideoCapStopV4L2">
<polygon fill="white" stroke="black" points="300.5,-418.5 300.5,-437.5 416.5,-437.5 416.5,-418.5 300.5,-418.5"/>
<text text-anchor="middle" x="358.5" y="-425.5" font-family="Helvetica,sans-Serif" font-size="10.00">ar2VideoCapStopV4L2</text>
</a>
</g>
</g>
<!-- Node2&#45;&gt;Node4 -->
<g id="edge3" class="edge"><title>Node2&#45;&gt;Node4</title>
<path fill="none" stroke="midnightblue" d="M210.299,-361.534C225.19,-374.195 253.338,-396.418 281,-409 286.347,-411.432 292.051,-413.582 297.843,-415.478"/>
<polygon fill="midnightblue" stroke="midnightblue" points="297.04,-418.891 307.624,-418.43 299.063,-412.19 297.04,-418.891"/>
</g>
<!-- Node5 -->
<g id="node5" class="node"><title>Node5</title>
<g id="a_node5"><a xlink:href="video1394_8h.html#a23f653b38bb02af6d9050d02b0702f94" target="_top" xlink:title="ar2VideoCapStop1394">
<polygon fill="white" stroke="black" points="301.5,-380.5 301.5,-399.5 415.5,-399.5 415.5,-380.5 301.5,-380.5"/>
<text text-anchor="middle" x="358.5" y="-387.5" font-family="Helvetica,sans-Serif" font-size="10.00">ar2VideoCapStop1394</text>
</a>
</g>
</g>
<!-- Node2&#45;&gt;Node5 -->
<g id="edge4" class="edge"><title>Node2&#45;&gt;Node5</title>
<path fill="none" stroke="midnightblue" d="M239.37,-361.589C260.22,-366.604 285.935,-372.788 308.043,-378.105"/>
<polygon fill="midnightblue" stroke="midnightblue" points="307.375,-381.544 317.917,-380.48 309.012,-374.739 307.375,-381.544"/>
</g>
<!-- Node6 -->
<g id="node6" class="node"><title>Node6</title>
<g id="a_node6"><a xlink:href="video_a_v_foundation_8h.html#a80dffabb6c571245b002d91e9031ca64" target="_top" xlink:title="ar2VideoCapStopAVFoundation">
<polygon fill="white" stroke="black" points="281,-342.5 281,-361.5 436,-361.5 436,-342.5 281,-342.5"/>
<text text-anchor="middle" x="358.5" y="-349.5" font-family="Helvetica,sans-Serif" font-size="10.00">ar2VideoCapStopAVFoundation</text>
</a>
</g>
</g>
<!-- Node2&#45;&gt;Node6 -->
<g id="edge5" class="edge"><title>Node2&#45;&gt;Node6</title>
<path fill="none" stroke="midnightblue" d="M245.2,-352C253.345,-352 262.068,-352 270.919,-352"/>
<polygon fill="midnightblue" stroke="midnightblue" points="270.943,-355.5 280.942,-352 270.942,-348.5 270.943,-355.5"/>
</g>
<!-- Node7 -->
<g id="node7" class="node"><title>Node7</title>
<g id="a_node7"><a xlink:href="video_image_8h.html#af8b971aac579641ba46492cbd6394293" target="_top" xlink:title="ar2VideoCapStopImage">
<polygon fill="white" stroke="black" points="298.5,-304.5 298.5,-323.5 418.5,-323.5 418.5,-304.5 298.5,-304.5"/>
<text text-anchor="middle" x="358.5" y="-311.5" font-family="Helvetica,sans-Serif" font-size="10.00">ar2VideoCapStopImage</text>
</a>
</g>
</g>
<!-- Node2&#45;&gt;Node7 -->
<g id="edge6" class="edge"><title>Node2&#45;&gt;Node7</title>
<path fill="none" stroke="midnightblue" d="M239.37,-342.411C260.22,-337.396 285.935,-331.212 308.043,-325.895"/>
<polygon fill="midnightblue" stroke="midnightblue" points="309.012,-329.261 317.917,-323.52 307.375,-322.456 309.012,-329.261"/>
</g>
<!-- Node8 -->
<g id="node8" class="node"><title>Node8</title>
<g id="a_node8"><a xlink:href="video_android_8h.html#a0d13c2368b42b9e85c60830fb13fd04e" target="_top" xlink:title="ar2VideoCapStopAndroid">
<polygon fill="white" stroke="black" points="295.5,-266.5 295.5,-285.5 421.5,-285.5 421.5,-266.5 295.5,-266.5"/>
<text text-anchor="middle" x="358.5" y="-273.5" font-family="Helvetica,sans-Serif" font-size="10.00">ar2VideoCapStopAndroid</text>
</a>
</g>
</g>
<!-- Node2&#45;&gt;Node8 -->
<g id="edge7" class="edge"><title>Node2&#45;&gt;Node8</title>
<path fill="none" stroke="midnightblue" d="M210.299,-342.466C225.19,-329.805 253.338,-307.582 281,-295 286.347,-292.568 292.051,-290.418 297.843,-288.522"/>
<polygon fill="midnightblue" stroke="midnightblue" points="299.063,-291.81 307.624,-285.57 297.04,-285.109 299.063,-291.81"/>
</g>
<!-- Node11 -->
<g id="node11" class="node"><title>Node11</title>
<g id="a_node11"><a xlink:href="video_luma_8h.html#af73e0e884452c46682458a136539792b" target="_top" xlink:title="arVideoLumaFinal">
<polygon fill="white" stroke="black" points="311,-228.5 311,-247.5 406,-247.5 406,-228.5 311,-228.5"/>
<text text-anchor="middle" x="358.5" y="-235.5" font-family="Helvetica,sans-Serif" font-size="10.00">arVideoLumaFinal</text>
</a>
</g>
</g>
<!-- Node10&#45;&gt;Node11 -->
<g id="edge10" class="edge"><title>Node10&#45;&gt;Node11</title>
<path fill="none" stroke="midnightblue" d="M206.929,-152.568C220.061,-168.8 249.028,-201.659 281,-219 287.142,-222.331 293.878,-225.09 300.726,-227.371"/>
<polygon fill="midnightblue" stroke="midnightblue" points="300.199,-230.867 310.783,-230.384 302.208,-224.161 300.199,-230.867"/>
</g>
<!-- Node12 -->
<g id="node12" class="node"><title>Node12</title>
<g id="a_node12"><a xlink:href="video_dummy_8h.html#ae518c53d87b1320ba8cd80ed8a23bf0a" target="_top" xlink:title="ar2VideoCloseDummy">
<polygon fill="white" stroke="black" points="301,-190.5 301,-209.5 416,-209.5 416,-190.5 301,-190.5"/>
<text text-anchor="middle" x="358.5" y="-197.5" font-family="Helvetica,sans-Serif" font-size="10.00">ar2VideoCloseDummy</text>
</a>
</g>
</g>
<!-- Node10&#45;&gt;Node12 -->
<g id="edge11" class="edge"><title>Node10&#45;&gt;Node12</title>
<path fill="none" stroke="midnightblue" d="M217.527,-152.637C233.767,-161.019 258.48,-173.037 281,-181 288.087,-183.506 295.655,-185.811 303.171,-187.887"/>
<polygon fill="midnightblue" stroke="midnightblue" points="302.414,-191.307 312.976,-190.48 304.204,-184.539 302.414,-191.307"/>
</g>
<!-- Node13 -->
<g id="node13" class="node"><title>Node13</title>
<g id="a_node13"><a xlink:href="video_v4_l2_8h.html#a160602fb4d1827e9053166f051f4613d" target="_top" xlink:title="ar2VideoCloseV4L2">
<polygon fill="white" stroke="black" points="307,-152.5 307,-171.5 410,-171.5 410,-152.5 307,-152.5"/>
<text text-anchor="middle" x="358.5" y="-159.5" font-family="Helvetica,sans-Serif" font-size="10.00">ar2VideoCloseV4L2</text>
</a>
</g>
</g>
<!-- Node10&#45;&gt;Node13 -->
<g id="edge12" class="edge"><title>Node10&#45;&gt;Node13</title>
<path fill="none" stroke="midnightblue" d="M238.556,-147.697C256.143,-149.812 277.314,-152.357 296.89,-154.711"/>
<polygon fill="midnightblue" stroke="midnightblue" points="296.608,-158.203 306.954,-155.922 297.444,-151.253 296.608,-158.203"/>
</g>
<!-- Node14 -->
<g id="node14" class="node"><title>Node14</title>
<g id="a_node14"><a xlink:href="video1394_8h.html#aaea7efdd8dad25a42fe9b8f3bc3edf0b" target="_top" xlink:title="ar2VideoClose1394">
<polygon fill="white" stroke="black" points="308,-114.5 308,-133.5 409,-133.5 409,-114.5 308,-114.5"/>
<text text-anchor="middle" x="358.5" y="-121.5" font-family="Helvetica,sans-Serif" font-size="10.00">ar2VideoClose1394</text>
</a>
</g>
</g>
<!-- Node10&#45;&gt;Node14 -->
<g id="edge13" class="edge"><title>Node10&#45;&gt;Node14</title>
<path fill="none" stroke="midnightblue" d="M238.556,-138.303C256.377,-136.16 277.877,-133.575 297.669,-131.195"/>
<polygon fill="midnightblue" stroke="midnightblue" points="298.324,-134.641 307.835,-129.972 297.488,-127.691 298.324,-134.641"/>
</g>
<!-- Node15 -->
<g id="node15" class="node"><title>Node15</title>
<g id="a_node15"><a xlink:href="video_a_v_foundation_8h.html#a2883b331cca58ccd1c036f2318041f03" target="_top" xlink:title="ar2VideoCloseAVFoundation">
<polygon fill="white" stroke="black" points="287.5,-76.5 287.5,-95.5 429.5,-95.5 429.5,-76.5 287.5,-76.5"/>
<text text-anchor="middle" x="358.5" y="-83.5" font-family="Helvetica,sans-Serif" font-size="10.00">ar2VideoCloseAVFoundation</text>
</a>
</g>
</g>
<!-- Node10&#45;&gt;Node15 -->
<g id="edge14" class="edge"><title>Node10&#45;&gt;Node15</title>
<path fill="none" stroke="midnightblue" d="M217.527,-133.363C233.767,-124.981 258.48,-112.963 281,-105 288.087,-102.494 295.655,-100.189 303.171,-98.1135"/>
<polygon fill="midnightblue" stroke="midnightblue" points="304.204,-101.461 312.976,-95.5201 302.414,-94.6934 304.204,-101.461"/>
</g>
<!-- Node16 -->
<g id="node16" class="node"><title>Node16</title>
<g id="a_node16"><a xlink:href="video_image_8h.html#a3ffc443b510b55d94d0aed46e4277388" target="_top" xlink:title="ar2VideoCloseImage">
<polygon fill="white" stroke="black" points="305,-38.5 305,-57.5 412,-57.5 412,-38.5 305,-38.5"/>
<text text-anchor="middle" x="358.5" y="-45.5" font-family="Helvetica,sans-Serif" font-size="10.00">ar2VideoCloseImage</text>
</a>
</g>
</g>
<!-- Node10&#45;&gt;Node16 -->
<g id="edge15" class="edge"><title>Node10&#45;&gt;Node16</title>
<path fill="none" stroke="midnightblue" d="M206.929,-133.432C220.061,-117.2 249.028,-84.3407 281,-67 285.472,-64.5748 290.257,-62.4533 295.172,-60.5984"/>
<polygon fill="midnightblue" stroke="midnightblue" points="296.391,-63.881 304.733,-57.3502 294.139,-57.253 296.391,-63.881"/>
</g>
<!-- Node17 -->
<g id="node17" class="node"><title>Node17</title>
<g id="a_node17"><a xlink:href="video_android_8h.html#afb5748a9176a3e1a8aee435726c18be2" target="_top" xlink:title="ar2VideoCloseAndroid">
<polygon fill="white" stroke="black" points="302,-0.5 302,-19.5 415,-19.5 415,-0.5 302,-0.5"/>
<text text-anchor="middle" x="358.5" y="-7.5" font-family="Helvetica,sans-Serif" font-size="10.00">ar2VideoCloseAndroid</text>
</a>
</g>
</g>
<!-- Node10&#45;&gt;Node17 -->
<g id="edge16" class="edge"><title>Node10&#45;&gt;Node17</title>
<path fill="none" stroke="midnightblue" d="M203.568,-133.281C213.377,-111.086 240.551,-56.4822 281,-29 284.566,-26.5774 288.412,-24.4634 292.416,-22.6186"/>
<polygon fill="midnightblue" stroke="midnightblue" points="294.006,-25.7522 301.987,-18.7843 291.403,-19.2542 294.006,-25.7522"/>
</g>
</g>
</svg>
