<?xml version="1.0" encoding="UTF-8" standalone="no"?>
<!DOCTYPE svg PUBLIC "-//W3C//DTD SVG 1.1//EN"
 "http://www.w3.org/Graphics/SVG/1.1/DTD/svg11.dtd">
<!-- Generated by graphviz version 2.38.0 (20140413.2041)
 -->
<!-- Title: artvision_instanton::NullAttitudeListener Pages: 1 -->
<svg width="129pt" height="318pt"
 viewBox="0.00 0.00 129.00 318.00" xmlns="http://www.w3.org/2000/svg" xmlns:xlink="http://www.w3.org/1999/xlink">
<g id="graph0" class="graph" transform="scale(1 1) rotate(0) translate(4 314)">
<title>artvision_instanton::NullAttitudeListener</title>
<polygon fill="white" stroke="none" points="-4,4 -4,-314 125,-314 125,4 -4,4"/>
<!-- Node1 -->
<g id="node1" class="node"><title>Node1</title>
<polygon fill="#bfbfbf" stroke="black" points="6.5,-0.5 6.5,-30.5 114.5,-30.5 114.5,-0.5 6.5,-0.5"/>
<text text-anchor="start" x="14.5" y="-18.5" font-family="Helvetica,sans-Serif" font-size="10.00">artvision_instanton</text>
<text text-anchor="middle" x="60.5" y="-7.5" font-family="Helvetica,sans-Serif" font-size="10.00">::NullAttitudeListener</text>
</g>
<!-- Node2 -->
<g id="node2" class="node"><title>Node2</title>
<g id="a_node2"><a xlink:href="classartvision__instanton_1_1_attitude_listener_base.html" target="_top" xlink:title="artvision_instanton\l::AttitudeListenerBase">
<polygon fill="white" stroke="black" points="4,-67.5 4,-97.5 117,-97.5 117,-67.5 4,-67.5"/>
<text text-anchor="start" x="12" y="-85.5" font-family="Helvetica,sans-Serif" font-size="10.00">artvision_instanton</text>
<text text-anchor="middle" x="60.5" y="-74.5" font-family="Helvetica,sans-Serif" font-size="10.00">::AttitudeListenerBase</text>
</a>
</g>
</g>
<!-- Node2&#45;&gt;Node1 -->
<g id="edge1" class="edge"><title>Node2&#45;&gt;Node1</title>
<path fill="none" stroke="midnightblue" d="M60.5,-57.1081C60.5,-48.1539 60.5,-38.3227 60.5,-30.5765"/>
<polygon fill="midnightblue" stroke="midnightblue" points="57.0001,-57.3959 60.5,-67.396 64.0001,-57.396 57.0001,-57.3959"/>
</g>
<!-- Node3 -->
<g id="node3" class="node"><title>Node3</title>
<g id="a_node3"><a xlink:href="classartvision__instanton_1_1_listener_base.html" target="_top" xlink:title="artvision_instanton\l::ListenerBase\&lt; attitude\l_data \&gt;">
<polygon fill="white" stroke="black" points="-7.10543e-15,-134.5 -7.10543e-15,-175.5 121,-175.5 121,-134.5 -7.10543e-15,-134.5"/>
<text text-anchor="start" x="8" y="-163.5" font-family="Helvetica,sans-Serif" font-size="10.00">artvision_instanton</text>
<text text-anchor="start" x="8" y="-152.5" font-family="Helvetica,sans-Serif" font-size="10.00">::ListenerBase&lt; attitude</text>
<text text-anchor="middle" x="60.5" y="-141.5" font-family="Helvetica,sans-Serif" font-size="10.00">_data &gt;</text>
</a>
</g>
</g>
<!-- Node3&#45;&gt;Node2 -->
<g id="edge2" class="edge"><title>Node3&#45;&gt;Node2</title>
<path fill="none" stroke="midnightblue" d="M60.5,-124.08C60.5,-115.006 60.5,-105.45 60.5,-97.8916"/>
<polygon fill="midnightblue" stroke="midnightblue" points="57.0001,-124.362 60.5,-134.362 64.0001,-124.362 57.0001,-124.362"/>
</g>
<!-- Node4 -->
<g id="node4" class="node"><title>Node4</title>
<g id="a_node4"><a xlink:href="classartvision__instanton_1_1_task.html" target="_top" xlink:title="A task is a recurring event. ">
<polygon fill="white" stroke="black" points="11.5,-212.5 11.5,-242.5 109.5,-242.5 109.5,-212.5 11.5,-212.5"/>
<text text-anchor="start" x="19.5" y="-230.5" font-family="Helvetica,sans-Serif" font-size="10.00">artvision_instanton</text>
<text text-anchor="middle" x="60.5" y="-219.5" font-family="Helvetica,sans-Serif" font-size="10.00">::Task</text>
</a>
</g>
</g>
<!-- Node4&#45;&gt;Node3 -->
<g id="edge3" class="edge"><title>Node4&#45;&gt;Node3</title>
<path fill="none" stroke="midnightblue" d="M60.5,-201.982C60.5,-193.347 60.5,-183.762 60.5,-175.588"/>
<polygon fill="midnightblue" stroke="midnightblue" points="57.0001,-202.233 60.5,-212.233 64.0001,-202.233 57.0001,-202.233"/>
</g>
<!-- Node5 -->
<g id="node5" class="node"><title>Node5</title>
<g id="a_node5"><a xlink:href="classartvision__instanton_1_1_runnable.html" target="_top" xlink:title="artvision_instanton\l::Runnable">
<polygon fill="white" stroke="black" points="11.5,-279.5 11.5,-309.5 109.5,-309.5 109.5,-279.5 11.5,-279.5"/>
<text text-anchor="start" x="19.5" y="-297.5" font-family="Helvetica,sans-Serif" font-size="10.00">artvision_instanton</text>
<text text-anchor="middle" x="60.5" y="-286.5" font-family="Helvetica,sans-Serif" font-size="10.00">::Runnable</text>
</a>
</g>
</g>
<!-- Node5&#45;&gt;Node4 -->
<g id="edge4" class="edge"><title>Node5&#45;&gt;Node4</title>
<path fill="none" stroke="midnightblue" d="M60.5,-269.108C60.5,-260.154 60.5,-250.323 60.5,-242.577"/>
<polygon fill="midnightblue" stroke="midnightblue" points="57.0001,-269.396 60.5,-279.396 64.0001,-269.396 57.0001,-269.396"/>
</g>
</g>
</svg>
