<?xml version="1.0" encoding="UTF-8" standalone="no"?>
<!DOCTYPE svg PUBLIC "-//W3C//DTD SVG 1.1//EN"
 "http://www.w3.org/Graphics/SVG/1.1/DTD/svg11.dtd">
<!-- Generated by graphviz version 2.38.0 (20140413.2041)
 -->
<!-- Title: /bitrise/src/Source/AR6/ARVideo/AVFoundation Pages: 1 -->
<svg width="118pt" height="151pt"
 viewBox="0.00 0.00 118.00 151.00" xmlns="http://www.w3.org/2000/svg" xmlns:xlink="http://www.w3.org/1999/xlink">
<g id="graph0" class="graph" transform="scale(1 1) rotate(0) translate(4 147)">
<title>/bitrise/src/Source/AR6/ARVideo/AVFoundation</title>
<polygon fill="white" stroke="none" points="-4,4 -4,-147 114,-147 114,4 -4,4"/>
<g id="clust1" class="cluster"><title>clusterdir_6fadf57a34395aff0f621f954f8f3ecb</title>
<g id="a_clust1"><a xlink:href="dir_6fadf57a34395aff0f621f954f8f3ecb.html" target="_top" xlink:title="ARVideo">
<polygon fill="#ddddee" stroke="black" points="8,-64 8,-135 102,-135 102,-64 8,-64"/>
<text text-anchor="middle" x="55" y="-123" font-family="Helvetica,sans-Serif" font-size="10.00">ARVideo</text>
</a>
</g>
</g>
<!-- dir_8568ed17545344116a692ec1d89a9ebe -->
<g id="node1" class="node"><title>dir_8568ed17545344116a692ec1d89a9ebe</title>
<g id="a_node1"><a xlink:href="dir_8568ed17545344116a692ec1d89a9ebe.html" target="_top" xlink:title="AVFoundation">
<polygon fill="#eeeeff" stroke="black" points="94,-108 16,-108 16,-72 94,-72 94,-108"/>
<text text-anchor="middle" x="55" y="-87.5" font-family="Helvetica,sans-Serif" font-size="10.00">AVFoundation</text>
</a>
</g>
</g>
<!-- dir_6ac6451468a1eff197b5dde7a8c79ee9 -->
<g id="node2" class="node"><title>dir_6ac6451468a1eff197b5dde7a8c79ee9</title>
<g id="a_node2"><a xlink:href="dir_6ac6451468a1eff197b5dde7a8c79ee9.html" target="_top" xlink:title="include">
<polygon fill="white" stroke="red" points="82,-36 28,-36 28,-0 82,-0 82,-36"/>
<text text-anchor="middle" x="55" y="-15.5" font-family="Helvetica,sans-Serif" font-size="10.00">include</text>
</a>
</g>
</g>
<!-- dir_8568ed17545344116a692ec1d89a9ebe&#45;&gt;dir_6ac6451468a1eff197b5dde7a8c79ee9 -->
<g id="edge1" class="edge"><title>dir_8568ed17545344116a692ec1d89a9ebe&#45;&gt;dir_6ac6451468a1eff197b5dde7a8c79ee9</title>
<path fill="none" stroke="black" d="M55,-71.6966C55,-63.9827 55,-54.7125 55,-46.1124"/>
<polygon fill="black" stroke="black" points="58.5001,-46.1043 55,-36.1043 51.5001,-46.1044 58.5001,-46.1043"/>
<g id="a_edge1&#45;headlabel"><a xlink:href="dir_000024_000027.html" target="_top" xlink:title="3">
<text text-anchor="middle" x="61.3393" y="-47.199" font-family="Helvetica,sans-Serif" font-size="10.00">3</text>
</a>
</g>
</g>
</g>
</svg>
