<?xml version="1.0" encoding="UTF-8" standalone="no"?>
<!DOCTYPE svg PUBLIC "-//W3C//DTD SVG 1.1//EN"
 "http://www.w3.org/Graphics/SVG/1.1/DTD/svg11.dtd">
<!-- Generated by graphviz version 2.38.0 (20140413.2041)
 -->
<!-- Title: /bitrise/src/Source/AR6/InstantOn Pages: 1 -->
<svg width="494pt" height="231pt"
 viewBox="0.00 0.00 494.00 231.00" xmlns="http://www.w3.org/2000/svg" xmlns:xlink="http://www.w3.org/1999/xlink">
<g id="graph0" class="graph" transform="scale(1 1) rotate(0) translate(4 227)">
<title>/bitrise/src/Source/AR6/InstantOn</title>
<polygon fill="white" stroke="none" points="-4,4 -4,-227 490,-227 490,4 -4,4"/>
<g id="clust1" class="cluster"><title>clusterdir_0eb6ab2946e867338a07984a6e8fed62</title>
<g id="a_clust1"><a xlink:href="dir_0eb6ab2946e867338a07984a6e8fed62.html" target="_top" xlink:title="AR6">
<polygon fill="#ddddee" stroke="black" points="8,-56 8,-215 478,-215 478,-56 8,-56"/>
<text text-anchor="middle" x="243" y="-203" font-family="Helvetica,sans-Serif" font-size="10.00">AR6</text>
</a>
</g>
</g>
<g id="clust2" class="cluster"><title>clusterdir_2dbedbc3f447cb8da27b4e7f251eba2d</title>
<g id="a_clust2"><a xlink:href="dir_2dbedbc3f447cb8da27b4e7f251eba2d.html" target="_top">
<polygon fill="#eeeeff" stroke="black" points="16,-64 16,-188 470,-188 470,-64 16,-64"/>
</a>
</g>
</g>
<!-- dir_2dbedbc3f447cb8da27b4e7f251eba2d -->
<g id="node1" class="node"><title>dir_2dbedbc3f447cb8da27b4e7f251eba2d</title>
<text text-anchor="middle" x="432" y="-159.5" font-family="Helvetica,sans-Serif" font-size="10.00">InstantOn</text>
</g>
<!-- dir_aad90de66b7279af42549686741be329 -->
<g id="node2" class="node"><title>dir_aad90de66b7279af42549686741be329</title>
<g id="a_node2"><a xlink:href="dir_aad90de66b7279af42549686741be329.html" target="_top" xlink:title="cv">
<polygon fill="white" stroke="red" points="302,-180 248,-180 248,-144 302,-144 302,-180"/>
<text text-anchor="middle" x="275" y="-159.5" font-family="Helvetica,sans-Serif" font-size="10.00">cv</text>
</a>
</g>
</g>
<!-- dir_7806b0fde3785ddac884cca4d5b5770e -->
<g id="node6" class="node"><title>dir_7806b0fde3785ddac884cca4d5b5770e</title>
<g id="a_node6"><a xlink:href="dir_7806b0fde3785ddac884cca4d5b5770e.html" target="_top" xlink:title="include">
<polygon fill="white" stroke="red" points="171,-108 117,-108 117,-72 171,-72 171,-108"/>
<text text-anchor="middle" x="144" y="-87.5" font-family="Helvetica,sans-Serif" font-size="10.00">include</text>
</a>
</g>
</g>
<!-- dir_aad90de66b7279af42549686741be329&#45;&gt;dir_7806b0fde3785ddac884cca4d5b5770e -->
<g id="edge7" class="edge"><title>dir_aad90de66b7279af42549686741be329&#45;&gt;dir_7806b0fde3785ddac884cca4d5b5770e</title>
<path fill="none" stroke="black" d="M247.857,-146.496C228.184,-135.984 201.384,-121.663 179.936,-110.203"/>
<polygon fill="black" stroke="black" points="181.578,-107.111 171.109,-105.485 178.279,-113.285 181.578,-107.111"/>
<g id="a_edge7&#45;headlabel"><a xlink:href="dir_000034_000008.html" target="_top" xlink:title="28">
<text text-anchor="middle" x="186.086" y="-103.801" font-family="Helvetica,sans-Serif" font-size="10.00">28</text>
</a>
</g>
</g>
<!-- dir_4fb6f97ed48024a05edbef9972528e43 -->
<g id="node8" class="node"><title>dir_4fb6f97ed48024a05edbef9972528e43</title>
<g id="a_node8"><a xlink:href="dir_4fb6f97ed48024a05edbef9972528e43.html" target="_top" xlink:title="ARUtil">
<polygon fill="white" stroke="red" points="264,-36 210,-36 210,-0 264,-0 264,-36"/>
<text text-anchor="middle" x="237" y="-15.5" font-family="Helvetica,sans-Serif" font-size="10.00">ARUtil</text>
</a>
</g>
</g>
<!-- dir_aad90de66b7279af42549686741be329&#45;&gt;dir_4fb6f97ed48024a05edbef9972528e43 -->
<g id="edge8" class="edge"><title>dir_aad90de66b7279af42549686741be329&#45;&gt;dir_4fb6f97ed48024a05edbef9972528e43</title>
<path fill="none" stroke="black" d="M271.805,-143.716C267.757,-122.749 260.188,-86.432 251,-56 249.976,-52.6098 248.797,-49.0843 247.567,-45.6154"/>
<polygon fill="black" stroke="black" points="250.813,-44.3035 244.049,-36.1489 244.251,-46.7418 250.813,-44.3035"/>
<g id="a_edge8&#45;headlabel"><a xlink:href="dir_000034_000016.html" target="_top" xlink:title="4">
<text text-anchor="middle" x="254.726" y="-44.1839" font-family="Helvetica,sans-Serif" font-size="10.00">4</text>
</a>
</g>
</g>
<!-- dir_f3efe1dd43fe8e0f4d04128696d5f25a -->
<g id="node3" class="node"><title>dir_f3efe1dd43fe8e0f4d04128696d5f25a</title>
<g id="a_node3"><a xlink:href="dir_f3efe1dd43fe8e0f4d04128696d5f25a.html" target="_top" xlink:title="extensions">
<polygon fill="white" stroke="black" points="384,-180 320,-180 320,-144 384,-144 384,-180"/>
<text text-anchor="middle" x="352" y="-159.5" font-family="Helvetica,sans-Serif" font-size="10.00">extensions</text>
</a>
</g>
</g>
<!-- dir_f3efe1dd43fe8e0f4d04128696d5f25a&#45;&gt;dir_7806b0fde3785ddac884cca4d5b5770e -->
<g id="edge3" class="edge"><title>dir_f3efe1dd43fe8e0f4d04128696d5f25a&#45;&gt;dir_7806b0fde3785ddac884cca4d5b5770e</title>
<path fill="none" stroke="black" d="M319.874,-147.374C316.887,-146.199 313.895,-145.057 311,-144 266.852,-127.875 215.158,-111.908 181.111,-101.781"/>
<polygon fill="black" stroke="black" points="181.721,-98.3121 171.139,-98.8327 179.736,-105.025 181.721,-98.3121"/>
<g id="a_edge3&#45;headlabel"><a xlink:href="dir_000044_000008.html" target="_top" xlink:title="39">
<text text-anchor="middle" x="185.974" y="-94.1086" font-family="Helvetica,sans-Serif" font-size="10.00">39</text>
</a>
</g>
</g>
<!-- dir_f3efe1dd43fe8e0f4d04128696d5f25a&#45;&gt;dir_4fb6f97ed48024a05edbef9972528e43 -->
<g id="edge4" class="edge"><title>dir_f3efe1dd43fe8e0f4d04128696d5f25a&#45;&gt;dir_4fb6f97ed48024a05edbef9972528e43</title>
<path fill="none" stroke="black" d="M339.53,-143.918C323.985,-122.843 296.366,-86.1082 271,-56 267.575,-51.9344 263.854,-47.7079 260.172,-43.6274"/>
<polygon fill="black" stroke="black" points="262.561,-41.0542 253.227,-36.0411 257.398,-45.7807 262.561,-41.0542"/>
<g id="a_edge4&#45;headlabel"><a xlink:href="dir_000044_000016.html" target="_top" xlink:title="5">
<text text-anchor="middle" x="267.083" y="-39.2885" font-family="Helvetica,sans-Serif" font-size="10.00">5</text>
</a>
</g>
</g>
<!-- dir_04e07a8c495fb2170afdfcc500122c3e -->
<g id="node4" class="node"><title>dir_04e07a8c495fb2170afdfcc500122c3e</title>
<g id="a_node4"><a xlink:href="dir_04e07a8c495fb2170afdfcc500122c3e.html" target="_top" xlink:title="external">
<polygon fill="white" stroke="red" points="150,-180 96,-180 96,-144 150,-144 150,-180"/>
<text text-anchor="middle" x="123" y="-159.5" font-family="Helvetica,sans-Serif" font-size="10.00">external</text>
</a>
</g>
</g>
<!-- dir_04e07a8c495fb2170afdfcc500122c3e&#45;&gt;dir_7806b0fde3785ddac884cca4d5b5770e -->
<g id="edge1" class="edge"><title>dir_04e07a8c495fb2170afdfcc500122c3e&#45;&gt;dir_7806b0fde3785ddac884cca4d5b5770e</title>
<path fill="none" stroke="black" d="M128.191,-143.697C130.531,-135.898 133.347,-126.509 135.951,-117.829"/>
<polygon fill="black" stroke="black" points="139.348,-118.688 138.869,-108.104 132.643,-116.677 139.348,-118.688"/>
<g id="a_edge1&#45;headlabel"><a xlink:href="dir_000045_000008.html" target="_top" xlink:title="7">
<text text-anchor="middle" x="141.034" y="-120.447" font-family="Helvetica,sans-Serif" font-size="10.00">7</text>
</a>
</g>
</g>
<!-- dir_04e07a8c495fb2170afdfcc500122c3e&#45;&gt;dir_4fb6f97ed48024a05edbef9972528e43 -->
<g id="edge2" class="edge"><title>dir_04e07a8c495fb2170afdfcc500122c3e&#45;&gt;dir_4fb6f97ed48024a05edbef9972528e43</title>
<path fill="none" stroke="black" d="M144.019,-143.772C155.358,-133.929 169.201,-120.988 180,-108 197.5,-86.9525 198.219,-79.0379 213,-56 215.326,-52.3751 217.788,-48.5568 220.215,-44.8052"/>
<polygon fill="black" stroke="black" points="223.229,-46.5896 225.731,-36.2945 217.355,-42.7822 223.229,-46.5896"/>
<g id="a_edge2&#45;headlabel"><a xlink:href="dir_000045_000016.html" target="_top" xlink:title="2">
<text text-anchor="middle" x="223.657" y="-48.6503" font-family="Helvetica,sans-Serif" font-size="10.00">2</text>
</a>
</g>
</g>
<!-- dir_164009bf8bf4ef7808e50c6518f9d392 -->
<g id="node5" class="node"><title>dir_164009bf8bf4ef7808e50c6518f9d392</title>
<g id="a_node5"><a xlink:href="dir_164009bf8bf4ef7808e50c6518f9d392.html" target="_top" xlink:title="framework">
<polygon fill="white" stroke="black" points="230,-180 168,-180 168,-144 230,-144 230,-180"/>
<text text-anchor="middle" x="199" y="-159.5" font-family="Helvetica,sans-Serif" font-size="10.00">framework</text>
</a>
</g>
</g>
<!-- dir_164009bf8bf4ef7808e50c6518f9d392&#45;&gt;dir_7806b0fde3785ddac884cca4d5b5770e -->
<g id="edge9" class="edge"><title>dir_164009bf8bf4ef7808e50c6518f9d392&#45;&gt;dir_7806b0fde3785ddac884cca4d5b5770e</title>
<path fill="none" stroke="black" d="M185.404,-143.697C178.877,-135.389 170.932,-125.277 163.753,-116.141"/>
<polygon fill="black" stroke="black" points="166.369,-113.805 157.439,-108.104 160.865,-118.13 166.369,-113.805"/>
<g id="a_edge9&#45;headlabel"><a xlink:href="dir_000017_000008.html" target="_top" xlink:title="21">
<text text-anchor="middle" x="170.823" y="-112.377" font-family="Helvetica,sans-Serif" font-size="10.00">21</text>
</a>
</g>
</g>
<!-- dir_164009bf8bf4ef7808e50c6518f9d392&#45;&gt;dir_4fb6f97ed48024a05edbef9972528e43 -->
<g id="edge10" class="edge"><title>dir_164009bf8bf4ef7808e50c6518f9d392&#45;&gt;dir_4fb6f97ed48024a05edbef9972528e43</title>
<path fill="none" stroke="black" d="M203.584,-143.871C210.089,-119.564 222.063,-74.8187 229.771,-46.0132"/>
<polygon fill="black" stroke="black" points="233.196,-46.7542 232.4,-36.1893 226.434,-44.9445 233.196,-46.7542"/>
<g id="a_edge10&#45;headlabel"><a xlink:href="dir_000017_000016.html" target="_top" xlink:title="3">
<text text-anchor="middle" x="235.01" y="-48.4605" font-family="Helvetica,sans-Serif" font-size="10.00">3</text>
</a>
</g>
</g>
<!-- dir_7806b0fde3785ddac884cca4d5b5770e&#45;&gt;dir_4fb6f97ed48024a05edbef9972528e43 -->
<g id="edge6" class="edge"><title>dir_7806b0fde3785ddac884cca4d5b5770e&#45;&gt;dir_4fb6f97ed48024a05edbef9972528e43</title>
<path fill="none" stroke="black" d="M164.669,-71.9703C171.118,-66.7636 178.298,-61.0744 185,-56 191.073,-51.4018 197.634,-46.6048 203.984,-42.0474"/>
<polygon fill="black" stroke="black" points="206.33,-44.674 212.445,-36.0226 202.269,-38.9718 206.33,-44.674"/>
<g id="a_edge6&#45;headlabel"><a xlink:href="dir_000008_000016.html" target="_top" xlink:title="1">
<text text-anchor="middle" x="205.048" y="-46.5718" font-family="Helvetica,sans-Serif" font-size="10.00">1</text>
</a>
</g>
</g>
<!-- dir_4d48d719cc9086cd3df915e9f0ddcc22 -->
<g id="node7" class="node"><title>dir_4d48d719cc9086cd3df915e9f0ddcc22</title>
<g id="a_node7"><a xlink:href="dir_4d48d719cc9086cd3df915e9f0ddcc22.html" target="_top" xlink:title="math">
<polygon fill="white" stroke="red" points="78,-180 24,-180 24,-144 78,-144 78,-180"/>
<text text-anchor="middle" x="51" y="-159.5" font-family="Helvetica,sans-Serif" font-size="10.00">math</text>
</a>
</g>
</g>
<!-- dir_4d48d719cc9086cd3df915e9f0ddcc22&#45;&gt;dir_7806b0fde3785ddac884cca4d5b5770e -->
<g id="edge5" class="edge"><title>dir_4d48d719cc9086cd3df915e9f0ddcc22&#45;&gt;dir_7806b0fde3785ddac884cca4d5b5770e</title>
<path fill="none" stroke="black" d="M73.9888,-143.697C85.8139,-134.796 100.392,-123.823 113.179,-114.199"/>
<polygon fill="black" stroke="black" points="115.391,-116.915 121.276,-108.104 111.181,-111.322 115.391,-116.915"/>
<g id="a_edge5&#45;headlabel"><a xlink:href="dir_000082_000008.html" target="_top" xlink:title="2">
<text text-anchor="middle" x="114.226" y="-118.845" font-family="Helvetica,sans-Serif" font-size="10.00">2</text>
</a>
</g>
</g>
</g>
</svg>
