<?xml version="1.0" encoding="UTF-8" standalone="no"?>
<!DOCTYPE svg PUBLIC "-//W3C//DTD SVG 1.1//EN"
 "http://www.w3.org/Graphics/SVG/1.1/DTD/svg11.dtd">
<!-- Generated by graphviz version 2.38.0 (20140413.2041)
 -->
<!-- Title: /bitrise/src/Source/AR6/include/AR6 Pages: 1 -->
<svg width="174pt" height="223pt"
 viewBox="0.00 0.00 174.00 223.00" xmlns="http://www.w3.org/2000/svg" xmlns:xlink="http://www.w3.org/1999/xlink">
<g id="graph0" class="graph" transform="scale(1 1) rotate(0) translate(4 219)">
<title>/bitrise/src/Source/AR6/include/AR6</title>
<polygon fill="white" stroke="none" points="-4,4 -4,-219 170,-219 170,4 -4,4"/>
<g id="clust1" class="cluster"><title>clusterdir_1c0c6c12fbbbc0c3e0be38ef9b646e2f</title>
<g id="a_clust1"><a xlink:href="dir_1c0c6c12fbbbc0c3e0be38ef9b646e2f.html" target="_top" xlink:title="include">
<polygon fill="#ddddee" stroke="black" points="49,-136 49,-207 119,-207 119,-136 49,-136"/>
<text text-anchor="middle" x="84" y="-195" font-family="Helvetica,sans-Serif" font-size="10.00">include</text>
</a>
</g>
</g>
<!-- dir_a9737bd80d383e952106dfcb4cbbe89f -->
<g id="node1" class="node"><title>dir_a9737bd80d383e952106dfcb4cbbe89f</title>
<g id="a_node1"><a xlink:href="dir_a9737bd80d383e952106dfcb4cbbe89f.html" target="_top" xlink:title="AR6">
<polygon fill="#eeeeff" stroke="black" points="111,-180 57,-180 57,-144 111,-144 111,-180"/>
<text text-anchor="middle" x="84" y="-159.5" font-family="Helvetica,sans-Serif" font-size="10.00">AR6</text>
</a>
</g>
</g>
<!-- dir_6fadf57a34395aff0f621f954f8f3ecb -->
<g id="node2" class="node"><title>dir_6fadf57a34395aff0f621f954f8f3ecb</title>
<g id="a_node2"><a xlink:href="dir_6fadf57a34395aff0f621f954f8f3ecb.html" target="_top" xlink:title="ARVideo">
<polygon fill="white" stroke="red" points="56,-108 0,-108 0,-72 56,-72 56,-108"/>
<text text-anchor="middle" x="28" y="-87.5" font-family="Helvetica,sans-Serif" font-size="10.00">ARVideo</text>
</a>
</g>
</g>
<!-- dir_a9737bd80d383e952106dfcb4cbbe89f&#45;&gt;dir_6fadf57a34395aff0f621f954f8f3ecb -->
<g id="edge2" class="edge"><title>dir_a9737bd80d383e952106dfcb4cbbe89f&#45;&gt;dir_6fadf57a34395aff0f621f954f8f3ecb</title>
<path fill="none" stroke="black" d="M70.1573,-143.697C63.5115,-135.389 55.4216,-125.277 48.1126,-116.141"/>
<polygon fill="black" stroke="black" points="50.6635,-113.727 41.6835,-108.104 45.1974,-118.099 50.6635,-113.727"/>
<g id="a_edge2&#45;headlabel"><a xlink:href="dir_000033_000022.html" target="_top" xlink:title="1">
<text text-anchor="middle" x="55.1261" y="-112.26" font-family="Helvetica,sans-Serif" font-size="10.00">1</text>
</a>
</g>
</g>
<!-- dir_a2e12691b3dd90a70b22ba812783bcf5 -->
<g id="node3" class="node"><title>dir_a2e12691b3dd90a70b22ba812783bcf5</title>
<g id="a_node3"><a xlink:href="dir_a2e12691b3dd90a70b22ba812783bcf5.html" target="_top" xlink:title="AR">
<polygon fill="white" stroke="red" points="111,-36 57,-36 57,-0 111,-0 111,-36"/>
<text text-anchor="middle" x="84" y="-15.5" font-family="Helvetica,sans-Serif" font-size="10.00">AR</text>
</a>
</g>
</g>
<!-- dir_a9737bd80d383e952106dfcb4cbbe89f&#45;&gt;dir_a2e12691b3dd90a70b22ba812783bcf5 -->
<g id="edge3" class="edge"><title>dir_a9737bd80d383e952106dfcb4cbbe89f&#45;&gt;dir_a2e12691b3dd90a70b22ba812783bcf5</title>
<path fill="none" stroke="black" d="M84,-143.871C84,-119.67 84,-75.2108 84,-46.3932"/>
<polygon fill="black" stroke="black" points="87.5001,-46.1892 84,-36.1893 80.5001,-46.1893 87.5001,-46.1892"/>
<g id="a_edge3&#45;headlabel"><a xlink:href="dir_000033_000002.html" target="_top" xlink:title="7">
<text text-anchor="middle" x="90.3393" y="-47.2839" font-family="Helvetica,sans-Serif" font-size="10.00">7</text>
</a>
</g>
</g>
<!-- dir_9deb94ffee0cdb21694cfdfca896debd -->
<g id="node4" class="node"><title>dir_9deb94ffee0cdb21694cfdfca896debd</title>
<g id="a_node4"><a xlink:href="dir_9deb94ffee0cdb21694cfdfca896debd.html" target="_top" xlink:title="ARG">
<polygon fill="white" stroke="red" points="166,-108 112,-108 112,-72 166,-72 166,-108"/>
<text text-anchor="middle" x="139" y="-87.5" font-family="Helvetica,sans-Serif" font-size="10.00">ARG</text>
</a>
</g>
</g>
<!-- dir_a9737bd80d383e952106dfcb4cbbe89f&#45;&gt;dir_9deb94ffee0cdb21694cfdfca896debd -->
<g id="edge4" class="edge"><title>dir_a9737bd80d383e952106dfcb4cbbe89f&#45;&gt;dir_9deb94ffee0cdb21694cfdfca896debd</title>
<path fill="none" stroke="black" d="M97.5955,-143.697C104.123,-135.389 112.068,-125.277 119.247,-116.141"/>
<polygon fill="black" stroke="black" points="122.135,-118.13 125.561,-108.104 116.631,-113.805 122.135,-118.13"/>
<g id="a_edge4&#45;headlabel"><a xlink:href="dir_000033_000012.html" target="_top" xlink:title="1">
<text text-anchor="middle" x="122.147" y="-120.211" font-family="Helvetica,sans-Serif" font-size="10.00">1</text>
</a>
</g>
</g>
<!-- dir_6fadf57a34395aff0f621f954f8f3ecb&#45;&gt;dir_a2e12691b3dd90a70b22ba812783bcf5 -->
<g id="edge1" class="edge"><title>dir_6fadf57a34395aff0f621f954f8f3ecb&#45;&gt;dir_a2e12691b3dd90a70b22ba812783bcf5</title>
<path fill="none" stroke="black" d="M41.8427,-71.6966C48.4885,-63.3893 56.5784,-53.2771 63.8874,-44.1407"/>
<polygon fill="black" stroke="black" points="66.8026,-46.0995 70.3165,-36.1043 61.3365,-41.7266 66.8026,-46.0995"/>
<g id="a_edge1&#45;headlabel"><a xlink:href="dir_000022_000002.html" target="_top" xlink:title="4">
<text text-anchor="middle" x="66.7742" y="-48.1801" font-family="Helvetica,sans-Serif" font-size="10.00">4</text>
</a>
</g>
</g>
<!-- dir_9deb94ffee0cdb21694cfdfca896debd&#45;&gt;dir_a2e12691b3dd90a70b22ba812783bcf5 -->
<g id="edge5" class="edge"><title>dir_9deb94ffee0cdb21694cfdfca896debd&#45;&gt;dir_a2e12691b3dd90a70b22ba812783bcf5</title>
<path fill="none" stroke="black" d="M125.404,-71.6966C118.877,-63.3893 110.932,-53.2771 103.753,-44.1407"/>
<polygon fill="black" stroke="black" points="106.369,-41.8051 97.4391,-36.1043 100.865,-46.1299 106.369,-41.8051"/>
<g id="a_edge5&#45;headlabel"><a xlink:href="dir_000012_000002.html" target="_top" xlink:title="2">
<text text-anchor="middle" x="110.823" y="-40.3775" font-family="Helvetica,sans-Serif" font-size="10.00">2</text>
</a>
</g>
</g>
</g>
</svg>
