<?xml version="1.0" encoding="UTF-8" standalone="no"?>
<!DOCTYPE svg PUBLIC "-//W3C//DTD SVG 1.1//EN"
 "http://www.w3.org/Graphics/SVG/1.1/DTD/svg11.dtd">
<!-- Generated by graphviz version 2.38.0 (20140413.2041)
 -->
<!-- Title: /bitrise/src/Source/AR6/InstantOn/include/AR6/InstantOn/cv/detectors Pages: 1 -->
<svg width="223pt" height="231pt"
 viewBox="0.00 0.00 223.00 231.00" xmlns="http://www.w3.org/2000/svg" xmlns:xlink="http://www.w3.org/1999/xlink">
<g id="graph0" class="graph" transform="scale(1 1) rotate(0) translate(4 227)">
<title>/bitrise/src/Source/AR6/InstantOn/include/AR6/InstantOn/cv/detectors</title>
<polygon fill="white" stroke="none" points="-4,4 -4,-227 219,-227 219,4 -4,4"/>
<g id="clust1" class="cluster"><title>clusterdir_381dcd0a23ef5fd32b5b30a41f2385e7</title>
<g id="a_clust1"><a xlink:href="dir_381dcd0a23ef5fd32b5b30a41f2385e7.html" target="_top" xlink:title="cv">
<polygon fill="#ddddee" stroke="black" points="8,-128 8,-215 170,-215 170,-128 8,-128"/>
<text text-anchor="middle" x="89" y="-203" font-family="Helvetica,sans-Serif" font-size="10.00">cv</text>
</a>
</g>
</g>
<g id="clust2" class="cluster"><title>clusterdir_d8d241a2b10fad2e84e117118e3c0f23</title>
<g id="a_clust2"><a xlink:href="dir_d8d241a2b10fad2e84e117118e3c0f23.html" target="_top">
<polygon fill="#eeeeff" stroke="black" points="16,-136 16,-188 162,-188 162,-136 16,-136"/>
</a>
</g>
</g>
<!-- dir_d8d241a2b10fad2e84e117118e3c0f23 -->
<g id="node1" class="node"><title>dir_d8d241a2b10fad2e84e117118e3c0f23</title>
<text text-anchor="middle" x="125" y="-159.5" font-family="Helvetica,sans-Serif" font-size="10.00">detectors</text>
</g>
<!-- dir_4fa1ce7ec3631360d33acf3b152ed7f9 -->
<g id="node3" class="node"><title>dir_4fa1ce7ec3631360d33acf3b152ed7f9</title>
<g id="a_node3"><a xlink:href="dir_4fa1ce7ec3631360d33acf3b152ed7f9.html" target="_top" xlink:title="utils">
<polygon fill="white" stroke="red" points="97,-108 43,-108 43,-72 97,-72 97,-108"/>
<text text-anchor="middle" x="70" y="-87.5" font-family="Helvetica,sans-Serif" font-size="10.00">utils</text>
</a>
</g>
</g>
<!-- dir_d8d241a2b10fad2e84e117118e3c0f23&#45;&gt;dir_4fa1ce7ec3631360d33acf3b152ed7f9 -->
<g id="edge1" class="edge"><title>dir_d8d241a2b10fad2e84e117118e3c0f23&#45;&gt;dir_4fa1ce7ec3631360d33acf3b152ed7f9</title>
<path fill="none" stroke="black" d="M111.404,-143.697C104.877,-135.389 96.932,-125.277 89.7534,-116.141"/>
<polygon fill="black" stroke="black" points="92.3695,-113.805 83.4391,-108.104 86.8653,-118.13 92.3695,-113.805"/>
<g id="a_edge1&#45;headlabel"><a xlink:href="dir_000053_000079.html" target="_top" xlink:title="1">
<text text-anchor="middle" x="96.8229" y="-112.377" font-family="Helvetica,sans-Serif" font-size="10.00">1</text>
</a>
</g>
</g>
<!-- dir_f3f1119a42314b82500ad0aec4bfc038 -->
<g id="node4" class="node"><title>dir_f3f1119a42314b82500ad0aec4bfc038</title>
<g id="a_node4"><a xlink:href="dir_f3f1119a42314b82500ad0aec4bfc038.html" target="_top" xlink:title="math">
<polygon fill="white" stroke="red" points="181,-36 127,-36 127,-0 181,-0 181,-36"/>
<text text-anchor="middle" x="154" y="-15.5" font-family="Helvetica,sans-Serif" font-size="10.00">math</text>
</a>
</g>
</g>
<!-- dir_d8d241a2b10fad2e84e117118e3c0f23&#45;&gt;dir_f3f1119a42314b82500ad0aec4bfc038 -->
<g id="edge2" class="edge"><title>dir_d8d241a2b10fad2e84e117118e3c0f23&#45;&gt;dir_f3f1119a42314b82500ad0aec4bfc038</title>
<path fill="none" stroke="black" d="M128.498,-143.871C133.462,-119.564 142.6,-74.8187 148.483,-46.0132"/>
<polygon fill="black" stroke="black" points="151.918,-46.6874 150.49,-36.1893 145.059,-45.2867 151.918,-46.6874"/>
<g id="a_edge2&#45;headlabel"><a xlink:href="dir_000053_000011.html" target="_top" xlink:title="2">
<text text-anchor="middle" x="153.98" y="-48.2774" font-family="Helvetica,sans-Serif" font-size="10.00">2</text>
</a>
</g>
</g>
<!-- dir_f34d78e61f21105323cad1a7ce8ced00 -->
<g id="node5" class="node"><title>dir_f34d78e61f21105323cad1a7ce8ced00</title>
<g id="a_node5"><a xlink:href="dir_f34d78e61f21105323cad1a7ce8ced00.html" target="_top" xlink:title="framework">
<polygon fill="white" stroke="red" points="215,-108 153,-108 153,-72 215,-72 215,-108"/>
<text text-anchor="middle" x="184" y="-87.5" font-family="Helvetica,sans-Serif" font-size="10.00">framework</text>
</a>
</g>
</g>
<!-- dir_d8d241a2b10fad2e84e117118e3c0f23&#45;&gt;dir_f34d78e61f21105323cad1a7ce8ced00 -->
<g id="edge3" class="edge"><title>dir_d8d241a2b10fad2e84e117118e3c0f23&#45;&gt;dir_f34d78e61f21105323cad1a7ce8ced00</title>
<path fill="none" stroke="black" d="M139.584,-143.697C146.658,-135.305 155.283,-125.07 163.045,-115.861"/>
<polygon fill="black" stroke="black" points="165.815,-118.006 169.583,-108.104 160.463,-113.495 165.815,-118.006"/>
<g id="a_edge3&#45;headlabel"><a xlink:href="dir_000053_000021.html" target="_top" xlink:title="2">
<text text-anchor="middle" x="165.669" y="-120.085" font-family="Helvetica,sans-Serif" font-size="10.00">2</text>
</a>
</g>
</g>
<!-- dir_dc22d9e6f0b56fbc9cad841b3be870b1 -->
<g id="node2" class="node"><title>dir_dc22d9e6f0b56fbc9cad841b3be870b1</title>
<g id="a_node2"><a xlink:href="dir_dc22d9e6f0b56fbc9cad841b3be870b1.html" target="_top" xlink:title="platform">
<polygon fill="white" stroke="red" points="78,-180 24,-180 24,-144 78,-144 78,-180"/>
<text text-anchor="middle" x="51" y="-159.5" font-family="Helvetica,sans-Serif" font-size="10.00">platform</text>
</a>
</g>
</g>
<!-- dir_f34d78e61f21105323cad1a7ce8ced00&#45;&gt;dir_f3f1119a42314b82500ad0aec4bfc038 -->
<g id="edge4" class="edge"><title>dir_f34d78e61f21105323cad1a7ce8ced00&#45;&gt;dir_f3f1119a42314b82500ad0aec4bfc038</title>
<path fill="none" stroke="black" d="M176.584,-71.6966C173.206,-63.8132 169.13,-54.3042 165.377,-45.5464"/>
<polygon fill="black" stroke="black" points="168.487,-43.9171 161.33,-36.1043 162.053,-46.6745 168.487,-43.9171"/>
<g id="a_edge4&#45;headlabel"><a xlink:href="dir_000021_000011.html" target="_top" xlink:title="2">
<text text-anchor="middle" x="172.512" y="-43.6026" font-family="Helvetica,sans-Serif" font-size="10.00">2</text>
</a>
</g>
</g>
</g>
</svg>
