<?xml version="1.0" encoding="UTF-8" standalone="no"?>
<!DOCTYPE svg PUBLIC "-//W3C//DTD SVG 1.1//EN"
 "http://www.w3.org/Graphics/SVG/1.1/DTD/svg11.dtd">
<!-- Generated by graphviz version 2.38.0 (20140413.2041)
 -->
<!-- Title: /bitrise/src/Source/AR6/InstantOn/include/AR6/InstantOn/utils Pages: 1 -->
<svg width="182pt" height="159pt"
 viewBox="0.00 0.00 182.00 159.00" xmlns="http://www.w3.org/2000/svg" xmlns:xlink="http://www.w3.org/1999/xlink">
<g id="graph0" class="graph" transform="scale(1 1) rotate(0) translate(4 155)">
<title>/bitrise/src/Source/AR6/InstantOn/include/AR6/InstantOn/utils</title>
<polygon fill="white" stroke="none" points="-4,4 -4,-155 178,-155 178,4 -4,4"/>
<g id="clust1" class="cluster"><title>clusterdir_4d2c8bb25d9723acf66bf2b8489a2ef3</title>
<g id="a_clust1"><a xlink:href="dir_4d2c8bb25d9723acf66bf2b8489a2ef3.html" target="_top" xlink:title="InstantOn">
<polygon fill="#ddddee" stroke="black" points="8,-56 8,-143 166,-143 166,-56 8,-56"/>
<text text-anchor="middle" x="87" y="-131" font-family="Helvetica,sans-Serif" font-size="10.00">InstantOn</text>
</a>
</g>
</g>
<g id="clust2" class="cluster"><title>clusterdir_4fa1ce7ec3631360d33acf3b152ed7f9</title>
<g id="a_clust2"><a xlink:href="dir_4fa1ce7ec3631360d33acf3b152ed7f9.html" target="_top">
<polygon fill="#eeeeff" stroke="black" points="16,-64 16,-116 158,-116 158,-64 16,-64"/>
</a>
</g>
</g>
<!-- dir_4fa1ce7ec3631360d33acf3b152ed7f9 -->
<g id="node1" class="node"><title>dir_4fa1ce7ec3631360d33acf3b152ed7f9</title>
<text text-anchor="middle" x="123" y="-87.5" font-family="Helvetica,sans-Serif" font-size="10.00">utils</text>
</g>
<!-- dir_67250149dabc18373255e18f45c29f4e -->
<g id="node2" class="node"><title>dir_67250149dabc18373255e18f45c29f4e</title>
<g id="a_node2"><a xlink:href="dir_67250149dabc18373255e18f45c29f4e.html" target="_top" xlink:title="platform">
<polygon fill="white" stroke="red" points="78,-108 24,-108 24,-72 78,-72 78,-108"/>
<text text-anchor="middle" x="51" y="-87.5" font-family="Helvetica,sans-Serif" font-size="10.00">platform</text>
</a>
</g>
</g>
<!-- dir_381dcd0a23ef5fd32b5b30a41f2385e7 -->
<g id="node3" class="node"><title>dir_381dcd0a23ef5fd32b5b30a41f2385e7</title>
<g id="a_node3"><a xlink:href="dir_381dcd0a23ef5fd32b5b30a41f2385e7.html" target="_top" xlink:title="cv">
<polygon fill="white" stroke="red" points="78,-36 24,-36 24,-0 78,-0 78,-36"/>
<text text-anchor="middle" x="51" y="-15.5" font-family="Helvetica,sans-Serif" font-size="10.00">cv</text>
</a>
</g>
</g>
<!-- dir_67250149dabc18373255e18f45c29f4e&#45;&gt;dir_381dcd0a23ef5fd32b5b30a41f2385e7 -->
<g id="edge1" class="edge"><title>dir_67250149dabc18373255e18f45c29f4e&#45;&gt;dir_381dcd0a23ef5fd32b5b30a41f2385e7</title>
<path fill="none" stroke="black" d="M51,-71.6966C51,-63.9827 51,-54.7125 51,-46.1124"/>
<polygon fill="black" stroke="black" points="54.5001,-46.1043 51,-36.1043 47.5001,-46.1044 54.5001,-46.1043"/>
<g id="a_edge1&#45;headlabel"><a xlink:href="dir_000080_000052.html" target="_top" xlink:title="1">
<text text-anchor="middle" x="57.3393" y="-47.199" font-family="Helvetica,sans-Serif" font-size="10.00">1</text>
</a>
</g>
</g>
</g>
</svg>
