<?xml version="1.0" encoding="UTF-8" standalone="no"?>
<!DOCTYPE svg PUBLIC "-//W3C//DTD SVG 1.1//EN"
 "http://www.w3.org/Graphics/SVG/1.1/DTD/svg11.dtd">
<!-- Generated by graphviz version 2.38.0 (20140413.2041)
 -->
<!-- Title: /bitrise/src/Source/AR6/AR Pages: 1 -->
<svg width="154pt" height="303pt"
 viewBox="0.00 0.00 154.00 303.00" xmlns="http://www.w3.org/2000/svg" xmlns:xlink="http://www.w3.org/1999/xlink">
<g id="graph0" class="graph" transform="scale(1 1) rotate(0) translate(4 299)">
<title>/bitrise/src/Source/AR6/AR</title>
<polygon fill="white" stroke="none" points="-4,4 -4,-299 150,-299 150,4 -4,4"/>
<g id="clust1" class="cluster"><title>clusterdir_0eb6ab2946e867338a07984a6e8fed62</title>
<g id="a_clust1"><a xlink:href="dir_0eb6ab2946e867338a07984a6e8fed62.html" target="_top" xlink:title="AR6">
<polygon fill="#ddddee" stroke="black" points="8,-56 8,-287 138,-287 138,-56 8,-56"/>
<text text-anchor="middle" x="73" y="-275" font-family="Helvetica,sans-Serif" font-size="10.00">AR6</text>
</a>
</g>
</g>
<g id="clust2" class="cluster"><title>clusterdir_a2e12691b3dd90a70b22ba812783bcf5</title>
<g id="a_clust2"><a xlink:href="dir_a2e12691b3dd90a70b22ba812783bcf5.html" target="_top">
<polygon fill="#eeeeff" stroke="black" points="16,-64 16,-260 130,-260 130,-64 16,-64"/>
</a>
</g>
</g>
<!-- dir_a2e12691b3dd90a70b22ba812783bcf5 -->
<g id="node1" class="node"><title>dir_a2e12691b3dd90a70b22ba812783bcf5</title>
<text text-anchor="middle" x="79" y="-231.5" font-family="Helvetica,sans-Serif" font-size="10.00">AR</text>
</g>
<!-- dir_a07c681a3787488b12b9262633a2432b -->
<g id="node2" class="node"><title>dir_a07c681a3787488b12b9262633a2432b</title>
<g id="a_node2"><a xlink:href="dir_a07c681a3787488b12b9262633a2432b.html" target="_top" xlink:title="arLabelingSub">
<polygon fill="white" stroke="black" points="102,-180 24,-180 24,-144 102,-144 102,-180"/>
<text text-anchor="middle" x="63" y="-159.5" font-family="Helvetica,sans-Serif" font-size="10.00">arLabelingSub</text>
</a>
</g>
</g>
<!-- dir_a2e12691b3dd90a70b22ba812783bcf5&#45;&gt;dir_a07c681a3787488b12b9262633a2432b -->
<g id="edge3" class="edge"><title>dir_a2e12691b3dd90a70b22ba812783bcf5&#45;&gt;dir_a07c681a3787488b12b9262633a2432b</title>
<path fill="none" stroke="black" d="M75.0449,-215.697C73.2818,-207.983 71.1628,-198.712 69.1971,-190.112"/>
<polygon fill="black" stroke="black" points="72.5499,-189.073 66.9096,-180.104 65.7259,-190.633 72.5499,-189.073"/>
<g id="a_edge3&#45;headlabel"><a xlink:href="dir_000002_000003.html" target="_top" xlink:title="1">
<text text-anchor="middle" x="76.1187" y="-189.445" font-family="Helvetica,sans-Serif" font-size="10.00">1</text>
</a>
</g>
</g>
<!-- dir_2957b74a9b5f1e0efcda864767cd55fd -->
<g id="node3" class="node"><title>dir_2957b74a9b5f1e0efcda864767cd55fd</title>
<g id="a_node3"><a xlink:href="dir_2957b74a9b5f1e0efcda864767cd55fd.html" target="_top" xlink:title="include">
<polygon fill="white" stroke="red" points="106,-108 52,-108 52,-72 106,-72 106,-108"/>
<text text-anchor="middle" x="79" y="-87.5" font-family="Helvetica,sans-Serif" font-size="10.00">include</text>
</a>
</g>
</g>
<!-- dir_a2e12691b3dd90a70b22ba812783bcf5&#45;&gt;dir_2957b74a9b5f1e0efcda864767cd55fd -->
<g id="edge4" class="edge"><title>dir_a2e12691b3dd90a70b22ba812783bcf5&#45;&gt;dir_2957b74a9b5f1e0efcda864767cd55fd</title>
<path fill="none" stroke="black" d="M92.5643,-215.972C99.5581,-206.09 107.367,-193.047 111,-180 115.292,-164.586 115.292,-159.414 111,-144 108.332,-134.419 103.412,-124.84 98.2164,-116.513"/>
<polygon fill="black" stroke="black" points="101.021,-114.41 92.5643,-108.028 95.1954,-118.291 101.021,-114.41"/>
<g id="a_edge4&#45;headlabel"><a xlink:href="dir_000002_000004.html" target="_top" xlink:title="83">
<text text-anchor="middle" x="105.377" y="-113.328" font-family="Helvetica,sans-Serif" font-size="10.00">83</text>
</a>
</g>
</g>
<!-- dir_a07c681a3787488b12b9262633a2432b&#45;&gt;dir_2957b74a9b5f1e0efcda864767cd55fd -->
<g id="edge1" class="edge"><title>dir_a07c681a3787488b12b9262633a2432b&#45;&gt;dir_2957b74a9b5f1e0efcda864767cd55fd</title>
<path fill="none" stroke="black" d="M66.9551,-143.697C68.7182,-135.983 70.8372,-126.712 72.8029,-118.112"/>
<polygon fill="black" stroke="black" points="76.2741,-118.633 75.0904,-108.104 69.4501,-117.073 76.2741,-118.633"/>
<g id="a_edge1&#45;headlabel"><a xlink:href="dir_000003_000004.html" target="_top" xlink:title="1">
<text text-anchor="middle" x="78.2411" y="-120.27" font-family="Helvetica,sans-Serif" font-size="10.00">1</text>
</a>
</g>
</g>
<!-- dir_4fb6f97ed48024a05edbef9972528e43 -->
<g id="node4" class="node"><title>dir_4fb6f97ed48024a05edbef9972528e43</title>
<g id="a_node4"><a xlink:href="dir_4fb6f97ed48024a05edbef9972528e43.html" target="_top" xlink:title="ARUtil">
<polygon fill="white" stroke="red" points="106,-36 52,-36 52,-0 106,-0 106,-36"/>
<text text-anchor="middle" x="79" y="-15.5" font-family="Helvetica,sans-Serif" font-size="10.00">ARUtil</text>
</a>
</g>
</g>
<!-- dir_2957b74a9b5f1e0efcda864767cd55fd&#45;&gt;dir_4fb6f97ed48024a05edbef9972528e43 -->
<g id="edge2" class="edge"><title>dir_2957b74a9b5f1e0efcda864767cd55fd&#45;&gt;dir_4fb6f97ed48024a05edbef9972528e43</title>
<path fill="none" stroke="black" d="M79,-71.6966C79,-63.9827 79,-54.7125 79,-46.1124"/>
<polygon fill="black" stroke="black" points="82.5001,-46.1043 79,-36.1043 75.5001,-46.1044 82.5001,-46.1043"/>
<g id="a_edge2&#45;headlabel"><a xlink:href="dir_000004_000016.html" target="_top" xlink:title="1">
<text text-anchor="middle" x="85.3393" y="-47.199" font-family="Helvetica,sans-Serif" font-size="10.00">1</text>
</a>
</g>
</g>
</g>
</svg>
