<?xml version="1.0" encoding="UTF-8" standalone="no"?>
<!DOCTYPE svg PUBLIC "-//W3C//DTD SVG 1.1//EN"
 "http://www.w3.org/Graphics/SVG/1.1/DTD/svg11.dtd">
<!-- Generated by graphviz version 2.38.0 (20140413.2041)
 -->
<!-- Title: /bitrise/src/Source/AR6/ARG Pages: 1 -->
<svg width="110pt" height="231pt"
 viewBox="0.00 0.00 110.00 231.00" xmlns="http://www.w3.org/2000/svg" xmlns:xlink="http://www.w3.org/1999/xlink">
<g id="graph0" class="graph" transform="scale(1 1) rotate(0) translate(4 227)">
<title>/bitrise/src/Source/AR6/ARG</title>
<polygon fill="white" stroke="none" points="-4,4 -4,-227 106,-227 106,4 -4,4"/>
<g id="clust1" class="cluster"><title>clusterdir_0eb6ab2946e867338a07984a6e8fed62</title>
<g id="a_clust1"><a xlink:href="dir_0eb6ab2946e867338a07984a6e8fed62.html" target="_top" xlink:title="AR6">
<polygon fill="#ddddee" stroke="black" points="8,-56 8,-215 94,-215 94,-56 8,-56"/>
<text text-anchor="middle" x="51" y="-203" font-family="Helvetica,sans-Serif" font-size="10.00">AR6</text>
</a>
</g>
</g>
<g id="clust2" class="cluster"><title>clusterdir_9deb94ffee0cdb21694cfdfca896debd</title>
<g id="a_clust2"><a xlink:href="dir_9deb94ffee0cdb21694cfdfca896debd.html" target="_top">
<polygon fill="#eeeeff" stroke="black" points="16,-64 16,-188 86,-188 86,-64 16,-64"/>
</a>
</g>
</g>
<!-- dir_9deb94ffee0cdb21694cfdfca896debd -->
<g id="node1" class="node"><title>dir_9deb94ffee0cdb21694cfdfca896debd</title>
<text text-anchor="middle" x="51" y="-159.5" font-family="Helvetica,sans-Serif" font-size="10.00">ARG</text>
</g>
<!-- dir_785e6db6b36a54aaa5ae1055b7707c8e -->
<g id="node2" class="node"><title>dir_785e6db6b36a54aaa5ae1055b7707c8e</title>
<g id="a_node2"><a xlink:href="dir_785e6db6b36a54aaa5ae1055b7707c8e.html" target="_top" xlink:title="include">
<polygon fill="white" stroke="red" points="78,-108 24,-108 24,-72 78,-72 78,-108"/>
<text text-anchor="middle" x="51" y="-87.5" font-family="Helvetica,sans-Serif" font-size="10.00">include</text>
</a>
</g>
</g>
<!-- dir_9deb94ffee0cdb21694cfdfca896debd&#45;&gt;dir_785e6db6b36a54aaa5ae1055b7707c8e -->
<g id="edge2" class="edge"><title>dir_9deb94ffee0cdb21694cfdfca896debd&#45;&gt;dir_785e6db6b36a54aaa5ae1055b7707c8e</title>
<path fill="none" stroke="black" d="M51,-143.697C51,-135.983 51,-126.712 51,-118.112"/>
<polygon fill="black" stroke="black" points="54.5001,-118.104 51,-108.104 47.5001,-118.104 54.5001,-118.104"/>
<g id="a_edge2&#45;headlabel"><a xlink:href="dir_000012_000013.html" target="_top" xlink:title="5">
<text text-anchor="middle" x="57.3393" y="-119.199" font-family="Helvetica,sans-Serif" font-size="10.00">5</text>
</a>
</g>
</g>
<!-- dir_a2e12691b3dd90a70b22ba812783bcf5 -->
<g id="node3" class="node"><title>dir_a2e12691b3dd90a70b22ba812783bcf5</title>
<g id="a_node3"><a xlink:href="dir_a2e12691b3dd90a70b22ba812783bcf5.html" target="_top" xlink:title="AR">
<polygon fill="white" stroke="red" points="78,-36 24,-36 24,-0 78,-0 78,-36"/>
<text text-anchor="middle" x="51" y="-15.5" font-family="Helvetica,sans-Serif" font-size="10.00">AR</text>
</a>
</g>
</g>
<!-- dir_785e6db6b36a54aaa5ae1055b7707c8e&#45;&gt;dir_a2e12691b3dd90a70b22ba812783bcf5 -->
<g id="edge1" class="edge"><title>dir_785e6db6b36a54aaa5ae1055b7707c8e&#45;&gt;dir_a2e12691b3dd90a70b22ba812783bcf5</title>
<path fill="none" stroke="black" d="M51,-71.6966C51,-63.9827 51,-54.7125 51,-46.1124"/>
<polygon fill="black" stroke="black" points="54.5001,-46.1043 51,-36.1043 47.5001,-46.1044 54.5001,-46.1043"/>
<g id="a_edge1&#45;headlabel"><a xlink:href="dir_000013_000002.html" target="_top" xlink:title="2">
<text text-anchor="middle" x="57.3393" y="-47.199" font-family="Helvetica,sans-Serif" font-size="10.00">2</text>
</a>
</g>
</g>
</g>
</svg>
