<?xml version="1.0" encoding="UTF-8" standalone="no"?>
<!DOCTYPE svg PUBLIC "-//W3C//DTD SVG 1.1//EN"
 "http://www.w3.org/Graphics/SVG/1.1/DTD/svg11.dtd">
<!-- Generated by graphviz version 2.38.0 (20140413.2041)
 -->
<!-- Title: /bitrise/src/Source/AR6/InstantOn/include/AR6/InstantOn/framework Pages: 1 -->
<svg width="198pt" height="159pt"
 viewBox="0.00 0.00 198.00 159.00" xmlns="http://www.w3.org/2000/svg" xmlns:xlink="http://www.w3.org/1999/xlink">
<g id="graph0" class="graph" transform="scale(1 1) rotate(0) translate(4 155)">
<title>/bitrise/src/Source/AR6/InstantOn/include/AR6/InstantOn/framework</title>
<polygon fill="white" stroke="none" points="-4,4 -4,-155 194,-155 194,4 -4,4"/>
<g id="clust1" class="cluster"><title>clusterdir_4d2c8bb25d9723acf66bf2b8489a2ef3</title>
<g id="a_clust1"><a xlink:href="dir_4d2c8bb25d9723acf66bf2b8489a2ef3.html" target="_top" xlink:title="InstantOn">
<polygon fill="#ddddee" stroke="black" points="8,-56 8,-143 174,-143 174,-56 8,-56"/>
<text text-anchor="middle" x="91" y="-131" font-family="Helvetica,sans-Serif" font-size="10.00">InstantOn</text>
</a>
</g>
</g>
<g id="clust2" class="cluster"><title>clusterdir_f34d78e61f21105323cad1a7ce8ced00</title>
<g id="a_clust2"><a xlink:href="dir_f34d78e61f21105323cad1a7ce8ced00.html" target="_top">
<polygon fill="#eeeeff" stroke="black" points="16,-64 16,-116 166,-116 166,-64 16,-64"/>
</a>
</g>
</g>
<!-- dir_f34d78e61f21105323cad1a7ce8ced00 -->
<g id="node1" class="node"><title>dir_f34d78e61f21105323cad1a7ce8ced00</title>
<text text-anchor="middle" x="127" y="-87.5" font-family="Helvetica,sans-Serif" font-size="10.00">framework</text>
</g>
<!-- dir_f3f1119a42314b82500ad0aec4bfc038 -->
<g id="node3" class="node"><title>dir_f3f1119a42314b82500ad0aec4bfc038</title>
<g id="a_node3"><a xlink:href="dir_f3f1119a42314b82500ad0aec4bfc038.html" target="_top" xlink:title="math">
<polygon fill="white" stroke="red" points="118,-36 64,-36 64,-0 118,-0 118,-36"/>
<text text-anchor="middle" x="91" y="-15.5" font-family="Helvetica,sans-Serif" font-size="10.00">math</text>
</a>
</g>
</g>
<!-- dir_f34d78e61f21105323cad1a7ce8ced00&#45;&gt;dir_f3f1119a42314b82500ad0aec4bfc038 -->
<g id="edge1" class="edge"><title>dir_f34d78e61f21105323cad1a7ce8ced00&#45;&gt;dir_f3f1119a42314b82500ad0aec4bfc038</title>
<path fill="none" stroke="black" d="M118.101,-71.6966C114.003,-63.7284 109.051,-54.0995 104.507,-45.2641"/>
<polygon fill="black" stroke="black" points="107.483,-43.3965 99.7965,-36.1043 101.258,-46.598 107.483,-43.3965"/>
<g id="a_edge1&#45;headlabel"><a xlink:href="dir_000021_000011.html" target="_top" xlink:title="2">
<text text-anchor="middle" x="111.651" y="-42.7946" font-family="Helvetica,sans-Serif" font-size="10.00">2</text>
</a>
</g>
</g>
<!-- dir_4fb6f97ed48024a05edbef9972528e43 -->
<g id="node4" class="node"><title>dir_4fb6f97ed48024a05edbef9972528e43</title>
<g id="a_node4"><a xlink:href="dir_4fb6f97ed48024a05edbef9972528e43.html" target="_top" xlink:title="ARUtil">
<polygon fill="white" stroke="red" points="190,-36 136,-36 136,-0 190,-0 190,-36"/>
<text text-anchor="middle" x="163" y="-15.5" font-family="Helvetica,sans-Serif" font-size="10.00">ARUtil</text>
</a>
</g>
</g>
<!-- dir_f34d78e61f21105323cad1a7ce8ced00&#45;&gt;dir_4fb6f97ed48024a05edbef9972528e43 -->
<g id="edge2" class="edge"><title>dir_f34d78e61f21105323cad1a7ce8ced00&#45;&gt;dir_4fb6f97ed48024a05edbef9972528e43</title>
<path fill="none" stroke="black" d="M135.899,-71.6966C139.997,-63.7284 144.949,-54.0995 149.493,-45.2641"/>
<polygon fill="black" stroke="black" points="152.742,-46.598 154.203,-36.1043 146.517,-43.3965 152.742,-46.598"/>
<g id="a_edge2&#45;headlabel"><a xlink:href="dir_000021_000016.html" target="_top" xlink:title="1">
<text text-anchor="middle" x="153.623" y="-48.5931" font-family="Helvetica,sans-Serif" font-size="10.00">1</text>
</a>
</g>
</g>
<!-- dir_bdd9855286c960b6f1b4551b643e849d -->
<g id="node2" class="node"><title>dir_bdd9855286c960b6f1b4551b643e849d</title>
<g id="a_node2"><a xlink:href="dir_bdd9855286c960b6f1b4551b643e849d.html" target="_top" xlink:title="platform">
<polygon fill="white" stroke="red" points="78,-108 24,-108 24,-72 78,-72 78,-108"/>
<text text-anchor="middle" x="51" y="-87.5" font-family="Helvetica,sans-Serif" font-size="10.00">platform</text>
</a>
</g>
</g>
</g>
</svg>
