<?xml version="1.0" encoding="UTF-8" standalone="no"?>
<!DOCTYPE svg PUBLIC "-//W3C//DTD SVG 1.1//EN"
 "http://www.w3.org/Graphics/SVG/1.1/DTD/svg11.dtd">
<!-- Generated by graphviz version 2.38.0 (20140413.2041)
 -->
<!-- Title: /bitrise/src/Source/AR6/InstantOn/include/AR6 Pages: 1 -->
<svg width="188pt" height="159pt"
 viewBox="0.00 0.00 188.00 159.00" xmlns="http://www.w3.org/2000/svg" xmlns:xlink="http://www.w3.org/1999/xlink">
<g id="graph0" class="graph" transform="scale(1 1) rotate(0) translate(4 155)">
<title>/bitrise/src/Source/AR6/InstantOn/include/AR6</title>
<polygon fill="white" stroke="none" points="-4,4 -4,-155 184,-155 184,4 -4,4"/>
<g id="clust1" class="cluster"><title>clusterdir_7806b0fde3785ddac884cca4d5b5770e</title>
<g id="a_clust1"><a xlink:href="dir_7806b0fde3785ddac884cca4d5b5770e.html" target="_top" xlink:title="include">
<polygon fill="#ddddee" stroke="black" points="8,-56 8,-143 172,-143 172,-56 8,-56"/>
<text text-anchor="middle" x="90" y="-131" font-family="Helvetica,sans-Serif" font-size="10.00">include</text>
</a>
</g>
</g>
<g id="clust2" class="cluster"><title>clusterdir_6094ed17739b98946461944b6a301d7b</title>
<g id="a_clust2"><a xlink:href="dir_6094ed17739b98946461944b6a301d7b.html" target="_top">
<polygon fill="#eeeeff" stroke="black" points="16,-64 16,-116 164,-116 164,-64 16,-64"/>
</a>
</g>
</g>
<!-- dir_6094ed17739b98946461944b6a301d7b -->
<g id="node1" class="node"><title>dir_6094ed17739b98946461944b6a301d7b</title>
<text text-anchor="middle" x="129" y="-87.5" font-family="Helvetica,sans-Serif" font-size="10.00">AR6</text>
</g>
<!-- dir_4d2c8bb25d9723acf66bf2b8489a2ef3 -->
<g id="node2" class="node"><title>dir_4d2c8bb25d9723acf66bf2b8489a2ef3</title>
<g id="a_node2"><a xlink:href="dir_4d2c8bb25d9723acf66bf2b8489a2ef3.html" target="_top" xlink:title="InstantOn">
<polygon fill="white" stroke="red" points="83.5,-108 24.5,-108 24.5,-72 83.5,-72 83.5,-108"/>
<text text-anchor="middle" x="54" y="-87.5" font-family="Helvetica,sans-Serif" font-size="10.00">InstantOn</text>
</a>
</g>
</g>
<!-- dir_4fb6f97ed48024a05edbef9972528e43 -->
<g id="node3" class="node"><title>dir_4fb6f97ed48024a05edbef9972528e43</title>
<g id="a_node3"><a xlink:href="dir_4fb6f97ed48024a05edbef9972528e43.html" target="_top" xlink:title="ARUtil">
<polygon fill="white" stroke="red" points="81,-36 27,-36 27,-0 81,-0 81,-36"/>
<text text-anchor="middle" x="54" y="-15.5" font-family="Helvetica,sans-Serif" font-size="10.00">ARUtil</text>
</a>
</g>
</g>
<!-- dir_4d2c8bb25d9723acf66bf2b8489a2ef3&#45;&gt;dir_4fb6f97ed48024a05edbef9972528e43 -->
<g id="edge1" class="edge"><title>dir_4d2c8bb25d9723acf66bf2b8489a2ef3&#45;&gt;dir_4fb6f97ed48024a05edbef9972528e43</title>
<path fill="none" stroke="black" d="M54,-71.6966C54,-63.9827 54,-54.7125 54,-46.1124"/>
<polygon fill="black" stroke="black" points="57.5001,-46.1043 54,-36.1043 50.5001,-46.1044 57.5001,-46.1043"/>
<g id="a_edge1&#45;headlabel"><a xlink:href="dir_000010_000016.html" target="_top" xlink:title="1">
<text text-anchor="middle" x="60.3393" y="-47.199" font-family="Helvetica,sans-Serif" font-size="10.00">1</text>
</a>
</g>
</g>
</g>
</svg>
