<?xml version="1.0" encoding="UTF-8" standalone="no"?>
<!DOCTYPE svg PUBLIC "-//W3C//DTD SVG 1.1//EN"
 "http://www.w3.org/Graphics/SVG/1.1/DTD/svg11.dtd">
<!-- Generated by graphviz version 2.38.0 (20140413.2041)
 -->
<!-- Title: /bitrise/src/Source/AR6/InstantOn/include/AR6/InstantOn/external/platform Pages: 1 -->
<svg width="254pt" height="231pt"
 viewBox="0.00 0.00 254.00 231.00" xmlns="http://www.w3.org/2000/svg" xmlns:xlink="http://www.w3.org/1999/xlink">
<g id="graph0" class="graph" transform="scale(1 1) rotate(0) translate(4 227)">
<title>/bitrise/src/Source/AR6/InstantOn/include/AR6/InstantOn/external/platform</title>
<polygon fill="white" stroke="none" points="-4,4 -4,-227 250,-227 250,4 -4,4"/>
<g id="clust1" class="cluster"><title>clusterdir_4944c04d38a64921654e7aa5c3c86fdc</title>
<g id="a_clust1"><a xlink:href="dir_4944c04d38a64921654e7aa5c3c86fdc.html" target="_top" xlink:title="external">
<polygon fill="#ddddee" stroke="black" points="8,-128 8,-215 238,-215 238,-128 8,-128"/>
<text text-anchor="middle" x="123" y="-203" font-family="Helvetica,sans-Serif" font-size="10.00">external</text>
</a>
</g>
</g>
<g id="clust2" class="cluster"><title>clusterdir_0b56166d642c2801297de3fe3bb2938f</title>
<g id="a_clust2"><a xlink:href="dir_0b56166d642c2801297de3fe3bb2938f.html" target="_top">
<polygon fill="#eeeeff" stroke="black" points="16,-136 16,-188 230,-188 230,-136 16,-136"/>
</a>
</g>
</g>
<!-- dir_0b56166d642c2801297de3fe3bb2938f -->
<g id="node1" class="node"><title>dir_0b56166d642c2801297de3fe3bb2938f</title>
<text text-anchor="middle" x="195" y="-159.5" font-family="Helvetica,sans-Serif" font-size="10.00">platform</text>
</g>
<!-- dir_46ff31f101c57874fa688fc77ac86752 -->
<g id="node2" class="node"><title>dir_46ff31f101c57874fa688fc77ac86752</title>
<g id="a_node2"><a xlink:href="dir_46ff31f101c57874fa688fc77ac86752.html" target="_top" xlink:title="android">
<polygon fill="white" stroke="red" points="78,-180 24,-180 24,-144 78,-144 78,-180"/>
<text text-anchor="middle" x="51" y="-159.5" font-family="Helvetica,sans-Serif" font-size="10.00">android</text>
</a>
</g>
</g>
<!-- dir_377b64fd835d330ed41ed3d471c31e15 -->
<g id="node4" class="node"><title>dir_377b64fd835d330ed41ed3d471c31e15</title>
<g id="a_node4"><a xlink:href="dir_377b64fd835d330ed41ed3d471c31e15.html" target="_top" xlink:title="extensions">
<polygon fill="none" stroke="black" points="95,-108 31,-108 31,-72 95,-72 95,-108"/>
<text text-anchor="middle" x="63" y="-87.5" font-family="Helvetica,sans-Serif" font-size="10.00">extensions</text>
</a>
</g>
</g>
<!-- dir_46ff31f101c57874fa688fc77ac86752&#45;&gt;dir_377b64fd835d330ed41ed3d471c31e15 -->
<g id="edge1" class="edge"><title>dir_46ff31f101c57874fa688fc77ac86752&#45;&gt;dir_377b64fd835d330ed41ed3d471c31e15</title>
<path fill="none" stroke="black" d="M53.9663,-143.697C55.2887,-135.983 56.8779,-126.712 58.3522,-118.112"/>
<polygon fill="black" stroke="black" points="61.8278,-118.552 60.0678,-108.104 54.9284,-117.369 61.8278,-118.552"/>
<g id="a_edge1&#45;headlabel"><a xlink:href="dir_000069_000066.html" target="_top" xlink:title="1">
<text text-anchor="middle" x="64.019" y="-120.075" font-family="Helvetica,sans-Serif" font-size="10.00">1</text>
</a>
</g>
</g>
<!-- dir_6d11b3396358fc54b81ceed4df2eb6df -->
<g id="node3" class="node"><title>dir_6d11b3396358fc54b81ceed4df2eb6df</title>
<g id="a_node3"><a xlink:href="dir_6d11b3396358fc54b81ceed4df2eb6df.html" target="_top" xlink:title="iOS">
<polygon fill="white" stroke="red" points="150,-180 96,-180 96,-144 150,-144 150,-180"/>
<text text-anchor="middle" x="123" y="-159.5" font-family="Helvetica,sans-Serif" font-size="10.00">iOS</text>
</a>
</g>
</g>
<!-- dir_6d11b3396358fc54b81ceed4df2eb6df&#45;&gt;dir_377b64fd835d330ed41ed3d471c31e15 -->
<g id="edge3" class="edge"><title>dir_6d11b3396358fc54b81ceed4df2eb6df&#45;&gt;dir_377b64fd835d330ed41ed3d471c31e15</title>
<path fill="none" stroke="black" d="M108.169,-143.697C100.975,-135.305 92.2033,-125.07 84.3097,-115.861"/>
<polygon fill="black" stroke="black" points="86.8262,-113.419 77.6609,-108.104 81.5114,-117.975 86.8262,-113.419"/>
<g id="a_edge3&#45;headlabel"><a xlink:href="dir_000071_000066.html" target="_top" xlink:title="1">
<text text-anchor="middle" x="91.3213" y="-111.801" font-family="Helvetica,sans-Serif" font-size="10.00">1</text>
</a>
</g>
</g>
<!-- dir_f34d78e61f21105323cad1a7ce8ced00 -->
<g id="node5" class="node"><title>dir_f34d78e61f21105323cad1a7ce8ced00</title>
<g id="a_node5"><a xlink:href="dir_f34d78e61f21105323cad1a7ce8ced00.html" target="_top" xlink:title="framework">
<polygon fill="white" stroke="red" points="124,-36 62,-36 62,-0 124,-0 124,-36"/>
<text text-anchor="middle" x="93" y="-15.5" font-family="Helvetica,sans-Serif" font-size="10.00">framework</text>
</a>
</g>
</g>
<!-- dir_6d11b3396358fc54b81ceed4df2eb6df&#45;&gt;dir_f34d78e61f21105323cad1a7ce8ced00 -->
<g id="edge4" class="edge"><title>dir_6d11b3396358fc54b81ceed4df2eb6df&#45;&gt;dir_f34d78e61f21105323cad1a7ce8ced00</title>
<path fill="none" stroke="black" d="M119.381,-143.871C114.246,-119.564 104.793,-74.8187 98.707,-46.0132"/>
<polygon fill="black" stroke="black" points="102.123,-45.2498 96.6315,-36.1893 95.2743,-46.6968 102.123,-45.2498"/>
<g id="a_edge4&#45;headlabel"><a xlink:href="dir_000071_000021.html" target="_top" xlink:title="1">
<text text-anchor="middle" x="105.644" y="-45.6799" font-family="Helvetica,sans-Serif" font-size="10.00">1</text>
</a>
</g>
</g>
<!-- dir_377b64fd835d330ed41ed3d471c31e15&#45;&gt;dir_f34d78e61f21105323cad1a7ce8ced00 -->
<g id="edge2" class="edge"><title>dir_377b64fd835d330ed41ed3d471c31e15&#45;&gt;dir_f34d78e61f21105323cad1a7ce8ced00</title>
<path fill="none" stroke="black" d="M70.4157,-71.6966C73.7944,-63.8132 77.8696,-54.3042 81.623,-45.5464"/>
<polygon fill="black" stroke="black" points="84.9473,-46.6745 85.6696,-36.1043 78.5133,-43.9171 84.9473,-46.6745"/>
<g id="a_edge2&#45;headlabel"><a xlink:href="dir_000066_000021.html" target="_top" xlink:title="13">
<text text-anchor="middle" x="86.1411" y="-48.5969" font-family="Helvetica,sans-Serif" font-size="10.00">13</text>
</a>
</g>
</g>
</g>
</svg>
