<?xml version="1.0" encoding="UTF-8" standalone="no"?>
<!DOCTYPE svg PUBLIC "-//W3C//DTD SVG 1.1//EN"
 "http://www.w3.org/Graphics/SVG/1.1/DTD/svg11.dtd">
<!-- Generated by graphviz version 2.38.0 (20140413.2041)
 -->
<!-- Title: /bitrise/src/Source/AR6/InstantOn/include/AR6/InstantOn/external/platform/iOS Pages: 1 -->
<svg width="254pt" height="231pt"
 viewBox="0.00 0.00 254.00 231.00" xmlns="http://www.w3.org/2000/svg" xmlns:xlink="http://www.w3.org/1999/xlink">
<g id="graph0" class="graph" transform="scale(1 1) rotate(0) translate(4 227)">
<title>/bitrise/src/Source/AR6/InstantOn/include/AR6/InstantOn/external/platform/iOS</title>
<polygon fill="white" stroke="none" points="-4,4 -4,-227 250,-227 250,4 -4,4"/>
<g id="clust1" class="cluster"><title>clusterdir_0b56166d642c2801297de3fe3bb2938f</title>
<g id="a_clust1"><a xlink:href="dir_0b56166d642c2801297de3fe3bb2938f.html" target="_top" xlink:title="platform">
<polygon fill="#ddddee" stroke="black" points="8,-128 8,-215 238,-215 238,-128 8,-128"/>
<text text-anchor="middle" x="123" y="-203" font-family="Helvetica,sans-Serif" font-size="10.00">platform</text>
</a>
</g>
</g>
<g id="clust2" class="cluster"><title>clusterdir_6d11b3396358fc54b81ceed4df2eb6df</title>
<g id="a_clust2"><a xlink:href="dir_6d11b3396358fc54b81ceed4df2eb6df.html" target="_top">
<polygon fill="#eeeeff" stroke="black" points="16,-136 16,-188 230,-188 230,-136 16,-136"/>
</a>
</g>
</g>
<!-- dir_6d11b3396358fc54b81ceed4df2eb6df -->
<g id="node1" class="node"><title>dir_6d11b3396358fc54b81ceed4df2eb6df</title>
<text text-anchor="middle" x="195" y="-159.5" font-family="Helvetica,sans-Serif" font-size="10.00">iOS</text>
</g>
<!-- dir_4450bfc55e51620de024dc0b1394c7ca -->
<g id="node2" class="node"><title>dir_4450bfc55e51620de024dc0b1394c7ca</title>
<g id="a_node2"><a xlink:href="dir_4450bfc55e51620de024dc0b1394c7ca.html" target="_top" xlink:title="device">
<polygon fill="white" stroke="black" points="150,-180 96,-180 96,-144 150,-144 150,-180"/>
<text text-anchor="middle" x="123" y="-159.5" font-family="Helvetica,sans-Serif" font-size="10.00">device</text>
</a>
</g>
</g>
<!-- dir_377b64fd835d330ed41ed3d471c31e15 -->
<g id="node4" class="node"><title>dir_377b64fd835d330ed41ed3d471c31e15</title>
<g id="a_node4"><a xlink:href="dir_377b64fd835d330ed41ed3d471c31e15.html" target="_top" xlink:title="extensions">
<polygon fill="none" stroke="black" points="125,-108 61,-108 61,-72 125,-72 125,-108"/>
<text text-anchor="middle" x="93" y="-87.5" font-family="Helvetica,sans-Serif" font-size="10.00">extensions</text>
</a>
</g>
</g>
<!-- dir_4450bfc55e51620de024dc0b1394c7ca&#45;&gt;dir_377b64fd835d330ed41ed3d471c31e15 -->
<g id="edge2" class="edge"><title>dir_4450bfc55e51620de024dc0b1394c7ca&#45;&gt;dir_377b64fd835d330ed41ed3d471c31e15</title>
<path fill="none" stroke="black" d="M115.584,-143.697C112.206,-135.813 108.13,-126.304 104.377,-117.546"/>
<polygon fill="black" stroke="black" points="107.487,-115.917 100.33,-108.104 101.053,-118.675 107.487,-115.917"/>
<g id="a_edge2&#45;headlabel"><a xlink:href="dir_000072_000066.html" target="_top" xlink:title="1">
<text text-anchor="middle" x="111.512" y="-115.603" font-family="Helvetica,sans-Serif" font-size="10.00">1</text>
</a>
</g>
</g>
<!-- dir_f34d78e61f21105323cad1a7ce8ced00 -->
<g id="node5" class="node"><title>dir_f34d78e61f21105323cad1a7ce8ced00</title>
<g id="a_node5"><a xlink:href="dir_f34d78e61f21105323cad1a7ce8ced00.html" target="_top" xlink:title="framework">
<polygon fill="white" stroke="red" points="154,-36 92,-36 92,-0 154,-0 154,-36"/>
<text text-anchor="middle" x="123" y="-15.5" font-family="Helvetica,sans-Serif" font-size="10.00">framework</text>
</a>
</g>
</g>
<!-- dir_4450bfc55e51620de024dc0b1394c7ca&#45;&gt;dir_f34d78e61f21105323cad1a7ce8ced00 -->
<g id="edge3" class="edge"><title>dir_4450bfc55e51620de024dc0b1394c7ca&#45;&gt;dir_f34d78e61f21105323cad1a7ce8ced00</title>
<path fill="none" stroke="black" d="M127.464,-143.953C129.935,-133.63 132.752,-120.153 134,-108 135.634,-92.0837 135.634,-87.9163 134,-72 133.123,-63.455 131.469,-54.2552 129.706,-45.9576"/>
<polygon fill="black" stroke="black" points="133.085,-45.0282 127.464,-36.0469 126.257,-46.5728 133.085,-45.0282"/>
<g id="a_edge3&#45;headlabel"><a xlink:href="dir_000072_000021.html" target="_top" xlink:title="1">
<text text-anchor="middle" x="136.647" y="-45.4078" font-family="Helvetica,sans-Serif" font-size="10.00">1</text>
</a>
</g>
</g>
<!-- dir_df19f7715f2f2841f674e6ac1378fd2b -->
<g id="node3" class="node"><title>dir_df19f7715f2f2841f674e6ac1378fd2b</title>
<g id="a_node3"><a xlink:href="dir_df19f7715f2f2841f674e6ac1378fd2b.html" target="_top" xlink:title="utils">
<polygon fill="white" stroke="black" points="78,-180 24,-180 24,-144 78,-144 78,-180"/>
<text text-anchor="middle" x="51" y="-159.5" font-family="Helvetica,sans-Serif" font-size="10.00">utils</text>
</a>
</g>
</g>
<!-- dir_377b64fd835d330ed41ed3d471c31e15&#45;&gt;dir_f34d78e61f21105323cad1a7ce8ced00 -->
<g id="edge1" class="edge"><title>dir_377b64fd835d330ed41ed3d471c31e15&#45;&gt;dir_f34d78e61f21105323cad1a7ce8ced00</title>
<path fill="none" stroke="black" d="M100.416,-71.6966C103.794,-63.8132 107.87,-54.3042 111.623,-45.5464"/>
<polygon fill="black" stroke="black" points="114.947,-46.6745 115.67,-36.1043 108.513,-43.9171 114.947,-46.6745"/>
<g id="a_edge1&#45;headlabel"><a xlink:href="dir_000066_000021.html" target="_top" xlink:title="13">
<text text-anchor="middle" x="116.141" y="-48.5969" font-family="Helvetica,sans-Serif" font-size="10.00">13</text>
</a>
</g>
</g>
</g>
</svg>
