<?xml version="1.0" encoding="UTF-8" standalone="no"?>
<!DOCTYPE svg PUBLIC "-//W3C//DTD SVG 1.1//EN"
 "http://www.w3.org/Graphics/SVG/1.1/DTD/svg11.dtd">
<!-- Generated by graphviz version 2.38.0 (20140413.2041)
 -->
<!-- Title: /bitrise/src/Source/AR6/ARVideo Pages: 1 -->
<!--zoomable 303 -->
<svg id="main" version="1.1" xmlns="http://www.w3.org/2000/svg" xmlns:xlink="http://www.w3.org/1999/xlink" xml:space="preserve" onload="init(evt)">
<style type="text/css"><![CDATA[
.edge:hover path { stroke: red; }
.edge:hover polygon { stroke: red; fill: red; }
]]></style>
<script type="text/javascript"><![CDATA[
var edges = document.getElementsByTagName('g');
if (edges && edges.length) {
  for (var i=0;i<edges.length;i++) {
    if (edges[i].id.substr(0,4)=='edge') {
      edges[i].setAttribute('class','edge');
    }
  }
}
]]></script>
        <defs>
                <circle id="rim" cx="0" cy="0" r="7"/>
                <circle id="rim2" cx="0" cy="0" r="3.5"/>
                <g id="zoomPlus">
                        <use xlink:href="#rim" fill="#404040">
                                <set attributeName="fill" to="#808080" begin="zoomplus.mouseover" end="zoomplus.mouseout"/>
                        </use>
                        <path d="M-4,0h8M0,-4v8" fill="none" stroke="white" stroke-width="1.5" pointer-events="none"/>
                </g>
                <g id="zoomMin">
                        <use xlink:href="#rim" fill="#404040">
                                <set attributeName="fill" to="#808080" begin="zoomminus.mouseover" end="zoomminus.mouseout"/>
                        </use>
                        <path d="M-4,0h8" fill="none" stroke="white" stroke-width="1.5" pointer-events="none"/>
                </g>
                <g id="dirArrow">
                        <path fill="none" stroke="white" stroke-width="1.5" d="M0,-3.0v7 M-2.5,-0.5L0,-3.0L2.5,-0.5"/>
                </g>
               <g id="resetDef">
                       <use xlink:href="#rim2" fill="#404040">
                               <set attributeName="fill" to="#808080" begin="reset.mouseover" end="reset.mouseout"/>
                       </use>
               </g>
        </defs>

<script type="text/javascript">
var viewWidth = 592;
var viewHeight = 303;
var sectionId = 'dynsection-0';
</script>
<script xlink:href="svgpan.js"/>
<svg id="graph" class="graph">
<g id="viewport">
<title>/bitrise/src/Source/AR6/ARVideo</title>
<polygon fill="white" stroke="none" points="-4,4 -4,-299 588,-299 588,4 -4,4"/>
<g id="clust1" class="cluster"><title>clusterdir_0eb6ab2946e867338a07984a6e8fed62</title>
<g id="a_clust1"><a xlink:href="dir_0eb6ab2946e867338a07984a6e8fed62.html" target="_top" xlink:title="AR6">
<polygon fill="#ddddee" stroke="black" points="8,-128 8,-287 576,-287 576,-128 8,-128"/>
<text text-anchor="middle" x="292" y="-275" font-family="Helvetica,sans-Serif" font-size="10.00">AR6</text>
</a>
</g>
</g>
<g id="clust2" class="cluster"><title>clusterdir_6fadf57a34395aff0f621f954f8f3ecb</title>
<g id="a_clust2"><a xlink:href="dir_6fadf57a34395aff0f621f954f8f3ecb.html" target="_top">
<polygon fill="#eeeeff" stroke="black" points="16,-136 16,-260 568,-260 568,-136 16,-136"/>
</a>
</g>
</g>
<!-- dir_6fadf57a34395aff0f621f954f8f3ecb -->
<g id="node1" class="node"><title>dir_6fadf57a34395aff0f621f954f8f3ecb</title>
<text text-anchor="middle" x="532" y="-231.5" font-family="Helvetica,sans-Serif" font-size="10.00">ARVideo</text>
</g>
<!-- dir_4fb6f97ed48024a05edbef9972528e43 -->
<g id="node10" class="node"><title>dir_4fb6f97ed48024a05edbef9972528e43</title>
<g id="a_node10"><a xlink:href="dir_4fb6f97ed48024a05edbef9972528e43.html" target="_top" xlink:title="ARUtil">
<polygon fill="white" stroke="red" points="518,-36 464,-36 464,-0 518,-0 518,-36"/>
<text text-anchor="middle" x="491" y="-15.5" font-family="Helvetica,sans-Serif" font-size="10.00">ARUtil</text>
</a>
</g>
</g>
<!-- dir_6fadf57a34395aff0f621f954f8f3ecb&#45;&gt;dir_4fb6f97ed48024a05edbef9972528e43 -->
<g id="edge6" class="edge"><title>dir_6fadf57a34395aff0f621f954f8f3ecb&#45;&gt;dir_4fb6f97ed48024a05edbef9972528e43</title>
<path fill="none" stroke="black" d="M528.714,-215.849C521.607,-178.753 504.758,-90.8101 496.193,-46.1027"/>
<polygon fill="black" stroke="black" points="499.621,-45.3952 494.302,-36.2325 492.746,-46.7124 499.621,-45.3952"/>
<g id="a_edge6&#45;headlabel"><a xlink:href="dir_000022_000016.html" target="_top" xlink:title="1">
<text text-anchor="middle" x="503.086" y="-45.8914" font-family="Helvetica,sans-Serif" font-size="10.00">1</text>
</a>
</g>
</g>
<!-- dir_0bd47b3e7d5994482ee2b93bdeee1b5c -->
<g id="node2" class="node"><title>dir_0bd47b3e7d5994482ee2b93bdeee1b5c</title>
<g id="a_node2"><a xlink:href="dir_0bd47b3e7d5994482ee2b93bdeee1b5c.html" target="_top" xlink:title="Android">
<polygon fill="white" stroke="black" points="486,-252 432,-252 432,-216 486,-216 486,-252"/>
<text text-anchor="middle" x="459" y="-231.5" font-family="Helvetica,sans-Serif" font-size="10.00">Android</text>
</a>
</g>
</g>
<!-- dir_6ac6451468a1eff197b5dde7a8c79ee9 -->
<g id="node6" class="node"><title>dir_6ac6451468a1eff197b5dde7a8c79ee9</title>
<g id="a_node6"><a xlink:href="dir_6ac6451468a1eff197b5dde7a8c79ee9.html" target="_top" xlink:title="include">
<polygon fill="white" stroke="red" points="318,-180 264,-180 264,-144 318,-144 318,-180"/>
<text text-anchor="middle" x="291" y="-159.5" font-family="Helvetica,sans-Serif" font-size="10.00">include</text>
</a>
</g>
</g>
<!-- dir_0bd47b3e7d5994482ee2b93bdeee1b5c&#45;&gt;dir_6ac6451468a1eff197b5dde7a8c79ee9 -->
<g id="edge3" class="edge"><title>dir_0bd47b3e7d5994482ee2b93bdeee1b5c&#45;&gt;dir_6ac6451468a1eff197b5dde7a8c79ee9</title>
<path fill="none" stroke="black" d="M431.952,-220.017C428.943,-218.635 425.914,-217.272 423,-216 391.19,-202.118 354.522,-187.504 327.918,-177.146"/>
<polygon fill="black" stroke="black" points="328.835,-173.747 318.246,-173.395 326.304,-180.274 328.835,-173.747"/>
<g id="a_edge3&#45;headlabel"><a xlink:href="dir_000023_000027.html" target="_top" xlink:title="1">
<text text-anchor="middle" x="333.213" y="-169.9" font-family="Helvetica,sans-Serif" font-size="10.00">1</text>
</a>
</g>
</g>
<!-- dir_a2e12691b3dd90a70b22ba812783bcf5 -->
<g id="node9" class="node"><title>dir_a2e12691b3dd90a70b22ba812783bcf5</title>
<g id="a_node9"><a xlink:href="dir_a2e12691b3dd90a70b22ba812783bcf5.html" target="_top" xlink:title="AR">
<polygon fill="white" stroke="red" points="486,-108 432,-108 432,-72 486,-72 486,-108"/>
<text text-anchor="middle" x="459" y="-87.5" font-family="Helvetica,sans-Serif" font-size="10.00">AR</text>
</a>
</g>
</g>
<!-- dir_0bd47b3e7d5994482ee2b93bdeee1b5c&#45;&gt;dir_a2e12691b3dd90a70b22ba812783bcf5 -->
<g id="edge4" class="edge"><title>dir_0bd47b3e7d5994482ee2b93bdeee1b5c&#45;&gt;dir_a2e12691b3dd90a70b22ba812783bcf5</title>
<path fill="none" stroke="black" d="M459,-215.871C459,-191.67 459,-147.211 459,-118.393"/>
<polygon fill="black" stroke="black" points="462.5,-118.189 459,-108.189 455.5,-118.189 462.5,-118.189"/>
<g id="a_edge4&#45;headlabel"><a xlink:href="dir_000023_000002.html" target="_top" xlink:title="1">
<text text-anchor="middle" x="465.339" y="-119.284" font-family="Helvetica,sans-Serif" font-size="10.00">1</text>
</a>
</g>
</g>
<!-- dir_8568ed17545344116a692ec1d89a9ebe -->
<g id="node3" class="node"><title>dir_8568ed17545344116a692ec1d89a9ebe</title>
<g id="a_node3"><a xlink:href="dir_8568ed17545344116a692ec1d89a9ebe.html" target="_top" xlink:title="AVFoundation">
<polygon fill="white" stroke="black" points="414,-252 336,-252 336,-216 414,-216 414,-252"/>
<text text-anchor="middle" x="375" y="-231.5" font-family="Helvetica,sans-Serif" font-size="10.00">AVFoundation</text>
</a>
</g>
</g>
<!-- dir_8568ed17545344116a692ec1d89a9ebe&#45;&gt;dir_6ac6451468a1eff197b5dde7a8c79ee9 -->
<g id="edge5" class="edge"><title>dir_8568ed17545344116a692ec1d89a9ebe&#45;&gt;dir_6ac6451468a1eff197b5dde7a8c79ee9</title>
<path fill="none" stroke="black" d="M354.236,-215.697C343.759,-206.965 330.889,-196.24 319.5,-186.75"/>
<polygon fill="black" stroke="black" points="321.448,-183.817 311.525,-180.104 316.967,-189.195 321.448,-183.817"/>
<g id="a_edge5&#45;headlabel"><a xlink:href="dir_000024_000027.html" target="_top" xlink:title="3">
<text text-anchor="middle" x="326.027" y="-181.437" font-family="Helvetica,sans-Serif" font-size="10.00">3</text>
</a>
</g>
</g>
<!-- dir_f03f975584d546118106c6328ddd3a77 -->
<g id="node4" class="node"><title>dir_f03f975584d546118106c6328ddd3a77</title>
<g id="a_node4"><a xlink:href="dir_f03f975584d546118106c6328ddd3a77.html" target="_top" xlink:title="Dummy">
<polygon fill="white" stroke="black" points="318,-252 264,-252 264,-216 318,-216 318,-252"/>
<text text-anchor="middle" x="291" y="-231.5" font-family="Helvetica,sans-Serif" font-size="10.00">Dummy</text>
</a>
</g>
</g>
<!-- dir_f03f975584d546118106c6328ddd3a77&#45;&gt;dir_6ac6451468a1eff197b5dde7a8c79ee9 -->
<g id="edge8" class="edge"><title>dir_f03f975584d546118106c6328ddd3a77&#45;&gt;dir_6ac6451468a1eff197b5dde7a8c79ee9</title>
<path fill="none" stroke="black" d="M291,-215.697C291,-207.983 291,-198.712 291,-190.112"/>
<polygon fill="black" stroke="black" points="294.5,-190.104 291,-180.104 287.5,-190.104 294.5,-190.104"/>
<g id="a_edge8&#45;headlabel"><a xlink:href="dir_000025_000027.html" target="_top" xlink:title="1">
<text text-anchor="middle" x="297.339" y="-191.199" font-family="Helvetica,sans-Serif" font-size="10.00">1</text>
</a>
</g>
</g>
<!-- dir_dd9177bc8836827a3ff2286b38622e62 -->
<g id="node5" class="node"><title>dir_dd9177bc8836827a3ff2286b38622e62</title>
<g id="a_node5"><a xlink:href="dir_dd9177bc8836827a3ff2286b38622e62.html" target="_top" xlink:title="Image">
<polygon fill="white" stroke="black" points="246,-252 192,-252 192,-216 246,-216 246,-252"/>
<text text-anchor="middle" x="219" y="-231.5" font-family="Helvetica,sans-Serif" font-size="10.00">Image</text>
</a>
</g>
</g>
<!-- dir_dd9177bc8836827a3ff2286b38622e62&#45;&gt;dir_6ac6451468a1eff197b5dde7a8c79ee9 -->
<g id="edge2" class="edge"><title>dir_dd9177bc8836827a3ff2286b38622e62&#45;&gt;dir_6ac6451468a1eff197b5dde7a8c79ee9</title>
<path fill="none" stroke="black" d="M236.798,-215.697C245.604,-207.135 256.382,-196.656 266.001,-187.304"/>
<polygon fill="black" stroke="black" points="268.677,-189.585 273.407,-180.104 263.797,-184.566 268.677,-189.585"/>
<g id="a_edge2&#45;headlabel"><a xlink:href="dir_000026_000027.html" target="_top" xlink:title="2">
<text text-anchor="middle" x="268.079" y="-191.626" font-family="Helvetica,sans-Serif" font-size="10.00">2</text>
</a>
</g>
</g>
<!-- dir_6ac6451468a1eff197b5dde7a8c79ee9&#45;&gt;dir_a2e12691b3dd90a70b22ba812783bcf5 -->
<g id="edge7" class="edge"><title>dir_6ac6451468a1eff197b5dde7a8c79ee9&#45;&gt;dir_a2e12691b3dd90a70b22ba812783bcf5</title>
<path fill="none" stroke="black" d="M318.366,-149.597C346.762,-137.766 391.321,-119.2 422.656,-106.143"/>
<polygon fill="black" stroke="black" points="424.039,-109.359 431.924,-102.282 421.347,-102.897 424.039,-109.359"/>
<g id="a_edge7&#45;headlabel"><a xlink:href="dir_000027_000002.html" target="_top" xlink:title="3">
<text text-anchor="middle" x="421.813" y="-110.862" font-family="Helvetica,sans-Serif" font-size="10.00">3</text>
</a>
</g>
</g>
<!-- dir_73a352a23ed0f827563e3262c9b22a43 -->
<g id="node7" class="node"><title>dir_73a352a23ed0f827563e3262c9b22a43</title>
<g id="a_node7"><a xlink:href="dir_73a352a23ed0f827563e3262c9b22a43.html" target="_top" xlink:title="libdc1394">
<polygon fill="white" stroke="black" points="174,-252 116,-252 116,-216 174,-216 174,-252"/>
<text text-anchor="middle" x="145" y="-231.5" font-family="Helvetica,sans-Serif" font-size="10.00">libdc1394</text>
</a>
</g>
</g>
<!-- dir_73a352a23ed0f827563e3262c9b22a43&#45;&gt;dir_6ac6451468a1eff197b5dde7a8c79ee9 -->
<g id="edge1" class="edge"><title>dir_73a352a23ed0f827563e3262c9b22a43&#45;&gt;dir_6ac6451468a1eff197b5dde7a8c79ee9</title>
<path fill="none" stroke="black" d="M174.194,-219.003C197.364,-207.894 229.877,-192.306 254.719,-180.395"/>
<polygon fill="black" stroke="black" points="256.325,-183.507 263.829,-176.027 253.298,-177.195 256.325,-183.507"/>
<g id="a_edge1&#45;headlabel"><a xlink:href="dir_000030_000027.html" target="_top" xlink:title="2">
<text text-anchor="middle" x="254.311" y="-185.121" font-family="Helvetica,sans-Serif" font-size="10.00">2</text>
</a>
</g>
</g>
<!-- dir_0e70b4be03333facfeb08dbb0a5a771f -->
<g id="node8" class="node"><title>dir_0e70b4be03333facfeb08dbb0a5a771f</title>
<g id="a_node8"><a xlink:href="dir_0e70b4be03333facfeb08dbb0a5a771f.html" target="_top" xlink:title="Video4Linux2">
<polygon fill="white" stroke="black" points="98.5,-252 23.5,-252 23.5,-216 98.5,-216 98.5,-252"/>
<text text-anchor="middle" x="61" y="-231.5" font-family="Helvetica,sans-Serif" font-size="10.00">Video4Linux2</text>
</a>
</g>
</g>
<!-- dir_0e70b4be03333facfeb08dbb0a5a771f&#45;&gt;dir_6ac6451468a1eff197b5dde7a8c79ee9 -->
<g id="edge10" class="edge"><title>dir_0e70b4be03333facfeb08dbb0a5a771f&#45;&gt;dir_6ac6451468a1eff197b5dde7a8c79ee9</title>
<path fill="none" stroke="black" d="M98.5765,-218.857C101.418,-217.866 104.25,-216.903 107,-216 157.523,-199.413 216.748,-182.861 254.073,-172.777"/>
<polygon fill="black" stroke="black" points="255.247,-176.086 263.995,-170.11 253.429,-169.326 255.247,-176.086"/>
<g id="a_edge10&#45;headlabel"><a xlink:href="dir_000031_000027.html" target="_top" xlink:title="1">
<text text-anchor="middle" x="252.513" y="-177.261" font-family="Helvetica,sans-Serif" font-size="10.00">1</text>
</a>
</g>
</g>
<!-- dir_a2e12691b3dd90a70b22ba812783bcf5&#45;&gt;dir_4fb6f97ed48024a05edbef9972528e43 -->
<g id="edge9" class="edge"><title>dir_a2e12691b3dd90a70b22ba812783bcf5&#45;&gt;dir_4fb6f97ed48024a05edbef9972528e43</title>
<path fill="none" stroke="black" d="M466.91,-71.6966C470.553,-63.7284 474.954,-54.0995 478.994,-45.2641"/>
<polygon fill="black" stroke="black" points="482.206,-46.6543 483.181,-36.1043 475.84,-43.7439 482.206,-46.6543"/>
<g id="a_edge9&#45;headlabel"><a xlink:href="dir_000002_000016.html" target="_top" xlink:title="2">
<text text-anchor="middle" x="483.294" y="-48.6039" font-family="Helvetica,sans-Serif" font-size="10.00">2</text>
</a>
</g>
</g>
</g>
</svg>
        <g id="navigator" transform="translate(0 0)" fill="#404254">
                <rect fill="#f2f5e9" fill-opacity="0.5" stroke="#606060" stroke-width=".5" x="0" y="0" width="60" height="60"/>
                <use id="zoomplus" xlink:href="#zoomPlus" x="17" y="9" onmousedown="handleZoom(evt,'in')"/>
                <use id="zoomminus" xlink:href="#zoomMin" x="42" y="9" onmousedown="handleZoom(evt,'out')"/>
                <use id="reset" xlink:href="#resetDef" x="30" y="36" onmousedown="handleReset()"/>
                <g id="arrowUp" xlink:href="#dirArrow" transform="translate(30 24)" onmousedown="handlePan(0,-1)">
                  <use xlink:href="#rim" fill="#404040">
                        <set attributeName="fill" to="#808080" begin="arrowUp.mouseover" end="arrowUp.mouseout"/>
                  </use>
                  <path fill="none" stroke="white" stroke-width="1.5" d="M0,-3.0v7 M-2.5,-0.5L0,-3.0L2.5,-0.5"/>
                </g>
                <g id="arrowRight" xlink:href="#dirArrow" transform="rotate(90) translate(36 -43)" onmousedown="handlePan(1,0)">
                  <use xlink:href="#rim" fill="#404040">
                        <set attributeName="fill" to="#808080" begin="arrowRight.mouseover" end="arrowRight.mouseout"/>
                  </use>
                  <path fill="none" stroke="white" stroke-width="1.5" d="M0,-3.0v7 M-2.5,-0.5L0,-3.0L2.5,-0.5"/>
                </g>
                <g id="arrowDown" xlink:href="#dirArrow" transform="rotate(180) translate(-30 -48)" onmousedown="handlePan(0,1)">
                  <use xlink:href="#rim" fill="#404040">
                        <set attributeName="fill" to="#808080" begin="arrowDown.mouseover" end="arrowDown.mouseout"/>
                  </use>
                  <path fill="none" stroke="white" stroke-width="1.5" d="M0,-3.0v7 M-2.5,-0.5L0,-3.0L2.5,-0.5"/>
                </g>
                <g id="arrowLeft" xlink:href="#dirArrow" transform="rotate(270) translate(-36 17)" onmousedown="handlePan(-1,0)">
                  <use xlink:href="#rim" fill="#404040">
                        <set attributeName="fill" to="#808080" begin="arrowLeft.mouseover" end="arrowLeft.mouseout"/>
                  </use>
                  <path fill="none" stroke="white" stroke-width="1.5" d="M0,-3.0v7 M-2.5,-0.5L0,-3.0L2.5,-0.5"/>
                </g>
        </g>
        <svg viewBox="0 0 15 15" width="100%" height="30px" preserveAspectRatio="xMaxYMin meet">
         <g id="arrow_out" transform="scale(0.3 0.3)">
          <a xlink:href="dir_6fadf57a34395aff0f621f954f8f3ecb_dep_org.svg" target="_base">
           <rect id="button" ry="5" rx="5" y="6" x="6" height="38" width="38"
                fill="#f2f5e9" fill-opacity="0.5" stroke="#606060" stroke-width="1.0"/>
           <path id="arrow"
             d="M 11.500037,31.436501 C 11.940474,20.09759 22.043105,11.32322 32.158766,21.979434 L 37.068811,17.246167 C 37.068811,17.246167 37.088388,32 37.088388,32 L 22.160133,31.978069 C 22.160133,31.978069 26.997745,27.140456 26.997745,27.140456 C 18.528582,18.264221 13.291696,25.230495 11.500037,31.436501 z"
             style="fill:#404040;"/>
          </a>
         </g>
        </svg>
</svg>
