<?xml version="1.0" encoding="UTF-8" standalone="no"?>
<!DOCTYPE svg PUBLIC "-//W3C//DTD SVG 1.1//EN"
 "http://www.w3.org/Graphics/SVG/1.1/DTD/svg11.dtd">
<!-- Generated by graphviz version 2.38.0 (20140413.2041)
 -->
<!-- Title: /bitrise/src/Source/AR6/InstantOn/cv/detectors Pages: 1 -->
<svg width="186pt" height="159pt"
 viewBox="0.00 0.00 186.00 159.00" xmlns="http://www.w3.org/2000/svg" xmlns:xlink="http://www.w3.org/1999/xlink">
<g id="graph0" class="graph" transform="scale(1 1) rotate(0) translate(4 155)">
<title>/bitrise/src/Source/AR6/InstantOn/cv/detectors</title>
<polygon fill="white" stroke="none" points="-4,4 -4,-155 182,-155 182,4 -4,4"/>
<g id="clust1" class="cluster"><title>clusterdir_aad90de66b7279af42549686741be329</title>
<g id="a_clust1"><a xlink:href="dir_aad90de66b7279af42549686741be329.html" target="_top" xlink:title="cv">
<polygon fill="#ddddee" stroke="black" points="8,-56 8,-143 170,-143 170,-56 8,-56"/>
<text text-anchor="middle" x="89" y="-131" font-family="Helvetica,sans-Serif" font-size="10.00">cv</text>
</a>
</g>
</g>
<g id="clust2" class="cluster"><title>clusterdir_4f63585031482a18b928b33dde1e606d</title>
<g id="a_clust2"><a xlink:href="dir_4f63585031482a18b928b33dde1e606d.html" target="_top">
<polygon fill="#eeeeff" stroke="black" points="16,-64 16,-116 162,-116 162,-64 16,-64"/>
</a>
</g>
</g>
<!-- dir_4f63585031482a18b928b33dde1e606d -->
<g id="node1" class="node"><title>dir_4f63585031482a18b928b33dde1e606d</title>
<text text-anchor="middle" x="125" y="-87.5" font-family="Helvetica,sans-Serif" font-size="10.00">detectors</text>
</g>
<!-- dir_7806b0fde3785ddac884cca4d5b5770e -->
<g id="node3" class="node"><title>dir_7806b0fde3785ddac884cca4d5b5770e</title>
<g id="a_node3"><a xlink:href="dir_7806b0fde3785ddac884cca4d5b5770e.html" target="_top" xlink:title="include">
<polygon fill="white" stroke="red" points="152,-36 98,-36 98,-0 152,-0 152,-36"/>
<text text-anchor="middle" x="125" y="-15.5" font-family="Helvetica,sans-Serif" font-size="10.00">include</text>
</a>
</g>
</g>
<!-- dir_4f63585031482a18b928b33dde1e606d&#45;&gt;dir_7806b0fde3785ddac884cca4d5b5770e -->
<g id="edge1" class="edge"><title>dir_4f63585031482a18b928b33dde1e606d&#45;&gt;dir_7806b0fde3785ddac884cca4d5b5770e</title>
<path fill="none" stroke="black" d="M125,-71.6966C125,-63.9827 125,-54.7125 125,-46.1124"/>
<polygon fill="black" stroke="black" points="128.5,-46.1043 125,-36.1043 121.5,-46.1044 128.5,-46.1043"/>
<g id="a_edge1&#45;headlabel"><a xlink:href="dir_000035_000008.html" target="_top" xlink:title="5">
<text text-anchor="middle" x="131.339" y="-47.199" font-family="Helvetica,sans-Serif" font-size="10.00">5</text>
</a>
</g>
</g>
<!-- dir_864b48c875061d7dd02a07a714a60e7e -->
<g id="node2" class="node"><title>dir_864b48c875061d7dd02a07a714a60e7e</title>
<g id="a_node2"><a xlink:href="dir_864b48c875061d7dd02a07a714a60e7e.html" target="_top" xlink:title="platform">
<polygon fill="white" stroke="red" points="78,-108 24,-108 24,-72 78,-72 78,-108"/>
<text text-anchor="middle" x="51" y="-87.5" font-family="Helvetica,sans-Serif" font-size="10.00">platform</text>
</a>
</g>
</g>
</g>
</svg>
