<?xml version="1.0" encoding="UTF-8" standalone="no"?>
<!DOCTYPE svg PUBLIC "-//W3C//DTD SVG 1.1//EN"
 "http://www.w3.org/Graphics/SVG/1.1/DTD/svg11.dtd">
<!-- Generated by graphviz version 2.38.0 (20140413.2041)
 -->
<!-- Title: /bitrise/src/Source/AR6/ARUtil Pages: 1 -->
<svg width="110pt" height="183pt"
 viewBox="0.00 0.00 110.00 183.00" xmlns="http://www.w3.org/2000/svg" xmlns:xlink="http://www.w3.org/1999/xlink">
<g id="graph0" class="graph" transform="scale(1 1) rotate(0) translate(4 179)">
<title>/bitrise/src/Source/AR6/ARUtil</title>
<polygon fill="white" stroke="none" points="-4,4 -4,-179 106,-179 106,4 -4,4"/>
<g id="clust1" class="cluster"><title>clusterdir_0eb6ab2946e867338a07984a6e8fed62</title>
<g id="a_clust1"><a xlink:href="dir_0eb6ab2946e867338a07984a6e8fed62.html" target="_top" xlink:title="AR6">
<polygon fill="#ddddee" stroke="black" points="8,-8 8,-167 94,-167 94,-8 8,-8"/>
<text text-anchor="middle" x="51" y="-155" font-family="Helvetica,sans-Serif" font-size="10.00">AR6</text>
</a>
</g>
</g>
<g id="clust2" class="cluster"><title>clusterdir_4fb6f97ed48024a05edbef9972528e43</title>
<g id="a_clust2"><a xlink:href="dir_4fb6f97ed48024a05edbef9972528e43.html" target="_top">
<polygon fill="#eeeeff" stroke="black" points="16,-16 16,-140 86,-140 86,-16 16,-16"/>
</a>
</g>
</g>
<!-- dir_4fb6f97ed48024a05edbef9972528e43 -->
<g id="node1" class="node"><title>dir_4fb6f97ed48024a05edbef9972528e43</title>
<text text-anchor="middle" x="51" y="-111.5" font-family="Helvetica,sans-Serif" font-size="10.00">ARUtil</text>
</g>
<!-- dir_6b3d40a0a0fe20202673949b0b7c7619 -->
<g id="node2" class="node"><title>dir_6b3d40a0a0fe20202673949b0b7c7619</title>
<g id="a_node2"><a xlink:href="dir_6b3d40a0a0fe20202673949b0b7c7619.html" target="_top" xlink:title="include">
<polygon fill="white" stroke="red" points="78,-60 24,-60 24,-24 78,-24 78,-60"/>
<text text-anchor="middle" x="51" y="-39.5" font-family="Helvetica,sans-Serif" font-size="10.00">include</text>
</a>
</g>
</g>
<!-- dir_4fb6f97ed48024a05edbef9972528e43&#45;&gt;dir_6b3d40a0a0fe20202673949b0b7c7619 -->
<g id="edge1" class="edge"><title>dir_4fb6f97ed48024a05edbef9972528e43&#45;&gt;dir_6b3d40a0a0fe20202673949b0b7c7619</title>
<path fill="none" stroke="black" d="M51,-95.6966C51,-87.9827 51,-78.7125 51,-70.1124"/>
<polygon fill="black" stroke="black" points="54.5001,-70.1043 51,-60.1043 47.5001,-70.1044 54.5001,-70.1043"/>
<g id="a_edge1&#45;headlabel"><a xlink:href="dir_000016_000018.html" target="_top" xlink:title="19">
<text text-anchor="middle" x="57.3393" y="-71.199" font-family="Helvetica,sans-Serif" font-size="10.00">19</text>
</a>
</g>
</g>
</g>
</svg>
