<?xml version="1.0" encoding="UTF-8" standalone="no"?>
<!DOCTYPE svg PUBLIC "-//W3C//DTD SVG 1.1//EN"
 "http://www.w3.org/Graphics/SVG/1.1/DTD/svg11.dtd">
<!-- Generated by graphviz version 2.38.0 (20140413.2041)
 -->
<!-- Title: /bitrise/src/Source/AR6/InstantOn/include/AR6/InstantOn/cv/trackers Pages: 1 -->
<svg width="456pt" height="439pt"
 viewBox="0.00 0.00 455.50 439.00" xmlns="http://www.w3.org/2000/svg" xmlns:xlink="http://www.w3.org/1999/xlink">
<g id="graph0" class="graph" transform="scale(1 1) rotate(0) translate(4 435)">
<title>/bitrise/src/Source/AR6/InstantOn/include/AR6/InstantOn/cv/trackers</title>
<polygon fill="white" stroke="none" points="-4,4 -4,-435 451.5,-435 451.5,4 -4,4"/>
<g id="clust1" class="cluster"><title>clusterdir_381dcd0a23ef5fd32b5b30a41f2385e7</title>
<g id="a_clust1"><a xlink:href="dir_381dcd0a23ef5fd32b5b30a41f2385e7.html" target="_top" xlink:title="cv">
<polygon fill="#ddddee" stroke="black" points="106,-352 106,-423 176,-423 176,-352 106,-352"/>
<text text-anchor="middle" x="141" y="-411" font-family="Helvetica,sans-Serif" font-size="10.00">cv</text>
</a>
</g>
</g>
<!-- dir_87c4ba5dfecb31e552165bd7f791faab -->
<g id="node1" class="node"><title>dir_87c4ba5dfecb31e552165bd7f791faab</title>
<g id="a_node1"><a xlink:href="dir_87c4ba5dfecb31e552165bd7f791faab.html" target="_top" xlink:title="trackers">
<polygon fill="#eeeeff" stroke="black" points="168,-396 114,-396 114,-360 168,-360 168,-396"/>
<text text-anchor="middle" x="141" y="-375.5" font-family="Helvetica,sans-Serif" font-size="10.00">trackers</text>
</a>
</g>
</g>
<!-- dir_b5895d1ac1c39bfb1c884e1737714359 -->
<g id="node2" class="node"><title>dir_b5895d1ac1c39bfb1c884e1737714359</title>
<g id="a_node2"><a xlink:href="dir_b5895d1ac1c39bfb1c884e1737714359.html" target="_top" xlink:title="features">
<polygon fill="none" stroke="black" points="196,-324 142,-324 142,-288 196,-288 196,-324"/>
<text text-anchor="middle" x="169" y="-303.5" font-family="Helvetica,sans-Serif" font-size="10.00">features</text>
</a>
</g>
</g>
<!-- dir_87c4ba5dfecb31e552165bd7f791faab&#45;&gt;dir_b5895d1ac1c39bfb1c884e1737714359 -->
<g id="edge13" class="edge"><title>dir_87c4ba5dfecb31e552165bd7f791faab&#45;&gt;dir_b5895d1ac1c39bfb1c884e1737714359</title>
<path fill="none" stroke="black" d="M147.921,-359.697C151.075,-351.813 154.878,-342.304 158.381,-333.546"/>
<polygon fill="black" stroke="black" points="161.694,-334.689 162.158,-324.104 155.195,-332.089 161.694,-334.689"/>
<g id="a_edge13&#45;headlabel"><a xlink:href="dir_000065_000057.html" target="_top" xlink:title="1">
<text text-anchor="middle" x="162.995" y="-336.581" font-family="Helvetica,sans-Serif" font-size="10.00">1</text>
</a>
</g>
</g>
<!-- dir_d8d241a2b10fad2e84e117118e3c0f23 -->
<g id="node3" class="node"><title>dir_d8d241a2b10fad2e84e117118e3c0f23</title>
<g id="a_node3"><a xlink:href="dir_d8d241a2b10fad2e84e117118e3c0f23.html" target="_top" xlink:title="detectors">
<polygon fill="white" stroke="red" points="164.5,-180 107.5,-180 107.5,-144 164.5,-144 164.5,-180"/>
<text text-anchor="middle" x="136" y="-159.5" font-family="Helvetica,sans-Serif" font-size="10.00">detectors</text>
</a>
</g>
</g>
<!-- dir_87c4ba5dfecb31e552165bd7f791faab&#45;&gt;dir_d8d241a2b10fad2e84e117118e3c0f23 -->
<g id="edge14" class="edge"><title>dir_87c4ba5dfecb31e552165bd7f791faab&#45;&gt;dir_d8d241a2b10fad2e84e117118e3c0f23</title>
<path fill="none" stroke="black" d="M130.485,-359.927C113.644,-330.363 84.0617,-267.831 100,-216 103.009,-206.215 108.507,-196.616 114.316,-188.334"/>
<polygon fill="black" stroke="black" points="117.195,-190.328 120.39,-180.226 111.593,-186.131 117.195,-190.328"/>
<g id="a_edge14&#45;headlabel"><a xlink:href="dir_000065_000053.html" target="_top" xlink:title="1">
<text text-anchor="middle" x="117.312" y="-192.407" font-family="Helvetica,sans-Serif" font-size="10.00">1</text>
</a>
</g>
</g>
<!-- dir_4fa1ce7ec3631360d33acf3b152ed7f9 -->
<g id="node4" class="node"><title>dir_4fa1ce7ec3631360d33acf3b152ed7f9</title>
<g id="a_node4"><a xlink:href="dir_4fa1ce7ec3631360d33acf3b152ed7f9.html" target="_top" xlink:title="utils">
<polygon fill="white" stroke="red" points="163,-252 109,-252 109,-216 163,-216 163,-252"/>
<text text-anchor="middle" x="136" y="-231.5" font-family="Helvetica,sans-Serif" font-size="10.00">utils</text>
</a>
</g>
</g>
<!-- dir_87c4ba5dfecb31e552165bd7f791faab&#45;&gt;dir_4fa1ce7ec3631360d33acf3b152ed7f9 -->
<g id="edge15" class="edge"><title>dir_87c4ba5dfecb31e552165bd7f791faab&#45;&gt;dir_4fa1ce7ec3631360d33acf3b152ed7f9</title>
<path fill="none" stroke="black" d="M137.752,-359.888C135.954,-349.542 133.905,-336.063 133,-324 131.448,-303.317 132.346,-279.87 133.553,-262.236"/>
<polygon fill="black" stroke="black" points="137.057,-262.321 134.325,-252.085 130.077,-261.79 137.057,-262.321"/>
<g id="a_edge15&#45;headlabel"><a xlink:href="dir_000065_000079.html" target="_top" xlink:title="6">
<text text-anchor="middle" x="139.615" y="-263.621" font-family="Helvetica,sans-Serif" font-size="10.00">6</text>
</a>
</g>
</g>
<!-- dir_f1122562f79f9cfe57a04b0c45322cde -->
<g id="node5" class="node"><title>dir_f1122562f79f9cfe57a04b0c45322cde</title>
<g id="a_node5"><a xlink:href="dir_f1122562f79f9cfe57a04b0c45322cde.html" target="_top" xlink:title="matchers">
<polygon fill="none" stroke="black" points="447.5,-324 390.5,-324 390.5,-288 447.5,-288 447.5,-324"/>
<text text-anchor="middle" x="419" y="-303.5" font-family="Helvetica,sans-Serif" font-size="10.00">matchers</text>
</a>
</g>
</g>
<!-- dir_87c4ba5dfecb31e552165bd7f791faab&#45;&gt;dir_f1122562f79f9cfe57a04b0c45322cde -->
<g id="edge16" class="edge"><title>dir_87c4ba5dfecb31e552165bd7f791faab&#45;&gt;dir_f1122562f79f9cfe57a04b0c45322cde</title>
<path fill="none" stroke="black" d="M168.14,-372.293C212.264,-364.327 302.063,-346.803 376,-324 377.438,-323.556 378.897,-323.087 380.364,-322.597"/>
<polygon fill="black" stroke="black" points="381.826,-325.792 390.073,-319.14 379.478,-319.197 381.826,-325.792"/>
<g id="a_edge16&#45;headlabel"><a xlink:href="dir_000065_000060.html" target="_top" xlink:title="3">
<text text-anchor="middle" x="379.392" y="-327.172" font-family="Helvetica,sans-Serif" font-size="10.00">3</text>
</a>
</g>
</g>
<!-- dir_f3f1119a42314b82500ad0aec4bfc038 -->
<g id="node6" class="node"><title>dir_f3f1119a42314b82500ad0aec4bfc038</title>
<g id="a_node6"><a xlink:href="dir_f3f1119a42314b82500ad0aec4bfc038.html" target="_top" xlink:title="math">
<polygon fill="white" stroke="red" points="161,-36 107,-36 107,-0 161,-0 161,-36"/>
<text text-anchor="middle" x="134" y="-15.5" font-family="Helvetica,sans-Serif" font-size="10.00">math</text>
</a>
</g>
</g>
<!-- dir_87c4ba5dfecb31e552165bd7f791faab&#45;&gt;dir_f3f1119a42314b82500ad0aec4bfc038 -->
<g id="edge17" class="edge"><title>dir_87c4ba5dfecb31e552165bd7f791faab&#45;&gt;dir_f3f1119a42314b82500ad0aec4bfc038</title>
<path fill="none" stroke="black" d="M113.814,-364.791C72.8408,-344.315 0,-298.925 0,-235 0,-235 0,-235 0,-161 0,-103.767 58.2928,-60.2581 97.9831,-37.2674"/>
<polygon fill="black" stroke="black" points="99.8762,-40.2185 106.883,-32.2715 96.4498,-34.1144 99.8762,-40.2185"/>
<g id="a_edge17&#45;headlabel"><a xlink:href="dir_000065_000011.html" target="_top" xlink:title="7">
<text text-anchor="middle" x="98.1315" y="-41.9538" font-family="Helvetica,sans-Serif" font-size="10.00">7</text>
</a>
</g>
</g>
<!-- dir_85fa824f41202670fb2b185bb6c09daa -->
<g id="node7" class="node"><title>dir_85fa824f41202670fb2b185bb6c09daa</title>
<g id="a_node7"><a xlink:href="dir_85fa824f41202670fb2b185bb6c09daa.html" target="_top" xlink:title="pyramid">
<polygon fill="white" stroke="red" points="89,-180 35,-180 35,-144 89,-144 89,-180"/>
<text text-anchor="middle" x="62" y="-159.5" font-family="Helvetica,sans-Serif" font-size="10.00">pyramid</text>
</a>
</g>
</g>
<!-- dir_87c4ba5dfecb31e552165bd7f791faab&#45;&gt;dir_85fa824f41202670fb2b185bb6c09daa -->
<g id="edge18" class="edge"><title>dir_87c4ba5dfecb31e552165bd7f791faab&#45;&gt;dir_85fa824f41202670fb2b185bb6c09daa</title>
<path fill="none" stroke="black" d="M123.151,-359.891C114.023,-350.182 103.496,-337.33 97,-324 75.7215,-280.338 67.2722,-223.763 63.9947,-190.616"/>
<polygon fill="black" stroke="black" points="67.4511,-189.972 63.0705,-180.325 60.4792,-190.598 67.4511,-189.972"/>
<g id="a_edge18&#45;headlabel"><a xlink:href="dir_000065_000062.html" target="_top" xlink:title="1">
<text text-anchor="middle" x="70.6005" y="-190.798" font-family="Helvetica,sans-Serif" font-size="10.00">1</text>
</a>
</g>
</g>
<!-- dir_0b315efd5714687ee007b8871f6395b5 -->
<g id="node8" class="node"><title>dir_0b315efd5714687ee007b8871f6395b5</title>
<g id="a_node8"><a xlink:href="dir_0b315efd5714687ee007b8871f6395b5.html" target="_top" xlink:title="homography_estimation">
<polygon fill="none" stroke="black" points="334,-324 214,-324 214,-288 334,-288 334,-324"/>
<text text-anchor="middle" x="274" y="-303.5" font-family="Helvetica,sans-Serif" font-size="10.00">homography_estimation</text>
</a>
</g>
</g>
<!-- dir_87c4ba5dfecb31e552165bd7f791faab&#45;&gt;dir_0b315efd5714687ee007b8871f6395b5 -->
<g id="edge19" class="edge"><title>dir_87c4ba5dfecb31e552165bd7f791faab&#45;&gt;dir_0b315efd5714687ee007b8871f6395b5</title>
<path fill="none" stroke="black" d="M168.235,-362.666C186.772,-352.91 211.649,-339.816 232.62,-328.779"/>
<polygon fill="black" stroke="black" points="234.421,-331.786 241.64,-324.032 231.161,-325.592 234.421,-331.786"/>
<g id="a_edge19&#45;headlabel"><a xlink:href="dir_000065_000059.html" target="_top" xlink:title="1">
<text text-anchor="middle" x="232.562" y="-333.473" font-family="Helvetica,sans-Serif" font-size="10.00">1</text>
</a>
</g>
</g>
<!-- dir_f34d78e61f21105323cad1a7ce8ced00 -->
<g id="node9" class="node"><title>dir_f34d78e61f21105323cad1a7ce8ced00</title>
<g id="a_node9"><a xlink:href="dir_f34d78e61f21105323cad1a7ce8ced00.html" target="_top" xlink:title="framework">
<polygon fill="white" stroke="red" points="224,-108 162,-108 162,-72 224,-72 224,-108"/>
<text text-anchor="middle" x="193" y="-87.5" font-family="Helvetica,sans-Serif" font-size="10.00">framework</text>
</a>
</g>
</g>
<!-- dir_87c4ba5dfecb31e552165bd7f791faab&#45;&gt;dir_f34d78e61f21105323cad1a7ce8ced00 -->
<g id="edge20" class="edge"><title>dir_87c4ba5dfecb31e552165bd7f791faab&#45;&gt;dir_f34d78e61f21105323cad1a7ce8ced00</title>
<path fill="none" stroke="black" d="M168.185,-373.935C218.208,-367.675 321.684,-351.63 343,-324 399.298,-251.026 287.33,-156.785 227.412,-113.976"/>
<polygon fill="black" stroke="black" points="229.168,-110.932 218.975,-108.041 225.141,-116.657 229.168,-110.932"/>
<g id="a_edge20&#45;headlabel"><a xlink:href="dir_000065_000021.html" target="_top" xlink:title="6">
<text text-anchor="middle" x="233.742" y="-108.178" font-family="Helvetica,sans-Serif" font-size="10.00">6</text>
</a>
</g>
</g>
<!-- dir_b5895d1ac1c39bfb1c884e1737714359&#45;&gt;dir_4fa1ce7ec3631360d33acf3b152ed7f9 -->
<g id="edge1" class="edge"><title>dir_b5895d1ac1c39bfb1c884e1737714359&#45;&gt;dir_4fa1ce7ec3631360d33acf3b152ed7f9</title>
<path fill="none" stroke="black" d="M160.843,-287.697C157.086,-279.728 152.547,-270.1 148.382,-261.264"/>
<polygon fill="black" stroke="black" points="151.494,-259.657 144.063,-252.104 145.162,-262.642 151.494,-259.657"/>
<g id="a_edge1&#45;headlabel"><a xlink:href="dir_000057_000079.html" target="_top" xlink:title="1">
<text text-anchor="middle" x="155.595" y="-259.198" font-family="Helvetica,sans-Serif" font-size="10.00">1</text>
</a>
</g>
</g>
<!-- dir_b5895d1ac1c39bfb1c884e1737714359&#45;&gt;dir_f34d78e61f21105323cad1a7ce8ced00 -->
<g id="edge2" class="edge"><title>dir_b5895d1ac1c39bfb1c884e1737714359&#45;&gt;dir_f34d78e61f21105323cad1a7ce8ced00</title>
<path fill="none" stroke="black" d="M170.923,-287.849C175.075,-250.832 184.905,-163.181 189.929,-118.386"/>
<polygon fill="black" stroke="black" points="193.431,-118.56 191.067,-108.232 186.475,-117.78 193.431,-118.56"/>
<g id="a_edge2&#45;headlabel"><a xlink:href="dir_000057_000021.html" target="_top" xlink:title="1">
<text text-anchor="middle" x="195.852" y="-119.949" font-family="Helvetica,sans-Serif" font-size="10.00">1</text>
</a>
</g>
</g>
<!-- dir_d8d241a2b10fad2e84e117118e3c0f23&#45;&gt;dir_4fa1ce7ec3631360d33acf3b152ed7f9 -->
<g id="edge3" class="edge"><title>dir_d8d241a2b10fad2e84e117118e3c0f23&#45;&gt;dir_4fa1ce7ec3631360d33acf3b152ed7f9</title>
<path fill="none" stroke="black" d="M141.895,-180.104C142.701,-187.791 142.937,-197.054 142.604,-205.665"/>
<polygon fill="black" stroke="black" points="139.109,-205.48 141.916,-215.697 146.092,-205.96 139.109,-205.48"/>
<g id="a_edge3&#45;headlabel"><a xlink:href="dir_000053_000079.html" target="_top" xlink:title="1">
<text text-anchor="middle" x="136.522" y="-199.2" font-family="Helvetica,sans-Serif" font-size="10.00">1</text>
</a>
</g>
</g>
<!-- dir_d8d241a2b10fad2e84e117118e3c0f23&#45;&gt;dir_f3f1119a42314b82500ad0aec4bfc038 -->
<g id="edge4" class="edge"><title>dir_d8d241a2b10fad2e84e117118e3c0f23&#45;&gt;dir_f3f1119a42314b82500ad0aec4bfc038</title>
<path fill="none" stroke="black" d="M135.759,-143.871C135.418,-119.67 134.792,-75.2108 134.386,-46.3932"/>
<polygon fill="black" stroke="black" points="137.883,-46.1389 134.242,-36.1893 130.883,-46.2376 137.883,-46.1389"/>
<g id="a_edge4&#45;headlabel"><a xlink:href="dir_000053_000011.html" target="_top" xlink:title="2">
<text text-anchor="middle" x="140.772" y="-47.1933" font-family="Helvetica,sans-Serif" font-size="10.00">2</text>
</a>
</g>
</g>
<!-- dir_d8d241a2b10fad2e84e117118e3c0f23&#45;&gt;dir_f34d78e61f21105323cad1a7ce8ced00 -->
<g id="edge5" class="edge"><title>dir_d8d241a2b10fad2e84e117118e3c0f23&#45;&gt;dir_f34d78e61f21105323cad1a7ce8ced00</title>
<path fill="none" stroke="black" d="M150.09,-143.697C156.923,-135.305 165.257,-125.07 172.756,-115.861"/>
<polygon fill="black" stroke="black" points="175.472,-118.069 179.072,-108.104 170.044,-113.649 175.472,-118.069"/>
<g id="a_edge5&#45;headlabel"><a xlink:href="dir_000053_000021.html" target="_top" xlink:title="2">
<text text-anchor="middle" x="175.404" y="-120.149" font-family="Helvetica,sans-Serif" font-size="10.00">2</text>
</a>
</g>
</g>
<!-- dir_4fa1ce7ec3631360d33acf3b152ed7f9&#45;&gt;dir_d8d241a2b10fad2e84e117118e3c0f23 -->
<g id="edge6" class="edge"><title>dir_4fa1ce7ec3631360d33acf3b152ed7f9&#45;&gt;dir_d8d241a2b10fad2e84e117118e3c0f23</title>
<path fill="none" stroke="black" d="M130.084,-215.697C129.289,-207.983 129.062,-198.712 129.405,-190.112"/>
<polygon fill="black" stroke="black" points="132.898,-190.324 130.105,-180.104 125.915,-189.836 132.898,-190.324"/>
<g id="a_edge6&#45;headlabel"><a xlink:href="dir_000079_000053.html" target="_top" xlink:title="1">
<text text-anchor="middle" x="135.48" y="-191.608" font-family="Helvetica,sans-Serif" font-size="10.00">1</text>
</a>
</g>
</g>
<!-- dir_85fa824f41202670fb2b185bb6c09daa&#45;&gt;dir_f3f1119a42314b82500ad0aec4bfc038 -->
<g id="edge7" class="edge"><title>dir_85fa824f41202670fb2b185bb6c09daa&#45;&gt;dir_f3f1119a42314b82500ad0aec4bfc038</title>
<path fill="none" stroke="black" d="M70.6849,-143.871C83.1181,-119.35 106.096,-74.0321 120.686,-45.2589"/>
<polygon fill="black" stroke="black" points="123.884,-46.6911 125.284,-36.1893 117.64,-43.5255 123.884,-46.6911"/>
<g id="a_edge7&#45;headlabel"><a xlink:href="dir_000062_000011.html" target="_top" xlink:title="1">
<text text-anchor="middle" x="124.79" y="-48.6811" font-family="Helvetica,sans-Serif" font-size="10.00">1</text>
</a>
</g>
</g>
<!-- dir_85fa824f41202670fb2b185bb6c09daa&#45;&gt;dir_f34d78e61f21105323cad1a7ce8ced00 -->
<g id="edge8" class="edge"><title>dir_85fa824f41202670fb2b185bb6c09daa&#45;&gt;dir_f34d78e61f21105323cad1a7ce8ced00</title>
<path fill="none" stroke="black" d="M89.1433,-146.496C107.553,-136.659 132.204,-123.486 152.87,-112.443"/>
<polygon fill="black" stroke="black" points="154.579,-115.498 161.75,-107.699 151.28,-109.325 154.579,-115.498"/>
<g id="a_edge8&#45;headlabel"><a xlink:href="dir_000062_000021.html" target="_top" xlink:title="2">
<text text-anchor="middle" x="152.747" y="-117.197" font-family="Helvetica,sans-Serif" font-size="10.00">2</text>
</a>
</g>
</g>
<!-- dir_0b315efd5714687ee007b8871f6395b5&#45;&gt;dir_4fa1ce7ec3631360d33acf3b152ed7f9 -->
<g id="edge9" class="edge"><title>dir_0b315efd5714687ee007b8871f6395b5&#45;&gt;dir_4fa1ce7ec3631360d33acf3b152ed7f9</title>
<path fill="none" stroke="black" d="M240.241,-287.876C219.667,-277.44 193.378,-264.105 172.348,-253.438"/>
<polygon fill="black" stroke="black" points="173.895,-250.298 163.393,-248.895 170.728,-256.54 173.895,-250.298"/>
<g id="a_edge9&#45;headlabel"><a xlink:href="dir_000059_000079.html" target="_top" xlink:title="1">
<text text-anchor="middle" x="178.385" y="-246.891" font-family="Helvetica,sans-Serif" font-size="10.00">1</text>
</a>
</g>
</g>
<!-- dir_0b315efd5714687ee007b8871f6395b5&#45;&gt;dir_f3f1119a42314b82500ad0aec4bfc038 -->
<g id="edge10" class="edge"><title>dir_0b315efd5714687ee007b8871f6395b5&#45;&gt;dir_f3f1119a42314b82500ad0aec4bfc038</title>
<path fill="none" stroke="black" d="M275.744,-287.858C279.029,-246.473 281.901,-139.532 233,-72 217.929,-51.1862 192.131,-37.7551 170.649,-29.6221"/>
<polygon fill="black" stroke="black" points="171.731,-26.2924 161.136,-26.2507 169.393,-32.8903 171.731,-26.2924"/>
<g id="a_edge10&#45;headlabel"><a xlink:href="dir_000059_000011.html" target="_top" xlink:title="10">
<text text-anchor="middle" x="176.068" y="-22.317" font-family="Helvetica,sans-Serif" font-size="10.00">10</text>
</a>
</g>
</g>
<!-- dir_0b315efd5714687ee007b8871f6395b5&#45;&gt;dir_f34d78e61f21105323cad1a7ce8ced00 -->
<g id="edge11" class="edge"><title>dir_0b315efd5714687ee007b8871f6395b5&#45;&gt;dir_f34d78e61f21105323cad1a7ce8ced00</title>
<path fill="none" stroke="black" d="M267.508,-287.849C253.438,-250.675 220.04,-162.439 203.152,-117.82"/>
<polygon fill="black" stroke="black" points="206.336,-116.346 199.523,-108.232 199.789,-118.824 206.336,-116.346"/>
<g id="a_edge11&#45;headlabel"><a xlink:href="dir_000059_000021.html" target="_top" xlink:title="1">
<text text-anchor="middle" x="210.264" y="-116.203" font-family="Helvetica,sans-Serif" font-size="10.00">1</text>
</a>
</g>
</g>
<!-- dir_f34d78e61f21105323cad1a7ce8ced00&#45;&gt;dir_f3f1119a42314b82500ad0aec4bfc038 -->
<g id="edge12" class="edge"><title>dir_f34d78e61f21105323cad1a7ce8ced00&#45;&gt;dir_f3f1119a42314b82500ad0aec4bfc038</title>
<path fill="none" stroke="black" d="M178.416,-71.6966C171.342,-63.3046 162.717,-53.0705 154.955,-43.8613"/>
<polygon fill="black" stroke="black" points="157.537,-41.495 148.417,-36.1043 152.185,-46.0063 157.537,-41.495"/>
<g id="a_edge12&#45;headlabel"><a xlink:href="dir_000021_000011.html" target="_top" xlink:title="2">
<text text-anchor="middle" x="162.025" y="-39.9137" font-family="Helvetica,sans-Serif" font-size="10.00">2</text>
</a>
</g>
</g>
</g>
</svg>
