<?xml version="1.0" encoding="UTF-8" standalone="no"?>
<!DOCTYPE svg PUBLIC "-//W3C//DTD SVG 1.1//EN"
 "http://www.w3.org/Graphics/SVG/1.1/DTD/svg11.dtd">
<!-- Generated by graphviz version 2.38.0 (20140413.2041)
 -->
<!-- Title: /bitrise/src/Source/AR6/InstantOn/cv Pages: 1 -->
<svg width="402pt" height="231pt"
 viewBox="0.00 0.00 402.00 231.00" xmlns="http://www.w3.org/2000/svg" xmlns:xlink="http://www.w3.org/1999/xlink">
<g id="graph0" class="graph" transform="scale(1 1) rotate(0) translate(4 227)">
<title>/bitrise/src/Source/AR6/InstantOn/cv</title>
<polygon fill="white" stroke="none" points="-4,4 -4,-227 398,-227 398,4 -4,4"/>
<g id="clust1" class="cluster"><title>clusterdir_2dbedbc3f447cb8da27b4e7f251eba2d</title>
<g id="a_clust1"><a xlink:href="dir_2dbedbc3f447cb8da27b4e7f251eba2d.html" target="_top" xlink:title="InstantOn">
<polygon fill="#ddddee" stroke="black" points="8,-128 8,-215 386,-215 386,-128 8,-128"/>
<text text-anchor="middle" x="197" y="-203" font-family="Helvetica,sans-Serif" font-size="10.00">InstantOn</text>
</a>
</g>
</g>
<g id="clust2" class="cluster"><title>clusterdir_aad90de66b7279af42549686741be329</title>
<g id="a_clust2"><a xlink:href="dir_aad90de66b7279af42549686741be329.html" target="_top">
<polygon fill="#eeeeff" stroke="black" points="16,-136 16,-188 378,-188 378,-136 16,-136"/>
</a>
</g>
</g>
<!-- dir_aad90de66b7279af42549686741be329 -->
<g id="node1" class="node"><title>dir_aad90de66b7279af42549686741be329</title>
<text text-anchor="middle" x="343" y="-159.5" font-family="Helvetica,sans-Serif" font-size="10.00">cv</text>
</g>
<!-- dir_4f63585031482a18b928b33dde1e606d -->
<g id="node2" class="node"><title>dir_4f63585031482a18b928b33dde1e606d</title>
<g id="a_node2"><a xlink:href="dir_4f63585031482a18b928b33dde1e606d.html" target="_top" xlink:title="detectors">
<polygon fill="white" stroke="red" points="153.5,-180 96.5,-180 96.5,-144 153.5,-144 153.5,-180"/>
<text text-anchor="middle" x="125" y="-159.5" font-family="Helvetica,sans-Serif" font-size="10.00">detectors</text>
</a>
</g>
</g>
<!-- dir_7806b0fde3785ddac884cca4d5b5770e -->
<g id="node6" class="node"><title>dir_7806b0fde3785ddac884cca4d5b5770e</title>
<g id="a_node6"><a xlink:href="dir_7806b0fde3785ddac884cca4d5b5770e.html" target="_top" xlink:title="include">
<polygon fill="white" stroke="red" points="171,-108 117,-108 117,-72 171,-72 171,-108"/>
<text text-anchor="middle" x="144" y="-87.5" font-family="Helvetica,sans-Serif" font-size="10.00">include</text>
</a>
</g>
</g>
<!-- dir_4f63585031482a18b928b33dde1e606d&#45;&gt;dir_7806b0fde3785ddac884cca4d5b5770e -->
<g id="edge3" class="edge"><title>dir_4f63585031482a18b928b33dde1e606d&#45;&gt;dir_7806b0fde3785ddac884cca4d5b5770e</title>
<path fill="none" stroke="black" d="M129.697,-143.697C131.813,-135.898 134.362,-126.509 136.718,-117.829"/>
<polygon fill="black" stroke="black" points="140.116,-118.672 139.357,-108.104 133.36,-116.838 140.116,-118.672"/>
<g id="a_edge3&#45;headlabel"><a xlink:href="dir_000035_000008.html" target="_top" xlink:title="5">
<text text-anchor="middle" x="141.914" y="-120.385" font-family="Helvetica,sans-Serif" font-size="10.00">5</text>
</a>
</g>
</g>
<!-- dir_fc8d31141e1b1eb027ec199b65931a8c -->
<g id="node3" class="node"><title>dir_fc8d31141e1b1eb027ec199b65931a8c</title>
<g id="a_node3"><a xlink:href="dir_fc8d31141e1b1eb027ec199b65931a8c.html" target="_top" xlink:title="features">
<polygon fill="white" stroke="black" points="78,-180 24,-180 24,-144 78,-144 78,-180"/>
<text text-anchor="middle" x="51" y="-159.5" font-family="Helvetica,sans-Serif" font-size="10.00">features</text>
</a>
</g>
</g>
<!-- dir_fc8d31141e1b1eb027ec199b65931a8c&#45;&gt;dir_7806b0fde3785ddac884cca4d5b5770e -->
<g id="edge4" class="edge"><title>dir_fc8d31141e1b1eb027ec199b65931a8c&#45;&gt;dir_7806b0fde3785ddac884cca4d5b5770e</title>
<path fill="none" stroke="black" d="M68.4326,-143.942C74.1706,-138.625 80.6983,-132.879 87,-128 93.7719,-122.757 101.287,-117.512 108.578,-112.688"/>
<polygon fill="black" stroke="black" points="110.49,-115.62 116.978,-107.244 106.683,-109.746 110.49,-115.62"/>
<g id="a_edge4&#45;headlabel"><a xlink:href="dir_000039_000008.html" target="_top" xlink:title="2">
<text text-anchor="middle" x="109.018" y="-117.457" font-family="Helvetica,sans-Serif" font-size="10.00">2</text>
</a>
</g>
</g>
<!-- dir_4fb6f97ed48024a05edbef9972528e43 -->
<g id="node7" class="node"><title>dir_4fb6f97ed48024a05edbef9972528e43</title>
<g id="a_node7"><a xlink:href="dir_4fb6f97ed48024a05edbef9972528e43.html" target="_top" xlink:title="ARUtil">
<polygon fill="white" stroke="red" points="198,-36 144,-36 144,-0 198,-0 198,-36"/>
<text text-anchor="middle" x="171" y="-15.5" font-family="Helvetica,sans-Serif" font-size="10.00">ARUtil</text>
</a>
</g>
</g>
<!-- dir_fc8d31141e1b1eb027ec199b65931a8c&#45;&gt;dir_4fb6f97ed48024a05edbef9972528e43 -->
<g id="edge5" class="edge"><title>dir_fc8d31141e1b1eb027ec199b65931a8c&#45;&gt;dir_4fb6f97ed48024a05edbef9972528e43</title>
<path fill="none" stroke="black" d="M59.9149,-143.882C70.1203,-125.147 88.0253,-94.7509 108,-72 117.318,-61.3867 128.829,-51.0703 139.452,-42.4029"/>
<polygon fill="black" stroke="black" points="141.704,-45.0835 147.351,-36.1187 137.346,-39.6056 141.704,-45.0835"/>
<g id="a_edge5&#45;headlabel"><a xlink:href="dir_000039_000016.html" target="_top" xlink:title="1">
<text text-anchor="middle" x="140.659" y="-47.0433" font-family="Helvetica,sans-Serif" font-size="10.00">1</text>
</a>
</g>
</g>
<!-- dir_f9986ef4f615877823ab9175012efd8e -->
<g id="node4" class="node"><title>dir_f9986ef4f615877823ab9175012efd8e</title>
<g id="a_node4"><a xlink:href="dir_f9986ef4f615877823ab9175012efd8e.html" target="_top" xlink:title="pyramid">
<polygon fill="white" stroke="red" points="226,-180 172,-180 172,-144 226,-144 226,-180"/>
<text text-anchor="middle" x="199" y="-159.5" font-family="Helvetica,sans-Serif" font-size="10.00">pyramid</text>
</a>
</g>
</g>
<!-- dir_f9986ef4f615877823ab9175012efd8e&#45;&gt;dir_7806b0fde3785ddac884cca4d5b5770e -->
<g id="edge6" class="edge"><title>dir_f9986ef4f615877823ab9175012efd8e&#45;&gt;dir_7806b0fde3785ddac884cca4d5b5770e</title>
<path fill="none" stroke="black" d="M185.404,-143.697C178.877,-135.389 170.932,-125.277 163.753,-116.141"/>
<polygon fill="black" stroke="black" points="166.369,-113.805 157.439,-108.104 160.865,-118.13 166.369,-113.805"/>
<g id="a_edge6&#45;headlabel"><a xlink:href="dir_000040_000008.html" target="_top" xlink:title="6">
<text text-anchor="middle" x="170.823" y="-112.377" font-family="Helvetica,sans-Serif" font-size="10.00">6</text>
</a>
</g>
</g>
<!-- dir_f9986ef4f615877823ab9175012efd8e&#45;&gt;dir_4fb6f97ed48024a05edbef9972528e43 -->
<g id="edge7" class="edge"><title>dir_f9986ef4f615877823ab9175012efd8e&#45;&gt;dir_4fb6f97ed48024a05edbef9972528e43</title>
<path fill="none" stroke="black" d="M195.623,-143.871C190.829,-119.564 182.007,-74.8187 176.327,-46.0132"/>
<polygon fill="black" stroke="black" points="179.758,-45.3232 174.389,-36.1893 172.89,-46.6775 179.758,-45.3232"/>
<g id="a_edge7&#45;headlabel"><a xlink:href="dir_000040_000016.html" target="_top" xlink:title="2">
<text text-anchor="middle" x="183.239" y="-45.8007" font-family="Helvetica,sans-Serif" font-size="10.00">2</text>
</a>
</g>
</g>
<!-- dir_f1de185f6f3218b2317c99327c681416 -->
<g id="node5" class="node"><title>dir_f1de185f6f3218b2317c99327c681416</title>
<g id="a_node5"><a xlink:href="dir_f1de185f6f3218b2317c99327c681416.html" target="_top" xlink:title="trackers">
<polygon fill="white" stroke="black" points="298,-180 244,-180 244,-144 298,-144 298,-180"/>
<text text-anchor="middle" x="271" y="-159.5" font-family="Helvetica,sans-Serif" font-size="10.00">trackers</text>
</a>
</g>
</g>
<!-- dir_f1de185f6f3218b2317c99327c681416&#45;&gt;dir_7806b0fde3785ddac884cca4d5b5770e -->
<g id="edge1" class="edge"><title>dir_f1de185f6f3218b2317c99327c681416&#45;&gt;dir_7806b0fde3785ddac884cca4d5b5770e</title>
<path fill="none" stroke="black" d="M254.812,-143.882C248.943,-138.319 242.022,-132.442 235,-128 218.253,-117.406 197.961,-108.806 180.793,-102.573"/>
<polygon fill="black" stroke="black" points="181.69,-99.179 171.095,-99.1793 179.378,-105.786 181.69,-99.179"/>
<g id="a_edge1&#45;headlabel"><a xlink:href="dir_000043_000008.html" target="_top" xlink:title="15">
<text text-anchor="middle" x="186.021" y="-95.1864" font-family="Helvetica,sans-Serif" font-size="10.00">15</text>
</a>
</g>
</g>
<!-- dir_f1de185f6f3218b2317c99327c681416&#45;&gt;dir_4fb6f97ed48024a05edbef9972528e43 -->
<g id="edge2" class="edge"><title>dir_f1de185f6f3218b2317c99327c681416&#45;&gt;dir_4fb6f97ed48024a05edbef9972528e43</title>
<path fill="none" stroke="black" d="M258.938,-143.871C241.519,-119.137 209.199,-73.2424 188.966,-44.5121"/>
<polygon fill="black" stroke="black" points="191.725,-42.3501 183.105,-36.1893 186.001,-46.3806 191.725,-42.3501"/>
<g id="a_edge2&#45;headlabel"><a xlink:href="dir_000043_000016.html" target="_top" xlink:title="1">
<text text-anchor="middle" x="196.116" y="-41.1543" font-family="Helvetica,sans-Serif" font-size="10.00">1</text>
</a>
</g>
</g>
<!-- dir_7806b0fde3785ddac884cca4d5b5770e&#45;&gt;dir_4fb6f97ed48024a05edbef9972528e43 -->
<g id="edge8" class="edge"><title>dir_7806b0fde3785ddac884cca4d5b5770e&#45;&gt;dir_4fb6f97ed48024a05edbef9972528e43</title>
<path fill="none" stroke="black" d="M150.674,-71.6966C153.715,-63.8132 157.383,-54.3042 160.761,-45.5464"/>
<polygon fill="black" stroke="black" points="164.069,-46.6939 164.403,-36.1043 157.538,-44.1748 164.069,-46.6939"/>
<g id="a_edge8&#45;headlabel"><a xlink:href="dir_000008_000016.html" target="_top" xlink:title="1">
<text text-anchor="middle" x="165.425" y="-48.5695" font-family="Helvetica,sans-Serif" font-size="10.00">1</text>
</a>
</g>
</g>
</g>
</svg>
