<?xml version="1.0" encoding="UTF-8" standalone="no"?>
<!DOCTYPE svg PUBLIC "-//W3C//DTD SVG 1.1//EN"
 "http://www.w3.org/Graphics/SVG/1.1/DTD/svg11.dtd">
<!-- Generated by graphviz version 2.38.0 (20140413.2041)
 -->
<!-- Title: unzip_od Pages: 1 -->
<!--zoomable 924 -->
<svg id="main" version="1.1" xmlns="http://www.w3.org/2000/svg" xmlns:xlink="http://www.w3.org/1999/xlink" xml:space="preserve" onload="init(evt)">
<style type="text/css"><![CDATA[
.edge:hover path { stroke: red; }
.edge:hover polygon { stroke: red; fill: red; }
]]></style>
<script type="text/javascript"><![CDATA[
var edges = document.getElementsByTagName('g');
if (edges && edges.length) {
  for (var i=0;i<edges.length;i++) {
    if (edges[i].id.substr(0,4)=='edge') {
      edges[i].setAttribute('class','edge');
    }
  }
}
]]></script>
        <defs>
                <circle id="rim" cx="0" cy="0" r="7"/>
                <circle id="rim2" cx="0" cy="0" r="3.5"/>
                <g id="zoomPlus">
                        <use xlink:href="#rim" fill="#404040">
                                <set attributeName="fill" to="#808080" begin="zoomplus.mouseover" end="zoomplus.mouseout"/>
                        </use>
                        <path d="M-4,0h8M0,-4v8" fill="none" stroke="white" stroke-width="1.5" pointer-events="none"/>
                </g>
                <g id="zoomMin">
                        <use xlink:href="#rim" fill="#404040">
                                <set attributeName="fill" to="#808080" begin="zoomminus.mouseover" end="zoomminus.mouseout"/>
                        </use>
                        <path d="M-4,0h8" fill="none" stroke="white" stroke-width="1.5" pointer-events="none"/>
                </g>
                <g id="dirArrow">
                        <path fill="none" stroke="white" stroke-width="1.5" d="M0,-3.0v7 M-2.5,-0.5L0,-3.0L2.5,-0.5"/>
                </g>
               <g id="resetDef">
                       <use xlink:href="#rim2" fill="#404040">
                               <set attributeName="fill" to="#808080" begin="reset.mouseover" end="reset.mouseout"/>
                       </use>
               </g>
        </defs>

<script type="text/javascript">
var viewWidth = 1561;
var viewHeight = 924;
var sectionId = 'dynsection-4';
</script>
<script xlink:href="svgpan.js"/>
<svg id="graph" class="graph">
<g id="viewport">
<title>unzip_od</title>
<polygon fill="white" stroke="none" points="-4,4 -4,-920.207 1557,-920.207 1557,4 -4,4"/>
<!-- Node1 -->
<g id="node1" class="node"><title>Node1</title>
<polygon fill="#bfbfbf" stroke="black" points="0,-283.5 0,-302.5 56,-302.5 56,-283.5 0,-283.5"/>
<text text-anchor="middle" x="28" y="-290.5" font-family="Helvetica,sans-Serif" font-size="10.00">unzip_od</text>
</g>
<!-- Node2 -->
<g id="node2" class="node"><title>Node2</title>
<g id="a_node2"><a xlink:href="unzip_8c.html#a3c2961b4d84447e2d4ab06835c30fa23" target="_top" xlink:title="unzOpen2_64">
<polygon fill="white" stroke="black" points="92,-444.5 92,-463.5 169,-463.5 169,-444.5 92,-444.5"/>
<text text-anchor="middle" x="130.5" y="-451.5" font-family="Helvetica,sans-Serif" font-size="10.00">unzOpen2_64</text>
</a>
</g>
</g>
<!-- Node1&#45;&gt;Node2 -->
<g id="edge1" class="edge"><title>Node1&#45;&gt;Node2</title>
<path fill="none" stroke="midnightblue" d="M32.6345,-302.607C41.0814,-324.258 63.5053,-378.008 92,-417 97.312,-424.269 104.084,-431.418 110.407,-437.466"/>
<polygon fill="midnightblue" stroke="midnightblue" points="108.298,-440.281 118.033,-444.462 113.03,-435.122 108.298,-440.281"/>
</g>
<!-- Node16 -->
<g id="node16" class="node"><title>Node16</title>
<g id="a_node16"><a xlink:href="unzip_8c.html#a73eb13cdd8085ee7901d3b8650aa5ae6" target="_top" xlink:title="unzGoToFirstFile2">
<polygon fill="white" stroke="black" points="550,-408.5 550,-427.5 647,-427.5 647,-408.5 550,-408.5"/>
<text text-anchor="middle" x="598.5" y="-415.5" font-family="Helvetica,sans-Serif" font-size="10.00">unzGoToFirstFile2</text>
</a>
</g>
</g>
<!-- Node1&#45;&gt;Node16 -->
<g id="edge48" class="edge"><title>Node1&#45;&gt;Node16</title>
<path fill="none" stroke="midnightblue" d="M36.3494,-302.572C47.0303,-315.707 68.1858,-338.946 92,-350 242.149,-419.695 442.561,-423.863 539.765,-421.04"/>
<polygon fill="midnightblue" stroke="midnightblue" points="540.092,-424.532 549.972,-420.707 539.863,-417.535 540.092,-424.532"/>
</g>
<!-- Node19 -->
<g id="node19" class="node"><title>Node19</title>
<g id="a_node19"><a xlink:href="unzip_8c.html#aa531745d380211390eb114f1870ef824" target="_top" xlink:title="unzOpen64">
<polygon fill="white" stroke="black" points="97.5,-491.5 97.5,-510.5 163.5,-510.5 163.5,-491.5 97.5,-491.5"/>
<text text-anchor="middle" x="130.5" y="-498.5" font-family="Helvetica,sans-Serif" font-size="10.00">unzOpen64</text>
</a>
</g>
</g>
<!-- Node1&#45;&gt;Node19 -->
<g id="edge46" class="edge"><title>Node1&#45;&gt;Node19</title>
<path fill="none" stroke="midnightblue" d="M30.3244,-302.509C34.6719,-330.919 50.6705,-416.678 92,-473 95.3648,-477.585 99.6933,-481.757 104.207,-485.397"/>
<polygon fill="midnightblue" stroke="midnightblue" points="102.223,-488.282 112.363,-491.353 106.351,-482.629 102.223,-488.282"/>
</g>
<!-- Node20 -->
<g id="node20" class="node"><title>Node20</title>
<g id="a_node20"><a xlink:href="file__utils_8c.html#a6d0adb35b2ec47f5a5d3d9c2e424532a" target="_top" xlink:title="mkdir_p">
<polygon fill="white" stroke="black" points="105,-321.5 105,-340.5 156,-340.5 156,-321.5 105,-321.5"/>
<text text-anchor="middle" x="130.5" y="-328.5" font-family="Helvetica,sans-Serif" font-size="10.00">mkdir_p</text>
</a>
</g>
</g>
<!-- Node1&#45;&gt;Node20 -->
<g id="edge49" class="edge"><title>Node1&#45;&gt;Node20</title>
<path fill="none" stroke="midnightblue" d="M54.3604,-302.589C66.807,-307.295 81.9792,-313.032 95.4228,-318.115"/>
<polygon fill="midnightblue" stroke="midnightblue" points="94.251,-321.414 104.843,-321.677 96.7267,-314.866 94.251,-321.414"/>
</g>
<!-- Node21 -->
<g id="node21" class="node"><title>Node21</title>
<g id="a_node21"><a xlink:href="unzip_8c.html#a0c26b010e6cf7e58cd558426f280fa98" target="_top" xlink:title="unzOpenCurrentFilePassword">
<polygon fill="white" stroke="black" points="205,-228.5 205,-247.5 352,-247.5 352,-228.5 205,-228.5"/>
<text text-anchor="middle" x="278.5" y="-235.5" font-family="Helvetica,sans-Serif" font-size="10.00">unzOpenCurrentFilePassword</text>
</a>
</g>
</g>
<!-- Node1&#45;&gt;Node21 -->
<g id="edge50" class="edge"><title>Node1&#45;&gt;Node21</title>
<path fill="none" stroke="midnightblue" d="M56.0669,-287.009C96.2812,-278.109 172.605,-261.216 224.268,-249.782"/>
<polygon fill="midnightblue" stroke="midnightblue" points="225.246,-253.15 234.253,-247.572 223.733,-246.315 225.246,-253.15"/>
</g>
<!-- Node23 -->
<g id="node23" class="node"><title>Node23</title>
<g id="a_node23"><a xlink:href="unzip_8c.html#ac48279e5325cfdabbc67a312b1d32700" target="_top" xlink:title="unzCloseCurrentFile">
<polygon fill="white" stroke="black" points="725.5,-79.5 725.5,-98.5 831.5,-98.5 831.5,-79.5 725.5,-79.5"/>
<text text-anchor="middle" x="778.5" y="-86.5" font-family="Helvetica,sans-Serif" font-size="10.00">unzCloseCurrentFile</text>
</a>
</g>
</g>
<!-- Node1&#45;&gt;Node23 -->
<g id="edge65" class="edge"><title>Node1&#45;&gt;Node23</title>
<path fill="none" stroke="midnightblue" d="M36.393,-283.411C64.029,-248.751 165.436,-132 277.5,-132 277.5,-132 277.5,-132 440.5,-132 540.36,-132 655.537,-113.192 722.091,-100.453"/>
<polygon fill="midnightblue" stroke="midnightblue" points="722.797,-103.882 731.948,-98.5431 721.465,-97.0099 722.797,-103.882"/>
</g>
<!-- Node26 -->
<g id="node26" class="node"><title>Node26</title>
<g id="a_node26"><a xlink:href="unzip_8c.html#a782029e380dc5ab5dab00361c9c14f58" target="_top" xlink:title="unzReadCurrentFile">
<polygon fill="white" stroke="black" points="726.5,-3.5 726.5,-22.5 830.5,-22.5 830.5,-3.5 726.5,-3.5"/>
<text text-anchor="middle" x="778.5" y="-10.5" font-family="Helvetica,sans-Serif" font-size="10.00">unzReadCurrentFile</text>
</a>
</g>
</g>
<!-- Node1&#45;&gt;Node26 -->
<g id="edge62" class="edge"><title>Node1&#45;&gt;Node26</title>
<path fill="none" stroke="midnightblue" d="M28.7528,-283.487C28.4578,-250.743 32.1868,-141.761 92,-88 154.46,-31.8592 193.517,-52 277.5,-52 277.5,-52 277.5,-52 440.5,-52 537.697,-52 649.625,-35.793 716.899,-24.2745"/>
<polygon fill="midnightblue" stroke="midnightblue" points="717.644,-27.6977 726.898,-22.5405 716.447,-20.8006 717.644,-27.6977"/>
</g>
<!-- Node27 -->
<g id="node27" class="node"><title>Node27</title>
<g id="a_node27"><a xlink:href="unzip_8c.html#a282ded2552d11c3d9a8bfd065428207d" target="_top" xlink:title="unzGoToNextFile2">
<polygon fill="white" stroke="black" points="229.5,-306.5 229.5,-325.5 327.5,-325.5 327.5,-306.5 229.5,-306.5"/>
<text text-anchor="middle" x="278.5" y="-313.5" font-family="Helvetica,sans-Serif" font-size="10.00">unzGoToNextFile2</text>
</a>
</g>
</g>
<!-- Node1&#45;&gt;Node27 -->
<g id="edge66" class="edge"><title>Node1&#45;&gt;Node27</title>
<path fill="none" stroke="midnightblue" d="M56.0669,-295.505C94.984,-299.107 167.719,-305.839 219.193,-310.603"/>
<polygon fill="midnightblue" stroke="midnightblue" points="218.908,-314.092 229.188,-311.528 219.553,-307.122 218.908,-314.092"/>
</g>
<!-- Node28 -->
<g id="node28" class="node"><title>Node28</title>
<g id="a_node28"><a xlink:href="unzip_8c.html#af6ab0ba88ab5da62747df8f9336f1bb3" target="_top" xlink:title="unzClose">
<polygon fill="white" stroke="black" points="569.5,-80.5 569.5,-99.5 627.5,-99.5 627.5,-80.5 569.5,-80.5"/>
<text text-anchor="middle" x="598.5" y="-87.5" font-family="Helvetica,sans-Serif" font-size="10.00">unzClose</text>
</a>
</g>
</g>
<!-- Node1&#45;&gt;Node28 -->
<g id="edge68" class="edge"><title>Node1&#45;&gt;Node28</title>
<path fill="none" stroke="midnightblue" d="M29.0668,-283.324C29.8577,-252.952 36.8443,-159.091 92,-118 165.426,-63.2983 454.153,-79.0885 559.104,-86.8629"/>
<polygon fill="midnightblue" stroke="midnightblue" points="559.014,-90.3661 569.25,-87.6323 559.544,-83.3861 559.014,-90.3661"/>
</g>
<!-- Node3 -->
<g id="node3" class="node"><title>Node3</title>
<g id="a_node3"><a xlink:href="unzip_8c.html#abf9f03bc622c0405d398cc0088216290" target="_top" xlink:title="unzOpenInternal">
<polygon fill="white" stroke="black" points="234.5,-510.5 234.5,-529.5 322.5,-529.5 322.5,-510.5 234.5,-510.5"/>
<text text-anchor="middle" x="278.5" y="-517.5" font-family="Helvetica,sans-Serif" font-size="10.00">unzOpenInternal</text>
</a>
</g>
</g>
<!-- Node2&#45;&gt;Node3 -->
<g id="edge2" class="edge"><title>Node2&#45;&gt;Node3</title>
<path fill="none" stroke="midnightblue" d="M152.73,-463.597C177.491,-474.79 218.624,-493.385 246.848,-506.144"/>
<polygon fill="midnightblue" stroke="midnightblue" points="245.691,-509.461 256.245,-510.391 248.574,-503.083 245.691,-509.461"/>
</g>
<!-- Node4 -->
<g id="node4" class="node"><title>Node4</title>
<g id="a_node4"><a xlink:href="ioapi_8h.html#a50e9e9d5c30e481de822ad68fe537986" target="_top" xlink:title="uLong">
<polygon fill="white" stroke="black" points="1510,-294.5 1510,-313.5 1553,-313.5 1553,-294.5 1510,-294.5"/>
<text text-anchor="middle" x="1531.5" y="-301.5" font-family="Helvetica,sans-Serif" font-size="10.00">uLong</text>
</a>
</g>
</g>
<!-- Node3&#45;&gt;Node4 -->
<g id="edge3" class="edge"><title>Node3&#45;&gt;Node4</title>
<path fill="none" stroke="midnightblue" d="M283.947,-510.285C307.876,-459.618 426.608,-228 597.5,-228 597.5,-228 597.5,-228 779.5,-228 1025.64,-228 1087.59,-228.029 1333,-247 1395.93,-251.865 1415.11,-241.291 1474,-264 1488.02,-269.405 1501.82,-279.068 1512.27,-287.543"/>
<polygon fill="midnightblue" stroke="midnightblue" points="1510.3,-290.464 1520.19,-294.262 1514.83,-285.125 1510.3,-290.464"/>
</g>
<!-- Node5 -->
<g id="node5" class="node"><title>Node5</title>
<g id="a_node5"><a xlink:href="ioapi_8h.html#a39ab6d73c1cd44bc17064c2dcbb3e753" target="_top" xlink:title="voidpf">
<polygon fill="white" stroke="black" points="1510,-598.5 1510,-617.5 1553,-617.5 1553,-598.5 1510,-598.5"/>
<text text-anchor="middle" x="1531.5" y="-605.5" font-family="Helvetica,sans-Serif" font-size="10.00">voidpf</text>
</a>
</g>
</g>
<!-- Node3&#45;&gt;Node5 -->
<g id="edge4" class="edge"><title>Node3&#45;&gt;Node5</title>
<path fill="none" stroke="midnightblue" d="M282.669,-529.837C301.76,-587.011 407.075,-874 597.5,-874 597.5,-874 597.5,-874 967.5,-874 1207.31,-874 1287.4,-838.624 1474,-688 1494.99,-671.059 1511.66,-644.397 1521.3,-626.565"/>
<polygon fill="midnightblue" stroke="midnightblue" points="1524.41,-628.172 1525.92,-617.685 1518.2,-624.942 1524.41,-628.172"/>
</g>
<!-- Node6 -->
<g id="node6" class="node"><title>Node6</title>
<g id="a_node6"><a xlink:href="ioapi_8c.html#aa67e4de04de04bf2d1694febd74bd16f" target="_top" xlink:title="fill_fopen64_filefunc">
<polygon fill="white" stroke="black" points="388,-434.5 388,-453.5 491,-453.5 491,-434.5 388,-434.5"/>
<text text-anchor="middle" x="439.5" y="-441.5" font-family="Helvetica,sans-Serif" font-size="10.00">fill_fopen64_filefunc</text>
</a>
</g>
</g>
<!-- Node3&#45;&gt;Node6 -->
<g id="edge5" class="edge"><title>Node3&#45;&gt;Node6</title>
<path fill="none" stroke="midnightblue" d="M296.094,-510.456C317.109,-498.563 354.609,-477.983 388,-463 392.415,-461.019 397.104,-459.064 401.777,-457.205"/>
<polygon fill="midnightblue" stroke="midnightblue" points="403.186,-460.413 411.254,-453.546 400.665,-453.883 403.186,-460.413"/>
</g>
<!-- Node7 -->
<g id="node7" class="node"><title>Node7</title>
<g id="a_node7"><a xlink:href="unzip_8c.html#a62c48825905347807e4daaf8451809e7" target="_top" xlink:title="unz64local_SearchCentralDir">
<polygon fill="white" stroke="black" points="527,-674.5 527,-693.5 670,-693.5 670,-674.5 527,-674.5"/>
<text text-anchor="middle" x="598.5" y="-681.5" font-family="Helvetica,sans-Serif" font-size="10.00">unz64local_SearchCentralDir</text>
</a>
</g>
</g>
<!-- Node3&#45;&gt;Node7 -->
<g id="edge6" class="edge"><title>Node3&#45;&gt;Node7</title>
<path fill="none" stroke="midnightblue" d="M283.635,-529.61C295.473,-555.811 332.265,-628.621 388,-660 426.672,-681.773 475.697,-688.307 516.598,-689.152"/>
<polygon fill="midnightblue" stroke="midnightblue" points="516.777,-692.654 526.811,-689.25 516.845,-685.654 516.777,-692.654"/>
</g>
<!-- Node8 -->
<g id="node8" class="node"><title>Node8</title>
<g id="a_node8"><a xlink:href="unzip_8c.html#ad6a67f9e44f1e69bfc5fbdf9c49faa7f" target="_top" xlink:title="unz64local_SearchCentral\lDir64">
<polygon fill="white" stroke="black" points="713,-549 713,-579 844,-579 844,-549 713,-549"/>
<text text-anchor="start" x="721" y="-567" font-family="Helvetica,sans-Serif" font-size="10.00">unz64local_SearchCentral</text>
<text text-anchor="middle" x="778.5" y="-556" font-family="Helvetica,sans-Serif" font-size="10.00">Dir64</text>
</a>
</g>
</g>
<!-- Node3&#45;&gt;Node8 -->
<g id="edge35" class="edge"><title>Node3&#45;&gt;Node8</title>
<path fill="none" stroke="midnightblue" d="M322.734,-526.097C342.59,-528.764 366.462,-531.782 388,-534 497.278,-545.251 624.203,-554.275 702.695,-559.385"/>
<polygon fill="midnightblue" stroke="midnightblue" points="702.764,-562.897 712.969,-560.05 703.215,-555.912 702.764,-562.897"/>
</g>
<!-- Node9 -->
<g id="node9" class="node"><title>Node9</title>
<g id="a_node9"><a xlink:href="unzip_8c.html#ad3fe51136556c1c4a1e964a157d153ba" target="_top" xlink:title="unz64local_getLong">
<polygon fill="white" stroke="black" points="915,-522.5 915,-541.5 1018,-541.5 1018,-522.5 915,-522.5"/>
<text text-anchor="middle" x="966.5" y="-529.5" font-family="Helvetica,sans-Serif" font-size="10.00">unz64local_getLong</text>
</a>
</g>
</g>
<!-- Node3&#45;&gt;Node9 -->
<g id="edge33" class="edge"><title>Node3&#45;&gt;Node9</title>
<path fill="none" stroke="midnightblue" d="M322.672,-520.755C440.552,-522.817 768.177,-528.548 904.632,-530.935"/>
<polygon fill="midnightblue" stroke="midnightblue" points="904.841,-534.439 914.9,-531.115 904.963,-527.44 904.841,-534.439"/>
</g>
<!-- Node12 -->
<g id="node12" class="node"><title>Node12</title>
<g id="a_node12"><a xlink:href="unzip_8c.html#aca92d6709924f9c82ce13f0c18cc26b1" target="_top" xlink:title="unz64local_getShort">
<polygon fill="white" stroke="black" points="1369,-560.5 1369,-579.5 1474,-579.5 1474,-560.5 1369,-560.5"/>
<text text-anchor="middle" x="1421.5" y="-567.5" font-family="Helvetica,sans-Serif" font-size="10.00">unz64local_getShort</text>
</a>
</g>
</g>
<!-- Node3&#45;&gt;Node12 -->
<g id="edge34" class="edge"><title>Node3&#45;&gt;Node12</title>
<path fill="none" stroke="midnightblue" d="M282.606,-529.535C292.615,-558.637 326.978,-646.837 388,-688 507.305,-768.477 562.736,-735.383 706,-749 923.313,-769.655 988.692,-774.337 1195,-703 1276.92,-674.673 1361.93,-614.74 1399.96,-586.012"/>
<polygon fill="midnightblue" stroke="midnightblue" points="1402.36,-588.589 1408.18,-579.737 1398.11,-583.026 1402.36,-588.589"/>
</g>
<!-- Node14 -->
<g id="node14" class="node"><title>Node14</title>
<g id="a_node14"><a xlink:href="unzip_8c.html#a65165fb74a10780ee7b66e9c6c57da3c" target="_top" xlink:title="unz64local_getLong64">
<polygon fill="white" stroke="black" points="1082,-674.5 1082,-693.5 1195,-693.5 1195,-674.5 1082,-674.5"/>
<text text-anchor="middle" x="1138.5" y="-681.5" font-family="Helvetica,sans-Serif" font-size="10.00">unz64local_getLong64</text>
</a>
</g>
</g>
<!-- Node3&#45;&gt;Node14 -->
<g id="edge36" class="edge"><title>Node3&#45;&gt;Node14</title>
<path fill="none" stroke="midnightblue" d="M292.994,-529.678C335.503,-559.182 471.309,-646 597.5,-646 597.5,-646 597.5,-646 779.5,-646 882.113,-646 1000.35,-661.629 1071.97,-672.84"/>
<polygon fill="midnightblue" stroke="midnightblue" points="1071.77,-676.352 1082.19,-674.46 1072.86,-669.438 1071.77,-676.352"/>
</g>
<!-- Node15 -->
<g id="node15" class="node"><title>Node15</title>
<g id="a_node15"><a xlink:href="unzip_8c.html#a54821c0b6da683800164a56f2ae14f33" target="_top" xlink:title="unzGoToFirstFile">
<polygon fill="white" stroke="black" points="393.5,-472.5 393.5,-491.5 485.5,-491.5 485.5,-472.5 393.5,-472.5"/>
<text text-anchor="middle" x="439.5" y="-479.5" font-family="Helvetica,sans-Serif" font-size="10.00">unzGoToFirstFile</text>
</a>
</g>
</g>
<!-- Node3&#45;&gt;Node15 -->
<g id="edge37" class="edge"><title>Node3&#45;&gt;Node15</title>
<path fill="none" stroke="midnightblue" d="M319.622,-510.411C340.604,-505.396 366.482,-499.212 388.73,-493.895"/>
<polygon fill="midnightblue" stroke="midnightblue" points="389.754,-497.249 398.666,-491.52 388.126,-490.44 389.754,-497.249"/>
</g>
<!-- Node7&#45;&gt;Node4 -->
<g id="edge7" class="edge"><title>Node7&#45;&gt;Node4</title>
<path fill="none" stroke="midnightblue" d="M600.209,-674.474C603.683,-634.471 622.321,-478.215 706,-393 928.501,-166.415 1379.67,-264.214 1500.28,-295.623"/>
<polygon fill="midnightblue" stroke="midnightblue" points="1499.41,-299.012 1509.97,-298.19 1501.2,-292.246 1499.41,-299.012"/>
</g>
<!-- Node7&#45;&gt;Node5 -->
<g id="edge32" class="edge"><title>Node7&#45;&gt;Node5</title>
<path fill="none" stroke="midnightblue" d="M626.647,-693.625C686.83,-714.076 836.355,-760 965.5,-760 965.5,-760 965.5,-760 1139.5,-760 1289.52,-760 1451.26,-661.595 1508.73,-623.141"/>
<polygon fill="midnightblue" stroke="midnightblue" points="1510.73,-626.016 1517.05,-617.508 1506.8,-620.221 1510.73,-626.016"/>
</g>
<!-- Node7&#45;&gt;Node8 -->
<g id="edge8" class="edge"><title>Node7&#45;&gt;Node8</title>
<path fill="none" stroke="midnightblue" d="M613.766,-674.383C642.527,-654.993 708.036,-610.829 746.913,-584.62"/>
<polygon fill="midnightblue" stroke="midnightblue" points="748.914,-587.492 755.249,-579 745.001,-581.688 748.914,-587.492"/>
</g>
<!-- Node13 -->
<g id="node13" class="node"><title>Node13</title>
<g id="a_node13"><a xlink:href="unzip_8c.html#a5f1693991177fe0570e4c9bf0b95e510" target="_top" xlink:title="OF">
<polygon fill="white" stroke="black" points="1516.5,-769.5 1516.5,-788.5 1546.5,-788.5 1546.5,-769.5 1516.5,-769.5"/>
<text text-anchor="middle" x="1531.5" y="-776.5" font-family="Helvetica,sans-Serif" font-size="10.00">OF</text>
</a>
</g>
</g>
<!-- Node7&#45;&gt;Node13 -->
<g id="edge31" class="edge"><title>Node7&#45;&gt;Node13</title>
<path fill="none" stroke="midnightblue" d="M612.612,-693.721C632.072,-707.739 670.167,-733.63 706,-749 927.827,-844.15 991.506,-857.942 1231,-888 1338.16,-901.449 1381.72,-944.108 1474,-888 1506.05,-868.515 1520.73,-824.319 1526.78,-798.588"/>
<polygon fill="midnightblue" stroke="midnightblue" points="1530.27,-799.028 1528.93,-788.518 1523.42,-797.568 1530.27,-799.028"/>
</g>
<!-- Node8&#45;&gt;Node4 -->
<g id="edge9" class="edge"><title>Node8&#45;&gt;Node4</title>
<path fill="none" stroke="midnightblue" d="M808.705,-548.887C830.073,-538.141 859.935,-523.763 887,-513 1117.95,-421.154 1406.74,-338.354 1499.98,-312.393"/>
<polygon fill="midnightblue" stroke="midnightblue" points="1501.17,-315.694 1509.87,-309.647 1499.3,-308.949 1501.17,-315.694"/>
</g>
<!-- Node8&#45;&gt;Node9 -->
<g id="edge10" class="edge"><title>Node8&#45;&gt;Node9</title>
<path fill="none" stroke="midnightblue" d="M844.032,-552.898C863.778,-549.501 885.419,-545.777 904.895,-542.427"/>
<polygon fill="midnightblue" stroke="midnightblue" points="905.598,-545.857 914.86,-540.712 904.411,-538.959 905.598,-545.857"/>
</g>
<!-- Node8&#45;&gt;Node14 -->
<g id="edge30" class="edge"><title>Node8&#45;&gt;Node14</title>
<path fill="none" stroke="midnightblue" d="M844.087,-577.296C911.051,-591.644 1010.78,-614.751 1046,-632 1064.2,-640.916 1064.56,-649.673 1082,-660 1088.4,-663.787 1095.5,-667.316 1102.43,-670.439"/>
<polygon fill="midnightblue" stroke="midnightblue" points="1101.12,-673.687 1111.69,-674.432 1103.9,-667.259 1101.12,-673.687"/>
</g>
<!-- Node9&#45;&gt;Node4 -->
<g id="edge11" class="edge"><title>Node9&#45;&gt;Node4</title>
<path fill="none" stroke="midnightblue" d="M990.975,-522.493C1080.51,-486.235 1400.52,-356.638 1500.46,-316.166"/>
<polygon fill="midnightblue" stroke="midnightblue" points="1502,-319.316 1509.96,-312.319 1499.38,-312.828 1502,-319.316"/>
</g>
<!-- Node9&#45;&gt;Node5 -->
<g id="edge29" class="edge"><title>Node9&#45;&gt;Node5</title>
<path fill="none" stroke="midnightblue" d="M1016.17,-522.483C1109.58,-506.602 1318.49,-482.735 1474,-551 1492.45,-559.1 1508.09,-576.24 1518.2,-589.621"/>
<polygon fill="midnightblue" stroke="midnightblue" points="1515.62,-592.03 1524.29,-598.126 1521.31,-587.957 1515.62,-592.03"/>
</g>
<!-- Node10 -->
<g id="node10" class="node"><title>Node10</title>
<g id="a_node10"><a xlink:href="unzip_8c.html#a4fdc20c5d880511c727c425b1f11ef68" target="_top" xlink:title="unz64local_getByte">
<polygon fill="white" stroke="black" points="1231,-560.5 1231,-579.5 1333,-579.5 1333,-560.5 1231,-560.5"/>
<text text-anchor="middle" x="1282" y="-567.5" font-family="Helvetica,sans-Serif" font-size="10.00">unz64local_getByte</text>
</a>
</g>
</g>
<!-- Node9&#45;&gt;Node10 -->
<g id="edge12" class="edge"><title>Node9&#45;&gt;Node10</title>
<path fill="none" stroke="midnightblue" d="M1018.23,-538.221C1038.11,-540.654 1061.13,-543.465 1082,-546 1128.56,-551.654 1181.24,-558.006 1220.71,-562.755"/>
<polygon fill="midnightblue" stroke="midnightblue" points="1220.35,-566.237 1230.7,-563.957 1221.19,-559.287 1220.35,-566.237"/>
</g>
<!-- Node9&#45;&gt;Node13 -->
<g id="edge28" class="edge"><title>Node9&#45;&gt;Node13</title>
<path fill="none" stroke="midnightblue" d="M1018.14,-536.006C1027.88,-538.307 1037.64,-541.783 1046,-547 1068.62,-561.121 1060.91,-578.686 1082,-595 1153.98,-650.673 1424.39,-743.585 1506.63,-771.096"/>
<polygon fill="midnightblue" stroke="midnightblue" points="1505.52,-774.417 1516.11,-774.259 1507.73,-767.776 1505.52,-774.417"/>
</g>
<!-- Node9&#45;&gt;Node14 -->
<g id="edge23" class="edge"><title>Node9&#45;&gt;Node14</title>
<path fill="none" stroke="midnightblue" d="M1018.2,-539.902C1028.38,-543.45 1038.31,-548.581 1046,-556 1081.21,-589.949 1048.73,-624.142 1082,-660 1085.52,-663.799 1089.75,-667.025 1094.28,-669.758"/>
<polygon fill="midnightblue" stroke="midnightblue" points="1092.77,-672.918 1103.26,-674.427 1096,-666.707 1092.77,-672.918"/>
</g>
<!-- Node10&#45;&gt;Node4 -->
<g id="edge22" class="edge"><title>Node10&#45;&gt;Node4</title>
<path fill="none" stroke="midnightblue" d="M1298.4,-560.494C1333.36,-538.309 1419.85,-479.893 1474,-413 1496.69,-384.968 1514.07,-346.374 1523.24,-323.426"/>
<polygon fill="midnightblue" stroke="midnightblue" points="1526.62,-324.394 1526.98,-313.805 1520.1,-321.863 1526.62,-324.394"/>
</g>
<!-- Node10&#45;&gt;Node5 -->
<g id="edge21" class="edge"><title>Node10&#45;&gt;Node5</title>
<path fill="none" stroke="midnightblue" d="M1322.23,-579.536C1336.84,-582.86 1353.62,-586.403 1369,-589 1414.14,-596.623 1466.9,-602.212 1499.51,-605.286"/>
<polygon fill="midnightblue" stroke="midnightblue" points="1499.48,-608.797 1509.76,-606.231 1500.12,-601.827 1499.48,-608.797"/>
</g>
<!-- Node11 -->
<g id="node11" class="node"><title>Node11</title>
<g id="a_node11"><a xlink:href="ioapi_8h.html#a787fa3cf048117ba7123753c1e74fcd6" target="_top" xlink:title="int">
<polygon fill="white" stroke="black" points="1407,-85.5 1407,-104.5 1436,-104.5 1436,-85.5 1407,-85.5"/>
<text text-anchor="middle" x="1421.5" y="-92.5" font-family="Helvetica,sans-Serif" font-size="10.00">int</text>
</a>
</g>
</g>
<!-- Node10&#45;&gt;Node11 -->
<g id="edge13" class="edge"><title>Node10&#45;&gt;Node11</title>
<path fill="none" stroke="midnightblue" d="M1285.87,-560.079C1302.96,-501.039 1391.33,-195.784 1414.78,-114.762"/>
<polygon fill="midnightblue" stroke="midnightblue" points="1418.23,-115.445 1417.64,-104.866 1411.5,-113.499 1418.23,-115.445"/>
</g>
<!-- Node10&#45;&gt;Node12 -->
<g id="edge14" class="edge"><title>Node10&#45;&gt;Node12</title>
<path fill="none" stroke="midnightblue" d="M1333.03,-563.478C1341.42,-563.269 1350.21,-563.204 1358.85,-563.282"/>
<polygon fill="midnightblue" stroke="midnightblue" points="1358.84,-566.782 1368.89,-563.44 1358.95,-559.783 1358.84,-566.782"/>
</g>
<!-- Node10&#45;&gt;Node13 -->
<g id="edge20" class="edge"><title>Node10&#45;&gt;Node13</title>
<path fill="none" stroke="midnightblue" d="M1294.28,-579.523C1333.25,-612.437 1462.55,-721.624 1511.5,-762.956"/>
<polygon fill="midnightblue" stroke="midnightblue" points="1509.26,-765.643 1519.16,-769.421 1513.77,-760.295 1509.26,-765.643"/>
</g>
<!-- Node12&#45;&gt;Node4 -->
<g id="edge15" class="edge"><title>Node12&#45;&gt;Node4</title>
<path fill="none" stroke="midnightblue" d="M1426.77,-560.493C1435.77,-540.394 1457.23,-492.056 1474,-451 1492.61,-405.438 1512.98,-351.271 1523.44,-323.126"/>
<polygon fill="midnightblue" stroke="midnightblue" points="1526.74,-324.279 1526.94,-313.686 1520.18,-321.847 1526.74,-324.279"/>
</g>
<!-- Node12&#45;&gt;Node5 -->
<g id="edge19" class="edge"><title>Node12&#45;&gt;Node5</title>
<path fill="none" stroke="midnightblue" d="M1449.75,-579.589C1465.03,-584.964 1484.12,-591.683 1499.91,-597.237"/>
<polygon fill="midnightblue" stroke="midnightblue" points="1499.14,-600.675 1509.73,-600.693 1501.46,-594.072 1499.14,-600.675"/>
</g>
<!-- Node12&#45;&gt;Node9 -->
<g id="edge17" class="edge"><title>Node12&#45;&gt;Node9</title>
<path fill="none" stroke="midnightblue" d="M1385.02,-579.508C1369.22,-583.273 1350.31,-587.142 1333,-589 1221.66,-600.95 1188.05,-602.953 1082,-567 1064.67,-561.124 1063.21,-553.241 1046,-547 1040.4,-544.969 1034.47,-543.198 1028.48,-541.656"/>
<polygon fill="midnightblue" stroke="midnightblue" points="1028.93,-538.165 1018.39,-539.272 1027.32,-544.978 1028.93,-538.165"/>
</g>
<!-- Node12&#45;&gt;Node10 -->
<g id="edge16" class="edge"><title>Node12&#45;&gt;Node10</title>
<path fill="none" stroke="midnightblue" d="M1368.89,-576.56C1360.45,-576.751 1351.65,-576.798 1343.03,-576.701"/>
<polygon fill="midnightblue" stroke="midnightblue" points="1343.09,-573.202 1333.03,-576.522 1342.97,-580.201 1343.09,-573.202"/>
</g>
<!-- Node12&#45;&gt;Node13 -->
<g id="edge18" class="edge"><title>Node12&#45;&gt;Node13</title>
<path fill="none" stroke="midnightblue" d="M1432.36,-579.752C1443.65,-591.355 1462.11,-611.718 1474,-632 1499,-674.671 1516.88,-730.434 1525.22,-759.483"/>
<polygon fill="midnightblue" stroke="midnightblue" points="1521.88,-760.537 1527.94,-769.225 1528.62,-758.652 1521.88,-760.537"/>
</g>
<!-- Node14&#45;&gt;Node5 -->
<g id="edge27" class="edge"><title>Node14&#45;&gt;Node5</title>
<path fill="none" stroke="midnightblue" d="M1188.62,-674.452C1270.39,-658.558 1432.1,-627.126 1499.68,-613.99"/>
<polygon fill="midnightblue" stroke="midnightblue" points="1500.55,-617.388 1509.7,-612.044 1499.21,-610.516 1500.55,-617.388"/>
</g>
<!-- Node14&#45;&gt;Node7 -->
<g id="edge25" class="edge"><title>Node14&#45;&gt;Node7</title>
<path fill="none" stroke="midnightblue" d="M1081.92,-684C986.408,-684 790.755,-684 680.209,-684"/>
<polygon fill="midnightblue" stroke="midnightblue" points="680.111,-680.5 670.111,-684 680.11,-687.5 680.111,-680.5"/>
</g>
<!-- Node14&#45;&gt;Node10 -->
<g id="edge24" class="edge"><title>Node14&#45;&gt;Node10</title>
<path fill="none" stroke="midnightblue" d="M1151.56,-674.28C1175.9,-654.678 1231.07,-610.228 1260.92,-586.177"/>
<polygon fill="midnightblue" stroke="midnightblue" points="1263.37,-588.694 1268.97,-579.695 1258.98,-583.243 1263.37,-588.694"/>
</g>
<!-- Node14&#45;&gt;Node13 -->
<g id="edge26" class="edge"><title>Node14&#45;&gt;Node13</title>
<path fill="none" stroke="midnightblue" d="M1153.82,-693.638C1171.37,-705.082 1202.3,-724.112 1231,-736 1289.77,-760.348 1306.1,-764.504 1369,-774 1417.14,-781.266 1474.22,-780.979 1506.01,-780.04"/>
<polygon fill="midnightblue" stroke="midnightblue" points="1506.26,-783.533 1516.14,-779.692 1506.02,-776.537 1506.26,-783.533"/>
</g>
<!-- Node15&#45;&gt;Node16 -->
<g id="edge38" class="edge"><title>Node15&#45;&gt;Node16</title>
<path fill="none" stroke="midnightblue" d="M466.527,-472.434C474.414,-469.475 483.083,-466.16 491,-463 516.427,-452.849 544.992,-440.741 566.133,-431.642"/>
<polygon fill="midnightblue" stroke="midnightblue" points="567.783,-434.742 575.577,-427.565 565.009,-428.315 567.783,-434.742"/>
</g>
<!-- Node17 -->
<g id="node17" class="node"><title>Node17</title>
<g id="a_node17"><a xlink:href="unzip_8c.html#a7e95bff78b7b5e9e99e30b28d68da361" target="_top" xlink:title="unz64local_GetCurrentFile\lInfoInternal">
<polygon fill="white" stroke="black" points="712.5,-403 712.5,-433 844.5,-433 844.5,-403 712.5,-403"/>
<text text-anchor="start" x="720.5" y="-421" font-family="Helvetica,sans-Serif" font-size="10.00">unz64local_GetCurrentFile</text>
<text text-anchor="middle" x="778.5" y="-410" font-family="Helvetica,sans-Serif" font-size="10.00">InfoInternal</text>
</a>
</g>
</g>
<!-- Node16&#45;&gt;Node17 -->
<g id="edge39" class="edge"><title>Node16&#45;&gt;Node17</title>
<path fill="none" stroke="midnightblue" d="M647.201,-418C664.057,-418 683.453,-418 702.043,-418"/>
<polygon fill="midnightblue" stroke="midnightblue" points="702.266,-421.5 712.266,-418 702.266,-414.5 702.266,-421.5"/>
</g>
<!-- Node17&#45;&gt;Node4 -->
<g id="edge40" class="edge"><title>Node17&#45;&gt;Node4</title>
<path fill="none" stroke="midnightblue" d="M801.43,-402.986C822.396,-389.477 855.403,-370.358 887,-361 1114.57,-293.598 1405.63,-298.681 1499.71,-302.468"/>
<polygon fill="midnightblue" stroke="midnightblue" points="1499.8,-305.975 1509.94,-302.908 1500.1,-298.982 1499.8,-305.975"/>
</g>
<!-- Node17&#45;&gt;Node9 -->
<g id="edge41" class="edge"><title>Node17&#45;&gt;Node9</title>
<path fill="none" stroke="midnightblue" d="M804.199,-433.138C839.94,-455.044 905.677,-495.334 941.195,-517.104"/>
<polygon fill="midnightblue" stroke="midnightblue" points="939.595,-520.228 949.95,-522.47 943.253,-514.26 939.595,-520.228"/>
</g>
<!-- Node17&#45;&gt;Node10 -->
<g id="edge45" class="edge"><title>Node17&#45;&gt;Node10</title>
<path fill="none" stroke="midnightblue" d="M831.446,-433.055C910.229,-455.988 1064.57,-501.311 1195,-542 1210.59,-546.863 1227.71,-552.396 1242.54,-557.252"/>
<polygon fill="midnightblue" stroke="midnightblue" points="1241.8,-560.693 1252.39,-560.489 1243.98,-554.043 1241.8,-560.693"/>
</g>
<!-- Node17&#45;&gt;Node12 -->
<g id="edge42" class="edge"><title>Node17&#45;&gt;Node12</title>
<path fill="none" stroke="midnightblue" d="M844.729,-421.286C899.06,-424.929 978.22,-432.35 1046,-447 1175.53,-474.996 1323.37,-531.014 1387.72,-556.644"/>
<polygon fill="midnightblue" stroke="midnightblue" points="1386.73,-560.018 1397.31,-560.488 1389.33,-553.52 1386.73,-560.018"/>
</g>
<!-- Node17&#45;&gt;Node14 -->
<g id="edge44" class="edge"><title>Node17&#45;&gt;Node14</title>
<path fill="none" stroke="midnightblue" d="M787.173,-433.214C802.2,-461.342 838.338,-521.31 887,-551 948.61,-588.591 989.274,-539.378 1046,-584 1075.38,-607.108 1055.12,-634.028 1082,-660 1086.01,-663.875 1090.75,-667.176 1095.73,-669.973"/>
<polygon fill="midnightblue" stroke="midnightblue" points="1094.36,-673.2 1104.88,-674.48 1097.46,-666.921 1094.36,-673.2"/>
</g>
<!-- Node18 -->
<g id="node18" class="node"><title>Node18</title>
<g id="a_node18"><a xlink:href="unzip_8c.html#a48f0609b270f39b1243d76e69cc6173f" target="_top" xlink:title="unz64local_DosDateToTmuDate">
<polygon fill="white" stroke="black" points="887,-370.5 887,-389.5 1046,-389.5 1046,-370.5 887,-370.5"/>
<text text-anchor="middle" x="966.5" y="-377.5" font-family="Helvetica,sans-Serif" font-size="10.00">unz64local_DosDateToTmuDate</text>
</a>
</g>
</g>
<!-- Node17&#45;&gt;Node18 -->
<g id="edge43" class="edge"><title>Node17&#45;&gt;Node18</title>
<path fill="none" stroke="midnightblue" d="M844.554,-404.709C865.525,-400.425 888.585,-395.714 908.896,-391.564"/>
<polygon fill="midnightblue" stroke="midnightblue" points="909.835,-394.945 918.932,-389.514 908.434,-388.087 909.835,-394.945"/>
</g>
<!-- Node19&#45;&gt;Node3 -->
<g id="edge47" class="edge"><title>Node19&#45;&gt;Node3</title>
<path fill="none" stroke="midnightblue" d="M163.54,-505.17C181.349,-507.487 203.966,-510.43 224.348,-513.083"/>
<polygon fill="midnightblue" stroke="midnightblue" points="224.086,-516.578 234.454,-514.398 224.989,-509.637 224.086,-516.578"/>
</g>
<!-- Node22 -->
<g id="node22" class="node"><title>Node22</title>
<g id="a_node22"><a xlink:href="unzip_8c.html#a5eb86267fb9a5e4f52a123df606b2af5" target="_top" xlink:title="unzOpenCurrentFile3">
<polygon fill="white" stroke="black" points="544,-161.5 544,-180.5 653,-180.5 653,-161.5 544,-161.5"/>
<text text-anchor="middle" x="598.5" y="-168.5" font-family="Helvetica,sans-Serif" font-size="10.00">unzOpenCurrentFile3</text>
</a>
</g>
</g>
<!-- Node21&#45;&gt;Node22 -->
<g id="edge51" class="edge"><title>Node21&#45;&gt;Node22</title>
<path fill="none" stroke="midnightblue" d="M321.979,-228.446C341.993,-223.986 366.207,-218.646 388,-214 439.436,-203.033 498.089,-191.038 540.227,-182.51"/>
<polygon fill="midnightblue" stroke="midnightblue" points="540.922,-185.941 550.03,-180.528 539.535,-179.079 540.922,-185.941"/>
</g>
<!-- Node22&#45;&gt;Node5 -->
<g id="edge61" class="edge"><title>Node22&#45;&gt;Node5</title>
<path fill="none" stroke="midnightblue" d="M631.448,-180.602C771.965,-223.278 1334.26,-398.795 1474,-516 1497.71,-535.887 1514.34,-568.39 1523.16,-588.963"/>
<polygon fill="midnightblue" stroke="midnightblue" points="1519.93,-590.319 1526.95,-598.251 1526.41,-587.67 1519.93,-590.319"/>
</g>
<!-- Node22&#45;&gt;Node11 -->
<g id="edge60" class="edge"><title>Node22&#45;&gt;Node11</title>
<path fill="none" stroke="midnightblue" d="M638.355,-161.437C658.493,-156.593 683.515,-150.748 706,-146 786.085,-129.087 805.799,-122.296 887,-112 973.169,-101.074 995.265,-103.637 1082,-99 1148.18,-95.4621 1164.74,-94.3336 1231,-93 1290.36,-91.8052 1360.2,-93.2889 1396.25,-94.2684"/>
<polygon fill="midnightblue" stroke="midnightblue" points="1396.61,-97.78 1406.71,-94.5647 1396.81,-90.7828 1396.61,-97.78"/>
</g>
<!-- Node22&#45;&gt;Node23 -->
<g id="edge52" class="edge"><title>Node22&#45;&gt;Node23</title>
<path fill="none" stroke="midnightblue" d="M635.173,-161.439C646.731,-157.546 659.316,-152.424 670,-146 688.601,-134.815 687.305,-124.027 706,-113 713.377,-108.649 721.651,-104.955 729.883,-101.866"/>
<polygon fill="midnightblue" stroke="midnightblue" points="731.186,-105.118 739.471,-98.5141 728.877,-98.51 731.186,-105.118"/>
</g>
<!-- Node24 -->
<g id="node24" class="node"><title>Node24</title>
<g id="a_node24"><a xlink:href="unzip_8c.html#a907fed0cb410e6a8ab58c69f13738aee" target="_top" xlink:title="unz64local_CheckCurrentFile\lCoherencyHeader">
<polygon fill="white" stroke="black" points="706,-156 706,-186 851,-186 851,-156 706,-156"/>
<text text-anchor="start" x="714" y="-174" font-family="Helvetica,sans-Serif" font-size="10.00">unz64local_CheckCurrentFile</text>
<text text-anchor="middle" x="778.5" y="-163" font-family="Helvetica,sans-Serif" font-size="10.00">CoherencyHeader</text>
</a>
</g>
</g>
<!-- Node22&#45;&gt;Node24 -->
<g id="edge53" class="edge"><title>Node22&#45;&gt;Node24</title>
<path fill="none" stroke="midnightblue" d="M653.389,-171C666.646,-171 681.14,-171 695.397,-171"/>
<polygon fill="midnightblue" stroke="midnightblue" points="695.715,-174.5 705.715,-171 695.715,-167.5 695.715,-174.5"/>
</g>
<!-- Node24&#45;&gt;Node4 -->
<g id="edge54" class="edge"><title>Node24&#45;&gt;Node4</title>
<path fill="none" stroke="midnightblue" d="M851.1,-164.962C923.327,-159.399 1038.07,-152 1137.5,-152 1137.5,-152 1137.5,-152 1283,-152 1368.56,-152 1405.38,-124.902 1474,-176 1509.26,-202.255 1522.9,-255.358 1527.87,-284.228"/>
<polygon fill="midnightblue" stroke="midnightblue" points="1524.44,-284.972 1529.42,-294.325 1531.36,-283.909 1524.44,-284.972"/>
</g>
<!-- Node24&#45;&gt;Node9 -->
<g id="edge57" class="edge"><title>Node24&#45;&gt;Node9</title>
<path fill="none" stroke="midnightblue" d="M786.07,-186.175C802.193,-223.124 845.434,-320.486 887,-399 909.248,-441.024 938.343,-488.651 954.123,-513.95"/>
<polygon fill="midnightblue" stroke="midnightblue" points="951.201,-515.879 959.476,-522.495 957.133,-512.163 951.201,-515.879"/>
</g>
<!-- Node24&#45;&gt;Node11 -->
<g id="edge59" class="edge"><title>Node24&#45;&gt;Node11</title>
<path fill="none" stroke="midnightblue" d="M821.086,-155.922C840.808,-149.371 864.853,-142.239 887,-138 1081.02,-100.861 1320.7,-95.7511 1396.41,-95.0862"/>
<polygon fill="midnightblue" stroke="midnightblue" points="1396.77,-98.5839 1406.75,-95.0152 1396.73,-91.5841 1396.77,-98.5839"/>
</g>
<!-- Node24&#45;&gt;Node12 -->
<g id="edge58" class="edge"><title>Node24&#45;&gt;Node12</title>
<path fill="none" stroke="midnightblue" d="M851.072,-184.408C906.594,-196.739 984.238,-218.297 1046,-252 1204.84,-338.679 1357.61,-500.085 1405.28,-552.836"/>
<polygon fill="midnightblue" stroke="midnightblue" points="1402.73,-555.235 1412.02,-560.341 1407.94,-550.56 1402.73,-555.235"/>
</g>
<!-- Node25 -->
<g id="node25" class="node"><title>Node25</title>
<g id="a_node25"><a xlink:href="unzip_8c.html#aeec38a873a7b86a540fa27279f83a864" target="_top" xlink:title="unzGoToNextDisk">
<polygon fill="white" stroke="black" points="917.5,-28.5 917.5,-47.5 1015.5,-47.5 1015.5,-28.5 917.5,-28.5"/>
<text text-anchor="middle" x="966.5" y="-35.5" font-family="Helvetica,sans-Serif" font-size="10.00">unzGoToNextDisk</text>
</a>
</g>
</g>
<!-- Node24&#45;&gt;Node25 -->
<g id="edge55" class="edge"><title>Node24&#45;&gt;Node25</title>
<path fill="none" stroke="midnightblue" d="M800.837,-155.743C836.375,-130.331 907.34,-79.5873 943.388,-53.8116"/>
<polygon fill="midnightblue" stroke="midnightblue" points="945.658,-56.4907 951.757,-47.8271 941.587,-50.7966 945.658,-56.4907"/>
</g>
<!-- Node25&#45;&gt;Node11 -->
<g id="edge56" class="edge"><title>Node25&#45;&gt;Node11</title>
<path fill="none" stroke="midnightblue" d="M1015.73,-36.6849C1086.25,-35.7662 1221.28,-37.8244 1333,-62 1355.68,-66.9084 1380.32,-76.6243 1397.65,-84.2485"/>
<polygon fill="midnightblue" stroke="midnightblue" points="1396.39,-87.5187 1406.94,-88.4437 1399.27,-81.1388 1396.39,-87.5187"/>
</g>
<!-- Node26&#45;&gt;Node4 -->
<g id="edge64" class="edge"><title>Node26&#45;&gt;Node4</title>
<path fill="none" stroke="midnightblue" d="M830.76,-9.96848C900.24,-6.12709 1028.19,-0 1137.5,-0 1137.5,-0 1137.5,-0 1283,-0 1374.36,-0 1413.93,-7.16325 1474,-76 1527.41,-137.206 1531.91,-241.209 1531.28,-284.347"/>
<polygon fill="midnightblue" stroke="midnightblue" points="1527.78,-284.292 1531.02,-294.38 1534.78,-284.475 1527.78,-284.292"/>
</g>
<!-- Node26&#45;&gt;Node25 -->
<g id="edge63" class="edge"><title>Node26&#45;&gt;Node25</title>
<path fill="none" stroke="midnightblue" d="M830.818,-19.8975C854.434,-23.0717 882.571,-26.8537 907.006,-30.1379"/>
<polygon fill="midnightblue" stroke="midnightblue" points="906.85,-33.6483 917.227,-31.5117 907.782,-26.7107 906.85,-33.6483"/>
</g>
<!-- Node27&#45;&gt;Node17 -->
<g id="edge67" class="edge"><title>Node27&#45;&gt;Node17</title>
<path fill="none" stroke="midnightblue" d="M325.903,-325.504C412.219,-343.183 598.14,-381.264 702.507,-402.64"/>
<polygon fill="midnightblue" stroke="midnightblue" points="701.847,-406.077 712.346,-404.655 703.252,-399.22 701.847,-406.077"/>
</g>
<!-- Node28&#45;&gt;Node13 -->
<g id="edge71" class="edge"><title>Node28&#45;&gt;Node13</title>
<path fill="none" stroke="midnightblue" d="M616.55,-99.5916C633.366,-110.077 658.211,-128.555 670,-152 713.675,-238.856 646.218,-511.335 706,-588 895.582,-831.121 1061.94,-764.411 1369,-792 1415.48,-796.176 1427.63,-797.266 1474,-792 1484.72,-790.782 1496.37,-788.304 1506.3,-785.835"/>
<polygon fill="midnightblue" stroke="midnightblue" points="1507.47,-789.145 1516.26,-783.219 1505.7,-782.374 1507.47,-789.145"/>
</g>
<!-- Node28&#45;&gt;Node23 -->
<g id="edge69" class="edge"><title>Node28&#45;&gt;Node23</title>
<path fill="none" stroke="midnightblue" d="M627.705,-89.8415C651.118,-89.71 685.284,-89.5181 715.076,-89.3507"/>
<polygon fill="midnightblue" stroke="midnightblue" points="715.426,-92.8489 725.406,-89.2927 715.387,-85.849 715.426,-92.8489"/>
</g>
<!-- Node28&#45;&gt;Node25 -->
<g id="edge70" class="edge"><title>Node28&#45;&gt;Node25</title>
<path fill="none" stroke="midnightblue" d="M627.894,-84.1644C649.301,-79.8874 679.417,-74.1309 706,-70 774.754,-59.3159 854.207,-49.9538 906.898,-44.161"/>
<polygon fill="midnightblue" stroke="midnightblue" points="907.508,-47.6154 917.069,-43.0507 906.748,-40.6568 907.508,-47.6154"/>
</g>
</g>
</svg>
        <g id="navigator" transform="translate(0 0)" fill="#404254">
                <rect fill="#f2f5e9" fill-opacity="0.5" stroke="#606060" stroke-width=".5" x="0" y="0" width="60" height="60"/>
                <use id="zoomplus" xlink:href="#zoomPlus" x="17" y="9" onmousedown="handleZoom(evt,'in')"/>
                <use id="zoomminus" xlink:href="#zoomMin" x="42" y="9" onmousedown="handleZoom(evt,'out')"/>
                <use id="reset" xlink:href="#resetDef" x="30" y="36" onmousedown="handleReset()"/>
                <g id="arrowUp" xlink:href="#dirArrow" transform="translate(30 24)" onmousedown="handlePan(0,-1)">
                  <use xlink:href="#rim" fill="#404040">
                        <set attributeName="fill" to="#808080" begin="arrowUp.mouseover" end="arrowUp.mouseout"/>
                  </use>
                  <path fill="none" stroke="white" stroke-width="1.5" d="M0,-3.0v7 M-2.5,-0.5L0,-3.0L2.5,-0.5"/>
                </g>
                <g id="arrowRight" xlink:href="#dirArrow" transform="rotate(90) translate(36 -43)" onmousedown="handlePan(1,0)">
                  <use xlink:href="#rim" fill="#404040">
                        <set attributeName="fill" to="#808080" begin="arrowRight.mouseover" end="arrowRight.mouseout"/>
                  </use>
                  <path fill="none" stroke="white" stroke-width="1.5" d="M0,-3.0v7 M-2.5,-0.5L0,-3.0L2.5,-0.5"/>
                </g>
                <g id="arrowDown" xlink:href="#dirArrow" transform="rotate(180) translate(-30 -48)" onmousedown="handlePan(0,1)">
                  <use xlink:href="#rim" fill="#404040">
                        <set attributeName="fill" to="#808080" begin="arrowDown.mouseover" end="arrowDown.mouseout"/>
                  </use>
                  <path fill="none" stroke="white" stroke-width="1.5" d="M0,-3.0v7 M-2.5,-0.5L0,-3.0L2.5,-0.5"/>
                </g>
                <g id="arrowLeft" xlink:href="#dirArrow" transform="rotate(270) translate(-36 17)" onmousedown="handlePan(-1,0)">
                  <use xlink:href="#rim" fill="#404040">
                        <set attributeName="fill" to="#808080" begin="arrowLeft.mouseover" end="arrowLeft.mouseout"/>
                  </use>
                  <path fill="none" stroke="white" stroke-width="1.5" d="M0,-3.0v7 M-2.5,-0.5L0,-3.0L2.5,-0.5"/>
                </g>
        </g>
        <svg viewBox="0 0 15 15" width="100%" height="30px" preserveAspectRatio="xMaxYMin meet">
         <g id="arrow_out" transform="scale(0.3 0.3)">
          <a xlink:href="file__utils_8h_a45e6ab5cbabd756bff369b80c523dc8f_cgraph_org.svg" target="_base">
           <rect id="button" ry="5" rx="5" y="6" x="6" height="38" width="38"
                fill="#f2f5e9" fill-opacity="0.5" stroke="#606060" stroke-width="1.0"/>
           <path id="arrow"
             d="M 11.500037,31.436501 C 11.940474,20.09759 22.043105,11.32322 32.158766,21.979434 L 37.068811,17.246167 C 37.068811,17.246167 37.088388,32 37.088388,32 L 22.160133,31.978069 C 22.160133,31.978069 26.997745,27.140456 26.997745,27.140456 C 18.528582,18.264221 13.291696,25.230495 11.500037,31.436501 z"
             style="fill:#404040;"/>
          </a>
         </g>
        </svg>
</svg>
