<?xml version="1.0" encoding="UTF-8" standalone="no"?>
<!DOCTYPE svg PUBLIC "-//W3C//DTD SVG 1.1//EN"
 "http://www.w3.org/Graphics/SVG/1.1/DTD/svg11.dtd">
<!-- Generated by graphviz version 2.38.0 (20140413.2041)
 -->
<!-- Title: /bitrise/src/Source/AR6/ARUtil/include/AR6/ARUtil/file_utils.h Pages: 1 -->
<svg width="488pt" height="195pt"
 viewBox="0.00 0.00 488.00 195.00" xmlns="http://www.w3.org/2000/svg" xmlns:xlink="http://www.w3.org/1999/xlink">
<g id="graph0" class="graph" transform="scale(1 1) rotate(0) translate(4 191)">
<title>/bitrise/src/Source/AR6/ARUtil/include/AR6/ARUtil/file_utils.h</title>
<polygon fill="white" stroke="none" points="-4,4 -4,-191 484,-191 484,4 -4,4"/>
<!-- Node1 -->
<g id="node1" class="node"><title>Node1</title>
<polygon fill="#bfbfbf" stroke="black" points="114.5,-145.5 114.5,-186.5 233.5,-186.5 233.5,-145.5 114.5,-145.5"/>
<text text-anchor="start" x="122.5" y="-174.5" font-family="Helvetica,sans-Serif" font-size="10.00">/bitrise/src/Source</text>
<text text-anchor="start" x="122.5" y="-163.5" font-family="Helvetica,sans-Serif" font-size="10.00">/AR6/ARUtil/include</text>
<text text-anchor="middle" x="174" y="-152.5" font-family="Helvetica,sans-Serif" font-size="10.00">/AR6/ARUtil/file_utils.h</text>
</g>
<!-- Node2 -->
<g id="node2" class="node"><title>Node2</title>
<g id="a_node2"><a xlink:href="ar_util_8c.html" target="_top" xlink:title="/bitrise/src/Source\l/AR6/AR/arUtil.c">
<polygon fill="white" stroke="black" points="0,-73 0,-103 96,-103 96,-73 0,-73"/>
<text text-anchor="start" x="8" y="-91" font-family="Helvetica,sans-Serif" font-size="10.00">/bitrise/src/Source</text>
<text text-anchor="middle" x="48" y="-80" font-family="Helvetica,sans-Serif" font-size="10.00">/AR6/AR/arUtil.c</text>
</a>
</g>
</g>
<!-- Node1&#45;&gt;Node2 -->
<g id="edge1" class="edge"><title>Node1&#45;&gt;Node2</title>
<path fill="none" stroke="midnightblue" d="M132.802,-140.15C112.509,-127.91 88.7745,-113.594 71.5841,-103.225"/>
<polygon fill="midnightblue" stroke="midnightblue" points="131.181,-143.26 141.552,-145.428 134.797,-137.266 131.181,-143.26"/>
</g>
<!-- Node3 -->
<g id="node3" class="node"><title>Node3</title>
<g id="a_node3"><a xlink:href="file__utils_8c.html" target="_top" xlink:title="/bitrise/src/Source\l/AR6/ARUtil/file_utils.c">
<polygon fill="white" stroke="black" points="114.5,-73 114.5,-103 233.5,-103 233.5,-73 114.5,-73"/>
<text text-anchor="start" x="122.5" y="-91" font-family="Helvetica,sans-Serif" font-size="10.00">/bitrise/src/Source</text>
<text text-anchor="middle" x="174" y="-80" font-family="Helvetica,sans-Serif" font-size="10.00">/AR6/ARUtil/file_utils.c</text>
</a>
</g>
</g>
<!-- Node1&#45;&gt;Node3 -->
<g id="edge2" class="edge"><title>Node1&#45;&gt;Node3</title>
<path fill="none" stroke="midnightblue" d="M174,-135.283C174,-124.254 174,-112.246 174,-103.225"/>
<polygon fill="midnightblue" stroke="midnightblue" points="170.5,-135.428 174,-145.428 177.5,-135.428 170.5,-135.428"/>
</g>
<!-- Node4 -->
<g id="node4" class="node"><title>Node4</title>
<g id="a_node4"><a xlink:href="image__indexer_8h.html" target="_top" xlink:title="/bitrise/src/Source\l/AR6/ARUtil/include\l/AR6/ARUtil/image_indexer.h">
<polygon fill="white" stroke="black" points="252,-67.5 252,-108.5 398,-108.5 398,-67.5 252,-67.5"/>
<text text-anchor="start" x="260" y="-96.5" font-family="Helvetica,sans-Serif" font-size="10.00">/bitrise/src/Source</text>
<text text-anchor="start" x="260" y="-85.5" font-family="Helvetica,sans-Serif" font-size="10.00">/AR6/ARUtil/include</text>
<text text-anchor="middle" x="325" y="-74.5" font-family="Helvetica,sans-Serif" font-size="10.00">/AR6/ARUtil/image_indexer.h</text>
</a>
</g>
</g>
<!-- Node1&#45;&gt;Node4 -->
<g id="edge3" class="edge"><title>Node1&#45;&gt;Node4</title>
<path fill="none" stroke="midnightblue" d="M221.867,-140.908C242.629,-130.458 266.626,-118.38 286.246,-108.506"/>
<polygon fill="midnightblue" stroke="midnightblue" points="220.245,-137.806 212.886,-145.428 223.392,-144.059 220.245,-137.806"/>
</g>
<!-- Node5 -->
<g id="node5" class="node"><title>Node5</title>
<g id="a_node5"><a xlink:href="_a_r_controller_8cpp.html" target="_top" xlink:title="/bitrise/src/Source\l/AR6/ARController.cpp">
<polygon fill="white" stroke="black" points="188.5,-0.5 188.5,-30.5 305.5,-30.5 305.5,-0.5 188.5,-0.5"/>
<text text-anchor="start" x="196.5" y="-18.5" font-family="Helvetica,sans-Serif" font-size="10.00">/bitrise/src/Source</text>
<text text-anchor="middle" x="247" y="-7.5" font-family="Helvetica,sans-Serif" font-size="10.00">/AR6/ARController.cpp</text>
</a>
</g>
</g>
<!-- Node4&#45;&gt;Node5 -->
<g id="edge4" class="edge"><title>Node4&#45;&gt;Node5</title>
<path fill="none" stroke="midnightblue" d="M295.792,-60.6005C284.654,-50.533 272.376,-39.4356 262.923,-30.8916"/>
<polygon fill="midnightblue" stroke="midnightblue" points="293.507,-63.253 303.273,-67.3618 298.201,-58.0598 293.507,-63.253"/>
</g>
<!-- Node6 -->
<g id="node6" class="node"><title>Node6</title>
<g id="a_node6"><a xlink:href="image__indexer_8cpp.html" target="_top" xlink:title="/bitrise/src/Source\l/AR6/ARUtil/image_indexer.cpp">
<polygon fill="white" stroke="black" points="324,-0.5 324,-30.5 480,-30.5 480,-0.5 324,-0.5"/>
<text text-anchor="start" x="332" y="-18.5" font-family="Helvetica,sans-Serif" font-size="10.00">/bitrise/src/Source</text>
<text text-anchor="middle" x="402" y="-7.5" font-family="Helvetica,sans-Serif" font-size="10.00">/AR6/ARUtil/image_indexer.cpp</text>
</a>
</g>
</g>
<!-- Node4&#45;&gt;Node6 -->
<g id="edge5" class="edge"><title>Node4&#45;&gt;Node6</title>
<path fill="none" stroke="midnightblue" d="M353.833,-60.6005C364.829,-50.533 376.95,-39.4356 386.282,-30.8916"/>
<polygon fill="midnightblue" stroke="midnightblue" points="351.461,-58.0274 346.449,-67.3618 356.188,-63.1903 351.461,-58.0274"/>
</g>
</g>
</svg>
