<?xml version="1.0" encoding="UTF-8" standalone="no"?>
<!DOCTYPE svg PUBLIC "-//W3C//DTD SVG 1.1//EN"
 "http://www.w3.org/Graphics/SVG/1.1/DTD/svg11.dtd">
<!-- Generated by graphviz version 2.38.0 (20140413.2041)
 -->
<!-- Title: /bitrise/src/Source/AR6/ARUtil/file_utils.c Pages: 1 -->
<svg width="990pt" height="207pt"
 viewBox="0.00 0.00 989.50 207.00" xmlns="http://www.w3.org/2000/svg" xmlns:xlink="http://www.w3.org/1999/xlink">
<g id="graph0" class="graph" transform="scale(1 1) rotate(0) translate(4 203)">
<title>/bitrise/src/Source/AR6/ARUtil/file_utils.c</title>
<polygon fill="white" stroke="none" points="-4,4 -4,-203 985.5,-203 985.5,4 -4,4"/>
<!-- Node1 -->
<g id="node1" class="node"><title>Node1</title>
<polygon fill="#bfbfbf" stroke="black" points="481.5,-168.5 481.5,-198.5 600.5,-198.5 600.5,-168.5 481.5,-168.5"/>
<text text-anchor="start" x="489.5" y="-186.5" font-family="Helvetica,sans-Serif" font-size="10.00">/bitrise/src/Source</text>
<text text-anchor="middle" x="541" y="-175.5" font-family="Helvetica,sans-Serif" font-size="10.00">/AR6/ARUtil/file_utils.c</text>
</g>
<!-- Node2 -->
<g id="node2" class="node"><title>Node2</title>
<g id="a_node2"><a xlink:href="file__utils_8h.html" target="_top" xlink:title="AR6/ARUtil/file_utils.h">
<polygon fill="white" stroke="black" points="40,-112.5 40,-131.5 156,-131.5 156,-112.5 40,-112.5"/>
<text text-anchor="middle" x="98" y="-119.5" font-family="Helvetica,sans-Serif" font-size="10.00">AR6/ARUtil/file_utils.h</text>
</a>
</g>
</g>
<!-- Node1&#45;&gt;Node2 -->
<g id="edge1" class="edge"><title>Node1&#45;&gt;Node2</title>
<path fill="none" stroke="midnightblue" d="M481.255,-174.476C399.244,-163.461 252.184,-143.709 166.035,-132.138"/>
<polygon fill="midnightblue" stroke="midnightblue" points="166.473,-128.665 156.096,-130.803 165.541,-135.603 166.473,-128.665"/>
</g>
<!-- Node3 -->
<g id="node3" class="node"><title>Node3</title>
<polygon fill="white" stroke="#bfbfbf" points="0,-56.5 0,-75.5 56,-75.5 56,-56.5 0,-56.5"/>
<text text-anchor="middle" x="28" y="-63.5" font-family="Helvetica,sans-Serif" font-size="10.00">stdbool.h</text>
</g>
<!-- Node1&#45;&gt;Node3 -->
<g id="edge7" class="edge"><title>Node1&#45;&gt;Node3</title>
<path fill="none" stroke="midnightblue" d="M481.422,-180.895C353.474,-176.847 61.5047,-164.152 31,-132 19.4756,-119.853 20.2903,-99.9827 23.0192,-85.4042"/>
<polygon fill="midnightblue" stroke="midnightblue" points="26.4657,-86.0341 25.3064,-75.5029 19.6453,-84.4585 26.4657,-86.0341"/>
</g>
<!-- Node4 -->
<g id="node4" class="node"><title>Node4</title>
<polygon fill="white" stroke="#bfbfbf" points="131.5,-56.5 131.5,-75.5 188.5,-75.5 188.5,-56.5 131.5,-56.5"/>
<text text-anchor="middle" x="160" y="-63.5" font-family="Helvetica,sans-Serif" font-size="10.00">termios.h</text>
</g>
<!-- Node1&#45;&gt;Node4 -->
<g id="edge18" class="edge"><title>Node1&#45;&gt;Node4</title>
<path fill="none" stroke="midnightblue" d="M481.256,-178.902C398.171,-172.985 252.879,-159.062 208,-132 189.845,-121.053 176.397,-100.379 168.426,-85.2767"/>
<polygon fill="midnightblue" stroke="midnightblue" points="171.36,-83.3141 163.792,-75.8998 165.085,-86.4155 171.36,-83.3141"/>
</g>
<!-- Node5 -->
<g id="node5" class="node"><title>Node5</title>
<polygon fill="white" stroke="#bfbfbf" points="199,-0.5 199,-19.5 245,-19.5 245,-0.5 199,-0.5"/>
<text text-anchor="middle" x="222" y="-7.5" font-family="Helvetica,sans-Serif" font-size="10.00">stdio.h</text>
</g>
<!-- Node1&#45;&gt;Node5 -->
<g id="edge5" class="edge"><title>Node1&#45;&gt;Node5</title>
<path fill="none" stroke="midnightblue" d="M481.326,-180.485C403.592,-176.555 273.73,-165.093 241,-132 214.178,-104.881 215.615,-56.3597 218.879,-29.743"/>
<polygon fill="midnightblue" stroke="midnightblue" points="222.349,-30.2004 220.312,-19.8032 215.42,-29.2012 222.349,-30.2004"/>
</g>
<!-- Node6 -->
<g id="node6" class="node"><title>Node6</title>
<polygon fill="white" stroke="#bfbfbf" points="482.5,-112.5 482.5,-131.5 531.5,-131.5 531.5,-112.5 482.5,-112.5"/>
<text text-anchor="middle" x="507" y="-119.5" font-family="Helvetica,sans-Serif" font-size="10.00">string.h</text>
</g>
<!-- Node1&#45;&gt;Node6 -->
<g id="edge6" class="edge"><title>Node1&#45;&gt;Node6</title>
<path fill="none" stroke="midnightblue" d="M532.942,-168.399C528.155,-160.021 522.044,-149.327 516.956,-140.423"/>
<polygon fill="midnightblue" stroke="midnightblue" points="519.948,-138.604 511.947,-131.658 513.87,-142.077 519.948,-138.604"/>
</g>
<!-- Node7 -->
<g id="node7" class="node"><title>Node7</title>
<polygon fill="white" stroke="#bfbfbf" points="549.5,-112.5 549.5,-131.5 600.5,-131.5 600.5,-112.5 549.5,-112.5"/>
<text text-anchor="middle" x="575" y="-119.5" font-family="Helvetica,sans-Serif" font-size="10.00">unistd.h</text>
</g>
<!-- Node1&#45;&gt;Node7 -->
<g id="edge8" class="edge"><title>Node1&#45;&gt;Node7</title>
<path fill="none" stroke="midnightblue" d="M549.058,-168.399C553.845,-160.021 559.956,-149.327 565.044,-140.423"/>
<polygon fill="midnightblue" stroke="midnightblue" points="568.13,-142.077 570.053,-131.658 562.052,-138.604 568.13,-142.077"/>
</g>
<!-- Node8 -->
<g id="node8" class="node"><title>Node8</title>
<polygon fill="white" stroke="#bfbfbf" points="618.5,-112.5 618.5,-131.5 689.5,-131.5 689.5,-112.5 618.5,-112.5"/>
<text text-anchor="middle" x="654" y="-119.5" font-family="Helvetica,sans-Serif" font-size="10.00">sys/param.h</text>
</g>
<!-- Node1&#45;&gt;Node8 -->
<g id="edge9" class="edge"><title>Node1&#45;&gt;Node8</title>
<path fill="none" stroke="midnightblue" d="M567.779,-168.399C586.062,-158.773 610.148,-146.09 628.215,-136.577"/>
<polygon fill="midnightblue" stroke="midnightblue" points="630.34,-139.414 637.557,-131.658 627.078,-133.22 630.34,-139.414"/>
</g>
<!-- Node9 -->
<g id="node9" class="node"><title>Node9</title>
<polygon fill="white" stroke="#bfbfbf" points="707.5,-112.5 707.5,-131.5 756.5,-131.5 756.5,-112.5 707.5,-112.5"/>
<text text-anchor="middle" x="732" y="-119.5" font-family="Helvetica,sans-Serif" font-size="10.00">utime.h</text>
</g>
<!-- Node1&#45;&gt;Node9 -->
<g id="edge10" class="edge"><title>Node1&#45;&gt;Node9</title>
<path fill="none" stroke="midnightblue" d="M586.264,-168.399C620.359,-157.778 666.395,-143.437 697.532,-133.737"/>
<polygon fill="midnightblue" stroke="midnightblue" points="698.976,-136.954 707.482,-130.638 696.894,-130.27 698.976,-136.954"/>
</g>
<!-- Node10 -->
<g id="node10" class="node"><title>Node10</title>
<g id="a_node10"><a xlink:href="ftw_8h.html" target="_top" xlink:title="ftw.h">
<polygon fill="white" stroke="black" points="775,-112.5 775,-131.5 813,-131.5 813,-112.5 775,-112.5"/>
<text text-anchor="middle" x="794" y="-119.5" font-family="Helvetica,sans-Serif" font-size="10.00">ftw.h</text>
</a>
</g>
</g>
<!-- Node1&#45;&gt;Node10 -->
<g id="edge11" class="edge"><title>Node1&#45;&gt;Node10</title>
<path fill="none" stroke="midnightblue" d="M600.738,-170.377C646.045,-160.858 709.736,-146.78 765,-132 765.099,-131.974 765.198,-131.947 765.297,-131.92"/>
<polygon fill="midnightblue" stroke="midnightblue" points="766.072,-135.339 774.719,-129.217 764.141,-128.611 766.072,-135.339"/>
</g>
<!-- Node12 -->
<g id="node12" class="node"><title>Node12</title>
<polygon fill="white" stroke="#bfbfbf" points="811,-56.5 811,-75.5 871,-75.5 871,-56.5 811,-56.5"/>
<text text-anchor="middle" x="841" y="-63.5" font-family="Helvetica,sans-Serif" font-size="10.00">sys/stat.h</text>
</g>
<!-- Node1&#45;&gt;Node12 -->
<g id="edge14" class="edge"><title>Node1&#45;&gt;Node12</title>
<path fill="none" stroke="midnightblue" d="M600.719,-179.031C673.333,-173.609 790.157,-160.618 822,-132 834.961,-120.352 839.283,-100.403 840.624,-85.6693"/>
<polygon fill="midnightblue" stroke="midnightblue" points="844.121,-85.8167 841.163,-75.6432 837.132,-85.4409 844.121,-85.8167"/>
</g>
<!-- Node13 -->
<g id="node13" class="node"><title>Node13</title>
<polygon fill="white" stroke="#bfbfbf" points="869.5,-112.5 869.5,-131.5 916.5,-131.5 916.5,-112.5 869.5,-112.5"/>
<text text-anchor="middle" x="893" y="-119.5" font-family="Helvetica,sans-Serif" font-size="10.00">errno.h</text>
</g>
<!-- Node1&#45;&gt;Node13 -->
<g id="edge15" class="edge"><title>Node1&#45;&gt;Node13</title>
<path fill="none" stroke="midnightblue" d="M600.552,-174.246C663.879,-165.16 766.859,-149.501 855,-132 856.455,-131.711 857.938,-131.406 859.435,-131.089"/>
<polygon fill="midnightblue" stroke="midnightblue" points="860.34,-134.474 869.342,-128.885 858.82,-127.641 860.34,-134.474"/>
</g>
<!-- Node14 -->
<g id="node14" class="node"><title>Node14</title>
<g id="a_node14"><a xlink:href="time_8h.html" target="_top" xlink:title="time.h">
<polygon fill="white" stroke="black" points="935,-112.5 935,-131.5 979,-131.5 979,-112.5 935,-112.5"/>
<text text-anchor="middle" x="957" y="-119.5" font-family="Helvetica,sans-Serif" font-size="10.00">time.h</text>
</a>
</g>
</g>
<!-- Node1&#45;&gt;Node14 -->
<g id="edge16" class="edge"><title>Node1&#45;&gt;Node14</title>
<path fill="none" stroke="midnightblue" d="M600.645,-177.331C674.452,-170.341 804.048,-156.128 924.578,-131.784"/>
<polygon fill="midnightblue" stroke="midnightblue" points="925.626,-135.142 934.721,-129.706 924.222,-128.284 925.626,-135.142"/>
</g>
<!-- Node16 -->
<g id="node16" class="node"><title>Node16</title>
<g id="a_node16"><a xlink:href="unzip_8h.html" target="_top" xlink:title="AR6/ARUtil/unzip.h">
<polygon fill="white" stroke="black" points="250.5,-112.5 250.5,-131.5 353.5,-131.5 353.5,-112.5 250.5,-112.5"/>
<text text-anchor="middle" x="302" y="-119.5" font-family="Helvetica,sans-Serif" font-size="10.00">AR6/ARUtil/unzip.h</text>
</a>
</g>
</g>
<!-- Node1&#45;&gt;Node16 -->
<g id="edge19" class="edge"><title>Node1&#45;&gt;Node16</title>
<path fill="none" stroke="midnightblue" d="M484.663,-168.475C442.35,-157.941 385.211,-143.716 346.176,-133.998"/>
<polygon fill="midnightblue" stroke="midnightblue" points="346.718,-130.526 336.168,-131.506 345.027,-137.319 346.718,-130.526"/>
</g>
<!-- Node20 -->
<g id="node20" class="node"><title>Node20</title>
<g id="a_node20"><a xlink:href="zip_8h.html" target="_top" xlink:title="AR6/ARUtil/zip.h">
<polygon fill="white" stroke="black" points="372,-112.5 372,-131.5 464,-131.5 464,-112.5 372,-112.5"/>
<text text-anchor="middle" x="418" y="-119.5" font-family="Helvetica,sans-Serif" font-size="10.00">AR6/ARUtil/zip.h</text>
</a>
</g>
</g>
<!-- Node1&#45;&gt;Node20 -->
<g id="edge25" class="edge"><title>Node1&#45;&gt;Node20</title>
<path fill="none" stroke="midnightblue" d="M511.851,-168.399C491.582,-158.595 464.759,-145.619 444.981,-136.052"/>
<polygon fill="midnightblue" stroke="midnightblue" points="446.424,-132.862 435.898,-131.658 443.376,-139.163 446.424,-132.862"/>
</g>
<!-- Node2&#45;&gt;Node3 -->
<g id="edge2" class="edge"><title>Node2&#45;&gt;Node3</title>
<path fill="none" stroke="midnightblue" d="M86.7533,-112.324C76.2026,-104.185 60.1993,-91.8395 47.5578,-82.0874"/>
<polygon fill="midnightblue" stroke="midnightblue" points="49.507,-79.1707 39.4513,-75.8339 45.2314,-84.7132 49.507,-79.1707"/>
</g>
<!-- Node2&#45;&gt;Node4 -->
<g id="edge3" class="edge"><title>Node2&#45;&gt;Node4</title>
<path fill="none" stroke="midnightblue" d="M107.961,-112.324C117.127,-104.341 130.937,-92.3128 142.028,-82.6529"/>
<polygon fill="midnightblue" stroke="midnightblue" points="144.615,-85.041 149.857,-75.8339 140.018,-79.7624 144.615,-85.041"/>
</g>
<!-- Node2&#45;&gt;Node5 -->
<g id="edge4" class="edge"><title>Node2&#45;&gt;Node5</title>
<path fill="none" stroke="midnightblue" d="M99.044,-112.308C101.107,-98.6819 106.899,-72.1828 122,-56 139.828,-36.8943 167.287,-25.3398 188.923,-18.7316"/>
<polygon fill="midnightblue" stroke="midnightblue" points="190.041,-22.0528 198.704,-15.9537 188.128,-15.3191 190.041,-22.0528"/>
</g>
<!-- Node11 -->
<g id="node11" class="node"><title>Node11</title>
<polygon fill="white" stroke="#bfbfbf" points="725,-56.5 725,-75.5 793,-75.5 793,-56.5 725,-56.5"/>
<text text-anchor="middle" x="759" y="-63.5" font-family="Helvetica,sans-Serif" font-size="10.00">sys/types.h</text>
</g>
<!-- Node10&#45;&gt;Node11 -->
<g id="edge12" class="edge"><title>Node10&#45;&gt;Node11</title>
<path fill="none" stroke="midnightblue" d="M788.22,-112.083C783.328,-104.534 776.173,-93.4948 770.167,-84.2298"/>
<polygon fill="midnightblue" stroke="midnightblue" points="773.048,-82.239 764.672,-75.7511 767.174,-86.0463 773.048,-82.239"/>
</g>
<!-- Node10&#45;&gt;Node12 -->
<g id="edge13" class="edge"><title>Node10&#45;&gt;Node12</title>
<path fill="none" stroke="midnightblue" d="M801.761,-112.083C808.537,-104.298 818.543,-92.8015 826.755,-83.3665"/>
<polygon fill="midnightblue" stroke="midnightblue" points="829.458,-85.592 833.383,-75.7511 824.178,-80.9963 829.458,-85.592"/>
</g>
<!-- Node15 -->
<g id="node15" class="node"><title>Node15</title>
<polygon fill="white" stroke="#bfbfbf" points="932.5,-56.5 932.5,-75.5 981.5,-75.5 981.5,-56.5 932.5,-56.5"/>
<text text-anchor="middle" x="957" y="-63.5" font-family="Helvetica,sans-Serif" font-size="10.00">stdint.h</text>
</g>
<!-- Node14&#45;&gt;Node15 -->
<g id="edge17" class="edge"><title>Node14&#45;&gt;Node15</title>
<path fill="none" stroke="midnightblue" d="M957,-112.083C957,-105.006 957,-94.8611 957,-85.9865"/>
<polygon fill="midnightblue" stroke="midnightblue" points="960.5,-85.751 957,-75.7511 953.5,-85.7511 960.5,-85.751"/>
</g>
<!-- Node17 -->
<g id="node17" class="node"><title>Node17</title>
<polygon fill="white" stroke="#bfbfbf" points="341,-0.5 341,-19.5 381,-19.5 381,-0.5 341,-0.5"/>
<text text-anchor="middle" x="361" y="-7.5" font-family="Helvetica,sans-Serif" font-size="10.00">zlib.h</text>
</g>
<!-- Node16&#45;&gt;Node17 -->
<g id="edge20" class="edge"><title>Node16&#45;&gt;Node17</title>
<path fill="none" stroke="midnightblue" d="M308.711,-112.366C315.383,-103.541 325.656,-89.2843 333,-76 341.443,-60.7266 349.136,-42.393 354.313,-29.0962"/>
<polygon fill="midnightblue" stroke="midnightblue" points="357.615,-30.2582 357.891,-19.6669 351.071,-27.7746 357.615,-30.2582"/>
</g>
<!-- Node18 -->
<g id="node18" class="node"><title>Node18</title>
<g id="a_node18"><a xlink:href="ioapi_8h.html" target="_top" xlink:title="ioapi.h">
<polygon fill="white" stroke="black" points="279.5,-56.5 279.5,-75.5 324.5,-75.5 324.5,-56.5 279.5,-56.5"/>
<text text-anchor="middle" x="302" y="-63.5" font-family="Helvetica,sans-Serif" font-size="10.00">ioapi.h</text>
</a>
</g>
</g>
<!-- Node16&#45;&gt;Node18 -->
<g id="edge21" class="edge"><title>Node16&#45;&gt;Node18</title>
<path fill="none" stroke="midnightblue" d="M302,-112.083C302,-105.006 302,-94.8611 302,-85.9865"/>
<polygon fill="midnightblue" stroke="midnightblue" points="305.5,-85.751 302,-75.7511 298.5,-85.7511 305.5,-85.751"/>
</g>
<!-- Node18&#45;&gt;Node5 -->
<g id="edge22" class="edge"><title>Node18&#45;&gt;Node5</title>
<path fill="none" stroke="midnightblue" d="M289.147,-56.324C276.784,-47.979 257.87,-35.2122 243.263,-25.3524"/>
<polygon fill="midnightblue" stroke="midnightblue" points="245.068,-22.3483 234.821,-19.6545 241.152,-28.1503 245.068,-22.3483"/>
</g>
<!-- Node18&#45;&gt;Node17 -->
<g id="edge24" class="edge"><title>Node18&#45;&gt;Node17</title>
<path fill="none" stroke="midnightblue" d="M311.479,-56.324C320.201,-48.3414 333.343,-36.3128 343.898,-26.6529"/>
<polygon fill="midnightblue" stroke="midnightblue" points="346.334,-29.1674 351.348,-19.8339 341.608,-24.0036 346.334,-29.1674"/>
</g>
<!-- Node19 -->
<g id="node19" class="node"><title>Node19</title>
<polygon fill="white" stroke="#bfbfbf" points="275,-0.5 275,-19.5 323,-19.5 323,-0.5 275,-0.5"/>
<text text-anchor="middle" x="299" y="-7.5" font-family="Helvetica,sans-Serif" font-size="10.00">stdlib.h</text>
</g>
<!-- Node18&#45;&gt;Node19 -->
<g id="edge23" class="edge"><title>Node18&#45;&gt;Node19</title>
<path fill="none" stroke="midnightblue" d="M301.505,-56.083C301.111,-49.0059 300.548,-38.8611 300.055,-29.9865"/>
<polygon fill="midnightblue" stroke="midnightblue" points="303.536,-29.5415 299.486,-19.7511 296.546,-29.9299 303.536,-29.5415"/>
</g>
<!-- Node20&#45;&gt;Node17 -->
<g id="edge26" class="edge"><title>Node20&#45;&gt;Node17</title>
<path fill="none" stroke="midnightblue" d="M413.527,-112.368C404.204,-94.376 382.531,-52.5503 370.134,-28.6267"/>
<polygon fill="midnightblue" stroke="midnightblue" points="373.16,-26.8599 365.452,-19.5914 366.945,-30.0805 373.16,-26.8599"/>
</g>
<!-- Node20&#45;&gt;Node18 -->
<g id="edge27" class="edge"><title>Node20&#45;&gt;Node18</title>
<path fill="none" stroke="midnightblue" d="M399.619,-112.444C380.784,-103.675 351.269,-89.9355 329.621,-79.8579"/>
<polygon fill="midnightblue" stroke="midnightblue" points="330.838,-76.5637 320.295,-75.5164 327.883,-82.9098 330.838,-76.5637"/>
</g>
</g>
</svg>
