<?xml version="1.0" encoding="UTF-8" standalone="no"?>
<!DOCTYPE svg PUBLIC "-//W3C//DTD SVG 1.1//EN"
 "http://www.w3.org/Graphics/SVG/1.1/DTD/svg11.dtd">
<!-- Generated by graphviz version 2.38.0 (20140413.2041)
 -->
<!-- Title: /bitrise/src/Source/AR6/InstantOn/include/AR6/InstantOn/framework/filter.h Pages: 1 -->
<!--zoomable 419 -->
<svg id="main" version="1.1" xmlns="http://www.w3.org/2000/svg" xmlns:xlink="http://www.w3.org/1999/xlink" xml:space="preserve" onload="init(evt)">
<style type="text/css"><![CDATA[
.edge:hover path { stroke: red; }
.edge:hover polygon { stroke: red; fill: red; }
]]></style>
<script type="text/javascript"><![CDATA[
var edges = document.getElementsByTagName('g');
if (edges && edges.length) {
  for (var i=0;i<edges.length;i++) {
    if (edges[i].id.substr(0,4)=='edge') {
      edges[i].setAttribute('class','edge');
    }
  }
}
]]></script>
        <defs>
                <circle id="rim" cx="0" cy="0" r="7"/>
                <circle id="rim2" cx="0" cy="0" r="3.5"/>
                <g id="zoomPlus">
                        <use xlink:href="#rim" fill="#404040">
                                <set attributeName="fill" to="#808080" begin="zoomplus.mouseover" end="zoomplus.mouseout"/>
                        </use>
                        <path d="M-4,0h8M0,-4v8" fill="none" stroke="white" stroke-width="1.5" pointer-events="none"/>
                </g>
                <g id="zoomMin">
                        <use xlink:href="#rim" fill="#404040">
                                <set attributeName="fill" to="#808080" begin="zoomminus.mouseover" end="zoomminus.mouseout"/>
                        </use>
                        <path d="M-4,0h8" fill="none" stroke="white" stroke-width="1.5" pointer-events="none"/>
                </g>
                <g id="dirArrow">
                        <path fill="none" stroke="white" stroke-width="1.5" d="M0,-3.0v7 M-2.5,-0.5L0,-3.0L2.5,-0.5"/>
                </g>
               <g id="resetDef">
                       <use xlink:href="#rim2" fill="#404040">
                               <set attributeName="fill" to="#808080" begin="reset.mouseover" end="reset.mouseout"/>
                       </use>
               </g>
        </defs>

<script type="text/javascript">
var viewWidth = 1090;
var viewHeight = 419;
var sectionId = 'dynsection-0';
</script>
<script xlink:href="svgpan.js"/>
<svg id="graph" class="graph">
<g id="viewport">
<title>/bitrise/src/Source/AR6/InstantOn/include/AR6/InstantOn/framework/filter.h</title>
<polygon fill="white" stroke="none" points="-4,4 -4,-415 1086,-415 1086,4 -4,4"/>
<!-- Node1 -->
<g id="node1" class="node"><title>Node1</title>
<polygon fill="#bfbfbf" stroke="black" points="444,-358.5 444,-410.5 578,-410.5 578,-358.5 444,-358.5"/>
<text text-anchor="start" x="452" y="-398.5" font-family="Helvetica,sans-Serif" font-size="10.00">/bitrise/src/Source</text>
<text text-anchor="start" x="452" y="-387.5" font-family="Helvetica,sans-Serif" font-size="10.00">/AR6/InstantOn/include</text>
<text text-anchor="start" x="452" y="-376.5" font-family="Helvetica,sans-Serif" font-size="10.00">/AR6/InstantOn/framework</text>
<text text-anchor="middle" x="511" y="-365.5" font-family="Helvetica,sans-Serif" font-size="10.00">/filter.h</text>
</g>
<!-- Node2 -->
<g id="node2" class="node"><title>Node2</title>
<g id="a_node2"><a xlink:href="container_8h.html" target="_top" xlink:title="container.h">
<polygon fill="white" stroke="black" points="478.5,-302.5 478.5,-321.5 543.5,-321.5 543.5,-302.5 478.5,-302.5"/>
<text text-anchor="middle" x="511" y="-309.5" font-family="Helvetica,sans-Serif" font-size="10.00">container.h</text>
</a>
</g>
</g>
<!-- Node1&#45;&gt;Node2 -->
<g id="edge1" class="edge"><title>Node1&#45;&gt;Node2</title>
<path fill="none" stroke="midnightblue" d="M511,-358.446C511,-349.73 511,-340.104 511,-331.964"/>
<polygon fill="midnightblue" stroke="midnightblue" points="514.5,-331.695 511,-321.695 507.5,-331.696 514.5,-331.695"/>
</g>
<!-- Node11 -->
<g id="node11" class="node"><title>Node11</title>
<polygon fill="white" stroke="#bfbfbf" points="917,-6 917,-25 961,-25 961,-6 917,-6"/>
<text text-anchor="middle" x="939" y="-13" font-family="Helvetica,sans-Serif" font-size="10.00">vector</text>
</g>
<!-- Node1&#45;&gt;Node11 -->
<g id="edge48" class="edge"><title>Node1&#45;&gt;Node11</title>
<path fill="none" stroke="midnightblue" d="M578.32,-377.21C696.761,-364.267 930,-329.567 930,-257 930,-257 930,-257 930,-137.5 930,-101.295 934.057,-59.1629 936.723,-35.3825"/>
<polygon fill="midnightblue" stroke="midnightblue" points="940.218,-35.6263 937.896,-25.289 933.265,-34.818 940.218,-35.6263"/>
</g>
<!-- Node15 -->
<g id="node15" class="node"><title>Node15</title>
<polygon fill="white" stroke="#bfbfbf" points="405,-6 405,-25 457,-25 457,-6 405,-6"/>
<text text-anchor="middle" x="431" y="-13" font-family="Helvetica,sans-Serif" font-size="10.00">memory</text>
</g>
<!-- Node1&#45;&gt;Node15 -->
<g id="edge50" class="edge"><title>Node1&#45;&gt;Node15</title>
<path fill="none" stroke="midnightblue" d="M445.647,-358.391C404.838,-337.984 360,-304.707 360,-257 360,-257 360,-257 360,-199 360,-134.299 399.239,-64.9368 419.375,-33.6012"/>
<polygon fill="midnightblue" stroke="midnightblue" points="422.368,-35.4206 424.947,-25.1444 416.522,-31.5695 422.368,-35.4206"/>
</g>
<!-- Node21 -->
<g id="node21" class="node"><title>Node21</title>
<polygon fill="white" stroke="#bfbfbf" points="738.5,-246.5 738.5,-265.5 773.5,-265.5 773.5,-246.5 738.5,-246.5"/>
<text text-anchor="middle" x="756" y="-253.5" font-family="Helvetica,sans-Serif" font-size="10.00">map</text>
</g>
<!-- Node1&#45;&gt;Node21 -->
<g id="edge51" class="edge"><title>Node1&#45;&gt;Node21</title>
<path fill="none" stroke="midnightblue" d="M559.697,-358.356C611.116,-331.808 690.192,-290.978 730.489,-270.172"/>
<polygon fill="midnightblue" stroke="midnightblue" points="732.119,-273.27 739.399,-265.572 728.907,-267.05 732.119,-273.27"/>
</g>
<!-- Node22 -->
<g id="node22" class="node"><title>Node22</title>
<g id="a_node22"><a xlink:href="thread_8h.html" target="_top" xlink:title="thread.h">
<polygon fill="white" stroke="black" points="960,-302.5 960,-321.5 1012,-321.5 1012,-302.5 960,-302.5"/>
<text text-anchor="middle" x="986" y="-309.5" font-family="Helvetica,sans-Serif" font-size="10.00">thread.h</text>
</a>
</g>
</g>
<!-- Node1&#45;&gt;Node22 -->
<g id="edge31" class="edge"><title>Node1&#45;&gt;Node22</title>
<path fill="none" stroke="midnightblue" d="M578.362,-375.417C663.719,-364.834 815.236,-344.911 944,-322 945.927,-321.657 947.901,-321.29 949.891,-320.907"/>
<polygon fill="midnightblue" stroke="midnightblue" points="950.731,-324.308 959.842,-318.901 949.348,-317.446 950.731,-324.308"/>
</g>
<!-- Node25 -->
<g id="node25" class="node"><title>Node25</title>
<g id="a_node25"><a xlink:href="wait__queue_8h.html" target="_top" xlink:title="wait_queue.h">
<polygon fill="white" stroke="black" points="125,-302.5 125,-321.5 199,-321.5 199,-302.5 125,-302.5"/>
<text text-anchor="middle" x="162" y="-309.5" font-family="Helvetica,sans-Serif" font-size="10.00">wait_queue.h</text>
</a>
</g>
</g>
<!-- Node1&#45;&gt;Node25 -->
<g id="edge34" class="edge"><title>Node1&#45;&gt;Node25</title>
<path fill="none" stroke="midnightblue" d="M443.709,-369.907C374.803,-355.987 269.484,-334.712 209.042,-322.503"/>
<polygon fill="midnightblue" stroke="midnightblue" points="209.514,-319.027 199.019,-320.478 208.128,-325.889 209.514,-319.027"/>
</g>
<!-- Node29 -->
<g id="node29" class="node"><title>Node29</title>
<g id="a_node29"><a xlink:href="lockfree__queue_8h.html" target="_top" xlink:title="lockfree_queue.h">
<polygon fill="white" stroke="black" points="8.5,-302.5 8.5,-321.5 99.5,-321.5 99.5,-302.5 8.5,-302.5"/>
<text text-anchor="middle" x="54" y="-309.5" font-family="Helvetica,sans-Serif" font-size="10.00">lockfree_queue.h</text>
</a>
</g>
</g>
<!-- Node1&#45;&gt;Node29 -->
<g id="edge41" class="edge"><title>Node1&#45;&gt;Node29</title>
<path fill="none" stroke="midnightblue" d="M443.568,-373.097C352.997,-359.125 193.734,-334.556 109.636,-321.583"/>
<polygon fill="midnightblue" stroke="midnightblue" points="109.933,-318.087 99.516,-320.022 108.865,-325.005 109.933,-318.087"/>
</g>
<!-- Node30 -->
<g id="node30" class="node"><title>Node30</title>
<g id="a_node30"><a xlink:href="image_8h.html" target="_top" xlink:title="image.h">
<polygon fill="white" stroke="black" points="280.5,-190.5 280.5,-209.5 331.5,-209.5 331.5,-190.5 280.5,-190.5"/>
<text text-anchor="middle" x="306" y="-197.5" font-family="Helvetica,sans-Serif" font-size="10.00">image.h</text>
</a>
</g>
</g>
<!-- Node1&#45;&gt;Node30 -->
<g id="edge44" class="edge"><title>Node1&#45;&gt;Node30</title>
<path fill="none" stroke="midnightblue" d="M443.97,-372.669C410.56,-364.089 371.873,-348.863 346,-322 318.591,-293.544 309.957,-245.91 307.242,-219.701"/>
<polygon fill="midnightblue" stroke="midnightblue" points="310.718,-219.271 306.384,-209.604 303.743,-219.864 310.718,-219.271"/>
</g>
<!-- Node31 -->
<g id="node31" class="node"><title>Node31</title>
<polygon fill="white" stroke="#bfbfbf" points="1030,-302.5 1030,-321.5 1060,-321.5 1060,-302.5 1030,-302.5"/>
<text text-anchor="middle" x="1045" y="-309.5" font-family="Helvetica,sans-Serif" font-size="10.00">set</text>
</g>
<!-- Node1&#45;&gt;Node31 -->
<g id="edge49" class="edge"><title>Node1&#45;&gt;Node31</title>
<path fill="none" stroke="midnightblue" d="M578.334,-380.498C674.773,-375.077 857.572,-360.62 1019.78,-321.745"/>
<polygon fill="midnightblue" stroke="midnightblue" points="1021.05,-325.038 1029.94,-319.271 1019.39,-318.237 1021.05,-325.038"/>
</g>
<!-- Node3 -->
<g id="node3" class="node"><title>Node3</title>
<g id="a_node3"><a xlink:href="sample_8h.html" target="_top" xlink:title="sample.h">
<polygon fill="white" stroke="black" points="521,-246.5 521,-265.5 577,-265.5 577,-246.5 521,-246.5"/>
<text text-anchor="middle" x="549" y="-253.5" font-family="Helvetica,sans-Serif" font-size="10.00">sample.h</text>
</a>
</g>
</g>
<!-- Node2&#45;&gt;Node3 -->
<g id="edge2" class="edge"><title>Node2&#45;&gt;Node3</title>
<path fill="none" stroke="midnightblue" d="M517.275,-302.083C522.642,-294.455 530.518,-283.264 537.079,-273.941"/>
<polygon fill="midnightblue" stroke="midnightblue" points="539.949,-275.943 542.842,-265.751 534.225,-271.915 539.949,-275.943"/>
</g>
<!-- Node12 -->
<g id="node12" class="node"><title>Node12</title>
<polygon fill="white" stroke="#bfbfbf" points="516,-67.5 516,-86.5 568,-86.5 568,-67.5 516,-67.5"/>
<text text-anchor="middle" x="542" y="-74.5" font-family="Helvetica,sans-Serif" font-size="10.00">assert.h</text>
</g>
<!-- Node2&#45;&gt;Node12 -->
<g id="edge26" class="edge"><title>Node2&#45;&gt;Node12</title>
<path fill="none" stroke="midnightblue" d="M510.685,-302.144C510.343,-289.61 510.073,-265.997 512,-246 517.289,-191.104 530.747,-127.219 537.699,-96.44"/>
<polygon fill="midnightblue" stroke="midnightblue" points="541.114,-97.2055 539.938,-86.6761 534.291,-95.6405 541.114,-97.2055"/>
</g>
<!-- Node2&#45;&gt;Node15 -->
<g id="edge30" class="edge"><title>Node2&#45;&gt;Node15</title>
<path fill="none" stroke="midnightblue" d="M508.606,-302.186C497.565,-261.541 451.446,-91.7668 436.038,-35.0447"/>
<polygon fill="midnightblue" stroke="midnightblue" points="439.384,-34.0122 433.385,-25.2794 432.629,-35.8472 439.384,-34.0122"/>
</g>
<!-- Node18 -->
<g id="node18" class="node"><title>Node18</title>
<polygon fill="white" stroke="#bfbfbf" points="742.5,-129 742.5,-148 783.5,-148 783.5,-129 742.5,-129"/>
<text text-anchor="middle" x="763" y="-136" font-family="Helvetica,sans-Serif" font-size="10.00">string</text>
</g>
<!-- Node2&#45;&gt;Node18 -->
<g id="edge29" class="edge"><title>Node2&#45;&gt;Node18</title>
<path fill="none" stroke="midnightblue" d="M529.859,-302.463C563.756,-286.687 636.517,-250.828 691,-210 712.971,-193.535 735.062,-170.763 748.87,-155.604"/>
<polygon fill="midnightblue" stroke="midnightblue" points="751.568,-157.837 755.635,-148.054 746.355,-153.166 751.568,-157.837"/>
</g>
<!-- Node20 -->
<g id="node20" class="node"><title>Node20</title>
<polygon fill="white" stroke="#bfbfbf" points="130,-123.5 130,-153.5 232,-153.5 232,-123.5 130,-123.5"/>
<text text-anchor="start" x="138" y="-141.5" font-family="Helvetica,sans-Serif" font-size="10.00">artvision/framework</text>
<text text-anchor="middle" x="181" y="-130.5" font-family="Helvetica,sans-Serif" font-size="10.00">/exception.h</text>
</g>
<!-- Node2&#45;&gt;Node20 -->
<g id="edge27" class="edge"><title>Node2&#45;&gt;Node20</title>
<path fill="none" stroke="midnightblue" d="M482.562,-302.411C436.09,-287.655 341.946,-254.707 271,-210 247.334,-195.086 222.447,-175.226 204.858,-160.386"/>
<polygon fill="midnightblue" stroke="midnightblue" points="206.724,-157.377 196.846,-153.547 202.18,-162.702 206.724,-157.377"/>
</g>
<!-- Node2&#45;&gt;Node21 -->
<g id="edge28" class="edge"><title>Node2&#45;&gt;Node21</title>
<path fill="none" stroke="midnightblue" d="M543.629,-304.802C585.556,-296.678 660.507,-281.618 724,-266 725.471,-265.638 726.977,-265.256 728.495,-264.861"/>
<polygon fill="midnightblue" stroke="midnightblue" points="729.715,-268.157 738.45,-262.161 727.882,-261.401 729.715,-268.157"/>
</g>
<!-- Node4 -->
<g id="node4" class="node"><title>Node4</title>
<g id="a_node4"><a xlink:href="stream_8h.html" target="_top" xlink:title="stream.h">
<polygon fill="white" stroke="black" points="540.5,-190.5 540.5,-209.5 595.5,-209.5 595.5,-190.5 540.5,-190.5"/>
<text text-anchor="middle" x="568" y="-197.5" font-family="Helvetica,sans-Serif" font-size="10.00">stream.h</text>
</a>
</g>
</g>
<!-- Node3&#45;&gt;Node4 -->
<g id="edge3" class="edge"><title>Node3&#45;&gt;Node4</title>
<path fill="none" stroke="midnightblue" d="M552.137,-246.083C554.683,-238.849 558.356,-228.409 561.527,-219.397"/>
<polygon fill="midnightblue" stroke="midnightblue" points="564.903,-220.346 564.921,-209.751 558.3,-218.023 564.903,-220.346"/>
</g>
<!-- Node3&#45;&gt;Node15 -->
<g id="edge25" class="edge"><title>Node3&#45;&gt;Node15</title>
<path fill="none" stroke="midnightblue" d="M544.66,-246.229C527.384,-211.309 463.291,-81.7662 439.748,-34.1807"/>
<polygon fill="midnightblue" stroke="midnightblue" points="442.826,-32.5103 435.255,-25.0994 436.552,-35.6145 442.826,-32.5103"/>
</g>
<!-- Node19 -->
<g id="node19" class="node"><title>Node19</title>
<g id="a_node19"><a xlink:href="date__time_8h.html" target="_top" xlink:title="date_time.h">
<polygon fill="white" stroke="black" points="614,-190.5 614,-209.5 682,-209.5 682,-190.5 614,-190.5"/>
<text text-anchor="middle" x="648" y="-197.5" font-family="Helvetica,sans-Serif" font-size="10.00">date_time.h</text>
</a>
</g>
</g>
<!-- Node3&#45;&gt;Node19 -->
<g id="edge23" class="edge"><title>Node3&#45;&gt;Node19</title>
<path fill="none" stroke="midnightblue" d="M564.906,-246.324C580.638,-237.743 604.942,-224.486 623.209,-214.522"/>
<polygon fill="midnightblue" stroke="midnightblue" points="625.03,-217.516 632.133,-209.655 621.678,-211.37 625.03,-217.516"/>
</g>
<!-- Node5 -->
<g id="node5" class="node"><title>Node5</title>
<polygon fill="white" stroke="#bfbfbf" points="247,-0.5 247,-30.5 349,-30.5 349,-0.5 247,-0.5"/>
<text text-anchor="start" x="255" y="-18.5" font-family="Helvetica,sans-Serif" font-size="10.00">artvision/framework</text>
<text text-anchor="middle" x="298" y="-7.5" font-family="Helvetica,sans-Serif" font-size="10.00">/error.h</text>
</g>
<!-- Node4&#45;&gt;Node5 -->
<g id="edge4" class="edge"><title>Node4&#45;&gt;Node5</title>
<path fill="none" stroke="midnightblue" d="M555.339,-190.442C514.582,-162.893 386.038,-76.0069 327.525,-36.4568"/>
<polygon fill="midnightblue" stroke="midnightblue" points="329.334,-33.4548 319.089,-30.7545 325.414,-39.2543 329.334,-33.4548"/>
</g>
<!-- Node6 -->
<g id="node6" class="node"><title>Node6</title>
<g id="a_node6"><a xlink:href="linear__algebra_8h.html" target="_top" xlink:title="AR6/InstantOn/math\l/linear_algebra.h">
<polygon fill="white" stroke="black" points="578.5,-123.5 578.5,-153.5 685.5,-153.5 685.5,-123.5 578.5,-123.5"/>
<text text-anchor="start" x="586.5" y="-141.5" font-family="Helvetica,sans-Serif" font-size="10.00">AR6/InstantOn/math</text>
<text text-anchor="middle" x="632" y="-130.5" font-family="Helvetica,sans-Serif" font-size="10.00">/linear_algebra.h</text>
</a>
</g>
</g>
<!-- Node4&#45;&gt;Node6 -->
<g id="edge5" class="edge"><title>Node4&#45;&gt;Node6</title>
<path fill="none" stroke="midnightblue" d="M577.17,-190.475C585.595,-182.643 598.425,-170.714 609.556,-160.366"/>
<polygon fill="midnightblue" stroke="midnightblue" points="611.976,-162.895 616.916,-153.523 607.209,-157.769 611.976,-162.895"/>
</g>
<!-- Node14 -->
<g id="node14" class="node"><title>Node14</title>
<g id="a_node14"><a xlink:href="indexing_8h.html" target="_top" xlink:title="indexing.h">
<polygon fill="white" stroke="black" points="840.5,-67.5 840.5,-86.5 901.5,-86.5 901.5,-67.5 840.5,-67.5"/>
<text text-anchor="middle" x="871" y="-74.5" font-family="Helvetica,sans-Serif" font-size="10.00">indexing.h</text>
</a>
</g>
</g>
<!-- Node4&#45;&gt;Node14 -->
<g id="edge20" class="edge"><title>Node4&#45;&gt;Node14</title>
<path fill="none" stroke="midnightblue" d="M595.655,-191.965C621.956,-184.628 662.125,-171.717 694,-154 713.353,-143.243 713.499,-133.487 733,-123 763.935,-106.364 802.093,-94.5035 830.438,-87.15"/>
<polygon fill="midnightblue" stroke="midnightblue" points="831.561,-90.4768 840.405,-84.6442 829.854,-83.688 831.561,-90.4768"/>
</g>
<!-- Node4&#45;&gt;Node15 -->
<g id="edge22" class="edge"><title>Node4&#45;&gt;Node15</title>
<path fill="none" stroke="midnightblue" d="M563.934,-190.192C557.039,-175.63 542.215,-145.876 526,-123 501.335,-88.2024 466.883,-52.0456 446.961,-32.0929"/>
<polygon fill="midnightblue" stroke="midnightblue" points="449.418,-29.6001 439.852,-25.0448 444.489,-34.571 449.418,-29.6001"/>
</g>
<!-- Node4&#45;&gt;Node18 -->
<g id="edge21" class="edge"><title>Node4&#45;&gt;Node18</title>
<path fill="none" stroke="midnightblue" d="M595.77,-192.256C627.926,-184.203 682.329,-169.82 728,-154 729.911,-153.338 731.868,-152.626 733.832,-151.885"/>
<polygon fill="midnightblue" stroke="midnightblue" points="735.526,-154.979 743.535,-148.043 732.949,-148.47 735.526,-154.979"/>
</g>
<!-- Node7 -->
<g id="node7" class="node"><title>Node7</title>
<g id="a_node7"><a xlink:href="math__utils_8h.html" target="_top" xlink:title="math_utils.h">
<polygon fill="white" stroke="black" points="586,-67.5 586,-86.5 656,-86.5 656,-67.5 586,-67.5"/>
<text text-anchor="middle" x="621" y="-74.5" font-family="Helvetica,sans-Serif" font-size="10.00">math_utils.h</text>
</a>
</g>
</g>
<!-- Node6&#45;&gt;Node7 -->
<g id="edge6" class="edge"><title>Node6&#45;&gt;Node7</title>
<path fill="none" stroke="midnightblue" d="M629.393,-123.399C627.91,-115.377 626.035,-105.233 624.433,-96.569"/>
<polygon fill="midnightblue" stroke="midnightblue" points="627.86,-95.8548 622.601,-86.6578 620.977,-97.1275 627.86,-95.8548"/>
</g>
<!-- Node9 -->
<g id="node9" class="node"><title>Node9</title>
<g id="a_node9"><a xlink:href="_instant_on_2include_2_a_r6_2_instant_on_2math_2matrix_8h.html" target="_top" xlink:title="matrix.h">
<polygon fill="white" stroke="black" points="770,-67.5 770,-86.5 822,-86.5 822,-67.5 770,-67.5"/>
<text text-anchor="middle" x="796" y="-74.5" font-family="Helvetica,sans-Serif" font-size="10.00">matrix.h</text>
</a>
</g>
</g>
<!-- Node6&#45;&gt;Node9 -->
<g id="edge9" class="edge"><title>Node6&#45;&gt;Node9</title>
<path fill="none" stroke="midnightblue" d="M670.866,-123.399C698.751,-113.283 735.939,-99.7905 762.513,-90.1493"/>
<polygon fill="midnightblue" stroke="midnightblue" points="763.93,-93.3585 772.137,-86.6578 761.542,-86.7782 763.93,-93.3585"/>
</g>
<!-- Node10 -->
<g id="node10" class="node"><title>Node10</title>
<g id="a_node10"><a xlink:href="vector_8h.html" target="_top" xlink:title="vector.h">
<polygon fill="white" stroke="black" points="712,-6 712,-25 764,-25 764,-6 712,-6"/>
<text text-anchor="middle" x="738" y="-13" font-family="Helvetica,sans-Serif" font-size="10.00">vector.h</text>
</a>
</g>
</g>
<!-- Node6&#45;&gt;Node10 -->
<g id="edge13" class="edge"><title>Node6&#45;&gt;Node10</title>
<path fill="none" stroke="midnightblue" d="M673.628,-123.409C691.365,-115.385 710.75,-103.559 723,-87 734.03,-72.0889 737.316,-50.8115 738.128,-35.5381"/>
<polygon fill="midnightblue" stroke="midnightblue" points="741.634,-35.3079 738.354,-25.2336 734.635,-35.1546 741.634,-35.3079"/>
</g>
<!-- Node6&#45;&gt;Node12 -->
<g id="edge14" class="edge"><title>Node6&#45;&gt;Node12</title>
<path fill="none" stroke="midnightblue" d="M610.671,-123.399C596.515,-114.04 577.989,-101.792 563.747,-92.3771"/>
<polygon fill="midnightblue" stroke="midnightblue" points="565.368,-89.2531 555.096,-86.6578 561.507,-95.0923 565.368,-89.2531"/>
</g>
<!-- Node13 -->
<g id="node13" class="node"><title>Node13</title>
<polygon fill="white" stroke="#bfbfbf" points="674,-67.5 674,-86.5 714,-86.5 714,-67.5 674,-67.5"/>
<text text-anchor="middle" x="694" y="-74.5" font-family="Helvetica,sans-Serif" font-size="10.00">limits</text>
</g>
<!-- Node6&#45;&gt;Node13 -->
<g id="edge15" class="edge"><title>Node6&#45;&gt;Node13</title>
<path fill="none" stroke="midnightblue" d="M646.693,-123.399C655.981,-114.486 667.999,-102.952 677.598,-93.7408"/>
<polygon fill="midnightblue" stroke="midnightblue" points="680.187,-96.1072 684.978,-86.6578 675.34,-91.0566 680.187,-96.1072"/>
</g>
<!-- Node6&#45;&gt;Node14 -->
<g id="edge16" class="edge"><title>Node6&#45;&gt;Node14</title>
<path fill="none" stroke="midnightblue" d="M685.636,-124.147C729.442,-113.241 790.42,-98.0607 830.29,-88.135"/>
<polygon fill="midnightblue" stroke="midnightblue" points="831.338,-91.4808 840.197,-85.6686 829.647,-84.6882 831.338,-91.4808"/>
</g>
<!-- Node7&#45;&gt;Node5 -->
<g id="edge8" class="edge"><title>Node7&#45;&gt;Node5</title>
<path fill="none" stroke="midnightblue" d="M585.95,-68.756C582.924,-68.1534 579.909,-67.5608 577,-67 502.107,-52.5644 415.664,-37.1032 359.09,-27.1463"/>
<polygon fill="midnightblue" stroke="midnightblue" points="359.686,-23.6975 349.231,-25.4137 358.474,-30.5919 359.686,-23.6975"/>
</g>
<!-- Node8 -->
<g id="node8" class="node"><title>Node8</title>
<polygon fill="white" stroke="#bfbfbf" points="599,-6 599,-25 643,-25 643,-6 599,-6"/>
<text text-anchor="middle" x="621" y="-13" font-family="Helvetica,sans-Serif" font-size="10.00">cmath</text>
</g>
<!-- Node7&#45;&gt;Node8 -->
<g id="edge7" class="edge"><title>Node7&#45;&gt;Node8</title>
<path fill="none" stroke="midnightblue" d="M621,-67.4751C621,-59.0803 621,-45.9806 621,-35.1631"/>
<polygon fill="midnightblue" stroke="midnightblue" points="624.5,-35.0091 621,-25.0091 617.5,-35.0091 624.5,-35.0091"/>
</g>
<!-- Node9&#45;&gt;Node5 -->
<g id="edge10" class="edge"><title>Node9&#45;&gt;Node5</title>
<path fill="none" stroke="midnightblue" d="M769.995,-72.7105C756.062,-70.9691 738.601,-68.8204 723,-67 577.774,-50.0543 541.01,-49.7034 396,-31 384.073,-29.4616 371.35,-27.6819 359.156,-25.9074"/>
<polygon fill="midnightblue" stroke="midnightblue" points="359.47,-22.416 349.067,-24.4235 358.451,-29.3415 359.47,-22.416"/>
</g>
<!-- Node9&#45;&gt;Node10 -->
<g id="edge11" class="edge"><title>Node9&#45;&gt;Node10</title>
<path fill="none" stroke="midnightblue" d="M787.69,-67.4751C778.818,-58.3733 764.554,-43.741 753.58,-32.483"/>
<polygon fill="midnightblue" stroke="midnightblue" points="755.781,-29.7268 746.295,-25.0091 750.769,-34.613 755.781,-29.7268"/>
</g>
<!-- Node9&#45;&gt;Node11 -->
<g id="edge12" class="edge"><title>Node9&#45;&gt;Node11</title>
<path fill="none" stroke="midnightblue" d="M817.802,-67.462C840.263,-58.5958 876.234,-44.2006 907,-31 908.366,-30.4138 909.762,-29.8078 911.17,-29.191"/>
<polygon fill="midnightblue" stroke="midnightblue" points="912.732,-32.3271 920.443,-25.0613 909.884,-25.9326 912.732,-32.3271"/>
</g>
<!-- Node14&#45;&gt;Node15 -->
<g id="edge17" class="edge"><title>Node14&#45;&gt;Node15</title>
<path fill="none" stroke="midnightblue" d="M840.486,-68.8183C837.291,-68.1611 834.085,-67.5405 831,-67 697.875,-43.675 538.012,-26.8067 467.479,-19.9246"/>
<polygon fill="midnightblue" stroke="midnightblue" points="467.629,-16.4228 457.339,-18.9441 466.955,-23.3903 467.629,-16.4228"/>
</g>
<!-- Node16 -->
<g id="node16" class="node"><title>Node16</title>
<polygon fill="white" stroke="#bfbfbf" points="849.5,-6 849.5,-25 898.5,-25 898.5,-6 849.5,-6"/>
<text text-anchor="middle" x="874" y="-13" font-family="Helvetica,sans-Serif" font-size="10.00">cstddef</text>
</g>
<!-- Node14&#45;&gt;Node16 -->
<g id="edge18" class="edge"><title>Node14&#45;&gt;Node16</title>
<path fill="none" stroke="midnightblue" d="M871.43,-67.4751C871.853,-59.0803 872.514,-45.9806 873.059,-35.1631"/>
<polygon fill="midnightblue" stroke="midnightblue" points="876.563,-35.1727 873.571,-25.0091 869.572,-34.8201 876.563,-35.1727"/>
</g>
<!-- Node17 -->
<g id="node17" class="node"><title>Node17</title>
<polygon fill="white" stroke="#bfbfbf" points="782.5,-6 782.5,-25 831.5,-25 831.5,-6 782.5,-6"/>
<text text-anchor="middle" x="807" y="-13" font-family="Helvetica,sans-Serif" font-size="10.00">string.h</text>
</g>
<!-- Node14&#45;&gt;Node17 -->
<g id="edge19" class="edge"><title>Node14&#45;&gt;Node17</title>
<path fill="none" stroke="midnightblue" d="M861.83,-67.4751C851.85,-58.1966 835.688,-43.1706 823.491,-31.831"/>
<polygon fill="midnightblue" stroke="midnightblue" points="825.86,-29.2547 816.153,-25.0091 821.093,-34.3814 825.86,-29.2547"/>
</g>
<!-- Node19&#45;&gt;Node18 -->
<g id="edge24" class="edge"><title>Node19&#45;&gt;Node18</title>
<path fill="none" stroke="midnightblue" d="M664.477,-190.475C683.605,-180.578 715.373,-164.142 737.652,-152.615"/>
<polygon fill="midnightblue" stroke="midnightblue" points="739.281,-155.713 746.554,-148.009 736.064,-149.496 739.281,-155.713"/>
</g>
<!-- Node23 -->
<g id="node23" class="node"><title>Node23</title>
<polygon fill="white" stroke="#bfbfbf" points="1036,-246.5 1036,-265.5 1082,-265.5 1082,-246.5 1036,-246.5"/>
<text text-anchor="middle" x="1059" y="-253.5" font-family="Helvetica,sans-Serif" font-size="10.00">atomic</text>
</g>
<!-- Node22&#45;&gt;Node23 -->
<g id="edge32" class="edge"><title>Node22&#45;&gt;Node23</title>
<path fill="none" stroke="midnightblue" d="M997.729,-302.324C1008.84,-294.107 1025.74,-281.602 1038.98,-271.807"/>
<polygon fill="midnightblue" stroke="midnightblue" points="1041.1,-274.595 1047.06,-265.834 1036.94,-268.967 1041.1,-274.595"/>
</g>
<!-- Node24 -->
<g id="node24" class="node"><title>Node24</title>
<polygon fill="white" stroke="#bfbfbf" points="958.5,-246.5 958.5,-265.5 1017.5,-265.5 1017.5,-246.5 958.5,-246.5"/>
<text text-anchor="middle" x="988" y="-253.5" font-family="Helvetica,sans-Serif" font-size="10.00">stdexcept</text>
</g>
<!-- Node22&#45;&gt;Node24 -->
<g id="edge33" class="edge"><title>Node22&#45;&gt;Node24</title>
<path fill="none" stroke="midnightblue" d="M986.33,-302.083C986.592,-295.006 986.968,-284.861 987.297,-275.986"/>
<polygon fill="midnightblue" stroke="midnightblue" points="990.803,-275.874 987.676,-265.751 983.808,-275.615 990.803,-275.874"/>
</g>
<!-- Node25&#45;&gt;Node5 -->
<g id="edge40" class="edge"><title>Node25&#45;&gt;Node5</title>
<path fill="none" stroke="midnightblue" d="M155.954,-302.112C137.619,-273.956 85.9806,-184.941 121,-123 146.381,-78.1076 199.096,-50.0454 240.428,-34.0705"/>
<polygon fill="midnightblue" stroke="midnightblue" points="241.713,-37.3268 249.862,-30.5552 239.269,-30.7675 241.713,-37.3268"/>
</g>
<!-- Node26 -->
<g id="node26" class="node"><title>Node26</title>
<g id="a_node26"><a xlink:href="queue_8h.html" target="_top" xlink:title="queue.h">
<polygon fill="white" stroke="black" points="28.5,-246.5 28.5,-265.5 79.5,-265.5 79.5,-246.5 28.5,-246.5"/>
<text text-anchor="middle" x="54" y="-253.5" font-family="Helvetica,sans-Serif" font-size="10.00">queue.h</text>
</a>
</g>
</g>
<!-- Node25&#45;&gt;Node26 -->
<g id="edge35" class="edge"><title>Node25&#45;&gt;Node26</title>
<path fill="none" stroke="midnightblue" d="M144.648,-302.324C127.328,-293.664 100.485,-280.242 80.4981,-270.249"/>
<polygon fill="midnightblue" stroke="midnightblue" points="81.8186,-266.996 71.309,-265.655 78.688,-273.257 81.8186,-266.996"/>
</g>
<!-- Node28 -->
<g id="node28" class="node"><title>Node28</title>
<g id="a_node28"><a xlink:href="synchronization_8h.html" target="_top" xlink:title="synchronization.h">
<polygon fill="white" stroke="black" points="130.5,-190.5 130.5,-209.5 223.5,-209.5 223.5,-190.5 130.5,-190.5"/>
<text text-anchor="middle" x="177" y="-197.5" font-family="Helvetica,sans-Serif" font-size="10.00">synchronization.h</text>
</a>
</g>
</g>
<!-- Node25&#45;&gt;Node28 -->
<g id="edge39" class="edge"><title>Node25&#45;&gt;Node28</title>
<path fill="none" stroke="midnightblue" d="M163.177,-302.368C165.598,-284.617 171.182,-243.666 174.464,-219.597"/>
<polygon fill="midnightblue" stroke="midnightblue" points="177.945,-219.973 175.828,-209.591 171.009,-219.027 177.945,-219.973"/>
</g>
<!-- Node27 -->
<g id="node27" class="node"><title>Node27</title>
<polygon fill="white" stroke="#bfbfbf" points="30.5,-190.5 30.5,-209.5 73.5,-209.5 73.5,-190.5 30.5,-190.5"/>
<text text-anchor="middle" x="52" y="-197.5" font-family="Helvetica,sans-Serif" font-size="10.00">queue</text>
</g>
<!-- Node26&#45;&gt;Node27 -->
<g id="edge36" class="edge"><title>Node26&#45;&gt;Node27</title>
<path fill="none" stroke="midnightblue" d="M53.6697,-246.083C53.4076,-239.006 53.0319,-228.861 52.7032,-219.986"/>
<polygon fill="midnightblue" stroke="midnightblue" points="56.1919,-219.615 52.3241,-209.751 49.1967,-219.874 56.1919,-219.615"/>
</g>
<!-- Node26&#45;&gt;Node28 -->
<g id="edge37" class="edge"><title>Node26&#45;&gt;Node28</title>
<path fill="none" stroke="midnightblue" d="M73.4897,-246.444C93.6422,-237.596 125.323,-223.687 148.331,-213.586"/>
<polygon fill="midnightblue" stroke="midnightblue" points="149.852,-216.741 157.601,-209.516 147.038,-210.332 149.852,-216.741"/>
</g>
<!-- Node28&#45;&gt;Node20 -->
<g id="edge38" class="edge"><title>Node28&#45;&gt;Node20</title>
<path fill="none" stroke="midnightblue" d="M177.573,-190.475C178.044,-183.471 178.735,-173.192 179.373,-163.696"/>
<polygon fill="midnightblue" stroke="midnightblue" points="182.879,-163.735 180.057,-153.523 175.894,-163.266 182.879,-163.735"/>
</g>
<!-- Node29&#45;&gt;Node5 -->
<g id="edge42" class="edge"><title>Node29&#45;&gt;Node5</title>
<path fill="none" stroke="midnightblue" d="M45.6699,-302.386C37.7834,-293.801 26.12,-279.923 19,-266 5.29635,-239.203 0,-231.098 0,-201 0,-201 0,-201 0,-137.5 0,-86.8254 149.8,-47.1827 236.983,-28.4021"/>
<polygon fill="midnightblue" stroke="midnightblue" points="237.717,-31.8244 246.772,-26.3242 236.263,-24.977 237.717,-31.8244"/>
</g>
<!-- Node29&#45;&gt;Node26 -->
<g id="edge43" class="edge"><title>Node29&#45;&gt;Node26</title>
<path fill="none" stroke="midnightblue" d="M54,-302.083C54,-295.006 54,-284.861 54,-275.986"/>
<polygon fill="midnightblue" stroke="midnightblue" points="57.5001,-275.751 54,-265.751 50.5001,-275.751 57.5001,-275.751"/>
</g>
<!-- Node30&#45;&gt;Node5 -->
<g id="edge46" class="edge"><title>Node30&#45;&gt;Node5</title>
<path fill="none" stroke="midnightblue" d="M300.362,-190.481C294.946,-181.745 287.136,-167.556 284,-154 275.284,-116.328 278.787,-105.314 284,-67 285.19,-58.2526 287.489,-48.8813 289.886,-40.6157"/>
<polygon fill="midnightblue" stroke="midnightblue" points="293.29,-41.455 292.897,-30.8675 286.602,-39.3888 293.29,-41.455"/>
</g>
<!-- Node30&#45;&gt;Node15 -->
<g id="edge47" class="edge"><title>Node30&#45;&gt;Node15</title>
<path fill="none" stroke="midnightblue" d="M307.748,-190.434C312.654,-168.085 328.309,-106.966 360,-67 372.142,-51.6883 390.11,-38.97 404.932,-30.127"/>
<polygon fill="midnightblue" stroke="midnightblue" points="406.727,-33.1324 413.674,-25.1331 403.255,-27.0542 406.727,-33.1324"/>
</g>
<!-- Node30&#45;&gt;Node20 -->
<g id="edge45" class="edge"><title>Node30&#45;&gt;Node20</title>
<path fill="none" stroke="midnightblue" d="M288.091,-190.475C270.291,-182.002 242.423,-168.737 219.577,-157.863"/>
<polygon fill="midnightblue" stroke="midnightblue" points="220.994,-154.661 210.46,-153.523 217.985,-160.981 220.994,-154.661"/>
</g>
</g>
</svg>
        <g id="navigator" transform="translate(0 0)" fill="#404254">
                <rect fill="#f2f5e9" fill-opacity="0.5" stroke="#606060" stroke-width=".5" x="0" y="0" width="60" height="60"/>
                <use id="zoomplus" xlink:href="#zoomPlus" x="17" y="9" onmousedown="handleZoom(evt,'in')"/>
                <use id="zoomminus" xlink:href="#zoomMin" x="42" y="9" onmousedown="handleZoom(evt,'out')"/>
                <use id="reset" xlink:href="#resetDef" x="30" y="36" onmousedown="handleReset()"/>
                <g id="arrowUp" xlink:href="#dirArrow" transform="translate(30 24)" onmousedown="handlePan(0,-1)">
                  <use xlink:href="#rim" fill="#404040">
                        <set attributeName="fill" to="#808080" begin="arrowUp.mouseover" end="arrowUp.mouseout"/>
                  </use>
                  <path fill="none" stroke="white" stroke-width="1.5" d="M0,-3.0v7 M-2.5,-0.5L0,-3.0L2.5,-0.5"/>
                </g>
                <g id="arrowRight" xlink:href="#dirArrow" transform="rotate(90) translate(36 -43)" onmousedown="handlePan(1,0)">
                  <use xlink:href="#rim" fill="#404040">
                        <set attributeName="fill" to="#808080" begin="arrowRight.mouseover" end="arrowRight.mouseout"/>
                  </use>
                  <path fill="none" stroke="white" stroke-width="1.5" d="M0,-3.0v7 M-2.5,-0.5L0,-3.0L2.5,-0.5"/>
                </g>
                <g id="arrowDown" xlink:href="#dirArrow" transform="rotate(180) translate(-30 -48)" onmousedown="handlePan(0,1)">
                  <use xlink:href="#rim" fill="#404040">
                        <set attributeName="fill" to="#808080" begin="arrowDown.mouseover" end="arrowDown.mouseout"/>
                  </use>
                  <path fill="none" stroke="white" stroke-width="1.5" d="M0,-3.0v7 M-2.5,-0.5L0,-3.0L2.5,-0.5"/>
                </g>
                <g id="arrowLeft" xlink:href="#dirArrow" transform="rotate(270) translate(-36 17)" onmousedown="handlePan(-1,0)">
                  <use xlink:href="#rim" fill="#404040">
                        <set attributeName="fill" to="#808080" begin="arrowLeft.mouseover" end="arrowLeft.mouseout"/>
                  </use>
                  <path fill="none" stroke="white" stroke-width="1.5" d="M0,-3.0v7 M-2.5,-0.5L0,-3.0L2.5,-0.5"/>
                </g>
        </g>
        <svg viewBox="0 0 15 15" width="100%" height="30px" preserveAspectRatio="xMaxYMin meet">
         <g id="arrow_out" transform="scale(0.3 0.3)">
          <a xlink:href="filter_8h__incl_org.svg" target="_base">
           <rect id="button" ry="5" rx="5" y="6" x="6" height="38" width="38"
                fill="#f2f5e9" fill-opacity="0.5" stroke="#606060" stroke-width="1.0"/>
           <path id="arrow"
             d="M 11.500037,31.436501 C 11.940474,20.09759 22.043105,11.32322 32.158766,21.979434 L 37.068811,17.246167 C 37.068811,17.246167 37.088388,32 37.088388,32 L 22.160133,31.978069 C 22.160133,31.978069 26.997745,27.140456 26.997745,27.140456 C 18.528582,18.264221 13.291696,25.230495 11.500037,31.436501 z"
             style="fill:#404040;"/>
          </a>
         </g>
        </svg>
</svg>
