<?xml version="1.0" encoding="UTF-8" standalone="no"?>
<!DOCTYPE svg PUBLIC "-//W3C//DTD SVG 1.1//EN"
 "http://www.w3.org/Graphics/SVG/1.1/DTD/svg11.dtd">
<!-- Generated by graphviz version 2.38.0 (20140413.2041)
 -->
<!-- Title: /bitrise/src/Source/AR6/InstantOn/cv/pyramid/gaussian_scale_space_pyramid.cpp Pages: 1 -->
<!--zoomable 251 -->
<svg id="main" version="1.1" xmlns="http://www.w3.org/2000/svg" xmlns:xlink="http://www.w3.org/1999/xlink" xml:space="preserve" onload="init(evt)">
<style type="text/css"><![CDATA[
.edge:hover path { stroke: red; }
.edge:hover polygon { stroke: red; fill: red; }
]]></style>
<script type="text/javascript"><![CDATA[
var edges = document.getElementsByTagName('g');
if (edges && edges.length) {
  for (var i=0;i<edges.length;i++) {
    if (edges[i].id.substr(0,4)=='edge') {
      edges[i].setAttribute('class','edge');
    }
  }
}
]]></script>
        <defs>
                <circle id="rim" cx="0" cy="0" r="7"/>
                <circle id="rim2" cx="0" cy="0" r="3.5"/>
                <g id="zoomPlus">
                        <use xlink:href="#rim" fill="#404040">
                                <set attributeName="fill" to="#808080" begin="zoomplus.mouseover" end="zoomplus.mouseout"/>
                        </use>
                        <path d="M-4,0h8M0,-4v8" fill="none" stroke="white" stroke-width="1.5" pointer-events="none"/>
                </g>
                <g id="zoomMin">
                        <use xlink:href="#rim" fill="#404040">
                                <set attributeName="fill" to="#808080" begin="zoomminus.mouseover" end="zoomminus.mouseout"/>
                        </use>
                        <path d="M-4,0h8" fill="none" stroke="white" stroke-width="1.5" pointer-events="none"/>
                </g>
                <g id="dirArrow">
                        <path fill="none" stroke="white" stroke-width="1.5" d="M0,-3.0v7 M-2.5,-0.5L0,-3.0L2.5,-0.5"/>
                </g>
               <g id="resetDef">
                       <use xlink:href="#rim2" fill="#404040">
                               <set attributeName="fill" to="#808080" begin="reset.mouseover" end="reset.mouseout"/>
                       </use>
               </g>
        </defs>

<script type="text/javascript">
var viewWidth = 769;
var viewHeight = 251;
var sectionId = 'dynsection-0';
</script>
<script xlink:href="svgpan.js"/>
<svg id="graph" class="graph">
<g id="viewport">
<title>/bitrise/src/Source/AR6/InstantOn/cv/pyramid/gaussian_scale_space_pyramid.cpp</title>
<polygon fill="white" stroke="none" points="-4,4 -4,-247 764.952,-247 764.952,4 -4,4"/>
<!-- Node1 -->
<g id="node1" class="node"><title>Node1</title>
<polygon fill="#bfbfbf" stroke="black" points="216.952,-201.5 216.952,-242.5 393.952,-242.5 393.952,-201.5 216.952,-201.5"/>
<text text-anchor="start" x="224.952" y="-230.5" font-family="Helvetica,sans-Serif" font-size="10.00">/bitrise/src/Source</text>
<text text-anchor="start" x="224.952" y="-219.5" font-family="Helvetica,sans-Serif" font-size="10.00">/AR6/InstantOn/cv/pyramid</text>
<text text-anchor="middle" x="305.452" y="-208.5" font-family="Helvetica,sans-Serif" font-size="10.00">/gaussian_scale_space_pyramid.cpp</text>
</g>
<!-- Node2 -->
<g id="node2" class="node"><title>Node2</title>
<g id="a_node2"><a xlink:href="gaussian__scale__space__pyramid_8h.html" target="_top" xlink:title="AR6/InstantOn/cv/pyramid\l/gaussian_scale_space_pyramid.h">
<polygon fill="white" stroke="black" points="16.9519,-134.5 16.9519,-164.5 183.952,-164.5 183.952,-134.5 16.9519,-134.5"/>
<text text-anchor="start" x="24.9519" y="-152.5" font-family="Helvetica,sans-Serif" font-size="10.00">AR6/InstantOn/cv/pyramid</text>
<text text-anchor="middle" x="100.452" y="-141.5" font-family="Helvetica,sans-Serif" font-size="10.00">/gaussian_scale_space_pyramid.h</text>
</a>
</g>
</g>
<!-- Node1&#45;&gt;Node2 -->
<g id="edge1" class="edge"><title>Node1&#45;&gt;Node2</title>
<path fill="none" stroke="midnightblue" d="M248.62,-201.455C218.066,-190.948 180.708,-178.1 151.147,-167.934"/>
<polygon fill="midnightblue" stroke="midnightblue" points="152.037,-164.539 141.443,-164.597 149.761,-171.159 152.037,-164.539"/>
</g>
<!-- Node5 -->
<g id="node5" class="node"><title>Node5</title>
<polygon fill="white" stroke="#bfbfbf" points="348.452,-0.5 348.452,-30.5 450.452,-30.5 450.452,-0.5 348.452,-0.5"/>
<text text-anchor="start" x="356.452" y="-18.5" font-family="Helvetica,sans-Serif" font-size="10.00">artvision/framework</text>
<text text-anchor="middle" x="399.452" y="-7.5" font-family="Helvetica,sans-Serif" font-size="10.00">/exception.h</text>
</g>
<!-- Node1&#45;&gt;Node5 -->
<g id="edge12" class="edge"><title>Node1&#45;&gt;Node5</title>
<path fill="none" stroke="midnightblue" d="M320.015,-201.11C336.609,-177.582 363.491,-136.705 379.452,-98 387.106,-79.4382 392.315,-57.2426 395.494,-40.7046"/>
<polygon fill="midnightblue" stroke="midnightblue" points="398.959,-41.2122 397.295,-30.7489 392.071,-39.9663 398.959,-41.2122"/>
</g>
<!-- Node6 -->
<g id="node6" class="node"><title>Node6</title>
<polygon fill="white" stroke="#bfbfbf" points="158.452,-0.5 158.452,-30.5 260.452,-30.5 260.452,-0.5 158.452,-0.5"/>
<text text-anchor="start" x="166.452" y="-18.5" font-family="Helvetica,sans-Serif" font-size="10.00">artvision/framework</text>
<text text-anchor="middle" x="209.452" y="-7.5" font-family="Helvetica,sans-Serif" font-size="10.00">/error.h</text>
</g>
<!-- Node1&#45;&gt;Node6 -->
<g id="edge11" class="edge"><title>Node1&#45;&gt;Node6</title>
<path fill="none" stroke="midnightblue" d="M290.756,-201.11C273.998,-177.58 246.81,-136.703 230.452,-98 222.613,-79.4521 217.128,-57.2554 213.734,-40.7135"/>
<polygon fill="midnightblue" stroke="midnightblue" points="217.143,-39.9054 211.803,-30.7549 210.271,-41.2384 217.143,-39.9054"/>
</g>
<!-- Node10 -->
<g id="node10" class="node"><title>Node10</title>
<g id="a_node10"><a xlink:href="log_8h.html" target="_top" xlink:title="Logging utilities. ">
<polygon fill="white" stroke="black" points="521.452,-140 521.452,-159 613.452,-159 613.452,-140 521.452,-140"/>
<text text-anchor="middle" x="567.452" y="-147" font-family="Helvetica,sans-Serif" font-size="10.00">AR6/ARUtil/log.h</text>
</a>
</g>
</g>
<!-- Node1&#45;&gt;Node10 -->
<g id="edge13" class="edge"><title>Node1&#45;&gt;Node10</title>
<path fill="none" stroke="midnightblue" d="M378.086,-201.455C425.731,-188.635 486.324,-172.33 525.962,-161.664"/>
<polygon fill="midnightblue" stroke="midnightblue" points="527.068,-164.991 535.815,-159.013 525.249,-158.232 527.068,-164.991"/>
</g>
<!-- Node3 -->
<g id="node3" class="node"><title>Node3</title>
<polygon fill="white" stroke="#bfbfbf" points="139.452,-73 139.452,-92 183.452,-92 183.452,-73 139.452,-73"/>
<text text-anchor="middle" x="161.452" y="-80" font-family="Helvetica,sans-Serif" font-size="10.00">vector</text>
</g>
<!-- Node2&#45;&gt;Node3 -->
<g id="edge2" class="edge"><title>Node2&#45;&gt;Node3</title>
<path fill="none" stroke="midnightblue" d="M113.688,-134.396C123.293,-124.161 136.305,-110.296 146.322,-99.622"/>
<polygon fill="midnightblue" stroke="midnightblue" points="149.001,-101.882 153.292,-92.1945 143.897,-97.0913 149.001,-101.882"/>
</g>
<!-- Node4 -->
<g id="node4" class="node"><title>Node4</title>
<g id="a_node4"><a xlink:href="image_8h.html" target="_top" xlink:title="AR6/InstantOn/framework\l/image.h">
<polygon fill="white" stroke="black" points="239.952,-67.5 239.952,-97.5 370.952,-97.5 370.952,-67.5 239.952,-67.5"/>
<text text-anchor="start" x="247.952" y="-85.5" font-family="Helvetica,sans-Serif" font-size="10.00">AR6/InstantOn/framework</text>
<text text-anchor="middle" x="305.452" y="-74.5" font-family="Helvetica,sans-Serif" font-size="10.00">/image.h</text>
</a>
</g>
</g>
<!-- Node2&#45;&gt;Node4 -->
<g id="edge3" class="edge"><title>Node2&#45;&gt;Node4</title>
<path fill="none" stroke="midnightblue" d="M144.681,-134.476C175.963,-124.557 218.087,-111.201 251.37,-100.648"/>
<polygon fill="midnightblue" stroke="midnightblue" points="252.474,-103.97 260.948,-97.6109 250.358,-97.2971 252.474,-103.97"/>
</g>
<!-- Node8 -->
<g id="node8" class="node"><title>Node8</title>
<g id="a_node8"><a xlink:href="math__utils_8h.html" target="_top" xlink:title="AR6/InstantOn/math\l/math_utils.h">
<polygon fill="white" stroke="black" points="14.9519,-67.5 14.9519,-97.5 121.952,-97.5 121.952,-67.5 14.9519,-67.5"/>
<text text-anchor="start" x="22.9519" y="-85.5" font-family="Helvetica,sans-Serif" font-size="10.00">AR6/InstantOn/math</text>
<text text-anchor="middle" x="68.4519" y="-74.5" font-family="Helvetica,sans-Serif" font-size="10.00">/math_utils.h</text>
</a>
</g>
</g>
<!-- Node2&#45;&gt;Node8 -->
<g id="edge7" class="edge"><title>Node2&#45;&gt;Node8</title>
<path fill="none" stroke="midnightblue" d="M93.5083,-134.396C89.5247,-126.304 84.4242,-115.944 79.866,-106.685"/>
<polygon fill="midnightblue" stroke="midnightblue" points="82.9388,-105.002 75.3818,-97.5765 76.6586,-108.094 82.9388,-105.002"/>
</g>
<!-- Node9 -->
<g id="node9" class="node"><title>Node9</title>
<polygon fill="white" stroke="#bfbfbf" points="5.45186,-6 5.45186,-25 49.4519,-25 49.4519,-6 5.45186,-6"/>
<text text-anchor="middle" x="27.4519" y="-13" font-family="Helvetica,sans-Serif" font-size="10.00">cmath</text>
</g>
<!-- Node2&#45;&gt;Node9 -->
<g id="edge10" class="edge"><title>Node2&#45;&gt;Node9</title>
<path fill="none" stroke="midnightblue" d="M51.3302,-134.284C33.6904,-126.546 15.6501,-114.971 5.45186,-98 -6.64998,-77.8615 5.03238,-50.9849 15.4564,-33.7066"/>
<polygon fill="midnightblue" stroke="midnightblue" points="18.467,-35.4964 20.959,-25.1988 12.5893,-31.6948 18.467,-35.4964"/>
</g>
<!-- Node4&#45;&gt;Node5 -->
<g id="edge4" class="edge"><title>Node4&#45;&gt;Node5</title>
<path fill="none" stroke="midnightblue" d="M325.848,-67.396C338.905,-58.3672 356.047,-46.5141 370.502,-36.5184"/>
<polygon fill="midnightblue" stroke="midnightblue" points="372.861,-39.1429 379.095,-30.5765 368.879,-33.3853 372.861,-39.1429"/>
</g>
<!-- Node4&#45;&gt;Node6 -->
<g id="edge5" class="edge"><title>Node4&#45;&gt;Node6</title>
<path fill="none" stroke="midnightblue" d="M284.621,-67.396C271.161,-58.282 253.45,-46.2902 238.6,-36.236"/>
<polygon fill="midnightblue" stroke="midnightblue" points="240.485,-33.285 230.242,-30.5765 236.56,-39.0813 240.485,-33.285"/>
</g>
<!-- Node7 -->
<g id="node7" class="node"><title>Node7</title>
<polygon fill="white" stroke="#bfbfbf" points="278.452,-6 278.452,-25 330.452,-25 330.452,-6 278.452,-6"/>
<text text-anchor="middle" x="304.452" y="-13" font-family="Helvetica,sans-Serif" font-size="10.00">memory</text>
</g>
<!-- Node4&#45;&gt;Node7 -->
<g id="edge6" class="edge"><title>Node4&#45;&gt;Node7</title>
<path fill="none" stroke="midnightblue" d="M305.235,-67.396C305.091,-58.0638 304.901,-45.7143 304.744,-35.5173"/>
<polygon fill="midnightblue" stroke="midnightblue" points="308.239,-35.1395 304.586,-25.1945 301.24,-35.2472 308.239,-35.1395"/>
</g>
<!-- Node8&#45;&gt;Node6 -->
<g id="edge9" class="edge"><title>Node8&#45;&gt;Node6</title>
<path fill="none" stroke="midnightblue" d="M99.0468,-67.396C119.741,-57.8561 147.275,-45.1632 169.669,-34.8397"/>
<polygon fill="midnightblue" stroke="midnightblue" points="171.3,-37.9416 178.917,-30.5765 168.37,-31.5845 171.3,-37.9416"/>
</g>
<!-- Node8&#45;&gt;Node9 -->
<g id="edge8" class="edge"><title>Node8&#45;&gt;Node9</title>
<path fill="none" stroke="midnightblue" d="M59.5555,-67.396C53.3526,-57.5621 45.0363,-44.3777 38.4222,-33.892"/>
<polygon fill="midnightblue" stroke="midnightblue" points="41.2315,-31.7853 32.9361,-25.1945 35.3109,-35.5198 41.2315,-31.7853"/>
</g>
<!-- Node11 -->
<g id="node11" class="node"><title>Node11</title>
<polygon fill="white" stroke="#bfbfbf" points="581.452,-73 581.452,-92 627.452,-92 627.452,-73 581.452,-73"/>
<text text-anchor="middle" x="604.452" y="-80" font-family="Helvetica,sans-Serif" font-size="10.00">stdio.h</text>
</g>
<!-- Node10&#45;&gt;Node11 -->
<g id="edge14" class="edge"><title>Node10&#45;&gt;Node11</title>
<path fill="none" stroke="midnightblue" d="M572.442,-139.734C578.045,-129.89 587.284,-113.66 594.4,-101.159"/>
<polygon fill="midnightblue" stroke="midnightblue" points="597.636,-102.549 599.541,-92.1273 591.552,-99.0865 597.636,-102.549"/>
</g>
<!-- Node12 -->
<g id="node12" class="node"><title>Node12</title>
<polygon fill="white" stroke="#bfbfbf" points="645.452,-73 645.452,-92 693.452,-92 693.452,-73 645.452,-73"/>
<text text-anchor="middle" x="669.452" y="-80" font-family="Helvetica,sans-Serif" font-size="10.00">stdlib.h</text>
</g>
<!-- Node10&#45;&gt;Node12 -->
<g id="edge15" class="edge"><title>Node10&#45;&gt;Node12</title>
<path fill="none" stroke="midnightblue" d="M581.208,-139.734C598.184,-128.916 627.266,-110.383 647.379,-97.5659"/>
<polygon fill="midnightblue" stroke="midnightblue" points="649.361,-100.453 655.914,-92.1273 645.599,-94.5498 649.361,-100.453"/>
</g>
<!-- Node13 -->
<g id="node13" class="node"><title>Node13</title>
<polygon fill="white" stroke="#bfbfbf" points="711.952,-73 711.952,-92 760.952,-92 760.952,-73 711.952,-73"/>
<text text-anchor="middle" x="736.452" y="-80" font-family="Helvetica,sans-Serif" font-size="10.00">string.h</text>
</g>
<!-- Node10&#45;&gt;Node13 -->
<g id="edge16" class="edge"><title>Node10&#45;&gt;Node13</title>
<path fill="none" stroke="midnightblue" d="M591.476,-139.885C618.57,-130.082 663.884,-113.428 702.452,-98 704.049,-97.3609 705.685,-96.6967 707.334,-96.0195"/>
<polygon fill="midnightblue" stroke="midnightblue" points="708.863,-99.1737 716.738,-92.0856 706.162,-92.7159 708.863,-99.1737"/>
</g>
<!-- Node14 -->
<g id="node14" class="node"><title>Node14</title>
<polygon fill="white" stroke="#bfbfbf" points="427.452,-73 427.452,-92 479.452,-92 479.452,-73 427.452,-73"/>
<text text-anchor="middle" x="453.452" y="-80" font-family="Helvetica,sans-Serif" font-size="10.00">stdarg.h</text>
</g>
<!-- Node10&#45;&gt;Node14 -->
<g id="edge17" class="edge"><title>Node10&#45;&gt;Node14</title>
<path fill="none" stroke="midnightblue" d="M552.077,-139.734C532.933,-128.818 500.014,-110.049 477.516,-97.2209"/>
<polygon fill="midnightblue" stroke="midnightblue" points="479.004,-94.04 468.583,-92.1273 475.536,-100.121 479.004,-94.04"/>
</g>
<!-- Node15 -->
<g id="node15" class="node"><title>Node15</title>
<polygon fill="white" stroke="#bfbfbf" points="497.952,-73 497.952,-92 562.952,-92 562.952,-73 497.952,-73"/>
<text text-anchor="middle" x="530.452" y="-80" font-family="Helvetica,sans-Serif" font-size="10.00">sys/errno.h</text>
</g>
<!-- Node10&#45;&gt;Node15 -->
<g id="edge18" class="edge"><title>Node10&#45;&gt;Node15</title>
<path fill="none" stroke="midnightblue" d="M562.462,-139.734C556.859,-129.89 547.62,-113.66 540.504,-101.159"/>
<polygon fill="midnightblue" stroke="midnightblue" points="543.352,-99.0865 535.363,-92.1273 537.268,-102.549 543.352,-99.0865"/>
</g>
</g>
</svg>
        <g id="navigator" transform="translate(0 0)" fill="#404254">
                <rect fill="#f2f5e9" fill-opacity="0.5" stroke="#606060" stroke-width=".5" x="0" y="0" width="60" height="60"/>
                <use id="zoomplus" xlink:href="#zoomPlus" x="17" y="9" onmousedown="handleZoom(evt,'in')"/>
                <use id="zoomminus" xlink:href="#zoomMin" x="42" y="9" onmousedown="handleZoom(evt,'out')"/>
                <use id="reset" xlink:href="#resetDef" x="30" y="36" onmousedown="handleReset()"/>
                <g id="arrowUp" xlink:href="#dirArrow" transform="translate(30 24)" onmousedown="handlePan(0,-1)">
                  <use xlink:href="#rim" fill="#404040">
                        <set attributeName="fill" to="#808080" begin="arrowUp.mouseover" end="arrowUp.mouseout"/>
                  </use>
                  <path fill="none" stroke="white" stroke-width="1.5" d="M0,-3.0v7 M-2.5,-0.5L0,-3.0L2.5,-0.5"/>
                </g>
                <g id="arrowRight" xlink:href="#dirArrow" transform="rotate(90) translate(36 -43)" onmousedown="handlePan(1,0)">
                  <use xlink:href="#rim" fill="#404040">
                        <set attributeName="fill" to="#808080" begin="arrowRight.mouseover" end="arrowRight.mouseout"/>
                  </use>
                  <path fill="none" stroke="white" stroke-width="1.5" d="M0,-3.0v7 M-2.5,-0.5L0,-3.0L2.5,-0.5"/>
                </g>
                <g id="arrowDown" xlink:href="#dirArrow" transform="rotate(180) translate(-30 -48)" onmousedown="handlePan(0,1)">
                  <use xlink:href="#rim" fill="#404040">
                        <set attributeName="fill" to="#808080" begin="arrowDown.mouseover" end="arrowDown.mouseout"/>
                  </use>
                  <path fill="none" stroke="white" stroke-width="1.5" d="M0,-3.0v7 M-2.5,-0.5L0,-3.0L2.5,-0.5"/>
                </g>
                <g id="arrowLeft" xlink:href="#dirArrow" transform="rotate(270) translate(-36 17)" onmousedown="handlePan(-1,0)">
                  <use xlink:href="#rim" fill="#404040">
                        <set attributeName="fill" to="#808080" begin="arrowLeft.mouseover" end="arrowLeft.mouseout"/>
                  </use>
                  <path fill="none" stroke="white" stroke-width="1.5" d="M0,-3.0v7 M-2.5,-0.5L0,-3.0L2.5,-0.5"/>
                </g>
        </g>
        <svg viewBox="0 0 15 15" width="100%" height="30px" preserveAspectRatio="xMaxYMin meet">
         <g id="arrow_out" transform="scale(0.3 0.3)">
          <a xlink:href="gaussian__scale__space__pyramid_8cpp__incl_org.svg" target="_base">
           <rect id="button" ry="5" rx="5" y="6" x="6" height="38" width="38"
                fill="#f2f5e9" fill-opacity="0.5" stroke="#606060" stroke-width="1.0"/>
           <path id="arrow"
             d="M 11.500037,31.436501 C 11.940474,20.09759 22.043105,11.32322 32.158766,21.979434 L 37.068811,17.246167 C 37.068811,17.246167 37.088388,32 37.088388,32 L 22.160133,31.978069 C 22.160133,31.978069 26.997745,27.140456 26.997745,27.140456 C 18.528582,18.264221 13.291696,25.230495 11.500037,31.436501 z"
             style="fill:#404040;"/>
          </a>
         </g>
        </svg>
</svg>
