<?xml version="1.0" encoding="UTF-8" standalone="no"?>
<!DOCTYPE svg PUBLIC "-//W3C//DTD SVG 1.1//EN"
 "http://www.w3.org/Graphics/SVG/1.1/DTD/svg11.dtd">
<!-- Generated by graphviz version 2.38.0 (20140413.2041)
 -->
<!-- Title: artvision_instanton::OrthogonalizePivot7x9Basis6 Pages: 1 -->
<svg width="452pt" height="186pt"
 viewBox="0.00 0.00 452.00 186.00" xmlns="http://www.w3.org/2000/svg" xmlns:xlink="http://www.w3.org/1999/xlink">
<g id="graph0" class="graph" transform="scale(1 1) rotate(0) translate(4 182)">
<title>artvision_instanton::OrthogonalizePivot7x9Basis6</title>
<polygon fill="white" stroke="none" points="-4,4 -4,-182 448,-182 448,4 -4,4"/>
<!-- Node1 -->
<g id="node1" class="node"><title>Node1</title>
<polygon fill="#bfbfbf" stroke="black" points="0,-73.5 0,-103.5 151,-103.5 151,-73.5 0,-73.5"/>
<text text-anchor="start" x="8" y="-91.5" font-family="Helvetica,sans-Serif" font-size="10.00">artvision_instanton</text>
<text text-anchor="middle" x="75.5" y="-80.5" font-family="Helvetica,sans-Serif" font-size="10.00">::OrthogonalizePivot7x9Basis6</text>
</g>
<!-- Node2 -->
<g id="node2" class="node"><title>Node2</title>
<g id="a_node2"><a xlink:href="namespaceartvision__instanton.html#af1c323814e3a5910c5680077ea4b90e5" target="_top" xlink:title="Project a vector &quot;a&quot; onto a normalized basis vector &quot;e&quot;. ">
<polygon fill="white" stroke="black" points="187,-147.5 187,-177.5 310,-177.5 310,-147.5 187,-147.5"/>
<text text-anchor="start" x="195" y="-165.5" font-family="Helvetica,sans-Serif" font-size="10.00">artvision_instanton</text>
<text text-anchor="middle" x="248.5" y="-154.5" font-family="Helvetica,sans-Serif" font-size="10.00">::AccumulateProjection9</text>
</a>
</g>
</g>
<!-- Node1&#45;&gt;Node2 -->
<g id="edge1" class="edge"><title>Node1&#45;&gt;Node2</title>
<path fill="none" stroke="midnightblue" d="M108.718,-103.563C130.665,-113.705 160.444,-127.232 187,-138.5 190.92,-140.163 194.998,-141.857 199.1,-143.536"/>
<polygon fill="midnightblue" stroke="midnightblue" points="198.077,-146.898 208.659,-147.407 200.704,-140.409 198.077,-146.898"/>
</g>
<!-- Node4 -->
<g id="node4" class="node"><title>Node4</title>
<g id="a_node4"><a xlink:href="namespaceartvision__instanton.html#a9c52620d821ec47fece2a51bac17822a" target="_top" xlink:title="Sum sqaured. ">
<polygon fill="white" stroke="black" points="199.5,-98.5 199.5,-128.5 297.5,-128.5 297.5,-98.5 199.5,-98.5"/>
<text text-anchor="start" x="207.5" y="-116.5" font-family="Helvetica,sans-Serif" font-size="10.00">artvision_instanton</text>
<text text-anchor="middle" x="248.5" y="-105.5" font-family="Helvetica,sans-Serif" font-size="10.00">::SumSquares9</text>
</a>
</g>
</g>
<!-- Node1&#45;&gt;Node4 -->
<g id="edge3" class="edge"><title>Node1&#45;&gt;Node4</title>
<path fill="none" stroke="midnightblue" d="M151.006,-99.3926C163.803,-101.264 176.934,-103.183 189.227,-104.981"/>
<polygon fill="midnightblue" stroke="midnightblue" points="188.929,-108.474 199.33,-106.458 189.942,-101.548 188.929,-108.474"/>
</g>
<!-- Node5 -->
<g id="node5" class="node"><title>Node5</title>
<g id="a_node5"><a xlink:href="namespaceartvision__instanton.html#a68a4505b691c74bc7659d01dd361f043" target="_top" xlink:title="Swap the contents of two vectors. ">
<polygon fill="white" stroke="black" points="199.5,-49.5 199.5,-79.5 297.5,-79.5 297.5,-49.5 199.5,-49.5"/>
<text text-anchor="start" x="207.5" y="-67.5" font-family="Helvetica,sans-Serif" font-size="10.00">artvision_instanton</text>
<text text-anchor="middle" x="248.5" y="-56.5" font-family="Helvetica,sans-Serif" font-size="10.00">::SwapVector9</text>
</a>
</g>
</g>
<!-- Node1&#45;&gt;Node5 -->
<g id="edge5" class="edge"><title>Node1&#45;&gt;Node5</title>
<path fill="none" stroke="midnightblue" d="M151.006,-78.0431C163.803,-76.247 176.934,-74.404 189.227,-72.6787"/>
<polygon fill="midnightblue" stroke="midnightblue" points="189.914,-76.1167 199.33,-71.2607 188.941,-69.1846 189.914,-76.1167"/>
</g>
<!-- Node6 -->
<g id="node6" class="node"><title>Node6</title>
<g id="a_node6"><a xlink:href="namespaceartvision__instanton.html#a41b79f3ef269aeca8553c6daea6a60c9" target="_top" xlink:title="artvision_instanton\l::ScaleVector9">
<polygon fill="white" stroke="black" points="199.5,-0.5 199.5,-30.5 297.5,-30.5 297.5,-0.5 199.5,-0.5"/>
<text text-anchor="start" x="207.5" y="-18.5" font-family="Helvetica,sans-Serif" font-size="10.00">artvision_instanton</text>
<text text-anchor="middle" x="248.5" y="-7.5" font-family="Helvetica,sans-Serif" font-size="10.00">::ScaleVector9</text>
</a>
</g>
</g>
<!-- Node1&#45;&gt;Node6 -->
<g id="edge6" class="edge"><title>Node1&#45;&gt;Node6</title>
<path fill="none" stroke="midnightblue" d="M110.776,-73.4225C132.562,-63.8858 161.387,-51.354 187,-40.5 191.655,-38.5274 196.519,-36.4855 201.379,-34.4579"/>
<polygon fill="midnightblue" stroke="midnightblue" points="202.773,-37.6688 210.663,-30.5984 200.086,-31.2051 202.773,-37.6688"/>
</g>
<!-- Node3 -->
<g id="node3" class="node"><title>Node3</title>
<g id="a_node3"><a xlink:href="namespaceartvision__instanton.html#a3c08baabe637df86886a8cc5dcb12b6b" target="_top" xlink:title="artvision_instanton\l::DotProduct9">
<polygon fill="white" stroke="black" points="346,-122.5 346,-152.5 444,-152.5 444,-122.5 346,-122.5"/>
<text text-anchor="start" x="354" y="-140.5" font-family="Helvetica,sans-Serif" font-size="10.00">artvision_instanton</text>
<text text-anchor="middle" x="395" y="-129.5" font-family="Helvetica,sans-Serif" font-size="10.00">::DotProduct9</text>
</a>
</g>
</g>
<!-- Node2&#45;&gt;Node3 -->
<g id="edge2" class="edge"><title>Node2&#45;&gt;Node3</title>
<path fill="none" stroke="midnightblue" d="M310.362,-151.97C318.807,-150.509 327.464,-149.011 335.857,-147.559"/>
<polygon fill="midnightblue" stroke="midnightblue" points="336.675,-150.97 345.932,-145.816 335.482,-144.072 336.675,-150.97"/>
</g>
<!-- Node4&#45;&gt;Node3 -->
<g id="edge4" class="edge"><title>Node4&#45;&gt;Node3</title>
<path fill="none" stroke="midnightblue" d="M297.616,-121.492C309.795,-123.514 323.008,-125.709 335.633,-127.806"/>
<polygon fill="midnightblue" stroke="midnightblue" points="335.163,-131.276 345.601,-129.461 336.31,-124.37 335.163,-131.276"/>
</g>
</g>
</svg>
