<?xml version="1.0" encoding="UTF-8" standalone="no"?>
<!DOCTYPE svg PUBLIC "-//W3C//DTD SVG 1.1//EN"
 "http://www.w3.org/Graphics/SVG/1.1/DTD/svg11.dtd">
<!-- Generated by graphviz version 2.38.0 (20140413.2041)
 -->
<!-- Title: artvision_instanton::OrthogonalizeIdentity8x9 Pages: 1 -->
<svg width="614pt" height="186pt"
 viewBox="0.00 0.00 614.00 186.00" xmlns="http://www.w3.org/2000/svg" xmlns:xlink="http://www.w3.org/1999/xlink">
<g id="graph0" class="graph" transform="scale(1 1) rotate(0) translate(4 182)">
<title>artvision_instanton::OrthogonalizeIdentity8x9</title>
<polygon fill="white" stroke="none" points="-4,4 -4,-182 610,-182 610,4 -4,4"/>
<!-- Node1 -->
<g id="node1" class="node"><title>Node1</title>
<polygon fill="#bfbfbf" stroke="black" points="0,-49.5 0,-79.5 131,-79.5 131,-49.5 0,-49.5"/>
<text text-anchor="start" x="8" y="-67.5" font-family="Helvetica,sans-Serif" font-size="10.00">artvision_instanton</text>
<text text-anchor="middle" x="65.5" y="-56.5" font-family="Helvetica,sans-Serif" font-size="10.00">::OrthogonalizeIdentity8x9</text>
</g>
<!-- Node2 -->
<g id="node2" class="node"><title>Node2</title>
<g id="a_node2"><a xlink:href="group___project.html#gac0b92662577c77af7c59d8e57ed20a1a" target="_top" xlink:title="artvision_instanton\l::OrthogonalizeIdentity8x9">
<polygon fill="white" stroke="black" points="167,-98.5 167,-128.5 298,-128.5 298,-98.5 167,-98.5"/>
<text text-anchor="start" x="175" y="-116.5" font-family="Helvetica,sans-Serif" font-size="10.00">artvision_instanton</text>
<text text-anchor="middle" x="232.5" y="-105.5" font-family="Helvetica,sans-Serif" font-size="10.00">::OrthogonalizeIdentity8x9</text>
</a>
</g>
</g>
<!-- Node1&#45;&gt;Node2 -->
<g id="edge1" class="edge"><title>Node1&#45;&gt;Node2</title>
<path fill="none" stroke="midnightblue" d="M117.352,-79.6014C134.369,-84.6551 153.504,-90.3376 171.173,-95.5848"/>
<polygon fill="midnightblue" stroke="midnightblue" points="170.233,-98.9567 180.816,-98.4484 172.226,-92.2464 170.233,-98.9567"/>
</g>
<!-- Node7 -->
<g id="node7" class="node"><title>Node7</title>
<g id="a_node7"><a xlink:href="namespaceartvision__instanton.html#ac371ffd8b5577aa4fdbdb0f7c0302399" target="_top" xlink:title="artvision_instanton\l::MaxIndex9">
<polygon fill="white" stroke="black" points="183.5,-49.5 183.5,-79.5 281.5,-79.5 281.5,-49.5 183.5,-49.5"/>
<text text-anchor="start" x="191.5" y="-67.5" font-family="Helvetica,sans-Serif" font-size="10.00">artvision_instanton</text>
<text text-anchor="middle" x="232.5" y="-56.5" font-family="Helvetica,sans-Serif" font-size="10.00">::MaxIndex9</text>
</a>
</g>
</g>
<!-- Node1&#45;&gt;Node7 -->
<g id="edge6" class="edge"><title>Node1&#45;&gt;Node7</title>
<path fill="none" stroke="midnightblue" d="M131.239,-64.5C145.052,-64.5 159.563,-64.5 173.121,-64.5"/>
<polygon fill="midnightblue" stroke="midnightblue" points="173.276,-68.0001 183.276,-64.5 173.276,-61.0001 173.276,-68.0001"/>
</g>
<!-- Node8 -->
<g id="node8" class="node"><title>Node8</title>
<g id="a_node8"><a xlink:href="namespaceartvision__instanton.html#ae7ddea6e66a6048556b4f1e119603636" target="_top" xlink:title="artvision_instanton\l::CopyVector9">
<polygon fill="white" stroke="black" points="183.5,-0.5 183.5,-30.5 281.5,-30.5 281.5,-0.5 183.5,-0.5"/>
<text text-anchor="start" x="191.5" y="-18.5" font-family="Helvetica,sans-Serif" font-size="10.00">artvision_instanton</text>
<text text-anchor="middle" x="232.5" y="-7.5" font-family="Helvetica,sans-Serif" font-size="10.00">::CopyVector9</text>
</a>
</g>
</g>
<!-- Node1&#45;&gt;Node8 -->
<g id="edge7" class="edge"><title>Node1&#45;&gt;Node8</title>
<path fill="none" stroke="midnightblue" d="M117.352,-49.3986C135.17,-44.107 155.311,-38.1259 173.659,-32.6771"/>
<polygon fill="midnightblue" stroke="midnightblue" points="174.764,-35.9999 183.354,-29.7979 172.772,-29.2896 174.764,-35.9999"/>
</g>
<!-- Node3 -->
<g id="node3" class="node"><title>Node3</title>
<g id="a_node3"><a xlink:href="namespaceartvision__instanton.html#a41b79f3ef269aeca8553c6daea6a60c9" target="_top" xlink:title="artvision_instanton\l::ScaleVector9">
<polygon fill="white" stroke="black" points="354,-147.5 354,-177.5 452,-177.5 452,-147.5 354,-147.5"/>
<text text-anchor="start" x="362" y="-165.5" font-family="Helvetica,sans-Serif" font-size="10.00">artvision_instanton</text>
<text text-anchor="middle" x="403" y="-154.5" font-family="Helvetica,sans-Serif" font-size="10.00">::ScaleVector9</text>
</a>
</g>
</g>
<!-- Node2&#45;&gt;Node3 -->
<g id="edge2" class="edge"><title>Node2&#45;&gt;Node3</title>
<path fill="none" stroke="midnightblue" d="M285.43,-128.601C304.04,-134.013 325.13,-140.146 344.206,-145.693"/>
<polygon fill="midnightblue" stroke="midnightblue" points="343.394,-149.102 353.974,-148.534 345.349,-142.381 343.394,-149.102"/>
</g>
<!-- Node4 -->
<g id="node4" class="node"><title>Node4</title>
<g id="a_node4"><a xlink:href="namespaceartvision__instanton.html#afba98e2b303a60af88cada64932f713b" target="_top" xlink:title="artvision_instanton\l::AccumulateScaledVector9">
<polygon fill="white" stroke="black" points="334,-98.5 334,-128.5 472,-128.5 472,-98.5 334,-98.5"/>
<text text-anchor="start" x="342" y="-116.5" font-family="Helvetica,sans-Serif" font-size="10.00">artvision_instanton</text>
<text text-anchor="middle" x="403" y="-105.5" font-family="Helvetica,sans-Serif" font-size="10.00">::AccumulateScaledVector9</text>
</a>
</g>
</g>
<!-- Node2&#45;&gt;Node4 -->
<g id="edge3" class="edge"><title>Node2&#45;&gt;Node4</title>
<path fill="none" stroke="midnightblue" d="M298.165,-113.5C306.57,-113.5 315.25,-113.5 323.845,-113.5"/>
<polygon fill="midnightblue" stroke="midnightblue" points="323.874,-117 333.874,-113.5 323.874,-110 323.874,-117"/>
</g>
<!-- Node5 -->
<g id="node5" class="node"><title>Node5</title>
<g id="a_node5"><a xlink:href="namespaceartvision__instanton.html#a9c52620d821ec47fece2a51bac17822a" target="_top" xlink:title="Sum sqaured. ">
<polygon fill="white" stroke="black" points="354,-49.5 354,-79.5 452,-79.5 452,-49.5 354,-49.5"/>
<text text-anchor="start" x="362" y="-67.5" font-family="Helvetica,sans-Serif" font-size="10.00">artvision_instanton</text>
<text text-anchor="middle" x="403" y="-56.5" font-family="Helvetica,sans-Serif" font-size="10.00">::SumSquares9</text>
</a>
</g>
</g>
<!-- Node2&#45;&gt;Node5 -->
<g id="edge4" class="edge"><title>Node2&#45;&gt;Node5</title>
<path fill="none" stroke="midnightblue" d="M285.43,-98.3986C304.04,-92.9868 325.13,-86.8539 344.206,-81.3067"/>
<polygon fill="midnightblue" stroke="midnightblue" points="345.349,-84.6193 353.974,-78.4661 343.394,-77.8978 345.349,-84.6193"/>
</g>
<!-- Node6 -->
<g id="node6" class="node"><title>Node6</title>
<g id="a_node6"><a xlink:href="namespaceartvision__instanton.html#a3c08baabe637df86886a8cc5dcb12b6b" target="_top" xlink:title="artvision_instanton\l::DotProduct9">
<polygon fill="white" stroke="black" points="508,-49.5 508,-79.5 606,-79.5 606,-49.5 508,-49.5"/>
<text text-anchor="start" x="516" y="-67.5" font-family="Helvetica,sans-Serif" font-size="10.00">artvision_instanton</text>
<text text-anchor="middle" x="557" y="-56.5" font-family="Helvetica,sans-Serif" font-size="10.00">::DotProduct9</text>
</a>
</g>
</g>
<!-- Node5&#45;&gt;Node6 -->
<g id="edge5" class="edge"><title>Node5&#45;&gt;Node6</title>
<path fill="none" stroke="midnightblue" d="M452.094,-64.5C466.581,-64.5 482.638,-64.5 497.712,-64.5"/>
<polygon fill="midnightblue" stroke="midnightblue" points="497.958,-68.0001 507.958,-64.5 497.958,-61.0001 497.958,-68.0001"/>
</g>
</g>
</svg>
