<?xml version="1.0" encoding="UTF-8" standalone="no"?>
<!DOCTYPE svg PUBLIC "-//W3C//DTD SVG 1.1//EN"
 "http://www.w3.org/Graphics/SVG/1.1/DTD/svg11.dtd">
<!-- Generated by graphviz version 2.38.0 (20140413.2041)
 -->
<!-- Title: artvision_instanton::OrthogonalizePivot7x9Basis5 Pages: 1 -->
<svg width="452pt" height="235pt"
 viewBox="0.00 0.00 452.00 235.00" xmlns="http://www.w3.org/2000/svg" xmlns:xlink="http://www.w3.org/1999/xlink">
<g id="graph0" class="graph" transform="scale(1 1) rotate(0) translate(4 231)">
<title>artvision_instanton::OrthogonalizePivot7x9Basis5</title>
<polygon fill="white" stroke="none" points="-4,4 -4,-231 448,-231 448,4 -4,4"/>
<!-- Node1 -->
<g id="node1" class="node"><title>Node1</title>
<polygon fill="#bfbfbf" stroke="black" points="0,-98.5 0,-128.5 151,-128.5 151,-98.5 0,-98.5"/>
<text text-anchor="start" x="8" y="-116.5" font-family="Helvetica,sans-Serif" font-size="10.00">artvision_instanton</text>
<text text-anchor="middle" x="75.5" y="-105.5" font-family="Helvetica,sans-Serif" font-size="10.00">::OrthogonalizePivot7x9Basis5</text>
</g>
<!-- Node2 -->
<g id="node2" class="node"><title>Node2</title>
<g id="a_node2"><a xlink:href="namespaceartvision__instanton.html#af1c323814e3a5910c5680077ea4b90e5" target="_top" xlink:title="Project a vector &quot;a&quot; onto a normalized basis vector &quot;e&quot;. ">
<polygon fill="white" stroke="black" points="187,-196.5 187,-226.5 310,-226.5 310,-196.5 187,-196.5"/>
<text text-anchor="start" x="195" y="-214.5" font-family="Helvetica,sans-Serif" font-size="10.00">artvision_instanton</text>
<text text-anchor="middle" x="248.5" y="-203.5" font-family="Helvetica,sans-Serif" font-size="10.00">::AccumulateProjection9</text>
</a>
</g>
</g>
<!-- Node1&#45;&gt;Node2 -->
<g id="edge1" class="edge"><title>Node1&#45;&gt;Node2</title>
<path fill="none" stroke="midnightblue" d="M96.464,-128.771C117.998,-144.779 153.686,-169.992 187,-187.5 190.095,-189.126 193.325,-190.71 196.613,-192.238"/>
<polygon fill="midnightblue" stroke="midnightblue" points="195.406,-195.531 205.966,-196.384 198.242,-189.132 195.406,-195.531"/>
</g>
<!-- Node4 -->
<g id="node4" class="node"><title>Node4</title>
<g id="a_node4"><a xlink:href="namespaceartvision__instanton.html#a9c52620d821ec47fece2a51bac17822a" target="_top" xlink:title="Sum sqaured. ">
<polygon fill="white" stroke="black" points="199.5,-147.5 199.5,-177.5 297.5,-177.5 297.5,-147.5 199.5,-147.5"/>
<text text-anchor="start" x="207.5" y="-165.5" font-family="Helvetica,sans-Serif" font-size="10.00">artvision_instanton</text>
<text text-anchor="middle" x="248.5" y="-154.5" font-family="Helvetica,sans-Serif" font-size="10.00">::SumSquares9</text>
</a>
</g>
</g>
<!-- Node1&#45;&gt;Node4 -->
<g id="edge3" class="edge"><title>Node1&#45;&gt;Node4</title>
<path fill="none" stroke="midnightblue" d="M129.201,-128.601C148.341,-134.086 170.067,-140.312 189.63,-145.917"/>
<polygon fill="midnightblue" stroke="midnightblue" points="188.76,-149.309 199.337,-148.699 190.688,-142.58 188.76,-149.309"/>
</g>
<!-- Node5 -->
<g id="node5" class="node"><title>Node5</title>
<g id="a_node5"><a xlink:href="namespaceartvision__instanton.html#a34c8e5ff15e71ec79636d73956380578" target="_top" xlink:title="artvision_instanton\l::MaxIndex2">
<polygon fill="white" stroke="black" points="199.5,-98.5 199.5,-128.5 297.5,-128.5 297.5,-98.5 199.5,-98.5"/>
<text text-anchor="start" x="207.5" y="-116.5" font-family="Helvetica,sans-Serif" font-size="10.00">artvision_instanton</text>
<text text-anchor="middle" x="248.5" y="-105.5" font-family="Helvetica,sans-Serif" font-size="10.00">::MaxIndex2</text>
</a>
</g>
</g>
<!-- Node1&#45;&gt;Node5 -->
<g id="edge5" class="edge"><title>Node1&#45;&gt;Node5</title>
<path fill="none" stroke="midnightblue" d="M151.006,-113.5C163.803,-113.5 176.934,-113.5 189.227,-113.5"/>
<polygon fill="midnightblue" stroke="midnightblue" points="189.33,-117 199.33,-113.5 189.33,-110 189.33,-117"/>
</g>
<!-- Node6 -->
<g id="node6" class="node"><title>Node6</title>
<g id="a_node6"><a xlink:href="namespaceartvision__instanton.html#a68a4505b691c74bc7659d01dd361f043" target="_top" xlink:title="Swap the contents of two vectors. ">
<polygon fill="white" stroke="black" points="199.5,-49.5 199.5,-79.5 297.5,-79.5 297.5,-49.5 199.5,-49.5"/>
<text text-anchor="start" x="207.5" y="-67.5" font-family="Helvetica,sans-Serif" font-size="10.00">artvision_instanton</text>
<text text-anchor="middle" x="248.5" y="-56.5" font-family="Helvetica,sans-Serif" font-size="10.00">::SwapVector9</text>
</a>
</g>
</g>
<!-- Node1&#45;&gt;Node6 -->
<g id="edge6" class="edge"><title>Node1&#45;&gt;Node6</title>
<path fill="none" stroke="midnightblue" d="M129.201,-98.3986C148.341,-92.9139 170.067,-86.6885 189.63,-81.0827"/>
<polygon fill="midnightblue" stroke="midnightblue" points="190.688,-84.4204 199.337,-78.3011 188.76,-77.6912 190.688,-84.4204"/>
</g>
<!-- Node7 -->
<g id="node7" class="node"><title>Node7</title>
<g id="a_node7"><a xlink:href="namespaceartvision__instanton.html#a41b79f3ef269aeca8553c6daea6a60c9" target="_top" xlink:title="artvision_instanton\l::ScaleVector9">
<polygon fill="white" stroke="black" points="199.5,-0.5 199.5,-30.5 297.5,-30.5 297.5,-0.5 199.5,-0.5"/>
<text text-anchor="start" x="207.5" y="-18.5" font-family="Helvetica,sans-Serif" font-size="10.00">artvision_instanton</text>
<text text-anchor="middle" x="248.5" y="-7.5" font-family="Helvetica,sans-Serif" font-size="10.00">::ScaleVector9</text>
</a>
</g>
</g>
<!-- Node1&#45;&gt;Node7 -->
<g id="edge7" class="edge"><title>Node1&#45;&gt;Node7</title>
<path fill="none" stroke="midnightblue" d="M96.9456,-98.2625C118.587,-82.554 154.097,-57.9584 187,-40.5 190.727,-38.5224 194.645,-36.5926 198.621,-34.7384"/>
<polygon fill="midnightblue" stroke="midnightblue" points="200.246,-37.8458 207.94,-30.5619 197.383,-31.458 200.246,-37.8458"/>
</g>
<!-- Node3 -->
<g id="node3" class="node"><title>Node3</title>
<g id="a_node3"><a xlink:href="namespaceartvision__instanton.html#a3c08baabe637df86886a8cc5dcb12b6b" target="_top" xlink:title="artvision_instanton\l::DotProduct9">
<polygon fill="white" stroke="black" points="346,-171.5 346,-201.5 444,-201.5 444,-171.5 346,-171.5"/>
<text text-anchor="start" x="354" y="-189.5" font-family="Helvetica,sans-Serif" font-size="10.00">artvision_instanton</text>
<text text-anchor="middle" x="395" y="-178.5" font-family="Helvetica,sans-Serif" font-size="10.00">::DotProduct9</text>
</a>
</g>
</g>
<!-- Node2&#45;&gt;Node3 -->
<g id="edge2" class="edge"><title>Node2&#45;&gt;Node3</title>
<path fill="none" stroke="midnightblue" d="M310.362,-200.97C318.807,-199.509 327.464,-198.011 335.857,-196.559"/>
<polygon fill="midnightblue" stroke="midnightblue" points="336.675,-199.97 345.932,-194.816 335.482,-193.072 336.675,-199.97"/>
</g>
<!-- Node4&#45;&gt;Node3 -->
<g id="edge4" class="edge"><title>Node4&#45;&gt;Node3</title>
<path fill="none" stroke="midnightblue" d="M297.616,-170.492C309.795,-172.514 323.008,-174.709 335.633,-176.806"/>
<polygon fill="midnightblue" stroke="midnightblue" points="335.163,-180.276 345.601,-178.461 336.31,-173.37 335.163,-180.276"/>
</g>
</g>
</svg>
