<?xml version="1.0" encoding="UTF-8" standalone="no"?>
<!DOCTYPE svg PUBLIC "-//W3C//DTD SVG 1.1//EN"
 "http://www.w3.org/Graphics/SVG/1.1/DTD/svg11.dtd">
<!-- Generated by graphviz version 2.38.0 (20140413.2041)
 -->
<!-- Title: /bitrise/src/Source/AR6/InstantOn/include/AR6/InstantOn/cv/detectors/harris.h Pages: 1 -->
<svg width="446pt" height="195pt"
 viewBox="0.00 0.00 445.50 195.00" xmlns="http://www.w3.org/2000/svg" xmlns:xlink="http://www.w3.org/1999/xlink">
<g id="graph0" class="graph" transform="scale(1 1) rotate(0) translate(4 191)">
<title>/bitrise/src/Source/AR6/InstantOn/include/AR6/InstantOn/cv/detectors/harris.h</title>
<polygon fill="white" stroke="none" points="-4,4 -4,-191 441.5,-191 441.5,4 -4,4"/>
<!-- Node1 -->
<g id="node1" class="node"><title>Node1</title>
<polygon fill="#bfbfbf" stroke="black" points="64.5,-134.5 64.5,-186.5 206.5,-186.5 206.5,-134.5 64.5,-134.5"/>
<text text-anchor="start" x="72.5" y="-174.5" font-family="Helvetica,sans-Serif" font-size="10.00">/bitrise/src/Source</text>
<text text-anchor="start" x="72.5" y="-163.5" font-family="Helvetica,sans-Serif" font-size="10.00">/AR6/InstantOn/include</text>
<text text-anchor="start" x="72.5" y="-152.5" font-family="Helvetica,sans-Serif" font-size="10.00">/AR6/InstantOn/cv/detectors</text>
<text text-anchor="middle" x="135.5" y="-141.5" font-family="Helvetica,sans-Serif" font-size="10.00">/harris.h</text>
</g>
<!-- Node2 -->
<g id="node2" class="node"><title>Node2</title>
<polygon fill="white" stroke="#bfbfbf" points="-3.55271e-15,-73 -3.55271e-15,-92 49,-92 49,-73 -3.55271e-15,-73"/>
<text text-anchor="middle" x="24.5" y="-80" font-family="Helvetica,sans-Serif" font-size="10.00">cstddef</text>
</g>
<!-- Node1&#45;&gt;Node2 -->
<g id="edge1" class="edge"><title>Node1&#45;&gt;Node2</title>
<path fill="none" stroke="midnightblue" d="M98.8468,-134.404C81.1713,-122.302 60.6017,-108.218 45.5851,-97.9366"/>
<polygon fill="midnightblue" stroke="midnightblue" points="47.2569,-94.8395 37.0283,-92.0779 43.3022,-100.615 47.2569,-94.8395"/>
</g>
<!-- Node3 -->
<g id="node3" class="node"><title>Node3</title>
<polygon fill="white" stroke="#bfbfbf" points="67.5,-73 67.5,-92 111.5,-92 111.5,-73 67.5,-73"/>
<text text-anchor="middle" x="89.5" y="-80" font-family="Helvetica,sans-Serif" font-size="10.00">vector</text>
</g>
<!-- Node1&#45;&gt;Node3 -->
<g id="edge2" class="edge"><title>Node1&#45;&gt;Node3</title>
<path fill="none" stroke="midnightblue" d="M120.183,-134.193C113.596,-123.312 106.061,-110.861 100.106,-101.022"/>
<polygon fill="midnightblue" stroke="midnightblue" points="102.944,-98.9516 94.7712,-92.2089 96.955,-102.576 102.944,-98.9516"/>
</g>
<!-- Node4 -->
<g id="node4" class="node"><title>Node4</title>
<g id="a_node4"><a xlink:href="point_8h.html" target="_top" xlink:title="AR6/InstantOn/utils\l/point.h">
<polygon fill="white" stroke="black" points="130,-67.5 130,-97.5 233,-97.5 233,-67.5 130,-67.5"/>
<text text-anchor="start" x="138" y="-85.5" font-family="Helvetica,sans-Serif" font-size="10.00">AR6/InstantOn/utils</text>
<text text-anchor="middle" x="181.5" y="-74.5" font-family="Helvetica,sans-Serif" font-size="10.00">/point.h</text>
</a>
</g>
</g>
<!-- Node1&#45;&gt;Node4 -->
<g id="edge3" class="edge"><title>Node1&#45;&gt;Node4</title>
<path fill="none" stroke="midnightblue" d="M150.817,-134.193C156.249,-125.22 162.326,-115.179 167.63,-106.416"/>
<polygon fill="midnightblue" stroke="midnightblue" points="170.634,-108.213 172.817,-97.8453 164.645,-104.588 170.634,-108.213"/>
</g>
<!-- Node5 -->
<g id="node5" class="node"><title>Node5</title>
<g id="a_node5"><a xlink:href="image_8h.html" target="_top" xlink:title="AR6/InstantOn/framework\l/image.h">
<polygon fill="white" stroke="black" points="251,-67.5 251,-97.5 382,-97.5 382,-67.5 251,-67.5"/>
<text text-anchor="start" x="259" y="-85.5" font-family="Helvetica,sans-Serif" font-size="10.00">AR6/InstantOn/framework</text>
<text text-anchor="middle" x="316.5" y="-74.5" font-family="Helvetica,sans-Serif" font-size="10.00">/image.h</text>
</a>
</g>
</g>
<!-- Node1&#45;&gt;Node5 -->
<g id="edge4" class="edge"><title>Node1&#45;&gt;Node5</title>
<path fill="none" stroke="midnightblue" d="M195.268,-134.404C220.88,-123.65 250.218,-111.331 273.618,-101.506"/>
<polygon fill="midnightblue" stroke="midnightblue" points="275.061,-104.696 282.927,-97.5971 272.351,-98.2416 275.061,-104.696"/>
</g>
<!-- Node6 -->
<g id="node6" class="node"><title>Node6</title>
<polygon fill="white" stroke="#bfbfbf" points="145.5,-0.5 145.5,-30.5 247.5,-30.5 247.5,-0.5 145.5,-0.5"/>
<text text-anchor="start" x="153.5" y="-18.5" font-family="Helvetica,sans-Serif" font-size="10.00">artvision/framework</text>
<text text-anchor="middle" x="196.5" y="-7.5" font-family="Helvetica,sans-Serif" font-size="10.00">/exception.h</text>
</g>
<!-- Node5&#45;&gt;Node6 -->
<g id="edge5" class="edge"><title>Node5&#45;&gt;Node6</title>
<path fill="none" stroke="midnightblue" d="M290.462,-67.396C273.164,-58.0265 250.252,-45.6155 231.383,-35.395"/>
<polygon fill="midnightblue" stroke="midnightblue" points="232.947,-32.2619 222.487,-30.5765 229.613,-38.4169 232.947,-32.2619"/>
</g>
<!-- Node7 -->
<g id="node7" class="node"><title>Node7</title>
<polygon fill="white" stroke="#bfbfbf" points="265.5,-0.5 265.5,-30.5 367.5,-30.5 367.5,-0.5 265.5,-0.5"/>
<text text-anchor="start" x="273.5" y="-18.5" font-family="Helvetica,sans-Serif" font-size="10.00">artvision/framework</text>
<text text-anchor="middle" x="316.5" y="-7.5" font-family="Helvetica,sans-Serif" font-size="10.00">/error.h</text>
</g>
<!-- Node5&#45;&gt;Node7 -->
<g id="edge6" class="edge"><title>Node5&#45;&gt;Node7</title>
<path fill="none" stroke="midnightblue" d="M316.5,-67.396C316.5,-59.6448 316.5,-49.8122 316.5,-40.8601"/>
<polygon fill="midnightblue" stroke="midnightblue" points="320,-40.5765 316.5,-30.5765 313,-40.5765 320,-40.5765"/>
</g>
<!-- Node8 -->
<g id="node8" class="node"><title>Node8</title>
<polygon fill="white" stroke="#bfbfbf" points="385.5,-6 385.5,-25 437.5,-25 437.5,-6 385.5,-6"/>
<text text-anchor="middle" x="411.5" y="-13" font-family="Helvetica,sans-Serif" font-size="10.00">memory</text>
</g>
<!-- Node5&#45;&gt;Node8 -->
<g id="edge7" class="edge"><title>Node5&#45;&gt;Node8</title>
<path fill="none" stroke="midnightblue" d="M337.114,-67.396C352.897,-56.5966 374.587,-41.7564 390.473,-30.8872"/>
<polygon fill="midnightblue" stroke="midnightblue" points="392.79,-33.5425 399.067,-25.007 388.837,-27.7653 392.79,-33.5425"/>
</g>
</g>
</svg>
