<?xml version="1.0" encoding="UTF-8" standalone="no"?>
<!DOCTYPE svg PUBLIC "-//W3C//DTD SVG 1.1//EN"
 "http://www.w3.org/Graphics/SVG/1.1/DTD/svg11.dtd">
<!-- Generated by graphviz version 2.38.0 (20140413.2041)
 -->
<!-- Title: /bitrise/src/Source/AR6/InstantOn/cv/detectors/harris.cpp Pages: 1 -->
<!--zoomable 251 -->
<svg id="main" version="1.1" xmlns="http://www.w3.org/2000/svg" xmlns:xlink="http://www.w3.org/1999/xlink" xml:space="preserve" onload="init(evt)">
<style type="text/css"><![CDATA[
.edge:hover path { stroke: red; }
.edge:hover polygon { stroke: red; fill: red; }
]]></style>
<script type="text/javascript"><![CDATA[
var edges = document.getElementsByTagName('g');
if (edges && edges.length) {
  for (var i=0;i<edges.length;i++) {
    if (edges[i].id.substr(0,4)=='edge') {
      edges[i].setAttribute('class','edge');
    }
  }
}
]]></script>
        <defs>
                <circle id="rim" cx="0" cy="0" r="7"/>
                <circle id="rim2" cx="0" cy="0" r="3.5"/>
                <g id="zoomPlus">
                        <use xlink:href="#rim" fill="#404040">
                                <set attributeName="fill" to="#808080" begin="zoomplus.mouseover" end="zoomplus.mouseout"/>
                        </use>
                        <path d="M-4,0h8M0,-4v8" fill="none" stroke="white" stroke-width="1.5" pointer-events="none"/>
                </g>
                <g id="zoomMin">
                        <use xlink:href="#rim" fill="#404040">
                                <set attributeName="fill" to="#808080" begin="zoomminus.mouseover" end="zoomminus.mouseout"/>
                        </use>
                        <path d="M-4,0h8" fill="none" stroke="white" stroke-width="1.5" pointer-events="none"/>
                </g>
                <g id="dirArrow">
                        <path fill="none" stroke="white" stroke-width="1.5" d="M0,-3.0v7 M-2.5,-0.5L0,-3.0L2.5,-0.5"/>
                </g>
               <g id="resetDef">
                       <use xlink:href="#rim2" fill="#404040">
                               <set attributeName="fill" to="#808080" begin="reset.mouseover" end="reset.mouseout"/>
                       </use>
               </g>
        </defs>

<script type="text/javascript">
var viewWidth = 1173;
var viewHeight = 251;
var sectionId = 'dynsection-0';
</script>
<script xlink:href="svgpan.js"/>
<svg id="graph" class="graph">
<g id="viewport">
<title>/bitrise/src/Source/AR6/InstantOn/cv/detectors/harris.cpp</title>
<polygon fill="white" stroke="none" points="-4,4 -4,-247 1169,-247 1169,4 -4,4"/>
<!-- Node1 -->
<g id="node1" class="node"><title>Node1</title>
<polygon fill="#bfbfbf" stroke="black" points="683.5,-201.5 683.5,-242.5 825.5,-242.5 825.5,-201.5 683.5,-201.5"/>
<text text-anchor="start" x="691.5" y="-230.5" font-family="Helvetica,sans-Serif" font-size="10.00">/bitrise/src/Source</text>
<text text-anchor="start" x="691.5" y="-219.5" font-family="Helvetica,sans-Serif" font-size="10.00">/AR6/InstantOn/cv/detectors</text>
<text text-anchor="middle" x="754.5" y="-208.5" font-family="Helvetica,sans-Serif" font-size="10.00">/harris.cpp</text>
</g>
<!-- Node2 -->
<g id="node2" class="node"><title>Node2</title>
<g id="a_node2"><a xlink:href="harris_8h.html" target="_top" xlink:title="AR6/InstantOn/cv/detectors\l/harris.h">
<polygon fill="white" stroke="black" points="211,-134.5 211,-164.5 350,-164.5 350,-134.5 211,-134.5"/>
<text text-anchor="start" x="219" y="-152.5" font-family="Helvetica,sans-Serif" font-size="10.00">AR6/InstantOn/cv/detectors</text>
<text text-anchor="middle" x="280.5" y="-141.5" font-family="Helvetica,sans-Serif" font-size="10.00">/harris.h</text>
</a>
</g>
</g>
<!-- Node1&#45;&gt;Node2 -->
<g id="edge1" class="edge"><title>Node1&#45;&gt;Node2</title>
<path fill="none" stroke="midnightblue" d="M683.281,-210.407C596.592,-197.514 450.617,-175.802 360.242,-162.36"/>
<polygon fill="midnightblue" stroke="midnightblue" points="360.725,-158.894 350.319,-160.884 359.695,-165.818 360.725,-158.894"/>
</g>
<!-- Node8 -->
<g id="node8" class="node"><title>Node8</title>
<polygon fill="white" stroke="#bfbfbf" points="417.5,-0.5 417.5,-30.5 519.5,-30.5 519.5,-0.5 417.5,-0.5"/>
<text text-anchor="start" x="425.5" y="-18.5" font-family="Helvetica,sans-Serif" font-size="10.00">artvision/framework</text>
<text text-anchor="middle" x="468.5" y="-7.5" font-family="Helvetica,sans-Serif" font-size="10.00">/error.h</text>
</g>
<!-- Node1&#45;&gt;Node8 -->
<g id="edge30" class="edge"><title>Node1&#45;&gt;Node8</title>
<path fill="none" stroke="midnightblue" d="M683.399,-217.25C607.185,-211.568 493.472,-197.721 466.5,-165 437.495,-129.812 449.521,-72.3675 459.729,-40.2129"/>
<polygon fill="midnightblue" stroke="midnightblue" points="463.05,-41.3161 462.925,-30.722 456.416,-39.0822 463.05,-41.3161"/>
</g>
<!-- Node10 -->
<g id="node10" class="node"><title>Node10</title>
<g id="a_node10"><a xlink:href="harris-inline_8h.html" target="_top" xlink:title="AR6/InstantOn/cv/detectors\l/harris&#45;inline.h">
<polygon fill="white" stroke="black" points="476,-134.5 476,-164.5 615,-164.5 615,-134.5 476,-134.5"/>
<text text-anchor="start" x="484" y="-152.5" font-family="Helvetica,sans-Serif" font-size="10.00">AR6/InstantOn/cv/detectors</text>
<text text-anchor="middle" x="545.5" y="-141.5" font-family="Helvetica,sans-Serif" font-size="10.00">/harris&#45;inline.h</text>
</a>
</g>
</g>
<!-- Node1&#45;&gt;Node10 -->
<g id="edge9" class="edge"><title>Node1&#45;&gt;Node10</title>
<path fill="none" stroke="midnightblue" d="M696.559,-201.455C665.274,-190.902 626.99,-177.988 596.792,-167.802"/>
<polygon fill="midnightblue" stroke="midnightblue" points="597.885,-164.477 587.29,-164.597 595.647,-171.11 597.885,-164.477"/>
</g>
<!-- Node13 -->
<g id="node13" class="node"><title>Node13</title>
<g id="a_node13"><a xlink:href="math__io_8h.html" target="_top" xlink:title="AR6/InstantOn/math\l/math_io.h">
<polygon fill="white" stroke="black" points="907,-134.5 907,-164.5 1014,-164.5 1014,-134.5 907,-134.5"/>
<text text-anchor="start" x="915" y="-152.5" font-family="Helvetica,sans-Serif" font-size="10.00">AR6/InstantOn/math</text>
<text text-anchor="middle" x="960.5" y="-141.5" font-family="Helvetica,sans-Serif" font-size="10.00">/math_io.h</text>
</a>
</g>
</g>
<!-- Node1&#45;&gt;Node13 -->
<g id="edge14" class="edge"><title>Node1&#45;&gt;Node13</title>
<path fill="none" stroke="midnightblue" d="M811.609,-201.455C842.312,-190.948 879.853,-178.1 909.557,-167.934"/>
<polygon fill="midnightblue" stroke="midnightblue" points="910.981,-171.146 919.309,-164.597 908.715,-164.523 910.981,-171.146"/>
</g>
<!-- Node16 -->
<g id="node16" class="node"><title>Node16</title>
<g id="a_node16"><a xlink:href="linear__algebra_8h.html" target="_top" xlink:title="AR6/InstantOn/math\l/linear_algebra.h">
<polygon fill="white" stroke="black" points="633,-134.5 633,-164.5 740,-164.5 740,-134.5 633,-134.5"/>
<text text-anchor="start" x="641" y="-152.5" font-family="Helvetica,sans-Serif" font-size="10.00">AR6/InstantOn/math</text>
<text text-anchor="middle" x="686.5" y="-141.5" font-family="Helvetica,sans-Serif" font-size="10.00">/linear_algebra.h</text>
</a>
</g>
</g>
<!-- Node1&#45;&gt;Node16 -->
<g id="edge17" class="edge"><title>Node1&#45;&gt;Node16</title>
<path fill="none" stroke="midnightblue" d="M735.558,-201.362C726.839,-192.322 716.464,-181.566 707.506,-172.278"/>
<polygon fill="midnightblue" stroke="midnightblue" points="709.843,-169.659 700.381,-164.892 704.804,-174.519 709.843,-169.659"/>
</g>
<!-- Node23 -->
<g id="node23" class="node"><title>Node23</title>
<g id="a_node23"><a xlink:href="timers_8h.html" target="_top" xlink:title="AR6/InstantOn/framework\l/timers.h">
<polygon fill="white" stroke="black" points="758,-134.5 758,-164.5 889,-164.5 889,-134.5 758,-134.5"/>
<text text-anchor="start" x="766" y="-152.5" font-family="Helvetica,sans-Serif" font-size="10.00">AR6/InstantOn/framework</text>
<text text-anchor="middle" x="823.5" y="-141.5" font-family="Helvetica,sans-Serif" font-size="10.00">/timers.h</text>
</a>
</g>
</g>
<!-- Node1&#45;&gt;Node23 -->
<g id="edge31" class="edge"><title>Node1&#45;&gt;Node23</title>
<path fill="none" stroke="midnightblue" d="M773.72,-201.362C782.568,-192.322 793.095,-181.566 802.186,-172.278"/>
<polygon fill="midnightblue" stroke="midnightblue" points="804.921,-174.486 809.415,-164.892 799.919,-169.59 804.921,-174.486"/>
</g>
<!-- Node25 -->
<g id="node25" class="node"><title>Node25</title>
<polygon fill="white" stroke="#bfbfbf" points="1031.5,-140 1031.5,-159 1087.5,-159 1087.5,-140 1031.5,-140"/>
<text text-anchor="middle" x="1059.5" y="-147" font-family="Helvetica,sans-Serif" font-size="10.00">algorithm</text>
</g>
<!-- Node1&#45;&gt;Node25 -->
<g id="edge34" class="edge"><title>Node1&#45;&gt;Node25</title>
<path fill="none" stroke="midnightblue" d="M825.557,-209.502C880.042,-199.883 956.792,-184.59 1022.5,-165 1024.93,-164.276 1027.42,-163.46 1029.92,-162.595"/>
<polygon fill="midnightblue" stroke="midnightblue" points="1031.2,-165.854 1039.36,-159.099 1028.76,-159.289 1031.2,-165.854"/>
</g>
<!-- Node26 -->
<g id="node26" class="node"><title>Node26</title>
<polygon fill="white" stroke="#bfbfbf" points="1106,-140 1106,-159 1165,-159 1165,-140 1106,-140"/>
<text text-anchor="middle" x="1135.5" y="-147" font-family="Helvetica,sans-Serif" font-size="10.00">functional</text>
</g>
<!-- Node1&#45;&gt;Node26 -->
<g id="edge35" class="edge"><title>Node1&#45;&gt;Node26</title>
<path fill="none" stroke="midnightblue" d="M825.755,-213.412C895.529,-205.031 1004.47,-189.397 1096.5,-165 1099.31,-164.254 1102.21,-163.383 1105.09,-162.446"/>
<polygon fill="midnightblue" stroke="midnightblue" points="1106.41,-165.692 1114.69,-159.084 1104.1,-159.086 1106.41,-165.692"/>
</g>
<!-- Node3 -->
<g id="node3" class="node"><title>Node3</title>
<polygon fill="white" stroke="#bfbfbf" points="270,-6 270,-25 319,-25 319,-6 270,-6"/>
<text text-anchor="middle" x="294.5" y="-13" font-family="Helvetica,sans-Serif" font-size="10.00">cstddef</text>
</g>
<!-- Node2&#45;&gt;Node3 -->
<g id="edge2" class="edge"><title>Node2&#45;&gt;Node3</title>
<path fill="none" stroke="midnightblue" d="M281.998,-134.374C284.541,-110.397 289.701,-61.7476 292.532,-35.0561"/>
<polygon fill="midnightblue" stroke="midnightblue" points="296.014,-35.4107 293.588,-25.0973 289.053,-34.6723 296.014,-35.4107"/>
</g>
<!-- Node4 -->
<g id="node4" class="node"><title>Node4</title>
<polygon fill="white" stroke="#bfbfbf" points="611.5,-6 611.5,-25 655.5,-25 655.5,-6 611.5,-6"/>
<text text-anchor="middle" x="633.5" y="-13" font-family="Helvetica,sans-Serif" font-size="10.00">vector</text>
</g>
<!-- Node2&#45;&gt;Node4 -->
<g id="edge3" class="edge"><title>Node2&#45;&gt;Node4</title>
<path fill="none" stroke="midnightblue" d="M316.6,-134.444C358.902,-118.03 431.149,-90.1716 493.5,-67 530.386,-53.2918 572.933,-38.0211 601.351,-27.8985"/>
<polygon fill="midnightblue" stroke="midnightblue" points="602.896,-31.0637 611.144,-24.4145 600.55,-24.4686 602.896,-31.0637"/>
</g>
<!-- Node5 -->
<g id="node5" class="node"><title>Node5</title>
<g id="a_node5"><a xlink:href="point_8h.html" target="_top" xlink:title="AR6/InstantOn/utils\l/point.h">
<polygon fill="white" stroke="black" points="0,-67.5 0,-97.5 103,-97.5 103,-67.5 0,-67.5"/>
<text text-anchor="start" x="8" y="-85.5" font-family="Helvetica,sans-Serif" font-size="10.00">AR6/InstantOn/utils</text>
<text text-anchor="middle" x="51.5" y="-74.5" font-family="Helvetica,sans-Serif" font-size="10.00">/point.h</text>
</a>
</g>
</g>
<!-- Node2&#45;&gt;Node5 -->
<g id="edge4" class="edge"><title>Node2&#45;&gt;Node5</title>
<path fill="none" stroke="midnightblue" d="M231.092,-134.476C195.849,-124.472 148.284,-110.971 110.959,-100.377"/>
<polygon fill="midnightblue" stroke="midnightblue" points="111.79,-96.9746 101.214,-97.6109 109.878,-103.709 111.79,-96.9746"/>
</g>
<!-- Node6 -->
<g id="node6" class="node"><title>Node6</title>
<g id="a_node6"><a xlink:href="image_8h.html" target="_top" xlink:title="AR6/InstantOn/framework\l/image.h">
<polygon fill="white" stroke="black" points="121,-67.5 121,-97.5 252,-97.5 252,-67.5 121,-67.5"/>
<text text-anchor="start" x="129" y="-85.5" font-family="Helvetica,sans-Serif" font-size="10.00">AR6/InstantOn/framework</text>
<text text-anchor="middle" x="186.5" y="-74.5" font-family="Helvetica,sans-Serif" font-size="10.00">/image.h</text>
</a>
</g>
</g>
<!-- Node2&#45;&gt;Node6 -->
<g id="edge5" class="edge"><title>Node2&#45;&gt;Node6</title>
<path fill="none" stroke="midnightblue" d="M260.103,-134.396C247.046,-125.367 229.905,-113.514 215.45,-103.518"/>
<polygon fill="midnightblue" stroke="midnightblue" points="217.073,-100.385 206.857,-97.5765 213.091,-106.143 217.073,-100.385"/>
</g>
<!-- Node7 -->
<g id="node7" class="node"><title>Node7</title>
<polygon fill="white" stroke="#bfbfbf" points="79.5,-0.5 79.5,-30.5 181.5,-30.5 181.5,-0.5 79.5,-0.5"/>
<text text-anchor="start" x="87.5" y="-18.5" font-family="Helvetica,sans-Serif" font-size="10.00">artvision/framework</text>
<text text-anchor="middle" x="130.5" y="-7.5" font-family="Helvetica,sans-Serif" font-size="10.00">/exception.h</text>
</g>
<!-- Node6&#45;&gt;Node7 -->
<g id="edge6" class="edge"><title>Node6&#45;&gt;Node7</title>
<path fill="none" stroke="midnightblue" d="M174.349,-67.396C167.01,-58.8783 157.507,-47.8469 149.224,-38.2328"/>
<polygon fill="midnightblue" stroke="midnightblue" points="151.806,-35.8681 142.627,-30.5765 146.503,-40.4371 151.806,-35.8681"/>
</g>
<!-- Node6&#45;&gt;Node8 -->
<g id="edge7" class="edge"><title>Node6&#45;&gt;Node8</title>
<path fill="none" stroke="midnightblue" d="M247.343,-67.476C294.656,-56.5703 360.002,-41.5084 407.385,-30.5868"/>
<polygon fill="midnightblue" stroke="midnightblue" points="408.252,-33.9788 417.21,-28.3221 406.68,-27.1577 408.252,-33.9788"/>
</g>
<!-- Node9 -->
<g id="node9" class="node"><title>Node9</title>
<polygon fill="white" stroke="#bfbfbf" points="199.5,-6 199.5,-25 251.5,-25 251.5,-6 199.5,-6"/>
<text text-anchor="middle" x="225.5" y="-13" font-family="Helvetica,sans-Serif" font-size="10.00">memory</text>
</g>
<!-- Node6&#45;&gt;Node9 -->
<g id="edge8" class="edge"><title>Node6&#45;&gt;Node9</title>
<path fill="none" stroke="midnightblue" d="M194.962,-67.396C200.863,-57.5621 208.773,-44.3777 215.065,-33.892"/>
<polygon fill="midnightblue" stroke="midnightblue" points="218.14,-35.5702 220.283,-25.1945 212.137,-31.9687 218.14,-35.5702"/>
</g>
<!-- Node10&#45;&gt;Node8 -->
<g id="edge13" class="edge"><title>Node10&#45;&gt;Node8</title>
<path fill="none" stroke="midnightblue" d="M526.818,-134.408C515.72,-125.155 502.166,-112.172 493.5,-98 482.733,-80.3921 476.278,-57.7833 472.632,-40.8469"/>
<polygon fill="midnightblue" stroke="midnightblue" points="475.989,-39.7821 470.625,-30.646 469.121,-41.1336 475.989,-39.7821"/>
</g>
<!-- Node11 -->
<g id="node11" class="node"><title>Node11</title>
<g id="a_node11"><a xlink:href="math__utils_8h.html" target="_top" xlink:title="AR6/InstantOn/math\l/math_utils.h">
<polygon fill="white" stroke="black" points="503,-67.5 503,-97.5 610,-97.5 610,-67.5 503,-67.5"/>
<text text-anchor="start" x="511" y="-85.5" font-family="Helvetica,sans-Serif" font-size="10.00">AR6/InstantOn/math</text>
<text text-anchor="middle" x="556.5" y="-74.5" font-family="Helvetica,sans-Serif" font-size="10.00">/math_utils.h</text>
</a>
</g>
</g>
<!-- Node10&#45;&gt;Node11 -->
<g id="edge10" class="edge"><title>Node10&#45;&gt;Node11</title>
<path fill="none" stroke="midnightblue" d="M547.887,-134.396C549.213,-126.56 550.899,-116.596 552.427,-107.565"/>
<polygon fill="midnightblue" stroke="midnightblue" points="555.9,-108.02 554.118,-97.5765 548.998,-106.852 555.9,-108.02"/>
</g>
<!-- Node11&#45;&gt;Node8 -->
<g id="edge12" class="edge"><title>Node11&#45;&gt;Node8</title>
<path fill="none" stroke="midnightblue" d="M537.405,-67.396C525.182,-58.3672 509.134,-46.5141 495.602,-36.5184"/>
<polygon fill="midnightblue" stroke="midnightblue" points="497.681,-33.7026 487.557,-30.5765 493.522,-39.3332 497.681,-33.7026"/>
</g>
<!-- Node12 -->
<g id="node12" class="node"><title>Node12</title>
<polygon fill="white" stroke="#bfbfbf" points="537.5,-6 537.5,-25 581.5,-25 581.5,-6 537.5,-6"/>
<text text-anchor="middle" x="559.5" y="-13" font-family="Helvetica,sans-Serif" font-size="10.00">cmath</text>
</g>
<!-- Node11&#45;&gt;Node12 -->
<g id="edge11" class="edge"><title>Node11&#45;&gt;Node12</title>
<path fill="none" stroke="midnightblue" d="M557.151,-67.396C557.586,-57.9635 558.164,-45.4484 558.637,-35.1891"/>
<polygon fill="midnightblue" stroke="midnightblue" points="562.134,-35.3453 559.099,-25.1945 555.141,-35.0225 562.134,-35.3453"/>
</g>
<!-- Node14 -->
<g id="node14" class="node"><title>Node14</title>
<polygon fill="white" stroke="#bfbfbf" points="929,-73 929,-92 970,-92 970,-73 929,-73"/>
<text text-anchor="middle" x="949.5" y="-80" font-family="Helvetica,sans-Serif" font-size="10.00">string</text>
</g>
<!-- Node13&#45;&gt;Node14 -->
<g id="edge15" class="edge"><title>Node13&#45;&gt;Node14</title>
<path fill="none" stroke="midnightblue" d="M958.113,-134.396C956.517,-124.963 954.399,-112.448 952.663,-102.189"/>
<polygon fill="midnightblue" stroke="midnightblue" points="956.091,-101.47 950.971,-92.1945 949.189,-102.638 956.091,-101.47"/>
</g>
<!-- Node15 -->
<g id="node15" class="node"><title>Node15</title>
<polygon fill="white" stroke="#bfbfbf" points="988.5,-73 988.5,-92 1042.5,-92 1042.5,-73 988.5,-73"/>
<text text-anchor="middle" x="1015.5" y="-80" font-family="Helvetica,sans-Serif" font-size="10.00">iostream</text>
</g>
<!-- Node13&#45;&gt;Node15 -->
<g id="edge16" class="edge"><title>Node13&#45;&gt;Node15</title>
<path fill="none" stroke="midnightblue" d="M972.434,-134.396C981.01,-124.261 992.597,-110.567 1001.59,-99.9368"/>
<polygon fill="midnightblue" stroke="midnightblue" points="1004.36,-102.089 1008.14,-92.1945 999.012,-97.5676 1004.36,-102.089"/>
</g>
<!-- Node16&#45;&gt;Node11 -->
<g id="edge18" class="edge"><title>Node16&#45;&gt;Node11</title>
<path fill="none" stroke="midnightblue" d="M658.292,-134.396C639.383,-124.941 614.279,-112.39 593.734,-102.117"/>
<polygon fill="midnightblue" stroke="midnightblue" points="595.163,-98.9182 584.653,-97.5765 592.032,-105.179 595.163,-98.9182"/>
</g>
<!-- Node17 -->
<g id="node17" class="node"><title>Node17</title>
<g id="a_node17"><a xlink:href="_instant_on_2include_2_a_r6_2_instant_on_2math_2matrix_8h.html" target="_top" xlink:title="matrix.h">
<polygon fill="white" stroke="black" points="628.5,-73 628.5,-92 680.5,-92 680.5,-73 628.5,-73"/>
<text text-anchor="middle" x="654.5" y="-80" font-family="Helvetica,sans-Serif" font-size="10.00">matrix.h</text>
</a>
</g>
</g>
<!-- Node16&#45;&gt;Node17 -->
<g id="edge19" class="edge"><title>Node16&#45;&gt;Node17</title>
<path fill="none" stroke="midnightblue" d="M679.556,-134.396C674.765,-124.662 668.357,-111.646 663.221,-101.214"/>
<polygon fill="midnightblue" stroke="midnightblue" points="666.337,-99.6203 658.78,-92.1945 660.057,-102.712 666.337,-99.6203"/>
</g>
<!-- Node18 -->
<g id="node18" class="node"><title>Node18</title>
<g id="a_node18"><a xlink:href="vector_8h.html" target="_top" xlink:title="vector.h">
<polygon fill="white" stroke="black" points="679.5,-6 679.5,-25 731.5,-25 731.5,-6 679.5,-6"/>
<text text-anchor="middle" x="705.5" y="-13" font-family="Helvetica,sans-Serif" font-size="10.00">vector.h</text>
</a>
</g>
</g>
<!-- Node16&#45;&gt;Node18 -->
<g id="edge23" class="edge"><title>Node16&#45;&gt;Node18</title>
<path fill="none" stroke="midnightblue" d="M688.533,-134.374C691.984,-110.397 698.987,-61.7476 702.829,-35.0561"/>
<polygon fill="midnightblue" stroke="midnightblue" points="706.302,-35.4939 704.263,-25.0973 699.373,-34.4966 706.302,-35.4939"/>
</g>
<!-- Node19 -->
<g id="node19" class="node"><title>Node19</title>
<polygon fill="white" stroke="#bfbfbf" points="736.5,-73 736.5,-92 788.5,-92 788.5,-73 736.5,-73"/>
<text text-anchor="middle" x="762.5" y="-80" font-family="Helvetica,sans-Serif" font-size="10.00">assert.h</text>
</g>
<!-- Node16&#45;&gt;Node19 -->
<g id="edge24" class="edge"><title>Node16&#45;&gt;Node19</title>
<path fill="none" stroke="midnightblue" d="M702.991,-134.396C715.193,-123.96 731.807,-109.751 744.379,-98.9978"/>
<polygon fill="midnightblue" stroke="midnightblue" points="747.009,-101.354 752.334,-92.1945 742.46,-96.0344 747.009,-101.354"/>
</g>
<!-- Node20 -->
<g id="node20" class="node"><title>Node20</title>
<polygon fill="white" stroke="#bfbfbf" points="806.5,-73 806.5,-92 846.5,-92 846.5,-73 806.5,-73"/>
<text text-anchor="middle" x="826.5" y="-80" font-family="Helvetica,sans-Serif" font-size="10.00">limits</text>
</g>
<!-- Node16&#45;&gt;Node20 -->
<g id="edge25" class="edge"><title>Node16&#45;&gt;Node20</title>
<path fill="none" stroke="midnightblue" d="M718.221,-134.44C740.499,-124.475 770.942,-110.676 797.5,-98 798.491,-97.5272 799.499,-97.0423 800.515,-96.5499"/>
<polygon fill="midnightblue" stroke="midnightblue" points="802.256,-99.5945 809.683,-92.039 799.165,-93.3136 802.256,-99.5945"/>
</g>
<!-- Node21 -->
<g id="node21" class="node"><title>Node21</title>
<g id="a_node21"><a xlink:href="indexing_8h.html" target="_top" xlink:title="indexing.h">
<polygon fill="white" stroke="black" points="309,-73 309,-92 370,-92 370,-73 309,-73"/>
<text text-anchor="middle" x="339.5" y="-80" font-family="Helvetica,sans-Serif" font-size="10.00">indexing.h</text>
</a>
</g>
</g>
<!-- Node16&#45;&gt;Node21 -->
<g id="edge26" class="edge"><title>Node16&#45;&gt;Node21</title>
<path fill="none" stroke="midnightblue" d="M632.924,-135.976C629.739,-135.292 626.579,-134.628 623.5,-134 537.295,-116.427 435.662,-99.1907 380.371,-90.1047"/>
<polygon fill="midnightblue" stroke="midnightblue" points="380.709,-86.6135 370.275,-88.4516 379.578,-93.5216 380.709,-86.6135"/>
</g>
<!-- Node17&#45;&gt;Node4 -->
<g id="edge22" class="edge"><title>Node17&#45;&gt;Node4</title>
<path fill="none" stroke="midnightblue" d="M651.668,-72.7338C648.551,-63.0852 643.451,-47.3001 639.447,-34.9063"/>
<polygon fill="midnightblue" stroke="midnightblue" points="642.692,-33.567 636.287,-25.1273 636.031,-35.719 642.692,-33.567"/>
</g>
<!-- Node17&#45;&gt;Node8 -->
<g id="edge20" class="edge"><title>Node17&#45;&gt;Node8</title>
<path fill="none" stroke="midnightblue" d="M633.64,-72.8591C628.698,-70.8784 623.43,-68.821 618.5,-67 586.796,-55.2897 550.931,-43.1745 522.222,-33.7468"/>
<polygon fill="midnightblue" stroke="midnightblue" points="522.976,-30.3112 512.384,-30.5292 520.8,-36.9644 522.976,-30.3112"/>
</g>
<!-- Node17&#45;&gt;Node18 -->
<g id="edge21" class="edge"><title>Node17&#45;&gt;Node18</title>
<path fill="none" stroke="midnightblue" d="M661.378,-72.7338C669.331,-62.5979 682.597,-45.6899 692.51,-33.0556"/>
<polygon fill="midnightblue" stroke="midnightblue" points="695.312,-35.1552 698.731,-25.1273 689.804,-30.8342 695.312,-35.1552"/>
</g>
<!-- Node21&#45;&gt;Node3 -->
<g id="edge28" class="edge"><title>Node21&#45;&gt;Node3</title>
<path fill="none" stroke="midnightblue" d="M333.431,-72.7338C326.481,-62.6953 314.933,-46.0145 306.215,-33.4213"/>
<polygon fill="midnightblue" stroke="midnightblue" points="309.043,-31.357 300.473,-25.1273 303.287,-35.3415 309.043,-31.357"/>
</g>
<!-- Node21&#45;&gt;Node9 -->
<g id="edge27" class="edge"><title>Node21&#45;&gt;Node9</title>
<path fill="none" stroke="midnightblue" d="M324.125,-72.7338C304.981,-61.8182 272.062,-43.0487 249.564,-30.2209"/>
<polygon fill="midnightblue" stroke="midnightblue" points="251.052,-27.04 240.631,-25.1273 247.584,-33.121 251.052,-27.04"/>
</g>
<!-- Node22 -->
<g id="node22" class="node"><title>Node22</title>
<polygon fill="white" stroke="#bfbfbf" points="337,-6 337,-25 386,-25 386,-6 337,-6"/>
<text text-anchor="middle" x="361.5" y="-13" font-family="Helvetica,sans-Serif" font-size="10.00">string.h</text>
</g>
<!-- Node21&#45;&gt;Node22 -->
<g id="edge29" class="edge"><title>Node21&#45;&gt;Node22</title>
<path fill="none" stroke="midnightblue" d="M342.467,-72.7338C345.733,-63.0852 351.075,-47.3001 355.27,-34.9063"/>
<polygon fill="midnightblue" stroke="midnightblue" points="358.689,-35.7216 358.58,-25.1273 352.059,-33.4774 358.689,-35.7216"/>
</g>
<!-- Node23&#45;&gt;Node14 -->
<g id="edge32" class="edge"><title>Node23&#45;&gt;Node14</title>
<path fill="none" stroke="midnightblue" d="M850.84,-134.396C872.557,-123.193 902.703,-107.641 923.941,-96.6853"/>
<polygon fill="midnightblue" stroke="midnightblue" points="925.727,-99.7022 933.01,-92.007 922.518,-93.4812 925.727,-99.7022"/>
</g>
<!-- Node24 -->
<g id="node24" class="node"><title>Node24</title>
<polygon fill="white" stroke="#bfbfbf" points="864.5,-73 864.5,-92 910.5,-92 910.5,-73 864.5,-73"/>
<text text-anchor="middle" x="887.5" y="-80" font-family="Helvetica,sans-Serif" font-size="10.00">chrono</text>
</g>
<!-- Node23&#45;&gt;Node24 -->
<g id="edge33" class="edge"><title>Node23&#45;&gt;Node24</title>
<path fill="none" stroke="midnightblue" d="M837.387,-134.396C847.465,-124.161 861.116,-110.296 871.626,-99.622"/>
<polygon fill="midnightblue" stroke="midnightblue" points="874.417,-101.776 878.939,-92.1945 869.429,-96.8646 874.417,-101.776"/>
</g>
</g>
</svg>
        <g id="navigator" transform="translate(0 0)" fill="#404254">
                <rect fill="#f2f5e9" fill-opacity="0.5" stroke="#606060" stroke-width=".5" x="0" y="0" width="60" height="60"/>
                <use id="zoomplus" xlink:href="#zoomPlus" x="17" y="9" onmousedown="handleZoom(evt,'in')"/>
                <use id="zoomminus" xlink:href="#zoomMin" x="42" y="9" onmousedown="handleZoom(evt,'out')"/>
                <use id="reset" xlink:href="#resetDef" x="30" y="36" onmousedown="handleReset()"/>
                <g id="arrowUp" xlink:href="#dirArrow" transform="translate(30 24)" onmousedown="handlePan(0,-1)">
                  <use xlink:href="#rim" fill="#404040">
                        <set attributeName="fill" to="#808080" begin="arrowUp.mouseover" end="arrowUp.mouseout"/>
                  </use>
                  <path fill="none" stroke="white" stroke-width="1.5" d="M0,-3.0v7 M-2.5,-0.5L0,-3.0L2.5,-0.5"/>
                </g>
                <g id="arrowRight" xlink:href="#dirArrow" transform="rotate(90) translate(36 -43)" onmousedown="handlePan(1,0)">
                  <use xlink:href="#rim" fill="#404040">
                        <set attributeName="fill" to="#808080" begin="arrowRight.mouseover" end="arrowRight.mouseout"/>
                  </use>
                  <path fill="none" stroke="white" stroke-width="1.5" d="M0,-3.0v7 M-2.5,-0.5L0,-3.0L2.5,-0.5"/>
                </g>
                <g id="arrowDown" xlink:href="#dirArrow" transform="rotate(180) translate(-30 -48)" onmousedown="handlePan(0,1)">
                  <use xlink:href="#rim" fill="#404040">
                        <set attributeName="fill" to="#808080" begin="arrowDown.mouseover" end="arrowDown.mouseout"/>
                  </use>
                  <path fill="none" stroke="white" stroke-width="1.5" d="M0,-3.0v7 M-2.5,-0.5L0,-3.0L2.5,-0.5"/>
                </g>
                <g id="arrowLeft" xlink:href="#dirArrow" transform="rotate(270) translate(-36 17)" onmousedown="handlePan(-1,0)">
                  <use xlink:href="#rim" fill="#404040">
                        <set attributeName="fill" to="#808080" begin="arrowLeft.mouseover" end="arrowLeft.mouseout"/>
                  </use>
                  <path fill="none" stroke="white" stroke-width="1.5" d="M0,-3.0v7 M-2.5,-0.5L0,-3.0L2.5,-0.5"/>
                </g>
        </g>
        <svg viewBox="0 0 15 15" width="100%" height="30px" preserveAspectRatio="xMaxYMin meet">
         <g id="arrow_out" transform="scale(0.3 0.3)">
          <a xlink:href="harris_8cpp__incl_org.svg" target="_base">
           <rect id="button" ry="5" rx="5" y="6" x="6" height="38" width="38"
                fill="#f2f5e9" fill-opacity="0.5" stroke="#606060" stroke-width="1.0"/>
           <path id="arrow"
             d="M 11.500037,31.436501 C 11.940474,20.09759 22.043105,11.32322 32.158766,21.979434 L 37.068811,17.246167 C 37.068811,17.246167 37.088388,32 37.088388,32 L 22.160133,31.978069 C 22.160133,31.978069 26.997745,27.140456 26.997745,27.140456 C 18.528582,18.264221 13.291696,25.230495 11.500037,31.436501 z"
             style="fill:#404040;"/>
          </a>
         </g>
        </svg>
</svg>
