<?xml version="1.0" encoding="UTF-8" standalone="no"?>
<!DOCTYPE svg PUBLIC "-//W3C//DTD SVG 1.1//EN"
 "http://www.w3.org/Graphics/SVG/1.1/DTD/svg11.dtd">
<!-- Generated by graphviz version 2.38.0 (20140413.2041)
 -->
<!-- Title: /bitrise/src/Source/AR6/InstantOn/cv/detectors/platform/arm/horizontal_harris_stengths_s32_f32_neon.cpp Pages: 1 -->
<svg width="181pt" height="117pt"
 viewBox="0.00 0.00 181.00 117.00" xmlns="http://www.w3.org/2000/svg" xmlns:xlink="http://www.w3.org/1999/xlink">
<g id="graph0" class="graph" transform="scale(1 1) rotate(0) translate(4 113)">
<title>/bitrise/src/Source/AR6/InstantOn/cv/detectors/platform/arm/horizontal_harris_stengths_s32_f32_neon.cpp</title>
<polygon fill="white" stroke="none" points="-4,4 -4,-113 177,-113 177,4 -4,4"/>
<!-- Node1 -->
<g id="node1" class="node"><title>Node1</title>
<polygon fill="#bfbfbf" stroke="black" points="0,-56.5 0,-108.5 173,-108.5 173,-56.5 0,-56.5"/>
<text text-anchor="start" x="8" y="-96.5" font-family="Helvetica,sans-Serif" font-size="10.00">/bitrise/src/Source</text>
<text text-anchor="start" x="8" y="-85.5" font-family="Helvetica,sans-Serif" font-size="10.00">/AR6/InstantOn/cv/detectors</text>
<text text-anchor="start" x="8" y="-74.5" font-family="Helvetica,sans-Serif" font-size="10.00">/platform/arm/horizontal</text>
<text text-anchor="middle" x="86.5" y="-63.5" font-family="Helvetica,sans-Serif" font-size="10.00">_harris_stengths_s32_f32_neon.cpp</text>
</g>
<!-- Node2 -->
<g id="node2" class="node"><title>Node2</title>
<polygon fill="white" stroke="#bfbfbf" points="41,-0.5 41,-19.5 132,-19.5 132,-0.5 41,-0.5"/>
<text text-anchor="middle" x="86.5" y="-7.5" font-family="Helvetica,sans-Serif" font-size="10.00">AR6/AR/config.h</text>
</g>
<!-- Node1&#45;&gt;Node2 -->
<g id="edge1" class="edge"><title>Node1&#45;&gt;Node2</title>
<path fill="none" stroke="midnightblue" d="M86.5,-56.4458C86.5,-47.7301 86.5,-38.1045 86.5,-29.9641"/>
<polygon fill="midnightblue" stroke="midnightblue" points="90.0001,-29.6954 86.5,-19.6955 83.0001,-29.6955 90.0001,-29.6954"/>
</g>
</g>
</svg>
