<?xml version="1.0" encoding="UTF-8" standalone="no"?>
<!DOCTYPE svg PUBLIC "-//W3C//DTD SVG 1.1//EN"
 "http://www.w3.org/Graphics/SVG/1.1/DTD/svg11.dtd">
<!-- Generated by graphviz version 2.38.0 (20140413.2041)
 -->
<!-- Title: /bitrise/src/Source/AR6/InstantOn/include/AR6/InstantOn/external/platform/iOS/device/iOS_motion_manager.h Pages: 1 -->
<svg width="276pt" height="161pt"
 viewBox="0.00 0.00 276.00 161.00" xmlns="http://www.w3.org/2000/svg" xmlns:xlink="http://www.w3.org/1999/xlink">
<g id="graph0" class="graph" transform="scale(1 1) rotate(0) translate(4 157)">
<title>/bitrise/src/Source/AR6/InstantOn/include/AR6/InstantOn/external/platform/iOS/device/iOS_motion_manager.h</title>
<polygon fill="white" stroke="none" points="-4,4 -4,-157 272,-157 272,4 -4,4"/>
<!-- Node1 -->
<g id="node1" class="node"><title>Node1</title>
<polygon fill="#bfbfbf" stroke="black" points="71,-89.5 71,-152.5 196,-152.5 196,-89.5 71,-89.5"/>
<text text-anchor="start" x="79" y="-140.5" font-family="Helvetica,sans-Serif" font-size="10.00">/bitrise/src/Source</text>
<text text-anchor="start" x="79" y="-129.5" font-family="Helvetica,sans-Serif" font-size="10.00">/AR6/InstantOn/include</text>
<text text-anchor="start" x="79" y="-118.5" font-family="Helvetica,sans-Serif" font-size="10.00">/AR6/InstantOn/external</text>
<text text-anchor="start" x="79" y="-107.5" font-family="Helvetica,sans-Serif" font-size="10.00">/platform/iOS/device/iOS</text>
<text text-anchor="middle" x="133.5" y="-96.5" font-family="Helvetica,sans-Serif" font-size="10.00">_motion_manager.h</text>
</g>
<!-- Node2 -->
<g id="node2" class="node"><title>Node2</title>
<g id="a_node2"><a xlink:href="i_o_s__attitude__listener_8mm.html" target="_top" xlink:title="/bitrise/src/Source\l/AR6/InstantOn/external\l/platform/iOS/device/iOS\l_attitude_listener.mm">
<polygon fill="white" stroke="black" points="0,-0.5 0,-52.5 125,-52.5 125,-0.5 0,-0.5"/>
<text text-anchor="start" x="8" y="-40.5" font-family="Helvetica,sans-Serif" font-size="10.00">/bitrise/src/Source</text>
<text text-anchor="start" x="8" y="-29.5" font-family="Helvetica,sans-Serif" font-size="10.00">/AR6/InstantOn/external</text>
<text text-anchor="start" x="8" y="-18.5" font-family="Helvetica,sans-Serif" font-size="10.00">/platform/iOS/device/iOS</text>
<text text-anchor="middle" x="62.5" y="-7.5" font-family="Helvetica,sans-Serif" font-size="10.00">_attitude_listener.mm</text>
</a>
</g>
</g>
<!-- Node1&#45;&gt;Node2 -->
<g id="edge1" class="edge"><title>Node1&#45;&gt;Node2</title>
<path fill="none" stroke="midnightblue" d="M103.921,-81.4641C96.4832,-71.7739 88.6885,-61.6188 81.893,-52.7655"/>
<polygon fill="midnightblue" stroke="midnightblue" points="101.19,-83.6542 110.055,-89.4557 106.743,-79.392 101.19,-83.6542"/>
</g>
<!-- Node3 -->
<g id="node3" class="node"><title>Node3</title>
<g id="a_node3"><a xlink:href="i_o_s__motion__manager_8mm.html" target="_top" xlink:title="/bitrise/src/Source\l/AR6/InstantOn/external\l/platform/iOS/device/iOS\l_motion_manager.mm">
<polygon fill="white" stroke="black" points="143,-0.5 143,-52.5 268,-52.5 268,-0.5 143,-0.5"/>
<text text-anchor="start" x="151" y="-40.5" font-family="Helvetica,sans-Serif" font-size="10.00">/bitrise/src/Source</text>
<text text-anchor="start" x="151" y="-29.5" font-family="Helvetica,sans-Serif" font-size="10.00">/AR6/InstantOn/external</text>
<text text-anchor="start" x="151" y="-18.5" font-family="Helvetica,sans-Serif" font-size="10.00">/platform/iOS/device/iOS</text>
<text text-anchor="middle" x="205.5" y="-7.5" font-family="Helvetica,sans-Serif" font-size="10.00">_motion_manager.mm</text>
</a>
</g>
</g>
<!-- Node1&#45;&gt;Node3 -->
<g id="edge2" class="edge"><title>Node1&#45;&gt;Node3</title>
<path fill="none" stroke="midnightblue" d="M163.496,-81.4641C171.038,-71.7739 178.943,-61.6188 185.834,-52.7655"/>
<polygon fill="midnightblue" stroke="midnightblue" points="160.655,-79.4146 157.275,-89.4557 166.179,-83.7143 160.655,-79.4146"/>
</g>
</g>
</svg>
