<?xml version="1.0" encoding="UTF-8" standalone="no"?>
<!DOCTYPE svg PUBLIC "-//W3C//DTD SVG 1.1//EN"
 "http://www.w3.org/Graphics/SVG/1.1/DTD/svg11.dtd">
<!-- Generated by graphviz version 2.38.0 (20140413.2041)
 -->
<!-- Title: /bitrise/src/Source/AR6/InstantOn/external/platform/iOS/device/iOS_motion_manager.mm Pages: 1 -->
<svg width="254pt" height="273pt"
 viewBox="0.00 0.00 254.00 273.00" xmlns="http://www.w3.org/2000/svg" xmlns:xlink="http://www.w3.org/1999/xlink">
<g id="graph0" class="graph" transform="scale(1 1) rotate(0) translate(4 269)">
<title>/bitrise/src/Source/AR6/InstantOn/external/platform/iOS/device/iOS_motion_manager.mm</title>
<polygon fill="white" stroke="none" points="-4,4 -4,-269 250,-269 250,4 -4,4"/>
<!-- Node1 -->
<g id="node1" class="node"><title>Node1</title>
<polygon fill="#bfbfbf" stroke="black" points="66.5,-212.5 66.5,-264.5 191.5,-264.5 191.5,-212.5 66.5,-212.5"/>
<text text-anchor="start" x="74.5" y="-252.5" font-family="Helvetica,sans-Serif" font-size="10.00">/bitrise/src/Source</text>
<text text-anchor="start" x="74.5" y="-241.5" font-family="Helvetica,sans-Serif" font-size="10.00">/AR6/InstantOn/external</text>
<text text-anchor="start" x="74.5" y="-230.5" font-family="Helvetica,sans-Serif" font-size="10.00">/platform/iOS/device/iOS</text>
<text text-anchor="middle" x="129" y="-219.5" font-family="Helvetica,sans-Serif" font-size="10.00">_motion_manager.mm</text>
</g>
<!-- Node2 -->
<g id="node2" class="node"><title>Node2</title>
<g id="a_node2"><a xlink:href="i_o_s__motion__manager_8h.html" target="_top" xlink:title="AR6/InstantOn/external\l/platform/iOS/device/iOS\l_motion_manager.h">
<polygon fill="white" stroke="black" points="66.5,-134.5 66.5,-175.5 191.5,-175.5 191.5,-134.5 66.5,-134.5"/>
<text text-anchor="start" x="74.5" y="-163.5" font-family="Helvetica,sans-Serif" font-size="10.00">AR6/InstantOn/external</text>
<text text-anchor="start" x="74.5" y="-152.5" font-family="Helvetica,sans-Serif" font-size="10.00">/platform/iOS/device/iOS</text>
<text text-anchor="middle" x="129" y="-141.5" font-family="Helvetica,sans-Serif" font-size="10.00">_motion_manager.h</text>
</a>
</g>
</g>
<!-- Node1&#45;&gt;Node2 -->
<g id="edge1" class="edge"><title>Node1&#45;&gt;Node2</title>
<path fill="none" stroke="midnightblue" d="M129,-212.16C129,-203.788 129,-194.399 129,-185.73"/>
<polygon fill="midnightblue" stroke="midnightblue" points="132.5,-185.628 129,-175.628 125.5,-185.628 132.5,-185.628"/>
</g>
<!-- Node3 -->
<g id="node3" class="node"><title>Node3</title>
<polygon fill="white" stroke="#bfbfbf" points="0,-73 0,-92 128,-92 128,-73 0,-73"/>
<text text-anchor="middle" x="64" y="-80" font-family="Helvetica,sans-Serif" font-size="10.00">CoreMotion/CoreMotion.h</text>
</g>
<!-- Node2&#45;&gt;Node3 -->
<g id="edge2" class="edge"><title>Node2&#45;&gt;Node3</title>
<path fill="none" stroke="midnightblue" d="M110.894,-134.362C100.816,-123.431 88.4242,-109.991 78.9104,-99.6721"/>
<polygon fill="midnightblue" stroke="midnightblue" points="81.3485,-97.153 71.9967,-92.1734 76.202,-101.898 81.3485,-97.153"/>
</g>
<!-- Node4 -->
<g id="node4" class="node"><title>Node4</title>
<g id="a_node4"><a xlink:href="synchronization_8h.html" target="_top" xlink:title="../../../../framework\l/synchronization.h">
<polygon fill="white" stroke="black" points="146,-67.5 146,-97.5 244,-97.5 244,-67.5 146,-67.5"/>
<text text-anchor="start" x="154" y="-85.5" font-family="Helvetica,sans-Serif" font-size="10.00">../../../../framework</text>
<text text-anchor="middle" x="195" y="-74.5" font-family="Helvetica,sans-Serif" font-size="10.00">/synchronization.h</text>
</a>
</g>
</g>
<!-- Node2&#45;&gt;Node4 -->
<g id="edge3" class="edge"><title>Node2&#45;&gt;Node4</title>
<path fill="none" stroke="midnightblue" d="M147.385,-134.362C155.848,-125.322 165.917,-114.566 174.612,-105.278"/>
<polygon fill="midnightblue" stroke="midnightblue" points="177.248,-107.584 181.527,-97.8916 172.138,-102.8 177.248,-107.584"/>
</g>
<!-- Node5 -->
<g id="node5" class="node"><title>Node5</title>
<polygon fill="white" stroke="#bfbfbf" points="144,-0.5 144,-30.5 246,-30.5 246,-0.5 144,-0.5"/>
<text text-anchor="start" x="152" y="-18.5" font-family="Helvetica,sans-Serif" font-size="10.00">artvision/framework</text>
<text text-anchor="middle" x="195" y="-7.5" font-family="Helvetica,sans-Serif" font-size="10.00">/exception.h</text>
</g>
<!-- Node4&#45;&gt;Node5 -->
<g id="edge4" class="edge"><title>Node4&#45;&gt;Node5</title>
<path fill="none" stroke="midnightblue" d="M195,-67.396C195,-59.6448 195,-49.8122 195,-40.8601"/>
<polygon fill="midnightblue" stroke="midnightblue" points="198.5,-40.5765 195,-30.5765 191.5,-40.5765 198.5,-40.5765"/>
</g>
</g>
</svg>
