<?xml version="1.0" encoding="UTF-8" standalone="no"?>
<!DOCTYPE svg PUBLIC "-//W3C//DTD SVG 1.1//EN"
 "http://www.w3.org/Graphics/SVG/1.1/DTD/svg11.dtd">
<!-- Generated by graphviz version 2.38.0 (20140413.2041)
 -->
<!-- Title: /bitrise/src/Source/AR6/InstantOn/include/AR6/InstantOn/external/platform/iOS/device/iOS_motion_manager.h Pages: 1 -->
<svg width="254pt" height="206pt"
 viewBox="0.00 0.00 254.00 206.00" xmlns="http://www.w3.org/2000/svg" xmlns:xlink="http://www.w3.org/1999/xlink">
<g id="graph0" class="graph" transform="scale(1 1) rotate(0) translate(4 202)">
<title>/bitrise/src/Source/AR6/InstantOn/include/AR6/InstantOn/external/platform/iOS/device/iOS_motion_manager.h</title>
<polygon fill="white" stroke="none" points="-4,4 -4,-202 250,-202 250,4 -4,4"/>
<!-- Node1 -->
<g id="node1" class="node"><title>Node1</title>
<polygon fill="#bfbfbf" stroke="black" points="66.5,-134.5 66.5,-197.5 191.5,-197.5 191.5,-134.5 66.5,-134.5"/>
<text text-anchor="start" x="74.5" y="-185.5" font-family="Helvetica,sans-Serif" font-size="10.00">/bitrise/src/Source</text>
<text text-anchor="start" x="74.5" y="-174.5" font-family="Helvetica,sans-Serif" font-size="10.00">/AR6/InstantOn/include</text>
<text text-anchor="start" x="74.5" y="-163.5" font-family="Helvetica,sans-Serif" font-size="10.00">/AR6/InstantOn/external</text>
<text text-anchor="start" x="74.5" y="-152.5" font-family="Helvetica,sans-Serif" font-size="10.00">/platform/iOS/device/iOS</text>
<text text-anchor="middle" x="129" y="-141.5" font-family="Helvetica,sans-Serif" font-size="10.00">_motion_manager.h</text>
</g>
<!-- Node2 -->
<g id="node2" class="node"><title>Node2</title>
<polygon fill="white" stroke="#bfbfbf" points="0,-73 0,-92 128,-92 128,-73 0,-73"/>
<text text-anchor="middle" x="64" y="-80" font-family="Helvetica,sans-Serif" font-size="10.00">CoreMotion/CoreMotion.h</text>
</g>
<!-- Node1&#45;&gt;Node2 -->
<g id="edge1" class="edge"><title>Node1&#45;&gt;Node2</title>
<path fill="none" stroke="midnightblue" d="M104.426,-134.188C95.288,-122.73 85.2593,-110.156 77.4767,-100.398"/>
<polygon fill="midnightblue" stroke="midnightblue" points="80.0224,-97.9763 71.0508,-92.3406 74.5498,-102.341 80.0224,-97.9763"/>
</g>
<!-- Node3 -->
<g id="node3" class="node"><title>Node3</title>
<g id="a_node3"><a xlink:href="synchronization_8h.html" target="_top" xlink:title="../../../../framework\l/synchronization.h">
<polygon fill="white" stroke="black" points="146,-67.5 146,-97.5 244,-97.5 244,-67.5 146,-67.5"/>
<text text-anchor="start" x="154" y="-85.5" font-family="Helvetica,sans-Serif" font-size="10.00">../../../../framework</text>
<text text-anchor="middle" x="195" y="-74.5" font-family="Helvetica,sans-Serif" font-size="10.00">/synchronization.h</text>
</a>
</g>
</g>
<!-- Node1&#45;&gt;Node3 -->
<g id="edge2" class="edge"><title>Node1&#45;&gt;Node3</title>
<path fill="none" stroke="midnightblue" d="M153.952,-134.188C161.697,-124.624 170.073,-114.281 177.226,-105.448"/>
<polygon fill="midnightblue" stroke="midnightblue" points="180.076,-107.49 183.65,-97.5161 174.636,-103.085 180.076,-107.49"/>
</g>
<!-- Node4 -->
<g id="node4" class="node"><title>Node4</title>
<polygon fill="white" stroke="#bfbfbf" points="144,-0.5 144,-30.5 246,-30.5 246,-0.5 144,-0.5"/>
<text text-anchor="start" x="152" y="-18.5" font-family="Helvetica,sans-Serif" font-size="10.00">artvision/framework</text>
<text text-anchor="middle" x="195" y="-7.5" font-family="Helvetica,sans-Serif" font-size="10.00">/exception.h</text>
</g>
<!-- Node3&#45;&gt;Node4 -->
<g id="edge3" class="edge"><title>Node3&#45;&gt;Node4</title>
<path fill="none" stroke="midnightblue" d="M195,-67.396C195,-59.6448 195,-49.8122 195,-40.8601"/>
<polygon fill="midnightblue" stroke="midnightblue" points="198.5,-40.5765 195,-30.5765 191.5,-40.5765 198.5,-40.5765"/>
</g>
</g>
</svg>
