<?xml version="1.0" encoding="UTF-8" standalone="no"?>
<!DOCTYPE svg PUBLIC "-//W3C//DTD SVG 1.1//EN"
 "http://www.w3.org/Graphics/SVG/1.1/DTD/svg11.dtd">
<!-- Generated by graphviz version 2.38.0 (20140413.2041)
 -->
<!-- Title: /bitrise/src/Source/AR6/AR/icpPoint.c Pages: 1 -->
<!--zoomable 207 -->
<svg id="main" version="1.1" xmlns="http://www.w3.org/2000/svg" xmlns:xlink="http://www.w3.org/1999/xlink" xml:space="preserve" onload="init(evt)">
<style type="text/css"><![CDATA[
.edge:hover path { stroke: red; }
.edge:hover polygon { stroke: red; fill: red; }
]]></style>
<script type="text/javascript"><![CDATA[
var edges = document.getElementsByTagName('g');
if (edges && edges.length) {
  for (var i=0;i<edges.length;i++) {
    if (edges[i].id.substr(0,4)=='edge') {
      edges[i].setAttribute('class','edge');
    }
  }
}
]]></script>
        <defs>
                <circle id="rim" cx="0" cy="0" r="7"/>
                <circle id="rim2" cx="0" cy="0" r="3.5"/>
                <g id="zoomPlus">
                        <use xlink:href="#rim" fill="#404040">
                                <set attributeName="fill" to="#808080" begin="zoomplus.mouseover" end="zoomplus.mouseout"/>
                        </use>
                        <path d="M-4,0h8M0,-4v8" fill="none" stroke="white" stroke-width="1.5" pointer-events="none"/>
                </g>
                <g id="zoomMin">
                        <use xlink:href="#rim" fill="#404040">
                                <set attributeName="fill" to="#808080" begin="zoomminus.mouseover" end="zoomminus.mouseout"/>
                        </use>
                        <path d="M-4,0h8" fill="none" stroke="white" stroke-width="1.5" pointer-events="none"/>
                </g>
                <g id="dirArrow">
                        <path fill="none" stroke="white" stroke-width="1.5" d="M0,-3.0v7 M-2.5,-0.5L0,-3.0L2.5,-0.5"/>
                </g>
               <g id="resetDef">
                       <use xlink:href="#rim2" fill="#404040">
                               <set attributeName="fill" to="#808080" begin="reset.mouseover" end="reset.mouseout"/>
                       </use>
               </g>
        </defs>

<script type="text/javascript">
var viewWidth = 995;
var viewHeight = 207;
var sectionId = 'dynsection-0';
</script>
<script xlink:href="svgpan.js"/>
<svg id="graph" class="graph">
<g id="viewport">
<title>/bitrise/src/Source/AR6/AR/icpPoint.c</title>
<polygon fill="white" stroke="none" points="-4,4 -4,-203 990.5,-203 990.5,4 -4,4"/>
<!-- Node1 -->
<g id="node1" class="node"><title>Node1</title>
<polygon fill="#bfbfbf" stroke="black" points="635.5,-168.5 635.5,-198.5 738.5,-198.5 738.5,-168.5 635.5,-168.5"/>
<text text-anchor="start" x="643.5" y="-186.5" font-family="Helvetica,sans-Serif" font-size="10.00">/bitrise/src/Source</text>
<text text-anchor="middle" x="687" y="-175.5" font-family="Helvetica,sans-Serif" font-size="10.00">/AR6/AR/icpPoint.c</text>
</g>
<!-- Node2 -->
<g id="node2" class="node"><title>Node2</title>
<polygon fill="white" stroke="#bfbfbf" points="124,-0.5 124,-19.5 170,-19.5 170,-0.5 124,-0.5"/>
<text text-anchor="middle" x="147" y="-7.5" font-family="Helvetica,sans-Serif" font-size="10.00">stdio.h</text>
</g>
<!-- Node1&#45;&gt;Node2 -->
<g id="edge1" class="edge"><title>Node1&#45;&gt;Node2</title>
<path fill="none" stroke="midnightblue" d="M635.058,-179.623C514.256,-171.799 219.778,-145.836 155,-76 143.774,-63.8973 142.708,-44.6154 143.889,-30.1903"/>
<polygon fill="midnightblue" stroke="midnightblue" points="147.409,-30.2477 145.166,-19.8929 140.462,-29.3859 147.409,-30.2477"/>
</g>
<!-- Node3 -->
<g id="node3" class="node"><title>Node3</title>
<polygon fill="white" stroke="#bfbfbf" points="790,-0.5 790,-19.5 838,-19.5 838,-0.5 790,-0.5"/>
<text text-anchor="middle" x="814" y="-7.5" font-family="Helvetica,sans-Serif" font-size="10.00">stdlib.h</text>
</g>
<!-- Node1&#45;&gt;Node3 -->
<g id="edge2" class="edge"><title>Node1&#45;&gt;Node3</title>
<path fill="none" stroke="midnightblue" d="M715.784,-168.377C746.856,-151.331 794.629,-119.449 815,-76 821.737,-61.63 820.771,-43.4337 818.532,-29.9509"/>
<polygon fill="midnightblue" stroke="midnightblue" points="821.915,-29.0235 816.492,-19.9215 815.055,-30.4184 821.915,-29.0235"/>
</g>
<!-- Node4 -->
<g id="node4" class="node"><title>Node4</title>
<polygon fill="white" stroke="#bfbfbf" points="939.5,-0.5 939.5,-19.5 986.5,-19.5 986.5,-0.5 939.5,-0.5"/>
<text text-anchor="middle" x="963" y="-7.5" font-family="Helvetica,sans-Serif" font-size="10.00">math.h</text>
</g>
<!-- Node1&#45;&gt;Node4 -->
<g id="edge3" class="edge"><title>Node1&#45;&gt;Node4</title>
<path fill="none" stroke="midnightblue" d="M738.583,-174.519C780.942,-166.861 841.899,-153.276 892,-132 935.016,-113.733 958.406,-116.91 981,-76 989.199,-61.1533 982.358,-42.2989 974.871,-28.7247"/>
<polygon fill="midnightblue" stroke="midnightblue" points="977.696,-26.6339 969.512,-19.9065 971.715,-30.2697 977.696,-26.6339"/>
</g>
<!-- Node5 -->
<g id="node5" class="node"><title>Node5</title>
<g id="a_node5"><a xlink:href="ar_8h.html" target="_top" xlink:title="ARToolKit core routines. ">
<polygon fill="white" stroke="black" points="486.5,-112.5 486.5,-131.5 559.5,-131.5 559.5,-112.5 486.5,-112.5"/>
<text text-anchor="middle" x="523" y="-119.5" font-family="Helvetica,sans-Serif" font-size="10.00">AR6/AR/ar.h</text>
</a>
</g>
</g>
<!-- Node1&#45;&gt;Node5 -->
<g id="edge4" class="edge"><title>Node1&#45;&gt;Node5</title>
<path fill="none" stroke="midnightblue" d="M648.134,-168.399C620.249,-158.283 583.061,-144.791 556.487,-135.149"/>
<polygon fill="midnightblue" stroke="midnightblue" points="557.458,-131.778 546.863,-131.658 555.07,-138.359 557.458,-131.778"/>
</g>
<!-- Node13 -->
<g id="node13" class="node"><title>Node13</title>
<g id="a_node13"><a xlink:href="_a_r_2include_2_a_r6_2_a_r_2matrix_8h.html" target="_top" xlink:title="AR6/AR/matrix.h">
<polygon fill="white" stroke="black" points="880,-56.5 880,-75.5 972,-75.5 972,-56.5 880,-56.5"/>
<text text-anchor="middle" x="926" y="-63.5" font-family="Helvetica,sans-Serif" font-size="10.00">AR6/AR/matrix.h</text>
</a>
</g>
</g>
<!-- Node1&#45;&gt;Node13 -->
<g id="edge27" class="edge"><title>Node1&#45;&gt;Node13</title>
<path fill="none" stroke="midnightblue" d="M738.623,-175.638C776.116,-168.888 826.915,-155.973 866,-132 886.165,-119.632 903.785,-98.6158 914.623,-83.8357"/>
<polygon fill="midnightblue" stroke="midnightblue" points="917.549,-85.76 920.457,-75.5721 911.83,-81.723 917.549,-85.76"/>
</g>
<!-- Node14 -->
<g id="node14" class="node"><title>Node14</title>
<g id="a_node14"><a xlink:href="icp_8h.html" target="_top" xlink:title="AR6/AR/icp.h">
<polygon fill="white" stroke="black" points="10.5,-56.5 10.5,-75.5 87.5,-75.5 87.5,-56.5 10.5,-56.5"/>
<text text-anchor="middle" x="49" y="-63.5" font-family="Helvetica,sans-Serif" font-size="10.00">AR6/AR/icp.h</text>
</a>
</g>
</g>
<!-- Node1&#45;&gt;Node14 -->
<g id="edge28" class="edge"><title>Node1&#45;&gt;Node14</title>
<path fill="none" stroke="midnightblue" d="M635.312,-183.115C510.046,-183.807 193.806,-180.548 102,-132 82.1495,-121.503 66.9815,-100.064 58.0583,-84.6761"/>
<polygon fill="midnightblue" stroke="midnightblue" points="60.9742,-82.7129 53.1097,-75.6135 54.8304,-86.0677 60.9742,-82.7129"/>
</g>
<!-- Node5&#45;&gt;Node2 -->
<g id="edge5" class="edge"><title>Node5&#45;&gt;Node2</title>
<path fill="none" stroke="midnightblue" d="M486.44,-120.86C406.881,-119.848 221.312,-113.424 173,-76 158.759,-64.9681 152.292,-44.9216 149.372,-29.997"/>
<polygon fill="midnightblue" stroke="midnightblue" points="152.781,-29.1462 147.76,-19.8167 145.867,-30.2411 152.781,-29.1462"/>
</g>
<!-- Node5&#45;&gt;Node3 -->
<g id="edge6" class="edge"><title>Node5&#45;&gt;Node3</title>
<path fill="none" stroke="midnightblue" d="M559.567,-119.659C625.513,-116.498 760.702,-106.398 795,-76 808.041,-64.4418 812.35,-44.4784 813.667,-29.7172"/>
<polygon fill="midnightblue" stroke="midnightblue" points="817.166,-29.8358 814.186,-19.6686 810.175,-29.4748 817.166,-29.8358"/>
</g>
<!-- Node6 -->
<g id="node6" class="node"><title>Node6</title>
<polygon fill="white" stroke="#bfbfbf" points="736.5,-56.5 736.5,-75.5 785.5,-75.5 785.5,-56.5 736.5,-56.5"/>
<text text-anchor="middle" x="761" y="-63.5" font-family="Helvetica,sans-Serif" font-size="10.00">stdint.h</text>
</g>
<!-- Node5&#45;&gt;Node6 -->
<g id="edge7" class="edge"><title>Node5&#45;&gt;Node6</title>
<path fill="none" stroke="midnightblue" d="M559.688,-112.755C599.627,-103.767 665.369,-88.9374 722,-76 723.44,-75.6711 724.909,-75.3349 726.393,-74.9947"/>
<polygon fill="midnightblue" stroke="midnightblue" points="727.285,-78.3811 736.246,-72.7297 725.716,-71.559 727.285,-78.3811"/>
</g>
<!-- Node7 -->
<g id="node7" class="node"><title>Node7</title>
<polygon fill="white" stroke="#bfbfbf" points="681.5,-0.5 681.5,-19.5 730.5,-19.5 730.5,-0.5 681.5,-0.5"/>
<text text-anchor="middle" x="706" y="-7.5" font-family="Helvetica,sans-Serif" font-size="10.00">string.h</text>
</g>
<!-- Node5&#45;&gt;Node7 -->
<g id="edge8" class="edge"><title>Node5&#45;&gt;Node7</title>
<path fill="none" stroke="midnightblue" d="M559.587,-121.168C597.164,-119.306 654.843,-110.463 689,-76 700.921,-63.9718 704.789,-44.6799 705.903,-30.2322"/>
<polygon fill="midnightblue" stroke="midnightblue" points="709.413,-30.0448 706.308,-19.9153 702.418,-29.7704 709.413,-30.0448"/>
</g>
<!-- Node8 -->
<g id="node8" class="node"><title>Node8</title>
<polygon fill="white" stroke="#bfbfbf" points="306.5,-0.5 306.5,-19.5 397.5,-19.5 397.5,-0.5 306.5,-0.5"/>
<text text-anchor="middle" x="352" y="-7.5" font-family="Helvetica,sans-Serif" font-size="10.00">AR6/AR/config.h</text>
</g>
<!-- Node5&#45;&gt;Node8 -->
<g id="edge9" class="edge"><title>Node5&#45;&gt;Node8</title>
<path fill="none" stroke="midnightblue" d="M529.64,-112.48C539.213,-99.0895 554.354,-72.9074 541,-56 524.619,-35.261 457.475,-23.0504 407.852,-16.6981"/>
<polygon fill="midnightblue" stroke="midnightblue" points="408.221,-13.2171 397.868,-15.4677 407.365,-20.1646 408.221,-13.2171"/>
</g>
<!-- Node9 -->
<g id="node9" class="node"><title>Node9</title>
<g id="a_node9"><a xlink:href="ar_config_8h.html" target="_top" xlink:title="AR6/AR/arConfig.h">
<polygon fill="white" stroke="black" points="320.5,-56.5 320.5,-75.5 421.5,-75.5 421.5,-56.5 320.5,-56.5"/>
<text text-anchor="middle" x="371" y="-63.5" font-family="Helvetica,sans-Serif" font-size="10.00">AR6/AR/arConfig.h</text>
</a>
</g>
</g>
<!-- Node5&#45;&gt;Node9 -->
<g id="edge10" class="edge"><title>Node5&#45;&gt;Node9</title>
<path fill="none" stroke="midnightblue" d="M498.915,-112.444C473.455,-103.399 433.106,-89.064 404.541,-78.9158"/>
<polygon fill="midnightblue" stroke="midnightblue" points="405.567,-75.5661 394.972,-75.5164 403.223,-82.1622 405.567,-75.5661"/>
</g>
<!-- Node10 -->
<g id="node10" class="node"><title>Node10</title>
<g id="a_node10"><a xlink:href="log_8h.html" target="_top" xlink:title="Logging utilities. ">
<polygon fill="white" stroke="black" points="588,-56.5 588,-75.5 680,-75.5 680,-56.5 588,-56.5"/>
<text text-anchor="middle" x="634" y="-63.5" font-family="Helvetica,sans-Serif" font-size="10.00">AR6/ARUtil/log.h</text>
</a>
</g>
</g>
<!-- Node5&#45;&gt;Node10 -->
<g id="edge11" class="edge"><title>Node5&#45;&gt;Node10</title>
<path fill="none" stroke="midnightblue" d="M540.834,-112.324C558.716,-103.625 586.475,-90.1202 607.046,-80.113"/>
<polygon fill="midnightblue" stroke="midnightblue" points="608.749,-83.1765 616.21,-75.6545 605.687,-76.8819 608.749,-83.1765"/>
</g>
<!-- Node5&#45;&gt;Node13 -->
<g id="edge17" class="edge"><title>Node5&#45;&gt;Node13</title>
<path fill="none" stroke="midnightblue" d="M559.832,-116.065C630.619,-106.58 786.055,-85.752 869.841,-74.5251"/>
<polygon fill="midnightblue" stroke="midnightblue" points="870.493,-77.9691 879.939,-73.1719 869.563,-71.0311 870.493,-77.9691"/>
</g>
<!-- Node5&#45;&gt;Node14 -->
<g id="edge19" class="edge"><title>Node5&#45;&gt;Node14</title>
<path fill="none" stroke="midnightblue" d="M486.2,-116.808C401.518,-107.16 192.838,-83.3866 97.6921,-72.5472"/>
<polygon fill="midnightblue" stroke="midnightblue" points="98.0872,-69.0697 87.7552,-71.4152 97.2948,-76.0247 98.0872,-69.0697"/>
</g>
<!-- Node16 -->
<g id="node16" class="node"><title>Node16</title>
<g id="a_node16"><a xlink:href="param_8h.html" target="_top" xlink:title="ARToolKit functions for handling calibrated camera parameters. ">
<polygon fill="white" stroke="black" points="440,-56.5 440,-75.5 532,-75.5 532,-56.5 440,-56.5"/>
<text text-anchor="middle" x="486" y="-63.5" font-family="Helvetica,sans-Serif" font-size="10.00">AR6/AR/param.h</text>
</a>
</g>
</g>
<!-- Node5&#45;&gt;Node16 -->
<g id="edge22" class="edge"><title>Node5&#45;&gt;Node16</title>
<path fill="none" stroke="midnightblue" d="M511.724,-112.083C505.1,-104.691 497.335,-93.9533 491.814,-84.8111"/>
<polygon fill="midnightblue" stroke="midnightblue" points="494.731,-82.8493 486.865,-75.7511 488.587,-86.205 494.731,-82.8493"/>
</g>
<!-- Node17 -->
<g id="node17" class="node"><title>Node17</title>
<g id="a_node17"><a xlink:href="ar_image_proc_8h.html" target="_top" xlink:title="ARToolKit functions for 2D luminance image processing. ">
<polygon fill="white" stroke="black" points="182,-56.5 182,-75.5 302,-75.5 302,-56.5 182,-56.5"/>
<text text-anchor="middle" x="242" y="-63.5" font-family="Helvetica,sans-Serif" font-size="10.00">AR6/AR/arImageProc.h</text>
</a>
</g>
</g>
<!-- Node5&#45;&gt;Node17 -->
<g id="edge24" class="edge"><title>Node5&#45;&gt;Node17</title>
<path fill="none" stroke="midnightblue" d="M486.272,-114.806C436.274,-105.704 346.933,-88.5977 291.206,-77.5082"/>
<polygon fill="midnightblue" stroke="midnightblue" points="291.701,-74.038 281.209,-75.5108 290.33,-80.9023 291.701,-74.038"/>
</g>
<!-- Node10&#45;&gt;Node2 -->
<g id="edge12" class="edge"><title>Node10&#45;&gt;Node2</title>
<path fill="none" stroke="midnightblue" d="M587.745,-59.8711C490.18,-49.0528 265.319,-24.1196 180.341,-14.697"/>
<polygon fill="midnightblue" stroke="midnightblue" points="180.551,-11.1989 170.226,-13.5754 179.78,-18.1562 180.551,-11.1989"/>
</g>
<!-- Node10&#45;&gt;Node3 -->
<g id="edge13" class="edge"><title>Node10&#45;&gt;Node3</title>
<path fill="none" stroke="midnightblue" d="M662.522,-56.4435C694.414,-46.8758 746.035,-31.3894 780,-21.2001"/>
<polygon fill="midnightblue" stroke="midnightblue" points="781.36,-24.4463 789.932,-18.2203 779.348,-17.7415 781.36,-24.4463"/>
</g>
<!-- Node10&#45;&gt;Node7 -->
<g id="edge14" class="edge"><title>Node10&#45;&gt;Node7</title>
<path fill="none" stroke="midnightblue" d="M645.568,-56.324C656.42,-48.1849 672.881,-35.8395 685.883,-26.0874"/>
<polygon fill="midnightblue" stroke="midnightblue" points="688.321,-28.6339 694.221,-19.8339 684.121,-23.0339 688.321,-28.6339"/>
</g>
<!-- Node11 -->
<g id="node11" class="node"><title>Node11</title>
<polygon fill="white" stroke="#bfbfbf" points="609,-0.5 609,-19.5 661,-19.5 661,-0.5 609,-0.5"/>
<text text-anchor="middle" x="635" y="-7.5" font-family="Helvetica,sans-Serif" font-size="10.00">stdarg.h</text>
</g>
<!-- Node10&#45;&gt;Node11 -->
<g id="edge15" class="edge"><title>Node10&#45;&gt;Node11</title>
<path fill="none" stroke="midnightblue" d="M634.165,-56.083C634.296,-49.0059 634.484,-38.8611 634.648,-29.9865"/>
<polygon fill="midnightblue" stroke="midnightblue" points="638.152,-29.8142 634.838,-19.7511 631.153,-29.6845 638.152,-29.8142"/>
</g>
<!-- Node12 -->
<g id="node12" class="node"><title>Node12</title>
<polygon fill="white" stroke="#bfbfbf" points="525.5,-0.5 525.5,-19.5 590.5,-19.5 590.5,-0.5 525.5,-0.5"/>
<text text-anchor="middle" x="558" y="-7.5" font-family="Helvetica,sans-Serif" font-size="10.00">sys/errno.h</text>
</g>
<!-- Node10&#45;&gt;Node12 -->
<g id="edge16" class="edge"><title>Node10&#45;&gt;Node12</title>
<path fill="none" stroke="midnightblue" d="M621.789,-56.324C610.224,-48.1066 592.625,-35.6017 578.839,-25.8069"/>
<polygon fill="midnightblue" stroke="midnightblue" points="580.612,-22.7729 570.433,-19.8339 576.557,-28.4791 580.612,-22.7729"/>
</g>
<!-- Node13&#45;&gt;Node4 -->
<g id="edge18" class="edge"><title>Node13&#45;&gt;Node4</title>
<path fill="none" stroke="midnightblue" d="M932.11,-56.083C937.282,-48.5341 944.846,-37.4948 951.194,-28.2298"/>
<polygon fill="midnightblue" stroke="midnightblue" points="954.239,-29.9787 957.004,-19.7511 948.464,-26.0221 954.239,-29.9787"/>
</g>
<!-- Node14&#45;&gt;Node2 -->
<g id="edge20" class="edge"><title>Node14&#45;&gt;Node2</title>
<path fill="none" stroke="midnightblue" d="M64.7454,-56.324C80.3187,-47.7428 104.377,-34.486 122.459,-24.5224"/>
<polygon fill="midnightblue" stroke="midnightblue" points="124.224,-27.546 131.294,-19.6545 120.846,-21.4152 124.224,-27.546"/>
</g>
<!-- Node15 -->
<g id="node15" class="node"><title>Node15</title>
<g id="a_node15"><a xlink:href="icp_core_8h.html" target="_top" xlink:title="AR6/AR/icpCore.h">
<polygon fill="white" stroke="black" points="0,-0.5 0,-19.5 98,-19.5 98,-0.5 0,-0.5"/>
<text text-anchor="middle" x="49" y="-7.5" font-family="Helvetica,sans-Serif" font-size="10.00">AR6/AR/icpCore.h</text>
</a>
</g>
</g>
<!-- Node14&#45;&gt;Node15 -->
<g id="edge21" class="edge"><title>Node14&#45;&gt;Node15</title>
<path fill="none" stroke="midnightblue" d="M49,-56.083C49,-49.0059 49,-38.8611 49,-29.9865"/>
<polygon fill="midnightblue" stroke="midnightblue" points="52.5001,-29.751 49,-19.7511 45.5001,-29.7511 52.5001,-29.751"/>
</g>
<!-- Node16&#45;&gt;Node5 -->
<g id="edge23" class="edge"><title>Node16&#45;&gt;Node5</title>
<path fill="none" stroke="midnightblue" d="M497.127,-75.7511C503.804,-83.1703 511.673,-94.0454 517.238,-103.275"/>
<polygon fill="midnightblue" stroke="midnightblue" points="514.186,-104.99 522.057,-112.083 520.328,-101.63 514.186,-104.99"/>
</g>
<!-- Node17&#45;&gt;Node5 -->
<g id="edge26" class="edge"><title>Node17&#45;&gt;Node5</title>
<path fill="none" stroke="midnightblue" d="M291.503,-75.536C343.737,-85.167 425.259,-100.814 476.38,-111.007"/>
<polygon fill="midnightblue" stroke="midnightblue" points="476,-114.5 486.493,-113.032 477.375,-107.637 476,-114.5"/>
</g>
<!-- Node17&#45;&gt;Node8 -->
<g id="edge25" class="edge"><title>Node17&#45;&gt;Node8</title>
<path fill="none" stroke="midnightblue" d="M259.673,-56.324C277.394,-47.6247 304.903,-34.1202 325.288,-24.113"/>
<polygon fill="midnightblue" stroke="midnightblue" points="326.936,-27.2031 334.37,-19.6545 323.851,-20.9195 326.936,-27.2031"/>
</g>
</g>
</svg>
        <g id="navigator" transform="translate(0 0)" fill="#404254">
                <rect fill="#f2f5e9" fill-opacity="0.5" stroke="#606060" stroke-width=".5" x="0" y="0" width="60" height="60"/>
                <use id="zoomplus" xlink:href="#zoomPlus" x="17" y="9" onmousedown="handleZoom(evt,'in')"/>
                <use id="zoomminus" xlink:href="#zoomMin" x="42" y="9" onmousedown="handleZoom(evt,'out')"/>
                <use id="reset" xlink:href="#resetDef" x="30" y="36" onmousedown="handleReset()"/>
                <g id="arrowUp" xlink:href="#dirArrow" transform="translate(30 24)" onmousedown="handlePan(0,-1)">
                  <use xlink:href="#rim" fill="#404040">
                        <set attributeName="fill" to="#808080" begin="arrowUp.mouseover" end="arrowUp.mouseout"/>
                  </use>
                  <path fill="none" stroke="white" stroke-width="1.5" d="M0,-3.0v7 M-2.5,-0.5L0,-3.0L2.5,-0.5"/>
                </g>
                <g id="arrowRight" xlink:href="#dirArrow" transform="rotate(90) translate(36 -43)" onmousedown="handlePan(1,0)">
                  <use xlink:href="#rim" fill="#404040">
                        <set attributeName="fill" to="#808080" begin="arrowRight.mouseover" end="arrowRight.mouseout"/>
                  </use>
                  <path fill="none" stroke="white" stroke-width="1.5" d="M0,-3.0v7 M-2.5,-0.5L0,-3.0L2.5,-0.5"/>
                </g>
                <g id="arrowDown" xlink:href="#dirArrow" transform="rotate(180) translate(-30 -48)" onmousedown="handlePan(0,1)">
                  <use xlink:href="#rim" fill="#404040">
                        <set attributeName="fill" to="#808080" begin="arrowDown.mouseover" end="arrowDown.mouseout"/>
                  </use>
                  <path fill="none" stroke="white" stroke-width="1.5" d="M0,-3.0v7 M-2.5,-0.5L0,-3.0L2.5,-0.5"/>
                </g>
                <g id="arrowLeft" xlink:href="#dirArrow" transform="rotate(270) translate(-36 17)" onmousedown="handlePan(-1,0)">
                  <use xlink:href="#rim" fill="#404040">
                        <set attributeName="fill" to="#808080" begin="arrowLeft.mouseover" end="arrowLeft.mouseout"/>
                  </use>
                  <path fill="none" stroke="white" stroke-width="1.5" d="M0,-3.0v7 M-2.5,-0.5L0,-3.0L2.5,-0.5"/>
                </g>
        </g>
        <svg viewBox="0 0 15 15" width="100%" height="30px" preserveAspectRatio="xMaxYMin meet">
         <g id="arrow_out" transform="scale(0.3 0.3)">
          <a xlink:href="icp_point_8c__incl_org.svg" target="_base">
           <rect id="button" ry="5" rx="5" y="6" x="6" height="38" width="38"
                fill="#f2f5e9" fill-opacity="0.5" stroke="#606060" stroke-width="1.0"/>
           <path id="arrow"
             d="M 11.500037,31.436501 C 11.940474,20.09759 22.043105,11.32322 32.158766,21.979434 L 37.068811,17.246167 C 37.068811,17.246167 37.088388,32 37.088388,32 L 22.160133,31.978069 C 22.160133,31.978069 26.997745,27.140456 26.997745,27.140456 C 18.528582,18.264221 13.291696,25.230495 11.500037,31.436501 z"
             style="fill:#404040;"/>
          </a>
         </g>
        </svg>
</svg>
