<?xml version="1.0" encoding="UTF-8" standalone="no"?>
<!DOCTYPE svg PUBLIC "-//W3C//DTD SVG 1.1//EN"
 "http://www.w3.org/Graphics/SVG/1.1/DTD/svg11.dtd">
<!-- Generated by graphviz version 2.38.0 (20140413.2041)
 -->
<!-- Title: /bitrise/src/Source/AR6/InstantOn/include/AR6/InstantOn/framework/image_yuv.h Pages: 1 -->
<svg width="300pt" height="184pt"
 viewBox="0.00 0.00 300.00 184.00" xmlns="http://www.w3.org/2000/svg" xmlns:xlink="http://www.w3.org/1999/xlink">
<g id="graph0" class="graph" transform="scale(1 1) rotate(0) translate(4 180)">
<title>/bitrise/src/Source/AR6/InstantOn/include/AR6/InstantOn/framework/image_yuv.h</title>
<polygon fill="white" stroke="none" points="-4,4 -4,-180 296,-180 296,4 -4,4"/>
<!-- Node1 -->
<g id="node1" class="node"><title>Node1</title>
<polygon fill="#bfbfbf" stroke="black" points="91,-123.5 91,-175.5 225,-175.5 225,-123.5 91,-123.5"/>
<text text-anchor="start" x="99" y="-163.5" font-family="Helvetica,sans-Serif" font-size="10.00">/bitrise/src/Source</text>
<text text-anchor="start" x="99" y="-152.5" font-family="Helvetica,sans-Serif" font-size="10.00">/AR6/InstantOn/include</text>
<text text-anchor="start" x="99" y="-141.5" font-family="Helvetica,sans-Serif" font-size="10.00">/AR6/InstantOn/framework</text>
<text text-anchor="middle" x="158" y="-130.5" font-family="Helvetica,sans-Serif" font-size="10.00">/image_yuv.h</text>
</g>
<!-- Node2 -->
<g id="node2" class="node"><title>Node2</title>
<polygon fill="white" stroke="#bfbfbf" points="0,-0.5 0,-30.5 102,-30.5 102,-0.5 0,-0.5"/>
<text text-anchor="start" x="8" y="-18.5" font-family="Helvetica,sans-Serif" font-size="10.00">artvision/framework</text>
<text text-anchor="middle" x="51" y="-7.5" font-family="Helvetica,sans-Serif" font-size="10.00">/exception.h</text>
</g>
<!-- Node1&#45;&gt;Node2 -->
<g id="edge1" class="edge"><title>Node1&#45;&gt;Node2</title>
<path fill="none" stroke="midnightblue" d="M130.101,-123.38C118.921,-112.682 106.28,-99.7446 96,-87 83.885,-71.9809 72.2218,-53.5572 63.8059,-39.3107"/>
<polygon fill="midnightblue" stroke="midnightblue" points="66.8164,-37.525 58.7723,-30.6298 60.7607,-41.0364 66.8164,-37.525"/>
</g>
<!-- Node3 -->
<g id="node3" class="node"><title>Node3</title>
<polygon fill="white" stroke="#bfbfbf" points="120,-0.5 120,-30.5 222,-30.5 222,-0.5 120,-0.5"/>
<text text-anchor="start" x="128" y="-18.5" font-family="Helvetica,sans-Serif" font-size="10.00">artvision/framework</text>
<text text-anchor="middle" x="171" y="-7.5" font-family="Helvetica,sans-Serif" font-size="10.00">/error.h</text>
</g>
<!-- Node1&#45;&gt;Node3 -->
<g id="edge2" class="edge"><title>Node1&#45;&gt;Node3</title>
<path fill="none" stroke="midnightblue" d="M161.022,-123.383C162.32,-112.245 163.809,-98.9765 165,-87 166.535,-71.5678 168.015,-54.2104 169.121,-40.58"/>
<polygon fill="midnightblue" stroke="midnightblue" points="172.614,-40.8028 169.922,-30.5558 165.637,-40.2452 172.614,-40.8028"/>
</g>
<!-- Node4 -->
<g id="node4" class="node"><title>Node4</title>
<polygon fill="white" stroke="#bfbfbf" points="240,-6 240,-25 292,-25 292,-6 240,-6"/>
<text text-anchor="middle" x="266" y="-13" font-family="Helvetica,sans-Serif" font-size="10.00">memory</text>
</g>
<!-- Node1&#45;&gt;Node4 -->
<g id="edge3" class="edge"><title>Node1&#45;&gt;Node4</title>
<path fill="none" stroke="midnightblue" d="M178.568,-123.361C200.288,-96.8146 233.905,-55.7278 252.49,-33.012"/>
<polygon fill="midnightblue" stroke="midnightblue" points="255.41,-34.97 259.034,-25.0141 249.993,-30.5373 255.41,-34.97"/>
</g>
<!-- Node5 -->
<g id="node5" class="node"><title>Node5</title>
<g id="a_node5"><a xlink:href="image_8h.html" target="_top" xlink:title="image.h">
<polygon fill="white" stroke="black" points="105.5,-67.5 105.5,-86.5 156.5,-86.5 156.5,-67.5 105.5,-67.5"/>
<text text-anchor="middle" x="131" y="-74.5" font-family="Helvetica,sans-Serif" font-size="10.00">image.h</text>
</a>
</g>
</g>
<!-- Node1&#45;&gt;Node5 -->
<g id="edge4" class="edge"><title>Node1&#45;&gt;Node5</title>
<path fill="none" stroke="midnightblue" d="M148.405,-123.446C144.952,-114.43 141.126,-104.44 137.942,-96.1274"/>
<polygon fill="midnightblue" stroke="midnightblue" points="141.175,-94.7823 134.33,-86.6955 134.638,-97.2858 141.175,-94.7823"/>
</g>
<!-- Node5&#45;&gt;Node2 -->
<g id="edge5" class="edge"><title>Node5&#45;&gt;Node2</title>
<path fill="none" stroke="midnightblue" d="M119.538,-67.4751C108.804,-59.492 92.3501,-47.2542 78.2542,-36.7703"/>
<polygon fill="midnightblue" stroke="midnightblue" points="79.9672,-33.6825 69.8544,-30.523 75.7897,-39.2993 79.9672,-33.6825"/>
</g>
<!-- Node5&#45;&gt;Node3 -->
<g id="edge6" class="edge"><title>Node5&#45;&gt;Node3</title>
<path fill="none" stroke="midnightblue" d="M136.731,-67.4751C141.743,-60.0192 149.251,-48.8519 155.962,-38.8685"/>
<polygon fill="midnightblue" stroke="midnightblue" points="158.898,-40.7747 161.573,-30.523 153.089,-36.8693 158.898,-40.7747"/>
</g>
<!-- Node5&#45;&gt;Node4 -->
<g id="edge7" class="edge"><title>Node5&#45;&gt;Node4</title>
<path fill="none" stroke="midnightblue" d="M150.342,-67.4751C173.099,-57.4455 211.092,-40.7002 237.288,-29.1546"/>
<polygon fill="midnightblue" stroke="midnightblue" points="238.955,-32.2449 246.694,-25.0091 236.131,-25.8395 238.955,-32.2449"/>
</g>
</g>
</svg>
