<?xml version="1.0" encoding="UTF-8" standalone="no"?>
<!DOCTYPE svg PUBLIC "-//W3C//DTD SVG 1.1//EN"
 "http://www.w3.org/Graphics/SVG/1.1/DTD/svg11.dtd">
<!-- Generated by graphviz version 2.38.0 (20140413.2041)
 -->
<!-- Title: /bitrise/src/Source/AR6/InstantOn/framework/image_yuv.cpp Pages: 1 -->
<svg width="300pt" height="240pt"
 viewBox="0.00 0.00 300.00 240.00" xmlns="http://www.w3.org/2000/svg" xmlns:xlink="http://www.w3.org/1999/xlink">
<g id="graph0" class="graph" transform="scale(1 1) rotate(0) translate(4 236)">
<title>/bitrise/src/Source/AR6/InstantOn/framework/image_yuv.cpp</title>
<polygon fill="white" stroke="none" points="-4,4 -4,-236 296,-236 296,4 -4,4"/>
<!-- Node1 -->
<g id="node1" class="node"><title>Node1</title>
<polygon fill="#bfbfbf" stroke="black" points="78,-190.5 78,-231.5 212,-231.5 212,-190.5 78,-190.5"/>
<text text-anchor="start" x="86" y="-219.5" font-family="Helvetica,sans-Serif" font-size="10.00">/bitrise/src/Source</text>
<text text-anchor="start" x="86" y="-208.5" font-family="Helvetica,sans-Serif" font-size="10.00">/AR6/InstantOn/framework</text>
<text text-anchor="middle" x="145" y="-197.5" font-family="Helvetica,sans-Serif" font-size="10.00">/image_yuv.cpp</text>
</g>
<!-- Node2 -->
<g id="node2" class="node"><title>Node2</title>
<g id="a_node2"><a xlink:href="image__yuv_8h.html" target="_top" xlink:title="AR6/InstantOn/framework\l/image_yuv.h">
<polygon fill="white" stroke="black" points="79.5,-123.5 79.5,-153.5 210.5,-153.5 210.5,-123.5 79.5,-123.5"/>
<text text-anchor="start" x="87.5" y="-141.5" font-family="Helvetica,sans-Serif" font-size="10.00">AR6/InstantOn/framework</text>
<text text-anchor="middle" x="145" y="-130.5" font-family="Helvetica,sans-Serif" font-size="10.00">/image_yuv.h</text>
</a>
</g>
</g>
<!-- Node1&#45;&gt;Node2 -->
<g id="edge1" class="edge"><title>Node1&#45;&gt;Node2</title>
<path fill="none" stroke="midnightblue" d="M145,-190.362C145,-182.226 145,-172.7 145,-164.105"/>
<polygon fill="midnightblue" stroke="midnightblue" points="148.5,-163.892 145,-153.892 141.5,-163.892 148.5,-163.892"/>
</g>
<!-- Node4 -->
<g id="node4" class="node"><title>Node4</title>
<polygon fill="white" stroke="#bfbfbf" points="0,-0.5 0,-30.5 102,-30.5 102,-0.5 0,-0.5"/>
<text text-anchor="start" x="8" y="-18.5" font-family="Helvetica,sans-Serif" font-size="10.00">artvision/framework</text>
<text text-anchor="middle" x="51" y="-7.5" font-family="Helvetica,sans-Serif" font-size="10.00">/error.h</text>
</g>
<!-- Node1&#45;&gt;Node4 -->
<g id="edge9" class="edge"><title>Node1&#45;&gt;Node4</title>
<path fill="none" stroke="midnightblue" d="M107.339,-190.387C93.3933,-181.212 78.8405,-168.972 70,-154 49.14,-118.671 47.6222,-69.5195 48.9458,-40.5554"/>
<polygon fill="midnightblue" stroke="midnightblue" points="52.4429,-40.7084 49.5578,-30.514 45.4559,-40.2825 52.4429,-40.7084"/>
</g>
<!-- Node7 -->
<g id="node7" class="node"><title>Node7</title>
<polygon fill="white" stroke="#bfbfbf" points="228.5,-129 228.5,-148 277.5,-148 277.5,-129 228.5,-129"/>
<text text-anchor="middle" x="253" y="-136" font-family="Helvetica,sans-Serif" font-size="10.00">string.h</text>
</g>
<!-- Node1&#45;&gt;Node7 -->
<g id="edge10" class="edge"><title>Node1&#45;&gt;Node7</title>
<path fill="none" stroke="midnightblue" d="M175.084,-190.362C192.823,-178.782 214.878,-164.385 230.991,-153.867"/>
<polygon fill="midnightblue" stroke="midnightblue" points="233.253,-156.57 239.713,-148.173 229.426,-150.709 233.253,-156.57"/>
</g>
<!-- Node3 -->
<g id="node3" class="node"><title>Node3</title>
<polygon fill="white" stroke="#bfbfbf" points="190,-0.5 190,-30.5 292,-30.5 292,-0.5 190,-0.5"/>
<text text-anchor="start" x="198" y="-18.5" font-family="Helvetica,sans-Serif" font-size="10.00">artvision/framework</text>
<text text-anchor="middle" x="241" y="-7.5" font-family="Helvetica,sans-Serif" font-size="10.00">/exception.h</text>
</g>
<!-- Node2&#45;&gt;Node3 -->
<g id="edge2" class="edge"><title>Node2&#45;&gt;Node3</title>
<path fill="none" stroke="midnightblue" d="M173.268,-123.355C188.112,-114.665 205.547,-102.267 217,-87 227.239,-73.3511 233.3,-55.0394 236.769,-40.4994"/>
<polygon fill="midnightblue" stroke="midnightblue" points="240.196,-41.2094 238.859,-30.6992 233.35,-39.7489 240.196,-41.2094"/>
</g>
<!-- Node2&#45;&gt;Node4 -->
<g id="edge3" class="edge"><title>Node2&#45;&gt;Node4</title>
<path fill="none" stroke="midnightblue" d="M133.848,-123.145C117.665,-102.313 87.5215,-63.5117 68.4004,-38.8984"/>
<polygon fill="midnightblue" stroke="midnightblue" points="71.0365,-36.5866 62.1377,-30.8368 65.5086,-40.881 71.0365,-36.5866"/>
</g>
<!-- Node5 -->
<g id="node5" class="node"><title>Node5</title>
<polygon fill="white" stroke="#bfbfbf" points="120,-6 120,-25 172,-25 172,-6 120,-6"/>
<text text-anchor="middle" x="146" y="-13" font-family="Helvetica,sans-Serif" font-size="10.00">memory</text>
</g>
<!-- Node2&#45;&gt;Node5 -->
<g id="edge4" class="edge"><title>Node2&#45;&gt;Node5</title>
<path fill="none" stroke="midnightblue" d="M145.119,-123.145C145.3,-101.203 145.646,-59.3268 145.846,-35.0906"/>
<polygon fill="midnightblue" stroke="midnightblue" points="149.346,-35.0808 145.929,-25.0522 142.347,-35.0229 149.346,-35.0808"/>
</g>
<!-- Node6 -->
<g id="node6" class="node"><title>Node6</title>
<g id="a_node6"><a xlink:href="image_8h.html" target="_top" xlink:title="image.h">
<polygon fill="white" stroke="black" points="157.5,-67.5 157.5,-86.5 208.5,-86.5 208.5,-67.5 157.5,-67.5"/>
<text text-anchor="middle" x="183" y="-74.5" font-family="Helvetica,sans-Serif" font-size="10.00">image.h</text>
</a>
</g>
</g>
<!-- Node2&#45;&gt;Node6 -->
<g id="edge5" class="edge"><title>Node2&#45;&gt;Node6</title>
<path fill="none" stroke="midnightblue" d="M154.005,-123.399C159.413,-114.932 166.332,-104.099 172.054,-95.1393"/>
<polygon fill="midnightblue" stroke="midnightblue" points="175.038,-96.9695 177.471,-86.6578 169.138,-93.2018 175.038,-96.9695"/>
</g>
<!-- Node6&#45;&gt;Node3 -->
<g id="edge6" class="edge"><title>Node6&#45;&gt;Node3</title>
<path fill="none" stroke="midnightblue" d="M191.31,-67.4751C198.798,-59.7932 210.127,-48.1717 220.077,-37.9643"/>
<polygon fill="midnightblue" stroke="midnightblue" points="222.857,-40.1268 227.331,-30.523 217.844,-35.2407 222.857,-40.1268"/>
</g>
<!-- Node6&#45;&gt;Node4 -->
<g id="edge7" class="edge"><title>Node6&#45;&gt;Node4</title>
<path fill="none" stroke="midnightblue" d="M164.088,-67.4751C145.208,-58.9648 115.601,-45.6193 91.4164,-34.718"/>
<polygon fill="midnightblue" stroke="midnightblue" points="92.6647,-31.4416 82.1098,-30.523 89.7881,-37.8232 92.6647,-31.4416"/>
</g>
<!-- Node6&#45;&gt;Node5 -->
<g id="edge8" class="edge"><title>Node6&#45;&gt;Node5</title>
<path fill="none" stroke="midnightblue" d="M177.699,-67.4751C172.259,-58.7268 163.641,-44.8691 156.764,-33.8093"/>
<polygon fill="midnightblue" stroke="midnightblue" points="159.544,-31.6528 151.291,-25.0091 153.6,-35.3494 159.544,-31.6528"/>
</g>
</g>
</svg>
