<?xml version="1.0" encoding="UTF-8" standalone="no"?>
<!DOCTYPE svg PUBLIC "-//W3C//DTD SVG 1.1//EN"
 "http://www.w3.org/Graphics/SVG/1.1/DTD/svg11.dtd">
<!-- Generated by graphviz version 2.38.0 (20140413.2041)
 -->
<!-- Title: /bitrise/src/Source/AR6/ARUtil/include/AR6/ARUtil/image_indexer.h Pages: 1 -->
<svg width="300pt" height="117pt"
 viewBox="0.00 0.00 299.50 117.00" xmlns="http://www.w3.org/2000/svg" xmlns:xlink="http://www.w3.org/1999/xlink">
<g id="graph0" class="graph" transform="scale(1 1) rotate(0) translate(4 113)">
<title>/bitrise/src/Source/AR6/ARUtil/include/AR6/ARUtil/image_indexer.h</title>
<polygon fill="white" stroke="none" points="-4,4 -4,-113 295.5,-113 295.5,4 -4,4"/>
<!-- Node1 -->
<g id="node1" class="node"><title>Node1</title>
<polygon fill="#bfbfbf" stroke="black" points="62.5,-67.5 62.5,-108.5 208.5,-108.5 208.5,-67.5 62.5,-67.5"/>
<text text-anchor="start" x="70.5" y="-96.5" font-family="Helvetica,sans-Serif" font-size="10.00">/bitrise/src/Source</text>
<text text-anchor="start" x="70.5" y="-85.5" font-family="Helvetica,sans-Serif" font-size="10.00">/AR6/ARUtil/include</text>
<text text-anchor="middle" x="135.5" y="-74.5" font-family="Helvetica,sans-Serif" font-size="10.00">/AR6/ARUtil/image_indexer.h</text>
</g>
<!-- Node2 -->
<g id="node2" class="node"><title>Node2</title>
<g id="a_node2"><a xlink:href="_a_r_controller_8cpp.html" target="_top" xlink:title="/bitrise/src/Source\l/AR6/ARController.cpp">
<polygon fill="white" stroke="black" points="0,-0.5 0,-30.5 117,-30.5 117,-0.5 0,-0.5"/>
<text text-anchor="start" x="8" y="-18.5" font-family="Helvetica,sans-Serif" font-size="10.00">/bitrise/src/Source</text>
<text text-anchor="middle" x="58.5" y="-7.5" font-family="Helvetica,sans-Serif" font-size="10.00">/AR6/ARController.cpp</text>
</a>
</g>
</g>
<!-- Node1&#45;&gt;Node2 -->
<g id="edge1" class="edge"><title>Node1&#45;&gt;Node2</title>
<path fill="none" stroke="midnightblue" d="M106.667,-60.6005C95.6708,-50.533 83.5503,-39.4356 74.2185,-30.8916"/>
<polygon fill="midnightblue" stroke="midnightblue" points="104.312,-63.1903 114.051,-67.3618 109.039,-58.0274 104.312,-63.1903"/>
</g>
<!-- Node3 -->
<g id="node3" class="node"><title>Node3</title>
<g id="a_node3"><a xlink:href="image__indexer_8cpp.html" target="_top" xlink:title="/bitrise/src/Source\l/AR6/ARUtil/image_indexer.cpp">
<polygon fill="white" stroke="black" points="135.5,-0.5 135.5,-30.5 291.5,-30.5 291.5,-0.5 135.5,-0.5"/>
<text text-anchor="start" x="143.5" y="-18.5" font-family="Helvetica,sans-Serif" font-size="10.00">/bitrise/src/Source</text>
<text text-anchor="middle" x="213.5" y="-7.5" font-family="Helvetica,sans-Serif" font-size="10.00">/AR6/ARUtil/image_indexer.cpp</text>
</a>
</g>
</g>
<!-- Node1&#45;&gt;Node3 -->
<g id="edge2" class="edge"><title>Node1&#45;&gt;Node3</title>
<path fill="none" stroke="midnightblue" d="M164.708,-60.6005C175.846,-50.533 188.124,-39.4356 197.577,-30.8916"/>
<polygon fill="midnightblue" stroke="midnightblue" points="162.299,-58.0598 157.227,-67.3618 166.993,-63.253 162.299,-58.0598"/>
</g>
</g>
</svg>
