<?xml version="1.0" encoding="UTF-8" standalone="no"?>
<!DOCTYPE svg PUBLIC "-//W3C//DTD SVG 1.1//EN"
 "http://www.w3.org/Graphics/SVG/1.1/DTD/svg11.dtd">
<!-- Generated by graphviz version 2.38.0 (20140413.2041)
 -->
<!-- Title: /bitrise/src/Source/AR6/InstantOn/include/AR6/InstantOn/framework/image_yuv.h Pages: 1 -->
<svg width="964pt" height="406pt"
 viewBox="0.00 0.00 964.00 406.00" xmlns="http://www.w3.org/2000/svg" xmlns:xlink="http://www.w3.org/1999/xlink">
<g id="graph0" class="graph" transform="scale(1 1) rotate(0) translate(4 402)">
<title>/bitrise/src/Source/AR6/InstantOn/include/AR6/InstantOn/framework/image_yuv.h</title>
<polygon fill="white" stroke="none" points="-4,4 -4,-402 960,-402 960,4 -4,4"/>
<!-- Node1 -->
<g id="node1" class="node"><title>Node1</title>
<polygon fill="#bfbfbf" stroke="black" points="277.5,-345.5 277.5,-397.5 411.5,-397.5 411.5,-345.5 277.5,-345.5"/>
<text text-anchor="start" x="285.5" y="-385.5" font-family="Helvetica,sans-Serif" font-size="10.00">/bitrise/src/Source</text>
<text text-anchor="start" x="285.5" y="-374.5" font-family="Helvetica,sans-Serif" font-size="10.00">/AR6/InstantOn/include</text>
<text text-anchor="start" x="285.5" y="-363.5" font-family="Helvetica,sans-Serif" font-size="10.00">/AR6/InstantOn/framework</text>
<text text-anchor="middle" x="344.5" y="-352.5" font-family="Helvetica,sans-Serif" font-size="10.00">/image_yuv.h</text>
</g>
<!-- Node2 -->
<g id="node2" class="node"><title>Node2</title>
<g id="a_node2"><a xlink:href="image__yuv_8cpp.html" target="_top" xlink:title="/bitrise/src/Source\l/AR6/InstantOn/framework\l/image_yuv.cpp">
<polygon fill="white" stroke="black" points="201.5,-262 201.5,-303 335.5,-303 335.5,-262 201.5,-262"/>
<text text-anchor="start" x="209.5" y="-291" font-family="Helvetica,sans-Serif" font-size="10.00">/bitrise/src/Source</text>
<text text-anchor="start" x="209.5" y="-280" font-family="Helvetica,sans-Serif" font-size="10.00">/AR6/InstantOn/framework</text>
<text text-anchor="middle" x="268.5" y="-269" font-family="Helvetica,sans-Serif" font-size="10.00">/image_yuv.cpp</text>
</a>
</g>
</g>
<!-- Node1&#45;&gt;Node2 -->
<g id="edge1" class="edge"><title>Node1&#45;&gt;Node2</title>
<path fill="none" stroke="midnightblue" d="M315.684,-337.513C305.543,-325.904 294.473,-313.232 285.606,-303.082"/>
<polygon fill="midnightblue" stroke="midnightblue" points="313.303,-340.107 322.518,-345.336 318.575,-335.502 313.303,-340.107"/>
</g>
<!-- Node3 -->
<g id="node3" class="node"><title>Node3</title>
<g id="a_node3"><a xlink:href="image__sample_8h.html" target="_top" xlink:title="/bitrise/src/Source\l/AR6/InstantOn/include\l/AR6/InstantOn/extensions\l/image_sample.h">
<polygon fill="white" stroke="black" points="354,-256.5 354,-308.5 489,-308.5 489,-256.5 354,-256.5"/>
<text text-anchor="start" x="362" y="-296.5" font-family="Helvetica,sans-Serif" font-size="10.00">/bitrise/src/Source</text>
<text text-anchor="start" x="362" y="-285.5" font-family="Helvetica,sans-Serif" font-size="10.00">/AR6/InstantOn/include</text>
<text text-anchor="start" x="362" y="-274.5" font-family="Helvetica,sans-Serif" font-size="10.00">/AR6/InstantOn/extensions</text>
<text text-anchor="middle" x="421.5" y="-263.5" font-family="Helvetica,sans-Serif" font-size="10.00">/image_sample.h</text>
</a>
</g>
</g>
<!-- Node1&#45;&gt;Node3 -->
<g id="edge2" class="edge"><title>Node1&#45;&gt;Node3</title>
<path fill="none" stroke="midnightblue" d="M373.45,-337.79C382.001,-328.129 391.222,-317.71 399.278,-308.607"/>
<polygon fill="midnightblue" stroke="midnightblue" points="370.778,-335.528 366.772,-345.336 376.02,-340.167 370.778,-335.528"/>
</g>
<!-- Node4 -->
<g id="node4" class="node"><title>Node4</title>
<g id="a_node4"><a xlink:href="attitude__sync__filter_8cpp.html" target="_top" xlink:title="/bitrise/src/Source\l/AR6/InstantOn/extensions\l/attitude_sync_filter.cpp">
<polygon fill="white" stroke="black" points="0,-173 0,-214 135,-214 135,-173 0,-173"/>
<text text-anchor="start" x="8" y="-202" font-family="Helvetica,sans-Serif" font-size="10.00">/bitrise/src/Source</text>
<text text-anchor="start" x="8" y="-191" font-family="Helvetica,sans-Serif" font-size="10.00">/AR6/InstantOn/extensions</text>
<text text-anchor="middle" x="67.5" y="-180" font-family="Helvetica,sans-Serif" font-size="10.00">/attitude_sync_filter.cpp</text>
</a>
</g>
</g>
<!-- Node3&#45;&gt;Node4 -->
<g id="edge3" class="edge"><title>Node3&#45;&gt;Node4</title>
<path fill="none" stroke="midnightblue" d="M343.925,-256.018C254.743,-234.244 228.418,-241.726 143.5,-220 136.758,-218.275 129.751,-216.251 122.839,-214.111"/>
<polygon fill="midnightblue" stroke="midnightblue" points="343.085,-259.416 353.635,-258.443 344.781,-252.624 343.085,-259.416"/>
</g>
<!-- Node5 -->
<g id="node5" class="node"><title>Node5</title>
<g id="a_node5"><a xlink:href="image__sample_8cpp.html" target="_top" xlink:title="/bitrise/src/Source\l/AR6/InstantOn/extensions\l/image_sample.cpp">
<polygon fill="white" stroke="black" points="153,-173 153,-214 288,-214 288,-173 153,-173"/>
<text text-anchor="start" x="161" y="-202" font-family="Helvetica,sans-Serif" font-size="10.00">/bitrise/src/Source</text>
<text text-anchor="start" x="161" y="-191" font-family="Helvetica,sans-Serif" font-size="10.00">/AR6/InstantOn/extensions</text>
<text text-anchor="middle" x="220.5" y="-180" font-family="Helvetica,sans-Serif" font-size="10.00">/image_sample.cpp</text>
</a>
</g>
</g>
<!-- Node3&#45;&gt;Node5 -->
<g id="edge4" class="edge"><title>Node3&#45;&gt;Node5</title>
<path fill="none" stroke="midnightblue" d="M354.35,-252.435C325.26,-239.844 291.966,-225.433 265.861,-214.134"/>
<polygon fill="midnightblue" stroke="midnightblue" points="353.065,-255.692 363.632,-256.453 355.845,-249.268 353.065,-255.692"/>
</g>
<!-- Node6 -->
<g id="node6" class="node"><title>Node6</title>
<g id="a_node6"><a xlink:href="pyramid__filter_8cpp.html" target="_top" xlink:title="/bitrise/src/Source\l/AR6/InstantOn/extensions\l/pyramid_filter.cpp">
<polygon fill="white" stroke="black" points="306,-173 306,-214 441,-214 441,-173 306,-173"/>
<text text-anchor="start" x="314" y="-202" font-family="Helvetica,sans-Serif" font-size="10.00">/bitrise/src/Source</text>
<text text-anchor="start" x="314" y="-191" font-family="Helvetica,sans-Serif" font-size="10.00">/AR6/InstantOn/extensions</text>
<text text-anchor="middle" x="373.5" y="-180" font-family="Helvetica,sans-Serif" font-size="10.00">/pyramid_filter.cpp</text>
</a>
</g>
</g>
<!-- Node3&#45;&gt;Node6 -->
<g id="edge5" class="edge"><title>Node3&#45;&gt;Node6</title>
<path fill="none" stroke="midnightblue" d="M402.745,-247.506C396.493,-236.175 389.743,-223.94 384.304,-214.082"/>
<polygon fill="midnightblue" stroke="midnightblue" points="399.721,-249.271 407.616,-256.336 405.85,-245.889 399.721,-249.271"/>
</g>
<!-- Node7 -->
<g id="node7" class="node"><title>Node7</title>
<g id="a_node7"><a xlink:href="camera__filter_8h.html" target="_top" xlink:title="/bitrise/src/Source\l/AR6/InstantOn/include\l/AR6/InstantOn/extensions\l/camera_filter.h">
<polygon fill="white" stroke="black" points="383,-78.5 383,-130.5 518,-130.5 518,-78.5 383,-78.5"/>
<text text-anchor="start" x="391" y="-118.5" font-family="Helvetica,sans-Serif" font-size="10.00">/bitrise/src/Source</text>
<text text-anchor="start" x="391" y="-107.5" font-family="Helvetica,sans-Serif" font-size="10.00">/AR6/InstantOn/include</text>
<text text-anchor="start" x="391" y="-96.5" font-family="Helvetica,sans-Serif" font-size="10.00">/AR6/InstantOn/extensions</text>
<text text-anchor="middle" x="450.5" y="-85.5" font-family="Helvetica,sans-Serif" font-size="10.00">/camera_filter.h</text>
</a>
</g>
</g>
<!-- Node3&#45;&gt;Node7 -->
<g id="edge6" class="edge"><title>Node3&#45;&gt;Node7</title>
<path fill="none" stroke="midnightblue" d="M440.244,-246.996C444.045,-238.415 447.491,-229.071 449.5,-220 456.164,-189.916 455.125,-154.287 453.268,-130.856"/>
<polygon fill="midnightblue" stroke="midnightblue" points="436.954,-245.765 435.859,-256.303 443.287,-248.749 436.954,-245.765"/>
</g>
<!-- Node10 -->
<g id="node10" class="node"><title>Node10</title>
<g id="a_node10"><a xlink:href="camera__listener__base_8h.html" target="_top" xlink:title="/bitrise/src/Source\l/AR6/InstantOn/include\l/AR6/InstantOn/extensions\l/camera_listener_base.h">
<polygon fill="white" stroke="black" points="498,-167.5 498,-219.5 633,-219.5 633,-167.5 498,-167.5"/>
<text text-anchor="start" x="506" y="-207.5" font-family="Helvetica,sans-Serif" font-size="10.00">/bitrise/src/Source</text>
<text text-anchor="start" x="506" y="-196.5" font-family="Helvetica,sans-Serif" font-size="10.00">/AR6/InstantOn/include</text>
<text text-anchor="start" x="506" y="-185.5" font-family="Helvetica,sans-Serif" font-size="10.00">/AR6/InstantOn/extensions</text>
<text text-anchor="middle" x="565.5" y="-174.5" font-family="Helvetica,sans-Serif" font-size="10.00">/camera_listener_base.h</text>
</a>
</g>
</g>
<!-- Node3&#45;&gt;Node10 -->
<g id="edge9" class="edge"><title>Node3&#45;&gt;Node10</title>
<path fill="none" stroke="midnightblue" d="M471.866,-251.07C488.886,-240.788 507.684,-229.431 523.943,-219.607"/>
<polygon fill="midnightblue" stroke="midnightblue" points="469.9,-248.169 463.151,-256.336 473.52,-254.161 469.9,-248.169"/>
</g>
<!-- Node12 -->
<g id="node12" class="node"><title>Node12</title>
<g id="a_node12"><a xlink:href="homography__tracker__filter_8h.html" target="_top" xlink:title="/bitrise/src/Source\l/AR6/InstantOn/include\l/AR6/InstantOn/extensions\l/homography_tracker_filter.h">
<polygon fill="white" stroke="black" points="706.5,-167.5 706.5,-219.5 846.5,-219.5 846.5,-167.5 706.5,-167.5"/>
<text text-anchor="start" x="714.5" y="-207.5" font-family="Helvetica,sans-Serif" font-size="10.00">/bitrise/src/Source</text>
<text text-anchor="start" x="714.5" y="-196.5" font-family="Helvetica,sans-Serif" font-size="10.00">/AR6/InstantOn/include</text>
<text text-anchor="start" x="714.5" y="-185.5" font-family="Helvetica,sans-Serif" font-size="10.00">/AR6/InstantOn/extensions</text>
<text text-anchor="middle" x="776.5" y="-174.5" font-family="Helvetica,sans-Serif" font-size="10.00">/homography_tracker_filter.h</text>
</a>
</g>
</g>
<!-- Node3&#45;&gt;Node12 -->
<g id="edge15" class="edge"><title>Node3&#45;&gt;Node12</title>
<path fill="none" stroke="midnightblue" d="M499.198,-262.459C560.994,-247.314 646.699,-226.31 706.412,-211.676"/>
<polygon fill="midnightblue" stroke="midnightblue" points="497.988,-259.151 489.108,-264.931 499.654,-265.95 497.988,-259.151"/>
</g>
<!-- Node8 -->
<g id="node8" class="node"><title>Node8</title>
<g id="a_node8"><a xlink:href="camera__filter_8cpp.html" target="_top" xlink:title="/bitrise/src/Source\l/AR6/InstantOn/extensions\l/camera_filter.cpp">
<polygon fill="white" stroke="black" points="421,-0.5 421,-41.5 556,-41.5 556,-0.5 421,-0.5"/>
<text text-anchor="start" x="429" y="-29.5" font-family="Helvetica,sans-Serif" font-size="10.00">/bitrise/src/Source</text>
<text text-anchor="start" x="429" y="-18.5" font-family="Helvetica,sans-Serif" font-size="10.00">/AR6/InstantOn/extensions</text>
<text text-anchor="middle" x="488.5" y="-7.5" font-family="Helvetica,sans-Serif" font-size="10.00">/camera_filter.cpp</text>
</a>
</g>
</g>
<!-- Node7&#45;&gt;Node8 -->
<g id="edge7" class="edge"><title>Node7&#45;&gt;Node8</title>
<path fill="none" stroke="midnightblue" d="M466.574,-69.0262C470.938,-59.6663 475.513,-49.8538 479.348,-41.6282"/>
<polygon fill="midnightblue" stroke="midnightblue" points="463.369,-67.6173 462.315,-78.1596 469.713,-70.5754 463.369,-67.6173"/>
</g>
<!-- Node9 -->
<g id="node9" class="node"><title>Node9</title>
<g id="a_node9"><a xlink:href="_vision4d-_instant_on_8cpp.html" target="_top" xlink:title="/bitrise/src/Source\l/AR6/InstantOn/extensions\l/Vision4d&#45;InstantOn.cpp">
<polygon fill="white" stroke="black" points="593,-0.5 593,-41.5 728,-41.5 728,-0.5 593,-0.5"/>
<text text-anchor="start" x="601" y="-29.5" font-family="Helvetica,sans-Serif" font-size="10.00">/bitrise/src/Source</text>
<text text-anchor="start" x="601" y="-18.5" font-family="Helvetica,sans-Serif" font-size="10.00">/AR6/InstantOn/extensions</text>
<text text-anchor="middle" x="660.5" y="-7.5" font-family="Helvetica,sans-Serif" font-size="10.00">/Vision4d&#45;InstantOn.cpp</text>
</a>
</g>
</g>
<!-- Node7&#45;&gt;Node9 -->
<g id="edge8" class="edge"><title>Node7&#45;&gt;Node9</title>
<path fill="none" stroke="midnightblue" d="M524.42,-74.8121C552.806,-63.7954 584.524,-51.4859 610.192,-41.5241"/>
<polygon fill="midnightblue" stroke="midnightblue" points="522.99,-71.6125 514.934,-78.4934 525.523,-78.1382 522.99,-71.6125"/>
</g>
<!-- Node10&#45;&gt;Node7 -->
<g id="edge12" class="edge"><title>Node10&#45;&gt;Node7</title>
<path fill="none" stroke="midnightblue" d="M524.152,-161.219C510.86,-151.164 496.315,-140.16 483.688,-130.607"/>
<polygon fill="midnightblue" stroke="midnightblue" points="522.151,-164.094 532.237,-167.336 526.374,-158.511 522.151,-164.094"/>
</g>
<!-- Node10&#45;&gt;Node8 -->
<g id="edge10" class="edge"><title>Node10&#45;&gt;Node8</title>
<path fill="none" stroke="midnightblue" d="M556.205,-157.405C549.431,-134.231 539.226,-103.542 526.5,-78 520.16,-65.2754 511.324,-52.0689 503.768,-41.6788"/>
<polygon fill="midnightblue" stroke="midnightblue" points="552.878,-158.5 558.984,-167.158 559.61,-156.582 552.878,-158.5"/>
</g>
<!-- Node10&#45;&gt;Node9 -->
<g id="edge11" class="edge"><title>Node10&#45;&gt;Node9</title>
<path fill="none" stroke="midnightblue" d="M572.58,-157.391C578.416,-133.719 588.253,-102.464 603.5,-78 612.012,-64.3431 624.513,-51.5647 635.641,-41.6728"/>
<polygon fill="midnightblue" stroke="midnightblue" points="569.119,-156.821 570.247,-167.355 575.935,-158.416 569.119,-156.821"/>
</g>
<!-- Node11 -->
<g id="node11" class="node"><title>Node11</title>
<g id="a_node11"><a xlink:href="_vision4d-_instant_on_8h.html" target="_top" xlink:title="/bitrise/src/Source\l/AR6/InstantOn/include\l/AR6/InstantOn/extensions\l/Vision4d&#45;InstantOn.h">
<polygon fill="white" stroke="black" points="613,-78.5 613,-130.5 748,-130.5 748,-78.5 613,-78.5"/>
<text text-anchor="start" x="621" y="-118.5" font-family="Helvetica,sans-Serif" font-size="10.00">/bitrise/src/Source</text>
<text text-anchor="start" x="621" y="-107.5" font-family="Helvetica,sans-Serif" font-size="10.00">/AR6/InstantOn/include</text>
<text text-anchor="start" x="621" y="-96.5" font-family="Helvetica,sans-Serif" font-size="10.00">/AR6/InstantOn/extensions</text>
<text text-anchor="middle" x="680.5" y="-85.5" font-family="Helvetica,sans-Serif" font-size="10.00">/Vision4d&#45;InstantOn.h</text>
</a>
</g>
</g>
<!-- Node10&#45;&gt;Node11 -->
<g id="edge13" class="edge"><title>Node10&#45;&gt;Node11</title>
<path fill="none" stroke="midnightblue" d="M606.848,-161.219C620.14,-151.164 634.685,-140.16 647.312,-130.607"/>
<polygon fill="midnightblue" stroke="midnightblue" points="604.626,-158.511 598.763,-167.336 608.849,-164.094 604.626,-158.511"/>
</g>
<!-- Node11&#45;&gt;Node9 -->
<g id="edge14" class="edge"><title>Node11&#45;&gt;Node9</title>
<path fill="none" stroke="midnightblue" d="M671.896,-68.4406C669.643,-59.2582 667.293,-49.6825 665.317,-41.6282"/>
<polygon fill="midnightblue" stroke="midnightblue" points="668.499,-69.282 674.282,-78.1596 675.297,-67.6136 668.499,-69.282"/>
</g>
<!-- Node12&#45;&gt;Node9 -->
<g id="edge17" class="edge"><title>Node12&#45;&gt;Node9</title>
<path fill="none" stroke="midnightblue" d="M778.22,-157.235C777.703,-132.973 773.493,-101.086 757.5,-78 746.593,-62.2552 729.719,-50.336 713.085,-41.6295"/>
<polygon fill="midnightblue" stroke="midnightblue" points="774.721,-157.457 778.234,-167.452 781.721,-157.448 774.721,-157.457"/>
</g>
<!-- Node13 -->
<g id="node13" class="node"><title>Node13</title>
<g id="a_node13"><a xlink:href="homography__tracker__filter_8cpp.html" target="_top" xlink:title="/bitrise/src/Source\l/AR6/InstantOn/extensions\l/homography_tracker_filter.cpp">
<polygon fill="white" stroke="black" points="805,-84 805,-125 956,-125 956,-84 805,-84"/>
<text text-anchor="start" x="813" y="-113" font-family="Helvetica,sans-Serif" font-size="10.00">/bitrise/src/Source</text>
<text text-anchor="start" x="813" y="-102" font-family="Helvetica,sans-Serif" font-size="10.00">/AR6/InstantOn/extensions</text>
<text text-anchor="middle" x="880.5" y="-91" font-family="Helvetica,sans-Serif" font-size="10.00">/homography_tracker_filter.cpp</text>
</a>
</g>
</g>
<!-- Node12&#45;&gt;Node13 -->
<g id="edge16" class="edge"><title>Node12&#45;&gt;Node13</title>
<path fill="none" stroke="midnightblue" d="M814.338,-160.847C828.641,-148.882 844.491,-135.623 857.092,-125.082"/>
<polygon fill="midnightblue" stroke="midnightblue" points="812.006,-158.235 806.581,-167.336 816.497,-163.604 812.006,-158.235"/>
</g>
</g>
</svg>
