<?xml version="1.0" encoding="UTF-8" standalone="no"?>
<!DOCTYPE svg PUBLIC "-//W3C//DTD SVG 1.1//EN"
 "http://www.w3.org/Graphics/SVG/1.1/DTD/svg11.dtd">
<!-- Generated by graphviz version 2.38.0 (20140413.2041)
 -->
<!-- Title: /bitrise/src/Source/AR6/InstantOn/include/AR6/InstantOn/extensions/image_sample.h Pages: 1 -->
<svg width="806pt" height="385pt"
 viewBox="0.00 0.00 806.00 385.00" xmlns="http://www.w3.org/2000/svg" xmlns:xlink="http://www.w3.org/1999/xlink">
<g id="graph0" class="graph" transform="scale(1 1) rotate(0) translate(4 381)">
<title>/bitrise/src/Source/AR6/InstantOn/include/AR6/InstantOn/extensions/image_sample.h</title>
<polygon fill="white" stroke="none" points="-4,4 -4,-381 802,-381 802,4 -4,4"/>
<!-- Node1 -->
<g id="node1" class="node"><title>Node1</title>
<polygon fill="#bfbfbf" stroke="black" points="621.5,-324.5 621.5,-376.5 756.5,-376.5 756.5,-324.5 621.5,-324.5"/>
<text text-anchor="start" x="629.5" y="-364.5" font-family="Helvetica,sans-Serif" font-size="10.00">/bitrise/src/Source</text>
<text text-anchor="start" x="629.5" y="-353.5" font-family="Helvetica,sans-Serif" font-size="10.00">/AR6/InstantOn/include</text>
<text text-anchor="start" x="629.5" y="-342.5" font-family="Helvetica,sans-Serif" font-size="10.00">/AR6/InstantOn/extensions</text>
<text text-anchor="middle" x="689" y="-331.5" font-family="Helvetica,sans-Serif" font-size="10.00">/image_sample.h</text>
</g>
<!-- Node2 -->
<g id="node2" class="node"><title>Node2</title>
<g id="a_node2"><a xlink:href="sample_8h.html" target="_top" xlink:title="AR6/InstantOn/framework\l/sample.h">
<polygon fill="white" stroke="black" points="468.5,-257.5 468.5,-287.5 599.5,-287.5 599.5,-257.5 468.5,-257.5"/>
<text text-anchor="start" x="476.5" y="-275.5" font-family="Helvetica,sans-Serif" font-size="10.00">AR6/InstantOn/framework</text>
<text text-anchor="middle" x="534" y="-264.5" font-family="Helvetica,sans-Serif" font-size="10.00">/sample.h</text>
</a>
</g>
</g>
<!-- Node1&#45;&gt;Node2 -->
<g id="edge1" class="edge"><title>Node1&#45;&gt;Node2</title>
<path fill="none" stroke="midnightblue" d="M637.818,-324.404C616.351,-313.878 591.827,-301.854 572.006,-292.135"/>
<polygon fill="midnightblue" stroke="midnightblue" points="573.494,-288.967 562.974,-287.707 570.412,-295.252 573.494,-288.967"/>
</g>
<!-- Node14 -->
<g id="node14" class="node"><title>Node14</title>
<polygon fill="white" stroke="#bfbfbf" points="546,-6 546,-25 598,-25 598,-6 546,-6"/>
<text text-anchor="middle" x="572" y="-13" font-family="Helvetica,sans-Serif" font-size="10.00">memory</text>
</g>
<!-- Node1&#45;&gt;Node14 -->
<g id="edge34" class="edge"><title>Node1&#45;&gt;Node14</title>
<path fill="none" stroke="midnightblue" d="M726.207,-324.466C757.783,-299.924 798,-259.369 798,-212 798,-212 798,-212 798,-148.5 798,-104.042 776.128,-92.9095 740,-67 718.851,-51.8327 651.062,-34.409 608.334,-24.5019"/>
<polygon fill="midnightblue" stroke="midnightblue" points="608.845,-21.0285 598.317,-22.2101 607.284,-27.8522 608.845,-21.0285"/>
</g>
<!-- Node19 -->
<g id="node19" class="node"><title>Node19</title>
<g id="a_node19"><a xlink:href="image_8h.html" target="_top" xlink:title="AR6/InstantOn/framework\l/image.h">
<polygon fill="white" stroke="black" points="600.5,-67.5 600.5,-97.5 731.5,-97.5 731.5,-67.5 600.5,-67.5"/>
<text text-anchor="start" x="608.5" y="-85.5" font-family="Helvetica,sans-Serif" font-size="10.00">AR6/InstantOn/framework</text>
<text text-anchor="middle" x="666" y="-74.5" font-family="Helvetica,sans-Serif" font-size="10.00">/image.h</text>
</a>
</g>
</g>
<!-- Node1&#45;&gt;Node19 -->
<g id="edge25" class="edge"><title>Node1&#45;&gt;Node19</title>
<path fill="none" stroke="midnightblue" d="M696.321,-324.206C706.932,-283.174 723.13,-200.042 702,-134 698.737,-123.801 692.576,-113.905 686.261,-105.615"/>
<polygon fill="midnightblue" stroke="midnightblue" points="688.77,-103.154 679.74,-97.6133 683.344,-107.576 688.77,-103.154"/>
</g>
<!-- Node21 -->
<g id="node21" class="node"><title>Node21</title>
<g id="a_node21"><a xlink:href="image__yuv_8h.html" target="_top" xlink:title="AR6/InstantOn/framework\l/image_yuv.h">
<polygon fill="white" stroke="black" points="562.5,-134.5 562.5,-164.5 693.5,-164.5 693.5,-134.5 562.5,-134.5"/>
<text text-anchor="start" x="570.5" y="-152.5" font-family="Helvetica,sans-Serif" font-size="10.00">AR6/InstantOn/framework</text>
<text text-anchor="middle" x="628" y="-141.5" font-family="Helvetica,sans-Serif" font-size="10.00">/image_yuv.h</text>
</a>
</g>
</g>
<!-- Node1&#45;&gt;Node21 -->
<g id="edge29" class="edge"><title>Node1&#45;&gt;Node21</title>
<path fill="none" stroke="midnightblue" d="M681.274,-324.297C669.435,-285.675 646.961,-212.355 635.351,-174.481"/>
<polygon fill="midnightblue" stroke="midnightblue" points="638.659,-173.332 632.382,-164.797 631.967,-175.383 638.659,-173.332"/>
</g>
<!-- Node3 -->
<g id="node3" class="node"><title>Node3</title>
<g id="a_node3"><a xlink:href="stream_8h.html" target="_top" xlink:title="stream.h">
<polygon fill="white" stroke="black" points="364.5,-201.5 364.5,-220.5 419.5,-220.5 419.5,-201.5 364.5,-201.5"/>
<text text-anchor="middle" x="392" y="-208.5" font-family="Helvetica,sans-Serif" font-size="10.00">stream.h</text>
</a>
</g>
</g>
<!-- Node2&#45;&gt;Node3 -->
<g id="edge2" class="edge"><title>Node2&#45;&gt;Node3</title>
<path fill="none" stroke="midnightblue" d="M500.348,-257.399C476.523,-247.416 444.854,-234.147 421.912,-224.534"/>
<polygon fill="midnightblue" stroke="midnightblue" points="423.238,-221.294 412.662,-220.658 420.533,-227.751 423.238,-221.294"/>
</g>
<!-- Node2&#45;&gt;Node14 -->
<g id="edge24" class="edge"><title>Node2&#45;&gt;Node14</title>
<path fill="none" stroke="midnightblue" d="M535.835,-257.431C539.109,-232.523 546.247,-179.043 553,-134 558.242,-99.0355 564.964,-58.3231 568.846,-35.1634"/>
<polygon fill="midnightblue" stroke="midnightblue" points="572.342,-35.4827 570.55,-25.0405 565.439,-34.3209 572.342,-35.4827"/>
</g>
<!-- Node18 -->
<g id="node18" class="node"><title>Node18</title>
<g id="a_node18"><a xlink:href="date__time_8h.html" target="_top" xlink:title="date_time.h">
<polygon fill="white" stroke="black" points="438,-201.5 438,-220.5 506,-220.5 506,-201.5 438,-201.5"/>
<text text-anchor="middle" x="472" y="-208.5" font-family="Helvetica,sans-Serif" font-size="10.00">date_time.h</text>
</a>
</g>
</g>
<!-- Node2&#45;&gt;Node18 -->
<g id="edge22" class="edge"><title>Node2&#45;&gt;Node18</title>
<path fill="none" stroke="midnightblue" d="M519.307,-257.399C510.019,-248.486 498.001,-236.952 488.402,-227.741"/>
<polygon fill="midnightblue" stroke="midnightblue" points="490.66,-225.057 481.022,-220.658 485.813,-230.107 490.66,-225.057"/>
</g>
<!-- Node4 -->
<g id="node4" class="node"><title>Node4</title>
<polygon fill="white" stroke="#bfbfbf" points="292,-0.5 292,-30.5 394,-30.5 394,-0.5 292,-0.5"/>
<text text-anchor="start" x="300" y="-18.5" font-family="Helvetica,sans-Serif" font-size="10.00">artvision/framework</text>
<text text-anchor="middle" x="343" y="-7.5" font-family="Helvetica,sans-Serif" font-size="10.00">/error.h</text>
</g>
<!-- Node3&#45;&gt;Node4 -->
<g id="edge3" class="edge"><title>Node3&#45;&gt;Node4</title>
<path fill="none" stroke="midnightblue" d="M389.706,-201.296C384.754,-182.473 372.724,-136.563 363,-98 358.12,-78.6472 352.736,-56.6685 348.784,-40.4161"/>
<polygon fill="midnightblue" stroke="midnightblue" points="352.173,-39.5407 346.414,-30.648 345.371,-41.1913 352.173,-39.5407"/>
</g>
<!-- Node5 -->
<g id="node5" class="node"><title>Node5</title>
<g id="a_node5"><a xlink:href="linear__algebra_8h.html" target="_top" xlink:title="AR6/InstantOn/math\l/linear_algebra.h">
<polygon fill="white" stroke="black" points="138.5,-134.5 138.5,-164.5 245.5,-164.5 245.5,-134.5 138.5,-134.5"/>
<text text-anchor="start" x="146.5" y="-152.5" font-family="Helvetica,sans-Serif" font-size="10.00">AR6/InstantOn/math</text>
<text text-anchor="middle" x="192" y="-141.5" font-family="Helvetica,sans-Serif" font-size="10.00">/linear_algebra.h</text>
</a>
</g>
</g>
<!-- Node3&#45;&gt;Node5 -->
<g id="edge4" class="edge"><title>Node3&#45;&gt;Node5</title>
<path fill="none" stroke="midnightblue" d="M364.191,-201.727C334.534,-192.904 286.738,-178.685 249.018,-167.463"/>
<polygon fill="midnightblue" stroke="midnightblue" points="249.751,-164.029 239.168,-164.532 247.754,-170.739 249.751,-164.029"/>
</g>
<!-- Node13 -->
<g id="node13" class="node"><title>Node13</title>
<g id="a_node13"><a xlink:href="indexing_8h.html" target="_top" xlink:title="indexing.h">
<polygon fill="white" stroke="black" points="403.5,-73 403.5,-92 464.5,-92 464.5,-73 403.5,-73"/>
<text text-anchor="middle" x="434" y="-80" font-family="Helvetica,sans-Serif" font-size="10.00">indexing.h</text>
</a>
</g>
</g>
<!-- Node3&#45;&gt;Node13 -->
<g id="edge19" class="edge"><title>Node3&#45;&gt;Node13</title>
<path fill="none" stroke="midnightblue" d="M394.887,-201.305C401.66,-180.904 418.694,-129.6 427.888,-101.908"/>
<polygon fill="midnightblue" stroke="midnightblue" points="431.264,-102.849 431.093,-92.2557 424.62,-100.643 431.264,-102.849"/>
</g>
<!-- Node3&#45;&gt;Node14 -->
<g id="edge21" class="edge"><title>Node3&#45;&gt;Node14</title>
<path fill="none" stroke="midnightblue" d="M398.781,-201.383C410.102,-187.097 433.714,-157.729 455,-134 482.704,-103.117 490.671,-96.3443 520,-67 531.653,-55.3413 544.994,-42.3926 555.246,-32.5261"/>
<polygon fill="midnightblue" stroke="midnightblue" points="557.923,-34.8076 562.714,-25.3577 553.076,-29.7577 557.923,-34.8076"/>
</g>
<!-- Node17 -->
<g id="node17" class="node"><title>Node17</title>
<polygon fill="white" stroke="#bfbfbf" points="464.5,-140 464.5,-159 505.5,-159 505.5,-140 464.5,-140"/>
<text text-anchor="middle" x="485" y="-147" font-family="Helvetica,sans-Serif" font-size="10.00">string</text>
</g>
<!-- Node3&#45;&gt;Node17 -->
<g id="edge20" class="edge"><title>Node3&#45;&gt;Node17</title>
<path fill="none" stroke="midnightblue" d="M405.325,-201.475C420.38,-191.843 445.116,-176.017 463.037,-164.552"/>
<polygon fill="midnightblue" stroke="midnightblue" points="465.163,-167.347 471.7,-159.009 461.39,-161.45 465.163,-167.347"/>
</g>
<!-- Node6 -->
<g id="node6" class="node"><title>Node6</title>
<g id="a_node6"><a xlink:href="math__utils_8h.html" target="_top" xlink:title="math_utils.h">
<polygon fill="white" stroke="black" points="236,-73 236,-92 306,-92 306,-73 236,-73"/>
<text text-anchor="middle" x="271" y="-80" font-family="Helvetica,sans-Serif" font-size="10.00">math_utils.h</text>
</a>
</g>
</g>
<!-- Node5&#45;&gt;Node6 -->
<g id="edge5" class="edge"><title>Node5&#45;&gt;Node6</title>
<path fill="none" stroke="midnightblue" d="M209.142,-134.396C221.947,-123.86 239.428,-109.477 252.54,-98.6886"/>
<polygon fill="midnightblue" stroke="midnightblue" points="254.934,-101.251 260.433,-92.1945 250.487,-95.8455 254.934,-101.251"/>
</g>
<!-- Node8 -->
<g id="node8" class="node"><title>Node8</title>
<g id="a_node8"><a xlink:href="_instant_on_2include_2_a_r6_2_instant_on_2math_2matrix_8h.html" target="_top" xlink:title="matrix.h">
<polygon fill="white" stroke="black" points="166,-73 166,-92 218,-92 218,-73 166,-73"/>
<text text-anchor="middle" x="192" y="-80" font-family="Helvetica,sans-Serif" font-size="10.00">matrix.h</text>
</a>
</g>
</g>
<!-- Node5&#45;&gt;Node8 -->
<g id="edge8" class="edge"><title>Node5&#45;&gt;Node8</title>
<path fill="none" stroke="midnightblue" d="M192,-134.396C192,-125.064 192,-112.714 192,-102.517"/>
<polygon fill="midnightblue" stroke="midnightblue" points="195.5,-102.195 192,-92.1945 188.5,-102.195 195.5,-102.195"/>
</g>
<!-- Node9 -->
<g id="node9" class="node"><title>Node9</title>
<g id="a_node9"><a xlink:href="vector_8h.html" target="_top" xlink:title="vector.h">
<polygon fill="white" stroke="black" points="98,-6 98,-25 150,-25 150,-6 98,-6"/>
<text text-anchor="middle" x="124" y="-13" font-family="Helvetica,sans-Serif" font-size="10.00">vector.h</text>
</a>
</g>
</g>
<!-- Node5&#45;&gt;Node9 -->
<g id="edge12" class="edge"><title>Node5&#45;&gt;Node9</title>
<path fill="none" stroke="midnightblue" d="M181.007,-134.458C173.622,-124.614 163.998,-110.951 157,-98 145.809,-77.2884 136.125,-51.954 130.194,-35.0828"/>
<polygon fill="midnightblue" stroke="midnightblue" points="133.413,-33.6777 126.86,-25.3519 126.79,-35.9465 133.413,-33.6777"/>
</g>
<!-- Node11 -->
<g id="node11" class="node"><title>Node11</title>
<polygon fill="white" stroke="#bfbfbf" points="0,-73 0,-92 52,-92 52,-73 0,-73"/>
<text text-anchor="middle" x="26" y="-80" font-family="Helvetica,sans-Serif" font-size="10.00">assert.h</text>
</g>
<!-- Node5&#45;&gt;Node11 -->
<g id="edge13" class="edge"><title>Node5&#45;&gt;Node11</title>
<path fill="none" stroke="midnightblue" d="M154.919,-134.486C128.635,-124.485 92.5723,-110.623 61,-98 59.3625,-97.3453 57.6841,-96.6687 55.9913,-95.9819"/>
<polygon fill="midnightblue" stroke="midnightblue" points="56.9037,-92.5734 46.3234,-92.0196 54.2491,-99.0505 56.9037,-92.5734"/>
</g>
<!-- Node12 -->
<g id="node12" class="node"><title>Node12</title>
<polygon fill="white" stroke="#bfbfbf" points="70,-73 70,-92 110,-92 110,-73 70,-73"/>
<text text-anchor="middle" x="90" y="-80" font-family="Helvetica,sans-Serif" font-size="10.00">limits</text>
</g>
<!-- Node5&#45;&gt;Node12 -->
<g id="edge14" class="edge"><title>Node5&#45;&gt;Node12</title>
<path fill="none" stroke="midnightblue" d="M169.868,-134.396C152.762,-123.496 129.197,-108.479 112.1,-97.5835"/>
<polygon fill="midnightblue" stroke="midnightblue" points="113.664,-94.4295 103.349,-92.007 109.902,-100.333 113.664,-94.4295"/>
</g>
<!-- Node5&#45;&gt;Node13 -->
<g id="edge15" class="edge"><title>Node5&#45;&gt;Node13</title>
<path fill="none" stroke="midnightblue" d="M244.212,-134.476C288.917,-122.469 352.379,-105.423 393.373,-94.4122"/>
<polygon fill="midnightblue" stroke="midnightblue" points="394.536,-97.724 403.286,-91.7497 392.72,-90.9636 394.536,-97.724"/>
</g>
<!-- Node6&#45;&gt;Node4 -->
<g id="edge7" class="edge"><title>Node6&#45;&gt;Node4</title>
<path fill="none" stroke="midnightblue" d="M280.71,-72.7338C290.721,-63.6959 306.697,-49.2739 319.962,-37.2982"/>
<polygon fill="midnightblue" stroke="midnightblue" points="322.316,-39.888 327.394,-30.589 317.626,-34.6921 322.316,-39.888"/>
</g>
<!-- Node7 -->
<g id="node7" class="node"><title>Node7</title>
<polygon fill="white" stroke="#bfbfbf" points="230,-6 230,-25 274,-25 274,-6 230,-6"/>
<text text-anchor="middle" x="252" y="-13" font-family="Helvetica,sans-Serif" font-size="10.00">cmath</text>
</g>
<!-- Node6&#45;&gt;Node7 -->
<g id="edge6" class="edge"><title>Node6&#45;&gt;Node7</title>
<path fill="none" stroke="midnightblue" d="M268.438,-72.7338C265.617,-63.0852 261.003,-47.3001 257.38,-34.9063"/>
<polygon fill="midnightblue" stroke="midnightblue" points="260.687,-33.7436 254.522,-25.1273 253.968,-35.7077 260.687,-33.7436"/>
</g>
<!-- Node8&#45;&gt;Node4 -->
<g id="edge9" class="edge"><title>Node8&#45;&gt;Node4</title>
<path fill="none" stroke="midnightblue" d="M212.052,-72.8685C234.612,-63.1572 271.892,-47.1092 300.918,-34.6148"/>
<polygon fill="midnightblue" stroke="midnightblue" points="302.61,-37.6968 310.412,-30.5281 299.843,-31.2672 302.61,-37.6968"/>
</g>
<!-- Node8&#45;&gt;Node9 -->
<g id="edge10" class="edge"><title>Node8&#45;&gt;Node9</title>
<path fill="none" stroke="midnightblue" d="M182.829,-72.7338C172.022,-62.403 153.854,-45.0371 140.562,-32.3315"/>
<polygon fill="midnightblue" stroke="midnightblue" points="142.673,-29.5071 133.025,-25.1273 137.836,-34.5672 142.673,-29.5071"/>
</g>
<!-- Node10 -->
<g id="node10" class="node"><title>Node10</title>
<polygon fill="white" stroke="#bfbfbf" points="168,-6 168,-25 212,-25 212,-6 168,-6"/>
<text text-anchor="middle" x="190" y="-13" font-family="Helvetica,sans-Serif" font-size="10.00">vector</text>
</g>
<!-- Node8&#45;&gt;Node10 -->
<g id="edge11" class="edge"><title>Node8&#45;&gt;Node10</title>
<path fill="none" stroke="midnightblue" d="M191.73,-72.7338C191.436,-63.1826 190.957,-47.6183 190.578,-35.2829"/>
<polygon fill="midnightblue" stroke="midnightblue" points="194.071,-35.0149 190.265,-25.1273 187.075,-35.2302 194.071,-35.0149"/>
</g>
<!-- Node13&#45;&gt;Node14 -->
<g id="edge16" class="edge"><title>Node13&#45;&gt;Node14</title>
<path fill="none" stroke="midnightblue" d="M452.325,-72.8685C475.936,-61.7476 517.189,-42.3167 544.552,-29.4286"/>
<polygon fill="midnightblue" stroke="midnightblue" points="546.044,-32.5947 553.599,-25.1672 543.061,-26.262 546.044,-32.5947"/>
</g>
<!-- Node15 -->
<g id="node15" class="node"><title>Node15</title>
<polygon fill="white" stroke="#bfbfbf" points="411.5,-6 411.5,-25 460.5,-25 460.5,-6 411.5,-6"/>
<text text-anchor="middle" x="436" y="-13" font-family="Helvetica,sans-Serif" font-size="10.00">cstddef</text>
</g>
<!-- Node13&#45;&gt;Node15 -->
<g id="edge17" class="edge"><title>Node13&#45;&gt;Node15</title>
<path fill="none" stroke="midnightblue" d="M434.27,-72.7338C434.564,-63.1826 435.043,-47.6183 435.422,-35.2829"/>
<polygon fill="midnightblue" stroke="midnightblue" points="438.925,-35.2302 435.735,-25.1273 431.929,-35.0149 438.925,-35.2302"/>
</g>
<!-- Node16 -->
<g id="node16" class="node"><title>Node16</title>
<polygon fill="white" stroke="#bfbfbf" points="478.5,-6 478.5,-25 527.5,-25 527.5,-6 478.5,-6"/>
<text text-anchor="middle" x="503" y="-13" font-family="Helvetica,sans-Serif" font-size="10.00">string.h</text>
</g>
<!-- Node13&#45;&gt;Node16 -->
<g id="edge18" class="edge"><title>Node13&#45;&gt;Node16</title>
<path fill="none" stroke="midnightblue" d="M443.306,-72.7338C454.272,-62.403 472.707,-45.0371 486.194,-32.3315"/>
<polygon fill="midnightblue" stroke="midnightblue" points="488.963,-34.5319 493.842,-25.1273 484.163,-29.4366 488.963,-34.5319"/>
</g>
<!-- Node18&#45;&gt;Node17 -->
<g id="edge23" class="edge"><title>Node18&#45;&gt;Node17</title>
<path fill="none" stroke="midnightblue" d="M473.863,-201.475C475.716,-192.992 478.619,-179.704 480.997,-168.822"/>
<polygon fill="midnightblue" stroke="midnightblue" points="484.426,-169.526 483.141,-159.009 477.587,-168.032 484.426,-169.526"/>
</g>
<!-- Node19&#45;&gt;Node4 -->
<g id="edge27" class="edge"><title>Node19&#45;&gt;Node4</title>
<path fill="none" stroke="midnightblue" d="M600.441,-69.9378C549.309,-60.6959 476.278,-47.0068 404.279,-31.4458"/>
<polygon fill="midnightblue" stroke="midnightblue" points="404.644,-27.9435 394.129,-29.238 403.156,-34.7836 404.644,-27.9435"/>
</g>
<!-- Node19&#45;&gt;Node14 -->
<g id="edge28" class="edge"><title>Node19&#45;&gt;Node14</title>
<path fill="none" stroke="midnightblue" d="M645.603,-67.396C629.986,-56.5966 608.525,-41.7564 592.806,-30.8872"/>
<polygon fill="midnightblue" stroke="midnightblue" points="594.518,-27.8158 584.302,-25.007 590.537,-33.5734 594.518,-27.8158"/>
</g>
<!-- Node20 -->
<g id="node20" class="node"><title>Node20</title>
<polygon fill="white" stroke="#bfbfbf" points="662,-0.5 662,-30.5 764,-30.5 764,-0.5 662,-0.5"/>
<text text-anchor="start" x="670" y="-18.5" font-family="Helvetica,sans-Serif" font-size="10.00">artvision/framework</text>
<text text-anchor="middle" x="713" y="-7.5" font-family="Helvetica,sans-Serif" font-size="10.00">/exception.h</text>
</g>
<!-- Node19&#45;&gt;Node20 -->
<g id="edge26" class="edge"><title>Node19&#45;&gt;Node20</title>
<path fill="none" stroke="midnightblue" d="M676.198,-67.396C682.234,-59.0486 690.015,-48.2871 696.867,-38.8113"/>
<polygon fill="midnightblue" stroke="midnightblue" points="699.798,-40.7309 702.822,-30.5765 694.126,-36.6292 699.798,-40.7309"/>
</g>
<!-- Node21&#45;&gt;Node4 -->
<g id="edge31" class="edge"><title>Node21&#45;&gt;Node4</title>
<path fill="none" stroke="midnightblue" d="M562.345,-140.136C502.924,-131.539 420.744,-116.776 394,-98 373.735,-83.7733 359.832,-58.6692 351.721,-40.0703"/>
<polygon fill="midnightblue" stroke="midnightblue" points="354.941,-38.6963 347.906,-30.7736 348.465,-41.3537 354.941,-38.6963"/>
</g>
<!-- Node21&#45;&gt;Node14 -->
<g id="edge32" class="edge"><title>Node21&#45;&gt;Node14</title>
<path fill="none" stroke="midnightblue" d="M615.3,-134.468C607.228,-124.845 597.171,-111.432 591,-98 581.735,-77.834 576.762,-52.7171 574.258,-35.7371"/>
<polygon fill="midnightblue" stroke="midnightblue" points="577.677,-34.8973 572.896,-25.4426 570.737,-35.8153 577.677,-34.8973"/>
</g>
<!-- Node21&#45;&gt;Node19 -->
<g id="edge33" class="edge"><title>Node21&#45;&gt;Node19</title>
<path fill="none" stroke="midnightblue" d="M636.245,-134.396C641.026,-126.219 647.161,-115.725 652.616,-106.393"/>
<polygon fill="midnightblue" stroke="midnightblue" points="655.745,-107.976 657.771,-97.5765 649.702,-104.443 655.745,-107.976"/>
</g>
<!-- Node21&#45;&gt;Node20 -->
<g id="edge30" class="edge"><title>Node21&#45;&gt;Node20</title>
<path fill="none" stroke="midnightblue" d="M690.659,-134.484C709.78,-126.955 728.715,-115.468 740,-98 751.71,-79.8754 741.542,-56.1873 730.495,-39.0239"/>
<polygon fill="midnightblue" stroke="midnightblue" points="733.313,-36.9453 724.749,-30.7072 727.554,-40.9242 733.313,-36.9453"/>
</g>
</g>
</svg>
