<?xml version="1.0" encoding="UTF-8" standalone="no"?>
<!DOCTYPE svg PUBLIC "-//W3C//DTD SVG 1.1//EN"
 "http://www.w3.org/Graphics/SVG/1.1/DTD/svg11.dtd">
<!-- Generated by graphviz version 2.38.0 (20140413.2041)
 -->
<!-- Title: Graphical Class Hierarchy Pages: 1 -->
<svg width="307pt" height="50pt"
 viewBox="0.00 0.00 307.00 50.00" xmlns="http://www.w3.org/2000/svg" xmlns:xlink="http://www.w3.org/1999/xlink">
<g id="graph0" class="graph" transform="scale(1 1) rotate(0) translate(4 46)">
<title>Graphical Class Hierarchy</title>
<polygon fill="white" stroke="none" points="-4,4 -4,-46 303,-46 303,4 -4,4"/>
<!-- Node1 -->
<g id="node1" class="node"><title>Node1</title>
<g id="a_node1"><a xlink:href="classartvision__instanton_1_1_i_queue.html" target="_top" xlink:title="artvision_instanton\l::IQueue\&lt; attitude_data \&gt;">
<polygon fill="white" stroke="black" points="0,-6 0,-36 128,-36 128,-6 0,-6"/>
<text text-anchor="start" x="8" y="-24" font-family="Helvetica,sans-Serif" font-size="10.00">artvision_instanton</text>
<text text-anchor="middle" x="64" y="-13" font-family="Helvetica,sans-Serif" font-size="10.00">::IQueue&lt; attitude_data &gt;</text>
</a>
</g>
</g>
<!-- Node2 -->
<g id="node2" class="node"><title>Node2</title>
<g id="a_node2"><a xlink:href="classartvision__instanton_1_1_fixed_size_lock_free_queue.html" target="_top" xlink:title="artvision_instanton\l::FixedSizeLockFreeQueue\l\&lt; attitude_data \&gt;">
<polygon fill="white" stroke="black" points="164,-0.5 164,-41.5 299,-41.5 299,-0.5 164,-0.5"/>
<text text-anchor="start" x="172" y="-29.5" font-family="Helvetica,sans-Serif" font-size="10.00">artvision_instanton</text>
<text text-anchor="start" x="172" y="-18.5" font-family="Helvetica,sans-Serif" font-size="10.00">::FixedSizeLockFreeQueue</text>
<text text-anchor="middle" x="231.5" y="-7.5" font-family="Helvetica,sans-Serif" font-size="10.00">&lt; attitude_data &gt;</text>
</a>
</g>
</g>
<!-- Node1&#45;&gt;Node2 -->
<g id="edge1" class="edge"><title>Node1&#45;&gt;Node2</title>
<path fill="none" stroke="midnightblue" d="M138.296,-21C146.777,-21 155.393,-21 163.781,-21"/>
<polygon fill="midnightblue" stroke="midnightblue" points="138.041,-17.5001 128.041,-21 138.041,-24.5001 138.041,-17.5001"/>
</g>
</g>
</svg>
