<?xml version="1.0" encoding="UTF-8" standalone="no"?>
<!DOCTYPE svg PUBLIC "-//W3C//DTD SVG 1.1//EN"
 "http://www.w3.org/Graphics/SVG/1.1/DTD/svg11.dtd">
<!-- Generated by graphviz version 2.38.0 (20140413.2041)
 -->
<!-- Title: Graphical Class Hierarchy Pages: 1 -->
<svg width="481pt" height="125pt"
 viewBox="0.00 0.00 481.00 125.00" xmlns="http://www.w3.org/2000/svg" xmlns:xlink="http://www.w3.org/1999/xlink">
<g id="graph0" class="graph" transform="scale(1 1) rotate(0) translate(4 121)">
<title>Graphical Class Hierarchy</title>
<polygon fill="white" stroke="none" points="-4,4 -4,-121 477,-121 477,4 -4,4"/>
<!-- Node1 -->
<g id="node1" class="node"><title>Node1</title>
<polygon fill="white" stroke="#bfbfbf" points="123.5,-86.5 123.5,-116.5 269.5,-116.5 269.5,-86.5 123.5,-86.5"/>
<text text-anchor="start" x="131.5" y="-104.5" font-family="Helvetica,sans-Serif" font-size="10.00">&lt;AVCaptureVideoDataOutput</text>
<text text-anchor="middle" x="196.5" y="-93.5" font-family="Helvetica,sans-Serif" font-size="10.00">SampleBufferDelegate&gt;</text>
</g>
<!-- Node2 -->
<g id="node2" class="node"><title>Node2</title>
<g id="a_node2"><a xlink:href="interface_camera_video.html" target="_top" xlink:title="CameraVideo">
<polygon fill="white" stroke="black" points="359.5,-89 359.5,-108 435.5,-108 435.5,-89 359.5,-89"/>
<text text-anchor="middle" x="397.5" y="-96" font-family="Helvetica,sans-Serif" font-size="10.00">CameraVideo</text>
</a>
</g>
</g>
<!-- Node1&#45;&gt;Node2 -->
<g id="edge1" class="edge"><title>Node1&#45;&gt;Node2</title>
<path fill="none" stroke="midnightblue" d="M279.742,-100.26C307.474,-99.8421 337.052,-99.3962 359.499,-99.0578"/>
<polygon fill="midnightblue" stroke="midnightblue" points="279.571,-96.7623 269.625,-100.413 279.677,-103.761 279.571,-96.7623"/>
</g>
<!-- Node3 -->
<g id="node3" class="node"><title>Node3</title>
<polygon fill="white" stroke="#bfbfbf" points="167,-48 167,-67 226,-67 226,-48 167,-48"/>
<text text-anchor="middle" x="196.5" y="-55" font-family="Helvetica,sans-Serif" font-size="10.00">NSObject</text>
</g>
<!-- Node3&#45;&gt;Node2 -->
<g id="edge2" class="edge"><title>Node3&#45;&gt;Node2</title>
<path fill="none" stroke="midnightblue" d="M236.015,-65.4353C271.577,-72.7621 324.056,-83.5744 359.219,-90.819"/>
<polygon fill="midnightblue" stroke="midnightblue" points="236.512,-61.9643 226.012,-63.3743 235.1,-68.8203 236.512,-61.9643"/>
</g>
<!-- Node4 -->
<g id="node4" class="node"><title>Node4</title>
<g id="a_node4"><a xlink:href="interface_movie_video.html" target="_top" xlink:title="MovieVideo">
<polygon fill="white" stroke="black" points="363.5,-50 363.5,-69 431.5,-69 431.5,-50 363.5,-50"/>
<text text-anchor="middle" x="397.5" y="-57" font-family="Helvetica,sans-Serif" font-size="10.00">MovieVideo</text>
</a>
</g>
</g>
<!-- Node3&#45;&gt;Node4 -->
<g id="edge3" class="edge"><title>Node3&#45;&gt;Node4</title>
<path fill="none" stroke="midnightblue" d="M236.404,-57.891C273.401,-58.2628 328.451,-58.8161 363.398,-59.1673"/>
<polygon fill="midnightblue" stroke="midnightblue" points="236.047,-54.3873 226.012,-57.7866 235.976,-61.387 236.047,-54.3873"/>
</g>
<!-- Node5 -->
<g id="node5" class="node"><title>Node5</title>
<g id="a_node5"><a xlink:href="interfacevideoi_phone_camera_video_took_picture_delegate.html" target="_top" xlink:title="videoiPhoneCameraVideoTook\lPictureDelegate">
<polygon fill="white" stroke="black" points="322,-0.5 322,-30.5 473,-30.5 473,-0.5 322,-0.5"/>
<text text-anchor="start" x="330" y="-18.5" font-family="Helvetica,sans-Serif" font-size="10.00">videoiPhoneCameraVideoTook</text>
<text text-anchor="middle" x="397.5" y="-7.5" font-family="Helvetica,sans-Serif" font-size="10.00">PictureDelegate</text>
</a>
</g>
</g>
<!-- Node3&#45;&gt;Node5 -->
<g id="edge4" class="edge"><title>Node3&#45;&gt;Node5</title>
<path fill="none" stroke="midnightblue" d="M235.934,-49.3883C261.197,-44.0564 295.023,-36.9172 325.113,-30.5666"/>
<polygon fill="midnightblue" stroke="midnightblue" points="235.074,-45.9927 226.012,-51.4824 236.519,-52.8418 235.074,-45.9927"/>
</g>
<!-- Node6 -->
<g id="node6" class="node"><title>Node6</title>
<polygon fill="white" stroke="#bfbfbf" points="0,-6 0,-25 71,-25 71,-6 0,-6"/>
<text text-anchor="middle" x="35.5" y="-13" font-family="Helvetica,sans-Serif" font-size="10.00">&lt;NSObject&gt;</text>
</g>
<!-- Node7 -->
<g id="node7" class="node"><title>Node7</title>
<g id="a_node7"><a xlink:href="protocol_camera_video_took_picture_delegate-p.html" target="_top" xlink:title="\&lt;CameraVideoTookPictureDelegate\&gt;">
<polygon fill="white" stroke="black" points="107,-6 107,-25 286,-25 286,-6 107,-6"/>
<text text-anchor="middle" x="196.5" y="-13" font-family="Helvetica,sans-Serif" font-size="10.00">&lt;CameraVideoTookPictureDelegate&gt;</text>
</a>
</g>
</g>
<!-- Node6&#45;&gt;Node7 -->
<g id="edge5" class="edge"><title>Node6&#45;&gt;Node7</title>
<path fill="none" stroke="midnightblue" d="M81.2724,-15.5C89.3773,-15.5 98.0815,-15.5 106.938,-15.5"/>
<polygon fill="midnightblue" stroke="midnightblue" points="81.0007,-12.0001 71.0006,-15.5 81.0006,-19.0001 81.0007,-12.0001"/>
</g>
<!-- Node7&#45;&gt;Node5 -->
<g id="edge6" class="edge"><title>Node7&#45;&gt;Node5</title>
<path fill="none" stroke="midnightblue" d="M296.324,-15.5C304.936,-15.5 313.554,-15.5 321.922,-15.5"/>
<polygon fill="midnightblue" stroke="midnightblue" points="296.233,-12.0001 286.233,-15.5 296.233,-19.0001 296.233,-12.0001"/>
</g>
</g>
</svg>
