<?xml version="1.0" encoding="UTF-8" standalone="no"?>
<!DOCTYPE svg PUBLIC "-//W3C//DTD SVG 1.1//EN"
 "http://www.w3.org/Graphics/SVG/1.1/DTD/svg11.dtd">
<!-- Generated by graphviz version 2.38.0 (20140413.2041)
 -->
<!-- Title: CameraVideo Pages: 1 -->
<svg width="232pt" height="95pt"
 viewBox="0.00 0.00 231.50 95.00" xmlns="http://www.w3.org/2000/svg" xmlns:xlink="http://www.w3.org/1999/xlink">
<g id="graph0" class="graph" transform="scale(1 1) rotate(0) translate(4 91)">
<title>CameraVideo</title>
<polygon fill="white" stroke="none" points="-4,4 -4,-91 227.5,-91 227.5,4 -4,4"/>
<!-- Node1 -->
<g id="node1" class="node"><title>Node1</title>
<polygon fill="#bfbfbf" stroke="black" points="51.5,-0.5 51.5,-19.5 127.5,-19.5 127.5,-0.5 51.5,-0.5"/>
<text text-anchor="middle" x="89.5" y="-7.5" font-family="Helvetica,sans-Serif" font-size="10.00">CameraVideo</text>
</g>
<!-- Node2 -->
<g id="node2" class="node"><title>Node2</title>
<polygon fill="white" stroke="#bfbfbf" points="0,-62 0,-81 59,-81 59,-62 0,-62"/>
<text text-anchor="middle" x="29.5" y="-69" font-family="Helvetica,sans-Serif" font-size="10.00">NSObject</text>
</g>
<!-- Node2&#45;&gt;Node1 -->
<g id="edge1" class="edge"><title>Node2&#45;&gt;Node1</title>
<path fill="none" stroke="midnightblue" d="M45.3072,-54.8245C56.7065,-43.5202 71.6586,-28.6928 80.9194,-19.5091"/>
<polygon fill="midnightblue" stroke="midnightblue" points="42.7327,-52.4484 38.0965,-61.9751 47.6617,-57.4189 42.7327,-52.4484"/>
</g>
<!-- Node3 -->
<g id="node3" class="node"><title>Node3</title>
<polygon fill="white" stroke="#bfbfbf" points="77.5,-56.5 77.5,-86.5 223.5,-86.5 223.5,-56.5 77.5,-56.5"/>
<text text-anchor="start" x="85.5" y="-74.5" font-family="Helvetica,sans-Serif" font-size="10.00">&lt;AVCaptureVideoDataOutput</text>
<text text-anchor="middle" x="150.5" y="-63.5" font-family="Helvetica,sans-Serif" font-size="10.00">SampleBufferDelegate&gt;</text>
</g>
<!-- Node3&#45;&gt;Node1 -->
<g id="edge2" class="edge"><title>Node3&#45;&gt;Node1</title>
<path fill="none" stroke="midnightblue" d="M128.766,-49.3002C118.296,-39.0881 106.321,-27.4072 98.376,-19.6578"/>
<polygon fill="midnightblue" stroke="midnightblue" points="126.441,-51.9223 136.044,-56.3993 131.329,-46.9113 126.441,-51.9223"/>
</g>
</g>
</svg>
