<?xml version="1.0" encoding="UTF-8" standalone="no"?>
<!DOCTYPE svg PUBLIC "-//W3C//DTD SVG 1.1//EN"
 "http://www.w3.org/Graphics/SVG/1.1/DTD/svg11.dtd">
<!-- Generated by graphviz version 2.38.0 (20140413.2041)
 -->
<!-- Title: /bitrise/src/Source/AR6/ARUtil/include/AR6/ARUtil/ioapi.h Pages: 1 -->
<svg width="428pt" height="195pt"
 viewBox="0.00 0.00 427.50 195.00" xmlns="http://www.w3.org/2000/svg" xmlns:xlink="http://www.w3.org/1999/xlink">
<g id="graph0" class="graph" transform="scale(1 1) rotate(0) translate(4 191)">
<title>/bitrise/src/Source/AR6/ARUtil/include/AR6/ARUtil/ioapi.h</title>
<polygon fill="white" stroke="none" points="-4,4 -4,-191 423.5,-191 423.5,4 -4,4"/>
<!-- Node1 -->
<g id="node1" class="node"><title>Node1</title>
<polygon fill="#bfbfbf" stroke="black" points="193.5,-145.5 193.5,-186.5 298.5,-186.5 298.5,-145.5 193.5,-145.5"/>
<text text-anchor="start" x="201.5" y="-174.5" font-family="Helvetica,sans-Serif" font-size="10.00">/bitrise/src/Source</text>
<text text-anchor="start" x="201.5" y="-163.5" font-family="Helvetica,sans-Serif" font-size="10.00">/AR6/ARUtil/include</text>
<text text-anchor="middle" x="246" y="-152.5" font-family="Helvetica,sans-Serif" font-size="10.00">/AR6/ARUtil/ioapi.h</text>
</g>
<!-- Node2 -->
<g id="node2" class="node"><title>Node2</title>
<g id="a_node2"><a xlink:href="unzip_8h.html" target="_top" xlink:title="/bitrise/src/Source\l/AR6/ARUtil/include\l/AR6/ARUtil/unzip.h">
<polygon fill="white" stroke="black" points="69,-67.5 69,-108.5 175,-108.5 175,-67.5 69,-67.5"/>
<text text-anchor="start" x="77" y="-96.5" font-family="Helvetica,sans-Serif" font-size="10.00">/bitrise/src/Source</text>
<text text-anchor="start" x="77" y="-85.5" font-family="Helvetica,sans-Serif" font-size="10.00">/AR6/ARUtil/include</text>
<text text-anchor="middle" x="122" y="-74.5" font-family="Helvetica,sans-Serif" font-size="10.00">/AR6/ARUtil/unzip.h</text>
</a>
</g>
</g>
<!-- Node1&#45;&gt;Node2 -->
<g id="edge1" class="edge"><title>Node1&#45;&gt;Node2</title>
<path fill="none" stroke="midnightblue" d="M205.079,-139.919C188.409,-129.702 169.43,-118.07 153.825,-108.506"/>
<polygon fill="midnightblue" stroke="midnightblue" points="203.712,-143.187 214.067,-145.428 207.37,-137.218 203.712,-143.187"/>
</g>
<!-- Node5 -->
<g id="node5" class="node"><title>Node5</title>
<g id="a_node5"><a xlink:href="zip_8h.html" target="_top" xlink:title="/bitrise/src/Source\l/AR6/ARUtil/include\l/AR6/ARUtil/zip.h">
<polygon fill="white" stroke="black" points="193.5,-67.5 193.5,-108.5 298.5,-108.5 298.5,-67.5 193.5,-67.5"/>
<text text-anchor="start" x="201.5" y="-96.5" font-family="Helvetica,sans-Serif" font-size="10.00">/bitrise/src/Source</text>
<text text-anchor="start" x="201.5" y="-85.5" font-family="Helvetica,sans-Serif" font-size="10.00">/AR6/ARUtil/include</text>
<text text-anchor="middle" x="246" y="-74.5" font-family="Helvetica,sans-Serif" font-size="10.00">/AR6/ARUtil/zip.h</text>
</a>
</g>
</g>
<!-- Node1&#45;&gt;Node5 -->
<g id="edge4" class="edge"><title>Node1&#45;&gt;Node5</title>
<path fill="none" stroke="midnightblue" d="M246,-135.297C246,-126.301 246,-116.653 246,-108.506"/>
<polygon fill="midnightblue" stroke="midnightblue" points="242.5,-135.428 246,-145.428 249.5,-135.428 242.5,-135.428"/>
</g>
<!-- Node7 -->
<g id="node7" class="node"><title>Node7</title>
<g id="a_node7"><a xlink:href="ioapi_8c.html" target="_top" xlink:title="/bitrise/src/Source\l/AR6/ARUtil/ioapi.c">
<polygon fill="white" stroke="black" points="316.5,-73 316.5,-103 419.5,-103 419.5,-73 316.5,-73"/>
<text text-anchor="start" x="324.5" y="-91" font-family="Helvetica,sans-Serif" font-size="10.00">/bitrise/src/Source</text>
<text text-anchor="middle" x="368" y="-80" font-family="Helvetica,sans-Serif" font-size="10.00">/AR6/ARUtil/ioapi.c</text>
</a>
</g>
</g>
<!-- Node1&#45;&gt;Node7 -->
<g id="edge7" class="edge"><title>Node1&#45;&gt;Node7</title>
<path fill="none" stroke="midnightblue" d="M286.155,-139.985C305.745,-127.782 328.595,-113.548 345.165,-103.225"/>
<polygon fill="midnightblue" stroke="midnightblue" points="284.055,-137.17 277.418,-145.428 287.756,-143.111 284.055,-137.17"/>
</g>
<!-- Node3 -->
<g id="node3" class="node"><title>Node3</title>
<g id="a_node3"><a xlink:href="file__utils_8c.html" target="_top" xlink:title="/bitrise/src/Source\l/AR6/ARUtil/file_utils.c">
<polygon fill="white" stroke="black" points="124.5,-0.5 124.5,-30.5 243.5,-30.5 243.5,-0.5 124.5,-0.5"/>
<text text-anchor="start" x="132.5" y="-18.5" font-family="Helvetica,sans-Serif" font-size="10.00">/bitrise/src/Source</text>
<text text-anchor="middle" x="184" y="-7.5" font-family="Helvetica,sans-Serif" font-size="10.00">/AR6/ARUtil/file_utils.c</text>
</a>
</g>
</g>
<!-- Node2&#45;&gt;Node3 -->
<g id="edge2" class="edge"><title>Node2&#45;&gt;Node3</title>
<path fill="none" stroke="midnightblue" d="M145.985,-59.7268C154.631,-49.8949 164.046,-39.1892 171.344,-30.8916"/>
<polygon fill="midnightblue" stroke="midnightblue" points="143.246,-57.5412 139.27,-67.3618 148.503,-62.1639 143.246,-57.5412"/>
</g>
<!-- Node4 -->
<g id="node4" class="node"><title>Node4</title>
<g id="a_node4"><a xlink:href="unzip_8c.html" target="_top" xlink:title="/bitrise/src/Source\l/AR6/ARUtil/unzip.c">
<polygon fill="white" stroke="black" points="0,-0.5 0,-30.5 106,-30.5 106,-0.5 0,-0.5"/>
<text text-anchor="start" x="8" y="-18.5" font-family="Helvetica,sans-Serif" font-size="10.00">/bitrise/src/Source</text>
<text text-anchor="middle" x="53" y="-7.5" font-family="Helvetica,sans-Serif" font-size="10.00">/AR6/ARUtil/unzip.c</text>
</a>
</g>
</g>
<!-- Node2&#45;&gt;Node4 -->
<g id="edge3" class="edge"><title>Node2&#45;&gt;Node4</title>
<path fill="none" stroke="midnightblue" d="M95.5927,-60.0186C85.8921,-50.1071 75.2868,-39.2713 67.0854,-30.8916"/>
<polygon fill="midnightblue" stroke="midnightblue" points="93.2836,-62.6632 102.78,-67.3618 98.2863,-57.767 93.2836,-62.6632"/>
</g>
<!-- Node5&#45;&gt;Node3 -->
<g id="edge5" class="edge"><title>Node5&#45;&gt;Node3</title>
<path fill="none" stroke="midnightblue" d="M222.015,-59.7268C213.369,-49.8949 203.954,-39.1892 196.656,-30.8916"/>
<polygon fill="midnightblue" stroke="midnightblue" points="219.497,-62.1639 228.73,-67.3618 224.754,-57.5412 219.497,-62.1639"/>
</g>
<!-- Node6 -->
<g id="node6" class="node"><title>Node6</title>
<g id="a_node6"><a xlink:href="zip_8c.html" target="_top" xlink:title="/bitrise/src/Source\l/AR6/ARUtil/zip.c">
<polygon fill="white" stroke="black" points="262,-0.5 262,-30.5 358,-30.5 358,-0.5 262,-0.5"/>
<text text-anchor="start" x="270" y="-18.5" font-family="Helvetica,sans-Serif" font-size="10.00">/bitrise/src/Source</text>
<text text-anchor="middle" x="310" y="-7.5" font-family="Helvetica,sans-Serif" font-size="10.00">/AR6/ARUtil/zip.c</text>
</a>
</g>
</g>
<!-- Node5&#45;&gt;Node6 -->
<g id="edge6" class="edge"><title>Node5&#45;&gt;Node6</title>
<path fill="none" stroke="midnightblue" d="M270.759,-59.7268C279.684,-49.8949 289.403,-39.1892 296.935,-30.8916"/>
<polygon fill="midnightblue" stroke="midnightblue" points="267.958,-57.6051 263.828,-67.3618 273.141,-62.3102 267.958,-57.6051"/>
</g>
</g>
</svg>
