<?xml version="1.0" encoding="UTF-8" standalone="no"?>
<!DOCTYPE svg PUBLIC "-//W3C//DTD SVG 1.1//EN"
 "http://www.w3.org/Graphics/SVG/1.1/DTD/svg11.dtd">
<!-- Generated by graphviz version 2.38.0 (20140413.2041)
 -->
<!-- Title: /bitrise/src/Source/AR6/InstantOn/include/AR6/InstantOn/framework/listener_base.h Pages: 1 -->
<svg width="832pt" height="339pt"
 viewBox="0.00 0.00 831.50 339.00" xmlns="http://www.w3.org/2000/svg" xmlns:xlink="http://www.w3.org/1999/xlink">
<g id="graph0" class="graph" transform="scale(1 1) rotate(0) translate(4 335)">
<title>/bitrise/src/Source/AR6/InstantOn/include/AR6/InstantOn/framework/listener_base.h</title>
<polygon fill="white" stroke="none" points="-4,4 -4,-335 827.5,-335 827.5,4 -4,4"/>
<!-- Node1 -->
<g id="node1" class="node"><title>Node1</title>
<polygon fill="#bfbfbf" stroke="black" points="306,-278.5 306,-330.5 440,-330.5 440,-278.5 306,-278.5"/>
<text text-anchor="start" x="314" y="-318.5" font-family="Helvetica,sans-Serif" font-size="10.00">/bitrise/src/Source</text>
<text text-anchor="start" x="314" y="-307.5" font-family="Helvetica,sans-Serif" font-size="10.00">/AR6/InstantOn/include</text>
<text text-anchor="start" x="314" y="-296.5" font-family="Helvetica,sans-Serif" font-size="10.00">/AR6/InstantOn/framework</text>
<text text-anchor="middle" x="373" y="-285.5" font-family="Helvetica,sans-Serif" font-size="10.00">/listener_base.h</text>
</g>
<!-- Node2 -->
<g id="node2" class="node"><title>Node2</title>
<g id="a_node2"><a xlink:href="listener__base_8cpp.html" target="_top" xlink:title="/bitrise/src/Source\l/AR6/InstantOn/framework\l/listener_base.cpp">
<polygon fill="white" stroke="black" points="153,-195 153,-236 287,-236 287,-195 153,-195"/>
<text text-anchor="start" x="161" y="-224" font-family="Helvetica,sans-Serif" font-size="10.00">/bitrise/src/Source</text>
<text text-anchor="start" x="161" y="-213" font-family="Helvetica,sans-Serif" font-size="10.00">/AR6/InstantOn/framework</text>
<text text-anchor="middle" x="220" y="-202" font-family="Helvetica,sans-Serif" font-size="10.00">/listener_base.cpp</text>
</a>
</g>
</g>
<!-- Node1&#45;&gt;Node2 -->
<g id="edge1" class="edge"><title>Node1&#45;&gt;Node2</title>
<path fill="none" stroke="midnightblue" d="M319.953,-273.336C298.245,-260.992 273.747,-247.062 254.437,-236.082"/>
<polygon fill="midnightblue" stroke="midnightblue" points="318.323,-276.435 328.746,-278.336 321.783,-270.35 318.323,-276.435"/>
</g>
<!-- Node3 -->
<g id="node3" class="node"><title>Node3</title>
<g id="a_node3"><a xlink:href="attitude__listener__base_8h.html" target="_top" xlink:title="/bitrise/src/Source\l/AR6/InstantOn/include\l/AR6/InstantOn/extensions\l/attitude_listener_base.h">
<polygon fill="white" stroke="black" points="305.5,-189.5 305.5,-241.5 440.5,-241.5 440.5,-189.5 305.5,-189.5"/>
<text text-anchor="start" x="313.5" y="-229.5" font-family="Helvetica,sans-Serif" font-size="10.00">/bitrise/src/Source</text>
<text text-anchor="start" x="313.5" y="-218.5" font-family="Helvetica,sans-Serif" font-size="10.00">/AR6/InstantOn/include</text>
<text text-anchor="start" x="313.5" y="-207.5" font-family="Helvetica,sans-Serif" font-size="10.00">/AR6/InstantOn/extensions</text>
<text text-anchor="middle" x="373" y="-196.5" font-family="Helvetica,sans-Serif" font-size="10.00">/attitude_listener_base.h</text>
</a>
</g>
</g>
<!-- Node1&#45;&gt;Node3 -->
<g id="edge2" class="edge"><title>Node1&#45;&gt;Node3</title>
<path fill="none" stroke="midnightblue" d="M373,-268.191C373,-259.282 373,-249.899 373,-241.607"/>
<polygon fill="midnightblue" stroke="midnightblue" points="369.5,-268.336 373,-278.336 376.5,-268.336 369.5,-268.336"/>
</g>
<!-- Node12 -->
<g id="node12" class="node"><title>Node12</title>
<g id="a_node12"><a xlink:href="camera__listener__base_8h.html" target="_top" xlink:title="/bitrise/src/Source\l/AR6/InstantOn/include\l/AR6/InstantOn/extensions\l/camera_listener_base.h">
<polygon fill="white" stroke="black" points="554.5,-189.5 554.5,-241.5 689.5,-241.5 689.5,-189.5 554.5,-189.5"/>
<text text-anchor="start" x="562.5" y="-229.5" font-family="Helvetica,sans-Serif" font-size="10.00">/bitrise/src/Source</text>
<text text-anchor="start" x="562.5" y="-218.5" font-family="Helvetica,sans-Serif" font-size="10.00">/AR6/InstantOn/include</text>
<text text-anchor="start" x="562.5" y="-207.5" font-family="Helvetica,sans-Serif" font-size="10.00">/AR6/InstantOn/extensions</text>
<text text-anchor="middle" x="622" y="-196.5" font-family="Helvetica,sans-Serif" font-size="10.00">/camera_listener_base.h</text>
</a>
</g>
</g>
<!-- Node1&#45;&gt;Node12 -->
<g id="edge12" class="edge"><title>Node1&#45;&gt;Node12</title>
<path fill="none" stroke="midnightblue" d="M449.787,-276.671C483.222,-264.989 522.067,-251.416 554.393,-240.122"/>
<polygon fill="midnightblue" stroke="midnightblue" points="448.341,-273.469 440.055,-280.071 450.65,-280.077 448.341,-273.469"/>
</g>
<!-- Node4 -->
<g id="node4" class="node"><title>Node4</title>
<g id="a_node4"><a xlink:href="attitude__sync__filter_8h.html" target="_top" xlink:title="/bitrise/src/Source\l/AR6/InstantOn/include\l/AR6/InstantOn/extensions\l/attitude_sync_filter.h">
<polygon fill="white" stroke="black" points="305.5,-95 305.5,-147 440.5,-147 440.5,-95 305.5,-95"/>
<text text-anchor="start" x="313.5" y="-135" font-family="Helvetica,sans-Serif" font-size="10.00">/bitrise/src/Source</text>
<text text-anchor="start" x="313.5" y="-124" font-family="Helvetica,sans-Serif" font-size="10.00">/AR6/InstantOn/include</text>
<text text-anchor="start" x="313.5" y="-113" font-family="Helvetica,sans-Serif" font-size="10.00">/AR6/InstantOn/extensions</text>
<text text-anchor="middle" x="373" y="-102" font-family="Helvetica,sans-Serif" font-size="10.00">/attitude_sync_filter.h</text>
</a>
</g>
</g>
<!-- Node3&#45;&gt;Node4 -->
<g id="edge3" class="edge"><title>Node3&#45;&gt;Node4</title>
<path fill="none" stroke="midnightblue" d="M373,-178.993C373,-168.409 373,-157.031 373,-147.245"/>
<polygon fill="midnightblue" stroke="midnightblue" points="369.5,-179.224 373,-189.224 376.5,-179.224 369.5,-179.224"/>
</g>
<!-- Node7 -->
<g id="node7" class="node"><title>Node7</title>
<g id="a_node7"><a xlink:href="_vision4d-_instant_on_8h.html" target="_top" xlink:title="/bitrise/src/Source\l/AR6/InstantOn/include\l/AR6/InstantOn/extensions\l/Vision4d&#45;InstantOn.h">
<polygon fill="white" stroke="black" points="458.5,-95 458.5,-147 593.5,-147 593.5,-95 458.5,-95"/>
<text text-anchor="start" x="466.5" y="-135" font-family="Helvetica,sans-Serif" font-size="10.00">/bitrise/src/Source</text>
<text text-anchor="start" x="466.5" y="-124" font-family="Helvetica,sans-Serif" font-size="10.00">/AR6/InstantOn/include</text>
<text text-anchor="start" x="466.5" y="-113" font-family="Helvetica,sans-Serif" font-size="10.00">/AR6/InstantOn/extensions</text>
<text text-anchor="middle" x="526" y="-102" font-family="Helvetica,sans-Serif" font-size="10.00">/Vision4d&#45;InstantOn.h</text>
</a>
</g>
</g>
<!-- Node3&#45;&gt;Node7 -->
<g id="edge6" class="edge"><title>Node3&#45;&gt;Node7</title>
<path fill="none" stroke="midnightblue" d="M423.044,-184.245C442.955,-172.207 465.594,-158.52 484.563,-147.052"/>
<polygon fill="midnightblue" stroke="midnightblue" points="421.151,-181.299 414.404,-189.468 424.772,-187.29 421.151,-181.299"/>
</g>
<!-- Node8 -->
<g id="node8" class="node"><title>Node8</title>
<g id="a_node8"><a xlink:href="android__attitude__listener_8h.html" target="_top" xlink:title="/bitrise/src/Source\l/AR6/InstantOn/include\l/AR6/InstantOn/external\l/platform/android/device\l/android_attitude_listener.h">
<polygon fill="white" stroke="black" points="7,-89.5 7,-152.5 141,-152.5 141,-89.5 7,-89.5"/>
<text text-anchor="start" x="15" y="-140.5" font-family="Helvetica,sans-Serif" font-size="10.00">/bitrise/src/Source</text>
<text text-anchor="start" x="15" y="-129.5" font-family="Helvetica,sans-Serif" font-size="10.00">/AR6/InstantOn/include</text>
<text text-anchor="start" x="15" y="-118.5" font-family="Helvetica,sans-Serif" font-size="10.00">/AR6/InstantOn/external</text>
<text text-anchor="start" x="15" y="-107.5" font-family="Helvetica,sans-Serif" font-size="10.00">/platform/android/device</text>
<text text-anchor="middle" x="74" y="-96.5" font-family="Helvetica,sans-Serif" font-size="10.00">/android_attitude_listener.h</text>
</a>
</g>
</g>
<!-- Node3&#45;&gt;Node8 -->
<g id="edge8" class="edge"><title>Node3&#45;&gt;Node8</title>
<path fill="none" stroke="midnightblue" d="M295.649,-189.006C231.318,-170.855 212.484,-172.073 153,-153 149.072,-151.74 145.058,-150.386 141.023,-148.971"/>
<polygon fill="midnightblue" stroke="midnightblue" points="294.904,-192.434 305.481,-191.83 296.836,-185.706 294.904,-192.434"/>
</g>
<!-- Node10 -->
<g id="node10" class="node"><title>Node10</title>
<g id="a_node10"><a xlink:href="i_o_s__attitude__listener_8h.html" target="_top" xlink:title="/bitrise/src/Source\l/AR6/InstantOn/include\l/AR6/InstantOn/external\l/platform/iOS/device/iOS\l_attitude_listener.h">
<polygon fill="white" stroke="black" points="162.5,-89.5 162.5,-152.5 287.5,-152.5 287.5,-89.5 162.5,-89.5"/>
<text text-anchor="start" x="170.5" y="-140.5" font-family="Helvetica,sans-Serif" font-size="10.00">/bitrise/src/Source</text>
<text text-anchor="start" x="170.5" y="-129.5" font-family="Helvetica,sans-Serif" font-size="10.00">/AR6/InstantOn/include</text>
<text text-anchor="start" x="170.5" y="-118.5" font-family="Helvetica,sans-Serif" font-size="10.00">/AR6/InstantOn/external</text>
<text text-anchor="start" x="170.5" y="-107.5" font-family="Helvetica,sans-Serif" font-size="10.00">/platform/iOS/device/iOS</text>
<text text-anchor="middle" x="225" y="-96.5" font-family="Helvetica,sans-Serif" font-size="10.00">_attitude_listener.h</text>
</a>
</g>
</g>
<!-- Node3&#45;&gt;Node10 -->
<g id="edge10" class="edge"><title>Node3&#45;&gt;Node10</title>
<path fill="none" stroke="midnightblue" d="M324.21,-184.006C308.103,-173.94 290.187,-162.742 274.06,-152.663"/>
<polygon fill="midnightblue" stroke="midnightblue" points="322.614,-187.136 332.949,-189.468 326.324,-181.2 322.614,-187.136"/>
</g>
<!-- Node5 -->
<g id="node5" class="node"><title>Node5</title>
<g id="a_node5"><a xlink:href="attitude__sync__filter_8cpp.html" target="_top" xlink:title="/bitrise/src/Source\l/AR6/InstantOn/extensions\l/attitude_sync_filter.cpp">
<polygon fill="white" stroke="black" points="305.5,-6 305.5,-47 440.5,-47 440.5,-6 305.5,-6"/>
<text text-anchor="start" x="313.5" y="-35" font-family="Helvetica,sans-Serif" font-size="10.00">/bitrise/src/Source</text>
<text text-anchor="start" x="313.5" y="-24" font-family="Helvetica,sans-Serif" font-size="10.00">/AR6/InstantOn/extensions</text>
<text text-anchor="middle" x="373" y="-13" font-family="Helvetica,sans-Serif" font-size="10.00">/attitude_sync_filter.cpp</text>
</a>
</g>
</g>
<!-- Node4&#45;&gt;Node5 -->
<g id="edge4" class="edge"><title>Node4&#45;&gt;Node5</title>
<path fill="none" stroke="midnightblue" d="M373,-84.45C373,-71.7959 373,-58.0112 373,-47.1735"/>
<polygon fill="midnightblue" stroke="midnightblue" points="369.5,-84.7239 373,-94.724 376.5,-84.724 369.5,-84.7239"/>
</g>
<!-- Node6 -->
<g id="node6" class="node"><title>Node6</title>
<g id="a_node6"><a xlink:href="_vision4d-_instant_on_8cpp.html" target="_top" xlink:title="/bitrise/src/Source\l/AR6/InstantOn/extensions\l/Vision4d&#45;InstantOn.cpp">
<polygon fill="white" stroke="black" points="516.5,-6 516.5,-47 651.5,-47 651.5,-6 516.5,-6"/>
<text text-anchor="start" x="524.5" y="-35" font-family="Helvetica,sans-Serif" font-size="10.00">/bitrise/src/Source</text>
<text text-anchor="start" x="524.5" y="-24" font-family="Helvetica,sans-Serif" font-size="10.00">/AR6/InstantOn/extensions</text>
<text text-anchor="middle" x="584" y="-13" font-family="Helvetica,sans-Serif" font-size="10.00">/Vision4d&#45;InstantOn.cpp</text>
</a>
</g>
</g>
<!-- Node4&#45;&gt;Node6 -->
<g id="edge5" class="edge"><title>Node4&#45;&gt;Node6</title>
<path fill="none" stroke="midnightblue" d="M439.54,-90.8297C472.033,-76.5852 510.262,-59.8259 539.229,-47.127"/>
<polygon fill="midnightblue" stroke="midnightblue" points="437.853,-87.7476 430.1,-94.9682 440.664,-94.1586 437.853,-87.7476"/>
</g>
<!-- Node7&#45;&gt;Node6 -->
<g id="edge7" class="edge"><title>Node7&#45;&gt;Node6</title>
<path fill="none" stroke="midnightblue" d="M547.342,-85.9628C555.531,-72.9034 564.597,-58.4447 571.664,-47.1735"/>
<polygon fill="midnightblue" stroke="midnightblue" points="544.196,-84.3924 541.849,-94.724 550.126,-88.111 544.196,-84.3924"/>
</g>
<!-- Node9 -->
<g id="node9" class="node"><title>Node9</title>
<g id="a_node9"><a xlink:href="android__attitude__listener_8cpp.html" target="_top" xlink:title="/bitrise/src/Source\l/AR6/InstantOn/external\l/platform/android/device\l/android_attitude_listener.cpp">
<polygon fill="white" stroke="black" points="0,-0.5 0,-52.5 144,-52.5 144,-0.5 0,-0.5"/>
<text text-anchor="start" x="8" y="-40.5" font-family="Helvetica,sans-Serif" font-size="10.00">/bitrise/src/Source</text>
<text text-anchor="start" x="8" y="-29.5" font-family="Helvetica,sans-Serif" font-size="10.00">/AR6/InstantOn/external</text>
<text text-anchor="start" x="8" y="-18.5" font-family="Helvetica,sans-Serif" font-size="10.00">/platform/android/device</text>
<text text-anchor="middle" x="72" y="-7.5" font-family="Helvetica,sans-Serif" font-size="10.00">/android_attitude_listener.cpp</text>
</a>
</g>
</g>
<!-- Node8&#45;&gt;Node9 -->
<g id="edge9" class="edge"><title>Node8&#45;&gt;Node9</title>
<path fill="none" stroke="midnightblue" d="M73.1227,-79.4229C72.9267,-70.3585 72.7243,-60.999 72.5463,-52.7655"/>
<polygon fill="midnightblue" stroke="midnightblue" points="69.6241,-79.5337 73.3396,-89.4557 76.6225,-79.3823 69.6241,-79.5337"/>
</g>
<!-- Node11 -->
<g id="node11" class="node"><title>Node11</title>
<g id="a_node11"><a xlink:href="i_o_s__attitude__listener_8mm.html" target="_top" xlink:title="/bitrise/src/Source\l/AR6/InstantOn/external\l/platform/iOS/device/iOS\l_attitude_listener.mm">
<polygon fill="white" stroke="black" points="162.5,-0.5 162.5,-52.5 287.5,-52.5 287.5,-0.5 162.5,-0.5"/>
<text text-anchor="start" x="170.5" y="-40.5" font-family="Helvetica,sans-Serif" font-size="10.00">/bitrise/src/Source</text>
<text text-anchor="start" x="170.5" y="-29.5" font-family="Helvetica,sans-Serif" font-size="10.00">/AR6/InstantOn/external</text>
<text text-anchor="start" x="170.5" y="-18.5" font-family="Helvetica,sans-Serif" font-size="10.00">/platform/iOS/device/iOS</text>
<text text-anchor="middle" x="225" y="-7.5" font-family="Helvetica,sans-Serif" font-size="10.00">_attitude_listener.mm</text>
</a>
</g>
</g>
<!-- Node10&#45;&gt;Node11 -->
<g id="edge11" class="edge"><title>Node10&#45;&gt;Node11</title>
<path fill="none" stroke="midnightblue" d="M225,-79.4229C225,-70.3585 225,-60.999 225,-52.7655"/>
<polygon fill="midnightblue" stroke="midnightblue" points="221.5,-79.4556 225,-89.4557 228.5,-79.4557 221.5,-79.4556"/>
</g>
<!-- Node12&#45;&gt;Node6 -->
<g id="edge14" class="edge"><title>Node12&#45;&gt;Node6</title>
<path fill="none" stroke="midnightblue" d="M618.071,-179.073C614.919,-153.788 609.881,-119.074 603,-89 599.76,-74.8385 594.911,-59.2005 590.922,-47.2375"/>
<polygon fill="midnightblue" stroke="midnightblue" points="614.631,-179.783 619.306,-189.291 621.581,-178.943 614.631,-179.783"/>
</g>
<!-- Node12&#45;&gt;Node7 -->
<g id="edge18" class="edge"><title>Node12&#45;&gt;Node7</title>
<path fill="none" stroke="midnightblue" d="M588.739,-182.452C576.711,-170.862 563.315,-157.954 552,-147.052"/>
<polygon fill="midnightblue" stroke="midnightblue" points="586.391,-185.05 596.021,-189.468 591.248,-180.009 586.391,-185.05"/>
</g>
<!-- Node13 -->
<g id="node13" class="node"><title>Node13</title>
<g id="a_node13"><a xlink:href="camera__filter_8cpp.html" target="_top" xlink:title="/bitrise/src/Source\l/AR6/InstantOn/extensions\l/camera_filter.cpp">
<polygon fill="white" stroke="black" points="688.5,-6 688.5,-47 823.5,-47 823.5,-6 688.5,-6"/>
<text text-anchor="start" x="696.5" y="-35" font-family="Helvetica,sans-Serif" font-size="10.00">/bitrise/src/Source</text>
<text text-anchor="start" x="696.5" y="-24" font-family="Helvetica,sans-Serif" font-size="10.00">/AR6/InstantOn/extensions</text>
<text text-anchor="middle" x="756" y="-13" font-family="Helvetica,sans-Serif" font-size="10.00">/camera_filter.cpp</text>
</a>
</g>
</g>
<!-- Node12&#45;&gt;Node13 -->
<g id="edge13" class="edge"><title>Node12&#45;&gt;Node13</title>
<path fill="none" stroke="midnightblue" d="M699.376,-207.016C734.617,-199.295 773.242,-183.827 795,-153 818.024,-120.379 791.345,-73.7109 772.158,-47.4444"/>
<polygon fill="midnightblue" stroke="midnightblue" points="698.656,-203.591 689.543,-208.995 700.037,-210.453 698.656,-203.591"/>
</g>
<!-- Node14 -->
<g id="node14" class="node"><title>Node14</title>
<g id="a_node14"><a xlink:href="camera__filter_8h.html" target="_top" xlink:title="/bitrise/src/Source\l/AR6/InstantOn/include\l/AR6/InstantOn/extensions\l/camera_filter.h">
<polygon fill="white" stroke="black" points="650.5,-95 650.5,-147 785.5,-147 785.5,-95 650.5,-95"/>
<text text-anchor="start" x="658.5" y="-135" font-family="Helvetica,sans-Serif" font-size="10.00">/bitrise/src/Source</text>
<text text-anchor="start" x="658.5" y="-124" font-family="Helvetica,sans-Serif" font-size="10.00">/AR6/InstantOn/include</text>
<text text-anchor="start" x="658.5" y="-113" font-family="Helvetica,sans-Serif" font-size="10.00">/AR6/InstantOn/extensions</text>
<text text-anchor="middle" x="718" y="-102" font-family="Helvetica,sans-Serif" font-size="10.00">/camera_filter.h</text>
</a>
</g>
</g>
<!-- Node12&#45;&gt;Node14 -->
<g id="edge15" class="edge"><title>Node12&#45;&gt;Node14</title>
<path fill="none" stroke="midnightblue" d="M655.261,-182.452C667.289,-170.862 680.685,-157.954 692,-147.052"/>
<polygon fill="midnightblue" stroke="midnightblue" points="652.752,-180.009 647.979,-189.468 657.609,-185.05 652.752,-180.009"/>
</g>
<!-- Node14&#45;&gt;Node6 -->
<g id="edge17" class="edge"><title>Node14&#45;&gt;Node6</title>
<path fill="none" stroke="midnightblue" d="M673.366,-89.1893C653.346,-75.3691 630.315,-59.4714 612.649,-47.2762"/>
<polygon fill="midnightblue" stroke="midnightblue" points="671.52,-92.1676 681.738,-94.9682 675.496,-86.4068 671.52,-92.1676"/>
</g>
<!-- Node14&#45;&gt;Node13 -->
<g id="edge16" class="edge"><title>Node14&#45;&gt;Node13</title>
<path fill="none" stroke="midnightblue" d="M732.293,-85.2078C737.576,-72.3485 743.377,-58.2279 747.918,-47.1735"/>
<polygon fill="midnightblue" stroke="midnightblue" points="728.946,-84.1441 728.384,-94.724 735.421,-86.8041 728.946,-84.1441"/>
</g>
</g>
</svg>
