<?xml version="1.0" encoding="UTF-8" standalone="no"?>
<!DOCTYPE svg PUBLIC "-//W3C//DTD SVG 1.1//EN"
 "http://www.w3.org/Graphics/SVG/1.1/DTD/svg11.dtd">
<!-- Generated by graphviz version 2.38.0 (20140413.2041)
 -->
<!-- Title: /bitrise/src/Source/AR6/AR/mAllocTrans.c Pages: 1 -->
<!--zoomable 207 -->
<svg id="main" version="1.1" xmlns="http://www.w3.org/2000/svg" xmlns:xlink="http://www.w3.org/1999/xlink" xml:space="preserve" onload="init(evt)">
<style type="text/css"><![CDATA[
.edge:hover path { stroke: red; }
.edge:hover polygon { stroke: red; fill: red; }
]]></style>
<script type="text/javascript"><![CDATA[
var edges = document.getElementsByTagName('g');
if (edges && edges.length) {
  for (var i=0;i<edges.length;i++) {
    if (edges[i].id.substr(0,4)=='edge') {
      edges[i].setAttribute('class','edge');
    }
  }
}
]]></script>
        <defs>
                <circle id="rim" cx="0" cy="0" r="7"/>
                <circle id="rim2" cx="0" cy="0" r="3.5"/>
                <g id="zoomPlus">
                        <use xlink:href="#rim" fill="#404040">
                                <set attributeName="fill" to="#808080" begin="zoomplus.mouseover" end="zoomplus.mouseout"/>
                        </use>
                        <path d="M-4,0h8M0,-4v8" fill="none" stroke="white" stroke-width="1.5" pointer-events="none"/>
                </g>
                <g id="zoomMin">
                        <use xlink:href="#rim" fill="#404040">
                                <set attributeName="fill" to="#808080" begin="zoomminus.mouseover" end="zoomminus.mouseout"/>
                        </use>
                        <path d="M-4,0h8" fill="none" stroke="white" stroke-width="1.5" pointer-events="none"/>
                </g>
                <g id="dirArrow">
                        <path fill="none" stroke="white" stroke-width="1.5" d="M0,-3.0v7 M-2.5,-0.5L0,-3.0L2.5,-0.5"/>
                </g>
               <g id="resetDef">
                       <use xlink:href="#rim2" fill="#404040">
                               <set attributeName="fill" to="#808080" begin="reset.mouseover" end="reset.mouseout"/>
                       </use>
               </g>
        </defs>

<script type="text/javascript">
var viewWidth = 942;
var viewHeight = 207;
var sectionId = 'dynsection-0';
</script>
<script xlink:href="svgpan.js"/>
<svg id="graph" class="graph">
<g id="viewport">
<title>/bitrise/src/Source/AR6/AR/mAllocTrans.c</title>
<polygon fill="white" stroke="none" points="-4,4 -4,-203 937.717,-203 937.717,4 -4,4"/>
<!-- Node1 -->
<g id="node1" class="node"><title>Node1</title>
<polygon fill="#bfbfbf" stroke="black" points="477.717,-168.5 477.717,-198.5 599.717,-198.5 599.717,-168.5 477.717,-168.5"/>
<text text-anchor="start" x="485.717" y="-186.5" font-family="Helvetica,sans-Serif" font-size="10.00">/bitrise/src/Source</text>
<text text-anchor="middle" x="538.717" y="-175.5" font-family="Helvetica,sans-Serif" font-size="10.00">/AR6/AR/mAllocTrans.c</text>
</g>
<!-- Node2 -->
<g id="node2" class="node"><title>Node2</title>
<polygon fill="white" stroke="#bfbfbf" points="771.717,-0.5 771.717,-19.5 817.717,-19.5 817.717,-0.5 771.717,-0.5"/>
<text text-anchor="middle" x="794.717" y="-7.5" font-family="Helvetica,sans-Serif" font-size="10.00">stdio.h</text>
</g>
<!-- Node1&#45;&gt;Node2 -->
<g id="edge1" class="edge"><title>Node1&#45;&gt;Node2</title>
<path fill="none" stroke="midnightblue" d="M599.893,-173.893C695.281,-159.08 872.421,-125.509 909.717,-76 915.066,-68.9002 914.728,-63.3418 909.717,-56 904.802,-48.7985 859.699,-32.5791 827.466,-21.7102"/>
<polygon fill="midnightblue" stroke="midnightblue" points="828.528,-18.3751 817.935,-18.5248 826.31,-25.0141 828.528,-18.3751"/>
</g>
<!-- Node3 -->
<g id="node3" class="node"><title>Node3</title>
<polygon fill="white" stroke="#bfbfbf" points="0.217168,-0.5 0.217168,-19.5 47.2172,-19.5 47.2172,-0.5 0.217168,-0.5"/>
<text text-anchor="middle" x="23.7172" y="-7.5" font-family="Helvetica,sans-Serif" font-size="10.00">math.h</text>
</g>
<!-- Node1&#45;&gt;Node3 -->
<g id="edge2" class="edge"><title>Node1&#45;&gt;Node3</title>
<path fill="none" stroke="midnightblue" d="M477.677,-179.674C350.678,-172.382 64.8763,-148.149 5.71717,-76 -5.48913,-62.333 2.77633,-42.1863 11.4481,-27.9518"/>
<polygon fill="midnightblue" stroke="midnightblue" points="14.3913,-29.8465 17.0048,-19.579 8.55887,-25.9757 14.3913,-29.8465"/>
</g>
<!-- Node4 -->
<g id="node4" class="node"><title>Node4</title>
<polygon fill="white" stroke="#bfbfbf" points="553.217,-112.5 553.217,-131.5 606.217,-131.5 606.217,-112.5 553.217,-112.5"/>
<text text-anchor="middle" x="579.717" y="-119.5" font-family="Helvetica,sans-Serif" font-size="10.00">malloc.h</text>
</g>
<!-- Node1&#45;&gt;Node4 -->
<g id="edge3" class="edge"><title>Node1&#45;&gt;Node4</title>
<path fill="none" stroke="midnightblue" d="M548.434,-168.399C554.269,-159.932 561.733,-149.099 567.907,-140.139"/>
<polygon fill="midnightblue" stroke="midnightblue" points="570.959,-141.878 573.751,-131.658 565.195,-137.906 570.959,-141.878"/>
</g>
<!-- Node5 -->
<g id="node5" class="node"><title>Node5</title>
<g id="a_node5"><a xlink:href="ar_8h.html" target="_top" xlink:title="ARToolKit core routines. ">
<polygon fill="white" stroke="black" points="462.217,-112.5 462.217,-131.5 535.217,-131.5 535.217,-112.5 462.217,-112.5"/>
<text text-anchor="middle" x="498.717" y="-119.5" font-family="Helvetica,sans-Serif" font-size="10.00">AR6/AR/ar.h</text>
</a>
</g>
</g>
<!-- Node1&#45;&gt;Node5 -->
<g id="edge4" class="edge"><title>Node1&#45;&gt;Node5</title>
<path fill="none" stroke="midnightblue" d="M529.238,-168.399C523.545,-159.932 516.263,-149.099 510.239,-140.139"/>
<polygon fill="midnightblue" stroke="midnightblue" points="513.021,-138.004 504.538,-131.658 507.212,-141.909 513.021,-138.004"/>
</g>
<!-- Node5&#45;&gt;Node2 -->
<g id="edge5" class="edge"><title>Node5&#45;&gt;Node2</title>
<path fill="none" stroke="midnightblue" d="M535.537,-113.545C538.304,-113.013 541.053,-112.492 543.717,-112 637.696,-94.6266 676.801,-129.908 755.717,-76 771.982,-64.8897 782.559,-44.5524 788.54,-29.575"/>
<polygon fill="midnightblue" stroke="midnightblue" points="791.957,-30.419 792.098,-19.8251 785.382,-28.0192 791.957,-30.419"/>
</g>
<!-- Node6 -->
<g id="node6" class="node"><title>Node6</title>
<polygon fill="white" stroke="#bfbfbf" points="703.717,-0.5 703.717,-19.5 751.717,-19.5 751.717,-0.5 703.717,-0.5"/>
<text text-anchor="middle" x="727.717" y="-7.5" font-family="Helvetica,sans-Serif" font-size="10.00">stdlib.h</text>
</g>
<!-- Node5&#45;&gt;Node6 -->
<g id="edge6" class="edge"><title>Node5&#45;&gt;Node6</title>
<path fill="none" stroke="midnightblue" d="M535.546,-113.591C538.31,-113.048 541.057,-112.513 543.717,-112 586.772,-103.7 709.683,-109.715 737.717,-76 748.525,-63.0015 743.486,-43.2957 737.316,-28.9893"/>
<polygon fill="midnightblue" stroke="midnightblue" points="740.331,-27.1845 732.833,-19.6994 734.027,-30.2267 740.331,-27.1845"/>
</g>
<!-- Node7 -->
<g id="node7" class="node"><title>Node7</title>
<polygon fill="white" stroke="#bfbfbf" points="125.217,-56.5 125.217,-75.5 174.217,-75.5 174.217,-56.5 125.217,-56.5"/>
<text text-anchor="middle" x="149.717" y="-63.5" font-family="Helvetica,sans-Serif" font-size="10.00">stdint.h</text>
</g>
<!-- Node5&#45;&gt;Node7 -->
<g id="edge7" class="edge"><title>Node5&#45;&gt;Node7</title>
<path fill="none" stroke="midnightblue" d="M461.81,-116.645C403.549,-109.545 286.799,-94.4035 188.717,-76 187.266,-75.7277 185.787,-75.4386 184.295,-75.1373"/>
<polygon fill="midnightblue" stroke="midnightblue" points="184.921,-71.6922 174.41,-73.0225 183.456,-78.5373 184.921,-71.6922"/>
</g>
<!-- Node8 -->
<g id="node8" class="node"><title>Node8</title>
<polygon fill="white" stroke="#bfbfbf" points="475.217,-0.5 475.217,-19.5 524.217,-19.5 524.217,-0.5 475.217,-0.5"/>
<text text-anchor="middle" x="499.717" y="-7.5" font-family="Helvetica,sans-Serif" font-size="10.00">string.h</text>
</g>
<!-- Node5&#45;&gt;Node8 -->
<g id="edge8" class="edge"><title>Node5&#45;&gt;Node8</title>
<path fill="none" stroke="midnightblue" d="M498.796,-112.368C498.957,-94.617 499.329,-53.6664 499.548,-29.5974"/>
<polygon fill="midnightblue" stroke="midnightblue" points="503.048,-29.6229 499.639,-19.5914 496.048,-29.5592 503.048,-29.6229"/>
</g>
<!-- Node9 -->
<g id="node9" class="node"><title>Node9</title>
<polygon fill="white" stroke="#bfbfbf" points="201.217,-0.5 201.217,-19.5 292.217,-19.5 292.217,-0.5 201.217,-0.5"/>
<text text-anchor="middle" x="246.717" y="-7.5" font-family="Helvetica,sans-Serif" font-size="10.00">AR6/AR/config.h</text>
</g>
<!-- Node5&#45;&gt;Node9 -->
<g id="edge9" class="edge"><title>Node5&#45;&gt;Node9</title>
<path fill="none" stroke="midnightblue" d="M462.182,-120.672C394.151,-119.203 252.18,-111.811 221.717,-76 209.78,-61.9673 220.91,-41.6113 231.877,-27.4309"/>
<polygon fill="midnightblue" stroke="midnightblue" points="234.763,-29.4344 238.476,-19.5115 229.386,-24.9532 234.763,-29.4344"/>
</g>
<!-- Node10 -->
<g id="node10" class="node"><title>Node10</title>
<g id="a_node10"><a xlink:href="ar_config_8h.html" target="_top" xlink:title="AR6/AR/arConfig.h">
<polygon fill="white" stroke="black" points="369.217,-56.5 369.217,-75.5 470.217,-75.5 470.217,-56.5 369.217,-56.5"/>
<text text-anchor="middle" x="419.717" y="-63.5" font-family="Helvetica,sans-Serif" font-size="10.00">AR6/AR/arConfig.h</text>
</a>
</g>
</g>
<!-- Node5&#45;&gt;Node10 -->
<g id="edge10" class="edge"><title>Node5&#45;&gt;Node10</title>
<path fill="none" stroke="midnightblue" d="M486.024,-112.324C473.816,-103.979 455.139,-91.2122 440.714,-81.3524"/>
<polygon fill="midnightblue" stroke="midnightblue" points="442.609,-78.4082 432.378,-75.6545 438.659,-84.1871 442.609,-78.4082"/>
</g>
<!-- Node11 -->
<g id="node11" class="node"><title>Node11</title>
<g id="a_node11"><a xlink:href="log_8h.html" target="_top" xlink:title="Logging utilities. ">
<polygon fill="white" stroke="black" points="526.717,-56.5 526.717,-75.5 618.717,-75.5 618.717,-56.5 526.717,-56.5"/>
<text text-anchor="middle" x="572.717" y="-63.5" font-family="Helvetica,sans-Serif" font-size="10.00">AR6/ARUtil/log.h</text>
</a>
</g>
</g>
<!-- Node5&#45;&gt;Node11 -->
<g id="edge11" class="edge"><title>Node5&#45;&gt;Node11</title>
<path fill="none" stroke="midnightblue" d="M510.607,-112.324C521.867,-104.107 539.004,-91.6017 552.426,-81.8069"/>
<polygon fill="midnightblue" stroke="midnightblue" points="554.597,-84.5559 560.611,-75.8339 550.47,-78.9014 554.597,-84.5559"/>
</g>
<!-- Node14 -->
<g id="node14" class="node"><title>Node14</title>
<g id="a_node14"><a xlink:href="_a_r_2include_2_a_r6_2_a_r_2matrix_8h.html" target="_top" xlink:title="AR6/AR/matrix.h">
<polygon fill="white" stroke="black" points="14.7172,-56.5 14.7172,-75.5 106.717,-75.5 106.717,-56.5 14.7172,-56.5"/>
<text text-anchor="middle" x="60.7172" y="-63.5" font-family="Helvetica,sans-Serif" font-size="10.00">AR6/AR/matrix.h</text>
</a>
</g>
</g>
<!-- Node5&#45;&gt;Node14 -->
<g id="edge17" class="edge"><title>Node5&#45;&gt;Node14</title>
<path fill="none" stroke="midnightblue" d="M462.209,-117.267C395.677,-110.342 250.02,-94.6292 116.878,-76.1095"/>
<polygon fill="midnightblue" stroke="midnightblue" points="117.296,-72.634 106.908,-74.714 116.326,-79.5664 117.296,-72.634"/>
</g>
<!-- Node15 -->
<g id="node15" class="node"><title>Node15</title>
<g id="a_node15"><a xlink:href="icp_8h.html" target="_top" xlink:title="AR6/AR/icp.h">
<polygon fill="white" stroke="black" points="823.217,-56.5 823.217,-75.5 900.217,-75.5 900.217,-56.5 823.217,-56.5"/>
<text text-anchor="middle" x="861.717" y="-63.5" font-family="Helvetica,sans-Serif" font-size="10.00">AR6/AR/icp.h</text>
</a>
</g>
</g>
<!-- Node5&#45;&gt;Node15 -->
<g id="edge19" class="edge"><title>Node5&#45;&gt;Node15</title>
<path fill="none" stroke="midnightblue" d="M535.52,-113.445C538.29,-112.936 541.046,-112.448 543.717,-112 660.939,-92.3353 691.221,-93.9519 808.717,-76 810.015,-75.8018 811.329,-75.5982 812.656,-75.3904"/>
<polygon fill="midnightblue" stroke="midnightblue" points="813.636,-78.7778 822.954,-73.735 812.525,-71.8665 813.636,-78.7778"/>
</g>
<!-- Node17 -->
<g id="node17" class="node"><title>Node17</title>
<g id="a_node17"><a xlink:href="param_8h.html" target="_top" xlink:title="ARToolKit functions for handling calibrated camera parameters. ">
<polygon fill="white" stroke="black" points="636.717,-56.5 636.717,-75.5 728.717,-75.5 728.717,-56.5 636.717,-56.5"/>
<text text-anchor="middle" x="682.717" y="-63.5" font-family="Helvetica,sans-Serif" font-size="10.00">AR6/AR/param.h</text>
</a>
</g>
</g>
<!-- Node5&#45;&gt;Node17 -->
<g id="edge22" class="edge"><title>Node5&#45;&gt;Node17</title>
<path fill="none" stroke="midnightblue" d="M522.784,-112.444C552.249,-103.201 602.39,-88.4356 638.755,-78.2572"/>
<polygon fill="midnightblue" stroke="midnightblue" points="639.92,-81.5661 648.618,-75.5164 638.046,-74.8217 639.92,-81.5661"/>
</g>
<!-- Node18 -->
<g id="node18" class="node"><title>Node18</title>
<g id="a_node18"><a xlink:href="ar_image_proc_8h.html" target="_top" xlink:title="ARToolKit functions for 2D luminance image processing. ">
<polygon fill="white" stroke="black" points="230.717,-56.5 230.717,-75.5 350.717,-75.5 350.717,-56.5 230.717,-56.5"/>
<text text-anchor="middle" x="290.717" y="-63.5" font-family="Helvetica,sans-Serif" font-size="10.00">AR6/AR/arImageProc.h</text>
</a>
</g>
</g>
<!-- Node5&#45;&gt;Node18 -->
<g id="edge24" class="edge"><title>Node5&#45;&gt;Node18</title>
<path fill="none" stroke="midnightblue" d="M462.117,-112.799C424.436,-103.563 366.227,-88.5013 328.225,-78.1897"/>
<polygon fill="midnightblue" stroke="midnightblue" points="329.12,-74.8059 318.551,-75.5467 327.275,-81.5584 329.12,-74.8059"/>
</g>
<!-- Node11&#45;&gt;Node2 -->
<g id="edge12" class="edge"><title>Node11&#45;&gt;Node2</title>
<path fill="none" stroke="midnightblue" d="M609.525,-56.4631C647.472,-47.5979 708.322,-33.2033 760.717,-20 761.05,-19.9161 761.385,-19.8315 761.721,-19.7463"/>
<polygon fill="midnightblue" stroke="midnightblue" points="762.883,-23.0612 771.692,-17.1743 761.135,-16.2831 762.883,-23.0612"/>
</g>
<!-- Node11&#45;&gt;Node6 -->
<g id="edge13" class="edge"><title>Node11&#45;&gt;Node6</title>
<path fill="none" stroke="midnightblue" d="M597.277,-56.4435C623.316,-47.372 664.627,-32.9797 693.771,-22.8264"/>
<polygon fill="midnightblue" stroke="midnightblue" points="695.235,-26.0227 703.527,-19.4275 692.932,-19.4124 695.235,-26.0227"/>
</g>
<!-- Node11&#45;&gt;Node8 -->
<g id="edge14" class="edge"><title>Node11&#45;&gt;Node8</title>
<path fill="none" stroke="midnightblue" d="M560.988,-56.324C549.88,-48.1066 532.975,-35.6017 519.734,-25.8069"/>
<polygon fill="midnightblue" stroke="midnightblue" points="521.78,-22.9671 511.659,-19.8339 517.617,-28.5948 521.78,-22.9671"/>
</g>
<!-- Node12 -->
<g id="node12" class="node"><title>Node12</title>
<polygon fill="white" stroke="#bfbfbf" points="544.717,-0.5 544.717,-19.5 596.717,-19.5 596.717,-0.5 544.717,-0.5"/>
<text text-anchor="middle" x="570.717" y="-7.5" font-family="Helvetica,sans-Serif" font-size="10.00">stdarg.h</text>
</g>
<!-- Node11&#45;&gt;Node12 -->
<g id="edge15" class="edge"><title>Node11&#45;&gt;Node12</title>
<path fill="none" stroke="midnightblue" d="M572.387,-56.083C572.125,-49.0059 571.749,-38.8611 571.42,-29.9865"/>
<polygon fill="midnightblue" stroke="midnightblue" points="574.909,-29.6147 571.041,-19.7511 567.914,-29.8738 574.909,-29.6147"/>
</g>
<!-- Node13 -->
<g id="node13" class="node"><title>Node13</title>
<polygon fill="white" stroke="#bfbfbf" points="615.217,-0.5 615.217,-19.5 680.217,-19.5 680.217,-0.5 615.217,-0.5"/>
<text text-anchor="middle" x="647.717" y="-7.5" font-family="Helvetica,sans-Serif" font-size="10.00">sys/errno.h</text>
</g>
<!-- Node11&#45;&gt;Node13 -->
<g id="edge16" class="edge"><title>Node11&#45;&gt;Node13</title>
<path fill="none" stroke="midnightblue" d="M584.767,-56.324C596.18,-48.1066 613.548,-35.6017 627.152,-25.8069"/>
<polygon fill="midnightblue" stroke="midnightblue" points="629.378,-28.5174 635.448,-19.8339 625.287,-22.8366 629.378,-28.5174"/>
</g>
<!-- Node14&#45;&gt;Node3 -->
<g id="edge18" class="edge"><title>Node14&#45;&gt;Node3</title>
<path fill="none" stroke="midnightblue" d="M54.6074,-56.083C49.435,-48.5341 41.871,-37.4948 35.5227,-28.2298"/>
<polygon fill="midnightblue" stroke="midnightblue" points="38.2529,-26.0221 29.7133,-19.7511 32.4784,-29.9787 38.2529,-26.0221"/>
</g>
<!-- Node15&#45;&gt;Node2 -->
<g id="edge20" class="edge"><title>Node15&#45;&gt;Node2</title>
<path fill="none" stroke="midnightblue" d="M850.952,-56.324C840.951,-48.2631 825.831,-36.0765 813.787,-26.3695"/>
<polygon fill="midnightblue" stroke="midnightblue" points="815.66,-23.3841 805.678,-19.8339 811.267,-28.8343 815.66,-23.3841"/>
</g>
<!-- Node16 -->
<g id="node16" class="node"><title>Node16</title>
<g id="a_node16"><a xlink:href="icp_core_8h.html" target="_top" xlink:title="AR6/AR/icpCore.h">
<polygon fill="white" stroke="black" points="835.717,-0.5 835.717,-19.5 933.717,-19.5 933.717,-0.5 835.717,-0.5"/>
<text text-anchor="middle" x="884.717" y="-7.5" font-family="Helvetica,sans-Serif" font-size="10.00">AR6/AR/icpCore.h</text>
</a>
</g>
</g>
<!-- Node15&#45;&gt;Node16 -->
<g id="edge21" class="edge"><title>Node15&#45;&gt;Node16</title>
<path fill="none" stroke="midnightblue" d="M865.515,-56.083C868.63,-48.77 873.14,-38.1814 877.006,-29.1034"/>
<polygon fill="midnightblue" stroke="midnightblue" points="880.291,-30.3229 880.99,-19.7511 873.851,-27.5798 880.291,-30.3229"/>
</g>
<!-- Node17&#45;&gt;Node5 -->
<g id="edge23" class="edge"><title>Node17&#45;&gt;Node5</title>
<path fill="none" stroke="midnightblue" d="M658.778,-75.5164C629.373,-84.7429 579.242,-99.507 542.837,-109.699"/>
<polygon fill="midnightblue" stroke="midnightblue" points="541.659,-106.393 532.961,-112.444 543.533,-113.138 541.659,-106.393"/>
</g>
<!-- Node18&#45;&gt;Node5 -->
<g id="edge26" class="edge"><title>Node18&#45;&gt;Node5</title>
<path fill="none" stroke="midnightblue" d="M328.601,-75.5164C366.173,-84.7429 423.219,-99.507 460.797,-109.699"/>
<polygon fill="midnightblue" stroke="midnightblue" points="460.279,-113.185 470.848,-112.444 462.123,-106.432 460.279,-113.185"/>
</g>
<!-- Node18&#45;&gt;Node9 -->
<g id="edge25" class="edge"><title>Node18&#45;&gt;Node9</title>
<path fill="none" stroke="midnightblue" d="M283.451,-56.083C277.172,-48.3768 267.93,-37.0333 260.286,-27.6531"/>
<polygon fill="midnightblue" stroke="midnightblue" points="262.878,-25.2926 253.848,-19.7511 257.451,-29.7143 262.878,-25.2926"/>
</g>
</g>
</svg>
        <g id="navigator" transform="translate(0 0)" fill="#404254">
                <rect fill="#f2f5e9" fill-opacity="0.5" stroke="#606060" stroke-width=".5" x="0" y="0" width="60" height="60"/>
                <use id="zoomplus" xlink:href="#zoomPlus" x="17" y="9" onmousedown="handleZoom(evt,'in')"/>
                <use id="zoomminus" xlink:href="#zoomMin" x="42" y="9" onmousedown="handleZoom(evt,'out')"/>
                <use id="reset" xlink:href="#resetDef" x="30" y="36" onmousedown="handleReset()"/>
                <g id="arrowUp" xlink:href="#dirArrow" transform="translate(30 24)" onmousedown="handlePan(0,-1)">
                  <use xlink:href="#rim" fill="#404040">
                        <set attributeName="fill" to="#808080" begin="arrowUp.mouseover" end="arrowUp.mouseout"/>
                  </use>
                  <path fill="none" stroke="white" stroke-width="1.5" d="M0,-3.0v7 M-2.5,-0.5L0,-3.0L2.5,-0.5"/>
                </g>
                <g id="arrowRight" xlink:href="#dirArrow" transform="rotate(90) translate(36 -43)" onmousedown="handlePan(1,0)">
                  <use xlink:href="#rim" fill="#404040">
                        <set attributeName="fill" to="#808080" begin="arrowRight.mouseover" end="arrowRight.mouseout"/>
                  </use>
                  <path fill="none" stroke="white" stroke-width="1.5" d="M0,-3.0v7 M-2.5,-0.5L0,-3.0L2.5,-0.5"/>
                </g>
                <g id="arrowDown" xlink:href="#dirArrow" transform="rotate(180) translate(-30 -48)" onmousedown="handlePan(0,1)">
                  <use xlink:href="#rim" fill="#404040">
                        <set attributeName="fill" to="#808080" begin="arrowDown.mouseover" end="arrowDown.mouseout"/>
                  </use>
                  <path fill="none" stroke="white" stroke-width="1.5" d="M0,-3.0v7 M-2.5,-0.5L0,-3.0L2.5,-0.5"/>
                </g>
                <g id="arrowLeft" xlink:href="#dirArrow" transform="rotate(270) translate(-36 17)" onmousedown="handlePan(-1,0)">
                  <use xlink:href="#rim" fill="#404040">
                        <set attributeName="fill" to="#808080" begin="arrowLeft.mouseover" end="arrowLeft.mouseout"/>
                  </use>
                  <path fill="none" stroke="white" stroke-width="1.5" d="M0,-3.0v7 M-2.5,-0.5L0,-3.0L2.5,-0.5"/>
                </g>
        </g>
        <svg viewBox="0 0 15 15" width="100%" height="30px" preserveAspectRatio="xMaxYMin meet">
         <g id="arrow_out" transform="scale(0.3 0.3)">
          <a xlink:href="m_alloc_trans_8c__incl_org.svg" target="_base">
           <rect id="button" ry="5" rx="5" y="6" x="6" height="38" width="38"
                fill="#f2f5e9" fill-opacity="0.5" stroke="#606060" stroke-width="1.0"/>
           <path id="arrow"
             d="M 11.500037,31.436501 C 11.940474,20.09759 22.043105,11.32322 32.158766,21.979434 L 37.068811,17.246167 C 37.068811,17.246167 37.088388,32 37.088388,32 L 22.160133,31.978069 C 22.160133,31.978069 26.997745,27.140456 26.997745,27.140456 C 18.528582,18.264221 13.291696,25.230495 11.500037,31.436501 z"
             style="fill:#404040;"/>
          </a>
         </g>
        </svg>
</svg>
