<?xml version="1.0" encoding="UTF-8" standalone="no"?>
<!DOCTYPE svg PUBLIC "-//W3C//DTD SVG 1.1//EN"
 "http://www.w3.org/Graphics/SVG/1.1/DTD/svg11.dtd">
<!-- Generated by graphviz version 2.38.0 (20140413.2041)
 -->
<!-- Title: /bitrise/src/Source/AR6/InstantOn/include/AR6/InstantOn/framework/platform/machine.h Pages: 1 -->
<svg width="145pt" height="139pt"
 viewBox="0.00 0.00 145.00 139.00" xmlns="http://www.w3.org/2000/svg" xmlns:xlink="http://www.w3.org/1999/xlink">
<g id="graph0" class="graph" transform="scale(1 1) rotate(0) translate(4 135)">
<title>/bitrise/src/Source/AR6/InstantOn/include/AR6/InstantOn/framework/platform/machine.h</title>
<polygon fill="white" stroke="none" points="-4,4 -4,-135 141,-135 141,4 -4,4"/>
<!-- Node1 -->
<g id="node1" class="node"><title>Node1</title>
<polygon fill="#bfbfbf" stroke="black" points="1.5,-78.5 1.5,-130.5 135.5,-130.5 135.5,-78.5 1.5,-78.5"/>
<text text-anchor="start" x="9.5" y="-118.5" font-family="Helvetica,sans-Serif" font-size="10.00">/bitrise/src/Source</text>
<text text-anchor="start" x="9.5" y="-107.5" font-family="Helvetica,sans-Serif" font-size="10.00">/AR6/InstantOn/include</text>
<text text-anchor="start" x="9.5" y="-96.5" font-family="Helvetica,sans-Serif" font-size="10.00">/AR6/InstantOn/framework</text>
<text text-anchor="middle" x="68.5" y="-85.5" font-family="Helvetica,sans-Serif" font-size="10.00">/platform/machine.h</text>
</g>
<!-- Node2 -->
<g id="node2" class="node"><title>Node2</title>
<g id="a_node2"><a xlink:href="feature__point_8cpp.html" target="_top" xlink:title="/bitrise/src/Source\l/AR6/InstantOn/cv/features\l/feature_point.cpp">
<polygon fill="white" stroke="black" points="0,-0.5 0,-41.5 137,-41.5 137,-0.5 0,-0.5"/>
<text text-anchor="start" x="8" y="-29.5" font-family="Helvetica,sans-Serif" font-size="10.00">/bitrise/src/Source</text>
<text text-anchor="start" x="8" y="-18.5" font-family="Helvetica,sans-Serif" font-size="10.00">/AR6/InstantOn/cv/features</text>
<text text-anchor="middle" x="68.5" y="-7.5" font-family="Helvetica,sans-Serif" font-size="10.00">/feature_point.cpp</text>
</a>
</g>
</g>
<!-- Node1&#45;&gt;Node2 -->
<g id="edge1" class="edge"><title>Node1&#45;&gt;Node2</title>
<path fill="none" stroke="midnightblue" d="M68.5,-68.1474C68.5,-59.0546 68.5,-49.5968 68.5,-41.6282"/>
<polygon fill="midnightblue" stroke="midnightblue" points="65.0001,-68.1596 68.5,-78.1596 72.0001,-68.1597 65.0001,-68.1596"/>
</g>
</g>
</svg>
