<?xml version="1.0" encoding="UTF-8" standalone="no"?>
<!DOCTYPE svg PUBLIC "-//W3C//DTD SVG 1.1//EN"
 "http://www.w3.org/Graphics/SVG/1.1/DTD/svg11.dtd">
<!-- Generated by graphviz version 2.38.0 (20140413.2041)
 -->
<!-- Title: /bitrise/src/Source/AR6/InstantOn/include/AR6/InstantOn/math/homography.h Pages: 1 -->
<!--zoomable 484 -->
<svg id="main" version="1.1" xmlns="http://www.w3.org/2000/svg" xmlns:xlink="http://www.w3.org/1999/xlink" xml:space="preserve" onload="init(evt)">
<style type="text/css"><![CDATA[
.edge:hover path { stroke: red; }
.edge:hover polygon { stroke: red; fill: red; }
]]></style>
<script type="text/javascript"><![CDATA[
var edges = document.getElementsByTagName('g');
if (edges && edges.length) {
  for (var i=0;i<edges.length;i++) {
    if (edges[i].id.substr(0,4)=='edge') {
      edges[i].setAttribute('class','edge');
    }
  }
}
]]></script>
        <defs>
                <circle id="rim" cx="0" cy="0" r="7"/>
                <circle id="rim2" cx="0" cy="0" r="3.5"/>
                <g id="zoomPlus">
                        <use xlink:href="#rim" fill="#404040">
                                <set attributeName="fill" to="#808080" begin="zoomplus.mouseover" end="zoomplus.mouseout"/>
                        </use>
                        <path d="M-4,0h8M0,-4v8" fill="none" stroke="white" stroke-width="1.5" pointer-events="none"/>
                </g>
                <g id="zoomMin">
                        <use xlink:href="#rim" fill="#404040">
                                <set attributeName="fill" to="#808080" begin="zoomminus.mouseover" end="zoomminus.mouseout"/>
                        </use>
                        <path d="M-4,0h8" fill="none" stroke="white" stroke-width="1.5" pointer-events="none"/>
                </g>
                <g id="dirArrow">
                        <path fill="none" stroke="white" stroke-width="1.5" d="M0,-3.0v7 M-2.5,-0.5L0,-3.0L2.5,-0.5"/>
                </g>
               <g id="resetDef">
                       <use xlink:href="#rim2" fill="#404040">
                               <set attributeName="fill" to="#808080" begin="reset.mouseover" end="reset.mouseout"/>
                       </use>
               </g>
        </defs>

<script type="text/javascript">
var viewWidth = 802;
var viewHeight = 484;
var sectionId = 'dynsection-1';
</script>
<script xlink:href="svgpan.js"/>
<svg id="graph" class="graph">
<g id="viewport">
<title>/bitrise/src/Source/AR6/InstantOn/include/AR6/InstantOn/math/homography.h</title>
<polygon fill="white" stroke="none" points="-4,4 -4,-480 798,-480 798,4 -4,4"/>
<!-- Node1 -->
<g id="node1" class="node"><title>Node1</title>
<polygon fill="#bfbfbf" stroke="black" points="232.5,-434.5 232.5,-475.5 406.5,-475.5 406.5,-434.5 232.5,-434.5"/>
<text text-anchor="start" x="240.5" y="-463.5" font-family="Helvetica,sans-Serif" font-size="10.00">/bitrise/src/Source</text>
<text text-anchor="start" x="240.5" y="-452.5" font-family="Helvetica,sans-Serif" font-size="10.00">/AR6/InstantOn/include</text>
<text text-anchor="middle" x="319.5" y="-441.5" font-family="Helvetica,sans-Serif" font-size="10.00">/AR6/InstantOn/math/homography.h</text>
</g>
<!-- Node2 -->
<g id="node2" class="node"><title>Node2</title>
<g id="a_node2"><a xlink:href="harris__ncc__tracker_8cpp.html" target="_top" xlink:title="/bitrise/src/Source\l/AR6/InstantOn/cv/trackers\l/harris_ncc_tracker.cpp">
<polygon fill="white" stroke="black" points="57,-84 57,-125 194,-125 194,-84 57,-84"/>
<text text-anchor="start" x="65" y="-113" font-family="Helvetica,sans-Serif" font-size="10.00">/bitrise/src/Source</text>
<text text-anchor="start" x="65" y="-102" font-family="Helvetica,sans-Serif" font-size="10.00">/AR6/InstantOn/cv/trackers</text>
<text text-anchor="middle" x="125.5" y="-91" font-family="Helvetica,sans-Serif" font-size="10.00">/harris_ncc_tracker.cpp</text>
</a>
</g>
</g>
<!-- Node1&#45;&gt;Node2 -->
<g id="edge1" class="edge"><title>Node1&#45;&gt;Node2</title>
<path fill="none" stroke="midnightblue" d="M222.179,-442.884C165.872,-434.226 102.799,-419.927 85.5,-398 20.1043,-315.107 85.8557,-176.22 114.034,-125.129"/>
<polygon fill="midnightblue" stroke="midnightblue" points="221.83,-446.371 232.237,-444.383 222.862,-439.447 221.83,-446.371"/>
</g>
<!-- Node3 -->
<g id="node3" class="node"><title>Node3</title>
<g id="a_node3"><a xlink:href="homography__tracker__filter_8cpp.html" target="_top" xlink:title="/bitrise/src/Source\l/AR6/InstantOn/extensions\l/homography_tracker_filter.cpp">
<polygon fill="white" stroke="black" points="0,-0.5 0,-41.5 151,-41.5 151,-0.5 0,-0.5"/>
<text text-anchor="start" x="8" y="-29.5" font-family="Helvetica,sans-Serif" font-size="10.00">/bitrise/src/Source</text>
<text text-anchor="start" x="8" y="-18.5" font-family="Helvetica,sans-Serif" font-size="10.00">/AR6/InstantOn/extensions</text>
<text text-anchor="middle" x="75.5" y="-7.5" font-family="Helvetica,sans-Serif" font-size="10.00">/homography_tracker_filter.cpp</text>
</a>
</g>
</g>
<!-- Node1&#45;&gt;Node3 -->
<g id="edge2" class="edge"><title>Node1&#45;&gt;Node3</title>
<path fill="none" stroke="midnightblue" d="M222.079,-443.781C158.076,-435.116 81.9895,-420.458 58.5,-398 20.476,-361.646 28.5,-336.107 28.5,-283.5 28.5,-283.5 28.5,-283.5 28.5,-192.5 28.5,-140.915 31.5651,-127.062 47.5,-78 51.5965,-65.3874 58.1476,-52.078 63.8835,-41.6003"/>
<polygon fill="midnightblue" stroke="midnightblue" points="221.866,-447.283 232.238,-445.12 222.781,-440.343 221.866,-447.283"/>
</g>
<!-- Node4 -->
<g id="node4" class="node"><title>Node4</title>
<g id="a_node4"><a xlink:href="pinhole__lens__model_8h.html" target="_top" xlink:title="/bitrise/src/Source\l/AR6/InstantOn/include\l/AR6/InstantOn/cv/geometry\l/pinhole_lens_model.h">
<polygon fill="white" stroke="black" points="94.5,-345.5 94.5,-397.5 236.5,-397.5 236.5,-345.5 94.5,-345.5"/>
<text text-anchor="start" x="102.5" y="-385.5" font-family="Helvetica,sans-Serif" font-size="10.00">/bitrise/src/Source</text>
<text text-anchor="start" x="102.5" y="-374.5" font-family="Helvetica,sans-Serif" font-size="10.00">/AR6/InstantOn/include</text>
<text text-anchor="start" x="102.5" y="-363.5" font-family="Helvetica,sans-Serif" font-size="10.00">/AR6/InstantOn/cv/geometry</text>
<text text-anchor="middle" x="165.5" y="-352.5" font-family="Helvetica,sans-Serif" font-size="10.00">/pinhole_lens_model.h</text>
</a>
</g>
</g>
<!-- Node1&#45;&gt;Node4 -->
<g id="edge3" class="edge"><title>Node1&#45;&gt;Node4</title>
<path fill="none" stroke="midnightblue" d="M273.753,-429.79C254.561,-419.633 232.248,-407.824 212.884,-397.576"/>
<polygon fill="midnightblue" stroke="midnightblue" points="272.137,-432.895 282.613,-434.479 275.412,-426.708 272.137,-432.895"/>
</g>
<!-- Node5 -->
<g id="node5" class="node"><title>Node5</title>
<g id="a_node5"><a xlink:href="radial__lens__model_8h.html" target="_top" xlink:title="/bitrise/src/Source\l/AR6/InstantOn/include\l/AR6/InstantOn/cv/geometry\l/radial_lens_model.h">
<polygon fill="white" stroke="black" points="113.5,-256.5 113.5,-308.5 255.5,-308.5 255.5,-256.5 113.5,-256.5"/>
<text text-anchor="start" x="121.5" y="-296.5" font-family="Helvetica,sans-Serif" font-size="10.00">/bitrise/src/Source</text>
<text text-anchor="start" x="121.5" y="-285.5" font-family="Helvetica,sans-Serif" font-size="10.00">/AR6/InstantOn/include</text>
<text text-anchor="start" x="121.5" y="-274.5" font-family="Helvetica,sans-Serif" font-size="10.00">/AR6/InstantOn/cv/geometry</text>
<text text-anchor="middle" x="184.5" y="-263.5" font-family="Helvetica,sans-Serif" font-size="10.00">/radial_lens_model.h</text>
</a>
</g>
</g>
<!-- Node1&#45;&gt;Node5 -->
<g id="edge5" class="edge"><title>Node1&#45;&gt;Node5</title>
<path fill="none" stroke="midnightblue" d="M301.199,-425.786C283.331,-398.474 257.176,-359.18 245.5,-345 235.08,-332.346 222.475,-319.318 211.434,-308.529"/>
<polygon fill="midnightblue" stroke="midnightblue" points="298.285,-427.724 306.681,-434.186 304.147,-423.899 298.285,-427.724"/>
</g>
<!-- Node6 -->
<g id="node6" class="node"><title>Node6</title>
<g id="a_node6"><a xlink:href="homography__solver_8h.html" target="_top" xlink:title="/bitrise/src/Source\l/AR6/InstantOn/include\l/AR6/InstantOn/cv/homography\l_estimation/homography_solver.h">
<polygon fill="white" stroke="black" points="293,-345.5 293,-397.5 456,-397.5 456,-345.5 293,-345.5"/>
<text text-anchor="start" x="301" y="-385.5" font-family="Helvetica,sans-Serif" font-size="10.00">/bitrise/src/Source</text>
<text text-anchor="start" x="301" y="-374.5" font-family="Helvetica,sans-Serif" font-size="10.00">/AR6/InstantOn/include</text>
<text text-anchor="start" x="301" y="-363.5" font-family="Helvetica,sans-Serif" font-size="10.00">/AR6/InstantOn/cv/homography</text>
<text text-anchor="middle" x="374.5" y="-352.5" font-family="Helvetica,sans-Serif" font-size="10.00">_estimation/homography_solver.h</text>
</a>
</g>
</g>
<!-- Node1&#45;&gt;Node6 -->
<g id="edge6" class="edge"><title>Node1&#45;&gt;Node6</title>
<path fill="none" stroke="midnightblue" d="M338.508,-425.834C344.699,-416.66 351.527,-406.542 357.556,-397.607"/>
<polygon fill="midnightblue" stroke="midnightblue" points="335.507,-424.024 332.814,-434.271 341.309,-427.94 335.507,-424.024"/>
</g>
<!-- Node7 -->
<g id="node7" class="node"><title>Node7</title>
<g id="a_node7"><a xlink:href="robust__homography_8h.html" target="_top" xlink:title="/bitrise/src/Source\l/AR6/InstantOn/include\l/AR6/InstantOn/cv/homography\l_estimation/robust_homography.h">
<polygon fill="white" stroke="black" points="292.5,-256.5 292.5,-308.5 456.5,-308.5 456.5,-256.5 292.5,-256.5"/>
<text text-anchor="start" x="300.5" y="-296.5" font-family="Helvetica,sans-Serif" font-size="10.00">/bitrise/src/Source</text>
<text text-anchor="start" x="300.5" y="-285.5" font-family="Helvetica,sans-Serif" font-size="10.00">/AR6/InstantOn/include</text>
<text text-anchor="start" x="300.5" y="-274.5" font-family="Helvetica,sans-Serif" font-size="10.00">/AR6/InstantOn/cv/homography</text>
<text text-anchor="middle" x="374.5" y="-263.5" font-family="Helvetica,sans-Serif" font-size="10.00">_estimation/robust_homography.h</text>
</a>
</g>
</g>
<!-- Node1&#45;&gt;Node7 -->
<g id="edge13" class="edge"><title>Node1&#45;&gt;Node7</title>
<path fill="none" stroke="midnightblue" d="M415.928,-435.64C435.406,-427.371 453.551,-415.381 465.5,-398 478.845,-378.589 476.549,-365.803 465.5,-345 457.54,-330.012 444.115,-318.012 429.989,-308.734"/>
<polygon fill="midnightblue" stroke="midnightblue" points="414.628,-432.39 406.593,-439.295 417.18,-438.908 414.628,-432.39"/>
</g>
<!-- Node11 -->
<g id="node11" class="node"><title>Node11</title>
<g id="a_node11"><a xlink:href="robust__pnp_8h.html" target="_top" xlink:title="/bitrise/src/Source\l/AR6/InstantOn/include\l/AR6/InstantOn/cv/pnp\l_estimation/robust_pnp.h">
<polygon fill="white" stroke="black" points="512.5,-345.5 512.5,-397.5 638.5,-397.5 638.5,-345.5 512.5,-345.5"/>
<text text-anchor="start" x="520.5" y="-385.5" font-family="Helvetica,sans-Serif" font-size="10.00">/bitrise/src/Source</text>
<text text-anchor="start" x="520.5" y="-374.5" font-family="Helvetica,sans-Serif" font-size="10.00">/AR6/InstantOn/include</text>
<text text-anchor="start" x="520.5" y="-363.5" font-family="Helvetica,sans-Serif" font-size="10.00">/AR6/InstantOn/cv/pnp</text>
<text text-anchor="middle" x="575.5" y="-352.5" font-family="Helvetica,sans-Serif" font-size="10.00">_estimation/robust_pnp.h</text>
</a>
</g>
</g>
<!-- Node1&#45;&gt;Node11 -->
<g id="edge14" class="edge"><title>Node1&#45;&gt;Node11</title>
<path fill="none" stroke="midnightblue" d="M392.811,-431.366C425.239,-421.276 463.81,-409.17 498.5,-398 503.057,-396.533 507.763,-395.005 512.496,-393.459"/>
<polygon fill="midnightblue" stroke="midnightblue" points="391.465,-428.119 382.955,-434.429 393.543,-434.803 391.465,-428.119"/>
</g>
<!-- Node12 -->
<g id="node12" class="node"><title>Node12</title>
<g id="a_node12"><a xlink:href="homography__tracker_8h.html" target="_top" xlink:title="/bitrise/src/Source\l/AR6/InstantOn/include\l/AR6/InstantOn/cv/trackers\l/homography_tracker.h">
<polygon fill="white" stroke="black" points="657,-345.5 657,-397.5 794,-397.5 794,-345.5 657,-345.5"/>
<text text-anchor="start" x="665" y="-385.5" font-family="Helvetica,sans-Serif" font-size="10.00">/bitrise/src/Source</text>
<text text-anchor="start" x="665" y="-374.5" font-family="Helvetica,sans-Serif" font-size="10.00">/AR6/InstantOn/include</text>
<text text-anchor="start" x="665" y="-363.5" font-family="Helvetica,sans-Serif" font-size="10.00">/AR6/InstantOn/cv/trackers</text>
<text text-anchor="middle" x="725.5" y="-352.5" font-family="Helvetica,sans-Serif" font-size="10.00">/homography_tracker.h</text>
</a>
</g>
</g>
<!-- Node1&#45;&gt;Node12 -->
<g id="edge15" class="edge"><title>Node1&#45;&gt;Node12</title>
<path fill="none" stroke="midnightblue" d="M416.475,-441.263C482.179,-431.702 570.691,-417.003 647.5,-398 650.543,-397.247 653.638,-396.436 656.755,-395.581"/>
<polygon fill="midnightblue" stroke="midnightblue" points="415.939,-437.804 406.541,-442.695 416.938,-444.732 415.939,-437.804"/>
</g>
<!-- Node4&#45;&gt;Node5 -->
<g id="edge4" class="edge"><title>Node4&#45;&gt;Node5</title>
<path fill="none" stroke="midnightblue" d="M173.148,-335.481C175.112,-326.487 177.186,-316.989 179.017,-308.607"/>
<polygon fill="midnightblue" stroke="midnightblue" points="169.71,-334.819 170.996,-345.336 176.549,-336.313 169.71,-334.819"/>
</g>
<!-- Node6&#45;&gt;Node7 -->
<g id="edge7" class="edge"><title>Node6&#45;&gt;Node7</title>
<path fill="none" stroke="midnightblue" d="M374.5,-335.191C374.5,-326.282 374.5,-316.899 374.5,-308.607"/>
<polygon fill="midnightblue" stroke="midnightblue" points="371,-335.336 374.5,-345.336 378,-335.336 371,-335.336"/>
</g>
<!-- Node8 -->
<g id="node8" class="node"><title>Node8</title>
<g id="a_node8"><a xlink:href="harris__ncc__tracker_8h.html" target="_top" xlink:title="/bitrise/src/Source\l/AR6/InstantOn/include\l/AR6/InstantOn/cv/trackers\l/harris_ncc_tracker.h">
<polygon fill="white" stroke="black" points="214,-167.5 214,-219.5 351,-219.5 351,-167.5 214,-167.5"/>
<text text-anchor="start" x="222" y="-207.5" font-family="Helvetica,sans-Serif" font-size="10.00">/bitrise/src/Source</text>
<text text-anchor="start" x="222" y="-196.5" font-family="Helvetica,sans-Serif" font-size="10.00">/AR6/InstantOn/include</text>
<text text-anchor="start" x="222" y="-185.5" font-family="Helvetica,sans-Serif" font-size="10.00">/AR6/InstantOn/cv/trackers</text>
<text text-anchor="middle" x="282.5" y="-174.5" font-family="Helvetica,sans-Serif" font-size="10.00">/harris_ncc_tracker.h</text>
</a>
</g>
</g>
<!-- Node7&#45;&gt;Node8 -->
<g id="edge8" class="edge"><title>Node7&#45;&gt;Node8</title>
<path fill="none" stroke="midnightblue" d="M340.516,-249.363C330.131,-239.542 318.866,-228.89 309.05,-219.607"/>
<polygon fill="midnightblue" stroke="midnightblue" points="338.219,-252.008 347.89,-256.336 343.029,-246.922 338.219,-252.008"/>
</g>
<!-- Node8&#45;&gt;Node2 -->
<g id="edge9" class="edge"><title>Node8&#45;&gt;Node2</title>
<path fill="none" stroke="midnightblue" d="M228.066,-162.336C205.79,-149.992 180.652,-136.062 160.838,-125.082"/>
<polygon fill="midnightblue" stroke="midnightblue" points="226.646,-165.55 237.089,-167.336 230.039,-159.428 226.646,-165.55"/>
</g>
<!-- Node9 -->
<g id="node9" class="node"><title>Node9</title>
<g id="a_node9"><a xlink:href="homography__tracker__filter_8h.html" target="_top" xlink:title="/bitrise/src/Source\l/AR6/InstantOn/include\l/AR6/InstantOn/extensions\l/homography_tracker_filter.h">
<polygon fill="white" stroke="black" points="212.5,-78.5 212.5,-130.5 352.5,-130.5 352.5,-78.5 212.5,-78.5"/>
<text text-anchor="start" x="220.5" y="-118.5" font-family="Helvetica,sans-Serif" font-size="10.00">/bitrise/src/Source</text>
<text text-anchor="start" x="220.5" y="-107.5" font-family="Helvetica,sans-Serif" font-size="10.00">/AR6/InstantOn/include</text>
<text text-anchor="start" x="220.5" y="-96.5" font-family="Helvetica,sans-Serif" font-size="10.00">/AR6/InstantOn/extensions</text>
<text text-anchor="middle" x="282.5" y="-85.5" font-family="Helvetica,sans-Serif" font-size="10.00">/homography_tracker_filter.h</text>
</a>
</g>
</g>
<!-- Node8&#45;&gt;Node9 -->
<g id="edge10" class="edge"><title>Node8&#45;&gt;Node9</title>
<path fill="none" stroke="midnightblue" d="M282.5,-157.191C282.5,-148.282 282.5,-138.899 282.5,-130.607"/>
<polygon fill="midnightblue" stroke="midnightblue" points="279,-157.336 282.5,-167.336 286,-157.336 279,-157.336"/>
</g>
<!-- Node9&#45;&gt;Node3 -->
<g id="edge11" class="edge"><title>Node9&#45;&gt;Node3</title>
<path fill="none" stroke="midnightblue" d="M209.636,-74.8121C181.655,-63.7954 150.391,-51.4859 125.089,-41.5241"/>
<polygon fill="midnightblue" stroke="midnightblue" points="208.399,-78.0866 218.986,-78.4934 210.964,-71.5732 208.399,-78.0866"/>
</g>
<!-- Node10 -->
<g id="node10" class="node"><title>Node10</title>
<g id="a_node10"><a xlink:href="_vision4d-_instant_on_8cpp.html" target="_top" xlink:title="/bitrise/src/Source\l/AR6/InstantOn/extensions\l/Vision4d&#45;InstantOn.cpp">
<polygon fill="white" stroke="black" points="215,-0.5 215,-41.5 350,-41.5 350,-0.5 215,-0.5"/>
<text text-anchor="start" x="223" y="-29.5" font-family="Helvetica,sans-Serif" font-size="10.00">/bitrise/src/Source</text>
<text text-anchor="start" x="223" y="-18.5" font-family="Helvetica,sans-Serif" font-size="10.00">/AR6/InstantOn/extensions</text>
<text text-anchor="middle" x="282.5" y="-7.5" font-family="Helvetica,sans-Serif" font-size="10.00">/Vision4d&#45;InstantOn.cpp</text>
</a>
</g>
</g>
<!-- Node9&#45;&gt;Node10 -->
<g id="edge12" class="edge"><title>Node9&#45;&gt;Node10</title>
<path fill="none" stroke="midnightblue" d="M282.5,-68.1474C282.5,-59.0546 282.5,-49.5968 282.5,-41.6282"/>
<polygon fill="midnightblue" stroke="midnightblue" points="279,-68.1596 282.5,-78.1596 286,-68.1597 279,-68.1596"/>
</g>
</g>
</svg>
        <g id="navigator" transform="translate(0 0)" fill="#404254">
                <rect fill="#f2f5e9" fill-opacity="0.5" stroke="#606060" stroke-width=".5" x="0" y="0" width="60" height="60"/>
                <use id="zoomplus" xlink:href="#zoomPlus" x="17" y="9" onmousedown="handleZoom(evt,'in')"/>
                <use id="zoomminus" xlink:href="#zoomMin" x="42" y="9" onmousedown="handleZoom(evt,'out')"/>
                <use id="reset" xlink:href="#resetDef" x="30" y="36" onmousedown="handleReset()"/>
                <g id="arrowUp" xlink:href="#dirArrow" transform="translate(30 24)" onmousedown="handlePan(0,-1)">
                  <use xlink:href="#rim" fill="#404040">
                        <set attributeName="fill" to="#808080" begin="arrowUp.mouseover" end="arrowUp.mouseout"/>
                  </use>
                  <path fill="none" stroke="white" stroke-width="1.5" d="M0,-3.0v7 M-2.5,-0.5L0,-3.0L2.5,-0.5"/>
                </g>
                <g id="arrowRight" xlink:href="#dirArrow" transform="rotate(90) translate(36 -43)" onmousedown="handlePan(1,0)">
                  <use xlink:href="#rim" fill="#404040">
                        <set attributeName="fill" to="#808080" begin="arrowRight.mouseover" end="arrowRight.mouseout"/>
                  </use>
                  <path fill="none" stroke="white" stroke-width="1.5" d="M0,-3.0v7 M-2.5,-0.5L0,-3.0L2.5,-0.5"/>
                </g>
                <g id="arrowDown" xlink:href="#dirArrow" transform="rotate(180) translate(-30 -48)" onmousedown="handlePan(0,1)">
                  <use xlink:href="#rim" fill="#404040">
                        <set attributeName="fill" to="#808080" begin="arrowDown.mouseover" end="arrowDown.mouseout"/>
                  </use>
                  <path fill="none" stroke="white" stroke-width="1.5" d="M0,-3.0v7 M-2.5,-0.5L0,-3.0L2.5,-0.5"/>
                </g>
                <g id="arrowLeft" xlink:href="#dirArrow" transform="rotate(270) translate(-36 17)" onmousedown="handlePan(-1,0)">
                  <use xlink:href="#rim" fill="#404040">
                        <set attributeName="fill" to="#808080" begin="arrowLeft.mouseover" end="arrowLeft.mouseout"/>
                  </use>
                  <path fill="none" stroke="white" stroke-width="1.5" d="M0,-3.0v7 M-2.5,-0.5L0,-3.0L2.5,-0.5"/>
                </g>
        </g>
        <svg viewBox="0 0 15 15" width="100%" height="30px" preserveAspectRatio="xMaxYMin meet">
         <g id="arrow_out" transform="scale(0.3 0.3)">
          <a xlink:href="math_2homography_8h__dep__incl_org.svg" target="_base">
           <rect id="button" ry="5" rx="5" y="6" x="6" height="38" width="38"
                fill="#f2f5e9" fill-opacity="0.5" stroke="#606060" stroke-width="1.0"/>
           <path id="arrow"
             d="M 11.500037,31.436501 C 11.940474,20.09759 22.043105,11.32322 32.158766,21.979434 L 37.068811,17.246167 C 37.068811,17.246167 37.088388,32 37.088388,32 L 22.160133,31.978069 C 22.160133,31.978069 26.997745,27.140456 26.997745,27.140456 C 18.528582,18.264221 13.291696,25.230495 11.500037,31.436501 z"
             style="fill:#404040;"/>
          </a>
         </g>
        </svg>
</svg>
