<?xml version="1.0" encoding="UTF-8" standalone="no"?>
<!DOCTYPE svg PUBLIC "-//W3C//DTD SVG 1.1//EN"
 "http://www.w3.org/Graphics/SVG/1.1/DTD/svg11.dtd">
<!-- Generated by graphviz version 2.38.0 (20140413.2041)
 -->
<!-- Title: /bitrise/src/Source/AR6/InstantOn/include/AR6/InstantOn/math/homography.h Pages: 1 -->
<svg width="583pt" height="285pt"
 viewBox="0.00 0.00 583.32 285.00" xmlns="http://www.w3.org/2000/svg" xmlns:xlink="http://www.w3.org/1999/xlink">
<g id="graph0" class="graph" transform="scale(1 1) rotate(0) translate(4 281)">
<title>/bitrise/src/Source/AR6/InstantOn/include/AR6/InstantOn/math/homography.h</title>
<polygon fill="white" stroke="none" points="-4,4 -4,-281 579.319,-281 579.319,4 -4,4"/>
<!-- Node1 -->
<g id="node1" class="node"><title>Node1</title>
<polygon fill="#bfbfbf" stroke="black" points="175.819,-235.5 175.819,-276.5 349.819,-276.5 349.819,-235.5 175.819,-235.5"/>
<text text-anchor="start" x="183.819" y="-264.5" font-family="Helvetica,sans-Serif" font-size="10.00">/bitrise/src/Source</text>
<text text-anchor="start" x="183.819" y="-253.5" font-family="Helvetica,sans-Serif" font-size="10.00">/AR6/InstantOn/include</text>
<text text-anchor="middle" x="262.819" y="-242.5" font-family="Helvetica,sans-Serif" font-size="10.00">/AR6/InstantOn/math/homography.h</text>
</g>
<!-- Node2 -->
<g id="node2" class="node"><title>Node2</title>
<polygon fill="white" stroke="#bfbfbf" points="16.8194,-6 16.8194,-25 60.8194,-25 60.8194,-6 16.8194,-6"/>
<text text-anchor="middle" x="38.8194" y="-13" font-family="Helvetica,sans-Serif" font-size="10.00">cmath</text>
</g>
<!-- Node1&#45;&gt;Node2 -->
<g id="edge1" class="edge"><title>Node1&#45;&gt;Node2</title>
<path fill="none" stroke="midnightblue" d="M196.493,-235.432C131.729,-212.134 37.9507,-166.072 2.81939,-87 -5.67007,-67.8924 8.64593,-46.596 21.6593,-32.4611"/>
<polygon fill="midnightblue" stroke="midnightblue" points="24.4538,-34.6123 28.9885,-25.0369 19.4723,-29.6945 24.4538,-34.6123"/>
</g>
<!-- Node3 -->
<g id="node3" class="node"><title>Node3</title>
<g id="a_node3"><a xlink:href="linear__algebra_8h.html" target="_top" xlink:title="linear_algebra.h">
<polygon fill="white" stroke="black" points="220.319,-123.5 220.319,-142.5 305.319,-142.5 305.319,-123.5 220.319,-123.5"/>
<text text-anchor="middle" x="262.819" y="-130.5" font-family="Helvetica,sans-Serif" font-size="10.00">linear_algebra.h</text>
</a>
</g>
</g>
<!-- Node1&#45;&gt;Node3 -->
<g id="edge2" class="edge"><title>Node1&#45;&gt;Node3</title>
<path fill="none" stroke="midnightblue" d="M262.819,-235.29C262.819,-212.48 262.819,-175.189 262.819,-152.781"/>
<polygon fill="midnightblue" stroke="midnightblue" points="266.319,-152.575 262.819,-142.575 259.319,-152.575 266.319,-152.575"/>
</g>
<!-- Node11 -->
<g id="node11" class="node"><title>Node11</title>
<g id="a_node11"><a xlink:href="indexing_8h.html" target="_top" xlink:title="indexing.h">
<polygon fill="white" stroke="black" points="448.319,-67.5 448.319,-86.5 509.319,-86.5 509.319,-67.5 448.319,-67.5"/>
<text text-anchor="middle" x="478.819" y="-74.5" font-family="Helvetica,sans-Serif" font-size="10.00">indexing.h</text>
</a>
</g>
</g>
<!-- Node1&#45;&gt;Node11 -->
<g id="edge17" class="edge"><title>Node1&#45;&gt;Node11</title>
<path fill="none" stroke="midnightblue" d="M279.393,-235.326C303.199,-207.868 349.345,-157.545 395.819,-123 412.754,-110.412 433.646,-99.1044 450.233,-90.9731"/>
<polygon fill="midnightblue" stroke="midnightblue" points="451.929,-94.0413 459.438,-86.5669 448.907,-87.7272 451.929,-94.0413"/>
</g>
<!-- Node15 -->
<g id="node15" class="node"><title>Node15</title>
<g id="a_node15"><a xlink:href="geometry_8h.html" target="_top" xlink:title="geometry.h">
<polygon fill="white" stroke="black" points="400.319,-179.5 400.319,-198.5 465.319,-198.5 465.319,-179.5 400.319,-179.5"/>
<text text-anchor="middle" x="432.819" y="-186.5" font-family="Helvetica,sans-Serif" font-size="10.00">geometry.h</text>
</a>
</g>
</g>
<!-- Node1&#45;&gt;Node15 -->
<g id="edge18" class="edge"><title>Node1&#45;&gt;Node15</title>
<path fill="none" stroke="midnightblue" d="M313.825,-235.498C342.019,-224.718 376.188,-211.653 400.665,-202.294"/>
<polygon fill="midnightblue" stroke="midnightblue" points="402.099,-205.493 410.19,-198.652 399.599,-198.955 402.099,-205.493"/>
</g>
<!-- Node17 -->
<g id="node17" class="node"><title>Node17</title>
<g id="a_node17"><a xlink:href="quaternion_8h.html" target="_top" xlink:title="quaternion.h">
<polygon fill="white" stroke="black" points="156.819,-179.5 156.819,-198.5 226.819,-198.5 226.819,-179.5 156.819,-179.5"/>
<text text-anchor="middle" x="191.819" y="-186.5" font-family="Helvetica,sans-Serif" font-size="10.00">quaternion.h</text>
</a>
</g>
</g>
<!-- Node1&#45;&gt;Node17 -->
<g id="edge22" class="edge"><title>Node1&#45;&gt;Node17</title>
<path fill="none" stroke="midnightblue" d="M241.517,-235.498C231.05,-225.915 218.612,-214.528 208.797,-205.543"/>
<polygon fill="midnightblue" stroke="midnightblue" points="211.01,-202.824 201.271,-198.652 206.283,-207.987 211.01,-202.824"/>
</g>
<!-- Node4 -->
<g id="node4" class="node"><title>Node4</title>
<g id="a_node4"><a xlink:href="math__utils_8h.html" target="_top" xlink:title="math_utils.h">
<polygon fill="white" stroke="black" points="85.8194,-67.5 85.8194,-86.5 155.819,-86.5 155.819,-67.5 85.8194,-67.5"/>
<text text-anchor="middle" x="120.819" y="-74.5" font-family="Helvetica,sans-Serif" font-size="10.00">math_utils.h</text>
</a>
</g>
</g>
<!-- Node3&#45;&gt;Node4 -->
<g id="edge3" class="edge"><title>Node3&#45;&gt;Node4</title>
<path fill="none" stroke="midnightblue" d="M240.319,-123.444C216.742,-114.478 179.497,-100.314 152.855,-90.1827"/>
<polygon fill="midnightblue" stroke="midnightblue" points="153.805,-86.7995 143.214,-86.5164 151.317,-93.3424 153.805,-86.7995"/>
</g>
<!-- Node6 -->
<g id="node6" class="node"><title>Node6</title>
<g id="a_node6"><a xlink:href="_instant_on_2include_2_a_r6_2_instant_on_2math_2matrix_8h.html" target="_top" xlink:title="matrix.h">
<polygon fill="white" stroke="black" points="269.819,-67.5 269.819,-86.5 321.819,-86.5 321.819,-67.5 269.819,-67.5"/>
<text text-anchor="middle" x="295.819" y="-74.5" font-family="Helvetica,sans-Serif" font-size="10.00">matrix.h</text>
</a>
</g>
</g>
<!-- Node3&#45;&gt;Node6 -->
<g id="edge6" class="edge"><title>Node3&#45;&gt;Node6</title>
<path fill="none" stroke="midnightblue" d="M268.269,-123.083C272.834,-115.613 279.488,-104.724 285.113,-95.5199"/>
<polygon fill="midnightblue" stroke="midnightblue" points="288.243,-97.109 290.472,-86.7511 282.27,-93.4588 288.243,-97.109"/>
</g>
<!-- Node7 -->
<g id="node7" class="node"><title>Node7</title>
<g id="a_node7"><a xlink:href="vector_8h.html" target="_top" xlink:title="vector.h">
<polygon fill="white" stroke="black" points="318.819,-6 318.819,-25 370.819,-25 370.819,-6 318.819,-6"/>
<text text-anchor="middle" x="344.819" y="-13" font-family="Helvetica,sans-Serif" font-size="10.00">vector.h</text>
</a>
</g>
</g>
<!-- Node3&#45;&gt;Node7 -->
<g id="edge10" class="edge"><title>Node3&#45;&gt;Node7</title>
<path fill="none" stroke="midnightblue" d="M283.954,-123.416C299.363,-116.049 319.459,-103.926 330.819,-87 341.127,-71.6427 344.192,-50.4357 344.945,-35.3008"/>
<polygon fill="midnightblue" stroke="midnightblue" points="348.448,-35.1772 345.153,-25.108 341.45,-35.0347 348.448,-35.1772"/>
</g>
<!-- Node9 -->
<g id="node9" class="node"><title>Node9</title>
<polygon fill="white" stroke="#bfbfbf" points="377.819,-67.5 377.819,-86.5 429.819,-86.5 429.819,-67.5 377.819,-67.5"/>
<text text-anchor="middle" x="403.819" y="-74.5" font-family="Helvetica,sans-Serif" font-size="10.00">assert.h</text>
</g>
<!-- Node3&#45;&gt;Node9 -->
<g id="edge11" class="edge"><title>Node3&#45;&gt;Node9</title>
<path fill="none" stroke="midnightblue" d="M285.161,-123.444C308.572,-114.478 345.555,-100.314 372.009,-90.1827"/>
<polygon fill="midnightblue" stroke="midnightblue" points="373.495,-93.3615 381.582,-86.5164 370.992,-86.8245 373.495,-93.3615"/>
</g>
<!-- Node10 -->
<g id="node10" class="node"><title>Node10</title>
<polygon fill="white" stroke="#bfbfbf" points="211.819,-67.5 211.819,-86.5 251.819,-86.5 251.819,-67.5 211.819,-67.5"/>
<text text-anchor="middle" x="231.819" y="-74.5" font-family="Helvetica,sans-Serif" font-size="10.00">limits</text>
</g>
<!-- Node3&#45;&gt;Node10 -->
<g id="edge12" class="edge"><title>Node3&#45;&gt;Node10</title>
<path fill="none" stroke="midnightblue" d="M257.7,-123.083C253.412,-115.613 247.161,-104.724 241.877,-95.5199"/>
<polygon fill="midnightblue" stroke="midnightblue" points="244.857,-93.6811 236.843,-86.7511 238.786,-97.1662 244.857,-93.6811"/>
</g>
<!-- Node3&#45;&gt;Node11 -->
<g id="edge13" class="edge"><title>Node3&#45;&gt;Node11</title>
<path fill="none" stroke="midnightblue" d="M297.045,-123.444C335.428,-113.848 397.623,-98.2991 438.375,-88.1111"/>
<polygon fill="midnightblue" stroke="midnightblue" points="439.394,-91.4643 448.246,-85.6433 437.696,-84.6733 439.394,-91.4643"/>
</g>
<!-- Node4&#45;&gt;Node2 -->
<g id="edge4" class="edge"><title>Node4&#45;&gt;Node2</title>
<path fill="none" stroke="midnightblue" d="M109.071,-67.4751C96.04,-58.0199 74.7838,-42.5961 59.0605,-31.1871"/>
<polygon fill="midnightblue" stroke="midnightblue" points="60.6955,-28.0492 50.5462,-25.0091 56.5844,-33.7149 60.6955,-28.0492"/>
</g>
<!-- Node5 -->
<g id="node5" class="node"><title>Node5</title>
<polygon fill="white" stroke="#bfbfbf" points="132.819,-0.5 132.819,-30.5 234.819,-30.5 234.819,-0.5 132.819,-0.5"/>
<text text-anchor="start" x="140.819" y="-18.5" font-family="Helvetica,sans-Serif" font-size="10.00">artvision/framework</text>
<text text-anchor="middle" x="183.819" y="-7.5" font-family="Helvetica,sans-Serif" font-size="10.00">/error.h</text>
</g>
<!-- Node4&#45;&gt;Node5 -->
<g id="edge5" class="edge"><title>Node4&#45;&gt;Node5</title>
<path fill="none" stroke="midnightblue" d="M129.846,-67.4751C138.059,-59.7179 150.526,-47.9435 161.41,-37.6645"/>
<polygon fill="midnightblue" stroke="midnightblue" points="164.105,-39.9338 168.972,-30.523 159.298,-34.8447 164.105,-39.9338"/>
</g>
<!-- Node6&#45;&gt;Node5 -->
<g id="edge7" class="edge"><title>Node6&#45;&gt;Node5</title>
<path fill="none" stroke="midnightblue" d="M279.773,-67.4751C264.037,-59.1154 239.519,-46.0902 219.206,-35.2991"/>
<polygon fill="midnightblue" stroke="midnightblue" points="220.689,-32.1237 210.216,-30.523 217.405,-38.3055 220.689,-32.1237"/>
</g>
<!-- Node6&#45;&gt;Node7 -->
<g id="edge8" class="edge"><title>Node6&#45;&gt;Node7</title>
<path fill="none" stroke="midnightblue" d="M302.84,-67.4751C310.263,-58.4617 322.152,-44.0246 331.386,-32.8118"/>
<polygon fill="midnightblue" stroke="midnightblue" points="334.157,-34.9534 337.812,-25.0091 328.753,-30.5034 334.157,-34.9534"/>
</g>
<!-- Node8 -->
<g id="node8" class="node"><title>Node8</title>
<polygon fill="white" stroke="#bfbfbf" points="256.819,-6 256.819,-25 300.819,-25 300.819,-6 256.819,-6"/>
<text text-anchor="middle" x="278.819" y="-13" font-family="Helvetica,sans-Serif" font-size="10.00">vector</text>
</g>
<!-- Node6&#45;&gt;Node8 -->
<g id="edge9" class="edge"><title>Node6&#45;&gt;Node8</title>
<path fill="none" stroke="midnightblue" d="M293.384,-67.4751C290.96,-58.9919 287.163,-45.7043 284.054,-34.8222"/>
<polygon fill="midnightblue" stroke="midnightblue" points="287.363,-33.6628 281.251,-25.0091 280.633,-35.5859 287.363,-33.6628"/>
</g>
<!-- Node12 -->
<g id="node12" class="node"><title>Node12</title>
<polygon fill="white" stroke="#bfbfbf" points="388.819,-6 388.819,-25 440.819,-25 440.819,-6 388.819,-6"/>
<text text-anchor="middle" x="414.819" y="-13" font-family="Helvetica,sans-Serif" font-size="10.00">memory</text>
</g>
<!-- Node11&#45;&gt;Node12 -->
<g id="edge14" class="edge"><title>Node11&#45;&gt;Node12</title>
<path fill="none" stroke="midnightblue" d="M469.65,-67.4751C459.67,-58.1966 443.507,-43.1706 431.31,-31.831"/>
<polygon fill="midnightblue" stroke="midnightblue" points="433.679,-29.2547 423.972,-25.0091 428.913,-34.3814 433.679,-29.2547"/>
</g>
<!-- Node13 -->
<g id="node13" class="node"><title>Node13</title>
<polygon fill="white" stroke="#bfbfbf" points="459.319,-6 459.319,-25 508.319,-25 508.319,-6 459.319,-6"/>
<text text-anchor="middle" x="483.819" y="-13" font-family="Helvetica,sans-Serif" font-size="10.00">cstddef</text>
</g>
<!-- Node11&#45;&gt;Node13 -->
<g id="edge15" class="edge"><title>Node11&#45;&gt;Node13</title>
<path fill="none" stroke="midnightblue" d="M479.536,-67.4751C480.241,-59.0803 481.342,-45.9806 482.251,-35.1631"/>
<polygon fill="midnightblue" stroke="midnightblue" points="485.755,-35.2671 483.104,-25.0091 478.779,-34.6808 485.755,-35.2671"/>
</g>
<!-- Node14 -->
<g id="node14" class="node"><title>Node14</title>
<polygon fill="white" stroke="#bfbfbf" points="526.319,-6 526.319,-25 575.319,-25 575.319,-6 526.319,-6"/>
<text text-anchor="middle" x="550.819" y="-13" font-family="Helvetica,sans-Serif" font-size="10.00">string.h</text>
</g>
<!-- Node11&#45;&gt;Node14 -->
<g id="edge16" class="edge"><title>Node11&#45;&gt;Node14</title>
<path fill="none" stroke="midnightblue" d="M489.135,-67.4751C500.47,-58.1082 518.893,-42.8839 532.658,-31.5081"/>
<polygon fill="midnightblue" stroke="midnightblue" points="535.044,-34.0773 540.523,-25.0091 530.585,-28.6813 535.044,-34.0773"/>
</g>
<!-- Node15&#45;&gt;Node3 -->
<g id="edge20" class="edge"><title>Node15&#45;&gt;Node3</title>
<path fill="none" stroke="midnightblue" d="M405.882,-179.444C377.159,-170.32 331.491,-155.813 299.498,-145.651"/>
<polygon fill="midnightblue" stroke="midnightblue" points="300.221,-142.208 289.63,-142.516 298.101,-148.88 300.221,-142.208"/>
</g>
<!-- Node15&#45;&gt;Node11 -->
<g id="edge21" class="edge"><title>Node15&#45;&gt;Node11</title>
<path fill="none" stroke="midnightblue" d="M438.612,-179.344C444.335,-170.503 453.049,-156.233 458.819,-143 465.456,-127.781 470.836,-109.668 474.338,-96.4334"/>
<polygon fill="midnightblue" stroke="midnightblue" points="477.758,-97.1877 476.824,-86.6341 470.972,-95.4664 477.758,-97.1877"/>
</g>
<!-- Node16 -->
<g id="node16" class="node"><title>Node16</title>
<polygon fill="white" stroke="#bfbfbf" points="405.319,-123.5 405.319,-142.5 450.319,-142.5 450.319,-123.5 405.319,-123.5"/>
<text text-anchor="middle" x="427.819" y="-130.5" font-family="Helvetica,sans-Serif" font-size="10.00">cstdlib</text>
</g>
<!-- Node15&#45;&gt;Node16 -->
<g id="edge19" class="edge"><title>Node15&#45;&gt;Node16</title>
<path fill="none" stroke="midnightblue" d="M431.994,-179.083C431.338,-172.006 430.399,-161.861 429.577,-152.986"/>
<polygon fill="midnightblue" stroke="midnightblue" points="433.037,-152.386 428.63,-142.751 426.067,-153.031 433.037,-152.386"/>
</g>
<!-- Node17&#45;&gt;Node3 -->
<g id="edge24" class="edge"><title>Node17&#45;&gt;Node3</title>
<path fill="none" stroke="midnightblue" d="M203.227,-179.324C213.928,-171.185 230.16,-158.839 242.982,-149.087"/>
<polygon fill="midnightblue" stroke="midnightblue" points="245.364,-151.673 251.204,-142.834 241.126,-146.102 245.364,-151.673"/>
</g>
<!-- Node17&#45;&gt;Node4 -->
<g id="edge25" class="edge"><title>Node17&#45;&gt;Node4</title>
<path fill="none" stroke="midnightblue" d="M186.248,-179.368C174.583,-161.296 147.397,-119.176 131.99,-95.3074"/>
<polygon fill="midnightblue" stroke="midnightblue" points="134.728,-93.0952 126.365,-86.5914 128.847,-96.8913 134.728,-93.0952"/>
</g>
<!-- Node17&#45;&gt;Node5 -->
<g id="edge23" class="edge"><title>Node17&#45;&gt;Node5</title>
<path fill="none" stroke="midnightblue" d="M191.412,-179.26C190.232,-153.974 186.785,-80.0794 184.969,-41.149"/>
<polygon fill="midnightblue" stroke="midnightblue" points="188.445,-40.5488 184.483,-30.7228 181.453,-40.875 188.445,-40.5488"/>
</g>
<!-- Node17&#45;&gt;Node11 -->
<g id="edge26" class="edge"><title>Node17&#45;&gt;Node11</title>
<path fill="none" stroke="midnightblue" d="M216.793,-179.392C241.598,-170.701 280.62,-156.647 313.819,-143 333.687,-134.833 337.962,-131.193 357.819,-123 386.772,-111.053 420.172,-98.7402 444.536,-90.0206"/>
<polygon fill="midnightblue" stroke="midnightblue" points="445.81,-93.2825 454.057,-86.6315 443.462,-86.6879 445.81,-93.2825"/>
</g>
<!-- Node18 -->
<g id="node18" class="node"><title>Node18</title>
<g id="a_node18"><a xlink:href="rand_8h.html" target="_top" xlink:title="rand.h">
<polygon fill="white" stroke="black" points="73.8194,-123.5 73.8194,-142.5 117.819,-142.5 117.819,-123.5 73.8194,-123.5"/>
<text text-anchor="middle" x="95.8194" y="-130.5" font-family="Helvetica,sans-Serif" font-size="10.00">rand.h</text>
</a>
</g>
</g>
<!-- Node17&#45;&gt;Node18 -->
<g id="edge27" class="edge"><title>Node17&#45;&gt;Node18</title>
<path fill="none" stroke="midnightblue" d="M176.395,-179.324C161.28,-170.822 138.004,-157.729 120.348,-147.797"/>
<polygon fill="midnightblue" stroke="midnightblue" points="121.637,-144.507 111.205,-142.655 118.205,-150.608 121.637,-144.507"/>
</g>
<!-- Node18&#45;&gt;Node4 -->
<g id="edge29" class="edge"><title>Node18&#45;&gt;Node4</title>
<path fill="none" stroke="midnightblue" d="M99.9476,-123.083C103.333,-115.77 108.235,-105.181 112.438,-96.1034"/>
<polygon fill="midnightblue" stroke="midnightblue" points="115.743,-97.2962 116.768,-86.7511 109.391,-94.3553 115.743,-97.2962"/>
</g>
<!-- Node19 -->
<g id="node19" class="node"><title>Node19</title>
<polygon fill="white" stroke="#bfbfbf" points="11.8194,-67.5 11.8194,-86.5 67.8194,-86.5 67.8194,-67.5 11.8194,-67.5"/>
<text text-anchor="middle" x="39.8194" y="-74.5" font-family="Helvetica,sans-Serif" font-size="10.00">algorithm</text>
</g>
<!-- Node18&#45;&gt;Node19 -->
<g id="edge28" class="edge"><title>Node18&#45;&gt;Node19</title>
<path fill="none" stroke="midnightblue" d="M86.822,-123.324C78.6249,-115.42 66.3138,-103.548 56.3474,-93.9377"/>
<polygon fill="midnightblue" stroke="midnightblue" points="58.6084,-91.2558 48.9805,-86.8339 53.7495,-96.2947 58.6084,-91.2558"/>
</g>
</g>
</svg>
