<?xml version="1.0" encoding="UTF-8" standalone="no"?>
<!DOCTYPE svg PUBLIC "-//W3C//DTD SVG 1.1//EN"
 "http://www.w3.org/Graphics/SVG/1.1/DTD/svg11.dtd">
<!-- Generated by graphviz version 2.38.0 (20140413.2041)
 -->
<!-- Title: artvision_instanton::ComputeCauchyCostJacobian Pages: 1 -->
<svg width="318pt" height="66pt"
 viewBox="0.00 0.00 318.00 66.00" xmlns="http://www.w3.org/2000/svg" xmlns:xlink="http://www.w3.org/1999/xlink">
<g id="graph0" class="graph" transform="scale(1 1) rotate(0) translate(4 62)">
<title>artvision_instanton::ComputeCauchyCostJacobian</title>
<polygon fill="white" stroke="none" points="-4,4 -4,-62 314,-62 314,4 -4,4"/>
<!-- Node1 -->
<g id="node1" class="node"><title>Node1</title>
<polygon fill="#bfbfbf" stroke="black" points="0,-14 0,-44 156,-44 156,-14 0,-14"/>
<text text-anchor="start" x="8" y="-32" font-family="Helvetica,sans-Serif" font-size="10.00">artvision_instanton</text>
<text text-anchor="middle" x="78" y="-21" font-family="Helvetica,sans-Serif" font-size="10.00">::ComputeCauchyCostJacobian</text>
</g>
<!-- Node2 -->
<g id="node2" class="node"><title>Node2</title>
<g id="a_node2"><a xlink:href="namespaceartvision__instanton.html#aaf2781e37f3d7d4e78dd2c872d0799b6" target="_top" xlink:title="artvision_instanton::sqr">
<polygon fill="white" stroke="black" points="192,-38.5 192,-57.5 310,-57.5 310,-38.5 192,-38.5"/>
<text text-anchor="middle" x="251" y="-45.5" font-family="Helvetica,sans-Serif" font-size="10.00">artvision_instanton::sqr</text>
</a>
</g>
</g>
<!-- Node1&#45;&gt;Node2 -->
<g id="edge1" class="edge"><title>Node1&#45;&gt;Node2</title>
<path fill="none" stroke="midnightblue" d="M156.495,-37.6105C164.976,-38.5529 173.563,-39.507 181.919,-40.4354"/>
<polygon fill="midnightblue" stroke="midnightblue" points="181.648,-43.9267 191.973,-41.5526 182.421,-36.9696 181.648,-43.9267"/>
</g>
<!-- Node3 -->
<g id="node3" class="node"><title>Node3</title>
<g id="a_node3"><a xlink:href="namespaceartvision__instanton.html#aabfdfd6e431693d8b92948d037feaf4f" target="_top" xlink:title="artvision_instanton::log">
<polygon fill="white" stroke="black" points="192.5,-0.5 192.5,-19.5 309.5,-19.5 309.5,-0.5 192.5,-0.5"/>
<text text-anchor="middle" x="251" y="-7.5" font-family="Helvetica,sans-Serif" font-size="10.00">artvision_instanton::log</text>
</a>
</g>
</g>
<!-- Node1&#45;&gt;Node3 -->
<g id="edge2" class="edge"><title>Node1&#45;&gt;Node3</title>
<path fill="none" stroke="midnightblue" d="M156.495,-20.3895C165.102,-19.4331 173.818,-18.4647 182.29,-17.5233"/>
<polygon fill="midnightblue" stroke="midnightblue" points="182.927,-20.9742 192.48,-16.3912 182.154,-14.017 182.927,-20.9742"/>
</g>
</g>
</svg>
