<?xml version="1.0" encoding="UTF-8" standalone="no"?>
<!DOCTYPE svg PUBLIC "-//W3C//DTD SVG 1.1//EN"
 "http://www.w3.org/Graphics/SVG/1.1/DTD/svg11.dtd">
<!-- Generated by graphviz version 2.38.0 (20140413.2041)
 -->
<!-- Title: artvision_instanton::UpdateRotationMatrixFromSo3 Pages: 1 -->
<svg width="800pt" height="210pt"
 viewBox="0.00 0.00 800.00 209.71" xmlns="http://www.w3.org/2000/svg" xmlns:xlink="http://www.w3.org/1999/xlink">
<g id="graph0" class="graph" transform="scale(1 1) rotate(0) translate(4 205.714)">
<title>artvision_instanton::UpdateRotationMatrixFromSo3</title>
<polygon fill="white" stroke="none" points="-4,4 -4,-205.714 796,-205.714 796,4 -4,4"/>
<!-- Node1 -->
<g id="node1" class="node"><title>Node1</title>
<polygon fill="#bfbfbf" stroke="black" points="0,-51.2142 0,-81.2142 158,-81.2142 158,-51.2142 0,-51.2142"/>
<text text-anchor="start" x="8" y="-69.2142" font-family="Helvetica,sans-Serif" font-size="10.00">artvision_instanton</text>
<text text-anchor="middle" x="79" y="-58.2142" font-family="Helvetica,sans-Serif" font-size="10.00">::UpdateRotationMatrixFromSo3</text>
</g>
<!-- Node2 -->
<g id="node2" class="node"><title>Node2</title>
<g id="a_node2"><a xlink:href="namespaceartvision__instanton.html#a291d95a6637e23423d7e02be780be06b" target="_top" xlink:title="Exponential map from so(3) to quaternion. ">
<polygon fill="white" stroke="black" points="203,-100.214 203,-130.214 330,-130.214 330,-100.214 203,-100.214"/>
<text text-anchor="start" x="211" y="-118.214" font-family="Helvetica,sans-Serif" font-size="10.00">artvision_instanton</text>
<text text-anchor="middle" x="266.5" y="-107.214" font-family="Helvetica,sans-Serif" font-size="10.00">::ExpQuaternionFromSo3</text>
</a>
</g>
</g>
<!-- Node1&#45;&gt;Node2 -->
<g id="edge1" class="edge"><title>Node1&#45;&gt;Node2</title>
<path fill="none" stroke="midnightblue" d="M136.917,-81.2488C156.503,-86.4225 178.608,-92.2617 198.896,-97.6207"/>
<polygon fill="midnightblue" stroke="midnightblue" points="198.129,-101.038 208.691,-100.208 199.916,-94.2701 198.129,-101.038"/>
</g>
<!-- Node12 -->
<g id="node12" class="node"><title>Node12</title>
<g id="a_node12"><a xlink:href="namespaceartvision__instanton.html#a474be183189084c258078959eaf4da00" target="_top" xlink:title="Quaternion to Rotation Matrix. ">
<polygon fill="white" stroke="black" points="194,-51.2142 194,-81.2142 339,-81.2142 339,-51.2142 194,-51.2142"/>
<text text-anchor="start" x="202" y="-69.2142" font-family="Helvetica,sans-Serif" font-size="10.00">artvision_instanton</text>
<text text-anchor="middle" x="266.5" y="-58.2142" font-family="Helvetica,sans-Serif" font-size="10.00">::QuaternionToRotationMatrix</text>
</a>
</g>
</g>
<!-- Node1&#45;&gt;Node12 -->
<g id="edge13" class="edge"><title>Node1&#45;&gt;Node12</title>
<path fill="none" stroke="midnightblue" d="M158.131,-66.2142C166.578,-66.2142 175.192,-66.2142 183.681,-66.2142"/>
<polygon fill="midnightblue" stroke="midnightblue" points="183.955,-69.7143 193.955,-66.2142 183.955,-62.7143 183.955,-69.7143"/>
</g>
<!-- Node13 -->
<g id="node13" class="node"><title>Node13</title>
<g id="a_node13"><a xlink:href="namespaceartvision__instanton.html#a77d8d8df593b392f9d9c81a9d70eaa2e" target="_top" xlink:title="C = A*B where A,B and C are 3x3 matrices. ">
<polygon fill="white" stroke="black" points="217.5,-2.21417 217.5,-32.2142 315.5,-32.2142 315.5,-2.21417 217.5,-2.21417"/>
<text text-anchor="start" x="225.5" y="-20.2142" font-family="Helvetica,sans-Serif" font-size="10.00">artvision_instanton</text>
<text text-anchor="middle" x="266.5" y="-9.21417" font-family="Helvetica,sans-Serif" font-size="10.00">::Multiply3x3_3x3</text>
</a>
</g>
</g>
<!-- Node1&#45;&gt;Node13 -->
<g id="edge14" class="edge"><title>Node1&#45;&gt;Node13</title>
<path fill="none" stroke="midnightblue" d="M136.917,-51.1796C159.368,-45.2491 185.129,-38.4443 207.668,-32.4905"/>
<polygon fill="midnightblue" stroke="midnightblue" points="208.667,-35.8467 217.442,-29.9088 206.879,-29.0789 208.667,-35.8467"/>
</g>
<!-- Node3 -->
<g id="node3" class="node"><title>Node3</title>
<g id="a_node3"><a xlink:href="namespaceartvision__instanton.html#a3dc56afdff2356f9987c14fc31ec8261" target="_top" xlink:title="artvision_instanton\l::DotProduct3">
<polygon fill="white" stroke="black" points="532,-171.214 532,-201.214 630,-201.214 630,-171.214 532,-171.214"/>
<text text-anchor="start" x="540" y="-189.214" font-family="Helvetica,sans-Serif" font-size="10.00">artvision_instanton</text>
<text text-anchor="middle" x="581" y="-178.214" font-family="Helvetica,sans-Serif" font-size="10.00">::DotProduct3</text>
</a>
</g>
</g>
<!-- Node2&#45;&gt;Node3 -->
<g id="edge2" class="edge"><title>Node2&#45;&gt;Node3</title>
<path fill="none" stroke="midnightblue" d="M282.948,-130.467C302.467,-148.558 338.003,-177.711 375,-189.214 422.885,-204.102 480.152,-201.695 521.971,-196.52"/>
<polygon fill="midnightblue" stroke="midnightblue" points="522.534,-199.976 531.987,-195.191 521.613,-193.037 522.534,-199.976"/>
</g>
<!-- Node4 -->
<g id="node4" class="node"><title>Node4</title>
<g id="a_node4"><a xlink:href="namespaceartvision__instanton.html#ac602026dd27129911cdee194c5bedd01" target="_top" xlink:title="Create an identity quaternion. ">
<polygon fill="white" stroke="black" points="380.5,-149.214 380.5,-179.214 482.5,-179.214 482.5,-149.214 380.5,-149.214"/>
<text text-anchor="start" x="388.5" y="-167.214" font-family="Helvetica,sans-Serif" font-size="10.00">artvision_instanton</text>
<text text-anchor="middle" x="431.5" y="-156.214" font-family="Helvetica,sans-Serif" font-size="10.00">::IdentityQuaternion</text>
</a>
</g>
</g>
<!-- Node2&#45;&gt;Node4 -->
<g id="edge3" class="edge"><title>Node2&#45;&gt;Node4</title>
<path fill="none" stroke="midnightblue" d="M317.735,-130.316C334.391,-135.322 353.1,-140.947 370.419,-146.153"/>
<polygon fill="midnightblue" stroke="midnightblue" points="369.846,-149.635 380.43,-149.163 371.861,-142.932 369.846,-149.635"/>
</g>
<!-- Node5 -->
<g id="node5" class="node"><title>Node5</title>
<g id="a_node5"><a xlink:href="namespaceartvision__instanton.html#ab0bba76a11f5b88fda96ddd2f6e33b34" target="_top" xlink:title="artvision_instanton\l::ScaleVector3">
<polygon fill="white" stroke="black" points="382.5,-100.214 382.5,-130.214 480.5,-130.214 480.5,-100.214 382.5,-100.214"/>
<text text-anchor="start" x="390.5" y="-118.214" font-family="Helvetica,sans-Serif" font-size="10.00">artvision_instanton</text>
<text text-anchor="middle" x="431.5" y="-107.214" font-family="Helvetica,sans-Serif" font-size="10.00">::ScaleVector3</text>
</a>
</g>
</g>
<!-- Node2&#45;&gt;Node5 -->
<g id="edge4" class="edge"><title>Node2&#45;&gt;Node5</title>
<path fill="none" stroke="midnightblue" d="M330.054,-115.214C343.862,-115.214 358.437,-115.214 372.074,-115.214"/>
<polygon fill="midnightblue" stroke="midnightblue" points="372.291,-118.714 382.291,-115.214 372.291,-111.714 372.291,-118.714"/>
</g>
<!-- Node6 -->
<g id="node6" class="node"><title>Node6</title>
<g id="a_node6"><a xlink:href="namespaceartvision__instanton.html#ac7ea81e607ef22e45ca66ea4be2ee8f7" target="_top" xlink:title="Expand the imaginary&#45;only 3x1 part to full 4x1 quaternion [qx, qy, qz, q3] &lt;==&gt; &#45;[qx,y,qz, q3]. ">
<polygon fill="white" stroke="black" points="375,-51.2142 375,-81.2142 488,-81.2142 488,-51.2142 375,-51.2142"/>
<text text-anchor="start" x="383" y="-69.2142" font-family="Helvetica,sans-Serif" font-size="10.00">artvision_instanton</text>
<text text-anchor="middle" x="431.5" y="-58.2142" font-family="Helvetica,sans-Serif" font-size="10.00">::ImgToFullQuaternion</text>
</a>
</g>
</g>
<!-- Node2&#45;&gt;Node6 -->
<g id="edge5" class="edge"><title>Node2&#45;&gt;Node6</title>
<path fill="none" stroke="midnightblue" d="M317.735,-100.113C334.391,-95.1059 353.1,-89.4817 370.419,-84.2752"/>
<polygon fill="midnightblue" stroke="midnightblue" points="371.861,-87.4965 380.43,-81.2657 369.846,-80.7929 371.861,-87.4965"/>
</g>
<!-- Node11 -->
<g id="node11" class="node"><title>Node11</title>
<g id="a_node11"><a xlink:href="namespaceartvision__instanton.html#a15dadc526841cbe9f7a5d74530ca7746" target="_top" xlink:title="artvision_instanton\l::ScaleVector4">
<polygon fill="white" stroke="black" points="684,-4.21417 684,-34.2142 782,-34.2142 782,-4.21417 684,-4.21417"/>
<text text-anchor="start" x="692" y="-22.2142" font-family="Helvetica,sans-Serif" font-size="10.00">artvision_instanton</text>
<text text-anchor="middle" x="733" y="-11.2142" font-family="Helvetica,sans-Serif" font-size="10.00">::ScaleVector4</text>
</a>
</g>
</g>
<!-- Node2&#45;&gt;Node11 -->
<g id="edge12" class="edge"><title>Node2&#45;&gt;Node11</title>
<path fill="none" stroke="midnightblue" d="M321.982,-100.126C328.002,-97.326 333.819,-94.0455 339,-90.2142 360.728,-74.1461 351.276,-54.1546 375,-41.2142 469.368,10.2605 599.351,2.18007 673.633,-8.44965"/>
<polygon fill="midnightblue" stroke="midnightblue" points="673.327,-11.9428 683.735,-9.96053 674.363,-5.01981 673.327,-11.9428"/>
</g>
<!-- Node6&#45;&gt;Node3 -->
<g id="edge6" class="edge"><title>Node6&#45;&gt;Node3</title>
<path fill="none" stroke="midnightblue" d="M474.245,-81.2803C479.116,-83.887 483.828,-86.8583 488,-90.2142 509.336,-107.378 505.263,-120.245 524,-140.214 532.173,-148.925 541.986,-157.501 551.098,-164.845"/>
<polygon fill="midnightblue" stroke="midnightblue" points="549.177,-167.786 559.203,-171.211 553.501,-162.281 549.177,-167.786"/>
</g>
<!-- Node7 -->
<g id="node7" class="node"><title>Node7</title>
<g id="a_node7"><a xlink:href="namespaceartvision__instanton.html#ade3d50eaacf35b1a01dd69e1d9ab77b9" target="_top" xlink:title="artvision_instanton\l::CopyVector3">
<polygon fill="white" stroke="black" points="532,-100.214 532,-130.214 630,-130.214 630,-100.214 532,-100.214"/>
<text text-anchor="start" x="540" y="-118.214" font-family="Helvetica,sans-Serif" font-size="10.00">artvision_instanton</text>
<text text-anchor="middle" x="581" y="-107.214" font-family="Helvetica,sans-Serif" font-size="10.00">::CopyVector3</text>
</a>
</g>
</g>
<!-- Node6&#45;&gt;Node7 -->
<g id="edge7" class="edge"><title>Node6&#45;&gt;Node7</title>
<path fill="none" stroke="midnightblue" d="M477.958,-81.3156C492.889,-86.2757 509.644,-91.8415 525.193,-97.0071"/>
<polygon fill="midnightblue" stroke="midnightblue" points="524.098,-100.331 534.692,-100.163 526.305,-93.6884 524.098,-100.331"/>
</g>
<!-- Node8 -->
<g id="node8" class="node"><title>Node8</title>
<g id="a_node8"><a xlink:href="namespaceartvision__instanton.html#a1fa75eeba87180bee6aee2ab3c07be5a" target="_top" xlink:title="Normalize a quaternion so that it has unit norm. ">
<polygon fill="white" stroke="black" points="524,-51.2142 524,-81.2142 638,-81.2142 638,-51.2142 524,-51.2142"/>
<text text-anchor="start" x="532" y="-69.2142" font-family="Helvetica,sans-Serif" font-size="10.00">artvision_instanton</text>
<text text-anchor="middle" x="581" y="-58.2142" font-family="Helvetica,sans-Serif" font-size="10.00">::NormalizeQuaternion</text>
</a>
</g>
</g>
<!-- Node6&#45;&gt;Node8 -->
<g id="edge8" class="edge"><title>Node6&#45;&gt;Node8</title>
<path fill="none" stroke="midnightblue" d="M488.263,-66.2142C496.499,-66.2142 505.054,-66.2142 513.481,-66.2142"/>
<polygon fill="midnightblue" stroke="midnightblue" points="513.668,-69.7143 523.668,-66.2142 513.668,-62.7143 513.668,-69.7143"/>
</g>
<!-- Node9 -->
<g id="node9" class="node"><title>Node9</title>
<g id="a_node9"><a xlink:href="namespaceartvision__instanton.html#aaf2781e37f3d7d4e78dd2c872d0799b6" target="_top" xlink:title="artvision_instanton::sqr">
<polygon fill="white" stroke="black" points="674,-102.714 674,-121.714 792,-121.714 792,-102.714 674,-102.714"/>
<text text-anchor="middle" x="733" y="-109.714" font-family="Helvetica,sans-Serif" font-size="10.00">artvision_instanton::sqr</text>
</a>
</g>
</g>
<!-- Node8&#45;&gt;Node9 -->
<g id="edge9" class="edge"><title>Node8&#45;&gt;Node9</title>
<path fill="none" stroke="midnightblue" d="M631.116,-81.2763C650.526,-87.2287 672.572,-93.9896 691.094,-99.6697"/>
<polygon fill="midnightblue" stroke="midnightblue" points="690.117,-103.031 700.703,-102.617 692.169,-96.3384 690.117,-103.031"/>
</g>
<!-- Node10 -->
<g id="node10" class="node"><title>Node10</title>
<g id="a_node10"><a xlink:href="namespaceartvision__instanton.html#adc1e30b0cec389f6c8e8b5512b69fb2e" target="_top" xlink:title="artvision_instanton\l::sign">
<polygon fill="white" stroke="black" points="684,-53.2142 684,-83.2142 782,-83.2142 782,-53.2142 684,-53.2142"/>
<text text-anchor="start" x="692" y="-71.2142" font-family="Helvetica,sans-Serif" font-size="10.00">artvision_instanton</text>
<text text-anchor="middle" x="733" y="-60.2142" font-family="Helvetica,sans-Serif" font-size="10.00">::sign</text>
</a>
</g>
</g>
<!-- Node8&#45;&gt;Node10 -->
<g id="edge10" class="edge"><title>Node8&#45;&gt;Node10</title>
<path fill="none" stroke="midnightblue" d="M638.281,-66.9646C649.855,-67.1189 662.063,-67.2817 673.706,-67.4369"/>
<polygon fill="midnightblue" stroke="midnightblue" points="673.716,-70.9373 683.762,-67.571 673.809,-63.9379 673.716,-70.9373"/>
</g>
<!-- Node8&#45;&gt;Node11 -->
<g id="edge11" class="edge"><title>Node8&#45;&gt;Node11</title>
<path fill="none" stroke="midnightblue" d="M629.873,-51.2138C643.945,-46.8046 659.49,-41.934 674.117,-37.351"/>
<polygon fill="midnightblue" stroke="midnightblue" points="675.571,-40.5631 684.067,-34.2332 673.478,-33.8834 675.571,-40.5631"/>
</g>
</g>
</svg>
