<?xml version="1.0" encoding="UTF-8" standalone="no"?>
<!DOCTYPE svg PUBLIC "-//W3C//DTD SVG 1.1//EN"
 "http://www.w3.org/Graphics/SVG/1.1/DTD/svg11.dtd">
<!-- Generated by graphviz version 2.38.0 (20140413.2041)
 -->
<!-- Title: artvision_instanton::ImgToFullQuaternion Pages: 1 -->
<svg width="425pt" height="186pt"
 viewBox="0.00 0.00 425.00 186.00" xmlns="http://www.w3.org/2000/svg" xmlns:xlink="http://www.w3.org/1999/xlink">
<g id="graph0" class="graph" transform="scale(1 1) rotate(0) translate(4 182)">
<title>artvision_instanton::ImgToFullQuaternion</title>
<polygon fill="white" stroke="none" points="-4,4 -4,-182 421,-182 421,4 -4,4"/>
<!-- Node1 -->
<g id="node1" class="node"><title>Node1</title>
<polygon fill="#bfbfbf" stroke="black" points="0,-98.5 0,-128.5 113,-128.5 113,-98.5 0,-98.5"/>
<text text-anchor="start" x="8" y="-116.5" font-family="Helvetica,sans-Serif" font-size="10.00">artvision_instanton</text>
<text text-anchor="middle" x="56.5" y="-105.5" font-family="Helvetica,sans-Serif" font-size="10.00">::ImgToFullQuaternion</text>
</g>
<!-- Node2 -->
<g id="node2" class="node"><title>Node2</title>
<g id="a_node2"><a xlink:href="namespaceartvision__instanton.html#a3dc56afdff2356f9987c14fc31ec8261" target="_top" xlink:title="artvision_instanton\l::DotProduct3">
<polygon fill="white" stroke="black" points="157,-147.5 157,-177.5 255,-177.5 255,-147.5 157,-147.5"/>
<text text-anchor="start" x="165" y="-165.5" font-family="Helvetica,sans-Serif" font-size="10.00">artvision_instanton</text>
<text text-anchor="middle" x="206" y="-154.5" font-family="Helvetica,sans-Serif" font-size="10.00">::DotProduct3</text>
</a>
</g>
</g>
<!-- Node1&#45;&gt;Node2 -->
<g id="edge1" class="edge"><title>Node1&#45;&gt;Node2</title>
<path fill="none" stroke="midnightblue" d="M102.958,-128.601C117.889,-133.562 134.644,-139.127 150.193,-144.293"/>
<polygon fill="midnightblue" stroke="midnightblue" points="149.098,-147.617 159.692,-147.448 151.305,-140.974 149.098,-147.617"/>
</g>
<!-- Node3 -->
<g id="node3" class="node"><title>Node3</title>
<g id="a_node3"><a xlink:href="namespaceartvision__instanton.html#ade3d50eaacf35b1a01dd69e1d9ab77b9" target="_top" xlink:title="artvision_instanton\l::CopyVector3">
<polygon fill="white" stroke="black" points="157,-98.5 157,-128.5 255,-128.5 255,-98.5 157,-98.5"/>
<text text-anchor="start" x="165" y="-116.5" font-family="Helvetica,sans-Serif" font-size="10.00">artvision_instanton</text>
<text text-anchor="middle" x="206" y="-105.5" font-family="Helvetica,sans-Serif" font-size="10.00">::CopyVector3</text>
</a>
</g>
</g>
<!-- Node1&#45;&gt;Node3 -->
<g id="edge2" class="edge"><title>Node1&#45;&gt;Node3</title>
<path fill="none" stroke="midnightblue" d="M113.263,-113.5C124.144,-113.5 135.581,-113.5 146.547,-113.5"/>
<polygon fill="midnightblue" stroke="midnightblue" points="146.882,-117 156.882,-113.5 146.882,-110 146.882,-117"/>
</g>
<!-- Node4 -->
<g id="node4" class="node"><title>Node4</title>
<g id="a_node4"><a xlink:href="namespaceartvision__instanton.html#a1fa75eeba87180bee6aee2ab3c07be5a" target="_top" xlink:title="Normalize a quaternion so that it has unit norm. ">
<polygon fill="white" stroke="black" points="149,-49.5 149,-79.5 263,-79.5 263,-49.5 149,-49.5"/>
<text text-anchor="start" x="157" y="-67.5" font-family="Helvetica,sans-Serif" font-size="10.00">artvision_instanton</text>
<text text-anchor="middle" x="206" y="-56.5" font-family="Helvetica,sans-Serif" font-size="10.00">::NormalizeQuaternion</text>
</a>
</g>
</g>
<!-- Node1&#45;&gt;Node4 -->
<g id="edge3" class="edge"><title>Node1&#45;&gt;Node4</title>
<path fill="none" stroke="midnightblue" d="M102.958,-98.3986C117.889,-93.4385 134.644,-87.8726 150.193,-82.7071"/>
<polygon fill="midnightblue" stroke="midnightblue" points="151.305,-86.0258 159.692,-79.5516 149.098,-79.3828 151.305,-86.0258"/>
</g>
<!-- Node5 -->
<g id="node5" class="node"><title>Node5</title>
<g id="a_node5"><a xlink:href="namespaceartvision__instanton.html#aaf2781e37f3d7d4e78dd2c872d0799b6" target="_top" xlink:title="artvision_instanton::sqr">
<polygon fill="white" stroke="black" points="299,-99 299,-118 417,-118 417,-99 299,-99"/>
<text text-anchor="middle" x="358" y="-106" font-family="Helvetica,sans-Serif" font-size="10.00">artvision_instanton::sqr</text>
</a>
</g>
</g>
<!-- Node4&#45;&gt;Node5 -->
<g id="edge4" class="edge"><title>Node4&#45;&gt;Node5</title>
<path fill="none" stroke="midnightblue" d="M258.202,-79.5192C276.506,-84.8885 296.92,-90.8766 314.419,-96.0095"/>
<polygon fill="midnightblue" stroke="midnightblue" points="313.766,-99.4654 324.347,-98.9217 315.736,-92.7484 313.766,-99.4654"/>
</g>
<!-- Node6 -->
<g id="node6" class="node"><title>Node6</title>
<g id="a_node6"><a xlink:href="namespaceartvision__instanton.html#adc1e30b0cec389f6c8e8b5512b69fb2e" target="_top" xlink:title="artvision_instanton\l::sign">
<polygon fill="white" stroke="black" points="309,-49.5 309,-79.5 407,-79.5 407,-49.5 309,-49.5"/>
<text text-anchor="start" x="317" y="-67.5" font-family="Helvetica,sans-Serif" font-size="10.00">artvision_instanton</text>
<text text-anchor="middle" x="358" y="-56.5" font-family="Helvetica,sans-Serif" font-size="10.00">::sign</text>
</a>
</g>
</g>
<!-- Node4&#45;&gt;Node6 -->
<g id="edge5" class="edge"><title>Node4&#45;&gt;Node6</title>
<path fill="none" stroke="midnightblue" d="M263.281,-64.5C274.855,-64.5 287.063,-64.5 298.706,-64.5"/>
<polygon fill="midnightblue" stroke="midnightblue" points="298.762,-68.0001 308.762,-64.5 298.762,-61.0001 298.762,-68.0001"/>
</g>
<!-- Node7 -->
<g id="node7" class="node"><title>Node7</title>
<g id="a_node7"><a xlink:href="namespaceartvision__instanton.html#a15dadc526841cbe9f7a5d74530ca7746" target="_top" xlink:title="artvision_instanton\l::ScaleVector4">
<polygon fill="white" stroke="black" points="309,-0.5 309,-30.5 407,-30.5 407,-0.5 309,-0.5"/>
<text text-anchor="start" x="317" y="-18.5" font-family="Helvetica,sans-Serif" font-size="10.00">artvision_instanton</text>
<text text-anchor="middle" x="358" y="-7.5" font-family="Helvetica,sans-Serif" font-size="10.00">::ScaleVector4</text>
</a>
</g>
</g>
<!-- Node4&#45;&gt;Node7 -->
<g id="edge6" class="edge"><title>Node4&#45;&gt;Node7</title>
<path fill="none" stroke="midnightblue" d="M253.229,-49.3986C268.413,-44.4385 285.451,-38.8726 301.264,-33.7071"/>
<polygon fill="midnightblue" stroke="midnightblue" points="302.505,-36.9838 310.924,-30.5516 300.331,-30.3298 302.505,-36.9838"/>
</g>
</g>
</svg>
