<?xml version="1.0" encoding="UTF-8" standalone="no"?>
<!DOCTYPE svg PUBLIC "-//W3C//DTD SVG 1.1//EN"
 "http://www.w3.org/Graphics/SVG/1.1/DTD/svg11.dtd">
<!-- Generated by graphviz version 2.38.0 (20140413.2041)
 -->
<!-- Title: artvision_instanton::DecomposeHomography Pages: 1 -->
<svg width="624pt" height="284pt"
 viewBox="0.00 0.00 624.00 284.00" xmlns="http://www.w3.org/2000/svg" xmlns:xlink="http://www.w3.org/1999/xlink">
<g id="graph0" class="graph" transform="scale(1 1) rotate(0) translate(4 280)">
<title>artvision_instanton::DecomposeHomography</title>
<polygon fill="white" stroke="none" points="-4,4 -4,-280 620,-280 620,4 -4,4"/>
<!-- Node1 -->
<g id="node1" class="node"><title>Node1</title>
<polygon fill="#bfbfbf" stroke="black" points="0,-147.5 0,-177.5 131,-177.5 131,-147.5 0,-147.5"/>
<text text-anchor="start" x="8" y="-165.5" font-family="Helvetica,sans-Serif" font-size="10.00">artvision_instanton</text>
<text text-anchor="middle" x="65.5" y="-154.5" font-family="Helvetica,sans-Serif" font-size="10.00">::DecomposeHomography</text>
</g>
<!-- Node2 -->
<g id="node2" class="node"><title>Node2</title>
<g id="a_node2"><a xlink:href="namespaceartvision__instanton.html#a77d8d8df593b392f9d9c81a9d70eaa2e" target="_top" xlink:title="C = A*B where A,B and C are 3x3 matrices. ">
<polygon fill="white" stroke="black" points="190.5,-245.5 190.5,-275.5 288.5,-275.5 288.5,-245.5 190.5,-245.5"/>
<text text-anchor="start" x="198.5" y="-263.5" font-family="Helvetica,sans-Serif" font-size="10.00">artvision_instanton</text>
<text text-anchor="middle" x="239.5" y="-252.5" font-family="Helvetica,sans-Serif" font-size="10.00">::Multiply3x3_3x3</text>
</a>
</g>
</g>
<!-- Node1&#45;&gt;Node2 -->
<g id="edge1" class="edge"><title>Node1&#45;&gt;Node2</title>
<path fill="none" stroke="midnightblue" d="M83.5432,-177.654C102.697,-194.038 135.277,-220.014 167,-236.5 171.46,-238.818 176.191,-240.981 181.01,-242.982"/>
<polygon fill="midnightblue" stroke="midnightblue" points="179.752,-246.248 190.34,-246.631 182.302,-239.729 179.752,-246.248"/>
</g>
<!-- Node3 -->
<g id="node3" class="node"><title>Node3</title>
<g id="a_node3"><a xlink:href="namespaceartvision__instanton.html#aa597f9135b078c157bf7bb51a02157f9" target="_top" xlink:title="Invert a calibration matrix (K). ">
<polygon fill="white" stroke="black" points="179,-196.5 179,-226.5 300,-226.5 300,-196.5 179,-196.5"/>
<text text-anchor="start" x="187" y="-214.5" font-family="Helvetica,sans-Serif" font-size="10.00">artvision_instanton</text>
<text text-anchor="middle" x="239.5" y="-203.5" font-family="Helvetica,sans-Serif" font-size="10.00">::InvertCalibrationMatrix</text>
</a>
</g>
</g>
<!-- Node1&#45;&gt;Node3 -->
<g id="edge2" class="edge"><title>Node1&#45;&gt;Node3</title>
<path fill="none" stroke="midnightblue" d="M119.509,-177.601C137.331,-182.679 157.38,-188.39 175.87,-193.658"/>
<polygon fill="midnightblue" stroke="midnightblue" points="175.09,-197.075 185.666,-196.448 177.008,-190.342 175.09,-197.075"/>
</g>
<!-- Node4 -->
<g id="node4" class="node"><title>Node4</title>
<g id="a_node4"><a xlink:href="namespaceartvision__instanton.html#a41b79f3ef269aeca8553c6daea6a60c9" target="_top" xlink:title="artvision_instanton\l::ScaleVector9">
<polygon fill="white" stroke="black" points="190.5,-147.5 190.5,-177.5 288.5,-177.5 288.5,-147.5 190.5,-147.5"/>
<text text-anchor="start" x="198.5" y="-165.5" font-family="Helvetica,sans-Serif" font-size="10.00">artvision_instanton</text>
<text text-anchor="middle" x="239.5" y="-154.5" font-family="Helvetica,sans-Serif" font-size="10.00">::ScaleVector9</text>
</a>
</g>
</g>
<!-- Node1&#45;&gt;Node4 -->
<g id="edge3" class="edge"><title>Node1&#45;&gt;Node4</title>
<path fill="none" stroke="midnightblue" d="M131.036,-162.5C147.144,-162.5 164.325,-162.5 180.117,-162.5"/>
<polygon fill="midnightblue" stroke="midnightblue" points="180.269,-166 190.268,-162.5 180.268,-159 180.269,-166"/>
</g>
<!-- Node5 -->
<g id="node5" class="node"><title>Node5</title>
<g id="a_node5"><a xlink:href="namespaceartvision__instanton.html#ab0bba76a11f5b88fda96ddd2f6e33b34" target="_top" xlink:title="artvision_instanton\l::ScaleVector3">
<polygon fill="white" stroke="black" points="190.5,-98.5 190.5,-128.5 288.5,-128.5 288.5,-98.5 190.5,-98.5"/>
<text text-anchor="start" x="198.5" y="-116.5" font-family="Helvetica,sans-Serif" font-size="10.00">artvision_instanton</text>
<text text-anchor="middle" x="239.5" y="-105.5" font-family="Helvetica,sans-Serif" font-size="10.00">::ScaleVector3</text>
</a>
</g>
</g>
<!-- Node1&#45;&gt;Node5 -->
<g id="edge4" class="edge"><title>Node1&#45;&gt;Node5</title>
<path fill="none" stroke="midnightblue" d="M119.509,-147.399C138.846,-141.89 160.806,-135.634 180.55,-130.009"/>
<polygon fill="midnightblue" stroke="midnightblue" points="181.686,-133.325 190.344,-127.219 179.768,-126.593 181.686,-133.325"/>
</g>
<!-- Node6 -->
<g id="node6" class="node"><title>Node6</title>
<g id="a_node6"><a xlink:href="namespaceartvision__instanton.html#a2a6b4c2d4cba42d93da9660540cca1ed" target="_top" xlink:title="Rotation Matrix to Quaternion. ">
<polygon fill="white" stroke="black" points="167,-49.5 167,-79.5 312,-79.5 312,-49.5 167,-49.5"/>
<text text-anchor="start" x="175" y="-67.5" font-family="Helvetica,sans-Serif" font-size="10.00">artvision_instanton</text>
<text text-anchor="middle" x="239.5" y="-56.5" font-family="Helvetica,sans-Serif" font-size="10.00">::RotationMatrixToQuaternion</text>
</a>
</g>
</g>
<!-- Node1&#45;&gt;Node6 -->
<g id="edge5" class="edge"><title>Node1&#45;&gt;Node6</title>
<path fill="none" stroke="midnightblue" d="M83.9699,-147.348C103.234,-131.249 135.667,-105.903 167,-89.5 171.041,-87.3844 175.3,-85.3831 179.643,-83.504"/>
<polygon fill="midnightblue" stroke="midnightblue" points="181.299,-86.6086 189.234,-79.5886 178.653,-80.1278 181.299,-86.6086"/>
</g>
<!-- Node7 -->
<g id="node7" class="node"><title>Node7</title>
<g id="a_node7"><a xlink:href="namespaceartvision__instanton.html#a1fa75eeba87180bee6aee2ab3c07be5a" target="_top" xlink:title="Normalize a quaternion so that it has unit norm. ">
<polygon fill="white" stroke="black" points="348,-49.5 348,-79.5 462,-79.5 462,-49.5 348,-49.5"/>
<text text-anchor="start" x="356" y="-67.5" font-family="Helvetica,sans-Serif" font-size="10.00">artvision_instanton</text>
<text text-anchor="middle" x="405" y="-56.5" font-family="Helvetica,sans-Serif" font-size="10.00">::NormalizeQuaternion</text>
</a>
</g>
</g>
<!-- Node6&#45;&gt;Node7 -->
<g id="edge6" class="edge"><title>Node6&#45;&gt;Node7</title>
<path fill="none" stroke="midnightblue" d="M312.213,-64.5C320.631,-64.5 329.194,-64.5 337.535,-64.5"/>
<polygon fill="midnightblue" stroke="midnightblue" points="337.577,-68.0001 347.577,-64.5 337.577,-61.0001 337.577,-68.0001"/>
</g>
<!-- Node8 -->
<g id="node8" class="node"><title>Node8</title>
<g id="a_node8"><a xlink:href="namespaceartvision__instanton.html#aaf2781e37f3d7d4e78dd2c872d0799b6" target="_top" xlink:title="artvision_instanton::sqr">
<polygon fill="white" stroke="black" points="498,-99 498,-118 616,-118 616,-99 498,-99"/>
<text text-anchor="middle" x="557" y="-106" font-family="Helvetica,sans-Serif" font-size="10.00">artvision_instanton::sqr</text>
</a>
</g>
</g>
<!-- Node7&#45;&gt;Node8 -->
<g id="edge7" class="edge"><title>Node7&#45;&gt;Node8</title>
<path fill="none" stroke="midnightblue" d="M457.202,-79.5192C475.506,-84.8885 495.92,-90.8766 513.419,-96.0095"/>
<polygon fill="midnightblue" stroke="midnightblue" points="512.766,-99.4654 523.347,-98.9217 514.736,-92.7484 512.766,-99.4654"/>
</g>
<!-- Node9 -->
<g id="node9" class="node"><title>Node9</title>
<g id="a_node9"><a xlink:href="namespaceartvision__instanton.html#adc1e30b0cec389f6c8e8b5512b69fb2e" target="_top" xlink:title="artvision_instanton\l::sign">
<polygon fill="white" stroke="black" points="508,-49.5 508,-79.5 606,-79.5 606,-49.5 508,-49.5"/>
<text text-anchor="start" x="516" y="-67.5" font-family="Helvetica,sans-Serif" font-size="10.00">artvision_instanton</text>
<text text-anchor="middle" x="557" y="-56.5" font-family="Helvetica,sans-Serif" font-size="10.00">::sign</text>
</a>
</g>
</g>
<!-- Node7&#45;&gt;Node9 -->
<g id="edge8" class="edge"><title>Node7&#45;&gt;Node9</title>
<path fill="none" stroke="midnightblue" d="M462.281,-64.5C473.855,-64.5 486.063,-64.5 497.706,-64.5"/>
<polygon fill="midnightblue" stroke="midnightblue" points="497.762,-68.0001 507.762,-64.5 497.762,-61.0001 497.762,-68.0001"/>
</g>
<!-- Node10 -->
<g id="node10" class="node"><title>Node10</title>
<g id="a_node10"><a xlink:href="namespaceartvision__instanton.html#a15dadc526841cbe9f7a5d74530ca7746" target="_top" xlink:title="artvision_instanton\l::ScaleVector4">
<polygon fill="white" stroke="black" points="508,-0.5 508,-30.5 606,-30.5 606,-0.5 508,-0.5"/>
<text text-anchor="start" x="516" y="-18.5" font-family="Helvetica,sans-Serif" font-size="10.00">artvision_instanton</text>
<text text-anchor="middle" x="557" y="-7.5" font-family="Helvetica,sans-Serif" font-size="10.00">::ScaleVector4</text>
</a>
</g>
</g>
<!-- Node7&#45;&gt;Node10 -->
<g id="edge9" class="edge"><title>Node7&#45;&gt;Node10</title>
<path fill="none" stroke="midnightblue" d="M452.229,-49.3986C467.413,-44.4385 484.451,-38.8726 500.264,-33.7071"/>
<polygon fill="midnightblue" stroke="midnightblue" points="501.505,-36.9838 509.924,-30.5516 499.331,-30.3298 501.505,-36.9838"/>
</g>
</g>
</svg>
