<?xml version="1.0" encoding="UTF-8" standalone="no"?>
<!DOCTYPE svg PUBLIC "-//W3C//DTD SVG 1.1//EN"
 "http://www.w3.org/Graphics/SVG/1.1/DTD/svg11.dtd">
<!-- Generated by graphviz version 2.38.0 (20140413.2041)
 -->
<!-- Title: artvision_instanton::DecomposeHomography_withR Pages: 1 -->
<svg width="350pt" height="186pt"
 viewBox="0.00 0.00 350.00 186.00" xmlns="http://www.w3.org/2000/svg" xmlns:xlink="http://www.w3.org/1999/xlink">
<g id="graph0" class="graph" transform="scale(1 1) rotate(0) translate(4 182)">
<title>artvision_instanton::DecomposeHomography_withR</title>
<polygon fill="white" stroke="none" points="-4,4 -4,-182 346,-182 346,4 -4,4"/>
<!-- Node1 -->
<g id="node1" class="node"><title>Node1</title>
<polygon fill="#bfbfbf" stroke="black" points="0,-73.5 0,-103.5 161,-103.5 161,-73.5 0,-73.5"/>
<text text-anchor="start" x="8" y="-91.5" font-family="Helvetica,sans-Serif" font-size="10.00">artvision_instanton</text>
<text text-anchor="middle" x="80.5" y="-80.5" font-family="Helvetica,sans-Serif" font-size="10.00">::DecomposeHomography_withR</text>
</g>
<!-- Node2 -->
<g id="node2" class="node"><title>Node2</title>
<g id="a_node2"><a xlink:href="namespaceartvision__instanton.html#a77d8d8df593b392f9d9c81a9d70eaa2e" target="_top" xlink:title="C = A*B where A,B and C are 3x3 matrices. ">
<polygon fill="white" stroke="black" points="220.5,-147.5 220.5,-177.5 318.5,-177.5 318.5,-147.5 220.5,-147.5"/>
<text text-anchor="start" x="228.5" y="-165.5" font-family="Helvetica,sans-Serif" font-size="10.00">artvision_instanton</text>
<text text-anchor="middle" x="269.5" y="-154.5" font-family="Helvetica,sans-Serif" font-size="10.00">::Multiply3x3_3x3</text>
</a>
</g>
</g>
<!-- Node1&#45;&gt;Node2 -->
<g id="edge1" class="edge"><title>Node1&#45;&gt;Node2</title>
<path fill="none" stroke="midnightblue" d="M114.551,-103.694C137.482,-114.017 168.846,-127.703 197,-138.5 201.843,-140.357 206.898,-142.214 211.985,-144.026"/>
<polygon fill="midnightblue" stroke="midnightblue" points="211.164,-147.447 221.758,-147.445 213.475,-140.84 211.164,-147.447"/>
</g>
<!-- Node3 -->
<g id="node3" class="node"><title>Node3</title>
<g id="a_node3"><a xlink:href="namespaceartvision__instanton.html#aa597f9135b078c157bf7bb51a02157f9" target="_top" xlink:title="Invert a calibration matrix (K). ">
<polygon fill="white" stroke="black" points="209,-98.5 209,-128.5 330,-128.5 330,-98.5 209,-98.5"/>
<text text-anchor="start" x="217" y="-116.5" font-family="Helvetica,sans-Serif" font-size="10.00">artvision_instanton</text>
<text text-anchor="middle" x="269.5" y="-105.5" font-family="Helvetica,sans-Serif" font-size="10.00">::InvertCalibrationMatrix</text>
</a>
</g>
</g>
<!-- Node1&#45;&gt;Node3 -->
<g id="edge2" class="edge"><title>Node1&#45;&gt;Node3</title>
<path fill="none" stroke="midnightblue" d="M161.076,-99.1385C173.58,-100.81 186.423,-102.527 198.685,-104.166"/>
<polygon fill="midnightblue" stroke="midnightblue" points="198.452,-107.666 208.827,-105.522 199.379,-100.728 198.452,-107.666"/>
</g>
<!-- Node4 -->
<g id="node4" class="node"><title>Node4</title>
<g id="a_node4"><a xlink:href="namespaceartvision__instanton.html#a41b79f3ef269aeca8553c6daea6a60c9" target="_top" xlink:title="artvision_instanton\l::ScaleVector9">
<polygon fill="white" stroke="black" points="220.5,-49.5 220.5,-79.5 318.5,-79.5 318.5,-49.5 220.5,-49.5"/>
<text text-anchor="start" x="228.5" y="-67.5" font-family="Helvetica,sans-Serif" font-size="10.00">artvision_instanton</text>
<text text-anchor="middle" x="269.5" y="-56.5" font-family="Helvetica,sans-Serif" font-size="10.00">::ScaleVector9</text>
</a>
</g>
</g>
<!-- Node1&#45;&gt;Node4 -->
<g id="edge3" class="edge"><title>Node1&#45;&gt;Node4</title>
<path fill="none" stroke="midnightblue" d="M161.076,-78.287C177.63,-76.1625 194.779,-73.9615 210.385,-71.9586"/>
<polygon fill="midnightblue" stroke="midnightblue" points="210.923,-75.4183 220.396,-70.6737 210.032,-68.4753 210.923,-75.4183"/>
</g>
<!-- Node5 -->
<g id="node5" class="node"><title>Node5</title>
<g id="a_node5"><a xlink:href="namespaceartvision__instanton.html#a474be183189084c258078959eaf4da00" target="_top" xlink:title="Quaternion to Rotation Matrix. ">
<polygon fill="white" stroke="black" points="197,-0.5 197,-30.5 342,-30.5 342,-0.5 197,-0.5"/>
<text text-anchor="start" x="205" y="-18.5" font-family="Helvetica,sans-Serif" font-size="10.00">artvision_instanton</text>
<text text-anchor="middle" x="269.5" y="-7.5" font-family="Helvetica,sans-Serif" font-size="10.00">::QuaternionToRotationMatrix</text>
</a>
</g>
</g>
<!-- Node1&#45;&gt;Node5 -->
<g id="edge4" class="edge"><title>Node1&#45;&gt;Node5</title>
<path fill="none" stroke="midnightblue" d="M116.165,-73.482C138.995,-63.7431 169.617,-50.9671 197,-40.5 202.587,-38.3644 208.446,-36.1984 214.303,-34.0803"/>
<polygon fill="midnightblue" stroke="midnightblue" points="215.873,-37.2362 224.112,-30.5748 213.517,-30.6445 215.873,-37.2362"/>
</g>
</g>
</svg>
