<?xml version="1.0" encoding="UTF-8" standalone="no"?>
<!DOCTYPE svg PUBLIC "-//W3C//DTD SVG 1.1//EN"
 "http://www.w3.org/Graphics/SVG/1.1/DTD/svg11.dtd">
<!-- Generated by graphviz version 2.38.0 (20140413.2041)
 -->
<!-- Title: artvision_instanton::Invert15x15CovarianceMatrix Pages: 1 -->
<svg width="492pt" height="245pt"
 viewBox="0.00 0.00 492.00 245.00" xmlns="http://www.w3.org/2000/svg" xmlns:xlink="http://www.w3.org/1999/xlink">
<g id="graph0" class="graph" transform="scale(1 1) rotate(0) translate(4 241)">
<title>artvision_instanton::Invert15x15CovarianceMatrix</title>
<polygon fill="white" stroke="none" points="-4,4 -4,-241 488,-241 488,4 -4,4"/>
<!-- Node1 -->
<g id="node1" class="node"><title>Node1</title>
<polygon fill="#bfbfbf" stroke="black" points="0,-103.5 0,-133.5 150,-133.5 150,-103.5 0,-103.5"/>
<text text-anchor="start" x="8" y="-121.5" font-family="Helvetica,sans-Serif" font-size="10.00">artvision_instanton</text>
<text text-anchor="middle" x="75" y="-110.5" font-family="Helvetica,sans-Serif" font-size="10.00">::Invert15x15CovarianceMatrix</text>
</g>
<!-- Node2 -->
<g id="node2" class="node"><title>Node2</title>
<g id="a_node2"><a xlink:href="namespaceartvision__instanton.html#a4e3faf7c78294e7ca0b205d5285287e4" target="_top" xlink:title="artvision_instanton\l::ZeroVector">
<polygon fill="white" stroke="black" points="219,-206.5 219,-236.5 317,-236.5 317,-206.5 219,-206.5"/>
<text text-anchor="start" x="227" y="-224.5" font-family="Helvetica,sans-Serif" font-size="10.00">artvision_instanton</text>
<text text-anchor="middle" x="268" y="-213.5" font-family="Helvetica,sans-Serif" font-size="10.00">::ZeroVector</text>
</a>
</g>
</g>
<!-- Node1&#45;&gt;Node2 -->
<g id="edge1" class="edge"><title>Node1&#45;&gt;Node2</title>
<path fill="none" stroke="midnightblue" d="M93.1138,-133.615C113.807,-151.192 150.315,-180.022 186,-197.5 193.304,-201.077 201.245,-204.231 209.203,-206.977"/>
<polygon fill="midnightblue" stroke="midnightblue" points="208.285,-210.359 218.878,-210.125 210.451,-203.702 208.285,-210.359"/>
</g>
<!-- Node3 -->
<g id="node3" class="node"><title>Node3</title>
<g id="a_node3"><a xlink:href="namespaceartvision__instanton.html#a085559744c33fd695be6b5b227228be3" target="_top" xlink:title="Compute the Cholesky decomposition of the square matrix A. ">
<polygon fill="white" stroke="black" points="219,-157.5 219,-187.5 317,-187.5 317,-157.5 219,-157.5"/>
<text text-anchor="start" x="227" y="-175.5" font-family="Helvetica,sans-Serif" font-size="10.00">artvision_instanton</text>
<text text-anchor="middle" x="268" y="-164.5" font-family="Helvetica,sans-Serif" font-size="10.00">::Cholesky</text>
</a>
</g>
</g>
<!-- Node1&#45;&gt;Node3 -->
<g id="edge2" class="edge"><title>Node1&#45;&gt;Node3</title>
<path fill="none" stroke="midnightblue" d="M129.204,-133.542C154.053,-140.567 183.689,-148.946 209.099,-156.13"/>
<polygon fill="midnightblue" stroke="midnightblue" points="208.399,-159.569 218.974,-158.922 210.304,-152.833 208.399,-159.569"/>
</g>
<!-- Node5 -->
<g id="node5" class="node"><title>Node5</title>
<g id="a_node5"><a xlink:href="namespaceartvision__instanton.html#a73914c6af17f856e93f338921675488a" target="_top" xlink:title="Invert a matrix A where A is a 15x15 left triangular matrix and return its traspose. ">
<polygon fill="white" stroke="black" points="201.5,-98 201.5,-139 334.5,-139 334.5,-98 201.5,-98"/>
<text text-anchor="start" x="209.5" y="-127" font-family="Helvetica,sans-Serif" font-size="10.00">artvision_instanton</text>
<text text-anchor="start" x="209.5" y="-116" font-family="Helvetica,sans-Serif" font-size="10.00">::Invert15x15LeftTriangular</text>
<text text-anchor="middle" x="268" y="-105" font-family="Helvetica,sans-Serif" font-size="10.00">Matrix_Transpose</text>
</a>
</g>
</g>
<!-- Node1&#45;&gt;Node5 -->
<g id="edge4" class="edge"><title>Node1&#45;&gt;Node5</title>
<path fill="none" stroke="midnightblue" d="M150.119,-118.5C163.572,-118.5 177.622,-118.5 191.125,-118.5"/>
<polygon fill="midnightblue" stroke="midnightblue" points="191.326,-122 201.326,-118.5 191.326,-115 191.326,-122"/>
</g>
<!-- Node6 -->
<g id="node6" class="node"><title>Node6</title>
<g id="a_node6"><a xlink:href="namespaceartvision__instanton.html#afce02ac9784682b5d9968eccfb68656d" target="_top" xlink:title="B = A*A&#39;. ">
<polygon fill="white" stroke="black" points="219,-49.5 219,-79.5 317,-79.5 317,-49.5 219,-49.5"/>
<text text-anchor="start" x="227" y="-67.5" font-family="Helvetica,sans-Serif" font-size="10.00">artvision_instanton</text>
<text text-anchor="middle" x="268" y="-56.5" font-family="Helvetica,sans-Serif" font-size="10.00">::MultiplyAtimesAt</text>
</a>
</g>
</g>
<!-- Node1&#45;&gt;Node6 -->
<g id="edge6" class="edge"><title>Node1&#45;&gt;Node6</title>
<path fill="none" stroke="midnightblue" d="M129.204,-103.458C154.053,-96.4327 183.689,-88.0538 209.099,-80.8698"/>
<polygon fill="midnightblue" stroke="midnightblue" points="210.304,-84.1666 218.974,-78.078 208.399,-77.4307 210.304,-84.1666"/>
</g>
<!-- Node7 -->
<g id="node7" class="node"><title>Node7</title>
<g id="a_node7"><a xlink:href="namespaceartvision__instanton.html#a6b7cf4cecd3a7d2fd08f75eb0a6c8233" target="_top" xlink:title="Extend the upper right triangular matrix to the lower left. ">
<polygon fill="white" stroke="black" points="186,-0.5 186,-30.5 350,-30.5 350,-0.5 186,-0.5"/>
<text text-anchor="start" x="194" y="-18.5" font-family="Helvetica,sans-Serif" font-size="10.00">artvision_instanton</text>
<text text-anchor="middle" x="268" y="-7.5" font-family="Helvetica,sans-Serif" font-size="10.00">::SymmetricExtendUpperToLower</text>
</a>
</g>
</g>
<!-- Node1&#45;&gt;Node7 -->
<g id="edge8" class="edge"><title>Node1&#45;&gt;Node7</title>
<path fill="none" stroke="midnightblue" d="M93.553,-103.352C114.375,-86.0496 150.724,-57.8932 186,-40.5 190.585,-38.2394 195.417,-36.132 200.344,-34.1778"/>
<polygon fill="midnightblue" stroke="midnightblue" points="201.755,-37.387 209.898,-30.6087 199.305,-30.8297 201.755,-37.387"/>
</g>
<!-- Node4 -->
<g id="node4" class="node"><title>Node4</title>
<g id="a_node4"><a xlink:href="namespaceartvision__instanton.html#a48cba394ed7537d523c64e4bf7b8d481" target="_top" xlink:title="Compute the dot product. ">
<polygon fill="white" stroke="black" points="386,-103.5 386,-133.5 484,-133.5 484,-103.5 386,-103.5"/>
<text text-anchor="start" x="394" y="-121.5" font-family="Helvetica,sans-Serif" font-size="10.00">artvision_instanton</text>
<text text-anchor="middle" x="435" y="-110.5" font-family="Helvetica,sans-Serif" font-size="10.00">::DotProduct</text>
</a>
</g>
</g>
<!-- Node3&#45;&gt;Node4 -->
<g id="edge3" class="edge"><title>Node3&#45;&gt;Node4</title>
<path fill="none" stroke="midnightblue" d="M317.106,-158.72C327.96,-155.48 339.404,-151.959 350,-148.5 360.93,-144.932 372.586,-140.91 383.628,-136.997"/>
<polygon fill="midnightblue" stroke="midnightblue" points="384.898,-140.26 393.139,-133.602 382.545,-133.668 384.898,-140.26"/>
</g>
<!-- Node5&#45;&gt;Node4 -->
<g id="edge5" class="edge"><title>Node5&#45;&gt;Node4</title>
<path fill="none" stroke="midnightblue" d="M334.686,-118.5C348.16,-118.5 362.258,-118.5 375.46,-118.5"/>
<polygon fill="midnightblue" stroke="midnightblue" points="375.826,-122 385.826,-118.5 375.826,-115 375.826,-122"/>
</g>
<!-- Node6&#45;&gt;Node4 -->
<g id="edge7" class="edge"><title>Node6&#45;&gt;Node4</title>
<path fill="none" stroke="midnightblue" d="M317.106,-78.2797C327.96,-81.5203 339.404,-85.0408 350,-88.5 360.93,-92.0682 372.586,-96.0902 383.628,-100.003"/>
<polygon fill="midnightblue" stroke="midnightblue" points="382.545,-103.332 393.139,-103.398 384.898,-96.7397 382.545,-103.332"/>
</g>
</g>
</svg>
