<?xml version="1.0" encoding="UTF-8" standalone="no"?>
<!DOCTYPE svg PUBLIC "-//W3C//DTD SVG 1.1//EN"
 "http://www.w3.org/Graphics/SVG/1.1/DTD/svg11.dtd">
<!-- Generated by graphviz version 2.38.0 (20140413.2041)
 -->
<!-- Title: artvision_instanton::PolynomialRootsToLegs Pages: 1 -->
<svg width="468pt" height="151pt"
 viewBox="0.00 0.00 468.00 151.00" xmlns="http://www.w3.org/2000/svg" xmlns:xlink="http://www.w3.org/1999/xlink">
<g id="graph0" class="graph" transform="scale(1 1) rotate(0) translate(4 147)">
<title>artvision_instanton::PolynomialRootsToLegs</title>
<polygon fill="white" stroke="none" points="-4,4 -4,-147 464,-147 464,4 -4,4"/>
<!-- Node1 -->
<g id="node1" class="node"><title>Node1</title>
<polygon fill="#bfbfbf" stroke="black" points="0,-68.5 0,-98.5 129,-98.5 129,-68.5 0,-68.5"/>
<text text-anchor="start" x="8" y="-86.5" font-family="Helvetica,sans-Serif" font-size="10.00">artvision_instanton</text>
<text text-anchor="middle" x="64.5" y="-75.5" font-family="Helvetica,sans-Serif" font-size="10.00">::PolynomialRootsToLegs</text>
</g>
<!-- Node2 -->
<g id="node2" class="node"><title>Node2</title>
<g id="a_node2"><a xlink:href="namespaceartvision__instanton.html#ab30464c51e5dc12dc02c1822dc300f03" target="_top" xlink:title="Rearrange array to remove duplicated elements in place. ">
<polygon fill="white" stroke="black" points="184.5,-112.5 184.5,-142.5 282.5,-142.5 282.5,-112.5 184.5,-112.5"/>
<text text-anchor="start" x="192.5" y="-130.5" font-family="Helvetica,sans-Serif" font-size="10.00">artvision_instanton</text>
<text text-anchor="middle" x="233.5" y="-119.5" font-family="Helvetica,sans-Serif" font-size="10.00">::UniqueVector</text>
</a>
</g>
</g>
<!-- Node1&#45;&gt;Node2 -->
<g id="edge1" class="edge"><title>Node1&#45;&gt;Node2</title>
<path fill="none" stroke="midnightblue" d="M122.505,-98.5192C139.329,-102.952 157.754,-107.807 174.632,-112.253"/>
<polygon fill="midnightblue" stroke="midnightblue" points="173.806,-115.655 184.367,-114.818 175.589,-108.886 173.806,-115.655"/>
</g>
<!-- Node3 -->
<g id="node3" class="node"><title>Node3</title>
<g id="a_node3"><a xlink:href="namespaceartvision__instanton.html#aaf2781e37f3d7d4e78dd2c872d0799b6" target="_top" xlink:title="artvision_instanton::sqr">
<polygon fill="white" stroke="black" points="174.5,-74 174.5,-93 292.5,-93 292.5,-74 174.5,-74"/>
<text text-anchor="middle" x="233.5" y="-81" font-family="Helvetica,sans-Serif" font-size="10.00">artvision_instanton::sqr</text>
</a>
</g>
</g>
<!-- Node1&#45;&gt;Node3 -->
<g id="edge2" class="edge"><title>Node1&#45;&gt;Node3</title>
<path fill="none" stroke="midnightblue" d="M129.112,-83.5C140.59,-83.5 152.6,-83.5 164.205,-83.5"/>
<polygon fill="midnightblue" stroke="midnightblue" points="164.276,-87.0001 174.276,-83.5 164.276,-80.0001 164.276,-87.0001"/>
</g>
<!-- Node4 -->
<g id="node4" class="node"><title>Node4</title>
<g id="a_node4"><a xlink:href="namespaceartvision__instanton.html#a3eaa94252f465f459a636060aa8d3e56" target="_top" xlink:title="Solve for the real roots of a quadratic polynomial of the form: ">
<polygon fill="white" stroke="black" points="165,-24.5 165,-54.5 302,-54.5 302,-24.5 165,-24.5"/>
<text text-anchor="start" x="173" y="-42.5" font-family="Helvetica,sans-Serif" font-size="10.00">artvision_instanton</text>
<text text-anchor="middle" x="233.5" y="-31.5" font-family="Helvetica,sans-Serif" font-size="10.00">::SolveQuadraticPolynomial</text>
</a>
</g>
</g>
<!-- Node1&#45;&gt;Node4 -->
<g id="edge3" class="edge"><title>Node1&#45;&gt;Node4</title>
<path fill="none" stroke="midnightblue" d="M122.505,-68.4808C136.401,-64.8196 151.389,-60.8706 165.695,-57.1013"/>
<polygon fill="midnightblue" stroke="midnightblue" points="166.69,-60.4586 175.469,-54.5262 164.907,-53.6896 166.69,-60.4586"/>
</g>
<!-- Node5 -->
<g id="node5" class="node"><title>Node5</title>
<g id="a_node5"><a xlink:href="namespaceartvision__instanton.html#adb0d6b298f7daaf74e79e27654c17df5" target="_top" xlink:title="Solve for the real root of a linear polynomial of the form: ">
<polygon fill="white" stroke="black" points="338,-49.5 338,-79.5 460,-79.5 460,-49.5 338,-49.5"/>
<text text-anchor="start" x="346" y="-67.5" font-family="Helvetica,sans-Serif" font-size="10.00">artvision_instanton</text>
<text text-anchor="middle" x="399" y="-56.5" font-family="Helvetica,sans-Serif" font-size="10.00">::SolveLinearPolynomial</text>
</a>
</g>
</g>
<!-- Node4&#45;&gt;Node5 -->
<g id="edge4" class="edge"><title>Node4&#45;&gt;Node5</title>
<path fill="none" stroke="midnightblue" d="M302.418,-49.8851C310.777,-51.1631 319.334,-52.4715 327.726,-53.7547"/>
<polygon fill="midnightblue" stroke="midnightblue" points="327.443,-57.252 337.857,-55.3038 328.501,-50.3324 327.443,-57.252"/>
</g>
<!-- Node6 -->
<g id="node6" class="node"><title>Node6</title>
<g id="a_node6"><a xlink:href="namespaceartvision__instanton.html#adc1e30b0cec389f6c8e8b5512b69fb2e" target="_top" xlink:title="artvision_instanton\l::sign">
<polygon fill="white" stroke="black" points="350,-0.5 350,-30.5 448,-30.5 448,-0.5 350,-0.5"/>
<text text-anchor="start" x="358" y="-18.5" font-family="Helvetica,sans-Serif" font-size="10.00">artvision_instanton</text>
<text text-anchor="middle" x="399" y="-7.5" font-family="Helvetica,sans-Serif" font-size="10.00">::sign</text>
</a>
</g>
</g>
<!-- Node4&#45;&gt;Node6 -->
<g id="edge5" class="edge"><title>Node4&#45;&gt;Node6</title>
<path fill="none" stroke="midnightblue" d="M302.418,-29.5303C314.893,-27.6991 327.811,-25.8029 339.964,-24.0191"/>
<polygon fill="midnightblue" stroke="midnightblue" points="340.579,-27.4663 349.965,-22.551 339.563,-20.5405 340.579,-27.4663"/>
</g>
</g>
</svg>
