<?xml version="1.0" encoding="UTF-8" standalone="no"?>
<!DOCTYPE svg PUBLIC "-//W3C//DTD SVG 1.1//EN"
 "http://www.w3.org/Graphics/SVG/1.1/DTD/svg11.dtd">
<!-- Generated by graphviz version 2.38.0 (20140413.2041)
 -->
<!-- Title: artvision_instanton::SolveLeftNullVector4x3Destructive Pages: 1 -->
<!--zoomable 333 -->
<svg id="main" version="1.1" xmlns="http://www.w3.org/2000/svg" xmlns:xlink="http://www.w3.org/1999/xlink" xml:space="preserve" onload="init(evt)">
<style type="text/css"><![CDATA[
.edge:hover path { stroke: red; }
.edge:hover polygon { stroke: red; fill: red; }
]]></style>
<script type="text/javascript"><![CDATA[
var edges = document.getElementsByTagName('g');
if (edges && edges.length) {
  for (var i=0;i<edges.length;i++) {
    if (edges[i].id.substr(0,4)=='edge') {
      edges[i].setAttribute('class','edge');
    }
  }
}
]]></script>
        <defs>
                <circle id="rim" cx="0" cy="0" r="7"/>
                <circle id="rim2" cx="0" cy="0" r="3.5"/>
                <g id="zoomPlus">
                        <use xlink:href="#rim" fill="#404040">
                                <set attributeName="fill" to="#808080" begin="zoomplus.mouseover" end="zoomplus.mouseout"/>
                        </use>
                        <path d="M-4,0h8M0,-4v8" fill="none" stroke="white" stroke-width="1.5" pointer-events="none"/>
                </g>
                <g id="zoomMin">
                        <use xlink:href="#rim" fill="#404040">
                                <set attributeName="fill" to="#808080" begin="zoomminus.mouseover" end="zoomminus.mouseout"/>
                        </use>
                        <path d="M-4,0h8" fill="none" stroke="white" stroke-width="1.5" pointer-events="none"/>
                </g>
                <g id="dirArrow">
                        <path fill="none" stroke="white" stroke-width="1.5" d="M0,-3.0v7 M-2.5,-0.5L0,-3.0L2.5,-0.5"/>
                </g>
               <g id="resetDef">
                       <use xlink:href="#rim2" fill="#404040">
                               <set attributeName="fill" to="#808080" begin="reset.mouseover" end="reset.mouseout"/>
                       </use>
               </g>
        </defs>

<script type="text/javascript">
var viewWidth = 679;
var viewHeight = 333;
var sectionId = 'dynsection-178';
</script>
<script xlink:href="svgpan.js"/>
<svg id="graph" class="graph">
<g id="viewport">
<title>artvision_instanton::SolveLeftNullVector4x3Destructive</title>
<polygon fill="white" stroke="none" points="-4,4 -4,-329 675,-329 675,4 -4,4"/>
<!-- Node1 -->
<g id="node1" class="node"><title>Node1</title>
<polygon fill="#bfbfbf" stroke="black" points="0,-196.5 0,-226.5 176,-226.5 176,-196.5 0,-196.5"/>
<text text-anchor="start" x="8" y="-214.5" font-family="Helvetica,sans-Serif" font-size="10.00">artvision_instanton</text>
<text text-anchor="middle" x="88" y="-203.5" font-family="Helvetica,sans-Serif" font-size="10.00">::SolveLeftNullVector4x3Destructive</text>
</g>
<!-- Node2 -->
<g id="node2" class="node"><title>Node2</title>
<g id="a_node2"><a xlink:href="namespaceartvision__instanton.html#a4e3faf7c78294e7ca0b205d5285287e4" target="_top" xlink:title="artvision_instanton\l::ZeroVector">
<polygon fill="white" stroke="black" points="238.5,-294.5 238.5,-324.5 336.5,-324.5 336.5,-294.5 238.5,-294.5"/>
<text text-anchor="start" x="246.5" y="-312.5" font-family="Helvetica,sans-Serif" font-size="10.00">artvision_instanton</text>
<text text-anchor="middle" x="287.5" y="-301.5" font-family="Helvetica,sans-Serif" font-size="10.00">::ZeroVector</text>
</a>
</g>
</g>
<!-- Node1&#45;&gt;Node2 -->
<g id="edge1" class="edge"><title>Node1&#45;&gt;Node2</title>
<path fill="none" stroke="midnightblue" d="M110.823,-226.749C134.778,-242.975 174.793,-268.588 212,-285.5 217.31,-287.914 222.933,-290.192 228.616,-292.314"/>
<polygon fill="midnightblue" stroke="midnightblue" points="227.596,-295.666 238.191,-295.732 229.949,-289.074 227.596,-295.666"/>
</g>
<!-- Node3 -->
<g id="node3" class="node"><title>Node3</title>
<g id="a_node3"><a xlink:href="namespaceartvision__instanton.html#aa8df4e1f52e69f5d753230d285781d75" target="_top" xlink:title="artvision_instanton\l::Tranpose4x3">
<polygon fill="white" stroke="black" points="238.5,-245.5 238.5,-275.5 336.5,-275.5 336.5,-245.5 238.5,-245.5"/>
<text text-anchor="start" x="246.5" y="-263.5" font-family="Helvetica,sans-Serif" font-size="10.00">artvision_instanton</text>
<text text-anchor="middle" x="287.5" y="-252.5" font-family="Helvetica,sans-Serif" font-size="10.00">::Tranpose4x3</text>
</a>
</g>
</g>
<!-- Node1&#45;&gt;Node3 -->
<g id="edge2" class="edge"><title>Node1&#45;&gt;Node3</title>
<path fill="none" stroke="midnightblue" d="M149.599,-226.535C174.613,-232.741 203.487,-239.904 228.251,-246.048"/>
<polygon fill="midnightblue" stroke="midnightblue" points="227.683,-249.514 238.232,-248.525 229.369,-242.72 227.683,-249.514"/>
</g>
<!-- Node4 -->
<g id="node4" class="node"><title>Node4</title>
<g id="a_node4"><a xlink:href="namespaceartvision__instanton.html#a8f54e58d8c4361d60512028920ca9320" target="_top" xlink:title="artvision_instanton\l::OrthogonalizePivot3x4Basis0">
<polygon fill="white" stroke="black" points="212,-147.5 212,-177.5 363,-177.5 363,-147.5 212,-147.5"/>
<text text-anchor="start" x="220" y="-165.5" font-family="Helvetica,sans-Serif" font-size="10.00">artvision_instanton</text>
<text text-anchor="middle" x="287.5" y="-154.5" font-family="Helvetica,sans-Serif" font-size="10.00">::OrthogonalizePivot3x4Basis0</text>
</a>
</g>
</g>
<!-- Node1&#45;&gt;Node4 -->
<g id="edge3" class="edge"><title>Node1&#45;&gt;Node4</title>
<path fill="none" stroke="midnightblue" d="M149.599,-196.465C170.642,-191.245 194.416,-185.346 216.176,-179.947"/>
<polygon fill="midnightblue" stroke="midnightblue" points="217.153,-183.311 226.016,-177.506 215.467,-176.517 217.153,-183.311"/>
</g>
<!-- Node13 -->
<g id="node13" class="node"><title>Node13</title>
<g id="a_node13"><a xlink:href="namespaceartvision__instanton.html#a11e6170290a7c303d4cd30140cf11d72" target="_top" xlink:title="artvision_instanton\l::OrthogonalizePivot3x4Basis1">
<polygon fill="white" stroke="black" points="212,-98.5 212,-128.5 363,-128.5 363,-98.5 212,-98.5"/>
<text text-anchor="start" x="220" y="-116.5" font-family="Helvetica,sans-Serif" font-size="10.00">artvision_instanton</text>
<text text-anchor="middle" x="287.5" y="-105.5" font-family="Helvetica,sans-Serif" font-size="10.00">::OrthogonalizePivot3x4Basis1</text>
</a>
</g>
</g>
<!-- Node1&#45;&gt;Node13 -->
<g id="edge12" class="edge"><title>Node1&#45;&gt;Node13</title>
<path fill="none" stroke="midnightblue" d="M111.336,-196.274C135.4,-180.346 175.204,-155.362 212,-138.5 216.884,-136.262 222.027,-134.121 227.236,-132.1"/>
<polygon fill="midnightblue" stroke="midnightblue" points="228.489,-135.368 236.638,-128.598 226.045,-128.809 228.489,-135.368"/>
</g>
<!-- Node15 -->
<g id="node15" class="node"><title>Node15</title>
<g id="a_node15"><a xlink:href="namespaceartvision__instanton.html#a84ba45d8f0b96ea9382add9e326b78d7" target="_top" xlink:title="artvision_instanton\l::OrthogonalizePivot3x4Basis2">
<polygon fill="white" stroke="black" points="212,-196.5 212,-226.5 363,-226.5 363,-196.5 212,-196.5"/>
<text text-anchor="start" x="220" y="-214.5" font-family="Helvetica,sans-Serif" font-size="10.00">artvision_instanton</text>
<text text-anchor="middle" x="287.5" y="-203.5" font-family="Helvetica,sans-Serif" font-size="10.00">::OrthogonalizePivot3x4Basis2</text>
</a>
</g>
</g>
<!-- Node1&#45;&gt;Node15 -->
<g id="edge18" class="edge"><title>Node1&#45;&gt;Node15</title>
<path fill="none" stroke="midnightblue" d="M176.201,-211.5C184.65,-211.5 193.212,-211.5 201.638,-211.5"/>
<polygon fill="midnightblue" stroke="midnightblue" points="201.829,-215 211.829,-211.5 201.829,-208 201.829,-215"/>
</g>
<!-- Node5 -->
<g id="node5" class="node"><title>Node5</title>
<g id="a_node5"><a xlink:href="namespaceartvision__instanton.html#a4ee56420e6ede25a3a0c5ede566adb5e" target="_top" xlink:title="Sum sqaured. ">
<polygon fill="white" stroke="black" points="401.5,-147.5 401.5,-177.5 499.5,-177.5 499.5,-147.5 401.5,-147.5"/>
<text text-anchor="start" x="409.5" y="-165.5" font-family="Helvetica,sans-Serif" font-size="10.00">artvision_instanton</text>
<text text-anchor="middle" x="450.5" y="-154.5" font-family="Helvetica,sans-Serif" font-size="10.00">::SumSquares4</text>
</a>
</g>
</g>
<!-- Node4&#45;&gt;Node5 -->
<g id="edge4" class="edge"><title>Node4&#45;&gt;Node5</title>
<path fill="none" stroke="midnightblue" d="M363.344,-162.5C372.551,-162.5 381.858,-162.5 390.779,-162.5"/>
<polygon fill="midnightblue" stroke="midnightblue" points="391.045,-166 401.045,-162.5 391.045,-159 391.045,-166"/>
</g>
<!-- Node7 -->
<g id="node7" class="node"><title>Node7</title>
<g id="a_node7"><a xlink:href="namespaceartvision__instanton.html#ab4840ea66b9a85b9215531830e4a60e1" target="_top" xlink:title="artvision_instanton\l::MaxIndex3">
<polygon fill="white" stroke="black" points="401.5,-98.5 401.5,-128.5 499.5,-128.5 499.5,-98.5 401.5,-98.5"/>
<text text-anchor="start" x="409.5" y="-116.5" font-family="Helvetica,sans-Serif" font-size="10.00">artvision_instanton</text>
<text text-anchor="middle" x="450.5" y="-105.5" font-family="Helvetica,sans-Serif" font-size="10.00">::MaxIndex3</text>
</a>
</g>
</g>
<!-- Node4&#45;&gt;Node7 -->
<g id="edge6" class="edge"><title>Node4&#45;&gt;Node7</title>
<path fill="none" stroke="midnightblue" d="M338.119,-147.399C355.114,-142.226 374.273,-136.395 391.848,-131.046"/>
<polygon fill="midnightblue" stroke="midnightblue" points="392.877,-134.392 401.425,-128.132 390.839,-127.695 392.877,-134.392"/>
</g>
<!-- Node8 -->
<g id="node8" class="node"><title>Node8</title>
<g id="a_node8"><a xlink:href="namespaceartvision__instanton.html#ab1d2b750bf43639234c9e0f4597fc96b" target="_top" xlink:title="Swap the contents of two vectors. ">
<polygon fill="white" stroke="black" points="401.5,-49.5 401.5,-79.5 499.5,-79.5 499.5,-49.5 401.5,-49.5"/>
<text text-anchor="start" x="409.5" y="-67.5" font-family="Helvetica,sans-Serif" font-size="10.00">artvision_instanton</text>
<text text-anchor="middle" x="450.5" y="-56.5" font-family="Helvetica,sans-Serif" font-size="10.00">::SwapVector</text>
</a>
</g>
</g>
<!-- Node4&#45;&gt;Node8 -->
<g id="edge7" class="edge"><title>Node4&#45;&gt;Node8</title>
<path fill="none" stroke="midnightblue" d="M347.555,-147.398C353.009,-144.862 358.259,-141.916 363,-138.5 384.924,-122.702 378.304,-106.876 399,-89.5 400.934,-87.8763 402.991,-86.3258 405.128,-84.8504"/>
<polygon fill="midnightblue" stroke="midnightblue" points="407.025,-87.792 413.664,-79.535 403.325,-81.8498 407.025,-87.792"/>
</g>
<!-- Node9 -->
<g id="node9" class="node"><title>Node9</title>
<g id="a_node9"><a xlink:href="namespaceartvision__instanton.html#a15dadc526841cbe9f7a5d74530ca7746" target="_top" xlink:title="artvision_instanton\l::ScaleVector4">
<polygon fill="white" stroke="black" points="401.5,-196.5 401.5,-226.5 499.5,-226.5 499.5,-196.5 401.5,-196.5"/>
<text text-anchor="start" x="409.5" y="-214.5" font-family="Helvetica,sans-Serif" font-size="10.00">artvision_instanton</text>
<text text-anchor="middle" x="450.5" y="-203.5" font-family="Helvetica,sans-Serif" font-size="10.00">::ScaleVector4</text>
</a>
</g>
</g>
<!-- Node4&#45;&gt;Node9 -->
<g id="edge8" class="edge"><title>Node4&#45;&gt;Node9</title>
<path fill="none" stroke="midnightblue" d="M338.119,-177.601C355.114,-182.774 374.273,-188.605 391.848,-193.954"/>
<polygon fill="midnightblue" stroke="midnightblue" points="390.839,-197.305 401.425,-196.868 392.877,-190.608 390.839,-197.305"/>
</g>
<!-- Node10 -->
<g id="node10" class="node"><title>Node10</title>
<g id="a_node10"><a xlink:href="group___project.html#gae1d9696dce608d9a3b9d7fcd7285ecce" target="_top" xlink:title="artvision_instanton\l::SubtractProjection">
<polygon fill="white" stroke="black" points="399,-245.5 399,-275.5 502,-275.5 502,-245.5 399,-245.5"/>
<text text-anchor="start" x="407" y="-263.5" font-family="Helvetica,sans-Serif" font-size="10.00">artvision_instanton</text>
<text text-anchor="middle" x="450.5" y="-252.5" font-family="Helvetica,sans-Serif" font-size="10.00">::SubtractProjection</text>
</a>
</g>
</g>
<!-- Node4&#45;&gt;Node10 -->
<g id="edge9" class="edge"><title>Node4&#45;&gt;Node10</title>
<path fill="none" stroke="midnightblue" d="M345.649,-177.547C351.785,-180.348 357.71,-183.639 363,-187.5 384.828,-203.431 378.165,-219.29 399,-236.5 400.516,-237.752 402.107,-238.956 403.754,-240.112"/>
<polygon fill="midnightblue" stroke="midnightblue" points="402.009,-243.148 412.342,-245.489 405.723,-237.215 402.009,-243.148"/>
</g>
<!-- Node6 -->
<g id="node6" class="node"><title>Node6</title>
<g id="a_node6"><a xlink:href="namespaceartvision__instanton.html#a52c0dfbde7558c411db7c1277228bbd1" target="_top" xlink:title="artvision_instanton\l::DotProduct4">
<polygon fill="white" stroke="black" points="555.5,-147.5 555.5,-177.5 653.5,-177.5 653.5,-147.5 555.5,-147.5"/>
<text text-anchor="start" x="563.5" y="-165.5" font-family="Helvetica,sans-Serif" font-size="10.00">artvision_instanton</text>
<text text-anchor="middle" x="604.5" y="-154.5" font-family="Helvetica,sans-Serif" font-size="10.00">::DotProduct4</text>
</a>
</g>
</g>
<!-- Node5&#45;&gt;Node6 -->
<g id="edge5" class="edge"><title>Node5&#45;&gt;Node6</title>
<path fill="none" stroke="midnightblue" d="M499.594,-162.5C514.081,-162.5 530.138,-162.5 545.212,-162.5"/>
<polygon fill="midnightblue" stroke="midnightblue" points="545.458,-166 555.458,-162.5 545.458,-159 545.458,-166"/>
</g>
<!-- Node11 -->
<g id="node11" class="node"><title>Node11</title>
<g id="a_node11"><a xlink:href="namespaceartvision__instanton.html#a48cba394ed7537d523c64e4bf7b8d481" target="_top" xlink:title="Compute the dot product. ">
<polygon fill="white" stroke="black" points="555.5,-269.5 555.5,-299.5 653.5,-299.5 653.5,-269.5 555.5,-269.5"/>
<text text-anchor="start" x="563.5" y="-287.5" font-family="Helvetica,sans-Serif" font-size="10.00">artvision_instanton</text>
<text text-anchor="middle" x="604.5" y="-276.5" font-family="Helvetica,sans-Serif" font-size="10.00">::DotProduct</text>
</a>
</g>
</g>
<!-- Node10&#45;&gt;Node11 -->
<g id="edge10" class="edge"><title>Node10&#45;&gt;Node11</title>
<path fill="none" stroke="midnightblue" d="M502.114,-268.492C515.943,-270.675 531.039,-273.059 545.257,-275.304"/>
<polygon fill="midnightblue" stroke="midnightblue" points="545.001,-278.807 555.424,-276.909 546.092,-271.892 545.001,-278.807"/>
</g>
<!-- Node12 -->
<g id="node12" class="node"><title>Node12</title>
<g id="a_node12"><a xlink:href="namespaceartvision__instanton.html#a9e9bce716218bde2b37c084592ec76c0" target="_top" xlink:title="artvision_instanton\l::AccumulateScaledVector">
<polygon fill="white" stroke="black" points="538,-220.5 538,-250.5 671,-250.5 671,-220.5 538,-220.5"/>
<text text-anchor="start" x="546" y="-238.5" font-family="Helvetica,sans-Serif" font-size="10.00">artvision_instanton</text>
<text text-anchor="middle" x="604.5" y="-227.5" font-family="Helvetica,sans-Serif" font-size="10.00">::AccumulateScaledVector</text>
</a>
</g>
</g>
<!-- Node10&#45;&gt;Node12 -->
<g id="edge11" class="edge"><title>Node10&#45;&gt;Node12</title>
<path fill="none" stroke="midnightblue" d="M502.114,-252.175C510.459,-250.803 519.266,-249.354 528.062,-247.907"/>
<polygon fill="midnightblue" stroke="midnightblue" points="528.665,-251.355 537.965,-246.279 527.529,-244.448 528.665,-251.355"/>
</g>
<!-- Node13&#45;&gt;Node5 -->
<g id="edge13" class="edge"><title>Node13&#45;&gt;Node5</title>
<path fill="none" stroke="midnightblue" d="M338.119,-128.601C355.114,-133.774 374.273,-139.605 391.848,-144.954"/>
<polygon fill="midnightblue" stroke="midnightblue" points="390.839,-148.305 401.425,-147.868 392.877,-141.608 390.839,-148.305"/>
</g>
<!-- Node13&#45;&gt;Node8 -->
<g id="edge15" class="edge"><title>Node13&#45;&gt;Node8</title>
<path fill="none" stroke="midnightblue" d="M338.119,-98.3986C355.114,-93.2263 374.273,-87.3953 391.848,-82.0464"/>
<polygon fill="midnightblue" stroke="midnightblue" points="392.877,-85.3917 401.425,-79.1316 390.839,-78.6949 392.877,-85.3917"/>
</g>
<!-- Node13&#45;&gt;Node9 -->
<g id="edge16" class="edge"><title>Node13&#45;&gt;Node9</title>
<path fill="none" stroke="midnightblue" d="M345.649,-128.547C351.785,-131.348 357.71,-134.639 363,-138.5 384.828,-154.431 378.165,-170.29 399,-187.5 400.516,-188.752 402.107,-189.956 403.754,-191.112"/>
<polygon fill="midnightblue" stroke="midnightblue" points="402.009,-194.148 412.342,-196.489 405.723,-188.215 402.009,-194.148"/>
</g>
<!-- Node13&#45;&gt;Node10 -->
<g id="edge17" class="edge"><title>Node13&#45;&gt;Node10</title>
<path fill="none" stroke="midnightblue" d="M349.392,-128.531C354.352,-131.31 358.989,-134.601 363,-138.5 396.271,-170.843 367.726,-202.221 399,-236.5 399.752,-237.325 400.539,-238.124 401.355,-238.898"/>
<polygon fill="midnightblue" stroke="midnightblue" points="399.356,-241.778 409.381,-245.205 403.682,-236.274 399.356,-241.778"/>
</g>
<!-- Node14 -->
<g id="node14" class="node"><title>Node14</title>
<g id="a_node14"><a xlink:href="namespaceartvision__instanton.html#a34c8e5ff15e71ec79636d73956380578" target="_top" xlink:title="artvision_instanton\l::MaxIndex2">
<polygon fill="white" stroke="black" points="401.5,-0.5 401.5,-30.5 499.5,-30.5 499.5,-0.5 401.5,-0.5"/>
<text text-anchor="start" x="409.5" y="-18.5" font-family="Helvetica,sans-Serif" font-size="10.00">artvision_instanton</text>
<text text-anchor="middle" x="450.5" y="-7.5" font-family="Helvetica,sans-Serif" font-size="10.00">::MaxIndex2</text>
</a>
</g>
</g>
<!-- Node13&#45;&gt;Node14 -->
<g id="edge14" class="edge"><title>Node13&#45;&gt;Node14</title>
<path fill="none" stroke="midnightblue" d="M309.599,-98.4245C331.476,-83.0661 366.908,-58.9494 399,-40.5 402.061,-38.7402 405.263,-36.9796 408.505,-35.2535"/>
<polygon fill="midnightblue" stroke="midnightblue" points="410.395,-38.2165 417.665,-30.5095 407.175,-32.0007 410.395,-38.2165"/>
</g>
<!-- Node15&#45;&gt;Node5 -->
<g id="edge19" class="edge"><title>Node15&#45;&gt;Node5</title>
<path fill="none" stroke="midnightblue" d="M338.119,-196.399C355.114,-191.226 374.273,-185.395 391.848,-180.046"/>
<polygon fill="midnightblue" stroke="midnightblue" points="392.877,-183.392 401.425,-177.132 390.839,-176.695 392.877,-183.392"/>
</g>
<!-- Node15&#45;&gt;Node9 -->
<g id="edge20" class="edge"><title>Node15&#45;&gt;Node9</title>
<path fill="none" stroke="midnightblue" d="M363.344,-211.5C372.551,-211.5 381.858,-211.5 390.779,-211.5"/>
<polygon fill="midnightblue" stroke="midnightblue" points="391.045,-215 401.045,-211.5 391.045,-208 391.045,-215"/>
</g>
<!-- Node15&#45;&gt;Node10 -->
<g id="edge21" class="edge"><title>Node15&#45;&gt;Node10</title>
<path fill="none" stroke="midnightblue" d="M338.119,-226.601C354.57,-231.608 373.049,-237.232 390.157,-242.439"/>
<polygon fill="midnightblue" stroke="midnightblue" points="389.459,-245.885 400.045,-245.448 391.497,-239.188 389.459,-245.885"/>
</g>
</g>
</svg>
        <g id="navigator" transform="translate(0 0)" fill="#404254">
                <rect fill="#f2f5e9" fill-opacity="0.5" stroke="#606060" stroke-width=".5" x="0" y="0" width="60" height="60"/>
                <use id="zoomplus" xlink:href="#zoomPlus" x="17" y="9" onmousedown="handleZoom(evt,'in')"/>
                <use id="zoomminus" xlink:href="#zoomMin" x="42" y="9" onmousedown="handleZoom(evt,'out')"/>
                <use id="reset" xlink:href="#resetDef" x="30" y="36" onmousedown="handleReset()"/>
                <g id="arrowUp" xlink:href="#dirArrow" transform="translate(30 24)" onmousedown="handlePan(0,-1)">
                  <use xlink:href="#rim" fill="#404040">
                        <set attributeName="fill" to="#808080" begin="arrowUp.mouseover" end="arrowUp.mouseout"/>
                  </use>
                  <path fill="none" stroke="white" stroke-width="1.5" d="M0,-3.0v7 M-2.5,-0.5L0,-3.0L2.5,-0.5"/>
                </g>
                <g id="arrowRight" xlink:href="#dirArrow" transform="rotate(90) translate(36 -43)" onmousedown="handlePan(1,0)">
                  <use xlink:href="#rim" fill="#404040">
                        <set attributeName="fill" to="#808080" begin="arrowRight.mouseover" end="arrowRight.mouseout"/>
                  </use>
                  <path fill="none" stroke="white" stroke-width="1.5" d="M0,-3.0v7 M-2.5,-0.5L0,-3.0L2.5,-0.5"/>
                </g>
                <g id="arrowDown" xlink:href="#dirArrow" transform="rotate(180) translate(-30 -48)" onmousedown="handlePan(0,1)">
                  <use xlink:href="#rim" fill="#404040">
                        <set attributeName="fill" to="#808080" begin="arrowDown.mouseover" end="arrowDown.mouseout"/>
                  </use>
                  <path fill="none" stroke="white" stroke-width="1.5" d="M0,-3.0v7 M-2.5,-0.5L0,-3.0L2.5,-0.5"/>
                </g>
                <g id="arrowLeft" xlink:href="#dirArrow" transform="rotate(270) translate(-36 17)" onmousedown="handlePan(-1,0)">
                  <use xlink:href="#rim" fill="#404040">
                        <set attributeName="fill" to="#808080" begin="arrowLeft.mouseover" end="arrowLeft.mouseout"/>
                  </use>
                  <path fill="none" stroke="white" stroke-width="1.5" d="M0,-3.0v7 M-2.5,-0.5L0,-3.0L2.5,-0.5"/>
                </g>
        </g>
        <svg viewBox="0 0 15 15" width="100%" height="30px" preserveAspectRatio="xMaxYMin meet">
         <g id="arrow_out" transform="scale(0.3 0.3)">
          <a xlink:href="namespaceartvision__instanton_a5490f3bbced6386dc9ebed894d5a3f3a_cgraph_org.svg" target="_base">
           <rect id="button" ry="5" rx="5" y="6" x="6" height="38" width="38"
                fill="#f2f5e9" fill-opacity="0.5" stroke="#606060" stroke-width="1.0"/>
           <path id="arrow"
             d="M 11.500037,31.436501 C 11.940474,20.09759 22.043105,11.32322 32.158766,21.979434 L 37.068811,17.246167 C 37.068811,17.246167 37.088388,32 37.088388,32 L 22.160133,31.978069 C 22.160133,31.978069 26.997745,27.140456 26.997745,27.140456 C 18.528582,18.264221 13.291696,25.230495 11.500037,31.436501 z"
             style="fill:#404040;"/>
          </a>
         </g>
        </svg>
</svg>
