<?xml version="1.0" encoding="UTF-8" standalone="no"?>
<!DOCTYPE svg PUBLIC "-//W3C//DTD SVG 1.1//EN"
 "http://www.w3.org/Graphics/SVG/1.1/DTD/svg11.dtd">
<!-- Generated by graphviz version 2.38.0 (20140413.2041)
 -->
<!-- Title: artvision_instanton::ResolvePerspective3Point Pages: 1 -->
<svg width="456pt" height="176pt"
 viewBox="0.00 0.00 456.00 176.00" xmlns="http://www.w3.org/2000/svg" xmlns:xlink="http://www.w3.org/1999/xlink">
<g id="graph0" class="graph" transform="scale(1 1) rotate(0) translate(4 172)">
<title>artvision_instanton::ResolvePerspective3Point</title>
<polygon fill="white" stroke="none" points="-4,4 -4,-172 452,-172 452,4 -4,4"/>
<!-- Node1 -->
<g id="node1" class="node"><title>Node1</title>
<polygon fill="#bfbfbf" stroke="black" points="0,-66.5 0,-96.5 138,-96.5 138,-66.5 0,-66.5"/>
<text text-anchor="start" x="8" y="-84.5" font-family="Helvetica,sans-Serif" font-size="10.00">artvision_instanton</text>
<text text-anchor="middle" x="69" y="-73.5" font-family="Helvetica,sans-Serif" font-size="10.00">::ResolvePerspective3Point</text>
</g>
<!-- Node2 -->
<g id="node2" class="node"><title>Node2</title>
<g id="a_node2"><a xlink:href="namespaceartvision__instanton.html#ae2f91e798164e94f8da847fa07dc5dec" target="_top" xlink:title="Extract a rotation matrix and translation from a projection matrix. ">
<polygon fill="white" stroke="black" points="174,-137.5 174,-167.5 314,-167.5 314,-137.5 174,-137.5"/>
<text text-anchor="start" x="182" y="-155.5" font-family="Helvetica,sans-Serif" font-size="10.00">artvision_instanton</text>
<text text-anchor="middle" x="244" y="-144.5" font-family="Helvetica,sans-Serif" font-size="10.00">::ExtractRt_ProjectionMatrix</text>
</a>
</g>
</g>
<!-- Node1&#45;&gt;Node2 -->
<g id="edge1" class="edge"><title>Node1&#45;&gt;Node2</title>
<path fill="none" stroke="midnightblue" d="M101.544,-96.6458C122.001,-106.246 149.34,-118.662 174,-128.5 178.666,-130.362 183.54,-132.222 188.446,-134.036"/>
<polygon fill="midnightblue" stroke="midnightblue" points="187.279,-137.336 197.873,-137.457 189.667,-130.756 187.279,-137.336"/>
</g>
<!-- Node3 -->
<g id="node3" class="node"><title>Node3</title>
<g id="a_node3"><a xlink:href="namespaceartvision__instanton.html#a0bcd54deb4ce42595592e6acbe8dd7d1" target="_top" xlink:title="Perform a rigid transformation on a point. ">
<polygon fill="white" stroke="black" points="187,-88.5 187,-118.5 301,-118.5 301,-88.5 187,-88.5"/>
<text text-anchor="start" x="195" y="-106.5" font-family="Helvetica,sans-Serif" font-size="10.00">artvision_instanton</text>
<text text-anchor="middle" x="244" y="-95.5" font-family="Helvetica,sans-Serif" font-size="10.00">::ApplyRigidTransform</text>
</a>
</g>
</g>
<!-- Node1&#45;&gt;Node3 -->
<g id="edge2" class="edge"><title>Node1&#45;&gt;Node3</title>
<path fill="none" stroke="midnightblue" d="M138.374,-90.195C151.043,-91.8061 164.255,-93.4862 176.857,-95.0887"/>
<polygon fill="midnightblue" stroke="midnightblue" points="176.448,-98.5648 186.809,-96.3544 177.331,-91.6207 176.448,-98.5648"/>
</g>
<!-- Node6 -->
<g id="node6" class="node"><title>Node6</title>
<g id="a_node6"><a xlink:href="namespaceartvision__instanton.html#aaf2781e37f3d7d4e78dd2c872d0799b6" target="_top" xlink:title="artvision_instanton::sqr">
<polygon fill="white" stroke="black" points="185,-50 185,-69 303,-69 303,-50 185,-50"/>
<text text-anchor="middle" x="244" y="-57" font-family="Helvetica,sans-Serif" font-size="10.00">artvision_instanton::sqr</text>
</a>
</g>
</g>
<!-- Node1&#45;&gt;Node6 -->
<g id="edge5" class="edge"><title>Node1&#45;&gt;Node6</title>
<path fill="none" stroke="midnightblue" d="M138.374,-72.805C150.401,-71.2756 162.918,-69.6838 174.937,-68.1555"/>
<polygon fill="midnightblue" stroke="midnightblue" points="175.415,-71.6229 184.893,-66.8893 174.532,-64.6788 175.415,-71.6229"/>
</g>
<!-- Node7 -->
<g id="node7" class="node"><title>Node7</title>
<g id="a_node7"><a xlink:href="namespaceartvision__instanton.html#afd6dbbd9acca322a19536bce2c32b43c" target="_top" xlink:title="artvision_instanton\l::CopyVector">
<polygon fill="white" stroke="black" points="195,-0.5 195,-30.5 293,-30.5 293,-0.5 195,-0.5"/>
<text text-anchor="start" x="203" y="-18.5" font-family="Helvetica,sans-Serif" font-size="10.00">artvision_instanton</text>
<text text-anchor="middle" x="244" y="-7.5" font-family="Helvetica,sans-Serif" font-size="10.00">::CopyVector</text>
</a>
</g>
</g>
<!-- Node1&#45;&gt;Node7 -->
<g id="edge6" class="edge"><title>Node1&#45;&gt;Node7</title>
<path fill="none" stroke="midnightblue" d="M107.45,-66.4442C127.195,-58.5799 151.853,-48.8757 174,-40.5 179.573,-38.3922 185.413,-36.2203 191.236,-34.0779"/>
<polygon fill="midnightblue" stroke="midnightblue" points="192.78,-37.2398 200.969,-30.517 190.375,-30.6659 192.78,-37.2398"/>
</g>
<!-- Node4 -->
<g id="node4" class="node"><title>Node4</title>
<g id="a_node4"><a xlink:href="namespaceartvision__instanton.html#a614c9cf49c0617570fffd18befe57f8a" target="_top" xlink:title="y = A*x where A is a 3x3 and x is a 3x1. ">
<polygon fill="white" stroke="black" points="350,-112.5 350,-142.5 448,-142.5 448,-112.5 350,-112.5"/>
<text text-anchor="start" x="358" y="-130.5" font-family="Helvetica,sans-Serif" font-size="10.00">artvision_instanton</text>
<text text-anchor="middle" x="399" y="-119.5" font-family="Helvetica,sans-Serif" font-size="10.00">::Multiply_3x3_3x1</text>
</a>
</g>
</g>
<!-- Node3&#45;&gt;Node4 -->
<g id="edge3" class="edge"><title>Node3&#45;&gt;Node4</title>
<path fill="none" stroke="midnightblue" d="M301.103,-112.3C313.754,-114.285 327.209,-116.396 339.939,-118.392"/>
<polygon fill="midnightblue" stroke="midnightblue" points="339.542,-121.873 349.964,-119.965 340.627,-114.957 339.542,-121.873"/>
</g>
<!-- Node5 -->
<g id="node5" class="node"><title>Node5</title>
<g id="a_node5"><a xlink:href="namespaceartvision__instanton.html#ab4058805b1bbef9fbba6688a6f4ce7b6" target="_top" xlink:title="artvision_instanton\l::AddVector3">
<polygon fill="white" stroke="black" points="350,-63.5 350,-93.5 448,-93.5 448,-63.5 350,-63.5"/>
<text text-anchor="start" x="358" y="-81.5" font-family="Helvetica,sans-Serif" font-size="10.00">artvision_instanton</text>
<text text-anchor="middle" x="399" y="-70.5" font-family="Helvetica,sans-Serif" font-size="10.00">::AddVector3</text>
</a>
</g>
</g>
<!-- Node3&#45;&gt;Node5 -->
<g id="edge4" class="edge"><title>Node3&#45;&gt;Node5</title>
<path fill="none" stroke="midnightblue" d="M301.103,-94.3329C313.754,-92.2656 327.209,-90.0672 339.939,-87.9871"/>
<polygon fill="midnightblue" stroke="midnightblue" points="340.659,-91.4159 349.964,-86.3491 339.53,-84.5076 340.659,-91.4159"/>
</g>
</g>
</svg>
