<?xml version="1.0" encoding="UTF-8" standalone="no"?>
<!DOCTYPE svg PUBLIC "-//W3C//DTD SVG 1.1//EN"
 "http://www.w3.org/Graphics/SVG/1.1/DTD/svg11.dtd">
<!-- Generated by graphviz version 2.38.0 (20140413.2041)
 -->
<!-- Title: artvision_instanton::MultiplyAndAccumulateABt_vectorized Pages: 1 -->
<svg width="284pt" height="50pt"
 viewBox="0.00 0.00 284.00 50.00" xmlns="http://www.w3.org/2000/svg" xmlns:xlink="http://www.w3.org/1999/xlink">
<g id="graph0" class="graph" transform="scale(1 1) rotate(0) translate(4 46)">
<title>artvision_instanton::MultiplyAndAccumulateABt_vectorized</title>
<polygon fill="white" stroke="none" points="-4,4 -4,-46 280,-46 280,4 -4,4"/>
<!-- Node1 -->
<g id="node1" class="node"><title>Node1</title>
<polygon fill="#bfbfbf" stroke="black" points="0,-0.5 0,-41.5 142,-41.5 142,-0.5 0,-0.5"/>
<text text-anchor="start" x="8" y="-29.5" font-family="Helvetica,sans-Serif" font-size="10.00">artvision_instanton</text>
<text text-anchor="start" x="8" y="-18.5" font-family="Helvetica,sans-Serif" font-size="10.00">::MultiplyAndAccumulateABt</text>
<text text-anchor="middle" x="71" y="-7.5" font-family="Helvetica,sans-Serif" font-size="10.00">_vectorized</text>
</g>
<!-- Node2 -->
<g id="node2" class="node"><title>Node2</title>
<g id="a_node2"><a xlink:href="namespaceartvision__instanton.html#a48cba394ed7537d523c64e4bf7b8d481" target="_top" xlink:title="Compute the dot product. ">
<polygon fill="white" stroke="black" points="178,-6 178,-36 276,-36 276,-6 178,-6"/>
<text text-anchor="start" x="186" y="-24" font-family="Helvetica,sans-Serif" font-size="10.00">artvision_instanton</text>
<text text-anchor="middle" x="227" y="-13" font-family="Helvetica,sans-Serif" font-size="10.00">::DotProduct</text>
</a>
</g>
</g>
<!-- Node1&#45;&gt;Node2 -->
<g id="edge1" class="edge"><title>Node1&#45;&gt;Node2</title>
<path fill="none" stroke="midnightblue" d="M142.24,-21C150.813,-21 159.498,-21 167.866,-21"/>
<polygon fill="midnightblue" stroke="midnightblue" points="167.887,-24.5001 177.887,-21 167.887,-17.5001 167.887,-24.5001"/>
</g>
</g>
</svg>
