<?xml version="1.0" encoding="UTF-8" standalone="no"?>
<!DOCTYPE svg PUBLIC "-//W3C//DTD SVG 1.1//EN"
 "http://www.w3.org/Graphics/SVG/1.1/DTD/svg11.dtd">
<!-- Generated by graphviz version 2.38.0 (20140413.2041)
 -->
<!-- Title: artvision_instanton::bilinear_downsample_point Pages: 1 -->
<svg width="297pt" height="88pt"
 viewBox="0.00 0.00 297.00 88.00" xmlns="http://www.w3.org/2000/svg" xmlns:xlink="http://www.w3.org/1999/xlink">
<g id="graph0" class="graph" transform="scale(1 1) rotate(0) translate(4 84)">
<title>artvision_instanton::bilinear_downsample_point</title>
<polygon fill="white" stroke="none" points="-4,4 -4,-84 293,-84 293,4 -4,4"/>
<!-- Node1 -->
<g id="node1" class="node"><title>Node1</title>
<polygon fill="#bfbfbf" stroke="black" points="0,-24.5 0,-54.5 140,-54.5 140,-24.5 0,-24.5"/>
<text text-anchor="start" x="8" y="-42.5" font-family="Helvetica,sans-Serif" font-size="10.00">artvision_instanton</text>
<text text-anchor="middle" x="70" y="-31.5" font-family="Helvetica,sans-Serif" font-size="10.00">::bilinear_downsample_point</text>
</g>
<!-- Node2 -->
<g id="node2" class="node"><title>Node2</title>
<g id="a_node2"><a xlink:href="namespaceartvision__instanton.html#a694abee5a4fb46db17abac25fda0d8e9" target="_top" xlink:title="Apply a 2D binomial filter to a source image. ">
<polygon fill="white" stroke="black" points="180.5,-49.5 180.5,-79.5 284.5,-79.5 284.5,-49.5 180.5,-49.5"/>
<text text-anchor="start" x="188.5" y="-67.5" font-family="Helvetica,sans-Serif" font-size="10.00">artvision_instanton</text>
<text text-anchor="middle" x="232.5" y="-56.5" font-family="Helvetica,sans-Serif" font-size="10.00">::binomial_4th_order</text>
</a>
</g>
</g>
<!-- Node1&#45;&gt;Node2 -->
<g id="edge1" class="edge"><title>Node1&#45;&gt;Node2</title>
<path fill="none" stroke="midnightblue" d="M140.464,-50.32C150.399,-51.8674 160.558,-53.4499 170.318,-54.9702"/>
<polygon fill="midnightblue" stroke="midnightblue" points="169.899,-58.447 180.319,-56.5278 170.976,-51.5304 169.899,-58.447"/>
</g>
<!-- Node3 -->
<g id="node3" class="node"><title>Node3</title>
<g id="a_node3"><a xlink:href="namespaceartvision__instanton.html#a138423c5e6331108b9b359fed5875eb0" target="_top" xlink:title="The mean of the first pixel quad, and then every other pixel quad afterwards. ">
<polygon fill="white" stroke="black" points="176,-0.5 176,-30.5 289,-30.5 289,-0.5 176,-0.5"/>
<text text-anchor="start" x="184" y="-18.5" font-family="Helvetica,sans-Serif" font-size="10.00">artvision_instanton</text>
<text text-anchor="middle" x="232.5" y="-7.5" font-family="Helvetica,sans-Serif" font-size="10.00">::downsample_bilinear</text>
</a>
</g>
</g>
<!-- Node1&#45;&gt;Node3 -->
<g id="edge2" class="edge"><title>Node1&#45;&gt;Node3</title>
<path fill="none" stroke="midnightblue" d="M140.464,-29.1128C148.897,-27.8519 157.491,-26.5668 165.865,-25.3146"/>
<polygon fill="midnightblue" stroke="midnightblue" points="166.573,-28.7477 175.945,-23.8072 165.538,-21.8247 166.573,-28.7477"/>
</g>
</g>
</svg>
