<?xml version="1.0" encoding="UTF-8" standalone="no"?>
<!DOCTYPE svg PUBLIC "-//W3C//DTD SVG 1.1//EN"
 "http://www.w3.org/Graphics/SVG/1.1/DTD/svg11.dtd">
<!-- Generated by graphviz version 2.38.0 (20140413.2041)
 -->
<!-- Title: artvision_instanton::CauchyProjectiveReprojectionCost Pages: 1 -->
<svg width="784pt" height="102pt"
 viewBox="0.00 0.00 784.00 101.50" xmlns="http://www.w3.org/2000/svg" xmlns:xlink="http://www.w3.org/1999/xlink">
<g id="graph0" class="graph" transform="scale(1 1) rotate(0) translate(4 97.5)">
<title>artvision_instanton::CauchyProjectiveReprojectionCost</title>
<polygon fill="white" stroke="none" points="-4,4 -4,-97.5 780,-97.5 780,4 -4,4"/>
<!-- Node1 -->
<g id="node1" class="node"><title>Node1</title>
<polygon fill="#bfbfbf" stroke="black" points="0,-38 0,-68 176,-68 176,-38 0,-38"/>
<text text-anchor="start" x="8" y="-56" font-family="Helvetica,sans-Serif" font-size="10.00">artvision_instanton</text>
<text text-anchor="middle" x="88" y="-45" font-family="Helvetica,sans-Serif" font-size="10.00">::CauchyProjectiveReprojectionCost</text>
</g>
<!-- Node2 -->
<g id="node2" class="node"><title>Node2</title>
<g id="a_node2"><a xlink:href="namespaceartvision__instanton.html#ad86c7a71a52e1f604306cb3af0f89403" target="_top" xlink:title="Compute the Cauchy reprojection cost for H*p&#45;q. ">
<polygon fill="white" stroke="black" points="212,-38 212,-68 388,-68 388,-38 212,-38"/>
<text text-anchor="start" x="220" y="-56" font-family="Helvetica,sans-Serif" font-size="10.00">artvision_instanton</text>
<text text-anchor="middle" x="300" y="-45" font-family="Helvetica,sans-Serif" font-size="10.00">::CauchyProjectiveReprojectionCost</text>
</a>
</g>
</g>
<!-- Node1&#45;&gt;Node2 -->
<g id="edge1" class="edge"><title>Node1&#45;&gt;Node2</title>
<path fill="none" stroke="midnightblue" d="M176.235,-53C184.567,-53 193.052,-53 201.474,-53"/>
<polygon fill="midnightblue" stroke="midnightblue" points="201.699,-56.5001 211.699,-53 201.699,-49.5001 201.699,-56.5001"/>
</g>
<!-- Node3 -->
<g id="node3" class="node"><title>Node3</title>
<g id="a_node3"><a xlink:href="namespaceartvision__instanton.html#aac7359704d1486d43ac7b00356511175" target="_top" xlink:title="Multiply an in&#45;homogenous point by a transform. ">
<polygon fill="white" stroke="black" points="424,-63 424,-93 622,-93 622,-63 424,-63"/>
<text text-anchor="start" x="432" y="-81" font-family="Helvetica,sans-Serif" font-size="10.00">artvision_instanton</text>
<text text-anchor="middle" x="523" y="-70" font-family="Helvetica,sans-Serif" font-size="10.00">::MultiplyPointHomographyInhomogenous</text>
</a>
</g>
</g>
<!-- Node2&#45;&gt;Node3 -->
<g id="edge2" class="edge"><title>Node2&#45;&gt;Node3</title>
<path fill="none" stroke="midnightblue" d="M388.028,-62.8448C396.449,-63.7974 405.061,-64.7716 413.656,-65.7439"/>
<polygon fill="midnightblue" stroke="midnightblue" points="413.394,-69.2365 423.724,-66.8829 414.181,-62.2809 413.394,-69.2365"/>
</g>
<!-- Node4 -->
<g id="node4" class="node"><title>Node4</title>
<g id="a_node4"><a xlink:href="namespaceartvision__instanton.html#a7f364fe0dfa85b3e8e808022f9e53d1f" target="_top" xlink:title="As one_over_scale2 gets larger, cost increases. ">
<polygon fill="white" stroke="black" points="474,-14 474,-44 572,-44 572,-14 474,-14"/>
<text text-anchor="start" x="482" y="-32" font-family="Helvetica,sans-Serif" font-size="10.00">artvision_instanton</text>
<text text-anchor="middle" x="523" y="-21" font-family="Helvetica,sans-Serif" font-size="10.00">::CauchyCost</text>
</a>
</g>
</g>
<!-- Node2&#45;&gt;Node4 -->
<g id="edge3" class="edge"><title>Node2&#45;&gt;Node4</title>
<path fill="none" stroke="midnightblue" d="M388.028,-43.549C413.491,-40.7838 440.697,-37.8293 463.895,-35.3101"/>
<polygon fill="midnightblue" stroke="midnightblue" points="464.347,-38.7816 473.911,-34.2223 463.592,-31.8225 464.347,-38.7816"/>
</g>
<!-- Node5 -->
<g id="node5" class="node"><title>Node5</title>
<g id="a_node5"><a xlink:href="namespaceartvision__instanton.html#aabfdfd6e431693d8b92948d037feaf4f" target="_top" xlink:title="artvision_instanton::log">
<polygon fill="white" stroke="black" points="658.5,-38.5 658.5,-57.5 775.5,-57.5 775.5,-38.5 658.5,-38.5"/>
<text text-anchor="middle" x="717" y="-45.5" font-family="Helvetica,sans-Serif" font-size="10.00">artvision_instanton::log</text>
</a>
</g>
</g>
<!-- Node4&#45;&gt;Node5 -->
<g id="edge4" class="edge"><title>Node4&#45;&gt;Node5</title>
<path fill="none" stroke="midnightblue" d="M572.45,-33.7945C595.395,-36.0651 623.188,-38.8155 648.184,-41.2891"/>
<polygon fill="midnightblue" stroke="midnightblue" points="648.041,-44.7919 658.337,-42.2937 648.73,-37.8259 648.041,-44.7919"/>
</g>
<!-- Node6 -->
<g id="node6" class="node"><title>Node6</title>
<g id="a_node6"><a xlink:href="namespaceartvision__instanton.html#aaf2781e37f3d7d4e78dd2c872d0799b6" target="_top" xlink:title="artvision_instanton::sqr">
<polygon fill="white" stroke="black" points="658,-0.5 658,-19.5 776,-19.5 776,-0.5 658,-0.5"/>
<text text-anchor="middle" x="717" y="-7.5" font-family="Helvetica,sans-Serif" font-size="10.00">artvision_instanton::sqr</text>
</a>
</g>
</g>
<!-- Node4&#45;&gt;Node6 -->
<g id="edge5" class="edge"><title>Node4&#45;&gt;Node6</title>
<path fill="none" stroke="midnightblue" d="M572.45,-24.2055C595.297,-21.9446 622.952,-19.2079 647.865,-16.7425"/>
<polygon fill="midnightblue" stroke="midnightblue" points="648.38,-20.2087 657.987,-15.7409 647.691,-13.2428 648.38,-20.2087"/>
</g>
</g>
</svg>
