<?xml version="1.0" encoding="UTF-8" standalone="no"?>
<!DOCTYPE svg PUBLIC "-//W3C//DTD SVG 1.1//EN"
 "http://www.w3.org/Graphics/SVG/1.1/DTD/svg11.dtd">
<!-- Generated by graphviz version 2.38.0 (20140413.2041)
 -->
<!-- Title: artvision_instanton::CauchyCost Pages: 1 -->
<svg width="394pt" height="66pt"
 viewBox="0.00 0.00 394.00 66.00" xmlns="http://www.w3.org/2000/svg" xmlns:xlink="http://www.w3.org/1999/xlink">
<g id="graph0" class="graph" transform="scale(1 1) rotate(0) translate(4 62)">
<title>artvision_instanton::CauchyCost</title>
<polygon fill="white" stroke="none" points="-4,4 -4,-62 390,-62 390,4 -4,4"/>
<!-- Node1 -->
<g id="node1" class="node"><title>Node1</title>
<polygon fill="#bfbfbf" stroke="black" points="0,-14 0,-44 98,-44 98,-14 0,-14"/>
<text text-anchor="start" x="8" y="-32" font-family="Helvetica,sans-Serif" font-size="10.00">artvision_instanton</text>
<text text-anchor="middle" x="49" y="-21" font-family="Helvetica,sans-Serif" font-size="10.00">::CauchyCost</text>
</g>
<!-- Node2 -->
<g id="node2" class="node"><title>Node2</title>
<g id="a_node2"><a xlink:href="namespaceartvision__instanton.html#a7f364fe0dfa85b3e8e808022f9e53d1f" target="_top" xlink:title="As one_over_scale2 gets larger, cost increases. ">
<polygon fill="white" stroke="black" points="134,-14 134,-44 232,-44 232,-14 134,-14"/>
<text text-anchor="start" x="142" y="-32" font-family="Helvetica,sans-Serif" font-size="10.00">artvision_instanton</text>
<text text-anchor="middle" x="183" y="-21" font-family="Helvetica,sans-Serif" font-size="10.00">::CauchyCost</text>
</a>
</g>
</g>
<!-- Node1&#45;&gt;Node2 -->
<g id="edge1" class="edge"><title>Node1&#45;&gt;Node2</title>
<path fill="none" stroke="midnightblue" d="M98.0284,-29C106.309,-29 114.997,-29 123.517,-29"/>
<polygon fill="midnightblue" stroke="midnightblue" points="123.786,-32.5001 133.786,-29 123.786,-25.5001 123.786,-32.5001"/>
</g>
<!-- Node3 -->
<g id="node3" class="node"><title>Node3</title>
<g id="a_node3"><a xlink:href="namespaceartvision__instanton.html#aabfdfd6e431693d8b92948d037feaf4f" target="_top" xlink:title="artvision_instanton::log">
<polygon fill="white" stroke="black" points="268.5,-38.5 268.5,-57.5 385.5,-57.5 385.5,-38.5 268.5,-38.5"/>
<text text-anchor="middle" x="327" y="-45.5" font-family="Helvetica,sans-Serif" font-size="10.00">artvision_instanton::log</text>
</a>
</g>
</g>
<!-- Node2&#45;&gt;Node3 -->
<g id="edge2" class="edge"><title>Node2&#45;&gt;Node3</title>
<path fill="none" stroke="midnightblue" d="M232.075,-35.4325C240.493,-36.5589 249.393,-37.7497 258.226,-38.9316"/>
<polygon fill="midnightblue" stroke="midnightblue" points="257.765,-42.4011 268.141,-40.2583 258.693,-35.4629 257.765,-42.4011"/>
</g>
<!-- Node4 -->
<g id="node4" class="node"><title>Node4</title>
<g id="a_node4"><a xlink:href="namespaceartvision__instanton.html#aaf2781e37f3d7d4e78dd2c872d0799b6" target="_top" xlink:title="artvision_instanton::sqr">
<polygon fill="white" stroke="black" points="268,-0.5 268,-19.5 386,-19.5 386,-0.5 268,-0.5"/>
<text text-anchor="middle" x="327" y="-7.5" font-family="Helvetica,sans-Serif" font-size="10.00">artvision_instanton::sqr</text>
</a>
</g>
</g>
<!-- Node2&#45;&gt;Node4 -->
<g id="edge3" class="edge"><title>Node2&#45;&gt;Node4</title>
<path fill="none" stroke="midnightblue" d="M232.075,-22.5675C240.344,-21.461 249.079,-20.2922 257.759,-19.1309"/>
<polygon fill="midnightblue" stroke="midnightblue" points="258.444,-22.5705 267.891,-17.7751 257.515,-15.6323 258.444,-22.5705"/>
</g>
</g>
</svg>
