<?xml version="1.0" encoding="UTF-8" standalone="no"?>
<!DOCTYPE svg PUBLIC "-//W3C//DTD SVG 1.1//EN"
 "http://www.w3.org/Graphics/SVG/1.1/DTD/svg11.dtd">
<!-- Generated by graphviz version 2.38.0 (20140413.2041)
 -->
<!-- Title: artvision_instanton::UpdateDirectProjectiveMotionPostMultiply Pages: 1 -->
<svg width="319pt" height="137pt"
 viewBox="0.00 0.00 319.00 137.00" xmlns="http://www.w3.org/2000/svg" xmlns:xlink="http://www.w3.org/1999/xlink">
<g id="graph0" class="graph" transform="scale(1 1) rotate(0) translate(4 133)">
<title>artvision_instanton::UpdateDirectProjectiveMotionPostMultiply</title>
<polygon fill="white" stroke="none" points="-4,4 -4,-133 315,-133 315,4 -4,4"/>
<!-- Node1 -->
<g id="node1" class="node"><title>Node1</title>
<polygon fill="#bfbfbf" stroke="black" points="0,-44 0,-85 153,-85 153,-44 0,-44"/>
<text text-anchor="start" x="8" y="-73" font-family="Helvetica,sans-Serif" font-size="10.00">artvision_instanton</text>
<text text-anchor="start" x="8" y="-62" font-family="Helvetica,sans-Serif" font-size="10.00">::UpdateDirectProjectiveMotion</text>
<text text-anchor="middle" x="76.5" y="-51" font-family="Helvetica,sans-Serif" font-size="10.00">PostMultiply</text>
</g>
<!-- Node2 -->
<g id="node2" class="node"><title>Node2</title>
<g id="a_node2"><a xlink:href="namespaceartvision__instanton.html#ae7ddea6e66a6048556b4f1e119603636" target="_top" xlink:title="artvision_instanton\l::CopyVector9">
<polygon fill="white" stroke="black" points="201,-98.5 201,-128.5 299,-128.5 299,-98.5 201,-98.5"/>
<text text-anchor="start" x="209" y="-116.5" font-family="Helvetica,sans-Serif" font-size="10.00">artvision_instanton</text>
<text text-anchor="middle" x="250" y="-105.5" font-family="Helvetica,sans-Serif" font-size="10.00">::CopyVector9</text>
</a>
</g>
</g>
<!-- Node1&#45;&gt;Node2 -->
<g id="edge1" class="edge"><title>Node1&#45;&gt;Node2</title>
<path fill="none" stroke="midnightblue" d="M149.734,-85.1384C163.522,-89.0776 177.787,-93.1534 191.056,-96.9446"/>
<polygon fill="midnightblue" stroke="midnightblue" points="190.408,-100.399 200.984,-99.7813 192.331,-93.6687 190.408,-100.399"/>
</g>
<!-- Node3 -->
<g id="node3" class="node"><title>Node3</title>
<g id="a_node3"><a xlink:href="namespaceartvision__instanton.html#a8ea3dc9f1c83ddd0195faaef6a95a928" target="_top" xlink:title="artvision_instanton\l::AddVector">
<polygon fill="white" stroke="black" points="201,-49.5 201,-79.5 299,-79.5 299,-49.5 201,-49.5"/>
<text text-anchor="start" x="209" y="-67.5" font-family="Helvetica,sans-Serif" font-size="10.00">artvision_instanton</text>
<text text-anchor="middle" x="250" y="-56.5" font-family="Helvetica,sans-Serif" font-size="10.00">::AddVector</text>
</a>
</g>
</g>
<!-- Node1&#45;&gt;Node3 -->
<g id="edge2" class="edge"><title>Node1&#45;&gt;Node3</title>
<path fill="none" stroke="midnightblue" d="M153.222,-64.5C165.714,-64.5 178.494,-64.5 190.482,-64.5"/>
<polygon fill="midnightblue" stroke="midnightblue" points="190.786,-68.0001 200.786,-64.5 190.786,-61.0001 190.786,-68.0001"/>
</g>
<!-- Node4 -->
<g id="node4" class="node"><title>Node4</title>
<g id="a_node4"><a xlink:href="namespaceartvision__instanton.html#a346aad18ded6dcb188124e2b663e2824" target="_top" xlink:title="Normalize a homography such that H(3,3) = 1. ">
<polygon fill="white" stroke="black" points="189,-0.5 189,-30.5 311,-30.5 311,-0.5 189,-0.5"/>
<text text-anchor="start" x="197" y="-18.5" font-family="Helvetica,sans-Serif" font-size="10.00">artvision_instanton</text>
<text text-anchor="middle" x="250" y="-7.5" font-family="Helvetica,sans-Serif" font-size="10.00">::NormalizeHomography</text>
</a>
</g>
</g>
<!-- Node1&#45;&gt;Node4 -->
<g id="edge3" class="edge"><title>Node1&#45;&gt;Node4</title>
<path fill="none" stroke="midnightblue" d="M149.734,-43.8616C161.964,-40.3675 174.57,-36.7658 186.523,-33.3507"/>
<polygon fill="midnightblue" stroke="midnightblue" points="187.733,-36.6449 196.387,-30.5323 185.81,-29.9142 187.733,-36.6449"/>
</g>
</g>
</svg>
