<?xml version="1.0" encoding="UTF-8" standalone="no"?>
<!DOCTYPE svg PUBLIC "-//W3C//DTD SVG 1.1//EN"
 "http://www.w3.org/Graphics/SVG/1.1/DTD/svg11.dtd">
<!-- Generated by graphviz version 2.38.0 (20140413.2041)
 -->
<!-- Title: artvision_instanton::ncc Pages: 1 -->
<svg width="438pt" height="83pt"
 viewBox="0.00 0.00 438.00 83.00" xmlns="http://www.w3.org/2000/svg" xmlns:xlink="http://www.w3.org/1999/xlink">
<g id="graph0" class="graph" transform="scale(1 1) rotate(0) translate(4 79)">
<title>artvision_instanton::ncc</title>
<polygon fill="white" stroke="none" points="-4,4 -4,-79 434,-79 434,4 -4,4"/>
<!-- Node1 -->
<g id="node1" class="node"><title>Node1</title>
<polygon fill="#bfbfbf" stroke="black" points="0,-28 0,-47 120,-47 120,-28 0,-28"/>
<text text-anchor="middle" x="60" y="-35" font-family="Helvetica,sans-Serif" font-size="10.00">artvision_instanton::ncc</text>
</g>
<!-- Node2 -->
<g id="node2" class="node"><title>Node2</title>
<g id="a_node2"><a xlink:href="namespaceartvision__instanton.html#af73541d9cc5e6a6a0e46b048039084f5" target="_top" xlink:title="artvision_instanton\l::ComputeNCCScalars">
<polygon fill="white" stroke="black" points="157,-44.5 157,-74.5 275,-74.5 275,-44.5 157,-44.5"/>
<text text-anchor="start" x="165" y="-62.5" font-family="Helvetica,sans-Serif" font-size="10.00">artvision_instanton</text>
<text text-anchor="middle" x="216" y="-51.5" font-family="Helvetica,sans-Serif" font-size="10.00">::ComputeNCCScalars</text>
</a>
</g>
</g>
<!-- Node1&#45;&gt;Node2 -->
<g id="edge1" class="edge"><title>Node1&#45;&gt;Node2</title>
<path fill="none" stroke="midnightblue" d="M120.1,-45.9429C128.851,-47.193 137.929,-48.4899 146.846,-49.7638"/>
<polygon fill="midnightblue" stroke="midnightblue" points="146.426,-53.2391 156.82,-51.1886 147.416,-46.3095 146.426,-53.2391"/>
</g>
<!-- Node4 -->
<g id="node4" class="node"><title>Node4</title>
<g id="a_node4"><a xlink:href="namespaceartvision__instanton.html#a98b490948a290f738651f321eed6bf72" target="_top" xlink:title="artvision_instanton::ncc">
<polygon fill="white" stroke="black" points="156,-6 156,-25 276,-25 276,-6 156,-6"/>
<text text-anchor="middle" x="216" y="-13" font-family="Helvetica,sans-Serif" font-size="10.00">artvision_instanton::ncc</text>
</a>
</g>
</g>
<!-- Node1&#45;&gt;Node4 -->
<g id="edge3" class="edge"><title>Node1&#45;&gt;Node4</title>
<path fill="none" stroke="midnightblue" d="M120.1,-29.0571C128.513,-27.8552 137.228,-26.6102 145.813,-25.3839"/>
<polygon fill="midnightblue" stroke="midnightblue" points="146.399,-28.8357 155.804,-23.9566 145.409,-21.9061 146.399,-28.8357"/>
</g>
<!-- Node3 -->
<g id="node3" class="node"><title>Node3</title>
<g id="a_node3"><a xlink:href="namespaceartvision__instanton.html#aaf2781e37f3d7d4e78dd2c872d0799b6" target="_top" xlink:title="artvision_instanton::sqr">
<polygon fill="white" stroke="black" points="312,-50 312,-69 430,-69 430,-50 312,-50"/>
<text text-anchor="middle" x="371" y="-57" font-family="Helvetica,sans-Serif" font-size="10.00">artvision_instanton::sqr</text>
</a>
</g>
</g>
<!-- Node2&#45;&gt;Node3 -->
<g id="edge2" class="edge"><title>Node2&#45;&gt;Node3</title>
<path fill="none" stroke="midnightblue" d="M275.279,-59.5C283.898,-59.5 292.845,-59.5 301.646,-59.5"/>
<polygon fill="midnightblue" stroke="midnightblue" points="301.883,-63.0001 311.883,-59.5 301.883,-56.0001 301.883,-63.0001"/>
</g>
<!-- Node5 -->
<g id="node5" class="node"><title>Node5</title>
<g id="a_node5"><a xlink:href="namespaceartvision__instanton_1_1details.html#a64545afa12d78d9705729c27033a7377" target="_top" xlink:title="artvision_instanton\l::details::nccCPU">
<polygon fill="white" stroke="black" points="322,-0.5 322,-30.5 420,-30.5 420,-0.5 322,-0.5"/>
<text text-anchor="start" x="330" y="-18.5" font-family="Helvetica,sans-Serif" font-size="10.00">artvision_instanton</text>
<text text-anchor="middle" x="371" y="-7.5" font-family="Helvetica,sans-Serif" font-size="10.00">::details::nccCPU</text>
</a>
</g>
</g>
<!-- Node4&#45;&gt;Node5 -->
<g id="edge4" class="edge"><title>Node4&#45;&gt;Node5</title>
<path fill="none" stroke="midnightblue" d="M276.154,-15.5C287.861,-15.5 300.14,-15.5 311.814,-15.5"/>
<polygon fill="midnightblue" stroke="midnightblue" points="311.888,-19.0001 321.888,-15.5 311.888,-12.0001 311.888,-19.0001"/>
</g>
</g>
</svg>
