<?xml version="1.0" encoding="UTF-8" standalone="no"?>
<!DOCTYPE svg PUBLIC "-//W3C//DTD SVG 1.1//EN"
 "http://www.w3.org/Graphics/SVG/1.1/DTD/svg11.dtd">
<!-- Generated by graphviz version 2.38.0 (20140413.2041)
 -->
<!-- Title: artvision_instanton::RelativeRigidTransform Pages: 1 -->
<svg width="453pt" height="186pt"
 viewBox="0.00 0.00 453.00 186.00" xmlns="http://www.w3.org/2000/svg" xmlns:xlink="http://www.w3.org/1999/xlink">
<g id="graph0" class="graph" transform="scale(1 1) rotate(0) translate(4 182)">
<title>artvision_instanton::RelativeRigidTransform</title>
<polygon fill="white" stroke="none" points="-4,4 -4,-182 449,-182 449,4 -4,4"/>
<!-- Node1 -->
<g id="node1" class="node"><title>Node1</title>
<polygon fill="#bfbfbf" stroke="black" points="0,-73.5 0,-103.5 125,-103.5 125,-73.5 0,-73.5"/>
<text text-anchor="start" x="8" y="-91.5" font-family="Helvetica,sans-Serif" font-size="10.00">artvision_instanton</text>
<text text-anchor="middle" x="62.5" y="-80.5" font-family="Helvetica,sans-Serif" font-size="10.00">::RelativeRigidTransform</text>
</g>
<!-- Node2 -->
<g id="node2" class="node"><title>Node2</title>
<g id="a_node2"><a xlink:href="namespaceartvision__instanton.html#a9016228a67ca0a10378385eb6222da3f" target="_top" xlink:title="Invert a rigid transform (R,t). ">
<polygon fill="white" stroke="black" points="172.5,-98.5 172.5,-128.5 286.5,-128.5 286.5,-98.5 172.5,-98.5"/>
<text text-anchor="start" x="180.5" y="-116.5" font-family="Helvetica,sans-Serif" font-size="10.00">artvision_instanton</text>
<text text-anchor="middle" x="229.5" y="-105.5" font-family="Helvetica,sans-Serif" font-size="10.00">::InvertRigidTransform</text>
</a>
</g>
</g>
<!-- Node1&#45;&gt;Node2 -->
<g id="edge1" class="edge"><title>Node1&#45;&gt;Node2</title>
<path fill="none" stroke="midnightblue" d="M125.409,-97.8802C137.483,-99.7095 150.185,-101.634 162.388,-103.483"/>
<polygon fill="midnightblue" stroke="midnightblue" points="162.086,-106.977 172.497,-105.015 163.135,-100.056 162.086,-106.977"/>
</g>
<!-- Node5 -->
<g id="node5" class="node"><title>Node5</title>
<g id="a_node5"><a xlink:href="namespaceartvision__instanton.html#ac92c4eddb2fe53974a5c9daf206ea219" target="_top" xlink:title="Compound the rigid transformation y = R1*(R0*x+t0)+t1. ">
<polygon fill="white" stroke="black" points="161,-49.5 161,-79.5 298,-79.5 298,-49.5 161,-49.5"/>
<text text-anchor="start" x="169" y="-67.5" font-family="Helvetica,sans-Serif" font-size="10.00">artvision_instanton</text>
<text text-anchor="middle" x="229.5" y="-56.5" font-family="Helvetica,sans-Serif" font-size="10.00">::CompoundRigidTransform</text>
</a>
</g>
</g>
<!-- Node1&#45;&gt;Node5 -->
<g id="edge4" class="edge"><title>Node1&#45;&gt;Node5</title>
<path fill="none" stroke="midnightblue" d="M125.409,-79.495C133.756,-78.2809 142.404,-77.023 150.98,-75.7757"/>
<polygon fill="midnightblue" stroke="midnightblue" points="151.599,-79.2225 160.991,-74.3195 150.591,-72.2954 151.599,-79.2225"/>
</g>
<!-- Node3 -->
<g id="node3" class="node"><title>Node3</title>
<g id="a_node3"><a xlink:href="namespaceartvision__instanton.html#a3d0ce0df588b3caad7fc4bcbcb614b62" target="_top" xlink:title="Transpose of a 3x3 matrix. ">
<polygon fill="white" stroke="black" points="334,-147.5 334,-177.5 445,-177.5 445,-147.5 334,-147.5"/>
<text text-anchor="start" x="342" y="-165.5" font-family="Helvetica,sans-Serif" font-size="10.00">artvision_instanton</text>
<text text-anchor="middle" x="389.5" y="-154.5" font-family="Helvetica,sans-Serif" font-size="10.00">::MatrixTranspose3x3</text>
</a>
</g>
</g>
<!-- Node2&#45;&gt;Node3 -->
<g id="edge2" class="edge"><title>Node2&#45;&gt;Node3</title>
<path fill="none" stroke="midnightblue" d="M279.194,-128.601C295.339,-133.608 313.474,-139.232 330.262,-144.439"/>
<polygon fill="midnightblue" stroke="midnightblue" points="329.378,-147.829 339.966,-147.448 331.452,-141.143 329.378,-147.829"/>
</g>
<!-- Node4 -->
<g id="node4" class="node"><title>Node4</title>
<g id="a_node4"><a xlink:href="namespaceartvision__instanton.html#a614c9cf49c0617570fffd18befe57f8a" target="_top" xlink:title="y = A*x where A is a 3x3 and x is a 3x1. ">
<polygon fill="white" stroke="black" points="340.5,-98.5 340.5,-128.5 438.5,-128.5 438.5,-98.5 340.5,-98.5"/>
<text text-anchor="start" x="348.5" y="-116.5" font-family="Helvetica,sans-Serif" font-size="10.00">artvision_instanton</text>
<text text-anchor="middle" x="389.5" y="-105.5" font-family="Helvetica,sans-Serif" font-size="10.00">::Multiply_3x3_3x1</text>
</a>
</g>
</g>
<!-- Node2&#45;&gt;Node4 -->
<g id="edge3" class="edge"><title>Node2&#45;&gt;Node4</title>
<path fill="none" stroke="midnightblue" d="M286.65,-113.5C300.782,-113.5 315.982,-113.5 330.216,-113.5"/>
<polygon fill="midnightblue" stroke="midnightblue" points="330.381,-117 340.381,-113.5 330.381,-110 330.381,-117"/>
</g>
<!-- Node5&#45;&gt;Node4 -->
<g id="edge6" class="edge"><title>Node5&#45;&gt;Node4</title>
<path fill="none" stroke="midnightblue" d="M279.194,-79.6014C295.415,-84.6318 313.644,-90.2853 330.499,-95.5123"/>
<polygon fill="midnightblue" stroke="midnightblue" points="329.65,-98.9134 340.238,-98.5327 331.723,-92.2276 329.65,-98.9134"/>
</g>
<!-- Node6 -->
<g id="node6" class="node"><title>Node6</title>
<g id="a_node6"><a xlink:href="namespaceartvision__instanton.html#a77d8d8df593b392f9d9c81a9d70eaa2e" target="_top" xlink:title="C = A*B where A,B and C are 3x3 matrices. ">
<polygon fill="white" stroke="black" points="340.5,-49.5 340.5,-79.5 438.5,-79.5 438.5,-49.5 340.5,-49.5"/>
<text text-anchor="start" x="348.5" y="-67.5" font-family="Helvetica,sans-Serif" font-size="10.00">artvision_instanton</text>
<text text-anchor="middle" x="389.5" y="-56.5" font-family="Helvetica,sans-Serif" font-size="10.00">::Multiply3x3_3x3</text>
</a>
</g>
</g>
<!-- Node5&#45;&gt;Node6 -->
<g id="edge5" class="edge"><title>Node5&#45;&gt;Node6</title>
<path fill="none" stroke="midnightblue" d="M298.423,-64.5C308.962,-64.5 319.769,-64.5 330.073,-64.5"/>
<polygon fill="midnightblue" stroke="midnightblue" points="330.183,-68.0001 340.182,-64.5 330.182,-61.0001 330.183,-68.0001"/>
</g>
<!-- Node7 -->
<g id="node7" class="node"><title>Node7</title>
<g id="a_node7"><a xlink:href="namespaceartvision__instanton.html#ab4058805b1bbef9fbba6688a6f4ce7b6" target="_top" xlink:title="artvision_instanton\l::AddVector3">
<polygon fill="white" stroke="black" points="340.5,-0.5 340.5,-30.5 438.5,-30.5 438.5,-0.5 340.5,-0.5"/>
<text text-anchor="start" x="348.5" y="-18.5" font-family="Helvetica,sans-Serif" font-size="10.00">artvision_instanton</text>
<text text-anchor="middle" x="389.5" y="-7.5" font-family="Helvetica,sans-Serif" font-size="10.00">::AddVector3</text>
</a>
</g>
</g>
<!-- Node5&#45;&gt;Node7 -->
<g id="edge7" class="edge"><title>Node5&#45;&gt;Node7</title>
<path fill="none" stroke="midnightblue" d="M279.194,-49.3986C295.415,-44.3682 313.644,-38.7147 330.499,-33.4877"/>
<polygon fill="midnightblue" stroke="midnightblue" points="331.723,-36.7724 340.238,-30.4673 329.65,-30.0866 331.723,-36.7724"/>
</g>
</g>
</svg>
