<?xml version="1.0" encoding="UTF-8" standalone="no"?>
<!DOCTYPE svg PUBLIC "-//W3C//DTD SVG 1.1//EN"
 "http://www.w3.org/Graphics/SVG/1.1/DTD/svg11.dtd">
<!-- Generated by graphviz version 2.38.0 (20140413.2041)
 -->
<!-- Title: artvision_instanton::Homography4PointsInhomogeneousConstraint Pages: 1 -->
<svg width="516pt" height="50pt"
 viewBox="0.00 0.00 516.00 50.00" xmlns="http://www.w3.org/2000/svg" xmlns:xlink="http://www.w3.org/1999/xlink">
<g id="graph0" class="graph" transform="scale(1 1) rotate(0) translate(4 46)">
<title>artvision_instanton::Homography4PointsInhomogeneousConstraint</title>
<polygon fill="white" stroke="none" points="-4,4 -4,-46 512,-46 512,4 -4,4"/>
<!-- Node1 -->
<g id="node1" class="node"><title>Node1</title>
<polygon fill="#bfbfbf" stroke="black" points="0,-0.5 0,-41.5 180,-41.5 180,-0.5 0,-0.5"/>
<text text-anchor="start" x="8" y="-29.5" font-family="Helvetica,sans-Serif" font-size="10.00">artvision_instanton</text>
<text text-anchor="start" x="8" y="-18.5" font-family="Helvetica,sans-Serif" font-size="10.00">::Homography4PointsInhomogeneous</text>
<text text-anchor="middle" x="90" y="-7.5" font-family="Helvetica,sans-Serif" font-size="10.00">Constraint</text>
</g>
<!-- Node2 -->
<g id="node2" class="node"><title>Node2</title>
<g id="a_node2"><a xlink:href="namespaceartvision__instanton.html#ad88187b6bb4ee47a8a02d8b522325608" target="_top" xlink:title="Add a point to the homography constraint matrix. ">
<polygon fill="white" stroke="black" points="216,-6 216,-36 374,-36 374,-6 216,-6"/>
<text text-anchor="start" x="224" y="-24" font-family="Helvetica,sans-Serif" font-size="10.00">artvision_instanton</text>
<text text-anchor="middle" x="295" y="-13" font-family="Helvetica,sans-Serif" font-size="10.00">::AddHomographyPointContraint</text>
</a>
</g>
</g>
<!-- Node1&#45;&gt;Node2 -->
<g id="edge1" class="edge"><title>Node1&#45;&gt;Node2</title>
<path fill="none" stroke="midnightblue" d="M180.039,-21C188.521,-21 197.122,-21 205.598,-21"/>
<polygon fill="midnightblue" stroke="midnightblue" points="205.86,-24.5001 215.86,-21 205.86,-17.5001 205.86,-24.5001"/>
</g>
<!-- Node3 -->
<g id="node3" class="node"><title>Node3</title>
<g id="a_node3"><a xlink:href="namespaceartvision__instanton.html#a132fe11643174a543ee2a1292bbbe282" target="_top" xlink:title="artvision_instanton\l::ZeroVector3">
<polygon fill="white" stroke="black" points="410,-6 410,-36 508,-36 508,-6 410,-6"/>
<text text-anchor="start" x="418" y="-24" font-family="Helvetica,sans-Serif" font-size="10.00">artvision_instanton</text>
<text text-anchor="middle" x="459" y="-13" font-family="Helvetica,sans-Serif" font-size="10.00">::ZeroVector3</text>
</a>
</g>
</g>
<!-- Node2&#45;&gt;Node3 -->
<g id="edge2" class="edge"><title>Node2&#45;&gt;Node3</title>
<path fill="none" stroke="midnightblue" d="M374.153,-21C382.686,-21 391.262,-21 399.501,-21"/>
<polygon fill="midnightblue" stroke="midnightblue" points="399.727,-24.5001 409.727,-21 399.727,-17.5001 399.727,-24.5001"/>
</g>
</g>
</svg>
