<?xml version="1.0" encoding="UTF-8" standalone="no"?>
<!DOCTYPE svg PUBLIC "-//W3C//DTD SVG 1.1//EN"
 "http://www.w3.org/Graphics/SVG/1.1/DTD/svg11.dtd">
<!-- Generated by graphviz version 2.38.0 (20140413.2041)
 -->
<!-- Title: artvision_instanton::ComputeReprojectionError Pages: 1 -->
<svg width="454pt" height="88pt"
 viewBox="0.00 0.00 454.00 88.00" xmlns="http://www.w3.org/2000/svg" xmlns:xlink="http://www.w3.org/1999/xlink">
<g id="graph0" class="graph" transform="scale(1 1) rotate(0) translate(4 84)">
<title>artvision_instanton::ComputeReprojectionError</title>
<polygon fill="white" stroke="none" points="-4,4 -4,-84 450,-84 450,4 -4,4"/>
<!-- Node1 -->
<g id="node1" class="node"><title>Node1</title>
<polygon fill="#bfbfbf" stroke="black" points="0,-24.5 0,-54.5 138,-54.5 138,-24.5 0,-24.5"/>
<text text-anchor="start" x="8" y="-42.5" font-family="Helvetica,sans-Serif" font-size="10.00">artvision_instanton</text>
<text text-anchor="middle" x="69" y="-31.5" font-family="Helvetica,sans-Serif" font-size="10.00">::ComputeReprojectionError</text>
</g>
<!-- Node2 -->
<g id="node2" class="node"><title>Node2</title>
<g id="a_node2"><a xlink:href="namespaceartvision__instanton.html#a2e4a1c1738a313cb7c2c174d94f6de59" target="_top" xlink:title="Compute the Pinhole Projection of a 3D point in camera space. ">
<polygon fill="white" stroke="black" points="174,-49.5 174,-79.5 312,-79.5 312,-49.5 174,-49.5"/>
<text text-anchor="start" x="182" y="-67.5" font-family="Helvetica,sans-Serif" font-size="10.00">artvision_instanton</text>
<text text-anchor="middle" x="243" y="-56.5" font-family="Helvetica,sans-Serif" font-size="10.00">::ComputePinholeProjection</text>
</a>
</g>
</g>
<!-- Node1&#45;&gt;Node2 -->
<g id="edge1" class="edge"><title>Node1&#45;&gt;Node2</title>
<path fill="none" stroke="midnightblue" d="M138.473,-49.4525C146.732,-50.6529 155.216,-51.886 163.602,-53.105"/>
<polygon fill="midnightblue" stroke="midnightblue" points="163.363,-56.6069 173.762,-54.5817 164.37,-49.6797 163.363,-56.6069"/>
</g>
<!-- Node4 -->
<g id="node4" class="node"><title>Node4</title>
<g id="a_node4"><a xlink:href="namespaceartvision__instanton.html#a7335db5e597223e1ac30919089f27045" target="_top" xlink:title="Subtract two vectors. ">
<polygon fill="white" stroke="black" points="194,-0.5 194,-30.5 292,-30.5 292,-0.5 194,-0.5"/>
<text text-anchor="start" x="202" y="-18.5" font-family="Helvetica,sans-Serif" font-size="10.00">artvision_instanton</text>
<text text-anchor="middle" x="243" y="-7.5" font-family="Helvetica,sans-Serif" font-size="10.00">::SubVector2</text>
</a>
</g>
</g>
<!-- Node1&#45;&gt;Node4 -->
<g id="edge3" class="edge"><title>Node1&#45;&gt;Node4</title>
<path fill="none" stroke="midnightblue" d="M138.473,-29.9456C153.399,-27.8629 169.061,-25.6775 183.555,-23.6551"/>
<polygon fill="midnightblue" stroke="midnightblue" points="184.455,-27.0635 193.876,-22.215 183.488,-20.1306 184.455,-27.0635"/>
</g>
<!-- Node3 -->
<g id="node3" class="node"><title>Node3</title>
<g id="a_node3"><a xlink:href="namespaceartvision__instanton.html#a7353501a2ebe28e96528be2f2bfe4eaf" target="_top" xlink:title="Safe reciprical (1/x). ">
<polygon fill="white" stroke="black" points="348,-49.5 348,-79.5 446,-79.5 446,-49.5 348,-49.5"/>
<text text-anchor="start" x="356" y="-67.5" font-family="Helvetica,sans-Serif" font-size="10.00">artvision_instanton</text>
<text text-anchor="middle" x="397" y="-56.5" font-family="Helvetica,sans-Serif" font-size="10.00">::SafeReciprocal</text>
</a>
</g>
</g>
<!-- Node2&#45;&gt;Node3 -->
<g id="edge2" class="edge"><title>Node2&#45;&gt;Node3</title>
<path fill="none" stroke="midnightblue" d="M312.441,-64.5C320.862,-64.5 329.409,-64.5 337.661,-64.5"/>
<polygon fill="midnightblue" stroke="midnightblue" points="337.926,-68.0001 347.926,-64.5 337.926,-61.0001 337.926,-68.0001"/>
</g>
</g>
</svg>
