<?xml version="1.0" encoding="UTF-8" standalone="no"?>
<!DOCTYPE svg PUBLIC "-//W3C//DTD SVG 1.1//EN"
 "http://www.w3.org/Graphics/SVG/1.1/DTD/svg11.dtd">
<!-- Generated by graphviz version 2.38.0 (20140413.2041)
 -->
<!-- Title: artvision_instanton::SolveCubicPolynomial Pages: 1 -->
<svg width="460pt" height="208pt"
 viewBox="0.00 0.00 460.00 208.00" xmlns="http://www.w3.org/2000/svg" xmlns:xlink="http://www.w3.org/1999/xlink">
<g id="graph0" class="graph" transform="scale(1 1) rotate(0) translate(4 204)">
<title>artvision_instanton::SolveCubicPolynomial</title>
<polygon fill="white" stroke="none" points="-4,4 -4,-204 456,-204 456,4 -4,4"/>
<!-- Node1 -->
<g id="node1" class="node"><title>Node1</title>
<polygon fill="#bfbfbf" stroke="black" points="0,-82.5 0,-112.5 121,-112.5 121,-82.5 0,-82.5"/>
<text text-anchor="start" x="8" y="-100.5" font-family="Helvetica,sans-Serif" font-size="10.00">artvision_instanton</text>
<text text-anchor="middle" x="60.5" y="-89.5" font-family="Helvetica,sans-Serif" font-size="10.00">::SolveCubicPolynomial</text>
</g>
<!-- Node2 -->
<g id="node2" class="node"><title>Node2</title>
<g id="a_node2"><a xlink:href="namespaceartvision__instanton.html#a3eaa94252f465f459a636060aa8d3e56" target="_top" xlink:title="Solve for the real roots of a quadratic polynomial of the form: ">
<polygon fill="white" stroke="black" points="157,-164.5 157,-194.5 294,-194.5 294,-164.5 157,-164.5"/>
<text text-anchor="start" x="165" y="-182.5" font-family="Helvetica,sans-Serif" font-size="10.00">artvision_instanton</text>
<text text-anchor="middle" x="225.5" y="-171.5" font-family="Helvetica,sans-Serif" font-size="10.00">::SolveQuadraticPolynomial</text>
</a>
</g>
</g>
<!-- Node1&#45;&gt;Node2 -->
<g id="edge1" class="edge"><title>Node1&#45;&gt;Node2</title>
<path fill="none" stroke="midnightblue" d="M87.9558,-112.65C106.96,-123.349 133.299,-137.804 157,-149.5 164.358,-153.131 172.255,-156.821 179.961,-160.314"/>
<polygon fill="midnightblue" stroke="midnightblue" points="178.661,-163.566 189.218,-164.459 181.522,-157.178 178.661,-163.566"/>
</g>
<!-- Node4 -->
<g id="node4" class="node"><title>Node4</title>
<g id="a_node4"><a xlink:href="namespaceartvision__instanton.html#adc1e30b0cec389f6c8e8b5512b69fb2e" target="_top" xlink:title="artvision_instanton\l::sign">
<polygon fill="white" stroke="black" points="342,-120.5 342,-150.5 440,-150.5 440,-120.5 342,-120.5"/>
<text text-anchor="start" x="350" y="-138.5" font-family="Helvetica,sans-Serif" font-size="10.00">artvision_instanton</text>
<text text-anchor="middle" x="391" y="-127.5" font-family="Helvetica,sans-Serif" font-size="10.00">::sign</text>
</a>
</g>
</g>
<!-- Node1&#45;&gt;Node4 -->
<g id="edge7" class="edge"><title>Node1&#45;&gt;Node4</title>
<path fill="none" stroke="midnightblue" d="M121.179,-110.47C133.008,-112.73 145.364,-114.874 157,-116.5 216.167,-124.77 284.327,-129.811 331.576,-132.603"/>
<polygon fill="midnightblue" stroke="midnightblue" points="331.443,-136.101 341.627,-133.181 331.845,-129.112 331.443,-136.101"/>
</g>
<!-- Node5 -->
<g id="node5" class="node"><title>Node5</title>
<g id="a_node5"><a xlink:href="namespaceartvision__instanton.html#aaf2781e37f3d7d4e78dd2c872d0799b6" target="_top" xlink:title="artvision_instanton::sqr">
<polygon fill="white" stroke="black" points="166.5,-88 166.5,-107 284.5,-107 284.5,-88 166.5,-88"/>
<text text-anchor="middle" x="225.5" y="-95" font-family="Helvetica,sans-Serif" font-size="10.00">artvision_instanton::sqr</text>
</a>
</g>
</g>
<!-- Node1&#45;&gt;Node5 -->
<g id="edge4" class="edge"><title>Node1&#45;&gt;Node5</title>
<path fill="none" stroke="midnightblue" d="M121.27,-97.5C132.654,-97.5 144.649,-97.5 156.273,-97.5"/>
<polygon fill="midnightblue" stroke="midnightblue" points="156.369,-101 166.369,-97.5 156.369,-94.0001 156.369,-101"/>
</g>
<!-- Node6 -->
<g id="node6" class="node"><title>Node6</title>
<g id="a_node6"><a xlink:href="namespaceartvision__instanton.html#ac3c0d561c97b525f88313d0054b1de06" target="_top" xlink:title="artvision_instanton::cub">
<polygon fill="white" stroke="black" points="165.5,-50 165.5,-69 285.5,-69 285.5,-50 165.5,-50"/>
<text text-anchor="middle" x="225.5" y="-57" font-family="Helvetica,sans-Serif" font-size="10.00">artvision_instanton::cub</text>
</a>
</g>
</g>
<!-- Node1&#45;&gt;Node6 -->
<g id="edge5" class="edge"><title>Node1&#45;&gt;Node6</title>
<path fill="none" stroke="midnightblue" d="M121.27,-83.566C138.425,-79.5666 156.966,-75.2441 173.538,-71.3807"/>
<polygon fill="midnightblue" stroke="midnightblue" points="174.628,-74.7206 183.572,-69.0415 173.039,-67.9034 174.628,-74.7206"/>
</g>
<!-- Node7 -->
<g id="node7" class="node"><title>Node7</title>
<g id="a_node7"><a xlink:href="namespaceartvision__instanton.html#af395cd7a5076696b788c190fc9ec8100" target="_top" xlink:title="Cube root y = x^(1/3) ">
<polygon fill="white" stroke="black" points="176.5,-0.5 176.5,-30.5 274.5,-30.5 274.5,-0.5 176.5,-0.5"/>
<text text-anchor="start" x="184.5" y="-18.5" font-family="Helvetica,sans-Serif" font-size="10.00">artvision_instanton</text>
<text text-anchor="middle" x="225.5" y="-7.5" font-family="Helvetica,sans-Serif" font-size="10.00">::CubeRoot</text>
</a>
</g>
</g>
<!-- Node1&#45;&gt;Node7 -->
<g id="edge6" class="edge"><title>Node1&#45;&gt;Node7</title>
<path fill="none" stroke="midnightblue" d="M84.004,-82.4603C102.955,-70.1922 131.05,-52.9206 157,-40.5 161.35,-38.4178 165.923,-36.3952 170.552,-34.4616"/>
<polygon fill="midnightblue" stroke="midnightblue" points="172.11,-37.6074 180.081,-30.627 169.497,-31.1136 172.11,-37.6074"/>
</g>
<!-- Node3 -->
<g id="node3" class="node"><title>Node3</title>
<g id="a_node3"><a xlink:href="namespaceartvision__instanton.html#adb0d6b298f7daaf74e79e27654c17df5" target="_top" xlink:title="Solve for the real root of a linear polynomial of the form: ">
<polygon fill="white" stroke="black" points="330,-169.5 330,-199.5 452,-199.5 452,-169.5 330,-169.5"/>
<text text-anchor="start" x="338" y="-187.5" font-family="Helvetica,sans-Serif" font-size="10.00">artvision_instanton</text>
<text text-anchor="middle" x="391" y="-176.5" font-family="Helvetica,sans-Serif" font-size="10.00">::SolveLinearPolynomial</text>
</a>
</g>
</g>
<!-- Node2&#45;&gt;Node3 -->
<g id="edge2" class="edge"><title>Node2&#45;&gt;Node3</title>
<path fill="none" stroke="midnightblue" d="M294.418,-181.577C302.777,-181.833 311.334,-182.094 319.726,-182.351"/>
<polygon fill="midnightblue" stroke="midnightblue" points="319.755,-185.853 329.857,-182.661 319.969,-178.857 319.755,-185.853"/>
</g>
<!-- Node2&#45;&gt;Node4 -->
<g id="edge3" class="edge"><title>Node2&#45;&gt;Node4</title>
<path fill="none" stroke="midnightblue" d="M282.31,-164.481C298.321,-160.172 315.814,-155.464 331.956,-151.12"/>
<polygon fill="midnightblue" stroke="midnightblue" points="333.06,-154.448 341.807,-148.469 331.241,-147.688 333.06,-154.448"/>
</g>
</g>
</svg>
