<?xml version="1.0" encoding="UTF-8" standalone="no"?>
<!DOCTYPE svg PUBLIC "-//W3C//DTD SVG 1.1//EN"
 "http://www.w3.org/Graphics/SVG/1.1/DTD/svg11.dtd">
<!-- Generated by graphviz version 2.38.0 (20140413.2041)
 -->
<!-- Title: artvision_instanton::SolvePositiveDefiniteSystem Pages: 1 -->
<svg width="492pt" height="137pt"
 viewBox="0.00 0.00 492.00 137.00" xmlns="http://www.w3.org/2000/svg" xmlns:xlink="http://www.w3.org/1999/xlink">
<g id="graph0" class="graph" transform="scale(1 1) rotate(0) translate(4 133)">
<title>artvision_instanton::SolvePositiveDefiniteSystem</title>
<polygon fill="white" stroke="none" points="-4,4 -4,-133 488,-133 488,4 -4,4"/>
<!-- Node1 -->
<g id="node1" class="node"><title>Node1</title>
<polygon fill="#bfbfbf" stroke="black" points="0,-49.5 0,-79.5 150,-79.5 150,-49.5 0,-49.5"/>
<text text-anchor="start" x="8" y="-67.5" font-family="Helvetica,sans-Serif" font-size="10.00">artvision_instanton</text>
<text text-anchor="middle" x="75" y="-56.5" font-family="Helvetica,sans-Serif" font-size="10.00">::SolvePositiveDefiniteSystem</text>
</g>
<!-- Node2 -->
<g id="node2" class="node"><title>Node2</title>
<g id="a_node2"><a xlink:href="namespaceartvision__instanton.html#ab7fdc14f292714a54dd005ad3e80203b" target="_top" xlink:title="Extend the lower left triangular matrix to the upper right. ">
<polygon fill="white" stroke="black" points="186,-98.5 186,-128.5 350,-128.5 350,-98.5 186,-98.5"/>
<text text-anchor="start" x="194" y="-116.5" font-family="Helvetica,sans-Serif" font-size="10.00">artvision_instanton</text>
<text text-anchor="middle" x="268" y="-105.5" font-family="Helvetica,sans-Serif" font-size="10.00">::SymmetricExtendLowerToUpper</text>
</a>
</g>
</g>
<!-- Node1&#45;&gt;Node2 -->
<g id="edge1" class="edge"><title>Node1&#45;&gt;Node2</title>
<path fill="none" stroke="midnightblue" d="M134.604,-79.5346C154.863,-84.7318 177.739,-90.6006 198.706,-95.9796"/>
<polygon fill="midnightblue" stroke="midnightblue" points="197.95,-99.399 208.506,-98.4938 199.69,-92.6186 197.95,-99.399"/>
</g>
<!-- Node3 -->
<g id="node3" class="node"><title>Node3</title>
<g id="a_node3"><a xlink:href="namespaceartvision__instanton.html#aad506996c6d6637d096be195299aa222" target="_top" xlink:title="Solve the system A*x=b where A is a square left triangular matrix. ">
<polygon fill="white" stroke="black" points="198,-49.5 198,-79.5 338,-79.5 338,-49.5 198,-49.5"/>
<text text-anchor="start" x="206" y="-67.5" font-family="Helvetica,sans-Serif" font-size="10.00">artvision_instanton</text>
<text text-anchor="middle" x="268" y="-56.5" font-family="Helvetica,sans-Serif" font-size="10.00">::SolveLeftTriangularSystem</text>
</a>
</g>
</g>
<!-- Node1&#45;&gt;Node3 -->
<g id="edge2" class="edge"><title>Node1&#45;&gt;Node3</title>
<path fill="none" stroke="midnightblue" d="M150.119,-64.5C162.407,-64.5 175.194,-64.5 187.606,-64.5"/>
<polygon fill="midnightblue" stroke="midnightblue" points="187.925,-68.0001 197.925,-64.5 187.925,-61.0001 187.925,-68.0001"/>
</g>
<!-- Node5 -->
<g id="node5" class="node"><title>Node5</title>
<g id="a_node5"><a xlink:href="namespaceartvision__instanton.html#aac8ee77b116f403d9b04306183551c6d" target="_top" xlink:title="Solve the system A*x=b where A is a square right triangular matrix. ">
<polygon fill="white" stroke="black" points="194.5,-0.5 194.5,-30.5 341.5,-30.5 341.5,-0.5 194.5,-0.5"/>
<text text-anchor="start" x="202.5" y="-18.5" font-family="Helvetica,sans-Serif" font-size="10.00">artvision_instanton</text>
<text text-anchor="middle" x="268" y="-7.5" font-family="Helvetica,sans-Serif" font-size="10.00">::SolveRightTriangularSystem</text>
</a>
</g>
</g>
<!-- Node1&#45;&gt;Node5 -->
<g id="edge4" class="edge"><title>Node1&#45;&gt;Node5</title>
<path fill="none" stroke="midnightblue" d="M134.604,-49.4654C154.863,-44.2682 177.739,-38.3994 198.706,-33.0204"/>
<polygon fill="midnightblue" stroke="midnightblue" points="199.69,-36.3814 208.506,-30.5062 197.95,-29.601 199.69,-36.3814"/>
</g>
<!-- Node4 -->
<g id="node4" class="node"><title>Node4</title>
<g id="a_node4"><a xlink:href="namespaceartvision__instanton.html#a48cba394ed7537d523c64e4bf7b8d481" target="_top" xlink:title="Compute the dot product. ">
<polygon fill="white" stroke="black" points="386,-24.5 386,-54.5 484,-54.5 484,-24.5 386,-24.5"/>
<text text-anchor="start" x="394" y="-42.5" font-family="Helvetica,sans-Serif" font-size="10.00">artvision_instanton</text>
<text text-anchor="middle" x="435" y="-31.5" font-family="Helvetica,sans-Serif" font-size="10.00">::DotProduct</text>
</a>
</g>
</g>
<!-- Node3&#45;&gt;Node4 -->
<g id="edge3" class="edge"><title>Node3&#45;&gt;Node4</title>
<path fill="none" stroke="midnightblue" d="M338.019,-54.0426C350.575,-52.1401 363.56,-50.1727 375.767,-48.3232"/>
<polygon fill="midnightblue" stroke="midnightblue" points="376.448,-51.76 385.811,-46.8014 375.399,-44.839 376.448,-51.76"/>
</g>
<!-- Node5&#45;&gt;Node4 -->
<g id="edge5" class="edge"><title>Node5&#45;&gt;Node4</title>
<path fill="none" stroke="midnightblue" d="M341.852,-26.0966C353.104,-27.7334 364.6,-29.4054 375.485,-30.9887"/>
<polygon fill="midnightblue" stroke="midnightblue" points="375.307,-34.4996 385.707,-32.4755 376.315,-27.5725 375.307,-34.4996"/>
</g>
</g>
</svg>
