<?xml version="1.0" encoding="UTF-8" standalone="no"?>
<!DOCTYPE svg PUBLIC "-//W3C//DTD SVG 1.1//EN"
 "http://www.w3.org/Graphics/SVG/1.1/DTD/svg11.dtd">
<!-- Generated by graphviz version 2.38.0 (20140413.2041)
 -->
<!-- Title: artvision_instanton::CauchyProjectiveReprojectionCost Pages: 1 -->
<svg width="572pt" height="102pt"
 viewBox="0.00 0.00 572.00 101.50" xmlns="http://www.w3.org/2000/svg" xmlns:xlink="http://www.w3.org/1999/xlink">
<g id="graph0" class="graph" transform="scale(1 1) rotate(0) translate(4 97.5)">
<title>artvision_instanton::CauchyProjectiveReprojectionCost</title>
<polygon fill="white" stroke="none" points="-4,4 -4,-97.5 568,-97.5 568,4 -4,4"/>
<!-- Node1 -->
<g id="node1" class="node"><title>Node1</title>
<polygon fill="#bfbfbf" stroke="black" points="0,-38 0,-68 176,-68 176,-38 0,-38"/>
<text text-anchor="start" x="8" y="-56" font-family="Helvetica,sans-Serif" font-size="10.00">artvision_instanton</text>
<text text-anchor="middle" x="88" y="-45" font-family="Helvetica,sans-Serif" font-size="10.00">::CauchyProjectiveReprojectionCost</text>
</g>
<!-- Node2 -->
<g id="node2" class="node"><title>Node2</title>
<g id="a_node2"><a xlink:href="namespaceartvision__instanton.html#aac7359704d1486d43ac7b00356511175" target="_top" xlink:title="Multiply an in&#45;homogenous point by a transform. ">
<polygon fill="white" stroke="black" points="212,-63 212,-93 410,-93 410,-63 212,-63"/>
<text text-anchor="start" x="220" y="-81" font-family="Helvetica,sans-Serif" font-size="10.00">artvision_instanton</text>
<text text-anchor="middle" x="311" y="-70" font-family="Helvetica,sans-Serif" font-size="10.00">::MultiplyPointHomographyInhomogenous</text>
</a>
</g>
</g>
<!-- Node1&#45;&gt;Node2 -->
<g id="edge1" class="edge"><title>Node1&#45;&gt;Node2</title>
<path fill="none" stroke="midnightblue" d="M176.028,-62.8448C184.449,-63.7974 193.061,-64.7716 201.656,-65.7439"/>
<polygon fill="midnightblue" stroke="midnightblue" points="201.394,-69.2365 211.724,-66.8829 202.181,-62.2809 201.394,-69.2365"/>
</g>
<!-- Node3 -->
<g id="node3" class="node"><title>Node3</title>
<g id="a_node3"><a xlink:href="namespaceartvision__instanton.html#a7f364fe0dfa85b3e8e808022f9e53d1f" target="_top" xlink:title="As one_over_scale2 gets larger, cost increases. ">
<polygon fill="white" stroke="black" points="262,-14 262,-44 360,-44 360,-14 262,-14"/>
<text text-anchor="start" x="270" y="-32" font-family="Helvetica,sans-Serif" font-size="10.00">artvision_instanton</text>
<text text-anchor="middle" x="311" y="-21" font-family="Helvetica,sans-Serif" font-size="10.00">::CauchyCost</text>
</a>
</g>
</g>
<!-- Node1&#45;&gt;Node3 -->
<g id="edge2" class="edge"><title>Node1&#45;&gt;Node3</title>
<path fill="none" stroke="midnightblue" d="M176.028,-43.549C201.491,-40.7838 228.697,-37.8293 251.895,-35.3101"/>
<polygon fill="midnightblue" stroke="midnightblue" points="252.347,-38.7816 261.911,-34.2223 251.592,-31.8225 252.347,-38.7816"/>
</g>
<!-- Node4 -->
<g id="node4" class="node"><title>Node4</title>
<g id="a_node4"><a xlink:href="namespaceartvision__instanton.html#aabfdfd6e431693d8b92948d037feaf4f" target="_top" xlink:title="artvision_instanton::log">
<polygon fill="white" stroke="black" points="446.5,-38.5 446.5,-57.5 563.5,-57.5 563.5,-38.5 446.5,-38.5"/>
<text text-anchor="middle" x="505" y="-45.5" font-family="Helvetica,sans-Serif" font-size="10.00">artvision_instanton::log</text>
</a>
</g>
</g>
<!-- Node3&#45;&gt;Node4 -->
<g id="edge3" class="edge"><title>Node3&#45;&gt;Node4</title>
<path fill="none" stroke="midnightblue" d="M360.45,-33.7945C383.395,-36.0651 411.188,-38.8155 436.184,-41.2891"/>
<polygon fill="midnightblue" stroke="midnightblue" points="436.041,-44.7919 446.337,-42.2937 436.73,-37.8259 436.041,-44.7919"/>
</g>
<!-- Node5 -->
<g id="node5" class="node"><title>Node5</title>
<g id="a_node5"><a xlink:href="namespaceartvision__instanton.html#aaf2781e37f3d7d4e78dd2c872d0799b6" target="_top" xlink:title="artvision_instanton::sqr">
<polygon fill="white" stroke="black" points="446,-0.5 446,-19.5 564,-19.5 564,-0.5 446,-0.5"/>
<text text-anchor="middle" x="505" y="-7.5" font-family="Helvetica,sans-Serif" font-size="10.00">artvision_instanton::sqr</text>
</a>
</g>
</g>
<!-- Node3&#45;&gt;Node5 -->
<g id="edge4" class="edge"><title>Node3&#45;&gt;Node5</title>
<path fill="none" stroke="midnightblue" d="M360.45,-24.2055C383.297,-21.9446 410.952,-19.2079 435.865,-16.7425"/>
<polygon fill="midnightblue" stroke="midnightblue" points="436.38,-20.2087 445.987,-15.7409 435.691,-13.2428 436.38,-20.2087"/>
</g>
</g>
</svg>
