<?xml version="1.0" encoding="UTF-8" standalone="no"?>
<!DOCTYPE svg PUBLIC "-//W3C//DTD SVG 1.1//EN"
 "http://www.w3.org/Graphics/SVG/1.1/DTD/svg11.dtd">
<!-- Generated by graphviz version 2.38.0 (20140413.2041)
 -->
<!-- Title: artvision_instanton::convertType Pages: 1 -->
<svg width="240pt" height="186pt"
 viewBox="0.00 0.00 240.00 186.00" xmlns="http://www.w3.org/2000/svg" xmlns:xlink="http://www.w3.org/1999/xlink">
<g id="graph0" class="graph" transform="scale(1 1) rotate(0) translate(4 182)">
<title>artvision_instanton::convertType</title>
<polygon fill="white" stroke="none" points="-4,4 -4,-182 236,-182 236,4 -4,4"/>
<!-- Node1 -->
<g id="node1" class="node"><title>Node1</title>
<polygon fill="#bfbfbf" stroke="black" points="0,-73.5 0,-103.5 98,-103.5 98,-73.5 0,-73.5"/>
<text text-anchor="start" x="8" y="-91.5" font-family="Helvetica,sans-Serif" font-size="10.00">artvision_instanton</text>
<text text-anchor="middle" x="49" y="-80.5" font-family="Helvetica,sans-Serif" font-size="10.00">::convertType</text>
</g>
<!-- Node2 -->
<g id="node2" class="node"><title>Node2</title>
<g id="a_node2"><a xlink:href="classartvision__instanton_1_1_image.html#ac6859f6426c8d6729f2ada431148506f" target="_top" xlink:title="Get the image type. ">
<polygon fill="white" stroke="black" points="134,-147.5 134,-177.5 232,-177.5 232,-147.5 134,-147.5"/>
<text text-anchor="start" x="142" y="-165.5" font-family="Helvetica,sans-Serif" font-size="10.00">artvision_instanton</text>
<text text-anchor="middle" x="183" y="-154.5" font-family="Helvetica,sans-Serif" font-size="10.00">::Image::type</text>
</a>
</g>
</g>
<!-- Node1&#45;&gt;Node2 -->
<g id="edge1" class="edge"><title>Node1&#45;&gt;Node2</title>
<path fill="none" stroke="midnightblue" d="M74.3527,-103.638C90.9762,-113.812 113.599,-127.347 134,-138.5 136.653,-139.95 139.405,-141.419 142.188,-142.877"/>
<polygon fill="midnightblue" stroke="midnightblue" points="140.606,-146 151.099,-147.467 143.812,-139.777 140.606,-146"/>
</g>
<!-- Node3 -->
<g id="node3" class="node"><title>Node3</title>
<g id="a_node3"><a xlink:href="classartvision__instanton_1_1_image.html#a8fe378f1d9a2fbeb89112b9c9600bdd6" target="_top" xlink:title="artvision_instanton\l::Image::height">
<polygon fill="white" stroke="black" points="134,-98.5 134,-128.5 232,-128.5 232,-98.5 134,-98.5"/>
<text text-anchor="start" x="142" y="-116.5" font-family="Helvetica,sans-Serif" font-size="10.00">artvision_instanton</text>
<text text-anchor="middle" x="183" y="-105.5" font-family="Helvetica,sans-Serif" font-size="10.00">::Image::height</text>
</a>
</g>
</g>
<!-- Node1&#45;&gt;Node3 -->
<g id="edge2" class="edge"><title>Node1&#45;&gt;Node3</title>
<path fill="none" stroke="midnightblue" d="M98.0284,-97.5963C106.4,-99.1818 115.188,-100.846 123.798,-102.477"/>
<polygon fill="midnightblue" stroke="midnightblue" points="123.309,-105.947 133.786,-104.369 124.612,-99.0688 123.309,-105.947"/>
</g>
<!-- Node4 -->
<g id="node4" class="node"><title>Node4</title>
<g id="a_node4"><a xlink:href="classartvision__instanton_1_1_image.html#a26334124ea185241a9af99e03bdd6385" target="_top" xlink:title="Get the dimensions of the image. ">
<polygon fill="white" stroke="black" points="134,-49.5 134,-79.5 232,-79.5 232,-49.5 134,-49.5"/>
<text text-anchor="start" x="142" y="-67.5" font-family="Helvetica,sans-Serif" font-size="10.00">artvision_instanton</text>
<text text-anchor="middle" x="183" y="-56.5" font-family="Helvetica,sans-Serif" font-size="10.00">::Image::width</text>
</a>
</g>
</g>
<!-- Node1&#45;&gt;Node4 -->
<g id="edge3" class="edge"><title>Node1&#45;&gt;Node4</title>
<path fill="none" stroke="midnightblue" d="M98.0284,-79.7676C106.4,-78.2455 115.188,-76.6475 123.798,-75.0822"/>
<polygon fill="midnightblue" stroke="midnightblue" points="124.574,-78.4986 133.786,-73.2662 123.321,-71.6116 124.574,-78.4986"/>
</g>
<!-- Node5 -->
<g id="node5" class="node"><title>Node5</title>
<g id="a_node5"><a xlink:href="classartvision__instanton_1_1_image.html#aa2721566b360cd4862e5b061e0a1a8ab" target="_top" xlink:title="Get a pointer to the image data. ">
<polygon fill="white" stroke="black" points="134,-0.5 134,-30.5 232,-30.5 232,-0.5 134,-0.5"/>
<text text-anchor="start" x="142" y="-18.5" font-family="Helvetica,sans-Serif" font-size="10.00">artvision_instanton</text>
<text text-anchor="middle" x="183" y="-7.5" font-family="Helvetica,sans-Serif" font-size="10.00">::Image::get</text>
</a>
</g>
</g>
<!-- Node1&#45;&gt;Node5 -->
<g id="edge4" class="edge"><title>Node1&#45;&gt;Node5</title>
<path fill="none" stroke="midnightblue" d="M75.9607,-73.3181C92.4852,-63.741 114.392,-51.2033 134,-40.5 137.104,-38.8055 140.333,-37.0688 143.584,-35.339"/>
<polygon fill="midnightblue" stroke="midnightblue" points="145.501,-38.2846 152.713,-30.5228 142.235,-32.0934 145.501,-38.2846"/>
</g>
</g>
</svg>
