<?xml version="1.0" encoding="UTF-8" standalone="no"?>
<!DOCTYPE svg PUBLIC "-//W3C//DTD SVG 1.1//EN"
 "http://www.w3.org/Graphics/SVG/1.1/DTD/svg11.dtd">
<!-- Generated by graphviz version 2.38.0 (20140413.2041)
 -->
<!-- Title: artvision_instanton::ComputeHarrisStrengthImage Pages: 1 -->
<svg width="706pt" height="583pt"
 viewBox="0.00 0.00 706.00 583.00" xmlns="http://www.w3.org/2000/svg" xmlns:xlink="http://www.w3.org/1999/xlink">
<g id="graph0" class="graph" transform="scale(1 1) rotate(0) translate(4 579)">
<title>artvision_instanton::ComputeHarrisStrengthImage</title>
<polygon fill="white" stroke="none" points="-4,4 -4,-579 702,-579 702,4 -4,4"/>
<!-- Node1 -->
<g id="node1" class="node"><title>Node1</title>
<polygon fill="#bfbfbf" stroke="black" points="0,-387 0,-417 152,-417 152,-387 0,-387"/>
<text text-anchor="start" x="8" y="-405" font-family="Helvetica,sans-Serif" font-size="10.00">artvision_instanton</text>
<text text-anchor="middle" x="76" y="-394" font-family="Helvetica,sans-Serif" font-size="10.00">::ComputeHarrisStrengthImage</text>
</g>
<!-- Node2 -->
<g id="node2" class="node"><title>Node2</title>
<g id="a_node2"><a xlink:href="namespaceartvision__instanton_1_1details.html#ac0dd1f01eddc30cc45bf4bda832da540" target="_top" xlink:title="artvision_instanton\l::details::ComputeHarrisStrength\lImageNeon">
<polygon fill="white" stroke="black" points="384,-533.5 384,-574.5 544,-574.5 544,-533.5 384,-533.5"/>
<text text-anchor="start" x="392" y="-562.5" font-family="Helvetica,sans-Serif" font-size="10.00">artvision_instanton</text>
<text text-anchor="start" x="392" y="-551.5" font-family="Helvetica,sans-Serif" font-size="10.00">::details::ComputeHarrisStrength</text>
<text text-anchor="middle" x="464" y="-540.5" font-family="Helvetica,sans-Serif" font-size="10.00">ImageNeon</text>
</a>
</g>
</g>
<!-- Node1&#45;&gt;Node2 -->
<g id="edge1" class="edge"><title>Node1&#45;&gt;Node2</title>
<path fill="none" stroke="midnightblue" d="M113.723,-417.117C171.176,-440.676 285.902,-487.353 384,-525 388.179,-526.604 392.49,-528.239 396.841,-529.876"/>
<polygon fill="midnightblue" stroke="midnightblue" points="395.801,-533.224 406.394,-533.448 398.253,-526.667 395.801,-533.224"/>
</g>
<!-- Node3 -->
<g id="node3" class="node"><title>Node3</title>
<g id="a_node3"><a xlink:href="namespaceartvision__instanton_1_1details.html#ab5de2b812a018d49a9dd75880623d67b" target="_top" xlink:title="Generic CPU Implementation. ">
<polygon fill="white" stroke="black" points="188,-307.5 188,-348.5 348,-348.5 348,-307.5 188,-307.5"/>
<text text-anchor="start" x="196" y="-336.5" font-family="Helvetica,sans-Serif" font-size="10.00">artvision_instanton</text>
<text text-anchor="start" x="196" y="-325.5" font-family="Helvetica,sans-Serif" font-size="10.00">::details::ComputeHarrisStrength</text>
<text text-anchor="middle" x="268" y="-314.5" font-family="Helvetica,sans-Serif" font-size="10.00">Image</text>
</a>
</g>
</g>
<!-- Node1&#45;&gt;Node3 -->
<g id="edge2" class="edge"><title>Node1&#45;&gt;Node3</title>
<path fill="none" stroke="midnightblue" d="M115.908,-386.846C141.477,-376.888 175.492,-363.64 204.773,-352.236"/>
<polygon fill="midnightblue" stroke="midnightblue" points="206.049,-355.495 214.097,-348.604 203.509,-348.972 206.049,-355.495"/>
</g>
<!-- Node3&#45;&gt;Node2 -->
<g id="edge11" class="edge"><title>Node3&#45;&gt;Node2</title>
<path fill="none" stroke="midnightblue" d="M281.067,-348.572C296.581,-375.03 324.341,-422.413 348,-463 364.047,-490.528 359.594,-504.515 384,-525 385.154,-525.969 386.343,-526.906 387.563,-527.814"/>
<polygon fill="midnightblue" stroke="midnightblue" points="385.73,-530.798 396.006,-533.377 389.582,-524.953 385.73,-530.798"/>
</g>
<!-- Node4 -->
<g id="node4" class="node"><title>Node4</title>
<g id="a_node4"><a xlink:href="namespaceartvision__instanton.html#af8ace30a02307ff76481d37502ced60b" target="_top" xlink:title="Clip a scalar to be within a range. ">
<polygon fill="white" stroke="black" points="415,-485 415,-515 513,-515 513,-485 415,-485"/>
<text text-anchor="start" x="423" y="-503" font-family="Helvetica,sans-Serif" font-size="10.00">artvision_instanton</text>
<text text-anchor="middle" x="464" y="-492" font-family="Helvetica,sans-Serif" font-size="10.00">::ClipScalar</text>
</a>
</g>
</g>
<!-- Node3&#45;&gt;Node4 -->
<g id="edge3" class="edge"><title>Node3&#45;&gt;Node4</title>
<path fill="none" stroke="midnightblue" d="M279.61,-348.744C297.05,-380.79 334.806,-442.158 384,-476 390.477,-480.456 397.804,-484.104 405.321,-487.086"/>
<polygon fill="midnightblue" stroke="midnightblue" points="404.298,-490.437 414.893,-490.517 406.661,-483.848 404.298,-490.437"/>
</g>
<!-- Node5 -->
<g id="node5" class="node"><title>Node5</title>
<g id="a_node5"><a xlink:href="namespaceartvision__instanton.html#ad8a8482e6fbc7de1a619523b3e584194" target="_top" xlink:title="Compute (Ixx, Iyy, Ixy) given 3 rows. ">
<polygon fill="white" stroke="black" points="408,-436 408,-466 520,-466 520,-436 408,-436"/>
<text text-anchor="start" x="416" y="-454" font-family="Helvetica,sans-Serif" font-size="10.00">artvision_instanton</text>
<text text-anchor="middle" x="464" y="-443" font-family="Helvetica,sans-Serif" font-size="10.00">::ComputeDerivatives</text>
</a>
</g>
</g>
<!-- Node3&#45;&gt;Node5 -->
<g id="edge4" class="edge"><title>Node3&#45;&gt;Node5</title>
<path fill="none" stroke="midnightblue" d="M287.825,-348.694C309.149,-370.98 345.913,-406.051 384,-427 388.516,-429.484 393.321,-431.743 398.246,-433.792"/>
<polygon fill="midnightblue" stroke="midnightblue" points="397.229,-437.151 407.819,-437.477 399.744,-430.618 397.229,-437.151"/>
</g>
<!-- Node7 -->
<g id="node7" class="node"><title>Node7</title>
<g id="a_node7"><a xlink:href="namespaceartvision__instanton.html#a1ad1d52c7a87c6d66c51feed11508538" target="_top" xlink:title="Apply horizontal binomial. ">
<polygon fill="white" stroke="black" points="412,-387 412,-417 516,-417 516,-387 412,-387"/>
<text text-anchor="start" x="420" y="-405" font-family="Helvetica,sans-Serif" font-size="10.00">artvision_instanton</text>
<text text-anchor="middle" x="464" y="-394" font-family="Helvetica,sans-Serif" font-size="10.00">::HorizontalBinomial</text>
</a>
</g>
</g>
<!-- Node3&#45;&gt;Node7 -->
<g id="edge6" class="edge"><title>Node3&#45;&gt;Node7</title>
<path fill="none" stroke="midnightblue" d="M313.024,-348.559C334.242,-358.101 360.197,-369.243 384,-378 389.827,-380.144 395.943,-382.249 402.085,-384.267"/>
<polygon fill="midnightblue" stroke="midnightblue" points="401.126,-387.636 411.718,-387.361 403.267,-380.971 401.126,-387.636"/>
</g>
<!-- Node8 -->
<g id="node8" class="node"><title>Node8</title>
<g id="a_node8"><a xlink:href="namespaceartvision__instanton.html#ab5c7d9238b9298256f3cc1d8eddea111" target="_top" xlink:title="Apply vertical binomial on a pixel. ">
<polygon fill="white" stroke="black" points="415,-338 415,-368 513,-368 513,-338 415,-338"/>
<text text-anchor="start" x="423" y="-356" font-family="Helvetica,sans-Serif" font-size="10.00">artvision_instanton</text>
<text text-anchor="middle" x="464" y="-345" font-family="Helvetica,sans-Serif" font-size="10.00">::VerticalBinomial</text>
</a>
</g>
</g>
<!-- Node3&#45;&gt;Node8 -->
<g id="edge7" class="edge"><title>Node3&#45;&gt;Node8</title>
<path fill="none" stroke="midnightblue" d="M348.187,-338.205C367.105,-340.642 386.959,-343.201 404.736,-345.492"/>
<polygon fill="midnightblue" stroke="midnightblue" points="404.574,-349 414.94,-346.807 405.469,-342.057 404.574,-349"/>
</g>
<!-- Node9 -->
<g id="node9" class="node"><title>Node9</title>
<g id="a_node9"><a xlink:href="namespaceartvision__instanton.html#a51c3880f3a0ded750fc4e3f47614b313" target="_top" xlink:title="Compute the horizontal Harris stengths. ">
<polygon fill="white" stroke="black" points="398,-289 398,-319 530,-319 530,-289 398,-289"/>
<text text-anchor="start" x="406" y="-307" font-family="Helvetica,sans-Serif" font-size="10.00">artvision_instanton</text>
<text text-anchor="middle" x="464" y="-296" font-family="Helvetica,sans-Serif" font-size="10.00">::HorizontalHarrisStengths</text>
</a>
</g>
</g>
<!-- Node3&#45;&gt;Node9 -->
<g id="edge8" class="edge"><title>Node3&#45;&gt;Node9</title>
<path fill="none" stroke="midnightblue" d="M348.187,-318.204C361.249,-316.588 374.757,-314.917 387.72,-313.313"/>
<polygon fill="midnightblue" stroke="midnightblue" points="388.486,-316.745 397.98,-312.044 387.626,-309.798 388.486,-316.745"/>
</g>
<!-- Node10 -->
<g id="node10" class="node"><title>Node10</title>
<g id="a_node10"><a xlink:href="namespaceartvision__instanton.html#a38e9129602426b4c1b5cf46cdeb18200" target="_top" xlink:title="Swap the pointers in a &quot;rolling shutter&quot; style. ">
<polygon fill="white" stroke="black" points="415,-240 415,-270 513,-270 513,-240 415,-240"/>
<text text-anchor="start" x="423" y="-258" font-family="Helvetica,sans-Serif" font-size="10.00">artvision_instanton</text>
<text text-anchor="middle" x="464" y="-247" font-family="Helvetica,sans-Serif" font-size="10.00">::SwapPointers</text>
</a>
</g>
</g>
<!-- Node3&#45;&gt;Node10 -->
<g id="edge10" class="edge"><title>Node3&#45;&gt;Node10</title>
<path fill="none" stroke="midnightblue" d="M315.627,-307.431C336.39,-298.559 361.246,-288.33 384,-280 390.78,-277.518 397.937,-275.048 405.064,-272.681"/>
<polygon fill="midnightblue" stroke="midnightblue" points="406.306,-275.958 414.725,-269.526 404.133,-269.304 406.306,-275.958"/>
</g>
<!-- Node11 -->
<g id="node11" class="node"><title>Node11</title>
<g id="a_node11"><a xlink:href="namespaceartvision__instanton_1_1details.html#af0e6d1ae36e253575b4c67422b776311" target="_top" xlink:title="artvision_instanton\l::details::ComputeDerivatives\lU8Neon">
<polygon fill="white" stroke="black" points="391,-180.5 391,-221.5 537,-221.5 537,-180.5 391,-180.5"/>
<text text-anchor="start" x="399" y="-209.5" font-family="Helvetica,sans-Serif" font-size="10.00">artvision_instanton</text>
<text text-anchor="start" x="399" y="-198.5" font-family="Helvetica,sans-Serif" font-size="10.00">::details::ComputeDerivatives</text>
<text text-anchor="middle" x="464" y="-187.5" font-family="Helvetica,sans-Serif" font-size="10.00">U8Neon</text>
</a>
</g>
</g>
<!-- Node3&#45;&gt;Node11 -->
<g id="edge12" class="edge"><title>Node3&#45;&gt;Node11</title>
<path fill="none" stroke="midnightblue" d="M288.976,-307.444C310.717,-286.011 347.306,-252.589 384,-231 386.999,-229.235 390.121,-227.54 393.316,-225.917"/>
<polygon fill="midnightblue" stroke="midnightblue" points="394.968,-229.007 402.478,-221.534 391.946,-222.692 394.968,-229.007"/>
</g>
<!-- Node12 -->
<g id="node12" class="node"><title>Node12</title>
<g id="a_node12"><a xlink:href="namespaceartvision__instanton_1_1details.html#a60280ab2eb5819e6ac9484e7a034cc5e" target="_top" xlink:title="Compute the binomial response an input vector. ">
<polygon fill="white" stroke="black" points="394.5,-120.5 394.5,-161.5 533.5,-161.5 533.5,-120.5 394.5,-120.5"/>
<text text-anchor="start" x="402.5" y="-149.5" font-family="Helvetica,sans-Serif" font-size="10.00">artvision_instanton</text>
<text text-anchor="start" x="402.5" y="-138.5" font-family="Helvetica,sans-Serif" font-size="10.00">::details::HorizontalBinomial</text>
<text text-anchor="middle" x="464" y="-127.5" font-family="Helvetica,sans-Serif" font-size="10.00">S16Neon</text>
</a>
</g>
</g>
<!-- Node3&#45;&gt;Node12 -->
<g id="edge13" class="edge"><title>Node3&#45;&gt;Node12</title>
<path fill="none" stroke="midnightblue" d="M279.016,-307.476C296.153,-274.346 334.135,-208.968 384,-171 385.849,-169.592 387.772,-168.243 389.753,-166.952"/>
<polygon fill="midnightblue" stroke="midnightblue" points="391.913,-169.742 398.755,-161.652 388.361,-163.71 391.913,-169.742"/>
</g>
<!-- Node13 -->
<g id="node13" class="node"><title>Node13</title>
<g id="a_node13"><a xlink:href="namespaceartvision__instanton_1_1details.html#a8a0a2f8ffd30e69e8c92b6ab96b4666b" target="_top" xlink:title="Convolve rows vertically with [1; 4; 6; 4; 1] kernel. ">
<polygon fill="white" stroke="black" points="400,-60.5 400,-101.5 528,-101.5 528,-60.5 400,-60.5"/>
<text text-anchor="start" x="408" y="-89.5" font-family="Helvetica,sans-Serif" font-size="10.00">artvision_instanton</text>
<text text-anchor="start" x="408" y="-78.5" font-family="Helvetica,sans-Serif" font-size="10.00">::details::VerticalBinomial</text>
<text text-anchor="middle" x="464" y="-67.5" font-family="Helvetica,sans-Serif" font-size="10.00">S32Neon</text>
</a>
</g>
</g>
<!-- Node3&#45;&gt;Node13 -->
<g id="edge14" class="edge"><title>Node3&#45;&gt;Node13</title>
<path fill="none" stroke="midnightblue" d="M274.57,-307.268C287.048,-264.625 321.19,-166.446 384,-111 386.217,-109.043 388.574,-107.208 391.037,-105.489"/>
<polygon fill="midnightblue" stroke="midnightblue" points="393.109,-108.322 399.76,-100.075 389.418,-102.374 393.109,-108.322"/>
</g>
<!-- Node14 -->
<g id="node14" class="node"><title>Node14</title>
<g id="a_node14"><a xlink:href="namespaceartvision__instanton_1_1details.html#a2a3bafbeb3384b4a2762d9b36f9a875b" target="_top" xlink:title="artvision_instanton\l::details::HorizontalHarris\lStengthsS32F32Neon">
<polygon fill="white" stroke="black" points="400,-0.5 400,-41.5 528,-41.5 528,-0.5 400,-0.5"/>
<text text-anchor="start" x="408" y="-29.5" font-family="Helvetica,sans-Serif" font-size="10.00">artvision_instanton</text>
<text text-anchor="start" x="408" y="-18.5" font-family="Helvetica,sans-Serif" font-size="10.00">::details::HorizontalHarris</text>
<text text-anchor="middle" x="464" y="-7.5" font-family="Helvetica,sans-Serif" font-size="10.00">StengthsS32F32Neon</text>
</a>
</g>
</g>
<!-- Node3&#45;&gt;Node14 -->
<g id="edge15" class="edge"><title>Node3&#45;&gt;Node14</title>
<path fill="none" stroke="midnightblue" d="M271.929,-307.137C280.133,-256.295 307.936,-124.772 384,-51 386.172,-48.8934 388.507,-46.9314 390.964,-45.1046"/>
<polygon fill="midnightblue" stroke="midnightblue" points="393.259,-47.7871 399.732,-39.3997 389.442,-41.9197 393.259,-47.7871"/>
</g>
<!-- Node6 -->
<g id="node6" class="node"><title>Node6</title>
<g id="a_node6"><a xlink:href="namespaceartvision__instanton.html#aaf2781e37f3d7d4e78dd2c872d0799b6" target="_top" xlink:title="artvision_instanton::sqr">
<polygon fill="white" stroke="black" points="580,-367.5 580,-386.5 698,-386.5 698,-367.5 580,-367.5"/>
<text text-anchor="middle" x="639" y="-374.5" font-family="Helvetica,sans-Serif" font-size="10.00">artvision_instanton::sqr</text>
</a>
</g>
</g>
<!-- Node5&#45;&gt;Node6 -->
<g id="edge5" class="edge"><title>Node5&#45;&gt;Node6</title>
<path fill="none" stroke="midnightblue" d="M519.46,-435.975C527.774,-433.246 536.184,-430.23 544,-427 568.406,-416.914 594.846,-402.514 613.45,-391.755"/>
<polygon fill="midnightblue" stroke="midnightblue" points="615.301,-394.727 622.16,-386.653 611.762,-388.687 615.301,-394.727"/>
</g>
<!-- Node9&#45;&gt;Node6 -->
<g id="edge9" class="edge"><title>Node9&#45;&gt;Node6</title>
<path fill="none" stroke="midnightblue" d="M516.86,-319.057C525.998,-322.093 535.349,-325.451 544,-329 567.929,-338.817 594.048,-352.401 612.667,-362.613"/>
<polygon fill="midnightblue" stroke="midnightblue" points="610.972,-365.676 621.415,-367.466 614.368,-359.555 610.972,-365.676"/>
</g>
</g>
</svg>
