<?xml version="1.0" encoding="UTF-8" standalone="no"?>
<!DOCTYPE svg PUBLIC "-//W3C//DTD SVG 1.1//EN"
 "http://www.w3.org/Graphics/SVG/1.1/DTD/svg11.dtd">
<!-- Generated by graphviz version 2.38.0 (20140413.2041)
 -->
<!-- Title: artvision_instanton::ResolvePerspective3Point2P Pages: 1 -->
<svg width="468pt" height="176pt"
 viewBox="0.00 0.00 468.00 176.00" xmlns="http://www.w3.org/2000/svg" xmlns:xlink="http://www.w3.org/1999/xlink">
<g id="graph0" class="graph" transform="scale(1 1) rotate(0) translate(4 172)">
<title>artvision_instanton::ResolvePerspective3Point2P</title>
<polygon fill="white" stroke="none" points="-4,4 -4,-172 464,-172 464,4 -4,4"/>
<!-- Node1 -->
<g id="node1" class="node"><title>Node1</title>
<polygon fill="#bfbfbf" stroke="black" points="0,-66.5 0,-96.5 150,-96.5 150,-66.5 0,-66.5"/>
<text text-anchor="start" x="8" y="-84.5" font-family="Helvetica,sans-Serif" font-size="10.00">artvision_instanton</text>
<text text-anchor="middle" x="75" y="-73.5" font-family="Helvetica,sans-Serif" font-size="10.00">::ResolvePerspective3Point2P</text>
</g>
<!-- Node2 -->
<g id="node2" class="node"><title>Node2</title>
<g id="a_node2"><a xlink:href="namespaceartvision__instanton.html#ae2f91e798164e94f8da847fa07dc5dec" target="_top" xlink:title="Extract a rotation matrix and translation from a projection matrix. ">
<polygon fill="white" stroke="black" points="186,-137.5 186,-167.5 326,-167.5 326,-137.5 186,-137.5"/>
<text text-anchor="start" x="194" y="-155.5" font-family="Helvetica,sans-Serif" font-size="10.00">artvision_instanton</text>
<text text-anchor="middle" x="256" y="-144.5" font-family="Helvetica,sans-Serif" font-size="10.00">::ExtractRt_ProjectionMatrix</text>
</a>
</g>
</g>
<!-- Node1&#45;&gt;Node2 -->
<g id="edge1" class="edge"><title>Node1&#45;&gt;Node2</title>
<path fill="none" stroke="midnightblue" d="M109.453,-96.5055C131.125,-106.049 160.048,-118.456 186,-128.5 190.757,-130.341 195.723,-132.196 200.713,-134.015"/>
<polygon fill="midnightblue" stroke="midnightblue" points="199.7,-137.37 210.295,-137.456 202.066,-130.782 199.7,-137.37"/>
</g>
<!-- Node3 -->
<g id="node3" class="node"><title>Node3</title>
<g id="a_node3"><a xlink:href="namespaceartvision__instanton.html#a0bcd54deb4ce42595592e6acbe8dd7d1" target="_top" xlink:title="Perform a rigid transformation on a point. ">
<polygon fill="white" stroke="black" points="199,-88.5 199,-118.5 313,-118.5 313,-88.5 199,-88.5"/>
<text text-anchor="start" x="207" y="-106.5" font-family="Helvetica,sans-Serif" font-size="10.00">artvision_instanton</text>
<text text-anchor="middle" x="256" y="-95.5" font-family="Helvetica,sans-Serif" font-size="10.00">::ApplyRigidTransform</text>
</a>
</g>
</g>
<!-- Node1&#45;&gt;Node3 -->
<g id="edge2" class="edge"><title>Node1&#45;&gt;Node3</title>
<path fill="none" stroke="midnightblue" d="M150.098,-90.607C163,-92.1927 176.342,-93.8325 189.008,-95.3892"/>
<polygon fill="midnightblue" stroke="midnightblue" points="188.647,-98.8711 198.999,-96.6172 189.501,-91.9234 188.647,-98.8711"/>
</g>
<!-- Node6 -->
<g id="node6" class="node"><title>Node6</title>
<g id="a_node6"><a xlink:href="namespaceartvision__instanton.html#aaf2781e37f3d7d4e78dd2c872d0799b6" target="_top" xlink:title="artvision_instanton::sqr">
<polygon fill="white" stroke="black" points="197,-50 197,-69 315,-69 315,-50 197,-50"/>
<text text-anchor="middle" x="256" y="-57" font-family="Helvetica,sans-Serif" font-size="10.00">artvision_instanton::sqr</text>
</a>
</g>
</g>
<!-- Node1&#45;&gt;Node6 -->
<g id="edge5" class="edge"><title>Node1&#45;&gt;Node6</title>
<path fill="none" stroke="midnightblue" d="M150.098,-72.393C162.271,-70.8969 174.836,-69.3526 186.855,-67.8754"/>
<polygon fill="midnightblue" stroke="midnightblue" points="187.303,-71.3467 196.802,-66.6529 186.449,-64.399 187.303,-71.3467"/>
</g>
<!-- Node7 -->
<g id="node7" class="node"><title>Node7</title>
<g id="a_node7"><a xlink:href="namespaceartvision__instanton.html#afd6dbbd9acca322a19536bce2c32b43c" target="_top" xlink:title="artvision_instanton\l::CopyVector">
<polygon fill="white" stroke="black" points="207,-0.5 207,-30.5 305,-30.5 305,-0.5 207,-0.5"/>
<text text-anchor="start" x="215" y="-18.5" font-family="Helvetica,sans-Serif" font-size="10.00">artvision_instanton</text>
<text text-anchor="middle" x="256" y="-7.5" font-family="Helvetica,sans-Serif" font-size="10.00">::CopyVector</text>
</a>
</g>
</g>
<!-- Node1&#45;&gt;Node7 -->
<g id="edge6" class="edge"><title>Node1&#45;&gt;Node7</title>
<path fill="none" stroke="midnightblue" d="M116.196,-66.417C137.013,-58.6316 162.853,-49.0068 186,-40.5 191.808,-38.3656 197.895,-36.1414 203.947,-33.9382"/>
<polygon fill="midnightblue" stroke="midnightblue" points="205.179,-37.2144 213.382,-30.5093 202.788,-30.6353 205.179,-37.2144"/>
</g>
<!-- Node4 -->
<g id="node4" class="node"><title>Node4</title>
<g id="a_node4"><a xlink:href="namespaceartvision__instanton.html#a614c9cf49c0617570fffd18befe57f8a" target="_top" xlink:title="y = A*x where A is a 3x3 and x is a 3x1. ">
<polygon fill="white" stroke="black" points="362,-112.5 362,-142.5 460,-142.5 460,-112.5 362,-112.5"/>
<text text-anchor="start" x="370" y="-130.5" font-family="Helvetica,sans-Serif" font-size="10.00">artvision_instanton</text>
<text text-anchor="middle" x="411" y="-119.5" font-family="Helvetica,sans-Serif" font-size="10.00">::Multiply_3x3_3x1</text>
</a>
</g>
</g>
<!-- Node3&#45;&gt;Node4 -->
<g id="edge3" class="edge"><title>Node3&#45;&gt;Node4</title>
<path fill="none" stroke="midnightblue" d="M313.103,-112.3C325.754,-114.285 339.209,-116.396 351.939,-118.392"/>
<polygon fill="midnightblue" stroke="midnightblue" points="351.542,-121.873 361.964,-119.965 352.627,-114.957 351.542,-121.873"/>
</g>
<!-- Node5 -->
<g id="node5" class="node"><title>Node5</title>
<g id="a_node5"><a xlink:href="namespaceartvision__instanton.html#ab4058805b1bbef9fbba6688a6f4ce7b6" target="_top" xlink:title="artvision_instanton\l::AddVector3">
<polygon fill="white" stroke="black" points="362,-63.5 362,-93.5 460,-93.5 460,-63.5 362,-63.5"/>
<text text-anchor="start" x="370" y="-81.5" font-family="Helvetica,sans-Serif" font-size="10.00">artvision_instanton</text>
<text text-anchor="middle" x="411" y="-70.5" font-family="Helvetica,sans-Serif" font-size="10.00">::AddVector3</text>
</a>
</g>
</g>
<!-- Node3&#45;&gt;Node5 -->
<g id="edge4" class="edge"><title>Node3&#45;&gt;Node5</title>
<path fill="none" stroke="midnightblue" d="M313.103,-94.3329C325.754,-92.2656 339.209,-90.0672 351.939,-87.9871"/>
<polygon fill="midnightblue" stroke="midnightblue" points="352.659,-91.4159 361.964,-86.3491 351.53,-84.5076 352.659,-91.4159"/>
</g>
</g>
</svg>
