<?xml version="1.0" encoding="UTF-8" standalone="no"?>
<!DOCTYPE svg PUBLIC "-//W3C//DTD SVG 1.1//EN"
 "http://www.w3.org/Graphics/SVG/1.1/DTD/svg11.dtd">
<!-- Generated by graphviz version 2.38.0 (20140413.2041)
 -->
<!-- Title: artvision_instanton::CauchyPerspectiveReprojectionCost Pages: 1 -->
<svg width="522pt" height="168pt"
 viewBox="0.00 0.00 522.00 167.50" xmlns="http://www.w3.org/2000/svg" xmlns:xlink="http://www.w3.org/1999/xlink">
<g id="graph0" class="graph" transform="scale(1 1) rotate(0) translate(4 163.5)">
<title>artvision_instanton::CauchyPerspectiveReprojectionCost</title>
<polygon fill="white" stroke="none" points="-4,4 -4,-163.5 518,-163.5 518,4 -4,4"/>
<!-- Node1 -->
<g id="node1" class="node"><title>Node1</title>
<polygon fill="#bfbfbf" stroke="black" points="0,-80 0,-110 184,-110 184,-80 0,-80"/>
<text text-anchor="start" x="8" y="-98" font-family="Helvetica,sans-Serif" font-size="10.00">artvision_instanton</text>
<text text-anchor="middle" x="92" y="-87" font-family="Helvetica,sans-Serif" font-size="10.00">::CauchyPerspectiveReprojectionCost</text>
</g>
<!-- Node2 -->
<g id="node2" class="node"><title>Node2</title>
<g id="a_node2"><a xlink:href="namespaceartvision__instanton.html#ae2f91e798164e94f8da847fa07dc5dec" target="_top" xlink:title="Extract a rotation matrix and translation from a projection matrix. ">
<polygon fill="white" stroke="black" points="220,-129 220,-159 360,-159 360,-129 220,-129"/>
<text text-anchor="start" x="228" y="-147" font-family="Helvetica,sans-Serif" font-size="10.00">artvision_instanton</text>
<text text-anchor="middle" x="290" y="-136" font-family="Helvetica,sans-Serif" font-size="10.00">::ExtractRt_ProjectionMatrix</text>
</a>
</g>
</g>
<!-- Node1&#45;&gt;Node2 -->
<g id="edge1" class="edge"><title>Node1&#45;&gt;Node2</title>
<path fill="none" stroke="midnightblue" d="M153.138,-110.035C174.021,-115.255 197.615,-121.154 219.21,-126.553"/>
<polygon fill="midnightblue" stroke="midnightblue" points="218.425,-129.964 228.975,-128.994 220.123,-123.173 218.425,-129.964"/>
</g>
<!-- Node3 -->
<g id="node3" class="node"><title>Node3</title>
<g id="a_node3"><a xlink:href="namespaceartvision__instanton.html#a0bcd54deb4ce42595592e6acbe8dd7d1" target="_top" xlink:title="Perform a rigid transformation on a point. ">
<polygon fill="white" stroke="black" points="233,-80 233,-110 347,-110 347,-80 233,-80"/>
<text text-anchor="start" x="241" y="-98" font-family="Helvetica,sans-Serif" font-size="10.00">artvision_instanton</text>
<text text-anchor="middle" x="290" y="-87" font-family="Helvetica,sans-Serif" font-size="10.00">::ApplyRigidTransform</text>
</a>
</g>
</g>
<!-- Node1&#45;&gt;Node3 -->
<g id="edge2" class="edge"><title>Node1&#45;&gt;Node3</title>
<path fill="none" stroke="midnightblue" d="M184.114,-95C197.079,-95 210.205,-95 222.58,-95"/>
<polygon fill="midnightblue" stroke="midnightblue" points="222.777,-98.5001 232.777,-95 222.777,-91.5001 222.777,-98.5001"/>
</g>
<!-- Node6 -->
<g id="node6" class="node"><title>Node6</title>
<g id="a_node6"><a xlink:href="namespaceartvision__instanton.html#a7f364fe0dfa85b3e8e808022f9e53d1f" target="_top" xlink:title="As one_over_scale2 gets larger, cost increases. ">
<polygon fill="white" stroke="black" points="241,-31 241,-61 339,-61 339,-31 241,-31"/>
<text text-anchor="start" x="249" y="-49" font-family="Helvetica,sans-Serif" font-size="10.00">artvision_instanton</text>
<text text-anchor="middle" x="290" y="-38" font-family="Helvetica,sans-Serif" font-size="10.00">::CauchyCost</text>
</a>
</g>
</g>
<!-- Node1&#45;&gt;Node6 -->
<g id="edge5" class="edge"><title>Node1&#45;&gt;Node6</title>
<path fill="none" stroke="midnightblue" d="M153.138,-79.9654C177.864,-73.784 206.39,-66.6526 230.9,-60.5251"/>
<polygon fill="midnightblue" stroke="midnightblue" points="231.929,-63.8756 240.781,-58.0547 230.231,-57.0846 231.929,-63.8756"/>
</g>
<!-- Node4 -->
<g id="node4" class="node"><title>Node4</title>
<g id="a_node4"><a xlink:href="namespaceartvision__instanton.html#a614c9cf49c0617570fffd18befe57f8a" target="_top" xlink:title="y = A*x where A is a 3x3 and x is a 3x1. ">
<polygon fill="white" stroke="black" points="406,-127 406,-157 504,-157 504,-127 406,-127"/>
<text text-anchor="start" x="414" y="-145" font-family="Helvetica,sans-Serif" font-size="10.00">artvision_instanton</text>
<text text-anchor="middle" x="455" y="-134" font-family="Helvetica,sans-Serif" font-size="10.00">::Multiply_3x3_3x1</text>
</a>
</g>
</g>
<!-- Node3&#45;&gt;Node4 -->
<g id="edge3" class="edge"><title>Node3&#45;&gt;Node4</title>
<path fill="none" stroke="midnightblue" d="M343.022,-110C359.845,-114.851 378.605,-120.26 395.843,-125.231"/>
<polygon fill="midnightblue" stroke="midnightblue" points="395.212,-128.691 405.791,-128.099 397.152,-121.966 395.212,-128.691"/>
</g>
<!-- Node5 -->
<g id="node5" class="node"><title>Node5</title>
<g id="a_node5"><a xlink:href="namespaceartvision__instanton.html#ab4058805b1bbef9fbba6688a6f4ce7b6" target="_top" xlink:title="artvision_instanton\l::AddVector3">
<polygon fill="white" stroke="black" points="406,-78 406,-108 504,-108 504,-78 406,-78"/>
<text text-anchor="start" x="414" y="-96" font-family="Helvetica,sans-Serif" font-size="10.00">artvision_instanton</text>
<text text-anchor="middle" x="455" y="-85" font-family="Helvetica,sans-Serif" font-size="10.00">::AddVector3</text>
</a>
</g>
</g>
<!-- Node3&#45;&gt;Node5 -->
<g id="edge4" class="edge"><title>Node3&#45;&gt;Node5</title>
<path fill="none" stroke="midnightblue" d="M347.095,-94.3117C362.808,-94.1189 379.921,-93.9089 395.755,-93.7147"/>
<polygon fill="midnightblue" stroke="midnightblue" points="395.992,-97.2121 405.949,-93.5896 395.907,-90.2126 395.992,-97.2121"/>
</g>
<!-- Node7 -->
<g id="node7" class="node"><title>Node7</title>
<g id="a_node7"><a xlink:href="namespaceartvision__instanton.html#aabfdfd6e431693d8b92948d037feaf4f" target="_top" xlink:title="artvision_instanton::log">
<polygon fill="white" stroke="black" points="396.5,-38.5 396.5,-57.5 513.5,-57.5 513.5,-38.5 396.5,-38.5"/>
<text text-anchor="middle" x="455" y="-45.5" font-family="Helvetica,sans-Serif" font-size="10.00">artvision_instanton::log</text>
</a>
</g>
</g>
<!-- Node6&#45;&gt;Node7 -->
<g id="edge6" class="edge"><title>Node6&#45;&gt;Node7</title>
<path fill="none" stroke="midnightblue" d="M339.024,-46.5892C353.737,-46.7698 370.213,-46.9719 385.994,-47.1656"/>
<polygon fill="midnightblue" stroke="midnightblue" points="386.196,-50.6682 396.238,-47.2913 386.282,-43.6687 386.196,-50.6682"/>
</g>
<!-- Node8 -->
<g id="node8" class="node"><title>Node8</title>
<g id="a_node8"><a xlink:href="namespaceartvision__instanton.html#aaf2781e37f3d7d4e78dd2c872d0799b6" target="_top" xlink:title="artvision_instanton::sqr">
<polygon fill="white" stroke="black" points="396,-0.5 396,-19.5 514,-19.5 514,-0.5 396,-0.5"/>
<text text-anchor="middle" x="455" y="-7.5" font-family="Helvetica,sans-Serif" font-size="10.00">artvision_instanton::sqr</text>
</a>
</g>
</g>
<!-- Node6&#45;&gt;Node8 -->
<g id="edge7" class="edge"><title>Node6&#45;&gt;Node8</title>
<path fill="none" stroke="midnightblue" d="M339.024,-35.3935C358.465,-31.0998 380.982,-26.1266 400.909,-21.7255"/>
<polygon fill="midnightblue" stroke="midnightblue" points="401.75,-25.1242 410.76,-19.5499 400.241,-18.2889 401.75,-25.1242"/>
</g>
</g>
</svg>
