<?xml version="1.0" encoding="UTF-8" standalone="no"?>
<!DOCTYPE svg PUBLIC "-//W3C//DTD SVG 1.1//EN"
 "http://www.w3.org/Graphics/SVG/1.1/DTD/svg11.dtd">
<!-- Generated by graphviz version 2.38.0 (20140413.2041)
 -->
<!-- Title: artvision_instanton::FindPnPInliers Pages: 1 -->
<svg width="590pt" height="176pt"
 viewBox="0.00 0.00 590.00 176.00" xmlns="http://www.w3.org/2000/svg" xmlns:xlink="http://www.w3.org/1999/xlink">
<g id="graph0" class="graph" transform="scale(1 1) rotate(0) translate(4 172)">
<title>artvision_instanton::FindPnPInliers</title>
<polygon fill="white" stroke="none" points="-4,4 -4,-172 586,-172 586,4 -4,4"/>
<!-- Node1 -->
<g id="node1" class="node"><title>Node1</title>
<polygon fill="#bfbfbf" stroke="black" points="0,-71.5 0,-101.5 98,-101.5 98,-71.5 0,-71.5"/>
<text text-anchor="start" x="8" y="-89.5" font-family="Helvetica,sans-Serif" font-size="10.00">artvision_instanton</text>
<text text-anchor="middle" x="49" y="-78.5" font-family="Helvetica,sans-Serif" font-size="10.00">::FindPnPInliers</text>
</g>
<!-- Node2 -->
<g id="node2" class="node"><title>Node2</title>
<g id="a_node2"><a xlink:href="namespaceartvision__instanton.html#ae2f91e798164e94f8da847fa07dc5dec" target="_top" xlink:title="Extract a rotation matrix and translation from a projection matrix. ">
<polygon fill="white" stroke="black" points="134,-137.5 134,-167.5 274,-167.5 274,-137.5 134,-137.5"/>
<text text-anchor="start" x="142" y="-155.5" font-family="Helvetica,sans-Serif" font-size="10.00">artvision_instanton</text>
<text text-anchor="middle" x="204" y="-144.5" font-family="Helvetica,sans-Serif" font-size="10.00">::ExtractRt_ProjectionMatrix</text>
</a>
</g>
</g>
<!-- Node1&#45;&gt;Node2 -->
<g id="edge1" class="edge"><title>Node1&#45;&gt;Node2</title>
<path fill="none" stroke="midnightblue" d="M78.8044,-101.503C94.8583,-109.624 115.323,-119.585 134,-127.5 139.059,-129.644 144.372,-131.775 149.709,-133.837"/>
<polygon fill="midnightblue" stroke="midnightblue" points="148.702,-137.198 159.293,-137.461 151.177,-130.65 148.702,-137.198"/>
</g>
<!-- Node3 -->
<g id="node3" class="node"><title>Node3</title>
<g id="a_node3"><a xlink:href="namespaceartvision__instanton.html#aaf2781e37f3d7d4e78dd2c872d0799b6" target="_top" xlink:title="artvision_instanton::sqr">
<polygon fill="white" stroke="black" points="145,-99 145,-118 263,-118 263,-99 145,-99"/>
<text text-anchor="middle" x="204" y="-106" font-family="Helvetica,sans-Serif" font-size="10.00">artvision_instanton::sqr</text>
</a>
</g>
</g>
<!-- Node1&#45;&gt;Node3 -->
<g id="edge2" class="edge"><title>Node1&#45;&gt;Node3</title>
<path fill="none" stroke="midnightblue" d="M98.4102,-93.4609C109.969,-95.123 122.522,-96.928 134.787,-98.6916"/>
<polygon fill="midnightblue" stroke="midnightblue" points="134.597,-102.2 144.994,-100.159 135.594,-95.2715 134.597,-102.2"/>
</g>
<!-- Node4 -->
<g id="node4" class="node"><title>Node4</title>
<g id="a_node4"><a xlink:href="namespaceartvision__instanton.html#a24d7ae588e0e2ec2eb7d5fc233427ad8" target="_top" xlink:title="Compute the reprojection error from an observed point and 3d point. ">
<polygon fill="white" stroke="black" points="135,-49.5 135,-79.5 273,-79.5 273,-49.5 135,-49.5"/>
<text text-anchor="start" x="143" y="-67.5" font-family="Helvetica,sans-Serif" font-size="10.00">artvision_instanton</text>
<text text-anchor="middle" x="204" y="-56.5" font-family="Helvetica,sans-Serif" font-size="10.00">::ComputeReprojectionError</text>
</a>
</g>
</g>
<!-- Node1&#45;&gt;Node4 -->
<g id="edge3" class="edge"><title>Node1&#45;&gt;Node4</title>
<path fill="none" stroke="midnightblue" d="M98.4102,-79.5391C106.806,-78.3317 115.727,-77.049 124.681,-75.7616"/>
<polygon fill="midnightblue" stroke="midnightblue" points="125.378,-79.1974 134.778,-74.3097 124.382,-72.2687 125.378,-79.1974"/>
</g>
<!-- Node8 -->
<g id="node8" class="node"><title>Node8</title>
<g id="a_node8"><a xlink:href="namespaceartvision__instanton.html#afb233cb1aedda46513c8b085c60ed0c0" target="_top" xlink:title="Compute the dot product. ">
<polygon fill="white" stroke="black" points="155,-0.5 155,-30.5 253,-30.5 253,-0.5 155,-0.5"/>
<text text-anchor="start" x="163" y="-18.5" font-family="Helvetica,sans-Serif" font-size="10.00">artvision_instanton</text>
<text text-anchor="middle" x="204" y="-7.5" font-family="Helvetica,sans-Serif" font-size="10.00">::DotProduct2</text>
</a>
</g>
</g>
<!-- Node1&#45;&gt;Node8 -->
<g id="edge7" class="edge"><title>Node1&#45;&gt;Node8</title>
<path fill="none" stroke="midnightblue" d="M75.215,-71.3655C91.6326,-61.8459 113.696,-49.6725 134,-40.5 138.741,-38.3584 143.724,-36.264 148.753,-34.2562"/>
<polygon fill="midnightblue" stroke="midnightblue" points="150.363,-37.3859 158.426,-30.5123 147.837,-30.8578 150.363,-37.3859"/>
</g>
<!-- Node5 -->
<g id="node5" class="node"><title>Node5</title>
<g id="a_node5"><a xlink:href="namespaceartvision__instanton.html#a2e4a1c1738a313cb7c2c174d94f6de59" target="_top" xlink:title="Compute the Pinhole Projection of a 3D point in camera space. ">
<polygon fill="white" stroke="black" points="310,-74.5 310,-104.5 448,-104.5 448,-74.5 310,-74.5"/>
<text text-anchor="start" x="318" y="-92.5" font-family="Helvetica,sans-Serif" font-size="10.00">artvision_instanton</text>
<text text-anchor="middle" x="379" y="-81.5" font-family="Helvetica,sans-Serif" font-size="10.00">::ComputePinholeProjection</text>
</a>
</g>
</g>
<!-- Node4&#45;&gt;Node5 -->
<g id="edge4" class="edge"><title>Node4&#45;&gt;Node5</title>
<path fill="none" stroke="midnightblue" d="M273.374,-74.3807C282.089,-75.64 291.061,-76.9366 299.914,-78.2159"/>
<polygon fill="midnightblue" stroke="midnightblue" points="299.441,-81.6839 309.839,-79.6502 300.443,-74.7558 299.441,-81.6839"/>
</g>
<!-- Node7 -->
<g id="node7" class="node"><title>Node7</title>
<g id="a_node7"><a xlink:href="namespaceartvision__instanton.html#a7335db5e597223e1ac30919089f27045" target="_top" xlink:title="Subtract two vectors. ">
<polygon fill="white" stroke="black" points="330,-25.5 330,-55.5 428,-55.5 428,-25.5 330,-25.5"/>
<text text-anchor="start" x="338" y="-43.5" font-family="Helvetica,sans-Serif" font-size="10.00">artvision_instanton</text>
<text text-anchor="middle" x="379" y="-32.5" font-family="Helvetica,sans-Serif" font-size="10.00">::SubVector2</text>
</a>
</g>
</g>
<!-- Node4&#45;&gt;Node7 -->
<g id="edge6" class="edge"><title>Node4&#45;&gt;Node7</title>
<path fill="none" stroke="midnightblue" d="M273.374,-55.0146C288.722,-52.8854 304.866,-50.6457 319.756,-48.5801"/>
<polygon fill="midnightblue" stroke="midnightblue" points="320.414,-52.0224 329.839,-47.1814 319.452,-45.0888 320.414,-52.0224"/>
</g>
<!-- Node6 -->
<g id="node6" class="node"><title>Node6</title>
<g id="a_node6"><a xlink:href="namespaceartvision__instanton.html#a7353501a2ebe28e96528be2f2bfe4eaf" target="_top" xlink:title="Safe reciprical (1/x). ">
<polygon fill="white" stroke="black" points="484,-74.5 484,-104.5 582,-104.5 582,-74.5 484,-74.5"/>
<text text-anchor="start" x="492" y="-92.5" font-family="Helvetica,sans-Serif" font-size="10.00">artvision_instanton</text>
<text text-anchor="middle" x="533" y="-81.5" font-family="Helvetica,sans-Serif" font-size="10.00">::SafeReciprocal</text>
</a>
</g>
</g>
<!-- Node5&#45;&gt;Node6 -->
<g id="edge5" class="edge"><title>Node5&#45;&gt;Node6</title>
<path fill="none" stroke="midnightblue" d="M448.441,-89.5C456.862,-89.5 465.409,-89.5 473.661,-89.5"/>
<polygon fill="midnightblue" stroke="midnightblue" points="473.926,-93.0001 483.926,-89.5 473.926,-86.0001 473.926,-93.0001"/>
</g>
</g>
</svg>
