<?xml version="1.0" encoding="UTF-8" standalone="no"?>
<!DOCTYPE svg PUBLIC "-//W3C//DTD SVG 1.1//EN"
 "http://www.w3.org/Graphics/SVG/1.1/DTD/svg11.dtd">
<!-- Generated by graphviz version 2.38.0 (20140413.2041)
 -->
<!-- Title: artvision_instanton::SolveQuarticPolynomial Pages: 1 -->
<!--zoomable 259 -->
<svg id="main" version="1.1" xmlns="http://www.w3.org/2000/svg" xmlns:xlink="http://www.w3.org/1999/xlink" xml:space="preserve" onload="init(evt)">
<style type="text/css"><![CDATA[
.edge:hover path { stroke: red; }
.edge:hover polygon { stroke: red; fill: red; }
]]></style>
<script type="text/javascript"><![CDATA[
var edges = document.getElementsByTagName('g');
if (edges && edges.length) {
  for (var i=0;i<edges.length;i++) {
    if (edges[i].id.substr(0,4)=='edge') {
      edges[i].setAttribute('class','edge');
    }
  }
}
]]></script>
        <defs>
                <circle id="rim" cx="0" cy="0" r="7"/>
                <circle id="rim2" cx="0" cy="0" r="3.5"/>
                <g id="zoomPlus">
                        <use xlink:href="#rim" fill="#404040">
                                <set attributeName="fill" to="#808080" begin="zoomplus.mouseover" end="zoomplus.mouseout"/>
                        </use>
                        <path d="M-4,0h8M0,-4v8" fill="none" stroke="white" stroke-width="1.5" pointer-events="none"/>
                </g>
                <g id="zoomMin">
                        <use xlink:href="#rim" fill="#404040">
                                <set attributeName="fill" to="#808080" begin="zoomminus.mouseover" end="zoomminus.mouseout"/>
                        </use>
                        <path d="M-4,0h8" fill="none" stroke="white" stroke-width="1.5" pointer-events="none"/>
                </g>
                <g id="dirArrow">
                        <path fill="none" stroke="white" stroke-width="1.5" d="M0,-3.0v7 M-2.5,-0.5L0,-3.0L2.5,-0.5"/>
                </g>
               <g id="resetDef">
                       <use xlink:href="#rim2" fill="#404040">
                               <set attributeName="fill" to="#808080" begin="reset.mouseover" end="reset.mouseout"/>
                       </use>
               </g>
        </defs>

<script type="text/javascript">
var viewWidth = 638;
var viewHeight = 259;
var sectionId = 'dynsection-194';
</script>
<script xlink:href="svgpan.js"/>
<svg id="graph" class="graph">
<g id="viewport">
<title>artvision_instanton::SolveQuarticPolynomial</title>
<polygon fill="white" stroke="none" points="-4,4 -4,-254.5 634,-254.5 634,4 -4,4"/>
<!-- Node1 -->
<g id="node1" class="node"><title>Node1</title>
<polygon fill="#bfbfbf" stroke="black" points="0,-39 0,-69 127,-69 127,-39 0,-39"/>
<text text-anchor="start" x="8" y="-57" font-family="Helvetica,sans-Serif" font-size="10.00">artvision_instanton</text>
<text text-anchor="middle" x="63.5" y="-46" font-family="Helvetica,sans-Serif" font-size="10.00">::SolveQuarticPolynomial</text>
</g>
<!-- Node2 -->
<g id="node2" class="node"><title>Node2</title>
<g id="a_node2"><a xlink:href="namespaceartvision__instanton.html#a85cb5c6265e4e14f79b18bc567bbf709" target="_top" xlink:title="Solve for the real roots of a cubic polynomial of the form: ">
<polygon fill="white" stroke="black" points="170.5,-107 170.5,-137 291.5,-137 291.5,-107 170.5,-107"/>
<text text-anchor="start" x="178.5" y="-125" font-family="Helvetica,sans-Serif" font-size="10.00">artvision_instanton</text>
<text text-anchor="middle" x="231" y="-114" font-family="Helvetica,sans-Serif" font-size="10.00">::SolveCubicPolynomial</text>
</a>
</g>
</g>
<!-- Node1&#45;&gt;Node2 -->
<g id="edge1" class="edge"><title>Node1&#45;&gt;Node2</title>
<path fill="none" stroke="midnightblue" d="M101.23,-69.0914C125.656,-79.1276 157.927,-92.3869 184.052,-103.121"/>
<polygon fill="midnightblue" stroke="midnightblue" points="182.793,-106.388 193.373,-106.951 185.453,-99.9129 182.793,-106.388"/>
</g>
<!-- Node6 -->
<g id="node6" class="node"><title>Node6</title>
<g id="a_node6"><a xlink:href="namespaceartvision__instanton.html#aaf2781e37f3d7d4e78dd2c872d0799b6" target="_top" xlink:title="artvision_instanton::sqr">
<polygon fill="white" stroke="black" points="344.5,-0.5 344.5,-19.5 462.5,-19.5 462.5,-0.5 344.5,-0.5"/>
<text text-anchor="middle" x="403.5" y="-7.5" font-family="Helvetica,sans-Serif" font-size="10.00">artvision_instanton::sqr</text>
</a>
</g>
</g>
<!-- Node1&#45;&gt;Node6 -->
<g id="edge9" class="edge"><title>Node1&#45;&gt;Node6</title>
<path fill="none" stroke="midnightblue" d="M116.805,-38.9732C131.629,-35.1933 147.856,-31.5039 163,-29 220.244,-19.5349 285.993,-14.7461 334.102,-12.3463"/>
<polygon fill="midnightblue" stroke="midnightblue" points="334.269,-15.8424 344.091,-11.8697 333.935,-8.85039 334.269,-15.8424"/>
</g>
<!-- Node9 -->
<g id="node9" class="node"><title>Node9</title>
<g id="a_node9"><a xlink:href="namespaceartvision__instanton.html#ad3924d7ff8cb60cc404638ab80fe5b11" target="_top" xlink:title="Polish the root of a quartic polynomial. ">
<polygon fill="white" stroke="black" points="163,-39 163,-69 299,-69 299,-39 163,-39"/>
<text text-anchor="start" x="171" y="-57" font-family="Helvetica,sans-Serif" font-size="10.00">artvision_instanton</text>
<text text-anchor="middle" x="231" y="-46" font-family="Helvetica,sans-Serif" font-size="10.00">::PolishQuarticRootNewton</text>
</a>
</g>
</g>
<!-- Node1&#45;&gt;Node9 -->
<g id="edge10" class="edge"><title>Node1&#45;&gt;Node9</title>
<path fill="none" stroke="midnightblue" d="M127.068,-54C135.49,-54 144.208,-54 152.845,-54"/>
<polygon fill="midnightblue" stroke="midnightblue" points="152.923,-57.5001 162.923,-54 152.923,-50.5001 152.923,-57.5001"/>
</g>
<!-- Node3 -->
<g id="node3" class="node"><title>Node3</title>
<g id="a_node3"><a xlink:href="namespaceartvision__instanton.html#a3eaa94252f465f459a636060aa8d3e56" target="_top" xlink:title="Solve for the real roots of a quadratic polynomial of the form: ">
<polygon fill="white" stroke="black" points="335,-215 335,-245 472,-245 472,-215 335,-215"/>
<text text-anchor="start" x="343" y="-233" font-family="Helvetica,sans-Serif" font-size="10.00">artvision_instanton</text>
<text text-anchor="middle" x="403.5" y="-222" font-family="Helvetica,sans-Serif" font-size="10.00">::SolveQuadraticPolynomial</text>
</a>
</g>
</g>
<!-- Node2&#45;&gt;Node3 -->
<g id="edge2" class="edge"><title>Node2&#45;&gt;Node3</title>
<path fill="none" stroke="midnightblue" d="M249.35,-137.126C269.145,-153.896 302.933,-181.074 335,-200 341.378,-203.764 348.313,-207.357 355.23,-210.664"/>
<polygon fill="midnightblue" stroke="midnightblue" points="354.05,-213.974 364.596,-214.985 356.983,-207.618 354.05,-213.974"/>
</g>
<!-- Node5 -->
<g id="node5" class="node"><title>Node5</title>
<g id="a_node5"><a xlink:href="namespaceartvision__instanton.html#adc1e30b0cec389f6c8e8b5512b69fb2e" target="_top" xlink:title="artvision_instanton\l::sign">
<polygon fill="white" stroke="black" points="520,-171 520,-201 618,-201 618,-171 520,-171"/>
<text text-anchor="start" x="528" y="-189" font-family="Helvetica,sans-Serif" font-size="10.00">artvision_instanton</text>
<text text-anchor="middle" x="569" y="-178" font-family="Helvetica,sans-Serif" font-size="10.00">::sign</text>
</a>
</g>
</g>
<!-- Node2&#45;&gt;Node5 -->
<g id="edge8" class="edge"><title>Node2&#45;&gt;Node5</title>
<path fill="none" stroke="midnightblue" d="M260.445,-137.068C280.664,-147.043 308.776,-159.453 335,-166 393.35,-180.569 462.186,-184.974 509.836,-186.099"/>
<polygon fill="midnightblue" stroke="midnightblue" points="509.904,-189.601 519.971,-186.297 510.041,-182.603 509.904,-189.601"/>
</g>
<!-- Node2&#45;&gt;Node6 -->
<g id="edge5" class="edge"><title>Node2&#45;&gt;Node6</title>
<path fill="none" stroke="midnightblue" d="M259.69,-106.884C272.435,-99.1865 287.29,-89.1107 299,-78 318.604,-59.4001 312.785,-44.3871 335,-29 337.89,-26.9984 340.986,-25.2066 344.206,-23.6028"/>
<polygon fill="midnightblue" stroke="midnightblue" points="345.753,-26.7474 353.539,-19.5623 342.971,-20.3236 345.753,-26.7474"/>
</g>
<!-- Node7 -->
<g id="node7" class="node"><title>Node7</title>
<g id="a_node7"><a xlink:href="namespaceartvision__instanton.html#ac3c0d561c97b525f88313d0054b1de06" target="_top" xlink:title="artvision_instanton::cub">
<polygon fill="white" stroke="black" points="343.5,-88.5 343.5,-107.5 463.5,-107.5 463.5,-88.5 343.5,-88.5"/>
<text text-anchor="middle" x="403.5" y="-95.5" font-family="Helvetica,sans-Serif" font-size="10.00">artvision_instanton::cub</text>
</a>
</g>
</g>
<!-- Node2&#45;&gt;Node7 -->
<g id="edge6" class="edge"><title>Node2&#45;&gt;Node7</title>
<path fill="none" stroke="midnightblue" d="M291.633,-113.606C305.156,-111.702 319.627,-109.665 333.501,-107.712"/>
<polygon fill="midnightblue" stroke="midnightblue" points="334.062,-111.168 343.477,-106.308 333.086,-104.236 334.062,-111.168"/>
</g>
<!-- Node8 -->
<g id="node8" class="node"><title>Node8</title>
<g id="a_node8"><a xlink:href="namespaceartvision__instanton.html#af395cd7a5076696b788c190fc9ec8100" target="_top" xlink:title="Cube root y = x^(1/3) ">
<polygon fill="white" stroke="black" points="354.5,-127 354.5,-157 452.5,-157 452.5,-127 354.5,-127"/>
<text text-anchor="start" x="362.5" y="-145" font-family="Helvetica,sans-Serif" font-size="10.00">artvision_instanton</text>
<text text-anchor="middle" x="403.5" y="-134" font-family="Helvetica,sans-Serif" font-size="10.00">::CubeRoot</text>
</a>
</g>
</g>
<!-- Node2&#45;&gt;Node8 -->
<g id="edge7" class="edge"><title>Node2&#45;&gt;Node8</title>
<path fill="none" stroke="midnightblue" d="M291.633,-128.995C308.651,-130.991 327.171,-133.164 344.114,-135.151"/>
<polygon fill="midnightblue" stroke="midnightblue" points="344.092,-138.673 354.432,-136.362 344.908,-131.72 344.092,-138.673"/>
</g>
<!-- Node4 -->
<g id="node4" class="node"><title>Node4</title>
<g id="a_node4"><a xlink:href="namespaceartvision__instanton.html#adb0d6b298f7daaf74e79e27654c17df5" target="_top" xlink:title="Solve for the real root of a linear polynomial of the form: ">
<polygon fill="white" stroke="black" points="508,-220 508,-250 630,-250 630,-220 508,-220"/>
<text text-anchor="start" x="516" y="-238" font-family="Helvetica,sans-Serif" font-size="10.00">artvision_instanton</text>
<text text-anchor="middle" x="569" y="-227" font-family="Helvetica,sans-Serif" font-size="10.00">::SolveLinearPolynomial</text>
</a>
</g>
</g>
<!-- Node3&#45;&gt;Node4 -->
<g id="edge3" class="edge"><title>Node3&#45;&gt;Node4</title>
<path fill="none" stroke="midnightblue" d="M472.418,-232.077C480.777,-232.333 489.334,-232.594 497.726,-232.851"/>
<polygon fill="midnightblue" stroke="midnightblue" points="497.755,-236.353 507.857,-233.161 497.969,-229.357 497.755,-236.353"/>
</g>
<!-- Node3&#45;&gt;Node5 -->
<g id="edge4" class="edge"><title>Node3&#45;&gt;Node5</title>
<path fill="none" stroke="midnightblue" d="M460.31,-214.981C476.321,-210.672 493.814,-205.964 509.956,-201.62"/>
<polygon fill="midnightblue" stroke="midnightblue" points="511.06,-204.948 519.807,-198.969 509.241,-198.188 511.06,-204.948"/>
</g>
<!-- Node9&#45;&gt;Node6 -->
<g id="edge13" class="edge"><title>Node9&#45;&gt;Node6</title>
<path fill="none" stroke="midnightblue" d="M290.2,-38.9808C311.574,-33.4648 335.48,-27.2956 355.723,-22.0716"/>
<polygon fill="midnightblue" stroke="midnightblue" points="356.831,-25.4002 365.639,-19.5124 355.082,-18.6223 356.831,-25.4002"/>
</g>
<!-- Node9&#45;&gt;Node7 -->
<g id="edge12" class="edge"><title>Node9&#45;&gt;Node7</title>
<path fill="none" stroke="midnightblue" d="M290.2,-69.0192C311.574,-74.5352 335.48,-80.7044 355.723,-85.9284"/>
<polygon fill="midnightblue" stroke="midnightblue" points="355.082,-89.3777 365.639,-88.4876 356.831,-82.5998 355.082,-89.3777"/>
</g>
<!-- Node10 -->
<g id="node10" class="node"><title>Node10</title>
<g id="a_node10"><a xlink:href="namespaceartvision__instanton.html#acc6d0a656fcbbd674e8c3802dea9c7bf" target="_top" xlink:title="Evaluate a quartic function. ">
<polygon fill="white" stroke="black" points="354.5,-39 354.5,-69 452.5,-69 452.5,-39 354.5,-39"/>
<text text-anchor="start" x="362.5" y="-57" font-family="Helvetica,sans-Serif" font-size="10.00">artvision_instanton</text>
<text text-anchor="middle" x="403.5" y="-46" font-family="Helvetica,sans-Serif" font-size="10.00">::QuarticEval</text>
</a>
</g>
</g>
<!-- Node9&#45;&gt;Node10 -->
<g id="edge11" class="edge"><title>Node9&#45;&gt;Node10</title>
<path fill="none" stroke="midnightblue" d="M299.386,-54C314.142,-54 329.645,-54 344.018,-54"/>
<polygon fill="midnightblue" stroke="midnightblue" points="344.258,-57.5001 354.258,-54 344.258,-50.5001 344.258,-57.5001"/>
</g>
</g>
</svg>
        <g id="navigator" transform="translate(0 0)" fill="#404254">
                <rect fill="#f2f5e9" fill-opacity="0.5" stroke="#606060" stroke-width=".5" x="0" y="0" width="60" height="60"/>
                <use id="zoomplus" xlink:href="#zoomPlus" x="17" y="9" onmousedown="handleZoom(evt,'in')"/>
                <use id="zoomminus" xlink:href="#zoomMin" x="42" y="9" onmousedown="handleZoom(evt,'out')"/>
                <use id="reset" xlink:href="#resetDef" x="30" y="36" onmousedown="handleReset()"/>
                <g id="arrowUp" xlink:href="#dirArrow" transform="translate(30 24)" onmousedown="handlePan(0,-1)">
                  <use xlink:href="#rim" fill="#404040">
                        <set attributeName="fill" to="#808080" begin="arrowUp.mouseover" end="arrowUp.mouseout"/>
                  </use>
                  <path fill="none" stroke="white" stroke-width="1.5" d="M0,-3.0v7 M-2.5,-0.5L0,-3.0L2.5,-0.5"/>
                </g>
                <g id="arrowRight" xlink:href="#dirArrow" transform="rotate(90) translate(36 -43)" onmousedown="handlePan(1,0)">
                  <use xlink:href="#rim" fill="#404040">
                        <set attributeName="fill" to="#808080" begin="arrowRight.mouseover" end="arrowRight.mouseout"/>
                  </use>
                  <path fill="none" stroke="white" stroke-width="1.5" d="M0,-3.0v7 M-2.5,-0.5L0,-3.0L2.5,-0.5"/>
                </g>
                <g id="arrowDown" xlink:href="#dirArrow" transform="rotate(180) translate(-30 -48)" onmousedown="handlePan(0,1)">
                  <use xlink:href="#rim" fill="#404040">
                        <set attributeName="fill" to="#808080" begin="arrowDown.mouseover" end="arrowDown.mouseout"/>
                  </use>
                  <path fill="none" stroke="white" stroke-width="1.5" d="M0,-3.0v7 M-2.5,-0.5L0,-3.0L2.5,-0.5"/>
                </g>
                <g id="arrowLeft" xlink:href="#dirArrow" transform="rotate(270) translate(-36 17)" onmousedown="handlePan(-1,0)">
                  <use xlink:href="#rim" fill="#404040">
                        <set attributeName="fill" to="#808080" begin="arrowLeft.mouseover" end="arrowLeft.mouseout"/>
                  </use>
                  <path fill="none" stroke="white" stroke-width="1.5" d="M0,-3.0v7 M-2.5,-0.5L0,-3.0L2.5,-0.5"/>
                </g>
        </g>
        <svg viewBox="0 0 15 15" width="100%" height="30px" preserveAspectRatio="xMaxYMin meet">
         <g id="arrow_out" transform="scale(0.3 0.3)">
          <a xlink:href="namespaceartvision__instanton_ac3fcbe7e8df2c608efd9f67eaa89bd77_cgraph_org.svg" target="_base">
           <rect id="button" ry="5" rx="5" y="6" x="6" height="38" width="38"
                fill="#f2f5e9" fill-opacity="0.5" stroke="#606060" stroke-width="1.0"/>
           <path id="arrow"
             d="M 11.500037,31.436501 C 11.940474,20.09759 22.043105,11.32322 32.158766,21.979434 L 37.068811,17.246167 C 37.068811,17.246167 37.088388,32 37.088388,32 L 22.160133,31.978069 C 22.160133,31.978069 26.997745,27.140456 26.997745,27.140456 C 18.528582,18.264221 13.291696,25.230495 11.500037,31.436501 z"
             style="fill:#404040;"/>
          </a>
         </g>
        </svg>
</svg>
