<?xml version="1.0" encoding="UTF-8" standalone="no"?>
<!DOCTYPE svg PUBLIC "-//W3C//DTD SVG 1.1//EN"
 "http://www.w3.org/Graphics/SVG/1.1/DTD/svg11.dtd">
<!-- Generated by graphviz version 2.38.0 (20140413.2041)
 -->
<!-- Title: artvision_instanton::PolishQuadraticRootNewton Pages: 1 -->
<svg width="288pt" height="39pt"
 viewBox="0.00 0.00 288.00 39.00" xmlns="http://www.w3.org/2000/svg" xmlns:xlink="http://www.w3.org/1999/xlink">
<g id="graph0" class="graph" transform="scale(1 1) rotate(0) translate(4 35)">
<title>artvision_instanton::PolishQuadraticRootNewton</title>
<polygon fill="white" stroke="none" points="-4,4 -4,-35 284,-35 284,4 -4,4"/>
<!-- Node1 -->
<g id="node1" class="node"><title>Node1</title>
<polygon fill="#bfbfbf" stroke="black" points="0,-0.5 0,-30.5 146,-30.5 146,-0.5 0,-0.5"/>
<text text-anchor="start" x="8" y="-18.5" font-family="Helvetica,sans-Serif" font-size="10.00">artvision_instanton</text>
<text text-anchor="middle" x="73" y="-7.5" font-family="Helvetica,sans-Serif" font-size="10.00">::PolishQuadraticRootNewton</text>
</g>
<!-- Node2 -->
<g id="node2" class="node"><title>Node2</title>
<g id="a_node2"><a xlink:href="namespaceartvision__instanton.html#a96b35aad9ab9789d9dc094be8fc66f35" target="_top" xlink:title="Evaluate a quatratic function. ">
<polygon fill="white" stroke="black" points="182,-0.5 182,-30.5 280,-30.5 280,-0.5 182,-0.5"/>
<text text-anchor="start" x="190" y="-18.5" font-family="Helvetica,sans-Serif" font-size="10.00">artvision_instanton</text>
<text text-anchor="middle" x="231" y="-7.5" font-family="Helvetica,sans-Serif" font-size="10.00">::QuadraticEval</text>
</a>
</g>
</g>
<!-- Node1&#45;&gt;Node2 -->
<g id="edge1" class="edge"><title>Node1&#45;&gt;Node2</title>
<path fill="none" stroke="midnightblue" d="M146.064,-15.5C154.691,-15.5 163.415,-15.5 171.812,-15.5"/>
<polygon fill="midnightblue" stroke="midnightblue" points="171.862,-19.0001 181.862,-15.5 171.862,-12.0001 171.862,-19.0001"/>
</g>
</g>
</svg>
