<?xml version="1.0" encoding="UTF-8" standalone="no"?>
<!DOCTYPE svg PUBLIC "-//W3C//DTD SVG 1.1//EN"
 "http://www.w3.org/Graphics/SVG/1.1/DTD/svg11.dtd">
<!-- Generated by graphviz version 2.38.0 (20140413.2041)
 -->
<!-- Title: artvision_instanton::trackTemplateTranslation Pages: 1 -->
<svg width="702pt" height="127pt"
 viewBox="0.00 0.00 702.00 126.50" xmlns="http://www.w3.org/2000/svg" xmlns:xlink="http://www.w3.org/1999/xlink">
<g id="graph0" class="graph" transform="scale(1 1) rotate(0) translate(4 122.5)">
<title>artvision_instanton::trackTemplateTranslation</title>
<polygon fill="white" stroke="none" points="-4,4 -4,-122.5 698,-122.5 698,4 -4,4"/>
<!-- Node1 -->
<g id="node1" class="node"><title>Node1</title>
<polygon fill="#bfbfbf" stroke="black" points="0,-39 0,-69 133,-69 133,-39 0,-39"/>
<text text-anchor="start" x="8" y="-57" font-family="Helvetica,sans-Serif" font-size="10.00">artvision_instanton</text>
<text text-anchor="middle" x="66.5" y="-46" font-family="Helvetica,sans-Serif" font-size="10.00">::trackTemplateTranslation</text>
</g>
<!-- Node2 -->
<g id="node2" class="node"><title>Node2</title>
<g id="a_node2"><a xlink:href="namespaceartvision__instanton.html#ae7ddea6e66a6048556b4f1e119603636" target="_top" xlink:title="artvision_instanton\l::CopyVector9">
<polygon fill="white" stroke="black" points="181.5,-88 181.5,-118 279.5,-118 279.5,-88 181.5,-88"/>
<text text-anchor="start" x="189.5" y="-106" font-family="Helvetica,sans-Serif" font-size="10.00">artvision_instanton</text>
<text text-anchor="middle" x="230.5" y="-95" font-family="Helvetica,sans-Serif" font-size="10.00">::CopyVector9</text>
</a>
</g>
</g>
<!-- Node1&#45;&gt;Node2 -->
<g id="edge1" class="edge"><title>Node1&#45;&gt;Node2</title>
<path fill="none" stroke="midnightblue" d="M117.427,-69.1014C134.606,-74.2975 153.982,-80.1583 171.733,-85.5272"/>
<polygon fill="midnightblue" stroke="midnightblue" points="170.818,-88.9069 181.403,-88.452 172.844,-82.2067 170.818,-88.9069"/>
</g>
<!-- Node3 -->
<g id="node3" class="node"><title>Node3</title>
<g id="a_node3"><a xlink:href="namespaceartvision__instanton.html#a5ccce86998d4f12adf7801ea0d2700ef" target="_top" xlink:title="Solve a 2x2 linear system. ">
<polygon fill="white" stroke="black" points="169,-39 169,-69 292,-69 292,-39 169,-39"/>
<text text-anchor="start" x="177" y="-57" font-family="Helvetica,sans-Serif" font-size="10.00">artvision_instanton</text>
<text text-anchor="middle" x="230.5" y="-46" font-family="Helvetica,sans-Serif" font-size="10.00">::SolveLinearSystem2x2</text>
</a>
</g>
</g>
<!-- Node1&#45;&gt;Node3 -->
<g id="edge2" class="edge"><title>Node1&#45;&gt;Node3</title>
<path fill="none" stroke="midnightblue" d="M133.392,-54C141.737,-54 150.304,-54 158.721,-54"/>
<polygon fill="midnightblue" stroke="midnightblue" points="158.889,-57.5001 168.889,-54 158.889,-50.5001 158.889,-57.5001"/>
</g>
<!-- Node8 -->
<g id="node8" class="node"><title>Node8</title>
<g id="a_node8"><a xlink:href="namespaceartvision__instanton.html#aaf2781e37f3d7d4e78dd2c872d0799b6" target="_top" xlink:title="artvision_instanton::sqr">
<polygon fill="white" stroke="black" points="171.5,-0.5 171.5,-19.5 289.5,-19.5 289.5,-0.5 171.5,-0.5"/>
<text text-anchor="middle" x="230.5" y="-7.5" font-family="Helvetica,sans-Serif" font-size="10.00">artvision_instanton::sqr</text>
</a>
</g>
</g>
<!-- Node1&#45;&gt;Node8 -->
<g id="edge7" class="edge"><title>Node1&#45;&gt;Node8</title>
<path fill="none" stroke="midnightblue" d="M122.798,-38.9808C142.936,-33.5112 165.439,-27.3993 184.569,-22.2036"/>
<polygon fill="midnightblue" stroke="midnightblue" points="185.502,-25.5771 194.235,-19.5783 183.667,-18.8218 185.502,-25.5771"/>
</g>
<!-- Node4 -->
<g id="node4" class="node"><title>Node4</title>
<g id="a_node4"><a xlink:href="namespaceartvision__instanton.html#a4d3b09060d8477d50f766af30968b941" target="_top" xlink:title="Compute the inverse of a 2x2 matrix. ">
<polygon fill="white" stroke="black" points="328,-64 328,-94 426,-94 426,-64 328,-64"/>
<text text-anchor="start" x="336" y="-82" font-family="Helvetica,sans-Serif" font-size="10.00">artvision_instanton</text>
<text text-anchor="middle" x="377" y="-71" font-family="Helvetica,sans-Serif" font-size="10.00">::MatrixInverse2x2</text>
</a>
</g>
</g>
<!-- Node3&#45;&gt;Node4 -->
<g id="edge3" class="edge"><title>Node3&#45;&gt;Node4</title>
<path fill="none" stroke="midnightblue" d="M292.362,-64.5298C300.807,-65.9908 309.464,-67.4886 317.857,-68.9407"/>
<polygon fill="midnightblue" stroke="midnightblue" points="317.482,-72.4277 327.932,-70.6838 318.675,-65.5302 317.482,-72.4277"/>
</g>
<!-- Node7 -->
<g id="node7" class="node"><title>Node7</title>
<g id="a_node7"><a xlink:href="namespaceartvision__instanton.html#a6bde8cd1dfa63f4eaf095ea673e3da1e" target="_top" xlink:title="y = A*x where A is a 2x2 and x is a 2x1. ">
<polygon fill="white" stroke="black" points="328,-15 328,-45 426,-45 426,-15 328,-15"/>
<text text-anchor="start" x="336" y="-33" font-family="Helvetica,sans-Serif" font-size="10.00">artvision_instanton</text>
<text text-anchor="middle" x="377" y="-22" font-family="Helvetica,sans-Serif" font-size="10.00">::Multiply_2x2_2x1</text>
</a>
</g>
</g>
<!-- Node3&#45;&gt;Node7 -->
<g id="edge6" class="edge"><title>Node3&#45;&gt;Node7</title>
<path fill="none" stroke="midnightblue" d="M292.362,-43.8914C300.807,-42.4888 309.464,-41.0509 317.857,-39.6569"/>
<polygon fill="midnightblue" stroke="midnightblue" points="318.641,-43.0748 327.932,-37.9836 317.494,-36.1694 318.641,-43.0748"/>
</g>
<!-- Node5 -->
<g id="node5" class="node"><title>Node5</title>
<g id="a_node5"><a xlink:href="namespaceartvision__instanton.html#a435aede11734cf5615ef1d0c406b5a36" target="_top" xlink:title="Compute the determinant of a 2x2 matrix. ">
<polygon fill="white" stroke="black" points="462,-64 462,-94 560,-94 560,-64 462,-64"/>
<text text-anchor="start" x="470" y="-82" font-family="Helvetica,sans-Serif" font-size="10.00">artvision_instanton</text>
<text text-anchor="middle" x="511" y="-71" font-family="Helvetica,sans-Serif" font-size="10.00">::Determinant2x2</text>
</a>
</g>
</g>
<!-- Node4&#45;&gt;Node5 -->
<g id="edge4" class="edge"><title>Node4&#45;&gt;Node5</title>
<path fill="none" stroke="midnightblue" d="M426.028,-79C434.309,-79 442.997,-79 451.517,-79"/>
<polygon fill="midnightblue" stroke="midnightblue" points="451.786,-82.5001 461.786,-79 451.786,-75.5001 451.786,-82.5001"/>
</g>
<!-- Node6 -->
<g id="node6" class="node"><title>Node6</title>
<g id="a_node6"><a xlink:href="namespaceartvision__instanton.html#abff23e96b142933b36f258f57fa6fd84" target="_top" xlink:title="Computes the cofactor of a 2x2 matrix. ">
<polygon fill="white" stroke="black" points="596,-64 596,-94 694,-94 694,-64 596,-64"/>
<text text-anchor="start" x="604" y="-82" font-family="Helvetica,sans-Serif" font-size="10.00">artvision_instanton</text>
<text text-anchor="middle" x="645" y="-71" font-family="Helvetica,sans-Serif" font-size="10.00">::Cofactor2x2</text>
</a>
</g>
</g>
<!-- Node5&#45;&gt;Node6 -->
<g id="edge5" class="edge"><title>Node5&#45;&gt;Node6</title>
<path fill="none" stroke="midnightblue" d="M560.028,-79C568.309,-79 576.997,-79 585.517,-79"/>
<polygon fill="midnightblue" stroke="midnightblue" points="585.786,-82.5001 595.786,-79 585.786,-75.5001 585.786,-82.5001"/>
</g>
</g>
</svg>
