<?xml version="1.0" encoding="UTF-8" standalone="no"?>
<!DOCTYPE svg PUBLIC "-//W3C//DTD SVG 1.1//EN"
 "http://www.w3.org/Graphics/SVG/1.1/DTD/svg11.dtd">
<!-- Generated by graphviz version 2.38.0 (20140413.2041)
 -->
<!-- Title: artvision_instanton::Cholesky_Blocked Pages: 1 -->
<svg width="650pt" height="284pt"
 viewBox="0.00 0.00 650.00 284.00" xmlns="http://www.w3.org/2000/svg" xmlns:xlink="http://www.w3.org/1999/xlink">
<g id="graph0" class="graph" transform="scale(1 1) rotate(0) translate(4 280)">
<title>artvision_instanton::Cholesky_Blocked</title>
<polygon fill="white" stroke="none" points="-4,4 -4,-280 646,-280 646,4 -4,4"/>
<!-- Node1 -->
<g id="node1" class="node"><title>Node1</title>
<polygon fill="#bfbfbf" stroke="black" points="0,-130.5 0,-160.5 104,-160.5 104,-130.5 0,-130.5"/>
<text text-anchor="start" x="8" y="-148.5" font-family="Helvetica,sans-Serif" font-size="10.00">artvision_instanton</text>
<text text-anchor="middle" x="52" y="-137.5" font-family="Helvetica,sans-Serif" font-size="10.00">::Cholesky_Blocked</text>
</g>
<!-- Node2 -->
<g id="node2" class="node"><title>Node2</title>
<g id="a_node2"><a xlink:href="namespaceartvision__instanton.html#ab9315ffc0deb1778a96efd125d8a270c" target="_top" xlink:title="artvision_instanton\l::LoadSquareBlockFromMatrix">
<polygon fill="white" stroke="black" points="155.5,-245.5 155.5,-275.5 304.5,-275.5 304.5,-245.5 155.5,-245.5"/>
<text text-anchor="start" x="163.5" y="-263.5" font-family="Helvetica,sans-Serif" font-size="10.00">artvision_instanton</text>
<text text-anchor="middle" x="230" y="-252.5" font-family="Helvetica,sans-Serif" font-size="10.00">::LoadSquareBlockFromMatrix</text>
</a>
</g>
</g>
<!-- Node1&#45;&gt;Node2 -->
<g id="edge1" class="edge"><title>Node1&#45;&gt;Node2</title>
<path fill="none" stroke="midnightblue" d="M64.9491,-160.823C80.3998,-179.683 109.026,-211.533 140,-230.5 146.92,-234.738 154.513,-238.461 162.256,-241.711"/>
<polygon fill="midnightblue" stroke="midnightblue" points="161.152,-245.038 171.739,-245.442 163.715,-238.524 161.152,-245.038"/>
</g>
<!-- Node3 -->
<g id="node3" class="node"><title>Node3</title>
<g id="a_node3"><a xlink:href="namespaceartvision__instanton.html#a085559744c33fd695be6b5b227228be3" target="_top" xlink:title="Compute the Cholesky decomposition of the square matrix A. ">
<polygon fill="white" stroke="black" points="383,-190.5 383,-220.5 481,-220.5 481,-190.5 383,-190.5"/>
<text text-anchor="start" x="391" y="-208.5" font-family="Helvetica,sans-Serif" font-size="10.00">artvision_instanton</text>
<text text-anchor="middle" x="432" y="-197.5" font-family="Helvetica,sans-Serif" font-size="10.00">::Cholesky</text>
</a>
</g>
</g>
<!-- Node1&#45;&gt;Node3 -->
<g id="edge2" class="edge"><title>Node1&#45;&gt;Node3</title>
<path fill="none" stroke="midnightblue" d="M71.6934,-160.574C88.4625,-173.097 114.318,-190.029 140,-197.5 218.215,-220.254 313.292,-217.528 372.994,-212.386"/>
<polygon fill="midnightblue" stroke="midnightblue" points="373.35,-215.868 382.991,-211.474 372.714,-208.897 373.35,-215.868"/>
</g>
<!-- Node5 -->
<g id="node5" class="node"><title>Node5</title>
<g id="a_node5"><a xlink:href="namespaceartvision__instanton.html#a8a379d7e96d94b612a75cd273cf270fb" target="_top" xlink:title="artvision_instanton\l::LoadBlockToMatrix">
<polygon fill="white" stroke="black" points="176.5,-157.5 176.5,-187.5 283.5,-187.5 283.5,-157.5 176.5,-157.5"/>
<text text-anchor="start" x="184.5" y="-175.5" font-family="Helvetica,sans-Serif" font-size="10.00">artvision_instanton</text>
<text text-anchor="middle" x="230" y="-164.5" font-family="Helvetica,sans-Serif" font-size="10.00">::LoadBlockToMatrix</text>
</a>
</g>
</g>
<!-- Node1&#45;&gt;Node5 -->
<g id="edge4" class="edge"><title>Node1&#45;&gt;Node5</title>
<path fill="none" stroke="midnightblue" d="M104.38,-153.382C123.736,-156.351 145.968,-159.762 166.247,-162.873"/>
<polygon fill="midnightblue" stroke="midnightblue" points="165.92,-166.364 176.335,-164.421 166.981,-159.445 165.92,-166.364"/>
</g>
<!-- Node6 -->
<g id="node6" class="node"><title>Node6</title>
<g id="a_node6"><a xlink:href="namespaceartvision__instanton.html#abce58d0557efdffefce7f644e332ba22" target="_top" xlink:title="Solve the system A*x=b where A is a square left triangular matrix. ">
<polygon fill="white" stroke="black" points="163,-98 163,-139 297,-139 297,-98 163,-98"/>
<text text-anchor="start" x="171" y="-127" font-family="Helvetica,sans-Serif" font-size="10.00">artvision_instanton</text>
<text text-anchor="start" x="171" y="-116" font-family="Helvetica,sans-Serif" font-size="10.00">::InvertLeftTriangularMatrix</text>
<text text-anchor="middle" x="230" y="-105" font-family="Helvetica,sans-Serif" font-size="10.00">Transpose</text>
</a>
</g>
</g>
<!-- Node1&#45;&gt;Node6 -->
<g id="edge5" class="edge"><title>Node1&#45;&gt;Node6</title>
<path fill="none" stroke="midnightblue" d="M104.38,-137.618C119.504,-135.298 136.385,-132.708 152.717,-130.202"/>
<polygon fill="midnightblue" stroke="midnightblue" points="153.441,-133.632 162.795,-128.656 152.38,-126.713 153.441,-133.632"/>
</g>
<!-- Node8 -->
<g id="node8" class="node"><title>Node8</title>
<g id="a_node8"><a xlink:href="namespaceartvision__instanton.html#aacd695c7bcdd6f82699a2c8bfcd9a926" target="_top" xlink:title="General matrix multiplication. ">
<polygon fill="white" stroke="black" points="181,-49.5 181,-79.5 279,-79.5 279,-49.5 181,-49.5"/>
<text text-anchor="start" x="189" y="-67.5" font-family="Helvetica,sans-Serif" font-size="10.00">artvision_instanton</text>
<text text-anchor="middle" x="230" y="-56.5" font-family="Helvetica,sans-Serif" font-size="10.00">::Multiply</text>
</a>
</g>
</g>
<!-- Node1&#45;&gt;Node8 -->
<g id="edge8" class="edge"><title>Node1&#45;&gt;Node8</title>
<path fill="none" stroke="midnightblue" d="M72.01,-130.484C88.9821,-117.723 114.958,-99.7344 140,-88.5 149.838,-84.0867 160.662,-80.334 171.272,-77.2"/>
<polygon fill="midnightblue" stroke="midnightblue" points="172.237,-80.5643 180.921,-74.4944 170.347,-73.8243 172.237,-80.5643"/>
</g>
<!-- Node9 -->
<g id="node9" class="node"><title>Node9</title>
<g id="a_node9"><a xlink:href="namespaceartvision__instanton.html#a5755ee3e7f0176b29ffe42fb303e4be0" target="_top" xlink:title="Multiply A by B&#39;. ">
<polygon fill="white" stroke="black" points="140,-0.5 140,-30.5 320,-30.5 320,-0.5 140,-0.5"/>
<text text-anchor="start" x="148" y="-18.5" font-family="Helvetica,sans-Serif" font-size="10.00">artvision_instanton</text>
<text text-anchor="middle" x="230" y="-7.5" font-family="Helvetica,sans-Serif" font-size="10.00">::MultiplyTransposeMinusAccumulate</text>
</a>
</g>
</g>
<!-- Node1&#45;&gt;Node9 -->
<g id="edge9" class="edge"><title>Node1&#45;&gt;Node9</title>
<path fill="none" stroke="midnightblue" d="M61.5501,-130.138C75.1423,-107.145 103.874,-63.9807 140,-40.5 143.145,-38.4555 146.459,-36.5759 149.882,-34.8482"/>
<polygon fill="midnightblue" stroke="midnightblue" points="151.515,-37.9505 159.165,-30.6206 148.614,-31.5801 151.515,-37.9505"/>
</g>
<!-- Node4 -->
<g id="node4" class="node"><title>Node4</title>
<g id="a_node4"><a xlink:href="namespaceartvision__instanton.html#a48cba394ed7537d523c64e4bf7b8d481" target="_top" xlink:title="Compute the dot product. ">
<polygon fill="white" stroke="black" points="544,-157.5 544,-187.5 642,-187.5 642,-157.5 544,-157.5"/>
<text text-anchor="start" x="552" y="-175.5" font-family="Helvetica,sans-Serif" font-size="10.00">artvision_instanton</text>
<text text-anchor="middle" x="593" y="-164.5" font-family="Helvetica,sans-Serif" font-size="10.00">::DotProduct</text>
</a>
</g>
</g>
<!-- Node3&#45;&gt;Node4 -->
<g id="edge3" class="edge"><title>Node3&#45;&gt;Node4</title>
<path fill="none" stroke="midnightblue" d="M481.137,-195.509C497.717,-192.068 516.465,-188.177 533.763,-184.587"/>
<polygon fill="midnightblue" stroke="midnightblue" points="534.673,-187.973 543.753,-182.514 533.25,-181.119 534.673,-187.973"/>
</g>
<!-- Node7 -->
<g id="node7" class="node"><title>Node7</title>
<g id="a_node7"><a xlink:href="namespaceartvision__instanton.html#a7705de57a38cb4d19b4c376813b0ddfe" target="_top" xlink:title="Solve the system A*x=b where A is a square left triangular matrix and b is a standard basis vector of...">
<polygon fill="white" stroke="black" points="356,-120 356,-161 508,-161 508,-120 356,-120"/>
<text text-anchor="start" x="364" y="-149" font-family="Helvetica,sans-Serif" font-size="10.00">artvision_instanton</text>
<text text-anchor="start" x="364" y="-138" font-family="Helvetica,sans-Serif" font-size="10.00">::SolveLeftTriangularSystemfor</text>
<text text-anchor="middle" x="432" y="-127" font-family="Helvetica,sans-Serif" font-size="10.00">StandardBasisVector</text>
</a>
</g>
</g>
<!-- Node6&#45;&gt;Node7 -->
<g id="edge6" class="edge"><title>Node6&#45;&gt;Node7</title>
<path fill="none" stroke="midnightblue" d="M297.042,-125.765C312.589,-127.475 329.378,-129.322 345.64,-131.11"/>
<polygon fill="midnightblue" stroke="midnightblue" points="345.359,-134.6 355.681,-132.215 346.124,-127.642 345.359,-134.6"/>
</g>
<!-- Node7&#45;&gt;Node4 -->
<g id="edge7" class="edge"><title>Node7&#45;&gt;Node4</title>
<path fill="none" stroke="midnightblue" d="M508.309,-155.657C516.869,-157.379 525.494,-159.115 533.785,-160.784"/>
<polygon fill="midnightblue" stroke="midnightblue" points="533.212,-164.239 543.706,-162.781 534.593,-157.376 533.212,-164.239"/>
</g>
</g>
</svg>
