<?xml version="1.0" encoding="UTF-8" standalone="no"?>
<!DOCTYPE svg PUBLIC "-//W3C//DTD SVG 1.1//EN"
 "http://www.w3.org/Graphics/SVG/1.1/DTD/svg11.dtd">
<!-- Generated by graphviz version 2.38.0 (20140413.2041)
 -->
<!-- Title: artvision_instanton::bilinear_interpolation Pages: 1 -->
<svg width="253pt" height="186pt"
 viewBox="0.00 0.00 253.00 186.00" xmlns="http://www.w3.org/2000/svg" xmlns:xlink="http://www.w3.org/1999/xlink">
<g id="graph0" class="graph" transform="scale(1 1) rotate(0) translate(4 182)">
<title>artvision_instanton::bilinear_interpolation</title>
<polygon fill="white" stroke="none" points="-4,4 -4,-182 249,-182 249,4 -4,4"/>
<!-- Node1 -->
<g id="node1" class="node"><title>Node1</title>
<polygon fill="#bfbfbf" stroke="black" points="0,-73.5 0,-103.5 111,-103.5 111,-73.5 0,-73.5"/>
<text text-anchor="start" x="8" y="-91.5" font-family="Helvetica,sans-Serif" font-size="10.00">artvision_instanton</text>
<text text-anchor="middle" x="55.5" y="-80.5" font-family="Helvetica,sans-Serif" font-size="10.00">::bilinear_interpolation</text>
</g>
<!-- Node2 -->
<g id="node2" class="node"><title>Node2</title>
<g id="a_node2"><a xlink:href="classartvision__instanton_1_1_image.html#aa2721566b360cd4862e5b061e0a1a8ab" target="_top" xlink:title="Get a pointer to the image data. ">
<polygon fill="white" stroke="black" points="147,-147.5 147,-177.5 245,-177.5 245,-147.5 147,-147.5"/>
<text text-anchor="start" x="155" y="-165.5" font-family="Helvetica,sans-Serif" font-size="10.00">artvision_instanton</text>
<text text-anchor="middle" x="196" y="-154.5" font-family="Helvetica,sans-Serif" font-size="10.00">::Image::get</text>
</a>
</g>
</g>
<!-- Node1&#45;&gt;Node2 -->
<g id="edge1" class="edge"><title>Node1&#45;&gt;Node2</title>
<path fill="none" stroke="midnightblue" d="M83.271,-103.668C101.203,-113.735 125.394,-127.136 147,-138.5 149.716,-139.929 152.528,-141.387 155.366,-142.843"/>
<polygon fill="midnightblue" stroke="midnightblue" points="153.933,-146.041 164.433,-147.452 157.104,-139.801 153.933,-146.041"/>
</g>
<!-- Node3 -->
<g id="node3" class="node"><title>Node3</title>
<g id="a_node3"><a xlink:href="classartvision__instanton_1_1_image.html#a26334124ea185241a9af99e03bdd6385" target="_top" xlink:title="Get the dimensions of the image. ">
<polygon fill="white" stroke="black" points="147,-98.5 147,-128.5 245,-128.5 245,-98.5 147,-98.5"/>
<text text-anchor="start" x="155" y="-116.5" font-family="Helvetica,sans-Serif" font-size="10.00">artvision_instanton</text>
<text text-anchor="middle" x="196" y="-105.5" font-family="Helvetica,sans-Serif" font-size="10.00">::Image::width</text>
</a>
</g>
</g>
<!-- Node1&#45;&gt;Node3 -->
<g id="edge2" class="edge"><title>Node1&#45;&gt;Node3</title>
<path fill="none" stroke="midnightblue" d="M111.239,-98.3807C119.717,-99.911 128.499,-101.496 137.044,-103.039"/>
<polygon fill="midnightblue" stroke="midnightblue" points="136.473,-106.492 146.936,-104.824 137.717,-99.6034 136.473,-106.492"/>
</g>
<!-- Node4 -->
<g id="node4" class="node"><title>Node4</title>
<g id="a_node4"><a xlink:href="classartvision__instanton_1_1_image.html#a8fe378f1d9a2fbeb89112b9c9600bdd6" target="_top" xlink:title="artvision_instanton\l::Image::height">
<polygon fill="white" stroke="black" points="147,-49.5 147,-79.5 245,-79.5 245,-49.5 147,-49.5"/>
<text text-anchor="start" x="155" y="-67.5" font-family="Helvetica,sans-Serif" font-size="10.00">artvision_instanton</text>
<text text-anchor="middle" x="196" y="-56.5" font-family="Helvetica,sans-Serif" font-size="10.00">::Image::height</text>
</a>
</g>
</g>
<!-- Node1&#45;&gt;Node4 -->
<g id="edge3" class="edge"><title>Node1&#45;&gt;Node4</title>
<path fill="none" stroke="midnightblue" d="M111.239,-79.0146C119.717,-77.5455 128.499,-76.0237 137.044,-74.5428"/>
<polygon fill="midnightblue" stroke="midnightblue" points="137.68,-77.9849 146.936,-72.8288 136.485,-71.0877 137.68,-77.9849"/>
</g>
<!-- Node5 -->
<g id="node5" class="node"><title>Node5</title>
<g id="a_node5"><a xlink:href="classartvision__instanton_1_1_image.html#abfe6de817ab2c75f289b7f679c3a1e54" target="_top" xlink:title="artvision_instanton\l::Image::step">
<polygon fill="white" stroke="black" points="147,-0.5 147,-30.5 245,-30.5 245,-0.5 147,-0.5"/>
<text text-anchor="start" x="155" y="-18.5" font-family="Helvetica,sans-Serif" font-size="10.00">artvision_instanton</text>
<text text-anchor="middle" x="196" y="-7.5" font-family="Helvetica,sans-Serif" font-size="10.00">::Image::step</text>
</a>
</g>
</g>
<!-- Node1&#45;&gt;Node5 -->
<g id="edge4" class="edge"><title>Node1&#45;&gt;Node5</title>
<path fill="none" stroke="midnightblue" d="M85.003,-73.3124C102.808,-63.8427 126.219,-51.4223 147,-40.5 150.27,-38.7815 153.667,-37.0012 157.076,-35.2187"/>
<polygon fill="midnightblue" stroke="midnightblue" points="158.801,-38.2664 166.046,-30.5359 155.561,-32.0612 158.801,-38.2664"/>
</g>
</g>
</svg>
