<?xml version="1.0" encoding="UTF-8" standalone="no"?>
<!DOCTYPE svg PUBLIC "-//W3C//DTD SVG 1.1//EN"
 "http://www.w3.org/Graphics/SVG/1.1/DTD/svg11.dtd">
<!-- Generated by graphviz version 2.38.0 (20140413.2041)
 -->
<!-- Title: /bitrise/src/Source/AR6/InstantOn/include/AR6/InstantOn/cv/trackers/ncc.h Pages: 1 -->
<svg width="195pt" height="184pt"
 viewBox="0.00 0.00 194.50 184.00" xmlns="http://www.w3.org/2000/svg" xmlns:xlink="http://www.w3.org/1999/xlink">
<g id="graph0" class="graph" transform="scale(1 1) rotate(0) translate(4 180)">
<title>/bitrise/src/Source/AR6/InstantOn/include/AR6/InstantOn/cv/trackers/ncc.h</title>
<polygon fill="white" stroke="none" points="-4,4 -4,-180 190.5,-180 190.5,4 -4,4"/>
<!-- Node1 -->
<g id="node1" class="node"><title>Node1</title>
<polygon fill="#bfbfbf" stroke="black" points="12.5,-134.5 12.5,-175.5 176.5,-175.5 176.5,-134.5 12.5,-134.5"/>
<text text-anchor="start" x="20.5" y="-163.5" font-family="Helvetica,sans-Serif" font-size="10.00">/bitrise/src/Source</text>
<text text-anchor="start" x="20.5" y="-152.5" font-family="Helvetica,sans-Serif" font-size="10.00">/AR6/InstantOn/include</text>
<text text-anchor="middle" x="94.5" y="-141.5" font-family="Helvetica,sans-Serif" font-size="10.00">/AR6/InstantOn/cv/trackers/ncc.h</text>
</g>
<!-- Node2 -->
<g id="node2" class="node"><title>Node2</title>
<g id="a_node2"><a xlink:href="math__utils_8h.html" target="_top" xlink:title="AR6/InstantOn/math\l/math_utils.h">
<polygon fill="white" stroke="black" points="0,-67.5 0,-97.5 107,-97.5 107,-67.5 0,-67.5"/>
<text text-anchor="start" x="8" y="-85.5" font-family="Helvetica,sans-Serif" font-size="10.00">AR6/InstantOn/math</text>
<text text-anchor="middle" x="53.5" y="-74.5" font-family="Helvetica,sans-Serif" font-size="10.00">/math_utils.h</text>
</a>
</g>
</g>
<!-- Node1&#45;&gt;Node2 -->
<g id="edge1" class="edge"><title>Node1&#45;&gt;Node2</title>
<path fill="none" stroke="midnightblue" d="M83.0792,-134.362C78.0849,-125.774 72.1895,-115.637 66.9815,-106.682"/>
<polygon fill="midnightblue" stroke="midnightblue" points="69.9225,-104.776 61.8696,-97.8916 63.8713,-108.296 69.9225,-104.776"/>
</g>
<!-- Node4 -->
<g id="node4" class="node"><title>Node4</title>
<polygon fill="white" stroke="#bfbfbf" points="84.5,-0.5 84.5,-30.5 186.5,-30.5 186.5,-0.5 84.5,-0.5"/>
<text text-anchor="start" x="92.5" y="-18.5" font-family="Helvetica,sans-Serif" font-size="10.00">artvision/framework</text>
<text text-anchor="middle" x="135.5" y="-7.5" font-family="Helvetica,sans-Serif" font-size="10.00">/error.h</text>
</g>
<!-- Node1&#45;&gt;Node4 -->
<g id="edge4" class="edge"><title>Node1&#45;&gt;Node4</title>
<path fill="none" stroke="midnightblue" d="M102.46,-134.5C106.653,-123.824 111.699,-110.301 115.5,-98 121.393,-78.9311 126.706,-56.9325 130.372,-40.6001"/>
<polygon fill="midnightblue" stroke="midnightblue" points="133.804,-41.2919 132.534,-30.7735 126.967,-39.7882 133.804,-41.2919"/>
</g>
<!-- Node3 -->
<g id="node3" class="node"><title>Node3</title>
<polygon fill="white" stroke="#bfbfbf" points="22.5,-6 22.5,-25 66.5,-25 66.5,-6 22.5,-6"/>
<text text-anchor="middle" x="44.5" y="-13" font-family="Helvetica,sans-Serif" font-size="10.00">cmath</text>
</g>
<!-- Node2&#45;&gt;Node3 -->
<g id="edge2" class="edge"><title>Node2&#45;&gt;Node3</title>
<path fill="none" stroke="midnightblue" d="M51.5471,-67.396C50.2411,-57.9635 48.5082,-45.4484 47.0877,-35.1891"/>
<polygon fill="midnightblue" stroke="midnightblue" points="50.5424,-34.62 45.7039,-25.1945 43.6085,-35.5801 50.5424,-34.62"/>
</g>
<!-- Node2&#45;&gt;Node4 -->
<g id="edge3" class="edge"><title>Node2&#45;&gt;Node4</title>
<path fill="none" stroke="midnightblue" d="M71.2928,-67.396C82.5755,-58.4524 97.3543,-46.7375 109.889,-36.8018"/>
<polygon fill="midnightblue" stroke="midnightblue" points="112.08,-39.5313 117.742,-30.5765 107.731,-34.0457 112.08,-39.5313"/>
</g>
</g>
</svg>
