<?xml version="1.0" encoding="UTF-8" standalone="no"?>
<!DOCTYPE svg PUBLIC "-//W3C//DTD SVG 1.1//EN"
 "http://www.w3.org/Graphics/SVG/1.1/DTD/svg11.dtd">
<!-- Generated by graphviz version 2.38.0 (20140413.2041)
 -->
<!-- Title: /bitrise/src/Source/AR6/InstantOn/include/AR6/InstantOn/framework/object_pool.h Pages: 1 -->
<svg width="319pt" height="307pt"
 viewBox="0.00 0.00 318.50 307.00" xmlns="http://www.w3.org/2000/svg" xmlns:xlink="http://www.w3.org/1999/xlink">
<g id="graph0" class="graph" transform="scale(1 1) rotate(0) translate(4 303)">
<title>/bitrise/src/Source/AR6/InstantOn/include/AR6/InstantOn/framework/object_pool.h</title>
<polygon fill="white" stroke="none" points="-4,4 -4,-303 314.5,-303 314.5,4 -4,4"/>
<!-- Node1 -->
<g id="node1" class="node"><title>Node1</title>
<polygon fill="#bfbfbf" stroke="black" points="124.5,-246.5 124.5,-298.5 258.5,-298.5 258.5,-246.5 124.5,-246.5"/>
<text text-anchor="start" x="132.5" y="-286.5" font-family="Helvetica,sans-Serif" font-size="10.00">/bitrise/src/Source</text>
<text text-anchor="start" x="132.5" y="-275.5" font-family="Helvetica,sans-Serif" font-size="10.00">/AR6/InstantOn/include</text>
<text text-anchor="start" x="132.5" y="-264.5" font-family="Helvetica,sans-Serif" font-size="10.00">/AR6/InstantOn/framework</text>
<text text-anchor="middle" x="191.5" y="-253.5" font-family="Helvetica,sans-Serif" font-size="10.00">/object_pool.h</text>
</g>
<!-- Node2 -->
<g id="node2" class="node"><title>Node2</title>
<g id="a_node2"><a xlink:href="queue_8h.html" target="_top" xlink:title="queue.h">
<polygon fill="white" stroke="black" points="39,-129 39,-148 90,-148 90,-129 39,-129"/>
<text text-anchor="middle" x="64.5" y="-136" font-family="Helvetica,sans-Serif" font-size="10.00">queue.h</text>
</a>
</g>
</g>
<!-- Node1&#45;&gt;Node2 -->
<g id="edge1" class="edge"><title>Node1&#45;&gt;Node2</title>
<path fill="none" stroke="midnightblue" d="M124.169,-260.056C95.1537,-251.424 63.9354,-236.334 46.5,-210 35.8597,-193.929 44.2969,-171.972 52.8506,-156.853"/>
<polygon fill="midnightblue" stroke="midnightblue" points="56.018,-158.385 58.2891,-148.036 50.0602,-154.71 56.018,-158.385"/>
</g>
<!-- Node6 -->
<g id="node6" class="node"><title>Node6</title>
<polygon fill="white" stroke="#bfbfbf" points="208.5,-123.5 208.5,-153.5 310.5,-153.5 310.5,-123.5 208.5,-123.5"/>
<text text-anchor="start" x="216.5" y="-141.5" font-family="Helvetica,sans-Serif" font-size="10.00">artvision/framework</text>
<text text-anchor="middle" x="259.5" y="-130.5" font-family="Helvetica,sans-Serif" font-size="10.00">/error.h</text>
</g>
<!-- Node1&#45;&gt;Node6 -->
<g id="edge5" class="edge"><title>Node1&#45;&gt;Node6</title>
<path fill="none" stroke="midnightblue" d="M258.579,-249.716C276.647,-240.435 294.06,-227.569 304.5,-210 314.544,-193.099 301.375,-174.354 286.739,-160.444"/>
<polygon fill="midnightblue" stroke="midnightblue" points="288.872,-157.658 279.066,-153.646 284.23,-162.898 288.872,-157.658"/>
</g>
<!-- Node7 -->
<g id="node7" class="node"><title>Node7</title>
<polygon fill="white" stroke="#bfbfbf" points="165.5,-190.5 165.5,-209.5 217.5,-209.5 217.5,-190.5 165.5,-190.5"/>
<text text-anchor="middle" x="191.5" y="-197.5" font-family="Helvetica,sans-Serif" font-size="10.00">memory</text>
</g>
<!-- Node1&#45;&gt;Node7 -->
<g id="edge6" class="edge"><title>Node1&#45;&gt;Node7</title>
<path fill="none" stroke="midnightblue" d="M191.5,-246.446C191.5,-237.73 191.5,-228.104 191.5,-219.964"/>
<polygon fill="midnightblue" stroke="midnightblue" points="195,-219.695 191.5,-209.695 188,-219.696 195,-219.695"/>
</g>
<!-- Node8 -->
<g id="node8" class="node"><title>Node8</title>
<polygon fill="white" stroke="#bfbfbf" points="236,-190.5 236,-209.5 295,-209.5 295,-190.5 236,-190.5"/>
<text text-anchor="middle" x="265.5" y="-197.5" font-family="Helvetica,sans-Serif" font-size="10.00">functional</text>
</g>
<!-- Node1&#45;&gt;Node8 -->
<g id="edge7" class="edge"><title>Node1&#45;&gt;Node8</title>
<path fill="none" stroke="midnightblue" d="M217.798,-246.446C228.208,-236.528 239.855,-225.432 249.035,-216.687"/>
<polygon fill="midnightblue" stroke="midnightblue" points="251.547,-219.127 256.373,-209.695 246.718,-214.059 251.547,-219.127"/>
</g>
<!-- Node9 -->
<g id="node9" class="node"><title>Node9</title>
<g id="a_node9"><a xlink:href="lockfree__queue_8h.html" target="_top" xlink:title="lockfree_queue.h">
<polygon fill="white" stroke="black" points="56,-190.5 56,-209.5 147,-209.5 147,-190.5 56,-190.5"/>
<text text-anchor="middle" x="101.5" y="-197.5" font-family="Helvetica,sans-Serif" font-size="10.00">lockfree_queue.h</text>
</a>
</g>
</g>
<!-- Node1&#45;&gt;Node9 -->
<g id="edge8" class="edge"><title>Node1&#45;&gt;Node9</title>
<path fill="none" stroke="midnightblue" d="M159.516,-246.446C146.471,-236.227 131.83,-224.758 120.519,-215.898"/>
<polygon fill="midnightblue" stroke="midnightblue" points="122.631,-213.107 112.601,-209.695 118.315,-218.617 122.631,-213.107"/>
</g>
<!-- Node3 -->
<g id="node3" class="node"><title>Node3</title>
<polygon fill="white" stroke="#bfbfbf" points="0,-67.5 0,-86.5 43,-86.5 43,-67.5 0,-67.5"/>
<text text-anchor="middle" x="21.5" y="-74.5" font-family="Helvetica,sans-Serif" font-size="10.00">queue</text>
</g>
<!-- Node2&#45;&gt;Node3 -->
<g id="edge2" class="edge"><title>Node2&#45;&gt;Node3</title>
<path fill="none" stroke="midnightblue" d="M58.3391,-128.975C51.8891,-120.05 41.5959,-105.807 33.5274,-94.6425"/>
<polygon fill="midnightblue" stroke="midnightblue" points="36.3436,-92.564 27.6494,-86.5091 30.6701,-96.6642 36.3436,-92.564"/>
</g>
<!-- Node4 -->
<g id="node4" class="node"><title>Node4</title>
<g id="a_node4"><a xlink:href="synchronization_8h.html" target="_top" xlink:title="synchronization.h">
<polygon fill="white" stroke="black" points="61,-67.5 61,-86.5 154,-86.5 154,-67.5 61,-67.5"/>
<text text-anchor="middle" x="107.5" y="-74.5" font-family="Helvetica,sans-Serif" font-size="10.00">synchronization.h</text>
</a>
</g>
</g>
<!-- Node2&#45;&gt;Node4 -->
<g id="edge3" class="edge"><title>Node2&#45;&gt;Node4</title>
<path fill="none" stroke="midnightblue" d="M70.6609,-128.975C77.1109,-120.05 87.4041,-105.807 95.4726,-94.6425"/>
<polygon fill="midnightblue" stroke="midnightblue" points="98.3299,-96.6642 101.351,-86.5091 92.6564,-92.564 98.3299,-96.6642"/>
</g>
<!-- Node5 -->
<g id="node5" class="node"><title>Node5</title>
<polygon fill="white" stroke="#bfbfbf" points="56.5,-0.5 56.5,-30.5 158.5,-30.5 158.5,-0.5 56.5,-0.5"/>
<text text-anchor="start" x="64.5" y="-18.5" font-family="Helvetica,sans-Serif" font-size="10.00">artvision/framework</text>
<text text-anchor="middle" x="107.5" y="-7.5" font-family="Helvetica,sans-Serif" font-size="10.00">/exception.h</text>
</g>
<!-- Node4&#45;&gt;Node5 -->
<g id="edge4" class="edge"><title>Node4&#45;&gt;Node5</title>
<path fill="none" stroke="midnightblue" d="M107.5,-67.4751C107.5,-60.471 107.5,-50.1919 107.5,-40.6956"/>
<polygon fill="midnightblue" stroke="midnightblue" points="111,-40.5229 107.5,-30.523 104,-40.523 111,-40.5229"/>
</g>
<!-- Node9&#45;&gt;Node2 -->
<g id="edge10" class="edge"><title>Node9&#45;&gt;Node2</title>
<path fill="none" stroke="midnightblue" d="M96.1988,-190.475C90.7587,-181.727 82.1413,-167.869 75.2638,-156.809"/>
<polygon fill="midnightblue" stroke="midnightblue" points="78.0443,-154.653 69.7914,-148.009 72.0999,-158.349 78.0443,-154.653"/>
</g>
<!-- Node9&#45;&gt;Node6 -->
<g id="edge9" class="edge"><title>Node9&#45;&gt;Node6</title>
<path fill="none" stroke="midnightblue" d="M124.138,-190.475C147.136,-181.814 183.433,-168.145 212.654,-157.141"/>
<polygon fill="midnightblue" stroke="midnightblue" points="214.138,-160.323 222.263,-153.523 211.671,-153.772 214.138,-160.323"/>
</g>
</g>
</svg>
