<?xml version="1.0" encoding="UTF-8" standalone="no"?>
<!DOCTYPE svg PUBLIC "-//W3C//DTD SVG 1.1//EN"
 "http://www.w3.org/Graphics/SVG/1.1/DTD/svg11.dtd">
<!-- Generated by graphviz version 2.38.0 (20140413.2041)
 -->
<!-- Title: arParamGetPerspectiveMat Pages: 1 -->
<svg width="264pt" height="180pt"
 viewBox="0.00 0.00 264.00 180.00" xmlns="http://www.w3.org/2000/svg" xmlns:xlink="http://www.w3.org/1999/xlink">
<g id="graph0" class="graph" transform="scale(1 1) rotate(0) translate(4 176)">
<title>arParamGetPerspectiveMat</title>
<polygon fill="white" stroke="none" points="-4,4 -4,-176 260,-176 260,4 -4,4"/>
<!-- Node1 -->
<g id="node1" class="node"><title>Node1</title>
<polygon fill="#bfbfbf" stroke="black" points="0,-76.5 0,-95.5 137,-95.5 137,-76.5 0,-76.5"/>
<text text-anchor="middle" x="68.5" y="-83.5" font-family="Helvetica,sans-Serif" font-size="10.00">arParamGetPerspectiveMat</text>
</g>
<!-- Node2 -->
<g id="node2" class="node"><title>Node2</title>
<g id="a_node2"><a xlink:href="_a_r_2include_2_a_r6_2_a_r_2matrix_8h.html#a7169e4124d09fcbe1b8730ade678d64d" target="_top" xlink:title="arMatrixAlloc">
<polygon fill="white" stroke="black" points="177.5,-152.5 177.5,-171.5 251.5,-171.5 251.5,-152.5 177.5,-152.5"/>
<text text-anchor="middle" x="214.5" y="-159.5" font-family="Helvetica,sans-Serif" font-size="10.00">arMatrixAlloc</text>
</a>
</g>
</g>
<!-- Node1&#45;&gt;Node2 -->
<g id="edge1" class="edge"><title>Node1&#45;&gt;Node2</title>
<path fill="none" stroke="midnightblue" d="M86.1725,-95.6182C106.48,-107.232 141.925,-127.175 173,-143 176.309,-144.685 179.795,-146.404 183.276,-148.084"/>
<polygon fill="midnightblue" stroke="midnightblue" points="181.82,-151.267 192.354,-152.395 184.822,-144.944 181.82,-151.267"/>
</g>
<!-- Node3 -->
<g id="node3" class="node"><title>Node3</title>
<g id="a_node3"><a xlink:href="_a_r_2include_2_a_r6_2_a_r_2matrix_8h.html#ac4b7a714cce9fffda773d86363380454" target="_top" xlink:title="arMatrixFree">
<polygon fill="white" stroke="black" points="179,-114.5 179,-133.5 250,-133.5 250,-114.5 179,-114.5"/>
<text text-anchor="middle" x="214.5" y="-121.5" font-family="Helvetica,sans-Serif" font-size="10.00">arMatrixFree</text>
</a>
</g>
</g>
<!-- Node1&#45;&gt;Node3 -->
<g id="edge2" class="edge"><title>Node1&#45;&gt;Node3</title>
<path fill="none" stroke="midnightblue" d="M105.837,-95.589C124.939,-100.63 148.522,-106.853 168.742,-112.189"/>
<polygon fill="midnightblue" stroke="midnightblue" points="168.103,-115.64 178.665,-114.807 169.889,-108.872 168.103,-115.64"/>
</g>
<!-- Node4 -->
<g id="node4" class="node"><title>Node4</title>
<g id="a_node4"><a xlink:href="_a_r_2include_2_a_r6_2_a_r_2matrix_8h.html#ad3d9712dd27f655902a8a3315e623d85" target="_top" xlink:title="arMatrixTrans">
<polygon fill="white" stroke="black" points="176,-76.5 176,-95.5 253,-95.5 253,-76.5 176,-76.5"/>
<text text-anchor="middle" x="214.5" y="-83.5" font-family="Helvetica,sans-Serif" font-size="10.00">arMatrixTrans</text>
</a>
</g>
</g>
<!-- Node1&#45;&gt;Node4 -->
<g id="edge3" class="edge"><title>Node1&#45;&gt;Node4</title>
<path fill="none" stroke="midnightblue" d="M137.283,-86C146.93,-86 156.677,-86 165.83,-86"/>
<polygon fill="midnightblue" stroke="midnightblue" points="165.874,-89.5001 175.874,-86 165.874,-82.5001 165.874,-89.5001"/>
</g>
<!-- Node5 -->
<g id="node5" class="node"><title>Node5</title>
<g id="a_node5"><a xlink:href="_a_r_2include_2_a_r6_2_a_r_2matrix_8h.html#a202bc2db43d563792c99e852ea0b7ba4" target="_top" xlink:title="arMatrixMul">
<polygon fill="white" stroke="black" points="180.5,-38.5 180.5,-57.5 248.5,-57.5 248.5,-38.5 180.5,-38.5"/>
<text text-anchor="middle" x="214.5" y="-45.5" font-family="Helvetica,sans-Serif" font-size="10.00">arMatrixMul</text>
</a>
</g>
</g>
<!-- Node1&#45;&gt;Node5 -->
<g id="edge4" class="edge"><title>Node1&#45;&gt;Node5</title>
<path fill="none" stroke="midnightblue" d="M105.837,-76.411C125.456,-71.2338 149.801,-64.8095 170.375,-59.3801"/>
<polygon fill="midnightblue" stroke="midnightblue" points="171.36,-62.7403 180.136,-56.8045 169.573,-55.972 171.36,-62.7403"/>
</g>
<!-- Node6 -->
<g id="node6" class="node"><title>Node6</title>
<g id="a_node6"><a xlink:href="_a_r_2include_2_a_r6_2_a_r_2matrix_8h.html#a929738025b539a0c1bbd2f395ad4d981" target="_top" xlink:title="arMatrixSelfInv">
<polygon fill="white" stroke="black" points="173,-0.5 173,-19.5 256,-19.5 256,-0.5 173,-0.5"/>
<text text-anchor="middle" x="214.5" y="-7.5" font-family="Helvetica,sans-Serif" font-size="10.00">arMatrixSelfInv</text>
</a>
</g>
</g>
<!-- Node1&#45;&gt;Node6 -->
<g id="edge5" class="edge"><title>Node1&#45;&gt;Node6</title>
<path fill="none" stroke="midnightblue" d="M86.1725,-76.3818C106.48,-64.7685 141.925,-44.8254 173,-29 176.309,-27.3149 179.795,-25.5964 183.276,-23.9159"/>
<polygon fill="midnightblue" stroke="midnightblue" points="184.822,-27.0561 192.354,-19.605 181.82,-20.7328 184.822,-27.0561"/>
</g>
</g>
</svg>
