<?xml version="1.0" encoding="UTF-8" standalone="no"?>
<!DOCTYPE svg PUBLIC "-//W3C//DTD SVG 1.1//EN"
 "http://www.w3.org/Graphics/SVG/1.1/DTD/svg11.dtd">
<!-- Generated by graphviz version 2.38.0 (20140413.2041)
 -->
<!-- Title: /bitrise/src/Source/AR6/AR/paramGetPerspective.c Pages: 1 -->
<!--zoomable 207 -->
<svg id="main" version="1.1" xmlns="http://www.w3.org/2000/svg" xmlns:xlink="http://www.w3.org/1999/xlink" xml:space="preserve" onload="init(evt)">
<style type="text/css"><![CDATA[
.edge:hover path { stroke: red; }
.edge:hover polygon { stroke: red; fill: red; }
]]></style>
<script type="text/javascript"><![CDATA[
var edges = document.getElementsByTagName('g');
if (edges && edges.length) {
  for (var i=0;i<edges.length;i++) {
    if (edges[i].id.substr(0,4)=='edge') {
      edges[i].setAttribute('class','edge');
    }
  }
}
]]></script>
        <defs>
                <circle id="rim" cx="0" cy="0" r="7"/>
                <circle id="rim2" cx="0" cy="0" r="3.5"/>
                <g id="zoomPlus">
                        <use xlink:href="#rim" fill="#404040">
                                <set attributeName="fill" to="#808080" begin="zoomplus.mouseover" end="zoomplus.mouseout"/>
                        </use>
                        <path d="M-4,0h8M0,-4v8" fill="none" stroke="white" stroke-width="1.5" pointer-events="none"/>
                </g>
                <g id="zoomMin">
                        <use xlink:href="#rim" fill="#404040">
                                <set attributeName="fill" to="#808080" begin="zoomminus.mouseover" end="zoomminus.mouseout"/>
                        </use>
                        <path d="M-4,0h8" fill="none" stroke="white" stroke-width="1.5" pointer-events="none"/>
                </g>
                <g id="dirArrow">
                        <path fill="none" stroke="white" stroke-width="1.5" d="M0,-3.0v7 M-2.5,-0.5L0,-3.0L2.5,-0.5"/>
                </g>
               <g id="resetDef">
                       <use xlink:href="#rim2" fill="#404040">
                               <set attributeName="fill" to="#808080" begin="reset.mouseover" end="reset.mouseout"/>
                       </use>
               </g>
        </defs>

<script type="text/javascript">
var viewWidth = 942;
var viewHeight = 207;
var sectionId = 'dynsection-0';
</script>
<script xlink:href="svgpan.js"/>
<svg id="graph" class="graph">
<g id="viewport">
<title>/bitrise/src/Source/AR6/AR/paramGetPerspective.c</title>
<polygon fill="white" stroke="none" points="-4,4 -4,-203 937.646,-203 937.646,4 -4,4"/>
<!-- Node1 -->
<g id="node1" class="node"><title>Node1</title>
<polygon fill="#bfbfbf" stroke="black" points="417.646,-168.5 417.646,-198.5 579.646,-198.5 579.646,-168.5 417.646,-168.5"/>
<text text-anchor="start" x="425.646" y="-186.5" font-family="Helvetica,sans-Serif" font-size="10.00">/bitrise/src/Source</text>
<text text-anchor="middle" x="498.646" y="-175.5" font-family="Helvetica,sans-Serif" font-size="10.00">/AR6/AR/paramGetPerspective.c</text>
</g>
<!-- Node2 -->
<g id="node2" class="node"><title>Node2</title>
<polygon fill="white" stroke="#bfbfbf" points="771.646,-0.5 771.646,-19.5 817.646,-19.5 817.646,-0.5 771.646,-0.5"/>
<text text-anchor="middle" x="794.646" y="-7.5" font-family="Helvetica,sans-Serif" font-size="10.00">stdio.h</text>
</g>
<!-- Node1&#45;&gt;Node2 -->
<g id="edge1" class="edge"><title>Node1&#45;&gt;Node2</title>
<path fill="none" stroke="midnightblue" d="M580.045,-173.133C688.017,-158.84 869.665,-127.662 909.646,-76 915.087,-68.9704 914.657,-63.3418 909.646,-56 904.731,-48.7985 859.628,-32.5791 827.395,-21.7102"/>
<polygon fill="midnightblue" stroke="midnightblue" points="828.458,-18.3751 817.864,-18.5248 826.239,-25.0141 828.458,-18.3751"/>
</g>
<!-- Node3 -->
<g id="node3" class="node"><title>Node3</title>
<polygon fill="white" stroke="#bfbfbf" points="0.146423,-0.5 0.146423,-19.5 47.1464,-19.5 47.1464,-0.5 0.146423,-0.5"/>
<text text-anchor="middle" x="23.6464" y="-7.5" font-family="Helvetica,sans-Serif" font-size="10.00">math.h</text>
</g>
<!-- Node1&#45;&gt;Node3 -->
<g id="edge2" class="edge"><title>Node1&#45;&gt;Node3</title>
<path fill="none" stroke="midnightblue" d="M417.399,-176.992C291.006,-166.543 56.4809,-138.989 5.64642,-76 -5.45334,-62.2464 2.79302,-42.1152 11.4312,-27.908"/>
<polygon fill="midnightblue" stroke="midnightblue" points="14.3604,-29.8237 16.9648,-19.5539 8.52458,-25.9581 14.3604,-29.8237"/>
</g>
<!-- Node4 -->
<g id="node4" class="node"><title>Node4</title>
<g id="a_node4"><a xlink:href="ar_8h.html" target="_top" xlink:title="ARToolKit core routines. ">
<polygon fill="white" stroke="black" points="462.146,-112.5 462.146,-131.5 535.146,-131.5 535.146,-112.5 462.146,-112.5"/>
<text text-anchor="middle" x="498.646" y="-119.5" font-family="Helvetica,sans-Serif" font-size="10.00">AR6/AR/ar.h</text>
</a>
</g>
</g>
<!-- Node1&#45;&gt;Node4 -->
<g id="edge3" class="edge"><title>Node1&#45;&gt;Node4</title>
<path fill="none" stroke="midnightblue" d="M498.646,-168.399C498.646,-160.466 498.646,-150.458 498.646,-141.858"/>
<polygon fill="midnightblue" stroke="midnightblue" points="502.147,-141.658 498.646,-131.658 495.147,-141.658 502.147,-141.658"/>
</g>
<!-- Node4&#45;&gt;Node2 -->
<g id="edge4" class="edge"><title>Node4&#45;&gt;Node2</title>
<path fill="none" stroke="midnightblue" d="M535.487,-118.306C597.749,-113.145 720.456,-100.171 755.646,-76 771.882,-64.848 782.465,-44.5177 788.454,-29.5534"/>
<polygon fill="midnightblue" stroke="midnightblue" points="791.869,-30.4072 792.019,-19.8134 785.295,-28.0012 791.869,-30.4072"/>
</g>
<!-- Node5 -->
<g id="node5" class="node"><title>Node5</title>
<polygon fill="white" stroke="#bfbfbf" points="703.646,-0.5 703.646,-19.5 751.646,-19.5 751.646,-0.5 703.646,-0.5"/>
<text text-anchor="middle" x="727.646" y="-7.5" font-family="Helvetica,sans-Serif" font-size="10.00">stdlib.h</text>
</g>
<!-- Node4&#45;&gt;Node5 -->
<g id="edge5" class="edge"><title>Node4&#45;&gt;Node5</title>
<path fill="none" stroke="midnightblue" d="M535.397,-119.603C595.915,-116.446 712.379,-106.469 737.646,-76 748.438,-62.9873 743.401,-43.2837 737.236,-28.9817"/>
<polygon fill="midnightblue" stroke="midnightblue" points="740.254,-27.1819 732.757,-19.6952 733.948,-30.2228 740.254,-27.1819"/>
</g>
<!-- Node6 -->
<g id="node6" class="node"><title>Node6</title>
<polygon fill="white" stroke="#bfbfbf" points="125.146,-56.5 125.146,-75.5 174.146,-75.5 174.146,-56.5 125.146,-56.5"/>
<text text-anchor="middle" x="149.646" y="-63.5" font-family="Helvetica,sans-Serif" font-size="10.00">stdint.h</text>
</g>
<!-- Node4&#45;&gt;Node6 -->
<g id="edge6" class="edge"><title>Node4&#45;&gt;Node6</title>
<path fill="none" stroke="midnightblue" d="M461.739,-116.645C403.478,-109.545 286.729,-94.4035 188.646,-76 187.195,-75.7277 185.716,-75.4386 184.224,-75.1373"/>
<polygon fill="midnightblue" stroke="midnightblue" points="184.85,-71.6922 174.339,-73.0225 183.386,-78.5373 184.85,-71.6922"/>
</g>
<!-- Node7 -->
<g id="node7" class="node"><title>Node7</title>
<polygon fill="white" stroke="#bfbfbf" points="475.146,-0.5 475.146,-19.5 524.146,-19.5 524.146,-0.5 475.146,-0.5"/>
<text text-anchor="middle" x="499.646" y="-7.5" font-family="Helvetica,sans-Serif" font-size="10.00">string.h</text>
</g>
<!-- Node4&#45;&gt;Node7 -->
<g id="edge7" class="edge"><title>Node4&#45;&gt;Node7</title>
<path fill="none" stroke="midnightblue" d="M498.725,-112.368C498.886,-94.617 499.259,-53.6664 499.477,-29.5974"/>
<polygon fill="midnightblue" stroke="midnightblue" points="502.977,-29.6229 499.568,-19.5914 495.977,-29.5592 502.977,-29.6229"/>
</g>
<!-- Node8 -->
<g id="node8" class="node"><title>Node8</title>
<polygon fill="white" stroke="#bfbfbf" points="201.146,-0.5 201.146,-19.5 292.146,-19.5 292.146,-0.5 201.146,-0.5"/>
<text text-anchor="middle" x="246.646" y="-7.5" font-family="Helvetica,sans-Serif" font-size="10.00">AR6/AR/config.h</text>
</g>
<!-- Node4&#45;&gt;Node8 -->
<g id="edge8" class="edge"><title>Node4&#45;&gt;Node8</title>
<path fill="none" stroke="midnightblue" d="M462.111,-120.672C394.08,-119.203 252.11,-111.811 221.646,-76 209.709,-61.9673 220.84,-41.6113 231.806,-27.4309"/>
<polygon fill="midnightblue" stroke="midnightblue" points="234.693,-29.4344 238.406,-19.5115 229.315,-24.9532 234.693,-29.4344"/>
</g>
<!-- Node9 -->
<g id="node9" class="node"><title>Node9</title>
<g id="a_node9"><a xlink:href="ar_config_8h.html" target="_top" xlink:title="AR6/AR/arConfig.h">
<polygon fill="white" stroke="black" points="369.146,-56.5 369.146,-75.5 470.146,-75.5 470.146,-56.5 369.146,-56.5"/>
<text text-anchor="middle" x="419.646" y="-63.5" font-family="Helvetica,sans-Serif" font-size="10.00">AR6/AR/arConfig.h</text>
</a>
</g>
</g>
<!-- Node4&#45;&gt;Node9 -->
<g id="edge9" class="edge"><title>Node4&#45;&gt;Node9</title>
<path fill="none" stroke="midnightblue" d="M485.954,-112.324C473.745,-103.979 455.068,-91.2122 440.643,-81.3524"/>
<polygon fill="midnightblue" stroke="midnightblue" points="442.538,-78.4082 432.308,-75.6545 438.588,-84.1871 442.538,-78.4082"/>
</g>
<!-- Node10 -->
<g id="node10" class="node"><title>Node10</title>
<g id="a_node10"><a xlink:href="log_8h.html" target="_top" xlink:title="Logging utilities. ">
<polygon fill="white" stroke="black" points="526.646,-56.5 526.646,-75.5 618.646,-75.5 618.646,-56.5 526.646,-56.5"/>
<text text-anchor="middle" x="572.646" y="-63.5" font-family="Helvetica,sans-Serif" font-size="10.00">AR6/ARUtil/log.h</text>
</a>
</g>
</g>
<!-- Node4&#45;&gt;Node10 -->
<g id="edge10" class="edge"><title>Node4&#45;&gt;Node10</title>
<path fill="none" stroke="midnightblue" d="M510.536,-112.324C521.797,-104.107 538.933,-91.6017 552.356,-81.8069"/>
<polygon fill="midnightblue" stroke="midnightblue" points="554.526,-84.5559 560.541,-75.8339 550.4,-78.9014 554.526,-84.5559"/>
</g>
<!-- Node13 -->
<g id="node13" class="node"><title>Node13</title>
<g id="a_node13"><a xlink:href="_a_r_2include_2_a_r6_2_a_r_2matrix_8h.html" target="_top" xlink:title="AR6/AR/matrix.h">
<polygon fill="white" stroke="black" points="14.6464,-56.5 14.6464,-75.5 106.646,-75.5 106.646,-56.5 14.6464,-56.5"/>
<text text-anchor="middle" x="60.6464" y="-63.5" font-family="Helvetica,sans-Serif" font-size="10.00">AR6/AR/matrix.h</text>
</a>
</g>
</g>
<!-- Node4&#45;&gt;Node13 -->
<g id="edge16" class="edge"><title>Node4&#45;&gt;Node13</title>
<path fill="none" stroke="midnightblue" d="M462.138,-117.267C395.606,-110.342 249.949,-94.6292 116.808,-76.1095"/>
<polygon fill="midnightblue" stroke="midnightblue" points="117.225,-72.634 106.837,-74.714 116.255,-79.5664 117.225,-72.634"/>
</g>
<!-- Node14 -->
<g id="node14" class="node"><title>Node14</title>
<g id="a_node14"><a xlink:href="icp_8h.html" target="_top" xlink:title="AR6/AR/icp.h">
<polygon fill="white" stroke="black" points="823.146,-56.5 823.146,-75.5 900.146,-75.5 900.146,-56.5 823.146,-56.5"/>
<text text-anchor="middle" x="861.646" y="-63.5" font-family="Helvetica,sans-Serif" font-size="10.00">AR6/AR/icp.h</text>
</a>
</g>
</g>
<!-- Node4&#45;&gt;Node14 -->
<g id="edge18" class="edge"><title>Node4&#45;&gt;Node14</title>
<path fill="none" stroke="midnightblue" d="M535.434,-115.952C593.533,-107.913 710.067,-91.5226 808.646,-76 809.943,-75.7959 811.257,-75.587 812.583,-75.3745"/>
<polygon fill="midnightblue" stroke="midnightblue" points="813.571,-78.7595 822.877,-73.6941 812.444,-71.8509 813.571,-78.7595"/>
</g>
<!-- Node16 -->
<g id="node16" class="node"><title>Node16</title>
<g id="a_node16"><a xlink:href="param_8h.html" target="_top" xlink:title="ARToolKit functions for handling calibrated camera parameters. ">
<polygon fill="white" stroke="black" points="636.646,-56.5 636.646,-75.5 728.646,-75.5 728.646,-56.5 636.646,-56.5"/>
<text text-anchor="middle" x="682.646" y="-63.5" font-family="Helvetica,sans-Serif" font-size="10.00">AR6/AR/param.h</text>
</a>
</g>
</g>
<!-- Node4&#45;&gt;Node16 -->
<g id="edge21" class="edge"><title>Node4&#45;&gt;Node16</title>
<path fill="none" stroke="midnightblue" d="M522.713,-112.444C552.178,-103.201 602.319,-88.4356 638.684,-78.2572"/>
<polygon fill="midnightblue" stroke="midnightblue" points="639.85,-81.5661 648.548,-75.5164 637.975,-74.8217 639.85,-81.5661"/>
</g>
<!-- Node17 -->
<g id="node17" class="node"><title>Node17</title>
<g id="a_node17"><a xlink:href="ar_image_proc_8h.html" target="_top" xlink:title="ARToolKit functions for 2D luminance image processing. ">
<polygon fill="white" stroke="black" points="230.646,-56.5 230.646,-75.5 350.646,-75.5 350.646,-56.5 230.646,-56.5"/>
<text text-anchor="middle" x="290.646" y="-63.5" font-family="Helvetica,sans-Serif" font-size="10.00">AR6/AR/arImageProc.h</text>
</a>
</g>
</g>
<!-- Node4&#45;&gt;Node17 -->
<g id="edge23" class="edge"><title>Node4&#45;&gt;Node17</title>
<path fill="none" stroke="midnightblue" d="M462.046,-112.799C424.365,-103.563 366.156,-88.5013 328.155,-78.1897"/>
<polygon fill="midnightblue" stroke="midnightblue" points="329.049,-74.8059 318.48,-75.5467 327.204,-81.5584 329.049,-74.8059"/>
</g>
<!-- Node10&#45;&gt;Node2 -->
<g id="edge11" class="edge"><title>Node10&#45;&gt;Node2</title>
<path fill="none" stroke="midnightblue" d="M609.454,-56.4631C647.401,-47.5979 708.251,-33.2033 760.646,-20 760.979,-19.9161 761.314,-19.8315 761.651,-19.7463"/>
<polygon fill="midnightblue" stroke="midnightblue" points="762.813,-23.0612 771.621,-17.1743 761.064,-16.2831 762.813,-23.0612"/>
</g>
<!-- Node10&#45;&gt;Node5 -->
<g id="edge12" class="edge"><title>Node10&#45;&gt;Node5</title>
<path fill="none" stroke="midnightblue" d="M597.207,-56.4435C623.245,-47.372 664.557,-32.9797 693.7,-22.8264"/>
<polygon fill="midnightblue" stroke="midnightblue" points="695.164,-26.0227 703.456,-19.4275 692.861,-19.4124 695.164,-26.0227"/>
</g>
<!-- Node10&#45;&gt;Node7 -->
<g id="edge13" class="edge"><title>Node10&#45;&gt;Node7</title>
<path fill="none" stroke="midnightblue" d="M560.918,-56.324C549.809,-48.1066 532.904,-35.6017 519.663,-25.8069"/>
<polygon fill="midnightblue" stroke="midnightblue" points="521.71,-22.9671 511.589,-19.8339 517.547,-28.5948 521.71,-22.9671"/>
</g>
<!-- Node11 -->
<g id="node11" class="node"><title>Node11</title>
<polygon fill="white" stroke="#bfbfbf" points="544.646,-0.5 544.646,-19.5 596.646,-19.5 596.646,-0.5 544.646,-0.5"/>
<text text-anchor="middle" x="570.646" y="-7.5" font-family="Helvetica,sans-Serif" font-size="10.00">stdarg.h</text>
</g>
<!-- Node10&#45;&gt;Node11 -->
<g id="edge14" class="edge"><title>Node10&#45;&gt;Node11</title>
<path fill="none" stroke="midnightblue" d="M572.316,-56.083C572.054,-49.0059 571.678,-38.8611 571.35,-29.9865"/>
<polygon fill="midnightblue" stroke="midnightblue" points="574.838,-29.6147 570.971,-19.7511 567.843,-29.8738 574.838,-29.6147"/>
</g>
<!-- Node12 -->
<g id="node12" class="node"><title>Node12</title>
<polygon fill="white" stroke="#bfbfbf" points="615.146,-0.5 615.146,-19.5 680.146,-19.5 680.146,-0.5 615.146,-0.5"/>
<text text-anchor="middle" x="647.646" y="-7.5" font-family="Helvetica,sans-Serif" font-size="10.00">sys/errno.h</text>
</g>
<!-- Node10&#45;&gt;Node12 -->
<g id="edge15" class="edge"><title>Node10&#45;&gt;Node12</title>
<path fill="none" stroke="midnightblue" d="M584.696,-56.324C596.109,-48.1066 613.477,-35.6017 627.081,-25.8069"/>
<polygon fill="midnightblue" stroke="midnightblue" points="629.307,-28.5174 635.377,-19.8339 625.217,-22.8366 629.307,-28.5174"/>
</g>
<!-- Node13&#45;&gt;Node3 -->
<g id="edge17" class="edge"><title>Node13&#45;&gt;Node3</title>
<path fill="none" stroke="midnightblue" d="M54.5366,-56.083C49.3642,-48.5341 41.8003,-37.4948 35.452,-28.2298"/>
<polygon fill="midnightblue" stroke="midnightblue" points="38.1822,-26.0221 29.6425,-19.7511 32.4076,-29.9787 38.1822,-26.0221"/>
</g>
<!-- Node14&#45;&gt;Node2 -->
<g id="edge19" class="edge"><title>Node14&#45;&gt;Node2</title>
<path fill="none" stroke="midnightblue" d="M850.882,-56.324C840.88,-48.2631 825.76,-36.0765 813.716,-26.3695"/>
<polygon fill="midnightblue" stroke="midnightblue" points="815.589,-23.3841 805.607,-19.8339 811.197,-28.8343 815.589,-23.3841"/>
</g>
<!-- Node15 -->
<g id="node15" class="node"><title>Node15</title>
<g id="a_node15"><a xlink:href="icp_core_8h.html" target="_top" xlink:title="AR6/AR/icpCore.h">
<polygon fill="white" stroke="black" points="835.646,-0.5 835.646,-19.5 933.646,-19.5 933.646,-0.5 835.646,-0.5"/>
<text text-anchor="middle" x="884.646" y="-7.5" font-family="Helvetica,sans-Serif" font-size="10.00">AR6/AR/icpCore.h</text>
</a>
</g>
</g>
<!-- Node14&#45;&gt;Node15 -->
<g id="edge20" class="edge"><title>Node14&#45;&gt;Node15</title>
<path fill="none" stroke="midnightblue" d="M865.444,-56.083C868.559,-48.77 873.069,-38.1814 876.936,-29.1034"/>
<polygon fill="midnightblue" stroke="midnightblue" points="880.221,-30.3229 880.919,-19.7511 873.78,-27.5798 880.221,-30.3229"/>
</g>
<!-- Node16&#45;&gt;Node4 -->
<g id="edge22" class="edge"><title>Node16&#45;&gt;Node4</title>
<path fill="none" stroke="midnightblue" d="M658.707,-75.5164C629.302,-84.7429 579.171,-99.507 542.766,-109.699"/>
<polygon fill="midnightblue" stroke="midnightblue" points="541.588,-106.393 532.891,-112.444 543.463,-113.138 541.588,-106.393"/>
</g>
<!-- Node17&#45;&gt;Node4 -->
<g id="edge25" class="edge"><title>Node17&#45;&gt;Node4</title>
<path fill="none" stroke="midnightblue" d="M328.53,-75.5164C366.102,-84.7429 423.149,-99.507 460.727,-109.699"/>
<polygon fill="midnightblue" stroke="midnightblue" points="460.208,-113.185 470.777,-112.444 462.052,-106.432 460.208,-113.185"/>
</g>
<!-- Node17&#45;&gt;Node8 -->
<g id="edge24" class="edge"><title>Node17&#45;&gt;Node8</title>
<path fill="none" stroke="midnightblue" d="M283.381,-56.083C277.102,-48.3768 267.859,-37.0333 260.216,-27.6531"/>
<polygon fill="midnightblue" stroke="midnightblue" points="262.807,-25.2926 253.777,-19.7511 257.38,-29.7143 262.807,-25.2926"/>
</g>
</g>
</svg>
        <g id="navigator" transform="translate(0 0)" fill="#404254">
                <rect fill="#f2f5e9" fill-opacity="0.5" stroke="#606060" stroke-width=".5" x="0" y="0" width="60" height="60"/>
                <use id="zoomplus" xlink:href="#zoomPlus" x="17" y="9" onmousedown="handleZoom(evt,'in')"/>
                <use id="zoomminus" xlink:href="#zoomMin" x="42" y="9" onmousedown="handleZoom(evt,'out')"/>
                <use id="reset" xlink:href="#resetDef" x="30" y="36" onmousedown="handleReset()"/>
                <g id="arrowUp" xlink:href="#dirArrow" transform="translate(30 24)" onmousedown="handlePan(0,-1)">
                  <use xlink:href="#rim" fill="#404040">
                        <set attributeName="fill" to="#808080" begin="arrowUp.mouseover" end="arrowUp.mouseout"/>
                  </use>
                  <path fill="none" stroke="white" stroke-width="1.5" d="M0,-3.0v7 M-2.5,-0.5L0,-3.0L2.5,-0.5"/>
                </g>
                <g id="arrowRight" xlink:href="#dirArrow" transform="rotate(90) translate(36 -43)" onmousedown="handlePan(1,0)">
                  <use xlink:href="#rim" fill="#404040">
                        <set attributeName="fill" to="#808080" begin="arrowRight.mouseover" end="arrowRight.mouseout"/>
                  </use>
                  <path fill="none" stroke="white" stroke-width="1.5" d="M0,-3.0v7 M-2.5,-0.5L0,-3.0L2.5,-0.5"/>
                </g>
                <g id="arrowDown" xlink:href="#dirArrow" transform="rotate(180) translate(-30 -48)" onmousedown="handlePan(0,1)">
                  <use xlink:href="#rim" fill="#404040">
                        <set attributeName="fill" to="#808080" begin="arrowDown.mouseover" end="arrowDown.mouseout"/>
                  </use>
                  <path fill="none" stroke="white" stroke-width="1.5" d="M0,-3.0v7 M-2.5,-0.5L0,-3.0L2.5,-0.5"/>
                </g>
                <g id="arrowLeft" xlink:href="#dirArrow" transform="rotate(270) translate(-36 17)" onmousedown="handlePan(-1,0)">
                  <use xlink:href="#rim" fill="#404040">
                        <set attributeName="fill" to="#808080" begin="arrowLeft.mouseover" end="arrowLeft.mouseout"/>
                  </use>
                  <path fill="none" stroke="white" stroke-width="1.5" d="M0,-3.0v7 M-2.5,-0.5L0,-3.0L2.5,-0.5"/>
                </g>
        </g>
        <svg viewBox="0 0 15 15" width="100%" height="30px" preserveAspectRatio="xMaxYMin meet">
         <g id="arrow_out" transform="scale(0.3 0.3)">
          <a xlink:href="param_get_perspective_8c__incl_org.svg" target="_base">
           <rect id="button" ry="5" rx="5" y="6" x="6" height="38" width="38"
                fill="#f2f5e9" fill-opacity="0.5" stroke="#606060" stroke-width="1.0"/>
           <path id="arrow"
             d="M 11.500037,31.436501 C 11.940474,20.09759 22.043105,11.32322 32.158766,21.979434 L 37.068811,17.246167 C 37.068811,17.246167 37.088388,32 37.088388,32 L 22.160133,31.978069 C 22.160133,31.978069 26.997745,27.140456 26.997745,27.140456 C 18.528582,18.264221 13.291696,25.230495 11.500037,31.436501 z"
             style="fill:#404040;"/>
          </a>
         </g>
        </svg>
</svg>
