<?xml version="1.0" encoding="UTF-8" standalone="no"?>
<!DOCTYPE svg PUBLIC "-//W3C//DTD SVG 1.1//EN"
 "http://www.w3.org/Graphics/SVG/1.1/DTD/svg11.dtd">
<!-- Generated by graphviz version 2.38.0 (20140413.2041)
 -->
<!-- Title: /bitrise/src/Source/AR6/InstantOn/include/AR6/InstantOn/cv/pnp_estimation/pnp_jacobians.h Pages: 1 -->
<svg width="186pt" height="239pt"
 viewBox="0.00 0.00 185.50 239.00" xmlns="http://www.w3.org/2000/svg" xmlns:xlink="http://www.w3.org/1999/xlink">
<g id="graph0" class="graph" transform="scale(1 1) rotate(0) translate(4 235)">
<title>/bitrise/src/Source/AR6/InstantOn/include/AR6/InstantOn/cv/pnp_estimation/pnp_jacobians.h</title>
<polygon fill="white" stroke="none" points="-4,4 -4,-235 181.5,-235 181.5,4 -4,4"/>
<!-- Node1 -->
<g id="node1" class="node"><title>Node1</title>
<polygon fill="#bfbfbf" stroke="black" points="37.5,-178.5 37.5,-230.5 177.5,-230.5 177.5,-178.5 37.5,-178.5"/>
<text text-anchor="start" x="45.5" y="-218.5" font-family="Helvetica,sans-Serif" font-size="10.00">/bitrise/src/Source</text>
<text text-anchor="start" x="45.5" y="-207.5" font-family="Helvetica,sans-Serif" font-size="10.00">/AR6/InstantOn/include</text>
<text text-anchor="start" x="45.5" y="-196.5" font-family="Helvetica,sans-Serif" font-size="10.00">/AR6/InstantOn/cv/pnp</text>
<text text-anchor="middle" x="107.5" y="-185.5" font-family="Helvetica,sans-Serif" font-size="10.00">_estimation/pnp_jacobians.h</text>
</g>
<!-- Node2 -->
<g id="node2" class="node"><title>Node2</title>
<g id="a_node2"><a xlink:href="pnp__solver_8h.html" target="_top" xlink:title="/bitrise/src/Source\l/AR6/InstantOn/include\l/AR6/InstantOn/cv/pnp\l_estimation/pnp_solver.h">
<polygon fill="white" stroke="black" points="0,-89.5 0,-141.5 125,-141.5 125,-89.5 0,-89.5"/>
<text text-anchor="start" x="8" y="-129.5" font-family="Helvetica,sans-Serif" font-size="10.00">/bitrise/src/Source</text>
<text text-anchor="start" x="8" y="-118.5" font-family="Helvetica,sans-Serif" font-size="10.00">/AR6/InstantOn/include</text>
<text text-anchor="start" x="8" y="-107.5" font-family="Helvetica,sans-Serif" font-size="10.00">/AR6/InstantOn/cv/pnp</text>
<text text-anchor="middle" x="62.5" y="-96.5" font-family="Helvetica,sans-Serif" font-size="10.00">_estimation/pnp_solver.h</text>
</a>
</g>
</g>
<!-- Node1&#45;&gt;Node2 -->
<g id="edge1" class="edge"><title>Node1&#45;&gt;Node2</title>
<path fill="none" stroke="midnightblue" d="M89.8361,-169.35C85.052,-160.1 79.9616,-150.259 75.4866,-141.607"/>
<polygon fill="midnightblue" stroke="midnightblue" points="86.7811,-171.062 94.4841,-178.336 92.9986,-167.846 86.7811,-171.062"/>
</g>
<!-- Node3 -->
<g id="node3" class="node"><title>Node3</title>
<g id="a_node3"><a xlink:href="robust__pnp_8h.html" target="_top" xlink:title="/bitrise/src/Source\l/AR6/InstantOn/include\l/AR6/InstantOn/cv/pnp\l_estimation/robust_pnp.h">
<polygon fill="white" stroke="black" points="44.5,-0.5 44.5,-52.5 170.5,-52.5 170.5,-0.5 44.5,-0.5"/>
<text text-anchor="start" x="52.5" y="-40.5" font-family="Helvetica,sans-Serif" font-size="10.00">/bitrise/src/Source</text>
<text text-anchor="start" x="52.5" y="-29.5" font-family="Helvetica,sans-Serif" font-size="10.00">/AR6/InstantOn/include</text>
<text text-anchor="start" x="52.5" y="-18.5" font-family="Helvetica,sans-Serif" font-size="10.00">/AR6/InstantOn/cv/pnp</text>
<text text-anchor="middle" x="107.5" y="-7.5" font-family="Helvetica,sans-Serif" font-size="10.00">_estimation/robust_pnp.h</text>
</a>
</g>
</g>
<!-- Node1&#45;&gt;Node3 -->
<g id="edge3" class="edge"><title>Node1&#45;&gt;Node3</title>
<path fill="none" stroke="midnightblue" d="M124.965,-168.89C128.493,-160.314 131.676,-150.997 133.5,-142 138.179,-118.914 138.179,-112.086 133.5,-89 130.99,-76.6165 125.904,-63.629 120.89,-52.7969"/>
<polygon fill="midnightblue" stroke="midnightblue" points="121.692,-167.639 120.89,-178.203 128.105,-170.445 121.692,-167.639"/>
</g>
<!-- Node2&#45;&gt;Node3 -->
<g id="edge2" class="edge"><title>Node2&#45;&gt;Node3</title>
<path fill="none" stroke="midnightblue" d="M80.1639,-80.3499C84.948,-71.1005 90.0384,-61.2591 94.5134,-52.6075"/>
<polygon fill="midnightblue" stroke="midnightblue" points="77.0014,-78.8458 75.5159,-89.336 83.2189,-82.0618 77.0014,-78.8458"/>
</g>
</g>
</svg>
