<?xml version="1.0" encoding="UTF-8" standalone="no"?>
<!DOCTYPE svg PUBLIC "-//W3C//DTD SVG 1.1//EN"
 "http://www.w3.org/Graphics/SVG/1.1/DTD/svg11.dtd">
<!-- Generated by graphviz version 2.38.0 (20140413.2041)
 -->
<!-- Title: /bitrise/src/Source/AR6/InstantOn/include/AR6/InstantOn/cv/pnp_estimation/pnp_solver.h Pages: 1 -->
<!--zoomable 508 -->
<svg id="main" version="1.1" xmlns="http://www.w3.org/2000/svg" xmlns:xlink="http://www.w3.org/1999/xlink" xml:space="preserve" onload="init(evt)">
<style type="text/css"><![CDATA[
.edge:hover path { stroke: red; }
.edge:hover polygon { stroke: red; fill: red; }
]]></style>
<script type="text/javascript"><![CDATA[
var edges = document.getElementsByTagName('g');
if (edges && edges.length) {
  for (var i=0;i<edges.length;i++) {
    if (edges[i].id.substr(0,4)=='edge') {
      edges[i].setAttribute('class','edge');
    }
  }
}
]]></script>
        <defs>
                <circle id="rim" cx="0" cy="0" r="7"/>
                <circle id="rim2" cx="0" cy="0" r="3.5"/>
                <g id="zoomPlus">
                        <use xlink:href="#rim" fill="#404040">
                                <set attributeName="fill" to="#808080" begin="zoomplus.mouseover" end="zoomplus.mouseout"/>
                        </use>
                        <path d="M-4,0h8M0,-4v8" fill="none" stroke="white" stroke-width="1.5" pointer-events="none"/>
                </g>
                <g id="zoomMin">
                        <use xlink:href="#rim" fill="#404040">
                                <set attributeName="fill" to="#808080" begin="zoomminus.mouseover" end="zoomminus.mouseout"/>
                        </use>
                        <path d="M-4,0h8" fill="none" stroke="white" stroke-width="1.5" pointer-events="none"/>
                </g>
                <g id="dirArrow">
                        <path fill="none" stroke="white" stroke-width="1.5" d="M0,-3.0v7 M-2.5,-0.5L0,-3.0L2.5,-0.5"/>
                </g>
               <g id="resetDef">
                       <use xlink:href="#rim2" fill="#404040">
                               <set attributeName="fill" to="#808080" begin="reset.mouseover" end="reset.mouseout"/>
                       </use>
               </g>
        </defs>

<script type="text/javascript">
var viewWidth = 815;
var viewHeight = 508;
var sectionId = 'dynsection-0';
</script>
<script xlink:href="svgpan.js"/>
<svg id="graph" class="graph">
<g id="viewport">
<title>/bitrise/src/Source/AR6/InstantOn/include/AR6/InstantOn/cv/pnp_estimation/pnp_solver.h</title>
<polygon fill="white" stroke="none" points="-4,4 -4,-504 810.715,-504 810.715,4 -4,4"/>
<!-- Node1 -->
<g id="node1" class="node"><title>Node1</title>
<polygon fill="#bfbfbf" stroke="black" points="456,-447.5 456,-499.5 581,-499.5 581,-447.5 456,-447.5"/>
<text text-anchor="start" x="464" y="-487.5" font-family="Helvetica,sans-Serif" font-size="10.00">/bitrise/src/Source</text>
<text text-anchor="start" x="464" y="-476.5" font-family="Helvetica,sans-Serif" font-size="10.00">/AR6/InstantOn/include</text>
<text text-anchor="start" x="464" y="-465.5" font-family="Helvetica,sans-Serif" font-size="10.00">/AR6/InstantOn/cv/pnp</text>
<text text-anchor="middle" x="518.5" y="-454.5" font-family="Helvetica,sans-Serif" font-size="10.00">_estimation/pnp_solver.h</text>
</g>
<!-- Node2 -->
<g id="node2" class="node"><title>Node2</title>
<g id="a_node2"><a xlink:href="indexing_8h.html" target="_top" xlink:title="AR6/InstantOn/math\l/indexing.h">
<polygon fill="white" stroke="black" points="149,-67.5 149,-97.5 256,-97.5 256,-67.5 149,-67.5"/>
<text text-anchor="start" x="157" y="-85.5" font-family="Helvetica,sans-Serif" font-size="10.00">AR6/InstantOn/math</text>
<text text-anchor="middle" x="202.5" y="-74.5" font-family="Helvetica,sans-Serif" font-size="10.00">/indexing.h</text>
</a>
</g>
</g>
<!-- Node1&#45;&gt;Node2 -->
<g id="edge1" class="edge"><title>Node1&#45;&gt;Node2</title>
<path fill="none" stroke="midnightblue" d="M455.953,-464.617C345.281,-448.908 126.5,-409.169 126.5,-340.5 126.5,-340.5 126.5,-340.5 126.5,-215.5 126.5,-171.834 158.121,-129.579 180.57,-105.083"/>
<polygon fill="midnightblue" stroke="midnightblue" points="183.155,-107.444 187.485,-97.7741 178.07,-102.633 183.155,-107.444"/>
</g>
<!-- Node6 -->
<g id="node6" class="node"><title>Node6</title>
<g id="a_node6"><a xlink:href="linear__solvers_8h.html" target="_top" xlink:title="AR6/InstantOn/math\l/linear_solvers.h">
<polygon fill="white" stroke="black" points="155,-201.5 155,-231.5 262,-231.5 262,-201.5 155,-201.5"/>
<text text-anchor="start" x="163" y="-219.5" font-family="Helvetica,sans-Serif" font-size="10.00">AR6/InstantOn/math</text>
<text text-anchor="middle" x="208.5" y="-208.5" font-family="Helvetica,sans-Serif" font-size="10.00">/linear_solvers.h</text>
</a>
</g>
</g>
<!-- Node1&#45;&gt;Node6 -->
<g id="edge5" class="edge"><title>Node1&#45;&gt;Node6</title>
<path fill="none" stroke="midnightblue" d="M481.889,-447.24C433.285,-413.121 345.554,-349.477 276.5,-288 259.139,-272.544 240.932,-253.494 227.731,-239.095"/>
<polygon fill="midnightblue" stroke="midnightblue" points="230.263,-236.677 220.949,-231.626 225.08,-241.382 230.263,-236.677"/>
</g>
<!-- Node9 -->
<g id="node9" class="node"><title>Node9</title>
<g id="a_node9"><a xlink:href="math__utils_8h.html" target="_top" xlink:title="math_utils.h">
<polygon fill="white" stroke="black" points="722.5,-73 722.5,-92 792.5,-92 792.5,-73 722.5,-73"/>
<text text-anchor="middle" x="757.5" y="-80" font-family="Helvetica,sans-Serif" font-size="10.00">math_utils.h</text>
</a>
</g>
</g>
<!-- Node1&#45;&gt;Node9 -->
<g id="edge23" class="edge"><title>Node1&#45;&gt;Node9</title>
<path fill="none" stroke="midnightblue" d="M581.235,-469.596C663.228,-462.044 796.5,-435.202 796.5,-340.5 796.5,-340.5 796.5,-340.5 796.5,-215.5 796.5,-173.264 777.909,-126.426 766.399,-101.475"/>
<polygon fill="midnightblue" stroke="midnightblue" points="769.438,-99.7178 761.974,-92.1988 763.12,-102.731 769.438,-99.7178"/>
</g>
<!-- Node20 -->
<g id="node20" class="node"><title>Node20</title>
<g id="a_node20"><a xlink:href="p3p_8h.html" target="_top" xlink:title="../geometry/p3p.h">
<polygon fill="white" stroke="black" points="472,-330 472,-349 565,-349 565,-330 472,-330"/>
<text text-anchor="middle" x="518.5" y="-337" font-family="Helvetica,sans-Serif" font-size="10.00">../geometry/p3p.h</text>
</a>
</g>
</g>
<!-- Node1&#45;&gt;Node20 -->
<g id="edge24" class="edge"><title>Node1&#45;&gt;Node20</title>
<path fill="none" stroke="midnightblue" d="M518.5,-447.361C518.5,-421.637 518.5,-382.259 518.5,-359.175"/>
<polygon fill="midnightblue" stroke="midnightblue" points="522,-359.014 518.5,-349.014 515,-359.014 522,-359.014"/>
</g>
<!-- Node27 -->
<g id="node27" class="node"><title>Node27</title>
<g id="a_node27"><a xlink:href="pnp__jacobians_8h.html" target="_top" xlink:title="pnp_jacobians.h">
<polygon fill="white" stroke="black" points="568,-391.5 568,-410.5 655,-410.5 655,-391.5 568,-391.5"/>
<text text-anchor="middle" x="611.5" y="-398.5" font-family="Helvetica,sans-Serif" font-size="10.00">pnp_jacobians.h</text>
</a>
</g>
</g>
<!-- Node1&#45;&gt;Node27 -->
<g id="edge47" class="edge"><title>Node1&#45;&gt;Node27</title>
<path fill="none" stroke="midnightblue" d="M551.55,-447.446C565.03,-437.227 580.159,-425.758 591.847,-416.898"/>
<polygon fill="midnightblue" stroke="midnightblue" points="594.175,-419.526 600.029,-410.695 589.946,-413.947 594.175,-419.526"/>
</g>
<!-- Node3 -->
<g id="node3" class="node"><title>Node3</title>
<polygon fill="white" stroke="#bfbfbf" points="245.5,-6 245.5,-25 297.5,-25 297.5,-6 245.5,-6"/>
<text text-anchor="middle" x="271.5" y="-13" font-family="Helvetica,sans-Serif" font-size="10.00">memory</text>
</g>
<!-- Node2&#45;&gt;Node3 -->
<g id="edge2" class="edge"><title>Node2&#45;&gt;Node3</title>
<path fill="none" stroke="midnightblue" d="M217.472,-67.396C228.444,-57.0604 243.344,-43.0237 254.718,-32.309"/>
<polygon fill="midnightblue" stroke="midnightblue" points="257.391,-34.5991 262.27,-25.1945 252.592,-29.5039 257.391,-34.5991"/>
</g>
<!-- Node4 -->
<g id="node4" class="node"><title>Node4</title>
<polygon fill="white" stroke="#bfbfbf" points="111,-6 111,-25 160,-25 160,-6 111,-6"/>
<text text-anchor="middle" x="135.5" y="-13" font-family="Helvetica,sans-Serif" font-size="10.00">cstddef</text>
</g>
<!-- Node2&#45;&gt;Node4 -->
<g id="edge3" class="edge"><title>Node2&#45;&gt;Node4</title>
<path fill="none" stroke="midnightblue" d="M187.962,-67.396C177.308,-57.0604 162.84,-43.0237 151.795,-32.309"/>
<polygon fill="midnightblue" stroke="midnightblue" points="154.077,-29.6456 144.462,-25.1945 149.202,-34.6698 154.077,-29.6456"/>
</g>
<!-- Node5 -->
<g id="node5" class="node"><title>Node5</title>
<polygon fill="white" stroke="#bfbfbf" points="178,-6 178,-25 227,-25 227,-6 178,-6"/>
<text text-anchor="middle" x="202.5" y="-13" font-family="Helvetica,sans-Serif" font-size="10.00">string.h</text>
</g>
<!-- Node2&#45;&gt;Node5 -->
<g id="edge4" class="edge"><title>Node2&#45;&gt;Node5</title>
<path fill="none" stroke="midnightblue" d="M202.5,-67.396C202.5,-58.0638 202.5,-45.7143 202.5,-35.5173"/>
<polygon fill="midnightblue" stroke="midnightblue" points="206,-35.1945 202.5,-25.1945 199,-35.1946 206,-35.1945"/>
</g>
<!-- Node6&#45;&gt;Node2 -->
<g id="edge19" class="edge"><title>Node6&#45;&gt;Node2</title>
<path fill="none" stroke="midnightblue" d="M207.858,-201.374C206.843,-179.044 204.855,-135.313 203.607,-107.851"/>
<polygon fill="midnightblue" stroke="midnightblue" points="207.088,-107.355 203.137,-97.5247 200.095,-107.673 207.088,-107.355"/>
</g>
<!-- Node7 -->
<g id="node7" class="node"><title>Node7</title>
<polygon fill="white" stroke="#bfbfbf" points="648.5,-73 648.5,-92 704.5,-92 704.5,-73 648.5,-73"/>
<text text-anchor="middle" x="676.5" y="-80" font-family="Helvetica,sans-Serif" font-size="10.00">algorithm</text>
</g>
<!-- Node6&#45;&gt;Node7 -->
<g id="edge6" class="edge"><title>Node6&#45;&gt;Node7</title>
<path fill="none" stroke="midnightblue" d="M262.225,-209.262C354.344,-198.356 535.2,-175.941 562.5,-165 601.376,-149.419 639.518,-117.939 660.333,-98.9885"/>
<polygon fill="midnightblue" stroke="midnightblue" points="662.726,-101.543 667.668,-92.1707 657.96,-96.4156 662.726,-101.543"/>
</g>
<!-- Node8 -->
<g id="node8" class="node"><title>Node8</title>
<g id="a_node8"><a xlink:href="linear__algebra_8h.html" target="_top" xlink:title="linear_algebra.h">
<polygon fill="white" stroke="black" points="305,-140 305,-159 390,-159 390,-140 305,-140"/>
<text text-anchor="middle" x="347.5" y="-147" font-family="Helvetica,sans-Serif" font-size="10.00">linear_algebra.h</text>
</a>
</g>
</g>
<!-- Node6&#45;&gt;Node8 -->
<g id="edge7" class="edge"><title>Node6&#45;&gt;Node8</title>
<path fill="none" stroke="midnightblue" d="M238.661,-201.396C262.942,-190.041 296.775,-174.22 320.248,-163.244"/>
<polygon fill="midnightblue" stroke="midnightblue" points="321.732,-166.414 329.308,-159.007 318.767,-160.073 321.732,-166.414"/>
</g>
<!-- Node17 -->
<g id="node17" class="node"><title>Node17</title>
<g id="a_node17"><a xlink:href="math__io_8h.html" target="_top" xlink:title="math_io.h">
<polygon fill="white" stroke="black" points="39,-140 39,-159 98,-159 98,-140 39,-140"/>
<text text-anchor="middle" x="68.5" y="-147" font-family="Helvetica,sans-Serif" font-size="10.00">math_io.h</text>
</a>
</g>
</g>
<!-- Node6&#45;&gt;Node17 -->
<g id="edge20" class="edge"><title>Node6&#45;&gt;Node17</title>
<path fill="none" stroke="midnightblue" d="M178.122,-201.396C153.666,-190.041 119.589,-174.22 95.9479,-163.244"/>
<polygon fill="midnightblue" stroke="midnightblue" points="97.3668,-160.044 86.8228,-159.007 94.419,-166.393 97.3668,-160.044"/>
</g>
<!-- Node8&#45;&gt;Node2 -->
<g id="edge18" class="edge"><title>Node8&#45;&gt;Node2</title>
<path fill="none" stroke="midnightblue" d="M328.245,-139.869C306.676,-130.199 271.093,-114.249 243.274,-101.778"/>
<polygon fill="midnightblue" stroke="midnightblue" points="244.35,-98.4249 233.793,-97.5281 241.487,-104.812 244.35,-98.4249"/>
</g>
<!-- Node8&#45;&gt;Node9 -->
<g id="edge8" class="edge"><title>Node8&#45;&gt;Node9</title>
<path fill="none" stroke="midnightblue" d="M390.037,-141.378C405.023,-138.94 421.996,-136.26 437.5,-134 559.913,-116.16 592.885,-125.481 713.5,-98 717.166,-97.1647 720.961,-96.1509 724.714,-95.0517"/>
<polygon fill="midnightblue" stroke="midnightblue" points="725.942,-98.3349 734.439,-92.0064 723.85,-91.6548 725.942,-98.3349"/>
</g>
<!-- Node12 -->
<g id="node12" class="node"><title>Node12</title>
<g id="a_node12"><a xlink:href="_instant_on_2include_2_a_r6_2_instant_on_2math_2matrix_8h.html" target="_top" xlink:title="matrix.h">
<polygon fill="white" stroke="black" points="440.5,-73 440.5,-92 492.5,-92 492.5,-73 440.5,-73"/>
<text text-anchor="middle" x="466.5" y="-80" font-family="Helvetica,sans-Serif" font-size="10.00">matrix.h</text>
</a>
</g>
</g>
<!-- Node8&#45;&gt;Node12 -->
<g id="edge11" class="edge"><title>Node8&#45;&gt;Node12</title>
<path fill="none" stroke="midnightblue" d="M363.549,-139.734C383.622,-128.769 418.203,-109.881 441.694,-97.0495"/>
<polygon fill="midnightblue" stroke="midnightblue" points="443.607,-99.9927 450.705,-92.1273 440.251,-93.8494 443.607,-99.9927"/>
</g>
<!-- Node13 -->
<g id="node13" class="node"><title>Node13</title>
<g id="a_node13"><a xlink:href="vector_8h.html" target="_top" xlink:title="vector.h">
<polygon fill="white" stroke="black" points="345.5,-6 345.5,-25 397.5,-25 397.5,-6 345.5,-6"/>
<text text-anchor="middle" x="371.5" y="-13" font-family="Helvetica,sans-Serif" font-size="10.00">vector.h</text>
</a>
</g>
</g>
<!-- Node8&#45;&gt;Node13 -->
<g id="edge15" class="edge"><title>Node8&#45;&gt;Node13</title>
<path fill="none" stroke="midnightblue" d="M336.331,-139.872C325.582,-130.794 310.026,-115.423 303.5,-98 298.668,-85.0975 297.309,-79.3086 303.5,-67 311.684,-50.7276 327.869,-38.3793 342.395,-29.9673"/>
<polygon fill="midnightblue" stroke="midnightblue" points="344.458,-32.8314 351.601,-25.0062 341.137,-26.6693 344.458,-32.8314"/>
</g>
<!-- Node15 -->
<g id="node15" class="node"><title>Node15</title>
<polygon fill="white" stroke="#bfbfbf" points="370.5,-73 370.5,-92 422.5,-92 422.5,-73 370.5,-73"/>
<text text-anchor="middle" x="396.5" y="-80" font-family="Helvetica,sans-Serif" font-size="10.00">assert.h</text>
</g>
<!-- Node8&#45;&gt;Node15 -->
<g id="edge16" class="edge"><title>Node8&#45;&gt;Node15</title>
<path fill="none" stroke="midnightblue" d="M354.108,-139.734C361.676,-129.695 374.251,-113.014 383.744,-100.421"/>
<polygon fill="midnightblue" stroke="midnightblue" points="386.772,-102.219 389.996,-92.1273 381.182,-98.0057 386.772,-102.219"/>
</g>
<!-- Node16 -->
<g id="node16" class="node"><title>Node16</title>
<polygon fill="white" stroke="#bfbfbf" points="312.5,-73 312.5,-92 352.5,-92 352.5,-73 312.5,-73"/>
<text text-anchor="middle" x="332.5" y="-80" font-family="Helvetica,sans-Serif" font-size="10.00">limits</text>
</g>
<!-- Node8&#45;&gt;Node16 -->
<g id="edge17" class="edge"><title>Node8&#45;&gt;Node16</title>
<path fill="none" stroke="midnightblue" d="M345.477,-139.734C343.25,-130.085 339.608,-114.3 336.748,-101.906"/>
<polygon fill="midnightblue" stroke="midnightblue" points="340.15,-101.084 334.491,-92.1273 333.329,-102.658 340.15,-101.084"/>
</g>
<!-- Node10 -->
<g id="node10" class="node"><title>Node10</title>
<polygon fill="white" stroke="#bfbfbf" points="735.5,-6 735.5,-25 779.5,-25 779.5,-6 735.5,-6"/>
<text text-anchor="middle" x="757.5" y="-13" font-family="Helvetica,sans-Serif" font-size="10.00">cmath</text>
</g>
<!-- Node9&#45;&gt;Node10 -->
<g id="edge9" class="edge"><title>Node9&#45;&gt;Node10</title>
<path fill="none" stroke="midnightblue" d="M757.5,-72.7338C757.5,-63.1826 757.5,-47.6183 757.5,-35.2829"/>
<polygon fill="midnightblue" stroke="midnightblue" points="761,-35.1273 757.5,-25.1273 754,-35.1273 761,-35.1273"/>
</g>
<!-- Node11 -->
<g id="node11" class="node"><title>Node11</title>
<polygon fill="white" stroke="#bfbfbf" points="569.5,-0.5 569.5,-30.5 671.5,-30.5 671.5,-0.5 569.5,-0.5"/>
<text text-anchor="start" x="577.5" y="-18.5" font-family="Helvetica,sans-Serif" font-size="10.00">artvision/framework</text>
<text text-anchor="middle" x="620.5" y="-7.5" font-family="Helvetica,sans-Serif" font-size="10.00">/error.h</text>
</g>
<!-- Node9&#45;&gt;Node11 -->
<g id="edge10" class="edge"><title>Node9&#45;&gt;Node11</title>
<path fill="none" stroke="midnightblue" d="M739.307,-72.8685C719.017,-63.2417 685.602,-47.3878 659.369,-34.9415"/>
<polygon fill="midnightblue" stroke="midnightblue" points="660.602,-31.6525 650.067,-30.5281 657.601,-37.9768 660.602,-31.6525"/>
</g>
<!-- Node12&#45;&gt;Node11 -->
<g id="edge12" class="edge"><title>Node12&#45;&gt;Node11</title>
<path fill="none" stroke="midnightblue" d="M486.95,-72.8685C510.058,-63.115 548.311,-46.9696 577.968,-34.452"/>
<polygon fill="midnightblue" stroke="midnightblue" points="579.412,-37.6413 587.264,-30.5281 576.69,-31.1922 579.412,-37.6413"/>
</g>
<!-- Node12&#45;&gt;Node13 -->
<g id="edge13" class="edge"><title>Node12&#45;&gt;Node13</title>
<path fill="none" stroke="midnightblue" d="M453.688,-72.7338C438.019,-62.0131 411.278,-43.7165 392.566,-30.9137"/>
<polygon fill="midnightblue" stroke="midnightblue" points="394.339,-27.8856 384.109,-25.1273 390.386,-33.6628 394.339,-27.8856"/>
</g>
<!-- Node14 -->
<g id="node14" class="node"><title>Node14</title>
<polygon fill="white" stroke="#bfbfbf" points="444.5,-6 444.5,-25 488.5,-25 488.5,-6 444.5,-6"/>
<text text-anchor="middle" x="466.5" y="-13" font-family="Helvetica,sans-Serif" font-size="10.00">vector</text>
</g>
<!-- Node12&#45;&gt;Node14 -->
<g id="edge14" class="edge"><title>Node12&#45;&gt;Node14</title>
<path fill="none" stroke="midnightblue" d="M466.5,-72.7338C466.5,-63.1826 466.5,-47.6183 466.5,-35.2829"/>
<polygon fill="midnightblue" stroke="midnightblue" points="470,-35.1273 466.5,-25.1273 463,-35.1273 470,-35.1273"/>
</g>
<!-- Node18 -->
<g id="node18" class="node"><title>Node18</title>
<polygon fill="white" stroke="#bfbfbf" points="0,-73 0,-92 41,-92 41,-73 0,-73"/>
<text text-anchor="middle" x="20.5" y="-80" font-family="Helvetica,sans-Serif" font-size="10.00">string</text>
</g>
<!-- Node17&#45;&gt;Node18 -->
<g id="edge21" class="edge"><title>Node17&#45;&gt;Node18</title>
<path fill="none" stroke="midnightblue" d="M62.0265,-139.734C54.6135,-129.695 42.2953,-113.014 32.9957,-100.421"/>
<polygon fill="midnightblue" stroke="midnightblue" points="35.6269,-98.0925 26.8709,-92.1273 29.9959,-102.251 35.6269,-98.0925"/>
</g>
<!-- Node19 -->
<g id="node19" class="node"><title>Node19</title>
<polygon fill="white" stroke="#bfbfbf" points="59.5,-73 59.5,-92 113.5,-92 113.5,-73 59.5,-73"/>
<text text-anchor="middle" x="86.5" y="-80" font-family="Helvetica,sans-Serif" font-size="10.00">iostream</text>
</g>
<!-- Node17&#45;&gt;Node19 -->
<g id="edge22" class="edge"><title>Node17&#45;&gt;Node19</title>
<path fill="none" stroke="midnightblue" d="M70.9276,-139.734C73.5995,-130.085 77.9708,-114.3 81.4029,-101.906"/>
<polygon fill="midnightblue" stroke="midnightblue" points="84.8151,-102.699 84.1109,-92.1273 78.069,-100.831 84.8151,-102.699"/>
</g>
<!-- Node20&#45;&gt;Node2 -->
<g id="edge40" class="edge"><title>Node20&#45;&gt;Node2</title>
<path fill="none" stroke="midnightblue" d="M479.971,-329.932C449.922,-322.098 407.977,-308.565 375.5,-288 300.072,-240.239 240.482,-149.104 215.395,-106.51"/>
<polygon fill="midnightblue" stroke="midnightblue" points="218.343,-104.618 210.303,-97.7184 212.286,-108.126 218.343,-104.618"/>
</g>
<!-- Node20&#45;&gt;Node8 -->
<g id="edge46" class="edge"><title>Node20&#45;&gt;Node8</title>
<path fill="none" stroke="midnightblue" d="M488.626,-329.909C448.19,-316.485 377.637,-286.274 347.5,-232 336.738,-212.618 339.149,-186.433 342.64,-169.032"/>
<polygon fill="midnightblue" stroke="midnightblue" points="346.111,-169.557 344.963,-159.025 339.292,-167.975 346.111,-169.557"/>
</g>
<!-- Node20&#45;&gt;Node9 -->
<g id="edge39" class="edge"><title>Node20&#45;&gt;Node9</title>
<path fill="none" stroke="midnightblue" d="M543.329,-329.906C566.006,-321.358 599.814,-306.813 625.5,-288 685.632,-243.958 704.922,-231.03 739.5,-165 749.877,-145.183 754.285,-119.63 756.148,-102.465"/>
<polygon fill="midnightblue" stroke="midnightblue" points="759.671,-102.366 757.074,-92.0947 752.699,-101.744 759.671,-102.366"/>
</g>
<!-- Node21 -->
<g id="node21" class="node"><title>Node21</title>
<g id="a_node21"><a xlink:href="camera_8h.html" target="_top" xlink:title="camera.h">
<polygon fill="white" stroke="black" points="560,-268.5 560,-287.5 617,-287.5 617,-268.5 560,-268.5"/>
<text text-anchor="middle" x="588.5" y="-275.5" font-family="Helvetica,sans-Serif" font-size="10.00">camera.h</text>
</a>
</g>
</g>
<!-- Node20&#45;&gt;Node21 -->
<g id="edge25" class="edge"><title>Node20&#45;&gt;Node21</title>
<path fill="none" stroke="midnightblue" d="M528.529,-329.975C539.549,-320.608 557.46,-305.384 570.843,-294.008"/>
<polygon fill="midnightblue" stroke="midnightblue" points="573.137,-296.652 578.489,-287.509 568.603,-291.319 573.137,-296.652"/>
</g>
<!-- Node24 -->
<g id="node24" class="node"><title>Node24</title>
<g id="a_node24"><a xlink:href="transforms3d_8h.html" target="_top" xlink:title="../geometry/transforms3d.h">
<polygon fill="white" stroke="black" points="356.5,-207 356.5,-226 490.5,-226 490.5,-207 356.5,-207"/>
<text text-anchor="middle" x="423.5" y="-214" font-family="Helvetica,sans-Serif" font-size="10.00">../geometry/transforms3d.h</text>
</a>
</g>
</g>
<!-- Node20&#45;&gt;Node24 -->
<g id="edge38" class="edge"><title>Node20&#45;&gt;Node24</title>
<path fill="none" stroke="midnightblue" d="M511.668,-329.798C495.988,-309.827 457.198,-260.421 436.693,-234.304"/>
<polygon fill="midnightblue" stroke="midnightblue" points="439.199,-231.827 430.27,-226.123 433.693,-236.15 439.199,-231.827"/>
</g>
<!-- Node25 -->
<g id="node25" class="node"><title>Node25</title>
<g id="a_node25"><a xlink:href="polynomial_8h.html" target="_top" xlink:title="AR6/InstantOn/math\l/polynomial.h">
<polygon fill="white" stroke="black" points="447,-134.5 447,-164.5 554,-164.5 554,-134.5 447,-134.5"/>
<text text-anchor="start" x="455" y="-152.5" font-family="Helvetica,sans-Serif" font-size="10.00">AR6/InstantOn/math</text>
<text text-anchor="middle" x="500.5" y="-141.5" font-family="Helvetica,sans-Serif" font-size="10.00">/polynomial.h</text>
</a>
</g>
</g>
<!-- Node20&#45;&gt;Node25 -->
<g id="edge41" class="edge"><title>Node20&#45;&gt;Node25</title>
<path fill="none" stroke="midnightblue" d="M517.68,-329.934C515.067,-302.642 506.872,-217.052 502.818,-174.711"/>
<polygon fill="midnightblue" stroke="midnightblue" points="506.297,-174.325 501.86,-164.704 499.329,-174.992 506.297,-174.325"/>
</g>
<!-- Node21&#45;&gt;Node11 -->
<g id="edge26" class="edge"><title>Node21&#45;&gt;Node11</title>
<path fill="none" stroke="midnightblue" d="M608.524,-268.438C654.423,-247.485 766.002,-188.627 801.5,-98 806.525,-85.1713 809.831,-77.9736 801.5,-67 786.843,-47.6943 728.218,-33.7859 681.605,-25.5137"/>
<polygon fill="midnightblue" stroke="midnightblue" points="682.01,-22.0319 671.561,-23.7839 680.822,-28.9304 682.01,-22.0319"/>
</g>
<!-- Node22 -->
<g id="node22" class="node"><title>Node22</title>
<g id="a_node22"><a xlink:href="quaternion_8h.html" target="_top" xlink:title="AR6/InstantOn/math\l/quaternion.h">
<polygon fill="white" stroke="black" points="547,-201.5 547,-231.5 654,-231.5 654,-201.5 547,-201.5"/>
<text text-anchor="start" x="555" y="-219.5" font-family="Helvetica,sans-Serif" font-size="10.00">AR6/InstantOn/math</text>
<text text-anchor="middle" x="600.5" y="-208.5" font-family="Helvetica,sans-Serif" font-size="10.00">/quaternion.h</text>
</a>
</g>
</g>
<!-- Node21&#45;&gt;Node22 -->
<g id="edge27" class="edge"><title>Node21&#45;&gt;Node22</title>
<path fill="none" stroke="midnightblue" d="M590.219,-268.475C591.647,-261.396 593.75,-250.97 595.682,-241.39"/>
<polygon fill="midnightblue" stroke="midnightblue" points="599.126,-242.018 597.672,-231.523 592.264,-240.634 599.126,-242.018"/>
</g>
<!-- Node21&#45;&gt;Node24 -->
<g id="edge35" class="edge"><title>Node21&#45;&gt;Node24</title>
<path fill="none" stroke="midnightblue" d="M564.86,-268.475C536.556,-258.269 488.967,-241.108 456.914,-229.549"/>
<polygon fill="midnightblue" stroke="midnightblue" points="457.691,-226.109 447.097,-226.009 455.316,-232.694 457.691,-226.109"/>
</g>
<!-- Node22&#45;&gt;Node2 -->
<g id="edge31" class="edge"><title>Node22&#45;&gt;Node2</title>
<path fill="none" stroke="midnightblue" d="M546.748,-207.382C462.258,-194.512 306.765,-170.329 295.5,-165 279.616,-157.486 246.018,-126.257 223.856,-104.714"/>
<polygon fill="midnightblue" stroke="midnightblue" points="226.136,-102.048 216.542,-97.5528 221.239,-107.05 226.136,-102.048"/>
</g>
<!-- Node22&#45;&gt;Node8 -->
<g id="edge29" class="edge"><title>Node22&#45;&gt;Node8</title>
<path fill="none" stroke="midnightblue" d="M546.845,-201.715C500.383,-189.778 434.031,-172.731 390.863,-161.641"/>
<polygon fill="midnightblue" stroke="midnightblue" points="391.506,-158.192 380.95,-159.094 389.764,-164.972 391.506,-158.192"/>
</g>
<!-- Node22&#45;&gt;Node9 -->
<g id="edge30" class="edge"><title>Node22&#45;&gt;Node9</title>
<path fill="none" stroke="midnightblue" d="M612.079,-201.205C626.375,-184.065 651.945,-155.024 677.5,-134 694.677,-119.869 716.067,-106.557 732.407,-97.1513"/>
<polygon fill="midnightblue" stroke="midnightblue" points="734.387,-100.053 741.374,-92.0885 730.945,-93.9574 734.387,-100.053"/>
</g>
<!-- Node22&#45;&gt;Node11 -->
<g id="edge28" class="edge"><title>Node22&#45;&gt;Node11</title>
<path fill="none" stroke="midnightblue" d="M601.938,-201.188C605.326,-167.483 613.837,-82.7983 618.054,-40.8399"/>
<polygon fill="midnightblue" stroke="midnightblue" points="621.557,-40.9818 619.075,-30.6819 614.592,-40.2818 621.557,-40.9818"/>
</g>
<!-- Node23 -->
<g id="node23" class="node"><title>Node23</title>
<g id="a_node23"><a xlink:href="rand_8h.html" target="_top" xlink:title="rand.h">
<polygon fill="white" stroke="black" points="686.5,-140 686.5,-159 730.5,-159 730.5,-140 686.5,-140"/>
<text text-anchor="middle" x="708.5" y="-147" font-family="Helvetica,sans-Serif" font-size="10.00">rand.h</text>
</a>
</g>
</g>
<!-- Node22&#45;&gt;Node23 -->
<g id="edge32" class="edge"><title>Node22&#45;&gt;Node23</title>
<path fill="none" stroke="midnightblue" d="M623.934,-201.396C642.213,-190.395 667.46,-175.2 685.601,-164.282"/>
<polygon fill="midnightblue" stroke="midnightblue" points="687.602,-167.162 694.365,-159.007 683.993,-161.165 687.602,-167.162"/>
</g>
<!-- Node23&#45;&gt;Node7 -->
<g id="edge33" class="edge"><title>Node23&#45;&gt;Node7</title>
<path fill="none" stroke="midnightblue" d="M704.184,-139.734C699.338,-129.89 691.348,-113.66 685.194,-101.159"/>
<polygon fill="midnightblue" stroke="midnightblue" points="688.304,-99.5531 680.747,-92.1273 682.024,-102.645 688.304,-99.5531"/>
</g>
<!-- Node23&#45;&gt;Node9 -->
<g id="edge34" class="edge"><title>Node23&#45;&gt;Node9</title>
<path fill="none" stroke="midnightblue" d="M715.108,-139.734C722.676,-129.695 735.251,-113.014 744.744,-100.421"/>
<polygon fill="midnightblue" stroke="midnightblue" points="747.772,-102.219 750.996,-92.1273 742.182,-98.0057 747.772,-102.219"/>
</g>
<!-- Node24&#45;&gt;Node8 -->
<g id="edge37" class="edge"><title>Node24&#45;&gt;Node8</title>
<path fill="none" stroke="midnightblue" d="M413.25,-206.734C401.057,-196.305 380.483,-178.709 365.592,-165.973"/>
<polygon fill="midnightblue" stroke="midnightblue" points="367.462,-162.967 357.587,-159.127 362.912,-168.287 367.462,-162.967"/>
</g>
<!-- Node24&#45;&gt;Node12 -->
<g id="edge36" class="edge"><title>Node24&#45;&gt;Node12</title>
<path fill="none" stroke="midnightblue" d="M424.003,-206.679C425.091,-191.444 428.354,-159.394 437.5,-134 441.714,-122.3 448.573,-110.185 454.563,-100.755"/>
<polygon fill="midnightblue" stroke="midnightblue" points="457.535,-102.606 460.133,-92.3344 451.697,-98.744 457.535,-102.606"/>
</g>
<!-- Node25&#45;&gt;Node2 -->
<g id="edge43" class="edge"><title>Node25&#45;&gt;Node2</title>
<path fill="none" stroke="midnightblue" d="M446.879,-136.804C396.083,-125.725 319.773,-109.08 265.966,-97.3432"/>
<polygon fill="midnightblue" stroke="midnightblue" points="266.708,-93.9229 256.192,-95.2113 265.216,-100.762 266.708,-93.9229"/>
</g>
<!-- Node25&#45;&gt;Node9 -->
<g id="edge42" class="edge"><title>Node25&#45;&gt;Node9</title>
<path fill="none" stroke="midnightblue" d="M554.224,-137.098C597.489,-127.596 659.741,-113.201 713.5,-98 716.673,-97.1027 719.959,-96.121 723.239,-95.1048"/>
<polygon fill="midnightblue" stroke="midnightblue" points="724.487,-98.3805 732.947,-92.0029 722.356,-91.7126 724.487,-98.3805"/>
</g>
<!-- Node25&#45;&gt;Node11 -->
<g id="edge44" class="edge"><title>Node25&#45;&gt;Node11</title>
<path fill="none" stroke="midnightblue" d="M520.371,-134.485C533.145,-124.972 549.685,-111.676 562.5,-98 579.532,-79.8226 595.687,-56.4289 606.6,-39.3708"/>
<polygon fill="midnightblue" stroke="midnightblue" points="609.741,-40.9493 612.096,-30.6193 603.813,-37.2265 609.741,-40.9493"/>
</g>
<!-- Node26 -->
<g id="node26" class="node"><title>Node26</title>
<polygon fill="white" stroke="#bfbfbf" points="511,-73 511,-92 554,-92 554,-73 511,-73"/>
<text text-anchor="middle" x="532.5" y="-80" font-family="Helvetica,sans-Serif" font-size="10.00">deque</text>
</g>
<!-- Node25&#45;&gt;Node26 -->
<g id="edge45" class="edge"><title>Node25&#45;&gt;Node26</title>
<path fill="none" stroke="midnightblue" d="M507.444,-134.396C512.235,-124.662 518.643,-111.646 523.779,-101.214"/>
<polygon fill="midnightblue" stroke="midnightblue" points="526.943,-102.712 528.22,-92.1945 520.663,-99.6203 526.943,-102.712"/>
</g>
<!-- Node27&#45;&gt;Node20 -->
<g id="edge49" class="edge"><title>Node27&#45;&gt;Node20</title>
<path fill="none" stroke="midnightblue" d="M598.175,-391.475C583.12,-381.843 558.384,-366.017 540.463,-354.552"/>
<polygon fill="midnightblue" stroke="midnightblue" points="542.11,-351.45 531.8,-349.009 538.337,-357.347 542.11,-351.45"/>
</g>
<!-- Node27&#45;&gt;Node23 -->
<g id="edge48" class="edge"><title>Node27&#45;&gt;Node23</title>
<path fill="none" stroke="midnightblue" d="M614.839,-391.412C628.743,-355.648 682.219,-218.1 701.51,-168.48"/>
<polygon fill="midnightblue" stroke="midnightblue" points="704.814,-169.641 705.175,-159.052 698.289,-167.104 704.814,-169.641"/>
</g>
<!-- Node28 -->
<g id="node28" class="node"><title>Node28</title>
<g id="a_node28"><a xlink:href="cost__functions_8h.html" target="_top" xlink:title="AR6/InstantOn/math\l/cost_functions.h">
<polygon fill="white" stroke="black" points="661,-324.5 661,-354.5 768,-354.5 768,-324.5 661,-324.5"/>
<text text-anchor="start" x="669" y="-342.5" font-family="Helvetica,sans-Serif" font-size="10.00">AR6/InstantOn/math</text>
<text text-anchor="middle" x="714.5" y="-331.5" font-family="Helvetica,sans-Serif" font-size="10.00">/cost_functions.h</text>
</a>
</g>
</g>
<!-- Node27&#45;&gt;Node28 -->
<g id="edge50" class="edge"><title>Node27&#45;&gt;Node28</title>
<path fill="none" stroke="midnightblue" d="M626.257,-391.475C640.598,-383.191 662.871,-370.325 681.451,-359.591"/>
<polygon fill="midnightblue" stroke="midnightblue" points="683.317,-362.556 690.225,-354.523 679.815,-356.494 683.317,-362.556"/>
</g>
</g>
</svg>
        <g id="navigator" transform="translate(0 0)" fill="#404254">
                <rect fill="#f2f5e9" fill-opacity="0.5" stroke="#606060" stroke-width=".5" x="0" y="0" width="60" height="60"/>
                <use id="zoomplus" xlink:href="#zoomPlus" x="17" y="9" onmousedown="handleZoom(evt,'in')"/>
                <use id="zoomminus" xlink:href="#zoomMin" x="42" y="9" onmousedown="handleZoom(evt,'out')"/>
                <use id="reset" xlink:href="#resetDef" x="30" y="36" onmousedown="handleReset()"/>
                <g id="arrowUp" xlink:href="#dirArrow" transform="translate(30 24)" onmousedown="handlePan(0,-1)">
                  <use xlink:href="#rim" fill="#404040">
                        <set attributeName="fill" to="#808080" begin="arrowUp.mouseover" end="arrowUp.mouseout"/>
                  </use>
                  <path fill="none" stroke="white" stroke-width="1.5" d="M0,-3.0v7 M-2.5,-0.5L0,-3.0L2.5,-0.5"/>
                </g>
                <g id="arrowRight" xlink:href="#dirArrow" transform="rotate(90) translate(36 -43)" onmousedown="handlePan(1,0)">
                  <use xlink:href="#rim" fill="#404040">
                        <set attributeName="fill" to="#808080" begin="arrowRight.mouseover" end="arrowRight.mouseout"/>
                  </use>
                  <path fill="none" stroke="white" stroke-width="1.5" d="M0,-3.0v7 M-2.5,-0.5L0,-3.0L2.5,-0.5"/>
                </g>
                <g id="arrowDown" xlink:href="#dirArrow" transform="rotate(180) translate(-30 -48)" onmousedown="handlePan(0,1)">
                  <use xlink:href="#rim" fill="#404040">
                        <set attributeName="fill" to="#808080" begin="arrowDown.mouseover" end="arrowDown.mouseout"/>
                  </use>
                  <path fill="none" stroke="white" stroke-width="1.5" d="M0,-3.0v7 M-2.5,-0.5L0,-3.0L2.5,-0.5"/>
                </g>
                <g id="arrowLeft" xlink:href="#dirArrow" transform="rotate(270) translate(-36 17)" onmousedown="handlePan(-1,0)">
                  <use xlink:href="#rim" fill="#404040">
                        <set attributeName="fill" to="#808080" begin="arrowLeft.mouseover" end="arrowLeft.mouseout"/>
                  </use>
                  <path fill="none" stroke="white" stroke-width="1.5" d="M0,-3.0v7 M-2.5,-0.5L0,-3.0L2.5,-0.5"/>
                </g>
        </g>
        <svg viewBox="0 0 15 15" width="100%" height="30px" preserveAspectRatio="xMaxYMin meet">
         <g id="arrow_out" transform="scale(0.3 0.3)">
          <a xlink:href="pnp__solver_8h__incl_org.svg" target="_base">
           <rect id="button" ry="5" rx="5" y="6" x="6" height="38" width="38"
                fill="#f2f5e9" fill-opacity="0.5" stroke="#606060" stroke-width="1.0"/>
           <path id="arrow"
             d="M 11.500037,31.436501 C 11.940474,20.09759 22.043105,11.32322 32.158766,21.979434 L 37.068811,17.246167 C 37.068811,17.246167 37.088388,32 37.088388,32 L 22.160133,31.978069 C 22.160133,31.978069 26.997745,27.140456 26.997745,27.140456 C 18.528582,18.264221 13.291696,25.230495 11.500037,31.436501 z"
             style="fill:#404040;"/>
          </a>
         </g>
        </svg>
</svg>
