<?xml version="1.0" encoding="UTF-8" standalone="no"?>
<!DOCTYPE svg PUBLIC "-//W3C//DTD SVG 1.1//EN"
 "http://www.w3.org/Graphics/SVG/1.1/DTD/svg11.dtd">
<!-- Generated by graphviz version 2.38.0 (20140413.2041)
 -->
<!-- Title: /bitrise/src/Source/AR6/InstantOn/include/AR6/InstantOn/cv/pnp_estimation/pnp_solver.h Pages: 1 -->
<svg width="134pt" height="150pt"
 viewBox="0.00 0.00 134.00 150.00" xmlns="http://www.w3.org/2000/svg" xmlns:xlink="http://www.w3.org/1999/xlink">
<g id="graph0" class="graph" transform="scale(1 1) rotate(0) translate(4 146)">
<title>/bitrise/src/Source/AR6/InstantOn/include/AR6/InstantOn/cv/pnp_estimation/pnp_solver.h</title>
<polygon fill="white" stroke="none" points="-4,4 -4,-146 130,-146 130,4 -4,4"/>
<!-- Node1 -->
<g id="node1" class="node"><title>Node1</title>
<polygon fill="#bfbfbf" stroke="black" points="0.5,-89.5 0.5,-141.5 125.5,-141.5 125.5,-89.5 0.5,-89.5"/>
<text text-anchor="start" x="8.5" y="-129.5" font-family="Helvetica,sans-Serif" font-size="10.00">/bitrise/src/Source</text>
<text text-anchor="start" x="8.5" y="-118.5" font-family="Helvetica,sans-Serif" font-size="10.00">/AR6/InstantOn/include</text>
<text text-anchor="start" x="8.5" y="-107.5" font-family="Helvetica,sans-Serif" font-size="10.00">/AR6/InstantOn/cv/pnp</text>
<text text-anchor="middle" x="63" y="-96.5" font-family="Helvetica,sans-Serif" font-size="10.00">_estimation/pnp_solver.h</text>
</g>
<!-- Node2 -->
<g id="node2" class="node"><title>Node2</title>
<g id="a_node2"><a xlink:href="robust__pnp_8h.html" target="_top" xlink:title="/bitrise/src/Source\l/AR6/InstantOn/include\l/AR6/InstantOn/cv/pnp\l_estimation/robust_pnp.h">
<polygon fill="white" stroke="black" points="0,-0.5 0,-52.5 126,-52.5 126,-0.5 0,-0.5"/>
<text text-anchor="start" x="8" y="-40.5" font-family="Helvetica,sans-Serif" font-size="10.00">/bitrise/src/Source</text>
<text text-anchor="start" x="8" y="-29.5" font-family="Helvetica,sans-Serif" font-size="10.00">/AR6/InstantOn/include</text>
<text text-anchor="start" x="8" y="-18.5" font-family="Helvetica,sans-Serif" font-size="10.00">/AR6/InstantOn/cv/pnp</text>
<text text-anchor="middle" x="63" y="-7.5" font-family="Helvetica,sans-Serif" font-size="10.00">_estimation/robust_pnp.h</text>
</a>
</g>
</g>
<!-- Node1&#45;&gt;Node2 -->
<g id="edge1" class="edge"><title>Node1&#45;&gt;Node2</title>
<path fill="none" stroke="midnightblue" d="M63,-79.1908C63,-70.2824 63,-60.8986 63,-52.6075"/>
<polygon fill="midnightblue" stroke="midnightblue" points="59.5001,-79.336 63,-89.336 66.5001,-79.336 59.5001,-79.336"/>
</g>
</g>
</svg>
