<?xml version="1.0" encoding="UTF-8" standalone="no"?>
<!DOCTYPE svg PUBLIC "-//W3C//DTD SVG 1.1//EN"
 "http://www.w3.org/Graphics/SVG/1.1/DTD/svg11.dtd">
<!-- Generated by graphviz version 2.38.0 (20140413.2041)
 -->
<!-- Title: /bitrise/src/Source/AR6/InstantOn/include/AR6/InstantOn/math/polynomial.h Pages: 1 -->
<svg width="377pt" height="173pt"
 viewBox="0.00 0.00 376.50 173.00" xmlns="http://www.w3.org/2000/svg" xmlns:xlink="http://www.w3.org/1999/xlink">
<g id="graph0" class="graph" transform="scale(1 1) rotate(0) translate(4 169)">
<title>/bitrise/src/Source/AR6/InstantOn/include/AR6/InstantOn/math/polynomial.h</title>
<polygon fill="white" stroke="none" points="-4,4 -4,-169 372.5,-169 372.5,4 -4,4"/>
<!-- Node1 -->
<g id="node1" class="node"><title>Node1</title>
<polygon fill="#bfbfbf" stroke="black" points="107.5,-123.5 107.5,-164.5 274.5,-164.5 274.5,-123.5 107.5,-123.5"/>
<text text-anchor="start" x="115.5" y="-152.5" font-family="Helvetica,sans-Serif" font-size="10.00">/bitrise/src/Source</text>
<text text-anchor="start" x="115.5" y="-141.5" font-family="Helvetica,sans-Serif" font-size="10.00">/AR6/InstantOn/include</text>
<text text-anchor="middle" x="191" y="-130.5" font-family="Helvetica,sans-Serif" font-size="10.00">/AR6/InstantOn/math/polynomial.h</text>
</g>
<!-- Node2 -->
<g id="node2" class="node"><title>Node2</title>
<g id="a_node2"><a xlink:href="math__utils_8h.html" target="_top" xlink:title="math_utils.h">
<polygon fill="white" stroke="black" points="64,-67.5 64,-86.5 134,-86.5 134,-67.5 64,-67.5"/>
<text text-anchor="middle" x="99" y="-74.5" font-family="Helvetica,sans-Serif" font-size="10.00">math_utils.h</text>
</a>
</g>
</g>
<!-- Node1&#45;&gt;Node2 -->
<g id="edge1" class="edge"><title>Node1&#45;&gt;Node2</title>
<path fill="none" stroke="midnightblue" d="M163.397,-123.498C149.292,-113.532 132.423,-101.614 119.49,-92.4764"/>
<polygon fill="midnightblue" stroke="midnightblue" points="121.433,-89.5643 111.247,-86.6525 117.394,-95.2814 121.433,-89.5643"/>
</g>
<!-- Node4 -->
<g id="node4" class="node"><title>Node4</title>
<polygon fill="white" stroke="#bfbfbf" points="62,-0.5 62,-30.5 164,-30.5 164,-0.5 62,-0.5"/>
<text text-anchor="start" x="70" y="-18.5" font-family="Helvetica,sans-Serif" font-size="10.00">artvision/framework</text>
<text text-anchor="middle" x="113" y="-7.5" font-family="Helvetica,sans-Serif" font-size="10.00">/error.h</text>
</g>
<!-- Node1&#45;&gt;Node4 -->
<g id="edge8" class="edge"><title>Node1&#45;&gt;Node4</title>
<path fill="none" stroke="midnightblue" d="M178.812,-123.234C164.817,-100.537 141.893,-63.3583 127.129,-39.4139"/>
<polygon fill="midnightblue" stroke="midnightblue" points="129.948,-37.3179 121.721,-30.6429 123.99,-40.9919 129.948,-37.3179"/>
</g>
<!-- Node5 -->
<g id="node5" class="node"><title>Node5</title>
<g id="a_node5"><a xlink:href="indexing_8h.html" target="_top" xlink:title="indexing.h">
<polygon fill="white" stroke="black" points="190.5,-67.5 190.5,-86.5 251.5,-86.5 251.5,-67.5 190.5,-67.5"/>
<text text-anchor="middle" x="221" y="-74.5" font-family="Helvetica,sans-Serif" font-size="10.00">indexing.h</text>
</a>
</g>
</g>
<!-- Node1&#45;&gt;Node5 -->
<g id="edge4" class="edge"><title>Node1&#45;&gt;Node5</title>
<path fill="none" stroke="midnightblue" d="M200.001,-123.498C204.07,-114.682 208.844,-104.339 212.811,-95.7432"/>
<polygon fill="midnightblue" stroke="midnightblue" points="215.994,-97.1988 217.007,-86.6525 209.638,-94.2654 215.994,-97.1988"/>
</g>
<!-- Node9 -->
<g id="node9" class="node"><title>Node9</title>
<polygon fill="white" stroke="#bfbfbf" points="269.5,-67.5 269.5,-86.5 312.5,-86.5 312.5,-67.5 269.5,-67.5"/>
<text text-anchor="middle" x="291" y="-74.5" font-family="Helvetica,sans-Serif" font-size="10.00">deque</text>
</g>
<!-- Node1&#45;&gt;Node9 -->
<g id="edge9" class="edge"><title>Node1&#45;&gt;Node9</title>
<path fill="none" stroke="midnightblue" d="M221.003,-123.498C236.483,-113.436 255.023,-101.385 269.133,-92.2136"/>
<polygon fill="midnightblue" stroke="midnightblue" points="271.211,-95.037 277.688,-86.6525 267.397,-89.1679 271.211,-95.037"/>
</g>
<!-- Node3 -->
<g id="node3" class="node"><title>Node3</title>
<polygon fill="white" stroke="#bfbfbf" points="0,-6 0,-25 44,-25 44,-6 0,-6"/>
<text text-anchor="middle" x="22" y="-13" font-family="Helvetica,sans-Serif" font-size="10.00">cmath</text>
</g>
<!-- Node2&#45;&gt;Node3 -->
<g id="edge2" class="edge"><title>Node2&#45;&gt;Node3</title>
<path fill="none" stroke="midnightblue" d="M87.9678,-67.4751C75.7316,-58.0199 55.7715,-42.5961 41.0069,-31.1871"/>
<polygon fill="midnightblue" stroke="midnightblue" points="43.0647,-28.3541 33.0118,-25.0091 38.7845,-33.8931 43.0647,-28.3541"/>
</g>
<!-- Node2&#45;&gt;Node4 -->
<g id="edge3" class="edge"><title>Node2&#45;&gt;Node4</title>
<path fill="none" stroke="midnightblue" d="M101.006,-67.4751C102.672,-60.3957 105.125,-49.9705 107.379,-40.3896"/>
<polygon fill="midnightblue" stroke="midnightblue" points="110.817,-41.0588 109.7,-30.523 104.003,-39.4555 110.817,-41.0588"/>
</g>
<!-- Node6 -->
<g id="node6" class="node"><title>Node6</title>
<polygon fill="white" stroke="#bfbfbf" points="182,-6 182,-25 234,-25 234,-6 182,-6"/>
<text text-anchor="middle" x="208" y="-13" font-family="Helvetica,sans-Serif" font-size="10.00">memory</text>
</g>
<!-- Node5&#45;&gt;Node6 -->
<g id="edge5" class="edge"><title>Node5&#45;&gt;Node6</title>
<path fill="none" stroke="midnightblue" d="M219.137,-67.4751C217.284,-58.9919 214.381,-45.7043 212.003,-34.8222"/>
<polygon fill="midnightblue" stroke="midnightblue" points="215.413,-34.0315 209.859,-25.0091 208.574,-35.5257 215.413,-34.0315"/>
</g>
<!-- Node7 -->
<g id="node7" class="node"><title>Node7</title>
<polygon fill="white" stroke="#bfbfbf" points="252.5,-6 252.5,-25 301.5,-25 301.5,-6 252.5,-6"/>
<text text-anchor="middle" x="277" y="-13" font-family="Helvetica,sans-Serif" font-size="10.00">cstddef</text>
</g>
<!-- Node5&#45;&gt;Node7 -->
<g id="edge6" class="edge"><title>Node5&#45;&gt;Node7</title>
<path fill="none" stroke="midnightblue" d="M229.023,-67.4751C237.59,-58.3733 251.361,-43.741 261.957,-32.483"/>
<polygon fill="midnightblue" stroke="midnightblue" points="264.686,-34.6899 268.991,-25.0091 259.589,-29.8923 264.686,-34.6899"/>
</g>
<!-- Node8 -->
<g id="node8" class="node"><title>Node8</title>
<polygon fill="white" stroke="#bfbfbf" points="319.5,-6 319.5,-25 368.5,-25 368.5,-6 319.5,-6"/>
<text text-anchor="middle" x="344" y="-13" font-family="Helvetica,sans-Serif" font-size="10.00">string.h</text>
</g>
<!-- Node5&#45;&gt;Node8 -->
<g id="edge7" class="edge"><title>Node5&#45;&gt;Node8</title>
<path fill="none" stroke="midnightblue" d="M238.623,-67.4751C259.174,-57.5338 293.364,-40.9947 317.207,-29.461"/>
<polygon fill="midnightblue" stroke="midnightblue" points="318.932,-32.5145 326.41,-25.0091 315.884,-26.2131 318.932,-32.5145"/>
</g>
</g>
</svg>
