<?xml version="1.0" encoding="UTF-8" standalone="no"?>
<!DOCTYPE svg PUBLIC "-//W3C//DTD SVG 1.1//EN"
 "http://www.w3.org/Graphics/SVG/1.1/DTD/svg11.dtd">
<!-- Generated by graphviz version 2.38.0 (20140413.2041)
 -->
<!-- Title: /bitrise/src/Source/AR6/ARUtil/profile.c Pages: 1 -->
<svg width="258pt" height="95pt"
 viewBox="0.00 0.00 258.00 95.00" xmlns="http://www.w3.org/2000/svg" xmlns:xlink="http://www.w3.org/1999/xlink">
<g id="graph0" class="graph" transform="scale(1 1) rotate(0) translate(4 91)">
<title>/bitrise/src/Source/AR6/ARUtil/profile.c</title>
<polygon fill="white" stroke="none" points="-4,4 -4,-91 254,-91 254,4 -4,4"/>
<!-- Node1 -->
<g id="node1" class="node"><title>Node1</title>
<polygon fill="#bfbfbf" stroke="black" points="40.5,-56.5 40.5,-86.5 149.5,-86.5 149.5,-56.5 40.5,-56.5"/>
<text text-anchor="start" x="48.5" y="-74.5" font-family="Helvetica,sans-Serif" font-size="10.00">/bitrise/src/Source</text>
<text text-anchor="middle" x="95" y="-63.5" font-family="Helvetica,sans-Serif" font-size="10.00">/AR6/ARUtil/profile.c</text>
</g>
<!-- Node2 -->
<g id="node2" class="node"><title>Node2</title>
<polygon fill="white" stroke="#bfbfbf" points="0,-0.5 0,-19.5 46,-19.5 46,-0.5 0,-0.5"/>
<text text-anchor="middle" x="23" y="-7.5" font-family="Helvetica,sans-Serif" font-size="10.00">stdio.h</text>
</g>
<!-- Node1&#45;&gt;Node2 -->
<g id="edge1" class="edge"><title>Node1&#45;&gt;Node2</title>
<path fill="none" stroke="midnightblue" d="M77.937,-56.3993C66.9352,-47.3076 52.6349,-35.4899 41.3823,-26.1909"/>
<polygon fill="midnightblue" stroke="midnightblue" points="43.4147,-23.33 33.4766,-19.6578 38.9556,-28.726 43.4147,-23.33"/>
</g>
<!-- Node3 -->
<g id="node3" class="node"><title>Node3</title>
<polygon fill="white" stroke="#bfbfbf" points="64,-0.5 64,-19.5 126,-19.5 126,-0.5 64,-0.5"/>
<text text-anchor="middle" x="95" y="-7.5" font-family="Helvetica,sans-Serif" font-size="10.00">sys/time.h</text>
</g>
<!-- Node1&#45;&gt;Node3 -->
<g id="edge2" class="edge"><title>Node1&#45;&gt;Node3</title>
<path fill="none" stroke="midnightblue" d="M95,-56.3993C95,-48.4664 95,-38.458 95,-29.8583"/>
<polygon fill="midnightblue" stroke="midnightblue" points="98.5001,-29.6577 95,-19.6578 91.5001,-29.6578 98.5001,-29.6577"/>
</g>
<!-- Node4 -->
<g id="node4" class="node"><title>Node4</title>
<g id="a_node4"><a xlink:href="profile_8h.html" target="_top" xlink:title="AR6/ARUtil/profile.h">
<polygon fill="white" stroke="black" points="144,-0.5 144,-19.5 250,-19.5 250,-0.5 144,-0.5"/>
<text text-anchor="middle" x="197" y="-7.5" font-family="Helvetica,sans-Serif" font-size="10.00">AR6/ARUtil/profile.h</text>
</a>
</g>
</g>
<!-- Node1&#45;&gt;Node4 -->
<g id="edge3" class="edge"><title>Node1&#45;&gt;Node4</title>
<path fill="none" stroke="midnightblue" d="M119.173,-56.3993C135.522,-46.8619 157.015,-34.3248 173.27,-24.8422"/>
<polygon fill="midnightblue" stroke="midnightblue" points="175.284,-27.7198 182.158,-19.6578 171.757,-21.6733 175.284,-27.7198"/>
</g>
</g>
</svg>
