<?xml version="1.0" encoding="UTF-8" standalone="no"?>
<!DOCTYPE svg PUBLIC "-//W3C//DTD SVG 1.1//EN"
 "http://www.w3.org/Graphics/SVG/1.1/DTD/svg11.dtd">
<!-- Generated by graphviz version 2.38.0 (20140413.2041)
 -->
<!-- Title: /bitrise/src/Source/AR6/InstantOn/include/AR6/InstantOn/extensions/pyramid_filter.h Pages: 1 -->
<!--zoomable 564 -->
<svg id="main" version="1.1" xmlns="http://www.w3.org/2000/svg" xmlns:xlink="http://www.w3.org/1999/xlink" xml:space="preserve" onload="init(evt)">
<style type="text/css"><![CDATA[
.edge:hover path { stroke: red; }
.edge:hover polygon { stroke: red; fill: red; }
]]></style>
<script type="text/javascript"><![CDATA[
var edges = document.getElementsByTagName('g');
if (edges && edges.length) {
  for (var i=0;i<edges.length;i++) {
    if (edges[i].id.substr(0,4)=='edge') {
      edges[i].setAttribute('class','edge');
    }
  }
}
]]></script>
        <defs>
                <circle id="rim" cx="0" cy="0" r="7"/>
                <circle id="rim2" cx="0" cy="0" r="3.5"/>
                <g id="zoomPlus">
                        <use xlink:href="#rim" fill="#404040">
                                <set attributeName="fill" to="#808080" begin="zoomplus.mouseover" end="zoomplus.mouseout"/>
                        </use>
                        <path d="M-4,0h8M0,-4v8" fill="none" stroke="white" stroke-width="1.5" pointer-events="none"/>
                </g>
                <g id="zoomMin">
                        <use xlink:href="#rim" fill="#404040">
                                <set attributeName="fill" to="#808080" begin="zoomminus.mouseover" end="zoomminus.mouseout"/>
                        </use>
                        <path d="M-4,0h8" fill="none" stroke="white" stroke-width="1.5" pointer-events="none"/>
                </g>
                <g id="dirArrow">
                        <path fill="none" stroke="white" stroke-width="1.5" d="M0,-3.0v7 M-2.5,-0.5L0,-3.0L2.5,-0.5"/>
                </g>
               <g id="resetDef">
                       <use xlink:href="#rim2" fill="#404040">
                               <set attributeName="fill" to="#808080" begin="reset.mouseover" end="reset.mouseout"/>
                       </use>
               </g>
        </defs>

<script type="text/javascript">
var viewWidth = 1188;
var viewHeight = 564;
var sectionId = 'dynsection-0';
</script>
<script xlink:href="svgpan.js"/>
<svg id="graph" class="graph">
<g id="viewport">
<title>/bitrise/src/Source/AR6/InstantOn/include/AR6/InstantOn/extensions/pyramid_filter.h</title>
<polygon fill="white" stroke="none" points="-4,4 -4,-560 1184,-560 1184,4 -4,4"/>
<!-- Node1 -->
<g id="node1" class="node"><title>Node1</title>
<polygon fill="#bfbfbf" stroke="black" points="916.5,-503.5 916.5,-555.5 1051.5,-555.5 1051.5,-503.5 916.5,-503.5"/>
<text text-anchor="start" x="924.5" y="-543.5" font-family="Helvetica,sans-Serif" font-size="10.00">/bitrise/src/Source</text>
<text text-anchor="start" x="924.5" y="-532.5" font-family="Helvetica,sans-Serif" font-size="10.00">/AR6/InstantOn/include</text>
<text text-anchor="start" x="924.5" y="-521.5" font-family="Helvetica,sans-Serif" font-size="10.00">/AR6/InstantOn/extensions</text>
<text text-anchor="middle" x="984" y="-510.5" font-family="Helvetica,sans-Serif" font-size="10.00">/pyramid_filter.h</text>
</g>
<!-- Node2 -->
<g id="node2" class="node"><title>Node2</title>
<g id="a_node2"><a xlink:href="transform__filter_8h.html" target="_top" xlink:title="AR6/InstantOn/framework\l/transform_filter.h">
<polygon fill="white" stroke="black" points="538.5,-436.5 538.5,-466.5 669.5,-466.5 669.5,-436.5 538.5,-436.5"/>
<text text-anchor="start" x="546.5" y="-454.5" font-family="Helvetica,sans-Serif" font-size="10.00">AR6/InstantOn/framework</text>
<text text-anchor="middle" x="604" y="-443.5" font-family="Helvetica,sans-Serif" font-size="10.00">/transform_filter.h</text>
</a>
</g>
</g>
<!-- Node1&#45;&gt;Node2 -->
<g id="edge1" class="edge"><title>Node1&#45;&gt;Node2</title>
<path fill="none" stroke="midnightblue" d="M916.064,-514.913C849.63,-501.626 748.669,-481.434 679.695,-467.639"/>
<polygon fill="midnightblue" stroke="midnightblue" points="680.251,-464.181 669.759,-465.652 678.878,-471.045 680.251,-464.181"/>
</g>
<!-- Node34 -->
<g id="node34" class="node"><title>Node34</title>
<g id="a_node34"><a xlink:href="object__pool_8h.html" target="_top" xlink:title="AR6/InstantOn/framework\l/object_pool.h">
<polygon fill="white" stroke="black" points="855.5,-246.5 855.5,-276.5 986.5,-276.5 986.5,-246.5 855.5,-246.5"/>
<text text-anchor="start" x="863.5" y="-264.5" font-family="Helvetica,sans-Serif" font-size="10.00">AR6/InstantOn/framework</text>
<text text-anchor="middle" x="921" y="-253.5" font-family="Helvetica,sans-Serif" font-size="10.00">/object_pool.h</text>
</a>
</g>
</g>
<!-- Node1&#45;&gt;Node34 -->
<g id="edge55" class="edge"><title>Node1&#45;&gt;Node34</title>
<path fill="none" stroke="midnightblue" d="M1006.66,-503.206C1041.86,-460.719 1101.44,-373.719 1059,-313 1044.48,-292.232 1020.46,-279.977 996.493,-272.756"/>
<polygon fill="midnightblue" stroke="midnightblue" points="997.184,-269.316 986.614,-270.049 995.334,-276.068 997.184,-269.316"/>
</g>
<!-- Node36 -->
<g id="node36" class="node"><title>Node36</title>
<g id="a_node36"><a xlink:href="pyramid__sample_8h.html" target="_top" xlink:title="AR6/InstantOn/cv/pyramid\l/pyramid_sample.h">
<polygon fill="white" stroke="black" points="917.5,-313.5 917.5,-343.5 1050.5,-343.5 1050.5,-313.5 917.5,-313.5"/>
<text text-anchor="start" x="925.5" y="-331.5" font-family="Helvetica,sans-Serif" font-size="10.00">AR6/InstantOn/cv/pyramid</text>
<text text-anchor="middle" x="984" y="-320.5" font-family="Helvetica,sans-Serif" font-size="10.00">/pyramid_sample.h</text>
</a>
</g>
</g>
<!-- Node1&#45;&gt;Node36 -->
<g id="edge61" class="edge"><title>Node1&#45;&gt;Node36</title>
<path fill="none" stroke="midnightblue" d="M984,-503.297C984,-464.84 984,-391.981 984,-353.968"/>
<polygon fill="midnightblue" stroke="midnightblue" points="987.5,-353.797 984,-343.797 980.5,-353.797 987.5,-353.797"/>
</g>
<!-- Node3 -->
<g id="node3" class="node"><title>Node3</title>
<g id="a_node3"><a xlink:href="filter_8h.html" target="_top" xlink:title="filter.h">
<polygon fill="white" stroke="black" points="582,-380.5 582,-399.5 626,-399.5 626,-380.5 582,-380.5"/>
<text text-anchor="middle" x="604" y="-387.5" font-family="Helvetica,sans-Serif" font-size="10.00">filter.h</text>
</a>
</g>
</g>
<!-- Node2&#45;&gt;Node3 -->
<g id="edge2" class="edge"><title>Node2&#45;&gt;Node3</title>
<path fill="none" stroke="midnightblue" d="M604,-436.399C604,-428.466 604,-418.458 604,-409.858"/>
<polygon fill="midnightblue" stroke="midnightblue" points="607.5,-409.658 604,-399.658 600.5,-409.658 607.5,-409.658"/>
</g>
<!-- Node4 -->
<g id="node4" class="node"><title>Node4</title>
<g id="a_node4"><a xlink:href="container_8h.html" target="_top" xlink:title="container.h">
<polygon fill="white" stroke="black" points="229.5,-319 229.5,-338 294.5,-338 294.5,-319 229.5,-319"/>
<text text-anchor="middle" x="262" y="-326" font-family="Helvetica,sans-Serif" font-size="10.00">container.h</text>
</a>
</g>
</g>
<!-- Node2&#45;&gt;Node4 -->
<g id="edge54" class="edge"><title>Node2&#45;&gt;Node4</title>
<path fill="none" stroke="midnightblue" d="M564.099,-436.383C496.193,-412.358 359.356,-363.945 295.83,-341.469"/>
<polygon fill="midnightblue" stroke="midnightblue" points="296.88,-338.128 286.285,-338.092 294.545,-344.727 296.88,-338.128"/>
</g>
<!-- Node3&#45;&gt;Node4 -->
<g id="edge3" class="edge"><title>Node3&#45;&gt;Node4</title>
<path fill="none" stroke="midnightblue" d="M581.824,-385.142C525.886,-375.41 378.281,-349.73 304.807,-336.947"/>
<polygon fill="midnightblue" stroke="midnightblue" points="304.976,-333.424 294.524,-335.158 303.776,-340.321 304.976,-333.424"/>
</g>
<!-- Node13 -->
<g id="node13" class="node"><title>Node13</title>
<polygon fill="white" stroke="#bfbfbf" points="1101,-6 1101,-25 1145,-25 1145,-6 1101,-6"/>
<text text-anchor="middle" x="1123" y="-13" font-family="Helvetica,sans-Serif" font-size="10.00">vector</text>
</g>
<!-- Node3&#45;&gt;Node13 -->
<g id="edge50" class="edge"><title>Node3&#45;&gt;Node13</title>
<path fill="none" stroke="midnightblue" d="M626.227,-388.959C732.082,-388.182 1180,-378.065 1180,-262.5 1180,-262.5 1180,-262.5 1180,-137.5 1180,-97.0899 1153.66,-55.7056 1136.79,-33.3451"/>
<polygon fill="midnightblue" stroke="midnightblue" points="1139.37,-30.9597 1130.45,-25.2384 1133.85,-35.2719 1139.37,-30.9597"/>
</g>
<!-- Node17 -->
<g id="node17" class="node"><title>Node17</title>
<polygon fill="white" stroke="#bfbfbf" points="126,-6 126,-25 178,-25 178,-6 126,-6"/>
<text text-anchor="middle" x="152" y="-13" font-family="Helvetica,sans-Serif" font-size="10.00">memory</text>
</g>
<!-- Node3&#45;&gt;Node17 -->
<g id="edge52" class="edge"><title>Node3&#45;&gt;Node17</title>
<path fill="none" stroke="midnightblue" d="M581.787,-389.181C472.817,-389.489 0,-383.832 0,-262.5 0,-262.5 0,-262.5 0,-137.5 0,-78.3907 71.2296,-43.5061 116.168,-27.3794"/>
<polygon fill="midnightblue" stroke="midnightblue" points="117.554,-30.6039 125.87,-24.0399 115.276,-23.985 117.554,-30.6039"/>
</g>
<!-- Node23 -->
<g id="node23" class="node"><title>Node23</title>
<polygon fill="white" stroke="#bfbfbf" points="212.5,-252 212.5,-271 247.5,-271 247.5,-252 212.5,-252"/>
<text text-anchor="middle" x="230" y="-259" font-family="Helvetica,sans-Serif" font-size="10.00">map</text>
</g>
<!-- Node3&#45;&gt;Node23 -->
<g id="edge53" class="edge"><title>Node3&#45;&gt;Node23</title>
<path fill="none" stroke="midnightblue" d="M596.946,-380.323C581.993,-362.166 547.164,-321.172 531,-313 421.387,-257.584 373.904,-314.672 257,-277 255.576,-276.541 254.138,-276.008 252.708,-275.422"/>
<polygon fill="midnightblue" stroke="midnightblue" points="254.114,-272.215 243.586,-271.031 251.078,-278.522 254.114,-272.215"/>
</g>
<!-- Node24 -->
<g id="node24" class="node"><title>Node24</title>
<g id="a_node24"><a xlink:href="thread_8h.html" target="_top" xlink:title="thread.h">
<polygon fill="white" stroke="black" points="578,-319 578,-338 630,-338 630,-319 578,-319"/>
<text text-anchor="middle" x="604" y="-326" font-family="Helvetica,sans-Serif" font-size="10.00">thread.h</text>
</a>
</g>
</g>
<!-- Node3&#45;&gt;Node24 -->
<g id="edge33" class="edge"><title>Node3&#45;&gt;Node24</title>
<path fill="none" stroke="midnightblue" d="M604,-380.475C604,-372.08 604,-358.981 604,-348.163"/>
<polygon fill="midnightblue" stroke="midnightblue" points="607.5,-348.009 604,-338.009 600.5,-348.009 607.5,-348.009"/>
</g>
<!-- Node27 -->
<g id="node27" class="node"><title>Node27</title>
<g id="a_node27"><a xlink:href="wait__queue_8h.html" target="_top" xlink:title="wait_queue.h">
<polygon fill="white" stroke="black" points="690,-190.5 690,-209.5 764,-209.5 764,-190.5 690,-190.5"/>
<text text-anchor="middle" x="727" y="-197.5" font-family="Helvetica,sans-Serif" font-size="10.00">wait_queue.h</text>
</a>
</g>
</g>
<!-- Node3&#45;&gt;Node27 -->
<g id="edge36" class="edge"><title>Node3&#45;&gt;Node27</title>
<path fill="none" stroke="midnightblue" d="M625.315,-380.35C641.284,-372.88 662.604,-360.655 676,-344 706.335,-306.286 719.392,-249.102 724.35,-219.783"/>
<polygon fill="midnightblue" stroke="midnightblue" points="727.841,-220.11 725.918,-209.691 720.924,-219.035 727.841,-220.11"/>
</g>
<!-- Node31 -->
<g id="node31" class="node"><title>Node31</title>
<g id="a_node31"><a xlink:href="lockfree__queue_8h.html" target="_top" xlink:title="lockfree_queue.h">
<polygon fill="white" stroke="black" points="782.5,-190.5 782.5,-209.5 873.5,-209.5 873.5,-190.5 782.5,-190.5"/>
<text text-anchor="middle" x="828" y="-197.5" font-family="Helvetica,sans-Serif" font-size="10.00">lockfree_queue.h</text>
</a>
</g>
</g>
<!-- Node3&#45;&gt;Node31 -->
<g id="edge43" class="edge"><title>Node3&#45;&gt;Node31</title>
<path fill="none" stroke="midnightblue" d="M626.348,-381.465C646.743,-373.932 677.107,-361.027 700,-344 750.178,-306.678 795.582,-247.217 816.24,-218.141"/>
<polygon fill="midnightblue" stroke="midnightblue" points="819.187,-220.034 822.052,-209.834 813.451,-216.021 819.187,-220.034"/>
</g>
<!-- Node32 -->
<g id="node32" class="node"><title>Node32</title>
<g id="a_node32"><a xlink:href="image_8h.html" target="_top" xlink:title="image.h">
<polygon fill="white" stroke="black" points="502.5,-67.5 502.5,-86.5 553.5,-86.5 553.5,-67.5 502.5,-67.5"/>
<text text-anchor="middle" x="528" y="-74.5" font-family="Helvetica,sans-Serif" font-size="10.00">image.h</text>
</a>
</g>
</g>
<!-- Node3&#45;&gt;Node32 -->
<g id="edge46" class="edge"><title>Node3&#45;&gt;Node32</title>
<path fill="none" stroke="midnightblue" d="M612.359,-380.401C620.266,-371.826 631.945,-357.956 639,-344 655.98,-310.411 662,-300.137 662,-262.5 662,-262.5 662,-262.5 662,-199 662,-144.56 600.323,-108.295 560.657,-90.601"/>
<polygon fill="midnightblue" stroke="midnightblue" points="561.911,-87.3305 551.341,-86.6032 559.15,-93.7632 561.911,-87.3305"/>
</g>
<!-- Node33 -->
<g id="node33" class="node"><title>Node33</title>
<polygon fill="white" stroke="#bfbfbf" points="492,-319 492,-338 522,-338 522,-319 492,-319"/>
<text text-anchor="middle" x="507" y="-326" font-family="Helvetica,sans-Serif" font-size="10.00">set</text>
</g>
<!-- Node3&#45;&gt;Node33 -->
<g id="edge51" class="edge"><title>Node3&#45;&gt;Node33</title>
<path fill="none" stroke="midnightblue" d="M590.102,-380.475C574.328,-370.799 548.363,-354.872 529.651,-343.394"/>
<polygon fill="midnightblue" stroke="midnightblue" points="531.226,-340.254 520.872,-338.009 527.566,-346.221 531.226,-340.254"/>
</g>
<!-- Node5 -->
<g id="node5" class="node"><title>Node5</title>
<g id="a_node5"><a xlink:href="sample_8h.html" target="_top" xlink:title="sample.h">
<polygon fill="white" stroke="black" points="266,-252 266,-271 322,-271 322,-252 266,-252"/>
<text text-anchor="middle" x="294" y="-259" font-family="Helvetica,sans-Serif" font-size="10.00">sample.h</text>
</a>
</g>
</g>
<!-- Node4&#45;&gt;Node5 -->
<g id="edge4" class="edge"><title>Node4&#45;&gt;Node5</title>
<path fill="none" stroke="midnightblue" d="M266.316,-318.734C271.162,-308.89 279.152,-292.66 285.306,-280.159"/>
<polygon fill="midnightblue" stroke="midnightblue" points="288.476,-281.645 289.753,-271.127 282.196,-278.553 288.476,-281.645"/>
</g>
<!-- Node14 -->
<g id="node14" class="node"><title>Node14</title>
<polygon fill="white" stroke="#bfbfbf" points="218,-67.5 218,-86.5 270,-86.5 270,-67.5 218,-67.5"/>
<text text-anchor="middle" x="244" y="-74.5" font-family="Helvetica,sans-Serif" font-size="10.00">assert.h</text>
</g>
<!-- Node4&#45;&gt;Node14 -->
<g id="edge28" class="edge"><title>Node4&#45;&gt;Node14</title>
<path fill="none" stroke="midnightblue" d="M240.424,-318.957C222.082,-310.703 196.214,-296.569 180,-277 142.663,-231.936 143.621,-211.55 133,-154 130.5,-140.451 125.302,-134.427 133,-123 149.542,-98.4445 182.02,-87.2835 207.59,-82.2133"/>
<polygon fill="midnightblue" stroke="midnightblue" points="208.458,-85.6148 217.706,-80.4454 207.253,-78.7193 208.458,-85.6148"/>
</g>
<!-- Node4&#45;&gt;Node17 -->
<g id="edge32" class="edge"><title>Node4&#45;&gt;Node17</title>
<path fill="none" stroke="midnightblue" d="M229.428,-324.146C167.303,-315.758 38,-287.867 38,-201 38,-201 38,-201 38,-137.5 38,-86.8476 91.5771,-48.7775 125.272,-29.8435"/>
<polygon fill="midnightblue" stroke="midnightblue" points="127.06,-32.8554 134.188,-25.016 123.727,-26.6998 127.06,-32.8554"/>
</g>
<!-- Node20 -->
<g id="node20" class="node"><title>Node20</title>
<polygon fill="white" stroke="#bfbfbf" points="142.5,-129 142.5,-148 183.5,-148 183.5,-129 142.5,-129"/>
<text text-anchor="middle" x="163" y="-136" font-family="Helvetica,sans-Serif" font-size="10.00">string</text>
</g>
<!-- Node4&#45;&gt;Node20 -->
<g id="edge31" class="edge"><title>Node4&#45;&gt;Node20</title>
<path fill="none" stroke="midnightblue" d="M248.87,-318.743C235.893,-309.565 216.128,-294.118 203,-277 182.918,-250.814 180.097,-241.721 171,-210 166.123,-192.995 164.201,-172.883 163.452,-158.501"/>
<polygon fill="midnightblue" stroke="midnightblue" points="166.944,-158.226 163.07,-148.365 159.949,-158.49 166.944,-158.226"/>
</g>
<!-- Node22 -->
<g id="node22" class="node"><title>Node22</title>
<polygon fill="white" stroke="#bfbfbf" points="480,-0.5 480,-30.5 582,-30.5 582,-0.5 480,-0.5"/>
<text text-anchor="start" x="488" y="-18.5" font-family="Helvetica,sans-Serif" font-size="10.00">artvision/framework</text>
<text text-anchor="middle" x="531" y="-7.5" font-family="Helvetica,sans-Serif" font-size="10.00">/exception.h</text>
</g>
<!-- Node4&#45;&gt;Node22 -->
<g id="edge29" class="edge"><title>Node4&#45;&gt;Node22</title>
<path fill="none" stroke="midnightblue" d="M294.66,-323.241C354.128,-313.458 474,-283.505 474,-201 474,-201 474,-201 474,-137.5 474,-105.049 478.763,-96.1616 493,-67 497.91,-56.9429 504.94,-46.883 511.621,-38.4192"/>
<polygon fill="midnightblue" stroke="midnightblue" points="514.446,-40.4937 518.094,-30.5466 509.04,-36.0478 514.446,-40.4937"/>
</g>
<!-- Node4&#45;&gt;Node23 -->
<g id="edge30" class="edge"><title>Node4&#45;&gt;Node23</title>
<path fill="none" stroke="midnightblue" d="M257.684,-318.734C252.838,-308.89 244.848,-292.66 238.694,-280.159"/>
<polygon fill="midnightblue" stroke="midnightblue" points="241.804,-278.553 234.247,-271.127 235.524,-281.645 241.804,-278.553"/>
</g>
<!-- Node6 -->
<g id="node6" class="node"><title>Node6</title>
<g id="a_node6"><a xlink:href="stream_8h.html" target="_top" xlink:title="stream.h">
<polygon fill="white" stroke="black" points="266.5,-190.5 266.5,-209.5 321.5,-209.5 321.5,-190.5 266.5,-190.5"/>
<text text-anchor="middle" x="294" y="-197.5" font-family="Helvetica,sans-Serif" font-size="10.00">stream.h</text>
</a>
</g>
</g>
<!-- Node5&#45;&gt;Node6 -->
<g id="edge5" class="edge"><title>Node5&#45;&gt;Node6</title>
<path fill="none" stroke="midnightblue" d="M294,-251.975C294,-243.58 294,-230.481 294,-219.663"/>
<polygon fill="midnightblue" stroke="midnightblue" points="297.5,-219.509 294,-209.509 290.5,-219.509 297.5,-219.509"/>
</g>
<!-- Node5&#45;&gt;Node17 -->
<g id="edge27" class="edge"><title>Node5&#45;&gt;Node17</title>
<path fill="none" stroke="midnightblue" d="M272.374,-251.996C238.209,-238.509 175.166,-213.383 171,-210 147.652,-191.038 141.834,-182.752 133,-154 120.248,-112.496 134.857,-61.303 144.631,-34.6188"/>
<polygon fill="midnightblue" stroke="midnightblue" points="147.979,-35.6641 148.311,-25.0745 141.447,-33.1458 147.979,-35.6641"/>
</g>
<!-- Node21 -->
<g id="node21" class="node"><title>Node21</title>
<g id="a_node21"><a xlink:href="date__time_8h.html" target="_top" xlink:title="date_time.h">
<polygon fill="white" stroke="black" points="180,-190.5 180,-209.5 248,-209.5 248,-190.5 180,-190.5"/>
<text text-anchor="middle" x="214" y="-197.5" font-family="Helvetica,sans-Serif" font-size="10.00">date_time.h</text>
</a>
</g>
</g>
<!-- Node5&#45;&gt;Node21 -->
<g id="edge25" class="edge"><title>Node5&#45;&gt;Node21</title>
<path fill="none" stroke="midnightblue" d="M282.538,-251.975C269.825,-242.52 249.087,-227.096 233.747,-215.687"/>
<polygon fill="midnightblue" stroke="midnightblue" points="235.554,-212.669 225.441,-209.509 231.376,-218.285 235.554,-212.669"/>
</g>
<!-- Node7 -->
<g id="node7" class="node"><title>Node7</title>
<polygon fill="white" stroke="#bfbfbf" points="751,-0.5 751,-30.5 853,-30.5 853,-0.5 751,-0.5"/>
<text text-anchor="start" x="759" y="-18.5" font-family="Helvetica,sans-Serif" font-size="10.00">artvision/framework</text>
<text text-anchor="middle" x="802" y="-7.5" font-family="Helvetica,sans-Serif" font-size="10.00">/error.h</text>
</g>
<!-- Node6&#45;&gt;Node7 -->
<g id="edge6" class="edge"><title>Node6&#45;&gt;Node7</title>
<path fill="none" stroke="midnightblue" d="M321.674,-191.972C353.742,-183.655 408.063,-169.028 454,-154 534.736,-127.588 555.483,-121.74 633,-87 650.416,-79.1948 653.622,-74.8903 671,-67 697.451,-54.9903 727.665,-43.2178 752.407,-34.0644"/>
<polygon fill="midnightblue" stroke="midnightblue" points="753.766,-37.2938 761.948,-30.5633 751.355,-30.7222 753.766,-37.2938"/>
</g>
<!-- Node8 -->
<g id="node8" class="node"><title>Node8</title>
<g id="a_node8"><a xlink:href="linear__algebra_8h.html" target="_top" xlink:title="AR6/InstantOn/math\l/linear_algebra.h">
<polygon fill="white" stroke="black" points="338.5,-123.5 338.5,-153.5 445.5,-153.5 445.5,-123.5 338.5,-123.5"/>
<text text-anchor="start" x="346.5" y="-141.5" font-family="Helvetica,sans-Serif" font-size="10.00">AR6/InstantOn/math</text>
<text text-anchor="middle" x="392" y="-130.5" font-family="Helvetica,sans-Serif" font-size="10.00">/linear_algebra.h</text>
</a>
</g>
</g>
<!-- Node6&#45;&gt;Node8 -->
<g id="edge7" class="edge"><title>Node6&#45;&gt;Node8</title>
<path fill="none" stroke="midnightblue" d="M308.041,-190.475C321.562,-182.266 342.493,-169.558 360.073,-158.885"/>
<polygon fill="midnightblue" stroke="midnightblue" points="362.172,-161.705 368.903,-153.523 358.539,-155.721 362.172,-161.705"/>
</g>
<!-- Node16 -->
<g id="node16" class="node"><title>Node16</title>
<g id="a_node16"><a xlink:href="indexing_8h.html" target="_top" xlink:title="indexing.h">
<polygon fill="white" stroke="black" points="288.5,-67.5 288.5,-86.5 349.5,-86.5 349.5,-67.5 288.5,-67.5"/>
<text text-anchor="middle" x="319" y="-74.5" font-family="Helvetica,sans-Serif" font-size="10.00">indexing.h</text>
</a>
</g>
</g>
<!-- Node6&#45;&gt;Node16 -->
<g id="edge22" class="edge"><title>Node6&#45;&gt;Node16</title>
<path fill="none" stroke="midnightblue" d="M295.798,-190.298C299.834,-170.763 309.689,-123.065 315.168,-96.5471"/>
<polygon fill="midnightblue" stroke="midnightblue" points="318.623,-97.1245 317.218,-86.6232 311.767,-95.7081 318.623,-97.1245"/>
</g>
<!-- Node6&#45;&gt;Node17 -->
<g id="edge24" class="edge"><title>Node6&#45;&gt;Node17</title>
<path fill="none" stroke="midnightblue" d="M281.421,-190.329C257.542,-173.249 205.407,-132.9 176,-87 165.773,-71.0375 159.388,-50.2328 155.799,-35.3692"/>
<polygon fill="midnightblue" stroke="midnightblue" points="159.158,-34.3484 153.582,-25.3396 152.323,-35.8593 159.158,-34.3484"/>
</g>
<!-- Node6&#45;&gt;Node20 -->
<g id="edge23" class="edge"><title>Node6&#45;&gt;Node20</title>
<path fill="none" stroke="midnightblue" d="M275.231,-190.475C253.149,-180.445 216.281,-163.7 190.861,-152.155"/>
<polygon fill="midnightblue" stroke="midnightblue" points="192.287,-148.958 181.734,-148.009 189.392,-155.331 192.287,-148.958"/>
</g>
<!-- Node9 -->
<g id="node9" class="node"><title>Node9</title>
<g id="a_node9"><a xlink:href="math__utils_8h.html" target="_top" xlink:title="math_utils.h">
<polygon fill="white" stroke="black" points="968,-67.5 968,-86.5 1038,-86.5 1038,-67.5 968,-67.5"/>
<text text-anchor="middle" x="1003" y="-74.5" font-family="Helvetica,sans-Serif" font-size="10.00">math_utils.h</text>
</a>
</g>
</g>
<!-- Node8&#45;&gt;Node9 -->
<g id="edge8" class="edge"><title>Node8&#45;&gt;Node9</title>
<path fill="none" stroke="midnightblue" d="M445.687,-132.272C564.31,-120.72 846.963,-93.1951 957.544,-82.4266"/>
<polygon fill="midnightblue" stroke="midnightblue" points="958.083,-85.8908 967.696,-81.4379 957.404,-78.9237 958.083,-85.8908"/>
</g>
<!-- Node11 -->
<g id="node11" class="node"><title>Node11</title>
<g id="a_node11"><a xlink:href="_instant_on_2include_2_a_r6_2_instant_on_2math_2matrix_8h.html" target="_top" xlink:title="matrix.h">
<polygon fill="white" stroke="black" points="572,-67.5 572,-86.5 624,-86.5 624,-67.5 572,-67.5"/>
<text text-anchor="middle" x="598" y="-74.5" font-family="Helvetica,sans-Serif" font-size="10.00">matrix.h</text>
</a>
</g>
</g>
<!-- Node8&#45;&gt;Node11 -->
<g id="edge11" class="edge"><title>Node8&#45;&gt;Node11</title>
<path fill="none" stroke="midnightblue" d="M440.558,-123.475C477.749,-112.733 528.228,-98.1525 561.898,-88.4274"/>
<polygon fill="midnightblue" stroke="midnightblue" points="563.139,-91.7123 571.775,-85.5748 561.196,-84.9872 563.139,-91.7123"/>
</g>
<!-- Node12 -->
<g id="node12" class="node"><title>Node12</title>
<g id="a_node12"><a xlink:href="vector_8h.html" target="_top" xlink:title="vector.h">
<polygon fill="white" stroke="black" points="410,-6 410,-25 462,-25 462,-6 410,-6"/>
<text text-anchor="middle" x="436" y="-13" font-family="Helvetica,sans-Serif" font-size="10.00">vector.h</text>
</a>
</g>
</g>
<!-- Node8&#45;&gt;Node12 -->
<g id="edge15" class="edge"><title>Node8&#45;&gt;Node12</title>
<path fill="none" stroke="midnightblue" d="M399.995,-123.252C405.334,-113.316 412.226,-99.628 417,-87 423.438,-69.972 428.632,-49.8628 431.952,-35.4878"/>
<polygon fill="midnightblue" stroke="midnightblue" points="435.45,-35.8781 434.2,-25.3572 428.617,-34.3612 435.45,-35.8781"/>
</g>
<!-- Node8&#45;&gt;Node14 -->
<g id="edge16" class="edge"><title>Node8&#45;&gt;Node14</title>
<path fill="none" stroke="midnightblue" d="M356.926,-123.399C331.983,-113.372 298.792,-100.028 274.856,-90.405"/>
<polygon fill="midnightblue" stroke="midnightblue" points="276.119,-87.1406 265.535,-86.6578 273.508,-93.6354 276.119,-87.1406"/>
</g>
<!-- Node15 -->
<g id="node15" class="node"><title>Node15</title>
<polygon fill="white" stroke="#bfbfbf" points="368,-67.5 368,-86.5 408,-86.5 408,-67.5 368,-67.5"/>
<text text-anchor="middle" x="388" y="-74.5" font-family="Helvetica,sans-Serif" font-size="10.00">limits</text>
</g>
<!-- Node8&#45;&gt;Node15 -->
<g id="edge17" class="edge"><title>Node8&#45;&gt;Node15</title>
<path fill="none" stroke="midnightblue" d="M391.052,-123.399C390.519,-115.466 389.846,-105.458 389.268,-96.8583"/>
<polygon fill="midnightblue" stroke="midnightblue" points="392.745,-96.4005 388.582,-86.6578 385.761,-96.8701 392.745,-96.4005"/>
</g>
<!-- Node8&#45;&gt;Node16 -->
<g id="edge18" class="edge"><title>Node8&#45;&gt;Node16</title>
<path fill="none" stroke="midnightblue" d="M374.7,-123.399C363.545,-114.308 349.046,-102.49 337.638,-93.1909"/>
<polygon fill="midnightblue" stroke="midnightblue" points="339.585,-90.2627 329.622,-86.6578 335.162,-95.6887 339.585,-90.2627"/>
</g>
<!-- Node9&#45;&gt;Node7 -->
<g id="edge10" class="edge"><title>Node9&#45;&gt;Node7</title>
<path fill="none" stroke="midnightblue" d="M974.202,-67.4751C944.308,-58.6259 896.753,-44.5487 859.184,-33.4277"/>
<polygon fill="midnightblue" stroke="midnightblue" points="859.954,-30.0054 849.372,-30.523 857.967,-36.7175 859.954,-30.0054"/>
</g>
<!-- Node10 -->
<g id="node10" class="node"><title>Node10</title>
<polygon fill="white" stroke="#bfbfbf" points="1010,-6 1010,-25 1054,-25 1054,-6 1010,-6"/>
<text text-anchor="middle" x="1032" y="-13" font-family="Helvetica,sans-Serif" font-size="10.00">cmath</text>
</g>
<!-- Node9&#45;&gt;Node10 -->
<g id="edge9" class="edge"><title>Node9&#45;&gt;Node10</title>
<path fill="none" stroke="midnightblue" d="M1007.15,-67.4751C1011.38,-58.8152 1018.04,-45.1486 1023.4,-34.1453"/>
<polygon fill="midnightblue" stroke="midnightblue" points="1026.62,-35.5317 1027.85,-25.0091 1020.33,-32.4648 1026.62,-35.5317"/>
</g>
<!-- Node11&#45;&gt;Node7 -->
<g id="edge12" class="edge"><title>Node11&#45;&gt;Node7</title>
<path fill="none" stroke="midnightblue" d="M624.252,-68.3432C654.311,-59.576 704.476,-44.9444 743.863,-33.4566"/>
<polygon fill="midnightblue" stroke="midnightblue" points="745.006,-36.7693 753.626,-30.6092 743.046,-30.0493 745.006,-36.7693"/>
</g>
<!-- Node11&#45;&gt;Node12 -->
<g id="edge13" class="edge"><title>Node11&#45;&gt;Node12</title>
<path fill="none" stroke="midnightblue" d="M572.556,-67.422C546.814,-58.6408 505.939,-44.417 471,-31 469.354,-30.3678 467.668,-29.709 465.97,-29.036"/>
<polygon fill="midnightblue" stroke="midnightblue" points="466.869,-25.6239 456.286,-25.1146 464.241,-32.1121 466.869,-25.6239"/>
</g>
<!-- Node11&#45;&gt;Node13 -->
<g id="edge14" class="edge"><title>Node11&#45;&gt;Node13</title>
<path fill="none" stroke="midnightblue" d="M624.333,-72.553C638.205,-70.7878 655.51,-68.6657 671,-67 844.952,-48.2939 890.402,-59.6247 1063,-31 1072.22,-29.4713 1082.12,-27.302 1091.16,-25.1057"/>
<polygon fill="midnightblue" stroke="midnightblue" points="1092.09,-28.4818 1100.93,-22.6474 1090.38,-21.6934 1092.09,-28.4818"/>
</g>
<!-- Node16&#45;&gt;Node17 -->
<g id="edge19" class="edge"><title>Node16&#45;&gt;Node17</title>
<path fill="none" stroke="midnightblue" d="M295.073,-67.4751C266.303,-57.2246 217.844,-39.9593 185.398,-28.3994"/>
<polygon fill="midnightblue" stroke="midnightblue" points="186.477,-25.0684 175.883,-25.0091 184.128,-31.6624 186.477,-25.0684"/>
</g>
<!-- Node18 -->
<g id="node18" class="node"><title>Node18</title>
<polygon fill="white" stroke="#bfbfbf" points="318.5,-6 318.5,-25 367.5,-25 367.5,-6 318.5,-6"/>
<text text-anchor="middle" x="343" y="-13" font-family="Helvetica,sans-Serif" font-size="10.00">cstddef</text>
</g>
<!-- Node16&#45;&gt;Node18 -->
<g id="edge20" class="edge"><title>Node16&#45;&gt;Node18</title>
<path fill="none" stroke="midnightblue" d="M322.439,-67.4751C325.896,-58.9035 331.332,-45.4269 335.746,-34.483"/>
<polygon fill="midnightblue" stroke="midnightblue" points="339.073,-35.5924 339.568,-25.0091 332.581,-32.9738 339.073,-35.5924"/>
</g>
<!-- Node19 -->
<g id="node19" class="node"><title>Node19</title>
<polygon fill="white" stroke="#bfbfbf" points="251.5,-6 251.5,-25 300.5,-25 300.5,-6 251.5,-6"/>
<text text-anchor="middle" x="276" y="-13" font-family="Helvetica,sans-Serif" font-size="10.00">string.h</text>
</g>
<!-- Node16&#45;&gt;Node19 -->
<g id="edge21" class="edge"><title>Node16&#45;&gt;Node19</title>
<path fill="none" stroke="midnightblue" d="M312.839,-67.4751C306.389,-58.5501 296.096,-44.3071 288.027,-33.1425"/>
<polygon fill="midnightblue" stroke="midnightblue" points="290.844,-31.064 282.149,-25.0091 285.17,-35.1642 290.844,-31.064"/>
</g>
<!-- Node21&#45;&gt;Node20 -->
<g id="edge26" class="edge"><title>Node21&#45;&gt;Node20</title>
<path fill="none" stroke="midnightblue" d="M206.693,-190.475C198.967,-181.462 186.592,-167.025 176.982,-155.812"/>
<polygon fill="midnightblue" stroke="midnightblue" points="179.459,-153.324 170.294,-148.009 174.144,-157.879 179.459,-153.324"/>
</g>
<!-- Node25 -->
<g id="node25" class="node"><title>Node25</title>
<polygon fill="white" stroke="#bfbfbf" points="510,-252 510,-271 556,-271 556,-252 510,-252"/>
<text text-anchor="middle" x="533" y="-259" font-family="Helvetica,sans-Serif" font-size="10.00">atomic</text>
</g>
<!-- Node24&#45;&gt;Node25 -->
<g id="edge34" class="edge"><title>Node24&#45;&gt;Node25</title>
<path fill="none" stroke="midnightblue" d="M594.425,-318.734C583.034,-308.305 563.813,-290.709 549.901,-277.973"/>
<polygon fill="midnightblue" stroke="midnightblue" points="552.163,-275.298 542.424,-271.127 547.436,-280.461 552.163,-275.298"/>
</g>
<!-- Node26 -->
<g id="node26" class="node"><title>Node26</title>
<polygon fill="white" stroke="#bfbfbf" points="574.5,-252 574.5,-271 633.5,-271 633.5,-252 574.5,-252"/>
<text text-anchor="middle" x="604" y="-259" font-family="Helvetica,sans-Serif" font-size="10.00">stdexcept</text>
</g>
<!-- Node24&#45;&gt;Node26 -->
<g id="edge35" class="edge"><title>Node24&#45;&gt;Node26</title>
<path fill="none" stroke="midnightblue" d="M604,-318.734C604,-309.183 604,-293.618 604,-281.283"/>
<polygon fill="midnightblue" stroke="midnightblue" points="607.5,-281.127 604,-271.127 600.5,-281.127 607.5,-281.127"/>
</g>
<!-- Node27&#45;&gt;Node7 -->
<g id="edge42" class="edge"><title>Node27&#45;&gt;Node7</title>
<path fill="none" stroke="midnightblue" d="M731.981,-190.244C742.382,-171.688 766.709,-126.842 782,-87 787.848,-71.7611 792.858,-54.0896 796.401,-40.2511"/>
<polygon fill="midnightblue" stroke="midnightblue" points="799.804,-41.0682 798.814,-30.5197 793.01,-39.3836 799.804,-41.0682"/>
</g>
<!-- Node28 -->
<g id="node28" class="node"><title>Node28</title>
<g id="a_node28"><a xlink:href="queue_8h.html" target="_top" xlink:title="queue.h">
<polygon fill="white" stroke="black" points="822.5,-129 822.5,-148 873.5,-148 873.5,-129 822.5,-129"/>
<text text-anchor="middle" x="848" y="-136" font-family="Helvetica,sans-Serif" font-size="10.00">queue.h</text>
</a>
</g>
</g>
<!-- Node27&#45;&gt;Node28 -->
<g id="edge37" class="edge"><title>Node27&#45;&gt;Node28</title>
<path fill="none" stroke="midnightblue" d="M744.336,-190.475C764.553,-180.534 798.187,-163.995 821.642,-152.461"/>
<polygon fill="midnightblue" stroke="midnightblue" points="823.267,-155.563 830.696,-148.009 820.178,-149.281 823.267,-155.563"/>
</g>
<!-- Node30 -->
<g id="node30" class="node"><title>Node30</title>
<g id="a_node30"><a xlink:href="synchronization_8h.html" target="_top" xlink:title="synchronization.h">
<polygon fill="white" stroke="black" points="680.5,-67.5 680.5,-86.5 773.5,-86.5 773.5,-67.5 680.5,-67.5"/>
<text text-anchor="middle" x="727" y="-74.5" font-family="Helvetica,sans-Serif" font-size="10.00">synchronization.h</text>
</a>
</g>
</g>
<!-- Node27&#45;&gt;Node30 -->
<g id="edge41" class="edge"><title>Node27&#45;&gt;Node30</title>
<path fill="none" stroke="midnightblue" d="M727,-190.298C727,-170.85 727,-123.49 727,-96.9036"/>
<polygon fill="midnightblue" stroke="midnightblue" points="730.5,-96.6231 727,-86.6232 723.5,-96.6232 730.5,-96.6231"/>
</g>
<!-- Node29 -->
<g id="node29" class="node"><title>Node29</title>
<polygon fill="white" stroke="#bfbfbf" points="830.5,-67.5 830.5,-86.5 873.5,-86.5 873.5,-67.5 830.5,-67.5"/>
<text text-anchor="middle" x="852" y="-74.5" font-family="Helvetica,sans-Serif" font-size="10.00">queue</text>
</g>
<!-- Node28&#45;&gt;Node29 -->
<g id="edge38" class="edge"><title>Node28&#45;&gt;Node29</title>
<path fill="none" stroke="midnightblue" d="M848.573,-128.975C849.137,-120.58 850.018,-107.481 850.745,-96.6631"/>
<polygon fill="midnightblue" stroke="midnightblue" points="854.249,-96.7214 851.428,-86.5091 847.265,-96.2518 854.249,-96.7214"/>
</g>
<!-- Node28&#45;&gt;Node30 -->
<g id="edge39" class="edge"><title>Node28&#45;&gt;Node30</title>
<path fill="none" stroke="midnightblue" d="M830.664,-128.975C810.447,-119.034 776.813,-102.495 753.358,-90.961"/>
<polygon fill="midnightblue" stroke="midnightblue" points="754.822,-87.781 744.304,-86.5091 751.733,-94.0627 754.822,-87.781"/>
</g>
<!-- Node30&#45;&gt;Node22 -->
<g id="edge40" class="edge"><title>Node30&#45;&gt;Node22</title>
<path fill="none" stroke="midnightblue" d="M698.918,-67.4751C669.892,-58.6635 623.79,-44.6684 587.23,-33.5698"/>
<polygon fill="midnightblue" stroke="midnightblue" points="587.779,-30.0788 577.193,-30.523 585.745,-36.7769 587.779,-30.0788"/>
</g>
<!-- Node31&#45;&gt;Node7 -->
<g id="edge44" class="edge"><title>Node31&#45;&gt;Node7</title>
<path fill="none" stroke="midnightblue" d="M844.633,-190.464C857.488,-182.841 874.339,-170.356 882,-154 898.401,-118.984 900.669,-100.861 882,-67 874.59,-53.5604 861.932,-43.204 848.844,-35.4704"/>
<polygon fill="midnightblue" stroke="midnightblue" points="850.229,-32.2395 839.773,-30.5298 846.881,-38.3868 850.229,-32.2395"/>
</g>
<!-- Node31&#45;&gt;Node28 -->
<g id="edge45" class="edge"><title>Node31&#45;&gt;Node28</title>
<path fill="none" stroke="midnightblue" d="M830.866,-190.475C833.717,-181.992 838.183,-168.704 841.841,-157.822"/>
<polygon fill="midnightblue" stroke="midnightblue" points="845.271,-158.603 845.14,-148.009 838.636,-156.373 845.271,-158.603"/>
</g>
<!-- Node32&#45;&gt;Node7 -->
<g id="edge48" class="edge"><title>Node32&#45;&gt;Node7</title>
<path fill="none" stroke="midnightblue" d="M553.583,-69.2849C556.749,-68.4941 559.946,-67.7151 563,-67 623.139,-52.9212 692.205,-38.5169 740.576,-28.714"/>
<polygon fill="midnightblue" stroke="midnightblue" points="741.465,-32.1053 750.573,-26.6938 740.078,-25.244 741.465,-32.1053"/>
</g>
<!-- Node32&#45;&gt;Node17 -->
<g id="edge49" class="edge"><title>Node32&#45;&gt;Node17</title>
<path fill="none" stroke="midnightblue" d="M502.358,-71.9978C452.298,-64.1772 338.05,-46.2937 242,-31 224.435,-28.2032 204.947,-25.0676 188.61,-22.4296"/>
<polygon fill="midnightblue" stroke="midnightblue" points="188.812,-18.9168 178.381,-20.7765 187.695,-25.8271 188.812,-18.9168"/>
</g>
<!-- Node32&#45;&gt;Node22 -->
<g id="edge47" class="edge"><title>Node32&#45;&gt;Node22</title>
<path fill="none" stroke="midnightblue" d="M528.43,-67.4751C528.783,-60.471 529.301,-50.1919 529.78,-40.6956"/>
<polygon fill="midnightblue" stroke="midnightblue" points="533.285,-40.6866 530.293,-30.523 526.294,-40.334 533.285,-40.6866"/>
</g>
<!-- Node34&#45;&gt;Node7 -->
<g id="edge57" class="edge"><title>Node34&#45;&gt;Node7</title>
<path fill="none" stroke="midnightblue" d="M923.769,-246.323C929.629,-212.085 939.77,-123.543 901,-67 891.332,-52.8996 876.496,-42.5101 861.227,-34.952"/>
<polygon fill="midnightblue" stroke="midnightblue" points="862.258,-31.5748 851.707,-30.604 859.349,-37.9421 862.258,-31.5748"/>
</g>
<!-- Node34&#45;&gt;Node17 -->
<g id="edge58" class="edge"><title>Node34&#45;&gt;Node17</title>
<path fill="none" stroke="midnightblue" d="M855.234,-255.798C743.997,-246.29 512.865,-219.787 329,-154 271.487,-133.422 255.717,-126.353 209,-87 190.458,-71.3807 173.594,-49.0344 163.101,-33.7108"/>
<polygon fill="midnightblue" stroke="midnightblue" points="165.889,-31.5832 157.432,-25.2002 160.063,-35.4634 165.889,-31.5832"/>
</g>
<!-- Node34&#45;&gt;Node28 -->
<g id="edge56" class="edge"><title>Node34&#45;&gt;Node28</title>
<path fill="none" stroke="midnightblue" d="M913.586,-246.248C905.992,-231.858 893.677,-209.092 882,-190 875.063,-178.658 866.733,-166.268 860.055,-156.6"/>
<polygon fill="midnightblue" stroke="midnightblue" points="862.849,-154.487 854.258,-148.286 857.107,-158.491 862.849,-154.487"/>
</g>
<!-- Node34&#45;&gt;Node31 -->
<g id="edge60" class="edge"><title>Node34&#45;&gt;Node31</title>
<path fill="none" stroke="midnightblue" d="M898.96,-246.399C884.192,-236.951 864.823,-224.559 850.053,-215.109"/>
<polygon fill="midnightblue" stroke="midnightblue" points="851.842,-212.099 841.532,-209.658 848.07,-217.995 851.842,-212.099"/>
</g>
<!-- Node35 -->
<g id="node35" class="node"><title>Node35</title>
<polygon fill="white" stroke="#bfbfbf" points="968.5,-190.5 968.5,-209.5 1027.5,-209.5 1027.5,-190.5 968.5,-190.5"/>
<text text-anchor="middle" x="998" y="-197.5" font-family="Helvetica,sans-Serif" font-size="10.00">functional</text>
</g>
<!-- Node34&#45;&gt;Node35 -->
<g id="edge59" class="edge"><title>Node34&#45;&gt;Node35</title>
<path fill="none" stroke="midnightblue" d="M939.248,-246.399C951.129,-237.218 966.607,-225.258 978.694,-215.918"/>
<polygon fill="midnightblue" stroke="midnightblue" points="981.023,-218.542 986.796,-209.658 976.743,-213.003 981.023,-218.542"/>
</g>
<!-- Node36&#45;&gt;Node5 -->
<g id="edge62" class="edge"><title>Node36&#45;&gt;Node5</title>
<path fill="none" stroke="midnightblue" d="M917.213,-321.208C774.689,-307.782 444.596,-276.687 332.244,-266.103"/>
<polygon fill="midnightblue" stroke="midnightblue" points="332.348,-262.597 322.064,-265.144 331.692,-269.566 332.348,-262.597"/>
</g>
<!-- Node37 -->
<g id="node37" class="node"><title>Node37</title>
<g id="a_node37"><a xlink:href="pyramid_8h.html" target="_top" xlink:title="pyramid.h">
<polygon fill="white" stroke="black" points="1045.5,-190.5 1045.5,-209.5 1104.5,-209.5 1104.5,-190.5 1045.5,-190.5"/>
<text text-anchor="middle" x="1075" y="-197.5" font-family="Helvetica,sans-Serif" font-size="10.00">pyramid.h</text>
</a>
</g>
</g>
<!-- Node36&#45;&gt;Node37 -->
<g id="edge63" class="edge"><title>Node36&#45;&gt;Node37</title>
<path fill="none" stroke="midnightblue" d="M994.086,-313.479C1010.9,-290.104 1044.6,-243.253 1062.75,-218.022"/>
<polygon fill="midnightblue" stroke="midnightblue" points="1065.68,-219.95 1068.68,-209.789 1060,-215.862 1065.68,-219.95"/>
</g>
<!-- Node37&#45;&gt;Node13 -->
<g id="edge64" class="edge"><title>Node37&#45;&gt;Node13</title>
<path fill="none" stroke="midnightblue" d="M1089.37,-190.33C1100.88,-182.469 1116.19,-169.722 1123,-154 1140.11,-114.518 1133.12,-62.4676 1127.49,-35.1214"/>
<polygon fill="midnightblue" stroke="midnightblue" points="1130.83,-34.0193 1125.24,-25.0228 1124,-35.5453 1130.83,-34.0193"/>
</g>
<!-- Node38 -->
<g id="node38" class="node"><title>Node38</title>
<g id="a_node38"><a xlink:href="gaussian__scale__space__pyramid_8h.html" target="_top" xlink:title="gaussian_scale_space\l_pyramid.h">
<polygon fill="white" stroke="black" points="998,-123.5 998,-153.5 1114,-153.5 1114,-123.5 998,-123.5"/>
<text text-anchor="start" x="1006" y="-141.5" font-family="Helvetica,sans-Serif" font-size="10.00">gaussian_scale_space</text>
<text text-anchor="middle" x="1056" y="-130.5" font-family="Helvetica,sans-Serif" font-size="10.00">_pyramid.h</text>
</a>
</g>
</g>
<!-- Node37&#45;&gt;Node38 -->
<g id="edge65" class="edge"><title>Node37&#45;&gt;Node38</title>
<path fill="none" stroke="midnightblue" d="M1072.28,-190.475C1069.99,-183.32 1066.62,-172.748 1063.53,-163.084"/>
<polygon fill="midnightblue" stroke="midnightblue" points="1066.85,-161.984 1060.48,-153.523 1060.19,-164.114 1066.85,-161.984"/>
</g>
<!-- Node38&#45;&gt;Node9 -->
<g id="edge68" class="edge"><title>Node38&#45;&gt;Node9</title>
<path fill="none" stroke="midnightblue" d="M1043.44,-123.399C1035.66,-114.664 1025.64,-103.413 1017.52,-94.2962"/>
<polygon fill="midnightblue" stroke="midnightblue" points="1019.98,-91.797 1010.71,-86.6578 1014.75,-96.453 1019.98,-91.797"/>
</g>
<!-- Node38&#45;&gt;Node10 -->
<g id="edge69" class="edge"><title>Node38&#45;&gt;Node10</title>
<path fill="none" stroke="midnightblue" d="M1054.87,-123.343C1053.57,-109.027 1051.07,-86.3173 1047,-67 1044.72,-56.2066 1041.26,-44.3742 1038.24,-34.8776"/>
<polygon fill="midnightblue" stroke="midnightblue" points="1041.55,-33.733 1035.1,-25.3279 1034.9,-35.9209 1041.55,-33.733"/>
</g>
<!-- Node38&#45;&gt;Node13 -->
<g id="edge66" class="edge"><title>Node38&#45;&gt;Node13</title>
<path fill="none" stroke="midnightblue" d="M1063.95,-123.145C1076.26,-100.906 1099.92,-58.1862 1113.25,-34.1134"/>
<polygon fill="midnightblue" stroke="midnightblue" points="1116.48,-35.496 1118.26,-25.0522 1110.36,-32.1051 1116.48,-35.496"/>
</g>
<!-- Node38&#45;&gt;Node32 -->
<g id="edge67" class="edge"><title>Node38&#45;&gt;Node32</title>
<path fill="none" stroke="midnightblue" d="M997.712,-132.633C889.735,-123.44 661.462,-103.136 563.425,-86.7555"/>
<polygon fill="midnightblue" stroke="midnightblue" points="563.969,-83.2977 553.517,-85.0318 562.769,-90.1941 563.969,-83.2977"/>
</g>
</g>
</svg>
        <g id="navigator" transform="translate(0 0)" fill="#404254">
                <rect fill="#f2f5e9" fill-opacity="0.5" stroke="#606060" stroke-width=".5" x="0" y="0" width="60" height="60"/>
                <use id="zoomplus" xlink:href="#zoomPlus" x="17" y="9" onmousedown="handleZoom(evt,'in')"/>
                <use id="zoomminus" xlink:href="#zoomMin" x="42" y="9" onmousedown="handleZoom(evt,'out')"/>
                <use id="reset" xlink:href="#resetDef" x="30" y="36" onmousedown="handleReset()"/>
                <g id="arrowUp" xlink:href="#dirArrow" transform="translate(30 24)" onmousedown="handlePan(0,-1)">
                  <use xlink:href="#rim" fill="#404040">
                        <set attributeName="fill" to="#808080" begin="arrowUp.mouseover" end="arrowUp.mouseout"/>
                  </use>
                  <path fill="none" stroke="white" stroke-width="1.5" d="M0,-3.0v7 M-2.5,-0.5L0,-3.0L2.5,-0.5"/>
                </g>
                <g id="arrowRight" xlink:href="#dirArrow" transform="rotate(90) translate(36 -43)" onmousedown="handlePan(1,0)">
                  <use xlink:href="#rim" fill="#404040">
                        <set attributeName="fill" to="#808080" begin="arrowRight.mouseover" end="arrowRight.mouseout"/>
                  </use>
                  <path fill="none" stroke="white" stroke-width="1.5" d="M0,-3.0v7 M-2.5,-0.5L0,-3.0L2.5,-0.5"/>
                </g>
                <g id="arrowDown" xlink:href="#dirArrow" transform="rotate(180) translate(-30 -48)" onmousedown="handlePan(0,1)">
                  <use xlink:href="#rim" fill="#404040">
                        <set attributeName="fill" to="#808080" begin="arrowDown.mouseover" end="arrowDown.mouseout"/>
                  </use>
                  <path fill="none" stroke="white" stroke-width="1.5" d="M0,-3.0v7 M-2.5,-0.5L0,-3.0L2.5,-0.5"/>
                </g>
                <g id="arrowLeft" xlink:href="#dirArrow" transform="rotate(270) translate(-36 17)" onmousedown="handlePan(-1,0)">
                  <use xlink:href="#rim" fill="#404040">
                        <set attributeName="fill" to="#808080" begin="arrowLeft.mouseover" end="arrowLeft.mouseout"/>
                  </use>
                  <path fill="none" stroke="white" stroke-width="1.5" d="M0,-3.0v7 M-2.5,-0.5L0,-3.0L2.5,-0.5"/>
                </g>
        </g>
        <svg viewBox="0 0 15 15" width="100%" height="30px" preserveAspectRatio="xMaxYMin meet">
         <g id="arrow_out" transform="scale(0.3 0.3)">
          <a xlink:href="pyramid__filter_8h__incl_org.svg" target="_base">
           <rect id="button" ry="5" rx="5" y="6" x="6" height="38" width="38"
                fill="#f2f5e9" fill-opacity="0.5" stroke="#606060" stroke-width="1.0"/>
           <path id="arrow"
             d="M 11.500037,31.436501 C 11.940474,20.09759 22.043105,11.32322 32.158766,21.979434 L 37.068811,17.246167 C 37.068811,17.246167 37.088388,32 37.088388,32 L 22.160133,31.978069 C 22.160133,31.978069 26.997745,27.140456 26.997745,27.140456 C 18.528582,18.264221 13.291696,25.230495 11.500037,31.436501 z"
             style="fill:#404040;"/>
          </a>
         </g>
        </svg>
</svg>
