<?xml version="1.0" encoding="UTF-8" standalone="no"?>
<!DOCTYPE svg PUBLIC "-//W3C//DTD SVG 1.1//EN"
 "http://www.w3.org/Graphics/SVG/1.1/DTD/svg11.dtd">
<!-- Generated by graphviz version 2.38.0 (20140413.2041)
 -->
<!-- Title: /bitrise/src/Source/AR6/InstantOn/include/AR6/InstantOn/math/quaternion.h Pages: 1 -->
<!--zoomable 573 -->
<svg id="main" version="1.1" xmlns="http://www.w3.org/2000/svg" xmlns:xlink="http://www.w3.org/1999/xlink" xml:space="preserve" onload="init(evt)">
<style type="text/css"><![CDATA[
.edge:hover path { stroke: red; }
.edge:hover polygon { stroke: red; fill: red; }
]]></style>
<script type="text/javascript"><![CDATA[
var edges = document.getElementsByTagName('g');
if (edges && edges.length) {
  for (var i=0;i<edges.length;i++) {
    if (edges[i].id.substr(0,4)=='edge') {
      edges[i].setAttribute('class','edge');
    }
  }
}
]]></script>
        <defs>
                <circle id="rim" cx="0" cy="0" r="7"/>
                <circle id="rim2" cx="0" cy="0" r="3.5"/>
                <g id="zoomPlus">
                        <use xlink:href="#rim" fill="#404040">
                                <set attributeName="fill" to="#808080" begin="zoomplus.mouseover" end="zoomplus.mouseout"/>
                        </use>
                        <path d="M-4,0h8M0,-4v8" fill="none" stroke="white" stroke-width="1.5" pointer-events="none"/>
                </g>
                <g id="zoomMin">
                        <use xlink:href="#rim" fill="#404040">
                                <set attributeName="fill" to="#808080" begin="zoomminus.mouseover" end="zoomminus.mouseout"/>
                        </use>
                        <path d="M-4,0h8" fill="none" stroke="white" stroke-width="1.5" pointer-events="none"/>
                </g>
                <g id="dirArrow">
                        <path fill="none" stroke="white" stroke-width="1.5" d="M0,-3.0v7 M-2.5,-0.5L0,-3.0L2.5,-0.5"/>
                </g>
               <g id="resetDef">
                       <use xlink:href="#rim2" fill="#404040">
                               <set attributeName="fill" to="#808080" begin="reset.mouseover" end="reset.mouseout"/>
                       </use>
               </g>
        </defs>

<script type="text/javascript">
var viewWidth = 1290;
var viewHeight = 573;
var sectionId = 'dynsection-1';
</script>
<script xlink:href="svgpan.js"/>
<svg id="graph" class="graph">
<g id="viewport">
<title>/bitrise/src/Source/AR6/InstantOn/include/AR6/InstantOn/math/quaternion.h</title>
<polygon fill="white" stroke="none" points="-4,4 -4,-569 1286.08,-569 1286.08,4 -4,4"/>
<!-- Node1 -->
<g id="node1" class="node"><title>Node1</title>
<polygon fill="#bfbfbf" stroke="black" points="467.632,-523.5 467.632,-564.5 633.632,-564.5 633.632,-523.5 467.632,-523.5"/>
<text text-anchor="start" x="475.632" y="-552.5" font-family="Helvetica,sans-Serif" font-size="10.00">/bitrise/src/Source</text>
<text text-anchor="start" x="475.632" y="-541.5" font-family="Helvetica,sans-Serif" font-size="10.00">/AR6/InstantOn/include</text>
<text text-anchor="middle" x="550.632" y="-530.5" font-family="Helvetica,sans-Serif" font-size="10.00">/AR6/InstantOn/math/quaternion.h</text>
</g>
<!-- Node2 -->
<g id="node2" class="node"><title>Node2</title>
<g id="a_node2"><a xlink:href="harris__ncc__tracker_8cpp.html" target="_top" xlink:title="/bitrise/src/Source\l/AR6/InstantOn/cv/trackers\l/harris_ncc_tracker.cpp">
<polygon fill="white" stroke="black" points="565.132,-84 565.132,-125 702.132,-125 702.132,-84 565.132,-84"/>
<text text-anchor="start" x="573.132" y="-113" font-family="Helvetica,sans-Serif" font-size="10.00">/bitrise/src/Source</text>
<text text-anchor="start" x="573.132" y="-102" font-family="Helvetica,sans-Serif" font-size="10.00">/AR6/InstantOn/cv/trackers</text>
<text text-anchor="middle" x="633.632" y="-91" font-family="Helvetica,sans-Serif" font-size="10.00">/harris_ncc_tracker.cpp</text>
</a>
</g>
</g>
<!-- Node1&#45;&gt;Node2 -->
<g id="edge1" class="edge"><title>Node1&#45;&gt;Node2</title>
<path fill="none" stroke="midnightblue" d="M614.655,-518.231C627.419,-510.24 639.175,-499.983 646.632,-487 716.442,-365.458 662.029,-184.349 641.002,-125.057"/>
<polygon fill="midnightblue" stroke="midnightblue" points="612.605,-515.373 605.698,-523.407 616.108,-521.434 612.605,-515.373"/>
</g>
<!-- Node3 -->
<g id="node3" class="node"><title>Node3</title>
<g id="a_node3"><a xlink:href="attitude__sampler_8cpp.html" target="_top" xlink:title="/bitrise/src/Source\l/AR6/InstantOn/extensions\l/attitude_sampler.cpp">
<polygon fill="white" stroke="black" points="33.1321,-440 33.1321,-481 168.132,-481 168.132,-440 33.1321,-440"/>
<text text-anchor="start" x="41.1321" y="-469" font-family="Helvetica,sans-Serif" font-size="10.00">/bitrise/src/Source</text>
<text text-anchor="start" x="41.1321" y="-458" font-family="Helvetica,sans-Serif" font-size="10.00">/AR6/InstantOn/extensions</text>
<text text-anchor="middle" x="100.632" y="-447" font-family="Helvetica,sans-Serif" font-size="10.00">/attitude_sampler.cpp</text>
</a>
</g>
</g>
<!-- Node1&#45;&gt;Node3 -->
<g id="edge2" class="edge"><title>Node1&#45;&gt;Node3</title>
<path fill="none" stroke="midnightblue" d="M457.045,-532.705C382.228,-523.53 274.96,-508.254 182.632,-487 175.223,-485.294 167.511,-483.256 159.911,-481.086"/>
<polygon fill="midnightblue" stroke="midnightblue" points="457.033,-536.229 467.381,-533.959 457.876,-529.28 457.033,-536.229"/>
</g>
<!-- Node4 -->
<g id="node4" class="node"><title>Node4</title>
<g id="a_node4"><a xlink:href="homography__tracker__filter_8cpp.html" target="_top" xlink:title="/bitrise/src/Source\l/AR6/InstantOn/extensions\l/homography_tracker_filter.cpp">
<polygon fill="white" stroke="black" points="457.132,-0.5 457.132,-41.5 608.132,-41.5 608.132,-0.5 457.132,-0.5"/>
<text text-anchor="start" x="465.132" y="-29.5" font-family="Helvetica,sans-Serif" font-size="10.00">/bitrise/src/Source</text>
<text text-anchor="start" x="465.132" y="-18.5" font-family="Helvetica,sans-Serif" font-size="10.00">/AR6/InstantOn/extensions</text>
<text text-anchor="middle" x="532.632" y="-7.5" font-family="Helvetica,sans-Serif" font-size="10.00">/homography_tracker_filter.cpp</text>
</a>
</g>
</g>
<!-- Node1&#45;&gt;Node4 -->
<g id="edge3" class="edge"><title>Node1&#45;&gt;Node4</title>
<path fill="none" stroke="midnightblue" d="M457.235,-521.816C349.011,-495.349 180.181,-447.488 138.632,-398 105.463,-358.493 119.632,-335.085 119.632,-283.5 119.632,-283.5 119.632,-283.5 119.632,-192.5 119.632,-120.359 337.652,-63.042 456.882,-37.0908"/>
<polygon fill="midnightblue" stroke="midnightblue" points="456.644,-525.274 467.188,-524.231 458.295,-518.472 456.644,-525.274"/>
</g>
<!-- Node5 -->
<g id="node5" class="node"><title>Node5</title>
<g id="a_node5"><a xlink:href="_vision4d-_instant_on_8cpp.html" target="_top" xlink:title="/bitrise/src/Source\l/AR6/InstantOn/extensions\l/Vision4d&#45;InstantOn.cpp">
<polygon fill="white" stroke="black" points="121.132,-0.5 121.132,-41.5 256.132,-41.5 256.132,-0.5 121.132,-0.5"/>
<text text-anchor="start" x="129.132" y="-29.5" font-family="Helvetica,sans-Serif" font-size="10.00">/bitrise/src/Source</text>
<text text-anchor="start" x="129.132" y="-18.5" font-family="Helvetica,sans-Serif" font-size="10.00">/AR6/InstantOn/extensions</text>
<text text-anchor="middle" x="188.632" y="-7.5" font-family="Helvetica,sans-Serif" font-size="10.00">/Vision4d&#45;InstantOn.cpp</text>
</a>
</g>
</g>
<!-- Node1&#45;&gt;Node5 -->
<g id="edge4" class="edge"><title>Node1&#45;&gt;Node5</title>
<path fill="none" stroke="midnightblue" d="M457.372,-539.143C314.463,-532.343 54.4981,-516.109 23.6321,-487 -13.8963,-451.608 4.63211,-424.085 4.63211,-372.5 4.63211,-372.5 4.63211,-372.5 4.63211,-192.5 4.63211,-118.246 86.2502,-67.271 140.769,-41.5038"/>
<polygon fill="midnightblue" stroke="midnightblue" points="457.301,-542.644 467.454,-539.617 457.63,-535.651 457.301,-542.644"/>
</g>
<!-- Node6 -->
<g id="node6" class="node"><title>Node6</title>
<g id="a_node6"><a xlink:href="camera_8h.html" target="_top" xlink:title="/bitrise/src/Source\l/AR6/InstantOn/include\l/AR6/InstantOn/cv/geometry\l/camera.h">
<polygon fill="white" stroke="black" points="849.632,-434.5 849.632,-486.5 991.632,-486.5 991.632,-434.5 849.632,-434.5"/>
<text text-anchor="start" x="857.632" y="-474.5" font-family="Helvetica,sans-Serif" font-size="10.00">/bitrise/src/Source</text>
<text text-anchor="start" x="857.632" y="-463.5" font-family="Helvetica,sans-Serif" font-size="10.00">/AR6/InstantOn/include</text>
<text text-anchor="start" x="857.632" y="-452.5" font-family="Helvetica,sans-Serif" font-size="10.00">/AR6/InstantOn/cv/geometry</text>
<text text-anchor="middle" x="920.632" y="-441.5" font-family="Helvetica,sans-Serif" font-size="10.00">/camera.h</text>
</a>
</g>
</g>
<!-- Node1&#45;&gt;Node6 -->
<g id="edge5" class="edge"><title>Node1&#45;&gt;Node6</title>
<path fill="none" stroke="midnightblue" d="M643.732,-522.493C707.534,-508.439 790.884,-490.08 849.404,-477.189"/>
<polygon fill="midnightblue" stroke="midnightblue" points="642.68,-519.141 633.667,-524.71 644.186,-525.977 642.68,-519.141"/>
</g>
<!-- Node7 -->
<g id="node7" class="node"><title>Node7</title>
<g id="a_node7"><a xlink:href="cv_2geometry_2homography_8h.html" target="_top" xlink:title="/bitrise/src/Source\l/AR6/InstantOn/include\l/AR6/InstantOn/cv/geometry\l/homography.h">
<polygon fill="white" stroke="black" points="1111.63,-167.5 1111.63,-219.5 1253.63,-219.5 1253.63,-167.5 1111.63,-167.5"/>
<text text-anchor="start" x="1119.63" y="-207.5" font-family="Helvetica,sans-Serif" font-size="10.00">/bitrise/src/Source</text>
<text text-anchor="start" x="1119.63" y="-196.5" font-family="Helvetica,sans-Serif" font-size="10.00">/AR6/InstantOn/include</text>
<text text-anchor="start" x="1119.63" y="-185.5" font-family="Helvetica,sans-Serif" font-size="10.00">/AR6/InstantOn/cv/geometry</text>
<text text-anchor="middle" x="1182.63" y="-174.5" font-family="Helvetica,sans-Serif" font-size="10.00">/homography.h</text>
</a>
</g>
</g>
<!-- Node1&#45;&gt;Node7 -->
<g id="edge21" class="edge"><title>Node1&#45;&gt;Node7</title>
<path fill="none" stroke="midnightblue" d="M644.018,-542.517C736.825,-539.483 882.047,-527.767 1000.63,-487 1073.58,-461.922 1104.73,-460.72 1149.63,-398 1188.39,-343.87 1188.25,-260.972 1185.27,-219.684"/>
<polygon fill="midnightblue" stroke="midnightblue" points="643.696,-539.025 633.805,-542.823 643.906,-546.022 643.696,-539.025"/>
</g>
<!-- Node14 -->
<g id="node14" class="node"><title>Node14</title>
<g id="a_node14"><a xlink:href="math_2homography_8h.html" target="_top" xlink:title="/bitrise/src/Source\l/AR6/InstantOn/include\l/AR6/InstantOn/math/homography.h">
<polygon fill="white" stroke="black" points="463.632,-440 463.632,-481 637.632,-481 637.632,-440 463.632,-440"/>
<text text-anchor="start" x="471.632" y="-469" font-family="Helvetica,sans-Serif" font-size="10.00">/bitrise/src/Source</text>
<text text-anchor="start" x="471.632" y="-458" font-family="Helvetica,sans-Serif" font-size="10.00">/AR6/InstantOn/include</text>
<text text-anchor="middle" x="550.632" y="-447" font-family="Helvetica,sans-Serif" font-size="10.00">/AR6/InstantOn/math/homography.h</text>
</a>
</g>
</g>
<!-- Node1&#45;&gt;Node14 -->
<g id="edge22" class="edge"><title>Node1&#45;&gt;Node14</title>
<path fill="none" stroke="midnightblue" d="M550.632,-513.065C550.632,-502.382 550.632,-490.63 550.632,-481.047"/>
<polygon fill="midnightblue" stroke="midnightblue" points="547.132,-513.271 550.632,-523.271 554.132,-513.271 547.132,-513.271"/>
</g>
<!-- Node6&#45;&gt;Node2 -->
<g id="edge6" class="edge"><title>Node6&#45;&gt;Node2</title>
<path fill="none" stroke="midnightblue" d="M916.603,-424.37C909.908,-380.371 892.767,-304.845 850.632,-256 799.723,-196.983 720.735,-149.981 673.41,-125.061"/>
<polygon fill="midnightblue" stroke="midnightblue" points="913.144,-424.907 918.019,-434.314 920.074,-423.92 913.144,-424.907"/>
</g>
<!-- Node6&#45;&gt;Node4 -->
<g id="edge7" class="edge"><title>Node6&#45;&gt;Node4</title>
<path fill="none" stroke="midnightblue" d="M1002.04,-454.873C1108.51,-443.922 1281.63,-407.11 1281.63,-283.5 1281.63,-283.5 1281.63,-283.5 1281.63,-192.5 1281.63,-132.605 1288.77,-135.219 1118.63,-78 1026,-46.8471 744.719,-30.9866 608.356,-24.9564"/>
<polygon fill="midnightblue" stroke="midnightblue" points="1001.57,-451.403 991.954,-455.854 1002.25,-458.37 1001.57,-451.403"/>
</g>
<!-- Node6&#45;&gt;Node7 -->
<g id="edge8" class="edge"><title>Node6&#45;&gt;Node7</title>
<path fill="none" stroke="midnightblue" d="M1001.66,-453.622C1043.84,-446.463 1093.22,-431.015 1125.63,-398 1138.29,-385.106 1165.22,-271.548 1176.96,-219.89"/>
<polygon fill="midnightblue" stroke="midnightblue" points="1001.01,-450.182 991.671,-455.189 1002.09,-457.098 1001.01,-450.182"/>
</g>
<!-- Node8 -->
<g id="node8" class="node"><title>Node8</title>
<g id="a_node8"><a xlink:href="p3p_8h.html" target="_top" xlink:title="/bitrise/src/Source\l/AR6/InstantOn/include\l/AR6/InstantOn/cv/geometry/p3p.h">
<polygon fill="white" stroke="black" points="948.132,-351 948.132,-392 1117.13,-392 1117.13,-351 948.132,-351"/>
<text text-anchor="start" x="956.132" y="-380" font-family="Helvetica,sans-Serif" font-size="10.00">/bitrise/src/Source</text>
<text text-anchor="start" x="956.132" y="-369" font-family="Helvetica,sans-Serif" font-size="10.00">/AR6/InstantOn/include</text>
<text text-anchor="middle" x="1032.63" y="-358" font-family="Helvetica,sans-Serif" font-size="10.00">/AR6/InstantOn/cv/geometry/p3p.h</text>
</a>
</g>
</g>
<!-- Node6&#45;&gt;Node8 -->
<g id="edge11" class="edge"><title>Node6&#45;&gt;Node8</title>
<path fill="none" stroke="midnightblue" d="M960.953,-428.179C976.467,-416.128 993.728,-402.72 1007.42,-392.082"/>
<polygon fill="midnightblue" stroke="midnightblue" points="958.777,-425.437 953.027,-434.336 963.072,-430.966 958.777,-425.437"/>
</g>
<!-- Node12 -->
<g id="node12" class="node"><title>Node12</title>
<g id="a_node12"><a xlink:href="pinhole__lens__model_8h.html" target="_top" xlink:title="/bitrise/src/Source\l/AR6/InstantOn/include\l/AR6/InstantOn/cv/geometry\l/pinhole_lens_model.h">
<polygon fill="white" stroke="black" points="712.632,-345.5 712.632,-397.5 854.632,-397.5 854.632,-345.5 712.632,-345.5"/>
<text text-anchor="start" x="720.632" y="-385.5" font-family="Helvetica,sans-Serif" font-size="10.00">/bitrise/src/Source</text>
<text text-anchor="start" x="720.632" y="-374.5" font-family="Helvetica,sans-Serif" font-size="10.00">/AR6/InstantOn/include</text>
<text text-anchor="start" x="720.632" y="-363.5" font-family="Helvetica,sans-Serif" font-size="10.00">/AR6/InstantOn/cv/geometry</text>
<text text-anchor="middle" x="783.632" y="-352.5" font-family="Helvetica,sans-Serif" font-size="10.00">/pinhole_lens_model.h</text>
</a>
</g>
</g>
<!-- Node6&#45;&gt;Node12 -->
<g id="edge18" class="edge"><title>Node6&#45;&gt;Node12</title>
<path fill="none" stroke="midnightblue" d="M872.268,-428.787C856.194,-418.579 838.496,-407.341 823.169,-397.607"/>
<polygon fill="midnightblue" stroke="midnightblue" points="870.688,-431.93 881.006,-434.336 874.441,-426.021 870.688,-431.93"/>
</g>
<!-- Node13 -->
<g id="node13" class="node"><title>Node13</title>
<g id="a_node13"><a xlink:href="radial__lens__model_8h.html" target="_top" xlink:title="/bitrise/src/Source\l/AR6/InstantOn/include\l/AR6/InstantOn/cv/geometry\l/radial_lens_model.h">
<polygon fill="white" stroke="black" points="699.632,-256.5 699.632,-308.5 841.632,-308.5 841.632,-256.5 699.632,-256.5"/>
<text text-anchor="start" x="707.632" y="-296.5" font-family="Helvetica,sans-Serif" font-size="10.00">/bitrise/src/Source</text>
<text text-anchor="start" x="707.632" y="-285.5" font-family="Helvetica,sans-Serif" font-size="10.00">/AR6/InstantOn/include</text>
<text text-anchor="start" x="707.632" y="-274.5" font-family="Helvetica,sans-Serif" font-size="10.00">/AR6/InstantOn/cv/geometry</text>
<text text-anchor="middle" x="770.632" y="-263.5" font-family="Helvetica,sans-Serif" font-size="10.00">/radial_lens_model.h</text>
</a>
</g>
</g>
<!-- Node6&#45;&gt;Node13 -->
<g id="edge20" class="edge"><title>Node6&#45;&gt;Node13</title>
<path fill="none" stroke="midnightblue" d="M908.942,-424.945C899.48,-400.632 884.321,-368.389 863.632,-345 851.064,-330.791 834.489,-318.449 818.818,-308.625"/>
<polygon fill="midnightblue" stroke="midnightblue" points="905.737,-426.366 912.528,-434.498 912.29,-423.906 905.737,-426.366"/>
</g>
<!-- Node7&#45;&gt;Node2 -->
<g id="edge9" class="edge"><title>Node7&#45;&gt;Node2</title>
<path fill="none" stroke="midnightblue" d="M1101.59,-179.251C1077.18,-175.284 1050.32,-170.941 1025.63,-167 912.368,-148.917 780.617,-128.341 702.337,-116.164"/>
<polygon fill="midnightblue" stroke="midnightblue" points="1101.09,-182.716 1111.52,-180.867 1102.22,-175.807 1101.09,-182.716"/>
</g>
<!-- Node7&#45;&gt;Node4 -->
<g id="edge10" class="edge"><title>Node7&#45;&gt;Node4</title>
<path fill="none" stroke="midnightblue" d="M1160.7,-159.085C1141.08,-132.238 1109.73,-96.1227 1072.63,-78 992.707,-38.9583 737.086,-27.0453 608.301,-23.4805"/>
<polygon fill="midnightblue" stroke="midnightblue" points="1158,-161.327 1166.65,-167.442 1163.7,-157.266 1158,-161.327"/>
</g>
<!-- Node9 -->
<g id="node9" class="node"><title>Node9</title>
<g id="a_node9"><a xlink:href="pnp__jacobians_8h.html" target="_top" xlink:title="/bitrise/src/Source\l/AR6/InstantOn/include\l/AR6/InstantOn/cv/pnp\l_estimation/pnp_jacobians.h">
<polygon fill="white" stroke="black" points="935.632,-256.5 935.632,-308.5 1075.63,-308.5 1075.63,-256.5 935.632,-256.5"/>
<text text-anchor="start" x="943.632" y="-296.5" font-family="Helvetica,sans-Serif" font-size="10.00">/bitrise/src/Source</text>
<text text-anchor="start" x="943.632" y="-285.5" font-family="Helvetica,sans-Serif" font-size="10.00">/AR6/InstantOn/include</text>
<text text-anchor="start" x="943.632" y="-274.5" font-family="Helvetica,sans-Serif" font-size="10.00">/AR6/InstantOn/cv/pnp</text>
<text text-anchor="middle" x="1005.63" y="-263.5" font-family="Helvetica,sans-Serif" font-size="10.00">_estimation/pnp_jacobians.h</text>
</a>
</g>
</g>
<!-- Node8&#45;&gt;Node9 -->
<g id="edge12" class="edge"><title>Node8&#45;&gt;Node9</title>
<path fill="none" stroke="midnightblue" d="M1023.53,-341.16C1020.27,-330.658 1016.62,-318.919 1013.48,-308.788"/>
<polygon fill="midnightblue" stroke="midnightblue" points="1020.2,-342.245 1026.51,-350.758 1026.88,-340.17 1020.2,-342.245"/>
</g>
<!-- Node10 -->
<g id="node10" class="node"><title>Node10</title>
<g id="a_node10"><a xlink:href="pnp__solver_8h.html" target="_top" xlink:title="/bitrise/src/Source\l/AR6/InstantOn/include\l/AR6/InstantOn/cv/pnp\l_estimation/pnp_solver.h">
<polygon fill="white" stroke="black" points="892.132,-167.5 892.132,-219.5 1017.13,-219.5 1017.13,-167.5 892.132,-167.5"/>
<text text-anchor="start" x="900.132" y="-207.5" font-family="Helvetica,sans-Serif" font-size="10.00">/bitrise/src/Source</text>
<text text-anchor="start" x="900.132" y="-196.5" font-family="Helvetica,sans-Serif" font-size="10.00">/AR6/InstantOn/include</text>
<text text-anchor="start" x="900.132" y="-185.5" font-family="Helvetica,sans-Serif" font-size="10.00">/AR6/InstantOn/cv/pnp</text>
<text text-anchor="middle" x="954.632" y="-174.5" font-family="Helvetica,sans-Serif" font-size="10.00">_estimation/pnp_solver.h</text>
</a>
</g>
</g>
<!-- Node8&#45;&gt;Node10 -->
<g id="edge16" class="edge"><title>Node8&#45;&gt;Node10</title>
<path fill="none" stroke="midnightblue" d="M966.598,-346.154C950.745,-337.016 935.771,-324.867 926.632,-309 910.495,-280.981 924.943,-243.933 938.369,-219.674"/>
<polygon fill="midnightblue" stroke="midnightblue" points="964.999,-349.269 975.464,-350.926 968.317,-343.105 964.999,-349.269"/>
</g>
<!-- Node11 -->
<g id="node11" class="node"><title>Node11</title>
<g id="a_node11"><a xlink:href="robust__pnp_8h.html" target="_top" xlink:title="/bitrise/src/Source\l/AR6/InstantOn/include\l/AR6/InstantOn/cv/pnp\l_estimation/robust_pnp.h">
<polygon fill="white" stroke="black" points="937.632,-78.5 937.632,-130.5 1063.63,-130.5 1063.63,-78.5 937.632,-78.5"/>
<text text-anchor="start" x="945.632" y="-118.5" font-family="Helvetica,sans-Serif" font-size="10.00">/bitrise/src/Source</text>
<text text-anchor="start" x="945.632" y="-107.5" font-family="Helvetica,sans-Serif" font-size="10.00">/AR6/InstantOn/include</text>
<text text-anchor="start" x="945.632" y="-96.5" font-family="Helvetica,sans-Serif" font-size="10.00">/AR6/InstantOn/cv/pnp</text>
<text text-anchor="middle" x="1000.63" y="-85.5" font-family="Helvetica,sans-Serif" font-size="10.00">_estimation/robust_pnp.h</text>
</a>
</g>
</g>
<!-- Node8&#45;&gt;Node11 -->
<g id="edge17" class="edge"><title>Node8&#45;&gt;Node11</title>
<path fill="none" stroke="midnightblue" d="M1062.7,-343.312C1071.5,-333.47 1080,-321.64 1084.63,-309 1092.73,-286.88 1089.89,-278.962 1084.63,-256 1073.58,-207.727 1041.71,-158.969 1020.56,-130.529"/>
<polygon fill="midnightblue" stroke="midnightblue" points="1059.98,-341.092 1055.64,-350.756 1065.06,-345.908 1059.98,-341.092"/>
</g>
<!-- Node9&#45;&gt;Node10 -->
<g id="edge13" class="edge"><title>Node9&#45;&gt;Node10</title>
<path fill="none" stroke="midnightblue" d="M985.782,-247.639C980.311,-238.306 974.475,-228.349 969.35,-219.607"/>
<polygon fill="midnightblue" stroke="midnightblue" points="982.804,-249.479 990.881,-256.336 988.843,-245.939 982.804,-249.479"/>
</g>
<!-- Node9&#45;&gt;Node11 -->
<g id="edge15" class="edge"><title>Node9&#45;&gt;Node11</title>
<path fill="none" stroke="midnightblue" d="M1019.1,-246.539C1021.8,-237.985 1024.24,-228.767 1025.63,-220 1029.32,-196.735 1030.15,-190.118 1025.63,-167 1023.2,-154.557 1018.24,-141.453 1013.38,-130.552"/>
<polygon fill="midnightblue" stroke="midnightblue" points="1015.71,-245.615 1015.84,-256.209 1022.35,-247.848 1015.71,-245.615"/>
</g>
<!-- Node10&#45;&gt;Node11 -->
<g id="edge14" class="edge"><title>Node10&#45;&gt;Node11</title>
<path fill="none" stroke="midnightblue" d="M972.688,-158.35C977.579,-149.1 982.782,-139.259 987.357,-130.607"/>
<polygon fill="midnightblue" stroke="midnightblue" points="969.517,-156.86 967.937,-167.336 975.706,-160.132 969.517,-156.86"/>
</g>
<!-- Node12&#45;&gt;Node13 -->
<g id="edge19" class="edge"><title>Node12&#45;&gt;Node13</title>
<path fill="none" stroke="midnightblue" d="M778.356,-335.191C777.025,-326.282 775.623,-316.899 774.384,-308.607"/>
<polygon fill="midnightblue" stroke="midnightblue" points="774.932,-335.963 779.872,-345.336 781.856,-334.929 774.932,-335.963"/>
</g>
<!-- Node14&#45;&gt;Node2 -->
<g id="edge23" class="edge"><title>Node14&#45;&gt;Node2</title>
<path fill="none" stroke="midnightblue" d="M557.542,-430.027C573.981,-359.915 615.077,-184.639 628.963,-125.413"/>
<polygon fill="midnightblue" stroke="midnightblue" points="554.088,-429.428 555.213,-439.963 560.903,-431.026 554.088,-429.428"/>
</g>
<!-- Node14&#45;&gt;Node4 -->
<g id="edge24" class="edge"><title>Node14&#45;&gt;Node4</title>
<path fill="none" stroke="midnightblue" d="M545.724,-429.768C540.394,-394.85 532.632,-335.135 532.632,-283.5 532.632,-283.5 532.632,-283.5 532.632,-192.5 532.632,-137.887 532.632,-73.4334 532.632,-41.6905"/>
<polygon fill="midnightblue" stroke="midnightblue" points="542.285,-430.432 547.289,-439.771 549.201,-429.351 542.285,-430.432"/>
</g>
<!-- Node14&#45;&gt;Node11 -->
<g id="edge35" class="edge"><title>Node14&#45;&gt;Node11</title>
<path fill="none" stroke="midnightblue" d="M567.42,-431.21C597.238,-381.677 659.246,-282.028 690.632,-256 765.697,-193.751 870.849,-149.758 937.341,-126.009"/>
<polygon fill="midnightblue" stroke="midnightblue" points="564.382,-429.47 562.242,-439.846 570.386,-433.07 564.382,-429.47"/>
</g>
<!-- Node14&#45;&gt;Node12 -->
<g id="edge25" class="edge"><title>Node14&#45;&gt;Node12</title>
<path fill="none" stroke="midnightblue" d="M612.613,-436.357C644.623,-424.405 683.722,-409.806 716.451,-397.585"/>
<polygon fill="midnightblue" stroke="midnightblue" points="611.066,-433.199 602.922,-439.976 613.514,-439.756 611.066,-433.199"/>
</g>
<!-- Node14&#45;&gt;Node13 -->
<g id="edge26" class="edge"><title>Node14&#45;&gt;Node13</title>
<path fill="none" stroke="midnightblue" d="M582.972,-433.628C624.889,-400.094 697.517,-341.992 739.057,-308.76"/>
<polygon fill="midnightblue" stroke="midnightblue" points="580.639,-431.012 575.017,-439.992 585.012,-436.479 580.639,-431.012"/>
</g>
<!-- Node15 -->
<g id="node15" class="node"><title>Node15</title>
<g id="a_node15"><a xlink:href="homography__solver_8h.html" target="_top" xlink:title="/bitrise/src/Source\l/AR6/InstantOn/include\l/AR6/InstantOn/cv/homography\l_estimation/homography_solver.h">
<polygon fill="white" stroke="black" points="148.132,-345.5 148.132,-397.5 311.132,-397.5 311.132,-345.5 148.132,-345.5"/>
<text text-anchor="start" x="156.132" y="-385.5" font-family="Helvetica,sans-Serif" font-size="10.00">/bitrise/src/Source</text>
<text text-anchor="start" x="156.132" y="-374.5" font-family="Helvetica,sans-Serif" font-size="10.00">/AR6/InstantOn/include</text>
<text text-anchor="start" x="156.132" y="-363.5" font-family="Helvetica,sans-Serif" font-size="10.00">/AR6/InstantOn/cv/homography</text>
<text text-anchor="middle" x="229.632" y="-352.5" font-family="Helvetica,sans-Serif" font-size="10.00">_estimation/homography_solver.h</text>
</a>
</g>
</g>
<!-- Node14&#45;&gt;Node15 -->
<g id="edge27" class="edge"><title>Node14&#45;&gt;Node15</title>
<path fill="none" stroke="midnightblue" d="M466.416,-437.423C422.599,-425.849 368.184,-411.34 319.632,-398 316.97,-397.269 314.264,-396.522 311.533,-395.765"/>
<polygon fill="midnightblue" stroke="midnightblue" points="465.606,-440.829 476.168,-439.996 467.392,-434.06 465.606,-440.829"/>
</g>
<!-- Node16 -->
<g id="node16" class="node"><title>Node16</title>
<g id="a_node16"><a xlink:href="robust__homography_8h.html" target="_top" xlink:title="/bitrise/src/Source\l/AR6/InstantOn/include\l/AR6/InstantOn/cv/homography\l_estimation/robust_homography.h">
<polygon fill="white" stroke="black" points="340.632,-256.5 340.632,-308.5 504.632,-308.5 504.632,-256.5 340.632,-256.5"/>
<text text-anchor="start" x="348.632" y="-296.5" font-family="Helvetica,sans-Serif" font-size="10.00">/bitrise/src/Source</text>
<text text-anchor="start" x="348.632" y="-285.5" font-family="Helvetica,sans-Serif" font-size="10.00">/AR6/InstantOn/include</text>
<text text-anchor="start" x="348.632" y="-274.5" font-family="Helvetica,sans-Serif" font-size="10.00">/AR6/InstantOn/cv/homography</text>
<text text-anchor="middle" x="422.632" y="-263.5" font-family="Helvetica,sans-Serif" font-size="10.00">_estimation/robust_homography.h</text>
</a>
</g>
</g>
<!-- Node14&#45;&gt;Node16 -->
<g id="edge34" class="edge"><title>Node14&#45;&gt;Node16</title>
<path fill="none" stroke="midnightblue" d="M533.144,-431.205C518.277,-407.644 496.002,-373.468 474.632,-345 465.399,-332.7 454.499,-319.615 445.07,-308.691"/>
<polygon fill="midnightblue" stroke="midnightblue" points="530.374,-433.377 538.653,-439.989 536.304,-429.658 530.374,-433.377"/>
</g>
<!-- Node19 -->
<g id="node19" class="node"><title>Node19</title>
<g id="a_node19"><a xlink:href="homography__tracker_8h.html" target="_top" xlink:title="/bitrise/src/Source\l/AR6/InstantOn/include\l/AR6/InstantOn/cv/trackers\l/homography_tracker.h">
<polygon fill="white" stroke="black" points="329.132,-345.5 329.132,-397.5 466.132,-397.5 466.132,-345.5 329.132,-345.5"/>
<text text-anchor="start" x="337.132" y="-385.5" font-family="Helvetica,sans-Serif" font-size="10.00">/bitrise/src/Source</text>
<text text-anchor="start" x="337.132" y="-374.5" font-family="Helvetica,sans-Serif" font-size="10.00">/AR6/InstantOn/include</text>
<text text-anchor="start" x="337.132" y="-363.5" font-family="Helvetica,sans-Serif" font-size="10.00">/AR6/InstantOn/cv/trackers</text>
<text text-anchor="middle" x="397.632" y="-352.5" font-family="Helvetica,sans-Serif" font-size="10.00">/homography_tracker.h</text>
</a>
</g>
</g>
<!-- Node14&#45;&gt;Node19 -->
<g id="edge36" class="edge"><title>Node14&#45;&gt;Node19</title>
<path fill="none" stroke="midnightblue" d="M507.465,-434.954C486.927,-423.276 462.405,-409.332 441.747,-397.585"/>
<polygon fill="midnightblue" stroke="midnightblue" points="505.873,-438.075 516.296,-439.976 509.333,-431.99 505.873,-438.075"/>
</g>
<!-- Node15&#45;&gt;Node16 -->
<g id="edge28" class="edge"><title>Node15&#45;&gt;Node16</title>
<path fill="none" stroke="midnightblue" d="M294.421,-341.295C318.001,-330.665 344.422,-318.755 367.126,-308.521"/>
<polygon fill="midnightblue" stroke="midnightblue" points="292.875,-338.152 285.197,-345.453 295.752,-344.534 292.875,-338.152"/>
</g>
<!-- Node17 -->
<g id="node17" class="node"><title>Node17</title>
<g id="a_node17"><a xlink:href="harris__ncc__tracker_8h.html" target="_top" xlink:title="/bitrise/src/Source\l/AR6/InstantOn/include\l/AR6/InstantOn/cv/trackers\l/harris_ncc_tracker.h">
<polygon fill="white" stroke="black" points="360.132,-167.5 360.132,-219.5 497.132,-219.5 497.132,-167.5 360.132,-167.5"/>
<text text-anchor="start" x="368.132" y="-207.5" font-family="Helvetica,sans-Serif" font-size="10.00">/bitrise/src/Source</text>
<text text-anchor="start" x="368.132" y="-196.5" font-family="Helvetica,sans-Serif" font-size="10.00">/AR6/InstantOn/include</text>
<text text-anchor="start" x="368.132" y="-185.5" font-family="Helvetica,sans-Serif" font-size="10.00">/AR6/InstantOn/cv/trackers</text>
<text text-anchor="middle" x="428.632" y="-174.5" font-family="Helvetica,sans-Serif" font-size="10.00">/harris_ncc_tracker.h</text>
</a>
</g>
</g>
<!-- Node16&#45;&gt;Node17 -->
<g id="edge29" class="edge"><title>Node16&#45;&gt;Node17</title>
<path fill="none" stroke="midnightblue" d="M425.067,-246.191C425.682,-237.282 426.329,-227.899 426.901,-219.607"/>
<polygon fill="midnightblue" stroke="midnightblue" points="421.564,-246.119 424.368,-256.336 428.547,-246.601 421.564,-246.119"/>
</g>
<!-- Node17&#45;&gt;Node2 -->
<g id="edge30" class="edge"><title>Node17&#45;&gt;Node2</title>
<path fill="none" stroke="midnightblue" d="M497.119,-163.435C526.787,-150.844 560.744,-136.433 587.369,-125.134"/>
<polygon fill="midnightblue" stroke="midnightblue" points="495.49,-160.324 487.652,-167.453 498.224,-166.768 495.49,-160.324"/>
</g>
<!-- Node18 -->
<g id="node18" class="node"><title>Node18</title>
<g id="a_node18"><a xlink:href="homography__tracker__filter_8h.html" target="_top" xlink:title="/bitrise/src/Source\l/AR6/InstantOn/include\l/AR6/InstantOn/extensions\l/homography_tracker_filter.h">
<polygon fill="white" stroke="black" points="358.632,-78.5 358.632,-130.5 498.632,-130.5 498.632,-78.5 358.632,-78.5"/>
<text text-anchor="start" x="366.632" y="-118.5" font-family="Helvetica,sans-Serif" font-size="10.00">/bitrise/src/Source</text>
<text text-anchor="start" x="366.632" y="-107.5" font-family="Helvetica,sans-Serif" font-size="10.00">/AR6/InstantOn/include</text>
<text text-anchor="start" x="366.632" y="-96.5" font-family="Helvetica,sans-Serif" font-size="10.00">/AR6/InstantOn/extensions</text>
<text text-anchor="middle" x="428.632" y="-85.5" font-family="Helvetica,sans-Serif" font-size="10.00">/homography_tracker_filter.h</text>
</a>
</g>
</g>
<!-- Node17&#45;&gt;Node18 -->
<g id="edge31" class="edge"><title>Node17&#45;&gt;Node18</title>
<path fill="none" stroke="midnightblue" d="M428.632,-157.191C428.632,-148.282 428.632,-138.899 428.632,-130.607"/>
<polygon fill="midnightblue" stroke="midnightblue" points="425.132,-157.336 428.632,-167.336 432.132,-157.336 425.132,-157.336"/>
</g>
<!-- Node18&#45;&gt;Node4 -->
<g id="edge32" class="edge"><title>Node18&#45;&gt;Node4</title>
<path fill="none" stroke="midnightblue" d="M468.64,-72.1475C481.69,-61.921 495.805,-50.8594 507.45,-41.7338"/>
<polygon fill="midnightblue" stroke="midnightblue" points="466.396,-69.4592 460.684,-78.3823 470.714,-74.969 466.396,-69.4592"/>
</g>
<!-- Node18&#45;&gt;Node5 -->
<g id="edge33" class="edge"><title>Node18&#45;&gt;Node5</title>
<path fill="none" stroke="midnightblue" d="M348.786,-76.3855C315.243,-64.9949 276.969,-51.9976 246.249,-41.5658"/>
<polygon fill="midnightblue" stroke="midnightblue" points="347.975,-79.8063 358.569,-79.7077 350.226,-73.1781 347.975,-79.8063"/>
</g>
</g>
</svg>
        <g id="navigator" transform="translate(0 0)" fill="#404254">
                <rect fill="#f2f5e9" fill-opacity="0.5" stroke="#606060" stroke-width=".5" x="0" y="0" width="60" height="60"/>
                <use id="zoomplus" xlink:href="#zoomPlus" x="17" y="9" onmousedown="handleZoom(evt,'in')"/>
                <use id="zoomminus" xlink:href="#zoomMin" x="42" y="9" onmousedown="handleZoom(evt,'out')"/>
                <use id="reset" xlink:href="#resetDef" x="30" y="36" onmousedown="handleReset()"/>
                <g id="arrowUp" xlink:href="#dirArrow" transform="translate(30 24)" onmousedown="handlePan(0,-1)">
                  <use xlink:href="#rim" fill="#404040">
                        <set attributeName="fill" to="#808080" begin="arrowUp.mouseover" end="arrowUp.mouseout"/>
                  </use>
                  <path fill="none" stroke="white" stroke-width="1.5" d="M0,-3.0v7 M-2.5,-0.5L0,-3.0L2.5,-0.5"/>
                </g>
                <g id="arrowRight" xlink:href="#dirArrow" transform="rotate(90) translate(36 -43)" onmousedown="handlePan(1,0)">
                  <use xlink:href="#rim" fill="#404040">
                        <set attributeName="fill" to="#808080" begin="arrowRight.mouseover" end="arrowRight.mouseout"/>
                  </use>
                  <path fill="none" stroke="white" stroke-width="1.5" d="M0,-3.0v7 M-2.5,-0.5L0,-3.0L2.5,-0.5"/>
                </g>
                <g id="arrowDown" xlink:href="#dirArrow" transform="rotate(180) translate(-30 -48)" onmousedown="handlePan(0,1)">
                  <use xlink:href="#rim" fill="#404040">
                        <set attributeName="fill" to="#808080" begin="arrowDown.mouseover" end="arrowDown.mouseout"/>
                  </use>
                  <path fill="none" stroke="white" stroke-width="1.5" d="M0,-3.0v7 M-2.5,-0.5L0,-3.0L2.5,-0.5"/>
                </g>
                <g id="arrowLeft" xlink:href="#dirArrow" transform="rotate(270) translate(-36 17)" onmousedown="handlePan(-1,0)">
                  <use xlink:href="#rim" fill="#404040">
                        <set attributeName="fill" to="#808080" begin="arrowLeft.mouseover" end="arrowLeft.mouseout"/>
                  </use>
                  <path fill="none" stroke="white" stroke-width="1.5" d="M0,-3.0v7 M-2.5,-0.5L0,-3.0L2.5,-0.5"/>
                </g>
        </g>
        <svg viewBox="0 0 15 15" width="100%" height="30px" preserveAspectRatio="xMaxYMin meet">
         <g id="arrow_out" transform="scale(0.3 0.3)">
          <a xlink:href="quaternion_8h__dep__incl_org.svg" target="_base">
           <rect id="button" ry="5" rx="5" y="6" x="6" height="38" width="38"
                fill="#f2f5e9" fill-opacity="0.5" stroke="#606060" stroke-width="1.0"/>
           <path id="arrow"
             d="M 11.500037,31.436501 C 11.940474,20.09759 22.043105,11.32322 32.158766,21.979434 L 37.068811,17.246167 C 37.068811,17.246167 37.088388,32 37.088388,32 L 22.160133,31.978069 C 22.160133,31.978069 26.997745,27.140456 26.997745,27.140456 C 18.528582,18.264221 13.291696,25.230495 11.500037,31.436501 z"
             style="fill:#404040;"/>
          </a>
         </g>
        </svg>
</svg>
