<?xml version="1.0" encoding="UTF-8" standalone="no"?>
<!DOCTYPE svg PUBLIC "-//W3C//DTD SVG 1.1//EN"
 "http://www.w3.org/Graphics/SVG/1.1/DTD/svg11.dtd">
<!-- Generated by graphviz version 2.38.0 (20140413.2041)
 -->
<!-- Title: /bitrise/src/Source/AR6/InstantOn/include/AR6/InstantOn/cv/pnp_estimation/robust_pnp.h Pages: 1 -->
<!--zoomable 597 -->
<svg id="main" version="1.1" xmlns="http://www.w3.org/2000/svg" xmlns:xlink="http://www.w3.org/1999/xlink" xml:space="preserve" onload="init(evt)">
<style type="text/css"><![CDATA[
.edge:hover path { stroke: red; }
.edge:hover polygon { stroke: red; fill: red; }
]]></style>
<script type="text/javascript"><![CDATA[
var edges = document.getElementsByTagName('g');
if (edges && edges.length) {
  for (var i=0;i<edges.length;i++) {
    if (edges[i].id.substr(0,4)=='edge') {
      edges[i].setAttribute('class','edge');
    }
  }
}
]]></script>
        <defs>
                <circle id="rim" cx="0" cy="0" r="7"/>
                <circle id="rim2" cx="0" cy="0" r="3.5"/>
                <g id="zoomPlus">
                        <use xlink:href="#rim" fill="#404040">
                                <set attributeName="fill" to="#808080" begin="zoomplus.mouseover" end="zoomplus.mouseout"/>
                        </use>
                        <path d="M-4,0h8M0,-4v8" fill="none" stroke="white" stroke-width="1.5" pointer-events="none"/>
                </g>
                <g id="zoomMin">
                        <use xlink:href="#rim" fill="#404040">
                                <set attributeName="fill" to="#808080" begin="zoomminus.mouseover" end="zoomminus.mouseout"/>
                        </use>
                        <path d="M-4,0h8" fill="none" stroke="white" stroke-width="1.5" pointer-events="none"/>
                </g>
                <g id="dirArrow">
                        <path fill="none" stroke="white" stroke-width="1.5" d="M0,-3.0v7 M-2.5,-0.5L0,-3.0L2.5,-0.5"/>
                </g>
               <g id="resetDef">
                       <use xlink:href="#rim2" fill="#404040">
                               <set attributeName="fill" to="#808080" begin="reset.mouseover" end="reset.mouseout"/>
                       </use>
               </g>
        </defs>

<script type="text/javascript">
var viewWidth = 1242;
var viewHeight = 597;
var sectionId = 'dynsection-0';
</script>
<script xlink:href="svgpan.js"/>
<svg id="graph" class="graph">
<g id="viewport">
<title>/bitrise/src/Source/AR6/InstantOn/include/AR6/InstantOn/cv/pnp_estimation/robust_pnp.h</title>
<polygon fill="white" stroke="none" points="-4,4 -4,-593 1237.92,-593 1237.92,4 -4,4"/>
<!-- Node1 -->
<g id="node1" class="node"><title>Node1</title>
<polygon fill="#bfbfbf" stroke="black" points="285,-536.5 285,-588.5 411,-588.5 411,-536.5 285,-536.5"/>
<text text-anchor="start" x="293" y="-576.5" font-family="Helvetica,sans-Serif" font-size="10.00">/bitrise/src/Source</text>
<text text-anchor="start" x="293" y="-565.5" font-family="Helvetica,sans-Serif" font-size="10.00">/AR6/InstantOn/include</text>
<text text-anchor="start" x="293" y="-554.5" font-family="Helvetica,sans-Serif" font-size="10.00">/AR6/InstantOn/cv/pnp</text>
<text text-anchor="middle" x="348" y="-543.5" font-family="Helvetica,sans-Serif" font-size="10.00">_estimation/robust_pnp.h</text>
</g>
<!-- Node2 -->
<g id="node2" class="node"><title>Node2</title>
<g id="a_node2"><a xlink:href="pnp__solver_8h.html" target="_top" xlink:title="pnp_solver.h">
<polygon fill="white" stroke="black" points="351,-475 351,-494 423,-494 423,-475 351,-475"/>
<text text-anchor="middle" x="387" y="-482" font-family="Helvetica,sans-Serif" font-size="10.00">pnp_solver.h</text>
</a>
</g>
</g>
<!-- Node1&#45;&gt;Node2 -->
<g id="edge1" class="edge"><title>Node1&#45;&gt;Node2</title>
<path fill="none" stroke="midnightblue" d="M360.986,-536.193C366.512,-525.425 372.826,-513.12 377.85,-503.331"/>
<polygon fill="midnightblue" stroke="midnightblue" points="381.079,-504.704 382.531,-494.209 374.851,-501.508 381.079,-504.704"/>
</g>
<!-- Node20 -->
<g id="node20" class="node"><title>Node20</title>
<polygon fill="white" stroke="#bfbfbf" points="275,-140 275,-159 329,-159 329,-140 275,-140"/>
<text text-anchor="middle" x="302" y="-147" font-family="Helvetica,sans-Serif" font-size="10.00">iostream</text>
</g>
<!-- Node1&#45;&gt;Node20 -->
<g id="edge75" class="edge"><title>Node1&#45;&gt;Node20</title>
<path fill="none" stroke="midnightblue" d="M284.797,-557.515C200.02,-548.356 60,-518.146 60,-418.5 60,-418.5 60,-418.5 60,-349.5 60,-244.729 196.995,-184.963 264.837,-161.79"/>
<polygon fill="midnightblue" stroke="midnightblue" points="266.324,-164.984 274.71,-158.509 264.116,-158.341 266.324,-164.984"/>
</g>
<!-- Node21 -->
<g id="node21" class="node"><title>Node21</title>
<g id="a_node21"><a xlink:href="p3p_8h.html" target="_top" xlink:title="../geometry/p3p.h">
<polygon fill="white" stroke="black" points="480.5,-341 480.5,-360 573.5,-360 573.5,-341 480.5,-341"/>
<text text-anchor="middle" x="527" y="-348" font-family="Helvetica,sans-Serif" font-size="10.00">../geometry/p3p.h</text>
</a>
</g>
</g>
<!-- Node1&#45;&gt;Node21 -->
<g id="edge73" class="edge"><title>Node1&#45;&gt;Node21</title>
<path fill="none" stroke="midnightblue" d="M387.415,-536.334C420.482,-513.262 466.58,-476.187 494,-433 506.753,-412.914 516.209,-387.076 521.656,-369.936"/>
<polygon fill="midnightblue" stroke="midnightblue" points="525.093,-370.661 524.651,-360.076 518.396,-368.627 525.093,-370.661"/>
</g>
<!-- Node24 -->
<g id="node24" class="node"><title>Node24</title>
<g id="a_node24"><a xlink:href="rand_8h.html" target="_top" xlink:title="rand.h">
<polygon fill="white" stroke="black" points="50,-140 50,-159 94,-159 94,-140 50,-140"/>
<text text-anchor="middle" x="72" y="-147" font-family="Helvetica,sans-Serif" font-size="10.00">rand.h</text>
</a>
</g>
</g>
<!-- Node1&#45;&gt;Node24 -->
<g id="edge53" class="edge"><title>Node1&#45;&gt;Node24</title>
<path fill="none" stroke="midnightblue" d="M284.757,-560.895C189.955,-556.274 22,-532.063 22,-418.5 22,-418.5 22,-418.5 22,-282.5 22,-238.993 46.0479,-192.345 60.7888,-167.837"/>
<polygon fill="midnightblue" stroke="midnightblue" points="63.9544,-169.374 66.2644,-159.034 58.0105,-165.677 63.9544,-169.374"/>
</g>
<!-- Node28 -->
<g id="node28" class="node"><title>Node28</title>
<g id="a_node28"><a xlink:href="pnp__jacobians_8h.html" target="_top" xlink:title="pnp_jacobians.h">
<polygon fill="white" stroke="black" points="252.5,-408 252.5,-427 339.5,-427 339.5,-408 252.5,-408"/>
<text text-anchor="middle" x="296" y="-415" font-family="Helvetica,sans-Serif" font-size="10.00">pnp_jacobians.h</text>
</a>
</g>
</g>
<!-- Node1&#45;&gt;Node28 -->
<g id="edge52" class="edge"><title>Node1&#45;&gt;Node28</title>
<path fill="none" stroke="midnightblue" d="M338.823,-536.264C328.414,-507.639 311.701,-461.678 302.536,-436.474"/>
<polygon fill="midnightblue" stroke="midnightblue" points="305.817,-435.255 299.11,-427.053 299.239,-437.648 305.817,-435.255"/>
</g>
<!-- Node29 -->
<g id="node29" class="node"><title>Node29</title>
<g id="a_node29"><a xlink:href="cost__functions_8h.html" target="_top" xlink:title="AR6/InstantOn/math\l/cost_functions.h">
<polygon fill="white" stroke="black" points="126.5,-335.5 126.5,-365.5 233.5,-365.5 233.5,-335.5 126.5,-335.5"/>
<text text-anchor="start" x="134.5" y="-353.5" font-family="Helvetica,sans-Serif" font-size="10.00">AR6/InstantOn/math</text>
<text text-anchor="middle" x="180" y="-342.5" font-family="Helvetica,sans-Serif" font-size="10.00">/cost_functions.h</text>
</a>
</g>
</g>
<!-- Node1&#45;&gt;Node29 -->
<g id="edge74" class="edge"><title>Node1&#45;&gt;Node29</title>
<path fill="none" stroke="midnightblue" d="M326.877,-536.065C305.527,-510.259 271.682,-469.085 243,-433 227.175,-413.09 209.491,-390.15 196.896,-373.691"/>
<polygon fill="midnightblue" stroke="midnightblue" points="199.663,-371.547 190.811,-365.725 194.1,-375.796 199.663,-371.547"/>
</g>
<!-- Node30 -->
<g id="node30" class="node"><title>Node30</title>
<g id="a_node30"><a xlink:href="math_2homography_8h.html" target="_top" xlink:title="AR6/InstantOn/math\l/homography.h">
<polygon fill="white" stroke="black" points="936.5,-268.5 936.5,-298.5 1043.5,-298.5 1043.5,-268.5 936.5,-268.5"/>
<text text-anchor="start" x="944.5" y="-286.5" font-family="Helvetica,sans-Serif" font-size="10.00">AR6/InstantOn/math</text>
<text text-anchor="middle" x="990" y="-275.5" font-family="Helvetica,sans-Serif" font-size="10.00">/homography.h</text>
</a>
</g>
</g>
<!-- Node1&#45;&gt;Node30 -->
<g id="edge54" class="edge"><title>Node1&#45;&gt;Node30</title>
<path fill="none" stroke="midnightblue" d="M409.738,-536.351C436.601,-525.323 468.41,-512.147 497,-500 665.46,-428.424 864.869,-340.164 949.152,-302.696"/>
<polygon fill="midnightblue" stroke="midnightblue" points="950.661,-305.855 958.376,-298.594 947.816,-299.459 950.661,-305.855"/>
</g>
<!-- Node33 -->
<g id="node33" class="node"><title>Node33</title>
<g id="a_node33"><a xlink:href="cholesky__linear__solvers_8h.html" target="_top" xlink:title="AR6/InstantOn/math\l/cholesky_linear_solvers.h">
<polygon fill="white" stroke="black" points="786,-268.5 786,-298.5 918,-298.5 918,-268.5 786,-268.5"/>
<text text-anchor="start" x="794" y="-286.5" font-family="Helvetica,sans-Serif" font-size="10.00">AR6/InstantOn/math</text>
<text text-anchor="middle" x="852" y="-275.5" font-family="Helvetica,sans-Serif" font-size="10.00">/cholesky_linear_solvers.h</text>
</a>
</g>
</g>
<!-- Node1&#45;&gt;Node33 -->
<g id="edge63" class="edge"><title>Node1&#45;&gt;Node33</title>
<path fill="none" stroke="midnightblue" d="M404.302,-536.404C424.29,-526.352 446.421,-513.856 465,-500 547.133,-438.745 536.517,-384.907 626,-335 651.452,-320.805 720.557,-306.491 775.71,-296.746"/>
<polygon fill="midnightblue" stroke="midnightblue" points="776.582,-300.147 785.832,-294.981 775.38,-293.251 776.582,-300.147"/>
</g>
<!-- Node35 -->
<g id="node35" class="node"><title>Node35</title>
<g id="a_node35"><a xlink:href="robustifiers_8h.html" target="_top" xlink:title="AR6/InstantOn/math\l/robustifiers.h">
<polygon fill="white" stroke="black" points="88.5,-402.5 88.5,-432.5 195.5,-432.5 195.5,-402.5 88.5,-402.5"/>
<text text-anchor="start" x="96.5" y="-420.5" font-family="Helvetica,sans-Serif" font-size="10.00">AR6/InstantOn/math</text>
<text text-anchor="middle" x="142" y="-409.5" font-family="Helvetica,sans-Serif" font-size="10.00">/robustifiers.h</text>
</a>
</g>
</g>
<!-- Node1&#45;&gt;Node35 -->
<g id="edge70" class="edge"><title>Node1&#45;&gt;Node35</title>
<path fill="none" stroke="midnightblue" d="M284.924,-540.452C260.169,-530.446 232.388,-516.926 210,-500 188.345,-483.628 169.094,-459.109 156.652,-441.242"/>
<polygon fill="midnightblue" stroke="midnightblue" points="159.294,-438.902 150.79,-432.583 153.498,-442.826 159.294,-438.902"/>
</g>
<!-- Node36 -->
<g id="node36" class="node"><title>Node36</title>
<g id="a_node36"><a xlink:href="partial__sort_8h.html" target="_top" xlink:title="AR6/InstantOn/utils\l/partial_sort.h">
<polygon fill="white" stroke="black" points="668.5,-469.5 668.5,-499.5 771.5,-499.5 771.5,-469.5 668.5,-469.5"/>
<text text-anchor="start" x="676.5" y="-487.5" font-family="Helvetica,sans-Serif" font-size="10.00">AR6/InstantOn/utils</text>
<text text-anchor="middle" x="720" y="-476.5" font-family="Helvetica,sans-Serif" font-size="10.00">/partial_sort.h</text>
</a>
</g>
</g>
<!-- Node1&#45;&gt;Node36 -->
<g id="edge72" class="edge"><title>Node1&#45;&gt;Node36</title>
<path fill="none" stroke="midnightblue" d="M411.068,-549.167C472.985,-536.979 570.084,-517.649 654,-500 655.471,-499.691 656.96,-499.376 658.462,-499.057"/>
<polygon fill="midnightblue" stroke="midnightblue" points="659.451,-502.425 668.496,-496.909 657.985,-495.58 659.451,-502.425"/>
</g>
<!-- Node3 -->
<g id="node3" class="node"><title>Node3</title>
<g id="a_node3"><a xlink:href="indexing_8h.html" target="_top" xlink:title="AR6/InstantOn/math\l/indexing.h">
<polygon fill="white" stroke="black" points="645.5,-67.5 645.5,-97.5 752.5,-97.5 752.5,-67.5 645.5,-67.5"/>
<text text-anchor="start" x="653.5" y="-85.5" font-family="Helvetica,sans-Serif" font-size="10.00">AR6/InstantOn/math</text>
<text text-anchor="middle" x="699" y="-74.5" font-family="Helvetica,sans-Serif" font-size="10.00">/indexing.h</text>
</a>
</g>
</g>
<!-- Node2&#45;&gt;Node3 -->
<g id="edge2" class="edge"><title>Node2&#45;&gt;Node3</title>
<path fill="none" stroke="midnightblue" d="M389.954,-474.797C402.712,-438.155 456.112,-294.029 537,-201 573.622,-158.881 628.075,-123.354 663.558,-102.731"/>
<polygon fill="midnightblue" stroke="midnightblue" points="665.647,-105.568 672.59,-97.5654 662.172,-99.4918 665.647,-105.568"/>
</g>
<!-- Node7 -->
<g id="node7" class="node"><title>Node7</title>
<g id="a_node7"><a xlink:href="linear__solvers_8h.html" target="_top" xlink:title="AR6/InstantOn/math\l/linear_solvers.h">
<polygon fill="white" stroke="black" points="316.5,-268.5 316.5,-298.5 423.5,-298.5 423.5,-268.5 316.5,-268.5"/>
<text text-anchor="start" x="324.5" y="-286.5" font-family="Helvetica,sans-Serif" font-size="10.00">AR6/InstantOn/math</text>
<text text-anchor="middle" x="370" y="-275.5" font-family="Helvetica,sans-Serif" font-size="10.00">/linear_solvers.h</text>
</a>
</g>
</g>
<!-- Node2&#45;&gt;Node7 -->
<g id="edge6" class="edge"><title>Node2&#45;&gt;Node7</title>
<path fill="none" stroke="midnightblue" d="M386.588,-474.926C385.849,-460.065 384.17,-428.562 382,-402 379.362,-369.713 375.41,-332.528 372.77,-308.786"/>
<polygon fill="midnightblue" stroke="midnightblue" points="376.22,-308.138 371.625,-298.591 369.263,-308.919 376.22,-308.138"/>
</g>
<!-- Node10 -->
<g id="node10" class="node"><title>Node10</title>
<g id="a_node10"><a xlink:href="math__utils_8h.html" target="_top" xlink:title="math_utils.h">
<polygon fill="white" stroke="black" points="420,-73 420,-92 490,-92 490,-73 420,-73"/>
<text text-anchor="middle" x="455" y="-80" font-family="Helvetica,sans-Serif" font-size="10.00">math_utils.h</text>
</a>
</g>
</g>
<!-- Node2&#45;&gt;Node10 -->
<g id="edge24" class="edge"><title>Node2&#45;&gt;Node10</title>
<path fill="none" stroke="midnightblue" d="M382.814,-474.809C370.301,-448.639 332.469,-368.123 307,-299 285.467,-240.56 275.212,-226.596 266,-165 263.962,-151.374 257.609,-144.928 266,-134 283.417,-111.319 359.702,-96.6253 409.871,-89.2253"/>
<polygon fill="midnightblue" stroke="midnightblue" points="410.437,-92.6801 419.84,-87.7995 409.445,-85.7506 410.437,-92.6801"/>
</g>
<!-- Node2&#45;&gt;Node21 -->
<g id="edge25" class="edge"><title>Node2&#45;&gt;Node21</title>
<path fill="none" stroke="midnightblue" d="M403.945,-474.999C420.828,-466.02 446.917,-450.725 466,-433 486.869,-413.616 505.637,-386.34 516.679,-368.789"/>
<polygon fill="midnightblue" stroke="midnightblue" points="519.733,-370.504 521.983,-360.151 513.768,-366.841 519.733,-370.504"/>
</g>
<!-- Node2&#45;&gt;Node28 -->
<g id="edge48" class="edge"><title>Node2&#45;&gt;Node28</title>
<path fill="none" stroke="midnightblue" d="M374.727,-474.734C359.855,-464.111 334.568,-446.049 316.67,-433.264"/>
<polygon fill="midnightblue" stroke="midnightblue" points="318.25,-430.092 308.078,-427.127 314.181,-435.788 318.25,-430.092"/>
</g>
<!-- Node4 -->
<g id="node4" class="node"><title>Node4</title>
<polygon fill="white" stroke="#bfbfbf" points="742,-6 742,-25 794,-25 794,-6 742,-6"/>
<text text-anchor="middle" x="768" y="-13" font-family="Helvetica,sans-Serif" font-size="10.00">memory</text>
</g>
<!-- Node3&#45;&gt;Node4 -->
<g id="edge3" class="edge"><title>Node3&#45;&gt;Node4</title>
<path fill="none" stroke="midnightblue" d="M713.972,-67.396C724.944,-57.0604 739.844,-43.0237 751.218,-32.309"/>
<polygon fill="midnightblue" stroke="midnightblue" points="753.891,-34.5991 758.77,-25.1945 749.092,-29.5039 753.891,-34.5991"/>
</g>
<!-- Node5 -->
<g id="node5" class="node"><title>Node5</title>
<polygon fill="white" stroke="#bfbfbf" points="607.5,-6 607.5,-25 656.5,-25 656.5,-6 607.5,-6"/>
<text text-anchor="middle" x="632" y="-13" font-family="Helvetica,sans-Serif" font-size="10.00">cstddef</text>
</g>
<!-- Node3&#45;&gt;Node5 -->
<g id="edge4" class="edge"><title>Node3&#45;&gt;Node5</title>
<path fill="none" stroke="midnightblue" d="M684.462,-67.396C673.808,-57.0604 659.34,-43.0237 648.295,-32.309"/>
<polygon fill="midnightblue" stroke="midnightblue" points="650.577,-29.6456 640.962,-25.1945 645.702,-34.6698 650.577,-29.6456"/>
</g>
<!-- Node6 -->
<g id="node6" class="node"><title>Node6</title>
<polygon fill="white" stroke="#bfbfbf" points="674.5,-6 674.5,-25 723.5,-25 723.5,-6 674.5,-6"/>
<text text-anchor="middle" x="699" y="-13" font-family="Helvetica,sans-Serif" font-size="10.00">string.h</text>
</g>
<!-- Node3&#45;&gt;Node6 -->
<g id="edge5" class="edge"><title>Node3&#45;&gt;Node6</title>
<path fill="none" stroke="midnightblue" d="M699,-67.396C699,-58.0638 699,-45.7143 699,-35.5173"/>
<polygon fill="midnightblue" stroke="midnightblue" points="702.5,-35.1945 699,-25.1945 695.5,-35.1946 702.5,-35.1945"/>
</g>
<!-- Node7&#45;&gt;Node3 -->
<g id="edge20" class="edge"><title>Node7&#45;&gt;Node3</title>
<path fill="none" stroke="midnightblue" d="M384.417,-268.344C402.475,-251.083 434.841,-221.659 466,-201 528.655,-159.458 607.981,-122.402 656.041,-101.471"/>
<polygon fill="midnightblue" stroke="midnightblue" points="657.431,-104.683 665.222,-97.5031 654.654,-98.2575 657.431,-104.683"/>
</g>
<!-- Node8 -->
<g id="node8" class="node"><title>Node8</title>
<polygon fill="white" stroke="#bfbfbf" points="0,-73 0,-92 56,-92 56,-73 0,-73"/>
<text text-anchor="middle" x="28" y="-80" font-family="Helvetica,sans-Serif" font-size="10.00">algorithm</text>
</g>
<!-- Node7&#45;&gt;Node8 -->
<g id="edge7" class="edge"><title>Node7&#45;&gt;Node8</title>
<path fill="none" stroke="midnightblue" d="M316.192,-279.555C242.085,-272.42 109.968,-248.059 41,-165 26.515,-147.556 24.9706,-120.535 25.903,-102.443"/>
<polygon fill="midnightblue" stroke="midnightblue" points="29.4085,-102.518 26.7361,-92.266 22.4318,-101.947 29.4085,-102.518"/>
</g>
<!-- Node9 -->
<g id="node9" class="node"><title>Node9</title>
<g id="a_node9"><a xlink:href="linear__algebra_8h.html" target="_top" xlink:title="linear_algebra.h">
<polygon fill="white" stroke="black" points="873.5,-140 873.5,-159 958.5,-159 958.5,-140 873.5,-140"/>
<text text-anchor="middle" x="916" y="-147" font-family="Helvetica,sans-Serif" font-size="10.00">linear_algebra.h</text>
</a>
</g>
</g>
<!-- Node7&#45;&gt;Node9 -->
<g id="edge8" class="edge"><title>Node7&#45;&gt;Node9</title>
<path fill="none" stroke="midnightblue" d="M423.683,-276.329C482.771,-268.819 580.23,-254.309 662,-232 699.588,-221.745 707.059,-213.386 744,-201 788.178,-186.187 839.513,-171.428 874.523,-161.726"/>
<polygon fill="midnightblue" stroke="midnightblue" points="875.681,-165.037 884.391,-159.005 873.82,-158.289 875.681,-165.037"/>
</g>
<!-- Node18 -->
<g id="node18" class="node"><title>Node18</title>
<g id="a_node18"><a xlink:href="math__io_8h.html" target="_top" xlink:title="math_io.h">
<polygon fill="white" stroke="black" points="316.5,-207 316.5,-226 375.5,-226 375.5,-207 316.5,-207"/>
<text text-anchor="middle" x="346" y="-214" font-family="Helvetica,sans-Serif" font-size="10.00">math_io.h</text>
</a>
</g>
</g>
<!-- Node7&#45;&gt;Node18 -->
<g id="edge21" class="edge"><title>Node7&#45;&gt;Node18</title>
<path fill="none" stroke="midnightblue" d="M364.792,-268.396C361.273,-258.863 356.59,-246.182 352.78,-235.862"/>
<polygon fill="midnightblue" stroke="midnightblue" points="355.957,-234.363 349.21,-226.195 349.391,-236.788 355.957,-234.363"/>
</g>
<!-- Node9&#45;&gt;Node3 -->
<g id="edge19" class="edge"><title>Node9&#45;&gt;Node3</title>
<path fill="none" stroke="midnightblue" d="M887.184,-139.869C853.706,-129.841 797.671,-113.056 755.434,-100.404"/>
<polygon fill="midnightblue" stroke="midnightblue" points="756.416,-97.0447 745.832,-97.5281 754.407,-103.75 756.416,-97.0447"/>
</g>
<!-- Node9&#45;&gt;Node10 -->
<g id="edge9" class="edge"><title>Node9&#45;&gt;Node10</title>
<path fill="none" stroke="midnightblue" d="M873.457,-142.501C786.513,-130.243 589.177,-102.419 500.109,-89.8603"/>
<polygon fill="midnightblue" stroke="midnightblue" points="500.443,-86.3728 490.052,-88.4423 499.465,-93.3042 500.443,-86.3728"/>
</g>
<!-- Node13 -->
<g id="node13" class="node"><title>Node13</title>
<g id="a_node13"><a xlink:href="_instant_on_2include_2_a_r6_2_instant_on_2math_2matrix_8h.html" target="_top" xlink:title="matrix.h">
<polygon fill="white" stroke="black" points="998,-73 998,-92 1050,-92 1050,-73 998,-73"/>
<text text-anchor="middle" x="1024" y="-80" font-family="Helvetica,sans-Serif" font-size="10.00">matrix.h</text>
</a>
</g>
</g>
<!-- Node9&#45;&gt;Node13 -->
<g id="edge12" class="edge"><title>Node9&#45;&gt;Node13</title>
<path fill="none" stroke="midnightblue" d="M930.565,-139.734C948.621,-128.867 979.61,-110.216 1000.92,-97.3931"/>
<polygon fill="midnightblue" stroke="midnightblue" points="1002.9,-100.283 1009.67,-92.1273 999.293,-94.2852 1002.9,-100.283"/>
</g>
<!-- Node14 -->
<g id="node14" class="node"><title>Node14</title>
<g id="a_node14"><a xlink:href="vector_8h.html" target="_top" xlink:title="vector.h">
<polygon fill="white" stroke="black" points="938,-6 938,-25 990,-25 990,-6 938,-6"/>
<text text-anchor="middle" x="964" y="-13" font-family="Helvetica,sans-Serif" font-size="10.00">vector.h</text>
</a>
</g>
</g>
<!-- Node9&#45;&gt;Node14 -->
<g id="edge16" class="edge"><title>Node9&#45;&gt;Node14</title>
<path fill="none" stroke="midnightblue" d="M921.952,-139.954C928.482,-130.214 938.85,-113.616 945,-98 953.132,-77.3509 958.324,-52.3274 961.189,-35.5014"/>
<polygon fill="midnightblue" stroke="midnightblue" points="964.695,-35.7424 962.809,-25.3168 957.782,-34.643 964.695,-35.7424"/>
</g>
<!-- Node16 -->
<g id="node16" class="node"><title>Node16</title>
<polygon fill="white" stroke="#bfbfbf" points="826,-73 826,-92 878,-92 878,-73 826,-73"/>
<text text-anchor="middle" x="852" y="-80" font-family="Helvetica,sans-Serif" font-size="10.00">assert.h</text>
</g>
<!-- Node9&#45;&gt;Node16 -->
<g id="edge17" class="edge"><title>Node9&#45;&gt;Node16</title>
<path fill="none" stroke="midnightblue" d="M907.369,-139.734C897.197,-129.403 880.098,-112.037 867.588,-99.3315"/>
<polygon fill="midnightblue" stroke="midnightblue" points="870.005,-96.7974 860.495,-92.1273 865.017,-101.709 870.005,-96.7974"/>
</g>
<!-- Node17 -->
<g id="node17" class="node"><title>Node17</title>
<polygon fill="white" stroke="#bfbfbf" points="896,-73 896,-92 936,-92 936,-73 896,-73"/>
<text text-anchor="middle" x="916" y="-80" font-family="Helvetica,sans-Serif" font-size="10.00">limits</text>
</g>
<!-- Node9&#45;&gt;Node17 -->
<g id="edge18" class="edge"><title>Node9&#45;&gt;Node17</title>
<path fill="none" stroke="midnightblue" d="M916,-139.734C916,-130.183 916,-114.618 916,-102.283"/>
<polygon fill="midnightblue" stroke="midnightblue" points="919.5,-102.127 916,-92.1273 912.5,-102.127 919.5,-102.127"/>
</g>
<!-- Node11 -->
<g id="node11" class="node"><title>Node11</title>
<polygon fill="white" stroke="#bfbfbf" points="844,-6 844,-25 888,-25 888,-6 844,-6"/>
<text text-anchor="middle" x="866" y="-13" font-family="Helvetica,sans-Serif" font-size="10.00">cmath</text>
</g>
<!-- Node10&#45;&gt;Node11 -->
<g id="edge10" class="edge"><title>Node10&#45;&gt;Node11</title>
<path fill="none" stroke="midnightblue" d="M490.228,-77.3591C553.238,-69.7369 689.289,-52.2992 803,-31 813.153,-29.0983 824.147,-26.69 834.067,-24.3851"/>
<polygon fill="midnightblue" stroke="midnightblue" points="835.011,-27.7583 843.935,-22.0461 833.397,-20.947 835.011,-27.7583"/>
</g>
<!-- Node12 -->
<g id="node12" class="node"><title>Node12</title>
<polygon fill="white" stroke="#bfbfbf" points="467,-0.5 467,-30.5 569,-30.5 569,-0.5 467,-0.5"/>
<text text-anchor="start" x="475" y="-18.5" font-family="Helvetica,sans-Serif" font-size="10.00">artvision/framework</text>
<text text-anchor="middle" x="518" y="-7.5" font-family="Helvetica,sans-Serif" font-size="10.00">/error.h</text>
</g>
<!-- Node10&#45;&gt;Node12 -->
<g id="edge11" class="edge"><title>Node10&#45;&gt;Node12</title>
<path fill="none" stroke="midnightblue" d="M463.496,-72.7338C472.093,-63.8649 485.714,-49.8111 497.188,-37.9722"/>
<polygon fill="midnightblue" stroke="midnightblue" points="499.898,-40.2056 504.344,-30.589 494.871,-35.3338 499.898,-40.2056"/>
</g>
<!-- Node13&#45;&gt;Node12 -->
<g id="edge13" class="edge"><title>Node13&#45;&gt;Node12</title>
<path fill="none" stroke="midnightblue" d="M997.751,-76.1505C982.418,-73.159 962.668,-69.534 945,-67 791.521,-44.9877 751.504,-52.8419 598,-31 591.856,-30.1257 585.462,-29.124 579.086,-28.0645"/>
<polygon fill="midnightblue" stroke="midnightblue" points="579.566,-24.5958 569.119,-26.3618 578.387,-31.4959 579.566,-24.5958"/>
</g>
<!-- Node13&#45;&gt;Node14 -->
<g id="edge14" class="edge"><title>Node13&#45;&gt;Node14</title>
<path fill="none" stroke="midnightblue" d="M1015.91,-72.7338C1006.46,-62.5004 990.644,-45.3642 978.947,-32.6924"/>
<polygon fill="midnightblue" stroke="midnightblue" points="981.318,-30.1014 971.964,-25.1273 976.175,-34.8494 981.318,-30.1014"/>
</g>
<!-- Node15 -->
<g id="node15" class="node"><title>Node15</title>
<polygon fill="white" stroke="#bfbfbf" points="1008,-6 1008,-25 1052,-25 1052,-6 1008,-6"/>
<text text-anchor="middle" x="1030" y="-13" font-family="Helvetica,sans-Serif" font-size="10.00">vector</text>
</g>
<!-- Node13&#45;&gt;Node15 -->
<g id="edge15" class="edge"><title>Node13&#45;&gt;Node15</title>
<path fill="none" stroke="midnightblue" d="M1024.81,-72.7338C1025.69,-63.1826 1027.13,-47.6183 1028.27,-35.2829"/>
<polygon fill="midnightblue" stroke="midnightblue" points="1031.77,-35.4067 1029.2,-25.1273 1024.8,-34.7632 1031.77,-35.4067"/>
</g>
<!-- Node19 -->
<g id="node19" class="node"><title>Node19</title>
<polygon fill="white" stroke="#bfbfbf" points="347.5,-140 347.5,-159 388.5,-159 388.5,-140 347.5,-140"/>
<text text-anchor="middle" x="368" y="-147" font-family="Helvetica,sans-Serif" font-size="10.00">string</text>
</g>
<!-- Node18&#45;&gt;Node19 -->
<g id="edge22" class="edge"><title>Node18&#45;&gt;Node19</title>
<path fill="none" stroke="midnightblue" d="M348.967,-206.734C352.233,-197.085 357.575,-181.3 361.77,-168.906"/>
<polygon fill="midnightblue" stroke="midnightblue" points="365.189,-169.722 365.08,-159.127 358.559,-167.477 365.189,-169.722"/>
</g>
<!-- Node18&#45;&gt;Node20 -->
<g id="edge23" class="edge"><title>Node18&#45;&gt;Node20</title>
<path fill="none" stroke="midnightblue" d="M340.066,-206.734C333.271,-196.695 321.979,-180.014 313.454,-167.421"/>
<polygon fill="midnightblue" stroke="midnightblue" points="316.344,-165.446 307.84,-159.127 310.547,-169.37 316.344,-165.446"/>
</g>
<!-- Node21&#45;&gt;Node3 -->
<g id="edge41" class="edge"><title>Node21&#45;&gt;Node3</title>
<path fill="none" stroke="midnightblue" d="M545.703,-340.853C563.674,-331.974 590.979,-316.944 611,-299 638.869,-274.023 645.81,-265.74 662,-232 681.758,-190.825 691.664,-137.994 696.041,-107.723"/>
<polygon fill="midnightblue" stroke="midnightblue" points="699.531,-108.035 697.411,-97.6543 692.595,-107.091 699.531,-108.035"/>
</g>
<!-- Node21&#45;&gt;Node9 -->
<g id="edge47" class="edge"><title>Node21&#45;&gt;Node9</title>
<path fill="none" stroke="midnightblue" d="M562.704,-340.999C621.479,-326.977 732.335,-300.397 734,-299 770.431,-268.42 742.292,-233.522 777,-201 800.715,-178.779 834.96,-166.186 863.524,-159.133"/>
<polygon fill="midnightblue" stroke="midnightblue" points="864.407,-162.521 873.364,-156.862 862.834,-155.7 864.407,-162.521"/>
</g>
<!-- Node21&#45;&gt;Node10 -->
<g id="edge40" class="edge"><title>Node21&#45;&gt;Node10</title>
<path fill="none" stroke="midnightblue" d="M524.686,-340.951C514.595,-303.67 474.307,-154.828 460.04,-102.119"/>
<polygon fill="midnightblue" stroke="midnightblue" points="463.333,-100.889 457.342,-92.1509 456.576,-102.718 463.333,-100.889"/>
</g>
<!-- Node22 -->
<g id="node22" class="node"><title>Node22</title>
<g id="a_node22"><a xlink:href="camera_8h.html" target="_top" xlink:title="camera.h">
<polygon fill="white" stroke="black" points="545.5,-274 545.5,-293 602.5,-293 602.5,-274 545.5,-274"/>
<text text-anchor="middle" x="574" y="-281" font-family="Helvetica,sans-Serif" font-size="10.00">camera.h</text>
</a>
</g>
</g>
<!-- Node21&#45;&gt;Node22 -->
<g id="edge26" class="edge"><title>Node21&#45;&gt;Node22</title>
<path fill="none" stroke="midnightblue" d="M533.339,-340.734C540.597,-330.695 552.659,-314.014 561.765,-301.421"/>
<polygon fill="midnightblue" stroke="midnightblue" points="564.739,-303.282 567.762,-293.127 559.066,-299.18 564.739,-303.282"/>
</g>
<!-- Node25 -->
<g id="node25" class="node"><title>Node25</title>
<g id="a_node25"><a xlink:href="transforms3d_8h.html" target="_top" xlink:title="../geometry/transforms3d.h">
<polygon fill="white" stroke="black" points="1066,-207 1066,-226 1200,-226 1200,-207 1066,-207"/>
<text text-anchor="middle" x="1133" y="-214" font-family="Helvetica,sans-Serif" font-size="10.00">../geometry/transforms3d.h</text>
</a>
</g>
</g>
<!-- Node21&#45;&gt;Node25 -->
<g id="edge39" class="edge"><title>Node21&#45;&gt;Node25</title>
<path fill="none" stroke="midnightblue" d="M573.559,-349.03C685.714,-347.263 967.792,-338.868 1052,-299 1082.37,-284.621 1107.84,-253.882 1121.71,-234.535"/>
<polygon fill="midnightblue" stroke="midnightblue" points="1124.75,-236.291 1127.56,-226.075 1119,-232.311 1124.75,-236.291"/>
</g>
<!-- Node26 -->
<g id="node26" class="node"><title>Node26</title>
<g id="a_node26"><a xlink:href="polynomial_8h.html" target="_top" xlink:title="AR6/InstantOn/math\l/polynomial.h">
<polygon fill="white" stroke="black" points="111.5,-134.5 111.5,-164.5 218.5,-164.5 218.5,-134.5 111.5,-134.5"/>
<text text-anchor="start" x="119.5" y="-152.5" font-family="Helvetica,sans-Serif" font-size="10.00">AR6/InstantOn/math</text>
<text text-anchor="middle" x="165" y="-141.5" font-family="Helvetica,sans-Serif" font-size="10.00">/polynomial.h</text>
</a>
</g>
</g>
<!-- Node21&#45;&gt;Node26 -->
<g id="edge42" class="edge"><title>Node21&#45;&gt;Node26</title>
<path fill="none" stroke="midnightblue" d="M480.389,-346.589C433.824,-341.958 361.515,-329.975 307,-299 250.869,-267.107 203.131,-206.087 179.974,-173.065"/>
<polygon fill="midnightblue" stroke="midnightblue" points="182.66,-170.794 174.108,-164.541 176.894,-174.763 182.66,-170.794"/>
</g>
<!-- Node22&#45;&gt;Node12 -->
<g id="edge27" class="edge"><title>Node22&#45;&gt;Node12</title>
<path fill="none" stroke="midnightblue" d="M565.207,-273.739C556.373,-264.324 543.205,-248.478 537,-232 512.267,-166.318 513.518,-81.701 515.997,-40.7893"/>
<polygon fill="midnightblue" stroke="midnightblue" points="519.498,-40.9031 516.691,-30.6868 512.514,-40.4235 519.498,-40.9031"/>
</g>
<!-- Node23 -->
<g id="node23" class="node"><title>Node23</title>
<g id="a_node23"><a xlink:href="quaternion_8h.html" target="_top" xlink:title="AR6/InstantOn/math\l/quaternion.h">
<polygon fill="white" stroke="black" points="546.5,-201.5 546.5,-231.5 653.5,-231.5 653.5,-201.5 546.5,-201.5"/>
<text text-anchor="start" x="554.5" y="-219.5" font-family="Helvetica,sans-Serif" font-size="10.00">AR6/InstantOn/math</text>
<text text-anchor="middle" x="600" y="-208.5" font-family="Helvetica,sans-Serif" font-size="10.00">/quaternion.h</text>
</a>
</g>
</g>
<!-- Node22&#45;&gt;Node23 -->
<g id="edge28" class="edge"><title>Node22&#45;&gt;Node23</title>
<path fill="none" stroke="midnightblue" d="M577.506,-273.734C580.851,-265.372 586.04,-252.4 590.591,-241.022"/>
<polygon fill="midnightblue" stroke="midnightblue" points="593.9,-242.174 594.364,-231.589 587.401,-239.574 593.9,-242.174"/>
</g>
<!-- Node22&#45;&gt;Node25 -->
<g id="edge36" class="edge"><title>Node22&#45;&gt;Node25</title>
<path fill="none" stroke="midnightblue" d="M602.624,-280.323C677.406,-274.458 884.708,-257.059 1056,-232 1064.13,-230.81 1072.72,-229.374 1081.09,-227.874"/>
<polygon fill="midnightblue" stroke="midnightblue" points="1081.94,-231.276 1091.14,-226.026 1080.68,-224.391 1081.94,-231.276"/>
</g>
<!-- Node23&#45;&gt;Node3 -->
<g id="edge32" class="edge"><title>Node23&#45;&gt;Node3</title>
<path fill="none" stroke="midnightblue" d="M613.933,-201.458C623.41,-191.615 635.996,-177.952 646,-165 660.712,-145.953 675.478,-122.839 685.674,-106.098"/>
<polygon fill="midnightblue" stroke="midnightblue" points="688.679,-107.892 690.838,-97.5191 682.682,-104.281 688.679,-107.892"/>
</g>
<!-- Node23&#45;&gt;Node9 -->
<g id="edge30" class="edge"><title>Node23&#45;&gt;Node9</title>
<path fill="none" stroke="midnightblue" d="M653.812,-203.978C658.609,-202.965 663.391,-201.961 668,-201 735.406,-186.951 813.215,-171.179 863.434,-161.058"/>
<polygon fill="midnightblue" stroke="midnightblue" points="864.297,-164.455 873.409,-159.049 862.914,-157.592 864.297,-164.455"/>
</g>
<!-- Node23&#45;&gt;Node10 -->
<g id="edge31" class="edge"><title>Node23&#45;&gt;Node10</title>
<path fill="none" stroke="midnightblue" d="M584.482,-201.374C557.087,-176.434 500.366,-124.798 471.97,-98.9482"/>
<polygon fill="midnightblue" stroke="midnightblue" points="474.195,-96.2409 464.444,-92.0973 469.483,-101.417 474.195,-96.2409"/>
</g>
<!-- Node23&#45;&gt;Node12 -->
<g id="edge29" class="edge"><title>Node23&#45;&gt;Node12</title>
<path fill="none" stroke="midnightblue" d="M594.103,-201.188C580.126,-167.268 544.873,-81.7152 527.701,-40.0417"/>
<polygon fill="midnightblue" stroke="midnightblue" points="530.89,-38.5943 523.844,-30.6819 524.418,-41.2612 530.89,-38.5943"/>
</g>
<!-- Node23&#45;&gt;Node24 -->
<g id="edge33" class="edge"><title>Node23&#45;&gt;Node24</title>
<path fill="none" stroke="midnightblue" d="M546.289,-211.117C426.354,-201.178 143.967,-176.87 102,-165 100.121,-164.469 98.2166,-163.825 96.3253,-163.109"/>
<polygon fill="midnightblue" stroke="midnightblue" points="97.7282,-159.902 87.164,-159.096 94.9197,-166.314 97.7282,-159.902"/>
</g>
<!-- Node24&#45;&gt;Node8 -->
<g id="edge34" class="edge"><title>Node24&#45;&gt;Node8</title>
<path fill="none" stroke="midnightblue" d="M66.066,-139.734C59.2707,-129.695 47.979,-113.014 39.4544,-100.421"/>
<polygon fill="midnightblue" stroke="midnightblue" points="42.3441,-98.4464 33.84,-92.1273 36.5473,-102.37 42.3441,-98.4464"/>
</g>
<!-- Node24&#45;&gt;Node10 -->
<g id="edge35" class="edge"><title>Node24&#45;&gt;Node10</title>
<path fill="none" stroke="midnightblue" d="M87.5117,-139.882C92.0645,-137.663 97.131,-135.486 102,-134 209.214,-101.285 341.354,-89.5852 409.527,-85.5386"/>
<polygon fill="midnightblue" stroke="midnightblue" points="410.119,-89.0108 419.906,-84.9528 409.724,-82.022 410.119,-89.0108"/>
</g>
<!-- Node25&#45;&gt;Node9 -->
<g id="edge38" class="edge"><title>Node25&#45;&gt;Node9</title>
<path fill="none" stroke="midnightblue" d="M1104.18,-206.869C1065.65,-195.327 997.243,-174.835 954.378,-161.996"/>
<polygon fill="midnightblue" stroke="midnightblue" points="955.173,-158.58 944.589,-159.064 953.165,-165.286 955.173,-158.58"/>
</g>
<!-- Node25&#45;&gt;Node13 -->
<g id="edge37" class="edge"><title>Node25&#45;&gt;Node13</title>
<path fill="none" stroke="midnightblue" d="M1126.45,-206.794C1115.05,-191.733 1090.71,-159.939 1069,-134 1059.23,-122.32 1047.81,-109.514 1038.92,-99.7205"/>
<polygon fill="midnightblue" stroke="midnightblue" points="1041.46,-97.3185 1032.14,-92.293 1036.29,-102.038 1041.46,-97.3185"/>
</g>
<!-- Node26&#45;&gt;Node3 -->
<g id="edge44" class="edge"><title>Node26&#45;&gt;Node3</title>
<path fill="none" stroke="midnightblue" d="M218.691,-140.522C233.967,-138.326 250.629,-135.999 266,-134 397.077,-116.95 550.838,-99.6598 635.325,-90.3925"/>
<polygon fill="midnightblue" stroke="midnightblue" points="635.719,-93.8703 645.278,-89.3026 634.957,-86.9119 635.719,-93.8703"/>
</g>
<!-- Node26&#45;&gt;Node10 -->
<g id="edge43" class="edge"><title>Node26&#45;&gt;Node10</title>
<path fill="none" stroke="midnightblue" d="M218.528,-136.502C273.457,-124.191 357.985,-105.245 409.703,-93.6527"/>
<polygon fill="midnightblue" stroke="midnightblue" points="410.599,-97.0389 419.591,-91.4365 409.068,-90.2084 410.599,-97.0389"/>
</g>
<!-- Node26&#45;&gt;Node12 -->
<g id="edge45" class="edge"><title>Node26&#45;&gt;Node12</title>
<path fill="none" stroke="midnightblue" d="M163.894,-134.368C163.304,-116.004 165.326,-84.2546 184,-67 222.648,-31.2894 371.238,-20.8293 456.641,-17.7667"/>
<polygon fill="midnightblue" stroke="midnightblue" points="456.854,-21.2617 466.731,-17.4287 456.619,-14.2656 456.854,-21.2617"/>
</g>
<!-- Node27 -->
<g id="node27" class="node"><title>Node27</title>
<polygon fill="white" stroke="#bfbfbf" points="193.5,-73 193.5,-92 236.5,-92 236.5,-73 193.5,-73"/>
<text text-anchor="middle" x="215" y="-80" font-family="Helvetica,sans-Serif" font-size="10.00">deque</text>
</g>
<!-- Node26&#45;&gt;Node27 -->
<g id="edge46" class="edge"><title>Node26&#45;&gt;Node27</title>
<path fill="none" stroke="midnightblue" d="M175.849,-134.396C183.568,-124.361 193.971,-110.838 202.113,-100.253"/>
<polygon fill="midnightblue" stroke="midnightblue" points="204.989,-102.255 208.312,-92.1945 199.441,-97.9868 204.989,-102.255"/>
</g>
<!-- Node28&#45;&gt;Node21 -->
<g id="edge50" class="edge"><title>Node28&#45;&gt;Node21</title>
<path fill="none" stroke="midnightblue" d="M326.675,-407.869C367.865,-396.278 441.131,-375.662 486.722,-362.834"/>
<polygon fill="midnightblue" stroke="midnightblue" points="487.888,-366.142 496.566,-360.064 485.992,-359.403 487.888,-366.142"/>
</g>
<!-- Node28&#45;&gt;Node24 -->
<g id="edge49" class="edge"><title>Node28&#45;&gt;Node24</title>
<path fill="none" stroke="midnightblue" d="M290.761,-407.62C281.581,-392.295 261.686,-360.113 242,-335 190.2,-268.92 120.016,-197.74 88.5079,-166.611"/>
<polygon fill="midnightblue" stroke="midnightblue" points="90.613,-163.773 81.0283,-159.258 85.7055,-168.764 90.613,-163.773"/>
</g>
<!-- Node28&#45;&gt;Node29 -->
<g id="edge51" class="edge"><title>Node28&#45;&gt;Node29</title>
<path fill="none" stroke="midnightblue" d="M280.356,-407.734C263.473,-398.274 236.062,-382.914 214.151,-370.636"/>
<polygon fill="midnightblue" stroke="midnightblue" points="215.578,-367.424 205.143,-365.589 212.156,-373.531 215.578,-367.424"/>
</g>
<!-- Node30&#45;&gt;Node3 -->
<g id="edge57" class="edge"><title>Node30&#45;&gt;Node3</title>
<path fill="none" stroke="midnightblue" d="M969.072,-268.188C918.002,-233.264 786.893,-143.605 728.186,-103.459"/>
<polygon fill="midnightblue" stroke="midnightblue" points="729.969,-100.438 719.738,-97.6819 726.017,-106.216 729.969,-100.438"/>
</g>
<!-- Node30&#45;&gt;Node9 -->
<g id="edge56" class="edge"><title>Node30&#45;&gt;Node9</title>
<path fill="none" stroke="midnightblue" d="M982.081,-268.374C968.459,-244.076 940.633,-194.44 925.808,-167.996"/>
<polygon fill="midnightblue" stroke="midnightblue" points="928.763,-166.109 920.82,-159.097 922.657,-169.532 928.763,-166.109"/>
</g>
<!-- Node30&#45;&gt;Node11 -->
<g id="edge55" class="edge"><title>Node30&#45;&gt;Node11</title>
<path fill="none" stroke="midnightblue" d="M1043.72,-278.835C1106.91,-273.274 1206.13,-260.207 1229,-232 1237.68,-221.298 1232.59,-214.302 1229,-201 1203.94,-108.117 1148.89,-101.281 1059,-67 1029.67,-55.8129 945.091,-35.145 898.224,-24.0344"/>
<polygon fill="midnightblue" stroke="midnightblue" points="898.814,-20.5777 888.278,-21.6858 897.206,-27.3903 898.814,-20.5777"/>
</g>
<!-- Node30&#45;&gt;Node23 -->
<g id="edge62" class="edge"><title>Node30&#45;&gt;Node23</title>
<path fill="none" stroke="midnightblue" d="M936.44,-269.893C933.251,-269.229 930.086,-268.593 927,-268 836.102,-250.545 730.084,-235.056 663.99,-225.974"/>
<polygon fill="midnightblue" stroke="midnightblue" points="664.115,-222.459 653.733,-224.572 663.167,-229.394 664.115,-222.459"/>
</g>
<!-- Node31 -->
<g id="node31" class="node"><title>Node31</title>
<g id="a_node31"><a xlink:href="geometry_8h.html" target="_top" xlink:title="geometry.h">
<polygon fill="white" stroke="black" points="982.5,-207 982.5,-226 1047.5,-226 1047.5,-207 982.5,-207"/>
<text text-anchor="middle" x="1015" y="-214" font-family="Helvetica,sans-Serif" font-size="10.00">geometry.h</text>
</a>
</g>
</g>
<!-- Node30&#45;&gt;Node31 -->
<g id="edge58" class="edge"><title>Node30&#45;&gt;Node31</title>
<path fill="none" stroke="midnightblue" d="M995.425,-268.396C999.13,-258.763 1004.07,-245.914 1008.06,-235.537"/>
<polygon fill="midnightblue" stroke="midnightblue" points="1011.33,-236.784 1011.66,-226.195 1004.8,-234.272 1011.33,-236.784"/>
</g>
<!-- Node31&#45;&gt;Node3 -->
<g id="edge61" class="edge"><title>Node31&#45;&gt;Node3</title>
<path fill="none" stroke="midnightblue" d="M1012.59,-206.958C1007.34,-190.059 993.202,-152.406 967,-134 950.465,-122.384 836.797,-103.802 762.902,-92.7114"/>
<polygon fill="midnightblue" stroke="midnightblue" points="763.16,-89.2113 752.753,-91.1976 762.127,-96.1347 763.16,-89.2113"/>
</g>
<!-- Node31&#45;&gt;Node9 -->
<g id="edge60" class="edge"><title>Node31&#45;&gt;Node9</title>
<path fill="none" stroke="midnightblue" d="M1001.65,-206.734C985.246,-195.964 957.199,-177.55 937.688,-164.739"/>
<polygon fill="midnightblue" stroke="midnightblue" points="939.42,-161.69 929.14,-159.127 935.578,-167.542 939.42,-161.69"/>
</g>
<!-- Node32 -->
<g id="node32" class="node"><title>Node32</title>
<polygon fill="white" stroke="#bfbfbf" points="1015.5,-140 1015.5,-159 1060.5,-159 1060.5,-140 1015.5,-140"/>
<text text-anchor="middle" x="1038" y="-147" font-family="Helvetica,sans-Serif" font-size="10.00">cstdlib</text>
</g>
<!-- Node31&#45;&gt;Node32 -->
<g id="edge59" class="edge"><title>Node31&#45;&gt;Node32</title>
<path fill="none" stroke="midnightblue" d="M1018.1,-206.734C1021.52,-197.085 1027.1,-181.3 1031.49,-168.906"/>
<polygon fill="midnightblue" stroke="midnightblue" points="1034.91,-169.722 1034.95,-159.127 1028.31,-167.387 1034.91,-169.722"/>
</g>
<!-- Node33&#45;&gt;Node9 -->
<g id="edge67" class="edge"><title>Node33&#45;&gt;Node9</title>
<path fill="none" stroke="midnightblue" d="M858.849,-268.374C870.578,-244.183 894.484,-194.877 907.347,-168.346"/>
<polygon fill="midnightblue" stroke="midnightblue" points="910.618,-169.622 911.832,-159.097 904.319,-166.568 910.618,-169.622"/>
</g>
<!-- Node33&#45;&gt;Node13 -->
<g id="edge68" class="edge"><title>Node33&#45;&gt;Node13</title>
<path fill="none" stroke="midnightblue" d="M918.213,-269.461C921.18,-268.951 924.119,-268.462 927,-268 989.379,-257.999 1167.25,-279.416 1209,-232 1261.94,-171.873 1127.62,-117.384 1060.05,-94.6785"/>
<polygon fill="midnightblue" stroke="midnightblue" points="1060.8,-91.2402 1050.21,-91.4366 1058.61,-97.8889 1060.8,-91.2402"/>
</g>
<!-- Node33&#45;&gt;Node18 -->
<g id="edge69" class="edge"><title>Node33&#45;&gt;Node18</title>
<path fill="none" stroke="midnightblue" d="M785.849,-274.002C679.148,-260.296 472.266,-233.72 385.649,-222.593"/>
<polygon fill="midnightblue" stroke="midnightblue" points="386.061,-219.118 375.697,-221.315 385.169,-226.06 386.061,-219.118"/>
</g>
<!-- Node34 -->
<g id="node34" class="node"><title>Node34</title>
<g id="a_node34"><a xlink:href="cholesky_8h.html" target="_top" xlink:title="cholesky.h">
<polygon fill="white" stroke="black" points="786,-207 786,-226 850,-226 850,-207 786,-207"/>
<text text-anchor="middle" x="818" y="-214" font-family="Helvetica,sans-Serif" font-size="10.00">cholesky.h</text>
</a>
</g>
</g>
<!-- Node33&#45;&gt;Node34 -->
<g id="edge64" class="edge"><title>Node33&#45;&gt;Node34</title>
<path fill="none" stroke="midnightblue" d="M844.623,-268.396C839.531,-258.662 832.723,-245.646 827.266,-235.214"/>
<polygon fill="midnightblue" stroke="midnightblue" points="830.284,-233.433 822.548,-226.195 824.082,-236.678 830.284,-233.433"/>
</g>
<!-- Node34&#45;&gt;Node9 -->
<g id="edge66" class="edge"><title>Node34&#45;&gt;Node9</title>
<path fill="none" stroke="midnightblue" d="M831.217,-206.734C847.454,-195.964 875.217,-177.55 894.531,-164.739"/>
<polygon fill="midnightblue" stroke="midnightblue" points="896.594,-167.571 902.993,-159.127 892.725,-161.738 896.594,-167.571"/>
</g>
<!-- Node34&#45;&gt;Node10 -->
<g id="edge65" class="edge"><title>Node34&#45;&gt;Node10</title>
<path fill="none" stroke="midnightblue" d="M794.462,-206.941C731.741,-184.133 560.445,-121.844 488.025,-95.5092"/>
<polygon fill="midnightblue" stroke="midnightblue" points="489.078,-92.168 478.484,-92.0398 486.686,-98.7465 489.078,-92.168"/>
</g>
<!-- Node35&#45;&gt;Node10 -->
<g id="edge71" class="edge"><title>Node35&#45;&gt;Node10</title>
<path fill="none" stroke="midnightblue" d="M128.184,-402.297C86.2133,-357.471 -32.5453,-217.062 41,-134 53.1505,-120.277 305.137,-96.6649 409.916,-87.396"/>
<polygon fill="midnightblue" stroke="midnightblue" points="410.225,-90.8824 419.879,-86.5186 409.611,-83.9094 410.225,-90.8824"/>
</g>
</g>
</svg>
        <g id="navigator" transform="translate(0 0)" fill="#404254">
                <rect fill="#f2f5e9" fill-opacity="0.5" stroke="#606060" stroke-width=".5" x="0" y="0" width="60" height="60"/>
                <use id="zoomplus" xlink:href="#zoomPlus" x="17" y="9" onmousedown="handleZoom(evt,'in')"/>
                <use id="zoomminus" xlink:href="#zoomMin" x="42" y="9" onmousedown="handleZoom(evt,'out')"/>
                <use id="reset" xlink:href="#resetDef" x="30" y="36" onmousedown="handleReset()"/>
                <g id="arrowUp" xlink:href="#dirArrow" transform="translate(30 24)" onmousedown="handlePan(0,-1)">
                  <use xlink:href="#rim" fill="#404040">
                        <set attributeName="fill" to="#808080" begin="arrowUp.mouseover" end="arrowUp.mouseout"/>
                  </use>
                  <path fill="none" stroke="white" stroke-width="1.5" d="M0,-3.0v7 M-2.5,-0.5L0,-3.0L2.5,-0.5"/>
                </g>
                <g id="arrowRight" xlink:href="#dirArrow" transform="rotate(90) translate(36 -43)" onmousedown="handlePan(1,0)">
                  <use xlink:href="#rim" fill="#404040">
                        <set attributeName="fill" to="#808080" begin="arrowRight.mouseover" end="arrowRight.mouseout"/>
                  </use>
                  <path fill="none" stroke="white" stroke-width="1.5" d="M0,-3.0v7 M-2.5,-0.5L0,-3.0L2.5,-0.5"/>
                </g>
                <g id="arrowDown" xlink:href="#dirArrow" transform="rotate(180) translate(-30 -48)" onmousedown="handlePan(0,1)">
                  <use xlink:href="#rim" fill="#404040">
                        <set attributeName="fill" to="#808080" begin="arrowDown.mouseover" end="arrowDown.mouseout"/>
                  </use>
                  <path fill="none" stroke="white" stroke-width="1.5" d="M0,-3.0v7 M-2.5,-0.5L0,-3.0L2.5,-0.5"/>
                </g>
                <g id="arrowLeft" xlink:href="#dirArrow" transform="rotate(270) translate(-36 17)" onmousedown="handlePan(-1,0)">
                  <use xlink:href="#rim" fill="#404040">
                        <set attributeName="fill" to="#808080" begin="arrowLeft.mouseover" end="arrowLeft.mouseout"/>
                  </use>
                  <path fill="none" stroke="white" stroke-width="1.5" d="M0,-3.0v7 M-2.5,-0.5L0,-3.0L2.5,-0.5"/>
                </g>
        </g>
        <svg viewBox="0 0 15 15" width="100%" height="30px" preserveAspectRatio="xMaxYMin meet">
         <g id="arrow_out" transform="scale(0.3 0.3)">
          <a xlink:href="robust__pnp_8h__incl_org.svg" target="_base">
           <rect id="button" ry="5" rx="5" y="6" x="6" height="38" width="38"
                fill="#f2f5e9" fill-opacity="0.5" stroke="#606060" stroke-width="1.0"/>
           <path id="arrow"
             d="M 11.500037,31.436501 C 11.940474,20.09759 22.043105,11.32322 32.158766,21.979434 L 37.068811,17.246167 C 37.068811,17.246167 37.088388,32 37.088388,32 L 22.160133,31.978069 C 22.160133,31.978069 26.997745,27.140456 26.997745,27.140456 C 18.528582,18.264221 13.291696,25.230495 11.500037,31.436501 z"
             style="fill:#404040;"/>
          </a>
         </g>
        </svg>
</svg>
