<?xml version="1.0" encoding="UTF-8" standalone="no"?>
<!DOCTYPE svg PUBLIC "-//W3C//DTD SVG 1.1//EN"
 "http://www.w3.org/Graphics/SVG/1.1/DTD/svg11.dtd">
<!-- Generated by graphviz version 2.38.0 (20140413.2041)
 -->
<!-- Title: /bitrise/src/Source/AR6/InstantOn/include/AR6/InstantOn/framework/sample_tuple.h Pages: 1 -->
<svg width="1100pt" height="531pt"
 viewBox="0.00 0.00 1100.00 531.00" xmlns="http://www.w3.org/2000/svg" xmlns:xlink="http://www.w3.org/1999/xlink">
<g id="graph0" class="graph" transform="scale(1 1) rotate(0) translate(4 527)">
<title>/bitrise/src/Source/AR6/InstantOn/include/AR6/InstantOn/framework/sample_tuple.h</title>
<polygon fill="white" stroke="none" points="-4,4 -4,-527 1096,-527 1096,4 -4,4"/>
<!-- Node1 -->
<g id="node1" class="node"><title>Node1</title>
<polygon fill="#bfbfbf" stroke="black" points="431,-470.5 431,-522.5 565,-522.5 565,-470.5 431,-470.5"/>
<text text-anchor="start" x="439" y="-510.5" font-family="Helvetica,sans-Serif" font-size="10.00">/bitrise/src/Source</text>
<text text-anchor="start" x="439" y="-499.5" font-family="Helvetica,sans-Serif" font-size="10.00">/AR6/InstantOn/include</text>
<text text-anchor="start" x="439" y="-488.5" font-family="Helvetica,sans-Serif" font-size="10.00">/AR6/InstantOn/framework</text>
<text text-anchor="middle" x="498" y="-477.5" font-family="Helvetica,sans-Serif" font-size="10.00">/sample_tuple.h</text>
</g>
<!-- Node2 -->
<g id="node2" class="node"><title>Node2</title>
<polygon fill="white" stroke="#bfbfbf" points="1018,-246.5 1018,-265.5 1064,-265.5 1064,-246.5 1018,-246.5"/>
<text text-anchor="middle" x="1041" y="-253.5" font-family="Helvetica,sans-Serif" font-size="10.00">atomic</text>
</g>
<!-- Node1&#45;&gt;Node2 -->
<g id="edge1" class="edge"><title>Node1&#45;&gt;Node2</title>
<path fill="none" stroke="midnightblue" d="M565.044,-488.075C669.83,-473.353 873.963,-431.781 1005,-322 1019.64,-309.734 1029.39,-289.913 1035.01,-275.38"/>
<polygon fill="midnightblue" stroke="midnightblue" points="1038.32,-276.51 1038.38,-265.915 1031.72,-274.161 1038.32,-276.51"/>
</g>
<!-- Node3 -->
<g id="node3" class="node"><title>Node3</title>
<polygon fill="white" stroke="#bfbfbf" points="845,-6 845,-25 897,-25 897,-6 845,-6"/>
<text text-anchor="middle" x="871" y="-13" font-family="Helvetica,sans-Serif" font-size="10.00">memory</text>
</g>
<!-- Node1&#45;&gt;Node3 -->
<g id="edge2" class="edge"><title>Node1&#45;&gt;Node3</title>
<path fill="none" stroke="midnightblue" d="M565.273,-495.218C720.79,-492.751 1092,-475.69 1092,-369 1092,-369 1092,-369 1092,-137.5 1092,-54.386 970.254,-27.992 907.486,-19.9073"/>
<polygon fill="midnightblue" stroke="midnightblue" points="907.564,-16.3918 897.219,-18.6805 906.734,-23.3424 907.564,-16.3918"/>
</g>
<!-- Node4 -->
<g id="node4" class="node"><title>Node4</title>
<polygon fill="white" stroke="#bfbfbf" points="16,-6 16,-25 60,-25 60,-6 16,-6"/>
<text text-anchor="middle" x="38" y="-13" font-family="Helvetica,sans-Serif" font-size="10.00">vector</text>
</g>
<!-- Node1&#45;&gt;Node4 -->
<g id="edge3" class="edge"><title>Node1&#45;&gt;Node4</title>
<path fill="none" stroke="midnightblue" d="M430.838,-492.441C294.905,-484.411 0,-456.866 0,-369 0,-369 0,-369 0,-137.5 0,-99.3116 17.4417,-57.3296 28.692,-34.2224"/>
<polygon fill="midnightblue" stroke="midnightblue" points="31.9579,-35.5195 33.3405,-25.0153 25.7091,-32.3646 31.9579,-35.5195"/>
</g>
<!-- Node5 -->
<g id="node5" class="node"><title>Node5</title>
<g id="a_node5"><a xlink:href="container_8h.html" target="_top" xlink:title="container.h">
<polygon fill="white" stroke="black" points="492.5,-302.5 492.5,-321.5 557.5,-321.5 557.5,-302.5 492.5,-302.5"/>
<text text-anchor="middle" x="525" y="-309.5" font-family="Helvetica,sans-Serif" font-size="10.00">container.h</text>
</a>
</g>
</g>
<!-- Node1&#45;&gt;Node5 -->
<g id="edge4" class="edge"><title>Node1&#45;&gt;Node5</title>
<path fill="none" stroke="midnightblue" d="M501.754,-470.124C507.25,-432.977 517.36,-364.642 522.232,-331.711"/>
<polygon fill="midnightblue" stroke="midnightblue" points="525.719,-332.054 523.72,-321.649 518.795,-331.029 525.719,-332.054"/>
</g>
<!-- Node6 -->
<g id="node6" class="node"><title>Node6</title>
<g id="a_node6"><a xlink:href="sample_8h.html" target="_top" xlink:title="sample.h">
<polygon fill="white" stroke="black" points="422,-246.5 422,-265.5 478,-265.5 478,-246.5 422,-246.5"/>
<text text-anchor="middle" x="450" y="-253.5" font-family="Helvetica,sans-Serif" font-size="10.00">sample.h</text>
</a>
</g>
</g>
<!-- Node1&#45;&gt;Node6 -->
<g id="edge34" class="edge"><title>Node1&#45;&gt;Node6</title>
<path fill="none" stroke="midnightblue" d="M492.954,-470.427C483.276,-422.34 462.309,-318.161 453.752,-275.641"/>
<polygon fill="midnightblue" stroke="midnightblue" points="457.176,-274.916 451.772,-265.804 450.314,-276.298 457.176,-274.916"/>
</g>
<!-- Node7 -->
<g id="node7" class="node"><title>Node7</title>
<g id="a_node7"><a xlink:href="stream_8h.html" target="_top" xlink:title="stream.h">
<polygon fill="white" stroke="black" points="315.5,-190.5 315.5,-209.5 370.5,-209.5 370.5,-190.5 315.5,-190.5"/>
<text text-anchor="middle" x="343" y="-197.5" font-family="Helvetica,sans-Serif" font-size="10.00">stream.h</text>
</a>
</g>
</g>
<!-- Node1&#45;&gt;Node7 -->
<g id="edge35" class="edge"><title>Node1&#45;&gt;Node7</title>
<path fill="none" stroke="midnightblue" d="M450.133,-470.401C415.954,-448.666 376,-413.699 376,-369 376,-369 376,-369 376,-311 376,-277.245 361.568,-240.028 351.792,-218.691"/>
<polygon fill="midnightblue" stroke="midnightblue" points="354.911,-217.099 347.451,-209.576 348.591,-220.11 354.911,-217.099"/>
</g>
<!-- Node23 -->
<g id="node23" class="node"><title>Node23</title>
<g id="a_node23"><a xlink:href="transform__filter_8h.html" target="_top" xlink:title="transform_filter.h">
<polygon fill="white" stroke="black" points="526,-414.5 526,-433.5 616,-433.5 616,-414.5 526,-414.5"/>
<text text-anchor="middle" x="571" y="-421.5" font-family="Helvetica,sans-Serif" font-size="10.00">transform_filter.h</text>
</a>
</g>
</g>
<!-- Node1&#45;&gt;Node23 -->
<g id="edge36" class="edge"><title>Node1&#45;&gt;Node23</title>
<path fill="none" stroke="midnightblue" d="M523.943,-470.446C534.212,-460.528 545.702,-449.432 554.757,-440.687"/>
<polygon fill="midnightblue" stroke="midnightblue" points="557.234,-443.16 561.996,-433.695 552.372,-438.125 557.234,-443.16"/>
</g>
<!-- Node5&#45;&gt;Node3 -->
<g id="edge33" class="edge"><title>Node5&#45;&gt;Node3</title>
<path fill="none" stroke="midnightblue" d="M549.519,-302.456C587.905,-289.262 664.671,-263.617 731,-246 803.963,-226.621 849.612,-268.767 897,-210 939.009,-157.905 900.755,-71.0693 881.054,-34.0667"/>
<polygon fill="midnightblue" stroke="midnightblue" points="883.963,-32.0921 876.072,-25.0218 877.831,-35.4695 883.963,-32.0921"/>
</g>
<!-- Node5&#45;&gt;Node6 -->
<g id="edge5" class="edge"><title>Node5&#45;&gt;Node6</title>
<path fill="none" stroke="midnightblue" d="M512.95,-302.324C501.537,-294.107 484.169,-281.602 470.565,-271.807"/>
<polygon fill="midnightblue" stroke="midnightblue" points="472.43,-268.837 462.269,-265.834 468.34,-274.517 472.43,-268.837"/>
</g>
<!-- Node14 -->
<g id="node14" class="node"><title>Node14</title>
<polygon fill="white" stroke="#bfbfbf" points="320,-67.5 320,-86.5 372,-86.5 372,-67.5 320,-67.5"/>
<text text-anchor="middle" x="346" y="-74.5" font-family="Helvetica,sans-Serif" font-size="10.00">assert.h</text>
</g>
<!-- Node5&#45;&gt;Node14 -->
<g id="edge29" class="edge"><title>Node5&#45;&gt;Node14</title>
<path fill="none" stroke="midnightblue" d="M492.242,-307.166C441.576,-299.249 345.894,-275.906 306,-210 283.261,-172.435 313.624,-120.955 332.68,-94.7715"/>
<polygon fill="midnightblue" stroke="midnightblue" points="335.599,-96.7149 338.843,-86.6291 330.017,-92.4901 335.599,-96.7149"/>
</g>
<!-- Node19 -->
<g id="node19" class="node"><title>Node19</title>
<polygon fill="white" stroke="#bfbfbf" points="529.5,-129 529.5,-148 570.5,-148 570.5,-129 529.5,-129"/>
<text text-anchor="middle" x="550" y="-136" font-family="Helvetica,sans-Serif" font-size="10.00">string</text>
</g>
<!-- Node5&#45;&gt;Node19 -->
<g id="edge32" class="edge"><title>Node5&#45;&gt;Node19</title>
<path fill="none" stroke="midnightblue" d="M525.376,-302.137C525.977,-289.596 527.364,-265.973 530,-246 534.11,-214.855 541.368,-179.027 545.918,-157.877"/>
<polygon fill="midnightblue" stroke="midnightblue" points="549.359,-158.525 548.075,-148.008 542.521,-157.03 549.359,-158.525"/>
</g>
<!-- Node21 -->
<g id="node21" class="node"><title>Node21</title>
<polygon fill="white" stroke="#bfbfbf" points="703,-123.5 703,-153.5 805,-153.5 805,-123.5 703,-123.5"/>
<text text-anchor="start" x="711" y="-141.5" font-family="Helvetica,sans-Serif" font-size="10.00">artvision/framework</text>
<text text-anchor="middle" x="754" y="-130.5" font-family="Helvetica,sans-Serif" font-size="10.00">/exception.h</text>
</g>
<!-- Node5&#45;&gt;Node21 -->
<g id="edge30" class="edge"><title>Node5&#45;&gt;Node21</title>
<path fill="none" stroke="midnightblue" d="M528.5,-302.09C534.131,-288.641 546.287,-262.931 563,-246 603.704,-204.765 663.756,-174.845 705.622,-157.404"/>
<polygon fill="midnightblue" stroke="midnightblue" points="707.119,-160.573 715.056,-153.556 704.475,-154.092 707.119,-160.573"/>
</g>
<!-- Node22 -->
<g id="node22" class="node"><title>Node22</title>
<polygon fill="white" stroke="#bfbfbf" points="572.5,-246.5 572.5,-265.5 607.5,-265.5 607.5,-246.5 572.5,-246.5"/>
<text text-anchor="middle" x="590" y="-253.5" font-family="Helvetica,sans-Serif" font-size="10.00">map</text>
</g>
<!-- Node5&#45;&gt;Node22 -->
<g id="edge31" class="edge"><title>Node5&#45;&gt;Node22</title>
<path fill="none" stroke="midnightblue" d="M535.443,-302.324C545.146,-294.263 559.815,-282.077 571.5,-272.369"/>
<polygon fill="midnightblue" stroke="midnightblue" points="573.911,-274.916 579.367,-265.834 569.438,-269.532 573.911,-274.916"/>
</g>
<!-- Node6&#45;&gt;Node3 -->
<g id="edge28" class="edge"><title>Node6&#45;&gt;Node3</title>
<path fill="none" stroke="midnightblue" d="M465.483,-246.229C528.932,-210.284 769.359,-74.0805 846.804,-30.2071"/>
<polygon fill="midnightblue" stroke="midnightblue" points="848.845,-33.0739 855.82,-25.0994 845.394,-26.9833 848.845,-33.0739"/>
</g>
<!-- Node6&#45;&gt;Node7 -->
<g id="edge6" class="edge"><title>Node6&#45;&gt;Node7</title>
<path fill="none" stroke="midnightblue" d="M432.809,-246.324C415.649,-237.664 389.054,-224.242 369.253,-214.249"/>
<polygon fill="midnightblue" stroke="midnightblue" points="370.653,-211.035 360.149,-209.655 367.499,-217.285 370.653,-211.035"/>
</g>
<!-- Node20 -->
<g id="node20" class="node"><title>Node20</title>
<g id="a_node20"><a xlink:href="date__time_8h.html" target="_top" xlink:title="date_time.h">
<polygon fill="white" stroke="black" points="389,-190.5 389,-209.5 457,-209.5 457,-190.5 389,-190.5"/>
<text text-anchor="middle" x="423" y="-197.5" font-family="Helvetica,sans-Serif" font-size="10.00">date_time.h</text>
</a>
</g>
</g>
<!-- Node6&#45;&gt;Node20 -->
<g id="edge26" class="edge"><title>Node6&#45;&gt;Node20</title>
<path fill="none" stroke="midnightblue" d="M445.541,-246.083C441.846,-238.691 436.477,-227.953 431.906,-218.811"/>
<polygon fill="midnightblue" stroke="midnightblue" points="434.978,-217.13 427.376,-209.751 428.717,-220.261 434.978,-217.13"/>
</g>
<!-- Node7&#45;&gt;Node3 -->
<g id="edge25" class="edge"><title>Node7&#45;&gt;Node3</title>
<path fill="none" stroke="midnightblue" d="M361.33,-190.326C393.168,-175.443 460.942,-144.563 520,-123 633.044,-81.7252 770.464,-43.3524 834.669,-26.0894"/>
<polygon fill="midnightblue" stroke="midnightblue" points="835.939,-29.3726 844.694,-23.4057 834.129,-22.6107 835.939,-29.3726"/>
</g>
<!-- Node8 -->
<g id="node8" class="node"><title>Node8</title>
<polygon fill="white" stroke="#bfbfbf" points="506,-0.5 506,-30.5 608,-30.5 608,-0.5 506,-0.5"/>
<text text-anchor="start" x="514" y="-18.5" font-family="Helvetica,sans-Serif" font-size="10.00">artvision/framework</text>
<text text-anchor="middle" x="557" y="-7.5" font-family="Helvetica,sans-Serif" font-size="10.00">/error.h</text>
</g>
<!-- Node7&#45;&gt;Node8 -->
<g id="edge7" class="edge"><title>Node7&#45;&gt;Node8</title>
<path fill="none" stroke="midnightblue" d="M353.168,-190.382C363.843,-181.331 381.112,-166.678 396,-154 444.554,-112.654 501.244,-64.1957 532.741,-37.2558"/>
<polygon fill="midnightblue" stroke="midnightblue" points="535.234,-39.7295 540.558,-30.5695 530.683,-34.4101 535.234,-39.7295"/>
</g>
<!-- Node9 -->
<g id="node9" class="node"><title>Node9</title>
<g id="a_node9"><a xlink:href="linear__algebra_8h.html" target="_top" xlink:title="AR6/InstantOn/math\l/linear_algebra.h">
<polygon fill="white" stroke="black" points="151.5,-123.5 151.5,-153.5 258.5,-153.5 258.5,-123.5 151.5,-123.5"/>
<text text-anchor="start" x="159.5" y="-141.5" font-family="Helvetica,sans-Serif" font-size="10.00">AR6/InstantOn/math</text>
<text text-anchor="middle" x="205" y="-130.5" font-family="Helvetica,sans-Serif" font-size="10.00">/linear_algebra.h</text>
</a>
</g>
</g>
<!-- Node7&#45;&gt;Node9 -->
<g id="edge8" class="edge"><title>Node7&#45;&gt;Node9</title>
<path fill="none" stroke="midnightblue" d="M323.228,-190.475C303.402,-181.927 272.263,-168.501 246.918,-157.573"/>
<polygon fill="midnightblue" stroke="midnightblue" points="248.092,-154.268 237.524,-153.523 245.321,-160.696 248.092,-154.268"/>
</g>
<!-- Node16 -->
<g id="node16" class="node"><title>Node16</title>
<g id="a_node16"><a xlink:href="indexing_8h.html" target="_top" xlink:title="indexing.h">
<polygon fill="white" stroke="black" points="390.5,-67.5 390.5,-86.5 451.5,-86.5 451.5,-67.5 390.5,-67.5"/>
<text text-anchor="middle" x="421" y="-74.5" font-family="Helvetica,sans-Serif" font-size="10.00">indexing.h</text>
</a>
</g>
</g>
<!-- Node7&#45;&gt;Node16 -->
<g id="edge23" class="edge"><title>Node7&#45;&gt;Node16</title>
<path fill="none" stroke="midnightblue" d="M348.61,-190.298C361.427,-170.414 393.054,-121.352 409.946,-95.1471"/>
<polygon fill="midnightblue" stroke="midnightblue" points="412.965,-96.9245 415.441,-86.6232 407.081,-93.1318 412.965,-96.9245"/>
</g>
<!-- Node7&#45;&gt;Node19 -->
<g id="edge24" class="edge"><title>Node7&#45;&gt;Node19</title>
<path fill="none" stroke="midnightblue" d="M370.791,-192.221C412.257,-182.023 488.303,-162.975 515,-154 516.917,-153.355 518.879,-152.657 520.846,-151.926"/>
<polygon fill="midnightblue" stroke="midnightblue" points="522.531,-155.024 530.558,-148.108 519.97,-148.509 522.531,-155.024"/>
</g>
<!-- Node10 -->
<g id="node10" class="node"><title>Node10</title>
<g id="a_node10"><a xlink:href="math__utils_8h.html" target="_top" xlink:title="math_utils.h">
<polygon fill="white" stroke="black" points="232,-67.5 232,-86.5 302,-86.5 302,-67.5 232,-67.5"/>
<text text-anchor="middle" x="267" y="-74.5" font-family="Helvetica,sans-Serif" font-size="10.00">math_utils.h</text>
</a>
</g>
</g>
<!-- Node9&#45;&gt;Node10 -->
<g id="edge9" class="edge"><title>Node9&#45;&gt;Node10</title>
<path fill="none" stroke="midnightblue" d="M219.693,-123.399C228.981,-114.486 240.999,-102.952 250.598,-93.7408"/>
<polygon fill="midnightblue" stroke="midnightblue" points="253.187,-96.1072 257.978,-86.6578 248.34,-91.0566 253.187,-96.1072"/>
</g>
<!-- Node12 -->
<g id="node12" class="node"><title>Node12</title>
<g id="a_node12"><a xlink:href="_instant_on_2include_2_a_r6_2_instant_on_2math_2matrix_8h.html" target="_top" xlink:title="matrix.h">
<polygon fill="white" stroke="black" points="162,-67.5 162,-86.5 214,-86.5 214,-67.5 162,-67.5"/>
<text text-anchor="middle" x="188" y="-74.5" font-family="Helvetica,sans-Serif" font-size="10.00">matrix.h</text>
</a>
</g>
</g>
<!-- Node9&#45;&gt;Node12 -->
<g id="edge12" class="edge"><title>Node9&#45;&gt;Node12</title>
<path fill="none" stroke="midnightblue" d="M200.971,-123.399C198.654,-115.288 195.716,-105.007 193.223,-96.2807"/>
<polygon fill="midnightblue" stroke="midnightblue" points="196.586,-95.3115 190.474,-86.6578 189.856,-97.2346 196.586,-95.3115"/>
</g>
<!-- Node13 -->
<g id="node13" class="node"><title>Node13</title>
<g id="a_node13"><a xlink:href="vector_8h.html" target="_top" xlink:title="vector.h">
<polygon fill="white" stroke="black" points="120,-6 120,-25 172,-25 172,-6 120,-6"/>
<text text-anchor="middle" x="146" y="-13" font-family="Helvetica,sans-Serif" font-size="10.00">vector.h</text>
</a>
</g>
</g>
<!-- Node9&#45;&gt;Node13 -->
<g id="edge16" class="edge"><title>Node9&#45;&gt;Node13</title>
<path fill="none" stroke="midnightblue" d="M151.226,-126.147C129.944,-118.737 107.591,-106.635 95,-87 82.2006,-67.0402 104.269,-45.0534 123.26,-31.0287"/>
<polygon fill="midnightblue" stroke="midnightblue" points="125.438,-33.7764 131.632,-25.181 121.43,-28.0376 125.438,-33.7764"/>
</g>
<!-- Node9&#45;&gt;Node14 -->
<g id="edge17" class="edge"><title>Node9&#45;&gt;Node14</title>
<path fill="none" stroke="midnightblue" d="M238.415,-123.399C261.967,-113.461 293.238,-100.265 315.993,-90.6625"/>
<polygon fill="midnightblue" stroke="midnightblue" points="317.631,-93.7704 325.483,-86.6578 314.909,-87.3211 317.631,-93.7704"/>
</g>
<!-- Node15 -->
<g id="node15" class="node"><title>Node15</title>
<polygon fill="white" stroke="#bfbfbf" points="104,-67.5 104,-86.5 144,-86.5 144,-67.5 104,-67.5"/>
<text text-anchor="middle" x="124" y="-74.5" font-family="Helvetica,sans-Serif" font-size="10.00">limits</text>
</g>
<!-- Node9&#45;&gt;Node15 -->
<g id="edge18" class="edge"><title>Node9&#45;&gt;Node15</title>
<path fill="none" stroke="midnightblue" d="M185.804,-123.399C173.184,-114.129 156.707,-102.025 143.939,-92.6469"/>
<polygon fill="midnightblue" stroke="midnightblue" points="145.918,-89.7572 135.786,-86.6578 141.773,-95.3987 145.918,-89.7572"/>
</g>
<!-- Node9&#45;&gt;Node16 -->
<g id="edge19" class="edge"><title>Node9&#45;&gt;Node16</title>
<path fill="none" stroke="midnightblue" d="M255.915,-123.475C293.944,-112.999 345.225,-98.8733 380.487,-89.1598"/>
<polygon fill="midnightblue" stroke="midnightblue" points="381.722,-92.4501 390.433,-86.42 379.863,-85.7014 381.722,-92.4501"/>
</g>
<!-- Node10&#45;&gt;Node8 -->
<g id="edge11" class="edge"><title>Node10&#45;&gt;Node8</title>
<path fill="none" stroke="midnightblue" d="M302.27,-68.7636C350.357,-58.8974 437.221,-41.0754 495.99,-29.0175"/>
<polygon fill="midnightblue" stroke="midnightblue" points="496.802,-32.4239 505.895,-26.9854 495.395,-25.5667 496.802,-32.4239"/>
</g>
<!-- Node11 -->
<g id="node11" class="node"><title>Node11</title>
<polygon fill="white" stroke="#bfbfbf" points="245,-6 245,-25 289,-25 289,-6 245,-6"/>
<text text-anchor="middle" x="267" y="-13" font-family="Helvetica,sans-Serif" font-size="10.00">cmath</text>
</g>
<!-- Node10&#45;&gt;Node11 -->
<g id="edge10" class="edge"><title>Node10&#45;&gt;Node11</title>
<path fill="none" stroke="midnightblue" d="M267,-67.4751C267,-59.0803 267,-45.9806 267,-35.1631"/>
<polygon fill="midnightblue" stroke="midnightblue" points="270.5,-35.0091 267,-25.0091 263.5,-35.0091 270.5,-35.0091"/>
</g>
<!-- Node12&#45;&gt;Node4 -->
<g id="edge15" class="edge"><title>Node12&#45;&gt;Node4</title>
<path fill="none" stroke="midnightblue" d="M166.509,-67.4751C140.89,-57.3129 97.8901,-40.2564 68.7553,-28.6996"/>
<polygon fill="midnightblue" stroke="midnightblue" points="70.0374,-25.4429 59.4515,-25.0091 67.4564,-31.9497 70.0374,-25.4429"/>
</g>
<!-- Node12&#45;&gt;Node8 -->
<g id="edge13" class="edge"><title>Node12&#45;&gt;Node8</title>
<path fill="none" stroke="midnightblue" d="M214.302,-68.9065C217.226,-68.2164 220.17,-67.5643 223,-67 333.953,-44.8788 363.28,-48.8526 475,-31 481.714,-29.9271 488.729,-28.759 495.707,-27.5669"/>
<polygon fill="midnightblue" stroke="midnightblue" points="496.608,-30.9632 505.866,-25.8115 495.416,-24.0655 496.608,-30.9632"/>
</g>
<!-- Node12&#45;&gt;Node13 -->
<g id="edge14" class="edge"><title>Node12&#45;&gt;Node13</title>
<path fill="none" stroke="midnightblue" d="M181.982,-67.4751C175.745,-58.6384 165.827,-44.5886 157.982,-33.475"/>
<polygon fill="midnightblue" stroke="midnightblue" points="160.633,-31.1604 152.006,-25.0091 154.914,-35.1972 160.633,-31.1604"/>
</g>
<!-- Node16&#45;&gt;Node3 -->
<g id="edge20" class="edge"><title>Node16&#45;&gt;Node3</title>
<path fill="none" stroke="midnightblue" d="M451.577,-71.9571C531.903,-61.3361 748.633,-32.6797 834.88,-21.2759"/>
<polygon fill="midnightblue" stroke="midnightblue" points="835.516,-24.7223 844.971,-19.9416 834.599,-17.7827 835.516,-24.7223"/>
</g>
<!-- Node17 -->
<g id="node17" class="node"><title>Node17</title>
<polygon fill="white" stroke="#bfbfbf" points="417.5,-6 417.5,-25 466.5,-25 466.5,-6 417.5,-6"/>
<text text-anchor="middle" x="442" y="-13" font-family="Helvetica,sans-Serif" font-size="10.00">cstddef</text>
</g>
<!-- Node16&#45;&gt;Node17 -->
<g id="edge21" class="edge"><title>Node16&#45;&gt;Node17</title>
<path fill="none" stroke="midnightblue" d="M424.009,-67.4751C427.034,-58.9035 431.79,-45.4269 435.653,-34.483"/>
<polygon fill="midnightblue" stroke="midnightblue" points="438.969,-35.6039 438.997,-25.0091 432.368,-33.2741 438.969,-35.6039"/>
</g>
<!-- Node18 -->
<g id="node18" class="node"><title>Node18</title>
<polygon fill="white" stroke="#bfbfbf" points="350.5,-6 350.5,-25 399.5,-25 399.5,-6 350.5,-6"/>
<text text-anchor="middle" x="375" y="-13" font-family="Helvetica,sans-Serif" font-size="10.00">string.h</text>
</g>
<!-- Node16&#45;&gt;Node18 -->
<g id="edge22" class="edge"><title>Node16&#45;&gt;Node18</title>
<path fill="none" stroke="midnightblue" d="M414.409,-67.4751C407.509,-58.5501 396.498,-44.3071 387.866,-33.1425"/>
<polygon fill="midnightblue" stroke="midnightblue" points="390.464,-30.7798 381.578,-25.0091 384.926,-35.0612 390.464,-30.7798"/>
</g>
<!-- Node20&#45;&gt;Node19 -->
<g id="edge27" class="edge"><title>Node20&#45;&gt;Node19</title>
<path fill="none" stroke="midnightblue" d="M441.196,-190.475C462.509,-180.49 498.031,-163.848 522.663,-152.307"/>
<polygon fill="midnightblue" stroke="midnightblue" points="524.267,-155.421 531.838,-148.009 521.297,-149.082 524.267,-155.421"/>
</g>
<!-- Node23&#45;&gt;Node5 -->
<g id="edge60" class="edge"><title>Node23&#45;&gt;Node5</title>
<path fill="none" stroke="midnightblue" d="M567.39,-414.368C559.9,-396.456 542.532,-354.923 532.506,-330.948"/>
<polygon fill="midnightblue" stroke="midnightblue" points="535.68,-329.467 528.593,-321.591 529.222,-332.168 535.68,-329.467"/>
</g>
<!-- Node24 -->
<g id="node24" class="node"><title>Node24</title>
<g id="a_node24"><a xlink:href="filter_8h.html" target="_top" xlink:title="filter.h">
<polygon fill="white" stroke="black" points="688,-358.5 688,-377.5 732,-377.5 732,-358.5 688,-358.5"/>
<text text-anchor="middle" x="710" y="-365.5" font-family="Helvetica,sans-Serif" font-size="10.00">filter.h</text>
</a>
</g>
</g>
<!-- Node23&#45;&gt;Node24 -->
<g id="edge37" class="edge"><title>Node23&#45;&gt;Node24</title>
<path fill="none" stroke="midnightblue" d="M593.025,-414.444C616.104,-405.478 652.562,-391.314 678.641,-381.183"/>
<polygon fill="midnightblue" stroke="midnightblue" points="680.024,-384.4 688.078,-377.516 677.489,-377.875 680.024,-384.4"/>
</g>
<!-- Node24&#45;&gt;Node3 -->
<g id="edge58" class="edge"><title>Node24&#45;&gt;Node3</title>
<path fill="none" stroke="midnightblue" d="M732.232,-367.057C767.049,-365.949 834.623,-358.804 875,-322 942.729,-260.265 940.197,-213.956 929,-123 925.865,-97.5373 926.866,-89.7457 915,-67 908.193,-53.9517 897.362,-41.4622 888.15,-32.1681"/>
<polygon fill="midnightblue" stroke="midnightblue" points="890.537,-29.6078 880.916,-25.1705 885.67,-34.639 890.537,-29.6078"/>
</g>
<!-- Node24&#45;&gt;Node4 -->
<g id="edge56" class="edge"><title>Node24&#45;&gt;Node4</title>
<path fill="none" stroke="midnightblue" d="M687.641,-365.758C571.039,-358.994 38,-324.385 38,-257 38,-257 38,-257 38,-137.5 38,-101.214 38,-58.8066 38,-35.059"/>
<polygon fill="midnightblue" stroke="midnightblue" points="41.5001,-35.0085 38,-25.0085 34.5001,-35.0086 41.5001,-35.0085"/>
</g>
<!-- Node24&#45;&gt;Node5 -->
<g id="edge38" class="edge"><title>Node24&#45;&gt;Node5</title>
<path fill="none" stroke="midnightblue" d="M687.685,-360.486C657.073,-351.551 601.582,-335.354 564.018,-324.389"/>
<polygon fill="midnightblue" stroke="midnightblue" points="564.987,-321.026 554.407,-321.584 563.026,-327.746 564.987,-321.026"/>
</g>
<!-- Node24&#45;&gt;Node22 -->
<g id="edge59" class="edge"><title>Node24&#45;&gt;Node22</title>
<path fill="none" stroke="midnightblue" d="M687.586,-363.501C663.542,-358.542 625.99,-347.105 605,-322 594.215,-309.1 590.838,-289.925 589.936,-275.742"/>
<polygon fill="midnightblue" stroke="midnightblue" points="593.432,-275.549 589.649,-265.653 586.435,-275.749 593.432,-275.549"/>
</g>
<!-- Node25 -->
<g id="node25" class="node"><title>Node25</title>
<g id="a_node25"><a xlink:href="thread_8h.html" target="_top" xlink:title="thread.h">
<polygon fill="white" stroke="black" points="944,-302.5 944,-321.5 996,-321.5 996,-302.5 944,-302.5"/>
<text text-anchor="middle" x="970" y="-309.5" font-family="Helvetica,sans-Serif" font-size="10.00">thread.h</text>
</a>
</g>
</g>
<!-- Node24&#45;&gt;Node25 -->
<g id="edge39" class="edge"><title>Node24&#45;&gt;Node25</title>
<path fill="none" stroke="midnightblue" d="M732.167,-362.396C777.046,-353.075 879.025,-331.895 933.728,-320.533"/>
<polygon fill="midnightblue" stroke="midnightblue" points="934.609,-323.925 943.688,-318.465 933.185,-317.072 934.609,-323.925"/>
</g>
<!-- Node27 -->
<g id="node27" class="node"><title>Node27</title>
<g id="a_node27"><a xlink:href="wait__queue_8h.html" target="_top" xlink:title="wait_queue.h">
<polygon fill="white" stroke="black" points="724,-302.5 724,-321.5 798,-321.5 798,-302.5 724,-302.5"/>
<text text-anchor="middle" x="761" y="-309.5" font-family="Helvetica,sans-Serif" font-size="10.00">wait_queue.h</text>
</a>
</g>
</g>
<!-- Node24&#45;&gt;Node27 -->
<g id="edge42" class="edge"><title>Node24&#45;&gt;Node27</title>
<path fill="none" stroke="midnightblue" d="M718.422,-358.083C725.848,-350.22 736.852,-338.569 745.812,-329.081"/>
<polygon fill="midnightblue" stroke="midnightblue" points="748.413,-331.424 752.735,-321.751 743.324,-326.618 748.413,-331.424"/>
</g>
<!-- Node31 -->
<g id="node31" class="node"><title>Node31</title>
<g id="a_node31"><a xlink:href="lockfree__queue_8h.html" target="_top" xlink:title="lockfree_queue.h">
<polygon fill="white" stroke="black" points="614.5,-302.5 614.5,-321.5 705.5,-321.5 705.5,-302.5 614.5,-302.5"/>
<text text-anchor="middle" x="660" y="-309.5" font-family="Helvetica,sans-Serif" font-size="10.00">lockfree_queue.h</text>
</a>
</g>
</g>
<!-- Node24&#45;&gt;Node31 -->
<g id="edge49" class="edge"><title>Node24&#45;&gt;Node31</title>
<path fill="none" stroke="midnightblue" d="M701.744,-358.083C694.535,-350.298 683.89,-338.801 675.154,-329.367"/>
<polygon fill="midnightblue" stroke="midnightblue" points="677.465,-326.711 668.103,-321.751 672.329,-331.467 677.465,-326.711"/>
</g>
<!-- Node32 -->
<g id="node32" class="node"><title>Node32</title>
<g id="a_node32"><a xlink:href="image_8h.html" target="_top" xlink:title="image.h">
<polygon fill="white" stroke="black" points="837.5,-190.5 837.5,-209.5 888.5,-209.5 888.5,-190.5 837.5,-190.5"/>
<text text-anchor="middle" x="863" y="-197.5" font-family="Helvetica,sans-Serif" font-size="10.00">image.h</text>
</a>
</g>
</g>
<!-- Node24&#45;&gt;Node32 -->
<g id="edge52" class="edge"><title>Node24&#45;&gt;Node32</title>
<path fill="none" stroke="midnightblue" d="M732.164,-367.328C764.868,-366.48 825.369,-359.559 855,-322 878.172,-292.628 873.029,-245.73 867.715,-219.79"/>
<polygon fill="midnightblue" stroke="midnightblue" points="871.068,-218.75 865.436,-209.776 864.243,-220.303 871.068,-218.75"/>
</g>
<!-- Node33 -->
<g id="node33" class="node"><title>Node33</title>
<polygon fill="white" stroke="#bfbfbf" points="816,-302.5 816,-321.5 846,-321.5 846,-302.5 816,-302.5"/>
<text text-anchor="middle" x="831" y="-309.5" font-family="Helvetica,sans-Serif" font-size="10.00">set</text>
</g>
<!-- Node24&#45;&gt;Node33 -->
<g id="edge57" class="edge"><title>Node24&#45;&gt;Node33</title>
<path fill="none" stroke="midnightblue" d="M729.173,-358.444C750.07,-349.117 783.568,-334.168 806.392,-323.982"/>
<polygon fill="midnightblue" stroke="midnightblue" points="808.043,-327.078 815.748,-319.807 805.19,-320.686 808.043,-327.078"/>
</g>
<!-- Node25&#45;&gt;Node2 -->
<g id="edge40" class="edge"><title>Node25&#45;&gt;Node2</title>
<path fill="none" stroke="midnightblue" d="M981.407,-302.324C992.109,-294.185 1008.34,-281.839 1021.16,-272.087"/>
<polygon fill="midnightblue" stroke="midnightblue" points="1023.54,-274.673 1029.39,-265.834 1019.31,-269.102 1023.54,-274.673"/>
</g>
<!-- Node26 -->
<g id="node26" class="node"><title>Node26</title>
<polygon fill="white" stroke="#bfbfbf" points="940.5,-246.5 940.5,-265.5 999.5,-265.5 999.5,-246.5 940.5,-246.5"/>
<text text-anchor="middle" x="970" y="-253.5" font-family="Helvetica,sans-Serif" font-size="10.00">stdexcept</text>
</g>
<!-- Node25&#45;&gt;Node26 -->
<g id="edge41" class="edge"><title>Node25&#45;&gt;Node26</title>
<path fill="none" stroke="midnightblue" d="M970,-302.083C970,-295.006 970,-284.861 970,-275.986"/>
<polygon fill="midnightblue" stroke="midnightblue" points="973.5,-275.751 970,-265.751 966.5,-275.751 973.5,-275.751"/>
</g>
<!-- Node27&#45;&gt;Node8 -->
<g id="edge48" class="edge"><title>Node27&#45;&gt;Node8</title>
<path fill="none" stroke="midnightblue" d="M749.504,-302.416C728.559,-286.291 683.787,-249.52 656,-210 615.951,-153.04 626.201,-127.652 592,-67 586.634,-57.4832 579.959,-47.498 573.882,-38.9426"/>
<polygon fill="midnightblue" stroke="midnightblue" points="576.551,-36.6616 567.845,-30.624 570.886,-40.7731 576.551,-36.6616"/>
</g>
<!-- Node28 -->
<g id="node28" class="node"><title>Node28</title>
<g id="a_node28"><a xlink:href="queue_8h.html" target="_top" xlink:title="queue.h">
<polygon fill="white" stroke="black" points="740.5,-246.5 740.5,-265.5 791.5,-265.5 791.5,-246.5 740.5,-246.5"/>
<text text-anchor="middle" x="766" y="-253.5" font-family="Helvetica,sans-Serif" font-size="10.00">queue.h</text>
</a>
</g>
</g>
<!-- Node27&#45;&gt;Node28 -->
<g id="edge43" class="edge"><title>Node27&#45;&gt;Node28</title>
<path fill="none" stroke="midnightblue" d="M761.826,-302.083C762.481,-295.006 763.42,-284.861 764.242,-275.986"/>
<polygon fill="midnightblue" stroke="midnightblue" points="767.753,-276.031 765.19,-265.751 760.783,-275.386 767.753,-276.031"/>
</g>
<!-- Node30 -->
<g id="node30" class="node"><title>Node30</title>
<g id="a_node30"><a xlink:href="synchronization_8h.html" target="_top" xlink:title="synchronization.h">
<polygon fill="white" stroke="black" points="726.5,-190.5 726.5,-209.5 819.5,-209.5 819.5,-190.5 726.5,-190.5"/>
<text text-anchor="middle" x="773" y="-197.5" font-family="Helvetica,sans-Serif" font-size="10.00">synchronization.h</text>
</a>
</g>
</g>
<!-- Node27&#45;&gt;Node30 -->
<g id="edge47" class="edge"><title>Node27&#45;&gt;Node30</title>
<path fill="none" stroke="midnightblue" d="M771.99,-302.365C781.453,-294.171 794.436,-280.917 800,-266 806.177,-249.442 796.757,-230.847 787.392,-217.802"/>
<polygon fill="midnightblue" stroke="midnightblue" points="790.02,-215.481 781.109,-209.75 784.502,-219.787 790.02,-215.481"/>
</g>
<!-- Node29 -->
<g id="node29" class="node"><title>Node29</title>
<polygon fill="white" stroke="#bfbfbf" points="665.5,-190.5 665.5,-209.5 708.5,-209.5 708.5,-190.5 665.5,-190.5"/>
<text text-anchor="middle" x="687" y="-197.5" font-family="Helvetica,sans-Serif" font-size="10.00">queue</text>
</g>
<!-- Node28&#45;&gt;Node29 -->
<g id="edge44" class="edge"><title>Node28&#45;&gt;Node29</title>
<path fill="none" stroke="midnightblue" d="M753.307,-246.324C741.099,-237.979 722.422,-225.212 707.997,-215.352"/>
<polygon fill="midnightblue" stroke="midnightblue" points="709.892,-212.408 699.661,-209.655 705.942,-218.187 709.892,-212.408"/>
</g>
<!-- Node28&#45;&gt;Node30 -->
<g id="edge45" class="edge"><title>Node28&#45;&gt;Node30</title>
<path fill="none" stroke="midnightblue" d="M767.156,-246.083C768.084,-238.927 769.418,-228.635 770.577,-219.691"/>
<polygon fill="midnightblue" stroke="midnightblue" points="774.051,-220.118 771.866,-209.751 767.109,-219.218 774.051,-220.118"/>
</g>
<!-- Node30&#45;&gt;Node21 -->
<g id="edge46" class="edge"><title>Node30&#45;&gt;Node21</title>
<path fill="none" stroke="midnightblue" d="M770.278,-190.475C767.993,-183.32 764.617,-172.748 761.531,-163.084"/>
<polygon fill="midnightblue" stroke="midnightblue" points="764.854,-161.984 758.478,-153.523 758.186,-164.114 764.854,-161.984"/>
</g>
<!-- Node31&#45;&gt;Node8 -->
<g id="edge50" class="edge"><title>Node31&#45;&gt;Node8</title>
<path fill="none" stroke="midnightblue" d="M656.767,-302.377C650.254,-284.963 635.142,-244.331 623,-210 601.457,-149.087 577.181,-76.9647 564.951,-40.3722"/>
<polygon fill="midnightblue" stroke="midnightblue" points="568.181,-38.9966 561.695,-30.6193 561.541,-41.2131 568.181,-38.9966"/>
</g>
<!-- Node31&#45;&gt;Node28 -->
<g id="edge51" class="edge"><title>Node31&#45;&gt;Node28</title>
<path fill="none" stroke="midnightblue" d="M677.031,-302.324C694.03,-293.664 720.376,-280.242 739.993,-270.249"/>
<polygon fill="midnightblue" stroke="midnightblue" points="741.69,-273.312 749.012,-265.655 738.512,-267.075 741.69,-273.312"/>
</g>
<!-- Node32&#45;&gt;Node3 -->
<g id="edge55" class="edge"><title>Node32&#45;&gt;Node3</title>
<path fill="none" stroke="midnightblue" d="M863.386,-190.198C864.613,-162.193 868.448,-74.7128 870.16,-35.6598"/>
<polygon fill="midnightblue" stroke="midnightblue" points="873.677,-35.3577 870.618,-25.214 866.683,-35.0511 873.677,-35.3577"/>
</g>
<!-- Node32&#45;&gt;Node8 -->
<g id="edge54" class="edge"><title>Node32&#45;&gt;Node8</title>
<path fill="none" stroke="midnightblue" d="M859.475,-190.261C852.799,-174.719 836.9,-142.113 814,-123 756.284,-74.8293 673.742,-45.8642 617.901,-30.5581"/>
<polygon fill="midnightblue" stroke="midnightblue" points="618.708,-27.1508 608.143,-27.9476 616.899,-33.913 618.708,-27.1508"/>
</g>
<!-- Node32&#45;&gt;Node21 -->
<g id="edge53" class="edge"><title>Node32&#45;&gt;Node21</title>
<path fill="none" stroke="midnightblue" d="M847.383,-190.475C832.138,-182.153 808.422,-169.207 788.706,-158.445"/>
<polygon fill="midnightblue" stroke="midnightblue" points="790.144,-155.242 779.689,-153.523 786.79,-161.386 790.144,-155.242"/>
</g>
</g>
</svg>
