<?xml version="1.0" encoding="UTF-8" standalone="no"?>
<!DOCTYPE svg PUBLIC "-//W3C//DTD SVG 1.1//EN"
 "http://www.w3.org/Graphics/SVG/1.1/DTD/svg11.dtd">
<!-- Generated by graphviz version 2.38.0 (20140413.2041)
 -->
<!-- Title: /bitrise/src/Source/AR6/InstantOn/include/AR6/InstantOn/framework/source_filter.h Pages: 1 -->
<svg width="524pt" height="228pt"
 viewBox="0.00 0.00 523.50 228.00" xmlns="http://www.w3.org/2000/svg" xmlns:xlink="http://www.w3.org/1999/xlink">
<g id="graph0" class="graph" transform="scale(1 1) rotate(0) translate(4 224)">
<title>/bitrise/src/Source/AR6/InstantOn/include/AR6/InstantOn/framework/source_filter.h</title>
<polygon fill="white" stroke="none" points="-4,4 -4,-224 519.5,-224 519.5,4 -4,4"/>
<!-- Node1 -->
<g id="node1" class="node"><title>Node1</title>
<polygon fill="#bfbfbf" stroke="black" points="152,-167.5 152,-219.5 286,-219.5 286,-167.5 152,-167.5"/>
<text text-anchor="start" x="160" y="-207.5" font-family="Helvetica,sans-Serif" font-size="10.00">/bitrise/src/Source</text>
<text text-anchor="start" x="160" y="-196.5" font-family="Helvetica,sans-Serif" font-size="10.00">/AR6/InstantOn/include</text>
<text text-anchor="start" x="160" y="-185.5" font-family="Helvetica,sans-Serif" font-size="10.00">/AR6/InstantOn/framework</text>
<text text-anchor="middle" x="219" y="-174.5" font-family="Helvetica,sans-Serif" font-size="10.00">/source_filter.h</text>
</g>
<!-- Node2 -->
<g id="node2" class="node"><title>Node2</title>
<g id="a_node2"><a xlink:href="filter_8cpp.html" target="_top" xlink:title="/bitrise/src/Source\l/AR6/InstantOn/framework\l/filter.cpp">
<polygon fill="white" stroke="black" points="0,-84 0,-125 134,-125 134,-84 0,-84"/>
<text text-anchor="start" x="8" y="-113" font-family="Helvetica,sans-Serif" font-size="10.00">/bitrise/src/Source</text>
<text text-anchor="start" x="8" y="-102" font-family="Helvetica,sans-Serif" font-size="10.00">/AR6/InstantOn/framework</text>
<text text-anchor="middle" x="67" y="-91" font-family="Helvetica,sans-Serif" font-size="10.00">/filter.cpp</text>
</a>
</g>
</g>
<!-- Node1&#45;&gt;Node2 -->
<g id="edge1" class="edge"><title>Node1&#45;&gt;Node2</title>
<path fill="none" stroke="midnightblue" d="M166.3,-162.336C144.733,-149.992 120.396,-136.062 101.212,-125.082"/>
<polygon fill="midnightblue" stroke="midnightblue" points="164.618,-165.406 175.035,-167.336 168.095,-159.331 164.618,-165.406"/>
</g>
<!-- Node3 -->
<g id="node3" class="node"><title>Node3</title>
<g id="a_node3"><a xlink:href="source__filter_8cpp.html" target="_top" xlink:title="/bitrise/src/Source\l/AR6/InstantOn/framework\l/source_filter.cpp">
<polygon fill="white" stroke="black" points="152,-84 152,-125 286,-125 286,-84 152,-84"/>
<text text-anchor="start" x="160" y="-113" font-family="Helvetica,sans-Serif" font-size="10.00">/bitrise/src/Source</text>
<text text-anchor="start" x="160" y="-102" font-family="Helvetica,sans-Serif" font-size="10.00">/AR6/InstantOn/framework</text>
<text text-anchor="middle" x="219" y="-91" font-family="Helvetica,sans-Serif" font-size="10.00">/source_filter.cpp</text>
</a>
</g>
</g>
<!-- Node1&#45;&gt;Node3 -->
<g id="edge2" class="edge"><title>Node1&#45;&gt;Node3</title>
<path fill="none" stroke="midnightblue" d="M219,-157.155C219,-146.21 219,-134.549 219,-125.082"/>
<polygon fill="midnightblue" stroke="midnightblue" points="215.5,-157.336 219,-167.336 222.5,-157.336 215.5,-157.336"/>
</g>
<!-- Node4 -->
<g id="node4" class="node"><title>Node4</title>
<g id="a_node4"><a xlink:href="camera__filter_8h.html" target="_top" xlink:title="/bitrise/src/Source\l/AR6/InstantOn/include\l/AR6/InstantOn/extensions\l/camera_filter.h">
<polygon fill="white" stroke="black" points="304.5,-78.5 304.5,-130.5 439.5,-130.5 439.5,-78.5 304.5,-78.5"/>
<text text-anchor="start" x="312.5" y="-118.5" font-family="Helvetica,sans-Serif" font-size="10.00">/bitrise/src/Source</text>
<text text-anchor="start" x="312.5" y="-107.5" font-family="Helvetica,sans-Serif" font-size="10.00">/AR6/InstantOn/include</text>
<text text-anchor="start" x="312.5" y="-96.5" font-family="Helvetica,sans-Serif" font-size="10.00">/AR6/InstantOn/extensions</text>
<text text-anchor="middle" x="372" y="-85.5" font-family="Helvetica,sans-Serif" font-size="10.00">/camera_filter.h</text>
</a>
</g>
</g>
<!-- Node1&#45;&gt;Node4 -->
<g id="edge3" class="edge"><title>Node1&#45;&gt;Node4</title>
<path fill="none" stroke="midnightblue" d="M272.017,-162.353C290.231,-151.996 310.412,-140.521 327.846,-130.607"/>
<polygon fill="midnightblue" stroke="midnightblue" points="270.217,-159.35 263.254,-167.336 273.677,-165.435 270.217,-159.35"/>
</g>
<!-- Node5 -->
<g id="node5" class="node"><title>Node5</title>
<g id="a_node5"><a xlink:href="camera__filter_8cpp.html" target="_top" xlink:title="/bitrise/src/Source\l/AR6/InstantOn/extensions\l/camera_filter.cpp">
<polygon fill="white" stroke="black" points="227.5,-0.5 227.5,-41.5 362.5,-41.5 362.5,-0.5 227.5,-0.5"/>
<text text-anchor="start" x="235.5" y="-29.5" font-family="Helvetica,sans-Serif" font-size="10.00">/bitrise/src/Source</text>
<text text-anchor="start" x="235.5" y="-18.5" font-family="Helvetica,sans-Serif" font-size="10.00">/AR6/InstantOn/extensions</text>
<text text-anchor="middle" x="295" y="-7.5" font-family="Helvetica,sans-Serif" font-size="10.00">/camera_filter.cpp</text>
</a>
</g>
</g>
<!-- Node4&#45;&gt;Node5 -->
<g id="edge4" class="edge"><title>Node4&#45;&gt;Node5</title>
<path fill="none" stroke="midnightblue" d="M341.082,-70.7754C331.751,-60.8991 321.802,-50.3679 313.544,-41.6282"/>
<polygon fill="midnightblue" stroke="midnightblue" points="338.647,-73.2944 348.059,-78.1596 343.735,-68.4871 338.647,-73.2944"/>
</g>
<!-- Node6 -->
<g id="node6" class="node"><title>Node6</title>
<g id="a_node6"><a xlink:href="_vision4d-_instant_on_8cpp.html" target="_top" xlink:title="/bitrise/src/Source\l/AR6/InstantOn/extensions\l/Vision4d&#45;InstantOn.cpp">
<polygon fill="white" stroke="black" points="380.5,-0.5 380.5,-41.5 515.5,-41.5 515.5,-0.5 380.5,-0.5"/>
<text text-anchor="start" x="388.5" y="-29.5" font-family="Helvetica,sans-Serif" font-size="10.00">/bitrise/src/Source</text>
<text text-anchor="start" x="388.5" y="-18.5" font-family="Helvetica,sans-Serif" font-size="10.00">/AR6/InstantOn/extensions</text>
<text text-anchor="middle" x="448" y="-7.5" font-family="Helvetica,sans-Serif" font-size="10.00">/Vision4d&#45;InstantOn.cpp</text>
</a>
</g>
</g>
<!-- Node4&#45;&gt;Node6 -->
<g id="edge5" class="edge"><title>Node4&#45;&gt;Node6</title>
<path fill="none" stroke="midnightblue" d="M402.516,-70.7754C411.726,-60.8991 421.546,-50.3679 429.696,-41.6282"/>
<polygon fill="midnightblue" stroke="midnightblue" points="399.891,-68.4591 395.63,-78.1596 405.01,-73.2331 399.891,-68.4591"/>
</g>
</g>
</svg>
