<?xml version="1.0" encoding="UTF-8" standalone="no"?>
<!DOCTYPE svg PUBLIC "-//W3C//DTD SVG 1.1//EN"
 "http://www.w3.org/Graphics/SVG/1.1/DTD/svg11.dtd">
<!-- Generated by graphviz version 2.38.0 (20140413.2041)
 -->
<!-- Title: /bitrise/src/Source/AR6/InstantOn/framework/stream.cpp Pages: 1 -->
<svg width="545pt" height="307pt"
 viewBox="0.00 0.00 544.50 307.00" xmlns="http://www.w3.org/2000/svg" xmlns:xlink="http://www.w3.org/1999/xlink">
<g id="graph0" class="graph" transform="scale(1 1) rotate(0) translate(4 303)">
<title>/bitrise/src/Source/AR6/InstantOn/framework/stream.cpp</title>
<polygon fill="white" stroke="none" points="-4,4 -4,-303 540.5,-303 540.5,4 -4,4"/>
<!-- Node1 -->
<g id="node1" class="node"><title>Node1</title>
<polygon fill="#bfbfbf" stroke="black" points="341,-257.5 341,-298.5 475,-298.5 475,-257.5 341,-257.5"/>
<text text-anchor="start" x="349" y="-286.5" font-family="Helvetica,sans-Serif" font-size="10.00">/bitrise/src/Source</text>
<text text-anchor="start" x="349" y="-275.5" font-family="Helvetica,sans-Serif" font-size="10.00">/AR6/InstantOn/framework</text>
<text text-anchor="middle" x="408" y="-264.5" font-family="Helvetica,sans-Serif" font-size="10.00">/stream.cpp</text>
</g>
<!-- Node2 -->
<g id="node2" class="node"><title>Node2</title>
<g id="a_node2"><a xlink:href="stream_8h.html" target="_top" xlink:title="AR6/InstantOn/framework\l/stream.h">
<polygon fill="white" stroke="black" points="342.5,-190.5 342.5,-220.5 473.5,-220.5 473.5,-190.5 342.5,-190.5"/>
<text text-anchor="start" x="350.5" y="-208.5" font-family="Helvetica,sans-Serif" font-size="10.00">AR6/InstantOn/framework</text>
<text text-anchor="middle" x="408" y="-197.5" font-family="Helvetica,sans-Serif" font-size="10.00">/stream.h</text>
</a>
</g>
</g>
<!-- Node1&#45;&gt;Node2 -->
<g id="edge1" class="edge"><title>Node1&#45;&gt;Node2</title>
<path fill="none" stroke="midnightblue" d="M408,-257.362C408,-249.226 408,-239.7 408,-231.105"/>
<polygon fill="midnightblue" stroke="midnightblue" points="411.5,-230.892 408,-220.892 404.5,-230.892 411.5,-230.892"/>
</g>
<!-- Node3 -->
<g id="node3" class="node"><title>Node3</title>
<polygon fill="white" stroke="#bfbfbf" points="0,-0.5 0,-30.5 102,-30.5 102,-0.5 0,-0.5"/>
<text text-anchor="start" x="8" y="-18.5" font-family="Helvetica,sans-Serif" font-size="10.00">artvision/framework</text>
<text text-anchor="middle" x="51" y="-7.5" font-family="Helvetica,sans-Serif" font-size="10.00">/error.h</text>
</g>
<!-- Node2&#45;&gt;Node3 -->
<g id="edge2" class="edge"><title>Node2&#45;&gt;Node3</title>
<path fill="none" stroke="midnightblue" d="M342.285,-192.951C247.182,-174.726 78.7309,-136.248 44,-87 34.4968,-73.5245 36.8666,-54.8287 41.2802,-40.0756"/>
<polygon fill="midnightblue" stroke="midnightblue" points="44.595,-41.1992 44.5416,-30.6045 37.9764,-38.9201 44.595,-41.1992"/>
</g>
<!-- Node4 -->
<g id="node4" class="node"><title>Node4</title>
<g id="a_node4"><a xlink:href="linear__algebra_8h.html" target="_top" xlink:title="AR6/InstantOn/math\l/linear_algebra.h">
<polygon fill="white" stroke="black" points="241.5,-123.5 241.5,-153.5 348.5,-153.5 348.5,-123.5 241.5,-123.5"/>
<text text-anchor="start" x="249.5" y="-141.5" font-family="Helvetica,sans-Serif" font-size="10.00">AR6/InstantOn/math</text>
<text text-anchor="middle" x="295" y="-130.5" font-family="Helvetica,sans-Serif" font-size="10.00">/linear_algebra.h</text>
</a>
</g>
</g>
<!-- Node2&#45;&gt;Node4 -->
<g id="edge3" class="edge"><title>Node2&#45;&gt;Node4</title>
<path fill="none" stroke="midnightblue" d="M383.481,-190.396C367.34,-181.112 346.008,-168.841 328.334,-158.674"/>
<polygon fill="midnightblue" stroke="midnightblue" points="329.885,-155.529 319.471,-153.577 326.395,-161.597 329.885,-155.529"/>
</g>
<!-- Node12 -->
<g id="node12" class="node"><title>Node12</title>
<g id="a_node12"><a xlink:href="indexing_8h.html" target="_top" xlink:title="indexing.h">
<polygon fill="white" stroke="black" points="377.5,-67.5 377.5,-86.5 438.5,-86.5 438.5,-67.5 377.5,-67.5"/>
<text text-anchor="middle" x="408" y="-74.5" font-family="Helvetica,sans-Serif" font-size="10.00">indexing.h</text>
</a>
</g>
</g>
<!-- Node2&#45;&gt;Node12 -->
<g id="edge18" class="edge"><title>Node2&#45;&gt;Node12</title>
<path fill="none" stroke="midnightblue" d="M408,-190.479C408,-167.719 408,-122.702 408,-97.0582"/>
<polygon fill="midnightblue" stroke="midnightblue" points="411.5,-96.7885 408,-86.7885 404.5,-96.7886 411.5,-96.7885"/>
</g>
<!-- Node13 -->
<g id="node13" class="node"><title>Node13</title>
<polygon fill="white" stroke="#bfbfbf" points="474,-6 474,-25 526,-25 526,-6 474,-6"/>
<text text-anchor="middle" x="500" y="-13" font-family="Helvetica,sans-Serif" font-size="10.00">memory</text>
</g>
<!-- Node2&#45;&gt;Node13 -->
<g id="edge20" class="edge"><title>Node2&#45;&gt;Node13</title>
<path fill="none" stroke="midnightblue" d="M414.915,-190.369C431.416,-156.65 473.074,-71.5224 491.27,-34.3397"/>
<polygon fill="midnightblue" stroke="midnightblue" points="494.488,-35.7268 495.74,-25.2062 488.2,-32.6499 494.488,-35.7268"/>
</g>
<!-- Node16 -->
<g id="node16" class="node"><title>Node16</title>
<polygon fill="white" stroke="#bfbfbf" points="495.5,-129 495.5,-148 536.5,-148 536.5,-129 495.5,-129"/>
<text text-anchor="middle" x="516" y="-136" font-family="Helvetica,sans-Serif" font-size="10.00">string</text>
</g>
<!-- Node2&#45;&gt;Node16 -->
<g id="edge19" class="edge"><title>Node2&#45;&gt;Node16</title>
<path fill="none" stroke="midnightblue" d="M431.434,-190.396C449.713,-179.395 474.96,-164.2 493.101,-153.282"/>
<polygon fill="midnightblue" stroke="midnightblue" points="495.102,-156.162 501.865,-148.007 491.493,-150.165 495.102,-156.162"/>
</g>
<!-- Node5 -->
<g id="node5" class="node"><title>Node5</title>
<g id="a_node5"><a xlink:href="math__utils_8h.html" target="_top" xlink:title="math_utils.h">
<polygon fill="white" stroke="black" points="53,-67.5 53,-86.5 123,-86.5 123,-67.5 53,-67.5"/>
<text text-anchor="middle" x="88" y="-74.5" font-family="Helvetica,sans-Serif" font-size="10.00">math_utils.h</text>
</a>
</g>
</g>
<!-- Node4&#45;&gt;Node5 -->
<g id="edge4" class="edge"><title>Node4&#45;&gt;Node5</title>
<path fill="none" stroke="midnightblue" d="M246.206,-123.475C210.026,-113.075 161.331,-99.0783 127.564,-89.3722"/>
<polygon fill="midnightblue" stroke="midnightblue" points="128.171,-85.9052 117.594,-86.5064 126.238,-92.6328 128.171,-85.9052"/>
</g>
<!-- Node7 -->
<g id="node7" class="node"><title>Node7</title>
<g id="a_node7"><a xlink:href="_instant_on_2include_2_a_r6_2_instant_on_2math_2matrix_8h.html" target="_top" xlink:title="matrix.h">
<polygon fill="white" stroke="black" points="269,-67.5 269,-86.5 321,-86.5 321,-67.5 269,-67.5"/>
<text text-anchor="middle" x="295" y="-74.5" font-family="Helvetica,sans-Serif" font-size="10.00">matrix.h</text>
</a>
</g>
</g>
<!-- Node4&#45;&gt;Node7 -->
<g id="edge7" class="edge"><title>Node4&#45;&gt;Node7</title>
<path fill="none" stroke="midnightblue" d="M295,-123.399C295,-115.466 295,-105.458 295,-96.8583"/>
<polygon fill="midnightblue" stroke="midnightblue" points="298.5,-96.6577 295,-86.6578 291.5,-96.6578 298.5,-96.6577"/>
</g>
<!-- Node8 -->
<g id="node8" class="node"><title>Node8</title>
<g id="a_node8"><a xlink:href="vector_8h.html" target="_top" xlink:title="vector.h">
<polygon fill="white" stroke="black" points="269,-6 269,-25 321,-25 321,-6 269,-6"/>
<text text-anchor="middle" x="295" y="-13" font-family="Helvetica,sans-Serif" font-size="10.00">vector.h</text>
</a>
</g>
</g>
<!-- Node4&#45;&gt;Node8 -->
<g id="edge11" class="edge"><title>Node4&#45;&gt;Node8</title>
<path fill="none" stroke="midnightblue" d="M308.364,-123.319C316.345,-113.84 325.734,-100.643 330,-87 336.078,-67.5588 323.212,-46.8552 311.401,-32.9508"/>
<polygon fill="midnightblue" stroke="midnightblue" points="313.691,-30.268 304.363,-25.244 308.522,-34.9884 313.691,-30.268"/>
</g>
<!-- Node10 -->
<g id="node10" class="node"><title>Node10</title>
<polygon fill="white" stroke="#bfbfbf" points="141,-67.5 141,-86.5 193,-86.5 193,-67.5 141,-67.5"/>
<text text-anchor="middle" x="167" y="-74.5" font-family="Helvetica,sans-Serif" font-size="10.00">assert.h</text>
</g>
<!-- Node4&#45;&gt;Node10 -->
<g id="edge12" class="edge"><title>Node4&#45;&gt;Node10</title>
<path fill="none" stroke="midnightblue" d="M264.666,-123.399C243.477,-113.55 215.406,-100.501 194.798,-90.9217"/>
<polygon fill="midnightblue" stroke="midnightblue" points="196.169,-87.6993 185.625,-86.6578 193.218,-94.047 196.169,-87.6993"/>
</g>
<!-- Node11 -->
<g id="node11" class="node"><title>Node11</title>
<polygon fill="white" stroke="#bfbfbf" points="211,-67.5 211,-86.5 251,-86.5 251,-67.5 211,-67.5"/>
<text text-anchor="middle" x="231" y="-74.5" font-family="Helvetica,sans-Serif" font-size="10.00">limits</text>
</g>
<!-- Node4&#45;&gt;Node11 -->
<g id="edge13" class="edge"><title>Node4&#45;&gt;Node11</title>
<path fill="none" stroke="midnightblue" d="M279.833,-123.399C270.245,-114.486 257.839,-102.952 247.931,-93.7408"/>
<polygon fill="midnightblue" stroke="midnightblue" points="250.02,-90.9033 240.313,-86.6578 245.253,-96.0301 250.02,-90.9033"/>
</g>
<!-- Node4&#45;&gt;Node12 -->
<g id="edge14" class="edge"><title>Node4&#45;&gt;Node12</title>
<path fill="none" stroke="midnightblue" d="M321.779,-123.399C340.062,-113.773 364.148,-101.09 382.215,-91.5772"/>
<polygon fill="midnightblue" stroke="midnightblue" points="384.34,-94.4138 391.557,-86.6578 381.078,-88.22 384.34,-94.4138"/>
</g>
<!-- Node5&#45;&gt;Node3 -->
<g id="edge6" class="edge"><title>Node5&#45;&gt;Node3</title>
<path fill="none" stroke="midnightblue" d="M82.6988,-67.4751C78.1092,-60.0945 71.2581,-49.0772 65.0982,-39.1714"/>
<polygon fill="midnightblue" stroke="midnightblue" points="67.9731,-37.1667 59.7202,-30.523 62.0287,-40.8632 67.9731,-37.1667"/>
</g>
<!-- Node6 -->
<g id="node6" class="node"><title>Node6</title>
<polygon fill="white" stroke="#bfbfbf" points="120,-6 120,-25 164,-25 164,-6 120,-6"/>
<text text-anchor="middle" x="142" y="-13" font-family="Helvetica,sans-Serif" font-size="10.00">cmath</text>
</g>
<!-- Node5&#45;&gt;Node6 -->
<g id="edge5" class="edge"><title>Node5&#45;&gt;Node6</title>
<path fill="none" stroke="midnightblue" d="M95.7369,-67.4751C103.997,-58.3733 117.277,-43.741 127.494,-32.483"/>
<polygon fill="midnightblue" stroke="midnightblue" points="130.149,-34.7663 134.277,-25.0091 124.965,-30.0619 130.149,-34.7663"/>
</g>
<!-- Node7&#45;&gt;Node3 -->
<g id="edge8" class="edge"><title>Node7&#45;&gt;Node3</title>
<path fill="none" stroke="midnightblue" d="M268.637,-69.177C265.724,-68.4362 262.8,-67.6983 260,-67 196.866,-51.2567 178.82,-47.3437 111.848,-31.2018"/>
<polygon fill="midnightblue" stroke="midnightblue" points="112.605,-27.7842 102.063,-28.8404 110.963,-34.5888 112.605,-27.7842"/>
</g>
<!-- Node7&#45;&gt;Node8 -->
<g id="edge9" class="edge"><title>Node7&#45;&gt;Node8</title>
<path fill="none" stroke="midnightblue" d="M295,-67.4751C295,-59.0803 295,-45.9806 295,-35.1631"/>
<polygon fill="midnightblue" stroke="midnightblue" points="298.5,-35.0091 295,-25.0091 291.5,-35.0091 298.5,-35.0091"/>
</g>
<!-- Node9 -->
<g id="node9" class="node"><title>Node9</title>
<polygon fill="white" stroke="#bfbfbf" points="207,-6 207,-25 251,-25 251,-6 207,-6"/>
<text text-anchor="middle" x="229" y="-13" font-family="Helvetica,sans-Serif" font-size="10.00">vector</text>
</g>
<!-- Node7&#45;&gt;Node9 -->
<g id="edge10" class="edge"><title>Node7&#45;&gt;Node9</title>
<path fill="none" stroke="midnightblue" d="M285.544,-67.4751C275.252,-58.1966 258.584,-43.1706 246.006,-31.831"/>
<polygon fill="midnightblue" stroke="midnightblue" points="248.21,-29.1054 238.439,-25.0091 243.522,-34.3046 248.21,-29.1054"/>
</g>
<!-- Node12&#45;&gt;Node13 -->
<g id="edge15" class="edge"><title>Node12&#45;&gt;Node13</title>
<path fill="none" stroke="midnightblue" d="M421.181,-67.4751C436.074,-57.8431 460.544,-42.0175 478.273,-30.5517"/>
<polygon fill="midnightblue" stroke="midnightblue" points="480.347,-33.3787 486.843,-25.0091 476.545,-27.5008 480.347,-33.3787"/>
</g>
<!-- Node14 -->
<g id="node14" class="node"><title>Node14</title>
<polygon fill="white" stroke="#bfbfbf" points="406.5,-6 406.5,-25 455.5,-25 455.5,-6 406.5,-6"/>
<text text-anchor="middle" x="431" y="-13" font-family="Helvetica,sans-Serif" font-size="10.00">cstddef</text>
</g>
<!-- Node12&#45;&gt;Node14 -->
<g id="edge16" class="edge"><title>Node12&#45;&gt;Node14</title>
<path fill="none" stroke="midnightblue" d="M411.295,-67.4751C414.609,-58.9035 419.818,-45.4269 424.049,-34.483"/>
<polygon fill="midnightblue" stroke="midnightblue" points="427.37,-35.5984 427.711,-25.0091 420.841,-33.0745 427.37,-35.5984"/>
</g>
<!-- Node15 -->
<g id="node15" class="node"><title>Node15</title>
<polygon fill="white" stroke="#bfbfbf" points="339.5,-6 339.5,-25 388.5,-25 388.5,-6 339.5,-6"/>
<text text-anchor="middle" x="364" y="-13" font-family="Helvetica,sans-Serif" font-size="10.00">string.h</text>
</g>
<!-- Node12&#45;&gt;Node15 -->
<g id="edge17" class="edge"><title>Node12&#45;&gt;Node15</title>
<path fill="none" stroke="midnightblue" d="M401.696,-67.4751C395.096,-58.5501 384.563,-44.3071 376.307,-33.1425"/>
<polygon fill="midnightblue" stroke="midnightblue" points="379.052,-30.9684 370.292,-25.0091 373.424,-35.1305 379.052,-30.9684"/>
</g>
</g>
</svg>
