<?xml version="1.0" encoding="UTF-8" standalone="no"?>
<!DOCTYPE svg PUBLIC "-//W3C//DTD SVG 1.1//EN"
 "http://www.w3.org/Graphics/SVG/1.1/DTD/svg11.dtd">
<!-- Generated by graphviz version 2.38.0 (20140413.2041)
 -->
<!-- Title: artvision_instanton::TrackIndex::track_t Pages: 1 -->
<svg width="220pt" height="117pt"
 viewBox="0.00 0.00 219.50 117.00" xmlns="http://www.w3.org/2000/svg" xmlns:xlink="http://www.w3.org/1999/xlink">
<g id="graph0" class="graph" transform="scale(1 1) rotate(0) translate(4 113)">
<title>artvision_instanton::TrackIndex::track_t</title>
<polygon fill="white" stroke="none" points="-4,4 -4,-113 215.5,-113 215.5,4 -4,4"/>
<!-- Node1 -->
<g id="node1" class="node"><title>Node1</title>
<polygon fill="#bfbfbf" stroke="black" points="49,-0.5 49,-30.5 156,-30.5 156,-0.5 49,-0.5"/>
<text text-anchor="start" x="57" y="-18.5" font-family="Helvetica,sans-Serif" font-size="10.00">artvision_instanton</text>
<text text-anchor="middle" x="102.5" y="-7.5" font-family="Helvetica,sans-Serif" font-size="10.00">::TrackIndex::track_t</text>
</g>
<!-- Node2 -->
<g id="node2" class="node"><title>Node2</title>
<polygon fill="white" stroke="#bfbfbf" points="0,-84 0,-103 91,-103 91,-84 0,-84"/>
<text text-anchor="middle" x="45.5" y="-91" font-family="Helvetica,sans-Serif" font-size="10.00">std::deque&lt; int &gt;</text>
</g>
<!-- Node2&#45;&gt;Node1 -->
<g id="edge1" class="edge"><title>Node2&#45;&gt;Node1</title>
<path fill="none" stroke="#9a32cd" stroke-dasharray="5,2" d="M58.0591,-75.7545C68.2332,-62.189 82.4027,-43.2964 91.9851,-30.5198"/>
<polygon fill="#9a32cd" stroke="#9a32cd" points="55.2387,-73.6818 52.0386,-83.7818 60.8387,-77.8818 55.2387,-73.6818"/>
<text text-anchor="middle" x="94.5" y="-52" font-family="Helvetica,sans-Serif" font-size="10.00"> indices</text>
</g>
<!-- Node3 -->
<g id="node3" class="node"><title>Node3</title>
<g id="a_node3"><a xlink:href="classartvision__instanton_1_1_point3d.html" target="_top" xlink:title="artvision_instanton\l::Point3d\&lt; double \&gt;">
<polygon fill="white" stroke="black" points="109.5,-78.5 109.5,-108.5 211.5,-108.5 211.5,-78.5 109.5,-78.5"/>
<text text-anchor="start" x="117.5" y="-96.5" font-family="Helvetica,sans-Serif" font-size="10.00">artvision_instanton</text>
<text text-anchor="middle" x="160.5" y="-85.5" font-family="Helvetica,sans-Serif" font-size="10.00">::Point3d&lt; double &gt;</text>
</a>
</g>
</g>
<!-- Node3&#45;&gt;Node1 -->
<g id="edge2" class="edge"><title>Node3&#45;&gt;Node1</title>
<path fill="none" stroke="#9a32cd" stroke-dasharray="5,2" d="M143.284,-69.9408C133.587,-57.2348 121.772,-41.7536 113.36,-30.7309"/>
<polygon fill="#9a32cd" stroke="#9a32cd" points="140.742,-72.3788 149.591,-78.205 146.306,-68.1321 140.742,-72.3788"/>
<text text-anchor="middle" x="162" y="-52" font-family="Helvetica,sans-Serif" font-size="10.00"> world_point</text>
</g>
</g>
</svg>
