<?xml version="1.0" encoding="UTF-8" standalone="no"?>
<!DOCTYPE svg PUBLIC "-//W3C//DTD SVG 1.1//EN"
 "http://www.w3.org/Graphics/SVG/1.1/DTD/svg11.dtd">
<!-- Generated by graphviz version 2.38.0 (20140413.2041)
 -->
<!-- Title: _AR2VideoParam1394T Pages: 1 -->
<svg width="130pt" height="251pt"
 viewBox="0.00 0.00 130.00 251.00" xmlns="http://www.w3.org/2000/svg" xmlns:xlink="http://www.w3.org/1999/xlink">
<g id="graph0" class="graph" transform="scale(1 1) rotate(0) translate(4 247)">
<title>_AR2VideoParam1394T</title>
<polygon fill="white" stroke="none" points="-4,4 -4,-247 126,-247 126,4 -4,4"/>
<!-- Node1 -->
<g id="node1" class="node"><title>Node1</title>
<polygon fill="#bfbfbf" stroke="black" points="0,-0.5 0,-19.5 122,-19.5 122,-0.5 0,-0.5"/>
<text text-anchor="middle" x="61" y="-7.5" font-family="Helvetica,sans-Serif" font-size="10.00">_AR2VideoParam1394T</text>
</g>
<!-- Node2 -->
<g id="node2" class="node"><title>Node2</title>
<g id="a_node2"><a xlink:href="struct_a_r2_video_buffer1394_t.html" target="_top" xlink:title="AR2VideoBuffer1394T">
<polygon fill="white" stroke="black" points="4,-67.5 4,-86.5 118,-86.5 118,-67.5 4,-67.5"/>
<text text-anchor="middle" x="61" y="-74.5" font-family="Helvetica,sans-Serif" font-size="10.00">AR2VideoBuffer1394T</text>
</a>
</g>
</g>
<!-- Node2&#45;&gt;Node1 -->
<g id="edge1" class="edge"><title>Node2&#45;&gt;Node1</title>
<path fill="none" stroke="#9a32cd" stroke-dasharray="5,2" d="M61,-57.037C61,-44.6703 61,-29.1198 61,-19.6273"/>
<polygon fill="#9a32cd" stroke="#9a32cd" points="57.5001,-57.2338 61,-67.2338 64.5001,-57.2338 57.5001,-57.2338"/>
<text text-anchor="middle" x="75" y="-41" font-family="Helvetica,sans-Serif" font-size="10.00"> buffer</text>
</g>
<!-- Node3 -->
<g id="node3" class="node"><title>Node3</title>
<g id="a_node3"><a xlink:href="struct_a_r2_video_buffer_t.html" target="_top" xlink:title="A structure which carries information about a video frame retrieved by the video library. ">
<polygon fill="white" stroke="black" points="14.5,-156.5 14.5,-175.5 107.5,-175.5 107.5,-156.5 14.5,-156.5"/>
<text text-anchor="middle" x="61" y="-163.5" font-family="Helvetica,sans-Serif" font-size="10.00">AR2VideoBufferT</text>
</a>
</g>
</g>
<!-- Node3&#45;&gt;Node2 -->
<g id="edge2" class="edge"><title>Node3&#45;&gt;Node2</title>
<path fill="none" stroke="#9a32cd" stroke-dasharray="5,2" d="M61,-146.195C61,-127.738 61,-100.412 61,-86.6249"/>
<polygon fill="#9a32cd" stroke="#9a32cd" points="57.5001,-146.34 61,-156.34 64.5001,-146.34 57.5001,-146.34"/>
<text text-anchor="middle" x="70.5" y="-130" font-family="Helvetica,sans-Serif" font-size="10.00"> in</text>
<text text-anchor="middle" x="70.5" y="-119" font-family="Helvetica,sans-Serif" font-size="10.00">wait</text>
<text text-anchor="middle" x="70.5" y="-108" font-family="Helvetica,sans-Serif" font-size="10.00">out</text>
</g>
<!-- Node4 -->
<g id="node4" class="node"><title>Node4</title>
<g id="a_node4"><a xlink:href="struct_a_r2_video_timestamp_t.html" target="_top" xlink:title="A structure to hold a timestamp in seconds and microseconds, with arbitrary epoch. ">
<polygon fill="white" stroke="black" points="3,-223.5 3,-242.5 119,-242.5 119,-223.5 3,-223.5"/>
<text text-anchor="middle" x="61" y="-230.5" font-family="Helvetica,sans-Serif" font-size="10.00">AR2VideoTimestampT</text>
</a>
</g>
</g>
<!-- Node4&#45;&gt;Node3 -->
<g id="edge3" class="edge"><title>Node4&#45;&gt;Node3</title>
<path fill="none" stroke="#9a32cd" stroke-dasharray="5,2" d="M61,-213.037C61,-200.67 61,-185.12 61,-175.627"/>
<polygon fill="#9a32cd" stroke="#9a32cd" points="57.5001,-213.234 61,-223.234 64.5001,-213.234 57.5001,-213.234"/>
<text text-anchor="middle" x="72" y="-197" font-family="Helvetica,sans-Serif" font-size="10.00"> time</text>
</g>
</g>
</svg>
