<?xml version="1.0" encoding="UTF-8" standalone="no"?>
<!DOCTYPE svg PUBLIC "-//W3C//DTD SVG 1.1//EN"
 "http://www.w3.org/Graphics/SVG/1.1/DTD/svg11.dtd">
<!-- Generated by graphviz version 2.38.0 (20140413.2041)
 -->
<!-- Title: ARTrackingHistory Pages: 1 -->
<svg width="126pt" height="162pt"
 viewBox="0.00 0.00 126.00 162.00" xmlns="http://www.w3.org/2000/svg" xmlns:xlink="http://www.w3.org/1999/xlink">
<g id="graph0" class="graph" transform="scale(1 1) rotate(0) translate(4 158)">
<title>ARTrackingHistory</title>
<polygon fill="white" stroke="none" points="-4,4 -4,-158 122,-158 122,4 -4,4"/>
<!-- Node1 -->
<g id="node1" class="node"><title>Node1</title>
<polygon fill="#bfbfbf" stroke="black" points="0,-0.5 0,-19.5 100,-19.5 100,-0.5 0,-0.5"/>
<text text-anchor="middle" x="50" y="-7.5" font-family="Helvetica,sans-Serif" font-size="10.00">ARTrackingHistory</text>
</g>
<!-- Node2 -->
<g id="node2" class="node"><title>Node2</title>
<g id="a_node2"><a xlink:href="struct_a_r_marker_info.html" target="_top" xlink:title="Describes a detected trapezoidal area (a candidate for a marker match). ">
<polygon fill="white" stroke="black" points="11.5,-67.5 11.5,-86.5 88.5,-86.5 88.5,-67.5 11.5,-67.5"/>
<text text-anchor="middle" x="50" y="-74.5" font-family="Helvetica,sans-Serif" font-size="10.00">ARMarkerInfo</text>
</a>
</g>
</g>
<!-- Node2&#45;&gt;Node1 -->
<g id="edge1" class="edge"><title>Node2&#45;&gt;Node1</title>
<path fill="none" stroke="#9a32cd" stroke-dasharray="5,2" d="M50,-57.037C50,-44.6703 50,-29.1198 50,-19.6273"/>
<polygon fill="#9a32cd" stroke="#9a32cd" points="46.5001,-57.2338 50,-67.2338 53.5001,-57.2338 46.5001,-57.2338"/>
<text text-anchor="middle" x="67" y="-41" font-family="Helvetica,sans-Serif" font-size="10.00"> marker</text>
</g>
<!-- Node3 -->
<g id="node3" class="node"><title>Node3</title>
<g id="a_node3"><a xlink:href="struct_a_r_marker_info2.html" target="_top" xlink:title="Captures detail of a trapezoidal region which is a candidate for marker detection. ">
<polygon fill="white" stroke="black" points="8.5,-134.5 8.5,-153.5 91.5,-153.5 91.5,-134.5 8.5,-134.5"/>
<text text-anchor="middle" x="50" y="-141.5" font-family="Helvetica,sans-Serif" font-size="10.00">ARMarkerInfo2</text>
</a>
</g>
</g>
<!-- Node3&#45;&gt;Node2 -->
<g id="edge2" class="edge"><title>Node3&#45;&gt;Node2</title>
<path fill="none" stroke="#9a32cd" stroke-dasharray="5,2" d="M50,-124.037C50,-111.67 50,-96.1198 50,-86.6273"/>
<polygon fill="#9a32cd" stroke="#9a32cd" points="46.5001,-124.234 50,-134.234 53.5001,-124.234 46.5001,-124.234"/>
<text text-anchor="middle" x="84" y="-108" font-family="Helvetica,sans-Serif" font-size="10.00"> markerInfo2Ptr</text>
</g>
</g>
</svg>
