<?xml version="1.0" encoding="UTF-8" standalone="no"?>
<!DOCTYPE svg PUBLIC "-//W3C//DTD SVG 1.1//EN"
 "http://www.w3.org/Graphics/SVG/1.1/DTD/svg11.dtd">
<!-- Generated by graphviz version 2.38.0 (20140413.2041)
 -->
<!-- Title: _ARGL_CONTEXT_SETTINGS Pages: 1 -->
<!--zoomable 293 -->
<svg id="main" version="1.1" xmlns="http://www.w3.org/2000/svg" xmlns:xlink="http://www.w3.org/1999/xlink" xml:space="preserve" onload="init(evt)">
<style type="text/css"><![CDATA[
.edge:hover path { stroke: red; }
.edge:hover polygon { stroke: red; fill: red; }
]]></style>
<script type="text/javascript"><![CDATA[
var edges = document.getElementsByTagName('g');
if (edges && edges.length) {
  for (var i=0;i<edges.length;i++) {
    if (edges[i].id.substr(0,4)=='edge') {
      edges[i].setAttribute('class','edge');
    }
  }
}
]]></script>
        <defs>
                <circle id="rim" cx="0" cy="0" r="7"/>
                <circle id="rim2" cx="0" cy="0" r="3.5"/>
                <g id="zoomPlus">
                        <use xlink:href="#rim" fill="#404040">
                                <set attributeName="fill" to="#808080" begin="zoomplus.mouseover" end="zoomplus.mouseout"/>
                        </use>
                        <path d="M-4,0h8M0,-4v8" fill="none" stroke="white" stroke-width="1.5" pointer-events="none"/>
                </g>
                <g id="zoomMin">
                        <use xlink:href="#rim" fill="#404040">
                                <set attributeName="fill" to="#808080" begin="zoomminus.mouseover" end="zoomminus.mouseout"/>
                        </use>
                        <path d="M-4,0h8" fill="none" stroke="white" stroke-width="1.5" pointer-events="none"/>
                </g>
                <g id="dirArrow">
                        <path fill="none" stroke="white" stroke-width="1.5" d="M0,-3.0v7 M-2.5,-0.5L0,-3.0L2.5,-0.5"/>
                </g>
               <g id="resetDef">
                       <use xlink:href="#rim2" fill="#404040">
                               <set attributeName="fill" to="#808080" begin="reset.mouseover" end="reset.mouseout"/>
                       </use>
               </g>
        </defs>

<script type="text/javascript">
var viewWidth = 871;
var viewHeight = 293;
var sectionId = 'dynsection-0';
</script>
<script xlink:href="svgpan.js"/>
<svg id="graph" class="graph">
<g id="viewport">
<title>_ARGL_CONTEXT_SETTINGS</title>
<polygon fill="white" stroke="none" points="-4,4 -4,-289 867,-289 867,4 -4,4"/>
<!-- Node1 -->
<g id="node1" class="node"><title>Node1</title>
<polygon fill="#bfbfbf" stroke="black" points="705,-29.5 705,-48.5 863,-48.5 863,-29.5 705,-29.5"/>
<text text-anchor="middle" x="784" y="-36.5" font-family="Helvetica,sans-Serif" font-size="10.00">_ARGL_CONTEXT_SETTINGS</text>
</g>
<!-- Node2 -->
<g id="node2" class="node"><title>Node2</title>
<g id="a_node2"><a xlink:href="struct_a_r_handle.html" target="_top" xlink:title="Structure holding state of an instance of the square marker tracker. ">
<polygon fill="white" stroke="black" points="567,-131.5 567,-150.5 629,-150.5 629,-131.5 567,-131.5"/>
<text text-anchor="middle" x="598" y="-138.5" font-family="Helvetica,sans-Serif" font-size="10.00">ARHandle</text>
</a>
</g>
</g>
<!-- Node2&#45;&gt;Node1 -->
<g id="edge1" class="edge"><title>Node2&#45;&gt;Node1</title>
<path fill="none" stroke="#9a32cd" stroke-dasharray="5,2" d="M625.293,-126.424C663.467,-105.263 733.205,-66.6039 765.602,-48.6447"/>
<polygon fill="#9a32cd" stroke="#9a32cd" points="623.359,-123.495 616.31,-131.404 626.753,-129.617 623.359,-123.495"/>
<text text-anchor="middle" x="667" y="-117" font-family="Helvetica,sans-Serif" font-size="10.00"> arhandle</text>
</g>
<!-- Node3 -->
<g id="node3" class="node"><title>Node3</title>
<g id="a_node3"><a xlink:href="struct___a_r_image_proc_info.html" target="_top" xlink:title="Structure holding settings for an instance of the image&#45;processing pipeline. ">
<polygon fill="white" stroke="black" points="355,-227.5 355,-246.5 455,-246.5 455,-227.5 355,-227.5"/>
<text text-anchor="middle" x="405" y="-234.5" font-family="Helvetica,sans-Serif" font-size="10.00">_ARImageProcInfo</text>
</a>
</g>
</g>
<!-- Node3&#45;&gt;Node2 -->
<g id="edge2" class="edge"><title>Node3&#45;&gt;Node2</title>
<path fill="none" stroke="#9a32cd" stroke-dasharray="5,2" d="M465.282,-234.81C492.573,-231.443 524.3,-223.993 549,-208 571.1,-193.69 586.228,-165.338 592.99,-150.523"/>
<polygon fill="#9a32cd" stroke="#9a32cd" points="464.631,-231.36 455.063,-235.91 465.38,-238.32 464.631,-231.36"/>
<text text-anchor="middle" x="511" y="-236" font-family="Helvetica,sans-Serif" font-size="10.00"> arImageProcInfo</text>
</g>
<!-- Node4 -->
<g id="node4" class="node"><title>Node4</title>
<g id="a_node4"><a xlink:href="struct_a_r_patt_handle.html" target="_top" xlink:title="A structure which holds descriptions of trained patterns for template matching. ">
<polygon fill="white" stroke="black" points="365,-189.5 365,-208.5 445,-208.5 445,-189.5 365,-189.5"/>
<text text-anchor="middle" x="405" y="-196.5" font-family="Helvetica,sans-Serif" font-size="10.00">ARPattHandle</text>
</a>
</g>
</g>
<!-- Node4&#45;&gt;Node2 -->
<g id="edge3" class="edge"><title>Node4&#45;&gt;Node2</title>
<path fill="none" stroke="#9a32cd" stroke-dasharray="5,2" d="M455.29,-196.203C483.572,-193.271 519.259,-187.27 549,-175 563.16,-169.158 577.206,-158.489 586.41,-150.656"/>
<polygon fill="#9a32cd" stroke="#9a32cd" points="454.857,-192.728 445.229,-197.151 455.513,-199.698 454.857,-192.728"/>
<text text-anchor="middle" x="511" y="-196" font-family="Helvetica,sans-Serif" font-size="10.00"> pattHandle</text>
</g>
<!-- Node5 -->
<g id="node5" class="node"><title>Node5</title>
<g id="a_node5"><a xlink:href="struct_a_r_marker_info.html" target="_top" xlink:title="Describes a detected trapezoidal area (a candidate for a marker match). ">
<polygon fill="white" stroke="black" points="187,-112.5 187,-131.5 264,-131.5 264,-112.5 187,-112.5"/>
<text text-anchor="middle" x="225.5" y="-119.5" font-family="Helvetica,sans-Serif" font-size="10.00">ARMarkerInfo</text>
</a>
</g>
</g>
<!-- Node5&#45;&gt;Node2 -->
<g id="edge4" class="edge"><title>Node5&#45;&gt;Node2</title>
<path fill="none" stroke="#9a32cd" stroke-dasharray="5,2" d="M274.499,-124.461C351.999,-128.436 502.489,-136.153 566.739,-139.448"/>
<polygon fill="#9a32cd" stroke="#9a32cd" points="274.231,-120.943 264.064,-123.926 273.872,-127.934 274.231,-120.943"/>
<text text-anchor="middle" x="405" y="-136" font-family="Helvetica,sans-Serif" font-size="10.00"> markerInfo</text>
</g>
<!-- Node10 -->
<g id="node10" class="node"><title>Node10</title>
<g id="a_node10"><a xlink:href="struct_a_r_tracking_history.html" target="_top" xlink:title="(description) ">
<polygon fill="white" stroke="black" points="355,-66.5 355,-85.5 455,-85.5 455,-66.5 355,-66.5"/>
<text text-anchor="middle" x="405" y="-73.5" font-family="Helvetica,sans-Serif" font-size="10.00">ARTrackingHistory</text>
</a>
</g>
</g>
<!-- Node5&#45;&gt;Node10 -->
<g id="edge11" class="edge"><title>Node5&#45;&gt;Node10</title>
<path fill="none" stroke="#9a32cd" stroke-dasharray="5,2" d="M253.635,-108.127C262.495,-104.048 272.501,-99.9057 282,-97 305.532,-89.8019 332.42,-84.8418 354.954,-81.5576"/>
<polygon fill="#9a32cd" stroke="#9a32cd" points="252.063,-104.999 244.549,-112.467 255.081,-111.315 252.063,-104.999"/>
<text text-anchor="middle" x="309.5" y="-100" font-family="Helvetica,sans-Serif" font-size="10.00"> marker</text>
</g>
<!-- Node6 -->
<g id="node6" class="node"><title>Node6</title>
<g id="a_node6"><a xlink:href="struct_a_r_marker_info2.html" target="_top" xlink:title="Captures detail of a trapezoidal region which is a candidate for marker detection. ">
<polygon fill="white" stroke="black" points="0,-135.5 0,-154.5 83,-154.5 83,-135.5 0,-135.5"/>
<text text-anchor="middle" x="41.5" y="-142.5" font-family="Helvetica,sans-Serif" font-size="10.00">ARMarkerInfo2</text>
</a>
</g>
</g>
<!-- Node6&#45;&gt;Node2 -->
<g id="edge9" class="edge"><title>Node6&#45;&gt;Node2</title>
<path fill="none" stroke="#9a32cd" stroke-dasharray="5,2" d="M93.2502,-146.841C95.8709,-146.903 98.4662,-146.957 101,-147 300.082,-150.402 350.274,-159.372 549,-147 554.784,-146.64 560.936,-146.038 566.839,-145.351"/>
<polygon fill="#9a32cd" stroke="#9a32cd" points="93.1826,-143.338 83.092,-146.567 92.9941,-150.335 93.1826,-143.338"/>
<text text-anchor="middle" x="309.5" y="-156" font-family="Helvetica,sans-Serif" font-size="10.00"> markerInfo2</text>
</g>
<!-- Node6&#45;&gt;Node5 -->
<g id="edge5" class="edge"><title>Node6&#45;&gt;Node5</title>
<path fill="none" stroke="#9a32cd" stroke-dasharray="5,2" d="M93.2352,-137.069C95.8598,-136.698 98.46,-136.339 101,-136 129.767,-132.158 162.397,-128.489 186.889,-125.871"/>
<polygon fill="#9a32cd" stroke="#9a32cd" points="92.4597,-133.644 83.0666,-138.545 93.4658,-140.572 92.4597,-133.644"/>
<text text-anchor="middle" x="135" y="-139" font-family="Helvetica,sans-Serif" font-size="10.00"> markerInfo2Ptr</text>
</g>
<!-- Node7 -->
<g id="node7" class="node"><title>Node7</title>
<g id="a_node7"><a xlink:href="struct_a_r_param_l_t.html" target="_top" xlink:title="Structure holding camera parameters, in lookup table form. ">
<polygon fill="white" stroke="black" points="369.5,-28.5 369.5,-47.5 440.5,-47.5 440.5,-28.5 369.5,-28.5"/>
<text text-anchor="middle" x="405" y="-35.5" font-family="Helvetica,sans-Serif" font-size="10.00">ARParamLT</text>
</a>
</g>
</g>
<!-- Node7&#45;&gt;Node2 -->
<g id="edge6" class="edge"><title>Node7&#45;&gt;Node2</title>
<path fill="none" stroke="#9a32cd" stroke-dasharray="5,2" d="M450.952,-36.5982C481.051,-37.7545 520.269,-43.5078 549,-63 573.869,-79.8718 588.18,-114.346 593.968,-131.235"/>
<polygon fill="#9a32cd" stroke="#9a32cd" points="450.795,-33.0939 440.718,-36.366 450.636,-40.0921 450.795,-33.0939"/>
<text text-anchor="middle" x="511" y="-66" font-family="Helvetica,sans-Serif" font-size="10.00"> arParamLT</text>
</g>
<!-- Node8 -->
<g id="node8" class="node"><title>Node8</title>
<g id="a_node8"><a xlink:href="struct_a_r_param_l_tf.html" target="_top" xlink:title="Structure holding camera parameters, in lookup table form; floating point version. ">
<polygon fill="white" stroke="black" points="188.5,-52.5 188.5,-71.5 262.5,-71.5 262.5,-52.5 188.5,-52.5"/>
<text text-anchor="middle" x="225.5" y="-59.5" font-family="Helvetica,sans-Serif" font-size="10.00">ARParamLTf</text>
</a>
</g>
</g>
<!-- Node8&#45;&gt;Node7 -->
<g id="edge7" class="edge"><title>Node8&#45;&gt;Node7</title>
<path fill="none" stroke="#9a32cd" stroke-dasharray="5,2" d="M273.116,-55.697C303.228,-51.6255 341.767,-46.4146 369.21,-42.7039"/>
<polygon fill="#9a32cd" stroke="#9a32cd" points="272.289,-52.2769 262.848,-57.0853 273.227,-59.2138 272.289,-52.2769"/>
<text text-anchor="middle" x="309.5" y="-58" font-family="Helvetica,sans-Serif" font-size="10.00"> paramLTf</text>
</g>
<!-- Node9 -->
<g id="node9" class="node"><title>Node9</title>
<g id="a_node9"><a xlink:href="struct_a_r_param.html" target="_top" xlink:title="Structure holding camera parameters, including image size, projection matrix and lens distortion para...">
<polygon fill="white" stroke="black" points="196,-0.5 196,-19.5 255,-19.5 255,-0.5 196,-0.5"/>
<text text-anchor="middle" x="225.5" y="-7.5" font-family="Helvetica,sans-Serif" font-size="10.00">ARParam</text>
</a>
</g>
</g>
<!-- Node9&#45;&gt;Node1 -->
<g id="edge13" class="edge"><title>Node9&#45;&gt;Node1</title>
<path fill="none" stroke="#9a32cd" stroke-dasharray="5,2" d="M265.009,-11.3549C310.433,-12.9905 388.222,-15.909 455,-19 540.484,-22.9568 638.401,-29.1432 704.833,-33.5879"/>
<polygon fill="#9a32cd" stroke="#9a32cd" points="265.123,-7.85677 255.004,-10.9965 264.872,-14.8523 265.123,-7.85677"/>
<text text-anchor="middle" x="511" y="-27" font-family="Helvetica,sans-Serif" font-size="10.00"> arParam</text>
</g>
<!-- Node9&#45;&gt;Node7 -->
<g id="edge8" class="edge"><title>Node9&#45;&gt;Node7</title>
<path fill="none" stroke="#9a32cd" stroke-dasharray="5,2" d="M265.057,-16.0822C296.152,-20.9873 339.493,-27.8243 369.464,-32.552"/>
<polygon fill="#9a32cd" stroke="#9a32cd" points="265.442,-12.5997 255.018,-14.4987 264.351,-19.5142 265.442,-12.5997"/>
<text text-anchor="middle" x="309.5" y="-31" font-family="Helvetica,sans-Serif" font-size="10.00"> param</text>
</g>
<!-- Node10&#45;&gt;Node2 -->
<g id="edge10" class="edge"><title>Node10&#45;&gt;Node2</title>
<path fill="none" stroke="#9a32cd" stroke-dasharray="5,2" d="M465.067,-76.8531C491.772,-79.1701 523.079,-84.6738 549,-97 565.947,-105.059 581.099,-121.167 589.657,-131.497"/>
<polygon fill="#9a32cd" stroke="#9a32cd" points="465.31,-73.3616 455.079,-76.1135 464.793,-80.3425 465.31,-73.3616"/>
<text text-anchor="middle" x="511" y="-100" font-family="Helvetica,sans-Serif" font-size="10.00"> history</text>
</g>
<!-- Node11 -->
<g id="node11" class="node"><title>Node11</title>
<g id="a_node11"><a xlink:href="struct_a_r_label_info.html" target="_top" xlink:title="(description) ">
<polygon fill="white" stroke="black" points="369.5,-265.5 369.5,-284.5 440.5,-284.5 440.5,-265.5 369.5,-265.5"/>
<text text-anchor="middle" x="405" y="-272.5" font-family="Helvetica,sans-Serif" font-size="10.00">ARLabelInfo</text>
</a>
</g>
</g>
<!-- Node11&#45;&gt;Node2 -->
<g id="edge12" class="edge"><title>Node11&#45;&gt;Node2</title>
<path fill="none" stroke="#9a32cd" stroke-dasharray="5,2" d="M450.561,-276.88C481.233,-275.902 521.287,-269.86 549,-248 580.971,-222.782 592.284,-171.659 595.704,-150.5"/>
<polygon fill="#9a32cd" stroke="#9a32cd" points="450.496,-273.38 440.551,-277.033 450.603,-280.38 450.496,-273.38"/>
<text text-anchor="middle" x="511" y="-277" font-family="Helvetica,sans-Serif" font-size="10.00"> labelInfo</text>
</g>
</g>
</svg>
        <g id="navigator" transform="translate(0 0)" fill="#404254">
                <rect fill="#f2f5e9" fill-opacity="0.5" stroke="#606060" stroke-width=".5" x="0" y="0" width="60" height="60"/>
                <use id="zoomplus" xlink:href="#zoomPlus" x="17" y="9" onmousedown="handleZoom(evt,'in')"/>
                <use id="zoomminus" xlink:href="#zoomMin" x="42" y="9" onmousedown="handleZoom(evt,'out')"/>
                <use id="reset" xlink:href="#resetDef" x="30" y="36" onmousedown="handleReset()"/>
                <g id="arrowUp" xlink:href="#dirArrow" transform="translate(30 24)" onmousedown="handlePan(0,-1)">
                  <use xlink:href="#rim" fill="#404040">
                        <set attributeName="fill" to="#808080" begin="arrowUp.mouseover" end="arrowUp.mouseout"/>
                  </use>
                  <path fill="none" stroke="white" stroke-width="1.5" d="M0,-3.0v7 M-2.5,-0.5L0,-3.0L2.5,-0.5"/>
                </g>
                <g id="arrowRight" xlink:href="#dirArrow" transform="rotate(90) translate(36 -43)" onmousedown="handlePan(1,0)">
                  <use xlink:href="#rim" fill="#404040">
                        <set attributeName="fill" to="#808080" begin="arrowRight.mouseover" end="arrowRight.mouseout"/>
                  </use>
                  <path fill="none" stroke="white" stroke-width="1.5" d="M0,-3.0v7 M-2.5,-0.5L0,-3.0L2.5,-0.5"/>
                </g>
                <g id="arrowDown" xlink:href="#dirArrow" transform="rotate(180) translate(-30 -48)" onmousedown="handlePan(0,1)">
                  <use xlink:href="#rim" fill="#404040">
                        <set attributeName="fill" to="#808080" begin="arrowDown.mouseover" end="arrowDown.mouseout"/>
                  </use>
                  <path fill="none" stroke="white" stroke-width="1.5" d="M0,-3.0v7 M-2.5,-0.5L0,-3.0L2.5,-0.5"/>
                </g>
                <g id="arrowLeft" xlink:href="#dirArrow" transform="rotate(270) translate(-36 17)" onmousedown="handlePan(-1,0)">
                  <use xlink:href="#rim" fill="#404040">
                        <set attributeName="fill" to="#808080" begin="arrowLeft.mouseover" end="arrowLeft.mouseout"/>
                  </use>
                  <path fill="none" stroke="white" stroke-width="1.5" d="M0,-3.0v7 M-2.5,-0.5L0,-3.0L2.5,-0.5"/>
                </g>
        </g>
        <svg viewBox="0 0 15 15" width="100%" height="30px" preserveAspectRatio="xMaxYMin meet">
         <g id="arrow_out" transform="scale(0.3 0.3)">
          <a xlink:href="struct___a_r_g_l___c_o_n_t_e_x_t___s_e_t_t_i_n_g_s__coll__graph_org.svg" target="_base">
           <rect id="button" ry="5" rx="5" y="6" x="6" height="38" width="38"
                fill="#f2f5e9" fill-opacity="0.5" stroke="#606060" stroke-width="1.0"/>
           <path id="arrow"
             d="M 11.500037,31.436501 C 11.940474,20.09759 22.043105,11.32322 32.158766,21.979434 L 37.068811,17.246167 C 37.068811,17.246167 37.088388,32 37.088388,32 L 22.160133,31.978069 C 22.160133,31.978069 26.997745,27.140456 26.997745,27.140456 C 18.528582,18.264221 13.291696,25.230495 11.500037,31.436501 z"
             style="fill:#404040;"/>
          </a>
         </g>
        </svg>
</svg>
