<?xml version="1.0" encoding="UTF-8" standalone="no"?>
<!DOCTYPE svg PUBLIC "-//W3C//DTD SVG 1.1//EN"
 "http://www.w3.org/Graphics/SVG/1.1/DTD/svg11.dtd">
<!-- Generated by graphviz version 2.38.0 (20140413.2041)
 -->
<!-- Title: artvision_instanton::NCCMatcher::mutual_feature::best_match Pages: 1 -->
<svg width="189pt" height="50pt"
 viewBox="0.00 0.00 189.00 50.00" xmlns="http://www.w3.org/2000/svg" xmlns:xlink="http://www.w3.org/1999/xlink">
<g id="graph0" class="graph" transform="scale(1 1) rotate(0) translate(4 46)">
<title>artvision_instanton::NCCMatcher::mutual_feature::best_match</title>
<polygon fill="white" stroke="none" points="-4,4 -4,-46 185,-46 185,4 -4,4"/>
<!-- Node1 -->
<g id="node1" class="node"><title>Node1</title>
<polygon fill="#bfbfbf" stroke="black" points="-1.42109e-14,-0.5 -1.42109e-14,-41.5 116,-41.5 116,-0.5 -1.42109e-14,-0.5"/>
<text text-anchor="start" x="8" y="-29.5" font-family="Helvetica,sans-Serif" font-size="10.00">artvision_instanton</text>
<text text-anchor="start" x="8" y="-18.5" font-family="Helvetica,sans-Serif" font-size="10.00">::NCCMatcher::mutual</text>
<text text-anchor="middle" x="58" y="-7.5" font-family="Helvetica,sans-Serif" font-size="10.00">_feature::best_match</text>
</g>
<!-- Node2 -->
<g id="node2" class="node"><title>Node2</title>
<g id="a_node2"><a xlink:href="ioapi_8h.html#a787fa3cf048117ba7123753c1e74fcd6" target="_top" xlink:title="int">
<polygon fill="white" stroke="black" points="152,-11.5 152,-30.5 181,-30.5 181,-11.5 152,-11.5"/>
<text text-anchor="middle" x="166.5" y="-18.5" font-family="Helvetica,sans-Serif" font-size="10.00">int</text>
</a>
</g>
</g>
<!-- Node1&#45;&gt;Node2 -->
<g id="edge1" class="edge"><title>Node1&#45;&gt;Node2</title>
<path fill="none" stroke="midnightblue" d="M116.303,-21C125.168,-21 133.882,-21 141.456,-21"/>
<polygon fill="midnightblue" stroke="midnightblue" points="141.62,-24.5001 151.62,-21 141.62,-17.5001 141.62,-24.5001"/>
</g>
</g>
</svg>
