<?xml version="1.0" encoding="UTF-8" standalone="no"?>
<!DOCTYPE svg PUBLIC "-//W3C//DTD SVG 1.1//EN"
 "http://www.w3.org/Graphics/SVG/1.1/DTD/svg11.dtd">
<!-- Generated by graphviz version 2.38.0 (20140413.2041)
 -->
<!-- Title: linkedlist_data_s Pages: 1 -->
<svg width="198pt" height="117pt"
 viewBox="0.00 0.00 198.00 117.00" xmlns="http://www.w3.org/2000/svg" xmlns:xlink="http://www.w3.org/1999/xlink">
<g id="graph0" class="graph" transform="scale(1 1) rotate(0) translate(4 113)">
<title>linkedlist_data_s</title>
<polygon fill="white" stroke="none" points="-4,4 -4,-113 194,-113 194,4 -4,4"/>
<!-- Node1 -->
<g id="node1" class="node"><title>Node1</title>
<polygon fill="#bfbfbf" stroke="black" points="6.5,-0.5 6.5,-19.5 95.5,-19.5 95.5,-0.5 6.5,-0.5"/>
<text text-anchor="middle" x="51" y="-7.5" font-family="Helvetica,sans-Serif" font-size="10.00">linkedlist_data_s</text>
</g>
<!-- Node2 -->
<g id="node2" class="node"><title>Node2</title>
<g id="a_node2"><a xlink:href="structlinkedlist__datablock__internal__s.html" target="_top" xlink:title="linkedlist_datablock\l_internal_s">
<polygon fill="white" stroke="black" points="-7.10543e-15,-78.5 -7.10543e-15,-108.5 102,-108.5 102,-78.5 -7.10543e-15,-78.5"/>
<text text-anchor="start" x="8" y="-96.5" font-family="Helvetica,sans-Serif" font-size="10.00">linkedlist_datablock</text>
<text text-anchor="middle" x="51" y="-85.5" font-family="Helvetica,sans-Serif" font-size="10.00">_internal_s</text>
</a>
</g>
</g>
<!-- Node2&#45;&gt;Node1 -->
<g id="edge1" class="edge"><title>Node2&#45;&gt;Node1</title>
<path fill="none" stroke="#9a32cd" stroke-dasharray="5,2" d="M51,-68.2485C51,-51.781 51,-30.9886 51,-19.5391"/>
<polygon fill="#9a32cd" stroke="#9a32cd" points="47.5001,-68.3037 51,-78.3038 54.5001,-68.3038 47.5001,-68.3037"/>
<text text-anchor="middle" x="75" y="-52" font-family="Helvetica,sans-Serif" font-size="10.00"> last_block</text>
<text text-anchor="middle" x="75" y="-41" font-family="Helvetica,sans-Serif" font-size="10.00">first_block</text>
</g>
<!-- Node2&#45;&gt;Node2 -->
<g id="edge2" class="edge"><title>Node2&#45;&gt;Node2</title>
<path fill="none" stroke="#9a32cd" stroke-dasharray="5,2" d="M112.371,-99.7116C117.091,-98.3366 120,-96.2661 120,-93.5 120,-89.0742 112.553,-86.4291 102.155,-85.5647"/>
<polygon fill="#9a32cd" stroke="#9a32cd" points="111.433,-96.3203 102.155,-101.435 112.598,-103.223 111.433,-96.3203"/>
<text text-anchor="middle" x="155" y="-91" font-family="Helvetica,sans-Serif" font-size="10.00"> next_datablock</text>
</g>
</g>
</svg>
