<?xml version="1.0" encoding="UTF-8" standalone="no"?>
<!DOCTYPE svg PUBLIC "-//W3C//DTD SVG 1.1//EN"
 "http://www.w3.org/Graphics/SVG/1.1/DTD/svg11.dtd">
<!-- Generated by graphviz version 2.38.0 (20140413.2041)
 -->
<!-- Title: ICPCalibDataT Pages: 1 -->
<svg width="193pt" height="106pt"
 viewBox="0.00 0.00 192.50 106.00" xmlns="http://www.w3.org/2000/svg" xmlns:xlink="http://www.w3.org/1999/xlink">
<g id="graph0" class="graph" transform="scale(1 1) rotate(0) translate(4 102)">
<title>ICPCalibDataT</title>
<polygon fill="white" stroke="none" points="-4,4 -4,-102 188.5,-102 188.5,4 -4,4"/>
<!-- Node1 -->
<g id="node1" class="node"><title>Node1</title>
<polygon fill="#bfbfbf" stroke="black" points="46,-0.5 46,-19.5 129,-19.5 129,-0.5 46,-0.5"/>
<text text-anchor="middle" x="87.5" y="-7.5" font-family="Helvetica,sans-Serif" font-size="10.00">ICPCalibDataT</text>
</g>
<!-- Node2 -->
<g id="node2" class="node"><title>Node2</title>
<g id="a_node2"><a xlink:href="struct_i_c_p2_d_coord_t.html" target="_top" xlink:title="ICP2DCoordT">
<polygon fill="white" stroke="black" points="0,-78.5 0,-97.5 79,-97.5 79,-78.5 0,-78.5"/>
<text text-anchor="middle" x="39.5" y="-85.5" font-family="Helvetica,sans-Serif" font-size="10.00">ICP2DCoordT</text>
</a>
</g>
</g>
<!-- Node2&#45;&gt;Node1 -->
<g id="edge1" class="edge"><title>Node2&#45;&gt;Node1</title>
<path fill="none" stroke="#9a32cd" stroke-dasharray="5,2" d="M40.5846,-68.1333C41.8851,-58.4746 44.6564,-46.9074 50.5,-38 55.4727,-30.4202 63.3538,-24.237 70.5669,-19.7096"/>
<polygon fill="#9a32cd" stroke="#9a32cd" points="37.0782,-68.0405 39.6375,-78.3216 44.0482,-68.6885 37.0782,-68.0405"/>
<text text-anchor="middle" x="82.5" y="-52" font-family="Helvetica,sans-Serif" font-size="10.00"> screenCoordL</text>
<text text-anchor="middle" x="82.5" y="-41" font-family="Helvetica,sans-Serif" font-size="10.00">screenCoordR</text>
</g>
<!-- Node3 -->
<g id="node3" class="node"><title>Node3</title>
<g id="a_node3"><a xlink:href="struct_i_c_p3_d_coord_t.html" target="_top" xlink:title="ICP3DCoordT">
<polygon fill="white" stroke="black" points="97,-78.5 97,-97.5 176,-97.5 176,-78.5 97,-78.5"/>
<text text-anchor="middle" x="136.5" y="-85.5" font-family="Helvetica,sans-Serif" font-size="10.00">ICP3DCoordT</text>
</a>
</g>
</g>
<!-- Node3&#45;&gt;Node1 -->
<g id="edge2" class="edge"><title>Node3&#45;&gt;Node1</title>
<path fill="none" stroke="#9a32cd" stroke-dasharray="5,2" d="M130.163,-68.7987C126.377,-59.1941 121.031,-47.4712 114.5,-38 109.833,-31.2329 103.353,-24.6867 97.9106,-19.7351"/>
<polygon fill="#9a32cd" stroke="#9a32cd" points="126.884,-70.0223 133.641,-78.1824 133.447,-67.5893 126.884,-70.0223"/>
<text text-anchor="middle" x="155.5" y="-52" font-family="Helvetica,sans-Serif" font-size="10.00"> worldCoordL</text>
<text text-anchor="middle" x="155.5" y="-41" font-family="Helvetica,sans-Serif" font-size="10.00">worldCoordR</text>
</g>
</g>
</svg>
