<?xml version="1.0" encoding="UTF-8" standalone="no"?>
<!DOCTYPE svg PUBLIC "-//W3C//DTD SVG 1.1//EN"
 "http://www.w3.org/Graphics/SVG/1.1/DTD/svg11.dtd">
<!-- Generated by graphviz version 2.38.0 (20140413.2041)
 -->
<!-- Title: ARParamLT Pages: 1 -->
<svg width="160pt" height="95pt"
 viewBox="0.00 0.00 159.50 95.00" xmlns="http://www.w3.org/2000/svg" xmlns:xlink="http://www.w3.org/1999/xlink">
<g id="graph0" class="graph" transform="scale(1 1) rotate(0) translate(4 91)">
<title>ARParamLT</title>
<polygon fill="white" stroke="none" points="-4,4 -4,-91 155.5,-91 155.5,4 -4,4"/>
<!-- Node1 -->
<g id="node1" class="node"><title>Node1</title>
<polygon fill="#bfbfbf" stroke="black" points="43.5,-0.5 43.5,-19.5 114.5,-19.5 114.5,-0.5 43.5,-0.5"/>
<text text-anchor="middle" x="79" y="-7.5" font-family="Helvetica,sans-Serif" font-size="10.00">ARParamLT</text>
</g>
<!-- Node2 -->
<g id="node2" class="node"><title>Node2</title>
<g id="a_node2"><a xlink:href="struct_a_r_param_l_tf.html" target="_top" xlink:title="Structure holding camera parameters, in lookup table form; floating point version. ">
<polygon fill="white" stroke="black" points="0,-67.5 0,-86.5 74,-86.5 74,-67.5 0,-67.5"/>
<text text-anchor="middle" x="37" y="-74.5" font-family="Helvetica,sans-Serif" font-size="10.00">ARParamLTf</text>
</a>
</g>
</g>
<!-- Node2&#45;&gt;Node1 -->
<g id="edge1" class="edge"><title>Node2&#45;&gt;Node1</title>
<path fill="none" stroke="#9a32cd" stroke-dasharray="5,2" d="M44.2115,-58.1041C47.1722,-51.5574 50.8763,-44.2326 55,-38 59.2912,-31.5142 65.0561,-24.9768 69.8604,-19.9595"/>
<polygon fill="#9a32cd" stroke="#9a32cd" points="40.9156,-56.9106 40.2175,-67.4825 47.3559,-59.6534 40.9156,-56.9106"/>
<text text-anchor="middle" x="77.5" y="-41" font-family="Helvetica,sans-Serif" font-size="10.00"> paramLTf</text>
</g>
<!-- Node3 -->
<g id="node3" class="node"><title>Node3</title>
<g id="a_node3"><a xlink:href="struct_a_r_param.html" target="_top" xlink:title="Structure holding camera parameters, including image size, projection matrix and lens distortion para...">
<polygon fill="white" stroke="black" points="92.5,-67.5 92.5,-86.5 151.5,-86.5 151.5,-67.5 92.5,-67.5"/>
<text text-anchor="middle" x="122" y="-74.5" font-family="Helvetica,sans-Serif" font-size="10.00">ARParam</text>
</a>
</g>
</g>
<!-- Node3&#45;&gt;Node1 -->
<g id="edge2" class="edge"><title>Node3&#45;&gt;Node1</title>
<path fill="none" stroke="#9a32cd" stroke-dasharray="5,2" d="M112.57,-58.5714C108.846,-52.0024 104.407,-44.5412 100,-38 95.7526,-31.6963 90.5026,-24.9463 86.3144,-19.7722"/>
<polygon fill="#9a32cd" stroke="#9a32cd" points="109.523,-60.2935 117.43,-67.3462 115.647,-56.9024 109.523,-60.2935"/>
<text text-anchor="middle" x="122.5" y="-41" font-family="Helvetica,sans-Serif" font-size="10.00"> param</text>
</g>
</g>
</svg>
