<?xml version="1.0" encoding="UTF-8" standalone="no"?>
<!DOCTYPE svg PUBLIC "-//W3C//DTD SVG 1.1//EN"
 "http://www.w3.org/Graphics/SVG/1.1/DTD/svg11.dtd">
<!-- Generated by graphviz version 2.38.0 (20140413.2041)
 -->
<!-- Title: unz64_s Pages: 1 -->
<svg width="696pt" height="200pt"
 viewBox="0.00 0.00 696.00 200.00" xmlns="http://www.w3.org/2000/svg" xmlns:xlink="http://www.w3.org/1999/xlink">
<g id="graph0" class="graph" transform="scale(1 1) rotate(0) translate(4 196)">
<title>unz64_s</title>
<polygon fill="white" stroke="none" points="-4,4 -4,-196 692,-196 692,4 -4,4"/>
<!-- Node1 -->
<g id="node1" class="node"><title>Node1</title>
<polygon fill="#bfbfbf" stroke="black" points="635,-76.5 635,-95.5 688,-95.5 688,-76.5 635,-76.5"/>
<text text-anchor="middle" x="661.5" y="-83.5" font-family="Helvetica,sans-Serif" font-size="10.00">unz64_s</text>
</g>
<!-- Node2 -->
<g id="node2" class="node"><title>Node2</title>
<g id="a_node2"><a xlink:href="structfile__in__zip64__read__info__s.html" target="_top" xlink:title="file_in_zip64_read\l_info_s">
<polygon fill="white" stroke="black" points="394,-115 394,-145 489,-145 489,-115 394,-115"/>
<text text-anchor="start" x="402" y="-133" font-family="Helvetica,sans-Serif" font-size="10.00">file_in_zip64_read</text>
<text text-anchor="middle" x="441.5" y="-122" font-family="Helvetica,sans-Serif" font-size="10.00">_info_s</text>
</a>
</g>
</g>
<!-- Node2&#45;&gt;Node1 -->
<g id="edge1" class="edge"><title>Node2&#45;&gt;Node1</title>
<path fill="none" stroke="#9a32cd" stroke-dasharray="5,2" d="M499.544,-122.978C533.875,-118.145 578.287,-110.818 617,-101 622.885,-99.5075 629.11,-97.5792 634.953,-95.6053"/>
<polygon fill="#9a32cd" stroke="#9a32cd" points="498.66,-119.566 489.231,-124.397 499.615,-126.501 498.66,-119.566"/>
<text text-anchor="middle" x="570.5" y="-122" font-family="Helvetica,sans-Serif" font-size="10.00"> pfile_in_zip_read</text>
</g>
<!-- Node3 -->
<g id="node3" class="node"><title>Node3</title>
<g id="a_node3"><a xlink:href="structzlib__filefunc64__32__def__s.html" target="_top" xlink:title="zlib_filefunc64_32\l_def_s">
<polygon fill="white" stroke="black" points="200,-154 200,-184 295,-184 295,-154 200,-154"/>
<text text-anchor="start" x="208" y="-172" font-family="Helvetica,sans-Serif" font-size="10.00">zlib_filefunc64_32</text>
<text text-anchor="middle" x="247.5" y="-161" font-family="Helvetica,sans-Serif" font-size="10.00">_def_s</text>
</a>
</g>
</g>
<!-- Node3&#45;&gt;Node1 -->
<g id="edge6" class="edge"><title>Node3&#45;&gt;Node1</title>
<path fill="none" stroke="#9a32cd" stroke-dasharray="5,2" d="M305.406,-177.117C381.572,-185.112 518.48,-189.206 617,-134 633.482,-124.764 647.066,-106.978 654.456,-95.8421"/>
<polygon fill="#9a32cd" stroke="#9a32cd" points="305.397,-173.594 295.072,-175.969 304.624,-180.552 305.397,-173.594"/>
<text text-anchor="middle" x="441.5" y="-184" font-family="Helvetica,sans-Serif" font-size="10.00"> z_filefunc</text>
</g>
<!-- Node3&#45;&gt;Node2 -->
<g id="edge2" class="edge"><title>Node3&#45;&gt;Node2</title>
<path fill="none" stroke="#9a32cd" stroke-dasharray="5,2" d="M305.555,-157.411C333.654,-151.703 367.113,-144.907 393.684,-139.509"/>
<polygon fill="#9a32cd" stroke="#9a32cd" points="304.572,-154.039 295.468,-159.46 305.965,-160.899 304.572,-154.039"/>
<text text-anchor="middle" x="336" y="-158" font-family="Helvetica,sans-Serif" font-size="10.00"> z_filefunc</text>
</g>
<!-- Node4 -->
<g id="node4" class="node"><title>Node4</title>
<g id="a_node4"><a xlink:href="structzlib__filefunc64__def__s.html" target="_top" xlink:title="zlib_filefunc64_def_s">
<polygon fill="white" stroke="black" points="0,-159.5 0,-178.5 108,-178.5 108,-159.5 0,-159.5"/>
<text text-anchor="middle" x="54" y="-166.5" font-family="Helvetica,sans-Serif" font-size="10.00">zlib_filefunc64_def_s</text>
</a>
</g>
</g>
<!-- Node4&#45;&gt;Node3 -->
<g id="edge3" class="edge"><title>Node4&#45;&gt;Node3</title>
<path fill="none" stroke="#9a32cd" stroke-dasharray="5,2" d="M118.098,-169C144.757,-169 175.252,-169 199.832,-169"/>
<polygon fill="#9a32cd" stroke="#9a32cd" points="118.089,-165.5 108.089,-169 118.089,-172.5 118.089,-165.5"/>
<text text-anchor="middle" x="154" y="-172" font-family="Helvetica,sans-Serif" font-size="10.00"> zfile_func64</text>
</g>
<!-- Node5 -->
<g id="node5" class="node"><title>Node5</title>
<g id="a_node5"><a xlink:href="structunz__file__info64__internal__s.html" target="_top" xlink:title="unz_file_info64_internal_s">
<polygon fill="white" stroke="black" points="377,-76.5 377,-95.5 506,-95.5 506,-76.5 377,-76.5"/>
<text text-anchor="middle" x="441.5" y="-83.5" font-family="Helvetica,sans-Serif" font-size="10.00">unz_file_info64_internal_s</text>
</a>
</g>
</g>
<!-- Node5&#45;&gt;Node1 -->
<g id="edge4" class="edge"><title>Node5&#45;&gt;Node1</title>
<path fill="none" stroke="#9a32cd" stroke-dasharray="5,2" d="M516.147,-86C557.281,-86 605.948,-86 634.964,-86"/>
<polygon fill="#9a32cd" stroke="#9a32cd" points="516.141,-82.5001 506.141,-86 516.141,-89.5001 516.141,-82.5001"/>
<text text-anchor="middle" x="570.5" y="-89" font-family="Helvetica,sans-Serif" font-size="10.00"> cur_file_info_internal</text>
</g>
<!-- Node6 -->
<g id="node6" class="node"><title>Node6</title>
<g id="a_node6"><a xlink:href="structunz__global__info64__s.html" target="_top" xlink:title="unz_global_info64_s">
<polygon fill="white" stroke="black" points="389,-38.5 389,-57.5 494,-57.5 494,-38.5 389,-38.5"/>
<text text-anchor="middle" x="441.5" y="-45.5" font-family="Helvetica,sans-Serif" font-size="10.00">unz_global_info64_s</text>
</a>
</g>
</g>
<!-- Node6&#45;&gt;Node1 -->
<g id="edge5" class="edge"><title>Node6&#45;&gt;Node1</title>
<path fill="none" stroke="#9a32cd" stroke-dasharray="5,2" d="M504.296,-53.0899C537.921,-56.6221 580.074,-62.2934 617,-71 623.065,-72.43 629.472,-74.3811 635.45,-76.403"/>
<polygon fill="#9a32cd" stroke="#9a32cd" points="504.452,-49.5878 494.15,-52.0613 503.746,-56.5521 504.452,-49.5878"/>
<text text-anchor="middle" x="570.5" y="-74" font-family="Helvetica,sans-Serif" font-size="10.00"> gi</text>
</g>
<!-- Node7 -->
<g id="node7" class="node"><title>Node7</title>
<g id="a_node7"><a xlink:href="structunz__file__info64__s.html" target="_top" xlink:title="unz_file_info64_s">
<polygon fill="white" stroke="black" points="395.5,-0.5 395.5,-19.5 487.5,-19.5 487.5,-0.5 395.5,-0.5"/>
<text text-anchor="middle" x="441.5" y="-7.5" font-family="Helvetica,sans-Serif" font-size="10.00">unz_file_info64_s</text>
</a>
</g>
</g>
<!-- Node7&#45;&gt;Node1 -->
<g id="edge7" class="edge"><title>Node7&#45;&gt;Node1</title>
<path fill="none" stroke="#9a32cd" stroke-dasharray="5,2" d="M497.898,-11.1405C533.7,-13.9132 580.288,-21.4616 617,-41 632.923,-49.4743 646.486,-65.8797 654.055,-76.3673"/>
<polygon fill="#9a32cd" stroke="#9a32cd" points="497.843,-7.629 487.631,-10.452 497.374,-14.6133 497.843,-7.629"/>
<text text-anchor="middle" x="570.5" y="-44" font-family="Helvetica,sans-Serif" font-size="10.00"> cur_file_info</text>
</g>
<!-- Node8 -->
<g id="node8" class="node"><title>Node8</title>
<g id="a_node8"><a xlink:href="structtm__unz__s.html" target="_top" xlink:title="tm_unz_s">
<polygon fill="white" stroke="black" points="218,-0.5 218,-19.5 277,-19.5 277,-0.5 218,-0.5"/>
<text text-anchor="middle" x="247.5" y="-7.5" font-family="Helvetica,sans-Serif" font-size="10.00">tm_unz_s</text>
</a>
</g>
</g>
<!-- Node8&#45;&gt;Node7 -->
<g id="edge8" class="edge"><title>Node8&#45;&gt;Node7</title>
<path fill="none" stroke="#9a32cd" stroke-dasharray="5,2" d="M287.332,-10C318.622,-10 362.657,-10 395.485,-10"/>
<polygon fill="#9a32cd" stroke="#9a32cd" points="287.244,-6.5001 277.244,-10 287.244,-13.5001 287.244,-6.5001"/>
<text text-anchor="middle" x="336" y="-13" font-family="Helvetica,sans-Serif" font-size="10.00"> tmu_date</text>
</g>
</g>
</svg>
