<?xml version="1.0" encoding="UTF-8" standalone="no"?>
<!DOCTYPE svg PUBLIC "-//W3C//DTD SVG 1.1//EN"
 "http://www.w3.org/Graphics/SVG/1.1/DTD/svg11.dtd">
<!-- Generated by graphviz version 2.38.0 (20140413.2041)
 -->
<!-- Title: /bitrise/src/Source/AR6/InstantOn/framework/thread.cpp Pages: 1 -->
<svg width="525pt" height="184pt"
 viewBox="0.00 0.00 524.50 184.00" xmlns="http://www.w3.org/2000/svg" xmlns:xlink="http://www.w3.org/1999/xlink">
<g id="graph0" class="graph" transform="scale(1 1) rotate(0) translate(4 180)">
<title>/bitrise/src/Source/AR6/InstantOn/framework/thread.cpp</title>
<polygon fill="white" stroke="none" points="-4,4 -4,-180 520.5,-180 520.5,4 -4,4"/>
<!-- Node1 -->
<g id="node1" class="node"><title>Node1</title>
<polygon fill="#bfbfbf" stroke="black" points="182.5,-134.5 182.5,-175.5 316.5,-175.5 316.5,-134.5 182.5,-134.5"/>
<text text-anchor="start" x="190.5" y="-163.5" font-family="Helvetica,sans-Serif" font-size="10.00">/bitrise/src/Source</text>
<text text-anchor="start" x="190.5" y="-152.5" font-family="Helvetica,sans-Serif" font-size="10.00">/AR6/InstantOn/framework</text>
<text text-anchor="middle" x="249.5" y="-141.5" font-family="Helvetica,sans-Serif" font-size="10.00">/thread.cpp</text>
</g>
<!-- Node2 -->
<g id="node2" class="node"><title>Node2</title>
<g id="a_node2"><a xlink:href="thread_8h.html" target="_top" xlink:title="AR6/InstantOn/framework\l/thread.h">
<polygon fill="white" stroke="black" points="0,-67.5 0,-97.5 131,-97.5 131,-67.5 0,-67.5"/>
<text text-anchor="start" x="8" y="-85.5" font-family="Helvetica,sans-Serif" font-size="10.00">AR6/InstantOn/framework</text>
<text text-anchor="middle" x="65.5" y="-74.5" font-family="Helvetica,sans-Serif" font-size="10.00">/thread.h</text>
</a>
</g>
</g>
<!-- Node1&#45;&gt;Node2 -->
<g id="edge1" class="edge"><title>Node1&#45;&gt;Node2</title>
<path fill="none" stroke="midnightblue" d="M198.246,-134.362C171.065,-123.948 137.939,-111.255 111.577,-101.155"/>
<polygon fill="midnightblue" stroke="midnightblue" points="112.785,-97.8693 102.195,-97.5597 110.28,-104.406 112.785,-97.8693"/>
</g>
<!-- Node5 -->
<g id="node5" class="node"><title>Node5</title>
<polygon fill="white" stroke="#bfbfbf" points="149,-73 149,-92 206,-92 206,-73 149,-73"/>
<text text-anchor="middle" x="177.5" y="-80" font-family="Helvetica,sans-Serif" font-size="10.00">pthread.h</text>
</g>
<!-- Node1&#45;&gt;Node5 -->
<g id="edge4" class="edge"><title>Node1&#45;&gt;Node5</title>
<path fill="none" stroke="midnightblue" d="M229.444,-134.362C218.17,-123.323 204.282,-109.725 193.704,-99.3665"/>
<polygon fill="midnightblue" stroke="midnightblue" points="195.952,-96.6689 186.358,-92.1734 191.054,-101.67 195.952,-96.6689"/>
</g>
<!-- Node6 -->
<g id="node6" class="node"><title>Node6</title>
<polygon fill="white" stroke="#bfbfbf" points="224,-73 224,-92 275,-92 275,-73 224,-73"/>
<text text-anchor="middle" x="249.5" y="-80" font-family="Helvetica,sans-Serif" font-size="10.00">typeinfo</text>
</g>
<!-- Node1&#45;&gt;Node6 -->
<g id="edge5" class="edge"><title>Node1&#45;&gt;Node6</title>
<path fill="none" stroke="midnightblue" d="M249.5,-134.362C249.5,-124.297 249.5,-112.104 249.5,-102.18"/>
<polygon fill="midnightblue" stroke="midnightblue" points="253,-102.173 249.5,-92.1734 246,-102.173 253,-102.173"/>
</g>
<!-- Node7 -->
<g id="node7" class="node"><title>Node7</title>
<polygon fill="white" stroke="#bfbfbf" points="293.5,-73 293.5,-92 349.5,-92 349.5,-73 293.5,-73"/>
<text text-anchor="middle" x="321.5" y="-80" font-family="Helvetica,sans-Serif" font-size="10.00">algorithm</text>
</g>
<!-- Node1&#45;&gt;Node7 -->
<g id="edge6" class="edge"><title>Node1&#45;&gt;Node7</title>
<path fill="none" stroke="midnightblue" d="M269.556,-134.362C280.83,-123.323 294.718,-109.725 305.296,-99.3665"/>
<polygon fill="midnightblue" stroke="midnightblue" points="307.946,-101.67 312.642,-92.1734 303.048,-96.6689 307.946,-101.67"/>
</g>
<!-- Node8 -->
<g id="node8" class="node"><title>Node8</title>
<g id="a_node8"><a xlink:href="math__utils_8h.html" target="_top" xlink:title="AR6/InstantOn/math\l/math_utils.h">
<polygon fill="white" stroke="black" points="367,-67.5 367,-97.5 474,-97.5 474,-67.5 367,-67.5"/>
<text text-anchor="start" x="375" y="-85.5" font-family="Helvetica,sans-Serif" font-size="10.00">AR6/InstantOn/math</text>
<text text-anchor="middle" x="420.5" y="-74.5" font-family="Helvetica,sans-Serif" font-size="10.00">/math_utils.h</text>
</a>
</g>
</g>
<!-- Node1&#45;&gt;Node8 -->
<g id="edge7" class="edge"><title>Node1&#45;&gt;Node8</title>
<path fill="none" stroke="midnightblue" d="M297.133,-134.362C322.172,-124.039 352.64,-111.477 377.032,-101.421"/>
<polygon fill="midnightblue" stroke="midnightblue" points="378.487,-104.607 386.398,-97.5597 375.819,-98.1355 378.487,-104.607"/>
</g>
<!-- Node3 -->
<g id="node3" class="node"><title>Node3</title>
<polygon fill="white" stroke="#bfbfbf" points="7.5,-6 7.5,-25 53.5,-25 53.5,-6 7.5,-6"/>
<text text-anchor="middle" x="30.5" y="-13" font-family="Helvetica,sans-Serif" font-size="10.00">atomic</text>
</g>
<!-- Node2&#45;&gt;Node3 -->
<g id="edge2" class="edge"><title>Node2&#45;&gt;Node3</title>
<path fill="none" stroke="midnightblue" d="M57.9055,-67.396C52.6644,-57.6624 45.6558,-44.6464 40.0382,-34.2139"/>
<polygon fill="midnightblue" stroke="midnightblue" points="43.0044,-32.3399 35.1817,-25.1945 36.8411,-35.6586 43.0044,-32.3399"/>
</g>
<!-- Node4 -->
<g id="node4" class="node"><title>Node4</title>
<polygon fill="white" stroke="#bfbfbf" points="72,-6 72,-25 131,-25 131,-6 72,-6"/>
<text text-anchor="middle" x="101.5" y="-13" font-family="Helvetica,sans-Serif" font-size="10.00">stdexcept</text>
</g>
<!-- Node2&#45;&gt;Node4 -->
<g id="edge3" class="edge"><title>Node2&#45;&gt;Node4</title>
<path fill="none" stroke="midnightblue" d="M73.3115,-67.396C78.7023,-57.6624 85.9112,-44.6464 91.6892,-34.2139"/>
<polygon fill="midnightblue" stroke="midnightblue" points="94.9013,-35.6382 96.6846,-25.1945 88.7777,-32.2467 94.9013,-35.6382"/>
</g>
<!-- Node9 -->
<g id="node9" class="node"><title>Node9</title>
<polygon fill="white" stroke="#bfbfbf" points="352.5,-6 352.5,-25 396.5,-25 396.5,-6 352.5,-6"/>
<text text-anchor="middle" x="374.5" y="-13" font-family="Helvetica,sans-Serif" font-size="10.00">cmath</text>
</g>
<!-- Node8&#45;&gt;Node9 -->
<g id="edge8" class="edge"><title>Node8&#45;&gt;Node9</title>
<path fill="none" stroke="midnightblue" d="M410.519,-67.396C403.488,-57.4617 394.038,-44.1083 386.582,-33.5719"/>
<polygon fill="midnightblue" stroke="midnightblue" points="389.287,-31.3354 380.653,-25.1945 383.573,-35.3791 389.287,-31.3354"/>
</g>
<!-- Node10 -->
<g id="node10" class="node"><title>Node10</title>
<polygon fill="white" stroke="#bfbfbf" points="414.5,-0.5 414.5,-30.5 516.5,-30.5 516.5,-0.5 414.5,-0.5"/>
<text text-anchor="start" x="422.5" y="-18.5" font-family="Helvetica,sans-Serif" font-size="10.00">artvision/framework</text>
<text text-anchor="middle" x="465.5" y="-7.5" font-family="Helvetica,sans-Serif" font-size="10.00">/error.h</text>
</g>
<!-- Node8&#45;&gt;Node10 -->
<g id="edge9" class="edge"><title>Node8&#45;&gt;Node10</title>
<path fill="none" stroke="midnightblue" d="M430.264,-67.396C436.043,-59.0486 443.494,-48.2871 450.054,-38.8113"/>
<polygon fill="midnightblue" stroke="midnightblue" points="452.94,-40.7907 455.755,-30.5765 447.185,-36.8062 452.94,-40.7907"/>
</g>
</g>
</svg>
