<?xml version="1.0" encoding="UTF-8" standalone="no"?>
<!DOCTYPE svg PUBLIC "-//W3C//DTD SVG 1.1//EN"
 "http://www.w3.org/Graphics/SVG/1.1/DTD/svg11.dtd">
<!-- Generated by graphviz version 2.38.0 (20140413.2041)
 -->
<!-- Title: /bitrise/src/Source/AR6/InstantOn/include/AR6/InstantOn/framework/timers.h Pages: 1 -->
<svg width="870pt" height="406pt"
 viewBox="0.00 0.00 869.50 406.00" xmlns="http://www.w3.org/2000/svg" xmlns:xlink="http://www.w3.org/1999/xlink">
<g id="graph0" class="graph" transform="scale(1 1) rotate(0) translate(4 402)">
<title>/bitrise/src/Source/AR6/InstantOn/include/AR6/InstantOn/framework/timers.h</title>
<polygon fill="white" stroke="none" points="-4,4 -4,-402 865.5,-402 865.5,4 -4,4"/>
<!-- Node1 -->
<g id="node1" class="node"><title>Node1</title>
<polygon fill="#bfbfbf" stroke="black" points="237,-345.5 237,-397.5 371,-397.5 371,-345.5 237,-345.5"/>
<text text-anchor="start" x="245" y="-385.5" font-family="Helvetica,sans-Serif" font-size="10.00">/bitrise/src/Source</text>
<text text-anchor="start" x="245" y="-374.5" font-family="Helvetica,sans-Serif" font-size="10.00">/AR6/InstantOn/include</text>
<text text-anchor="start" x="245" y="-363.5" font-family="Helvetica,sans-Serif" font-size="10.00">/AR6/InstantOn/framework</text>
<text text-anchor="middle" x="304" y="-352.5" font-family="Helvetica,sans-Serif" font-size="10.00">/timers.h</text>
</g>
<!-- Node2 -->
<g id="node2" class="node"><title>Node2</title>
<g id="a_node2"><a xlink:href="harris_8cpp.html" target="_top" xlink:title="/bitrise/src/Source\l/AR6/InstantOn/cv/detectors\l/harris.cpp">
<polygon fill="white" stroke="black" points="0,-262 0,-303 142,-303 142,-262 0,-262"/>
<text text-anchor="start" x="8" y="-291" font-family="Helvetica,sans-Serif" font-size="10.00">/bitrise/src/Source</text>
<text text-anchor="start" x="8" y="-280" font-family="Helvetica,sans-Serif" font-size="10.00">/AR6/InstantOn/cv/detectors</text>
<text text-anchor="middle" x="71" y="-269" font-family="Helvetica,sans-Serif" font-size="10.00">/harris.cpp</text>
</a>
</g>
</g>
<!-- Node1&#45;&gt;Node2 -->
<g id="edge1" class="edge"><title>Node1&#45;&gt;Node2</title>
<path fill="none" stroke="midnightblue" d="M227.47,-341.925C193.442,-329.219 154.237,-314.58 123.583,-303.134"/>
<polygon fill="midnightblue" stroke="midnightblue" points="226.327,-345.234 236.919,-345.453 228.775,-338.676 226.327,-345.234"/>
</g>
<!-- Node3 -->
<g id="node3" class="node"><title>Node3</title>
<g id="a_node3"><a xlink:href="harris__ncc__tracker_8cpp.html" target="_top" xlink:title="/bitrise/src/Source\l/AR6/InstantOn/cv/trackers\l/harris_ncc_tracker.cpp">
<polygon fill="white" stroke="black" points="198.5,-84 198.5,-125 335.5,-125 335.5,-84 198.5,-84"/>
<text text-anchor="start" x="206.5" y="-113" font-family="Helvetica,sans-Serif" font-size="10.00">/bitrise/src/Source</text>
<text text-anchor="start" x="206.5" y="-102" font-family="Helvetica,sans-Serif" font-size="10.00">/AR6/InstantOn/cv/trackers</text>
<text text-anchor="middle" x="267" y="-91" font-family="Helvetica,sans-Serif" font-size="10.00">/harris_ncc_tracker.cpp</text>
</a>
</g>
</g>
<!-- Node1&#45;&gt;Node3 -->
<g id="edge2" class="edge"><title>Node1&#45;&gt;Node3</title>
<path fill="none" stroke="midnightblue" d="M251.954,-338.959C242.266,-330.514 233.48,-320.483 228,-309 198.1,-246.341 235.45,-162.496 255.644,-125.023"/>
<polygon fill="midnightblue" stroke="midnightblue" points="249.902,-341.801 259.87,-345.39 254.315,-336.368 249.902,-341.801"/>
</g>
<!-- Node4 -->
<g id="node4" class="node"><title>Node4</title>
<g id="a_node4"><a xlink:href="homography__tracker__filter_8cpp.html" target="_top" xlink:title="/bitrise/src/Source\l/AR6/InstantOn/extensions\l/homography_tracker_filter.cpp">
<polygon fill="white" stroke="black" points="141.5,-0.5 141.5,-41.5 292.5,-41.5 292.5,-0.5 141.5,-0.5"/>
<text text-anchor="start" x="149.5" y="-29.5" font-family="Helvetica,sans-Serif" font-size="10.00">/bitrise/src/Source</text>
<text text-anchor="start" x="149.5" y="-18.5" font-family="Helvetica,sans-Serif" font-size="10.00">/AR6/InstantOn/extensions</text>
<text text-anchor="middle" x="217" y="-7.5" font-family="Helvetica,sans-Serif" font-size="10.00">/homography_tracker_filter.cpp</text>
</a>
</g>
</g>
<!-- Node1&#45;&gt;Node4 -->
<g id="edge3" class="edge"><title>Node1&#45;&gt;Node4</title>
<path fill="none" stroke="midnightblue" d="M241.562,-339.533C230.066,-331.134 219.38,-320.977 212,-309 157.896,-221.2 167.028,-178.54 190,-78 192.909,-65.2683 199.1,-52.0614 204.821,-41.6728"/>
<polygon fill="midnightblue" stroke="midnightblue" points="239.812,-342.576 250.041,-345.338 243.767,-336.8 239.812,-342.576"/>
</g>
<!-- Node5 -->
<g id="node5" class="node"><title>Node5</title>
<g id="a_node5"><a xlink:href="pyramid__filter_8cpp.html" target="_top" xlink:title="/bitrise/src/Source\l/AR6/InstantOn/extensions\l/pyramid_filter.cpp">
<polygon fill="white" stroke="black" points="236.5,-262 236.5,-303 371.5,-303 371.5,-262 236.5,-262"/>
<text text-anchor="start" x="244.5" y="-291" font-family="Helvetica,sans-Serif" font-size="10.00">/bitrise/src/Source</text>
<text text-anchor="start" x="244.5" y="-280" font-family="Helvetica,sans-Serif" font-size="10.00">/AR6/InstantOn/extensions</text>
<text text-anchor="middle" x="304" y="-269" font-family="Helvetica,sans-Serif" font-size="10.00">/pyramid_filter.cpp</text>
</a>
</g>
</g>
<!-- Node1&#45;&gt;Node5 -->
<g id="edge4" class="edge"><title>Node1&#45;&gt;Node5</title>
<path fill="none" stroke="midnightblue" d="M304,-335.155C304,-324.21 304,-312.549 304,-303.082"/>
<polygon fill="midnightblue" stroke="midnightblue" points="300.5,-335.336 304,-345.336 307.5,-335.336 300.5,-335.336"/>
</g>
<!-- Node6 -->
<g id="node6" class="node"><title>Node6</title>
<g id="a_node6"><a xlink:href="timers_8cpp.html" target="_top" xlink:title="/bitrise/src/Source\l/AR6/InstantOn/framework\l/timers.cpp">
<polygon fill="white" stroke="black" points="390,-262 390,-303 524,-303 524,-262 390,-262"/>
<text text-anchor="start" x="398" y="-291" font-family="Helvetica,sans-Serif" font-size="10.00">/bitrise/src/Source</text>
<text text-anchor="start" x="398" y="-280" font-family="Helvetica,sans-Serif" font-size="10.00">/AR6/InstantOn/framework</text>
<text text-anchor="middle" x="457" y="-269" font-family="Helvetica,sans-Serif" font-size="10.00">/timers.cpp</text>
</a>
</g>
</g>
<!-- Node1&#45;&gt;Node6 -->
<g id="edge5" class="edge"><title>Node1&#45;&gt;Node6</title>
<path fill="none" stroke="midnightblue" d="M357.047,-340.336C378.755,-327.992 403.253,-314.062 422.563,-303.082"/>
<polygon fill="midnightblue" stroke="midnightblue" points="355.217,-337.35 348.254,-345.336 358.677,-343.435 355.217,-337.35"/>
</g>
<!-- Node7 -->
<g id="node7" class="node"><title>Node7</title>
<g id="a_node7"><a xlink:href="robust__homography_8h.html" target="_top" xlink:title="/bitrise/src/Source\l/AR6/InstantOn/include\l/AR6/InstantOn/cv/homography\l_estimation/robust_homography.h">
<polygon fill="white" stroke="black" points="542,-256.5 542,-308.5 706,-308.5 706,-256.5 542,-256.5"/>
<text text-anchor="start" x="550" y="-296.5" font-family="Helvetica,sans-Serif" font-size="10.00">/bitrise/src/Source</text>
<text text-anchor="start" x="550" y="-285.5" font-family="Helvetica,sans-Serif" font-size="10.00">/AR6/InstantOn/include</text>
<text text-anchor="start" x="550" y="-274.5" font-family="Helvetica,sans-Serif" font-size="10.00">/AR6/InstantOn/cv/homography</text>
<text text-anchor="middle" x="624" y="-263.5" font-family="Helvetica,sans-Serif" font-size="10.00">_estimation/robust_homography.h</text>
</a>
</g>
</g>
<!-- Node1&#45;&gt;Node7 -->
<g id="edge6" class="edge"><title>Node1&#45;&gt;Node7</title>
<path fill="none" stroke="midnightblue" d="M381.051,-350.03C425.502,-338.165 482.437,-322.873 533,-309 535.848,-308.219 538.745,-307.421 541.671,-306.613"/>
<polygon fill="midnightblue" stroke="midnightblue" points="379.948,-346.702 371.188,-352.661 381.752,-353.465 379.948,-346.702"/>
</g>
<!-- Node11 -->
<g id="node11" class="node"><title>Node11</title>
<g id="a_node11"><a xlink:href="homography__tracker_8h.html" target="_top" xlink:title="/bitrise/src/Source\l/AR6/InstantOn/include\l/AR6/InstantOn/cv/trackers\l/homography_tracker.h">
<polygon fill="white" stroke="black" points="724.5,-256.5 724.5,-308.5 861.5,-308.5 861.5,-256.5 724.5,-256.5"/>
<text text-anchor="start" x="732.5" y="-296.5" font-family="Helvetica,sans-Serif" font-size="10.00">/bitrise/src/Source</text>
<text text-anchor="start" x="732.5" y="-285.5" font-family="Helvetica,sans-Serif" font-size="10.00">/AR6/InstantOn/include</text>
<text text-anchor="start" x="732.5" y="-274.5" font-family="Helvetica,sans-Serif" font-size="10.00">/AR6/InstantOn/cv/trackers</text>
<text text-anchor="middle" x="793" y="-263.5" font-family="Helvetica,sans-Serif" font-size="10.00">/homography_tracker.h</text>
</a>
</g>
</g>
<!-- Node1&#45;&gt;Node11 -->
<g id="edge12" class="edge"><title>Node1&#45;&gt;Node11</title>
<path fill="none" stroke="midnightblue" d="M381.34,-362.838C464.505,-353.693 600.251,-336.14 715,-309 718.05,-308.279 721.152,-307.493 724.275,-306.659"/>
<polygon fill="midnightblue" stroke="midnightblue" points="380.777,-359.378 371.214,-363.938 381.533,-366.337 380.777,-359.378"/>
</g>
<!-- Node8 -->
<g id="node8" class="node"><title>Node8</title>
<g id="a_node8"><a xlink:href="harris__ncc__tracker_8h.html" target="_top" xlink:title="/bitrise/src/Source\l/AR6/InstantOn/include\l/AR6/InstantOn/cv/trackers\l/harris_ncc_tracker.h">
<polygon fill="white" stroke="black" points="355.5,-167.5 355.5,-219.5 492.5,-219.5 492.5,-167.5 355.5,-167.5"/>
<text text-anchor="start" x="363.5" y="-207.5" font-family="Helvetica,sans-Serif" font-size="10.00">/bitrise/src/Source</text>
<text text-anchor="start" x="363.5" y="-196.5" font-family="Helvetica,sans-Serif" font-size="10.00">/AR6/InstantOn/include</text>
<text text-anchor="start" x="363.5" y="-185.5" font-family="Helvetica,sans-Serif" font-size="10.00">/AR6/InstantOn/cv/trackers</text>
<text text-anchor="middle" x="424" y="-174.5" font-family="Helvetica,sans-Serif" font-size="10.00">/harris_ncc_tracker.h</text>
</a>
</g>
</g>
<!-- Node7&#45;&gt;Node8 -->
<g id="edge7" class="edge"><title>Node7&#45;&gt;Node8</title>
<path fill="none" stroke="midnightblue" d="M557.185,-252.436C532.669,-241.771 505.15,-229.8 481.52,-219.521"/>
<polygon fill="midnightblue" stroke="midnightblue" points="555.854,-255.673 566.42,-256.453 558.646,-249.254 555.854,-255.673"/>
</g>
<!-- Node8&#45;&gt;Node3 -->
<g id="edge8" class="edge"><title>Node8&#45;&gt;Node3</title>
<path fill="none" stroke="midnightblue" d="M369.566,-162.336C347.29,-149.992 322.152,-136.062 302.338,-125.082"/>
<polygon fill="midnightblue" stroke="midnightblue" points="368.146,-165.55 378.589,-167.336 371.539,-159.428 368.146,-165.55"/>
</g>
<!-- Node9 -->
<g id="node9" class="node"><title>Node9</title>
<g id="a_node9"><a xlink:href="homography__tracker__filter_8h.html" target="_top" xlink:title="/bitrise/src/Source\l/AR6/InstantOn/include\l/AR6/InstantOn/extensions\l/homography_tracker_filter.h">
<polygon fill="white" stroke="black" points="354,-78.5 354,-130.5 494,-130.5 494,-78.5 354,-78.5"/>
<text text-anchor="start" x="362" y="-118.5" font-family="Helvetica,sans-Serif" font-size="10.00">/bitrise/src/Source</text>
<text text-anchor="start" x="362" y="-107.5" font-family="Helvetica,sans-Serif" font-size="10.00">/AR6/InstantOn/include</text>
<text text-anchor="start" x="362" y="-96.5" font-family="Helvetica,sans-Serif" font-size="10.00">/AR6/InstantOn/extensions</text>
<text text-anchor="middle" x="424" y="-85.5" font-family="Helvetica,sans-Serif" font-size="10.00">/homography_tracker_filter.h</text>
</a>
</g>
</g>
<!-- Node8&#45;&gt;Node9 -->
<g id="edge9" class="edge"><title>Node8&#45;&gt;Node9</title>
<path fill="none" stroke="midnightblue" d="M424,-157.191C424,-148.282 424,-138.899 424,-130.607"/>
<polygon fill="midnightblue" stroke="midnightblue" points="420.5,-157.336 424,-167.336 427.5,-157.336 420.5,-157.336"/>
</g>
<!-- Node9&#45;&gt;Node4 -->
<g id="edge10" class="edge"><title>Node9&#45;&gt;Node4</title>
<path fill="none" stroke="midnightblue" d="M351.136,-74.8121C323.155,-63.7954 291.891,-51.4859 266.589,-41.5241"/>
<polygon fill="midnightblue" stroke="midnightblue" points="349.899,-78.0866 360.486,-78.4934 352.464,-71.5732 349.899,-78.0866"/>
</g>
<!-- Node10 -->
<g id="node10" class="node"><title>Node10</title>
<g id="a_node10"><a xlink:href="_vision4d-_instant_on_8cpp.html" target="_top" xlink:title="/bitrise/src/Source\l/AR6/InstantOn/extensions\l/Vision4d&#45;InstantOn.cpp">
<polygon fill="white" stroke="black" points="356.5,-0.5 356.5,-41.5 491.5,-41.5 491.5,-0.5 356.5,-0.5"/>
<text text-anchor="start" x="364.5" y="-29.5" font-family="Helvetica,sans-Serif" font-size="10.00">/bitrise/src/Source</text>
<text text-anchor="start" x="364.5" y="-18.5" font-family="Helvetica,sans-Serif" font-size="10.00">/AR6/InstantOn/extensions</text>
<text text-anchor="middle" x="424" y="-7.5" font-family="Helvetica,sans-Serif" font-size="10.00">/Vision4d&#45;InstantOn.cpp</text>
</a>
</g>
</g>
<!-- Node9&#45;&gt;Node10 -->
<g id="edge11" class="edge"><title>Node9&#45;&gt;Node10</title>
<path fill="none" stroke="midnightblue" d="M424,-68.1474C424,-59.0546 424,-49.5968 424,-41.6282"/>
<polygon fill="midnightblue" stroke="midnightblue" points="420.5,-68.1596 424,-78.1596 427.5,-68.1597 420.5,-68.1596"/>
</g>
</g>
</svg>
