<?xml version="1.0" encoding="UTF-8" standalone="no"?>
<!DOCTYPE svg PUBLIC "-//W3C//DTD SVG 1.1//EN"
 "http://www.w3.org/Graphics/SVG/1.1/DTD/svg11.dtd">
<!-- Generated by graphviz version 2.38.0 (20140413.2041)
 -->
<!-- Title: /bitrise/src/Source/AR6/InstantOn/framework/timers.cpp Pages: 1 -->
<svg width="502pt" height="173pt"
 viewBox="0.00 0.00 502.00 173.00" xmlns="http://www.w3.org/2000/svg" xmlns:xlink="http://www.w3.org/1999/xlink">
<g id="graph0" class="graph" transform="scale(1 1) rotate(0) translate(4 169)">
<title>/bitrise/src/Source/AR6/InstantOn/framework/timers.cpp</title>
<polygon fill="white" stroke="none" points="-4,4 -4,-169 498,-169 498,4 -4,4"/>
<!-- Node1 -->
<g id="node1" class="node"><title>Node1</title>
<polygon fill="#bfbfbf" stroke="black" points="133.5,-123.5 133.5,-164.5 267.5,-164.5 267.5,-123.5 133.5,-123.5"/>
<text text-anchor="start" x="141.5" y="-152.5" font-family="Helvetica,sans-Serif" font-size="10.00">/bitrise/src/Source</text>
<text text-anchor="start" x="141.5" y="-141.5" font-family="Helvetica,sans-Serif" font-size="10.00">/AR6/InstantOn/framework</text>
<text text-anchor="middle" x="200.5" y="-130.5" font-family="Helvetica,sans-Serif" font-size="10.00">/timers.cpp</text>
</g>
<!-- Node2 -->
<g id="node2" class="node"><title>Node2</title>
<g id="a_node2"><a xlink:href="timers_8h.html" target="_top" xlink:title="AR6/InstantOn/framework\l/timers.h">
<polygon fill="white" stroke="black" points="0,-56.5 0,-86.5 131,-86.5 131,-56.5 0,-56.5"/>
<text text-anchor="start" x="8" y="-74.5" font-family="Helvetica,sans-Serif" font-size="10.00">AR6/InstantOn/framework</text>
<text text-anchor="middle" x="65.5" y="-63.5" font-family="Helvetica,sans-Serif" font-size="10.00">/timers.h</text>
</a>
</g>
</g>
<!-- Node1&#45;&gt;Node2 -->
<g id="edge1" class="edge"><title>Node1&#45;&gt;Node2</title>
<path fill="none" stroke="midnightblue" d="M162.895,-123.362C143.72,-113.348 120.51,-101.228 101.559,-91.3309"/>
<polygon fill="midnightblue" stroke="midnightblue" points="103.118,-88.1967 92.6341,-86.67 99.878,-94.4015 103.118,-88.1967"/>
</g>
<!-- Node5 -->
<g id="node5" class="node"><title>Node5</title>
<polygon fill="white" stroke="#bfbfbf" points="149.5,-56.5 149.5,-86.5 251.5,-86.5 251.5,-56.5 149.5,-56.5"/>
<text text-anchor="start" x="157.5" y="-74.5" font-family="Helvetica,sans-Serif" font-size="10.00">artvision/framework</text>
<text text-anchor="middle" x="200.5" y="-63.5" font-family="Helvetica,sans-Serif" font-size="10.00">/error.h</text>
</g>
<!-- Node1&#45;&gt;Node5 -->
<g id="edge4" class="edge"><title>Node1&#45;&gt;Node5</title>
<path fill="none" stroke="midnightblue" d="M200.5,-123.362C200.5,-115.226 200.5,-105.7 200.5,-97.105"/>
<polygon fill="midnightblue" stroke="midnightblue" points="204,-96.8916 200.5,-86.8916 197,-96.8916 204,-96.8916"/>
</g>
<!-- Node6 -->
<g id="node6" class="node"><title>Node6</title>
<g id="a_node6"><a xlink:href="log_8h.html" target="_top" xlink:title="Logging utilities. ">
<polygon fill="white" stroke="black" points="269.5,-62 269.5,-81 361.5,-81 361.5,-62 269.5,-62"/>
<text text-anchor="middle" x="315.5" y="-69" font-family="Helvetica,sans-Serif" font-size="10.00">AR6/ARUtil/log.h</text>
</a>
</g>
</g>
<!-- Node1&#45;&gt;Node6 -->
<g id="edge5" class="edge"><title>Node1&#45;&gt;Node6</title>
<path fill="none" stroke="midnightblue" d="M232.534,-123.362C251.6,-111.674 275.347,-97.1158 292.543,-86.5734"/>
<polygon fill="midnightblue" stroke="midnightblue" points="294.656,-89.3838 301.352,-81.1734 290.997,-83.416 294.656,-89.3838"/>
</g>
<!-- Node3 -->
<g id="node3" class="node"><title>Node3</title>
<polygon fill="white" stroke="#bfbfbf" points="10,-0.5 10,-19.5 51,-19.5 51,-0.5 10,-0.5"/>
<text text-anchor="middle" x="30.5" y="-7.5" font-family="Helvetica,sans-Serif" font-size="10.00">string</text>
</g>
<!-- Node2&#45;&gt;Node3 -->
<g id="edge2" class="edge"><title>Node2&#45;&gt;Node3</title>
<path fill="none" stroke="midnightblue" d="M57.2055,-56.3993C52.2769,-48.0207 45.9864,-37.3269 40.7488,-28.4229"/>
<polygon fill="midnightblue" stroke="midnightblue" points="43.6798,-26.5025 35.5928,-19.6578 37.6463,-30.0517 43.6798,-26.5025"/>
</g>
<!-- Node4 -->
<g id="node4" class="node"><title>Node4</title>
<polygon fill="white" stroke="#bfbfbf" points="69.5,-0.5 69.5,-19.5 115.5,-19.5 115.5,-0.5 69.5,-0.5"/>
<text text-anchor="middle" x="92.5" y="-7.5" font-family="Helvetica,sans-Serif" font-size="10.00">chrono</text>
</g>
<!-- Node2&#45;&gt;Node4 -->
<g id="edge3" class="edge"><title>Node2&#45;&gt;Node4</title>
<path fill="none" stroke="midnightblue" d="M71.8986,-56.3993C75.6198,-48.1989 80.3473,-37.7809 84.3348,-28.9936"/>
<polygon fill="midnightblue" stroke="midnightblue" points="87.6261,-30.2104 88.5713,-19.6578 81.2517,-27.3178 87.6261,-30.2104"/>
</g>
<!-- Node7 -->
<g id="node7" class="node"><title>Node7</title>
<polygon fill="white" stroke="#bfbfbf" points="160.5,-0.5 160.5,-19.5 206.5,-19.5 206.5,-0.5 160.5,-0.5"/>
<text text-anchor="middle" x="183.5" y="-7.5" font-family="Helvetica,sans-Serif" font-size="10.00">stdio.h</text>
</g>
<!-- Node6&#45;&gt;Node7 -->
<g id="edge6" class="edge"><title>Node6&#45;&gt;Node7</title>
<path fill="none" stroke="midnightblue" d="M296.588,-61.9751C274.337,-51.9455 237.188,-35.2002 211.574,-23.6546"/>
<polygon fill="midnightblue" stroke="midnightblue" points="212.932,-20.4277 202.377,-19.5091 210.056,-26.8094 212.932,-20.4277"/>
</g>
<!-- Node8 -->
<g id="node8" class="node"><title>Node8</title>
<polygon fill="white" stroke="#bfbfbf" points="224.5,-0.5 224.5,-19.5 272.5,-19.5 272.5,-0.5 224.5,-0.5"/>
<text text-anchor="middle" x="248.5" y="-7.5" font-family="Helvetica,sans-Serif" font-size="10.00">stdlib.h</text>
</g>
<!-- Node6&#45;&gt;Node8 -->
<g id="edge7" class="edge"><title>Node6&#45;&gt;Node8</title>
<path fill="none" stroke="midnightblue" d="M305.901,-61.9751C295.452,-52.6966 278.532,-37.6706 265.764,-26.331"/>
<polygon fill="midnightblue" stroke="midnightblue" points="267.883,-23.5323 258.082,-19.5091 263.235,-28.7663 267.883,-23.5323"/>
</g>
<!-- Node9 -->
<g id="node9" class="node"><title>Node9</title>
<polygon fill="white" stroke="#bfbfbf" points="291,-0.5 291,-19.5 340,-19.5 340,-0.5 291,-0.5"/>
<text text-anchor="middle" x="315.5" y="-7.5" font-family="Helvetica,sans-Serif" font-size="10.00">string.h</text>
</g>
<!-- Node6&#45;&gt;Node9 -->
<g id="edge8" class="edge"><title>Node6&#45;&gt;Node9</title>
<path fill="none" stroke="midnightblue" d="M315.5,-61.9751C315.5,-53.5803 315.5,-40.4806 315.5,-29.6631"/>
<polygon fill="midnightblue" stroke="midnightblue" points="319,-29.5091 315.5,-19.5091 312,-29.5091 319,-29.5091"/>
</g>
<!-- Node10 -->
<g id="node10" class="node"><title>Node10</title>
<polygon fill="white" stroke="#bfbfbf" points="358.5,-0.5 358.5,-19.5 410.5,-19.5 410.5,-0.5 358.5,-0.5"/>
<text text-anchor="middle" x="384.5" y="-7.5" font-family="Helvetica,sans-Serif" font-size="10.00">stdarg.h</text>
</g>
<!-- Node6&#45;&gt;Node10 -->
<g id="edge9" class="edge"><title>Node6&#45;&gt;Node10</title>
<path fill="none" stroke="midnightblue" d="M325.386,-61.9751C336.146,-52.6966 353.571,-37.6706 366.721,-26.331"/>
<polygon fill="midnightblue" stroke="midnightblue" points="369.345,-28.6902 374.632,-19.5091 364.773,-23.389 369.345,-28.6902"/>
</g>
<!-- Node11 -->
<g id="node11" class="node"><title>Node11</title>
<polygon fill="white" stroke="#bfbfbf" points="429,-0.5 429,-19.5 494,-19.5 494,-0.5 429,-0.5"/>
<text text-anchor="middle" x="461.5" y="-7.5" font-family="Helvetica,sans-Serif" font-size="10.00">sys/errno.h</text>
</g>
<!-- Node6&#45;&gt;Node11 -->
<g id="edge10" class="edge"><title>Node6&#45;&gt;Node11</title>
<path fill="none" stroke="midnightblue" d="M336.418,-61.9751C361.246,-51.8571 402.843,-34.9046 431.194,-23.3507"/>
<polygon fill="midnightblue" stroke="midnightblue" points="432.681,-26.5243 440.621,-19.5091 430.039,-20.0419 432.681,-26.5243"/>
</g>
</g>
</svg>
