<?xml version="1.0" encoding="UTF-8" standalone="no"?>
<!DOCTYPE svg PUBLIC "-//W3C//DTD SVG 1.1//EN"
 "http://www.w3.org/Graphics/SVG/1.1/DTD/svg11.dtd">
<!-- Generated by graphviz version 2.38.0 (20140413.2041)
 -->
<!-- Title: /bitrise/src/Source/AR6/InstantOn/include/AR6/InstantOn/framework/timer_stats.h Pages: 1 -->
<svg width="173pt" height="173pt"
 viewBox="0.00 0.00 172.50 173.00" xmlns="http://www.w3.org/2000/svg" xmlns:xlink="http://www.w3.org/1999/xlink">
<g id="graph0" class="graph" transform="scale(1 1) rotate(0) translate(4 169)">
<title>/bitrise/src/Source/AR6/InstantOn/include/AR6/InstantOn/framework/timer_stats.h</title>
<polygon fill="white" stroke="none" points="-4,4 -4,-169 168.5,-169 168.5,4 -4,4"/>
<!-- Node1 -->
<g id="node1" class="node"><title>Node1</title>
<polygon fill="#bfbfbf" stroke="black" points="2.5,-112.5 2.5,-164.5 136.5,-164.5 136.5,-112.5 2.5,-112.5"/>
<text text-anchor="start" x="10.5" y="-152.5" font-family="Helvetica,sans-Serif" font-size="10.00">/bitrise/src/Source</text>
<text text-anchor="start" x="10.5" y="-141.5" font-family="Helvetica,sans-Serif" font-size="10.00">/AR6/InstantOn/include</text>
<text text-anchor="start" x="10.5" y="-130.5" font-family="Helvetica,sans-Serif" font-size="10.00">/AR6/InstantOn/framework</text>
<text text-anchor="middle" x="69.5" y="-119.5" font-family="Helvetica,sans-Serif" font-size="10.00">/timer_stats.h</text>
</g>
<!-- Node2 -->
<g id="node2" class="node"><title>Node2</title>
<g id="a_node2"><a xlink:href="time_8h.html" target="_top" xlink:title="time.h">
<polygon fill="white" stroke="black" points="2.5,-56.5 2.5,-75.5 46.5,-75.5 46.5,-56.5 2.5,-56.5"/>
<text text-anchor="middle" x="24.5" y="-63.5" font-family="Helvetica,sans-Serif" font-size="10.00">time.h</text>
</a>
</g>
</g>
<!-- Node1&#45;&gt;Node2 -->
<g id="edge1" class="edge"><title>Node1&#45;&gt;Node2</title>
<path fill="none" stroke="midnightblue" d="M53.508,-112.446C47.5611,-103.129 40.9505,-92.7725 35.5437,-84.3018"/>
<polygon fill="midnightblue" stroke="midnightblue" points="38.3809,-82.2416 30.0503,-75.6955 32.4805,-86.0079 38.3809,-82.2416"/>
</g>
<!-- Node4 -->
<g id="node4" class="node"><title>Node4</title>
<polygon fill="white" stroke="#bfbfbf" points="64.5,-56.5 64.5,-75.5 164.5,-75.5 164.5,-56.5 64.5,-56.5"/>
<text text-anchor="middle" x="114.5" y="-63.5" font-family="Helvetica,sans-Serif" font-size="10.00">framework/logger.h</text>
</g>
<!-- Node1&#45;&gt;Node4 -->
<g id="edge3" class="edge"><title>Node1&#45;&gt;Node4</title>
<path fill="none" stroke="midnightblue" d="M85.492,-112.446C91.4389,-103.129 98.0495,-92.7725 103.456,-84.3018"/>
<polygon fill="midnightblue" stroke="midnightblue" points="106.52,-86.0079 108.95,-75.6955 100.619,-82.2416 106.52,-86.0079"/>
</g>
<!-- Node3 -->
<g id="node3" class="node"><title>Node3</title>
<polygon fill="white" stroke="#bfbfbf" points="-3.55271e-15,-0.5 -3.55271e-15,-19.5 49,-19.5 49,-0.5 -3.55271e-15,-0.5"/>
<text text-anchor="middle" x="24.5" y="-7.5" font-family="Helvetica,sans-Serif" font-size="10.00">stdint.h</text>
</g>
<!-- Node2&#45;&gt;Node3 -->
<g id="edge2" class="edge"><title>Node2&#45;&gt;Node3</title>
<path fill="none" stroke="midnightblue" d="M24.5,-56.083C24.5,-49.0059 24.5,-38.8611 24.5,-29.9865"/>
<polygon fill="midnightblue" stroke="midnightblue" points="28.0001,-29.751 24.5,-19.7511 21.0001,-29.7511 28.0001,-29.751"/>
</g>
</g>
</svg>
