<?xml version="1.0" encoding="UTF-8" standalone="no"?>
<!DOCTYPE svg PUBLIC "-//W3C//DTD SVG 1.1//EN"
 "http://www.w3.org/Graphics/SVG/1.1/DTD/svg11.dtd">
<!-- Generated by graphviz version 2.38.0 (20140413.2041)
 -->
<!-- Title: /bitrise/src/Source/AR6/ARUtil/time.c Pages: 1 -->
<svg width="186pt" height="151pt"
 viewBox="0.00 0.00 186.00 151.00" xmlns="http://www.w3.org/2000/svg" xmlns:xlink="http://www.w3.org/1999/xlink">
<g id="graph0" class="graph" transform="scale(1 1) rotate(0) translate(4 147)">
<title>/bitrise/src/Source/AR6/ARUtil/time.c</title>
<polygon fill="white" stroke="none" points="-4,4 -4,-147 182,-147 182,4 -4,4"/>
<!-- Node1 -->
<g id="node1" class="node"><title>Node1</title>
<polygon fill="#bfbfbf" stroke="black" points="47.5,-112.5 47.5,-142.5 148.5,-142.5 148.5,-112.5 47.5,-112.5"/>
<text text-anchor="start" x="55.5" y="-130.5" font-family="Helvetica,sans-Serif" font-size="10.00">/bitrise/src/Source</text>
<text text-anchor="middle" x="98" y="-119.5" font-family="Helvetica,sans-Serif" font-size="10.00">/AR6/ARUtil/time.c</text>
</g>
<!-- Node2 -->
<g id="node2" class="node"><title>Node2</title>
<g id="a_node2"><a xlink:href="time_8h.html" target="_top" xlink:title="AR6/ARUtil/time.h">
<polygon fill="white" stroke="black" points="-7.10543e-15,-56.5 -7.10543e-15,-75.5 98,-75.5 98,-56.5 -7.10543e-15,-56.5"/>
<text text-anchor="middle" x="49" y="-63.5" font-family="Helvetica,sans-Serif" font-size="10.00">AR6/ARUtil/time.h</text>
</a>
</g>
</g>
<!-- Node1&#45;&gt;Node2 -->
<g id="edge1" class="edge"><title>Node1&#45;&gt;Node2</title>
<path fill="none" stroke="midnightblue" d="M86.3877,-112.399C79.2674,-103.753 70.1169,-92.642 62.6508,-83.576"/>
<polygon fill="midnightblue" stroke="midnightblue" points="65.1888,-81.1521 56.1299,-75.6578 59.7853,-85.6021 65.1888,-81.1521"/>
</g>
<!-- Node4 -->
<g id="node4" class="node"><title>Node4</title>
<polygon fill="white" stroke="#bfbfbf" points="116,-56.5 116,-75.5 178,-75.5 178,-56.5 116,-56.5"/>
<text text-anchor="middle" x="147" y="-63.5" font-family="Helvetica,sans-Serif" font-size="10.00">sys/time.h</text>
</g>
<!-- Node1&#45;&gt;Node4 -->
<g id="edge3" class="edge"><title>Node1&#45;&gt;Node4</title>
<path fill="none" stroke="midnightblue" d="M109.612,-112.399C116.733,-103.753 125.883,-92.642 133.349,-83.576"/>
<polygon fill="midnightblue" stroke="midnightblue" points="136.215,-85.6021 139.87,-75.6578 130.811,-81.1521 136.215,-85.6021"/>
</g>
<!-- Node3 -->
<g id="node3" class="node"><title>Node3</title>
<polygon fill="white" stroke="#bfbfbf" points="24.5,-0.5 24.5,-19.5 73.5,-19.5 73.5,-0.5 24.5,-0.5"/>
<text text-anchor="middle" x="49" y="-7.5" font-family="Helvetica,sans-Serif" font-size="10.00">stdint.h</text>
</g>
<!-- Node2&#45;&gt;Node3 -->
<g id="edge2" class="edge"><title>Node2&#45;&gt;Node3</title>
<path fill="none" stroke="midnightblue" d="M49,-56.083C49,-49.0059 49,-38.8611 49,-29.9865"/>
<polygon fill="midnightblue" stroke="midnightblue" points="52.5001,-29.751 49,-19.7511 45.5001,-29.7511 52.5001,-29.751"/>
</g>
</g>
</svg>
