<?xml version="1.0" encoding="UTF-8" standalone="no"?>
<!DOCTYPE svg PUBLIC "-//W3C//DTD SVG 1.1//EN"
 "http://www.w3.org/Graphics/SVG/1.1/DTD/svg11.dtd">
<!-- Generated by graphviz version 2.38.0 (20140413.2041)
 -->
<!-- Title: /bitrise/src/Source/AR6/InstantOn/include/AR6/InstantOn/cv/geometry/transforms3d.h Pages: 1 -->
<svg width="694pt" height="506pt"
 viewBox="0.00 0.00 693.50 506.00" xmlns="http://www.w3.org/2000/svg" xmlns:xlink="http://www.w3.org/1999/xlink">
<g id="graph0" class="graph" transform="scale(1 1) rotate(0) translate(4 502)">
<title>/bitrise/src/Source/AR6/InstantOn/include/AR6/InstantOn/cv/geometry/transforms3d.h</title>
<polygon fill="white" stroke="none" points="-4,4 -4,-502 689.5,-502 689.5,4 -4,4"/>
<!-- Node1 -->
<g id="node1" class="node"><title>Node1</title>
<polygon fill="#bfbfbf" stroke="black" points="378.5,-445.5 378.5,-497.5 520.5,-497.5 520.5,-445.5 378.5,-445.5"/>
<text text-anchor="start" x="386.5" y="-485.5" font-family="Helvetica,sans-Serif" font-size="10.00">/bitrise/src/Source</text>
<text text-anchor="start" x="386.5" y="-474.5" font-family="Helvetica,sans-Serif" font-size="10.00">/AR6/InstantOn/include</text>
<text text-anchor="start" x="386.5" y="-463.5" font-family="Helvetica,sans-Serif" font-size="10.00">/AR6/InstantOn/cv/geometry</text>
<text text-anchor="middle" x="449.5" y="-452.5" font-family="Helvetica,sans-Serif" font-size="10.00">/transforms3d.h</text>
</g>
<!-- Node2 -->
<g id="node2" class="node"><title>Node2</title>
<g id="a_node2"><a xlink:href="camera_8h.html" target="_top" xlink:title="/bitrise/src/Source\l/AR6/InstantOn/include\l/AR6/InstantOn/cv/geometry\l/camera.h">
<polygon fill="white" stroke="black" points="301.5,-356.5 301.5,-408.5 443.5,-408.5 443.5,-356.5 301.5,-356.5"/>
<text text-anchor="start" x="309.5" y="-396.5" font-family="Helvetica,sans-Serif" font-size="10.00">/bitrise/src/Source</text>
<text text-anchor="start" x="309.5" y="-385.5" font-family="Helvetica,sans-Serif" font-size="10.00">/AR6/InstantOn/include</text>
<text text-anchor="start" x="309.5" y="-374.5" font-family="Helvetica,sans-Serif" font-size="10.00">/AR6/InstantOn/cv/geometry</text>
<text text-anchor="middle" x="372.5" y="-363.5" font-family="Helvetica,sans-Serif" font-size="10.00">/camera.h</text>
</a>
</g>
</g>
<!-- Node1&#45;&gt;Node2 -->
<g id="edge1" class="edge"><title>Node1&#45;&gt;Node2</title>
<path fill="none" stroke="midnightblue" d="M420.55,-437.79C411.999,-428.129 402.778,-417.71 394.722,-408.607"/>
<polygon fill="midnightblue" stroke="midnightblue" points="417.98,-440.167 427.228,-445.336 423.222,-435.528 417.98,-440.167"/>
</g>
<!-- Node6 -->
<g id="node6" class="node"><title>Node6</title>
<g id="a_node6"><a xlink:href="p3p_8h.html" target="_top" xlink:title="/bitrise/src/Source\l/AR6/InstantOn/include\l/AR6/InstantOn/cv/geometry/p3p.h">
<polygon fill="white" stroke="black" points="499,-273 499,-314 668,-314 668,-273 499,-273"/>
<text text-anchor="start" x="507" y="-302" font-family="Helvetica,sans-Serif" font-size="10.00">/bitrise/src/Source</text>
<text text-anchor="start" x="507" y="-291" font-family="Helvetica,sans-Serif" font-size="10.00">/AR6/InstantOn/include</text>
<text text-anchor="middle" x="583.5" y="-280" font-family="Helvetica,sans-Serif" font-size="10.00">/AR6/InstantOn/cv/geometry/p3p.h</text>
</a>
</g>
</g>
<!-- Node1&#45;&gt;Node6 -->
<g id="edge17" class="edge"><title>Node1&#45;&gt;Node6</title>
<path fill="none" stroke="midnightblue" d="M475.029,-436.969C502.673,-400.661 545.839,-343.965 568.482,-314.225"/>
<polygon fill="midnightblue" stroke="midnightblue" points="471.972,-435.207 468.699,-445.283 477.541,-439.447 471.972,-435.207"/>
</g>
<!-- Node3 -->
<g id="node3" class="node"><title>Node3</title>
<g id="a_node3"><a xlink:href="harris__ncc__tracker_8cpp.html" target="_top" xlink:title="/bitrise/src/Source\l/AR6/InstantOn/cv/trackers\l/harris_ncc_tracker.cpp">
<polygon fill="white" stroke="black" points="169,-184 169,-225 306,-225 306,-184 169,-184"/>
<text text-anchor="start" x="177" y="-213" font-family="Helvetica,sans-Serif" font-size="10.00">/bitrise/src/Source</text>
<text text-anchor="start" x="177" y="-202" font-family="Helvetica,sans-Serif" font-size="10.00">/AR6/InstantOn/cv/trackers</text>
<text text-anchor="middle" x="237.5" y="-191" font-family="Helvetica,sans-Serif" font-size="10.00">/harris_ncc_tracker.cpp</text>
</a>
</g>
</g>
<!-- Node2&#45;&gt;Node3 -->
<g id="edge2" class="edge"><title>Node2&#45;&gt;Node3</title>
<path fill="none" stroke="midnightblue" d="M324.106,-350.112C312.808,-341.292 301.47,-331.057 292.5,-320 268.741,-290.715 252.182,-249.465 243.806,-225.301"/>
<polygon fill="midnightblue" stroke="midnightblue" points="322.198,-353.056 332.292,-356.276 326.409,-347.464 322.198,-353.056"/>
</g>
<!-- Node4 -->
<g id="node4" class="node"><title>Node4</title>
<g id="a_node4"><a xlink:href="homography__tracker__filter_8cpp.html" target="_top" xlink:title="/bitrise/src/Source\l/AR6/InstantOn/extensions\l/homography_tracker_filter.cpp">
<polygon fill="white" stroke="black" points="0,-184 0,-225 151,-225 151,-184 0,-184"/>
<text text-anchor="start" x="8" y="-213" font-family="Helvetica,sans-Serif" font-size="10.00">/bitrise/src/Source</text>
<text text-anchor="start" x="8" y="-202" font-family="Helvetica,sans-Serif" font-size="10.00">/AR6/InstantOn/extensions</text>
<text text-anchor="middle" x="75.5" y="-191" font-family="Helvetica,sans-Serif" font-size="10.00">/homography_tracker_filter.cpp</text>
</a>
</g>
</g>
<!-- Node2&#45;&gt;Node4 -->
<g id="edge3" class="edge"><title>Node2&#45;&gt;Node4</title>
<path fill="none" stroke="midnightblue" d="M291.401,-373.594C219.248,-364.832 121.135,-348.093 94.5,-320 70.3769,-294.556 70.2686,-250.804 72.6743,-225.386"/>
<polygon fill="midnightblue" stroke="midnightblue" points="291.057,-377.077 301.4,-374.777 291.88,-370.126 291.057,-377.077"/>
</g>
<!-- Node5 -->
<g id="node5" class="node"><title>Node5</title>
<g id="a_node5"><a xlink:href="cv_2geometry_2homography_8h.html" target="_top" xlink:title="/bitrise/src/Source\l/AR6/InstantOn/include\l/AR6/InstantOn/cv/geometry\l/homography.h">
<polygon fill="white" stroke="black" points="103.5,-267.5 103.5,-319.5 245.5,-319.5 245.5,-267.5 103.5,-267.5"/>
<text text-anchor="start" x="111.5" y="-307.5" font-family="Helvetica,sans-Serif" font-size="10.00">/bitrise/src/Source</text>
<text text-anchor="start" x="111.5" y="-296.5" font-family="Helvetica,sans-Serif" font-size="10.00">/AR6/InstantOn/include</text>
<text text-anchor="start" x="111.5" y="-285.5" font-family="Helvetica,sans-Serif" font-size="10.00">/AR6/InstantOn/cv/geometry</text>
<text text-anchor="middle" x="174.5" y="-274.5" font-family="Helvetica,sans-Serif" font-size="10.00">/homography.h</text>
</a>
</g>
</g>
<!-- Node2&#45;&gt;Node5 -->
<g id="edge4" class="edge"><title>Node2&#45;&gt;Node5</title>
<path fill="none" stroke="midnightblue" d="M306.032,-352.295C281.842,-341.665 254.736,-329.755 231.445,-319.521"/>
<polygon fill="midnightblue" stroke="midnightblue" points="304.933,-355.634 315.496,-356.453 307.749,-349.226 304.933,-355.634"/>
</g>
<!-- Node2&#45;&gt;Node6 -->
<g id="edge7" class="edge"><title>Node2&#45;&gt;Node6</title>
<path fill="none" stroke="midnightblue" d="M442.595,-352.598C473.225,-339.969 508.36,-325.482 535.882,-314.134"/>
<polygon fill="midnightblue" stroke="midnightblue" points="441.158,-349.405 433.247,-356.453 443.826,-355.876 441.158,-349.405"/>
</g>
<!-- Node10 -->
<g id="node10" class="node"><title>Node10</title>
<g id="a_node10"><a xlink:href="pinhole__lens__model_8h.html" target="_top" xlink:title="/bitrise/src/Source\l/AR6/InstantOn/include\l/AR6/InstantOn/cv/geometry\l/pinhole_lens_model.h">
<polygon fill="white" stroke="black" points="301.5,-267.5 301.5,-319.5 443.5,-319.5 443.5,-267.5 301.5,-267.5"/>
<text text-anchor="start" x="309.5" y="-307.5" font-family="Helvetica,sans-Serif" font-size="10.00">/bitrise/src/Source</text>
<text text-anchor="start" x="309.5" y="-296.5" font-family="Helvetica,sans-Serif" font-size="10.00">/AR6/InstantOn/include</text>
<text text-anchor="start" x="309.5" y="-285.5" font-family="Helvetica,sans-Serif" font-size="10.00">/AR6/InstantOn/cv/geometry</text>
<text text-anchor="middle" x="372.5" y="-274.5" font-family="Helvetica,sans-Serif" font-size="10.00">/pinhole_lens_model.h</text>
</a>
</g>
</g>
<!-- Node2&#45;&gt;Node10 -->
<g id="edge14" class="edge"><title>Node2&#45;&gt;Node10</title>
<path fill="none" stroke="midnightblue" d="M372.5,-346.191C372.5,-337.282 372.5,-327.899 372.5,-319.607"/>
<polygon fill="midnightblue" stroke="midnightblue" points="369,-346.336 372.5,-356.336 376,-346.336 369,-346.336"/>
</g>
<!-- Node11 -->
<g id="node11" class="node"><title>Node11</title>
<g id="a_node11"><a xlink:href="radial__lens__model_8h.html" target="_top" xlink:title="/bitrise/src/Source\l/AR6/InstantOn/include\l/AR6/InstantOn/cv/geometry\l/radial_lens_model.h">
<polygon fill="white" stroke="black" points="324.5,-178.5 324.5,-230.5 466.5,-230.5 466.5,-178.5 324.5,-178.5"/>
<text text-anchor="start" x="332.5" y="-218.5" font-family="Helvetica,sans-Serif" font-size="10.00">/bitrise/src/Source</text>
<text text-anchor="start" x="332.5" y="-207.5" font-family="Helvetica,sans-Serif" font-size="10.00">/AR6/InstantOn/include</text>
<text text-anchor="start" x="332.5" y="-196.5" font-family="Helvetica,sans-Serif" font-size="10.00">/AR6/InstantOn/cv/geometry</text>
<text text-anchor="middle" x="395.5" y="-185.5" font-family="Helvetica,sans-Serif" font-size="10.00">/radial_lens_model.h</text>
</a>
</g>
</g>
<!-- Node2&#45;&gt;Node11 -->
<g id="edge16" class="edge"><title>Node2&#45;&gt;Node11</title>
<path fill="none" stroke="midnightblue" d="M427.876,-349.868C437.822,-341.507 446.819,-331.532 452.5,-320 462.909,-298.869 461.1,-288.93 452.5,-267 447.132,-253.312 437.127,-240.851 426.98,-230.781"/>
<polygon fill="midnightblue" stroke="midnightblue" points="425.464,-347.311 419.741,-356.228 429.775,-352.826 425.464,-347.311"/>
</g>
<!-- Node5&#45;&gt;Node3 -->
<g id="edge5" class="edge"><title>Node5&#45;&gt;Node3</title>
<path fill="none" stroke="midnightblue" d="M198.63,-259.178C206.97,-247.66 216.04,-235.135 223.32,-225.082"/>
<polygon fill="midnightblue" stroke="midnightblue" points="195.753,-257.184 192.722,-267.336 201.422,-261.289 195.753,-257.184"/>
</g>
<!-- Node5&#45;&gt;Node4 -->
<g id="edge6" class="edge"><title>Node5&#45;&gt;Node4</title>
<path fill="none" stroke="midnightblue" d="M138.103,-260.515C124.587,-248.637 109.667,-235.525 97.7831,-225.082"/>
<polygon fill="midnightblue" stroke="midnightblue" points="136.043,-263.364 145.865,-267.336 140.664,-258.106 136.043,-263.364"/>
</g>
<!-- Node7 -->
<g id="node7" class="node"><title>Node7</title>
<g id="a_node7"><a xlink:href="pnp__jacobians_8h.html" target="_top" xlink:title="/bitrise/src/Source\l/AR6/InstantOn/include\l/AR6/InstantOn/cv/pnp\l_estimation/pnp_jacobians.h">
<polygon fill="white" stroke="black" points="522.5,-178.5 522.5,-230.5 662.5,-230.5 662.5,-178.5 522.5,-178.5"/>
<text text-anchor="start" x="530.5" y="-218.5" font-family="Helvetica,sans-Serif" font-size="10.00">/bitrise/src/Source</text>
<text text-anchor="start" x="530.5" y="-207.5" font-family="Helvetica,sans-Serif" font-size="10.00">/AR6/InstantOn/include</text>
<text text-anchor="start" x="530.5" y="-196.5" font-family="Helvetica,sans-Serif" font-size="10.00">/AR6/InstantOn/cv/pnp</text>
<text text-anchor="middle" x="592.5" y="-185.5" font-family="Helvetica,sans-Serif" font-size="10.00">_estimation/pnp_jacobians.h</text>
</a>
</g>
</g>
<!-- Node6&#45;&gt;Node7 -->
<g id="edge8" class="edge"><title>Node6&#45;&gt;Node7</title>
<path fill="none" stroke="midnightblue" d="M586.603,-262.509C587.672,-252.174 588.858,-240.71 589.884,-230.788"/>
<polygon fill="midnightblue" stroke="midnightblue" points="583.09,-262.451 585.542,-272.758 590.053,-263.172 583.09,-262.451"/>
</g>
<!-- Node8 -->
<g id="node8" class="node"><title>Node8</title>
<g id="a_node8"><a xlink:href="pnp__solver_8h.html" target="_top" xlink:title="/bitrise/src/Source\l/AR6/InstantOn/include\l/AR6/InstantOn/cv/pnp\l_estimation/pnp_solver.h">
<polygon fill="white" stroke="black" points="469,-89.5 469,-141.5 594,-141.5 594,-89.5 469,-89.5"/>
<text text-anchor="start" x="477" y="-129.5" font-family="Helvetica,sans-Serif" font-size="10.00">/bitrise/src/Source</text>
<text text-anchor="start" x="477" y="-118.5" font-family="Helvetica,sans-Serif" font-size="10.00">/AR6/InstantOn/include</text>
<text text-anchor="start" x="477" y="-107.5" font-family="Helvetica,sans-Serif" font-size="10.00">/AR6/InstantOn/cv/pnp</text>
<text text-anchor="middle" x="531.5" y="-96.5" font-family="Helvetica,sans-Serif" font-size="10.00">_estimation/pnp_solver.h</text>
</a>
</g>
</g>
<!-- Node6&#45;&gt;Node8 -->
<g id="edge12" class="edge"><title>Node6&#45;&gt;Node8</title>
<path fill="none" stroke="midnightblue" d="M542.507,-266.506C530.932,-256.889 519.786,-244.89 513.5,-231 500.475,-202.218 510.196,-165.674 519.662,-141.714"/>
<polygon fill="midnightblue" stroke="midnightblue" points="540.499,-269.379 550.534,-272.777 544.809,-263.863 540.499,-269.379"/>
</g>
<!-- Node9 -->
<g id="node9" class="node"><title>Node9</title>
<g id="a_node9"><a xlink:href="robust__pnp_8h.html" target="_top" xlink:title="/bitrise/src/Source\l/AR6/InstantOn/include\l/AR6/InstantOn/cv/pnp\l_estimation/robust_pnp.h">
<polygon fill="white" stroke="black" points="559.5,-0.5 559.5,-52.5 685.5,-52.5 685.5,-0.5 559.5,-0.5"/>
<text text-anchor="start" x="567.5" y="-40.5" font-family="Helvetica,sans-Serif" font-size="10.00">/bitrise/src/Source</text>
<text text-anchor="start" x="567.5" y="-29.5" font-family="Helvetica,sans-Serif" font-size="10.00">/AR6/InstantOn/include</text>
<text text-anchor="start" x="567.5" y="-18.5" font-family="Helvetica,sans-Serif" font-size="10.00">/AR6/InstantOn/cv/pnp</text>
<text text-anchor="middle" x="622.5" y="-7.5" font-family="Helvetica,sans-Serif" font-size="10.00">_estimation/robust_pnp.h</text>
</a>
</g>
</g>
<!-- Node6&#45;&gt;Node9 -->
<g id="edge13" class="edge"><title>Node6&#45;&gt;Node9</title>
<path fill="none" stroke="midnightblue" d="M636.616,-267.306C650.492,-257.965 663.725,-245.92 671.5,-231 702.402,-171.704 663.569,-92.5176 639.281,-52.6656"/>
<polygon fill="midnightblue" stroke="midnightblue" points="634.532,-264.483 627.937,-272.775 638.264,-270.405 634.532,-264.483"/>
</g>
<!-- Node7&#45;&gt;Node8 -->
<g id="edge9" class="edge"><title>Node7&#45;&gt;Node8</title>
<path fill="none" stroke="midnightblue" d="M568.96,-169.927C562.358,-160.511 555.297,-150.439 549.104,-141.607"/>
<polygon fill="midnightblue" stroke="midnightblue" points="566.25,-172.157 574.856,-178.336 571.981,-168.139 566.25,-172.157"/>
</g>
<!-- Node7&#45;&gt;Node9 -->
<g id="edge11" class="edge"><title>Node7&#45;&gt;Node9</title>
<path fill="none" stroke="midnightblue" d="M598.509,-168.249C604.34,-134.038 613.045,-82.9693 618.21,-52.6697"/>
<polygon fill="midnightblue" stroke="midnightblue" points="595.028,-167.838 596.798,-178.283 601.929,-169.014 595.028,-167.838"/>
</g>
<!-- Node8&#45;&gt;Node9 -->
<g id="edge10" class="edge"><title>Node8&#45;&gt;Node9</title>
<path fill="none" stroke="midnightblue" d="M565.114,-82.3631C575.387,-72.542 586.529,-61.8899 596.238,-52.6075"/>
<polygon fill="midnightblue" stroke="midnightblue" points="562.63,-79.8957 557.821,-89.336 567.468,-84.9554 562.63,-79.8957"/>
</g>
<!-- Node10&#45;&gt;Node11 -->
<g id="edge15" class="edge"><title>Node10&#45;&gt;Node11</title>
<path fill="none" stroke="midnightblue" d="M381.758,-257.481C384.136,-248.487 386.647,-238.989 388.862,-230.607"/>
<polygon fill="midnightblue" stroke="midnightblue" points="378.325,-256.774 379.153,-267.336 385.092,-258.563 378.325,-256.774"/>
</g>
</g>
</svg>
