<?xml version="1.0" encoding="UTF-8" standalone="no"?>
<!DOCTYPE svg PUBLIC "-//W3C//DTD SVG 1.1//EN"
 "http://www.w3.org/Graphics/SVG/1.1/DTD/svg11.dtd">
<!-- Generated by graphviz version 2.38.0 (20140413.2041)
 -->
<!-- Title: /bitrise/src/Source/AR6/InstantOn/include/AR6/InstantOn/framework/transform_filter.h Pages: 1 -->
<!--zoomable 475 -->
<svg id="main" version="1.1" xmlns="http://www.w3.org/2000/svg" xmlns:xlink="http://www.w3.org/1999/xlink" xml:space="preserve" onload="init(evt)">
<style type="text/css"><![CDATA[
.edge:hover path { stroke: red; }
.edge:hover polygon { stroke: red; fill: red; }
]]></style>
<script type="text/javascript"><![CDATA[
var edges = document.getElementsByTagName('g');
if (edges && edges.length) {
  for (var i=0;i<edges.length;i++) {
    if (edges[i].id.substr(0,4)=='edge') {
      edges[i].setAttribute('class','edge');
    }
  }
}
]]></script>
        <defs>
                <circle id="rim" cx="0" cy="0" r="7"/>
                <circle id="rim2" cx="0" cy="0" r="3.5"/>
                <g id="zoomPlus">
                        <use xlink:href="#rim" fill="#404040">
                                <set attributeName="fill" to="#808080" begin="zoomplus.mouseover" end="zoomplus.mouseout"/>
                        </use>
                        <path d="M-4,0h8M0,-4v8" fill="none" stroke="white" stroke-width="1.5" pointer-events="none"/>
                </g>
                <g id="zoomMin">
                        <use xlink:href="#rim" fill="#404040">
                                <set attributeName="fill" to="#808080" begin="zoomminus.mouseover" end="zoomminus.mouseout"/>
                        </use>
                        <path d="M-4,0h8" fill="none" stroke="white" stroke-width="1.5" pointer-events="none"/>
                </g>
                <g id="dirArrow">
                        <path fill="none" stroke="white" stroke-width="1.5" d="M0,-3.0v7 M-2.5,-0.5L0,-3.0L2.5,-0.5"/>
                </g>
               <g id="resetDef">
                       <use xlink:href="#rim2" fill="#404040">
                               <set attributeName="fill" to="#808080" begin="reset.mouseover" end="reset.mouseout"/>
                       </use>
               </g>
        </defs>

<script type="text/javascript">
var viewWidth = 971;
var viewHeight = 475;
var sectionId = 'dynsection-0';
</script>
<script xlink:href="svgpan.js"/>
<svg id="graph" class="graph">
<g id="viewport">
<title>/bitrise/src/Source/AR6/InstantOn/include/AR6/InstantOn/framework/transform_filter.h</title>
<polygon fill="white" stroke="none" points="-4,4 -4,-471 966.5,-471 966.5,4 -4,4"/>
<!-- Node1 -->
<g id="node1" class="node"><title>Node1</title>
<polygon fill="#bfbfbf" stroke="black" points="467,-414.5 467,-466.5 601,-466.5 601,-414.5 467,-414.5"/>
<text text-anchor="start" x="475" y="-454.5" font-family="Helvetica,sans-Serif" font-size="10.00">/bitrise/src/Source</text>
<text text-anchor="start" x="475" y="-443.5" font-family="Helvetica,sans-Serif" font-size="10.00">/AR6/InstantOn/include</text>
<text text-anchor="start" x="475" y="-432.5" font-family="Helvetica,sans-Serif" font-size="10.00">/AR6/InstantOn/framework</text>
<text text-anchor="middle" x="534" y="-421.5" font-family="Helvetica,sans-Serif" font-size="10.00">/transform_filter.h</text>
</g>
<!-- Node2 -->
<g id="node2" class="node"><title>Node2</title>
<g id="a_node2"><a xlink:href="filter_8h.html" target="_top" xlink:title="filter.h">
<polygon fill="white" stroke="black" points="563,-358.5 563,-377.5 607,-377.5 607,-358.5 563,-358.5"/>
<text text-anchor="middle" x="585" y="-365.5" font-family="Helvetica,sans-Serif" font-size="10.00">filter.h</text>
</a>
</g>
</g>
<!-- Node1&#45;&gt;Node2 -->
<g id="edge1" class="edge"><title>Node1&#45;&gt;Node2</title>
<path fill="none" stroke="midnightblue" d="M552.124,-414.446C558.937,-405.029 566.517,-394.55 572.681,-386.029"/>
<polygon fill="midnightblue" stroke="midnightblue" points="575.684,-387.849 578.71,-377.695 570.013,-383.746 575.684,-387.849"/>
</g>
<!-- Node3 -->
<g id="node3" class="node"><title>Node3</title>
<g id="a_node3"><a xlink:href="container_8h.html" target="_top" xlink:title="container.h">
<polygon fill="white" stroke="black" points="371.5,-302.5 371.5,-321.5 436.5,-321.5 436.5,-302.5 371.5,-302.5"/>
<text text-anchor="middle" x="404" y="-309.5" font-family="Helvetica,sans-Serif" font-size="10.00">container.h</text>
</a>
</g>
</g>
<!-- Node1&#45;&gt;Node3 -->
<g id="edge53" class="edge"><title>Node1&#45;&gt;Node3</title>
<path fill="none" stroke="midnightblue" d="M508.005,-414.205C481.74,-388.647 441.992,-349.969 420.019,-328.588"/>
<polygon fill="midnightblue" stroke="midnightblue" points="422.394,-326.015 412.786,-321.55 417.512,-331.032 422.394,-326.015"/>
</g>
<!-- Node2&#45;&gt;Node3 -->
<g id="edge2" class="edge"><title>Node2&#45;&gt;Node3</title>
<path fill="none" stroke="midnightblue" d="M562.806,-360.379C532.864,-351.446 479.075,-335.398 442.476,-324.479"/>
<polygon fill="midnightblue" stroke="midnightblue" points="443.226,-321.05 432.643,-321.545 441.225,-327.758 443.226,-321.05"/>
</g>
<!-- Node12 -->
<g id="node12" class="node"><title>Node12</title>
<polygon fill="white" stroke="#bfbfbf" points="480,-6 480,-25 524,-25 524,-6 480,-6"/>
<text text-anchor="middle" x="502" y="-13" font-family="Helvetica,sans-Serif" font-size="10.00">vector</text>
</g>
<!-- Node2&#45;&gt;Node12 -->
<g id="edge49" class="edge"><title>Node2&#45;&gt;Node12</title>
<path fill="none" stroke="midnightblue" d="M581.359,-358.338C573.989,-339.996 558,-295.738 558,-257 558,-257 558,-257 558,-137.5 558,-105.049 553.05,-96.2519 539,-67 533.091,-54.6984 524.078,-42.3154 516.426,-32.8903"/>
<polygon fill="midnightblue" stroke="midnightblue" points="519.03,-30.5478 509.911,-25.1532 513.675,-35.0568 519.03,-30.5478"/>
</g>
<!-- Node16 -->
<g id="node16" class="node"><title>Node16</title>
<polygon fill="white" stroke="#bfbfbf" points="121,-6 121,-25 173,-25 173,-6 121,-6"/>
<text text-anchor="middle" x="147" y="-13" font-family="Helvetica,sans-Serif" font-size="10.00">memory</text>
</g>
<!-- Node2&#45;&gt;Node16 -->
<g id="edge51" class="edge"><title>Node2&#45;&gt;Node16</title>
<path fill="none" stroke="midnightblue" d="M579.842,-358.25C564.948,-333.234 521.566,-262.171 500,-246 398.573,-169.945 331.779,-229.584 230,-154 188.331,-123.055 163.377,-64.416 152.86,-34.7165"/>
<polygon fill="midnightblue" stroke="midnightblue" points="156.157,-33.5384 149.635,-25.1888 149.526,-35.7831 156.157,-33.5384"/>
</g>
<!-- Node22 -->
<g id="node22" class="node"><title>Node22</title>
<polygon fill="white" stroke="#bfbfbf" points="456.5,-246.5 456.5,-265.5 491.5,-265.5 491.5,-246.5 456.5,-246.5"/>
<text text-anchor="middle" x="474" y="-253.5" font-family="Helvetica,sans-Serif" font-size="10.00">map</text>
</g>
<!-- Node2&#45;&gt;Node22 -->
<g id="edge52" class="edge"><title>Node2&#45;&gt;Node22</title>
<path fill="none" stroke="midnightblue" d="M562.88,-358.661C545.592,-351.224 521.905,-338.894 506,-322 493.358,-308.572 484.7,-289.203 479.61,-275.103"/>
<polygon fill="midnightblue" stroke="midnightblue" points="482.899,-273.905 476.405,-265.534 476.262,-276.128 482.899,-273.905"/>
</g>
<!-- Node23 -->
<g id="node23" class="node"><title>Node23</title>
<g id="a_node23"><a xlink:href="thread_8h.html" target="_top" xlink:title="thread.h">
<polygon fill="white" stroke="black" points="586,-302.5 586,-321.5 638,-321.5 638,-302.5 586,-302.5"/>
<text text-anchor="middle" x="612" y="-309.5" font-family="Helvetica,sans-Serif" font-size="10.00">thread.h</text>
</a>
</g>
</g>
<!-- Node2&#45;&gt;Node23 -->
<g id="edge32" class="edge"><title>Node2&#45;&gt;Node23</title>
<path fill="none" stroke="midnightblue" d="M589.459,-358.083C593.154,-350.691 598.523,-339.953 603.094,-330.811"/>
<polygon fill="midnightblue" stroke="midnightblue" points="606.283,-332.261 607.624,-321.751 600.022,-329.13 606.283,-332.261"/>
</g>
<!-- Node26 -->
<g id="node26" class="node"><title>Node26</title>
<g id="a_node26"><a xlink:href="wait__queue_8h.html" target="_top" xlink:title="wait_queue.h">
<polygon fill="white" stroke="black" points="779,-302.5 779,-321.5 853,-321.5 853,-302.5 779,-302.5"/>
<text text-anchor="middle" x="816" y="-309.5" font-family="Helvetica,sans-Serif" font-size="10.00">wait_queue.h</text>
</a>
</g>
</g>
<!-- Node2&#45;&gt;Node26 -->
<g id="edge35" class="edge"><title>Node2&#45;&gt;Node26</title>
<path fill="none" stroke="midnightblue" d="M607.149,-361.822C644.442,-353.104 720.518,-335.321 769.829,-323.793"/>
<polygon fill="midnightblue" stroke="midnightblue" points="770.678,-327.189 779.618,-321.505 769.084,-320.373 770.678,-327.189"/>
</g>
<!-- Node30 -->
<g id="node30" class="node"><title>Node30</title>
<g id="a_node30"><a xlink:href="lockfree__queue_8h.html" target="_top" xlink:title="lockfree_queue.h">
<polygon fill="white" stroke="black" points="871.5,-302.5 871.5,-321.5 962.5,-321.5 962.5,-302.5 871.5,-302.5"/>
<text text-anchor="middle" x="917" y="-309.5" font-family="Helvetica,sans-Serif" font-size="10.00">lockfree_queue.h</text>
</a>
</g>
</g>
<!-- Node2&#45;&gt;Node30 -->
<g id="edge42" class="edge"><title>Node2&#45;&gt;Node30</title>
<path fill="none" stroke="midnightblue" d="M607.263,-363.392C652.787,-356.013 760.058,-338.615 861.292,-322.114"/>
<polygon fill="midnightblue" stroke="midnightblue" points="862.076,-325.532 871.382,-320.469 860.949,-318.624 862.076,-325.532"/>
</g>
<!-- Node31 -->
<g id="node31" class="node"><title>Node31</title>
<g id="a_node31"><a xlink:href="image_8h.html" target="_top" xlink:title="image.h">
<polygon fill="white" stroke="black" points="586.5,-190.5 586.5,-209.5 637.5,-209.5 637.5,-190.5 586.5,-190.5"/>
<text text-anchor="middle" x="612" y="-197.5" font-family="Helvetica,sans-Serif" font-size="10.00">image.h</text>
</a>
</g>
</g>
<!-- Node2&#45;&gt;Node31 -->
<g id="edge45" class="edge"><title>Node2&#45;&gt;Node31</title>
<path fill="none" stroke="midnightblue" d="M606.143,-358.463C637.467,-344.499 694.977,-313.481 718,-266 733.669,-233.686 684.21,-215.921 647.652,-207.442"/>
<polygon fill="midnightblue" stroke="midnightblue" points="648.262,-203.993 637.748,-205.292 646.778,-210.834 648.262,-203.993"/>
</g>
<!-- Node32 -->
<g id="node32" class="node"><title>Node32</title>
<polygon fill="white" stroke="#bfbfbf" points="731,-302.5 731,-321.5 761,-321.5 761,-302.5 731,-302.5"/>
<text text-anchor="middle" x="746" y="-309.5" font-family="Helvetica,sans-Serif" font-size="10.00">set</text>
</g>
<!-- Node2&#45;&gt;Node32 -->
<g id="edge50" class="edge"><title>Node2&#45;&gt;Node32</title>
<path fill="none" stroke="midnightblue" d="M607.049,-359.605C636.915,-349.587 690.071,-331.759 721.265,-321.296"/>
<polygon fill="midnightblue" stroke="midnightblue" points="722.568,-324.551 730.936,-318.053 720.342,-317.914 722.568,-324.551"/>
</g>
<!-- Node4 -->
<g id="node4" class="node"><title>Node4</title>
<g id="a_node4"><a xlink:href="sample_8h.html" target="_top" xlink:title="sample.h">
<polygon fill="white" stroke="black" points="156,-246.5 156,-265.5 212,-265.5 212,-246.5 156,-246.5"/>
<text text-anchor="middle" x="184" y="-253.5" font-family="Helvetica,sans-Serif" font-size="10.00">sample.h</text>
</a>
</g>
</g>
<!-- Node3&#45;&gt;Node4 -->
<g id="edge3" class="edge"><title>Node3&#45;&gt;Node4</title>
<path fill="none" stroke="midnightblue" d="M371.064,-302.916C331.198,-293.13 264.194,-276.684 222.129,-266.359"/>
<polygon fill="midnightblue" stroke="midnightblue" points="222.808,-262.922 212.262,-263.937 221.139,-269.72 222.808,-262.922"/>
</g>
<!-- Node13 -->
<g id="node13" class="node"><title>Node13</title>
<polygon fill="white" stroke="#bfbfbf" points="478,-67.5 478,-86.5 530,-86.5 530,-67.5 478,-67.5"/>
<text text-anchor="middle" x="504" y="-74.5" font-family="Helvetica,sans-Serif" font-size="10.00">assert.h</text>
</g>
<!-- Node3&#45;&gt;Node13 -->
<g id="edge27" class="edge"><title>Node3&#45;&gt;Node13</title>
<path fill="none" stroke="midnightblue" d="M406.202,-302.451C409.532,-289.893 416.286,-265.803 424,-246 446.018,-189.477 478.777,-125.487 494.674,-95.3936"/>
<polygon fill="midnightblue" stroke="midnightblue" points="497.773,-97.0197 499.379,-86.5472 491.593,-93.7327 497.773,-97.0197"/>
</g>
<!-- Node3&#45;&gt;Node16 -->
<g id="edge31" class="edge"><title>Node3&#45;&gt;Node16</title>
<path fill="none" stroke="midnightblue" d="M371.281,-309.13C275.103,-302.748 0,-277.781 0,-201 0,-201 0,-201 0,-137.5 0,-80.0341 67.7945,-44.8156 111.304,-28.1303"/>
<polygon fill="midnightblue" stroke="midnightblue" points="112.546,-31.4027 120.719,-24.661 110.126,-24.8344 112.546,-31.4027"/>
</g>
<!-- Node19 -->
<g id="node19" class="node"><title>Node19</title>
<polygon fill="white" stroke="#bfbfbf" points="66.5,-129 66.5,-148 107.5,-148 107.5,-129 66.5,-129"/>
<text text-anchor="middle" x="87" y="-136" font-family="Helvetica,sans-Serif" font-size="10.00">string</text>
</g>
<!-- Node3&#45;&gt;Node19 -->
<g id="edge30" class="edge"><title>Node3&#45;&gt;Node19</title>
<path fill="none" stroke="midnightblue" d="M371.358,-308.123C310.997,-302.346 184.656,-287.974 147,-266 119.181,-249.766 114.773,-239.116 101,-210 93.2528,-193.623 89.79,-173.146 88.2438,-158.487"/>
<polygon fill="midnightblue" stroke="midnightblue" points="91.7013,-157.836 87.3694,-148.168 84.7263,-158.428 91.7013,-157.836"/>
</g>
<!-- Node21 -->
<g id="node21" class="node"><title>Node21</title>
<polygon fill="white" stroke="#bfbfbf" points="686,-123.5 686,-153.5 788,-153.5 788,-123.5 686,-123.5"/>
<text text-anchor="start" x="694" y="-141.5" font-family="Helvetica,sans-Serif" font-size="10.00">artvision/framework</text>
<text text-anchor="middle" x="737" y="-130.5" font-family="Helvetica,sans-Serif" font-size="10.00">/exception.h</text>
</g>
<!-- Node3&#45;&gt;Node21 -->
<g id="edge28" class="edge"><title>Node3&#45;&gt;Node21</title>
<path fill="none" stroke="midnightblue" d="M407.173,-302.184C412.808,-287.886 425.986,-259.848 447,-246 522.05,-196.544 563.897,-246.572 646,-210 672.755,-198.082 698.7,-176.705 715.994,-160.604"/>
<polygon fill="midnightblue" stroke="midnightblue" points="718.484,-163.066 723.303,-153.631 713.652,-158.002 718.484,-163.066"/>
</g>
<!-- Node3&#45;&gt;Node22 -->
<g id="edge29" class="edge"><title>Node3&#45;&gt;Node22</title>
<path fill="none" stroke="midnightblue" d="M415.247,-302.324C425.797,-294.185 441.801,-281.839 454.442,-272.087"/>
<polygon fill="midnightblue" stroke="midnightblue" points="456.769,-274.713 462.549,-265.834 452.493,-269.171 456.769,-274.713"/>
</g>
<!-- Node5 -->
<g id="node5" class="node"><title>Node5</title>
<g id="a_node5"><a xlink:href="stream_8h.html" target="_top" xlink:title="stream.h">
<polygon fill="white" stroke="black" points="196.5,-190.5 196.5,-209.5 251.5,-209.5 251.5,-190.5 196.5,-190.5"/>
<text text-anchor="middle" x="224" y="-197.5" font-family="Helvetica,sans-Serif" font-size="10.00">stream.h</text>
</a>
</g>
</g>
<!-- Node4&#45;&gt;Node5 -->
<g id="edge4" class="edge"><title>Node4&#45;&gt;Node5</title>
<path fill="none" stroke="midnightblue" d="M190.605,-246.083C196.255,-238.455 204.545,-227.264 211.451,-217.941"/>
<polygon fill="midnightblue" stroke="midnightblue" points="214.378,-219.87 217.518,-209.751 208.753,-215.703 214.378,-219.87"/>
</g>
<!-- Node4&#45;&gt;Node16 -->
<g id="edge26" class="edge"><title>Node4&#45;&gt;Node16</title>
<path fill="none" stroke="midnightblue" d="M161.977,-246.481C130.252,-232.725 73.6667,-202.189 57,-154 39.7811,-104.215 94.219,-54.7167 125.906,-30.9902"/>
<polygon fill="midnightblue" stroke="midnightblue" points="128.121,-33.7071 134.161,-25.0027 124.011,-28.0406 128.121,-33.7071"/>
</g>
<!-- Node20 -->
<g id="node20" class="node"><title>Node20</title>
<g id="a_node20"><a xlink:href="date__time_8h.html" target="_top" xlink:title="date_time.h">
<polygon fill="white" stroke="black" points="110,-190.5 110,-209.5 178,-209.5 178,-190.5 110,-190.5"/>
<text text-anchor="middle" x="144" y="-197.5" font-family="Helvetica,sans-Serif" font-size="10.00">date_time.h</text>
</a>
</g>
</g>
<!-- Node4&#45;&gt;Node20 -->
<g id="edge24" class="edge"><title>Node4&#45;&gt;Node20</title>
<path fill="none" stroke="midnightblue" d="M177.395,-246.083C171.745,-238.455 163.455,-227.264 156.549,-217.941"/>
<polygon fill="midnightblue" stroke="midnightblue" points="159.247,-215.703 150.482,-209.751 153.622,-219.87 159.247,-215.703"/>
</g>
<!-- Node6 -->
<g id="node6" class="node"><title>Node6</title>
<polygon fill="white" stroke="#bfbfbf" points="666,-0.5 666,-30.5 768,-30.5 768,-0.5 666,-0.5"/>
<text text-anchor="start" x="674" y="-18.5" font-family="Helvetica,sans-Serif" font-size="10.00">artvision/framework</text>
<text text-anchor="middle" x="717" y="-7.5" font-family="Helvetica,sans-Serif" font-size="10.00">/error.h</text>
</g>
<!-- Node5&#45;&gt;Node6 -->
<g id="edge5" class="edge"><title>Node5&#45;&gt;Node6</title>
<path fill="none" stroke="midnightblue" d="M251.638,-198.278C325.214,-195.117 529.474,-178.135 665,-87 682.559,-75.1927 696.39,-55.3971 705.36,-39.783"/>
<polygon fill="midnightblue" stroke="midnightblue" points="708.593,-41.1654 710.307,-30.7101 702.447,-37.8146 708.593,-41.1654"/>
</g>
<!-- Node7 -->
<g id="node7" class="node"><title>Node7</title>
<g id="a_node7"><a xlink:href="linear__algebra_8h.html" target="_top" xlink:title="AR6/InstantOn/math\l/linear_algebra.h">
<polygon fill="white" stroke="black" points="278.5,-123.5 278.5,-153.5 385.5,-153.5 385.5,-123.5 278.5,-123.5"/>
<text text-anchor="start" x="286.5" y="-141.5" font-family="Helvetica,sans-Serif" font-size="10.00">AR6/InstantOn/math</text>
<text text-anchor="middle" x="332" y="-130.5" font-family="Helvetica,sans-Serif" font-size="10.00">/linear_algebra.h</text>
</a>
</g>
</g>
<!-- Node5&#45;&gt;Node7 -->
<g id="edge6" class="edge"><title>Node5&#45;&gt;Node7</title>
<path fill="none" stroke="midnightblue" d="M239.474,-190.475C254.579,-182.153 278.077,-169.207 297.612,-158.445"/>
<polygon fill="midnightblue" stroke="midnightblue" points="299.477,-161.414 306.547,-153.523 296.099,-155.283 299.477,-161.414"/>
</g>
<!-- Node15 -->
<g id="node15" class="node"><title>Node15</title>
<g id="a_node15"><a xlink:href="indexing_8h.html" target="_top" xlink:title="indexing.h">
<polygon fill="white" stroke="black" points="232.5,-67.5 232.5,-86.5 293.5,-86.5 293.5,-67.5 232.5,-67.5"/>
<text text-anchor="middle" x="263" y="-74.5" font-family="Helvetica,sans-Serif" font-size="10.00">indexing.h</text>
</a>
</g>
</g>
<!-- Node5&#45;&gt;Node15 -->
<g id="edge21" class="edge"><title>Node5&#45;&gt;Node15</title>
<path fill="none" stroke="midnightblue" d="M226.805,-190.298C233.129,-170.676 248.612,-122.638 257.136,-96.1933"/>
<polygon fill="midnightblue" stroke="midnightblue" points="260.484,-97.2147 260.221,-86.6232 253.822,-95.0673 260.484,-97.2147"/>
</g>
<!-- Node5&#45;&gt;Node16 -->
<g id="edge23" class="edge"><title>Node5&#45;&gt;Node16</title>
<path fill="none" stroke="midnightblue" d="M204.033,-190.493C189.29,-183.1 170.099,-170.909 160,-154 137.631,-116.548 140.49,-62.8822 144.018,-34.9641"/>
<polygon fill="midnightblue" stroke="midnightblue" points="147.491,-35.3968 145.449,-25.0006 140.562,-34.4011 147.491,-35.3968"/>
</g>
<!-- Node5&#45;&gt;Node19 -->
<g id="edge22" class="edge"><title>Node5&#45;&gt;Node19</title>
<path fill="none" stroke="midnightblue" d="M204.371,-190.475C181.176,-180.401 142.381,-163.553 115.787,-152.002"/>
<polygon fill="midnightblue" stroke="midnightblue" points="117.159,-148.782 106.592,-148.009 114.37,-155.203 117.159,-148.782"/>
</g>
<!-- Node8 -->
<g id="node8" class="node"><title>Node8</title>
<g id="a_node8"><a xlink:href="math__utils_8h.html" target="_top" xlink:title="math_utils.h">
<polygon fill="white" stroke="black" points="586,-67.5 586,-86.5 656,-86.5 656,-67.5 586,-67.5"/>
<text text-anchor="middle" x="621" y="-74.5" font-family="Helvetica,sans-Serif" font-size="10.00">math_utils.h</text>
</a>
</g>
</g>
<!-- Node7&#45;&gt;Node8 -->
<g id="edge7" class="edge"><title>Node7&#45;&gt;Node8</title>
<path fill="none" stroke="midnightblue" d="M385.681,-126.448C440.467,-115.168 524.544,-97.8586 575.969,-87.2711"/>
<polygon fill="midnightblue" stroke="midnightblue" points="576.711,-90.6918 585.8,-85.2471 575.3,-83.8356 576.711,-90.6918"/>
</g>
<!-- Node10 -->
<g id="node10" class="node"><title>Node10</title>
<g id="a_node10"><a xlink:href="_instant_on_2include_2_a_r6_2_instant_on_2math_2matrix_8h.html" target="_top" xlink:title="matrix.h">
<polygon fill="white" stroke="black" points="408,-67.5 408,-86.5 460,-86.5 460,-67.5 408,-67.5"/>
<text text-anchor="middle" x="434" y="-74.5" font-family="Helvetica,sans-Serif" font-size="10.00">matrix.h</text>
</a>
</g>
</g>
<!-- Node7&#45;&gt;Node10 -->
<g id="edge10" class="edge"><title>Node7&#45;&gt;Node10</title>
<path fill="none" stroke="midnightblue" d="M356.173,-123.399C372.522,-113.862 394.015,-101.325 410.27,-91.8422"/>
<polygon fill="midnightblue" stroke="midnightblue" points="412.284,-94.7198 419.158,-86.6578 408.757,-88.6733 412.284,-94.7198"/>
</g>
<!-- Node11 -->
<g id="node11" class="node"><title>Node11</title>
<g id="a_node11"><a xlink:href="vector_8h.html" target="_top" xlink:title="vector.h">
<polygon fill="white" stroke="black" points="375,-6 375,-25 427,-25 427,-6 375,-6"/>
<text text-anchor="middle" x="401" y="-13" font-family="Helvetica,sans-Serif" font-size="10.00">vector.h</text>
</a>
</g>
</g>
<!-- Node7&#45;&gt;Node11 -->
<g id="edge14" class="edge"><title>Node7&#45;&gt;Node11</title>
<path fill="none" stroke="midnightblue" d="M340.145,-123.362C345.968,-113.243 353.983,-99.2926 361,-87 371.316,-68.9274 383.061,-48.2103 391.142,-33.934"/>
<polygon fill="midnightblue" stroke="midnightblue" points="394.21,-35.6181 396.088,-25.191 388.118,-32.1711 394.21,-35.6181"/>
</g>
<!-- Node7&#45;&gt;Node13 -->
<g id="edge15" class="edge"><title>Node7&#45;&gt;Node13</title>
<path fill="none" stroke="midnightblue" d="M372.762,-123.399C402.224,-113.207 441.589,-99.5898 469.499,-89.935"/>
<polygon fill="midnightblue" stroke="midnightblue" points="470.917,-93.1479 479.224,-86.5709 468.629,-86.5325 470.917,-93.1479"/>
</g>
<!-- Node14 -->
<g id="node14" class="node"><title>Node14</title>
<polygon fill="white" stroke="#bfbfbf" points="312,-67.5 312,-86.5 352,-86.5 352,-67.5 312,-67.5"/>
<text text-anchor="middle" x="332" y="-74.5" font-family="Helvetica,sans-Serif" font-size="10.00">limits</text>
</g>
<!-- Node7&#45;&gt;Node14 -->
<g id="edge16" class="edge"><title>Node7&#45;&gt;Node14</title>
<path fill="none" stroke="midnightblue" d="M332,-123.399C332,-115.466 332,-105.458 332,-96.8583"/>
<polygon fill="midnightblue" stroke="midnightblue" points="335.5,-96.6577 332,-86.6578 328.5,-96.6578 335.5,-96.6577"/>
</g>
<!-- Node7&#45;&gt;Node15 -->
<g id="edge17" class="edge"><title>Node7&#45;&gt;Node15</title>
<path fill="none" stroke="midnightblue" d="M315.648,-123.399C305.105,-114.308 291.4,-102.49 280.616,-93.1909"/>
<polygon fill="midnightblue" stroke="midnightblue" points="282.899,-90.5377 273.04,-86.6578 278.328,-95.8389 282.899,-90.5377"/>
</g>
<!-- Node8&#45;&gt;Node6 -->
<g id="edge9" class="edge"><title>Node8&#45;&gt;Node6</title>
<path fill="none" stroke="midnightblue" d="M634.754,-67.4751C647.999,-59.266 668.503,-46.5581 685.724,-35.8845"/>
<polygon fill="midnightblue" stroke="midnightblue" points="687.719,-38.7661 694.375,-30.523 684.031,-32.8162 687.719,-38.7661"/>
</g>
<!-- Node9 -->
<g id="node9" class="node"><title>Node9</title>
<polygon fill="white" stroke="#bfbfbf" points="599,-6 599,-25 643,-25 643,-6 599,-6"/>
<text text-anchor="middle" x="621" y="-13" font-family="Helvetica,sans-Serif" font-size="10.00">cmath</text>
</g>
<!-- Node8&#45;&gt;Node9 -->
<g id="edge8" class="edge"><title>Node8&#45;&gt;Node9</title>
<path fill="none" stroke="midnightblue" d="M621,-67.4751C621,-59.0803 621,-45.9806 621,-35.1631"/>
<polygon fill="midnightblue" stroke="midnightblue" points="624.5,-35.0091 621,-25.0091 617.5,-35.0091 624.5,-35.0091"/>
</g>
<!-- Node10&#45;&gt;Node6 -->
<g id="edge11" class="edge"><title>Node10&#45;&gt;Node6</title>
<path fill="none" stroke="midnightblue" d="M460.334,-69.0556C463.252,-68.3376 466.185,-67.6382 469,-67 549.84,-48.6707 570.875,-48.0252 652,-31 653.273,-30.7328 654.56,-30.4612 655.856,-30.1859"/>
<polygon fill="midnightblue" stroke="midnightblue" points="656.891,-33.5435 665.932,-28.0199 655.419,-26.6999 656.891,-33.5435"/>
</g>
<!-- Node10&#45;&gt;Node11 -->
<g id="edge12" class="edge"><title>Node10&#45;&gt;Node11</title>
<path fill="none" stroke="midnightblue" d="M429.272,-67.4751C424.42,-58.7268 416.734,-44.8691 410.6,-33.8093"/>
<polygon fill="midnightblue" stroke="midnightblue" points="413.63,-32.0566 405.719,-25.0091 407.509,-35.4517 413.63,-32.0566"/>
</g>
<!-- Node10&#45;&gt;Node12 -->
<g id="edge13" class="edge"><title>Node10&#45;&gt;Node12</title>
<path fill="none" stroke="midnightblue" d="M443.743,-67.4751C454.347,-58.1966 471.519,-43.1706 484.479,-31.831"/>
<polygon fill="midnightblue" stroke="midnightblue" points="487.054,-34.2282 492.275,-25.0091 482.445,-28.9601 487.054,-34.2282"/>
</g>
<!-- Node15&#45;&gt;Node16 -->
<g id="edge18" class="edge"><title>Node15&#45;&gt;Node16</title>
<path fill="none" stroke="midnightblue" d="M246.38,-67.4751C227.085,-57.578 195.041,-41.1416 172.569,-29.6151"/>
<polygon fill="midnightblue" stroke="midnightblue" points="174.084,-26.4589 163.589,-25.0091 170.89,-32.6873 174.084,-26.4589"/>
</g>
<!-- Node17 -->
<g id="node17" class="node"><title>Node17</title>
<polygon fill="white" stroke="#bfbfbf" points="217.5,-6 217.5,-25 266.5,-25 266.5,-6 217.5,-6"/>
<text text-anchor="middle" x="242" y="-13" font-family="Helvetica,sans-Serif" font-size="10.00">cstddef</text>
</g>
<!-- Node15&#45;&gt;Node17 -->
<g id="edge19" class="edge"><title>Node15&#45;&gt;Node17</title>
<path fill="none" stroke="midnightblue" d="M259.991,-67.4751C256.966,-58.9035 252.21,-45.4269 248.347,-34.483"/>
<polygon fill="midnightblue" stroke="midnightblue" points="251.632,-33.2741 245.003,-25.0091 245.031,-35.6039 251.632,-33.2741"/>
</g>
<!-- Node18 -->
<g id="node18" class="node"><title>Node18</title>
<polygon fill="white" stroke="#bfbfbf" points="284.5,-6 284.5,-25 333.5,-25 333.5,-6 284.5,-6"/>
<text text-anchor="middle" x="309" y="-13" font-family="Helvetica,sans-Serif" font-size="10.00">string.h</text>
</g>
<!-- Node15&#45;&gt;Node18 -->
<g id="edge20" class="edge"><title>Node15&#45;&gt;Node18</title>
<path fill="none" stroke="midnightblue" d="M269.591,-67.4751C276.491,-58.5501 287.502,-44.3071 296.134,-33.1425"/>
<polygon fill="midnightblue" stroke="midnightblue" points="299.074,-35.0612 302.422,-25.0091 293.536,-30.7798 299.074,-35.0612"/>
</g>
<!-- Node20&#45;&gt;Node19 -->
<g id="edge25" class="edge"><title>Node20&#45;&gt;Node19</title>
<path fill="none" stroke="midnightblue" d="M135.833,-190.475C127.114,-181.373 113.096,-166.741 102.311,-155.483"/>
<polygon fill="midnightblue" stroke="midnightblue" points="104.597,-152.809 95.1516,-148.009 99.5419,-157.651 104.597,-152.809"/>
</g>
<!-- Node24 -->
<g id="node24" class="node"><title>Node24</title>
<polygon fill="white" stroke="#bfbfbf" points="586,-246.5 586,-265.5 632,-265.5 632,-246.5 586,-246.5"/>
<text text-anchor="middle" x="609" y="-253.5" font-family="Helvetica,sans-Serif" font-size="10.00">atomic</text>
</g>
<!-- Node23&#45;&gt;Node24 -->
<g id="edge33" class="edge"><title>Node23&#45;&gt;Node24</title>
<path fill="none" stroke="midnightblue" d="M611.505,-302.083C611.111,-295.006 610.548,-284.861 610.055,-275.986"/>
<polygon fill="midnightblue" stroke="midnightblue" points="613.536,-275.542 609.486,-265.751 606.546,-275.93 613.536,-275.542"/>
</g>
<!-- Node25 -->
<g id="node25" class="node"><title>Node25</title>
<polygon fill="white" stroke="#bfbfbf" points="650.5,-246.5 650.5,-265.5 709.5,-265.5 709.5,-246.5 650.5,-246.5"/>
<text text-anchor="middle" x="680" y="-253.5" font-family="Helvetica,sans-Serif" font-size="10.00">stdexcept</text>
</g>
<!-- Node23&#45;&gt;Node25 -->
<g id="edge34" class="edge"><title>Node23&#45;&gt;Node25</title>
<path fill="none" stroke="midnightblue" d="M622.925,-302.324C633.175,-294.185 648.721,-281.839 661.001,-272.087"/>
<polygon fill="midnightblue" stroke="midnightblue" points="663.221,-274.794 668.876,-265.834 658.868,-269.312 663.221,-274.794"/>
</g>
<!-- Node26&#45;&gt;Node6 -->
<g id="edge41" class="edge"><title>Node26&#45;&gt;Node6</title>
<path fill="none" stroke="midnightblue" d="M816,-302.442C816,-283.936 816,-238.812 816,-201 816,-201 816,-201 816,-137.5 816,-94.0215 777.237,-57.5783 748.222,-36.3897"/>
<polygon fill="midnightblue" stroke="midnightblue" points="750.152,-33.4678 739.961,-30.5687 746.12,-39.1899 750.152,-33.4678"/>
</g>
<!-- Node27 -->
<g id="node27" class="node"><title>Node27</title>
<g id="a_node27"><a xlink:href="queue_8h.html" target="_top" xlink:title="queue.h">
<polygon fill="white" stroke="black" points="844.5,-246.5 844.5,-265.5 895.5,-265.5 895.5,-246.5 844.5,-246.5"/>
<text text-anchor="middle" x="870" y="-253.5" font-family="Helvetica,sans-Serif" font-size="10.00">queue.h</text>
</a>
</g>
</g>
<!-- Node26&#45;&gt;Node27 -->
<g id="edge36" class="edge"><title>Node26&#45;&gt;Node27</title>
<path fill="none" stroke="midnightblue" d="M824.917,-302.083C832.78,-294.22 844.431,-282.569 853.919,-273.081"/>
<polygon fill="midnightblue" stroke="midnightblue" points="856.653,-275.297 861.249,-265.751 851.703,-270.347 856.653,-275.297"/>
</g>
<!-- Node29 -->
<g id="node29" class="node"><title>Node29</title>
<g id="a_node29"><a xlink:href="synchronization_8h.html" target="_top" xlink:title="synchronization.h">
<polygon fill="white" stroke="black" points="694.5,-190.5 694.5,-209.5 787.5,-209.5 787.5,-190.5 694.5,-190.5"/>
<text text-anchor="middle" x="741" y="-197.5" font-family="Helvetica,sans-Serif" font-size="10.00">synchronization.h</text>
</a>
</g>
</g>
<!-- Node26&#45;&gt;Node29 -->
<g id="edge40" class="edge"><title>Node26&#45;&gt;Node29</title>
<path fill="none" stroke="midnightblue" d="M810.115,-302.368C797.738,-284.215 768.819,-241.802 752.584,-217.99"/>
<polygon fill="midnightblue" stroke="midnightblue" points="755.383,-215.882 746.858,-209.591 749.599,-219.825 755.383,-215.882"/>
</g>
<!-- Node28 -->
<g id="node28" class="node"><title>Node28</title>
<polygon fill="white" stroke="#bfbfbf" points="848.5,-190.5 848.5,-209.5 891.5,-209.5 891.5,-190.5 848.5,-190.5"/>
<text text-anchor="middle" x="870" y="-197.5" font-family="Helvetica,sans-Serif" font-size="10.00">queue</text>
</g>
<!-- Node27&#45;&gt;Node28 -->
<g id="edge37" class="edge"><title>Node27&#45;&gt;Node28</title>
<path fill="none" stroke="midnightblue" d="M870,-246.083C870,-239.006 870,-228.861 870,-219.986"/>
<polygon fill="midnightblue" stroke="midnightblue" points="873.5,-219.751 870,-209.751 866.5,-219.751 873.5,-219.751"/>
</g>
<!-- Node27&#45;&gt;Node29 -->
<g id="edge38" class="edge"><title>Node27&#45;&gt;Node29</title>
<path fill="none" stroke="midnightblue" d="M849.56,-246.444C828.33,-237.557 794.901,-223.563 770.745,-213.451"/>
<polygon fill="midnightblue" stroke="midnightblue" points="771.921,-210.149 761.345,-209.516 769.218,-216.606 771.921,-210.149"/>
</g>
<!-- Node29&#45;&gt;Node21 -->
<g id="edge39" class="edge"><title>Node29&#45;&gt;Node21</title>
<path fill="none" stroke="midnightblue" d="M740.427,-190.475C739.956,-183.471 739.265,-173.192 738.627,-163.696"/>
<polygon fill="midnightblue" stroke="midnightblue" points="742.106,-163.266 737.943,-153.523 735.121,-163.735 742.106,-163.266"/>
</g>
<!-- Node30&#45;&gt;Node6 -->
<g id="edge43" class="edge"><title>Node30&#45;&gt;Node6</title>
<path fill="none" stroke="midnightblue" d="M917.915,-302.454C919.813,-283.971 924,-238.889 924,-201 924,-201 924,-201 924,-137.5 924,-69.2832 839.175,-38.8196 778.125,-25.7285"/>
<polygon fill="midnightblue" stroke="midnightblue" points="778.666,-22.2669 768.169,-23.7001 777.269,-29.126 778.666,-22.2669"/>
</g>
<!-- Node30&#45;&gt;Node27 -->
<g id="edge44" class="edge"><title>Node30&#45;&gt;Node27</title>
<path fill="none" stroke="midnightblue" d="M909.239,-302.083C902.463,-294.298 892.457,-282.801 884.245,-273.367"/>
<polygon fill="midnightblue" stroke="midnightblue" points="886.822,-270.996 877.617,-265.751 881.542,-275.592 886.822,-270.996"/>
</g>
<!-- Node31&#45;&gt;Node6 -->
<g id="edge47" class="edge"><title>Node31&#45;&gt;Node6</title>
<path fill="none" stroke="midnightblue" d="M620.714,-190.253C638.007,-172.408 676.818,-129.856 698,-87 705.251,-72.3298 710.02,-54.5276 712.967,-40.4828"/>
<polygon fill="midnightblue" stroke="midnightblue" points="716.418,-41.0711 714.877,-30.589 709.545,-39.7447 716.418,-41.0711"/>
</g>
<!-- Node31&#45;&gt;Node16 -->
<g id="edge48" class="edge"><title>Node31&#45;&gt;Node16</title>
<path fill="none" stroke="midnightblue" d="M586.166,-197.934C516.125,-194.684 324.178,-183.272 269,-154 241.427,-139.372 184.762,-66.8196 159.561,-33.4031"/>
<polygon fill="midnightblue" stroke="midnightblue" points="162.135,-31.0011 153.338,-25.0964 156.533,-35.1982 162.135,-31.0011"/>
</g>
<!-- Node31&#45;&gt;Node21 -->
<g id="edge46" class="edge"><title>Node31&#45;&gt;Node21</title>
<path fill="none" stroke="midnightblue" d="M629.909,-190.475C647.709,-182.002 675.577,-168.737 698.423,-157.863"/>
<polygon fill="midnightblue" stroke="midnightblue" points="700.015,-160.981 707.54,-153.523 697.006,-154.661 700.015,-160.981"/>
</g>
</g>
</svg>
        <g id="navigator" transform="translate(0 0)" fill="#404254">
                <rect fill="#f2f5e9" fill-opacity="0.5" stroke="#606060" stroke-width=".5" x="0" y="0" width="60" height="60"/>
                <use id="zoomplus" xlink:href="#zoomPlus" x="17" y="9" onmousedown="handleZoom(evt,'in')"/>
                <use id="zoomminus" xlink:href="#zoomMin" x="42" y="9" onmousedown="handleZoom(evt,'out')"/>
                <use id="reset" xlink:href="#resetDef" x="30" y="36" onmousedown="handleReset()"/>
                <g id="arrowUp" xlink:href="#dirArrow" transform="translate(30 24)" onmousedown="handlePan(0,-1)">
                  <use xlink:href="#rim" fill="#404040">
                        <set attributeName="fill" to="#808080" begin="arrowUp.mouseover" end="arrowUp.mouseout"/>
                  </use>
                  <path fill="none" stroke="white" stroke-width="1.5" d="M0,-3.0v7 M-2.5,-0.5L0,-3.0L2.5,-0.5"/>
                </g>
                <g id="arrowRight" xlink:href="#dirArrow" transform="rotate(90) translate(36 -43)" onmousedown="handlePan(1,0)">
                  <use xlink:href="#rim" fill="#404040">
                        <set attributeName="fill" to="#808080" begin="arrowRight.mouseover" end="arrowRight.mouseout"/>
                  </use>
                  <path fill="none" stroke="white" stroke-width="1.5" d="M0,-3.0v7 M-2.5,-0.5L0,-3.0L2.5,-0.5"/>
                </g>
                <g id="arrowDown" xlink:href="#dirArrow" transform="rotate(180) translate(-30 -48)" onmousedown="handlePan(0,1)">
                  <use xlink:href="#rim" fill="#404040">
                        <set attributeName="fill" to="#808080" begin="arrowDown.mouseover" end="arrowDown.mouseout"/>
                  </use>
                  <path fill="none" stroke="white" stroke-width="1.5" d="M0,-3.0v7 M-2.5,-0.5L0,-3.0L2.5,-0.5"/>
                </g>
                <g id="arrowLeft" xlink:href="#dirArrow" transform="rotate(270) translate(-36 17)" onmousedown="handlePan(-1,0)">
                  <use xlink:href="#rim" fill="#404040">
                        <set attributeName="fill" to="#808080" begin="arrowLeft.mouseover" end="arrowLeft.mouseout"/>
                  </use>
                  <path fill="none" stroke="white" stroke-width="1.5" d="M0,-3.0v7 M-2.5,-0.5L0,-3.0L2.5,-0.5"/>
                </g>
        </g>
        <svg viewBox="0 0 15 15" width="100%" height="30px" preserveAspectRatio="xMaxYMin meet">
         <g id="arrow_out" transform="scale(0.3 0.3)">
          <a xlink:href="transform__filter_8h__incl_org.svg" target="_base">
           <rect id="button" ry="5" rx="5" y="6" x="6" height="38" width="38"
                fill="#f2f5e9" fill-opacity="0.5" stroke="#606060" stroke-width="1.0"/>
           <path id="arrow"
             d="M 11.500037,31.436501 C 11.940474,20.09759 22.043105,11.32322 32.158766,21.979434 L 37.068811,17.246167 C 37.068811,17.246167 37.088388,32 37.088388,32 L 22.160133,31.978069 C 22.160133,31.978069 26.997745,27.140456 26.997745,27.140456 C 18.528582,18.264221 13.291696,25.230495 11.500037,31.436501 z"
             style="fill:#404040;"/>
          </a>
         </g>
        </svg>
</svg>
