<?xml version="1.0" encoding="UTF-8" standalone="no"?>
<!DOCTYPE svg PUBLIC "-//W3C//DTD SVG 1.1//EN"
 "http://www.w3.org/Graphics/SVG/1.1/DTD/svg11.dtd">
<!-- Generated by graphviz version 2.38.0 (20140413.2041)
 -->
<!-- Title: unz64local_getLong Pages: 1 -->
<svg width="685pt" height="432pt"
 viewBox="0.00 0.00 685.00 431.74" xmlns="http://www.w3.org/2000/svg" xmlns:xlink="http://www.w3.org/1999/xlink">
<g id="graph0" class="graph" transform="scale(1 1) rotate(0) translate(4 427.741)">
<title>unz64local_getLong</title>
<polygon fill="white" stroke="none" points="-4,4 -4,-427.741 681,-427.741 681,4 -4,4"/>
<!-- Node1 -->
<g id="node1" class="node"><title>Node1</title>
<polygon fill="#bfbfbf" stroke="black" points="0,-299.309 0,-318.309 103,-318.309 103,-299.309 0,-299.309"/>
<text text-anchor="middle" x="51.5" y="-306.309" font-family="Helvetica,sans-Serif" font-size="10.00">unz64local_getLong</text>
</g>
<!-- Node2 -->
<g id="node2" class="node"><title>Node2</title>
<g id="a_node2"><a xlink:href="ioapi_8h.html#a50e9e9d5c30e481de822ad68fe537986" target="_top" xlink:title="uLong">
<polygon fill="white" stroke="black" points="634,-261.309 634,-280.309 677,-280.309 677,-261.309 634,-261.309"/>
<text text-anchor="middle" x="655.5" y="-268.309" font-family="Helvetica,sans-Serif" font-size="10.00">uLong</text>
</a>
</g>
</g>
<!-- Node1&#45;&gt;Node2 -->
<g id="edge1" class="edge"><title>Node1&#45;&gt;Node2</title>
<path fill="none" stroke="midnightblue" d="M71.778,-318.377C145.774,-353.633 416.527,-469.022 598,-365.809 626.512,-349.593 642.138,-312.679 649.375,-289.937"/>
<polygon fill="midnightblue" stroke="midnightblue" points="652.734,-290.917 652.2,-280.336 646.019,-288.941 652.734,-290.917"/>
</g>
<!-- Node3 -->
<g id="node3" class="node"><title>Node3</title>
<g id="a_node3"><a xlink:href="unzip_8c.html#a4fdc20c5d880511c727c425b1f11ef68" target="_top" xlink:title="unz64local_getByte">
<polygon fill="white" stroke="black" points="308.5,-299.309 308.5,-318.309 410.5,-318.309 410.5,-299.309 308.5,-299.309"/>
<text text-anchor="middle" x="359.5" y="-306.309" font-family="Helvetica,sans-Serif" font-size="10.00">unz64local_getByte</text>
</a>
</g>
</g>
<!-- Node1&#45;&gt;Node3 -->
<g id="edge2" class="edge"><title>Node1&#45;&gt;Node3</title>
<path fill="none" stroke="midnightblue" d="M103.03,-308.809C156.564,-308.809 241.076,-308.809 298.091,-308.809"/>
<polygon fill="midnightblue" stroke="midnightblue" points="298.404,-312.309 308.404,-308.809 298.404,-305.309 298.404,-312.309"/>
</g>
<!-- Node6 -->
<g id="node6" class="node"><title>Node6</title>
<g id="a_node6"><a xlink:href="unzip_8c.html#a5f1693991177fe0570e4c9bf0b95e510" target="_top" xlink:title="OF">
<polygon fill="white" stroke="black" points="640.5,-375.309 640.5,-394.309 670.5,-394.309 670.5,-375.309 640.5,-375.309"/>
<text text-anchor="middle" x="655.5" y="-382.309" font-family="Helvetica,sans-Serif" font-size="10.00">OF</text>
</a>
</g>
</g>
<!-- Node1&#45;&gt;Node6 -->
<g id="edge25" class="edge"><title>Node1&#45;&gt;Node6</title>
<path fill="none" stroke="midnightblue" d="M61.5729,-318.74C76.287,-334.221 106.952,-363.971 139,-379.809 199.984,-409.948 220.427,-406.979 288,-414.809 425.022,-430.686 462.157,-423.763 598,-399.809 608.83,-397.899 620.615,-394.919 630.605,-392.116"/>
<polygon fill="midnightblue" stroke="midnightblue" points="631.627,-395.464 640.252,-389.312 629.673,-388.743 631.627,-395.464"/>
</g>
<!-- Node7 -->
<g id="node7" class="node"><title>Node7</title>
<g id="a_node7"><a xlink:href="ioapi_8h.html#a39ab6d73c1cd44bc17064c2dcbb3e753" target="_top" xlink:title="voidpf">
<polygon fill="white" stroke="black" points="634,-109.309 634,-128.309 677,-128.309 677,-109.309 634,-109.309"/>
<text text-anchor="middle" x="655.5" y="-116.309" font-family="Helvetica,sans-Serif" font-size="10.00">voidpf</text>
</a>
</g>
</g>
<!-- Node1&#45;&gt;Node7 -->
<g id="edge26" class="edge"><title>Node1&#45;&gt;Node7</title>
<path fill="none" stroke="midnightblue" d="M54.6232,-299.085C61.5872,-269.281 86.369,-178.006 139,-124.809 190.728,-72.5254 217.33,-73.1843 288,-52.8091 420.661,-14.5611 476.492,32.7473 598,-32.8091 624.107,-46.8947 640.118,-78.8914 648.146,-99.6366"/>
<polygon fill="midnightblue" stroke="midnightblue" points="644.946,-101.082 651.627,-109.305 651.532,-98.7105 644.946,-101.082"/>
</g>
<!-- Node8 -->
<g id="node8" class="node"><title>Node8</title>
<g id="a_node8"><a xlink:href="unzip_8c.html#a65165fb74a10780ee7b66e9c6c57da3c" target="_top" xlink:title="unz64local_getLong64">
<polygon fill="white" stroke="black" points="139,-223.309 139,-242.309 252,-242.309 252,-223.309 139,-223.309"/>
<text text-anchor="middle" x="195.5" y="-230.309" font-family="Helvetica,sans-Serif" font-size="10.00">unz64local_getLong64</text>
</a>
</g>
</g>
<!-- Node1&#45;&gt;Node8 -->
<g id="edge13" class="edge"><title>Node1&#45;&gt;Node8</title>
<path fill="none" stroke="midnightblue" d="M70.4844,-299.184C95.0246,-286.049 139.197,-262.408 167.662,-247.173"/>
<polygon fill="midnightblue" stroke="midnightblue" points="169.497,-250.161 176.662,-242.356 166.193,-243.989 169.497,-250.161"/>
</g>
<!-- Node3&#45;&gt;Node2 -->
<g id="edge12" class="edge"><title>Node3&#45;&gt;Node2</title>
<path fill="none" stroke="midnightblue" d="M409.42,-299.282C427.469,-295.979 448.12,-292.446 467,-289.809 522.004,-282.127 586.501,-276.279 623.719,-273.21"/>
<polygon fill="midnightblue" stroke="midnightblue" points="624.224,-276.681 633.908,-272.384 623.657,-269.704 624.224,-276.681"/>
</g>
<!-- Node4 -->
<g id="node4" class="node"><title>Node4</title>
<g id="a_node4"><a xlink:href="ioapi_8h.html#a787fa3cf048117ba7123753c1e74fcd6" target="_top" xlink:title="int">
<polygon fill="white" stroke="black" points="518,-299.309 518,-318.309 547,-318.309 547,-299.309 518,-299.309"/>
<text text-anchor="middle" x="532.5" y="-306.309" font-family="Helvetica,sans-Serif" font-size="10.00">int</text>
</a>
</g>
</g>
<!-- Node3&#45;&gt;Node4 -->
<g id="edge3" class="edge"><title>Node3&#45;&gt;Node4</title>
<path fill="none" stroke="midnightblue" d="M410.881,-308.809C442.833,-308.809 482.705,-308.809 507.641,-308.809"/>
<polygon fill="midnightblue" stroke="midnightblue" points="507.966,-312.309 517.966,-308.809 507.966,-305.309 507.966,-312.309"/>
</g>
<!-- Node5 -->
<g id="node5" class="node"><title>Node5</title>
<g id="a_node5"><a xlink:href="unzip_8c.html#aca92d6709924f9c82ce13f0c18cc26b1" target="_top" xlink:title="unz64local_getShort">
<polygon fill="white" stroke="black" points="480,-337.309 480,-356.309 585,-356.309 585,-337.309 480,-337.309"/>
<text text-anchor="middle" x="532.5" y="-344.309" font-family="Helvetica,sans-Serif" font-size="10.00">unz64local_getShort</text>
</a>
</g>
</g>
<!-- Node3&#45;&gt;Node5 -->
<g id="edge4" class="edge"><title>Node3&#45;&gt;Node5</title>
<path fill="none" stroke="midnightblue" d="M410.881,-313.789C439.628,-319.253 474.786,-327.341 499.71,-334.355"/>
<polygon fill="midnightblue" stroke="midnightblue" points="498.805,-337.737 509.386,-337.183 500.769,-331.018 498.805,-337.737"/>
</g>
<!-- Node3&#45;&gt;Node6 -->
<g id="edge10" class="edge"><title>Node3&#45;&gt;Node6</title>
<path fill="none" stroke="midnightblue" d="M374.192,-318.425C393.755,-331.612 431.297,-354.913 467,-365.809 523.72,-383.119 594.113,-385.442 630.385,-385.323"/>
<polygon fill="midnightblue" stroke="midnightblue" points="630.529,-388.822 640.494,-385.221 630.459,-381.822 630.529,-388.822"/>
</g>
<!-- Node3&#45;&gt;Node7 -->
<g id="edge11" class="edge"><title>Node3&#45;&gt;Node7</title>
<path fill="none" stroke="midnightblue" d="M375.484,-299.126C423.356,-268.188 572.87,-171.563 631.027,-133.979"/>
<polygon fill="midnightblue" stroke="midnightblue" points="633.047,-136.84 639.546,-128.473 629.248,-130.961 633.047,-136.84"/>
</g>
<!-- Node5&#45;&gt;Node1 -->
<g id="edge7" class="edge"><title>Node5&#45;&gt;Node1</title>
<path fill="none" stroke="midnightblue" d="M479.927,-345.289C404.76,-342.704 260.793,-336.355 139,-322.809 130.632,-321.878 121.84,-320.696 113.197,-319.414"/>
<polygon fill="midnightblue" stroke="midnightblue" points="113.57,-315.93 103.155,-317.872 112.508,-322.849 113.57,-315.93"/>
</g>
<!-- Node5&#45;&gt;Node2 -->
<g id="edge5" class="edge"><title>Node5&#45;&gt;Node2</title>
<path fill="none" stroke="midnightblue" d="M577.096,-337.24C584.346,-334.74 591.585,-331.638 598,-327.809 615.109,-317.597 630.733,-301.008 641.194,-288.353"/>
<polygon fill="midnightblue" stroke="midnightblue" points="644.076,-290.351 647.565,-280.347 638.599,-285.992 644.076,-290.351"/>
</g>
<!-- Node5&#45;&gt;Node3 -->
<g id="edge6" class="edge"><title>Node5&#45;&gt;Node3</title>
<path fill="none" stroke="midnightblue" d="M479.791,-341.576C451.326,-336.123 416.906,-328.187 392.37,-321.285"/>
<polygon fill="midnightblue" stroke="midnightblue" points="393.086,-317.848 382.505,-318.401 391.121,-324.567 393.086,-317.848"/>
</g>
<!-- Node5&#45;&gt;Node6 -->
<g id="edge8" class="edge"><title>Node5&#45;&gt;Node6</title>
<path fill="none" stroke="midnightblue" d="M564.033,-356.398C584.708,-362.891 611.63,-371.346 630.714,-377.339"/>
<polygon fill="midnightblue" stroke="midnightblue" points="629.831,-380.73 640.42,-380.387 631.928,-374.052 629.831,-380.73"/>
</g>
<!-- Node5&#45;&gt;Node7 -->
<g id="edge9" class="edge"><title>Node5&#45;&gt;Node7</title>
<path fill="none" stroke="midnightblue" d="M584.922,-337.18C589.758,-334.722 594.246,-331.649 598,-327.809 624.644,-300.561 644.528,-185.345 651.644,-138.618"/>
<polygon fill="midnightblue" stroke="midnightblue" points="655.133,-138.951 653.141,-128.545 648.209,-137.922 655.133,-138.951"/>
</g>
<!-- Node8&#45;&gt;Node3 -->
<g id="edge14" class="edge"><title>Node8&#45;&gt;Node3</title>
<path fill="none" stroke="midnightblue" d="M217.017,-242.435C245.257,-255.683 296.286,-279.622 328.725,-294.84"/>
<polygon fill="midnightblue" stroke="midnightblue" points="327.609,-298.183 338.149,-299.262 330.582,-291.846 327.609,-298.183"/>
</g>
<!-- Node8&#45;&gt;Node6 -->
<g id="edge23" class="edge"><title>Node8&#45;&gt;Node6</title>
<path fill="none" stroke="midnightblue" d="M203.201,-242.324C216.981,-261.227 250.378,-303.758 288,-327.809 406.383,-403.489 457.63,-396.008 598,-389.809 608.548,-389.343 620.171,-388.391 630.119,-387.441"/>
<polygon fill="midnightblue" stroke="midnightblue" points="630.526,-390.917 640.125,-386.434 629.825,-383.953 630.526,-390.917"/>
</g>
<!-- Node8&#45;&gt;Node7 -->
<g id="edge24" class="edge"><title>Node8&#45;&gt;Node7</title>
<path fill="none" stroke="midnightblue" d="M201.219,-223.008C212.771,-200.022 244.719,-142.225 288,-110.809 356.019,-61.4375 384.083,-63.5495 467,-49.8091 524.439,-40.2908 545.381,-24.887 598,-49.8091 619.873,-60.1692 636.101,-83.6046 645.421,-100.284"/>
<polygon fill="midnightblue" stroke="midnightblue" points="642.346,-101.956 650.102,-109.174 648.54,-98.6952 642.346,-101.956"/>
</g>
<!-- Node9 -->
<g id="node9" class="node"><title>Node9</title>
<g id="a_node9"><a xlink:href="unzip_8c.html#a62c48825905347807e4daaf8451809e7" target="_top" xlink:title="unz64local_SearchCentralDir">
<polygon fill="white" stroke="black" points="288,-185.309 288,-204.309 431,-204.309 431,-185.309 288,-185.309"/>
<text text-anchor="middle" x="359.5" y="-192.309" font-family="Helvetica,sans-Serif" font-size="10.00">unz64local_SearchCentralDir</text>
</a>
</g>
</g>
<!-- Node8&#45;&gt;Node9 -->
<g id="edge15" class="edge"><title>Node8&#45;&gt;Node9</title>
<path fill="none" stroke="midnightblue" d="M237.379,-223.22C258.853,-218.183 285.36,-211.965 308.097,-206.632"/>
<polygon fill="midnightblue" stroke="midnightblue" points="308.978,-210.02 317.915,-204.329 307.379,-203.205 308.978,-210.02"/>
</g>
<!-- Node9&#45;&gt;Node2 -->
<g id="edge16" class="edge"><title>Node9&#45;&gt;Node2</title>
<path fill="none" stroke="midnightblue" d="M431.054,-190.47C479.953,-190.151 545.456,-195.198 598,-218.809 615.026,-226.46 630.329,-241.297 640.701,-253.171"/>
<polygon fill="midnightblue" stroke="midnightblue" points="638.25,-255.698 647.335,-261.148 643.632,-251.221 638.25,-255.698"/>
</g>
<!-- Node9&#45;&gt;Node6 -->
<g id="edge21" class="edge"><title>Node9&#45;&gt;Node6</title>
<path fill="none" stroke="midnightblue" d="M408.553,-204.348C460.243,-216.647 542.475,-242.336 598,-289.809 622.206,-310.505 638.773,-344.293 647.432,-365.501"/>
<polygon fill="midnightblue" stroke="midnightblue" points="644.258,-366.995 651.142,-375.048 650.782,-364.46 644.258,-366.995"/>
</g>
<!-- Node9&#45;&gt;Node7 -->
<g id="edge22" class="edge"><title>Node9&#45;&gt;Node7</title>
<path fill="none" stroke="midnightblue" d="M376.072,-185.173C396.25,-173.174 432.898,-153.014 467,-142.809 520.511,-126.796 585.747,-121.467 623.465,-119.694"/>
<polygon fill="midnightblue" stroke="midnightblue" points="623.946,-123.177 633.792,-119.266 623.656,-116.183 623.946,-123.177"/>
</g>
<!-- Node10 -->
<g id="node10" class="node"><title>Node10</title>
<g id="a_node10"><a xlink:href="unzip_8c.html#ad6a67f9e44f1e69bfc5fbdf9c49faa7f" target="_top" xlink:title="unz64local_SearchCentral\lDir64">
<polygon fill="white" stroke="black" points="467,-59.8091 467,-89.8091 598,-89.8091 598,-59.8091 467,-59.8091"/>
<text text-anchor="start" x="475" y="-77.8091" font-family="Helvetica,sans-Serif" font-size="10.00">unz64local_SearchCentral</text>
<text text-anchor="middle" x="532.5" y="-66.8091" font-family="Helvetica,sans-Serif" font-size="10.00">Dir64</text>
</a>
</g>
</g>
<!-- Node9&#45;&gt;Node10 -->
<g id="edge17" class="edge"><title>Node9&#45;&gt;Node10</title>
<path fill="none" stroke="midnightblue" d="M378.361,-185.213C393.287,-176.73 414.688,-163.454 431,-148.809 449.801,-131.929 447.043,-120.305 467,-104.809 471.749,-101.122 477.025,-97.7515 482.455,-94.7116"/>
<polygon fill="midnightblue" stroke="midnightblue" points="484.422,-97.6334 491.674,-89.9095 481.188,-91.4252 484.422,-97.6334"/>
</g>
<!-- Node10&#45;&gt;Node1 -->
<g id="edge19" class="edge"><title>Node10&#45;&gt;Node1</title>
<path fill="none" stroke="midnightblue" d="M466.891,-76.3851C416.589,-79.479 345.838,-87.9881 288,-110.809 188.011,-150.262 99.7014,-250.035 66.4937,-290.918"/>
<polygon fill="midnightblue" stroke="midnightblue" points="63.6063,-288.925 60.091,-298.919 69.0718,-293.298 63.6063,-288.925"/>
</g>
<!-- Node10&#45;&gt;Node2 -->
<g id="edge18" class="edge"><title>Node10&#45;&gt;Node2</title>
<path fill="none" stroke="midnightblue" d="M542.794,-89.8634C564.629,-125.232 619.149,-213.547 643.011,-252.199"/>
<polygon fill="midnightblue" stroke="midnightblue" points="640.148,-254.223 648.379,-260.894 646.104,-250.546 640.148,-254.223"/>
</g>
<!-- Node10&#45;&gt;Node8 -->
<g id="edge20" class="edge"><title>Node10&#45;&gt;Node8</title>
<path fill="none" stroke="midnightblue" d="M489.199,-89.9387C439.871,-108.13 356.37,-140.635 288,-175.809 263.624,-188.35 237.189,-205.199 219.03,-217.322"/>
<polygon fill="midnightblue" stroke="midnightblue" points="216.676,-214.688 210.344,-223.182 220.591,-220.491 216.676,-214.688"/>
</g>
</g>
</svg>
