<?xml version="1.0" encoding="UTF-8" standalone="no"?>
<!DOCTYPE svg PUBLIC "-//W3C//DTD SVG 1.1//EN"
 "http://www.w3.org/Graphics/SVG/1.1/DTD/svg11.dtd">
<!-- Generated by graphviz version 2.38.0 (20140413.2041)
 -->
<!-- Title: unzOpenCurrentFile Pages: 1 -->
<!--zoomable 714 -->
<svg id="main" version="1.1" xmlns="http://www.w3.org/2000/svg" xmlns:xlink="http://www.w3.org/1999/xlink" xml:space="preserve" onload="init(evt)">
<style type="text/css"><![CDATA[
.edge:hover path { stroke: red; }
.edge:hover polygon { stroke: red; fill: red; }
]]></style>
<script type="text/javascript"><![CDATA[
var edges = document.getElementsByTagName('g');
if (edges && edges.length) {
  for (var i=0;i<edges.length;i++) {
    if (edges[i].id.substr(0,4)=='edge') {
      edges[i].setAttribute('class','edge');
    }
  }
}
]]></script>
        <defs>
                <circle id="rim" cx="0" cy="0" r="7"/>
                <circle id="rim2" cx="0" cy="0" r="3.5"/>
                <g id="zoomPlus">
                        <use xlink:href="#rim" fill="#404040">
                                <set attributeName="fill" to="#808080" begin="zoomplus.mouseover" end="zoomplus.mouseout"/>
                        </use>
                        <path d="M-4,0h8M0,-4v8" fill="none" stroke="white" stroke-width="1.5" pointer-events="none"/>
                </g>
                <g id="zoomMin">
                        <use xlink:href="#rim" fill="#404040">
                                <set attributeName="fill" to="#808080" begin="zoomminus.mouseover" end="zoomminus.mouseout"/>
                        </use>
                        <path d="M-4,0h8" fill="none" stroke="white" stroke-width="1.5" pointer-events="none"/>
                </g>
                <g id="dirArrow">
                        <path fill="none" stroke="white" stroke-width="1.5" d="M0,-3.0v7 M-2.5,-0.5L0,-3.0L2.5,-0.5"/>
                </g>
               <g id="resetDef">
                       <use xlink:href="#rim2" fill="#404040">
                               <set attributeName="fill" to="#808080" begin="reset.mouseover" end="reset.mouseout"/>
                       </use>
               </g>
        </defs>

<script type="text/javascript">
var viewWidth = 1151;
var viewHeight = 714;
var sectionId = 'dynsection-28';
</script>
<script xlink:href="svgpan.js"/>
<svg id="graph" class="graph">
<g id="viewport">
<title>unzOpenCurrentFile</title>
<polygon fill="white" stroke="none" points="-4,4 -4,-710 1147,-710 1147,4 -4,4"/>
<!-- Node1 -->
<g id="node1" class="node"><title>Node1</title>
<polygon fill="#bfbfbf" stroke="black" points="0,-600.5 0,-619.5 104,-619.5 104,-600.5 0,-600.5"/>
<text text-anchor="middle" x="52" y="-607.5" font-family="Helvetica,sans-Serif" font-size="10.00">unzOpenCurrentFile</text>
</g>
<!-- Node2 -->
<g id="node2" class="node"><title>Node2</title>
<g id="a_node2"><a xlink:href="unzip_8c.html#a5eb86267fb9a5e4f52a123df606b2af5" target="_top" xlink:title="unzOpenCurrentFile3">
<polygon fill="white" stroke="black" points="140,-600.5 140,-619.5 249,-619.5 249,-600.5 140,-600.5"/>
<text text-anchor="middle" x="194.5" y="-607.5" font-family="Helvetica,sans-Serif" font-size="10.00">unzOpenCurrentFile3</text>
</a>
</g>
</g>
<!-- Node1&#45;&gt;Node2 -->
<g id="edge1" class="edge"><title>Node1&#45;&gt;Node2</title>
<path fill="none" stroke="midnightblue" d="M104.121,-610C112.468,-610 121.204,-610 129.808,-610"/>
<polygon fill="midnightblue" stroke="midnightblue" points="129.816,-613.5 139.816,-610 129.816,-606.5 129.816,-613.5"/>
</g>
<!-- Node3 -->
<g id="node3" class="node"><title>Node3</title>
<g id="a_node3"><a xlink:href="unzip_8c.html#ac48279e5325cfdabbc67a312b1d32700" target="_top" xlink:title="unzCloseCurrentFile">
<polygon fill="white" stroke="black" points="304.5,-686.5 304.5,-705.5 410.5,-705.5 410.5,-686.5 304.5,-686.5"/>
<text text-anchor="middle" x="357.5" y="-693.5" font-family="Helvetica,sans-Serif" font-size="10.00">unzCloseCurrentFile</text>
</a>
</g>
</g>
<!-- Node2&#45;&gt;Node3 -->
<g id="edge2" class="edge"><title>Node2&#45;&gt;Node3</title>
<path fill="none" stroke="midnightblue" d="M206.987,-619.559C223.403,-632.834 254.924,-656.917 285,-672 293.424,-676.224 302.762,-679.97 311.835,-683.173"/>
<polygon fill="midnightblue" stroke="midnightblue" points="310.926,-686.56 321.52,-686.432 313.158,-679.925 310.926,-686.56"/>
</g>
<!-- Node4 -->
<g id="node4" class="node"><title>Node4</title>
<g id="a_node4"><a xlink:href="unzip_8c.html#a907fed0cb410e6a8ab58c69f13738aee" target="_top" xlink:title="unz64local_CheckCurrentFile\lCoherencyHeader">
<polygon fill="white" stroke="black" points="285,-548 285,-578 430,-578 430,-548 285,-548"/>
<text text-anchor="start" x="293" y="-566" font-family="Helvetica,sans-Serif" font-size="10.00">unz64local_CheckCurrentFile</text>
<text text-anchor="middle" x="357.5" y="-555" font-family="Helvetica,sans-Serif" font-size="10.00">CoherencyHeader</text>
</a>
</g>
</g>
<!-- Node2&#45;&gt;Node4 -->
<g id="edge3" class="edge"><title>Node2&#45;&gt;Node4</title>
<path fill="none" stroke="midnightblue" d="M228.081,-600.489C247.376,-594.856 272.447,-587.537 295.31,-580.863"/>
<polygon fill="midnightblue" stroke="midnightblue" points="296.331,-584.211 304.95,-578.049 294.37,-577.491 296.331,-584.211"/>
</g>
<!-- Node7 -->
<g id="node7" class="node"><title>Node7</title>
<g id="a_node7"><a xlink:href="ioapi_8h.html#a787fa3cf048117ba7123753c1e74fcd6" target="_top" xlink:title="int">
<polygon fill="white" stroke="black" points="984,-591.5 984,-610.5 1013,-610.5 1013,-591.5 984,-591.5"/>
<text text-anchor="middle" x="998.5" y="-598.5" font-family="Helvetica,sans-Serif" font-size="10.00">int</text>
</a>
</g>
</g>
<!-- Node2&#45;&gt;Node7 -->
<g id="edge36" class="edge"><title>Node2&#45;&gt;Node7</title>
<path fill="none" stroke="midnightblue" d="M234.257,-619.598C294.313,-633.606 413.663,-658 516.5,-658 516.5,-658 516.5,-658 662.5,-658 781.136,-658 920.1,-622.828 974.252,-607.741"/>
<polygon fill="midnightblue" stroke="midnightblue" points="975.249,-611.097 983.92,-605.008 973.345,-604.361 975.249,-611.097"/>
</g>
<!-- Node12 -->
<g id="node12" class="node"><title>Node12</title>
<g id="a_node12"><a xlink:href="ioapi_8h.html#a39ab6d73c1cd44bc17064c2dcbb3e753" target="_top" xlink:title="voidpf">
<polygon fill="white" stroke="black" points="1100,-104.5 1100,-123.5 1143,-123.5 1143,-104.5 1100,-104.5"/>
<text text-anchor="middle" x="1121.5" y="-111.5" font-family="Helvetica,sans-Serif" font-size="10.00">voidpf</text>
</a>
</g>
</g>
<!-- Node2&#45;&gt;Node12 -->
<g id="edge37" class="edge"><title>Node2&#45;&gt;Node12</title>
<path fill="none" stroke="midnightblue" d="M195.855,-600.418C199.28,-522.813 232.88,-0 516.5,-0 516.5,-0 516.5,-0 826.5,-0 934.535,-0 1050.72,-67.7441 1098.28,-98.788"/>
<polygon fill="midnightblue" stroke="midnightblue" points="1096.59,-101.866 1106.86,-104.477 1100.46,-96.0322 1096.59,-101.866"/>
</g>
<!-- Node5 -->
<g id="node5" class="node"><title>Node5</title>
<g id="a_node5"><a xlink:href="ioapi_8h.html#a50e9e9d5c30e481de822ad68fe537986" target="_top" xlink:title="uLong">
<polygon fill="white" stroke="black" points="1100,-439.5 1100,-458.5 1143,-458.5 1143,-439.5 1100,-439.5"/>
<text text-anchor="middle" x="1121.5" y="-446.5" font-family="Helvetica,sans-Serif" font-size="10.00">uLong</text>
</a>
</g>
</g>
<!-- Node4&#45;&gt;Node5 -->
<g id="edge4" class="edge"><title>Node4&#45;&gt;Node5</title>
<path fill="none" stroke="midnightblue" d="M430.117,-555.952C491.259,-550.545 581.567,-544 660.5,-544 660.5,-544 660.5,-544 826.5,-544 935.593,-544 963.182,-523.677 1064,-482 1075.73,-477.149 1087.99,-470.243 1098.08,-464.001"/>
<polygon fill="midnightblue" stroke="midnightblue" points="1100.11,-466.86 1106.66,-458.533 1096.35,-460.957 1100.11,-466.86"/>
</g>
<!-- Node6 -->
<g id="node6" class="node"><title>Node6</title>
<g id="a_node6"><a xlink:href="unzip_8c.html#aeec38a873a7b86a540fa27279f83a864" target="_top" xlink:title="unzGoToNextDisk">
<polygon fill="white" stroke="black" points="612.5,-572.5 612.5,-591.5 710.5,-591.5 710.5,-572.5 612.5,-572.5"/>
<text text-anchor="middle" x="661.5" y="-579.5" font-family="Helvetica,sans-Serif" font-size="10.00">unzGoToNextDisk</text>
</a>
</g>
</g>
<!-- Node4&#45;&gt;Node6 -->
<g id="edge5" class="edge"><title>Node4&#45;&gt;Node6</title>
<path fill="none" stroke="midnightblue" d="M430.07,-567.503C482.505,-570.802 552.804,-575.224 601.913,-578.314"/>
<polygon fill="midnightblue" stroke="midnightblue" points="601.857,-581.817 612.057,-578.952 602.297,-574.831 601.857,-581.817"/>
</g>
<!-- Node4&#45;&gt;Node7 -->
<g id="edge35" class="edge"><title>Node4&#45;&gt;Node7</title>
<path fill="none" stroke="midnightblue" d="M416.517,-578.005C432.468,-581.716 449.829,-585.376 466,-588 659.688,-619.431 898.211,-607.625 973.54,-602.717"/>
<polygon fill="midnightblue" stroke="midnightblue" points="974.081,-606.188 983.822,-602.022 973.609,-599.204 974.081,-606.188"/>
</g>
<!-- Node8 -->
<g id="node8" class="node"><title>Node8</title>
<g id="a_node8"><a xlink:href="unzip_8c.html#ad3fe51136556c1c4a1e964a157d153ba" target="_top" xlink:title="unz64local_getLong">
<polygon fill="white" stroke="black" points="466,-359.5 466,-378.5 569,-378.5 569,-359.5 466,-359.5"/>
<text text-anchor="middle" x="517.5" y="-366.5" font-family="Helvetica,sans-Serif" font-size="10.00">unz64local_getLong</text>
</a>
</g>
</g>
<!-- Node4&#45;&gt;Node8 -->
<g id="edge7" class="edge"><title>Node4&#45;&gt;Node8</title>
<path fill="none" stroke="midnightblue" d="M370.898,-547.777C399.723,-512.384 471.136,-424.7 501.956,-386.858"/>
<polygon fill="midnightblue" stroke="midnightblue" points="504.942,-388.734 508.543,-378.77 499.514,-384.314 504.942,-388.734"/>
</g>
<!-- Node10 -->
<g id="node10" class="node"><title>Node10</title>
<g id="a_node10"><a xlink:href="unzip_8c.html#aca92d6709924f9c82ce13f0c18cc26b1" target="_top" xlink:title="unz64local_getShort">
<polygon fill="white" stroke="black" points="946,-420.5 946,-439.5 1051,-439.5 1051,-420.5 946,-420.5"/>
<text text-anchor="middle" x="998.5" y="-427.5" font-family="Helvetica,sans-Serif" font-size="10.00">unz64local_getShort</text>
</a>
</g>
</g>
<!-- Node4&#45;&gt;Node10 -->
<g id="edge34" class="edge"><title>Node4&#45;&gt;Node10</title>
<path fill="none" stroke="midnightblue" d="M403.431,-547.979C422.577,-541.899 445.245,-535.121 466,-530 554.688,-508.117 815.611,-461.728 935.711,-440.728"/>
<polygon fill="midnightblue" stroke="midnightblue" points="936.596,-444.126 945.845,-438.958 935.392,-437.231 936.596,-444.126"/>
</g>
<!-- Node6&#45;&gt;Node7 -->
<g id="edge6" class="edge"><title>Node6&#45;&gt;Node7</title>
<path fill="none" stroke="midnightblue" d="M710.854,-584.742C783.746,-588.877 919.053,-596.551 973.695,-599.65"/>
<polygon fill="midnightblue" stroke="midnightblue" points="973.611,-603.151 983.793,-600.223 974.007,-596.162 973.611,-603.151"/>
</g>
<!-- Node8&#45;&gt;Node5 -->
<g id="edge8" class="edge"><title>Node8&#45;&gt;Node5</title>
<path fill="none" stroke="midnightblue" d="M529.621,-378.719C545.271,-391.806 575.223,-414.746 605,-426 742.325,-477.899 786.38,-457.647 933,-465 991.149,-467.916 1006.33,-473.008 1064,-465 1072.61,-463.804 1081.76,-461.628 1090.13,-459.258"/>
<polygon fill="midnightblue" stroke="midnightblue" points="1091.3,-462.561 1099.86,-456.324 1089.28,-455.859 1091.3,-462.561"/>
</g>
<!-- Node9 -->
<g id="node9" class="node"><title>Node9</title>
<g id="a_node9"><a xlink:href="unzip_8c.html#a4fdc20c5d880511c727c425b1f11ef68" target="_top" xlink:title="unz64local_getByte">
<polygon fill="white" stroke="black" points="774.5,-418.5 774.5,-437.5 876.5,-437.5 876.5,-418.5 774.5,-418.5"/>
<text text-anchor="middle" x="825.5" y="-425.5" font-family="Helvetica,sans-Serif" font-size="10.00">unz64local_getByte</text>
</a>
</g>
</g>
<!-- Node8&#45;&gt;Node9 -->
<g id="edge9" class="edge"><title>Node8&#45;&gt;Node9</title>
<path fill="none" stroke="midnightblue" d="M539.362,-378.631C556.599,-386.176 581.9,-396.318 605,-402 657.893,-415.01 719.613,-421.586 764.11,-424.863"/>
<polygon fill="midnightblue" stroke="midnightblue" points="763.962,-428.361 774.182,-425.571 764.452,-421.379 763.962,-428.361"/>
</g>
<!-- Node11 -->
<g id="node11" class="node"><title>Node11</title>
<g id="a_node11"><a xlink:href="unzip_8c.html#a5f1693991177fe0570e4c9bf0b95e510" target="_top" xlink:title="OF">
<polygon fill="white" stroke="black" points="1106.5,-218.5 1106.5,-237.5 1136.5,-237.5 1136.5,-218.5 1106.5,-218.5"/>
<text text-anchor="middle" x="1121.5" y="-225.5" font-family="Helvetica,sans-Serif" font-size="10.00">OF</text>
</a>
</g>
</g>
<!-- Node8&#45;&gt;Node11 -->
<g id="edge32" class="edge"><title>Node8&#45;&gt;Node11</title>
<path fill="none" stroke="midnightblue" d="M524.108,-359.356C536.253,-339.316 566.982,-292.963 605,-268 662.934,-229.96 685.558,-232.912 754,-222 890.066,-200.307 926.645,-208.129 1064,-219 1074.62,-219.84 1086.25,-221.555 1096.19,-223.265"/>
<polygon fill="midnightblue" stroke="midnightblue" points="1095.71,-226.736 1106.18,-225.077 1096.96,-219.848 1095.71,-226.736"/>
</g>
<!-- Node8&#45;&gt;Node12 -->
<g id="edge33" class="edge"><title>Node8&#45;&gt;Node12</title>
<path fill="none" stroke="midnightblue" d="M522.027,-359.248C531.638,-333.869 560.581,-264.905 605,-224 659.246,-174.046 684.165,-174.688 754,-151 830.848,-124.934 852.272,-123.255 933,-115 987.969,-109.379 1052.48,-110.773 1089.71,-112.35"/>
<polygon fill="midnightblue" stroke="midnightblue" points="1089.75,-115.855 1099.9,-112.816 1090.07,-108.863 1089.75,-115.855"/>
</g>
<!-- Node13 -->
<g id="node13" class="node"><title>Node13</title>
<g id="a_node13"><a xlink:href="unzip_8c.html#a65165fb74a10780ee7b66e9c6c57da3c" target="_top" xlink:title="unz64local_getLong64">
<polygon fill="white" stroke="black" points="605,-277.5 605,-296.5 718,-296.5 718,-277.5 605,-277.5"/>
<text text-anchor="middle" x="661.5" y="-284.5" font-family="Helvetica,sans-Serif" font-size="10.00">unz64local_getLong64</text>
</a>
</g>
</g>
<!-- Node8&#45;&gt;Node13 -->
<g id="edge20" class="edge"><title>Node8&#45;&gt;Node13</title>
<path fill="none" stroke="midnightblue" d="M535.067,-359.433C559.757,-345.176 606.394,-318.244 635.32,-301.541"/>
<polygon fill="midnightblue" stroke="midnightblue" points="637.129,-304.538 644.038,-296.506 633.628,-298.476 637.129,-304.538"/>
</g>
<!-- Node9&#45;&gt;Node5 -->
<g id="edge19" class="edge"><title>Node9&#45;&gt;Node5</title>
<path fill="none" stroke="midnightblue" d="M865.18,-437.512C885.271,-441.971 910.305,-446.784 933,-449 987.994,-454.37 1052.49,-452.619 1089.72,-450.829"/>
<polygon fill="midnightblue" stroke="midnightblue" points="1090.1,-454.314 1099.91,-450.305 1089.74,-447.323 1090.1,-454.314"/>
</g>
<!-- Node9&#45;&gt;Node7 -->
<g id="edge10" class="edge"><title>Node9&#45;&gt;Node7</title>
<path fill="none" stroke="midnightblue" d="M835.937,-437.548C863.667,-465.602 945.168,-548.056 980.661,-583.964"/>
<polygon fill="midnightblue" stroke="midnightblue" points="978.362,-586.617 987.881,-591.269 983.34,-581.696 978.362,-586.617"/>
</g>
<!-- Node9&#45;&gt;Node10 -->
<g id="edge11" class="edge"><title>Node9&#45;&gt;Node10</title>
<path fill="none" stroke="midnightblue" d="M876.881,-422.373C895.336,-421.996 916.434,-422.144 935.77,-422.765"/>
<polygon fill="midnightblue" stroke="midnightblue" points="935.875,-426.272 945.999,-423.146 936.136,-419.277 935.875,-426.272"/>
</g>
<!-- Node9&#45;&gt;Node11 -->
<g id="edge17" class="edge"><title>Node9&#45;&gt;Node11</title>
<path fill="none" stroke="midnightblue" d="M876.731,-420.753C937.848,-411.027 1036.32,-392.148 1064,-368 1100.25,-336.374 1113.57,-278.128 1118.2,-247.693"/>
<polygon fill="midnightblue" stroke="midnightblue" points="1121.7,-247.883 1119.58,-237.504 1114.77,-246.944 1121.7,-247.883"/>
</g>
<!-- Node9&#45;&gt;Node12 -->
<g id="edge18" class="edge"><title>Node9&#45;&gt;Node12</title>
<path fill="none" stroke="midnightblue" d="M840.715,-418.4C860.589,-405.357 898.166,-382.055 933,-368 988.782,-345.493 1021.52,-376.588 1064,-334 1071.25,-326.734 1104.07,-185.784 1116.08,-133.392"/>
<polygon fill="midnightblue" stroke="midnightblue" points="1119.5,-134.165 1118.31,-123.637 1112.67,-132.605 1119.5,-134.165"/>
</g>
<!-- Node10&#45;&gt;Node5 -->
<g id="edge12" class="edge"><title>Node10&#45;&gt;Node5</title>
<path fill="none" stroke="midnightblue" d="M1051.17,-438.113C1064.35,-440.182 1078.1,-442.342 1089.85,-444.186"/>
<polygon fill="midnightblue" stroke="midnightblue" points="1089.58,-447.687 1100,-445.781 1090.66,-440.772 1089.58,-447.687"/>
</g>
<!-- Node10&#45;&gt;Node8 -->
<g id="edge14" class="edge"><title>Node10&#45;&gt;Node8</title>
<path fill="none" stroke="midnightblue" d="M956.598,-420.479C938.424,-416.501 916.722,-412.095 897,-409 785.556,-391.513 654.423,-379.561 579.423,-373.538"/>
<polygon fill="midnightblue" stroke="midnightblue" points="579.466,-370.03 569.22,-372.727 578.912,-377.008 579.466,-370.03"/>
</g>
<!-- Node10&#45;&gt;Node9 -->
<g id="edge13" class="edge"><title>Node10&#45;&gt;Node9</title>
<path fill="none" stroke="midnightblue" d="M945.999,-435.649C927.438,-436.005 906.325,-435.837 887.062,-435.196"/>
<polygon fill="midnightblue" stroke="midnightblue" points="887.008,-431.692 876.881,-434.805 886.739,-438.687 887.008,-431.692"/>
</g>
<!-- Node10&#45;&gt;Node11 -->
<g id="edge15" class="edge"><title>Node10&#45;&gt;Node11</title>
<path fill="none" stroke="midnightblue" d="M1042.04,-420.424C1050.16,-416.982 1057.99,-412.316 1064,-406 1106.77,-361.085 1117.17,-283.903 1119.69,-247.757"/>
<polygon fill="midnightblue" stroke="midnightblue" points="1123.2,-247.737 1120.27,-237.556 1116.21,-247.344 1123.2,-247.737"/>
</g>
<!-- Node10&#45;&gt;Node12 -->
<g id="edge16" class="edge"><title>Node10&#45;&gt;Node12</title>
<path fill="none" stroke="midnightblue" d="M1013.67,-420.337C1028.56,-409.406 1051.52,-390.206 1064,-368 1065.47,-365.387 1103.36,-192.397 1116.25,-133.435"/>
<polygon fill="midnightblue" stroke="midnightblue" points="1119.7,-134.049 1118.42,-123.532 1112.86,-132.554 1119.7,-134.049"/>
</g>
<!-- Node13&#45;&gt;Node9 -->
<g id="edge21" class="edge"><title>Node13&#45;&gt;Node9</title>
<path fill="none" stroke="midnightblue" d="M673.635,-296.692C700.918,-320.438 771.355,-381.744 805.45,-411.42"/>
<polygon fill="midnightblue" stroke="midnightblue" points="803.446,-414.315 813.287,-418.241 808.042,-409.035 803.446,-414.315"/>
</g>
<!-- Node13&#45;&gt;Node11 -->
<g id="edge30" class="edge"><title>Node13&#45;&gt;Node11</title>
<path fill="none" stroke="midnightblue" d="M679.77,-277.392C697.726,-267.903 726.94,-253.848 754,-247 879.338,-215.281 1036.25,-221.909 1095.93,-226.021"/>
<polygon fill="midnightblue" stroke="midnightblue" points="1096,-229.535 1106.22,-226.774 1096.51,-222.554 1096,-229.535"/>
</g>
<!-- Node13&#45;&gt;Node12 -->
<g id="edge31" class="edge"><title>Node13&#45;&gt;Node12</title>
<path fill="none" stroke="midnightblue" d="M674.408,-277.346C691.386,-263.865 723.842,-239.133 754,-222 829.609,-179.045 849.538,-167.411 933,-143 986.808,-127.262 1051.95,-119.632 1089.56,-116.286"/>
<polygon fill="midnightblue" stroke="midnightblue" points="1090.19,-119.745 1099.86,-115.416 1089.6,-112.77 1090.19,-119.745"/>
</g>
<!-- Node14 -->
<g id="node14" class="node"><title>Node14</title>
<g id="a_node14"><a xlink:href="unzip_8c.html#a62c48825905347807e4daaf8451809e7" target="_top" xlink:title="unz64local_SearchCentralDir">
<polygon fill="white" stroke="black" points="754,-256.5 754,-275.5 897,-275.5 897,-256.5 754,-256.5"/>
<text text-anchor="middle" x="825.5" y="-263.5" font-family="Helvetica,sans-Serif" font-size="10.00">unz64local_SearchCentralDir</text>
</a>
</g>
</g>
<!-- Node13&#45;&gt;Node14 -->
<g id="edge22" class="edge"><title>Node13&#45;&gt;Node14</title>
<path fill="none" stroke="midnightblue" d="M718.251,-279.773C726.474,-278.707 735.083,-277.591 743.689,-276.476"/>
<polygon fill="midnightblue" stroke="midnightblue" points="744.3,-279.926 753.767,-275.169 743.4,-272.984 744.3,-279.926"/>
</g>
<!-- Node14&#45;&gt;Node5 -->
<g id="edge23" class="edge"><title>Node14&#45;&gt;Node5</title>
<path fill="none" stroke="midnightblue" d="M897.283,-263.356C957.732,-262.565 1038.79,-265.455 1064,-285 1109.32,-320.128 1118.48,-393.718 1120.2,-429.129"/>
<polygon fill="midnightblue" stroke="midnightblue" points="1116.7,-429.309 1120.53,-439.188 1123.7,-429.077 1116.7,-429.309"/>
</g>
<!-- Node14&#45;&gt;Node11 -->
<g id="edge28" class="edge"><title>Node14&#45;&gt;Node11</title>
<path fill="none" stroke="midnightblue" d="M897.245,-256.666C909.179,-255.101 921.441,-253.499 933,-252 991.693,-244.386 1060.74,-235.589 1096.43,-231.054"/>
<polygon fill="midnightblue" stroke="midnightblue" points="1096.91,-234.522 1106.39,-229.79 1096.02,-227.578 1096.91,-234.522"/>
</g>
<!-- Node14&#45;&gt;Node12 -->
<g id="edge29" class="edge"><title>Node14&#45;&gt;Node12</title>
<path fill="none" stroke="midnightblue" d="M844.891,-256.492C894.905,-230.634 1033.61,-158.924 1092.97,-128.234"/>
<polygon fill="midnightblue" stroke="midnightblue" points="1094.84,-131.206 1102.12,-123.505 1091.63,-124.988 1094.84,-131.206"/>
</g>
<!-- Node15 -->
<g id="node15" class="node"><title>Node15</title>
<g id="a_node15"><a xlink:href="unzip_8c.html#ad6a67f9e44f1e69bfc5fbdf9c49faa7f" target="_top" xlink:title="unz64local_SearchCentral\lDir64">
<polygon fill="white" stroke="black" points="933,-295 933,-325 1064,-325 1064,-295 933,-295"/>
<text text-anchor="start" x="941" y="-313" font-family="Helvetica,sans-Serif" font-size="10.00">unz64local_SearchCentral</text>
<text text-anchor="middle" x="998.5" y="-302" font-family="Helvetica,sans-Serif" font-size="10.00">Dir64</text>
</a>
</g>
</g>
<!-- Node14&#45;&gt;Node15 -->
<g id="edge24" class="edge"><title>Node14&#45;&gt;Node15</title>
<path fill="none" stroke="midnightblue" d="M863.604,-275.547C882.771,-280.479 906.776,-286.656 929.147,-292.412"/>
<polygon fill="midnightblue" stroke="midnightblue" points="928.394,-295.832 938.951,-294.935 930.138,-289.053 928.394,-295.832"/>
</g>
<!-- Node15&#45;&gt;Node5 -->
<g id="edge25" class="edge"><title>Node15&#45;&gt;Node5</title>
<path fill="none" stroke="midnightblue" d="M1012.68,-325.14C1035.33,-351.157 1081.5,-404.193 1105.4,-431.655"/>
<polygon fill="midnightblue" stroke="midnightblue" points="1102.85,-434.054 1112.05,-439.298 1108.13,-429.458 1102.85,-434.054"/>
</g>
<!-- Node15&#45;&gt;Node8 -->
<g id="edge26" class="edge"><title>Node15&#45;&gt;Node8</title>
<path fill="none" stroke="midnightblue" d="M932.818,-317.967C839.976,-329.403 670.154,-350.32 579.435,-361.494"/>
<polygon fill="midnightblue" stroke="midnightblue" points="578.805,-358.045 569.308,-362.742 579.661,-364.993 578.805,-358.045"/>
</g>
<!-- Node15&#45;&gt;Node13 -->
<g id="edge27" class="edge"><title>Node15&#45;&gt;Node13</title>
<path fill="none" stroke="midnightblue" d="M932.777,-305.556C873.887,-301.513 787.369,-295.573 728.182,-291.509"/>
<polygon fill="midnightblue" stroke="midnightblue" points="728.411,-288.017 718.194,-290.824 727.931,-295.001 728.411,-288.017"/>
</g>
</g>
</svg>
        <g id="navigator" transform="translate(0 0)" fill="#404254">
                <rect fill="#f2f5e9" fill-opacity="0.5" stroke="#606060" stroke-width=".5" x="0" y="0" width="60" height="60"/>
                <use id="zoomplus" xlink:href="#zoomPlus" x="17" y="9" onmousedown="handleZoom(evt,'in')"/>
                <use id="zoomminus" xlink:href="#zoomMin" x="42" y="9" onmousedown="handleZoom(evt,'out')"/>
                <use id="reset" xlink:href="#resetDef" x="30" y="36" onmousedown="handleReset()"/>
                <g id="arrowUp" xlink:href="#dirArrow" transform="translate(30 24)" onmousedown="handlePan(0,-1)">
                  <use xlink:href="#rim" fill="#404040">
                        <set attributeName="fill" to="#808080" begin="arrowUp.mouseover" end="arrowUp.mouseout"/>
                  </use>
                  <path fill="none" stroke="white" stroke-width="1.5" d="M0,-3.0v7 M-2.5,-0.5L0,-3.0L2.5,-0.5"/>
                </g>
                <g id="arrowRight" xlink:href="#dirArrow" transform="rotate(90) translate(36 -43)" onmousedown="handlePan(1,0)">
                  <use xlink:href="#rim" fill="#404040">
                        <set attributeName="fill" to="#808080" begin="arrowRight.mouseover" end="arrowRight.mouseout"/>
                  </use>
                  <path fill="none" stroke="white" stroke-width="1.5" d="M0,-3.0v7 M-2.5,-0.5L0,-3.0L2.5,-0.5"/>
                </g>
                <g id="arrowDown" xlink:href="#dirArrow" transform="rotate(180) translate(-30 -48)" onmousedown="handlePan(0,1)">
                  <use xlink:href="#rim" fill="#404040">
                        <set attributeName="fill" to="#808080" begin="arrowDown.mouseover" end="arrowDown.mouseout"/>
                  </use>
                  <path fill="none" stroke="white" stroke-width="1.5" d="M0,-3.0v7 M-2.5,-0.5L0,-3.0L2.5,-0.5"/>
                </g>
                <g id="arrowLeft" xlink:href="#dirArrow" transform="rotate(270) translate(-36 17)" onmousedown="handlePan(-1,0)">
                  <use xlink:href="#rim" fill="#404040">
                        <set attributeName="fill" to="#808080" begin="arrowLeft.mouseover" end="arrowLeft.mouseout"/>
                  </use>
                  <path fill="none" stroke="white" stroke-width="1.5" d="M0,-3.0v7 M-2.5,-0.5L0,-3.0L2.5,-0.5"/>
                </g>
        </g>
        <svg viewBox="0 0 15 15" width="100%" height="30px" preserveAspectRatio="xMaxYMin meet">
         <g id="arrow_out" transform="scale(0.3 0.3)">
          <a xlink:href="unzip_8c_a65deebb4ecb3ba110c343c21a4cd9a75_cgraph_org.svg" target="_base">
           <rect id="button" ry="5" rx="5" y="6" x="6" height="38" width="38"
                fill="#f2f5e9" fill-opacity="0.5" stroke="#606060" stroke-width="1.0"/>
           <path id="arrow"
             d="M 11.500037,31.436501 C 11.940474,20.09759 22.043105,11.32322 32.158766,21.979434 L 37.068811,17.246167 C 37.068811,17.246167 37.088388,32 37.088388,32 L 22.160133,31.978069 C 22.160133,31.978069 26.997745,27.140456 26.997745,27.140456 C 18.528582,18.264221 13.291696,25.230495 11.500037,31.436501 z"
             style="fill:#404040;"/>
          </a>
         </g>
        </svg>
</svg>
