<?xml version="1.0" encoding="UTF-8" standalone="no"?>
<!DOCTYPE svg PUBLIC "-//W3C//DTD SVG 1.1//EN"
 "http://www.w3.org/Graphics/SVG/1.1/DTD/svg11.dtd">
<!-- Generated by graphviz version 2.38.0 (20140413.2041)
 -->
<!-- Title: unzOpen2 Pages: 1 -->
<svg width="1399pt" height="714pt"
 viewBox="0.00 0.00 1399.00 713.50" xmlns="http://www.w3.org/2000/svg" xmlns:xlink="http://www.w3.org/1999/xlink">
<g id="graph0" class="graph" transform="scale(1 1) rotate(0) translate(4 709.5)">
<title>unzOpen2</title>
<polygon fill="white" stroke="none" points="-4,4 -4,-709.5 1395,-709.5 1395,4 -4,4"/>
<!-- Node1 -->
<g id="node1" class="node"><title>Node1</title>
<polygon fill="#bfbfbf" stroke="black" points="0,-562.5 0,-581.5 61,-581.5 61,-562.5 0,-562.5"/>
<text text-anchor="middle" x="30.5" y="-569.5" font-family="Helvetica,sans-Serif" font-size="10.00">unzOpen2</text>
</g>
<!-- Node2 -->
<g id="node2" class="node"><title>Node2</title>
<g id="a_node2"><a xlink:href="ioapi_8c.html#a0c90747a8b732158bc3666411776affe" target="_top" xlink:title="fill_zlib_filefunc64\l_32_def_from_filefunc32">
<polygon fill="white" stroke="black" points="1189,-675 1189,-705 1312,-705 1312,-675 1189,-675"/>
<text text-anchor="start" x="1197" y="-693" font-family="Helvetica,sans-Serif" font-size="10.00">fill_zlib_filefunc64</text>
<text text-anchor="middle" x="1250.5" y="-682" font-family="Helvetica,sans-Serif" font-size="10.00">_32_def_from_filefunc32</text>
</a>
</g>
</g>
<!-- Node1&#45;&gt;Node2 -->
<g id="edge1" class="edge"><title>Node1&#45;&gt;Node2</title>
<path fill="none" stroke="midnightblue" d="M41.4908,-581.887C72.6153,-611.59 171.733,-698 271.5,-698 271.5,-698 271.5,-698 959.5,-698 1034.33,-698 1119.99,-695.305 1178.7,-693.044"/>
<polygon fill="midnightblue" stroke="midnightblue" points="1179.12,-696.53 1188.97,-692.642 1178.84,-689.535 1179.12,-696.53"/>
</g>
<!-- Node6 -->
<g id="node6" class="node"><title>Node6</title>
<g id="a_node6"><a xlink:href="unzip_8c.html#abf9f03bc622c0405d398cc0088216290" target="_top" xlink:title="unzOpenInternal">
<polygon fill="white" stroke="black" points="97,-425.5 97,-444.5 185,-444.5 185,-425.5 97,-425.5"/>
<text text-anchor="middle" x="141" y="-432.5" font-family="Helvetica,sans-Serif" font-size="10.00">unzOpenInternal</text>
</a>
</g>
</g>
<!-- Node1&#45;&gt;Node6 -->
<g id="edge5" class="edge"><title>Node1&#45;&gt;Node6</title>
<path fill="none" stroke="midnightblue" d="M39.3031,-562.147C57.4453,-539.24 102.678,-482.125 125.842,-452.877"/>
<polygon fill="midnightblue" stroke="midnightblue" points="128.803,-454.776 132.268,-444.763 123.315,-450.43 128.803,-454.776"/>
</g>
<!-- Node3 -->
<g id="node3" class="node"><title>Node3</title>
<g id="a_node3"><a xlink:href="ioapi_8h.html#a39ab6d73c1cd44bc17064c2dcbb3e753" target="_top" xlink:title="voidpf">
<polygon fill="white" stroke="black" points="1348,-560.5 1348,-579.5 1391,-579.5 1391,-560.5 1348,-560.5"/>
<text text-anchor="middle" x="1369.5" y="-567.5" font-family="Helvetica,sans-Serif" font-size="10.00">voidpf</text>
</a>
</g>
</g>
<!-- Node2&#45;&gt;Node3 -->
<g id="edge2" class="edge"><title>Node2&#45;&gt;Node3</title>
<path fill="none" stroke="midnightblue" d="M1290,-674.895C1297.8,-670.781 1305.57,-665.82 1312,-660 1334.37,-639.767 1351.21,-608.667 1360.46,-588.834"/>
<polygon fill="midnightblue" stroke="midnightblue" points="1363.7,-590.164 1364.6,-579.607 1357.31,-587.302 1363.7,-590.164"/>
</g>
<!-- Node4 -->
<g id="node4" class="node"><title>Node4</title>
<g id="a_node4"><a xlink:href="ioapi_8c.html#a7fe44443833975e63fa38620ecfa6abd" target="_top" xlink:title="OF">
<polygon fill="white" stroke="black" points="1354.5,-680.5 1354.5,-699.5 1384.5,-699.5 1384.5,-680.5 1354.5,-680.5"/>
<text text-anchor="middle" x="1369.5" y="-687.5" font-family="Helvetica,sans-Serif" font-size="10.00">OF</text>
</a>
</g>
</g>
<!-- Node2&#45;&gt;Node4 -->
<g id="edge3" class="edge"><title>Node2&#45;&gt;Node4</title>
<path fill="none" stroke="midnightblue" d="M1312.06,-690C1323.44,-690 1334.72,-690 1344.16,-690"/>
<polygon fill="midnightblue" stroke="midnightblue" points="1344.31,-693.5 1354.31,-690 1344.31,-686.5 1344.31,-693.5"/>
</g>
<!-- Node5 -->
<g id="node5" class="node"><title>Node5</title>
<g id="a_node5"><a xlink:href="ioapi_8h.html#a50e9e9d5c30e481de822ad68fe537986" target="_top" xlink:title="uLong">
<polygon fill="white" stroke="black" points="1348,-161.5 1348,-180.5 1391,-180.5 1391,-161.5 1348,-161.5"/>
<text text-anchor="middle" x="1369.5" y="-168.5" font-family="Helvetica,sans-Serif" font-size="10.00">uLong</text>
</a>
</g>
</g>
<!-- Node2&#45;&gt;Node5 -->
<g id="edge4" class="edge"><title>Node2&#45;&gt;Node5</title>
<path fill="none" stroke="midnightblue" d="M1254.94,-674.748C1271.75,-600.152 1345.29,-273.95 1364.1,-190.499"/>
<polygon fill="midnightblue" stroke="midnightblue" points="1367.56,-191.103 1366.34,-180.579 1360.73,-189.564 1367.56,-191.103"/>
</g>
<!-- Node6&#45;&gt;Node3 -->
<g id="edge7" class="edge"><title>Node6&#45;&gt;Node3</title>
<path fill="none" stroke="midnightblue" d="M152.446,-444.589C166.856,-457.344 194.114,-479.813 221,-493 454.38,-607.469 525.559,-646 785.5,-646 785.5,-646 785.5,-646 1103,-646 1197.49,-646 1224.32,-642.236 1312,-607 1324.96,-601.792 1338.09,-593.421 1348.43,-585.957"/>
<polygon fill="midnightblue" stroke="midnightblue" points="1350.82,-588.536 1356.72,-579.734 1346.62,-582.938 1350.82,-588.536"/>
</g>
<!-- Node6&#45;&gt;Node5 -->
<g id="edge6" class="edge"><title>Node6&#45;&gt;Node5</title>
<path fill="none" stroke="midnightblue" d="M142.875,-425.36C147.736,-373.794 172.94,-130.83 221,-76 286.289,-1.51499 331.451,-0 430.5,-0 430.5,-0 430.5,-0 1103,-0 1201.25,-0 1236.35,-9.31268 1312,-72 1337.67,-93.2686 1354.02,-129.408 1362.2,-151.641"/>
<polygon fill="midnightblue" stroke="midnightblue" points="1358.97,-153.019 1365.57,-161.313 1365.58,-150.718 1358.97,-153.019"/>
</g>
<!-- Node7 -->
<g id="node7" class="node"><title>Node7</title>
<g id="a_node7"><a xlink:href="ioapi_8c.html#aa67e4de04de04bf2d1694febd74bd16f" target="_top" xlink:title="fill_fopen64_filefunc">
<polygon fill="white" stroke="black" points="221,-650.5 221,-669.5 324,-669.5 324,-650.5 221,-650.5"/>
<text text-anchor="middle" x="272.5" y="-657.5" font-family="Helvetica,sans-Serif" font-size="10.00">fill_fopen64_filefunc</text>
</a>
</g>
</g>
<!-- Node6&#45;&gt;Node7 -->
<g id="edge8" class="edge"><title>Node6&#45;&gt;Node7</title>
<path fill="none" stroke="midnightblue" d="M143.261,-444.718C147.834,-476.294 166.259,-577.335 221,-636 224.382,-639.624 228.423,-642.757 232.727,-645.451"/>
<polygon fill="midnightblue" stroke="midnightblue" points="231.345,-648.683 241.803,-650.38 234.686,-642.532 231.345,-648.683"/>
</g>
<!-- Node8 -->
<g id="node8" class="node"><title>Node8</title>
<g id="a_node8"><a xlink:href="unzip_8c.html#a62c48825905347807e4daaf8451809e7" target="_top" xlink:title="unz64local_SearchCentralDir">
<polygon fill="white" stroke="black" points="360,-484.5 360,-503.5 503,-503.5 503,-484.5 360,-484.5"/>
<text text-anchor="middle" x="431.5" y="-491.5" font-family="Helvetica,sans-Serif" font-size="10.00">unz64local_SearchCentralDir</text>
</a>
</g>
</g>
<!-- Node6&#45;&gt;Node8 -->
<g id="edge9" class="edge"><title>Node6&#45;&gt;Node8</title>
<path fill="none" stroke="midnightblue" d="M159.319,-444.513C174.96,-452.651 198.853,-463.976 221,-470 262.597,-481.313 310.25,-487.297 349.589,-490.46"/>
<polygon fill="midnightblue" stroke="midnightblue" points="349.427,-493.958 359.663,-491.224 349.956,-486.978 349.427,-493.958"/>
</g>
<!-- Node9 -->
<g id="node9" class="node"><title>Node9</title>
<g id="a_node9"><a xlink:href="unzip_8c.html#ad6a67f9e44f1e69bfc5fbdf9c49faa7f" target="_top" xlink:title="unz64local_SearchCentral\lDir64">
<polygon fill="white" stroke="black" points="539.5,-397 539.5,-427 670.5,-427 670.5,-397 539.5,-397"/>
<text text-anchor="start" x="547.5" y="-415" font-family="Helvetica,sans-Serif" font-size="10.00">unz64local_SearchCentral</text>
<text text-anchor="middle" x="605" y="-404" font-family="Helvetica,sans-Serif" font-size="10.00">Dir64</text>
</a>
</g>
</g>
<!-- Node6&#45;&gt;Node9 -->
<g id="edge38" class="edge"><title>Node6&#45;&gt;Node9</title>
<path fill="none" stroke="midnightblue" d="M185.049,-432.857C263.692,-428.942 431.466,-420.589 529.162,-415.726"/>
<polygon fill="midnightblue" stroke="midnightblue" points="529.45,-419.216 539.263,-415.223 529.102,-412.224 529.45,-419.216"/>
</g>
<!-- Node10 -->
<g id="node10" class="node"><title>Node10</title>
<g id="a_node10"><a xlink:href="unzip_8c.html#ad3fe51136556c1c4a1e964a157d153ba" target="_top" xlink:title="unz64local_getLong">
<polygon fill="white" stroke="black" points="735,-332.5 735,-351.5 838,-351.5 838,-332.5 735,-332.5"/>
<text text-anchor="middle" x="786.5" y="-339.5" font-family="Helvetica,sans-Serif" font-size="10.00">unz64local_getLong</text>
</a>
</g>
</g>
<!-- Node6&#45;&gt;Node10 -->
<g id="edge36" class="edge"><title>Node6&#45;&gt;Node10</title>
<path fill="none" stroke="midnightblue" d="M185.023,-427.741C196.689,-425.822 209.321,-423.788 221,-422 404.224,-393.945 621.451,-364.127 724.893,-350.137"/>
<polygon fill="midnightblue" stroke="midnightblue" points="725.401,-353.601 734.843,-348.793 724.464,-346.664 725.401,-353.601"/>
</g>
<!-- Node13 -->
<g id="node13" class="node"><title>Node13</title>
<g id="a_node13"><a xlink:href="unzip_8c.html#aca92d6709924f9c82ce13f0c18cc26b1" target="_top" xlink:title="unz64local_getShort">
<polygon fill="white" stroke="black" points="1198,-218.5 1198,-237.5 1303,-237.5 1303,-218.5 1198,-218.5"/>
<text text-anchor="middle" x="1250.5" y="-225.5" font-family="Helvetica,sans-Serif" font-size="10.00">unz64local_getShort</text>
</a>
</g>
</g>
<!-- Node6&#45;&gt;Node13 -->
<g id="edge37" class="edge"><title>Node6&#45;&gt;Node13</title>
<path fill="none" stroke="midnightblue" d="M143.92,-425.186C156.496,-364.052 232.834,-38 430.5,-38 430.5,-38 430.5,-38 787.5,-38 970.181,-38 1165.02,-166.635 1228.33,-212.219"/>
<polygon fill="midnightblue" stroke="midnightblue" points="1226.56,-215.257 1236.7,-218.317 1230.68,-209.599 1226.56,-215.257"/>
</g>
<!-- Node15 -->
<g id="node15" class="node"><title>Node15</title>
<g id="a_node15"><a xlink:href="unzip_8c.html#a65165fb74a10780ee7b66e9c6c57da3c" target="_top" xlink:title="unz64local_getLong64">
<polygon fill="white" stroke="black" points="902,-484.5 902,-503.5 1015,-503.5 1015,-484.5 902,-484.5"/>
<text text-anchor="middle" x="958.5" y="-491.5" font-family="Helvetica,sans-Serif" font-size="10.00">unz64local_getLong64</text>
</a>
</g>
</g>
<!-- Node6&#45;&gt;Node15 -->
<g id="edge39" class="edge"><title>Node6&#45;&gt;Node15</title>
<path fill="none" stroke="midnightblue" d="M185.428,-440.137C241.827,-446.354 343.369,-456 430.5,-456 430.5,-456 430.5,-456 606,-456 706.771,-456 822.856,-471.629 893.168,-482.84"/>
<polygon fill="midnightblue" stroke="midnightblue" points="892.772,-486.322 903.202,-484.46 893.888,-479.411 892.772,-486.322"/>
</g>
<!-- Node16 -->
<g id="node16" class="node"><title>Node16</title>
<g id="a_node16"><a xlink:href="unzip_8c.html#a54821c0b6da683800164a56f2ae14f33" target="_top" xlink:title="unzGoToFirstFile">
<polygon fill="white" stroke="black" points="226.5,-301.5 226.5,-320.5 318.5,-320.5 318.5,-301.5 226.5,-301.5"/>
<text text-anchor="middle" x="272.5" y="-308.5" font-family="Helvetica,sans-Serif" font-size="10.00">unzGoToFirstFile</text>
</a>
</g>
</g>
<!-- Node6&#45;&gt;Node16 -->
<g id="edge40" class="edge"><title>Node6&#45;&gt;Node16</title>
<path fill="none" stroke="midnightblue" d="M149.727,-425.278C163.251,-408.553 192.493,-373.662 221,-348 229.482,-340.365 239.501,-332.768 248.37,-326.463"/>
<polygon fill="midnightblue" stroke="midnightblue" points="250.542,-329.216 256.756,-320.635 246.547,-323.468 250.542,-329.216"/>
</g>
<!-- Node8&#45;&gt;Node3 -->
<g id="edge35" class="edge"><title>Node8&#45;&gt;Node3</title>
<path fill="none" stroke="midnightblue" d="M449.142,-503.523C498.64,-530.922 649.935,-608 785.5,-608 785.5,-608 785.5,-608 1103,-608 1188.89,-608 1288.85,-588.27 1338.01,-577.243"/>
<polygon fill="midnightblue" stroke="midnightblue" points="1339.02,-580.604 1347.99,-574.968 1337.46,-573.78 1339.02,-580.604"/>
</g>
<!-- Node8&#45;&gt;Node5 -->
<g id="edge10" class="edge"><title>Node8&#45;&gt;Node5</title>
<path fill="none" stroke="midnightblue" d="M436.079,-484.468C447.999,-453.337 488.471,-352.437 539,-279 619.449,-162.079 643.576,-76 785.5,-76 785.5,-76 785.5,-76 1103,-76 1197.11,-76 1229.07,-65.5043 1312,-110 1330.78,-120.078 1346.69,-138.823 1356.8,-152.885"/>
<polygon fill="midnightblue" stroke="midnightblue" points="1354.03,-155.04 1362.57,-161.312 1359.81,-151.084 1354.03,-155.04"/>
</g>
<!-- Node8&#45;&gt;Node9 -->
<g id="edge11" class="edge"><title>Node8&#45;&gt;Node9</title>
<path fill="none" stroke="midnightblue" d="M452.509,-484.433C479.485,-471.535 528.153,-448.265 563.053,-431.578"/>
<polygon fill="midnightblue" stroke="midnightblue" points="564.99,-434.532 572.502,-427.06 561.971,-428.216 564.99,-434.532"/>
</g>
<!-- Node14 -->
<g id="node14" class="node"><title>Node14</title>
<g id="a_node14"><a xlink:href="unzip_8c.html#a5f1693991177fe0570e4c9bf0b95e510" target="_top" xlink:title="OF">
<polygon fill="white" stroke="black" points="1354.5,-408.5 1354.5,-427.5 1384.5,-427.5 1384.5,-408.5 1354.5,-408.5"/>
<text text-anchor="middle" x="1369.5" y="-415.5" font-family="Helvetica,sans-Serif" font-size="10.00">OF</text>
</a>
</g>
</g>
<!-- Node8&#45;&gt;Node14 -->
<g id="edge34" class="edge"><title>Node8&#45;&gt;Node14</title>
<path fill="none" stroke="midnightblue" d="M487.031,-503.54C556.218,-514.796 679.327,-532 785.5,-532 785.5,-532 785.5,-532 1103,-532 1201.58,-532 1305.27,-464.819 1348.13,-433.602"/>
<polygon fill="midnightblue" stroke="midnightblue" points="1350.38,-436.291 1356.33,-427.523 1346.21,-430.668 1350.38,-436.291"/>
</g>
<!-- Node9&#45;&gt;Node5 -->
<g id="edge12" class="edge"><title>Node9&#45;&gt;Node5</title>
<path fill="none" stroke="midnightblue" d="M619.26,-396.984C637.309,-377.392 671.454,-343.23 707,-323 901.424,-212.349 967.936,-212.279 1189,-178 1240.67,-169.988 1301.65,-169.468 1337.58,-170.063"/>
<polygon fill="midnightblue" stroke="midnightblue" points="1337.82,-173.569 1347.89,-170.277 1337.97,-166.57 1337.82,-173.569"/>
</g>
<!-- Node9&#45;&gt;Node10 -->
<g id="edge13" class="edge"><title>Node9&#45;&gt;Node10</title>
<path fill="none" stroke="midnightblue" d="M644.507,-396.983C676.39,-384.55 721.248,-367.056 751.744,-355.164"/>
<polygon fill="midnightblue" stroke="midnightblue" points="753.061,-358.407 761.106,-351.513 750.517,-351.886 753.061,-358.407"/>
</g>
<!-- Node9&#45;&gt;Node15 -->
<g id="edge33" class="edge"><title>Node9&#45;&gt;Node15</title>
<path fill="none" stroke="midnightblue" d="M670.634,-409.911C724.749,-410.368 803.013,-416.259 866,-442 884.763,-449.668 884.558,-459.673 902,-470 908.397,-473.787 915.501,-477.316 922.432,-480.439"/>
<polygon fill="midnightblue" stroke="midnightblue" points="921.125,-483.687 931.693,-484.432 923.897,-477.259 921.125,-483.687"/>
</g>
<!-- Node10&#45;&gt;Node3 -->
<g id="edge32" class="edge"><title>Node10&#45;&gt;Node3</title>
<path fill="none" stroke="midnightblue" d="M838.296,-346.533C847.921,-348.799 857.598,-352.128 866,-357 887.268,-369.333 881.558,-385.341 902,-399 1061.4,-505.504 1139.2,-449.987 1312,-533 1324.43,-538.969 1337.35,-547.259 1347.7,-554.479"/>
<polygon fill="midnightblue" stroke="midnightblue" points="1345.89,-557.484 1356.06,-560.463 1349.97,-551.794 1345.89,-557.484"/>
</g>
<!-- Node10&#45;&gt;Node5 -->
<g id="edge14" class="edge"><title>Node10&#45;&gt;Node5</title>
<path fill="none" stroke="midnightblue" d="M813.033,-332.438C876.13,-309.051 1044.76,-248.029 1189,-209 1240.77,-194.991 1302.09,-182.971 1338.01,-176.384"/>
<polygon fill="midnightblue" stroke="midnightblue" points="1338.65,-179.825 1347.86,-174.596 1337.4,-172.937 1338.65,-179.825"/>
</g>
<!-- Node11 -->
<g id="node11" class="node"><title>Node11</title>
<g id="a_node11"><a xlink:href="unzip_8c.html#a4fdc20c5d880511c727c425b1f11ef68" target="_top" xlink:title="unz64local_getByte">
<polygon fill="white" stroke="black" points="1051,-351.5 1051,-370.5 1153,-370.5 1153,-351.5 1051,-351.5"/>
<text text-anchor="middle" x="1102" y="-358.5" font-family="Helvetica,sans-Serif" font-size="10.00">unz64local_getByte</text>
</a>
</g>
</g>
<!-- Node10&#45;&gt;Node11 -->
<g id="edge15" class="edge"><title>Node10&#45;&gt;Node11</title>
<path fill="none" stroke="midnightblue" d="M838.126,-349.257C857.998,-351.826 881.029,-354.458 902,-356 948.45,-359.415 1001.14,-360.62 1040.64,-360.996"/>
<polygon fill="midnightblue" stroke="midnightblue" points="1040.61,-364.496 1050.64,-361.076 1040.66,-357.496 1040.61,-364.496"/>
</g>
<!-- Node10&#45;&gt;Node14 -->
<g id="edge31" class="edge"><title>Node10&#45;&gt;Node14</title>
<path fill="none" stroke="midnightblue" d="M838.177,-349.912C847.524,-351.87 857.129,-354.222 866,-357 882.709,-362.233 885.067,-368.546 902,-373 1066.73,-416.328 1274,-418.885 1344.08,-418.378"/>
<polygon fill="midnightblue" stroke="midnightblue" points="1344.51,-421.874 1354.48,-418.271 1344.44,-414.874 1344.51,-421.874"/>
</g>
<!-- Node10&#45;&gt;Node15 -->
<g id="edge26" class="edge"><title>Node10&#45;&gt;Node15</title>
<path fill="none" stroke="midnightblue" d="M838.195,-349.902C848.382,-353.45 858.305,-358.581 866,-366 901.213,-399.949 868.733,-434.142 902,-470 905.524,-473.799 909.753,-477.025 914.283,-479.758"/>
<polygon fill="midnightblue" stroke="midnightblue" points="912.773,-482.918 923.26,-484.427 916.003,-476.707 912.773,-482.918"/>
</g>
<!-- Node11&#45;&gt;Node3 -->
<g id="edge24" class="edge"><title>Node11&#45;&gt;Node3</title>
<path fill="none" stroke="midnightblue" d="M1128.08,-370.503C1170.09,-387.388 1255.61,-425.989 1312,-480 1333.67,-500.757 1350.61,-531.468 1360.08,-551.106"/>
<polygon fill="midnightblue" stroke="midnightblue" points="1356.95,-552.666 1364.34,-560.254 1363.3,-549.711 1356.95,-552.666"/>
</g>
<!-- Node11&#45;&gt;Node5 -->
<g id="edge25" class="edge"><title>Node11&#45;&gt;Node5</title>
<path fill="none" stroke="midnightblue" d="M1129.46,-351.389C1137.54,-347.671 1146.11,-342.875 1153,-337 1174.38,-318.755 1166.33,-301.616 1189,-285 1235.15,-251.178 1265.29,-280.038 1312,-247 1332.98,-232.16 1349.41,-207.105 1359.02,-189.844"/>
<polygon fill="midnightblue" stroke="midnightblue" points="1362.26,-191.191 1363.87,-180.718 1356.08,-187.904 1362.26,-191.191"/>
</g>
<!-- Node12 -->
<g id="node12" class="node"><title>Node12</title>
<g id="a_node12"><a xlink:href="ioapi_8h.html#a787fa3cf048117ba7123753c1e74fcd6" target="_top" xlink:title="int">
<polygon fill="white" stroke="black" points="1236,-294.5 1236,-313.5 1265,-313.5 1265,-294.5 1236,-294.5"/>
<text text-anchor="middle" x="1250.5" y="-301.5" font-family="Helvetica,sans-Serif" font-size="10.00">int</text>
</a>
</g>
</g>
<!-- Node11&#45;&gt;Node12 -->
<g id="edge16" class="edge"><title>Node11&#45;&gt;Node12</title>
<path fill="none" stroke="midnightblue" d="M1127.52,-351.459C1155.11,-340.724 1199.58,-323.421 1226.52,-312.939"/>
<polygon fill="midnightblue" stroke="midnightblue" points="1227.87,-316.172 1235.92,-309.284 1225.33,-309.648 1227.87,-316.172"/>
</g>
<!-- Node11&#45;&gt;Node13 -->
<g id="edge17" class="edge"><title>Node11&#45;&gt;Node13</title>
<path fill="none" stroke="midnightblue" d="M1114.33,-351.306C1125.49,-345.735 1142.36,-339.146 1153,-328 1181.32,-298.318 1159.66,-271.675 1189,-243 1189.25,-242.756 1189.5,-242.514 1189.76,-242.274"/>
<polygon fill="midnightblue" stroke="midnightblue" points="1192.09,-244.897 1197.83,-235.993 1187.79,-239.374 1192.09,-244.897"/>
</g>
<!-- Node11&#45;&gt;Node14 -->
<g id="edge23" class="edge"><title>Node11&#45;&gt;Node14</title>
<path fill="none" stroke="midnightblue" d="M1153.13,-352.574C1196.76,-347.447 1260.85,-345.336 1312,-366 1329.31,-372.992 1344.58,-387.89 1354.87,-399.956"/>
<polygon fill="midnightblue" stroke="midnightblue" points="1352.44,-402.508 1361.44,-408.087 1357.88,-398.108 1352.44,-402.508"/>
</g>
<!-- Node13&#45;&gt;Node3 -->
<g id="edge22" class="edge"><title>Node13&#45;&gt;Node3</title>
<path fill="none" stroke="midnightblue" d="M1265.93,-237.512C1279.98,-247.583 1300.82,-264.798 1312,-285 1324.96,-308.426 1355.29,-489.029 1365.26,-549.983"/>
<polygon fill="midnightblue" stroke="midnightblue" points="1361.86,-550.896 1366.92,-560.203 1368.77,-549.77 1361.86,-550.896"/>
</g>
<!-- Node13&#45;&gt;Node5 -->
<g id="edge18" class="edge"><title>Node13&#45;&gt;Node5</title>
<path fill="none" stroke="midnightblue" d="M1278.08,-218.453C1288.78,-214.354 1301.13,-209.293 1312,-204 1323.1,-198.593 1334.97,-191.827 1344.94,-185.831"/>
<polygon fill="midnightblue" stroke="midnightblue" points="1346.79,-188.805 1353.49,-180.603 1343.14,-182.832 1346.79,-188.805"/>
</g>
<!-- Node13&#45;&gt;Node10 -->
<g id="edge20" class="edge"><title>Node13&#45;&gt;Node10</title>
<path fill="none" stroke="midnightblue" d="M1200.67,-237.533C1196.61,-239.09 1192.66,-240.899 1189,-243 1169.1,-254.422 1173.31,-269.333 1153,-280 1055.18,-331.372 924.185,-341.725 848.503,-342.972"/>
<polygon fill="midnightblue" stroke="midnightblue" points="848.159,-339.476 838.201,-343.091 848.24,-346.475 848.159,-339.476"/>
</g>
<!-- Node13&#45;&gt;Node11 -->
<g id="edge19" class="edge"><title>Node13&#45;&gt;Node11</title>
<path fill="none" stroke="midnightblue" d="M1234.53,-237.545C1221.06,-242.542 1201.53,-248.758 1189,-261 1161.84,-287.547 1178.39,-312.352 1153.69,-343.746"/>
<polygon fill="midnightblue" stroke="midnightblue" points="1150.9,-341.615 1146.91,-351.428 1156.15,-346.247 1150.9,-341.615"/>
</g>
<!-- Node13&#45;&gt;Node14 -->
<g id="edge21" class="edge"><title>Node13&#45;&gt;Node14</title>
<path fill="none" stroke="midnightblue" d="M1264.58,-237.653C1277.96,-248.087 1298.64,-265.817 1312,-285 1337.46,-321.547 1354.78,-371.37 1363.01,-398.477"/>
<polygon fill="midnightblue" stroke="midnightblue" points="1359.71,-399.683 1365.89,-408.294 1366.43,-397.713 1359.71,-399.683"/>
</g>
<!-- Node15&#45;&gt;Node3 -->
<g id="edge30" class="edge"><title>Node15&#45;&gt;Node3</title>
<path fill="none" stroke="midnightblue" d="M1010.89,-503.548C1097,-519.551 1267.89,-551.304 1337.7,-564.277"/>
<polygon fill="midnightblue" stroke="midnightblue" points="1337.16,-567.736 1347.63,-566.122 1338.44,-560.853 1337.16,-567.736"/>
</g>
<!-- Node15&#45;&gt;Node8 -->
<g id="edge28" class="edge"><title>Node15&#45;&gt;Node8</title>
<path fill="none" stroke="midnightblue" d="M901.746,-494C808.559,-494 620.81,-494 513.19,-494"/>
<polygon fill="midnightblue" stroke="midnightblue" points="513.031,-490.5 503.031,-494 513.031,-497.5 513.031,-490.5"/>
</g>
<!-- Node15&#45;&gt;Node11 -->
<g id="edge27" class="edge"><title>Node15&#45;&gt;Node11</title>
<path fill="none" stroke="midnightblue" d="M969.676,-484.435C993.425,-462.113 1052.77,-406.336 1082.87,-378.039"/>
<polygon fill="midnightblue" stroke="midnightblue" points="1085.64,-380.236 1090.53,-370.837 1080.85,-375.136 1085.64,-380.236"/>
</g>
<!-- Node15&#45;&gt;Node14 -->
<g id="edge29" class="edge"><title>Node15&#45;&gt;Node14</title>
<path fill="none" stroke="midnightblue" d="M1015.29,-485.404C1084.97,-474.387 1207.74,-454.058 1312,-432 1322.6,-429.757 1334.23,-426.937 1344.17,-424.417"/>
<polygon fill="midnightblue" stroke="midnightblue" points="1345.36,-427.727 1354.17,-421.842 1343.61,-420.948 1345.36,-427.727"/>
</g>
<!-- Node17 -->
<g id="node17" class="node"><title>Node17</title>
<g id="a_node17"><a xlink:href="unzip_8c.html#a73eb13cdd8085ee7901d3b8650aa5ae6" target="_top" xlink:title="unzGoToFirstFile2">
<polygon fill="white" stroke="black" points="383,-297.5 383,-316.5 480,-316.5 480,-297.5 383,-297.5"/>
<text text-anchor="middle" x="431.5" y="-304.5" font-family="Helvetica,sans-Serif" font-size="10.00">unzGoToFirstFile2</text>
</a>
</g>
</g>
<!-- Node16&#45;&gt;Node17 -->
<g id="edge41" class="edge"><title>Node16&#45;&gt;Node17</title>
<path fill="none" stroke="midnightblue" d="M318.911,-309.843C335.642,-309.417 354.827,-308.928 372.517,-308.477"/>
<polygon fill="midnightblue" stroke="midnightblue" points="372.823,-311.971 382.73,-308.217 372.644,-304.973 372.823,-311.971"/>
</g>
<!-- Node18 -->
<g id="node18" class="node"><title>Node18</title>
<g id="a_node18"><a xlink:href="unzip_8c.html#a7e95bff78b7b5e9e99e30b28d68da361" target="_top" xlink:title="unz64local_GetCurrentFile\lInfoInternal">
<polygon fill="white" stroke="black" points="539,-289 539,-319 671,-319 671,-289 539,-289"/>
<text text-anchor="start" x="547" y="-307" font-family="Helvetica,sans-Serif" font-size="10.00">unz64local_GetCurrentFile</text>
<text text-anchor="middle" x="605" y="-296" font-family="Helvetica,sans-Serif" font-size="10.00">InfoInternal</text>
</a>
</g>
</g>
<!-- Node17&#45;&gt;Node18 -->
<g id="edge42" class="edge"><title>Node17&#45;&gt;Node18</title>
<path fill="none" stroke="midnightblue" d="M480.272,-306.164C495.292,-305.902 512.261,-305.605 528.708,-305.317"/>
<polygon fill="midnightblue" stroke="midnightblue" points="528.922,-308.814 538.859,-305.139 528.8,-301.815 528.922,-308.814"/>
</g>
<!-- Node18&#45;&gt;Node5 -->
<g id="edge43" class="edge"><title>Node18&#45;&gt;Node5</title>
<path fill="none" stroke="midnightblue" d="M609.834,-288.782C619.451,-254.146 648.154,-169.607 707,-133 801.806,-74.0234 845.847,-114 957.5,-114 957.5,-114 957.5,-114 1103,-114 1196.5,-114 1223.29,-108.457 1312,-138 1324.38,-142.122 1337.02,-149.187 1347.2,-155.725"/>
<polygon fill="midnightblue" stroke="midnightblue" points="1345.52,-158.815 1355.78,-161.481 1349.42,-153.002 1345.52,-158.815"/>
</g>
<!-- Node18&#45;&gt;Node10 -->
<g id="edge44" class="edge"><title>Node18&#45;&gt;Node10</title>
<path fill="none" stroke="midnightblue" d="M671.057,-317.773C690.618,-321.914 711.876,-326.414 730.702,-330.399"/>
<polygon fill="midnightblue" stroke="midnightblue" points="730.085,-333.846 740.593,-332.493 731.534,-326.998 730.085,-333.846"/>
</g>
<!-- Node18&#45;&gt;Node11 -->
<g id="edge48" class="edge"><title>Node18&#45;&gt;Node11</title>
<path fill="none" stroke="midnightblue" d="M671.06,-307.175C723.742,-310.125 799.809,-315.245 866,-323 925.657,-329.99 993.319,-341.291 1040.67,-349.755"/>
<polygon fill="midnightblue" stroke="midnightblue" points="1040.29,-353.243 1050.75,-351.569 1041.53,-346.353 1040.29,-353.243"/>
</g>
<!-- Node18&#45;&gt;Node13 -->
<g id="edge45" class="edge"><title>Node18&#45;&gt;Node13</title>
<path fill="none" stroke="midnightblue" d="M671.243,-296.294C795.744,-281.59 1065.65,-249.714 1187.54,-235.318"/>
<polygon fill="midnightblue" stroke="midnightblue" points="1188.29,-238.753 1197.82,-234.104 1187.47,-231.801 1188.29,-238.753"/>
</g>
<!-- Node18&#45;&gt;Node15 -->
<g id="edge47" class="edge"><title>Node18&#45;&gt;Node15</title>
<path fill="none" stroke="midnightblue" d="M629.305,-319.167C649.294,-331.677 679.19,-349.222 707,-361 774.855,-389.737 808.061,-362.467 866,-408 891.053,-427.689 878.18,-448.836 902,-470 906.424,-473.931 911.591,-477.294 916.959,-480.15"/>
<polygon fill="midnightblue" stroke="midnightblue" points="915.553,-483.357 926.088,-484.486 918.557,-477.034 915.553,-483.357"/>
</g>
<!-- Node19 -->
<g id="node19" class="node"><title>Node19</title>
<g id="a_node19"><a xlink:href="unzip_8c.html#a48f0609b270f39b1243d76e69cc6173f" target="_top" xlink:title="unz64local_DosDateToTmuDate">
<polygon fill="white" stroke="black" points="707,-142.5 707,-161.5 866,-161.5 866,-142.5 707,-142.5"/>
<text text-anchor="middle" x="786.5" y="-149.5" font-family="Helvetica,sans-Serif" font-size="10.00">unz64local_DosDateToTmuDate</text>
</a>
</g>
</g>
<!-- Node18&#45;&gt;Node19 -->
<g id="edge46" class="edge"><title>Node18&#45;&gt;Node19</title>
<path fill="none" stroke="midnightblue" d="M613.825,-288.917C628.472,-262.16 662.602,-206.357 707,-176 713.452,-171.589 720.742,-167.966 728.216,-164.996"/>
<polygon fill="midnightblue" stroke="midnightblue" points="729.505,-168.252 737.73,-161.574 727.136,-161.665 729.505,-168.252"/>
</g>
</g>
</svg>
