<?xml version="1.0" encoding="UTF-8" standalone="no"?>
<!DOCTYPE svg PUBLIC "-//W3C//DTD SVG 1.1//EN"
 "http://www.w3.org/Graphics/SVG/1.1/DTD/svg11.dtd">
<!-- Generated by graphviz version 2.38.0 (20140413.2041)
 -->
<!-- Title: unzGoToNextFile Pages: 1 -->
<svg width="1172pt" height="566pt"
 viewBox="0.00 0.00 1172.00 566.12" xmlns="http://www.w3.org/2000/svg" xmlns:xlink="http://www.w3.org/1999/xlink">
<g id="graph0" class="graph" transform="scale(1 1) rotate(0) translate(4 562.125)">
<title>unzGoToNextFile</title>
<polygon fill="white" stroke="none" points="-4,4 -4,-562.125 1168,-562.125 1168,4 -4,4"/>
<!-- Node1 -->
<g id="node1" class="node"><title>Node1</title>
<polygon fill="#bfbfbf" stroke="black" points="0,-247.5 0,-266.5 93,-266.5 93,-247.5 0,-247.5"/>
<text text-anchor="middle" x="46.5" y="-254.5" font-family="Helvetica,sans-Serif" font-size="10.00">unzGoToNextFile</text>
</g>
<!-- Node2 -->
<g id="node2" class="node"><title>Node2</title>
<g id="a_node2"><a xlink:href="unzip_8c.html#a282ded2552d11c3d9a8bfd065428207d" target="_top" xlink:title="unzGoToNextFile2">
<polygon fill="white" stroke="black" points="129,-247.5 129,-266.5 227,-266.5 227,-247.5 129,-247.5"/>
<text text-anchor="middle" x="178" y="-254.5" font-family="Helvetica,sans-Serif" font-size="10.00">unzGoToNextFile2</text>
</a>
</g>
</g>
<!-- Node1&#45;&gt;Node2 -->
<g id="edge1" class="edge"><title>Node1&#45;&gt;Node2</title>
<path fill="none" stroke="midnightblue" d="M93.1569,-257C101.337,-257 109.963,-257 118.446,-257"/>
<polygon fill="midnightblue" stroke="midnightblue" points="118.683,-260.5 128.683,-257 118.683,-253.5 118.683,-260.5"/>
</g>
<!-- Node3 -->
<g id="node3" class="node"><title>Node3</title>
<g id="a_node3"><a xlink:href="unzip_8c.html#a7e95bff78b7b5e9e99e30b28d68da361" target="_top" xlink:title="unz64local_GetCurrentFile\lInfoInternal">
<polygon fill="white" stroke="black" points="263,-242 263,-272 395,-272 395,-242 263,-242"/>
<text text-anchor="start" x="271" y="-260" font-family="Helvetica,sans-Serif" font-size="10.00">unz64local_GetCurrentFile</text>
<text text-anchor="middle" x="329" y="-249" font-family="Helvetica,sans-Serif" font-size="10.00">InfoInternal</text>
</a>
</g>
</g>
<!-- Node2&#45;&gt;Node3 -->
<g id="edge2" class="edge"><title>Node2&#45;&gt;Node3</title>
<path fill="none" stroke="midnightblue" d="M227.376,-257C235.499,-257 244.097,-257 252.708,-257"/>
<polygon fill="midnightblue" stroke="midnightblue" points="252.796,-260.5 262.796,-257 252.796,-253.5 252.796,-260.5"/>
</g>
<!-- Node4 -->
<g id="node4" class="node"><title>Node4</title>
<g id="a_node4"><a xlink:href="ioapi_8h.html#a50e9e9d5c30e481de822ad68fe537986" target="_top" xlink:title="uLong">
<polygon fill="white" stroke="black" points="1121,-440.5 1121,-459.5 1164,-459.5 1164,-440.5 1121,-440.5"/>
<text text-anchor="middle" x="1142.5" y="-447.5" font-family="Helvetica,sans-Serif" font-size="10.00">uLong</text>
</a>
</g>
</g>
<!-- Node3&#45;&gt;Node4 -->
<g id="edge3" class="edge"><title>Node3&#45;&gt;Node4</title>
<path fill="none" stroke="midnightblue" d="M338.013,-272.137C371.265,-332.659 504.94,-554 681.5,-554 681.5,-554 681.5,-554 847.5,-554 954.07,-554 992.43,-573.8 1085,-521 1106.39,-508.8 1122.72,-485.026 1132.2,-468.361"/>
<polygon fill="midnightblue" stroke="midnightblue" points="1135.31,-469.975 1136.98,-459.513 1129.15,-466.652 1135.31,-469.975"/>
</g>
<!-- Node5 -->
<g id="node5" class="node"><title>Node5</title>
<g id="a_node5"><a xlink:href="unzip_8c.html#ad3fe51136556c1c4a1e964a157d153ba" target="_top" xlink:title="unz64local_getLong">
<polygon fill="white" stroke="black" points="459,-304.5 459,-323.5 562,-323.5 562,-304.5 459,-304.5"/>
<text text-anchor="middle" x="510.5" y="-311.5" font-family="Helvetica,sans-Serif" font-size="10.00">unz64local_getLong</text>
</a>
</g>
</g>
<!-- Node3&#45;&gt;Node5 -->
<g id="edge4" class="edge"><title>Node3&#45;&gt;Node5</title>
<path fill="none" stroke="midnightblue" d="M375.442,-272.051C392.802,-277.748 412.796,-284.244 431,-290 442.996,-293.793 456.053,-297.824 468.014,-301.478"/>
<polygon fill="midnightblue" stroke="midnightblue" points="467.169,-304.879 477.755,-304.445 469.209,-298.183 467.169,-304.879"/>
</g>
<!-- Node6 -->
<g id="node6" class="node"><title>Node6</title>
<g id="a_node6"><a xlink:href="unzip_8c.html#a4fdc20c5d880511c727c425b1f11ef68" target="_top" xlink:title="unz64local_getByte">
<polygon fill="white" stroke="black" points="795.5,-190.5 795.5,-209.5 897.5,-209.5 897.5,-190.5 795.5,-190.5"/>
<text text-anchor="middle" x="846.5" y="-197.5" font-family="Helvetica,sans-Serif" font-size="10.00">unz64local_getByte</text>
</a>
</g>
</g>
<!-- Node3&#45;&gt;Node6 -->
<g id="edge34" class="edge"><title>Node3&#45;&gt;Node6</title>
<path fill="none" stroke="midnightblue" d="M368.237,-241.924C386.873,-235.246 409.793,-228.009 431,-224 555.299,-200.505 703.97,-197.944 785.184,-198.657"/>
<polygon fill="midnightblue" stroke="midnightblue" points="785.19,-202.157 795.227,-198.765 785.265,-195.158 785.19,-202.157"/>
</g>
<!-- Node8 -->
<g id="node8" class="node"><title>Node8</title>
<g id="a_node8"><a xlink:href="unzip_8c.html#aca92d6709924f9c82ce13f0c18cc26b1" target="_top" xlink:title="unz64local_getShort">
<polygon fill="white" stroke="black" points="967,-190.5 967,-209.5 1072,-209.5 1072,-190.5 967,-190.5"/>
<text text-anchor="middle" x="1019.5" y="-197.5" font-family="Helvetica,sans-Serif" font-size="10.00">unz64local_getShort</text>
</a>
</g>
</g>
<!-- Node3&#45;&gt;Node8 -->
<g id="edge31" class="edge"><title>Node3&#45;&gt;Node8</title>
<path fill="none" stroke="midnightblue" d="M395.068,-255.394C503.761,-252.129 728.976,-242.885 918,-219 933.029,-217.101 949.203,-214.357 964.089,-211.543"/>
<polygon fill="midnightblue" stroke="midnightblue" points="965.007,-214.931 974.159,-209.593 963.676,-208.058 965.007,-214.931"/>
</g>
<!-- Node11 -->
<g id="node11" class="node"><title>Node11</title>
<g id="a_node11"><a xlink:href="unzip_8c.html#a65165fb74a10780ee7b66e9c6c57da3c" target="_top" xlink:title="unz64local_getLong64">
<polygon fill="white" stroke="black" points="626,-266.5 626,-285.5 739,-285.5 739,-266.5 626,-266.5"/>
<text text-anchor="middle" x="682.5" y="-273.5" font-family="Helvetica,sans-Serif" font-size="10.00">unz64local_getLong64</text>
</a>
</g>
</g>
<!-- Node3&#45;&gt;Node11 -->
<g id="edge33" class="edge"><title>Node3&#45;&gt;Node11</title>
<path fill="none" stroke="midnightblue" d="M395.291,-260.529C458.105,-263.925 552.578,-269.031 615.597,-272.438"/>
<polygon fill="midnightblue" stroke="midnightblue" points="615.645,-275.945 625.819,-272.99 616.022,-268.955 615.645,-275.945"/>
</g>
<!-- Node14 -->
<g id="node14" class="node"><title>Node14</title>
<g id="a_node14"><a xlink:href="unzip_8c.html#a48f0609b270f39b1243d76e69cc6173f" target="_top" xlink:title="unz64local_DosDateToTmuDate">
<polygon fill="white" stroke="black" points="431,-0.5 431,-19.5 590,-19.5 590,-0.5 431,-0.5"/>
<text text-anchor="middle" x="510.5" y="-7.5" font-family="Helvetica,sans-Serif" font-size="10.00">unz64local_DosDateToTmuDate</text>
</a>
</g>
</g>
<!-- Node3&#45;&gt;Node14 -->
<g id="edge32" class="edge"><title>Node3&#45;&gt;Node14</title>
<path fill="none" stroke="midnightblue" d="M332.475,-241.711C339.791,-201.507 365.083,-91.9442 431,-34 435.706,-29.863 441.112,-26.4391 446.837,-23.6054"/>
<polygon fill="midnightblue" stroke="midnightblue" points="448.256,-26.805 456.043,-19.6206 445.476,-20.3809 448.256,-26.805"/>
</g>
<!-- Node5&#45;&gt;Node4 -->
<g id="edge5" class="edge"><title>Node5&#45;&gt;Node4</title>
<path fill="none" stroke="midnightblue" d="M519.352,-323.666C536.564,-344.256 579.785,-392.779 626,-420 686.066,-455.379 707.228,-452.67 775,-469 909.49,-501.405 954.904,-544.037 1085,-497 1101.25,-491.123 1116.13,-478.305 1126.53,-467.537"/>
<polygon fill="midnightblue" stroke="midnightblue" points="1129.39,-469.592 1133.56,-459.852 1124.23,-464.867 1129.39,-469.592"/>
</g>
<!-- Node5&#45;&gt;Node6 -->
<g id="edge6" class="edge"><title>Node5&#45;&gt;Node6</title>
<path fill="none" stroke="midnightblue" d="M528.079,-304.369C549.921,-292.005 589.812,-270.538 626,-257 679.31,-237.057 742.409,-221.461 787.24,-211.662"/>
<polygon fill="midnightblue" stroke="midnightblue" points="788.049,-215.068 797.086,-209.539 786.573,-208.225 788.049,-215.068"/>
</g>
<!-- Node9 -->
<g id="node9" class="node"><title>Node9</title>
<g id="a_node9"><a xlink:href="unzip_8c.html#a5f1693991177fe0570e4c9bf0b95e510" target="_top" xlink:title="OF">
<polygon fill="white" stroke="black" points="1127.5,-114.5 1127.5,-133.5 1157.5,-133.5 1157.5,-114.5 1127.5,-114.5"/>
<text text-anchor="middle" x="1142.5" y="-121.5" font-family="Helvetica,sans-Serif" font-size="10.00">OF</text>
</a>
</g>
</g>
<!-- Node5&#45;&gt;Node9 -->
<g id="edge29" class="edge"><title>Node5&#45;&gt;Node9</title>
<path fill="none" stroke="midnightblue" d="M518.604,-304.457C546.502,-267.773 653.031,-134.993 775,-77 899.935,-17.5967 961.2,12.7351 1085,-49 1108.28,-60.6087 1124.49,-86.8853 1133.4,-105.034"/>
<polygon fill="midnightblue" stroke="midnightblue" points="1130.34,-106.751 1137.7,-114.372 1136.69,-103.824 1130.34,-106.751"/>
</g>
<!-- Node10 -->
<g id="node10" class="node"><title>Node10</title>
<g id="a_node10"><a xlink:href="ioapi_8h.html#a39ab6d73c1cd44bc17064c2dcbb3e753" target="_top" xlink:title="voidpf">
<polygon fill="white" stroke="black" points="1121,-266.5 1121,-285.5 1164,-285.5 1164,-266.5 1121,-266.5"/>
<text text-anchor="middle" x="1142.5" y="-273.5" font-family="Helvetica,sans-Serif" font-size="10.00">voidpf</text>
</a>
</g>
</g>
<!-- Node5&#45;&gt;Node10 -->
<g id="edge30" class="edge"><title>Node5&#45;&gt;Node10</title>
<path fill="none" stroke="midnightblue" d="M562.107,-321.532C581.977,-324.137 605.011,-326.722 626,-328 830.319,-340.445 883.469,-325.87 1085,-290 1093.56,-288.477 1102.75,-286.396 1111.17,-284.305"/>
<polygon fill="midnightblue" stroke="midnightblue" points="1112.16,-287.664 1120.98,-281.786 1110.42,-280.884 1112.16,-287.664"/>
</g>
<!-- Node5&#45;&gt;Node11 -->
<g id="edge17" class="edge"><title>Node5&#45;&gt;Node11</title>
<path fill="none" stroke="midnightblue" d="M554.398,-304.411C577.034,-299.351 604.998,-293.1 628.929,-287.751"/>
<polygon fill="midnightblue" stroke="midnightblue" points="629.915,-291.117 638.91,-285.52 628.388,-284.286 629.915,-291.117"/>
</g>
<!-- Node6&#45;&gt;Node4 -->
<g id="edge16" class="edge"><title>Node6&#45;&gt;Node4</title>
<path fill="none" stroke="midnightblue" d="M859.025,-209.8C903.76,-247.84 1066.18,-385.956 1122.29,-433.661"/>
<polygon fill="midnightblue" stroke="midnightblue" points="1120.17,-436.456 1130.05,-440.267 1124.7,-431.123 1120.17,-436.456"/>
</g>
<!-- Node7 -->
<g id="node7" class="node"><title>Node7</title>
<g id="a_node7"><a xlink:href="ioapi_8h.html#a787fa3cf048117ba7123753c1e74fcd6" target="_top" xlink:title="int">
<polygon fill="white" stroke="black" points="1005,-76.5 1005,-95.5 1034,-95.5 1034,-76.5 1005,-76.5"/>
<text text-anchor="middle" x="1019.5" y="-83.5" font-family="Helvetica,sans-Serif" font-size="10.00">int</text>
</a>
</g>
</g>
<!-- Node6&#45;&gt;Node7 -->
<g id="edge7" class="edge"><title>Node6&#45;&gt;Node7</title>
<path fill="none" stroke="midnightblue" d="M856.617,-190.335C874.03,-172.352 913.873,-133.453 954,-110 966.814,-102.511 982.378,-96.6389 995.008,-92.578"/>
<polygon fill="midnightblue" stroke="midnightblue" points="996.254,-95.8574 1004.8,-89.597 994.215,-89.1607 996.254,-95.8574"/>
</g>
<!-- Node6&#45;&gt;Node8 -->
<g id="edge8" class="edge"><title>Node6&#45;&gt;Node8</title>
<path fill="none" stroke="midnightblue" d="M897.881,-193.784C916.336,-193.191 937.434,-193.092 956.77,-193.487"/>
<polygon fill="midnightblue" stroke="midnightblue" points="956.913,-196.992 966.999,-193.749 957.091,-189.994 956.913,-196.992"/>
</g>
<!-- Node6&#45;&gt;Node9 -->
<g id="edge14" class="edge"><title>Node6&#45;&gt;Node9</title>
<path fill="none" stroke="midnightblue" d="M863.072,-190.364C883.25,-178.365 919.898,-158.205 954,-148 1010.7,-131.033 1080.57,-126.061 1116.91,-124.604"/>
<polygon fill="midnightblue" stroke="midnightblue" points="1117.18,-128.096 1127.06,-124.255 1116.94,-121.101 1117.18,-128.096"/>
</g>
<!-- Node6&#45;&gt;Node10 -->
<g id="edge15" class="edge"><title>Node6&#45;&gt;Node10</title>
<path fill="none" stroke="midnightblue" d="M869.585,-190.485C913.785,-173.02 1014.89,-141.123 1085,-181 1113.51,-197.216 1129.14,-234.13 1136.37,-256.873"/>
<polygon fill="midnightblue" stroke="midnightblue" points="1133.02,-257.868 1139.2,-266.473 1139.73,-255.892 1133.02,-257.868"/>
</g>
<!-- Node8&#45;&gt;Node4 -->
<g id="edge9" class="edge"><title>Node8&#45;&gt;Node4</title>
<path fill="none" stroke="midnightblue" d="M1064.01,-209.58C1071.86,-213.016 1079.34,-217.677 1085,-224 1112.64,-254.902 1132.25,-381.269 1138.96,-430.365"/>
<polygon fill="midnightblue" stroke="midnightblue" points="1135.5,-430.9 1140.29,-440.35 1142.44,-429.975 1135.5,-430.9"/>
</g>
<!-- Node8&#45;&gt;Node5 -->
<g id="edge11" class="edge"><title>Node8&#45;&gt;Node5</title>
<path fill="none" stroke="midnightblue" d="M966.786,-209.189C962.333,-210.82 958.005,-212.74 954,-215 934.019,-226.277 937.94,-240.651 918,-252 808.112,-314.542 655.703,-320.222 572.208,-317.783"/>
<polygon fill="midnightblue" stroke="midnightblue" points="572.241,-314.282 562.128,-317.439 572.003,-321.278 572.241,-314.282"/>
</g>
<!-- Node8&#45;&gt;Node6 -->
<g id="edge10" class="edge"><title>Node8&#45;&gt;Node6</title>
<path fill="none" stroke="midnightblue" d="M966.999,-206.251C948.438,-206.825 927.325,-206.904 908.062,-206.488"/>
<polygon fill="midnightblue" stroke="midnightblue" points="907.971,-202.984 897.881,-206.216 907.784,-209.982 907.971,-202.984"/>
</g>
<!-- Node8&#45;&gt;Node9 -->
<g id="edge12" class="edge"><title>Node8&#45;&gt;Node9</title>
<path fill="none" stroke="midnightblue" d="M1035.82,-190.375C1056.8,-177.199 1094.61,-153.451 1118.86,-138.221"/>
<polygon fill="midnightblue" stroke="midnightblue" points="1120.82,-141.124 1127.42,-132.841 1117.09,-135.196 1120.82,-141.124"/>
</g>
<!-- Node8&#45;&gt;Node10 -->
<g id="edge13" class="edge"><title>Node8&#45;&gt;Node10</title>
<path fill="none" stroke="midnightblue" d="M1053.8,-209.615C1064.19,-213.333 1075.43,-218.129 1085,-224 1100.55,-233.533 1115.61,-247.726 1126.27,-258.877"/>
<polygon fill="midnightblue" stroke="midnightblue" points="1123.83,-261.394 1133.2,-266.349 1128.96,-256.636 1123.83,-261.394"/>
</g>
<!-- Node11&#45;&gt;Node6 -->
<g id="edge18" class="edge"><title>Node11&#45;&gt;Node6</title>
<path fill="none" stroke="midnightblue" d="M704.017,-266.375C732.257,-253.126 783.286,-229.187 815.725,-213.969"/>
<polygon fill="midnightblue" stroke="midnightblue" points="817.582,-216.963 825.149,-209.547 814.609,-210.626 817.582,-216.963"/>
</g>
<!-- Node11&#45;&gt;Node9 -->
<g id="edge27" class="edge"><title>Node11&#45;&gt;Node9</title>
<path fill="none" stroke="midnightblue" d="M690.999,-266.443C719.972,-230.462 829.221,-103.36 954,-67 1009.9,-50.7117 1031.26,-44.6009 1085,-67 1103.81,-74.8397 1119.57,-92.3251 1129.62,-105.877"/>
<polygon fill="midnightblue" stroke="midnightblue" points="1127.03,-108.282 1135.64,-114.463 1132.77,-104.265 1127.03,-108.282"/>
</g>
<!-- Node11&#45;&gt;Node10 -->
<g id="edge28" class="edge"><title>Node11&#45;&gt;Node10</title>
<path fill="none" stroke="midnightblue" d="M739.202,-276C836.452,-276 1034.12,-276 1110.45,-276"/>
<polygon fill="midnightblue" stroke="midnightblue" points="1110.81,-279.5 1120.81,-276 1110.81,-272.5 1110.81,-279.5"/>
</g>
<!-- Node12 -->
<g id="node12" class="node"><title>Node12</title>
<g id="a_node12"><a xlink:href="unzip_8c.html#a62c48825905347807e4daaf8451809e7" target="_top" xlink:title="unz64local_SearchCentralDir">
<polygon fill="white" stroke="black" points="775,-380.5 775,-399.5 918,-399.5 918,-380.5 775,-380.5"/>
<text text-anchor="middle" x="846.5" y="-387.5" font-family="Helvetica,sans-Serif" font-size="10.00">unz64local_SearchCentralDir</text>
</a>
</g>
</g>
<!-- Node11&#45;&gt;Node12 -->
<g id="edge19" class="edge"><title>Node11&#45;&gt;Node12</title>
<path fill="none" stroke="midnightblue" d="M697.033,-285.523C724.956,-305.173 789.188,-350.373 823.289,-374.37"/>
<polygon fill="midnightblue" stroke="midnightblue" points="821.469,-377.369 831.662,-380.262 825.498,-371.645 821.469,-377.369"/>
</g>
<!-- Node12&#45;&gt;Node4 -->
<g id="edge20" class="edge"><title>Node12&#45;&gt;Node4</title>
<path fill="none" stroke="midnightblue" d="M894.085,-399.507C954.828,-411.904 1059.39,-433.243 1110.94,-443.764"/>
<polygon fill="midnightblue" stroke="midnightblue" points="1110.31,-447.207 1120.81,-445.778 1111.71,-440.349 1110.31,-447.207"/>
</g>
<!-- Node12&#45;&gt;Node9 -->
<g id="edge25" class="edge"><title>Node12&#45;&gt;Node9</title>
<path fill="none" stroke="midnightblue" d="M865.49,-380.486C907.879,-357.394 1015.67,-294.676 1085,-219 1106.29,-195.76 1123.52,-163.234 1133.13,-142.906"/>
<polygon fill="midnightblue" stroke="midnightblue" points="1136.35,-144.298 1137.34,-133.75 1129.98,-141.377 1136.35,-144.298"/>
</g>
<!-- Node12&#45;&gt;Node10 -->
<g id="edge26" class="edge"><title>Node12&#45;&gt;Node10</title>
<path fill="none" stroke="midnightblue" d="M918.164,-398.476C968.345,-400.965 1035.35,-396.814 1085,-366 1111.15,-349.771 1127.21,-316.477 1135.23,-295.249"/>
<polygon fill="midnightblue" stroke="midnightblue" points="1138.58,-296.258 1138.61,-285.663 1131.98,-293.928 1138.58,-296.258"/>
</g>
<!-- Node13 -->
<g id="node13" class="node"><title>Node13</title>
<g id="a_node13"><a xlink:href="unzip_8c.html#ad6a67f9e44f1e69bfc5fbdf9c49faa7f" target="_top" xlink:title="unz64local_SearchCentral\lDir64">
<polygon fill="white" stroke="black" points="954,-457 954,-487 1085,-487 1085,-457 954,-457"/>
<text text-anchor="start" x="962" y="-475" font-family="Helvetica,sans-Serif" font-size="10.00">unz64local_SearchCentral</text>
<text text-anchor="middle" x="1019.5" y="-464" font-family="Helvetica,sans-Serif" font-size="10.00">Dir64</text>
</a>
</g>
</g>
<!-- Node12&#45;&gt;Node13 -->
<g id="edge21" class="edge"><title>Node12&#45;&gt;Node13</title>
<path fill="none" stroke="midnightblue" d="M881.025,-399.58C893.028,-403.604 906.44,-408.802 918,-415 935.626,-424.45 936.84,-431.727 954,-442 960.192,-445.707 966.918,-449.285 973.612,-452.599"/>
<polygon fill="midnightblue" stroke="midnightblue" points="972.136,-455.773 982.666,-456.943 975.164,-449.462 972.136,-455.773"/>
</g>
<!-- Node13&#45;&gt;Node4 -->
<g id="edge22" class="edge"><title>Node13&#45;&gt;Node4</title>
<path fill="none" stroke="midnightblue" d="M1085.25,-460.227C1094.14,-458.612 1102.9,-457.019 1110.77,-455.588"/>
<polygon fill="midnightblue" stroke="midnightblue" points="1111.65,-458.984 1120.87,-453.751 1110.4,-452.097 1111.65,-458.984"/>
</g>
<!-- Node13&#45;&gt;Node5 -->
<g id="edge23" class="edge"><title>Node13&#45;&gt;Node5</title>
<path fill="none" stroke="midnightblue" d="M953.987,-470.591C904.204,-468.076 834.086,-461.401 775,-444 680.892,-416.285 579.468,-356.843 534.832,-328.985"/>
<polygon fill="midnightblue" stroke="midnightblue" points="536.52,-325.911 526.193,-323.543 532.789,-331.834 536.52,-325.911"/>
</g>
<!-- Node13&#45;&gt;Node11 -->
<g id="edge24" class="edge"><title>Node13&#45;&gt;Node11</title>
<path fill="none" stroke="midnightblue" d="M953.819,-460.573C891.857,-448.694 803.664,-429.063 775,-409 733.078,-379.657 704.412,-324.518 691.417,-295.304"/>
<polygon fill="midnightblue" stroke="midnightblue" points="694.503,-293.619 687.343,-285.81 688.07,-296.38 694.503,-293.619"/>
</g>
</g>
</svg>
