<?xml version="1.0" encoding="UTF-8" standalone="no"?>
<!DOCTYPE svg PUBLIC "-//W3C//DTD SVG 1.1//EN"
 "http://www.w3.org/Graphics/SVG/1.1/DTD/svg11.dtd">
<!-- Generated by graphviz version 2.38.0 (20140413.2041)
 -->
<!-- Title: unzSetOffset64 Pages: 1 -->
<svg width="1030pt" height="566pt"
 viewBox="0.00 0.00 1030.00 566.12" xmlns="http://www.w3.org/2000/svg" xmlns:xlink="http://www.w3.org/1999/xlink">
<g id="graph0" class="graph" transform="scale(1 1) rotate(0) translate(4 562.125)">
<title>unzSetOffset64</title>
<polygon fill="white" stroke="none" points="-4,4 -4,-562.125 1026,-562.125 1026,4 -4,4"/>
<!-- Node1 -->
<g id="node1" class="node"><title>Node1</title>
<polygon fill="#bfbfbf" stroke="black" points="0,-247.5 0,-266.5 85,-266.5 85,-247.5 0,-247.5"/>
<text text-anchor="middle" x="42.5" y="-254.5" font-family="Helvetica,sans-Serif" font-size="10.00">unzSetOffset64</text>
</g>
<!-- Node2 -->
<g id="node2" class="node"><title>Node2</title>
<g id="a_node2"><a xlink:href="unzip_8c.html#a7e95bff78b7b5e9e99e30b28d68da361" target="_top" xlink:title="unz64local_GetCurrentFile\lInfoInternal">
<polygon fill="white" stroke="black" points="121,-242 121,-272 253,-272 253,-242 121,-242"/>
<text text-anchor="start" x="129" y="-260" font-family="Helvetica,sans-Serif" font-size="10.00">unz64local_GetCurrentFile</text>
<text text-anchor="middle" x="187" y="-249" font-family="Helvetica,sans-Serif" font-size="10.00">InfoInternal</text>
</a>
</g>
</g>
<!-- Node1&#45;&gt;Node2 -->
<g id="edge1" class="edge"><title>Node1&#45;&gt;Node2</title>
<path fill="none" stroke="midnightblue" d="M85.1,-257C93.1301,-257 101.772,-257 110.499,-257"/>
<polygon fill="midnightblue" stroke="midnightblue" points="110.752,-260.5 120.751,-257 110.751,-253.5 110.752,-260.5"/>
</g>
<!-- Node3 -->
<g id="node3" class="node"><title>Node3</title>
<g id="a_node3"><a xlink:href="ioapi_8h.html#a50e9e9d5c30e481de822ad68fe537986" target="_top" xlink:title="uLong">
<polygon fill="white" stroke="black" points="979,-440.5 979,-459.5 1022,-459.5 1022,-440.5 979,-440.5"/>
<text text-anchor="middle" x="1000.5" y="-447.5" font-family="Helvetica,sans-Serif" font-size="10.00">uLong</text>
</a>
</g>
</g>
<!-- Node2&#45;&gt;Node3 -->
<g id="edge2" class="edge"><title>Node2&#45;&gt;Node3</title>
<path fill="none" stroke="midnightblue" d="M196.013,-272.137C229.265,-332.659 362.94,-554 539.5,-554 539.5,-554 539.5,-554 705.5,-554 812.07,-554 850.43,-573.8 943,-521 964.39,-508.8 980.724,-485.026 990.202,-468.361"/>
<polygon fill="midnightblue" stroke="midnightblue" points="993.308,-469.975 994.976,-459.513 987.147,-466.652 993.308,-469.975"/>
</g>
<!-- Node4 -->
<g id="node4" class="node"><title>Node4</title>
<g id="a_node4"><a xlink:href="unzip_8c.html#ad3fe51136556c1c4a1e964a157d153ba" target="_top" xlink:title="unz64local_getLong">
<polygon fill="white" stroke="black" points="317,-304.5 317,-323.5 420,-323.5 420,-304.5 317,-304.5"/>
<text text-anchor="middle" x="368.5" y="-311.5" font-family="Helvetica,sans-Serif" font-size="10.00">unz64local_getLong</text>
</a>
</g>
</g>
<!-- Node2&#45;&gt;Node4 -->
<g id="edge3" class="edge"><title>Node2&#45;&gt;Node4</title>
<path fill="none" stroke="midnightblue" d="M233.442,-272.051C250.802,-277.748 270.796,-284.244 289,-290 300.996,-293.793 314.053,-297.824 326.014,-301.478"/>
<polygon fill="midnightblue" stroke="midnightblue" points="325.169,-304.879 335.755,-304.445 327.209,-298.183 325.169,-304.879"/>
</g>
<!-- Node5 -->
<g id="node5" class="node"><title>Node5</title>
<g id="a_node5"><a xlink:href="unzip_8c.html#a4fdc20c5d880511c727c425b1f11ef68" target="_top" xlink:title="unz64local_getByte">
<polygon fill="white" stroke="black" points="653.5,-190.5 653.5,-209.5 755.5,-209.5 755.5,-190.5 653.5,-190.5"/>
<text text-anchor="middle" x="704.5" y="-197.5" font-family="Helvetica,sans-Serif" font-size="10.00">unz64local_getByte</text>
</a>
</g>
</g>
<!-- Node2&#45;&gt;Node5 -->
<g id="edge33" class="edge"><title>Node2&#45;&gt;Node5</title>
<path fill="none" stroke="midnightblue" d="M226.237,-241.924C244.873,-235.246 267.793,-228.009 289,-224 413.299,-200.505 561.97,-197.944 643.184,-198.657"/>
<polygon fill="midnightblue" stroke="midnightblue" points="643.19,-202.157 653.227,-198.765 643.265,-195.158 643.19,-202.157"/>
</g>
<!-- Node7 -->
<g id="node7" class="node"><title>Node7</title>
<g id="a_node7"><a xlink:href="unzip_8c.html#aca92d6709924f9c82ce13f0c18cc26b1" target="_top" xlink:title="unz64local_getShort">
<polygon fill="white" stroke="black" points="825,-190.5 825,-209.5 930,-209.5 930,-190.5 825,-190.5"/>
<text text-anchor="middle" x="877.5" y="-197.5" font-family="Helvetica,sans-Serif" font-size="10.00">unz64local_getShort</text>
</a>
</g>
</g>
<!-- Node2&#45;&gt;Node7 -->
<g id="edge30" class="edge"><title>Node2&#45;&gt;Node7</title>
<path fill="none" stroke="midnightblue" d="M253.068,-255.394C361.761,-252.129 586.976,-242.885 776,-219 791.029,-217.101 807.203,-214.357 822.089,-211.543"/>
<polygon fill="midnightblue" stroke="midnightblue" points="823.007,-214.931 832.159,-209.593 821.676,-208.058 823.007,-214.931"/>
</g>
<!-- Node10 -->
<g id="node10" class="node"><title>Node10</title>
<g id="a_node10"><a xlink:href="unzip_8c.html#a65165fb74a10780ee7b66e9c6c57da3c" target="_top" xlink:title="unz64local_getLong64">
<polygon fill="white" stroke="black" points="484,-266.5 484,-285.5 597,-285.5 597,-266.5 484,-266.5"/>
<text text-anchor="middle" x="540.5" y="-273.5" font-family="Helvetica,sans-Serif" font-size="10.00">unz64local_getLong64</text>
</a>
</g>
</g>
<!-- Node2&#45;&gt;Node10 -->
<g id="edge32" class="edge"><title>Node2&#45;&gt;Node10</title>
<path fill="none" stroke="midnightblue" d="M253.291,-260.529C316.105,-263.925 410.578,-269.031 473.597,-272.438"/>
<polygon fill="midnightblue" stroke="midnightblue" points="473.645,-275.945 483.819,-272.99 474.022,-268.955 473.645,-275.945"/>
</g>
<!-- Node13 -->
<g id="node13" class="node"><title>Node13</title>
<g id="a_node13"><a xlink:href="unzip_8c.html#a48f0609b270f39b1243d76e69cc6173f" target="_top" xlink:title="unz64local_DosDateToTmuDate">
<polygon fill="white" stroke="black" points="289,-0.5 289,-19.5 448,-19.5 448,-0.5 289,-0.5"/>
<text text-anchor="middle" x="368.5" y="-7.5" font-family="Helvetica,sans-Serif" font-size="10.00">unz64local_DosDateToTmuDate</text>
</a>
</g>
</g>
<!-- Node2&#45;&gt;Node13 -->
<g id="edge31" class="edge"><title>Node2&#45;&gt;Node13</title>
<path fill="none" stroke="midnightblue" d="M190.475,-241.711C197.791,-201.507 223.083,-91.9442 289,-34 293.706,-29.863 299.112,-26.4391 304.837,-23.6054"/>
<polygon fill="midnightblue" stroke="midnightblue" points="306.256,-26.805 314.043,-19.6206 303.476,-20.3809 306.256,-26.805"/>
</g>
<!-- Node4&#45;&gt;Node3 -->
<g id="edge4" class="edge"><title>Node4&#45;&gt;Node3</title>
<path fill="none" stroke="midnightblue" d="M377.352,-323.666C394.564,-344.256 437.785,-392.779 484,-420 544.066,-455.379 565.228,-452.67 633,-469 767.49,-501.405 812.904,-544.037 943,-497 959.255,-491.123 974.128,-478.305 984.53,-467.537"/>
<polygon fill="midnightblue" stroke="midnightblue" points="987.393,-469.592 991.561,-459.852 982.229,-464.867 987.393,-469.592"/>
</g>
<!-- Node4&#45;&gt;Node5 -->
<g id="edge5" class="edge"><title>Node4&#45;&gt;Node5</title>
<path fill="none" stroke="midnightblue" d="M386.079,-304.369C407.921,-292.005 447.812,-270.538 484,-257 537.31,-237.057 600.409,-221.461 645.24,-211.662"/>
<polygon fill="midnightblue" stroke="midnightblue" points="646.049,-215.068 655.086,-209.539 644.573,-208.225 646.049,-215.068"/>
</g>
<!-- Node8 -->
<g id="node8" class="node"><title>Node8</title>
<g id="a_node8"><a xlink:href="unzip_8c.html#a5f1693991177fe0570e4c9bf0b95e510" target="_top" xlink:title="OF">
<polygon fill="white" stroke="black" points="985.5,-114.5 985.5,-133.5 1015.5,-133.5 1015.5,-114.5 985.5,-114.5"/>
<text text-anchor="middle" x="1000.5" y="-121.5" font-family="Helvetica,sans-Serif" font-size="10.00">OF</text>
</a>
</g>
</g>
<!-- Node4&#45;&gt;Node8 -->
<g id="edge28" class="edge"><title>Node4&#45;&gt;Node8</title>
<path fill="none" stroke="midnightblue" d="M376.604,-304.457C404.502,-267.773 511.031,-134.993 633,-77 757.935,-17.5967 819.2,12.7351 943,-49 966.279,-60.6087 982.49,-86.8853 991.399,-105.034"/>
<polygon fill="midnightblue" stroke="midnightblue" points="988.336,-106.751 995.697,-114.372 994.695,-103.824 988.336,-106.751"/>
</g>
<!-- Node9 -->
<g id="node9" class="node"><title>Node9</title>
<g id="a_node9"><a xlink:href="ioapi_8h.html#a39ab6d73c1cd44bc17064c2dcbb3e753" target="_top" xlink:title="voidpf">
<polygon fill="white" stroke="black" points="979,-266.5 979,-285.5 1022,-285.5 1022,-266.5 979,-266.5"/>
<text text-anchor="middle" x="1000.5" y="-273.5" font-family="Helvetica,sans-Serif" font-size="10.00">voidpf</text>
</a>
</g>
</g>
<!-- Node4&#45;&gt;Node9 -->
<g id="edge29" class="edge"><title>Node4&#45;&gt;Node9</title>
<path fill="none" stroke="midnightblue" d="M420.107,-321.532C439.977,-324.137 463.011,-326.722 484,-328 688.319,-340.445 741.469,-325.87 943,-290 951.559,-288.477 960.745,-286.396 969.171,-284.305"/>
<polygon fill="midnightblue" stroke="midnightblue" points="970.164,-287.664 978.978,-281.786 968.422,-280.884 970.164,-287.664"/>
</g>
<!-- Node4&#45;&gt;Node10 -->
<g id="edge16" class="edge"><title>Node4&#45;&gt;Node10</title>
<path fill="none" stroke="midnightblue" d="M412.398,-304.411C435.034,-299.351 462.998,-293.1 486.929,-287.751"/>
<polygon fill="midnightblue" stroke="midnightblue" points="487.915,-291.117 496.91,-285.52 486.388,-284.286 487.915,-291.117"/>
</g>
<!-- Node5&#45;&gt;Node3 -->
<g id="edge15" class="edge"><title>Node5&#45;&gt;Node3</title>
<path fill="none" stroke="midnightblue" d="M717.025,-209.8C761.76,-247.84 924.185,-385.956 980.286,-433.661"/>
<polygon fill="midnightblue" stroke="midnightblue" points="978.169,-436.456 988.055,-440.267 982.704,-431.123 978.169,-436.456"/>
</g>
<!-- Node6 -->
<g id="node6" class="node"><title>Node6</title>
<g id="a_node6"><a xlink:href="ioapi_8h.html#a787fa3cf048117ba7123753c1e74fcd6" target="_top" xlink:title="int">
<polygon fill="white" stroke="black" points="863,-76.5 863,-95.5 892,-95.5 892,-76.5 863,-76.5"/>
<text text-anchor="middle" x="877.5" y="-83.5" font-family="Helvetica,sans-Serif" font-size="10.00">int</text>
</a>
</g>
</g>
<!-- Node5&#45;&gt;Node6 -->
<g id="edge6" class="edge"><title>Node5&#45;&gt;Node6</title>
<path fill="none" stroke="midnightblue" d="M714.617,-190.335C732.03,-172.352 771.873,-133.453 812,-110 824.814,-102.511 840.378,-96.6389 853.008,-92.578"/>
<polygon fill="midnightblue" stroke="midnightblue" points="854.254,-95.8574 862.801,-89.597 852.215,-89.1607 854.254,-95.8574"/>
</g>
<!-- Node5&#45;&gt;Node7 -->
<g id="edge7" class="edge"><title>Node5&#45;&gt;Node7</title>
<path fill="none" stroke="midnightblue" d="M755.881,-193.784C774.336,-193.191 795.434,-193.092 814.77,-193.487"/>
<polygon fill="midnightblue" stroke="midnightblue" points="814.913,-196.992 824.999,-193.749 815.091,-189.994 814.913,-196.992"/>
</g>
<!-- Node5&#45;&gt;Node8 -->
<g id="edge13" class="edge"><title>Node5&#45;&gt;Node8</title>
<path fill="none" stroke="midnightblue" d="M721.072,-190.364C741.25,-178.365 777.898,-158.205 812,-148 868.7,-131.033 938.565,-126.061 974.908,-124.604"/>
<polygon fill="midnightblue" stroke="midnightblue" points="975.184,-128.096 985.058,-124.255 974.944,-121.101 975.184,-128.096"/>
</g>
<!-- Node5&#45;&gt;Node9 -->
<g id="edge14" class="edge"><title>Node5&#45;&gt;Node9</title>
<path fill="none" stroke="midnightblue" d="M727.585,-190.485C771.785,-173.02 872.886,-141.123 943,-181 971.512,-197.216 987.138,-234.13 994.375,-256.873"/>
<polygon fill="midnightblue" stroke="midnightblue" points="991.019,-257.868 997.2,-266.473 997.734,-255.892 991.019,-257.868"/>
</g>
<!-- Node7&#45;&gt;Node3 -->
<g id="edge8" class="edge"><title>Node7&#45;&gt;Node3</title>
<path fill="none" stroke="midnightblue" d="M922.007,-209.58C929.864,-213.016 937.344,-217.677 943,-224 970.642,-254.902 990.248,-381.269 996.96,-430.365"/>
<polygon fill="midnightblue" stroke="midnightblue" points="993.5,-430.9 998.291,-440.35 1000.44,-429.975 993.5,-430.9"/>
</g>
<!-- Node7&#45;&gt;Node4 -->
<g id="edge10" class="edge"><title>Node7&#45;&gt;Node4</title>
<path fill="none" stroke="midnightblue" d="M824.786,-209.189C820.333,-210.82 816.005,-212.74 812,-215 792.019,-226.277 795.94,-240.651 776,-252 666.112,-314.542 513.703,-320.222 430.208,-317.783"/>
<polygon fill="midnightblue" stroke="midnightblue" points="430.241,-314.282 420.128,-317.439 430.003,-321.278 430.241,-314.282"/>
</g>
<!-- Node7&#45;&gt;Node5 -->
<g id="edge9" class="edge"><title>Node7&#45;&gt;Node5</title>
<path fill="none" stroke="midnightblue" d="M824.999,-206.251C806.438,-206.825 785.325,-206.904 766.062,-206.488"/>
<polygon fill="midnightblue" stroke="midnightblue" points="765.971,-202.984 755.881,-206.216 765.784,-209.982 765.971,-202.984"/>
</g>
<!-- Node7&#45;&gt;Node8 -->
<g id="edge11" class="edge"><title>Node7&#45;&gt;Node8</title>
<path fill="none" stroke="midnightblue" d="M893.825,-190.375C914.801,-177.199 952.612,-153.451 976.858,-138.221"/>
<polygon fill="midnightblue" stroke="midnightblue" points="978.817,-141.124 985.424,-132.841 975.094,-135.196 978.817,-141.124"/>
</g>
<!-- Node7&#45;&gt;Node9 -->
<g id="edge12" class="edge"><title>Node7&#45;&gt;Node9</title>
<path fill="none" stroke="midnightblue" d="M911.795,-209.615C922.186,-213.333 933.426,-218.129 943,-224 958.546,-233.533 973.611,-247.726 984.27,-258.877"/>
<polygon fill="midnightblue" stroke="midnightblue" points="981.831,-261.394 991.196,-266.349 986.964,-256.636 981.831,-261.394"/>
</g>
<!-- Node10&#45;&gt;Node5 -->
<g id="edge17" class="edge"><title>Node10&#45;&gt;Node5</title>
<path fill="none" stroke="midnightblue" d="M562.017,-266.375C590.257,-253.126 641.286,-229.187 673.725,-213.969"/>
<polygon fill="midnightblue" stroke="midnightblue" points="675.582,-216.963 683.149,-209.547 672.609,-210.626 675.582,-216.963"/>
</g>
<!-- Node10&#45;&gt;Node8 -->
<g id="edge26" class="edge"><title>Node10&#45;&gt;Node8</title>
<path fill="none" stroke="midnightblue" d="M548.999,-266.443C577.972,-230.462 687.221,-103.36 812,-67 867.897,-50.7117 889.259,-44.6009 943,-67 961.809,-74.8397 977.568,-92.3251 987.622,-105.877"/>
<polygon fill="midnightblue" stroke="midnightblue" points="985.034,-108.282 993.639,-114.463 990.766,-104.265 985.034,-108.282"/>
</g>
<!-- Node10&#45;&gt;Node9 -->
<g id="edge27" class="edge"><title>Node10&#45;&gt;Node9</title>
<path fill="none" stroke="midnightblue" d="M597.202,-276C694.452,-276 892.118,-276 968.451,-276"/>
<polygon fill="midnightblue" stroke="midnightblue" points="968.807,-279.5 978.807,-276 968.807,-272.5 968.807,-279.5"/>
</g>
<!-- Node11 -->
<g id="node11" class="node"><title>Node11</title>
<g id="a_node11"><a xlink:href="unzip_8c.html#a62c48825905347807e4daaf8451809e7" target="_top" xlink:title="unz64local_SearchCentralDir">
<polygon fill="white" stroke="black" points="633,-380.5 633,-399.5 776,-399.5 776,-380.5 633,-380.5"/>
<text text-anchor="middle" x="704.5" y="-387.5" font-family="Helvetica,sans-Serif" font-size="10.00">unz64local_SearchCentralDir</text>
</a>
</g>
</g>
<!-- Node10&#45;&gt;Node11 -->
<g id="edge18" class="edge"><title>Node10&#45;&gt;Node11</title>
<path fill="none" stroke="midnightblue" d="M555.033,-285.523C582.956,-305.173 647.188,-350.373 681.289,-374.37"/>
<polygon fill="midnightblue" stroke="midnightblue" points="679.469,-377.369 689.662,-380.262 683.498,-371.645 679.469,-377.369"/>
</g>
<!-- Node11&#45;&gt;Node3 -->
<g id="edge19" class="edge"><title>Node11&#45;&gt;Node3</title>
<path fill="none" stroke="midnightblue" d="M752.085,-399.507C812.828,-411.904 917.388,-433.243 968.942,-443.764"/>
<polygon fill="midnightblue" stroke="midnightblue" points="968.313,-447.207 978.811,-445.778 969.713,-440.349 968.313,-447.207"/>
</g>
<!-- Node11&#45;&gt;Node8 -->
<g id="edge24" class="edge"><title>Node11&#45;&gt;Node8</title>
<path fill="none" stroke="midnightblue" d="M723.49,-380.486C765.879,-357.394 873.671,-294.676 943,-219 964.291,-195.76 981.52,-163.234 991.134,-142.906"/>
<polygon fill="midnightblue" stroke="midnightblue" points="994.346,-144.298 995.338,-133.75 987.985,-141.377 994.346,-144.298"/>
</g>
<!-- Node11&#45;&gt;Node9 -->
<g id="edge25" class="edge"><title>Node11&#45;&gt;Node9</title>
<path fill="none" stroke="midnightblue" d="M776.164,-398.476C826.345,-400.965 893.351,-396.814 943,-366 969.149,-349.771 985.21,-316.477 993.227,-295.249"/>
<polygon fill="midnightblue" stroke="midnightblue" points="996.582,-296.258 996.611,-285.663 989.982,-293.928 996.582,-296.258"/>
</g>
<!-- Node12 -->
<g id="node12" class="node"><title>Node12</title>
<g id="a_node12"><a xlink:href="unzip_8c.html#ad6a67f9e44f1e69bfc5fbdf9c49faa7f" target="_top" xlink:title="unz64local_SearchCentral\lDir64">
<polygon fill="white" stroke="black" points="812,-457 812,-487 943,-487 943,-457 812,-457"/>
<text text-anchor="start" x="820" y="-475" font-family="Helvetica,sans-Serif" font-size="10.00">unz64local_SearchCentral</text>
<text text-anchor="middle" x="877.5" y="-464" font-family="Helvetica,sans-Serif" font-size="10.00">Dir64</text>
</a>
</g>
</g>
<!-- Node11&#45;&gt;Node12 -->
<g id="edge20" class="edge"><title>Node11&#45;&gt;Node12</title>
<path fill="none" stroke="midnightblue" d="M739.025,-399.58C751.028,-403.604 764.44,-408.802 776,-415 793.626,-424.45 794.84,-431.727 812,-442 818.192,-445.707 824.918,-449.285 831.612,-452.599"/>
<polygon fill="midnightblue" stroke="midnightblue" points="830.136,-455.773 840.666,-456.943 833.164,-449.462 830.136,-455.773"/>
</g>
<!-- Node12&#45;&gt;Node3 -->
<g id="edge21" class="edge"><title>Node12&#45;&gt;Node3</title>
<path fill="none" stroke="midnightblue" d="M943.251,-460.227C952.136,-458.612 960.898,-457.019 968.765,-455.588"/>
<polygon fill="midnightblue" stroke="midnightblue" points="969.654,-458.984 978.867,-453.751 968.402,-452.097 969.654,-458.984"/>
</g>
<!-- Node12&#45;&gt;Node4 -->
<g id="edge22" class="edge"><title>Node12&#45;&gt;Node4</title>
<path fill="none" stroke="midnightblue" d="M811.987,-470.591C762.204,-468.076 692.086,-461.401 633,-444 538.892,-416.285 437.468,-356.843 392.832,-328.985"/>
<polygon fill="midnightblue" stroke="midnightblue" points="394.52,-325.911 384.193,-323.543 390.789,-331.834 394.52,-325.911"/>
</g>
<!-- Node12&#45;&gt;Node10 -->
<g id="edge23" class="edge"><title>Node12&#45;&gt;Node10</title>
<path fill="none" stroke="midnightblue" d="M811.819,-460.573C749.857,-448.694 661.664,-429.063 633,-409 591.078,-379.657 562.412,-324.518 549.417,-295.304"/>
<polygon fill="midnightblue" stroke="midnightblue" points="552.503,-293.619 545.343,-285.81 546.07,-296.38 552.503,-293.619"/>
</g>
</g>
</svg>
