<?xml version="1.0" encoding="UTF-8" standalone="no"?>
<!DOCTYPE svg PUBLIC "-//W3C//DTD SVG 1.1//EN"
 "http://www.w3.org/Graphics/SVG/1.1/DTD/svg11.dtd">
<!-- Generated by graphviz version 2.38.0 (20140413.2041)
 -->
<!-- Title: unz64local_getShort Pages: 1 -->
<svg width="826pt" height="445pt"
 viewBox="0.00 0.00 826.00 444.79" xmlns="http://www.w3.org/2000/svg" xmlns:xlink="http://www.w3.org/1999/xlink">
<g id="graph0" class="graph" transform="scale(1 1) rotate(0) translate(4 440.792)">
<title>unz64local_getShort</title>
<polygon fill="white" stroke="none" points="-4,4 -4,-440.792 822,-440.792 822,4 -4,4"/>
<!-- Node1 -->
<g id="node1" class="node"><title>Node1</title>
<polygon fill="#bfbfbf" stroke="black" points="0,-313.5 0,-332.5 105,-332.5 105,-313.5 0,-313.5"/>
<text text-anchor="middle" x="52.5" y="-320.5" font-family="Helvetica,sans-Serif" font-size="10.00">unz64local_getShort</text>
</g>
<!-- Node2 -->
<g id="node2" class="node"><title>Node2</title>
<g id="a_node2"><a xlink:href="ioapi_8h.html#a50e9e9d5c30e481de822ad68fe537986" target="_top" xlink:title="uLong">
<polygon fill="white" stroke="black" points="775,-212.5 775,-231.5 818,-231.5 818,-212.5 775,-212.5"/>
<text text-anchor="middle" x="796.5" y="-219.5" font-family="Helvetica,sans-Serif" font-size="10.00">uLong</text>
</a>
</g>
</g>
<!-- Node1&#45;&gt;Node2 -->
<g id="edge1" class="edge"><title>Node1&#45;&gt;Node2</title>
<path fill="none" stroke="midnightblue" d="M56.4477,-313.333C73.4913,-259.59 164.658,-0 335.5,-0 335.5,-0 335.5,-0 501.5,-0 618.973,-0 654.478,-34.4159 739,-116 764.517,-140.63 781.066,-179.316 789.301,-202.513"/>
<polygon fill="midnightblue" stroke="midnightblue" points="786.074,-203.897 792.59,-212.251 792.706,-201.657 786.074,-203.897"/>
</g>
<!-- Node3 -->
<g id="node3" class="node"><title>Node3</title>
<g id="a_node3"><a xlink:href="unzip_8c.html#a4fdc20c5d880511c727c425b1f11ef68" target="_top" xlink:title="unz64local_getByte">
<polygon fill="white" stroke="black" points="449.5,-408.5 449.5,-427.5 551.5,-427.5 551.5,-408.5 449.5,-408.5"/>
<text text-anchor="middle" x="500.5" y="-415.5" font-family="Helvetica,sans-Serif" font-size="10.00">unz64local_getByte</text>
</a>
</g>
</g>
<!-- Node1&#45;&gt;Node3 -->
<g id="edge2" class="edge"><title>Node1&#45;&gt;Node3</title>
<path fill="none" stroke="midnightblue" d="M67.7095,-332.74C83.6265,-347.431 111.138,-373.271 141,-385 239.781,-423.798 365.604,-421.627 438.897,-418.448"/>
<polygon fill="midnightblue" stroke="midnightblue" points="439.489,-421.925 449.321,-417.976 439.173,-414.932 439.489,-421.925"/>
</g>
<!-- Node5 -->
<g id="node5" class="node"><title>Node5</title>
<g id="a_node5"><a xlink:href="unzip_8c.html#a5f1693991177fe0570e4c9bf0b95e510" target="_top" xlink:title="OF">
<polygon fill="white" stroke="black" points="658.5,-142.5 658.5,-161.5 688.5,-161.5 688.5,-142.5 658.5,-142.5"/>
<text text-anchor="middle" x="673.5" y="-149.5" font-family="Helvetica,sans-Serif" font-size="10.00">OF</text>
</a>
</g>
</g>
<!-- Node1&#45;&gt;Node5 -->
<g id="edge25" class="edge"><title>Node1&#45;&gt;Node5</title>
<path fill="none" stroke="midnightblue" d="M62.9901,-313.112C78.3021,-297.558 109.897,-267.083 141,-247 198.136,-210.108 215.202,-203.658 280,-183 413.624,-140.399 585.187,-146.173 648.036,-150.144"/>
<polygon fill="midnightblue" stroke="midnightblue" points="647.936,-153.645 658.149,-150.828 648.409,-146.661 647.936,-153.645"/>
</g>
<!-- Node6 -->
<g id="node6" class="node"><title>Node6</title>
<g id="a_node6"><a xlink:href="ioapi_8h.html#a39ab6d73c1cd44bc17064c2dcbb3e753" target="_top" xlink:title="voidpf">
<polygon fill="white" stroke="black" points="652,-332.5 652,-351.5 695,-351.5 695,-332.5 652,-332.5"/>
<text text-anchor="middle" x="673.5" y="-339.5" font-family="Helvetica,sans-Serif" font-size="10.00">voidpf</text>
</a>
</g>
</g>
<!-- Node1&#45;&gt;Node6 -->
<g id="edge26" class="edge"><title>Node1&#45;&gt;Node6</title>
<path fill="none" stroke="midnightblue" d="M105.107,-325.942C177.467,-329.929 313.209,-336.904 429,-340 505.488,-342.045 595.534,-342.198 641.735,-342.112"/>
<polygon fill="midnightblue" stroke="midnightblue" points="641.98,-345.612 651.972,-342.088 641.964,-338.612 641.98,-345.612"/>
</g>
<!-- Node7 -->
<g id="node7" class="node"><title>Node7</title>
<g id="a_node7"><a xlink:href="unzip_8c.html#ad3fe51136556c1c4a1e964a157d153ba" target="_top" xlink:title="unz64local_getLong">
<polygon fill="white" stroke="black" points="141,-256.5 141,-275.5 244,-275.5 244,-256.5 141,-256.5"/>
<text text-anchor="middle" x="192.5" y="-263.5" font-family="Helvetica,sans-Serif" font-size="10.00">unz64local_getLong</text>
</a>
</g>
</g>
<!-- Node1&#45;&gt;Node7 -->
<g id="edge8" class="edge"><title>Node1&#45;&gt;Node7</title>
<path fill="none" stroke="midnightblue" d="M76.5981,-313.459C99.0869,-304.171 133.481,-289.964 158.781,-279.514"/>
<polygon fill="midnightblue" stroke="midnightblue" points="160.42,-282.624 168.327,-275.572 157.748,-276.154 160.42,-282.624"/>
</g>
<!-- Node3&#45;&gt;Node1 -->
<g id="edge4" class="edge"><title>Node3&#45;&gt;Node1</title>
<path fill="none" stroke="midnightblue" d="M465.156,-427.537C399.535,-438.326 252.913,-446.956 141,-403 108.472,-390.224 78.7332,-360.705 63.7304,-340.974"/>
<polygon fill="midnightblue" stroke="midnightblue" points="66.5271,-338.866 57.9171,-332.692 60.7976,-342.888 66.5271,-338.866"/>
</g>
<!-- Node3&#45;&gt;Node2 -->
<g id="edge7" class="edge"><title>Node3&#45;&gt;Node2</title>
<path fill="none" stroke="midnightblue" d="M543.883,-427.57C595.728,-436.639 683.432,-443.098 739,-399 787.773,-360.294 795.117,-279.324 795.779,-241.833"/>
<polygon fill="midnightblue" stroke="midnightblue" points="799.28,-241.699 795.809,-231.689 792.28,-241.679 799.28,-241.699"/>
</g>
<!-- Node4 -->
<g id="node4" class="node"><title>Node4</title>
<g id="a_node4"><a xlink:href="ioapi_8h.html#a787fa3cf048117ba7123753c1e74fcd6" target="_top" xlink:title="int">
<polygon fill="white" stroke="black" points="659,-370.5 659,-389.5 688,-389.5 688,-370.5 659,-370.5"/>
<text text-anchor="middle" x="673.5" y="-377.5" font-family="Helvetica,sans-Serif" font-size="10.00">int</text>
</a>
</g>
</g>
<!-- Node3&#45;&gt;Node4 -->
<g id="edge3" class="edge"><title>Node3&#45;&gt;Node4</title>
<path fill="none" stroke="midnightblue" d="M544.651,-408.411C577.695,-401.068 622.03,-391.215 648.865,-385.252"/>
<polygon fill="midnightblue" stroke="midnightblue" points="649.883,-388.612 658.885,-383.026 648.364,-381.778 649.883,-388.612"/>
</g>
<!-- Node3&#45;&gt;Node5 -->
<g id="edge5" class="edge"><title>Node3&#45;&gt;Node5</title>
<path fill="none" stroke="midnightblue" d="M506.963,-408.487C519.274,-386.886 549.838,-332.336 572,-285 589.917,-246.729 581.594,-229.991 608,-197 619.23,-182.969 635.963,-171.47 649.572,-163.609"/>
<polygon fill="midnightblue" stroke="midnightblue" points="651.312,-166.646 658.388,-158.761 647.939,-160.512 651.312,-166.646"/>
</g>
<!-- Node3&#45;&gt;Node6 -->
<g id="edge6" class="edge"><title>Node3&#45;&gt;Node6</title>
<path fill="none" stroke="midnightblue" d="M538.994,-408.418C550.045,-404.766 561.879,-399.999 572,-394 590.672,-382.933 589.102,-371.676 608,-361 618.428,-355.109 630.857,-350.889 642.008,-347.946"/>
<polygon fill="midnightblue" stroke="midnightblue" points="642.892,-351.333 651.796,-345.59 641.254,-344.527 642.892,-351.333"/>
</g>
<!-- Node7&#45;&gt;Node2 -->
<g id="edge9" class="edge"><title>Node7&#45;&gt;Node2</title>
<path fill="none" stroke="midnightblue" d="M200.353,-256.46C213.578,-238.83 244.468,-201.284 280,-183 411.12,-115.527 460.814,-142.011 608,-133 666.113,-129.442 687.977,-104.955 739,-133 765.893,-147.782 781.795,-181.38 789.567,-202.805"/>
<polygon fill="midnightblue" stroke="midnightblue" points="786.315,-204.113 792.824,-212.472 792.949,-201.878 786.315,-204.113"/>
</g>
<!-- Node7&#45;&gt;Node3 -->
<g id="edge10" class="edge"><title>Node7&#45;&gt;Node3</title>
<path fill="none" stroke="midnightblue" d="M208.205,-275.544C225.184,-286.397 254.104,-304.374 280,-318 344.808,-352.101 423.502,-386.277 466.869,-404.512"/>
<polygon fill="midnightblue" stroke="midnightblue" points="465.76,-407.843 476.336,-408.476 468.464,-401.386 465.76,-407.843"/>
</g>
<!-- Node7&#45;&gt;Node5 -->
<g id="edge23" class="edge"><title>Node7&#45;&gt;Node5</title>
<path fill="none" stroke="midnightblue" d="M213.173,-256.411C230.543,-248.118 256.661,-236.07 280,-227 344.977,-201.749 360.85,-192.671 429,-178 508.121,-160.967 604.219,-154.889 648.293,-152.892"/>
<polygon fill="midnightblue" stroke="midnightblue" points="648.492,-156.387 658.335,-152.468 648.197,-149.393 648.492,-156.387"/>
</g>
<!-- Node7&#45;&gt;Node6 -->
<g id="edge24" class="edge"><title>Node7&#45;&gt;Node6</title>
<path fill="none" stroke="midnightblue" d="M236.61,-275.511C250.462,-278.556 265.876,-281.932 280,-285 346.189,-299.377 362.1,-306.414 429,-317 505.13,-329.046 595.611,-336.572 641.895,-339.936"/>
<polygon fill="midnightblue" stroke="midnightblue" points="641.655,-343.428 651.878,-340.647 642.152,-336.446 641.655,-343.428"/>
</g>
<!-- Node8 -->
<g id="node8" class="node"><title>Node8</title>
<g id="a_node8"><a xlink:href="unzip_8c.html#a65165fb74a10780ee7b66e9c6c57da3c" target="_top" xlink:title="unz64local_getLong64">
<polygon fill="white" stroke="black" points="280,-256.5 280,-275.5 393,-275.5 393,-256.5 280,-256.5"/>
<text text-anchor="middle" x="336.5" y="-263.5" font-family="Helvetica,sans-Serif" font-size="10.00">unz64local_getLong64</text>
</a>
</g>
</g>
<!-- Node7&#45;&gt;Node8 -->
<g id="edge11" class="edge"><title>Node7&#45;&gt;Node8</title>
<path fill="none" stroke="midnightblue" d="M244.364,-266C252.511,-266 261.044,-266 269.482,-266"/>
<polygon fill="midnightblue" stroke="midnightblue" points="269.696,-269.5 279.696,-266 269.696,-262.5 269.696,-269.5"/>
</g>
<!-- Node8&#45;&gt;Node3 -->
<g id="edge12" class="edge"><title>Node8&#45;&gt;Node3</title>
<path fill="none" stroke="midnightblue" d="M347.634,-275.508C374.568,-300.779 448.179,-369.847 482.038,-401.616"/>
<polygon fill="midnightblue" stroke="midnightblue" points="479.683,-404.205 489.37,-408.495 484.472,-399.1 479.683,-404.205"/>
</g>
<!-- Node8&#45;&gt;Node5 -->
<g id="edge21" class="edge"><title>Node8&#45;&gt;Node5</title>
<path fill="none" stroke="midnightblue" d="M358.33,-256.387C376.716,-248.079 404.351,-236.021 429,-227 508.245,-197.997 604.604,-170.571 648.564,-158.478"/>
<polygon fill="midnightblue" stroke="midnightblue" points="649.608,-161.821 658.33,-155.807 647.761,-155.069 649.608,-161.821"/>
</g>
<!-- Node8&#45;&gt;Node6 -->
<g id="edge22" class="edge"><title>Node8&#45;&gt;Node6</title>
<path fill="none" stroke="midnightblue" d="M379.589,-275.548C447.889,-291.043 581.284,-321.306 641.588,-334.987"/>
<polygon fill="midnightblue" stroke="midnightblue" points="641.103,-338.466 651.629,-337.265 642.652,-331.639 641.103,-338.466"/>
</g>
<!-- Node9 -->
<g id="node9" class="node"><title>Node9</title>
<g id="a_node9"><a xlink:href="unzip_8c.html#a62c48825905347807e4daaf8451809e7" target="_top" xlink:title="unz64local_SearchCentralDir">
<polygon fill="white" stroke="black" points="429,-256.5 429,-275.5 572,-275.5 572,-256.5 429,-256.5"/>
<text text-anchor="middle" x="500.5" y="-263.5" font-family="Helvetica,sans-Serif" font-size="10.00">unz64local_SearchCentralDir</text>
</a>
</g>
</g>
<!-- Node8&#45;&gt;Node9 -->
<g id="edge13" class="edge"><title>Node8&#45;&gt;Node9</title>
<path fill="none" stroke="midnightblue" d="M393.251,-266C401.474,-266 410.083,-266 418.689,-266"/>
<polygon fill="midnightblue" stroke="midnightblue" points="418.767,-269.5 428.767,-266 418.767,-262.5 418.767,-269.5"/>
</g>
<!-- Node9&#45;&gt;Node2 -->
<g id="edge14" class="edge"><title>Node9&#45;&gt;Node2</title>
<path fill="none" stroke="midnightblue" d="M572.077,-265.89C619.826,-264.401 683.975,-259.632 739,-246 748.724,-243.591 758.925,-239.715 767.941,-235.775"/>
<polygon fill="midnightblue" stroke="midnightblue" points="769.548,-238.888 777.181,-231.54 766.632,-232.525 769.548,-238.888"/>
</g>
<!-- Node9&#45;&gt;Node5 -->
<g id="edge19" class="edge"><title>Node9&#45;&gt;Node5</title>
<path fill="none" stroke="midnightblue" d="M515.785,-256.477C545.533,-236.645 614.321,-190.786 650.049,-166.968"/>
<polygon fill="midnightblue" stroke="midnightblue" points="651.997,-169.875 658.376,-161.416 648.114,-164.051 651.997,-169.875"/>
</g>
<!-- Node9&#45;&gt;Node6 -->
<g id="edge20" class="edge"><title>Node9&#45;&gt;Node6</title>
<path fill="none" stroke="midnightblue" d="M532.762,-275.53C545.138,-279.59 559.392,-284.628 572,-290 598.211,-301.169 626.98,-316.372 646.995,-327.454"/>
<polygon fill="midnightblue" stroke="midnightblue" points="645.365,-330.552 655.801,-332.377 648.78,-324.442 645.365,-330.552"/>
</g>
<!-- Node10 -->
<g id="node10" class="node"><title>Node10</title>
<g id="a_node10"><a xlink:href="unzip_8c.html#ad6a67f9e44f1e69bfc5fbdf9c49faa7f" target="_top" xlink:title="unz64local_SearchCentral\lDir64">
<polygon fill="white" stroke="black" points="608,-207 608,-237 739,-237 739,-207 608,-207"/>
<text text-anchor="start" x="616" y="-225" font-family="Helvetica,sans-Serif" font-size="10.00">unz64local_SearchCentral</text>
<text text-anchor="middle" x="673.5" y="-214" font-family="Helvetica,sans-Serif" font-size="10.00">Dir64</text>
</a>
</g>
</g>
<!-- Node9&#45;&gt;Node10 -->
<g id="edge15" class="edge"><title>Node9&#45;&gt;Node10</title>
<path fill="none" stroke="midnightblue" d="M538.604,-256.453C557.771,-251.521 581.776,-245.344 604.147,-239.588"/>
<polygon fill="midnightblue" stroke="midnightblue" points="605.138,-242.947 613.951,-237.065 603.394,-236.168 605.138,-242.947"/>
</g>
<!-- Node10&#45;&gt;Node2 -->
<g id="edge16" class="edge"><title>Node10&#45;&gt;Node2</title>
<path fill="none" stroke="midnightblue" d="M739.251,-222C748.136,-222 756.898,-222 764.765,-222"/>
<polygon fill="midnightblue" stroke="midnightblue" points="764.867,-225.5 774.867,-222 764.867,-218.5 764.867,-225.5"/>
</g>
<!-- Node10&#45;&gt;Node7 -->
<g id="edge17" class="edge"><title>Node10&#45;&gt;Node7</title>
<path fill="none" stroke="midnightblue" d="M607.806,-221.345C558.682,-221.328 489.497,-222.334 429,-227 362.382,-232.138 345.798,-235.378 280,-247 268.171,-249.089 255.506,-251.673 243.617,-254.255"/>
<polygon fill="midnightblue" stroke="midnightblue" points="242.858,-250.838 233.848,-256.412 244.367,-257.673 242.858,-250.838"/>
</g>
<!-- Node10&#45;&gt;Node8 -->
<g id="edge18" class="edge"><title>Node10&#45;&gt;Node8</title>
<path fill="none" stroke="midnightblue" d="M607.929,-226.816C558.72,-230.925 489.37,-237.658 429,-247 415.84,-249.036 401.713,-251.72 388.592,-254.427"/>
<polygon fill="midnightblue" stroke="midnightblue" points="387.851,-251.006 378.786,-256.491 389.293,-257.856 387.851,-251.006"/>
</g>
</g>
</svg>
