<?xml version="1.0" encoding="UTF-8" standalone="no"?>
<!DOCTYPE svg PUBLIC "-//W3C//DTD SVG 1.1//EN"
 "http://www.w3.org/Graphics/SVG/1.1/DTD/svg11.dtd">
<!-- Generated by graphviz version 2.38.0 (20140413.2041)
 -->
<!-- Title: unzOpen2_64 Pages: 1 -->
<!--zoomable 702 -->
<svg id="main" version="1.1" xmlns="http://www.w3.org/2000/svg" xmlns:xlink="http://www.w3.org/1999/xlink" xml:space="preserve" onload="init(evt)">
<style type="text/css"><![CDATA[
.edge:hover path { stroke: red; }
.edge:hover polygon { stroke: red; fill: red; }
]]></style>
<script type="text/javascript"><![CDATA[
var edges = document.getElementsByTagName('g');
if (edges && edges.length) {
  for (var i=0;i<edges.length;i++) {
    if (edges[i].id.substr(0,4)=='edge') {
      edges[i].setAttribute('class','edge');
    }
  }
}
]]></script>
        <defs>
                <circle id="rim" cx="0" cy="0" r="7"/>
                <circle id="rim2" cx="0" cy="0" r="3.5"/>
                <g id="zoomPlus">
                        <use xlink:href="#rim" fill="#404040">
                                <set attributeName="fill" to="#808080" begin="zoomplus.mouseover" end="zoomplus.mouseout"/>
                        </use>
                        <path d="M-4,0h8M0,-4v8" fill="none" stroke="white" stroke-width="1.5" pointer-events="none"/>
                </g>
                <g id="zoomMin">
                        <use xlink:href="#rim" fill="#404040">
                                <set attributeName="fill" to="#808080" begin="zoomminus.mouseover" end="zoomminus.mouseout"/>
                        </use>
                        <path d="M-4,0h8" fill="none" stroke="white" stroke-width="1.5" pointer-events="none"/>
                </g>
                <g id="dirArrow">
                        <path fill="none" stroke="white" stroke-width="1.5" d="M0,-3.0v7 M-2.5,-0.5L0,-3.0L2.5,-0.5"/>
                </g>
               <g id="resetDef">
                       <use xlink:href="#rim2" fill="#404040">
                               <set attributeName="fill" to="#808080" begin="reset.mouseover" end="reset.mouseout"/>
                       </use>
               </g>
        </defs>

<script type="text/javascript">
var viewWidth = 1397;
var viewHeight = 702;
var sectionId = 'dynsection-26';
</script>
<script xlink:href="svgpan.js"/>
<svg id="graph" class="graph">
<g id="viewport">
<title>unzOpen2_64</title>
<polygon fill="white" stroke="none" points="-4,4 -4,-698 1393,-698 1393,4 -4,4"/>
<!-- Node1 -->
<g id="node1" class="node"><title>Node1</title>
<polygon fill="#bfbfbf" stroke="black" points="0,-285.5 0,-304.5 77,-304.5 77,-285.5 0,-285.5"/>
<text text-anchor="middle" x="38.5" y="-292.5" font-family="Helvetica,sans-Serif" font-size="10.00">unzOpen2_64</text>
</g>
<!-- Node2 -->
<g id="node2" class="node"><title>Node2</title>
<g id="a_node2"><a xlink:href="unzip_8c.html#abf9f03bc622c0405d398cc0088216290" target="_top" xlink:title="unzOpenInternal">
<polygon fill="white" stroke="black" points="113,-285.5 113,-304.5 201,-304.5 201,-285.5 113,-285.5"/>
<text text-anchor="middle" x="157" y="-292.5" font-family="Helvetica,sans-Serif" font-size="10.00">unzOpenInternal</text>
</a>
</g>
</g>
<!-- Node1&#45;&gt;Node2 -->
<g id="edge1" class="edge"><title>Node1&#45;&gt;Node2</title>
<path fill="none" stroke="midnightblue" d="M77.0026,-295C85.2258,-295 94.0835,-295 102.79,-295"/>
<polygon fill="midnightblue" stroke="midnightblue" points="102.894,-298.5 112.894,-295 102.894,-291.5 102.894,-298.5"/>
</g>
<!-- Node3 -->
<g id="node3" class="node"><title>Node3</title>
<g id="a_node3"><a xlink:href="ioapi_8h.html#a50e9e9d5c30e481de822ad68fe537986" target="_top" xlink:title="uLong">
<polygon fill="white" stroke="black" points="1346,-570.5 1346,-589.5 1389,-589.5 1389,-570.5 1346,-570.5"/>
<text text-anchor="middle" x="1367.5" y="-577.5" font-family="Helvetica,sans-Serif" font-size="10.00">uLong</text>
</a>
</g>
</g>
<!-- Node2&#45;&gt;Node3 -->
<g id="edge2" class="edge"><title>Node2&#45;&gt;Node3</title>
<path fill="none" stroke="midnightblue" d="M159.902,-304.863C172.374,-366.306 248.182,-694 446.5,-694 446.5,-694 446.5,-694 1119,-694 1206.42,-694 1235.74,-693.122 1310,-647 1329.48,-634.901 1345.61,-613.825 1355.58,-598.536"/>
<polygon fill="midnightblue" stroke="midnightblue" points="1358.64,-600.234 1360.96,-589.896 1352.7,-596.53 1358.64,-600.234"/>
</g>
<!-- Node4 -->
<g id="node4" class="node"><title>Node4</title>
<g id="a_node4"><a xlink:href="ioapi_8h.html#a39ab6d73c1cd44bc17064c2dcbb3e753" target="_top" xlink:title="voidpf">
<polygon fill="white" stroke="black" points="1346,-133.5 1346,-152.5 1389,-152.5 1389,-133.5 1346,-133.5"/>
<text text-anchor="middle" x="1367.5" y="-140.5" font-family="Helvetica,sans-Serif" font-size="10.00">voidpf</text>
</a>
</g>
</g>
<!-- Node2&#45;&gt;Node4 -->
<g id="edge3" class="edge"><title>Node2&#45;&gt;Node4</title>
<path fill="none" stroke="midnightblue" d="M162.978,-285.317C187.22,-239.651 297.814,-48 446.5,-48 446.5,-48 446.5,-48 1119,-48 1205.82,-48 1233.28,-48.3603 1310,-89 1326.95,-97.979 1342.41,-113.509 1352.86,-125.617"/>
<polygon fill="midnightblue" stroke="midnightblue" points="1350.17,-127.86 1359.24,-133.33 1355.56,-123.395 1350.17,-127.86"/>
</g>
<!-- Node5 -->
<g id="node5" class="node"><title>Node5</title>
<g id="a_node5"><a xlink:href="ioapi_8c.html#aa67e4de04de04bf2d1694febd74bd16f" target="_top" xlink:title="fill_fopen64_filefunc">
<polygon fill="white" stroke="black" points="237,-0.5 237,-19.5 340,-19.5 340,-0.5 237,-0.5"/>
<text text-anchor="middle" x="288.5" y="-7.5" font-family="Helvetica,sans-Serif" font-size="10.00">fill_fopen64_filefunc</text>
</a>
</g>
</g>
<!-- Node2&#45;&gt;Node5 -->
<g id="edge4" class="edge"><title>Node2&#45;&gt;Node5</title>
<path fill="none" stroke="midnightblue" d="M158.226,-285.4C159.594,-248.342 169.221,-112.771 237,-34 240.158,-30.3301 244.002,-27.1793 248.145,-24.4845"/>
<polygon fill="midnightblue" stroke="midnightblue" points="249.919,-27.5028 256.946,-19.5734 246.508,-21.3902 249.919,-27.5028"/>
</g>
<!-- Node6 -->
<g id="node6" class="node"><title>Node6</title>
<g id="a_node6"><a xlink:href="unzip_8c.html#a62c48825905347807e4daaf8451809e7" target="_top" xlink:title="unz64local_SearchCentralDir">
<polygon fill="white" stroke="black" points="376,-236.5 376,-255.5 519,-255.5 519,-236.5 376,-236.5"/>
<text text-anchor="middle" x="447.5" y="-243.5" font-family="Helvetica,sans-Serif" font-size="10.00">unz64local_SearchCentralDir</text>
</a>
</g>
</g>
<!-- Node2&#45;&gt;Node6 -->
<g id="edge5" class="edge"><title>Node2&#45;&gt;Node6</title>
<path fill="none" stroke="midnightblue" d="M201.037,-287.294C212.703,-285.227 225.332,-283.008 237,-281 284.338,-272.851 337.743,-263.934 378.785,-257.139"/>
<polygon fill="midnightblue" stroke="midnightblue" points="379.379,-260.588 388.674,-255.503 378.237,-253.682 379.379,-260.588"/>
</g>
<!-- Node7 -->
<g id="node7" class="node"><title>Node7</title>
<g id="a_node7"><a xlink:href="unzip_8c.html#ad6a67f9e44f1e69bfc5fbdf9c49faa7f" target="_top" xlink:title="unz64local_SearchCentral\lDir64">
<polygon fill="white" stroke="black" points="555.5,-280 555.5,-310 686.5,-310 686.5,-280 555.5,-280"/>
<text text-anchor="start" x="563.5" y="-298" font-family="Helvetica,sans-Serif" font-size="10.00">unz64local_SearchCentral</text>
<text text-anchor="middle" x="621" y="-287" font-family="Helvetica,sans-Serif" font-size="10.00">Dir64</text>
</a>
</g>
</g>
<!-- Node2&#45;&gt;Node7 -->
<g id="edge34" class="edge"><title>Node2&#45;&gt;Node7</title>
<path fill="none" stroke="midnightblue" d="M201.049,-295C279.692,-295 447.466,-295 545.162,-295"/>
<polygon fill="midnightblue" stroke="midnightblue" points="545.264,-298.5 555.263,-295 545.263,-291.5 545.264,-298.5"/>
</g>
<!-- Node8 -->
<g id="node8" class="node"><title>Node8</title>
<g id="a_node8"><a xlink:href="unzip_8c.html#ad3fe51136556c1c4a1e964a157d153ba" target="_top" xlink:title="unz64local_getLong">
<polygon fill="white" stroke="black" points="751,-342.5 751,-361.5 854,-361.5 854,-342.5 751,-342.5"/>
<text text-anchor="middle" x="802.5" y="-349.5" font-family="Helvetica,sans-Serif" font-size="10.00">unz64local_getLong</text>
</a>
</g>
</g>
<!-- Node2&#45;&gt;Node8 -->
<g id="edge32" class="edge"><title>Node2&#45;&gt;Node8</title>
<path fill="none" stroke="midnightblue" d="M201.345,-303.481C212.896,-305.521 225.392,-307.533 237,-309 419.42,-332.054 636.68,-344.376 740.445,-349.341"/>
<polygon fill="midnightblue" stroke="midnightblue" points="740.574,-352.851 750.728,-349.826 740.904,-345.858 740.574,-352.851"/>
</g>
<!-- Node11 -->
<g id="node11" class="node"><title>Node11</title>
<g id="a_node11"><a xlink:href="unzip_8c.html#aca92d6709924f9c82ce13f0c18cc26b1" target="_top" xlink:title="unz64local_getShort">
<polygon fill="white" stroke="black" points="1205,-456.5 1205,-475.5 1310,-475.5 1310,-456.5 1205,-456.5"/>
<text text-anchor="middle" x="1257.5" y="-463.5" font-family="Helvetica,sans-Serif" font-size="10.00">unz64local_getShort</text>
</a>
</g>
</g>
<!-- Node2&#45;&gt;Node11 -->
<g id="edge33" class="edge"><title>Node2&#45;&gt;Node11</title>
<path fill="none" stroke="midnightblue" d="M161.975,-304.81C182.997,-354.925 286.328,-580 446.5,-580 446.5,-580 446.5,-580 622,-580 737.864,-580 767.629,-579.538 882,-561 1005.75,-540.941 1148.43,-499.533 1216.43,-478.642"/>
<polygon fill="midnightblue" stroke="midnightblue" points="1217.78,-481.889 1226.3,-475.593 1215.71,-475.201 1217.78,-481.889"/>
</g>
<!-- Node13 -->
<g id="node13" class="node"><title>Node13</title>
<g id="a_node13"><a xlink:href="unzip_8c.html#a65165fb74a10780ee7b66e9c6c57da3c" target="_top" xlink:title="unz64local_getLong64">
<polygon fill="white" stroke="black" points="918,-228.5 918,-247.5 1031,-247.5 1031,-228.5 918,-228.5"/>
<text text-anchor="middle" x="974.5" y="-235.5" font-family="Helvetica,sans-Serif" font-size="10.00">unz64local_getLong64</text>
</a>
</g>
</g>
<!-- Node2&#45;&gt;Node13 -->
<g id="edge35" class="edge"><title>Node2&#45;&gt;Node13</title>
<path fill="none" stroke="midnightblue" d="M169.218,-285.435C206.171,-254.939 328.473,-162 446.5,-162 446.5,-162 446.5,-162 622,-162 739.935,-162 875.203,-203.378 938.016,-225.071"/>
<polygon fill="midnightblue" stroke="midnightblue" points="936.866,-228.377 947.461,-228.375 939.177,-221.769 936.866,-228.377"/>
</g>
<!-- Node14 -->
<g id="node14" class="node"><title>Node14</title>
<g id="a_node14"><a xlink:href="unzip_8c.html#a54821c0b6da683800164a56f2ae14f33" target="_top" xlink:title="unzGoToFirstFile">
<polygon fill="white" stroke="black" points="242.5,-374.5 242.5,-393.5 334.5,-393.5 334.5,-374.5 242.5,-374.5"/>
<text text-anchor="middle" x="288.5" y="-381.5" font-family="Helvetica,sans-Serif" font-size="10.00">unzGoToFirstFile</text>
</a>
</g>
</g>
<!-- Node2&#45;&gt;Node14 -->
<g id="edge36" class="edge"><title>Node2&#45;&gt;Node14</title>
<path fill="none" stroke="midnightblue" d="M168.101,-304.703C182.547,-318.243 210.317,-343.045 237,-360 242.592,-363.553 248.791,-366.918 254.877,-369.941"/>
<polygon fill="midnightblue" stroke="midnightblue" points="253.709,-373.261 264.243,-374.391 256.713,-366.938 253.709,-373.261"/>
</g>
<!-- Node6&#45;&gt;Node3 -->
<g id="edge6" class="edge"><title>Node6&#45;&gt;Node3</title>
<path fill="none" stroke="midnightblue" d="M453.405,-255.592C474.098,-296.05 553.277,-450.78 555,-453 642.041,-565.1 659.576,-656 801.5,-656 801.5,-656 801.5,-656 1119,-656 1205.64,-656 1229.89,-649.988 1310,-617 1322.91,-611.683 1336.04,-603.304 1346.39,-595.863"/>
<polygon fill="midnightblue" stroke="midnightblue" points="1348.77,-598.453 1354.69,-589.667 1344.58,-592.843 1348.77,-598.453"/>
</g>
<!-- Node6&#45;&gt;Node4 -->
<g id="edge31" class="edge"><title>Node6&#45;&gt;Node4</title>
<path fill="none" stroke="midnightblue" d="M459.829,-236.47C501.972,-202.025 654.816,-86 801.5,-86 801.5,-86 801.5,-86 1119,-86 1205.22,-86 1227.17,-96.0574 1310,-120 1318.78,-122.536 1328.05,-125.975 1336.49,-129.419"/>
<polygon fill="midnightblue" stroke="midnightblue" points="1335.37,-132.743 1345.94,-133.411 1338.09,-126.295 1335.37,-132.743"/>
</g>
<!-- Node6&#45;&gt;Node7 -->
<g id="edge7" class="edge"><title>Node6&#45;&gt;Node7</title>
<path fill="none" stroke="midnightblue" d="M481.974,-255.564C503.497,-261.713 532.125,-269.893 557.727,-277.208"/>
<polygon fill="midnightblue" stroke="midnightblue" points="556.794,-280.581 567.371,-279.963 558.717,-273.85 556.794,-280.581"/>
</g>
<!-- Node12 -->
<g id="node12" class="node"><title>Node12</title>
<g id="a_node12"><a xlink:href="unzip_8c.html#a5f1693991177fe0570e4c9bf0b95e510" target="_top" xlink:title="OF">
<polygon fill="white" stroke="black" points="1352.5,-304.5 1352.5,-323.5 1382.5,-323.5 1382.5,-304.5 1352.5,-304.5"/>
<text text-anchor="middle" x="1367.5" y="-311.5" font-family="Helvetica,sans-Serif" font-size="10.00">OF</text>
</a>
</g>
</g>
<!-- Node6&#45;&gt;Node12 -->
<g id="edge30" class="edge"><title>Node6&#45;&gt;Node12</title>
<path fill="none" stroke="midnightblue" d="M492.838,-236.469C559.493,-222.995 689.637,-200 801.5,-200 801.5,-200 801.5,-200 1119,-200 1211.56,-200 1307.2,-266.583 1347.15,-297.978"/>
<polygon fill="midnightblue" stroke="midnightblue" points="1345.03,-300.763 1355.02,-304.28 1349.4,-295.298 1345.03,-300.763"/>
</g>
<!-- Node7&#45;&gt;Node3 -->
<g id="edge8" class="edge"><title>Node7&#45;&gt;Node3</title>
<path fill="none" stroke="midnightblue" d="M638.851,-310.042C658.115,-326.655 691.117,-353.38 723,-371 923.692,-481.912 983.355,-496.245 1205,-555 1249.6,-566.822 1302.7,-573.713 1335.51,-577.166"/>
<polygon fill="midnightblue" stroke="midnightblue" points="1335.52,-580.685 1345.82,-578.208 1336.22,-573.72 1335.52,-580.685"/>
</g>
<!-- Node7&#45;&gt;Node8 -->
<g id="edge9" class="edge"><title>Node7&#45;&gt;Node8</title>
<path fill="none" stroke="midnightblue" d="M669.631,-310.125C698.4,-319.261 734.635,-330.767 761.839,-339.406"/>
<polygon fill="midnightblue" stroke="midnightblue" points="760.831,-342.758 771.422,-342.449 762.95,-336.086 760.831,-342.758"/>
</g>
<!-- Node7&#45;&gt;Node13 -->
<g id="edge29" class="edge"><title>Node7&#45;&gt;Node13</title>
<path fill="none" stroke="midnightblue" d="M686.88,-284.479C749.735,-274.286 844.567,-258.908 907.723,-248.667"/>
<polygon fill="midnightblue" stroke="midnightblue" points="908.655,-252.061 917.966,-247.006 907.534,-245.152 908.655,-252.061"/>
</g>
<!-- Node8&#45;&gt;Node3 -->
<g id="edge10" class="edge"><title>Node8&#45;&gt;Node3</title>
<path fill="none" stroke="midnightblue" d="M821.906,-361.63C844.333,-373.218 883.507,-392.986 918,-408 1072.82,-475.39 1263.3,-543.776 1336.19,-569.426"/>
<polygon fill="midnightblue" stroke="midnightblue" points="1335.08,-572.746 1345.67,-572.757 1337.4,-566.141 1335.08,-572.746"/>
</g>
<!-- Node8&#45;&gt;Node4 -->
<g id="edge28" class="edge"><title>Node8&#45;&gt;Node4</title>
<path fill="none" stroke="midnightblue" d="M827.063,-342.394C911.623,-307.926 1195.32,-192.333 1205,-189 1250.02,-173.5 1303.33,-159.055 1336.03,-150.627"/>
<polygon fill="midnightblue" stroke="midnightblue" points="1337.06,-153.975 1345.88,-148.108 1335.33,-147.193 1337.06,-153.975"/>
</g>
<!-- Node9 -->
<g id="node9" class="node"><title>Node9</title>
<g id="a_node9"><a xlink:href="unzip_8c.html#a4fdc20c5d880511c727c425b1f11ef68" target="_top" xlink:title="unz64local_getByte">
<polygon fill="white" stroke="black" points="1067,-342.5 1067,-361.5 1169,-361.5 1169,-342.5 1067,-342.5"/>
<text text-anchor="middle" x="1118" y="-349.5" font-family="Helvetica,sans-Serif" font-size="10.00">unz64local_getByte</text>
</a>
</g>
</g>
<!-- Node8&#45;&gt;Node9 -->
<g id="edge11" class="edge"><title>Node8&#45;&gt;Node9</title>
<path fill="none" stroke="midnightblue" d="M854.218,-352C909.474,-352 997.823,-352 1056.62,-352"/>
<polygon fill="midnightblue" stroke="midnightblue" points="1056.87,-355.5 1066.87,-352 1056.87,-348.5 1056.87,-355.5"/>
</g>
<!-- Node8&#45;&gt;Node12 -->
<g id="edge27" class="edge"><title>Node8&#45;&gt;Node12</title>
<path fill="none" stroke="midnightblue" d="M854.006,-348.228C907.04,-344.298 992.868,-338.024 1067,-333 1169.43,-326.058 1291.61,-318.546 1342.46,-315.455"/>
<polygon fill="midnightblue" stroke="midnightblue" points="1342.69,-318.947 1352.46,-314.847 1342.27,-311.96 1342.69,-318.947"/>
</g>
<!-- Node8&#45;&gt;Node13 -->
<g id="edge22" class="edge"><title>Node8&#45;&gt;Node13</title>
<path fill="none" stroke="midnightblue" d="M854.131,-342.82C864.09,-339.351 873.937,-334.575 882,-328 907.895,-306.884 893.321,-284.525 918,-262 922.216,-258.152 927.145,-254.856 932.294,-252.051"/>
<polygon fill="midnightblue" stroke="midnightblue" points="934.205,-255.015 941.692,-247.519 931.165,-248.709 934.205,-255.015"/>
</g>
<!-- Node9&#45;&gt;Node3 -->
<g id="edge21" class="edge"><title>Node9&#45;&gt;Node3</title>
<path fill="none" stroke="midnightblue" d="M1142.43,-361.516C1151.09,-365.473 1160.79,-370.443 1169,-376 1186.98,-388.161 1186.43,-397.755 1205,-409 1247.45,-434.711 1273.96,-412.876 1310,-447 1342.97,-478.218 1357.56,-531.766 1363.28,-560.471"/>
<polygon fill="midnightblue" stroke="midnightblue" points="1359.87,-561.272 1365.11,-570.478 1366.75,-560.011 1359.87,-561.272"/>
</g>
<!-- Node9&#45;&gt;Node4 -->
<g id="edge20" class="edge"><title>Node9&#45;&gt;Node4</title>
<path fill="none" stroke="midnightblue" d="M1130.28,-342.477C1169.25,-309.563 1298.55,-200.376 1347.5,-159.044"/>
<polygon fill="midnightblue" stroke="midnightblue" points="1349.77,-161.705 1355.16,-152.579 1345.26,-156.357 1349.77,-161.705"/>
</g>
<!-- Node10 -->
<g id="node10" class="node"><title>Node10</title>
<g id="a_node10"><a xlink:href="ioapi_8h.html#a787fa3cf048117ba7123753c1e74fcd6" target="_top" xlink:title="int">
<polygon fill="white" stroke="black" points="1243,-380.5 1243,-399.5 1272,-399.5 1272,-380.5 1243,-380.5"/>
<text text-anchor="middle" x="1257.5" y="-387.5" font-family="Helvetica,sans-Serif" font-size="10.00">int</text>
</a>
</g>
</g>
<!-- Node9&#45;&gt;Node10 -->
<g id="edge12" class="edge"><title>Node9&#45;&gt;Node10</title>
<path fill="none" stroke="midnightblue" d="M1153.7,-361.589C1178.58,-368.467 1211.43,-377.545 1233.23,-383.569"/>
<polygon fill="midnightblue" stroke="midnightblue" points="1232.38,-386.966 1242.96,-386.257 1234.25,-380.219 1232.38,-386.966"/>
</g>
<!-- Node9&#45;&gt;Node11 -->
<g id="edge13" class="edge"><title>Node9&#45;&gt;Node11</title>
<path fill="none" stroke="midnightblue" d="M1162.68,-361.796C1164.92,-363.406 1167.04,-365.144 1169,-367 1193.23,-390.007 1180.64,-410.132 1205,-433 1213.83,-441.288 1226.03,-447.146 1236.35,-451.992"/>
<polygon fill="midnightblue" stroke="midnightblue" points="1234.95,-455.204 1245.48,-456.373 1237.98,-448.893 1234.95,-455.204"/>
</g>
<!-- Node9&#45;&gt;Node12 -->
<g id="edge19" class="edge"><title>Node9&#45;&gt;Node12</title>
<path fill="none" stroke="midnightblue" d="M1169.12,-347.335C1207.79,-343.341 1262.52,-336.833 1310,-328 1320.65,-326.018 1332.29,-323.241 1342.22,-320.681"/>
<polygon fill="midnightblue" stroke="midnightblue" points="1343.43,-323.982 1352.2,-318.038 1341.64,-317.215 1343.43,-323.982"/>
</g>
<!-- Node11&#45;&gt;Node3 -->
<g id="edge14" class="edge"><title>Node11&#45;&gt;Node3</title>
<path fill="none" stroke="midnightblue" d="M1267.71,-475.72C1286.04,-495.07 1327.31,-538.632 1350.28,-562.884"/>
<polygon fill="midnightblue" stroke="midnightblue" points="1347.9,-565.453 1357.32,-570.305 1352.98,-560.638 1347.9,-565.453"/>
</g>
<!-- Node11&#45;&gt;Node4 -->
<g id="edge18" class="edge"><title>Node11&#45;&gt;Node4</title>
<path fill="none" stroke="midnightblue" d="M1270.26,-456.372C1282.16,-445.957 1300.18,-428.243 1310,-409 1332.4,-365.131 1355.82,-216.06 1363.72,-162.425"/>
<polygon fill="midnightblue" stroke="midnightblue" points="1367.18,-162.901 1365.16,-152.501 1360.26,-161.893 1367.18,-162.901"/>
</g>
<!-- Node11&#45;&gt;Node8 -->
<g id="edge16" class="edge"><title>Node11&#45;&gt;Node8</title>
<path fill="none" stroke="midnightblue" d="M1218.45,-456.423C1136.06,-435.692 941.369,-386.695 851.049,-363.966"/>
<polygon fill="midnightblue" stroke="midnightblue" points="851.895,-360.57 841.343,-361.523 850.187,-367.358 851.895,-360.57"/>
</g>
<!-- Node11&#45;&gt;Node9 -->
<g id="edge15" class="edge"><title>Node11&#45;&gt;Node9</title>
<path fill="none" stroke="midnightblue" d="M1211.51,-456.285C1209.2,-454.654 1207.01,-452.89 1205,-451 1180.64,-428.132 1193.23,-408.007 1169,-385 1160.52,-376.945 1148.82,-371.13 1138.88,-366.28"/>
<polygon fill="midnightblue" stroke="midnightblue" points="1140.21,-363.034 1129.7,-361.706 1137.09,-369.299 1140.21,-363.034"/>
</g>
<!-- Node11&#45;&gt;Node12 -->
<g id="edge17" class="edge"><title>Node11&#45;&gt;Node12</title>
<path fill="none" stroke="midnightblue" d="M1268.25,-456.424C1279.1,-445.493 1296.86,-426.815 1310,-409 1328.53,-383.884 1346.32,-352.335 1356.83,-332.665"/>
<polygon fill="midnightblue" stroke="midnightblue" points="1360.07,-334.038 1361.63,-323.559 1353.87,-330.774 1360.07,-334.038"/>
</g>
<!-- Node13&#45;&gt;Node4 -->
<g id="edge26" class="edge"><title>Node13&#45;&gt;Node4</title>
<path fill="none" stroke="midnightblue" d="M981.585,-228.268C994.484,-208.67 1026.72,-164.883 1067,-148 1158.47,-109.661 1279.87,-125.669 1335.84,-136.328"/>
<polygon fill="midnightblue" stroke="midnightblue" points="1335.33,-139.796 1345.82,-138.307 1336.69,-132.929 1335.33,-139.796"/>
</g>
<!-- Node13&#45;&gt;Node6 -->
<g id="edge24" class="edge"><title>Node13&#45;&gt;Node6</title>
<path fill="none" stroke="midnightblue" d="M917.746,-238.85C824.559,-240.27 636.81,-243.131 529.19,-244.77"/>
<polygon fill="midnightblue" stroke="midnightblue" points="528.977,-241.273 519.031,-244.925 529.083,-248.272 528.977,-241.273"/>
</g>
<!-- Node13&#45;&gt;Node9 -->
<g id="edge23" class="edge"><title>Node13&#45;&gt;Node9</title>
<path fill="none" stroke="midnightblue" d="M987.564,-247.72C1011.9,-267.322 1067.07,-311.772 1096.92,-335.823"/>
<polygon fill="midnightblue" stroke="midnightblue" points="1094.98,-338.757 1104.97,-342.305 1099.37,-333.306 1094.98,-338.757"/>
</g>
<!-- Node13&#45;&gt;Node12 -->
<g id="edge25" class="edge"><title>Node13&#45;&gt;Node12</title>
<path fill="none" stroke="midnightblue" d="M1031.04,-247.251C1097.58,-258.573 1212.3,-278.86 1310,-300 1320.59,-302.291 1332.22,-305.119 1342.16,-307.632"/>
<polygon fill="midnightblue" stroke="midnightblue" points="1341.6,-311.102 1352.16,-310.195 1343.34,-304.321 1341.6,-311.102"/>
</g>
<!-- Node15 -->
<g id="node15" class="node"><title>Node15</title>
<g id="a_node15"><a xlink:href="unzip_8c.html#a73eb13cdd8085ee7901d3b8650aa5ae6" target="_top" xlink:title="unzGoToFirstFile2">
<polygon fill="white" stroke="black" points="399,-393.5 399,-412.5 496,-412.5 496,-393.5 399,-393.5"/>
<text text-anchor="middle" x="447.5" y="-400.5" font-family="Helvetica,sans-Serif" font-size="10.00">unzGoToFirstFile2</text>
</a>
</g>
</g>
<!-- Node14&#45;&gt;Node15 -->
<g id="edge37" class="edge"><title>Node14&#45;&gt;Node15</title>
<path fill="none" stroke="midnightblue" d="M334.911,-389.496C351.642,-391.52 370.827,-393.842 388.517,-395.983"/>
<polygon fill="midnightblue" stroke="midnightblue" points="388.382,-399.492 398.73,-397.219 389.223,-392.543 388.382,-399.492"/>
</g>
<!-- Node16 -->
<g id="node16" class="node"><title>Node16</title>
<g id="a_node16"><a xlink:href="unzip_8c.html#a7e95bff78b7b5e9e99e30b28d68da361" target="_top" xlink:title="unz64local_GetCurrentFile\lInfoInternal">
<polygon fill="white" stroke="black" points="555,-413 555,-443 687,-443 687,-413 555,-413"/>
<text text-anchor="start" x="563" y="-431" font-family="Helvetica,sans-Serif" font-size="10.00">unz64local_GetCurrentFile</text>
<text text-anchor="middle" x="621" y="-420" font-family="Helvetica,sans-Serif" font-size="10.00">InfoInternal</text>
</a>
</g>
</g>
<!-- Node15&#45;&gt;Node16 -->
<g id="edge38" class="edge"><title>Node15&#45;&gt;Node16</title>
<path fill="none" stroke="midnightblue" d="M496.272,-409.964C511.292,-412.153 528.261,-414.627 544.708,-417.024"/>
<polygon fill="midnightblue" stroke="midnightblue" points="544.459,-420.525 554.859,-418.504 545.469,-413.598 544.459,-420.525"/>
</g>
<!-- Node16&#45;&gt;Node3 -->
<g id="edge39" class="edge"><title>Node16&#45;&gt;Node3</title>
<path fill="none" stroke="midnightblue" d="M629.008,-443.127C642.792,-471.108 676.209,-530.842 723,-561 818.972,-622.857 859.321,-618 973.5,-618 973.5,-618 973.5,-618 1119,-618 1204.56,-618 1225.89,-609.649 1310,-594 1318.55,-592.41 1327.73,-590.308 1336.16,-588.217"/>
<polygon fill="midnightblue" stroke="midnightblue" points="1337.14,-591.577 1345.96,-585.708 1335.41,-584.795 1337.14,-591.577"/>
</g>
<!-- Node16&#45;&gt;Node8 -->
<g id="edge40" class="edge"><title>Node16&#45;&gt;Node8</title>
<path fill="none" stroke="midnightblue" d="M657.463,-412.985C690.008,-399.206 737.807,-378.968 769.284,-365.64"/>
<polygon fill="midnightblue" stroke="midnightblue" points="771.046,-368.695 778.89,-361.573 768.317,-362.249 771.046,-368.695"/>
</g>
<!-- Node16&#45;&gt;Node9 -->
<g id="edge44" class="edge"><title>Node16&#45;&gt;Node9</title>
<path fill="none" stroke="midnightblue" d="M687.203,-418.34C767.948,-406.327 909.681,-385.07 1031,-366 1039.38,-364.683 1048.21,-363.272 1056.9,-361.87"/>
<polygon fill="midnightblue" stroke="midnightblue" points="1057.68,-365.289 1066.99,-360.236 1056.56,-358.379 1057.68,-365.289"/>
</g>
<!-- Node16&#45;&gt;Node11 -->
<g id="edge41" class="edge"><title>Node16&#45;&gt;Node11</title>
<path fill="none" stroke="midnightblue" d="M687.217,-431.906C810.129,-439.267 1074.49,-455.1 1194.72,-462.3"/>
<polygon fill="midnightblue" stroke="midnightblue" points="1194.66,-465.803 1204.85,-462.907 1195.08,-458.815 1194.66,-465.803"/>
</g>
<!-- Node16&#45;&gt;Node13 -->
<g id="edge43" class="edge"><title>Node16&#45;&gt;Node13</title>
<path fill="none" stroke="midnightblue" d="M634.485,-412.713C652.177,-391.959 686.478,-354.947 723,-333 786.969,-294.559 812.812,-306.979 882,-279 898.404,-272.366 901.877,-269.29 918,-262 925.684,-258.525 934.011,-254.868 941.821,-251.485"/>
<polygon fill="midnightblue" stroke="midnightblue" points="943.213,-254.696 951.012,-247.525 940.444,-248.267 943.213,-254.696"/>
</g>
<!-- Node17 -->
<g id="node17" class="node"><title>Node17</title>
<g id="a_node17"><a xlink:href="unzip_8c.html#a48f0609b270f39b1243d76e69cc6173f" target="_top" xlink:title="unz64local_DosDateToTmuDate">
<polygon fill="white" stroke="black" points="723,-532.5 723,-551.5 882,-551.5 882,-532.5 723,-532.5"/>
<text text-anchor="middle" x="802.5" y="-539.5" font-family="Helvetica,sans-Serif" font-size="10.00">unz64local_DosDateToTmuDate</text>
</a>
</g>
</g>
<!-- Node16&#45;&gt;Node17 -->
<g id="edge42" class="edge"><title>Node16&#45;&gt;Node17</title>
<path fill="none" stroke="midnightblue" d="M635.176,-443.278C653.132,-463.194 687.175,-497.853 723,-518 730.936,-522.463 739.801,-526.193 748.636,-529.279"/>
<polygon fill="midnightblue" stroke="midnightblue" points="747.573,-532.613 758.166,-532.377 749.738,-525.957 747.573,-532.613"/>
</g>
</g>
</svg>
        <g id="navigator" transform="translate(0 0)" fill="#404254">
                <rect fill="#f2f5e9" fill-opacity="0.5" stroke="#606060" stroke-width=".5" x="0" y="0" width="60" height="60"/>
                <use id="zoomplus" xlink:href="#zoomPlus" x="17" y="9" onmousedown="handleZoom(evt,'in')"/>
                <use id="zoomminus" xlink:href="#zoomMin" x="42" y="9" onmousedown="handleZoom(evt,'out')"/>
                <use id="reset" xlink:href="#resetDef" x="30" y="36" onmousedown="handleReset()"/>
                <g id="arrowUp" xlink:href="#dirArrow" transform="translate(30 24)" onmousedown="handlePan(0,-1)">
                  <use xlink:href="#rim" fill="#404040">
                        <set attributeName="fill" to="#808080" begin="arrowUp.mouseover" end="arrowUp.mouseout"/>
                  </use>
                  <path fill="none" stroke="white" stroke-width="1.5" d="M0,-3.0v7 M-2.5,-0.5L0,-3.0L2.5,-0.5"/>
                </g>
                <g id="arrowRight" xlink:href="#dirArrow" transform="rotate(90) translate(36 -43)" onmousedown="handlePan(1,0)">
                  <use xlink:href="#rim" fill="#404040">
                        <set attributeName="fill" to="#808080" begin="arrowRight.mouseover" end="arrowRight.mouseout"/>
                  </use>
                  <path fill="none" stroke="white" stroke-width="1.5" d="M0,-3.0v7 M-2.5,-0.5L0,-3.0L2.5,-0.5"/>
                </g>
                <g id="arrowDown" xlink:href="#dirArrow" transform="rotate(180) translate(-30 -48)" onmousedown="handlePan(0,1)">
                  <use xlink:href="#rim" fill="#404040">
                        <set attributeName="fill" to="#808080" begin="arrowDown.mouseover" end="arrowDown.mouseout"/>
                  </use>
                  <path fill="none" stroke="white" stroke-width="1.5" d="M0,-3.0v7 M-2.5,-0.5L0,-3.0L2.5,-0.5"/>
                </g>
                <g id="arrowLeft" xlink:href="#dirArrow" transform="rotate(270) translate(-36 17)" onmousedown="handlePan(-1,0)">
                  <use xlink:href="#rim" fill="#404040">
                        <set attributeName="fill" to="#808080" begin="arrowLeft.mouseover" end="arrowLeft.mouseout"/>
                  </use>
                  <path fill="none" stroke="white" stroke-width="1.5" d="M0,-3.0v7 M-2.5,-0.5L0,-3.0L2.5,-0.5"/>
                </g>
        </g>
        <svg viewBox="0 0 15 15" width="100%" height="30px" preserveAspectRatio="xMaxYMin meet">
         <g id="arrow_out" transform="scale(0.3 0.3)">
          <a xlink:href="unzip_8c_a3c2961b4d84447e2d4ab06835c30fa23_cgraph_org.svg" target="_base">
           <rect id="button" ry="5" rx="5" y="6" x="6" height="38" width="38"
                fill="#f2f5e9" fill-opacity="0.5" stroke="#606060" stroke-width="1.0"/>
           <path id="arrow"
             d="M 11.500037,31.436501 C 11.940474,20.09759 22.043105,11.32322 32.158766,21.979434 L 37.068811,17.246167 C 37.068811,17.246167 37.088388,32 37.088388,32 L 22.160133,31.978069 C 22.160133,31.978069 26.997745,27.140456 26.997745,27.140456 C 18.528582,18.264221 13.291696,25.230495 11.500037,31.436501 z"
             style="fill:#404040;"/>
          </a>
         </g>
        </svg>
</svg>
