<?xml version="1.0" encoding="UTF-8" standalone="no"?>
<!DOCTYPE svg PUBLIC "-//W3C//DTD SVG 1.1//EN"
 "http://www.w3.org/Graphics/SVG/1.1/DTD/svg11.dtd">
<!-- Generated by graphviz version 2.38.0 (20140413.2041)
 -->
<!-- Title: unzOpenCurrentFile2 Pages: 1 -->
<svg width="1156pt" height="714pt"
 viewBox="0.00 0.00 1156.00 714.00" xmlns="http://www.w3.org/2000/svg" xmlns:xlink="http://www.w3.org/1999/xlink">
<g id="graph0" class="graph" transform="scale(1 1) rotate(0) translate(4 710)">
<title>unzOpenCurrentFile2</title>
<polygon fill="white" stroke="none" points="-4,4 -4,-710 1152,-710 1152,4 -4,4"/>
<!-- Node1 -->
<g id="node1" class="node"><title>Node1</title>
<polygon fill="#bfbfbf" stroke="black" points="0,-600.5 0,-619.5 109,-619.5 109,-600.5 0,-600.5"/>
<text text-anchor="middle" x="54.5" y="-607.5" font-family="Helvetica,sans-Serif" font-size="10.00">unzOpenCurrentFile2</text>
</g>
<!-- Node2 -->
<g id="node2" class="node"><title>Node2</title>
<g id="a_node2"><a xlink:href="unzip_8c.html#a5eb86267fb9a5e4f52a123df606b2af5" target="_top" xlink:title="unzOpenCurrentFile3">
<polygon fill="white" stroke="black" points="145,-600.5 145,-619.5 254,-619.5 254,-600.5 145,-600.5"/>
<text text-anchor="middle" x="199.5" y="-607.5" font-family="Helvetica,sans-Serif" font-size="10.00">unzOpenCurrentFile3</text>
</a>
</g>
</g>
<!-- Node1&#45;&gt;Node2 -->
<g id="edge1" class="edge"><title>Node1&#45;&gt;Node2</title>
<path fill="none" stroke="midnightblue" d="M109.155,-610C117.381,-610 125.944,-610 134.368,-610"/>
<polygon fill="midnightblue" stroke="midnightblue" points="134.545,-613.5 144.545,-610 134.544,-606.5 134.545,-613.5"/>
</g>
<!-- Node3 -->
<g id="node3" class="node"><title>Node3</title>
<g id="a_node3"><a xlink:href="unzip_8c.html#ac48279e5325cfdabbc67a312b1d32700" target="_top" xlink:title="unzCloseCurrentFile">
<polygon fill="white" stroke="black" points="309.5,-686.5 309.5,-705.5 415.5,-705.5 415.5,-686.5 309.5,-686.5"/>
<text text-anchor="middle" x="362.5" y="-693.5" font-family="Helvetica,sans-Serif" font-size="10.00">unzCloseCurrentFile</text>
</a>
</g>
</g>
<!-- Node2&#45;&gt;Node3 -->
<g id="edge2" class="edge"><title>Node2&#45;&gt;Node3</title>
<path fill="none" stroke="midnightblue" d="M211.987,-619.559C228.403,-632.834 259.924,-656.917 290,-672 298.424,-676.224 307.762,-679.97 316.835,-683.173"/>
<polygon fill="midnightblue" stroke="midnightblue" points="315.926,-686.56 326.52,-686.432 318.158,-679.925 315.926,-686.56"/>
</g>
<!-- Node4 -->
<g id="node4" class="node"><title>Node4</title>
<g id="a_node4"><a xlink:href="unzip_8c.html#a907fed0cb410e6a8ab58c69f13738aee" target="_top" xlink:title="unz64local_CheckCurrentFile\lCoherencyHeader">
<polygon fill="white" stroke="black" points="290,-548 290,-578 435,-578 435,-548 290,-548"/>
<text text-anchor="start" x="298" y="-566" font-family="Helvetica,sans-Serif" font-size="10.00">unz64local_CheckCurrentFile</text>
<text text-anchor="middle" x="362.5" y="-555" font-family="Helvetica,sans-Serif" font-size="10.00">CoherencyHeader</text>
</a>
</g>
</g>
<!-- Node2&#45;&gt;Node4 -->
<g id="edge3" class="edge"><title>Node2&#45;&gt;Node4</title>
<path fill="none" stroke="midnightblue" d="M233.081,-600.489C252.376,-594.856 277.447,-587.537 300.31,-580.863"/>
<polygon fill="midnightblue" stroke="midnightblue" points="301.331,-584.211 309.95,-578.049 299.37,-577.491 301.331,-584.211"/>
</g>
<!-- Node7 -->
<g id="node7" class="node"><title>Node7</title>
<g id="a_node7"><a xlink:href="ioapi_8h.html#a787fa3cf048117ba7123753c1e74fcd6" target="_top" xlink:title="int">
<polygon fill="white" stroke="black" points="989,-591.5 989,-610.5 1018,-610.5 1018,-591.5 989,-591.5"/>
<text text-anchor="middle" x="1003.5" y="-598.5" font-family="Helvetica,sans-Serif" font-size="10.00">int</text>
</a>
</g>
</g>
<!-- Node2&#45;&gt;Node7 -->
<g id="edge36" class="edge"><title>Node2&#45;&gt;Node7</title>
<path fill="none" stroke="midnightblue" d="M239.257,-619.598C299.313,-633.606 418.663,-658 521.5,-658 521.5,-658 521.5,-658 667.5,-658 786.136,-658 925.1,-622.828 979.252,-607.741"/>
<polygon fill="midnightblue" stroke="midnightblue" points="980.249,-611.097 988.92,-605.008 978.345,-604.361 980.249,-611.097"/>
</g>
<!-- Node12 -->
<g id="node12" class="node"><title>Node12</title>
<g id="a_node12"><a xlink:href="ioapi_8h.html#a39ab6d73c1cd44bc17064c2dcbb3e753" target="_top" xlink:title="voidpf">
<polygon fill="white" stroke="black" points="1105,-104.5 1105,-123.5 1148,-123.5 1148,-104.5 1105,-104.5"/>
<text text-anchor="middle" x="1126.5" y="-111.5" font-family="Helvetica,sans-Serif" font-size="10.00">voidpf</text>
</a>
</g>
</g>
<!-- Node2&#45;&gt;Node12 -->
<g id="edge37" class="edge"><title>Node2&#45;&gt;Node12</title>
<path fill="none" stroke="midnightblue" d="M200.855,-600.418C204.28,-522.813 237.88,-0 521.5,-0 521.5,-0 521.5,-0 831.5,-0 939.535,-0 1055.72,-67.7441 1103.28,-98.788"/>
<polygon fill="midnightblue" stroke="midnightblue" points="1101.59,-101.866 1111.86,-104.477 1105.46,-96.0322 1101.59,-101.866"/>
</g>
<!-- Node5 -->
<g id="node5" class="node"><title>Node5</title>
<g id="a_node5"><a xlink:href="ioapi_8h.html#a50e9e9d5c30e481de822ad68fe537986" target="_top" xlink:title="uLong">
<polygon fill="white" stroke="black" points="1105,-439.5 1105,-458.5 1148,-458.5 1148,-439.5 1105,-439.5"/>
<text text-anchor="middle" x="1126.5" y="-446.5" font-family="Helvetica,sans-Serif" font-size="10.00">uLong</text>
</a>
</g>
</g>
<!-- Node4&#45;&gt;Node5 -->
<g id="edge4" class="edge"><title>Node4&#45;&gt;Node5</title>
<path fill="none" stroke="midnightblue" d="M435.117,-555.952C496.259,-550.545 586.567,-544 665.5,-544 665.5,-544 665.5,-544 831.5,-544 940.593,-544 968.182,-523.677 1069,-482 1080.73,-477.149 1092.99,-470.243 1103.08,-464.001"/>
<polygon fill="midnightblue" stroke="midnightblue" points="1105.11,-466.86 1111.66,-458.533 1101.35,-460.957 1105.11,-466.86"/>
</g>
<!-- Node6 -->
<g id="node6" class="node"><title>Node6</title>
<g id="a_node6"><a xlink:href="unzip_8c.html#aeec38a873a7b86a540fa27279f83a864" target="_top" xlink:title="unzGoToNextDisk">
<polygon fill="white" stroke="black" points="617.5,-572.5 617.5,-591.5 715.5,-591.5 715.5,-572.5 617.5,-572.5"/>
<text text-anchor="middle" x="666.5" y="-579.5" font-family="Helvetica,sans-Serif" font-size="10.00">unzGoToNextDisk</text>
</a>
</g>
</g>
<!-- Node4&#45;&gt;Node6 -->
<g id="edge5" class="edge"><title>Node4&#45;&gt;Node6</title>
<path fill="none" stroke="midnightblue" d="M435.07,-567.503C487.505,-570.802 557.804,-575.224 606.913,-578.314"/>
<polygon fill="midnightblue" stroke="midnightblue" points="606.857,-581.817 617.057,-578.952 607.297,-574.831 606.857,-581.817"/>
</g>
<!-- Node4&#45;&gt;Node7 -->
<g id="edge35" class="edge"><title>Node4&#45;&gt;Node7</title>
<path fill="none" stroke="midnightblue" d="M421.517,-578.005C437.468,-581.716 454.829,-585.376 471,-588 664.688,-619.431 903.211,-607.625 978.54,-602.717"/>
<polygon fill="midnightblue" stroke="midnightblue" points="979.081,-606.188 988.822,-602.022 978.609,-599.204 979.081,-606.188"/>
</g>
<!-- Node8 -->
<g id="node8" class="node"><title>Node8</title>
<g id="a_node8"><a xlink:href="unzip_8c.html#ad3fe51136556c1c4a1e964a157d153ba" target="_top" xlink:title="unz64local_getLong">
<polygon fill="white" stroke="black" points="471,-359.5 471,-378.5 574,-378.5 574,-359.5 471,-359.5"/>
<text text-anchor="middle" x="522.5" y="-366.5" font-family="Helvetica,sans-Serif" font-size="10.00">unz64local_getLong</text>
</a>
</g>
</g>
<!-- Node4&#45;&gt;Node8 -->
<g id="edge7" class="edge"><title>Node4&#45;&gt;Node8</title>
<path fill="none" stroke="midnightblue" d="M375.898,-547.777C404.723,-512.384 476.136,-424.7 506.956,-386.858"/>
<polygon fill="midnightblue" stroke="midnightblue" points="509.942,-388.734 513.543,-378.77 504.514,-384.314 509.942,-388.734"/>
</g>
<!-- Node10 -->
<g id="node10" class="node"><title>Node10</title>
<g id="a_node10"><a xlink:href="unzip_8c.html#aca92d6709924f9c82ce13f0c18cc26b1" target="_top" xlink:title="unz64local_getShort">
<polygon fill="white" stroke="black" points="951,-420.5 951,-439.5 1056,-439.5 1056,-420.5 951,-420.5"/>
<text text-anchor="middle" x="1003.5" y="-427.5" font-family="Helvetica,sans-Serif" font-size="10.00">unz64local_getShort</text>
</a>
</g>
</g>
<!-- Node4&#45;&gt;Node10 -->
<g id="edge34" class="edge"><title>Node4&#45;&gt;Node10</title>
<path fill="none" stroke="midnightblue" d="M408.431,-547.979C427.577,-541.899 450.245,-535.121 471,-530 559.688,-508.117 820.611,-461.728 940.711,-440.728"/>
<polygon fill="midnightblue" stroke="midnightblue" points="941.596,-444.126 950.845,-438.958 940.392,-437.231 941.596,-444.126"/>
</g>
<!-- Node6&#45;&gt;Node7 -->
<g id="edge6" class="edge"><title>Node6&#45;&gt;Node7</title>
<path fill="none" stroke="midnightblue" d="M715.854,-584.742C788.746,-588.877 924.053,-596.551 978.695,-599.65"/>
<polygon fill="midnightblue" stroke="midnightblue" points="978.611,-603.151 988.793,-600.223 979.007,-596.162 978.611,-603.151"/>
</g>
<!-- Node8&#45;&gt;Node5 -->
<g id="edge8" class="edge"><title>Node8&#45;&gt;Node5</title>
<path fill="none" stroke="midnightblue" d="M534.621,-378.719C550.271,-391.806 580.223,-414.746 610,-426 747.325,-477.899 791.38,-457.647 938,-465 996.149,-467.916 1011.33,-473.008 1069,-465 1077.61,-463.804 1086.76,-461.628 1095.13,-459.258"/>
<polygon fill="midnightblue" stroke="midnightblue" points="1096.3,-462.561 1104.86,-456.324 1094.28,-455.859 1096.3,-462.561"/>
</g>
<!-- Node9 -->
<g id="node9" class="node"><title>Node9</title>
<g id="a_node9"><a xlink:href="unzip_8c.html#a4fdc20c5d880511c727c425b1f11ef68" target="_top" xlink:title="unz64local_getByte">
<polygon fill="white" stroke="black" points="779.5,-418.5 779.5,-437.5 881.5,-437.5 881.5,-418.5 779.5,-418.5"/>
<text text-anchor="middle" x="830.5" y="-425.5" font-family="Helvetica,sans-Serif" font-size="10.00">unz64local_getByte</text>
</a>
</g>
</g>
<!-- Node8&#45;&gt;Node9 -->
<g id="edge9" class="edge"><title>Node8&#45;&gt;Node9</title>
<path fill="none" stroke="midnightblue" d="M544.362,-378.631C561.599,-386.176 586.9,-396.318 610,-402 662.893,-415.01 724.613,-421.586 769.11,-424.863"/>
<polygon fill="midnightblue" stroke="midnightblue" points="768.962,-428.361 779.182,-425.571 769.452,-421.379 768.962,-428.361"/>
</g>
<!-- Node11 -->
<g id="node11" class="node"><title>Node11</title>
<g id="a_node11"><a xlink:href="unzip_8c.html#a5f1693991177fe0570e4c9bf0b95e510" target="_top" xlink:title="OF">
<polygon fill="white" stroke="black" points="1111.5,-218.5 1111.5,-237.5 1141.5,-237.5 1141.5,-218.5 1111.5,-218.5"/>
<text text-anchor="middle" x="1126.5" y="-225.5" font-family="Helvetica,sans-Serif" font-size="10.00">OF</text>
</a>
</g>
</g>
<!-- Node8&#45;&gt;Node11 -->
<g id="edge32" class="edge"><title>Node8&#45;&gt;Node11</title>
<path fill="none" stroke="midnightblue" d="M529.108,-359.356C541.253,-339.316 571.982,-292.963 610,-268 667.934,-229.96 690.558,-232.912 759,-222 895.066,-200.307 931.645,-208.129 1069,-219 1079.62,-219.84 1091.25,-221.555 1101.19,-223.265"/>
<polygon fill="midnightblue" stroke="midnightblue" points="1100.71,-226.736 1111.18,-225.077 1101.96,-219.848 1100.71,-226.736"/>
</g>
<!-- Node8&#45;&gt;Node12 -->
<g id="edge33" class="edge"><title>Node8&#45;&gt;Node12</title>
<path fill="none" stroke="midnightblue" d="M527.027,-359.248C536.638,-333.869 565.581,-264.905 610,-224 664.246,-174.046 689.165,-174.688 759,-151 835.848,-124.934 857.272,-123.255 938,-115 992.969,-109.379 1057.48,-110.773 1094.71,-112.35"/>
<polygon fill="midnightblue" stroke="midnightblue" points="1094.75,-115.855 1104.9,-112.816 1095.07,-108.863 1094.75,-115.855"/>
</g>
<!-- Node13 -->
<g id="node13" class="node"><title>Node13</title>
<g id="a_node13"><a xlink:href="unzip_8c.html#a65165fb74a10780ee7b66e9c6c57da3c" target="_top" xlink:title="unz64local_getLong64">
<polygon fill="white" stroke="black" points="610,-277.5 610,-296.5 723,-296.5 723,-277.5 610,-277.5"/>
<text text-anchor="middle" x="666.5" y="-284.5" font-family="Helvetica,sans-Serif" font-size="10.00">unz64local_getLong64</text>
</a>
</g>
</g>
<!-- Node8&#45;&gt;Node13 -->
<g id="edge20" class="edge"><title>Node8&#45;&gt;Node13</title>
<path fill="none" stroke="midnightblue" d="M540.067,-359.433C564.757,-345.176 611.394,-318.244 640.32,-301.541"/>
<polygon fill="midnightblue" stroke="midnightblue" points="642.129,-304.538 649.038,-296.506 638.628,-298.476 642.129,-304.538"/>
</g>
<!-- Node9&#45;&gt;Node5 -->
<g id="edge19" class="edge"><title>Node9&#45;&gt;Node5</title>
<path fill="none" stroke="midnightblue" d="M870.18,-437.512C890.271,-441.971 915.305,-446.784 938,-449 992.994,-454.37 1057.49,-452.619 1094.72,-450.829"/>
<polygon fill="midnightblue" stroke="midnightblue" points="1095.1,-454.314 1104.91,-450.305 1094.74,-447.323 1095.1,-454.314"/>
</g>
<!-- Node9&#45;&gt;Node7 -->
<g id="edge10" class="edge"><title>Node9&#45;&gt;Node7</title>
<path fill="none" stroke="midnightblue" d="M840.937,-437.548C868.667,-465.602 950.168,-548.056 985.661,-583.964"/>
<polygon fill="midnightblue" stroke="midnightblue" points="983.362,-586.617 992.881,-591.269 988.34,-581.696 983.362,-586.617"/>
</g>
<!-- Node9&#45;&gt;Node10 -->
<g id="edge11" class="edge"><title>Node9&#45;&gt;Node10</title>
<path fill="none" stroke="midnightblue" d="M881.881,-422.373C900.336,-421.996 921.434,-422.144 940.77,-422.765"/>
<polygon fill="midnightblue" stroke="midnightblue" points="940.875,-426.272 950.999,-423.146 941.136,-419.277 940.875,-426.272"/>
</g>
<!-- Node9&#45;&gt;Node11 -->
<g id="edge17" class="edge"><title>Node9&#45;&gt;Node11</title>
<path fill="none" stroke="midnightblue" d="M881.731,-420.753C942.848,-411.027 1041.32,-392.148 1069,-368 1105.25,-336.374 1118.57,-278.128 1123.2,-247.693"/>
<polygon fill="midnightblue" stroke="midnightblue" points="1126.7,-247.883 1124.58,-237.504 1119.77,-246.944 1126.7,-247.883"/>
</g>
<!-- Node9&#45;&gt;Node12 -->
<g id="edge18" class="edge"><title>Node9&#45;&gt;Node12</title>
<path fill="none" stroke="midnightblue" d="M845.715,-418.4C865.589,-405.357 903.166,-382.055 938,-368 993.782,-345.493 1026.52,-376.588 1069,-334 1076.25,-326.734 1109.07,-185.784 1121.08,-133.392"/>
<polygon fill="midnightblue" stroke="midnightblue" points="1124.5,-134.165 1123.31,-123.637 1117.67,-132.605 1124.5,-134.165"/>
</g>
<!-- Node10&#45;&gt;Node5 -->
<g id="edge12" class="edge"><title>Node10&#45;&gt;Node5</title>
<path fill="none" stroke="midnightblue" d="M1056.17,-438.113C1069.35,-440.182 1083.1,-442.342 1094.85,-444.186"/>
<polygon fill="midnightblue" stroke="midnightblue" points="1094.58,-447.687 1105,-445.781 1095.66,-440.772 1094.58,-447.687"/>
</g>
<!-- Node10&#45;&gt;Node8 -->
<g id="edge14" class="edge"><title>Node10&#45;&gt;Node8</title>
<path fill="none" stroke="midnightblue" d="M961.598,-420.479C943.424,-416.501 921.722,-412.095 902,-409 790.556,-391.513 659.423,-379.561 584.423,-373.538"/>
<polygon fill="midnightblue" stroke="midnightblue" points="584.466,-370.03 574.22,-372.727 583.912,-377.008 584.466,-370.03"/>
</g>
<!-- Node10&#45;&gt;Node9 -->
<g id="edge13" class="edge"><title>Node10&#45;&gt;Node9</title>
<path fill="none" stroke="midnightblue" d="M950.999,-435.649C932.438,-436.005 911.325,-435.837 892.062,-435.196"/>
<polygon fill="midnightblue" stroke="midnightblue" points="892.008,-431.692 881.881,-434.805 891.739,-438.687 892.008,-431.692"/>
</g>
<!-- Node10&#45;&gt;Node11 -->
<g id="edge15" class="edge"><title>Node10&#45;&gt;Node11</title>
<path fill="none" stroke="midnightblue" d="M1047.04,-420.424C1055.16,-416.982 1062.99,-412.316 1069,-406 1111.77,-361.085 1122.17,-283.903 1124.69,-247.757"/>
<polygon fill="midnightblue" stroke="midnightblue" points="1128.2,-247.737 1125.27,-237.556 1121.21,-247.344 1128.2,-247.737"/>
</g>
<!-- Node10&#45;&gt;Node12 -->
<g id="edge16" class="edge"><title>Node10&#45;&gt;Node12</title>
<path fill="none" stroke="midnightblue" d="M1018.67,-420.337C1033.56,-409.406 1056.52,-390.206 1069,-368 1070.47,-365.387 1108.36,-192.397 1121.25,-133.435"/>
<polygon fill="midnightblue" stroke="midnightblue" points="1124.7,-134.049 1123.42,-123.532 1117.86,-132.554 1124.7,-134.049"/>
</g>
<!-- Node13&#45;&gt;Node9 -->
<g id="edge21" class="edge"><title>Node13&#45;&gt;Node9</title>
<path fill="none" stroke="midnightblue" d="M678.635,-296.692C705.918,-320.438 776.355,-381.744 810.45,-411.42"/>
<polygon fill="midnightblue" stroke="midnightblue" points="808.446,-414.315 818.287,-418.241 813.042,-409.035 808.446,-414.315"/>
</g>
<!-- Node13&#45;&gt;Node11 -->
<g id="edge30" class="edge"><title>Node13&#45;&gt;Node11</title>
<path fill="none" stroke="midnightblue" d="M684.77,-277.392C702.726,-267.903 731.94,-253.848 759,-247 884.338,-215.281 1041.25,-221.909 1100.93,-226.021"/>
<polygon fill="midnightblue" stroke="midnightblue" points="1101,-229.535 1111.22,-226.774 1101.51,-222.554 1101,-229.535"/>
</g>
<!-- Node13&#45;&gt;Node12 -->
<g id="edge31" class="edge"><title>Node13&#45;&gt;Node12</title>
<path fill="none" stroke="midnightblue" d="M679.408,-277.346C696.386,-263.865 728.842,-239.133 759,-222 834.609,-179.045 854.538,-167.411 938,-143 991.808,-127.262 1056.95,-119.632 1094.56,-116.286"/>
<polygon fill="midnightblue" stroke="midnightblue" points="1095.19,-119.745 1104.86,-115.416 1094.6,-112.77 1095.19,-119.745"/>
</g>
<!-- Node14 -->
<g id="node14" class="node"><title>Node14</title>
<g id="a_node14"><a xlink:href="unzip_8c.html#a62c48825905347807e4daaf8451809e7" target="_top" xlink:title="unz64local_SearchCentralDir">
<polygon fill="white" stroke="black" points="759,-256.5 759,-275.5 902,-275.5 902,-256.5 759,-256.5"/>
<text text-anchor="middle" x="830.5" y="-263.5" font-family="Helvetica,sans-Serif" font-size="10.00">unz64local_SearchCentralDir</text>
</a>
</g>
</g>
<!-- Node13&#45;&gt;Node14 -->
<g id="edge22" class="edge"><title>Node13&#45;&gt;Node14</title>
<path fill="none" stroke="midnightblue" d="M723.251,-279.773C731.474,-278.707 740.083,-277.591 748.689,-276.476"/>
<polygon fill="midnightblue" stroke="midnightblue" points="749.3,-279.926 758.767,-275.169 748.4,-272.984 749.3,-279.926"/>
</g>
<!-- Node14&#45;&gt;Node5 -->
<g id="edge23" class="edge"><title>Node14&#45;&gt;Node5</title>
<path fill="none" stroke="midnightblue" d="M902.283,-263.356C962.732,-262.565 1043.79,-265.455 1069,-285 1114.32,-320.128 1123.48,-393.718 1125.2,-429.129"/>
<polygon fill="midnightblue" stroke="midnightblue" points="1121.7,-429.309 1125.53,-439.188 1128.7,-429.077 1121.7,-429.309"/>
</g>
<!-- Node14&#45;&gt;Node11 -->
<g id="edge28" class="edge"><title>Node14&#45;&gt;Node11</title>
<path fill="none" stroke="midnightblue" d="M902.245,-256.666C914.179,-255.101 926.441,-253.499 938,-252 996.693,-244.386 1065.74,-235.589 1101.43,-231.054"/>
<polygon fill="midnightblue" stroke="midnightblue" points="1101.91,-234.522 1111.39,-229.79 1101.02,-227.578 1101.91,-234.522"/>
</g>
<!-- Node14&#45;&gt;Node12 -->
<g id="edge29" class="edge"><title>Node14&#45;&gt;Node12</title>
<path fill="none" stroke="midnightblue" d="M849.891,-256.492C899.905,-230.634 1038.61,-158.924 1097.97,-128.234"/>
<polygon fill="midnightblue" stroke="midnightblue" points="1099.84,-131.206 1107.12,-123.505 1096.63,-124.988 1099.84,-131.206"/>
</g>
<!-- Node15 -->
<g id="node15" class="node"><title>Node15</title>
<g id="a_node15"><a xlink:href="unzip_8c.html#ad6a67f9e44f1e69bfc5fbdf9c49faa7f" target="_top" xlink:title="unz64local_SearchCentral\lDir64">
<polygon fill="white" stroke="black" points="938,-295 938,-325 1069,-325 1069,-295 938,-295"/>
<text text-anchor="start" x="946" y="-313" font-family="Helvetica,sans-Serif" font-size="10.00">unz64local_SearchCentral</text>
<text text-anchor="middle" x="1003.5" y="-302" font-family="Helvetica,sans-Serif" font-size="10.00">Dir64</text>
</a>
</g>
</g>
<!-- Node14&#45;&gt;Node15 -->
<g id="edge24" class="edge"><title>Node14&#45;&gt;Node15</title>
<path fill="none" stroke="midnightblue" d="M868.604,-275.547C887.771,-280.479 911.776,-286.656 934.147,-292.412"/>
<polygon fill="midnightblue" stroke="midnightblue" points="933.394,-295.832 943.951,-294.935 935.138,-289.053 933.394,-295.832"/>
</g>
<!-- Node15&#45;&gt;Node5 -->
<g id="edge25" class="edge"><title>Node15&#45;&gt;Node5</title>
<path fill="none" stroke="midnightblue" d="M1017.68,-325.14C1040.33,-351.157 1086.5,-404.193 1110.4,-431.655"/>
<polygon fill="midnightblue" stroke="midnightblue" points="1107.85,-434.054 1117.05,-439.298 1113.13,-429.458 1107.85,-434.054"/>
</g>
<!-- Node15&#45;&gt;Node8 -->
<g id="edge26" class="edge"><title>Node15&#45;&gt;Node8</title>
<path fill="none" stroke="midnightblue" d="M937.818,-317.967C844.976,-329.403 675.154,-350.32 584.435,-361.494"/>
<polygon fill="midnightblue" stroke="midnightblue" points="583.805,-358.045 574.308,-362.742 584.661,-364.993 583.805,-358.045"/>
</g>
<!-- Node15&#45;&gt;Node13 -->
<g id="edge27" class="edge"><title>Node15&#45;&gt;Node13</title>
<path fill="none" stroke="midnightblue" d="M937.777,-305.556C878.887,-301.513 792.369,-295.573 733.182,-291.509"/>
<polygon fill="midnightblue" stroke="midnightblue" points="733.411,-288.017 723.194,-290.824 732.931,-295.001 733.411,-288.017"/>
</g>
</g>
</svg>
