<?xml version="1.0" encoding="UTF-8" standalone="no"?>
<!DOCTYPE svg PUBLIC "-//W3C//DTD SVG 1.1//EN"
 "http://www.w3.org/Graphics/SVG/1.1/DTD/svg11.dtd">
<!-- Generated by graphviz version 2.38.0 (20140413.2041)
 -->
<!-- Title: unzGoToNextFile2 Pages: 1 -->
<svg width="1043pt" height="566pt"
 viewBox="0.00 0.00 1043.00 566.12" xmlns="http://www.w3.org/2000/svg" xmlns:xlink="http://www.w3.org/1999/xlink">
<g id="graph0" class="graph" transform="scale(1 1) rotate(0) translate(4 562.125)">
<title>unzGoToNextFile2</title>
<polygon fill="white" stroke="none" points="-4,4 -4,-562.125 1039,-562.125 1039,4 -4,4"/>
<!-- Node1 -->
<g id="node1" class="node"><title>Node1</title>
<polygon fill="#bfbfbf" stroke="black" points="0,-247.5 0,-266.5 98,-266.5 98,-247.5 0,-247.5"/>
<text text-anchor="middle" x="49" y="-254.5" font-family="Helvetica,sans-Serif" font-size="10.00">unzGoToNextFile2</text>
</g>
<!-- Node2 -->
<g id="node2" class="node"><title>Node2</title>
<g id="a_node2"><a xlink:href="unzip_8c.html#a7e95bff78b7b5e9e99e30b28d68da361" target="_top" xlink:title="unz64local_GetCurrentFile\lInfoInternal">
<polygon fill="white" stroke="black" points="134,-242 134,-272 266,-272 266,-242 134,-242"/>
<text text-anchor="start" x="142" y="-260" font-family="Helvetica,sans-Serif" font-size="10.00">unz64local_GetCurrentFile</text>
<text text-anchor="middle" x="200" y="-249" font-family="Helvetica,sans-Serif" font-size="10.00">InfoInternal</text>
</a>
</g>
</g>
<!-- Node1&#45;&gt;Node2 -->
<g id="edge1" class="edge"><title>Node1&#45;&gt;Node2</title>
<path fill="none" stroke="midnightblue" d="M98.376,-257C106.499,-257 115.097,-257 123.708,-257"/>
<polygon fill="midnightblue" stroke="midnightblue" points="123.796,-260.5 133.796,-257 123.796,-253.5 123.796,-260.5"/>
</g>
<!-- Node3 -->
<g id="node3" class="node"><title>Node3</title>
<g id="a_node3"><a xlink:href="ioapi_8h.html#a50e9e9d5c30e481de822ad68fe537986" target="_top" xlink:title="uLong">
<polygon fill="white" stroke="black" points="992,-440.5 992,-459.5 1035,-459.5 1035,-440.5 992,-440.5"/>
<text text-anchor="middle" x="1013.5" y="-447.5" font-family="Helvetica,sans-Serif" font-size="10.00">uLong</text>
</a>
</g>
</g>
<!-- Node2&#45;&gt;Node3 -->
<g id="edge2" class="edge"><title>Node2&#45;&gt;Node3</title>
<path fill="none" stroke="midnightblue" d="M209.013,-272.137C242.265,-332.659 375.94,-554 552.5,-554 552.5,-554 552.5,-554 718.5,-554 825.07,-554 863.43,-573.8 956,-521 977.39,-508.8 993.724,-485.026 1003.2,-468.361"/>
<polygon fill="midnightblue" stroke="midnightblue" points="1006.31,-469.975 1007.98,-459.513 1000.15,-466.652 1006.31,-469.975"/>
</g>
<!-- Node4 -->
<g id="node4" class="node"><title>Node4</title>
<g id="a_node4"><a xlink:href="unzip_8c.html#ad3fe51136556c1c4a1e964a157d153ba" target="_top" xlink:title="unz64local_getLong">
<polygon fill="white" stroke="black" points="330,-304.5 330,-323.5 433,-323.5 433,-304.5 330,-304.5"/>
<text text-anchor="middle" x="381.5" y="-311.5" font-family="Helvetica,sans-Serif" font-size="10.00">unz64local_getLong</text>
</a>
</g>
</g>
<!-- Node2&#45;&gt;Node4 -->
<g id="edge3" class="edge"><title>Node2&#45;&gt;Node4</title>
<path fill="none" stroke="midnightblue" d="M246.442,-272.051C263.802,-277.748 283.796,-284.244 302,-290 313.996,-293.793 327.053,-297.824 339.014,-301.478"/>
<polygon fill="midnightblue" stroke="midnightblue" points="338.169,-304.879 348.755,-304.445 340.209,-298.183 338.169,-304.879"/>
</g>
<!-- Node5 -->
<g id="node5" class="node"><title>Node5</title>
<g id="a_node5"><a xlink:href="unzip_8c.html#a4fdc20c5d880511c727c425b1f11ef68" target="_top" xlink:title="unz64local_getByte">
<polygon fill="white" stroke="black" points="666.5,-190.5 666.5,-209.5 768.5,-209.5 768.5,-190.5 666.5,-190.5"/>
<text text-anchor="middle" x="717.5" y="-197.5" font-family="Helvetica,sans-Serif" font-size="10.00">unz64local_getByte</text>
</a>
</g>
</g>
<!-- Node2&#45;&gt;Node5 -->
<g id="edge33" class="edge"><title>Node2&#45;&gt;Node5</title>
<path fill="none" stroke="midnightblue" d="M239.237,-241.924C257.873,-235.246 280.793,-228.009 302,-224 426.299,-200.505 574.97,-197.944 656.184,-198.657"/>
<polygon fill="midnightblue" stroke="midnightblue" points="656.19,-202.157 666.227,-198.765 656.265,-195.158 656.19,-202.157"/>
</g>
<!-- Node7 -->
<g id="node7" class="node"><title>Node7</title>
<g id="a_node7"><a xlink:href="unzip_8c.html#aca92d6709924f9c82ce13f0c18cc26b1" target="_top" xlink:title="unz64local_getShort">
<polygon fill="white" stroke="black" points="838,-190.5 838,-209.5 943,-209.5 943,-190.5 838,-190.5"/>
<text text-anchor="middle" x="890.5" y="-197.5" font-family="Helvetica,sans-Serif" font-size="10.00">unz64local_getShort</text>
</a>
</g>
</g>
<!-- Node2&#45;&gt;Node7 -->
<g id="edge30" class="edge"><title>Node2&#45;&gt;Node7</title>
<path fill="none" stroke="midnightblue" d="M266.068,-255.394C374.761,-252.129 599.976,-242.885 789,-219 804.029,-217.101 820.203,-214.357 835.089,-211.543"/>
<polygon fill="midnightblue" stroke="midnightblue" points="836.007,-214.931 845.159,-209.593 834.676,-208.058 836.007,-214.931"/>
</g>
<!-- Node10 -->
<g id="node10" class="node"><title>Node10</title>
<g id="a_node10"><a xlink:href="unzip_8c.html#a65165fb74a10780ee7b66e9c6c57da3c" target="_top" xlink:title="unz64local_getLong64">
<polygon fill="white" stroke="black" points="497,-266.5 497,-285.5 610,-285.5 610,-266.5 497,-266.5"/>
<text text-anchor="middle" x="553.5" y="-273.5" font-family="Helvetica,sans-Serif" font-size="10.00">unz64local_getLong64</text>
</a>
</g>
</g>
<!-- Node2&#45;&gt;Node10 -->
<g id="edge32" class="edge"><title>Node2&#45;&gt;Node10</title>
<path fill="none" stroke="midnightblue" d="M266.291,-260.529C329.105,-263.925 423.578,-269.031 486.597,-272.438"/>
<polygon fill="midnightblue" stroke="midnightblue" points="486.645,-275.945 496.819,-272.99 487.022,-268.955 486.645,-275.945"/>
</g>
<!-- Node13 -->
<g id="node13" class="node"><title>Node13</title>
<g id="a_node13"><a xlink:href="unzip_8c.html#a48f0609b270f39b1243d76e69cc6173f" target="_top" xlink:title="unz64local_DosDateToTmuDate">
<polygon fill="white" stroke="black" points="302,-0.5 302,-19.5 461,-19.5 461,-0.5 302,-0.5"/>
<text text-anchor="middle" x="381.5" y="-7.5" font-family="Helvetica,sans-Serif" font-size="10.00">unz64local_DosDateToTmuDate</text>
</a>
</g>
</g>
<!-- Node2&#45;&gt;Node13 -->
<g id="edge31" class="edge"><title>Node2&#45;&gt;Node13</title>
<path fill="none" stroke="midnightblue" d="M203.475,-241.711C210.791,-201.507 236.083,-91.9442 302,-34 306.706,-29.863 312.112,-26.4391 317.837,-23.6054"/>
<polygon fill="midnightblue" stroke="midnightblue" points="319.256,-26.805 327.043,-19.6206 316.476,-20.3809 319.256,-26.805"/>
</g>
<!-- Node4&#45;&gt;Node3 -->
<g id="edge4" class="edge"><title>Node4&#45;&gt;Node3</title>
<path fill="none" stroke="midnightblue" d="M390.352,-323.666C407.564,-344.256 450.785,-392.779 497,-420 557.066,-455.379 578.228,-452.67 646,-469 780.49,-501.405 825.904,-544.037 956,-497 972.255,-491.123 987.128,-478.305 997.53,-467.537"/>
<polygon fill="midnightblue" stroke="midnightblue" points="1000.39,-469.592 1004.56,-459.852 995.229,-464.867 1000.39,-469.592"/>
</g>
<!-- Node4&#45;&gt;Node5 -->
<g id="edge5" class="edge"><title>Node4&#45;&gt;Node5</title>
<path fill="none" stroke="midnightblue" d="M399.079,-304.369C420.921,-292.005 460.812,-270.538 497,-257 550.31,-237.057 613.409,-221.461 658.24,-211.662"/>
<polygon fill="midnightblue" stroke="midnightblue" points="659.049,-215.068 668.086,-209.539 657.573,-208.225 659.049,-215.068"/>
</g>
<!-- Node8 -->
<g id="node8" class="node"><title>Node8</title>
<g id="a_node8"><a xlink:href="unzip_8c.html#a5f1693991177fe0570e4c9bf0b95e510" target="_top" xlink:title="OF">
<polygon fill="white" stroke="black" points="998.5,-114.5 998.5,-133.5 1028.5,-133.5 1028.5,-114.5 998.5,-114.5"/>
<text text-anchor="middle" x="1013.5" y="-121.5" font-family="Helvetica,sans-Serif" font-size="10.00">OF</text>
</a>
</g>
</g>
<!-- Node4&#45;&gt;Node8 -->
<g id="edge28" class="edge"><title>Node4&#45;&gt;Node8</title>
<path fill="none" stroke="midnightblue" d="M389.604,-304.457C417.502,-267.773 524.031,-134.993 646,-77 770.935,-17.5967 832.2,12.7351 956,-49 979.279,-60.6087 995.49,-86.8853 1004.4,-105.034"/>
<polygon fill="midnightblue" stroke="midnightblue" points="1001.34,-106.751 1008.7,-114.372 1007.69,-103.824 1001.34,-106.751"/>
</g>
<!-- Node9 -->
<g id="node9" class="node"><title>Node9</title>
<g id="a_node9"><a xlink:href="ioapi_8h.html#a39ab6d73c1cd44bc17064c2dcbb3e753" target="_top" xlink:title="voidpf">
<polygon fill="white" stroke="black" points="992,-266.5 992,-285.5 1035,-285.5 1035,-266.5 992,-266.5"/>
<text text-anchor="middle" x="1013.5" y="-273.5" font-family="Helvetica,sans-Serif" font-size="10.00">voidpf</text>
</a>
</g>
</g>
<!-- Node4&#45;&gt;Node9 -->
<g id="edge29" class="edge"><title>Node4&#45;&gt;Node9</title>
<path fill="none" stroke="midnightblue" d="M433.107,-321.532C452.977,-324.137 476.011,-326.722 497,-328 701.319,-340.445 754.469,-325.87 956,-290 964.559,-288.477 973.745,-286.396 982.171,-284.305"/>
<polygon fill="midnightblue" stroke="midnightblue" points="983.164,-287.664 991.978,-281.786 981.422,-280.884 983.164,-287.664"/>
</g>
<!-- Node4&#45;&gt;Node10 -->
<g id="edge16" class="edge"><title>Node4&#45;&gt;Node10</title>
<path fill="none" stroke="midnightblue" d="M425.398,-304.411C448.034,-299.351 475.998,-293.1 499.929,-287.751"/>
<polygon fill="midnightblue" stroke="midnightblue" points="500.915,-291.117 509.91,-285.52 499.388,-284.286 500.915,-291.117"/>
</g>
<!-- Node5&#45;&gt;Node3 -->
<g id="edge15" class="edge"><title>Node5&#45;&gt;Node3</title>
<path fill="none" stroke="midnightblue" d="M730.025,-209.8C774.76,-247.84 937.185,-385.956 993.286,-433.661"/>
<polygon fill="midnightblue" stroke="midnightblue" points="991.169,-436.456 1001.05,-440.267 995.704,-431.123 991.169,-436.456"/>
</g>
<!-- Node6 -->
<g id="node6" class="node"><title>Node6</title>
<g id="a_node6"><a xlink:href="ioapi_8h.html#a787fa3cf048117ba7123753c1e74fcd6" target="_top" xlink:title="int">
<polygon fill="white" stroke="black" points="876,-76.5 876,-95.5 905,-95.5 905,-76.5 876,-76.5"/>
<text text-anchor="middle" x="890.5" y="-83.5" font-family="Helvetica,sans-Serif" font-size="10.00">int</text>
</a>
</g>
</g>
<!-- Node5&#45;&gt;Node6 -->
<g id="edge6" class="edge"><title>Node5&#45;&gt;Node6</title>
<path fill="none" stroke="midnightblue" d="M727.617,-190.335C745.03,-172.352 784.873,-133.453 825,-110 837.814,-102.511 853.378,-96.6389 866.008,-92.578"/>
<polygon fill="midnightblue" stroke="midnightblue" points="867.254,-95.8574 875.801,-89.597 865.215,-89.1607 867.254,-95.8574"/>
</g>
<!-- Node5&#45;&gt;Node7 -->
<g id="edge7" class="edge"><title>Node5&#45;&gt;Node7</title>
<path fill="none" stroke="midnightblue" d="M768.881,-193.784C787.336,-193.191 808.434,-193.092 827.77,-193.487"/>
<polygon fill="midnightblue" stroke="midnightblue" points="827.913,-196.992 837.999,-193.749 828.091,-189.994 827.913,-196.992"/>
</g>
<!-- Node5&#45;&gt;Node8 -->
<g id="edge13" class="edge"><title>Node5&#45;&gt;Node8</title>
<path fill="none" stroke="midnightblue" d="M734.072,-190.364C754.25,-178.365 790.898,-158.205 825,-148 881.7,-131.033 951.565,-126.061 987.908,-124.604"/>
<polygon fill="midnightblue" stroke="midnightblue" points="988.184,-128.096 998.058,-124.255 987.944,-121.101 988.184,-128.096"/>
</g>
<!-- Node5&#45;&gt;Node9 -->
<g id="edge14" class="edge"><title>Node5&#45;&gt;Node9</title>
<path fill="none" stroke="midnightblue" d="M740.585,-190.485C784.785,-173.02 885.886,-141.123 956,-181 984.512,-197.216 1000.14,-234.13 1007.37,-256.873"/>
<polygon fill="midnightblue" stroke="midnightblue" points="1004.02,-257.868 1010.2,-266.473 1010.73,-255.892 1004.02,-257.868"/>
</g>
<!-- Node7&#45;&gt;Node3 -->
<g id="edge8" class="edge"><title>Node7&#45;&gt;Node3</title>
<path fill="none" stroke="midnightblue" d="M935.007,-209.58C942.864,-213.016 950.344,-217.677 956,-224 983.642,-254.902 1003.25,-381.269 1009.96,-430.365"/>
<polygon fill="midnightblue" stroke="midnightblue" points="1006.5,-430.9 1011.29,-440.35 1013.44,-429.975 1006.5,-430.9"/>
</g>
<!-- Node7&#45;&gt;Node4 -->
<g id="edge10" class="edge"><title>Node7&#45;&gt;Node4</title>
<path fill="none" stroke="midnightblue" d="M837.786,-209.189C833.333,-210.82 829.005,-212.74 825,-215 805.019,-226.277 808.94,-240.651 789,-252 679.112,-314.542 526.703,-320.222 443.208,-317.783"/>
<polygon fill="midnightblue" stroke="midnightblue" points="443.241,-314.282 433.128,-317.439 443.003,-321.278 443.241,-314.282"/>
</g>
<!-- Node7&#45;&gt;Node5 -->
<g id="edge9" class="edge"><title>Node7&#45;&gt;Node5</title>
<path fill="none" stroke="midnightblue" d="M837.999,-206.251C819.438,-206.825 798.325,-206.904 779.062,-206.488"/>
<polygon fill="midnightblue" stroke="midnightblue" points="778.971,-202.984 768.881,-206.216 778.784,-209.982 778.971,-202.984"/>
</g>
<!-- Node7&#45;&gt;Node8 -->
<g id="edge11" class="edge"><title>Node7&#45;&gt;Node8</title>
<path fill="none" stroke="midnightblue" d="M906.825,-190.375C927.801,-177.199 965.612,-153.451 989.858,-138.221"/>
<polygon fill="midnightblue" stroke="midnightblue" points="991.817,-141.124 998.424,-132.841 988.094,-135.196 991.817,-141.124"/>
</g>
<!-- Node7&#45;&gt;Node9 -->
<g id="edge12" class="edge"><title>Node7&#45;&gt;Node9</title>
<path fill="none" stroke="midnightblue" d="M924.795,-209.615C935.186,-213.333 946.426,-218.129 956,-224 971.546,-233.533 986.611,-247.726 997.27,-258.877"/>
<polygon fill="midnightblue" stroke="midnightblue" points="994.831,-261.394 1004.2,-266.349 999.964,-256.636 994.831,-261.394"/>
</g>
<!-- Node10&#45;&gt;Node5 -->
<g id="edge17" class="edge"><title>Node10&#45;&gt;Node5</title>
<path fill="none" stroke="midnightblue" d="M575.017,-266.375C603.257,-253.126 654.286,-229.187 686.725,-213.969"/>
<polygon fill="midnightblue" stroke="midnightblue" points="688.582,-216.963 696.149,-209.547 685.609,-210.626 688.582,-216.963"/>
</g>
<!-- Node10&#45;&gt;Node8 -->
<g id="edge26" class="edge"><title>Node10&#45;&gt;Node8</title>
<path fill="none" stroke="midnightblue" d="M561.999,-266.443C590.972,-230.462 700.221,-103.36 825,-67 880.897,-50.7117 902.259,-44.6009 956,-67 974.809,-74.8397 990.568,-92.3251 1000.62,-105.877"/>
<polygon fill="midnightblue" stroke="midnightblue" points="998.034,-108.282 1006.64,-114.463 1003.77,-104.265 998.034,-108.282"/>
</g>
<!-- Node10&#45;&gt;Node9 -->
<g id="edge27" class="edge"><title>Node10&#45;&gt;Node9</title>
<path fill="none" stroke="midnightblue" d="M610.202,-276C707.452,-276 905.118,-276 981.451,-276"/>
<polygon fill="midnightblue" stroke="midnightblue" points="981.807,-279.5 991.807,-276 981.807,-272.5 981.807,-279.5"/>
</g>
<!-- Node11 -->
<g id="node11" class="node"><title>Node11</title>
<g id="a_node11"><a xlink:href="unzip_8c.html#a62c48825905347807e4daaf8451809e7" target="_top" xlink:title="unz64local_SearchCentralDir">
<polygon fill="white" stroke="black" points="646,-380.5 646,-399.5 789,-399.5 789,-380.5 646,-380.5"/>
<text text-anchor="middle" x="717.5" y="-387.5" font-family="Helvetica,sans-Serif" font-size="10.00">unz64local_SearchCentralDir</text>
</a>
</g>
</g>
<!-- Node10&#45;&gt;Node11 -->
<g id="edge18" class="edge"><title>Node10&#45;&gt;Node11</title>
<path fill="none" stroke="midnightblue" d="M568.033,-285.523C595.956,-305.173 660.188,-350.373 694.289,-374.37"/>
<polygon fill="midnightblue" stroke="midnightblue" points="692.469,-377.369 702.662,-380.262 696.498,-371.645 692.469,-377.369"/>
</g>
<!-- Node11&#45;&gt;Node3 -->
<g id="edge19" class="edge"><title>Node11&#45;&gt;Node3</title>
<path fill="none" stroke="midnightblue" d="M765.085,-399.507C825.828,-411.904 930.388,-433.243 981.942,-443.764"/>
<polygon fill="midnightblue" stroke="midnightblue" points="981.313,-447.207 991.811,-445.778 982.713,-440.349 981.313,-447.207"/>
</g>
<!-- Node11&#45;&gt;Node8 -->
<g id="edge24" class="edge"><title>Node11&#45;&gt;Node8</title>
<path fill="none" stroke="midnightblue" d="M736.49,-380.486C778.879,-357.394 886.671,-294.676 956,-219 977.291,-195.76 994.52,-163.234 1004.13,-142.906"/>
<polygon fill="midnightblue" stroke="midnightblue" points="1007.35,-144.298 1008.34,-133.75 1000.98,-141.377 1007.35,-144.298"/>
</g>
<!-- Node11&#45;&gt;Node9 -->
<g id="edge25" class="edge"><title>Node11&#45;&gt;Node9</title>
<path fill="none" stroke="midnightblue" d="M789.164,-398.476C839.345,-400.965 906.351,-396.814 956,-366 982.149,-349.771 998.21,-316.477 1006.23,-295.249"/>
<polygon fill="midnightblue" stroke="midnightblue" points="1009.58,-296.258 1009.61,-285.663 1002.98,-293.928 1009.58,-296.258"/>
</g>
<!-- Node12 -->
<g id="node12" class="node"><title>Node12</title>
<g id="a_node12"><a xlink:href="unzip_8c.html#ad6a67f9e44f1e69bfc5fbdf9c49faa7f" target="_top" xlink:title="unz64local_SearchCentral\lDir64">
<polygon fill="white" stroke="black" points="825,-457 825,-487 956,-487 956,-457 825,-457"/>
<text text-anchor="start" x="833" y="-475" font-family="Helvetica,sans-Serif" font-size="10.00">unz64local_SearchCentral</text>
<text text-anchor="middle" x="890.5" y="-464" font-family="Helvetica,sans-Serif" font-size="10.00">Dir64</text>
</a>
</g>
</g>
<!-- Node11&#45;&gt;Node12 -->
<g id="edge20" class="edge"><title>Node11&#45;&gt;Node12</title>
<path fill="none" stroke="midnightblue" d="M752.025,-399.58C764.028,-403.604 777.44,-408.802 789,-415 806.626,-424.45 807.84,-431.727 825,-442 831.192,-445.707 837.918,-449.285 844.612,-452.599"/>
<polygon fill="midnightblue" stroke="midnightblue" points="843.136,-455.773 853.666,-456.943 846.164,-449.462 843.136,-455.773"/>
</g>
<!-- Node12&#45;&gt;Node3 -->
<g id="edge21" class="edge"><title>Node12&#45;&gt;Node3</title>
<path fill="none" stroke="midnightblue" d="M956.251,-460.227C965.136,-458.612 973.898,-457.019 981.765,-455.588"/>
<polygon fill="midnightblue" stroke="midnightblue" points="982.654,-458.984 991.867,-453.751 981.402,-452.097 982.654,-458.984"/>
</g>
<!-- Node12&#45;&gt;Node4 -->
<g id="edge22" class="edge"><title>Node12&#45;&gt;Node4</title>
<path fill="none" stroke="midnightblue" d="M824.987,-470.591C775.204,-468.076 705.086,-461.401 646,-444 551.892,-416.285 450.468,-356.843 405.832,-328.985"/>
<polygon fill="midnightblue" stroke="midnightblue" points="407.52,-325.911 397.193,-323.543 403.789,-331.834 407.52,-325.911"/>
</g>
<!-- Node12&#45;&gt;Node10 -->
<g id="edge23" class="edge"><title>Node12&#45;&gt;Node10</title>
<path fill="none" stroke="midnightblue" d="M824.819,-460.573C762.857,-448.694 674.664,-429.063 646,-409 604.078,-379.657 575.412,-324.518 562.417,-295.304"/>
<polygon fill="midnightblue" stroke="midnightblue" points="565.503,-293.619 558.343,-285.81 559.07,-296.38 565.503,-293.619"/>
</g>
</g>
</svg>
