<?xml version="1.0" encoding="UTF-8" standalone="no"?>
<!DOCTYPE svg PUBLIC "-//W3C//DTD SVG 1.1//EN"
 "http://www.w3.org/Graphics/SVG/1.1/DTD/svg11.dtd">
<!-- Generated by graphviz version 2.38.0 (20140413.2041)
 -->
<!-- Title: unzGoToFilePos Pages: 1 -->
<!--zoomable 566 -->
<svg id="main" version="1.1" xmlns="http://www.w3.org/2000/svg" xmlns:xlink="http://www.w3.org/1999/xlink" xml:space="preserve" onload="init(evt)">
<style type="text/css"><![CDATA[
.edge:hover path { stroke: red; }
.edge:hover polygon { stroke: red; fill: red; }
]]></style>
<script type="text/javascript"><![CDATA[
var edges = document.getElementsByTagName('g');
if (edges && edges.length) {
  for (var i=0;i<edges.length;i++) {
    if (edges[i].id.substr(0,4)=='edge') {
      edges[i].setAttribute('class','edge');
    }
  }
}
]]></script>
        <defs>
                <circle id="rim" cx="0" cy="0" r="7"/>
                <circle id="rim2" cx="0" cy="0" r="3.5"/>
                <g id="zoomPlus">
                        <use xlink:href="#rim" fill="#404040">
                                <set attributeName="fill" to="#808080" begin="zoomplus.mouseover" end="zoomplus.mouseout"/>
                        </use>
                        <path d="M-4,0h8M0,-4v8" fill="none" stroke="white" stroke-width="1.5" pointer-events="none"/>
                </g>
                <g id="zoomMin">
                        <use xlink:href="#rim" fill="#404040">
                                <set attributeName="fill" to="#808080" begin="zoomminus.mouseover" end="zoomminus.mouseout"/>
                        </use>
                        <path d="M-4,0h8" fill="none" stroke="white" stroke-width="1.5" pointer-events="none"/>
                </g>
                <g id="dirArrow">
                        <path fill="none" stroke="white" stroke-width="1.5" d="M0,-3.0v7 M-2.5,-0.5L0,-3.0L2.5,-0.5"/>
                </g>
               <g id="resetDef">
                       <use xlink:href="#rim2" fill="#404040">
                               <set attributeName="fill" to="#808080" begin="reset.mouseover" end="reset.mouseout"/>
                       </use>
               </g>
        </defs>

<script type="text/javascript">
var viewWidth = 1170;
var viewHeight = 566;
var sectionId = 'dynsection-16';
</script>
<script xlink:href="svgpan.js"/>
<svg id="graph" class="graph">
<g id="viewport">
<title>unzGoToFilePos</title>
<polygon fill="white" stroke="none" points="-4,4 -4,-562.125 1166,-562.125 1166,4 -4,4"/>
<!-- Node1 -->
<g id="node1" class="node"><title>Node1</title>
<polygon fill="#bfbfbf" stroke="black" points="0,-247.5 0,-266.5 89,-266.5 89,-247.5 0,-247.5"/>
<text text-anchor="middle" x="44.5" y="-254.5" font-family="Helvetica,sans-Serif" font-size="10.00">unzGoToFilePos</text>
</g>
<!-- Node2 -->
<g id="node2" class="node"><title>Node2</title>
<g id="a_node2"><a xlink:href="unzip_8c.html#a667afaf715015b8195e2f6f22390202d" target="_top" xlink:title="unzGoToFilePos64">
<polygon fill="white" stroke="black" points="125,-247.5 125,-266.5 225,-266.5 225,-247.5 125,-247.5"/>
<text text-anchor="middle" x="175" y="-254.5" font-family="Helvetica,sans-Serif" font-size="10.00">unzGoToFilePos64</text>
</a>
</g>
</g>
<!-- Node1&#45;&gt;Node2 -->
<g id="edge1" class="edge"><title>Node1&#45;&gt;Node2</title>
<path fill="none" stroke="midnightblue" d="M89.0042,-257C97.2728,-257 106.055,-257 114.716,-257"/>
<polygon fill="midnightblue" stroke="midnightblue" points="114.789,-260.5 124.789,-257 114.789,-253.5 114.789,-260.5"/>
</g>
<!-- Node3 -->
<g id="node3" class="node"><title>Node3</title>
<g id="a_node3"><a xlink:href="unzip_8c.html#a7e95bff78b7b5e9e99e30b28d68da361" target="_top" xlink:title="unz64local_GetCurrentFile\lInfoInternal">
<polygon fill="white" stroke="black" points="261,-242 261,-272 393,-272 393,-242 261,-242"/>
<text text-anchor="start" x="269" y="-260" font-family="Helvetica,sans-Serif" font-size="10.00">unz64local_GetCurrentFile</text>
<text text-anchor="middle" x="327" y="-249" font-family="Helvetica,sans-Serif" font-size="10.00">InfoInternal</text>
</a>
</g>
</g>
<!-- Node2&#45;&gt;Node3 -->
<g id="edge2" class="edge"><title>Node2&#45;&gt;Node3</title>
<path fill="none" stroke="midnightblue" d="M225.116,-257C233.345,-257 242.048,-257 250.755,-257"/>
<polygon fill="midnightblue" stroke="midnightblue" points="250.951,-260.5 260.951,-257 250.951,-253.5 250.951,-260.5"/>
</g>
<!-- Node4 -->
<g id="node4" class="node"><title>Node4</title>
<g id="a_node4"><a xlink:href="ioapi_8h.html#a50e9e9d5c30e481de822ad68fe537986" target="_top" xlink:title="uLong">
<polygon fill="white" stroke="black" points="1119,-440.5 1119,-459.5 1162,-459.5 1162,-440.5 1119,-440.5"/>
<text text-anchor="middle" x="1140.5" y="-447.5" font-family="Helvetica,sans-Serif" font-size="10.00">uLong</text>
</a>
</g>
</g>
<!-- Node3&#45;&gt;Node4 -->
<g id="edge3" class="edge"><title>Node3&#45;&gt;Node4</title>
<path fill="none" stroke="midnightblue" d="M336.013,-272.137C369.265,-332.659 502.94,-554 679.5,-554 679.5,-554 679.5,-554 845.5,-554 952.07,-554 990.43,-573.8 1083,-521 1104.39,-508.8 1120.72,-485.026 1130.2,-468.361"/>
<polygon fill="midnightblue" stroke="midnightblue" points="1133.31,-469.975 1134.98,-459.513 1127.15,-466.652 1133.31,-469.975"/>
</g>
<!-- Node5 -->
<g id="node5" class="node"><title>Node5</title>
<g id="a_node5"><a xlink:href="unzip_8c.html#ad3fe51136556c1c4a1e964a157d153ba" target="_top" xlink:title="unz64local_getLong">
<polygon fill="white" stroke="black" points="457,-304.5 457,-323.5 560,-323.5 560,-304.5 457,-304.5"/>
<text text-anchor="middle" x="508.5" y="-311.5" font-family="Helvetica,sans-Serif" font-size="10.00">unz64local_getLong</text>
</a>
</g>
</g>
<!-- Node3&#45;&gt;Node5 -->
<g id="edge4" class="edge"><title>Node3&#45;&gt;Node5</title>
<path fill="none" stroke="midnightblue" d="M373.442,-272.051C390.802,-277.748 410.796,-284.244 429,-290 440.996,-293.793 454.053,-297.824 466.014,-301.478"/>
<polygon fill="midnightblue" stroke="midnightblue" points="465.169,-304.879 475.755,-304.445 467.209,-298.183 465.169,-304.879"/>
</g>
<!-- Node6 -->
<g id="node6" class="node"><title>Node6</title>
<g id="a_node6"><a xlink:href="unzip_8c.html#a4fdc20c5d880511c727c425b1f11ef68" target="_top" xlink:title="unz64local_getByte">
<polygon fill="white" stroke="black" points="793.5,-190.5 793.5,-209.5 895.5,-209.5 895.5,-190.5 793.5,-190.5"/>
<text text-anchor="middle" x="844.5" y="-197.5" font-family="Helvetica,sans-Serif" font-size="10.00">unz64local_getByte</text>
</a>
</g>
</g>
<!-- Node3&#45;&gt;Node6 -->
<g id="edge34" class="edge"><title>Node3&#45;&gt;Node6</title>
<path fill="none" stroke="midnightblue" d="M366.237,-241.924C384.873,-235.246 407.793,-228.009 429,-224 553.299,-200.505 701.97,-197.944 783.184,-198.657"/>
<polygon fill="midnightblue" stroke="midnightblue" points="783.19,-202.157 793.227,-198.765 783.265,-195.158 783.19,-202.157"/>
</g>
<!-- Node8 -->
<g id="node8" class="node"><title>Node8</title>
<g id="a_node8"><a xlink:href="unzip_8c.html#aca92d6709924f9c82ce13f0c18cc26b1" target="_top" xlink:title="unz64local_getShort">
<polygon fill="white" stroke="black" points="965,-190.5 965,-209.5 1070,-209.5 1070,-190.5 965,-190.5"/>
<text text-anchor="middle" x="1017.5" y="-197.5" font-family="Helvetica,sans-Serif" font-size="10.00">unz64local_getShort</text>
</a>
</g>
</g>
<!-- Node3&#45;&gt;Node8 -->
<g id="edge31" class="edge"><title>Node3&#45;&gt;Node8</title>
<path fill="none" stroke="midnightblue" d="M393.068,-255.394C501.761,-252.129 726.976,-242.885 916,-219 931.029,-217.101 947.203,-214.357 962.089,-211.543"/>
<polygon fill="midnightblue" stroke="midnightblue" points="963.007,-214.931 972.159,-209.593 961.676,-208.058 963.007,-214.931"/>
</g>
<!-- Node11 -->
<g id="node11" class="node"><title>Node11</title>
<g id="a_node11"><a xlink:href="unzip_8c.html#a65165fb74a10780ee7b66e9c6c57da3c" target="_top" xlink:title="unz64local_getLong64">
<polygon fill="white" stroke="black" points="624,-266.5 624,-285.5 737,-285.5 737,-266.5 624,-266.5"/>
<text text-anchor="middle" x="680.5" y="-273.5" font-family="Helvetica,sans-Serif" font-size="10.00">unz64local_getLong64</text>
</a>
</g>
</g>
<!-- Node3&#45;&gt;Node11 -->
<g id="edge33" class="edge"><title>Node3&#45;&gt;Node11</title>
<path fill="none" stroke="midnightblue" d="M393.291,-260.529C456.105,-263.925 550.578,-269.031 613.597,-272.438"/>
<polygon fill="midnightblue" stroke="midnightblue" points="613.645,-275.945 623.819,-272.99 614.022,-268.955 613.645,-275.945"/>
</g>
<!-- Node14 -->
<g id="node14" class="node"><title>Node14</title>
<g id="a_node14"><a xlink:href="unzip_8c.html#a48f0609b270f39b1243d76e69cc6173f" target="_top" xlink:title="unz64local_DosDateToTmuDate">
<polygon fill="white" stroke="black" points="429,-0.5 429,-19.5 588,-19.5 588,-0.5 429,-0.5"/>
<text text-anchor="middle" x="508.5" y="-7.5" font-family="Helvetica,sans-Serif" font-size="10.00">unz64local_DosDateToTmuDate</text>
</a>
</g>
</g>
<!-- Node3&#45;&gt;Node14 -->
<g id="edge32" class="edge"><title>Node3&#45;&gt;Node14</title>
<path fill="none" stroke="midnightblue" d="M330.475,-241.711C337.791,-201.507 363.083,-91.9442 429,-34 433.706,-29.863 439.112,-26.4391 444.837,-23.6054"/>
<polygon fill="midnightblue" stroke="midnightblue" points="446.256,-26.805 454.043,-19.6206 443.476,-20.3809 446.256,-26.805"/>
</g>
<!-- Node5&#45;&gt;Node4 -->
<g id="edge5" class="edge"><title>Node5&#45;&gt;Node4</title>
<path fill="none" stroke="midnightblue" d="M517.352,-323.666C534.564,-344.256 577.785,-392.779 624,-420 684.066,-455.379 705.228,-452.67 773,-469 907.49,-501.405 952.904,-544.037 1083,-497 1099.25,-491.123 1114.13,-478.305 1124.53,-467.537"/>
<polygon fill="midnightblue" stroke="midnightblue" points="1127.39,-469.592 1131.56,-459.852 1122.23,-464.867 1127.39,-469.592"/>
</g>
<!-- Node5&#45;&gt;Node6 -->
<g id="edge6" class="edge"><title>Node5&#45;&gt;Node6</title>
<path fill="none" stroke="midnightblue" d="M526.079,-304.369C547.921,-292.005 587.812,-270.538 624,-257 677.31,-237.057 740.409,-221.461 785.24,-211.662"/>
<polygon fill="midnightblue" stroke="midnightblue" points="786.049,-215.068 795.086,-209.539 784.573,-208.225 786.049,-215.068"/>
</g>
<!-- Node9 -->
<g id="node9" class="node"><title>Node9</title>
<g id="a_node9"><a xlink:href="unzip_8c.html#a5f1693991177fe0570e4c9bf0b95e510" target="_top" xlink:title="OF">
<polygon fill="white" stroke="black" points="1125.5,-114.5 1125.5,-133.5 1155.5,-133.5 1155.5,-114.5 1125.5,-114.5"/>
<text text-anchor="middle" x="1140.5" y="-121.5" font-family="Helvetica,sans-Serif" font-size="10.00">OF</text>
</a>
</g>
</g>
<!-- Node5&#45;&gt;Node9 -->
<g id="edge29" class="edge"><title>Node5&#45;&gt;Node9</title>
<path fill="none" stroke="midnightblue" d="M516.604,-304.457C544.502,-267.773 651.031,-134.993 773,-77 897.935,-17.5967 959.2,12.7351 1083,-49 1106.28,-60.6087 1122.49,-86.8853 1131.4,-105.034"/>
<polygon fill="midnightblue" stroke="midnightblue" points="1128.34,-106.751 1135.7,-114.372 1134.69,-103.824 1128.34,-106.751"/>
</g>
<!-- Node10 -->
<g id="node10" class="node"><title>Node10</title>
<g id="a_node10"><a xlink:href="ioapi_8h.html#a39ab6d73c1cd44bc17064c2dcbb3e753" target="_top" xlink:title="voidpf">
<polygon fill="white" stroke="black" points="1119,-266.5 1119,-285.5 1162,-285.5 1162,-266.5 1119,-266.5"/>
<text text-anchor="middle" x="1140.5" y="-273.5" font-family="Helvetica,sans-Serif" font-size="10.00">voidpf</text>
</a>
</g>
</g>
<!-- Node5&#45;&gt;Node10 -->
<g id="edge30" class="edge"><title>Node5&#45;&gt;Node10</title>
<path fill="none" stroke="midnightblue" d="M560.107,-321.532C579.977,-324.137 603.011,-326.722 624,-328 828.319,-340.445 881.469,-325.87 1083,-290 1091.56,-288.477 1100.75,-286.396 1109.17,-284.305"/>
<polygon fill="midnightblue" stroke="midnightblue" points="1110.16,-287.664 1118.98,-281.786 1108.42,-280.884 1110.16,-287.664"/>
</g>
<!-- Node5&#45;&gt;Node11 -->
<g id="edge17" class="edge"><title>Node5&#45;&gt;Node11</title>
<path fill="none" stroke="midnightblue" d="M552.398,-304.411C575.034,-299.351 602.998,-293.1 626.929,-287.751"/>
<polygon fill="midnightblue" stroke="midnightblue" points="627.915,-291.117 636.91,-285.52 626.388,-284.286 627.915,-291.117"/>
</g>
<!-- Node6&#45;&gt;Node4 -->
<g id="edge16" class="edge"><title>Node6&#45;&gt;Node4</title>
<path fill="none" stroke="midnightblue" d="M857.025,-209.8C901.76,-247.84 1064.18,-385.956 1120.29,-433.661"/>
<polygon fill="midnightblue" stroke="midnightblue" points="1118.17,-436.456 1128.05,-440.267 1122.7,-431.123 1118.17,-436.456"/>
</g>
<!-- Node7 -->
<g id="node7" class="node"><title>Node7</title>
<g id="a_node7"><a xlink:href="ioapi_8h.html#a787fa3cf048117ba7123753c1e74fcd6" target="_top" xlink:title="int">
<polygon fill="white" stroke="black" points="1003,-76.5 1003,-95.5 1032,-95.5 1032,-76.5 1003,-76.5"/>
<text text-anchor="middle" x="1017.5" y="-83.5" font-family="Helvetica,sans-Serif" font-size="10.00">int</text>
</a>
</g>
</g>
<!-- Node6&#45;&gt;Node7 -->
<g id="edge7" class="edge"><title>Node6&#45;&gt;Node7</title>
<path fill="none" stroke="midnightblue" d="M854.617,-190.335C872.03,-172.352 911.873,-133.453 952,-110 964.814,-102.511 980.378,-96.6389 993.008,-92.578"/>
<polygon fill="midnightblue" stroke="midnightblue" points="994.254,-95.8574 1002.8,-89.597 992.215,-89.1607 994.254,-95.8574"/>
</g>
<!-- Node6&#45;&gt;Node8 -->
<g id="edge8" class="edge"><title>Node6&#45;&gt;Node8</title>
<path fill="none" stroke="midnightblue" d="M895.881,-193.784C914.336,-193.191 935.434,-193.092 954.77,-193.487"/>
<polygon fill="midnightblue" stroke="midnightblue" points="954.913,-196.992 964.999,-193.749 955.091,-189.994 954.913,-196.992"/>
</g>
<!-- Node6&#45;&gt;Node9 -->
<g id="edge14" class="edge"><title>Node6&#45;&gt;Node9</title>
<path fill="none" stroke="midnightblue" d="M861.072,-190.364C881.25,-178.365 917.898,-158.205 952,-148 1008.7,-131.033 1078.57,-126.061 1114.91,-124.604"/>
<polygon fill="midnightblue" stroke="midnightblue" points="1115.18,-128.096 1125.06,-124.255 1114.94,-121.101 1115.18,-128.096"/>
</g>
<!-- Node6&#45;&gt;Node10 -->
<g id="edge15" class="edge"><title>Node6&#45;&gt;Node10</title>
<path fill="none" stroke="midnightblue" d="M867.585,-190.485C911.785,-173.02 1012.89,-141.123 1083,-181 1111.51,-197.216 1127.14,-234.13 1134.37,-256.873"/>
<polygon fill="midnightblue" stroke="midnightblue" points="1131.02,-257.868 1137.2,-266.473 1137.73,-255.892 1131.02,-257.868"/>
</g>
<!-- Node8&#45;&gt;Node4 -->
<g id="edge9" class="edge"><title>Node8&#45;&gt;Node4</title>
<path fill="none" stroke="midnightblue" d="M1062.01,-209.58C1069.86,-213.016 1077.34,-217.677 1083,-224 1110.64,-254.902 1130.25,-381.269 1136.96,-430.365"/>
<polygon fill="midnightblue" stroke="midnightblue" points="1133.5,-430.9 1138.29,-440.35 1140.44,-429.975 1133.5,-430.9"/>
</g>
<!-- Node8&#45;&gt;Node5 -->
<g id="edge11" class="edge"><title>Node8&#45;&gt;Node5</title>
<path fill="none" stroke="midnightblue" d="M964.786,-209.189C960.333,-210.82 956.005,-212.74 952,-215 932.019,-226.277 935.94,-240.651 916,-252 806.112,-314.542 653.703,-320.222 570.208,-317.783"/>
<polygon fill="midnightblue" stroke="midnightblue" points="570.241,-314.282 560.128,-317.439 570.003,-321.278 570.241,-314.282"/>
</g>
<!-- Node8&#45;&gt;Node6 -->
<g id="edge10" class="edge"><title>Node8&#45;&gt;Node6</title>
<path fill="none" stroke="midnightblue" d="M964.999,-206.251C946.438,-206.825 925.325,-206.904 906.062,-206.488"/>
<polygon fill="midnightblue" stroke="midnightblue" points="905.971,-202.984 895.881,-206.216 905.784,-209.982 905.971,-202.984"/>
</g>
<!-- Node8&#45;&gt;Node9 -->
<g id="edge12" class="edge"><title>Node8&#45;&gt;Node9</title>
<path fill="none" stroke="midnightblue" d="M1033.82,-190.375C1054.8,-177.199 1092.61,-153.451 1116.86,-138.221"/>
<polygon fill="midnightblue" stroke="midnightblue" points="1118.82,-141.124 1125.42,-132.841 1115.09,-135.196 1118.82,-141.124"/>
</g>
<!-- Node8&#45;&gt;Node10 -->
<g id="edge13" class="edge"><title>Node8&#45;&gt;Node10</title>
<path fill="none" stroke="midnightblue" d="M1051.8,-209.615C1062.19,-213.333 1073.43,-218.129 1083,-224 1098.55,-233.533 1113.61,-247.726 1124.27,-258.877"/>
<polygon fill="midnightblue" stroke="midnightblue" points="1121.83,-261.394 1131.2,-266.349 1126.96,-256.636 1121.83,-261.394"/>
</g>
<!-- Node11&#45;&gt;Node6 -->
<g id="edge18" class="edge"><title>Node11&#45;&gt;Node6</title>
<path fill="none" stroke="midnightblue" d="M702.017,-266.375C730.257,-253.126 781.286,-229.187 813.725,-213.969"/>
<polygon fill="midnightblue" stroke="midnightblue" points="815.582,-216.963 823.149,-209.547 812.609,-210.626 815.582,-216.963"/>
</g>
<!-- Node11&#45;&gt;Node9 -->
<g id="edge27" class="edge"><title>Node11&#45;&gt;Node9</title>
<path fill="none" stroke="midnightblue" d="M688.999,-266.443C717.972,-230.462 827.221,-103.36 952,-67 1007.9,-50.7117 1029.26,-44.6009 1083,-67 1101.81,-74.8397 1117.57,-92.3251 1127.62,-105.877"/>
<polygon fill="midnightblue" stroke="midnightblue" points="1125.03,-108.282 1133.64,-114.463 1130.77,-104.265 1125.03,-108.282"/>
</g>
<!-- Node11&#45;&gt;Node10 -->
<g id="edge28" class="edge"><title>Node11&#45;&gt;Node10</title>
<path fill="none" stroke="midnightblue" d="M737.202,-276C834.452,-276 1032.12,-276 1108.45,-276"/>
<polygon fill="midnightblue" stroke="midnightblue" points="1108.81,-279.5 1118.81,-276 1108.81,-272.5 1108.81,-279.5"/>
</g>
<!-- Node12 -->
<g id="node12" class="node"><title>Node12</title>
<g id="a_node12"><a xlink:href="unzip_8c.html#a62c48825905347807e4daaf8451809e7" target="_top" xlink:title="unz64local_SearchCentralDir">
<polygon fill="white" stroke="black" points="773,-380.5 773,-399.5 916,-399.5 916,-380.5 773,-380.5"/>
<text text-anchor="middle" x="844.5" y="-387.5" font-family="Helvetica,sans-Serif" font-size="10.00">unz64local_SearchCentralDir</text>
</a>
</g>
</g>
<!-- Node11&#45;&gt;Node12 -->
<g id="edge19" class="edge"><title>Node11&#45;&gt;Node12</title>
<path fill="none" stroke="midnightblue" d="M695.033,-285.523C722.956,-305.173 787.188,-350.373 821.289,-374.37"/>
<polygon fill="midnightblue" stroke="midnightblue" points="819.469,-377.369 829.662,-380.262 823.498,-371.645 819.469,-377.369"/>
</g>
<!-- Node12&#45;&gt;Node4 -->
<g id="edge20" class="edge"><title>Node12&#45;&gt;Node4</title>
<path fill="none" stroke="midnightblue" d="M892.085,-399.507C952.828,-411.904 1057.39,-433.243 1108.94,-443.764"/>
<polygon fill="midnightblue" stroke="midnightblue" points="1108.31,-447.207 1118.81,-445.778 1109.71,-440.349 1108.31,-447.207"/>
</g>
<!-- Node12&#45;&gt;Node9 -->
<g id="edge25" class="edge"><title>Node12&#45;&gt;Node9</title>
<path fill="none" stroke="midnightblue" d="M863.49,-380.486C905.879,-357.394 1013.67,-294.676 1083,-219 1104.29,-195.76 1121.52,-163.234 1131.13,-142.906"/>
<polygon fill="midnightblue" stroke="midnightblue" points="1134.35,-144.298 1135.34,-133.75 1127.98,-141.377 1134.35,-144.298"/>
</g>
<!-- Node12&#45;&gt;Node10 -->
<g id="edge26" class="edge"><title>Node12&#45;&gt;Node10</title>
<path fill="none" stroke="midnightblue" d="M916.164,-398.476C966.345,-400.965 1033.35,-396.814 1083,-366 1109.15,-349.771 1125.21,-316.477 1133.23,-295.249"/>
<polygon fill="midnightblue" stroke="midnightblue" points="1136.58,-296.258 1136.61,-285.663 1129.98,-293.928 1136.58,-296.258"/>
</g>
<!-- Node13 -->
<g id="node13" class="node"><title>Node13</title>
<g id="a_node13"><a xlink:href="unzip_8c.html#ad6a67f9e44f1e69bfc5fbdf9c49faa7f" target="_top" xlink:title="unz64local_SearchCentral\lDir64">
<polygon fill="white" stroke="black" points="952,-457 952,-487 1083,-487 1083,-457 952,-457"/>
<text text-anchor="start" x="960" y="-475" font-family="Helvetica,sans-Serif" font-size="10.00">unz64local_SearchCentral</text>
<text text-anchor="middle" x="1017.5" y="-464" font-family="Helvetica,sans-Serif" font-size="10.00">Dir64</text>
</a>
</g>
</g>
<!-- Node12&#45;&gt;Node13 -->
<g id="edge21" class="edge"><title>Node12&#45;&gt;Node13</title>
<path fill="none" stroke="midnightblue" d="M879.025,-399.58C891.028,-403.604 904.44,-408.802 916,-415 933.626,-424.45 934.84,-431.727 952,-442 958.192,-445.707 964.918,-449.285 971.612,-452.599"/>
<polygon fill="midnightblue" stroke="midnightblue" points="970.136,-455.773 980.666,-456.943 973.164,-449.462 970.136,-455.773"/>
</g>
<!-- Node13&#45;&gt;Node4 -->
<g id="edge22" class="edge"><title>Node13&#45;&gt;Node4</title>
<path fill="none" stroke="midnightblue" d="M1083.25,-460.227C1092.14,-458.612 1100.9,-457.019 1108.77,-455.588"/>
<polygon fill="midnightblue" stroke="midnightblue" points="1109.65,-458.984 1118.87,-453.751 1108.4,-452.097 1109.65,-458.984"/>
</g>
<!-- Node13&#45;&gt;Node5 -->
<g id="edge23" class="edge"><title>Node13&#45;&gt;Node5</title>
<path fill="none" stroke="midnightblue" d="M951.987,-470.591C902.204,-468.076 832.086,-461.401 773,-444 678.892,-416.285 577.468,-356.843 532.832,-328.985"/>
<polygon fill="midnightblue" stroke="midnightblue" points="534.52,-325.911 524.193,-323.543 530.789,-331.834 534.52,-325.911"/>
</g>
<!-- Node13&#45;&gt;Node11 -->
<g id="edge24" class="edge"><title>Node13&#45;&gt;Node11</title>
<path fill="none" stroke="midnightblue" d="M951.819,-460.573C889.857,-448.694 801.664,-429.063 773,-409 731.078,-379.657 702.412,-324.518 689.417,-295.304"/>
<polygon fill="midnightblue" stroke="midnightblue" points="692.503,-293.619 685.343,-285.81 686.07,-296.38 692.503,-293.619"/>
</g>
</g>
</svg>
        <g id="navigator" transform="translate(0 0)" fill="#404254">
                <rect fill="#f2f5e9" fill-opacity="0.5" stroke="#606060" stroke-width=".5" x="0" y="0" width="60" height="60"/>
                <use id="zoomplus" xlink:href="#zoomPlus" x="17" y="9" onmousedown="handleZoom(evt,'in')"/>
                <use id="zoomminus" xlink:href="#zoomMin" x="42" y="9" onmousedown="handleZoom(evt,'out')"/>
                <use id="reset" xlink:href="#resetDef" x="30" y="36" onmousedown="handleReset()"/>
                <g id="arrowUp" xlink:href="#dirArrow" transform="translate(30 24)" onmousedown="handlePan(0,-1)">
                  <use xlink:href="#rim" fill="#404040">
                        <set attributeName="fill" to="#808080" begin="arrowUp.mouseover" end="arrowUp.mouseout"/>
                  </use>
                  <path fill="none" stroke="white" stroke-width="1.5" d="M0,-3.0v7 M-2.5,-0.5L0,-3.0L2.5,-0.5"/>
                </g>
                <g id="arrowRight" xlink:href="#dirArrow" transform="rotate(90) translate(36 -43)" onmousedown="handlePan(1,0)">
                  <use xlink:href="#rim" fill="#404040">
                        <set attributeName="fill" to="#808080" begin="arrowRight.mouseover" end="arrowRight.mouseout"/>
                  </use>
                  <path fill="none" stroke="white" stroke-width="1.5" d="M0,-3.0v7 M-2.5,-0.5L0,-3.0L2.5,-0.5"/>
                </g>
                <g id="arrowDown" xlink:href="#dirArrow" transform="rotate(180) translate(-30 -48)" onmousedown="handlePan(0,1)">
                  <use xlink:href="#rim" fill="#404040">
                        <set attributeName="fill" to="#808080" begin="arrowDown.mouseover" end="arrowDown.mouseout"/>
                  </use>
                  <path fill="none" stroke="white" stroke-width="1.5" d="M0,-3.0v7 M-2.5,-0.5L0,-3.0L2.5,-0.5"/>
                </g>
                <g id="arrowLeft" xlink:href="#dirArrow" transform="rotate(270) translate(-36 17)" onmousedown="handlePan(-1,0)">
                  <use xlink:href="#rim" fill="#404040">
                        <set attributeName="fill" to="#808080" begin="arrowLeft.mouseover" end="arrowLeft.mouseout"/>
                  </use>
                  <path fill="none" stroke="white" stroke-width="1.5" d="M0,-3.0v7 M-2.5,-0.5L0,-3.0L2.5,-0.5"/>
                </g>
        </g>
        <svg viewBox="0 0 15 15" width="100%" height="30px" preserveAspectRatio="xMaxYMin meet">
         <g id="arrow_out" transform="scale(0.3 0.3)">
          <a xlink:href="unzip_8c_a67559097ba938e4e85257da3fc6d827d_cgraph_org.svg" target="_base">
           <rect id="button" ry="5" rx="5" y="6" x="6" height="38" width="38"
                fill="#f2f5e9" fill-opacity="0.5" stroke="#606060" stroke-width="1.0"/>
           <path id="arrow"
             d="M 11.500037,31.436501 C 11.940474,20.09759 22.043105,11.32322 32.158766,21.979434 L 37.068811,17.246167 C 37.068811,17.246167 37.088388,32 37.088388,32 L 22.160133,31.978069 C 22.160133,31.978069 26.997745,27.140456 26.997745,27.140456 C 18.528582,18.264221 13.291696,25.230495 11.500037,31.436501 z"
             style="fill:#404040;"/>
          </a>
         </g>
        </svg>
</svg>
