<?xml version="1.0" encoding="UTF-8" standalone="no"?>
<!DOCTYPE svg PUBLIC "-//W3C//DTD SVG 1.1//EN"
 "http://www.w3.org/Graphics/SVG/1.1/DTD/svg11.dtd">
<!-- Generated by graphviz version 2.38.0 (20140413.2041)
 -->
<!-- Title: unzGetCurrentFileInfo64 Pages: 1 -->
<!--zoomable 566 -->
<svg id="main" version="1.1" xmlns="http://www.w3.org/2000/svg" xmlns:xlink="http://www.w3.org/1999/xlink" xml:space="preserve" onload="init(evt)">
<style type="text/css"><![CDATA[
.edge:hover path { stroke: red; }
.edge:hover polygon { stroke: red; fill: red; }
]]></style>
<script type="text/javascript"><![CDATA[
var edges = document.getElementsByTagName('g');
if (edges && edges.length) {
  for (var i=0;i<edges.length;i++) {
    if (edges[i].id.substr(0,4)=='edge') {
      edges[i].setAttribute('class','edge');
    }
  }
}
]]></script>
        <defs>
                <circle id="rim" cx="0" cy="0" r="7"/>
                <circle id="rim2" cx="0" cy="0" r="3.5"/>
                <g id="zoomPlus">
                        <use xlink:href="#rim" fill="#404040">
                                <set attributeName="fill" to="#808080" begin="zoomplus.mouseover" end="zoomplus.mouseout"/>
                        </use>
                        <path d="M-4,0h8M0,-4v8" fill="none" stroke="white" stroke-width="1.5" pointer-events="none"/>
                </g>
                <g id="zoomMin">
                        <use xlink:href="#rim" fill="#404040">
                                <set attributeName="fill" to="#808080" begin="zoomminus.mouseover" end="zoomminus.mouseout"/>
                        </use>
                        <path d="M-4,0h8" fill="none" stroke="white" stroke-width="1.5" pointer-events="none"/>
                </g>
                <g id="dirArrow">
                        <path fill="none" stroke="white" stroke-width="1.5" d="M0,-3.0v7 M-2.5,-0.5L0,-3.0L2.5,-0.5"/>
                </g>
               <g id="resetDef">
                       <use xlink:href="#rim2" fill="#404040">
                               <set attributeName="fill" to="#808080" begin="reset.mouseover" end="reset.mouseout"/>
                       </use>
               </g>
        </defs>

<script type="text/javascript">
var viewWidth = 1068;
var viewHeight = 566;
var sectionId = 'dynsection-11';
</script>
<script xlink:href="svgpan.js"/>
<svg id="graph" class="graph">
<g id="viewport">
<title>unzGetCurrentFileInfo64</title>
<polygon fill="white" stroke="none" points="-4,4 -4,-562.125 1064,-562.125 1064,4 -4,4"/>
<!-- Node1 -->
<g id="node1" class="node"><title>Node1</title>
<polygon fill="#bfbfbf" stroke="black" points="0,-247.5 0,-266.5 123,-266.5 123,-247.5 0,-247.5"/>
<text text-anchor="middle" x="61.5" y="-254.5" font-family="Helvetica,sans-Serif" font-size="10.00">unzGetCurrentFileInfo64</text>
</g>
<!-- Node2 -->
<g id="node2" class="node"><title>Node2</title>
<g id="a_node2"><a xlink:href="unzip_8c.html#a7e95bff78b7b5e9e99e30b28d68da361" target="_top" xlink:title="unz64local_GetCurrentFile\lInfoInternal">
<polygon fill="white" stroke="black" points="159,-242 159,-272 291,-272 291,-242 159,-242"/>
<text text-anchor="start" x="167" y="-260" font-family="Helvetica,sans-Serif" font-size="10.00">unz64local_GetCurrentFile</text>
<text text-anchor="middle" x="225" y="-249" font-family="Helvetica,sans-Serif" font-size="10.00">InfoInternal</text>
</a>
</g>
</g>
<!-- Node1&#45;&gt;Node2 -->
<g id="edge1" class="edge"><title>Node1&#45;&gt;Node2</title>
<path fill="none" stroke="midnightblue" d="M123.096,-257C131.459,-257 140.13,-257 148.719,-257"/>
<polygon fill="midnightblue" stroke="midnightblue" points="148.739,-260.5 158.739,-257 148.739,-253.5 148.739,-260.5"/>
</g>
<!-- Node3 -->
<g id="node3" class="node"><title>Node3</title>
<g id="a_node3"><a xlink:href="ioapi_8h.html#a50e9e9d5c30e481de822ad68fe537986" target="_top" xlink:title="uLong">
<polygon fill="white" stroke="black" points="1017,-440.5 1017,-459.5 1060,-459.5 1060,-440.5 1017,-440.5"/>
<text text-anchor="middle" x="1038.5" y="-447.5" font-family="Helvetica,sans-Serif" font-size="10.00">uLong</text>
</a>
</g>
</g>
<!-- Node2&#45;&gt;Node3 -->
<g id="edge2" class="edge"><title>Node2&#45;&gt;Node3</title>
<path fill="none" stroke="midnightblue" d="M234.013,-272.137C267.265,-332.659 400.94,-554 577.5,-554 577.5,-554 577.5,-554 743.5,-554 850.07,-554 888.43,-573.8 981,-521 1002.39,-508.8 1018.72,-485.026 1028.2,-468.361"/>
<polygon fill="midnightblue" stroke="midnightblue" points="1031.31,-469.975 1032.98,-459.513 1025.15,-466.652 1031.31,-469.975"/>
</g>
<!-- Node4 -->
<g id="node4" class="node"><title>Node4</title>
<g id="a_node4"><a xlink:href="unzip_8c.html#ad3fe51136556c1c4a1e964a157d153ba" target="_top" xlink:title="unz64local_getLong">
<polygon fill="white" stroke="black" points="355,-304.5 355,-323.5 458,-323.5 458,-304.5 355,-304.5"/>
<text text-anchor="middle" x="406.5" y="-311.5" font-family="Helvetica,sans-Serif" font-size="10.00">unz64local_getLong</text>
</a>
</g>
</g>
<!-- Node2&#45;&gt;Node4 -->
<g id="edge3" class="edge"><title>Node2&#45;&gt;Node4</title>
<path fill="none" stroke="midnightblue" d="M271.442,-272.051C288.802,-277.748 308.796,-284.244 327,-290 338.996,-293.793 352.053,-297.824 364.014,-301.478"/>
<polygon fill="midnightblue" stroke="midnightblue" points="363.169,-304.879 373.755,-304.445 365.209,-298.183 363.169,-304.879"/>
</g>
<!-- Node5 -->
<g id="node5" class="node"><title>Node5</title>
<g id="a_node5"><a xlink:href="unzip_8c.html#a4fdc20c5d880511c727c425b1f11ef68" target="_top" xlink:title="unz64local_getByte">
<polygon fill="white" stroke="black" points="691.5,-190.5 691.5,-209.5 793.5,-209.5 793.5,-190.5 691.5,-190.5"/>
<text text-anchor="middle" x="742.5" y="-197.5" font-family="Helvetica,sans-Serif" font-size="10.00">unz64local_getByte</text>
</a>
</g>
</g>
<!-- Node2&#45;&gt;Node5 -->
<g id="edge33" class="edge"><title>Node2&#45;&gt;Node5</title>
<path fill="none" stroke="midnightblue" d="M264.237,-241.924C282.873,-235.246 305.793,-228.009 327,-224 451.299,-200.505 599.97,-197.944 681.184,-198.657"/>
<polygon fill="midnightblue" stroke="midnightblue" points="681.19,-202.157 691.227,-198.765 681.265,-195.158 681.19,-202.157"/>
</g>
<!-- Node7 -->
<g id="node7" class="node"><title>Node7</title>
<g id="a_node7"><a xlink:href="unzip_8c.html#aca92d6709924f9c82ce13f0c18cc26b1" target="_top" xlink:title="unz64local_getShort">
<polygon fill="white" stroke="black" points="863,-190.5 863,-209.5 968,-209.5 968,-190.5 863,-190.5"/>
<text text-anchor="middle" x="915.5" y="-197.5" font-family="Helvetica,sans-Serif" font-size="10.00">unz64local_getShort</text>
</a>
</g>
</g>
<!-- Node2&#45;&gt;Node7 -->
<g id="edge30" class="edge"><title>Node2&#45;&gt;Node7</title>
<path fill="none" stroke="midnightblue" d="M291.068,-255.394C399.761,-252.129 624.976,-242.885 814,-219 829.029,-217.101 845.203,-214.357 860.089,-211.543"/>
<polygon fill="midnightblue" stroke="midnightblue" points="861.007,-214.931 870.159,-209.593 859.676,-208.058 861.007,-214.931"/>
</g>
<!-- Node10 -->
<g id="node10" class="node"><title>Node10</title>
<g id="a_node10"><a xlink:href="unzip_8c.html#a65165fb74a10780ee7b66e9c6c57da3c" target="_top" xlink:title="unz64local_getLong64">
<polygon fill="white" stroke="black" points="522,-266.5 522,-285.5 635,-285.5 635,-266.5 522,-266.5"/>
<text text-anchor="middle" x="578.5" y="-273.5" font-family="Helvetica,sans-Serif" font-size="10.00">unz64local_getLong64</text>
</a>
</g>
</g>
<!-- Node2&#45;&gt;Node10 -->
<g id="edge32" class="edge"><title>Node2&#45;&gt;Node10</title>
<path fill="none" stroke="midnightblue" d="M291.291,-260.529C354.105,-263.925 448.578,-269.031 511.597,-272.438"/>
<polygon fill="midnightblue" stroke="midnightblue" points="511.645,-275.945 521.819,-272.99 512.022,-268.955 511.645,-275.945"/>
</g>
<!-- Node13 -->
<g id="node13" class="node"><title>Node13</title>
<g id="a_node13"><a xlink:href="unzip_8c.html#a48f0609b270f39b1243d76e69cc6173f" target="_top" xlink:title="unz64local_DosDateToTmuDate">
<polygon fill="white" stroke="black" points="327,-0.5 327,-19.5 486,-19.5 486,-0.5 327,-0.5"/>
<text text-anchor="middle" x="406.5" y="-7.5" font-family="Helvetica,sans-Serif" font-size="10.00">unz64local_DosDateToTmuDate</text>
</a>
</g>
</g>
<!-- Node2&#45;&gt;Node13 -->
<g id="edge31" class="edge"><title>Node2&#45;&gt;Node13</title>
<path fill="none" stroke="midnightblue" d="M228.475,-241.711C235.791,-201.507 261.083,-91.9442 327,-34 331.706,-29.863 337.112,-26.4391 342.837,-23.6054"/>
<polygon fill="midnightblue" stroke="midnightblue" points="344.256,-26.805 352.043,-19.6206 341.476,-20.3809 344.256,-26.805"/>
</g>
<!-- Node4&#45;&gt;Node3 -->
<g id="edge4" class="edge"><title>Node4&#45;&gt;Node3</title>
<path fill="none" stroke="midnightblue" d="M415.352,-323.666C432.564,-344.256 475.785,-392.779 522,-420 582.066,-455.379 603.228,-452.67 671,-469 805.49,-501.405 850.904,-544.037 981,-497 997.255,-491.123 1012.13,-478.305 1022.53,-467.537"/>
<polygon fill="midnightblue" stroke="midnightblue" points="1025.39,-469.592 1029.56,-459.852 1020.23,-464.867 1025.39,-469.592"/>
</g>
<!-- Node4&#45;&gt;Node5 -->
<g id="edge5" class="edge"><title>Node4&#45;&gt;Node5</title>
<path fill="none" stroke="midnightblue" d="M424.079,-304.369C445.921,-292.005 485.812,-270.538 522,-257 575.31,-237.057 638.409,-221.461 683.24,-211.662"/>
<polygon fill="midnightblue" stroke="midnightblue" points="684.049,-215.068 693.086,-209.539 682.573,-208.225 684.049,-215.068"/>
</g>
<!-- Node8 -->
<g id="node8" class="node"><title>Node8</title>
<g id="a_node8"><a xlink:href="unzip_8c.html#a5f1693991177fe0570e4c9bf0b95e510" target="_top" xlink:title="OF">
<polygon fill="white" stroke="black" points="1023.5,-114.5 1023.5,-133.5 1053.5,-133.5 1053.5,-114.5 1023.5,-114.5"/>
<text text-anchor="middle" x="1038.5" y="-121.5" font-family="Helvetica,sans-Serif" font-size="10.00">OF</text>
</a>
</g>
</g>
<!-- Node4&#45;&gt;Node8 -->
<g id="edge28" class="edge"><title>Node4&#45;&gt;Node8</title>
<path fill="none" stroke="midnightblue" d="M414.604,-304.457C442.502,-267.773 549.031,-134.993 671,-77 795.935,-17.5967 857.2,12.7351 981,-49 1004.28,-60.6087 1020.49,-86.8853 1029.4,-105.034"/>
<polygon fill="midnightblue" stroke="midnightblue" points="1026.34,-106.751 1033.7,-114.372 1032.69,-103.824 1026.34,-106.751"/>
</g>
<!-- Node9 -->
<g id="node9" class="node"><title>Node9</title>
<g id="a_node9"><a xlink:href="ioapi_8h.html#a39ab6d73c1cd44bc17064c2dcbb3e753" target="_top" xlink:title="voidpf">
<polygon fill="white" stroke="black" points="1017,-266.5 1017,-285.5 1060,-285.5 1060,-266.5 1017,-266.5"/>
<text text-anchor="middle" x="1038.5" y="-273.5" font-family="Helvetica,sans-Serif" font-size="10.00">voidpf</text>
</a>
</g>
</g>
<!-- Node4&#45;&gt;Node9 -->
<g id="edge29" class="edge"><title>Node4&#45;&gt;Node9</title>
<path fill="none" stroke="midnightblue" d="M458.107,-321.532C477.977,-324.137 501.011,-326.722 522,-328 726.319,-340.445 779.469,-325.87 981,-290 989.559,-288.477 998.745,-286.396 1007.17,-284.305"/>
<polygon fill="midnightblue" stroke="midnightblue" points="1008.16,-287.664 1016.98,-281.786 1006.42,-280.884 1008.16,-287.664"/>
</g>
<!-- Node4&#45;&gt;Node10 -->
<g id="edge16" class="edge"><title>Node4&#45;&gt;Node10</title>
<path fill="none" stroke="midnightblue" d="M450.398,-304.411C473.034,-299.351 500.998,-293.1 524.929,-287.751"/>
<polygon fill="midnightblue" stroke="midnightblue" points="525.915,-291.117 534.91,-285.52 524.388,-284.286 525.915,-291.117"/>
</g>
<!-- Node5&#45;&gt;Node3 -->
<g id="edge15" class="edge"><title>Node5&#45;&gt;Node3</title>
<path fill="none" stroke="midnightblue" d="M755.025,-209.8C799.76,-247.84 962.185,-385.956 1018.29,-433.661"/>
<polygon fill="midnightblue" stroke="midnightblue" points="1016.17,-436.456 1026.05,-440.267 1020.7,-431.123 1016.17,-436.456"/>
</g>
<!-- Node6 -->
<g id="node6" class="node"><title>Node6</title>
<g id="a_node6"><a xlink:href="ioapi_8h.html#a787fa3cf048117ba7123753c1e74fcd6" target="_top" xlink:title="int">
<polygon fill="white" stroke="black" points="901,-76.5 901,-95.5 930,-95.5 930,-76.5 901,-76.5"/>
<text text-anchor="middle" x="915.5" y="-83.5" font-family="Helvetica,sans-Serif" font-size="10.00">int</text>
</a>
</g>
</g>
<!-- Node5&#45;&gt;Node6 -->
<g id="edge6" class="edge"><title>Node5&#45;&gt;Node6</title>
<path fill="none" stroke="midnightblue" d="M752.617,-190.335C770.03,-172.352 809.873,-133.453 850,-110 862.814,-102.511 878.378,-96.6389 891.008,-92.578"/>
<polygon fill="midnightblue" stroke="midnightblue" points="892.254,-95.8574 900.801,-89.597 890.215,-89.1607 892.254,-95.8574"/>
</g>
<!-- Node5&#45;&gt;Node7 -->
<g id="edge7" class="edge"><title>Node5&#45;&gt;Node7</title>
<path fill="none" stroke="midnightblue" d="M793.881,-193.784C812.336,-193.191 833.434,-193.092 852.77,-193.487"/>
<polygon fill="midnightblue" stroke="midnightblue" points="852.913,-196.992 862.999,-193.749 853.091,-189.994 852.913,-196.992"/>
</g>
<!-- Node5&#45;&gt;Node8 -->
<g id="edge13" class="edge"><title>Node5&#45;&gt;Node8</title>
<path fill="none" stroke="midnightblue" d="M759.072,-190.364C779.25,-178.365 815.898,-158.205 850,-148 906.7,-131.033 976.565,-126.061 1012.91,-124.604"/>
<polygon fill="midnightblue" stroke="midnightblue" points="1013.18,-128.096 1023.06,-124.255 1012.94,-121.101 1013.18,-128.096"/>
</g>
<!-- Node5&#45;&gt;Node9 -->
<g id="edge14" class="edge"><title>Node5&#45;&gt;Node9</title>
<path fill="none" stroke="midnightblue" d="M765.585,-190.485C809.785,-173.02 910.886,-141.123 981,-181 1009.51,-197.216 1025.14,-234.13 1032.37,-256.873"/>
<polygon fill="midnightblue" stroke="midnightblue" points="1029.02,-257.868 1035.2,-266.473 1035.73,-255.892 1029.02,-257.868"/>
</g>
<!-- Node7&#45;&gt;Node3 -->
<g id="edge8" class="edge"><title>Node7&#45;&gt;Node3</title>
<path fill="none" stroke="midnightblue" d="M960.007,-209.58C967.864,-213.016 975.344,-217.677 981,-224 1008.64,-254.902 1028.25,-381.269 1034.96,-430.365"/>
<polygon fill="midnightblue" stroke="midnightblue" points="1031.5,-430.9 1036.29,-440.35 1038.44,-429.975 1031.5,-430.9"/>
</g>
<!-- Node7&#45;&gt;Node4 -->
<g id="edge10" class="edge"><title>Node7&#45;&gt;Node4</title>
<path fill="none" stroke="midnightblue" d="M862.786,-209.189C858.333,-210.82 854.005,-212.74 850,-215 830.019,-226.277 833.94,-240.651 814,-252 704.112,-314.542 551.703,-320.222 468.208,-317.783"/>
<polygon fill="midnightblue" stroke="midnightblue" points="468.241,-314.282 458.128,-317.439 468.003,-321.278 468.241,-314.282"/>
</g>
<!-- Node7&#45;&gt;Node5 -->
<g id="edge9" class="edge"><title>Node7&#45;&gt;Node5</title>
<path fill="none" stroke="midnightblue" d="M862.999,-206.251C844.438,-206.825 823.325,-206.904 804.062,-206.488"/>
<polygon fill="midnightblue" stroke="midnightblue" points="803.971,-202.984 793.881,-206.216 803.784,-209.982 803.971,-202.984"/>
</g>
<!-- Node7&#45;&gt;Node8 -->
<g id="edge11" class="edge"><title>Node7&#45;&gt;Node8</title>
<path fill="none" stroke="midnightblue" d="M931.825,-190.375C952.801,-177.199 990.612,-153.451 1014.86,-138.221"/>
<polygon fill="midnightblue" stroke="midnightblue" points="1016.82,-141.124 1023.42,-132.841 1013.09,-135.196 1016.82,-141.124"/>
</g>
<!-- Node7&#45;&gt;Node9 -->
<g id="edge12" class="edge"><title>Node7&#45;&gt;Node9</title>
<path fill="none" stroke="midnightblue" d="M949.795,-209.615C960.186,-213.333 971.426,-218.129 981,-224 996.546,-233.533 1011.61,-247.726 1022.27,-258.877"/>
<polygon fill="midnightblue" stroke="midnightblue" points="1019.83,-261.394 1029.2,-266.349 1024.96,-256.636 1019.83,-261.394"/>
</g>
<!-- Node10&#45;&gt;Node5 -->
<g id="edge17" class="edge"><title>Node10&#45;&gt;Node5</title>
<path fill="none" stroke="midnightblue" d="M600.017,-266.375C628.257,-253.126 679.286,-229.187 711.725,-213.969"/>
<polygon fill="midnightblue" stroke="midnightblue" points="713.582,-216.963 721.149,-209.547 710.609,-210.626 713.582,-216.963"/>
</g>
<!-- Node10&#45;&gt;Node8 -->
<g id="edge26" class="edge"><title>Node10&#45;&gt;Node8</title>
<path fill="none" stroke="midnightblue" d="M586.999,-266.443C615.972,-230.462 725.221,-103.36 850,-67 905.897,-50.7117 927.259,-44.6009 981,-67 999.809,-74.8397 1015.57,-92.3251 1025.62,-105.877"/>
<polygon fill="midnightblue" stroke="midnightblue" points="1023.03,-108.282 1031.64,-114.463 1028.77,-104.265 1023.03,-108.282"/>
</g>
<!-- Node10&#45;&gt;Node9 -->
<g id="edge27" class="edge"><title>Node10&#45;&gt;Node9</title>
<path fill="none" stroke="midnightblue" d="M635.202,-276C732.452,-276 930.118,-276 1006.45,-276"/>
<polygon fill="midnightblue" stroke="midnightblue" points="1006.81,-279.5 1016.81,-276 1006.81,-272.5 1006.81,-279.5"/>
</g>
<!-- Node11 -->
<g id="node11" class="node"><title>Node11</title>
<g id="a_node11"><a xlink:href="unzip_8c.html#a62c48825905347807e4daaf8451809e7" target="_top" xlink:title="unz64local_SearchCentralDir">
<polygon fill="white" stroke="black" points="671,-380.5 671,-399.5 814,-399.5 814,-380.5 671,-380.5"/>
<text text-anchor="middle" x="742.5" y="-387.5" font-family="Helvetica,sans-Serif" font-size="10.00">unz64local_SearchCentralDir</text>
</a>
</g>
</g>
<!-- Node10&#45;&gt;Node11 -->
<g id="edge18" class="edge"><title>Node10&#45;&gt;Node11</title>
<path fill="none" stroke="midnightblue" d="M593.033,-285.523C620.956,-305.173 685.188,-350.373 719.289,-374.37"/>
<polygon fill="midnightblue" stroke="midnightblue" points="717.469,-377.369 727.662,-380.262 721.498,-371.645 717.469,-377.369"/>
</g>
<!-- Node11&#45;&gt;Node3 -->
<g id="edge19" class="edge"><title>Node11&#45;&gt;Node3</title>
<path fill="none" stroke="midnightblue" d="M790.085,-399.507C850.828,-411.904 955.388,-433.243 1006.94,-443.764"/>
<polygon fill="midnightblue" stroke="midnightblue" points="1006.31,-447.207 1016.81,-445.778 1007.71,-440.349 1006.31,-447.207"/>
</g>
<!-- Node11&#45;&gt;Node8 -->
<g id="edge24" class="edge"><title>Node11&#45;&gt;Node8</title>
<path fill="none" stroke="midnightblue" d="M761.49,-380.486C803.879,-357.394 911.671,-294.676 981,-219 1002.29,-195.76 1019.52,-163.234 1029.13,-142.906"/>
<polygon fill="midnightblue" stroke="midnightblue" points="1032.35,-144.298 1033.34,-133.75 1025.98,-141.377 1032.35,-144.298"/>
</g>
<!-- Node11&#45;&gt;Node9 -->
<g id="edge25" class="edge"><title>Node11&#45;&gt;Node9</title>
<path fill="none" stroke="midnightblue" d="M814.164,-398.476C864.345,-400.965 931.351,-396.814 981,-366 1007.15,-349.771 1023.21,-316.477 1031.23,-295.249"/>
<polygon fill="midnightblue" stroke="midnightblue" points="1034.58,-296.258 1034.61,-285.663 1027.98,-293.928 1034.58,-296.258"/>
</g>
<!-- Node12 -->
<g id="node12" class="node"><title>Node12</title>
<g id="a_node12"><a xlink:href="unzip_8c.html#ad6a67f9e44f1e69bfc5fbdf9c49faa7f" target="_top" xlink:title="unz64local_SearchCentral\lDir64">
<polygon fill="white" stroke="black" points="850,-457 850,-487 981,-487 981,-457 850,-457"/>
<text text-anchor="start" x="858" y="-475" font-family="Helvetica,sans-Serif" font-size="10.00">unz64local_SearchCentral</text>
<text text-anchor="middle" x="915.5" y="-464" font-family="Helvetica,sans-Serif" font-size="10.00">Dir64</text>
</a>
</g>
</g>
<!-- Node11&#45;&gt;Node12 -->
<g id="edge20" class="edge"><title>Node11&#45;&gt;Node12</title>
<path fill="none" stroke="midnightblue" d="M777.025,-399.58C789.028,-403.604 802.44,-408.802 814,-415 831.626,-424.45 832.84,-431.727 850,-442 856.192,-445.707 862.918,-449.285 869.612,-452.599"/>
<polygon fill="midnightblue" stroke="midnightblue" points="868.136,-455.773 878.666,-456.943 871.164,-449.462 868.136,-455.773"/>
</g>
<!-- Node12&#45;&gt;Node3 -->
<g id="edge21" class="edge"><title>Node12&#45;&gt;Node3</title>
<path fill="none" stroke="midnightblue" d="M981.251,-460.227C990.136,-458.612 998.898,-457.019 1006.77,-455.588"/>
<polygon fill="midnightblue" stroke="midnightblue" points="1007.65,-458.984 1016.87,-453.751 1006.4,-452.097 1007.65,-458.984"/>
</g>
<!-- Node12&#45;&gt;Node4 -->
<g id="edge22" class="edge"><title>Node12&#45;&gt;Node4</title>
<path fill="none" stroke="midnightblue" d="M849.987,-470.591C800.204,-468.076 730.086,-461.401 671,-444 576.892,-416.285 475.468,-356.843 430.832,-328.985"/>
<polygon fill="midnightblue" stroke="midnightblue" points="432.52,-325.911 422.193,-323.543 428.789,-331.834 432.52,-325.911"/>
</g>
<!-- Node12&#45;&gt;Node10 -->
<g id="edge23" class="edge"><title>Node12&#45;&gt;Node10</title>
<path fill="none" stroke="midnightblue" d="M849.819,-460.573C787.857,-448.694 699.664,-429.063 671,-409 629.078,-379.657 600.412,-324.518 587.417,-295.304"/>
<polygon fill="midnightblue" stroke="midnightblue" points="590.503,-293.619 583.343,-285.81 584.07,-296.38 590.503,-293.619"/>
</g>
</g>
</svg>
        <g id="navigator" transform="translate(0 0)" fill="#404254">
                <rect fill="#f2f5e9" fill-opacity="0.5" stroke="#606060" stroke-width=".5" x="0" y="0" width="60" height="60"/>
                <use id="zoomplus" xlink:href="#zoomPlus" x="17" y="9" onmousedown="handleZoom(evt,'in')"/>
                <use id="zoomminus" xlink:href="#zoomMin" x="42" y="9" onmousedown="handleZoom(evt,'out')"/>
                <use id="reset" xlink:href="#resetDef" x="30" y="36" onmousedown="handleReset()"/>
                <g id="arrowUp" xlink:href="#dirArrow" transform="translate(30 24)" onmousedown="handlePan(0,-1)">
                  <use xlink:href="#rim" fill="#404040">
                        <set attributeName="fill" to="#808080" begin="arrowUp.mouseover" end="arrowUp.mouseout"/>
                  </use>
                  <path fill="none" stroke="white" stroke-width="1.5" d="M0,-3.0v7 M-2.5,-0.5L0,-3.0L2.5,-0.5"/>
                </g>
                <g id="arrowRight" xlink:href="#dirArrow" transform="rotate(90) translate(36 -43)" onmousedown="handlePan(1,0)">
                  <use xlink:href="#rim" fill="#404040">
                        <set attributeName="fill" to="#808080" begin="arrowRight.mouseover" end="arrowRight.mouseout"/>
                  </use>
                  <path fill="none" stroke="white" stroke-width="1.5" d="M0,-3.0v7 M-2.5,-0.5L0,-3.0L2.5,-0.5"/>
                </g>
                <g id="arrowDown" xlink:href="#dirArrow" transform="rotate(180) translate(-30 -48)" onmousedown="handlePan(0,1)">
                  <use xlink:href="#rim" fill="#404040">
                        <set attributeName="fill" to="#808080" begin="arrowDown.mouseover" end="arrowDown.mouseout"/>
                  </use>
                  <path fill="none" stroke="white" stroke-width="1.5" d="M0,-3.0v7 M-2.5,-0.5L0,-3.0L2.5,-0.5"/>
                </g>
                <g id="arrowLeft" xlink:href="#dirArrow" transform="rotate(270) translate(-36 17)" onmousedown="handlePan(-1,0)">
                  <use xlink:href="#rim" fill="#404040">
                        <set attributeName="fill" to="#808080" begin="arrowLeft.mouseover" end="arrowLeft.mouseout"/>
                  </use>
                  <path fill="none" stroke="white" stroke-width="1.5" d="M0,-3.0v7 M-2.5,-0.5L0,-3.0L2.5,-0.5"/>
                </g>
        </g>
        <svg viewBox="0 0 15 15" width="100%" height="30px" preserveAspectRatio="xMaxYMin meet">
         <g id="arrow_out" transform="scale(0.3 0.3)">
          <a xlink:href="unzip_8c_a3fa15aca1d661010ba247d60dea8bafc_cgraph_org.svg" target="_base">
           <rect id="button" ry="5" rx="5" y="6" x="6" height="38" width="38"
                fill="#f2f5e9" fill-opacity="0.5" stroke="#606060" stroke-width="1.0"/>
           <path id="arrow"
             d="M 11.500037,31.436501 C 11.940474,20.09759 22.043105,11.32322 32.158766,21.979434 L 37.068811,17.246167 C 37.068811,17.246167 37.088388,32 37.088388,32 L 22.160133,31.978069 C 22.160133,31.978069 26.997745,27.140456 26.997745,27.140456 C 18.528582,18.264221 13.291696,25.230495 11.500037,31.436501 z"
             style="fill:#404040;"/>
          </a>
         </g>
        </svg>
</svg>
