<?xml version="1.0" encoding="UTF-8" standalone="no"?>
<!DOCTYPE svg PUBLIC "-//W3C//DTD SVG 1.1//EN"
 "http://www.w3.org/Graphics/SVG/1.1/DTD/svg11.dtd">
<!-- Generated by graphviz version 2.38.0 (20140413.2041)
 -->
<!-- Title: unz64local_SearchCentralDir Pages: 1 -->
<!--zoomable 502 -->
<svg id="main" version="1.1" xmlns="http://www.w3.org/2000/svg" xmlns:xlink="http://www.w3.org/1999/xlink" xml:space="preserve" onload="init(evt)">
<style type="text/css"><![CDATA[
.edge:hover path { stroke: red; }
.edge:hover polygon { stroke: red; fill: red; }
]]></style>
<script type="text/javascript"><![CDATA[
var edges = document.getElementsByTagName('g');
if (edges && edges.length) {
  for (var i=0;i<edges.length;i++) {
    if (edges[i].id.substr(0,4)=='edge') {
      edges[i].setAttribute('class','edge');
    }
  }
}
]]></script>
        <defs>
                <circle id="rim" cx="0" cy="0" r="7"/>
                <circle id="rim2" cx="0" cy="0" r="3.5"/>
                <g id="zoomPlus">
                        <use xlink:href="#rim" fill="#404040">
                                <set attributeName="fill" to="#808080" begin="zoomplus.mouseover" end="zoomplus.mouseout"/>
                        </use>
                        <path d="M-4,0h8M0,-4v8" fill="none" stroke="white" stroke-width="1.5" pointer-events="none"/>
                </g>
                <g id="zoomMin">
                        <use xlink:href="#rim" fill="#404040">
                                <set attributeName="fill" to="#808080" begin="zoomminus.mouseover" end="zoomminus.mouseout"/>
                        </use>
                        <path d="M-4,0h8" fill="none" stroke="white" stroke-width="1.5" pointer-events="none"/>
                </g>
                <g id="dirArrow">
                        <path fill="none" stroke="white" stroke-width="1.5" d="M0,-3.0v7 M-2.5,-0.5L0,-3.0L2.5,-0.5"/>
                </g>
               <g id="resetDef">
                       <use xlink:href="#rim2" fill="#404040">
                               <set attributeName="fill" to="#808080" begin="reset.mouseover" end="reset.mouseout"/>
                       </use>
               </g>
        </defs>

<script type="text/javascript">
var viewWidth = 964;
var viewHeight = 502;
var sectionId = 'dynsection-7';
</script>
<script xlink:href="svgpan.js"/>
<svg id="graph" class="graph">
<g id="viewport">
<title>unz64local_SearchCentralDir</title>
<polygon fill="white" stroke="none" points="-4,4 -4,-498 960,-498 960,4 -4,4"/>
<!-- Node1 -->
<g id="node1" class="node"><title>Node1</title>
<polygon fill="#bfbfbf" stroke="black" points="0,-142.5 0,-161.5 143,-161.5 143,-142.5 0,-142.5"/>
<text text-anchor="middle" x="71.5" y="-149.5" font-family="Helvetica,sans-Serif" font-size="10.00">unz64local_SearchCentralDir</text>
</g>
<!-- Node2 -->
<g id="node2" class="node"><title>Node2</title>
<g id="a_node2"><a xlink:href="ioapi_8h.html#a50e9e9d5c30e481de822ad68fe537986" target="_top" xlink:title="uLong">
<polygon fill="white" stroke="black" points="913,-408.5 913,-427.5 956,-427.5 956,-408.5 913,-408.5"/>
<text text-anchor="middle" x="934.5" y="-415.5" font-family="Helvetica,sans-Serif" font-size="10.00">uLong</text>
</a>
</g>
</g>
<!-- Node1&#45;&gt;Node2 -->
<g id="edge1" class="edge"><title>Node1&#45;&gt;Node2</title>
<path fill="none" stroke="midnightblue" d="M75.8922,-161.504C96.2747,-216.739 207.976,-494 396.5,-494 396.5,-494 396.5,-494 686,-494 772.553,-494 797.087,-489.245 877,-456 890.302,-450.466 903.744,-441.589 914.178,-433.806"/>
<polygon fill="midnightblue" stroke="midnightblue" points="916.4,-436.511 922.166,-427.623 912.116,-430.976 916.4,-436.511"/>
</g>
<!-- Node3 -->
<g id="node3" class="node"><title>Node3</title>
<g id="a_node3"><a xlink:href="unzip_8c.html#ad6a67f9e44f1e69bfc5fbdf9c49faa7f" target="_top" xlink:title="unz64local_SearchCentral\lDir64">
<polygon fill="white" stroke="black" points="179,-223 179,-253 310,-253 310,-223 179,-223"/>
<text text-anchor="start" x="187" y="-241" font-family="Helvetica,sans-Serif" font-size="10.00">unz64local_SearchCentral</text>
<text text-anchor="middle" x="244.5" y="-230" font-family="Helvetica,sans-Serif" font-size="10.00">Dir64</text>
</a>
</g>
</g>
<!-- Node1&#45;&gt;Node3 -->
<g id="edge2" class="edge"><title>Node1&#45;&gt;Node3</title>
<path fill="none" stroke="midnightblue" d="M91.4533,-161.532C118.593,-175.181 169.145,-200.605 204.48,-218.376"/>
<polygon fill="midnightblue" stroke="midnightblue" points="203.055,-221.577 213.561,-222.943 206.2,-215.323 203.055,-221.577"/>
</g>
<!-- Node8 -->
<g id="node8" class="node"><title>Node8</title>
<g id="a_node8"><a xlink:href="unzip_8c.html#a5f1693991177fe0570e4c9bf0b95e510" target="_top" xlink:title="OF">
<polygon fill="white" stroke="black" points="919.5,-256.5 919.5,-275.5 949.5,-275.5 949.5,-256.5 919.5,-256.5"/>
<text text-anchor="middle" x="934.5" y="-263.5" font-family="Helvetica,sans-Serif" font-size="10.00">OF</text>
</a>
</g>
</g>
<!-- Node1&#45;&gt;Node8 -->
<g id="edge25" class="edge"><title>Node1&#45;&gt;Node8</title>
<path fill="none" stroke="midnightblue" d="M96.4348,-142.375C149.519,-121.924 281.524,-76 396.5,-76 396.5,-76 396.5,-76 686,-76 780.612,-76 807.65,-105.641 877,-170 900.525,-191.832 917.294,-225.704 926.179,-246.829"/>
<polygon fill="midnightblue" stroke="midnightblue" points="923.021,-248.356 930.002,-256.326 929.514,-245.742 923.021,-248.356"/>
</g>
<!-- Node9 -->
<g id="node9" class="node"><title>Node9</title>
<g id="a_node9"><a xlink:href="ioapi_8h.html#a39ab6d73c1cd44bc17064c2dcbb3e753" target="_top" xlink:title="voidpf">
<polygon fill="white" stroke="black" points="913,-104.5 913,-123.5 956,-123.5 956,-104.5 913,-104.5"/>
<text text-anchor="middle" x="934.5" y="-111.5" font-family="Helvetica,sans-Serif" font-size="10.00">voidpf</text>
</a>
</g>
</g>
<!-- Node1&#45;&gt;Node9 -->
<g id="edge26" class="edge"><title>Node1&#45;&gt;Node9</title>
<path fill="none" stroke="midnightblue" d="M81.184,-142.323C98.1749,-123.969 137.769,-83.9738 179,-62 267.706,-14.7242 295.983,-0 396.5,-0 396.5,-0 396.5,-0 686,-0 778.555,-0 874.196,-66.5825 914.149,-97.978"/>
<polygon fill="midnightblue" stroke="midnightblue" points="912.027,-100.763 922.021,-104.28 916.402,-95.2983 912.027,-100.763"/>
</g>
<!-- Node3&#45;&gt;Node2 -->
<g id="edge3" class="edge"><title>Node3&#45;&gt;Node2</title>
<path fill="none" stroke="midnightblue" d="M255.475,-253.329C289.104,-302.951 403.902,-456 540.5,-456 540.5,-456 540.5,-456 686,-456 765.013,-456 856.587,-436.845 903.059,-425.735"/>
<polygon fill="midnightblue" stroke="midnightblue" points="903.915,-429.129 912.804,-423.364 902.26,-422.327 903.915,-429.129"/>
</g>
<!-- Node4 -->
<g id="node4" class="node"><title>Node4</title>
<g id="a_node4"><a xlink:href="unzip_8c.html#ad3fe51136556c1c4a1e964a157d153ba" target="_top" xlink:title="unz64local_getLong">
<polygon fill="white" stroke="black" points="346,-256.5 346,-275.5 449,-275.5 449,-256.5 346,-256.5"/>
<text text-anchor="middle" x="397.5" y="-263.5" font-family="Helvetica,sans-Serif" font-size="10.00">unz64local_getLong</text>
</a>
</g>
</g>
<!-- Node3&#45;&gt;Node4 -->
<g id="edge4" class="edge"><title>Node3&#45;&gt;Node4</title>
<path fill="none" stroke="midnightblue" d="M310.414,-250.037C318.824,-251.597 327.414,-253.189 335.753,-254.736"/>
<polygon fill="midnightblue" stroke="midnightblue" points="335.302,-258.212 345.773,-256.594 336.579,-251.329 335.302,-258.212"/>
</g>
<!-- Node10 -->
<g id="node10" class="node"><title>Node10</title>
<g id="a_node10"><a xlink:href="unzip_8c.html#a65165fb74a10780ee7b66e9c6c57da3c" target="_top" xlink:title="unz64local_getLong64">
<polygon fill="white" stroke="black" points="485,-142.5 485,-161.5 598,-161.5 598,-142.5 485,-142.5"/>
<text text-anchor="middle" x="541.5" y="-149.5" font-family="Helvetica,sans-Serif" font-size="10.00">unz64local_getLong64</text>
</a>
</g>
</g>
<!-- Node3&#45;&gt;Node10 -->
<g id="edge24" class="edge"><title>Node3&#45;&gt;Node10</title>
<path fill="none" stroke="midnightblue" d="M297.223,-222.922C354.195,-206.313 444.755,-179.912 497.832,-164.439"/>
<polygon fill="midnightblue" stroke="midnightblue" points="498.987,-167.748 507.608,-161.589 497.028,-161.028 498.987,-167.748"/>
</g>
<!-- Node4&#45;&gt;Node2 -->
<g id="edge5" class="edge"><title>Node4&#45;&gt;Node2</title>
<path fill="none" stroke="midnightblue" d="M407.892,-275.596C422.802,-290.224 453.445,-317.885 485,-332 631.928,-397.722 827.879,-413.29 902.698,-416.919"/>
<polygon fill="midnightblue" stroke="midnightblue" points="902.691,-420.422 912.837,-417.372 903.004,-413.429 902.691,-420.422"/>
</g>
<!-- Node5 -->
<g id="node5" class="node"><title>Node5</title>
<g id="a_node5"><a xlink:href="unzip_8c.html#a4fdc20c5d880511c727c425b1f11ef68" target="_top" xlink:title="unz64local_getByte">
<polygon fill="white" stroke="black" points="634,-256.5 634,-275.5 736,-275.5 736,-256.5 634,-256.5"/>
<text text-anchor="middle" x="685" y="-263.5" font-family="Helvetica,sans-Serif" font-size="10.00">unz64local_getByte</text>
</a>
</g>
</g>
<!-- Node4&#45;&gt;Node5 -->
<g id="edge6" class="edge"><title>Node4&#45;&gt;Node5</title>
<path fill="none" stroke="midnightblue" d="M449.213,-266C498.035,-266 571.896,-266 623.706,-266"/>
<polygon fill="midnightblue" stroke="midnightblue" points="623.76,-269.5 633.76,-266 623.759,-262.5 623.76,-269.5"/>
</g>
<!-- Node4&#45;&gt;Node8 -->
<g id="edge22" class="edge"><title>Node4&#45;&gt;Node8</title>
<path fill="none" stroke="midnightblue" d="M419.568,-275.661C488.404,-305.769 711.746,-391.877 877,-323 895.809,-315.16 911.568,-297.675 921.622,-284.123"/>
<polygon fill="midnightblue" stroke="midnightblue" points="924.766,-285.735 927.639,-275.537 919.034,-281.718 924.766,-285.735"/>
</g>
<!-- Node4&#45;&gt;Node9 -->
<g id="edge23" class="edge"><title>Node4&#45;&gt;Node9</title>
<path fill="none" stroke="midnightblue" d="M423.967,-256.384C483.891,-234.046 638.809,-177.965 772,-144 816.937,-132.541 869.95,-123.534 902.647,-118.489"/>
<polygon fill="midnightblue" stroke="midnightblue" points="903.554,-121.892 912.916,-116.932 902.504,-114.971 903.554,-121.892"/>
</g>
<!-- Node4&#45;&gt;Node10 -->
<g id="edge17" class="edge"><title>Node4&#45;&gt;Node10</title>
<path fill="none" stroke="midnightblue" d="M411.187,-256.431C421.813,-248.135 437.106,-235.525 449,-223 467.118,-203.919 464.256,-192.188 485,-176 489.997,-172.101 495.723,-168.706 501.558,-165.794"/>
<polygon fill="midnightblue" stroke="midnightblue" points="503.079,-168.947 510.726,-161.614 500.175,-162.578 503.079,-168.947"/>
</g>
<!-- Node5&#45;&gt;Node2 -->
<g id="edge16" class="edge"><title>Node5&#45;&gt;Node2</title>
<path fill="none" stroke="midnightblue" d="M699.853,-275.513C716.726,-287.022 746.176,-306.863 772,-323 819.203,-352.496 875.456,-385.004 907.573,-403.32"/>
<polygon fill="midnightblue" stroke="midnightblue" points="905.924,-406.408 916.347,-408.312 909.386,-400.324 905.924,-406.408"/>
</g>
<!-- Node6 -->
<g id="node6" class="node"><title>Node6</title>
<g id="a_node6"><a xlink:href="ioapi_8h.html#a787fa3cf048117ba7123753c1e74fcd6" target="_top" xlink:title="int">
<polygon fill="white" stroke="black" points="810,-218.5 810,-237.5 839,-237.5 839,-218.5 810,-218.5"/>
<text text-anchor="middle" x="824.5" y="-225.5" font-family="Helvetica,sans-Serif" font-size="10.00">int</text>
</a>
</g>
</g>
<!-- Node5&#45;&gt;Node6 -->
<g id="edge7" class="edge"><title>Node5&#45;&gt;Node6</title>
<path fill="none" stroke="midnightblue" d="M720.697,-256.411C745.584,-249.533 778.434,-240.455 800.228,-234.431"/>
<polygon fill="midnightblue" stroke="midnightblue" points="801.249,-237.781 809.955,-231.743 799.384,-231.034 801.249,-237.781"/>
</g>
<!-- Node7 -->
<g id="node7" class="node"><title>Node7</title>
<g id="a_node7"><a xlink:href="unzip_8c.html#aca92d6709924f9c82ce13f0c18cc26b1" target="_top" xlink:title="unz64local_getShort">
<polygon fill="white" stroke="black" points="772,-294.5 772,-313.5 877,-313.5 877,-294.5 772,-294.5"/>
<text text-anchor="middle" x="824.5" y="-301.5" font-family="Helvetica,sans-Serif" font-size="10.00">unz64local_getShort</text>
</a>
</g>
</g>
<!-- Node5&#45;&gt;Node7 -->
<g id="edge8" class="edge"><title>Node5&#45;&gt;Node7</title>
<path fill="none" stroke="midnightblue" d="M736.03,-273.304C756.442,-278.437 779.237,-285.079 796.438,-291.025"/>
<polygon fill="midnightblue" stroke="midnightblue" points="795.265,-294.322 805.859,-294.428 797.644,-287.739 795.265,-294.322"/>
</g>
<!-- Node5&#45;&gt;Node8 -->
<g id="edge14" class="edge"><title>Node5&#45;&gt;Node8</title>
<path fill="none" stroke="midnightblue" d="M736.085,-266C788.634,-266 869.045,-266 909.085,-266"/>
<polygon fill="midnightblue" stroke="midnightblue" points="909.251,-269.5 919.251,-266 909.251,-262.5 909.251,-269.5"/>
</g>
<!-- Node5&#45;&gt;Node9 -->
<g id="edge15" class="edge"><title>Node5&#45;&gt;Node9</title>
<path fill="none" stroke="midnightblue" d="M699.853,-256.487C716.726,-244.978 746.176,-225.137 772,-209 819.203,-179.504 875.456,-146.996 907.573,-128.68"/>
<polygon fill="midnightblue" stroke="midnightblue" points="909.386,-131.676 916.347,-123.688 905.924,-125.592 909.386,-131.676"/>
</g>
<!-- Node7&#45;&gt;Node2 -->
<g id="edge9" class="edge"><title>Node7&#45;&gt;Node2</title>
<path fill="none" stroke="midnightblue" d="M834.708,-313.72C853.04,-333.07 894.309,-376.632 917.285,-400.884"/>
<polygon fill="midnightblue" stroke="midnightblue" points="914.897,-403.453 924.315,-408.305 919.979,-398.638 914.897,-403.453"/>
</g>
<!-- Node7&#45;&gt;Node4 -->
<g id="edge11" class="edge"><title>Node7&#45;&gt;Node4</title>
<path fill="none" stroke="midnightblue" d="M771.753,-301.775C705.236,-298.585 586.242,-291.758 485,-280 476.637,-279.029 467.847,-277.823 459.206,-276.53"/>
<polygon fill="midnightblue" stroke="midnightblue" points="459.581,-273.046 449.165,-274.98 458.514,-279.965 459.581,-273.046"/>
</g>
<!-- Node7&#45;&gt;Node5 -->
<g id="edge10" class="edge"><title>Node7&#45;&gt;Node5</title>
<path fill="none" stroke="midnightblue" d="M771.818,-296.279C751.954,-291.236 730.06,-284.837 713.358,-279.078"/>
<polygon fill="midnightblue" stroke="midnightblue" points="714.289,-275.693 703.694,-275.592 711.914,-282.278 714.289,-275.693"/>
</g>
<!-- Node7&#45;&gt;Node8 -->
<g id="edge12" class="edge"><title>Node7&#45;&gt;Node8</title>
<path fill="none" stroke="midnightblue" d="M852.753,-294.411C870.347,-288.22 893.01,-280.246 909.846,-274.323"/>
<polygon fill="midnightblue" stroke="midnightblue" points="911.206,-277.554 919.478,-270.934 908.883,-270.951 911.206,-277.554"/>
</g>
<!-- Node7&#45;&gt;Node9 -->
<g id="edge13" class="edge"><title>Node7&#45;&gt;Node9</title>
<path fill="none" stroke="midnightblue" d="M836.113,-294.349C847.404,-283.643 865.23,-265.435 877,-247 900.969,-209.459 918.866,-160.021 927.586,-133.243"/>
<polygon fill="midnightblue" stroke="midnightblue" points="930.971,-134.146 930.659,-123.555 924.299,-132.029 930.971,-134.146"/>
</g>
<!-- Node10&#45;&gt;Node1 -->
<g id="edge19" class="edge"><title>Node10&#45;&gt;Node1</title>
<path fill="none" stroke="midnightblue" d="M484.779,-152C402.458,-152 247.89,-152 153.179,-152"/>
<polygon fill="midnightblue" stroke="midnightblue" points="153.071,-148.5 143.071,-152 153.071,-155.5 153.071,-148.5"/>
</g>
<!-- Node10&#45;&gt;Node5 -->
<g id="edge18" class="edge"><title>Node10&#45;&gt;Node5</title>
<path fill="none" stroke="midnightblue" d="M554.564,-161.72C578.896,-181.322 634.068,-225.772 663.92,-249.823"/>
<polygon fill="midnightblue" stroke="midnightblue" points="661.983,-252.757 671.966,-256.305 666.375,-247.306 661.983,-252.757"/>
</g>
<!-- Node10&#45;&gt;Node8 -->
<g id="edge20" class="edge"><title>Node10&#45;&gt;Node8</title>
<path fill="none" stroke="midnightblue" d="M598.17,-151.297C667.348,-152.633 787.223,-162.342 877,-209 894.68,-218.188 910.238,-234.897 920.527,-247.858"/>
<polygon fill="midnightblue" stroke="midnightblue" points="917.94,-250.239 926.771,-256.093 923.518,-246.01 917.94,-250.239"/>
</g>
<!-- Node10&#45;&gt;Node9 -->
<g id="edge21" class="edge"><title>Node10&#45;&gt;Node9</title>
<path fill="none" stroke="midnightblue" d="M570.168,-142.47C627.325,-123.94 762.658,-86.0448 877,-100 885.558,-101.044 894.687,-102.948 903.055,-105.021"/>
<polygon fill="midnightblue" stroke="midnightblue" points="902.235,-108.424 912.797,-107.589 904.019,-101.655 902.235,-108.424"/>
</g>
</g>
</svg>
        <g id="navigator" transform="translate(0 0)" fill="#404254">
                <rect fill="#f2f5e9" fill-opacity="0.5" stroke="#606060" stroke-width=".5" x="0" y="0" width="60" height="60"/>
                <use id="zoomplus" xlink:href="#zoomPlus" x="17" y="9" onmousedown="handleZoom(evt,'in')"/>
                <use id="zoomminus" xlink:href="#zoomMin" x="42" y="9" onmousedown="handleZoom(evt,'out')"/>
                <use id="reset" xlink:href="#resetDef" x="30" y="36" onmousedown="handleReset()"/>
                <g id="arrowUp" xlink:href="#dirArrow" transform="translate(30 24)" onmousedown="handlePan(0,-1)">
                  <use xlink:href="#rim" fill="#404040">
                        <set attributeName="fill" to="#808080" begin="arrowUp.mouseover" end="arrowUp.mouseout"/>
                  </use>
                  <path fill="none" stroke="white" stroke-width="1.5" d="M0,-3.0v7 M-2.5,-0.5L0,-3.0L2.5,-0.5"/>
                </g>
                <g id="arrowRight" xlink:href="#dirArrow" transform="rotate(90) translate(36 -43)" onmousedown="handlePan(1,0)">
                  <use xlink:href="#rim" fill="#404040">
                        <set attributeName="fill" to="#808080" begin="arrowRight.mouseover" end="arrowRight.mouseout"/>
                  </use>
                  <path fill="none" stroke="white" stroke-width="1.5" d="M0,-3.0v7 M-2.5,-0.5L0,-3.0L2.5,-0.5"/>
                </g>
                <g id="arrowDown" xlink:href="#dirArrow" transform="rotate(180) translate(-30 -48)" onmousedown="handlePan(0,1)">
                  <use xlink:href="#rim" fill="#404040">
                        <set attributeName="fill" to="#808080" begin="arrowDown.mouseover" end="arrowDown.mouseout"/>
                  </use>
                  <path fill="none" stroke="white" stroke-width="1.5" d="M0,-3.0v7 M-2.5,-0.5L0,-3.0L2.5,-0.5"/>
                </g>
                <g id="arrowLeft" xlink:href="#dirArrow" transform="rotate(270) translate(-36 17)" onmousedown="handlePan(-1,0)">
                  <use xlink:href="#rim" fill="#404040">
                        <set attributeName="fill" to="#808080" begin="arrowLeft.mouseover" end="arrowLeft.mouseout"/>
                  </use>
                  <path fill="none" stroke="white" stroke-width="1.5" d="M0,-3.0v7 M-2.5,-0.5L0,-3.0L2.5,-0.5"/>
                </g>
        </g>
        <svg viewBox="0 0 15 15" width="100%" height="30px" preserveAspectRatio="xMaxYMin meet">
         <g id="arrow_out" transform="scale(0.3 0.3)">
          <a xlink:href="unzip_8c_a62c48825905347807e4daaf8451809e7_cgraph_org.svg" target="_base">
           <rect id="button" ry="5" rx="5" y="6" x="6" height="38" width="38"
                fill="#f2f5e9" fill-opacity="0.5" stroke="#606060" stroke-width="1.0"/>
           <path id="arrow"
             d="M 11.500037,31.436501 C 11.940474,20.09759 22.043105,11.32322 32.158766,21.979434 L 37.068811,17.246167 C 37.068811,17.246167 37.088388,32 37.088388,32 L 22.160133,31.978069 C 22.160133,31.978069 26.997745,27.140456 26.997745,27.140456 C 18.528582,18.264221 13.291696,25.230495 11.500037,31.436501 z"
             style="fill:#404040;"/>
          </a>
         </g>
        </svg>
</svg>
