<?xml version="1.0" encoding="UTF-8" standalone="no"?>
<!DOCTYPE svg PUBLIC "-//W3C//DTD SVG 1.1//EN"
 "http://www.w3.org/Graphics/SVG/1.1/DTD/svg11.dtd">
<!-- Generated by graphviz version 2.38.0 (20140413.2041)
 -->
<!-- Title: arVecTridiagonalize Pages: 1 -->
<svg width="367pt" height="47pt"
 viewBox="0.00 0.00 367.00 47.00" xmlns="http://www.w3.org/2000/svg" xmlns:xlink="http://www.w3.org/1999/xlink">
<g id="graph0" class="graph" transform="scale(1 1) rotate(0) translate(4 43)">
<title>arVecTridiagonalize</title>
<polygon fill="white" stroke="none" points="-4,4 -4,-43 363,-43 363,4 -4,4"/>
<!-- Node1 -->
<g id="node1" class="node"><title>Node1</title>
<polygon fill="#bfbfbf" stroke="black" points="0,-0.5 0,-19.5 102,-19.5 102,-0.5 0,-0.5"/>
<text text-anchor="middle" x="51" y="-7.5" font-family="Helvetica,sans-Serif" font-size="10.00">arVecTridiagonalize</text>
</g>
<!-- Node2 -->
<g id="node2" class="node"><title>Node2</title>
<g id="a_node2"><a xlink:href="_a_r_2include_2_a_r6_2_a_r_2matrix_8h.html#a22c1accf34e23812321b7f9e844fbbb8" target="_top" xlink:title="arVecHousehold">
<polygon fill="white" stroke="black" points="138,-19.5 138,-38.5 227,-38.5 227,-19.5 138,-19.5"/>
<text text-anchor="middle" x="182.5" y="-26.5" font-family="Helvetica,sans-Serif" font-size="10.00">arVecHousehold</text>
</a>
</g>
</g>
<!-- Node1&#45;&gt;Node2 -->
<g id="edge1" class="edge"><title>Node1&#45;&gt;Node2</title>
<path fill="none" stroke="midnightblue" d="M102.068,-17.3459C110.56,-18.5918 119.408,-19.8899 127.984,-21.1482"/>
<polygon fill="midnightblue" stroke="midnightblue" points="127.488,-24.6128 137.89,-22.6016 128.504,-17.687 127.488,-24.6128"/>
</g>
<!-- Node3 -->
<g id="node3" class="node"><title>Node3</title>
<g id="a_node3"><a xlink:href="_a_r_2include_2_a_r6_2_a_r_2matrix_8h.html#ad8f6d1df45e917e283188c5b1a40e4ff" target="_top" xlink:title="arVecInnerproduct">
<polygon fill="white" stroke="black" points="263,-0.5 263,-19.5 359,-19.5 359,-0.5 263,-0.5"/>
<text text-anchor="middle" x="311" y="-7.5" font-family="Helvetica,sans-Serif" font-size="10.00">arVecInnerproduct</text>
</a>
</g>
</g>
<!-- Node1&#45;&gt;Node3 -->
<g id="edge3" class="edge"><title>Node1&#45;&gt;Node3</title>
<path fill="none" stroke="midnightblue" d="M102.051,-10C145.147,-10 207.344,-10 252.479,-10"/>
<polygon fill="midnightblue" stroke="midnightblue" points="252.699,-13.5001 262.699,-10 252.699,-6.5001 252.699,-13.5001"/>
</g>
<!-- Node2&#45;&gt;Node3 -->
<g id="edge2" class="edge"><title>Node2&#45;&gt;Node3</title>
<path fill="none" stroke="midnightblue" d="M227.034,-22.4613C235.356,-21.2114 244.183,-19.8855 252.856,-18.5829"/>
<polygon fill="midnightblue" stroke="midnightblue" points="253.558,-22.0168 262.927,-17.0703 252.518,-15.0945 253.558,-22.0168"/>
</g>
</g>
</svg>
