<?xml version="1.0" encoding="UTF-8" standalone="no"?>
<!DOCTYPE svg PUBLIC "-//W3C//DTD SVG 1.1//EN"
 "http://www.w3.org/Graphics/SVG/1.1/DTD/svg11.dtd">
<!-- Generated by graphviz version 2.38.0 (20140413.2041)
 -->
<!-- Title: arVideoSetParami Pages: 1 -->
<svg width="438pt" height="218pt"
 viewBox="0.00 0.00 438.00 218.00" xmlns="http://www.w3.org/2000/svg" xmlns:xlink="http://www.w3.org/1999/xlink">
<g id="graph0" class="graph" transform="scale(1 1) rotate(0) translate(4 214)">
<title>arVideoSetParami</title>
<polygon fill="white" stroke="none" points="-4,4 -4,-214 434,-214 434,4 -4,4"/>
<!-- Node1 -->
<g id="node1" class="node"><title>Node1</title>
<polygon fill="#bfbfbf" stroke="black" points="0,-95.5 0,-114.5 95,-114.5 95,-95.5 0,-95.5"/>
<text text-anchor="middle" x="47.5" y="-102.5" font-family="Helvetica,sans-Serif" font-size="10.00">arVideoSetParami</text>
</g>
<!-- Node2 -->
<g id="node2" class="node"><title>Node2</title>
<g id="a_node2"><a xlink:href="video_8h.html#ad451f2f35435194d472527896775efce" target="_top" xlink:title="ar2VideoSetParami">
<polygon fill="white" stroke="black" points="131,-95.5 131,-114.5 232,-114.5 232,-95.5 131,-95.5"/>
<text text-anchor="middle" x="181.5" y="-102.5" font-family="Helvetica,sans-Serif" font-size="10.00">ar2VideoSetParami</text>
</a>
</g>
</g>
<!-- Node1&#45;&gt;Node2 -->
<g id="edge1" class="edge"><title>Node1&#45;&gt;Node2</title>
<path fill="none" stroke="midnightblue" d="M95.0383,-105C103.361,-105 112.137,-105 120.768,-105"/>
<polygon fill="midnightblue" stroke="midnightblue" points="120.799,-108.5 130.799,-105 120.799,-101.5 120.799,-108.5"/>
</g>
<!-- Node3 -->
<g id="node3" class="node"><title>Node3</title>
<g id="a_node3"><a xlink:href="video_dummy_8h.html#accfc9bd063be86a02e9c387f0f470948" target="_top" xlink:title="ar2VideoSetParamiDummy">
<polygon fill="white" stroke="black" points="281.5,-190.5 281.5,-209.5 416.5,-209.5 416.5,-190.5 281.5,-190.5"/>
<text text-anchor="middle" x="349" y="-197.5" font-family="Helvetica,sans-Serif" font-size="10.00">ar2VideoSetParamiDummy</text>
</a>
</g>
</g>
<!-- Node2&#45;&gt;Node3 -->
<g id="edge2" class="edge"><title>Node2&#45;&gt;Node3</title>
<path fill="none" stroke="midnightblue" d="M190.383,-114.589C204.295,-130.855 234.88,-163.761 268,-181 272.553,-183.37 277.404,-185.448 282.381,-187.271"/>
<polygon fill="midnightblue" stroke="midnightblue" points="281.468,-190.656 292.062,-190.471 283.665,-184.009 281.468,-190.656"/>
</g>
<!-- Node4 -->
<g id="node4" class="node"><title>Node4</title>
<g id="a_node4"><a xlink:href="video_v4_l2_8h.html#a1c26a387d473bc0120e15ec19b627cf9" target="_top" xlink:title="ar2VideoSetParamiV4L2">
<polygon fill="white" stroke="black" points="287.5,-152.5 287.5,-171.5 410.5,-171.5 410.5,-152.5 287.5,-152.5"/>
<text text-anchor="middle" x="349" y="-159.5" font-family="Helvetica,sans-Serif" font-size="10.00">ar2VideoSetParamiV4L2</text>
</a>
</g>
</g>
<!-- Node2&#45;&gt;Node4 -->
<g id="edge3" class="edge"><title>Node2&#45;&gt;Node4</title>
<path fill="none" stroke="midnightblue" d="M201.45,-114.642C218.513,-123.028 244.454,-135.048 268,-143 275.596,-145.565 283.71,-147.92 291.748,-150.032"/>
<polygon fill="midnightblue" stroke="midnightblue" points="290.924,-153.434 301.476,-152.486 292.636,-146.646 290.924,-153.434"/>
</g>
<!-- Node5 -->
<g id="node5" class="node"><title>Node5</title>
<g id="a_node5"><a xlink:href="video1394_8h.html#acda2b3c007279215e772140c469f65f3" target="_top" xlink:title="ar2VideoSetParami1394">
<polygon fill="white" stroke="black" points="288,-114.5 288,-133.5 410,-133.5 410,-114.5 288,-114.5"/>
<text text-anchor="middle" x="349" y="-121.5" font-family="Helvetica,sans-Serif" font-size="10.00">ar2VideoSetParami1394</text>
</a>
</g>
</g>
<!-- Node2&#45;&gt;Node5 -->
<g id="edge4" class="edge"><title>Node2&#45;&gt;Node5</title>
<path fill="none" stroke="midnightblue" d="M232.155,-110.701C246.527,-112.35 262.492,-114.183 277.863,-115.948"/>
<polygon fill="midnightblue" stroke="midnightblue" points="277.522,-119.432 287.856,-117.095 278.32,-112.477 277.522,-119.432"/>
</g>
<!-- Node6 -->
<g id="node6" class="node"><title>Node6</title>
<g id="a_node6"><a xlink:href="video_a_v_foundation_8h.html#a3a781077b285a0cd19a04578058b33fe" target="_top" xlink:title="ar2VideoSetParamiAVFoundation">
<polygon fill="white" stroke="black" points="268,-76.5 268,-95.5 430,-95.5 430,-76.5 268,-76.5"/>
<text text-anchor="middle" x="349" y="-83.5" font-family="Helvetica,sans-Serif" font-size="10.00">ar2VideoSetParamiAVFoundation</text>
</a>
</g>
</g>
<!-- Node2&#45;&gt;Node6 -->
<g id="edge5" class="edge"><title>Node2&#45;&gt;Node6</title>
<path fill="none" stroke="midnightblue" d="M232.155,-99.2994C240.318,-98.3622 248.996,-97.366 257.787,-96.3568"/>
<polygon fill="midnightblue" stroke="midnightblue" points="258.203,-99.8321 267.738,-95.2143 257.404,-92.8778 258.203,-99.8321"/>
</g>
<!-- Node7 -->
<g id="node7" class="node"><title>Node7</title>
<g id="a_node7"><a xlink:href="video_image_8h.html#a2ee57bf3ebd8fc6e70357320c2753b94" target="_top" xlink:title="ar2VideoSetParamiImage">
<polygon fill="white" stroke="black" points="285,-38.5 285,-57.5 413,-57.5 413,-38.5 285,-38.5"/>
<text text-anchor="middle" x="349" y="-45.5" font-family="Helvetica,sans-Serif" font-size="10.00">ar2VideoSetParamiImage</text>
</a>
</g>
</g>
<!-- Node2&#45;&gt;Node7 -->
<g id="edge6" class="edge"><title>Node2&#45;&gt;Node7</title>
<path fill="none" stroke="midnightblue" d="M201.45,-95.3576C218.513,-86.9725 244.454,-74.9523 268,-67 275.596,-64.4346 283.71,-62.0803 291.748,-59.968"/>
<polygon fill="midnightblue" stroke="midnightblue" points="292.636,-63.3537 301.476,-57.5136 290.924,-56.5664 292.636,-63.3537"/>
</g>
<!-- Node8 -->
<g id="node8" class="node"><title>Node8</title>
<g id="a_node8"><a xlink:href="video_android_8h.html#ab46eebeb0e0fd8685e34ad2f4b7e52e7" target="_top" xlink:title="ar2VideoSetParamiAndroid">
<polygon fill="white" stroke="black" points="282,-0.5 282,-19.5 416,-19.5 416,-0.5 282,-0.5"/>
<text text-anchor="middle" x="349" y="-7.5" font-family="Helvetica,sans-Serif" font-size="10.00">ar2VideoSetParamiAndroid</text>
</a>
</g>
</g>
<!-- Node2&#45;&gt;Node8 -->
<g id="edge7" class="edge"><title>Node2&#45;&gt;Node8</title>
<path fill="none" stroke="midnightblue" d="M190.383,-95.4107C204.295,-79.1453 234.88,-46.2386 268,-29 272.553,-26.6304 277.404,-24.5516 282.381,-22.7287"/>
<polygon fill="midnightblue" stroke="midnightblue" points="283.665,-25.9907 292.062,-19.5293 281.468,-19.3443 283.665,-25.9907"/>
</g>
</g>
</svg>
