<?xml version="1.0" encoding="UTF-8" standalone="no"?>
<!DOCTYPE svg PUBLIC "-//W3C//DTD SVG 1.1//EN"
 "http://www.w3.org/Graphics/SVG/1.1/DTD/svg11.dtd">
<!-- Generated by graphviz version 2.38.0 (20140413.2041)
 -->
<!-- Title: ar2VideoOpenAsync Pages: 1 -->
<svg width="317pt" height="66pt"
 viewBox="0.00 0.00 317.00 66.00" xmlns="http://www.w3.org/2000/svg" xmlns:xlink="http://www.w3.org/1999/xlink">
<g id="graph0" class="graph" transform="scale(1 1) rotate(0) translate(4 62)">
<title>ar2VideoOpenAsync</title>
<polygon fill="white" stroke="none" points="-4,4 -4,-62 313,-62 313,4 -4,4"/>
<!-- Node1 -->
<g id="node1" class="node"><title>Node1</title>
<polygon fill="#bfbfbf" stroke="black" points="0,-19.5 0,-38.5 106,-38.5 106,-19.5 0,-19.5"/>
<text text-anchor="middle" x="53" y="-26.5" font-family="Helvetica,sans-Serif" font-size="10.00">ar2VideoOpenAsync</text>
</g>
<!-- Node2 -->
<g id="node2" class="node"><title>Node2</title>
<g id="a_node2"><a xlink:href="video_a_v_foundation_8h.html#aeeda53e796311199493f4acdaa075e3c" target="_top" xlink:title="ar2VideoOpenAsyncAVFoundation">
<polygon fill="white" stroke="black" points="142,-38.5 142,-57.5 309,-57.5 309,-38.5 142,-38.5"/>
<text text-anchor="middle" x="225.5" y="-45.5" font-family="Helvetica,sans-Serif" font-size="10.00">ar2VideoOpenAsyncAVFoundation</text>
</a>
</g>
</g>
<!-- Node1&#45;&gt;Node2 -->
<g id="edge1" class="edge"><title>Node1&#45;&gt;Node2</title>
<path fill="none" stroke="midnightblue" d="M106.082,-34.8039C114.336,-35.7236 123.081,-36.6982 131.932,-37.6845"/>
<polygon fill="midnightblue" stroke="midnightblue" points="131.624,-41.1718 141.95,-38.8009 132.399,-34.2148 131.624,-41.1718"/>
</g>
<!-- Node3 -->
<g id="node3" class="node"><title>Node3</title>
<g id="a_node3"><a xlink:href="video_android_8h.html#aa38cb37e30ae2fdfc4ee16dfb3662f83" target="_top" xlink:title="ar2VideoOpenAsyncAndroid">
<polygon fill="white" stroke="black" points="156,-0.5 156,-19.5 295,-19.5 295,-0.5 156,-0.5"/>
<text text-anchor="middle" x="225.5" y="-7.5" font-family="Helvetica,sans-Serif" font-size="10.00">ar2VideoOpenAsyncAndroid</text>
</a>
</g>
</g>
<!-- Node1&#45;&gt;Node3 -->
<g id="edge2" class="edge"><title>Node1&#45;&gt;Node3</title>
<path fill="none" stroke="midnightblue" d="M106.082,-23.1961C118.568,-21.8047 132.179,-20.2879 145.58,-18.7946"/>
<polygon fill="midnightblue" stroke="midnightblue" points="146.215,-22.2456 155.765,-17.6596 145.439,-15.2887 146.215,-22.2456"/>
</g>
</g>
</svg>
