<?xml version="1.0" encoding="UTF-8" standalone="no"?>
<!DOCTYPE svg PUBLIC "-//W3C//DTD SVG 1.1//EN"
 "http://www.w3.org/Graphics/SVG/1.1/DTD/svg11.dtd">
<!-- Generated by graphviz version 2.38.0 (20140413.2041)
 -->
<!-- Title: /bitrise/src/Source/AR6/ARVideo/video2.c Pages: 1 -->
<svg width="1125pt" height="319pt"
 viewBox="0.00 0.00 1125.00 319.00" xmlns="http://www.w3.org/2000/svg" xmlns:xlink="http://www.w3.org/1999/xlink">
<g id="graph0" class="graph" transform="scale(1 1) rotate(0) translate(4 315)">
<title>/bitrise/src/Source/AR6/ARVideo/video2.c</title>
<polygon fill="white" stroke="none" points="-4,4 -4,-315 1121,-315 1121,4 -4,4"/>
<!-- Node1 -->
<g id="node1" class="node"><title>Node1</title>
<polygon fill="#bfbfbf" stroke="black" points="670.5,-280.5 670.5,-310.5 791.5,-310.5 791.5,-280.5 670.5,-280.5"/>
<text text-anchor="start" x="678.5" y="-298.5" font-family="Helvetica,sans-Serif" font-size="10.00">/bitrise/src/Source</text>
<text text-anchor="middle" x="731" y="-287.5" font-family="Helvetica,sans-Serif" font-size="10.00">/AR6/ARVideo/video2.c</text>
</g>
<!-- Node2 -->
<g id="node2" class="node"><title>Node2</title>
<polygon fill="white" stroke="#bfbfbf" points="558,-0.5 558,-19.5 604,-19.5 604,-0.5 558,-0.5"/>
<text text-anchor="middle" x="581" y="-7.5" font-family="Helvetica,sans-Serif" font-size="10.00">stdio.h</text>
</g>
<!-- Node1&#45;&gt;Node2 -->
<g id="edge1" class="edge"><title>Node1&#45;&gt;Node2</title>
<path fill="none" stroke="midnightblue" d="M670.302,-293.075C547.183,-286.464 270.115,-251.785 156,-76 151.16,-68.5444 150.055,-62.608 156,-56 169.094,-41.446 449.551,-20.2979 547.555,-13.3254"/>
<polygon fill="midnightblue" stroke="midnightblue" points="548.056,-16.7988 557.784,-12.6021 547.562,-9.81622 548.056,-16.7988"/>
</g>
<!-- Node3 -->
<g id="node3" class="node"><title>Node3</title>
<polygon fill="white" stroke="#bfbfbf" points="1039.5,-0.5 1039.5,-19.5 1088.5,-19.5 1088.5,-0.5 1039.5,-0.5"/>
<text text-anchor="middle" x="1064" y="-7.5" font-family="Helvetica,sans-Serif" font-size="10.00">string.h</text>
</g>
<!-- Node1&#45;&gt;Node3 -->
<g id="edge2" class="edge"><title>Node1&#45;&gt;Node3</title>
<path fill="none" stroke="midnightblue" d="M791.737,-288.999C900.44,-277.463 1117,-246.064 1117,-179 1117,-179 1117,-179 1117,-121 1117,-90.9022 1111.52,-82.8924 1098,-56 1092.84,-45.7405 1085.28,-35.4379 1078.59,-27.2844"/>
<polygon fill="midnightblue" stroke="midnightblue" points="1081.23,-24.99 1072.08,-19.6575 1075.91,-29.5353 1081.23,-24.99"/>
</g>
<!-- Node4 -->
<g id="node4" class="node"><title>Node4</title>
<polygon fill="white" stroke="#bfbfbf" points="820,-0.5 820,-19.5 868,-19.5 868,-0.5 820,-0.5"/>
<text text-anchor="middle" x="844" y="-7.5" font-family="Helvetica,sans-Serif" font-size="10.00">stdlib.h</text>
</g>
<!-- Node1&#45;&gt;Node4 -->
<g id="edge3" class="edge"><title>Node1&#45;&gt;Node4</title>
<path fill="none" stroke="midnightblue" d="M768.473,-280.454C807.498,-263.106 863,-229.549 863,-179 863,-179 863,-179 863,-121 863,-88.4885 854.841,-51.3503 849.216,-29.6103"/>
<polygon fill="midnightblue" stroke="midnightblue" points="852.541,-28.498 846.562,-19.7514 845.782,-30.3175 852.541,-28.498"/>
</g>
<!-- Node5 -->
<g id="node5" class="node"><title>Node5</title>
<g id="a_node5"><a xlink:href="video_8h.html" target="_top" xlink:title="AR6/ARVideo/video.h">
<polygon fill="white" stroke="black" points="542.5,-224.5 542.5,-243.5 655.5,-243.5 655.5,-224.5 542.5,-224.5"/>
<text text-anchor="middle" x="599" y="-231.5" font-family="Helvetica,sans-Serif" font-size="10.00">AR6/ARVideo/video.h</text>
</a>
</g>
</g>
<!-- Node1&#45;&gt;Node5 -->
<g id="edge4" class="edge"><title>Node1&#45;&gt;Node5</title>
<path fill="none" stroke="midnightblue" d="M699.718,-280.399C677.768,-270.505 648.657,-257.383 627.379,-247.792"/>
<polygon fill="midnightblue" stroke="midnightblue" points="628.762,-244.576 618.207,-243.658 625.886,-250.958 628.762,-244.576"/>
</g>
<!-- Node8 -->
<g id="node8" class="node"><title>Node8</title>
<polygon fill="white" stroke="#bfbfbf" points="116.5,-0.5 116.5,-19.5 207.5,-19.5 207.5,-0.5 116.5,-0.5"/>
<text text-anchor="middle" x="162" y="-7.5" font-family="Helvetica,sans-Serif" font-size="10.00">AR6/AR/config.h</text>
</g>
<!-- Node1&#45;&gt;Node8 -->
<g id="edge33" class="edge"><title>Node1&#45;&gt;Node8</title>
<path fill="none" stroke="midnightblue" d="M670.245,-291.277C494.831,-281.168 0,-246.655 0,-179 0,-179 0,-179 0,-121 0,-65.934 64.856,-36.5137 112.495,-22.3309"/>
<polygon fill="midnightblue" stroke="midnightblue" points="113.704,-25.6264 122.37,-19.532 111.795,-18.8917 113.704,-25.6264"/>
</g>
<!-- Node22 -->
<g id="node22" class="node"><title>Node22</title>
<g id="a_node22"><a xlink:href="time_8h.html" target="_top" xlink:title="AR6/ARUtil/time.h">
<polygon fill="white" stroke="black" points="941,-112.5 941,-131.5 1039,-131.5 1039,-112.5 941,-112.5"/>
<text text-anchor="middle" x="990" y="-119.5" font-family="Helvetica,sans-Serif" font-size="10.00">AR6/ARUtil/time.h</text>
</a>
</g>
</g>
<!-- Node1&#45;&gt;Node22 -->
<g id="edge34" class="edge"><title>Node1&#45;&gt;Node22</title>
<path fill="none" stroke="midnightblue" d="M791.546,-280.713C819.049,-272.705 851.138,-260.807 877,-244 921.003,-215.404 959.718,-166.05 978.305,-140.093"/>
<polygon fill="midnightblue" stroke="midnightblue" points="981.336,-141.867 984.215,-131.67 975.606,-137.846 981.336,-141.867"/>
</g>
<!-- Node6 -->
<g id="node6" class="node"><title>Node6</title>
<g id="a_node6"><a xlink:href="ar_8h.html" target="_top" xlink:title="ARToolKit core routines. ">
<polygon fill="white" stroke="black" points="611.5,-112.5 611.5,-131.5 684.5,-131.5 684.5,-112.5 611.5,-112.5"/>
<text text-anchor="middle" x="648" y="-119.5" font-family="Helvetica,sans-Serif" font-size="10.00">AR6/AR/ar.h</text>
</a>
</g>
</g>
<!-- Node5&#45;&gt;Node6 -->
<g id="edge5" class="edge"><title>Node5&#45;&gt;Node6</title>
<path fill="none" stroke="midnightblue" d="M600.665,-224.287C603.298,-211.524 609.059,-187.181 618,-168 622.554,-158.23 629.056,-148.174 634.844,-140.052"/>
<polygon fill="midnightblue" stroke="midnightblue" points="637.798,-141.944 640.932,-131.823 632.171,-137.78 637.798,-141.944"/>
</g>
<!-- Node19 -->
<g id="node19" class="node"><title>Node19</title>
<g id="a_node19"><a xlink:href="video_config_8h.html" target="_top" xlink:title="AR6/ARVideo/videoConfig.h">
<polygon fill="white" stroke="black" points="28.5,-112.5 28.5,-131.5 169.5,-131.5 169.5,-112.5 28.5,-112.5"/>
<text text-anchor="middle" x="99" y="-119.5" font-family="Helvetica,sans-Serif" font-size="10.00">AR6/ARVideo/videoConfig.h</text>
</a>
</g>
</g>
<!-- Node5&#45;&gt;Node19 -->
<g id="edge28" class="edge"><title>Node5&#45;&gt;Node19</title>
<path fill="none" stroke="midnightblue" d="M560.182,-224.46C470.099,-204.642 246.996,-155.559 147.843,-133.745"/>
<polygon fill="midnightblue" stroke="midnightblue" points="148.312,-130.265 137.793,-131.535 146.808,-137.101 148.312,-130.265"/>
</g>
<!-- Node20 -->
<g id="node20" class="node"><title>Node20</title>
<g id="a_node20"><a xlink:href="video_luma_8h.html" target="_top" xlink:title="AR6/ARVideo/videoLuma.h">
<polygon fill="white" stroke="black" points="627.5,-168.5 627.5,-187.5 764.5,-187.5 764.5,-168.5 627.5,-168.5"/>
<text text-anchor="middle" x="696" y="-175.5" font-family="Helvetica,sans-Serif" font-size="10.00">AR6/ARVideo/videoLuma.h</text>
</a>
</g>
</g>
<!-- Node5&#45;&gt;Node20 -->
<g id="edge30" class="edge"><title>Node5&#45;&gt;Node20</title>
<path fill="none" stroke="midnightblue" d="M614.585,-224.324C629.999,-215.743 653.812,-202.486 671.71,-192.522"/>
<polygon fill="midnightblue" stroke="midnightblue" points="673.419,-195.577 680.454,-187.655 670.014,-189.461 673.419,-195.577"/>
</g>
<!-- Node21 -->
<g id="node21" class="node"><title>Node21</title>
<polygon fill="white" stroke="#bfbfbf" points="523,-168.5 523,-187.5 571,-187.5 571,-168.5 523,-168.5"/>
<text text-anchor="middle" x="547" y="-175.5" font-family="Helvetica,sans-Serif" font-size="10.00">limits.h</text>
</g>
<!-- Node5&#45;&gt;Node21 -->
<g id="edge32" class="edge"><title>Node5&#45;&gt;Node21</title>
<path fill="none" stroke="midnightblue" d="M590.413,-224.083C582.841,-216.22 571.622,-204.569 562.486,-195.081"/>
<polygon fill="midnightblue" stroke="midnightblue" points="564.885,-192.527 555.427,-187.751 559.842,-197.382 564.885,-192.527"/>
</g>
<!-- Node6&#45;&gt;Node2 -->
<g id="edge6" class="edge"><title>Node6&#45;&gt;Node2</title>
<path fill="none" stroke="midnightblue" d="M635.598,-112.399C624.709,-104.228 609.21,-90.9875 600,-76 591.248,-61.7573 586.357,-43.284 583.737,-29.6734"/>
<polygon fill="midnightblue" stroke="midnightblue" points="587.15,-28.863 582.037,-19.5838 580.248,-30.0265 587.15,-28.863"/>
</g>
<!-- Node6&#45;&gt;Node3 -->
<g id="edge9" class="edge"><title>Node6&#45;&gt;Node3</title>
<path fill="none" stroke="midnightblue" d="M684.634,-118.963C761.683,-114.237 937.855,-100.977 992,-76 1016.03,-64.9141 1037.69,-42.9432 1050.84,-27.6296"/>
<polygon fill="midnightblue" stroke="midnightblue" points="1053.87,-29.4525 1057.54,-19.515 1048.47,-24.9923 1053.87,-29.4525"/>
</g>
<!-- Node6&#45;&gt;Node4 -->
<g id="edge7" class="edge"><title>Node6&#45;&gt;Node4</title>
<path fill="none" stroke="midnightblue" d="M684.736,-118.327C719.206,-114.149 770.615,-103.441 806,-76 821.461,-64.0106 831.832,-43.8221 837.781,-29.12"/>
<polygon fill="midnightblue" stroke="midnightblue" points="841.123,-30.1726 841.34,-19.58 834.565,-27.7257 841.123,-30.1726"/>
</g>
<!-- Node7 -->
<g id="node7" class="node"><title>Node7</title>
<polygon fill="white" stroke="#bfbfbf" points="1039.5,-56.5 1039.5,-75.5 1088.5,-75.5 1088.5,-56.5 1039.5,-56.5"/>
<text text-anchor="middle" x="1064" y="-63.5" font-family="Helvetica,sans-Serif" font-size="10.00">stdint.h</text>
</g>
<!-- Node6&#45;&gt;Node7 -->
<g id="edge8" class="edge"><title>Node6&#45;&gt;Node7</title>
<path fill="none" stroke="midnightblue" d="M684.585,-117.957C752.16,-112.042 900.975,-97.6473 1025,-76 1026.45,-75.7461 1027.94,-75.4724 1029.43,-75.1838"/>
<polygon fill="midnightblue" stroke="midnightblue" points="1030.25,-78.5881 1039.32,-73.1178 1028.82,-71.7359 1030.25,-78.5881"/>
</g>
<!-- Node6&#45;&gt;Node8 -->
<g id="edge10" class="edge"><title>Node6&#45;&gt;Node8</title>
<path fill="none" stroke="midnightblue" d="M611.07,-119.819C551.128,-117.008 429.537,-107.563 332,-76 313.842,-70.124 311.53,-63.5465 294,-56 263.435,-42.8419 227.642,-30.8416 201.044,-22.5487"/>
<polygon fill="midnightblue" stroke="midnightblue" points="201.918,-19.1556 191.331,-19.5571 199.858,-25.8455 201.918,-19.1556"/>
</g>
<!-- Node9 -->
<g id="node9" class="node"><title>Node9</title>
<g id="a_node9"><a xlink:href="ar_config_8h.html" target="_top" xlink:title="AR6/AR/arConfig.h">
<polygon fill="white" stroke="black" points="451.5,-56.5 451.5,-75.5 552.5,-75.5 552.5,-56.5 451.5,-56.5"/>
<text text-anchor="middle" x="502" y="-63.5" font-family="Helvetica,sans-Serif" font-size="10.00">AR6/AR/arConfig.h</text>
</a>
</g>
</g>
<!-- Node6&#45;&gt;Node9 -->
<g id="edge11" class="edge"><title>Node6&#45;&gt;Node9</title>
<path fill="none" stroke="midnightblue" d="M624.866,-112.444C600.518,-103.438 561.993,-89.1891 534.577,-79.049"/>
<polygon fill="midnightblue" stroke="midnightblue" points="535.619,-75.7028 525.026,-75.5164 533.191,-82.2681 535.619,-75.7028"/>
</g>
<!-- Node10 -->
<g id="node10" class="node"><title>Node10</title>
<g id="a_node10"><a xlink:href="log_8h.html" target="_top" xlink:title="Logging utilities. ">
<polygon fill="white" stroke="black" points="891,-56.5 891,-75.5 983,-75.5 983,-56.5 891,-56.5"/>
<text text-anchor="middle" x="937" y="-63.5" font-family="Helvetica,sans-Serif" font-size="10.00">AR6/ARUtil/log.h</text>
</a>
</g>
</g>
<!-- Node6&#45;&gt;Node10 -->
<g id="edge12" class="edge"><title>Node6&#45;&gt;Node10</title>
<path fill="none" stroke="midnightblue" d="M684.602,-114.161C734.178,-104.898 823.122,-88.2783 881.091,-77.4467"/>
<polygon fill="midnightblue" stroke="midnightblue" points="881.995,-80.8384 891.182,-75.5611 880.709,-73.9575 881.995,-80.8384"/>
</g>
<!-- Node13 -->
<g id="node13" class="node"><title>Node13</title>
<g id="a_node13"><a xlink:href="_a_r_2include_2_a_r6_2_a_r_2matrix_8h.html" target="_top" xlink:title="AR6/AR/matrix.h">
<polygon fill="white" stroke="black" points="341,-56.5 341,-75.5 433,-75.5 433,-56.5 341,-56.5"/>
<text text-anchor="middle" x="387" y="-63.5" font-family="Helvetica,sans-Serif" font-size="10.00">AR6/AR/matrix.h</text>
</a>
</g>
</g>
<!-- Node6&#45;&gt;Node13 -->
<g id="edge18" class="edge"><title>Node6&#45;&gt;Node13</title>
<path fill="none" stroke="midnightblue" d="M611.434,-113.435C566.321,-104.101 489.347,-88.1752 438.327,-77.6194"/>
<polygon fill="midnightblue" stroke="midnightblue" points="438.988,-74.1821 428.486,-75.5834 437.57,-81.0369 438.988,-74.1821"/>
</g>
<!-- Node15 -->
<g id="node15" class="node"><title>Node15</title>
<g id="a_node15"><a xlink:href="icp_8h.html" target="_top" xlink:title="AR6/AR/icp.h">
<polygon fill="white" stroke="black" points="609.5,-56.5 609.5,-75.5 686.5,-75.5 686.5,-56.5 609.5,-56.5"/>
<text text-anchor="middle" x="648" y="-63.5" font-family="Helvetica,sans-Serif" font-size="10.00">AR6/AR/icp.h</text>
</a>
</g>
</g>
<!-- Node6&#45;&gt;Node15 -->
<g id="edge20" class="edge"><title>Node6&#45;&gt;Node15</title>
<path fill="none" stroke="midnightblue" d="M648,-112.083C648,-105.006 648,-94.8611 648,-85.9865"/>
<polygon fill="midnightblue" stroke="midnightblue" points="651.5,-85.751 648,-75.7511 644.5,-85.7511 651.5,-85.751"/>
</g>
<!-- Node17 -->
<g id="node17" class="node"><title>Node17</title>
<g id="a_node17"><a xlink:href="param_8h.html" target="_top" xlink:title="ARToolKit functions for handling calibrated camera parameters. ">
<polygon fill="white" stroke="black" points="705,-56.5 705,-75.5 797,-75.5 797,-56.5 705,-56.5"/>
<text text-anchor="middle" x="751" y="-63.5" font-family="Helvetica,sans-Serif" font-size="10.00">AR6/AR/param.h</text>
</a>
</g>
</g>
<!-- Node6&#45;&gt;Node17 -->
<g id="edge23" class="edge"><title>Node6&#45;&gt;Node17</title>
<path fill="none" stroke="midnightblue" d="M659.434,-112.324C674.143,-103.625 699.646,-90.1202 720.104,-80.113"/>
<polygon fill="midnightblue" stroke="midnightblue" points="721.885,-83.1406 729.382,-75.6545 718.853,-76.8312 721.885,-83.1406"/>
</g>
<!-- Node18 -->
<g id="node18" class="node"><title>Node18</title>
<g id="a_node18"><a xlink:href="ar_image_proc_8h.html" target="_top" xlink:title="ARToolKit functions for 2D luminance image processing. ">
<polygon fill="white" stroke="black" points="165,-56.5 165,-75.5 285,-75.5 285,-56.5 165,-56.5"/>
<text text-anchor="middle" x="225" y="-63.5" font-family="Helvetica,sans-Serif" font-size="10.00">AR6/AR/arImageProc.h</text>
</a>
</g>
</g>
<!-- Node6&#45;&gt;Node18 -->
<g id="edge25" class="edge"><title>Node6&#45;&gt;Node18</title>
<path fill="none" stroke="midnightblue" d="M611.334,-116.808C540.945,-108.245 386.198,-88.5535 295.315,-76.655"/>
<polygon fill="midnightblue" stroke="midnightblue" points="295.741,-73.181 285.371,-75.3507 294.831,-80.1216 295.741,-73.181"/>
</g>
<!-- Node10&#45;&gt;Node2 -->
<g id="edge13" class="edge"><title>Node10&#45;&gt;Node2</title>
<path fill="none" stroke="midnightblue" d="M890.785,-60.5827C829.592,-54.2941 718.212,-41.3256 614.353,-20.0428"/>
<polygon fill="midnightblue" stroke="midnightblue" points="614.831,-16.5673 604.328,-17.9571 613.405,-23.4206 614.831,-16.5673"/>
</g>
<!-- Node10&#45;&gt;Node3 -->
<g id="edge15" class="edge"><title>Node10&#45;&gt;Node3</title>
<path fill="none" stroke="midnightblue" d="M957.124,-56.4435C978.024,-47.5566 1010.93,-33.5632 1034.72,-23.4514"/>
<polygon fill="midnightblue" stroke="midnightblue" points="1036.14,-26.6504 1043.97,-19.5164 1033.4,-20.2085 1036.14,-26.6504"/>
</g>
<!-- Node10&#45;&gt;Node4 -->
<g id="edge14" class="edge"><title>Node10&#45;&gt;Node4</title>
<path fill="none" stroke="midnightblue" d="M922.058,-56.324C907.415,-47.8215 884.866,-34.7288 867.762,-24.7975"/>
<polygon fill="midnightblue" stroke="midnightblue" points="869.31,-21.6491 858.905,-19.6545 865.795,-27.7027 869.31,-21.6491"/>
</g>
<!-- Node11 -->
<g id="node11" class="node"><title>Node11</title>
<polygon fill="white" stroke="#bfbfbf" points="886,-0.5 886,-19.5 938,-19.5 938,-0.5 886,-0.5"/>
<text text-anchor="middle" x="912" y="-7.5" font-family="Helvetica,sans-Serif" font-size="10.00">stdarg.h</text>
</g>
<!-- Node10&#45;&gt;Node11 -->
<g id="edge16" class="edge"><title>Node10&#45;&gt;Node11</title>
<path fill="none" stroke="midnightblue" d="M932.872,-56.083C929.486,-48.77 924.584,-38.1814 920.381,-29.1034"/>
<polygon fill="midnightblue" stroke="midnightblue" points="923.429,-27.3553 916.051,-19.7511 917.077,-30.2962 923.429,-27.3553"/>
</g>
<!-- Node12 -->
<g id="node12" class="node"><title>Node12</title>
<polygon fill="white" stroke="#bfbfbf" points="956.5,-0.5 956.5,-19.5 1021.5,-19.5 1021.5,-0.5 956.5,-0.5"/>
<text text-anchor="middle" x="989" y="-7.5" font-family="Helvetica,sans-Serif" font-size="10.00">sys/errno.h</text>
</g>
<!-- Node10&#45;&gt;Node12 -->
<g id="edge17" class="edge"><title>Node10&#45;&gt;Node12</title>
<path fill="none" stroke="midnightblue" d="M945.587,-56.083C953.159,-48.2195 964.378,-36.5688 973.514,-27.0813"/>
<polygon fill="midnightblue" stroke="midnightblue" points="976.158,-29.3821 980.573,-19.7511 971.115,-24.5266 976.158,-29.3821"/>
</g>
<!-- Node14 -->
<g id="node14" class="node"><title>Node14</title>
<polygon fill="white" stroke="#bfbfbf" points="363.5,-0.5 363.5,-19.5 410.5,-19.5 410.5,-0.5 363.5,-0.5"/>
<text text-anchor="middle" x="387" y="-7.5" font-family="Helvetica,sans-Serif" font-size="10.00">math.h</text>
</g>
<!-- Node13&#45;&gt;Node14 -->
<g id="edge19" class="edge"><title>Node13&#45;&gt;Node14</title>
<path fill="none" stroke="midnightblue" d="M387,-56.083C387,-49.0059 387,-38.8611 387,-29.9865"/>
<polygon fill="midnightblue" stroke="midnightblue" points="390.5,-29.751 387,-19.7511 383.5,-29.7511 390.5,-29.751"/>
</g>
<!-- Node15&#45;&gt;Node2 -->
<g id="edge21" class="edge"><title>Node15&#45;&gt;Node2</title>
<path fill="none" stroke="midnightblue" d="M637.235,-56.324C627.234,-48.2631 612.113,-36.0765 600.07,-26.3695"/>
<polygon fill="midnightblue" stroke="midnightblue" points="601.943,-23.3841 591.961,-19.8339 597.55,-28.8343 601.943,-23.3841"/>
</g>
<!-- Node16 -->
<g id="node16" class="node"><title>Node16</title>
<g id="a_node16"><a xlink:href="icp_core_8h.html" target="_top" xlink:title="AR6/AR/icpCore.h">
<polygon fill="white" stroke="black" points="622,-0.5 622,-19.5 720,-19.5 720,-0.5 622,-0.5"/>
<text text-anchor="middle" x="671" y="-7.5" font-family="Helvetica,sans-Serif" font-size="10.00">AR6/AR/icpCore.h</text>
</a>
</g>
</g>
<!-- Node15&#45;&gt;Node16 -->
<g id="edge22" class="edge"><title>Node15&#45;&gt;Node16</title>
<path fill="none" stroke="midnightblue" d="M651.798,-56.083C654.913,-48.77 659.423,-38.1814 663.289,-29.1034"/>
<polygon fill="midnightblue" stroke="midnightblue" points="666.574,-30.3229 667.273,-19.7511 660.134,-27.5798 666.574,-30.3229"/>
</g>
<!-- Node17&#45;&gt;Node6 -->
<g id="edge24" class="edge"><title>Node17&#45;&gt;Node6</title>
<path fill="none" stroke="midnightblue" d="M739.836,-75.5164C725.068,-84.2697 699.123,-98.0073 678.468,-108.096"/>
<polygon fill="midnightblue" stroke="midnightblue" points="676.911,-104.961 669.409,-112.444 679.939,-111.272 676.911,-104.961"/>
</g>
<!-- Node18&#45;&gt;Node6 -->
<g id="edge27" class="edge"><title>Node18&#45;&gt;Node6</title>
<path fill="none" stroke="midnightblue" d="M285.298,-74.0925C370.357,-84.6035 523.599,-104.172 600.868,-114.395"/>
<polygon fill="midnightblue" stroke="midnightblue" points="600.878,-117.927 611.252,-115.773 601.799,-110.988 600.878,-117.927"/>
</g>
<!-- Node18&#45;&gt;Node8 -->
<g id="edge26" class="edge"><title>Node18&#45;&gt;Node8</title>
<path fill="none" stroke="midnightblue" d="M214.878,-56.324C205.474,-48.2631 191.256,-36.0765 179.931,-26.3695"/>
<polygon fill="midnightblue" stroke="midnightblue" points="182.177,-23.6844 172.306,-19.8339 177.621,-28.9993 182.177,-23.6844"/>
</g>
<!-- Node19&#45;&gt;Node8 -->
<g id="edge29" class="edge"><title>Node19&#45;&gt;Node8</title>
<path fill="none" stroke="midnightblue" d="M101.176,-112.144C104.592,-99.2022 111.981,-74.6395 123,-56 129.234,-45.4541 138.053,-35.0294 145.729,-26.8733"/>
<polygon fill="midnightblue" stroke="midnightblue" points="148.397,-29.1505 152.884,-19.5529 143.391,-24.2573 148.397,-29.1505"/>
</g>
<!-- Node20&#45;&gt;Node6 -->
<g id="edge31" class="edge"><title>Node20&#45;&gt;Node6</title>
<path fill="none" stroke="midnightblue" d="M688.074,-168.083C681.154,-160.298 670.935,-148.801 662.548,-139.367"/>
<polygon fill="midnightblue" stroke="midnightblue" points="665.038,-136.9 655.779,-131.751 659.806,-141.55 665.038,-136.9"/>
</g>
<!-- Node22&#45;&gt;Node7 -->
<g id="edge35" class="edge"><title>Node22&#45;&gt;Node7</title>
<path fill="none" stroke="midnightblue" d="M1001.89,-112.324C1013.15,-104.107 1030.29,-91.6017 1043.71,-81.8069"/>
<polygon fill="midnightblue" stroke="midnightblue" points="1045.88,-84.5559 1051.89,-75.8339 1041.75,-78.9014 1045.88,-84.5559"/>
</g>
</g>
</svg>
