<?xml version="1.0" encoding="UTF-8" standalone="no"?>
<!DOCTYPE svg PUBLIC "-//W3C//DTD SVG 1.1//EN"
 "http://www.w3.org/Graphics/SVG/1.1/DTD/svg11.dtd">
<!-- Generated by graphviz version 2.38.0 (20140413.2041)
 -->
<!-- Title: ar2VideoDispOption Pages: 1 -->
<svg width="313pt" height="218pt"
 viewBox="0.00 0.00 313.00 218.00" xmlns="http://www.w3.org/2000/svg" xmlns:xlink="http://www.w3.org/1999/xlink">
<g id="graph0" class="graph" transform="scale(1 1) rotate(0) translate(4 214)">
<title>ar2VideoDispOption</title>
<polygon fill="white" stroke="none" points="-4,4 -4,-214 309,-214 309,4 -4,4"/>
<!-- Node1 -->
<g id="node1" class="node"><title>Node1</title>
<polygon fill="#bfbfbf" stroke="black" points="0,-95.5 0,-114.5 104,-114.5 104,-95.5 0,-95.5"/>
<text text-anchor="middle" x="52" y="-102.5" font-family="Helvetica,sans-Serif" font-size="10.00">ar2VideoDispOption</text>
</g>
<!-- Node2 -->
<g id="node2" class="node"><title>Node2</title>
<g id="a_node2"><a xlink:href="video_dummy_8h.html#a11e7586605c4a249b06d4de1f5e7ec3d" target="_top" xlink:title="ar2VideoDispOptionDummy">
<polygon fill="white" stroke="black" points="153.5,-190.5 153.5,-209.5 291.5,-209.5 291.5,-190.5 153.5,-190.5"/>
<text text-anchor="middle" x="222.5" y="-197.5" font-family="Helvetica,sans-Serif" font-size="10.00">ar2VideoDispOptionDummy</text>
</a>
</g>
</g>
<!-- Node1&#45;&gt;Node2 -->
<g id="edge1" class="edge"><title>Node1&#45;&gt;Node2</title>
<path fill="none" stroke="midnightblue" d="M61.0515,-114.599C75.2538,-130.878 106.444,-163.806 140,-181 144.57,-183.342 149.432,-185.399 154.417,-187.206"/>
<polygon fill="midnightblue" stroke="midnightblue" points="153.521,-190.595 164.113,-190.38 155.699,-183.942 153.521,-190.595"/>
</g>
<!-- Node3 -->
<g id="node3" class="node"><title>Node3</title>
<g id="a_node3"><a xlink:href="video_v4_l2_8h.html#af01ac06853b5e46a3996d1365decacc6" target="_top" xlink:title="ar2VideoDispOptionV4L2">
<polygon fill="white" stroke="black" points="159.5,-152.5 159.5,-171.5 285.5,-171.5 285.5,-152.5 159.5,-152.5"/>
<text text-anchor="middle" x="222.5" y="-159.5" font-family="Helvetica,sans-Serif" font-size="10.00">ar2VideoDispOptionV4L2</text>
</a>
</g>
</g>
<!-- Node1&#45;&gt;Node3 -->
<g id="edge2" class="edge"><title>Node1&#45;&gt;Node3</title>
<path fill="none" stroke="midnightblue" d="M72.2945,-114.647C89.6648,-123.035 116.066,-135.057 140,-143 147.745,-145.57 156.014,-147.927 164.205,-150.041"/>
<polygon fill="midnightblue" stroke="midnightblue" points="163.568,-153.489 174.116,-152.496 165.251,-146.694 163.568,-153.489"/>
</g>
<!-- Node4 -->
<g id="node4" class="node"><title>Node4</title>
<g id="a_node4"><a xlink:href="video1394_8h.html#a10bdbd2bb6756d6c7cec3f72a1dfa629" target="_top" xlink:title="ar2VideoDispOption1394">
<polygon fill="white" stroke="black" points="160,-114.5 160,-133.5 285,-133.5 285,-114.5 160,-114.5"/>
<text text-anchor="middle" x="222.5" y="-121.5" font-family="Helvetica,sans-Serif" font-size="10.00">ar2VideoDispOption1394</text>
</a>
</g>
</g>
<!-- Node1&#45;&gt;Node4 -->
<g id="edge3" class="edge"><title>Node1&#45;&gt;Node4</title>
<path fill="none" stroke="midnightblue" d="M104.013,-110.752C118.474,-112.383 134.491,-114.189 149.928,-115.93"/>
<polygon fill="midnightblue" stroke="midnightblue" points="149.636,-119.419 159.965,-117.061 150.421,-112.463 149.636,-119.419"/>
</g>
<!-- Node5 -->
<g id="node5" class="node"><title>Node5</title>
<g id="a_node5"><a xlink:href="video_a_v_foundation_8h.html#a1d1d7348ab2eec3141d2975d6cda9a64" target="_top" xlink:title="ar2VideoDispOptionAVFoundation">
<polygon fill="white" stroke="black" points="140,-76.5 140,-95.5 305,-95.5 305,-76.5 140,-76.5"/>
<text text-anchor="middle" x="222.5" y="-83.5" font-family="Helvetica,sans-Serif" font-size="10.00">ar2VideoDispOptionAVFoundation</text>
</a>
</g>
</g>
<!-- Node1&#45;&gt;Node5 -->
<g id="edge4" class="edge"><title>Node1&#45;&gt;Node5</title>
<path fill="none" stroke="midnightblue" d="M104.013,-99.2478C112.247,-98.3193 120.986,-97.334 129.834,-96.3362"/>
<polygon fill="midnightblue" stroke="midnightblue" points="130.305,-99.8054 139.85,-95.2068 129.521,-92.8495 130.305,-99.8054"/>
</g>
<!-- Node6 -->
<g id="node6" class="node"><title>Node6</title>
<g id="a_node6"><a xlink:href="video_image_8h.html#ace2b7e6e160e3ba37f8d44d4fb0a92f3" target="_top" xlink:title="ar2VideoDispOptionImage">
<polygon fill="white" stroke="black" points="157,-38.5 157,-57.5 288,-57.5 288,-38.5 157,-38.5"/>
<text text-anchor="middle" x="222.5" y="-45.5" font-family="Helvetica,sans-Serif" font-size="10.00">ar2VideoDispOptionImage</text>
</a>
</g>
</g>
<!-- Node1&#45;&gt;Node6 -->
<g id="edge5" class="edge"><title>Node1&#45;&gt;Node6</title>
<path fill="none" stroke="midnightblue" d="M72.2945,-95.3529C89.6648,-86.9647 116.066,-74.9427 140,-67 147.745,-64.4299 156.014,-62.073 164.205,-59.9594"/>
<polygon fill="midnightblue" stroke="midnightblue" points="165.251,-63.306 174.116,-57.5041 163.568,-56.5114 165.251,-63.306"/>
</g>
<!-- Node7 -->
<g id="node7" class="node"><title>Node7</title>
<g id="a_node7"><a xlink:href="video_android_8h.html#aee237d19e57ff69c59e4b42a4338b116" target="_top" xlink:title="ar2VideoDispOptionAndroid">
<polygon fill="white" stroke="black" points="154,-0.5 154,-19.5 291,-19.5 291,-0.5 154,-0.5"/>
<text text-anchor="middle" x="222.5" y="-7.5" font-family="Helvetica,sans-Serif" font-size="10.00">ar2VideoDispOptionAndroid</text>
</a>
</g>
</g>
<!-- Node1&#45;&gt;Node7 -->
<g id="edge6" class="edge"><title>Node1&#45;&gt;Node7</title>
<path fill="none" stroke="midnightblue" d="M61.0515,-95.4013C75.2538,-79.1218 106.444,-46.1944 140,-29 144.57,-26.6583 149.432,-24.601 154.417,-22.7943"/>
<polygon fill="midnightblue" stroke="midnightblue" points="155.699,-26.0576 164.113,-19.6197 153.521,-19.405 155.699,-26.0576"/>
</g>
</g>
</svg>
