<?xml version="1.0" encoding="UTF-8" standalone="no"?>
<!DOCTYPE svg PUBLIC "-//W3C//DTD SVG 1.1//EN"
 "http://www.w3.org/Graphics/SVG/1.1/DTD/svg11.dtd">
<!-- Generated by graphviz version 2.38.0 (20140413.2041)
 -->
<!-- Title: /bitrise/src/Source/AR6/ARVideo/include/AR6/ARVideo/videoConfig.h Pages: 1 -->
<svg width="2793pt" height="418pt"
 viewBox="0.00 0.00 2793.23 418.00" xmlns="http://www.w3.org/2000/svg" xmlns:xlink="http://www.w3.org/1999/xlink">
<g id="graph0" class="graph" transform="scale(1 1) rotate(0) translate(4 414)">
<title>/bitrise/src/Source/AR6/ARVideo/include/AR6/ARVideo/videoConfig.h</title>
<polygon fill="white" stroke="none" points="-4,4 -4,-414 2789.23,-414 2789.23,4 -4,4"/>
<!-- Node1 -->
<g id="node1" class="node"><title>Node1</title>
<polygon fill="#bfbfbf" stroke="black" points="1192.73,-368.5 1192.73,-409.5 1336.73,-409.5 1336.73,-368.5 1192.73,-368.5"/>
<text text-anchor="start" x="1200.73" y="-397.5" font-family="Helvetica,sans-Serif" font-size="10.00">/bitrise/src/Source</text>
<text text-anchor="start" x="1200.73" y="-386.5" font-family="Helvetica,sans-Serif" font-size="10.00">/AR6/ARVideo/include</text>
<text text-anchor="middle" x="1264.73" y="-375.5" font-family="Helvetica,sans-Serif" font-size="10.00">/AR6/ARVideo/videoConfig.h</text>
</g>
<!-- Node2 -->
<g id="node2" class="node"><title>Node2</title>
<g id="a_node2"><a xlink:href="video_8h.html" target="_top" xlink:title="/bitrise/src/Source\l/AR6/ARVideo/include\l/AR6/ARVideo/video.h">
<polygon fill="white" stroke="black" points="1206.73,-290.5 1206.73,-331.5 1322.73,-331.5 1322.73,-290.5 1206.73,-290.5"/>
<text text-anchor="start" x="1214.73" y="-319.5" font-family="Helvetica,sans-Serif" font-size="10.00">/bitrise/src/Source</text>
<text text-anchor="start" x="1214.73" y="-308.5" font-family="Helvetica,sans-Serif" font-size="10.00">/AR6/ARVideo/include</text>
<text text-anchor="middle" x="1264.73" y="-297.5" font-family="Helvetica,sans-Serif" font-size="10.00">/AR6/ARVideo/video.h</text>
</a>
</g>
</g>
<!-- Node1&#45;&gt;Node2 -->
<g id="edge1" class="edge"><title>Node1&#45;&gt;Node2</title>
<path fill="none" stroke="midnightblue" d="M1264.73,-358.297C1264.73,-349.301 1264.73,-339.653 1264.73,-331.506"/>
<polygon fill="midnightblue" stroke="midnightblue" points="1261.24,-358.428 1264.73,-368.428 1268.24,-358.428 1261.24,-358.428"/>
</g>
<!-- Node3 -->
<g id="node3" class="node"><title>Node3</title>
<g id="a_node3"><a xlink:href="_a_r_tracker_square_8cpp.html" target="_top" xlink:title="/bitrise/src/Source\l/AR6/ARTrackerSquare.cpp">
<polygon fill="white" stroke="black" points="759.235,-0.5 759.235,-30.5 898.235,-30.5 898.235,-0.5 759.235,-0.5"/>
<text text-anchor="start" x="767.235" y="-18.5" font-family="Helvetica,sans-Serif" font-size="10.00">/bitrise/src/Source</text>
<text text-anchor="middle" x="828.735" y="-7.5" font-family="Helvetica,sans-Serif" font-size="10.00">/AR6/ARTrackerSquare.cpp</text>
</a>
</g>
</g>
<!-- Node2&#45;&gt;Node3 -->
<g id="edge2" class="edge"><title>Node2&#45;&gt;Node3</title>
<path fill="none" stroke="midnightblue" d="M1196.49,-309.457C944.653,-307.123 79.9188,-296.063 39.7349,-254 -172.965,-31.3545 529.826,-15.2113 758.956,-15.7133"/>
<polygon fill="midnightblue" stroke="midnightblue" points="1196.58,-312.958 1206.61,-309.549 1196.64,-305.958 1196.58,-312.958"/>
</g>
<!-- Node4 -->
<g id="node4" class="node"><title>Node4</title>
<g id="a_node4"><a xlink:href="video_android_8h.html" target="_top" xlink:title="/bitrise/src/Source\l/AR6/ARVideo/Android\l/videoAndroid.h">
<polygon fill="white" stroke="black" points="49.2349,-212.5 49.2349,-253.5 166.235,-253.5 166.235,-212.5 49.2349,-212.5"/>
<text text-anchor="start" x="57.2349" y="-241.5" font-family="Helvetica,sans-Serif" font-size="10.00">/bitrise/src/Source</text>
<text text-anchor="start" x="57.2349" y="-230.5" font-family="Helvetica,sans-Serif" font-size="10.00">/AR6/ARVideo/Android</text>
<text text-anchor="middle" x="107.735" y="-219.5" font-family="Helvetica,sans-Serif" font-size="10.00">/videoAndroid.h</text>
</a>
</g>
</g>
<!-- Node2&#45;&gt;Node4 -->
<g id="edge3" class="edge"><title>Node2&#45;&gt;Node4</title>
<path fill="none" stroke="midnightblue" d="M1196.59,-308.587C990.111,-303.975 373.484,-287.683 175.735,-254 172.702,-253.483 169.613,-252.877 166.508,-252.203"/>
<polygon fill="midnightblue" stroke="midnightblue" points="1196.62,-312.088 1206.69,-308.811 1196.77,-305.09 1196.62,-312.088"/>
</g>
<!-- Node6 -->
<g id="node6" class="node"><title>Node6</title>
<g id="a_node6"><a xlink:href="_camera_video_8m.html" target="_top" xlink:title="/bitrise/src/Source\l/AR6/ARVideo/AVFoundation\l/CameraVideo.m">
<polygon fill="white" stroke="black" points="184.735,-212.5 184.735,-253.5 330.735,-253.5 330.735,-212.5 184.735,-212.5"/>
<text text-anchor="start" x="192.735" y="-241.5" font-family="Helvetica,sans-Serif" font-size="10.00">/bitrise/src/Source</text>
<text text-anchor="start" x="192.735" y="-230.5" font-family="Helvetica,sans-Serif" font-size="10.00">/AR6/ARVideo/AVFoundation</text>
<text text-anchor="middle" x="257.735" y="-219.5" font-family="Helvetica,sans-Serif" font-size="10.00">/CameraVideo.m</text>
</a>
</g>
</g>
<!-- Node2&#45;&gt;Node6 -->
<g id="edge5" class="edge"><title>Node2&#45;&gt;Node6</title>
<path fill="none" stroke="midnightblue" d="M1196.49,-310.026C1042.68,-309.18 657.555,-301.985 339.735,-254 336.837,-253.562 333.892,-253.071 330.923,-252.537"/>
<polygon fill="midnightblue" stroke="midnightblue" points="1196.7,-313.527 1206.72,-310.075 1196.74,-306.528 1196.7,-313.527"/>
</g>
<!-- Node7 -->
<g id="node7" class="node"><title>Node7</title>
<g id="a_node7"><a xlink:href="_movie_video_8m.html" target="_top" xlink:title="/bitrise/src/Source\l/AR6/ARVideo/AVFoundation\l/MovieVideo.m">
<polygon fill="white" stroke="black" points="348.735,-212.5 348.735,-253.5 494.735,-253.5 494.735,-212.5 348.735,-212.5"/>
<text text-anchor="start" x="356.735" y="-241.5" font-family="Helvetica,sans-Serif" font-size="10.00">/bitrise/src/Source</text>
<text text-anchor="start" x="356.735" y="-230.5" font-family="Helvetica,sans-Serif" font-size="10.00">/AR6/ARVideo/AVFoundation</text>
<text text-anchor="middle" x="421.735" y="-219.5" font-family="Helvetica,sans-Serif" font-size="10.00">/MovieVideo.m</text>
</a>
</g>
</g>
<!-- Node2&#45;&gt;Node7 -->
<g id="edge6" class="edge"><title>Node2&#45;&gt;Node7</title>
<path fill="none" stroke="midnightblue" d="M1196.51,-308.764C1062.79,-305.508 757.215,-293.956 503.735,-254 500.84,-253.544 497.897,-253.037 494.931,-252.489"/>
<polygon fill="midnightblue" stroke="midnightblue" points="1196.52,-312.265 1206.6,-309.002 1196.69,-305.267 1196.52,-312.265"/>
</g>
<!-- Node8 -->
<g id="node8" class="node"><title>Node8</title>
<g id="a_node8"><a xlink:href="video_a_v_foundation_8m.html" target="_top" xlink:title="/bitrise/src/Source\l/AR6/ARVideo/AVFoundation\l/videoAVFoundation.m">
<polygon fill="white" stroke="black" points="512.735,-212.5 512.735,-253.5 658.735,-253.5 658.735,-212.5 512.735,-212.5"/>
<text text-anchor="start" x="520.735" y="-241.5" font-family="Helvetica,sans-Serif" font-size="10.00">/bitrise/src/Source</text>
<text text-anchor="start" x="520.735" y="-230.5" font-family="Helvetica,sans-Serif" font-size="10.00">/AR6/ARVideo/AVFoundation</text>
<text text-anchor="middle" x="585.735" y="-219.5" font-family="Helvetica,sans-Serif" font-size="10.00">/videoAVFoundation.m</text>
</a>
</g>
</g>
<!-- Node2&#45;&gt;Node8 -->
<g id="edge7" class="edge"><title>Node2&#45;&gt;Node8</title>
<path fill="none" stroke="midnightblue" d="M1196.23,-306.825C1084.8,-300.933 857.637,-285.891 667.735,-254 664.845,-253.515 661.906,-252.983 658.943,-252.415"/>
<polygon fill="midnightblue" stroke="midnightblue" points="1196.15,-310.325 1206.32,-307.35 1196.51,-303.335 1196.15,-310.325"/>
</g>
<!-- Node9 -->
<g id="node9" class="node"><title>Node9</title>
<g id="a_node9"><a xlink:href="cparam_search_8h.html" target="_top" xlink:title="/bitrise/src/Source\l/AR6/ARVideo/cparamSearch.h">
<polygon fill="white" stroke="black" points="677.235,-218 677.235,-248 832.235,-248 832.235,-218 677.235,-218"/>
<text text-anchor="start" x="685.235" y="-236" font-family="Helvetica,sans-Serif" font-size="10.00">/bitrise/src/Source</text>
<text text-anchor="middle" x="754.735" y="-225" font-family="Helvetica,sans-Serif" font-size="10.00">/AR6/ARVideo/cparamSearch.h</text>
</a>
</g>
</g>
<!-- Node2&#45;&gt;Node9 -->
<g id="edge8" class="edge"><title>Node2&#45;&gt;Node9</title>
<path fill="none" stroke="midnightblue" d="M1196.49,-302.971C1112.62,-293.871 966.122,-276.479 841.735,-254 832.127,-252.264 821.979,-250.171 812.138,-248.002"/>
<polygon fill="midnightblue" stroke="midnightblue" points="1196.33,-306.474 1206.65,-304.066 1197.08,-299.514 1196.33,-306.474"/>
</g>
<!-- Node11 -->
<g id="node11" class="node"><title>Node11</title>
<g id="a_node11"><a xlink:href="video_dummy_8h.html" target="_top" xlink:title="/bitrise/src/Source\l/AR6/ARVideo/Dummy/videoDummy.h">
<polygon fill="white" stroke="black" points="850.735,-218 850.735,-248 1038.73,-248 1038.73,-218 850.735,-218"/>
<text text-anchor="start" x="858.735" y="-236" font-family="Helvetica,sans-Serif" font-size="10.00">/bitrise/src/Source</text>
<text text-anchor="middle" x="944.735" y="-225" font-family="Helvetica,sans-Serif" font-size="10.00">/AR6/ARVideo/Dummy/videoDummy.h</text>
</a>
</g>
</g>
<!-- Node2&#45;&gt;Node11 -->
<g id="edge10" class="edge"><title>Node2&#45;&gt;Node11</title>
<path fill="none" stroke="midnightblue" d="M1196.37,-293.762C1139.1,-280.161 1058.21,-260.95 1003.74,-248.013"/>
<polygon fill="midnightblue" stroke="midnightblue" points="1195.88,-297.243 1206.41,-296.149 1197.49,-290.433 1195.88,-297.243"/>
</g>
<!-- Node13 -->
<g id="node13" class="node"><title>Node13</title>
<g id="a_node13"><a xlink:href="video_image_8c.html" target="_top" xlink:title="/bitrise/src/Source\l/AR6/ARVideo/Image/videoImage.c">
<polygon fill="white" stroke="black" points="1018.23,-140 1018.23,-170 1191.23,-170 1191.23,-140 1018.23,-140"/>
<text text-anchor="start" x="1026.23" y="-158" font-family="Helvetica,sans-Serif" font-size="10.00">/bitrise/src/Source</text>
<text text-anchor="middle" x="1104.73" y="-147" font-family="Helvetica,sans-Serif" font-size="10.00">/AR6/ARVideo/Image/videoImage.c</text>
</a>
</g>
</g>
<!-- Node2&#45;&gt;Node13 -->
<g id="edge12" class="edge"><title>Node2&#45;&gt;Node13</title>
<path fill="none" stroke="midnightblue" d="M1196.28,-307.545C1157.14,-302.19 1110.96,-288.322 1085.73,-254 1067.26,-228.863 1084.16,-190.625 1095.82,-170.137"/>
<polygon fill="midnightblue" stroke="midnightblue" points="1196.24,-311.065 1206.58,-308.786 1197.07,-304.115 1196.24,-311.065"/>
</g>
<!-- Node14 -->
<g id="node14" class="node"><title>Node14</title>
<g id="a_node14"><a xlink:href="video_image_8h.html" target="_top" xlink:title="/bitrise/src/Source\l/AR6/ARVideo/Image/videoImage.h">
<polygon fill="white" stroke="black" points="1095.23,-218 1095.23,-248 1268.23,-248 1268.23,-218 1095.23,-218"/>
<text text-anchor="start" x="1103.23" y="-236" font-family="Helvetica,sans-Serif" font-size="10.00">/bitrise/src/Source</text>
<text text-anchor="middle" x="1181.73" y="-225" font-family="Helvetica,sans-Serif" font-size="10.00">/AR6/ARVideo/Image/videoImage.h</text>
</a>
</g>
</g>
<!-- Node2&#45;&gt;Node14 -->
<g id="edge13" class="edge"><title>Node2&#45;&gt;Node14</title>
<path fill="none" stroke="midnightblue" d="M1235.97,-283.658C1222.97,-271.761 1208.14,-258.176 1197.27,-248.225"/>
<polygon fill="midnightblue" stroke="midnightblue" points="1233.62,-286.256 1243.36,-290.428 1238.35,-281.094 1233.62,-286.256"/>
</g>
<!-- Node15 -->
<g id="node15" class="node"><title>Node15</title>
<g id="a_node15"><a xlink:href="video1394_8h.html" target="_top" xlink:title="/bitrise/src/Source\l/AR6/ARVideo/libdc1394\l/video1394.h">
<polygon fill="white" stroke="black" points="1286.23,-212.5 1286.23,-253.5 1411.23,-253.5 1411.23,-212.5 1286.23,-212.5"/>
<text text-anchor="start" x="1294.23" y="-241.5" font-family="Helvetica,sans-Serif" font-size="10.00">/bitrise/src/Source</text>
<text text-anchor="start" x="1294.23" y="-230.5" font-family="Helvetica,sans-Serif" font-size="10.00">/AR6/ARVideo/libdc1394</text>
<text text-anchor="middle" x="1348.73" y="-219.5" font-family="Helvetica,sans-Serif" font-size="10.00">/video1394.h</text>
</a>
</g>
</g>
<!-- Node2&#45;&gt;Node15 -->
<g id="edge15" class="edge"><title>Node2&#45;&gt;Node15</title>
<path fill="none" stroke="midnightblue" d="M1294.03,-283.492C1304.93,-273.629 1317.09,-262.627 1327.18,-253.506"/>
<polygon fill="midnightblue" stroke="midnightblue" points="1291.43,-281.124 1286.37,-290.428 1296.13,-286.314 1291.43,-281.124"/>
</g>
<!-- Node19 -->
<g id="node19" class="node"><title>Node19</title>
<g id="a_node19"><a xlink:href="video1394_format_8c.html" target="_top" xlink:title="/bitrise/src/Source\l/AR6/ARVideo/libdc1394\l/video1394Format.c">
<polygon fill="white" stroke="black" points="1429.23,-212.5 1429.23,-253.5 1554.23,-253.5 1554.23,-212.5 1429.23,-212.5"/>
<text text-anchor="start" x="1437.23" y="-241.5" font-family="Helvetica,sans-Serif" font-size="10.00">/bitrise/src/Source</text>
<text text-anchor="start" x="1437.23" y="-230.5" font-family="Helvetica,sans-Serif" font-size="10.00">/AR6/ARVideo/libdc1394</text>
<text text-anchor="middle" x="1491.73" y="-219.5" font-family="Helvetica,sans-Serif" font-size="10.00">/video1394Format.c</text>
</a>
</g>
</g>
<!-- Node2&#45;&gt;Node19 -->
<g id="edge19" class="edge"><title>Node2&#45;&gt;Node19</title>
<path fill="none" stroke="midnightblue" d="M1332.65,-287.263C1364.7,-276.531 1402.58,-263.85 1433.33,-253.555"/>
<polygon fill="midnightblue" stroke="midnightblue" points="1331.27,-284.033 1322.9,-290.527 1333.49,-290.671 1331.27,-284.033"/>
</g>
<!-- Node20 -->
<g id="node20" class="node"><title>Node20</title>
<g id="a_node20"><a xlink:href="nxjson_8h.html" target="_top" xlink:title="/bitrise/src/Source\l/AR6/ARVideo/nxjson.h">
<polygon fill="white" stroke="black" points="1572.23,-218 1572.23,-248 1693.23,-248 1693.23,-218 1572.23,-218"/>
<text text-anchor="start" x="1580.23" y="-236" font-family="Helvetica,sans-Serif" font-size="10.00">/bitrise/src/Source</text>
<text text-anchor="middle" x="1632.73" y="-225" font-family="Helvetica,sans-Serif" font-size="10.00">/AR6/ARVideo/nxjson.h</text>
</a>
</g>
</g>
<!-- Node2&#45;&gt;Node20 -->
<g id="edge20" class="edge"><title>Node2&#45;&gt;Node20</title>
<path fill="none" stroke="midnightblue" d="M1332.97,-299.027C1393.61,-288.835 1484.52,-272.48 1562.73,-254 1570.24,-252.227 1578.14,-250.164 1585.82,-248.049"/>
<polygon fill="midnightblue" stroke="midnightblue" points="1332.04,-295.633 1322.75,-300.733 1333.19,-302.537 1332.04,-295.633"/>
</g>
<!-- Node22 -->
<g id="node22" class="node"><title>Node22</title>
<g id="a_node22"><a xlink:href="video_8c.html" target="_top" xlink:title="/bitrise/src/Source\l/AR6/ARVideo/video.c">
<polygon fill="white" stroke="black" points="1711.73,-218 1711.73,-248 1827.73,-248 1827.73,-218 1711.73,-218"/>
<text text-anchor="start" x="1719.73" y="-236" font-family="Helvetica,sans-Serif" font-size="10.00">/bitrise/src/Source</text>
<text text-anchor="middle" x="1769.73" y="-225" font-family="Helvetica,sans-Serif" font-size="10.00">/AR6/ARVideo/video.c</text>
</a>
</g>
</g>
<!-- Node2&#45;&gt;Node22 -->
<g id="edge22" class="edge"><title>Node2&#45;&gt;Node22</title>
<path fill="none" stroke="midnightblue" d="M1333.05,-304.625C1419.53,-297.049 1572.79,-281.046 1701.73,-254 1709.56,-252.358 1717.8,-250.26 1725.73,-248.045"/>
<polygon fill="midnightblue" stroke="midnightblue" points="1332.5,-301.159 1322.84,-305.507 1333.1,-308.133 1332.5,-301.159"/>
</g>
<!-- Node23 -->
<g id="node23" class="node"><title>Node23</title>
<g id="a_node23"><a xlink:href="video2_8c.html" target="_top" xlink:title="/bitrise/src/Source\l/AR6/ARVideo/video2.c">
<polygon fill="white" stroke="black" points="1846.23,-218 1846.23,-248 1967.23,-248 1967.23,-218 1846.23,-218"/>
<text text-anchor="start" x="1854.23" y="-236" font-family="Helvetica,sans-Serif" font-size="10.00">/bitrise/src/Source</text>
<text text-anchor="middle" x="1906.73" y="-225" font-family="Helvetica,sans-Serif" font-size="10.00">/AR6/ARVideo/video2.c</text>
</a>
</g>
</g>
<!-- Node2&#45;&gt;Node23 -->
<g id="edge23" class="edge"><title>Node2&#45;&gt;Node23</title>
<path fill="none" stroke="midnightblue" d="M1332.96,-307.308C1440.78,-302.161 1656.79,-288.225 1836.73,-254 1845.05,-252.418 1853.81,-250.294 1862.21,-248.02"/>
<polygon fill="midnightblue" stroke="midnightblue" points="1332.7,-303.816 1322.87,-307.779 1333.02,-310.808 1332.7,-303.816"/>
</g>
<!-- Node24 -->
<g id="node24" class="node"><title>Node24</title>
<g id="a_node24"><a xlink:href="video_v4_l2_8h.html" target="_top" xlink:title="/bitrise/src/Source\l/AR6/ARVideo/Video4Linux2\l/videoV4L2.h">
<polygon fill="white" stroke="black" points="1985.23,-212.5 1985.23,-253.5 2128.23,-253.5 2128.23,-212.5 1985.23,-212.5"/>
<text text-anchor="start" x="1993.23" y="-241.5" font-family="Helvetica,sans-Serif" font-size="10.00">/bitrise/src/Source</text>
<text text-anchor="start" x="1993.23" y="-230.5" font-family="Helvetica,sans-Serif" font-size="10.00">/AR6/ARVideo/Video4Linux2</text>
<text text-anchor="middle" x="2056.73" y="-219.5" font-family="Helvetica,sans-Serif" font-size="10.00">/videoV4L2.h</text>
</a>
</g>
</g>
<!-- Node2&#45;&gt;Node24 -->
<g id="edge24" class="edge"><title>Node2&#45;&gt;Node24</title>
<path fill="none" stroke="midnightblue" d="M1333.18,-308.325C1460.46,-304.388 1741.88,-291.82 1975.73,-254 1978.74,-253.514 1981.79,-252.974 1984.87,-252.391"/>
<polygon fill="midnightblue" stroke="midnightblue" points="1333.07,-304.826 1323.18,-308.626 1333.28,-311.823 1333.07,-304.826"/>
</g>
<!-- Node26 -->
<g id="node26" class="node"><title>Node26</title>
<g id="a_node26"><a xlink:href="video_aspect_ratio_8c.html" target="_top" xlink:title="/bitrise/src/Source\l/AR6/ARVideo/videoAspectRatio.c">
<polygon fill="white" stroke="black" points="2146.73,-218 2146.73,-248 2316.73,-248 2316.73,-218 2146.73,-218"/>
<text text-anchor="start" x="2154.73" y="-236" font-family="Helvetica,sans-Serif" font-size="10.00">/bitrise/src/Source</text>
<text text-anchor="middle" x="2231.73" y="-225" font-family="Helvetica,sans-Serif" font-size="10.00">/AR6/ARVideo/videoAspectRatio.c</text>
</a>
</g>
</g>
<!-- Node2&#45;&gt;Node26 -->
<g id="edge26" class="edge"><title>Node2&#45;&gt;Node26</title>
<path fill="none" stroke="midnightblue" d="M1333.18,-308.936C1480.7,-305.913 1839.32,-294.643 2136.73,-254 2148.09,-252.448 2160.12,-250.31 2171.66,-248.006"/>
<polygon fill="midnightblue" stroke="midnightblue" points="1332.86,-305.442 1322.93,-309.14 1333,-312.44 1332.86,-305.442"/>
</g>
<!-- Node27 -->
<g id="node27" class="node"><title>Node27</title>
<g id="a_node27"><a xlink:href="video_save_image_8c.html" target="_top" xlink:title="/bitrise/src/Source\l/AR6/ARVideo/videoSaveImage.c">
<polygon fill="white" stroke="black" points="2335.23,-218 2335.23,-248 2500.23,-248 2500.23,-218 2335.23,-218"/>
<text text-anchor="start" x="2343.23" y="-236" font-family="Helvetica,sans-Serif" font-size="10.00">/bitrise/src/Source</text>
<text text-anchor="middle" x="2417.73" y="-225" font-family="Helvetica,sans-Serif" font-size="10.00">/AR6/ARVideo/videoSaveImage.c</text>
</a>
</g>
</g>
<!-- Node2&#45;&gt;Node27 -->
<g id="edge27" class="edge"><title>Node2&#45;&gt;Node27</title>
<path fill="none" stroke="midnightblue" d="M1333.08,-310.2C1502.2,-309.87 1953.49,-303.952 2325.73,-254 2336.91,-252.5 2348.75,-250.356 2360.08,-248.023"/>
<polygon fill="midnightblue" stroke="midnightblue" points="1332.83,-306.7 1322.83,-310.214 1332.84,-313.7 1332.83,-306.7"/>
</g>
<!-- Node28 -->
<g id="node28" class="node"><title>Node28</title>
<g id="a_node28"><a xlink:href="_a_r_video_source_8h.html" target="_top" xlink:title="/bitrise/src/Source\l/AR6/include/AR6/ARVideoSource.h">
<polygon fill="white" stroke="black" points="2518.73,-218 2518.73,-248 2694.73,-248 2694.73,-218 2518.73,-218"/>
<text text-anchor="start" x="2526.73" y="-236" font-family="Helvetica,sans-Serif" font-size="10.00">/bitrise/src/Source</text>
<text text-anchor="middle" x="2606.73" y="-225" font-family="Helvetica,sans-Serif" font-size="10.00">/AR6/include/AR6/ARVideoSource.h</text>
</a>
</g>
</g>
<!-- Node2&#45;&gt;Node28 -->
<g id="edge28" class="edge"><title>Node2&#45;&gt;Node28</title>
<path fill="none" stroke="midnightblue" d="M1333.07,-310.713C1521.41,-311.862 2063.59,-309.672 2509.73,-254 2521.59,-252.52 2534.16,-250.37 2546.18,-248.022"/>
<polygon fill="midnightblue" stroke="midnightblue" points="1333.06,-307.213 1323.03,-310.646 1333.01,-314.212 1333.06,-307.213"/>
</g>
<!-- Node5 -->
<g id="node5" class="node"><title>Node5</title>
<g id="a_node5"><a xlink:href="video_android_8c.html" target="_top" xlink:title="/bitrise/src/Source\l/AR6/ARVideo/Android\l/videoAndroid.c">
<polygon fill="white" stroke="black" points="49.2349,-134.5 49.2349,-175.5 166.235,-175.5 166.235,-134.5 49.2349,-134.5"/>
<text text-anchor="start" x="57.2349" y="-163.5" font-family="Helvetica,sans-Serif" font-size="10.00">/bitrise/src/Source</text>
<text text-anchor="start" x="57.2349" y="-152.5" font-family="Helvetica,sans-Serif" font-size="10.00">/AR6/ARVideo/Android</text>
<text text-anchor="middle" x="107.735" y="-141.5" font-family="Helvetica,sans-Serif" font-size="10.00">/videoAndroid.c</text>
</a>
</g>
</g>
<!-- Node4&#45;&gt;Node5 -->
<g id="edge4" class="edge"><title>Node4&#45;&gt;Node5</title>
<path fill="none" stroke="midnightblue" d="M107.735,-202.297C107.735,-193.301 107.735,-183.653 107.735,-175.506"/>
<polygon fill="midnightblue" stroke="midnightblue" points="104.235,-202.428 107.735,-212.428 111.235,-202.428 104.235,-202.428"/>
</g>
<!-- Node10 -->
<g id="node10" class="node"><title>Node10</title>
<g id="a_node10"><a xlink:href="cparam_search_8c.html" target="_top" xlink:title="/bitrise/src/Source\l/AR6/ARVideo/cparamSearch.c">
<polygon fill="white" stroke="black" points="638.235,-140 638.235,-170 793.235,-170 793.235,-140 638.235,-140"/>
<text text-anchor="start" x="646.235" y="-158" font-family="Helvetica,sans-Serif" font-size="10.00">/bitrise/src/Source</text>
<text text-anchor="middle" x="715.735" y="-147" font-family="Helvetica,sans-Serif" font-size="10.00">/AR6/ARVideo/cparamSearch.c</text>
</a>
</g>
</g>
<!-- Node9&#45;&gt;Node10 -->
<g id="edge9" class="edge"><title>Node9&#45;&gt;Node10</title>
<path fill="none" stroke="midnightblue" d="M742.781,-208.705C736.334,-196.141 728.585,-181.042 723.038,-170.231"/>
<polygon fill="midnightblue" stroke="midnightblue" points="739.72,-210.406 747.399,-217.705 745.948,-207.21 739.72,-210.406"/>
</g>
<!-- Node12 -->
<g id="node12" class="node"><title>Node12</title>
<g id="a_node12"><a xlink:href="video_dummy_8c.html" target="_top" xlink:title="/bitrise/src/Source\l/AR6/ARVideo/Dummy/videoDummy.c">
<polygon fill="white" stroke="black" points="811.735,-140 811.735,-170 999.735,-170 999.735,-140 811.735,-140"/>
<text text-anchor="start" x="819.735" y="-158" font-family="Helvetica,sans-Serif" font-size="10.00">/bitrise/src/Source</text>
<text text-anchor="middle" x="905.735" y="-147" font-family="Helvetica,sans-Serif" font-size="10.00">/AR6/ARVideo/Dummy/videoDummy.c</text>
</a>
</g>
</g>
<!-- Node11&#45;&gt;Node12 -->
<g id="edge11" class="edge"><title>Node11&#45;&gt;Node12</title>
<path fill="none" stroke="midnightblue" d="M932.781,-208.705C926.334,-196.141 918.585,-181.042 913.038,-170.231"/>
<polygon fill="midnightblue" stroke="midnightblue" points="929.72,-210.406 937.399,-217.705 935.948,-207.21 929.72,-210.406"/>
</g>
<!-- Node14&#45;&gt;Node13 -->
<g id="edge14" class="edge"><title>Node14&#45;&gt;Node13</title>
<path fill="none" stroke="midnightblue" d="M1159.99,-210.533C1146.91,-197.632 1130.64,-181.572 1119.15,-170.231"/>
<polygon fill="midnightblue" stroke="midnightblue" points="1157.68,-213.171 1167.25,-217.705 1162.59,-208.189 1157.68,-213.171"/>
</g>
<!-- Node16 -->
<g id="node16" class="node"><title>Node16</title>
<g id="a_node16"><a xlink:href="video1394_8c.html" target="_top" xlink:title="/bitrise/src/Source\l/AR6/ARVideo/libdc1394\l/video1394.c">
<polygon fill="white" stroke="black" points="1495.23,-134.5 1495.23,-175.5 1620.23,-175.5 1620.23,-134.5 1495.23,-134.5"/>
<text text-anchor="start" x="1503.23" y="-163.5" font-family="Helvetica,sans-Serif" font-size="10.00">/bitrise/src/Source</text>
<text text-anchor="start" x="1503.23" y="-152.5" font-family="Helvetica,sans-Serif" font-size="10.00">/AR6/ARVideo/libdc1394</text>
<text text-anchor="middle" x="1557.73" y="-141.5" font-family="Helvetica,sans-Serif" font-size="10.00">/video1394.c</text>
</a>
</g>
</g>
<!-- Node15&#45;&gt;Node16 -->
<g id="edge16" class="edge"><title>Node15&#45;&gt;Node16</title>
<path fill="none" stroke="midnightblue" d="M1412.29,-208.887C1441.63,-198.219 1476.09,-185.69 1504.09,-175.506"/>
<polygon fill="midnightblue" stroke="midnightblue" points="1410.76,-205.721 1402.56,-212.428 1413.15,-212.3 1410.76,-205.721"/>
</g>
<!-- Node17 -->
<g id="node17" class="node"><title>Node17</title>
<g id="a_node17"><a xlink:href="video1394_private_8h.html" target="_top" xlink:title="/bitrise/src/Source\l/AR6/ARVideo/libdc1394\l/video1394Private.h">
<polygon fill="white" stroke="black" points="1209.23,-134.5 1209.23,-175.5 1334.23,-175.5 1334.23,-134.5 1209.23,-134.5"/>
<text text-anchor="start" x="1217.23" y="-163.5" font-family="Helvetica,sans-Serif" font-size="10.00">/bitrise/src/Source</text>
<text text-anchor="start" x="1217.23" y="-152.5" font-family="Helvetica,sans-Serif" font-size="10.00">/AR6/ARVideo/libdc1394</text>
<text text-anchor="middle" x="1271.73" y="-141.5" font-family="Helvetica,sans-Serif" font-size="10.00">/video1394Private.h</text>
</a>
</g>
</g>
<!-- Node15&#45;&gt;Node17 -->
<g id="edge17" class="edge"><title>Node15&#45;&gt;Node17</title>
<path fill="none" stroke="midnightblue" d="M1321.59,-205.204C1311.67,-195.416 1300.65,-184.539 1291.5,-175.506"/>
<polygon fill="midnightblue" stroke="midnightblue" points="1319.33,-207.894 1328.91,-212.428 1324.25,-202.912 1319.33,-207.894"/>
</g>
<!-- Node18 -->
<g id="node18" class="node"><title>Node18</title>
<g id="a_node18"><a xlink:href="video1394_setting_8c.html" target="_top" xlink:title="/bitrise/src/Source\l/AR6/ARVideo/libdc1394\l/video1394Setting.c">
<polygon fill="white" stroke="black" points="1352.23,-134.5 1352.23,-175.5 1477.23,-175.5 1477.23,-134.5 1352.23,-134.5"/>
<text text-anchor="start" x="1360.23" y="-163.5" font-family="Helvetica,sans-Serif" font-size="10.00">/bitrise/src/Source</text>
<text text-anchor="start" x="1360.23" y="-152.5" font-family="Helvetica,sans-Serif" font-size="10.00">/AR6/ARVideo/libdc1394</text>
<text text-anchor="middle" x="1414.73" y="-141.5" font-family="Helvetica,sans-Serif" font-size="10.00">/video1394Setting.c</text>
</a>
</g>
</g>
<!-- Node15&#45;&gt;Node18 -->
<g id="edge18" class="edge"><title>Node15&#45;&gt;Node18</title>
<path fill="none" stroke="midnightblue" d="M1372.51,-204.627C1380.88,-194.99 1390.11,-184.362 1397.8,-175.506"/>
<polygon fill="midnightblue" stroke="midnightblue" points="1369.65,-202.583 1365.73,-212.428 1374.93,-207.173 1369.65,-202.583"/>
</g>
<!-- Node21 -->
<g id="node21" class="node"><title>Node21</title>
<g id="a_node21"><a xlink:href="nxjson_8c.html" target="_top" xlink:title="/bitrise/src/Source\l/AR6/ARVideo/nxjson.c">
<polygon fill="white" stroke="black" points="1638.23,-140 1638.23,-170 1759.23,-170 1759.23,-140 1638.23,-140"/>
<text text-anchor="start" x="1646.23" y="-158" font-family="Helvetica,sans-Serif" font-size="10.00">/bitrise/src/Source</text>
<text text-anchor="middle" x="1698.73" y="-147" font-family="Helvetica,sans-Serif" font-size="10.00">/AR6/ARVideo/nxjson.c</text>
</a>
</g>
</g>
<!-- Node20&#45;&gt;Node21 -->
<g id="edge21" class="edge"><title>Node20&#45;&gt;Node21</title>
<path fill="none" stroke="midnightblue" d="M1652.01,-209.807C1663.1,-197.033 1676.71,-181.36 1686.38,-170.231"/>
<polygon fill="midnightblue" stroke="midnightblue" points="1649.06,-207.86 1645.15,-217.705 1654.35,-212.45 1649.06,-207.86"/>
</g>
<!-- Node25 -->
<g id="node25" class="node"><title>Node25</title>
<g id="a_node25"><a xlink:href="video_v4_l2_8c.html" target="_top" xlink:title="/bitrise/src/Source\l/AR6/ARVideo/Video4Linux2\l/videoV4L2.c">
<polygon fill="white" stroke="black" points="1985.23,-134.5 1985.23,-175.5 2128.23,-175.5 2128.23,-134.5 1985.23,-134.5"/>
<text text-anchor="start" x="1993.23" y="-163.5" font-family="Helvetica,sans-Serif" font-size="10.00">/bitrise/src/Source</text>
<text text-anchor="start" x="1993.23" y="-152.5" font-family="Helvetica,sans-Serif" font-size="10.00">/AR6/ARVideo/Video4Linux2</text>
<text text-anchor="middle" x="2056.73" y="-141.5" font-family="Helvetica,sans-Serif" font-size="10.00">/videoV4L2.c</text>
</a>
</g>
</g>
<!-- Node24&#45;&gt;Node25 -->
<g id="edge25" class="edge"><title>Node24&#45;&gt;Node25</title>
<path fill="none" stroke="midnightblue" d="M2056.73,-202.297C2056.73,-193.301 2056.73,-183.653 2056.73,-175.506"/>
<polygon fill="midnightblue" stroke="midnightblue" points="2053.24,-202.428 2056.73,-212.428 2060.24,-202.428 2053.24,-202.428"/>
</g>
<!-- Node29 -->
<g id="node29" class="node"><title>Node29</title>
<g id="a_node29"><a xlink:href="_a_r_video_source_8cpp.html" target="_top" xlink:title="/bitrise/src/Source\l/AR6/ARVideoSource.cpp">
<polygon fill="white" stroke="black" points="2654.23,-0.5 2654.23,-30.5 2785.23,-30.5 2785.23,-0.5 2654.23,-0.5"/>
<text text-anchor="start" x="2662.23" y="-18.5" font-family="Helvetica,sans-Serif" font-size="10.00">/bitrise/src/Source</text>
<text text-anchor="middle" x="2719.73" y="-7.5" font-family="Helvetica,sans-Serif" font-size="10.00">/AR6/ARVideoSource.cpp</text>
</a>
</g>
</g>
<!-- Node28&#45;&gt;Node29 -->
<g id="edge29" class="edge"><title>Node28&#45;&gt;Node29</title>
<path fill="none" stroke="midnightblue" d="M2618.84,-208.917C2642.27,-164.236 2693.19,-67.1275 2712.29,-30.6916"/>
<polygon fill="midnightblue" stroke="midnightblue" points="2615.69,-207.379 2614.15,-217.86 2621.89,-210.63 2615.69,-207.379"/>
</g>
<!-- Node30 -->
<g id="node30" class="node"><title>Node30</title>
<g id="a_node30"><a xlink:href="_a_r_controller_8h.html" target="_top" xlink:title="/bitrise/src/Source\l/AR6/include/AR6/ARController.h">
<polygon fill="white" stroke="black" points="2203.23,-67.5 2203.23,-97.5 2366.23,-97.5 2366.23,-67.5 2203.23,-67.5"/>
<text text-anchor="start" x="2211.23" y="-85.5" font-family="Helvetica,sans-Serif" font-size="10.00">/bitrise/src/Source</text>
<text text-anchor="middle" x="2284.73" y="-74.5" font-family="Helvetica,sans-Serif" font-size="10.00">/AR6/include/AR6/ARController.h</text>
</a>
</g>
</g>
<!-- Node28&#45;&gt;Node30 -->
<g id="edge30" class="edge"><title>Node28&#45;&gt;Node30</title>
<path fill="none" stroke="midnightblue" d="M2549.15,-214.857C2517.98,-204.865 2479.14,-191.244 2445.73,-176 2393.68,-152.245 2336.41,-116.963 2306.18,-97.5579"/>
<polygon fill="midnightblue" stroke="midnightblue" points="2548.39,-218.288 2558.98,-217.971 2550.5,-211.614 2548.39,-218.288"/>
</g>
<!-- Node37 -->
<g id="node37" class="node"><title>Node37</title>
<g id="a_node37"><a xlink:href="_a_r_view_8h.html" target="_top" xlink:title="/bitrise/src/Source\l/AR6/include/AR6/ARView.h">
<polygon fill="white" stroke="black" points="2454.23,-140 2454.23,-170 2597.23,-170 2597.23,-140 2454.23,-140"/>
<text text-anchor="start" x="2462.23" y="-158" font-family="Helvetica,sans-Serif" font-size="10.00">/bitrise/src/Source</text>
<text text-anchor="middle" x="2525.73" y="-147" font-family="Helvetica,sans-Serif" font-size="10.00">/AR6/include/AR6/ARView.h</text>
</a>
</g>
</g>
<!-- Node28&#45;&gt;Node37 -->
<g id="edge39" class="edge"><title>Node28&#45;&gt;Node37</title>
<path fill="none" stroke="midnightblue" d="M2583.86,-210.533C2570.11,-197.632 2552.99,-181.572 2540.9,-170.231"/>
<polygon fill="midnightblue" stroke="midnightblue" points="2581.81,-213.415 2591.5,-217.705 2586.6,-208.31 2581.81,-213.415"/>
</g>
<!-- Node30&#45;&gt;Node3 -->
<g id="edge37" class="edge"><title>Node30&#45;&gt;Node3</title>
<path fill="none" stroke="midnightblue" d="M2192.92,-77.4013C1923.16,-65.358 1136.94,-30.2594 898.255,-19.6036"/>
<polygon fill="midnightblue" stroke="midnightblue" points="2192.93,-80.9048 2203.07,-77.8543 2193.24,-73.9117 2192.93,-80.9048"/>
</g>
<!-- Node30&#45;&gt;Node29 -->
<g id="edge38" class="edge"><title>Node30&#45;&gt;Node29</title>
<path fill="none" stroke="midnightblue" d="M2376.48,-69.9576C2449.35,-60.4702 2553.77,-46.1636 2644.73,-31 2647.74,-30.4985 2650.82,-29.97 2653.92,-29.4235"/>
<polygon fill="midnightblue" stroke="midnightblue" points="2375.88,-66.5062 2366.42,-71.2639 2376.78,-73.448 2375.88,-66.5062"/>
</g>
<!-- Node31 -->
<g id="node31" class="node"><title>Node31</title>
<g id="a_node31"><a xlink:href="_a_r6__c_8cpp.html" target="_top" xlink:title="/bitrise/src/Source\l/AR6/AR6_c.cpp">
<polygon fill="white" stroke="black" points="2539.73,-0.5 2539.73,-30.5 2635.73,-30.5 2635.73,-0.5 2539.73,-0.5"/>
<text text-anchor="start" x="2547.73" y="-18.5" font-family="Helvetica,sans-Serif" font-size="10.00">/bitrise/src/Source</text>
<text text-anchor="middle" x="2587.73" y="-7.5" font-family="Helvetica,sans-Serif" font-size="10.00">/AR6/AR6_c.cpp</text>
</a>
</g>
</g>
<!-- Node30&#45;&gt;Node31 -->
<g id="edge31" class="edge"><title>Node30&#45;&gt;Node31</title>
<path fill="none" stroke="midnightblue" d="M2367.58,-65.4943C2415.39,-56.0073 2476.58,-43.4385 2530.73,-31 2533.62,-30.3371 2536.58,-29.6383 2539.57,-28.9202"/>
<polygon fill="midnightblue" stroke="midnightblue" points="2366.72,-62.0967 2357.59,-67.4708 2368.07,-68.9637 2366.72,-62.0967"/>
</g>
<!-- Node32 -->
<g id="node32" class="node"><title>Node32</title>
<g id="a_node32"><a xlink:href="_a_r_controller_8cpp.html" target="_top" xlink:title="/bitrise/src/Source\l/AR6/ARController.cpp">
<polygon fill="white" stroke="black" points="1724.23,-0.5 1724.23,-30.5 1841.23,-30.5 1841.23,-0.5 1724.23,-0.5"/>
<text text-anchor="start" x="1732.23" y="-18.5" font-family="Helvetica,sans-Serif" font-size="10.00">/bitrise/src/Source</text>
<text text-anchor="middle" x="1782.73" y="-7.5" font-family="Helvetica,sans-Serif" font-size="10.00">/AR6/ARController.cpp</text>
</a>
</g>
</g>
<!-- Node30&#45;&gt;Node32 -->
<g id="edge32" class="edge"><title>Node30&#45;&gt;Node32</title>
<path fill="none" stroke="midnightblue" d="M2193.27,-73.384C2105.19,-64.9739 1968.39,-50.3457 1850.73,-31 1847.64,-30.4908 1844.47,-29.9355 1841.27,-29.3486"/>
<polygon fill="midnightblue" stroke="midnightblue" points="2192.94,-76.8689 2203.23,-74.3286 2193.6,-69.9001 2192.94,-76.8689"/>
</g>
<!-- Node33 -->
<g id="node33" class="node"><title>Node33</title>
<g id="a_node33"><a xlink:href="_a_r_trackable_8cpp.html" target="_top" xlink:title="/bitrise/src/Source\l/AR6/ARTrackable.cpp">
<polygon fill="white" stroke="black" points="1859.73,-0.5 1859.73,-30.5 1977.73,-30.5 1977.73,-0.5 1859.73,-0.5"/>
<text text-anchor="start" x="1867.73" y="-18.5" font-family="Helvetica,sans-Serif" font-size="10.00">/bitrise/src/Source</text>
<text text-anchor="middle" x="1918.73" y="-7.5" font-family="Helvetica,sans-Serif" font-size="10.00">/AR6/ARTrackable.cpp</text>
</a>
</g>
</g>
<!-- Node30&#45;&gt;Node33 -->
<g id="edge33" class="edge"><title>Node30&#45;&gt;Node33</title>
<path fill="none" stroke="midnightblue" d="M2192.94,-66.9726C2133.93,-57.3792 2055.68,-44.1855 1986.73,-31 1983.89,-30.4558 1980.98,-29.8862 1978.04,-29.3007"/>
<polygon fill="midnightblue" stroke="midnightblue" points="2192.56,-70.4554 2202.99,-68.6008 2193.68,-63.5456 2192.56,-70.4554"/>
</g>
<!-- Node34 -->
<g id="node34" class="node"><title>Node34</title>
<g id="a_node34"><a xlink:href="_a_r_trackable_appearance_8cpp.html" target="_top" xlink:title="/bitrise/src/Source\l/AR6/ARTrackableAppearance.cpp">
<polygon fill="white" stroke="black" points="1995.73,-0.5 1995.73,-30.5 2165.73,-30.5 2165.73,-0.5 1995.73,-0.5"/>
<text text-anchor="start" x="2003.73" y="-18.5" font-family="Helvetica,sans-Serif" font-size="10.00">/bitrise/src/Source</text>
<text text-anchor="middle" x="2080.73" y="-7.5" font-family="Helvetica,sans-Serif" font-size="10.00">/AR6/ARTrackableAppearance.cpp</text>
</a>
</g>
</g>
<!-- Node30&#45;&gt;Node34 -->
<g id="edge34" class="edge"><title>Node30&#45;&gt;Node34</title>
<path fill="none" stroke="midnightblue" d="M2230.78,-64.3084C2197.78,-53.7932 2156.08,-40.5068 2125.02,-30.6109"/>
<polygon fill="midnightblue" stroke="midnightblue" points="2230.13,-67.7748 2240.72,-67.476 2232.26,-61.1052 2230.13,-67.7748"/>
</g>
<!-- Node35 -->
<g id="node35" class="node"><title>Node35</title>
<g id="a_node35"><a xlink:href="_a_r_trackable_multi_square_8cpp.html" target="_top" xlink:title="/bitrise/src/Source\l/AR6/ARTrackableMultiSquare.cpp">
<polygon fill="white" stroke="black" points="2183.73,-0.5 2183.73,-30.5 2353.73,-30.5 2353.73,-0.5 2183.73,-0.5"/>
<text text-anchor="start" x="2191.73" y="-18.5" font-family="Helvetica,sans-Serif" font-size="10.00">/bitrise/src/Source</text>
<text text-anchor="middle" x="2268.73" y="-7.5" font-family="Helvetica,sans-Serif" font-size="10.00">/AR6/ARTrackableMultiSquare.cpp</text>
</a>
</g>
</g>
<!-- Node30&#45;&gt;Node35 -->
<g id="edge35" class="edge"><title>Node30&#45;&gt;Node35</title>
<path fill="none" stroke="midnightblue" d="M2278.8,-57.4029C2276.58,-48.3703 2274.13,-38.4078 2272.2,-30.5765"/>
<polygon fill="midnightblue" stroke="midnightblue" points="2275.47,-58.5224 2281.26,-67.396 2282.27,-56.8492 2275.47,-58.5224"/>
</g>
<!-- Node36 -->
<g id="node36" class="node"><title>Node36</title>
<g id="a_node36"><a xlink:href="_a_r_trackable_square_8cpp.html" target="_top" xlink:title="/bitrise/src/Source\l/AR6/ARTrackableSquare.cpp">
<polygon fill="white" stroke="black" points="2372.23,-0.5 2372.23,-30.5 2521.23,-30.5 2521.23,-0.5 2372.23,-0.5"/>
<text text-anchor="start" x="2380.23" y="-18.5" font-family="Helvetica,sans-Serif" font-size="10.00">/bitrise/src/Source</text>
<text text-anchor="middle" x="2446.73" y="-7.5" font-family="Helvetica,sans-Serif" font-size="10.00">/AR6/ARTrackableSquare.cpp</text>
</a>
</g>
</g>
<!-- Node30&#45;&gt;Node36 -->
<g id="edge36" class="edge"><title>Node30&#45;&gt;Node36</title>
<path fill="none" stroke="midnightblue" d="M2329.49,-63.5442C2355.41,-53.143 2387.57,-40.238 2411.65,-30.5765"/>
<polygon fill="midnightblue" stroke="midnightblue" points="2327.86,-60.4238 2319.89,-67.396 2330.47,-66.9204 2327.86,-60.4238"/>
</g>
<!-- Node37&#45;&gt;Node30 -->
<g id="edge41" class="edge"><title>Node37&#45;&gt;Node30</title>
<path fill="none" stroke="midnightblue" d="M2468.19,-137.165C2426.91,-125.091 2371.93,-109.008 2332.96,-97.6069"/>
<polygon fill="midnightblue" stroke="midnightblue" points="2467.25,-140.539 2477.83,-139.987 2469.22,-133.82 2467.25,-140.539"/>
</g>
<!-- Node38 -->
<g id="node38" class="node"><title>Node38</title>
<g id="a_node38"><a xlink:href="_a_r_view_8cpp.html" target="_top" xlink:title="/bitrise/src/Source\l/AR6/ARView.cpp">
<polygon fill="white" stroke="black" points="2477.23,-67.5 2477.23,-97.5 2574.23,-97.5 2574.23,-67.5 2477.23,-67.5"/>
<text text-anchor="start" x="2485.23" y="-85.5" font-family="Helvetica,sans-Serif" font-size="10.00">/bitrise/src/Source</text>
<text text-anchor="middle" x="2525.73" y="-74.5" font-family="Helvetica,sans-Serif" font-size="10.00">/AR6/ARView.cpp</text>
</a>
</g>
</g>
<!-- Node37&#45;&gt;Node38 -->
<g id="edge40" class="edge"><title>Node37&#45;&gt;Node38</title>
<path fill="none" stroke="midnightblue" d="M2525.73,-129.732C2525.73,-119.068 2525.73,-106.914 2525.73,-97.7455"/>
<polygon fill="midnightblue" stroke="midnightblue" points="2522.24,-129.733 2525.73,-139.733 2529.24,-129.733 2522.24,-129.733"/>
</g>
</g>
</svg>
