<?xml version="1.0" encoding="UTF-8" standalone="no"?>
<!DOCTYPE svg PUBLIC "-//W3C//DTD SVG 1.1//EN"
 "http://www.w3.org/Graphics/SVG/1.1/DTD/svg11.dtd">
<!-- Generated by graphviz version 2.38.0 (20140413.2041)
 -->
<!-- Title: ar2VideoSetParams Pages: 1 -->
<svg width="313pt" height="180pt"
 viewBox="0.00 0.00 313.00 180.00" xmlns="http://www.w3.org/2000/svg" xmlns:xlink="http://www.w3.org/1999/xlink">
<g id="graph0" class="graph" transform="scale(1 1) rotate(0) translate(4 176)">
<title>ar2VideoSetParams</title>
<polygon fill="white" stroke="none" points="-4,4 -4,-176 309,-176 309,4 -4,4"/>
<!-- Node1 -->
<g id="node1" class="node"><title>Node1</title>
<polygon fill="#bfbfbf" stroke="black" points="0,-76.5 0,-95.5 104,-95.5 104,-76.5 0,-76.5"/>
<text text-anchor="middle" x="52" y="-83.5" font-family="Helvetica,sans-Serif" font-size="10.00">ar2VideoSetParams</text>
</g>
<!-- Node2 -->
<g id="node2" class="node"><title>Node2</title>
<g id="a_node2"><a xlink:href="video_dummy_8h.html#a9023282d018a19153e61f6938e327892" target="_top" xlink:title="ar2VideoSetParamsDummy">
<polygon fill="white" stroke="black" points="153.5,-152.5 153.5,-171.5 291.5,-171.5 291.5,-152.5 153.5,-152.5"/>
<text text-anchor="middle" x="222.5" y="-159.5" font-family="Helvetica,sans-Serif" font-size="10.00">ar2VideoSetParamsDummy</text>
</a>
</g>
</g>
<!-- Node1&#45;&gt;Node2 -->
<g id="edge1" class="edge"><title>Node1&#45;&gt;Node2</title>
<path fill="none" stroke="midnightblue" d="M64.6189,-95.5557C80.6191,-108.241 110.784,-130.492 140,-143 145.873,-145.514 152.132,-147.725 158.472,-149.663"/>
<polygon fill="midnightblue" stroke="midnightblue" points="157.883,-153.134 168.458,-152.488 159.788,-146.398 157.883,-153.134"/>
</g>
<!-- Node3 -->
<g id="node3" class="node"><title>Node3</title>
<g id="a_node3"><a xlink:href="video_v4_l2_8h.html#a954bd26073d1a5bd5fa8aff4cc115131" target="_top" xlink:title="ar2VideoSetParamsV4L2">
<polygon fill="white" stroke="black" points="159.5,-114.5 159.5,-133.5 285.5,-133.5 285.5,-114.5 159.5,-114.5"/>
<text text-anchor="middle" x="222.5" y="-121.5" font-family="Helvetica,sans-Serif" font-size="10.00">ar2VideoSetParamsV4L2</text>
</a>
</g>
</g>
<!-- Node1&#45;&gt;Node3 -->
<g id="edge2" class="edge"><title>Node1&#45;&gt;Node3</title>
<path fill="none" stroke="midnightblue" d="M95.5197,-95.589C117.955,-100.649 145.673,-106.9 169.393,-112.249"/>
<polygon fill="midnightblue" stroke="midnightblue" points="168.761,-115.694 179.286,-114.48 170.301,-108.866 168.761,-115.694"/>
</g>
<!-- Node4 -->
<g id="node4" class="node"><title>Node4</title>
<g id="a_node4"><a xlink:href="video_a_v_foundation_8h.html#a692903bc81ee776eaa7a77d9a6ff12b7" target="_top" xlink:title="ar2VideoSetParamsAVFoundation">
<polygon fill="white" stroke="black" points="140,-76.5 140,-95.5 305,-95.5 305,-76.5 140,-76.5"/>
<text text-anchor="middle" x="222.5" y="-83.5" font-family="Helvetica,sans-Serif" font-size="10.00">ar2VideoSetParamsAVFoundation</text>
</a>
</g>
</g>
<!-- Node1&#45;&gt;Node4 -->
<g id="edge3" class="edge"><title>Node1&#45;&gt;Node4</title>
<path fill="none" stroke="midnightblue" d="M104.013,-86C112.247,-86 120.986,-86 129.834,-86"/>
<polygon fill="midnightblue" stroke="midnightblue" points="129.85,-89.5001 139.85,-86 129.85,-82.5001 129.85,-89.5001"/>
</g>
<!-- Node5 -->
<g id="node5" class="node"><title>Node5</title>
<g id="a_node5"><a xlink:href="video_image_8h.html#abcb66fb87bce1f4ca09093c9f7b80b9c" target="_top" xlink:title="ar2VideoSetParamsImage">
<polygon fill="white" stroke="black" points="157,-38.5 157,-57.5 288,-57.5 288,-38.5 157,-38.5"/>
<text text-anchor="middle" x="222.5" y="-45.5" font-family="Helvetica,sans-Serif" font-size="10.00">ar2VideoSetParamsImage</text>
</a>
</g>
</g>
<!-- Node1&#45;&gt;Node5 -->
<g id="edge4" class="edge"><title>Node1&#45;&gt;Node5</title>
<path fill="none" stroke="midnightblue" d="M95.5197,-76.411C117.955,-71.3513 145.673,-65.1004 169.393,-59.7512"/>
<polygon fill="midnightblue" stroke="midnightblue" points="170.301,-63.1343 179.286,-57.5201 168.761,-56.3058 170.301,-63.1343"/>
</g>
<!-- Node6 -->
<g id="node6" class="node"><title>Node6</title>
<g id="a_node6"><a xlink:href="video_android_8h.html#a467dcac8693612f23dde69f051ebc4aa" target="_top" xlink:title="ar2VideoSetParamsAndroid">
<polygon fill="white" stroke="black" points="154,-0.5 154,-19.5 291,-19.5 291,-0.5 154,-0.5"/>
<text text-anchor="middle" x="222.5" y="-7.5" font-family="Helvetica,sans-Serif" font-size="10.00">ar2VideoSetParamsAndroid</text>
</a>
</g>
</g>
<!-- Node1&#45;&gt;Node6 -->
<g id="edge5" class="edge"><title>Node1&#45;&gt;Node6</title>
<path fill="none" stroke="midnightblue" d="M64.6189,-76.4443C80.6191,-63.759 110.784,-41.5082 140,-29 145.873,-26.4858 152.132,-24.2747 158.472,-22.3369"/>
<polygon fill="midnightblue" stroke="midnightblue" points="159.788,-25.602 168.458,-19.5122 157.883,-18.8663 159.788,-25.602"/>
</g>
</g>
</svg>
