<?xml version="1.0" encoding="UTF-8" standalone="no"?>
<!DOCTYPE svg PUBLIC "-//W3C//DTD SVG 1.1//EN"
 "http://www.w3.org/Graphics/SVG/1.1/DTD/svg11.dtd">
<!-- Generated by graphviz version 2.38.0 (20140413.2041)
 -->
<!-- Title: arVideoGetPixelSize Pages: 1 -->
<svg width="643pt" height="218pt"
 viewBox="0.00 0.00 643.00 218.00" xmlns="http://www.w3.org/2000/svg" xmlns:xlink="http://www.w3.org/1999/xlink">
<g id="graph0" class="graph" transform="scale(1 1) rotate(0) translate(4 214)">
<title>arVideoGetPixelSize</title>
<polygon fill="white" stroke="none" points="-4,4 -4,-214 639,-214 639,4 -4,4"/>
<!-- Node1 -->
<g id="node1" class="node"><title>Node1</title>
<polygon fill="#bfbfbf" stroke="black" points="0,-114.5 0,-133.5 107,-133.5 107,-114.5 0,-114.5"/>
<text text-anchor="middle" x="53.5" y="-121.5" font-family="Helvetica,sans-Serif" font-size="10.00">arVideoGetPixelSize</text>
</g>
<!-- Node2 -->
<g id="node2" class="node"><title>Node2</title>
<g id="a_node2"><a xlink:href="video_8h.html#a18322787dd88e9cf2f795cb9f863b905" target="_top" xlink:title="ar2VideoGetPixelSize">
<polygon fill="white" stroke="black" points="143,-114.5 143,-133.5 255,-133.5 255,-114.5 143,-114.5"/>
<text text-anchor="middle" x="199" y="-121.5" font-family="Helvetica,sans-Serif" font-size="10.00">ar2VideoGetPixelSize</text>
</a>
</g>
</g>
<!-- Node1&#45;&gt;Node2 -->
<g id="edge1" class="edge"><title>Node1&#45;&gt;Node2</title>
<path fill="none" stroke="midnightblue" d="M107.119,-124C115.513,-124 124.284,-124 132.925,-124"/>
<polygon fill="midnightblue" stroke="midnightblue" points="132.978,-127.5 142.978,-124 132.978,-120.5 132.978,-127.5"/>
</g>
<!-- Node3 -->
<g id="node3" class="node"><title>Node3</title>
<g id="a_node3"><a xlink:href="video_8h.html#afd0b5eb33f2fbeb9f261ad9b4a5a2061" target="_top" xlink:title="arVideoUtilGetPixelSize">
<polygon fill="white" stroke="black" points="291.5,-133.5 291.5,-152.5 413.5,-152.5 413.5,-133.5 291.5,-133.5"/>
<text text-anchor="middle" x="352.5" y="-140.5" font-family="Helvetica,sans-Serif" font-size="10.00">arVideoUtilGetPixelSize</text>
</a>
</g>
</g>
<!-- Node2&#45;&gt;Node3 -->
<g id="edge2" class="edge"><title>Node2&#45;&gt;Node3</title>
<path fill="none" stroke="midnightblue" d="M255.124,-130.913C263.576,-131.973 272.4,-133.08 281.127,-134.174"/>
<polygon fill="midnightblue" stroke="midnightblue" points="280.943,-137.679 291.301,-135.45 281.814,-130.733 280.943,-137.679"/>
</g>
<!-- Node4 -->
<g id="node4" class="node"><title>Node4</title>
<g id="a_node4"><a xlink:href="video2_8c.html#a7780fac88f8c59974d8d9fe6d4a8047a" target="_top" xlink:title="ar2VideoGetPixelFormat">
<polygon fill="white" stroke="black" points="291,-95.5 291,-114.5 414,-114.5 414,-95.5 291,-95.5"/>
<text text-anchor="middle" x="352.5" y="-102.5" font-family="Helvetica,sans-Serif" font-size="10.00">ar2VideoGetPixelFormat</text>
</a>
</g>
</g>
<!-- Node2&#45;&gt;Node4 -->
<g id="edge3" class="edge"><title>Node2&#45;&gt;Node4</title>
<path fill="none" stroke="midnightblue" d="M255.124,-117.087C263.454,-116.042 272.146,-114.952 280.75,-113.873"/>
<polygon fill="midnightblue" stroke="midnightblue" points="281.299,-117.332 290.785,-112.614 280.427,-110.386 281.299,-117.332"/>
</g>
<!-- Node5 -->
<g id="node5" class="node"><title>Node5</title>
<g id="a_node5"><a xlink:href="video_dummy_8h.html#aef5bd63c5abf5e4479664647c084644b" target="_top" xlink:title="ar2VideoGetPixelFormatDummy">
<polygon fill="white" stroke="black" points="463.5,-190.5 463.5,-209.5 621.5,-209.5 621.5,-190.5 463.5,-190.5"/>
<text text-anchor="middle" x="542.5" y="-197.5" font-family="Helvetica,sans-Serif" font-size="10.00">ar2VideoGetPixelFormatDummy</text>
</a>
</g>
</g>
<!-- Node4&#45;&gt;Node5 -->
<g id="edge4" class="edge"><title>Node4&#45;&gt;Node5</title>
<path fill="none" stroke="midnightblue" d="M397.009,-114.527C403.067,-117.001 408.94,-120.106 414,-124 437.746,-142.273 425.374,-163.931 450,-181 452.734,-182.895 455.616,-184.608 458.606,-186.156"/>
<polygon fill="midnightblue" stroke="midnightblue" points="457.302,-189.408 467.857,-190.324 460.178,-183.026 457.302,-189.408"/>
</g>
<!-- Node6 -->
<g id="node6" class="node"><title>Node6</title>
<g id="a_node6"><a xlink:href="video_v4_l2_8h.html#aab61669af9d839aa23ecd79d1c4bde5a" target="_top" xlink:title="ar2VideoGetPixelFormatV4L2">
<polygon fill="white" stroke="black" points="469.5,-152.5 469.5,-171.5 615.5,-171.5 615.5,-152.5 469.5,-152.5"/>
<text text-anchor="middle" x="542.5" y="-159.5" font-family="Helvetica,sans-Serif" font-size="10.00">ar2VideoGetPixelFormatV4L2</text>
</a>
</g>
</g>
<!-- Node4&#45;&gt;Node6 -->
<g id="edge5" class="edge"><title>Node4&#45;&gt;Node6</title>
<path fill="none" stroke="midnightblue" d="M387.806,-114.587C396.466,-117.329 405.667,-120.526 414,-124 430.699,-130.961 432.975,-136.878 450,-143 457.489,-145.693 465.468,-148.052 473.474,-150.105"/>
<polygon fill="midnightblue" stroke="midnightblue" points="472.679,-153.514 483.221,-152.46 474.323,-146.709 472.679,-153.514"/>
</g>
<!-- Node7 -->
<g id="node7" class="node"><title>Node7</title>
<g id="a_node7"><a xlink:href="video1394_8h.html#a1eb40205f18baab9d12c0bc187e9b50e" target="_top" xlink:title="ar2VideoGetPixelFormat1394">
<polygon fill="white" stroke="black" points="470.5,-114.5 470.5,-133.5 614.5,-133.5 614.5,-114.5 470.5,-114.5"/>
<text text-anchor="middle" x="542.5" y="-121.5" font-family="Helvetica,sans-Serif" font-size="10.00">ar2VideoGetPixelFormat1394</text>
</a>
</g>
</g>
<!-- Node4&#45;&gt;Node7 -->
<g id="edge6" class="edge"><title>Node4&#45;&gt;Node7</title>
<path fill="none" stroke="midnightblue" d="M414.019,-111.116C428.724,-112.602 444.686,-114.216 460.18,-115.782"/>
<polygon fill="midnightblue" stroke="midnightblue" points="459.975,-119.279 470.277,-116.802 460.679,-112.314 459.975,-119.279"/>
</g>
<!-- Node8 -->
<g id="node8" class="node"><title>Node8</title>
<g id="a_node8"><a xlink:href="video_a_v_foundation_8h.html#a98d99736ba21ff6f85c9da3e0e2acab8" target="_top" xlink:title="ar2VideoGetPixelFormatAVFoundation">
<polygon fill="white" stroke="black" points="450,-76.5 450,-95.5 635,-95.5 635,-76.5 450,-76.5"/>
<text text-anchor="middle" x="542.5" y="-83.5" font-family="Helvetica,sans-Serif" font-size="10.00">ar2VideoGetPixelFormatAVFoundation</text>
</a>
</g>
</g>
<!-- Node4&#45;&gt;Node8 -->
<g id="edge7" class="edge"><title>Node4&#45;&gt;Node8</title>
<path fill="none" stroke="midnightblue" d="M414.019,-98.8837C422.364,-98.0403 431.114,-97.156 439.953,-96.2627"/>
<polygon fill="midnightblue" stroke="midnightblue" points="440.357,-99.7398 449.955,-95.2519 439.653,-92.7753 440.357,-99.7398"/>
</g>
<!-- Node9 -->
<g id="node9" class="node"><title>Node9</title>
<g id="a_node9"><a xlink:href="video_image_8h.html#a4e14913d6bea4a02cd3d17ddd95e2544" target="_top" xlink:title="ar2VideoGetPixelFormatImage">
<polygon fill="white" stroke="black" points="467.5,-38.5 467.5,-57.5 617.5,-57.5 617.5,-38.5 467.5,-38.5"/>
<text text-anchor="middle" x="542.5" y="-45.5" font-family="Helvetica,sans-Serif" font-size="10.00">ar2VideoGetPixelFormatImage</text>
</a>
</g>
</g>
<!-- Node4&#45;&gt;Node9 -->
<g id="edge8" class="edge"><title>Node4&#45;&gt;Node9</title>
<path fill="none" stroke="midnightblue" d="M374.596,-95.4849C393.905,-87.0685 423.429,-74.9274 450,-67 459,-64.3148 468.609,-61.8724 478.091,-59.7004"/>
<polygon fill="midnightblue" stroke="midnightblue" points="478.885,-63.1095 487.895,-57.5359 477.376,-56.2741 478.885,-63.1095"/>
</g>
<!-- Node10 -->
<g id="node10" class="node"><title>Node10</title>
<g id="a_node10"><a xlink:href="video_android_8h.html#ac511ed131837c08ea6f17725dd87d2bc" target="_top" xlink:title="ar2VideoGetPixelFormatAndroid">
<polygon fill="white" stroke="black" points="464.5,-0.5 464.5,-19.5 620.5,-19.5 620.5,-0.5 464.5,-0.5"/>
<text text-anchor="middle" x="542.5" y="-7.5" font-family="Helvetica,sans-Serif" font-size="10.00">ar2VideoGetPixelFormatAndroid</text>
</a>
</g>
</g>
<!-- Node4&#45;&gt;Node10 -->
<g id="edge9" class="edge"><title>Node4&#45;&gt;Node10</title>
<path fill="none" stroke="midnightblue" d="M362.616,-95.3451C378.65,-78.9807 413.658,-45.9288 450,-29 455.37,-26.4984 461.07,-24.3239 466.897,-22.4341"/>
<polygon fill="midnightblue" stroke="midnightblue" points="468.185,-25.703 476.785,-19.5149 466.203,-18.9895 468.185,-25.703"/>
</g>
</g>
</svg>
