<?xml version="1.0" encoding="UTF-8" standalone="no"?>
<!DOCTYPE svg PUBLIC "-//W3C//DTD SVG 1.1//EN"
 "http://www.w3.org/Graphics/SVG/1.1/DTD/svg11.dtd">
<!-- Generated by graphviz version 2.38.0 (20140413.2041)
 -->
<!-- Title: ar2VideoSetBufferSize Pages: 1 -->
<svg width="337pt" height="104pt"
 viewBox="0.00 0.00 337.00 104.00" xmlns="http://www.w3.org/2000/svg" xmlns:xlink="http://www.w3.org/1999/xlink">
<g id="graph0" class="graph" transform="scale(1 1) rotate(0) translate(4 100)">
<title>ar2VideoSetBufferSize</title>
<polygon fill="white" stroke="none" points="-4,4 -4,-100 333,-100 333,4 -4,4"/>
<!-- Node1 -->
<g id="node1" class="node"><title>Node1</title>
<polygon fill="#bfbfbf" stroke="black" points="0,-38.5 0,-57.5 116,-57.5 116,-38.5 0,-38.5"/>
<text text-anchor="middle" x="58" y="-45.5" font-family="Helvetica,sans-Serif" font-size="10.00">ar2VideoSetBufferSize</text>
</g>
<!-- Node2 -->
<g id="node2" class="node"><title>Node2</title>
<g id="a_node2"><a xlink:href="video_dummy_8h.html#a66a963881236aceb48c465bcc8d6db29" target="_top" xlink:title="ar2VideoSetBufferSizeDummy">
<polygon fill="white" stroke="black" points="165.5,-76.5 165.5,-95.5 315.5,-95.5 315.5,-76.5 165.5,-76.5"/>
<text text-anchor="middle" x="240.5" y="-83.5" font-family="Helvetica,sans-Serif" font-size="10.00">ar2VideoSetBufferSizeDummy</text>
</a>
</g>
</g>
<!-- Node1&#45;&gt;Node2 -->
<g id="edge1" class="edge"><title>Node1&#45;&gt;Node2</title>
<path fill="none" stroke="midnightblue" d="M104.548,-57.589C128.796,-62.6939 158.804,-69.0113 184.361,-74.3918"/>
<polygon fill="midnightblue" stroke="midnightblue" points="183.773,-77.8447 194.28,-76.4799 185.215,-70.9948 183.773,-77.8447"/>
</g>
<!-- Node3 -->
<g id="node3" class="node"><title>Node3</title>
<g id="a_node3"><a xlink:href="video_a_v_foundation_8h.html#a0f8863cc17bf63401e511e86dd40e2e1" target="_top" xlink:title="ar2VideoSetBufferSizeAVFoundation">
<polygon fill="white" stroke="black" points="152,-38.5 152,-57.5 329,-57.5 329,-38.5 152,-38.5"/>
<text text-anchor="middle" x="240.5" y="-45.5" font-family="Helvetica,sans-Serif" font-size="10.00">ar2VideoSetBufferSizeAVFoundation</text>
</a>
</g>
</g>
<!-- Node1&#45;&gt;Node3 -->
<g id="edge2" class="edge"><title>Node1&#45;&gt;Node3</title>
<path fill="none" stroke="midnightblue" d="M116.111,-48C124.277,-48 132.863,-48 141.545,-48"/>
<polygon fill="midnightblue" stroke="midnightblue" points="141.762,-51.5001 151.762,-48 141.762,-44.5001 141.762,-51.5001"/>
</g>
<!-- Node4 -->
<g id="node4" class="node"><title>Node4</title>
<g id="a_node4"><a xlink:href="video_image_8h.html#a0002a65050de3abc821343f6b23762cf" target="_top" xlink:title="ar2VideoSetBufferSizeImage">
<polygon fill="white" stroke="black" points="169,-0.5 169,-19.5 312,-19.5 312,-0.5 169,-0.5"/>
<text text-anchor="middle" x="240.5" y="-7.5" font-family="Helvetica,sans-Serif" font-size="10.00">ar2VideoSetBufferSizeImage</text>
</a>
</g>
</g>
<!-- Node1&#45;&gt;Node4 -->
<g id="edge3" class="edge"><title>Node1&#45;&gt;Node4</title>
<path fill="none" stroke="midnightblue" d="M104.548,-38.411C128.796,-33.3061 158.804,-26.9887 184.361,-21.6082"/>
<polygon fill="midnightblue" stroke="midnightblue" points="185.215,-25.0052 194.28,-19.5201 183.773,-18.1553 185.215,-25.0052"/>
</g>
</g>
</svg>
