<?xml version="1.0" encoding="UTF-8" standalone="no"?>
<!DOCTYPE svg PUBLIC "-//W3C//DTD SVG 1.1//EN"
 "http://www.w3.org/Graphics/SVG/1.1/DTD/svg11.dtd">
<!-- Generated by graphviz version 2.38.0 (20140413.2041)
 -->
<!-- Title: ar2VideoGetId Pages: 1 -->
<svg width="263pt" height="218pt"
 viewBox="0.00 0.00 263.00 218.00" xmlns="http://www.w3.org/2000/svg" xmlns:xlink="http://www.w3.org/1999/xlink">
<g id="graph0" class="graph" transform="scale(1 1) rotate(0) translate(4 214)">
<title>ar2VideoGetId</title>
<polygon fill="white" stroke="none" points="-4,4 -4,-214 259,-214 259,4 -4,4"/>
<!-- Node1 -->
<g id="node1" class="node"><title>Node1</title>
<polygon fill="#bfbfbf" stroke="black" points="0,-95.5 0,-114.5 79,-114.5 79,-95.5 0,-95.5"/>
<text text-anchor="middle" x="39.5" y="-102.5" font-family="Helvetica,sans-Serif" font-size="10.00">ar2VideoGetId</text>
</g>
<!-- Node2 -->
<g id="node2" class="node"><title>Node2</title>
<g id="a_node2"><a xlink:href="video_dummy_8h.html#aaaf92371dabde356f4b94ee904c2dd27" target="_top" xlink:title="ar2VideoGetIdDummy">
<polygon fill="white" stroke="black" points="128.5,-190.5 128.5,-209.5 241.5,-209.5 241.5,-190.5 128.5,-190.5"/>
<text text-anchor="middle" x="185" y="-197.5" font-family="Helvetica,sans-Serif" font-size="10.00">ar2VideoGetIdDummy</text>
</a>
</g>
</g>
<!-- Node1&#45;&gt;Node2 -->
<g id="edge1" class="edge"><title>Node1&#45;&gt;Node2</title>
<path fill="none" stroke="midnightblue" d="M47.1407,-114.508C58.9189,-130.652 85.0654,-163.379 115,-181 118.674,-183.163 122.603,-185.087 126.652,-186.798"/>
<polygon fill="midnightblue" stroke="midnightblue" points="125.663,-190.166 136.255,-190.415 128.131,-183.615 125.663,-190.166"/>
</g>
<!-- Node3 -->
<g id="node3" class="node"><title>Node3</title>
<g id="a_node3"><a xlink:href="video_v4_l2_8h.html#aa0300878156f7b7dc55b3b9cad712e7d" target="_top" xlink:title="ar2VideoGetIdV4L2">
<polygon fill="white" stroke="black" points="134.5,-152.5 134.5,-171.5 235.5,-171.5 235.5,-152.5 134.5,-152.5"/>
<text text-anchor="middle" x="185" y="-159.5" font-family="Helvetica,sans-Serif" font-size="10.00">ar2VideoGetIdV4L2</text>
</a>
</g>
</g>
<!-- Node1&#45;&gt;Node3 -->
<g id="edge2" class="edge"><title>Node1&#45;&gt;Node3</title>
<path fill="none" stroke="midnightblue" d="M56.9181,-114.601C71.7242,-122.959 94.2902,-134.963 115,-143 121.005,-145.33 127.408,-147.496 133.801,-149.469"/>
<polygon fill="midnightblue" stroke="midnightblue" points="133.199,-152.94 143.781,-152.404 135.175,-146.224 133.199,-152.94"/>
</g>
<!-- Node4 -->
<g id="node4" class="node"><title>Node4</title>
<g id="a_node4"><a xlink:href="video1394_8h.html#a49be9f08bebe12a234f3e178020239eb" target="_top" xlink:title="ar2VideoGetId1394">
<polygon fill="white" stroke="black" points="135,-114.5 135,-133.5 235,-133.5 235,-114.5 135,-114.5"/>
<text text-anchor="middle" x="185" y="-121.5" font-family="Helvetica,sans-Serif" font-size="10.00">ar2VideoGetId1394</text>
</a>
</g>
</g>
<!-- Node1&#45;&gt;Node4 -->
<g id="edge3" class="edge"><title>Node1&#45;&gt;Node4</title>
<path fill="none" stroke="midnightblue" d="M79.3332,-110.142C93.3596,-111.999 109.529,-114.14 124.898,-116.175"/>
<polygon fill="midnightblue" stroke="midnightblue" points="124.479,-119.65 134.852,-117.493 125.398,-112.71 124.479,-119.65"/>
</g>
<!-- Node5 -->
<g id="node5" class="node"><title>Node5</title>
<g id="a_node5"><a xlink:href="video_a_v_foundation_8h.html#ab45dcfb9cb7fe8702cdd4652659007c2" target="_top" xlink:title="ar2VideoGetIdAVFoundation">
<polygon fill="white" stroke="black" points="115,-76.5 115,-95.5 255,-95.5 255,-76.5 115,-76.5"/>
<text text-anchor="middle" x="185" y="-83.5" font-family="Helvetica,sans-Serif" font-size="10.00">ar2VideoGetIdAVFoundation</text>
</a>
</g>
</g>
<!-- Node1&#45;&gt;Node5 -->
<g id="edge4" class="edge"><title>Node1&#45;&gt;Node5</title>
<path fill="none" stroke="midnightblue" d="M79.3332,-99.8583C87.3541,-98.7963 96.0757,-97.6415 104.948,-96.4668"/>
<polygon fill="midnightblue" stroke="midnightblue" points="105.545,-99.9184 114.999,-95.136 104.626,-92.9789 105.545,-99.9184"/>
</g>
<!-- Node6 -->
<g id="node6" class="node"><title>Node6</title>
<g id="a_node6"><a xlink:href="video_image_8h.html#abb5852bb5d20ff86f707840331e68340" target="_top" xlink:title="ar2VideoGetIdImage">
<polygon fill="white" stroke="black" points="132,-38.5 132,-57.5 238,-57.5 238,-38.5 132,-38.5"/>
<text text-anchor="middle" x="185" y="-45.5" font-family="Helvetica,sans-Serif" font-size="10.00">ar2VideoGetIdImage</text>
</a>
</g>
</g>
<!-- Node1&#45;&gt;Node6 -->
<g id="edge5" class="edge"><title>Node1&#45;&gt;Node6</title>
<path fill="none" stroke="midnightblue" d="M56.9181,-95.3987C71.7242,-87.0406 94.2902,-75.037 115,-67 121.005,-64.6695 127.408,-62.5037 133.801,-60.5314"/>
<polygon fill="midnightblue" stroke="midnightblue" points="135.175,-63.7757 143.781,-57.5957 133.199,-57.0602 135.175,-63.7757"/>
</g>
<!-- Node7 -->
<g id="node7" class="node"><title>Node7</title>
<g id="a_node7"><a xlink:href="video_android_8h.html#a3796489510b9241bd2949925f79186f7" target="_top" xlink:title="ar2VideoGetIdAndroid">
<polygon fill="white" stroke="black" points="129,-0.5 129,-19.5 241,-19.5 241,-0.5 129,-0.5"/>
<text text-anchor="middle" x="185" y="-7.5" font-family="Helvetica,sans-Serif" font-size="10.00">ar2VideoGetIdAndroid</text>
</a>
</g>
</g>
<!-- Node1&#45;&gt;Node7 -->
<g id="edge6" class="edge"><title>Node1&#45;&gt;Node7</title>
<path fill="none" stroke="midnightblue" d="M47.1407,-95.4917C58.9189,-79.3485 85.0654,-46.6211 115,-29 118.674,-26.8373 122.603,-24.913 126.652,-23.202"/>
<polygon fill="midnightblue" stroke="midnightblue" points="128.131,-26.3852 136.255,-19.5852 125.663,-19.8344 128.131,-26.3852"/>
</g>
</g>
</svg>
