<?xml version="1.0" encoding="UTF-8" standalone="no"?>
<!DOCTYPE svg PUBLIC "-//W3C//DTD SVG 1.1//EN"
 "http://www.w3.org/Graphics/SVG/1.1/DTD/svg11.dtd">
<!-- Generated by graphviz version 2.38.0 (20140413.2041)
 -->
<!-- Title: /bitrise/src/Source/AR6/ARVideo/libdc1394/video1394Format.c Pages: 1 -->
<!--zoomable 330 -->
<svg id="main" version="1.1" xmlns="http://www.w3.org/2000/svg" xmlns:xlink="http://www.w3.org/1999/xlink" xml:space="preserve" onload="init(evt)">
<style type="text/css"><![CDATA[
.edge:hover path { stroke: red; }
.edge:hover polygon { stroke: red; fill: red; }
]]></style>
<script type="text/javascript"><![CDATA[
var edges = document.getElementsByTagName('g');
if (edges && edges.length) {
  for (var i=0;i<edges.length;i++) {
    if (edges[i].id.substr(0,4)=='edge') {
      edges[i].setAttribute('class','edge');
    }
  }
}
]]></script>
        <defs>
                <circle id="rim" cx="0" cy="0" r="7"/>
                <circle id="rim2" cx="0" cy="0" r="3.5"/>
                <g id="zoomPlus">
                        <use xlink:href="#rim" fill="#404040">
                                <set attributeName="fill" to="#808080" begin="zoomplus.mouseover" end="zoomplus.mouseout"/>
                        </use>
                        <path d="M-4,0h8M0,-4v8" fill="none" stroke="white" stroke-width="1.5" pointer-events="none"/>
                </g>
                <g id="zoomMin">
                        <use xlink:href="#rim" fill="#404040">
                                <set attributeName="fill" to="#808080" begin="zoomminus.mouseover" end="zoomminus.mouseout"/>
                        </use>
                        <path d="M-4,0h8" fill="none" stroke="white" stroke-width="1.5" pointer-events="none"/>
                </g>
                <g id="dirArrow">
                        <path fill="none" stroke="white" stroke-width="1.5" d="M0,-3.0v7 M-2.5,-0.5L0,-3.0L2.5,-0.5"/>
                </g>
               <g id="resetDef">
                       <use xlink:href="#rim2" fill="#404040">
                               <set attributeName="fill" to="#808080" begin="reset.mouseover" end="reset.mouseout"/>
                       </use>
               </g>
        </defs>

<script type="text/javascript">
var viewWidth = 920;
var viewHeight = 330;
var sectionId = 'dynsection-0';
</script>
<script xlink:href="svgpan.js"/>
<svg id="graph" class="graph">
<g id="viewport">
<title>/bitrise/src/Source/AR6/ARVideo/libdc1394/video1394Format.c</title>
<polygon fill="white" stroke="none" points="-4,4 -4,-326 915.959,-326 915.959,4 -4,4"/>
<!-- Node1 -->
<g id="node1" class="node"><title>Node1</title>
<polygon fill="#bfbfbf" stroke="black" points="582.5,-280.5 582.5,-321.5 707.5,-321.5 707.5,-280.5 582.5,-280.5"/>
<text text-anchor="start" x="590.5" y="-309.5" font-family="Helvetica,sans-Serif" font-size="10.00">/bitrise/src/Source</text>
<text text-anchor="start" x="590.5" y="-298.5" font-family="Helvetica,sans-Serif" font-size="10.00">/AR6/ARVideo/libdc1394</text>
<text text-anchor="middle" x="645" y="-287.5" font-family="Helvetica,sans-Serif" font-size="10.00">/video1394Format.c</text>
</g>
<!-- Node2 -->
<g id="node2" class="node"><title>Node2</title>
<g id="a_node2"><a xlink:href="video_8h.html" target="_top" xlink:title="AR6/ARVideo/video.h">
<polygon fill="white" stroke="black" points="588.5,-224.5 588.5,-243.5 701.5,-243.5 701.5,-224.5 588.5,-224.5"/>
<text text-anchor="middle" x="645" y="-231.5" font-family="Helvetica,sans-Serif" font-size="10.00">AR6/ARVideo/video.h</text>
</a>
</g>
</g>
<!-- Node1&#45;&gt;Node2 -->
<g id="edge1" class="edge"><title>Node1&#45;&gt;Node2</title>
<path fill="none" stroke="midnightblue" d="M645,-280.498C645,-272.065 645,-262.235 645,-253.874"/>
<polygon fill="midnightblue" stroke="midnightblue" points="648.5,-253.652 645,-243.652 641.5,-253.653 648.5,-253.652"/>
</g>
<!-- Node3 -->
<g id="node3" class="node"><title>Node3</title>
<g id="a_node3"><a xlink:href="ar_8h.html" target="_top" xlink:title="ARToolKit core routines. ">
<polygon fill="white" stroke="black" points="463.5,-112.5 463.5,-131.5 536.5,-131.5 536.5,-112.5 463.5,-112.5"/>
<text text-anchor="middle" x="500" y="-119.5" font-family="Helvetica,sans-Serif" font-size="10.00">AR6/AR/ar.h</text>
</a>
</g>
</g>
<!-- Node2&#45;&gt;Node3 -->
<g id="edge2" class="edge"><title>Node2&#45;&gt;Node3</title>
<path fill="none" stroke="midnightblue" d="M588.474,-224.606C564.141,-218.296 537.167,-207.265 519,-188 507.289,-175.581 502.75,-156.342 501.015,-142.013"/>
<polygon fill="midnightblue" stroke="midnightblue" points="504.481,-141.463 500.141,-131.798 497.507,-142.06 504.481,-141.463"/>
</g>
<!-- Node19 -->
<g id="node19" class="node"><title>Node19</title>
<g id="a_node19"><a xlink:href="video_config_8h.html" target="_top" xlink:title="AR6/ARVideo/videoConfig.h">
<polygon fill="white" stroke="black" points="739.5,-112.5 739.5,-131.5 880.5,-131.5 880.5,-112.5 739.5,-112.5"/>
<text text-anchor="middle" x="810" y="-119.5" font-family="Helvetica,sans-Serif" font-size="10.00">AR6/ARVideo/videoConfig.h</text>
</a>
</g>
</g>
<!-- Node2&#45;&gt;Node19 -->
<g id="edge25" class="edge"><title>Node2&#45;&gt;Node19</title>
<path fill="none" stroke="midnightblue" d="M652.22,-224.486C663.907,-211.104 688.175,-184.933 713,-168 732.811,-154.487 757.326,-143.154 776.755,-135.241"/>
<polygon fill="midnightblue" stroke="midnightblue" points="778.112,-138.468 786.119,-131.529 775.533,-131.96 778.112,-138.468"/>
</g>
<!-- Node20 -->
<g id="node20" class="node"><title>Node20</title>
<g id="a_node20"><a xlink:href="video_luma_8h.html" target="_top" xlink:title="AR6/ARVideo/videoLuma.h">
<polygon fill="white" stroke="black" points="528.5,-168.5 528.5,-187.5 665.5,-187.5 665.5,-168.5 528.5,-168.5"/>
<text text-anchor="middle" x="597" y="-175.5" font-family="Helvetica,sans-Serif" font-size="10.00">AR6/ARVideo/videoLuma.h</text>
</a>
</g>
</g>
<!-- Node2&#45;&gt;Node20 -->
<g id="edge27" class="edge"><title>Node2&#45;&gt;Node20</title>
<path fill="none" stroke="midnightblue" d="M637.074,-224.083C630.154,-216.298 619.935,-204.801 611.548,-195.367"/>
<polygon fill="midnightblue" stroke="midnightblue" points="614.038,-192.9 604.779,-187.751 608.806,-197.55 614.038,-192.9"/>
</g>
<!-- Node21 -->
<g id="node21" class="node"><title>Node21</title>
<polygon fill="white" stroke="#bfbfbf" points="722,-168.5 722,-187.5 770,-187.5 770,-168.5 722,-168.5"/>
<text text-anchor="middle" x="746" y="-175.5" font-family="Helvetica,sans-Serif" font-size="10.00">limits.h</text>
</g>
<!-- Node2&#45;&gt;Node21 -->
<g id="edge29" class="edge"><title>Node2&#45;&gt;Node21</title>
<path fill="none" stroke="midnightblue" d="M661.227,-224.324C677.351,-215.703 702.3,-202.364 720.964,-192.386"/>
<polygon fill="midnightblue" stroke="midnightblue" points="722.644,-195.456 729.813,-187.655 719.344,-189.283 722.644,-195.456"/>
</g>
<!-- Node4 -->
<g id="node4" class="node"><title>Node4</title>
<polygon fill="white" stroke="#bfbfbf" points="298,-0.5 298,-19.5 344,-19.5 344,-0.5 298,-0.5"/>
<text text-anchor="middle" x="321" y="-7.5" font-family="Helvetica,sans-Serif" font-size="10.00">stdio.h</text>
</g>
<!-- Node3&#45;&gt;Node4 -->
<g id="edge3" class="edge"><title>Node3&#45;&gt;Node4</title>
<path fill="none" stroke="midnightblue" d="M463.476,-118.746C429.985,-114.864 380.889,-104.357 349,-76 335.391,-63.8979 328.154,-44.0204 324.473,-29.428"/>
<polygon fill="midnightblue" stroke="midnightblue" points="327.861,-28.5365 322.305,-19.5155 321.023,-30.0325 327.861,-28.5365"/>
</g>
<!-- Node5 -->
<g id="node5" class="node"><title>Node5</title>
<polygon fill="white" stroke="#bfbfbf" points="0,-0.5 0,-19.5 48,-19.5 48,-0.5 0,-0.5"/>
<text text-anchor="middle" x="24" y="-7.5" font-family="Helvetica,sans-Serif" font-size="10.00">stdlib.h</text>
</g>
<!-- Node3&#45;&gt;Node5 -->
<g id="edge4" class="edge"><title>Node3&#45;&gt;Node5</title>
<path fill="none" stroke="midnightblue" d="M463.425,-119.723C360.735,-115.819 75.143,-102.652 43,-76 29.5856,-64.8771 25.3354,-44.8449 24.1344,-29.9486"/>
<polygon fill="midnightblue" stroke="midnightblue" points="27.6244,-29.6359 23.709,-19.7911 20.6306,-29.9288 27.6244,-29.6359"/>
</g>
<!-- Node6 -->
<g id="node6" class="node"><title>Node6</title>
<polygon fill="white" stroke="#bfbfbf" points="849.5,-56.5 849.5,-75.5 898.5,-75.5 898.5,-56.5 849.5,-56.5"/>
<text text-anchor="middle" x="874" y="-63.5" font-family="Helvetica,sans-Serif" font-size="10.00">stdint.h</text>
</g>
<!-- Node3&#45;&gt;Node6 -->
<g id="edge5" class="edge"><title>Node3&#45;&gt;Node6</title>
<path fill="none" stroke="midnightblue" d="M536.603,-117.806C597.557,-112.135 723.823,-98.8834 839.164,-76.1554"/>
<polygon fill="midnightblue" stroke="midnightblue" points="840.1,-79.5376 849.22,-74.144 838.727,-72.6736 840.1,-79.5376"/>
</g>
<!-- Node7 -->
<g id="node7" class="node"><title>Node7</title>
<polygon fill="white" stroke="#bfbfbf" points="225.5,-0.5 225.5,-19.5 274.5,-19.5 274.5,-0.5 225.5,-0.5"/>
<text text-anchor="middle" x="250" y="-7.5" font-family="Helvetica,sans-Serif" font-size="10.00">string.h</text>
</g>
<!-- Node3&#45;&gt;Node7 -->
<g id="edge6" class="edge"><title>Node3&#45;&gt;Node7</title>
<path fill="none" stroke="midnightblue" d="M463.484,-115.784C428.151,-109.718 373.809,-97.6509 331,-76 305.749,-63.2293 281.017,-41.6885 265.657,-26.9298"/>
<polygon fill="midnightblue" stroke="midnightblue" points="267.724,-24.0526 258.144,-19.527 262.81,-29.0388 267.724,-24.0526"/>
</g>
<!-- Node8 -->
<g id="node8" class="node"><title>Node8</title>
<polygon fill="white" stroke="#bfbfbf" points="726.5,-0.5 726.5,-19.5 817.5,-19.5 817.5,-0.5 726.5,-0.5"/>
<text text-anchor="middle" x="772" y="-7.5" font-family="Helvetica,sans-Serif" font-size="10.00">AR6/AR/config.h</text>
</g>
<!-- Node3&#45;&gt;Node8 -->
<g id="edge7" class="edge"><title>Node3&#45;&gt;Node8</title>
<path fill="none" stroke="midnightblue" d="M536.711,-114.072C570.818,-106.923 622.584,-94.2379 665,-76 682.147,-68.6271 724.448,-41.8903 750.433,-25.0906"/>
<polygon fill="midnightblue" stroke="midnightblue" points="752.393,-27.991 758.875,-19.6108 748.582,-22.1193 752.393,-27.991"/>
</g>
<!-- Node9 -->
<g id="node9" class="node"><title>Node9</title>
<g id="a_node9"><a xlink:href="ar_config_8h.html" target="_top" xlink:title="AR6/AR/arConfig.h">
<polygon fill="white" stroke="black" points="162.5,-56.5 162.5,-75.5 263.5,-75.5 263.5,-56.5 162.5,-56.5"/>
<text text-anchor="middle" x="213" y="-63.5" font-family="Helvetica,sans-Serif" font-size="10.00">AR6/AR/arConfig.h</text>
</a>
</g>
</g>
<!-- Node3&#45;&gt;Node9 -->
<g id="edge8" class="edge"><title>Node3&#45;&gt;Node9</title>
<path fill="none" stroke="midnightblue" d="M463.36,-114.106C414.035,-104.825 325.851,-88.2332 268.399,-77.4235"/>
<polygon fill="midnightblue" stroke="midnightblue" points="268.873,-73.9513 258.398,-75.5418 267.578,-80.8306 268.873,-73.9513"/>
</g>
<!-- Node10 -->
<g id="node10" class="node"><title>Node10</title>
<g id="a_node10"><a xlink:href="log_8h.html" target="_top" xlink:title="Logging utilities. ">
<polygon fill="white" stroke="black" points="52,-56.5 52,-75.5 144,-75.5 144,-56.5 52,-56.5"/>
<text text-anchor="middle" x="98" y="-63.5" font-family="Helvetica,sans-Serif" font-size="10.00">AR6/ARUtil/log.h</text>
</a>
</g>
</g>
<!-- Node3&#45;&gt;Node10 -->
<g id="edge9" class="edge"><title>Node3&#45;&gt;Node10</title>
<path fill="none" stroke="midnightblue" d="M463.475,-116.668C401.9,-109.278 273.282,-93.4633 154.214,-76.1382"/>
<polygon fill="midnightblue" stroke="midnightblue" points="154.597,-72.6572 144.196,-74.6737 153.585,-79.5836 154.597,-72.6572"/>
</g>
<!-- Node13 -->
<g id="node13" class="node"><title>Node13</title>
<g id="a_node13"><a xlink:href="_a_r_2include_2_a_r6_2_a_r_2matrix_8h.html" target="_top" xlink:title="AR6/AR/matrix.h">
<polygon fill="white" stroke="black" points="564,-56.5 564,-75.5 656,-75.5 656,-56.5 564,-56.5"/>
<text text-anchor="middle" x="610" y="-63.5" font-family="Helvetica,sans-Serif" font-size="10.00">AR6/AR/matrix.h</text>
</a>
</g>
</g>
<!-- Node3&#45;&gt;Node13 -->
<g id="edge15" class="edge"><title>Node3&#45;&gt;Node13</title>
<path fill="none" stroke="midnightblue" d="M517.673,-112.324C535.394,-103.625 562.903,-90.1202 583.288,-80.113"/>
<polygon fill="midnightblue" stroke="midnightblue" points="584.936,-83.2031 592.37,-75.6545 581.851,-76.9195 584.936,-83.2031"/>
</g>
<!-- Node15 -->
<g id="node15" class="node"><title>Node15</title>
<g id="a_node15"><a xlink:href="icp_8h.html" target="_top" xlink:title="AR6/AR/icp.h">
<polygon fill="white" stroke="black" points="358.5,-56.5 358.5,-75.5 435.5,-75.5 435.5,-56.5 358.5,-56.5"/>
<text text-anchor="middle" x="397" y="-63.5" font-family="Helvetica,sans-Serif" font-size="10.00">AR6/AR/icp.h</text>
</a>
</g>
</g>
<!-- Node3&#45;&gt;Node15 -->
<g id="edge17" class="edge"><title>Node3&#45;&gt;Node15</title>
<path fill="none" stroke="midnightblue" d="M483.451,-112.324C467.008,-103.703 441.565,-90.3643 422.532,-80.3855"/>
<polygon fill="midnightblue" stroke="midnightblue" points="423.989,-77.198 413.508,-75.6545 420.739,-83.3977 423.989,-77.198"/>
</g>
<!-- Node17 -->
<g id="node17" class="node"><title>Node17</title>
<g id="a_node17"><a xlink:href="param_8h.html" target="_top" xlink:title="ARToolKit functions for handling calibrated camera parameters. ">
<polygon fill="white" stroke="black" points="454,-56.5 454,-75.5 546,-75.5 546,-56.5 454,-56.5"/>
<text text-anchor="middle" x="500" y="-63.5" font-family="Helvetica,sans-Serif" font-size="10.00">AR6/AR/param.h</text>
</a>
</g>
</g>
<!-- Node3&#45;&gt;Node17 -->
<g id="edge20" class="edge"><title>Node3&#45;&gt;Node17</title>
<path fill="none" stroke="midnightblue" d="M494.834,-112.083C493.324,-104.927 492.894,-94.6353 493.542,-85.6911"/>
<polygon fill="midnightblue" stroke="midnightblue" points="497.015,-86.1262 494.869,-75.7511 490.077,-85.2002 497.015,-86.1262"/>
</g>
<!-- Node18 -->
<g id="node18" class="node"><title>Node18</title>
<g id="a_node18"><a xlink:href="ar_image_proc_8h.html" target="_top" xlink:title="ARToolKit functions for 2D luminance image processing. ">
<polygon fill="white" stroke="black" points="712,-56.5 712,-75.5 832,-75.5 832,-56.5 712,-56.5"/>
<text text-anchor="middle" x="772" y="-63.5" font-family="Helvetica,sans-Serif" font-size="10.00">AR6/AR/arImageProc.h</text>
</a>
</g>
</g>
<!-- Node3&#45;&gt;Node18 -->
<g id="edge22" class="edge"><title>Node3&#45;&gt;Node18</title>
<path fill="none" stroke="midnightblue" d="M536.584,-112.74C582.114,-103.275 660.179,-87.7476 713.9,-77.4497"/>
<polygon fill="midnightblue" stroke="midnightblue" points="714.802,-80.8407 723.968,-75.5268 713.489,-73.9649 714.802,-80.8407"/>
</g>
<!-- Node10&#45;&gt;Node4 -->
<g id="edge10" class="edge"><title>Node10&#45;&gt;Node4</title>
<path fill="none" stroke="midnightblue" d="M133.335,-56.4435C175.792,-46.1626 246.471,-29.0475 287.905,-19.0141"/>
<polygon fill="midnightblue" stroke="midnightblue" points="288.878,-22.3796 297.774,-16.6243 287.231,-15.5762 288.878,-22.3796"/>
</g>
<!-- Node10&#45;&gt;Node5 -->
<g id="edge11" class="edge"><title>Node10&#45;&gt;Node5</title>
<path fill="none" stroke="midnightblue" d="M86.1106,-56.324C74.8498,-48.1066 57.7134,-35.6017 44.2909,-25.8069"/>
<polygon fill="midnightblue" stroke="midnightblue" points="46.2468,-22.9014 36.1057,-19.8339 42.1205,-28.5559 46.2468,-22.9014"/>
</g>
<!-- Node10&#45;&gt;Node7 -->
<g id="edge12" class="edge"><title>Node10&#45;&gt;Node7</title>
<path fill="none" stroke="midnightblue" d="M122.085,-56.4435C147.545,-47.3986 187.894,-33.064 216.459,-22.9158"/>
<polygon fill="midnightblue" stroke="midnightblue" points="217.777,-26.1622 226.028,-19.5164 215.433,-19.5661 217.777,-26.1622"/>
</g>
<!-- Node11 -->
<g id="node11" class="node"><title>Node11</title>
<polygon fill="white" stroke="#bfbfbf" points="150,-0.5 150,-19.5 202,-19.5 202,-0.5 150,-0.5"/>
<text text-anchor="middle" x="176" y="-7.5" font-family="Helvetica,sans-Serif" font-size="10.00">stdarg.h</text>
</g>
<!-- Node10&#45;&gt;Node11 -->
<g id="edge13" class="edge"><title>Node10&#45;&gt;Node11</title>
<path fill="none" stroke="midnightblue" d="M110.532,-56.324C122.586,-47.979 141.027,-35.2122 155.269,-25.3524"/>
<polygon fill="midnightblue" stroke="midnightblue" points="157.269,-28.2243 163.499,-19.6545 153.285,-22.469 157.269,-28.2243"/>
</g>
<!-- Node12 -->
<g id="node12" class="node"><title>Node12</title>
<polygon fill="white" stroke="#bfbfbf" points="66.5,-0.5 66.5,-19.5 131.5,-19.5 131.5,-0.5 66.5,-0.5"/>
<text text-anchor="middle" x="99" y="-7.5" font-family="Helvetica,sans-Serif" font-size="10.00">sys/errno.h</text>
</g>
<!-- Node10&#45;&gt;Node12 -->
<g id="edge14" class="edge"><title>Node10&#45;&gt;Node12</title>
<path fill="none" stroke="midnightblue" d="M98.1651,-56.083C98.2962,-49.0059 98.4841,-38.8611 98.6484,-29.9865"/>
<polygon fill="midnightblue" stroke="midnightblue" points="102.152,-29.8142 98.8379,-19.7511 95.1533,-29.6845 102.152,-29.8142"/>
</g>
<!-- Node14 -->
<g id="node14" class="node"><title>Node14</title>
<polygon fill="white" stroke="#bfbfbf" points="586.5,-0.5 586.5,-19.5 633.5,-19.5 633.5,-0.5 586.5,-0.5"/>
<text text-anchor="middle" x="610" y="-7.5" font-family="Helvetica,sans-Serif" font-size="10.00">math.h</text>
</g>
<!-- Node13&#45;&gt;Node14 -->
<g id="edge16" class="edge"><title>Node13&#45;&gt;Node14</title>
<path fill="none" stroke="midnightblue" d="M610,-56.083C610,-49.0059 610,-38.8611 610,-29.9865"/>
<polygon fill="midnightblue" stroke="midnightblue" points="613.5,-29.751 610,-19.7511 606.5,-29.7511 613.5,-29.751"/>
</g>
<!-- Node15&#45;&gt;Node4 -->
<g id="edge18" class="edge"><title>Node15&#45;&gt;Node4</title>
<path fill="none" stroke="midnightblue" d="M384.789,-56.324C373.224,-48.1066 355.625,-35.6017 341.839,-25.8069"/>
<polygon fill="midnightblue" stroke="midnightblue" points="343.612,-22.7729 333.433,-19.8339 339.557,-28.4791 343.612,-22.7729"/>
</g>
<!-- Node16 -->
<g id="node16" class="node"><title>Node16</title>
<g id="a_node16"><a xlink:href="icp_core_8h.html" target="_top" xlink:title="AR6/AR/icpCore.h">
<polygon fill="white" stroke="black" points="362,-0.5 362,-19.5 460,-19.5 460,-0.5 362,-0.5"/>
<text text-anchor="middle" x="411" y="-7.5" font-family="Helvetica,sans-Serif" font-size="10.00">AR6/AR/icpCore.h</text>
</a>
</g>
</g>
<!-- Node15&#45;&gt;Node16 -->
<g id="edge19" class="edge"><title>Node15&#45;&gt;Node16</title>
<path fill="none" stroke="midnightblue" d="M399.312,-56.083C401.167,-48.9272 403.835,-38.6353 406.154,-29.6911"/>
<polygon fill="midnightblue" stroke="midnightblue" points="409.609,-30.3094 408.731,-19.7511 402.834,-28.5527 409.609,-30.3094"/>
</g>
<!-- Node17&#45;&gt;Node3 -->
<g id="edge21" class="edge"><title>Node17&#45;&gt;Node3</title>
<path fill="none" stroke="midnightblue" d="M505.131,-75.7511C506.657,-82.8579 507.104,-93.1357 506.472,-102.101"/>
<polygon fill="midnightblue" stroke="midnightblue" points="502.993,-101.713 505.166,-112.083 509.934,-102.622 502.993,-101.713"/>
</g>
<!-- Node18&#45;&gt;Node3 -->
<g id="edge24" class="edge"><title>Node18&#45;&gt;Node3</title>
<path fill="none" stroke="midnightblue" d="M734.032,-75.5476C684.93,-85.7402 599.689,-102.659 546.691,-112.728"/>
<polygon fill="midnightblue" stroke="midnightblue" points="545.717,-109.35 536.541,-114.647 547.017,-116.228 545.717,-109.35"/>
</g>
<!-- Node18&#45;&gt;Node8 -->
<g id="edge23" class="edge"><title>Node18&#45;&gt;Node8</title>
<path fill="none" stroke="midnightblue" d="M772,-56.083C772,-49.0059 772,-38.8611 772,-29.9865"/>
<polygon fill="midnightblue" stroke="midnightblue" points="775.5,-29.751 772,-19.7511 768.5,-29.7511 775.5,-29.751"/>
</g>
<!-- Node19&#45;&gt;Node8 -->
<g id="edge26" class="edge"><title>Node19&#45;&gt;Node8</title>
<path fill="none" stroke="midnightblue" d="M845.47,-112.485C880.608,-102.293 926.558,-83.1346 907,-56 888.909,-30.9006 856.211,-19.5891 827.527,-14.5823"/>
<polygon fill="midnightblue" stroke="midnightblue" points="827.993,-11.1129 817.579,-13.0619 826.935,-18.0326 827.993,-11.1129"/>
</g>
<!-- Node20&#45;&gt;Node3 -->
<g id="edge28" class="edge"><title>Node20&#45;&gt;Node3</title>
<path fill="none" stroke="midnightblue" d="M581.415,-168.324C566.001,-159.743 542.188,-146.486 524.29,-136.522"/>
<polygon fill="midnightblue" stroke="midnightblue" points="525.986,-133.461 515.546,-131.655 522.581,-139.577 525.986,-133.461"/>
</g>
</g>
</svg>
        <g id="navigator" transform="translate(0 0)" fill="#404254">
                <rect fill="#f2f5e9" fill-opacity="0.5" stroke="#606060" stroke-width=".5" x="0" y="0" width="60" height="60"/>
                <use id="zoomplus" xlink:href="#zoomPlus" x="17" y="9" onmousedown="handleZoom(evt,'in')"/>
                <use id="zoomminus" xlink:href="#zoomMin" x="42" y="9" onmousedown="handleZoom(evt,'out')"/>
                <use id="reset" xlink:href="#resetDef" x="30" y="36" onmousedown="handleReset()"/>
                <g id="arrowUp" xlink:href="#dirArrow" transform="translate(30 24)" onmousedown="handlePan(0,-1)">
                  <use xlink:href="#rim" fill="#404040">
                        <set attributeName="fill" to="#808080" begin="arrowUp.mouseover" end="arrowUp.mouseout"/>
                  </use>
                  <path fill="none" stroke="white" stroke-width="1.5" d="M0,-3.0v7 M-2.5,-0.5L0,-3.0L2.5,-0.5"/>
                </g>
                <g id="arrowRight" xlink:href="#dirArrow" transform="rotate(90) translate(36 -43)" onmousedown="handlePan(1,0)">
                  <use xlink:href="#rim" fill="#404040">
                        <set attributeName="fill" to="#808080" begin="arrowRight.mouseover" end="arrowRight.mouseout"/>
                  </use>
                  <path fill="none" stroke="white" stroke-width="1.5" d="M0,-3.0v7 M-2.5,-0.5L0,-3.0L2.5,-0.5"/>
                </g>
                <g id="arrowDown" xlink:href="#dirArrow" transform="rotate(180) translate(-30 -48)" onmousedown="handlePan(0,1)">
                  <use xlink:href="#rim" fill="#404040">
                        <set attributeName="fill" to="#808080" begin="arrowDown.mouseover" end="arrowDown.mouseout"/>
                  </use>
                  <path fill="none" stroke="white" stroke-width="1.5" d="M0,-3.0v7 M-2.5,-0.5L0,-3.0L2.5,-0.5"/>
                </g>
                <g id="arrowLeft" xlink:href="#dirArrow" transform="rotate(270) translate(-36 17)" onmousedown="handlePan(-1,0)">
                  <use xlink:href="#rim" fill="#404040">
                        <set attributeName="fill" to="#808080" begin="arrowLeft.mouseover" end="arrowLeft.mouseout"/>
                  </use>
                  <path fill="none" stroke="white" stroke-width="1.5" d="M0,-3.0v7 M-2.5,-0.5L0,-3.0L2.5,-0.5"/>
                </g>
        </g>
        <svg viewBox="0 0 15 15" width="100%" height="30px" preserveAspectRatio="xMaxYMin meet">
         <g id="arrow_out" transform="scale(0.3 0.3)">
          <a xlink:href="video1394_format_8c__incl_org.svg" target="_base">
           <rect id="button" ry="5" rx="5" y="6" x="6" height="38" width="38"
                fill="#f2f5e9" fill-opacity="0.5" stroke="#606060" stroke-width="1.0"/>
           <path id="arrow"
             d="M 11.500037,31.436501 C 11.940474,20.09759 22.043105,11.32322 32.158766,21.979434 L 37.068811,17.246167 C 37.068811,17.246167 37.088388,32 37.088388,32 L 22.160133,31.978069 C 22.160133,31.978069 26.997745,27.140456 26.997745,27.140456 C 18.528582,18.264221 13.291696,25.230495 11.500037,31.436501 z"
             style="fill:#404040;"/>
          </a>
         </g>
        </svg>
</svg>
