<?xml version="1.0" encoding="UTF-8" standalone="no"?>
<!DOCTYPE svg PUBLIC "-//W3C//DTD SVG 1.1//EN"
 "http://www.w3.org/Graphics/SVG/1.1/DTD/svg11.dtd">
<!-- Generated by graphviz version 2.38.0 (20140413.2041)
 -->
<!-- Title: ar2VideoGetPixelSize Pages: 1 -->
<svg width="500pt" height="218pt"
 viewBox="0.00 0.00 500.00 218.00" xmlns="http://www.w3.org/2000/svg" xmlns:xlink="http://www.w3.org/1999/xlink">
<g id="graph0" class="graph" transform="scale(1 1) rotate(0) translate(4 214)">
<title>ar2VideoGetPixelSize</title>
<polygon fill="white" stroke="none" points="-4,4 -4,-214 496,-214 496,4 -4,4"/>
<!-- Node1 -->
<g id="node1" class="node"><title>Node1</title>
<polygon fill="#bfbfbf" stroke="black" points="0,-114.5 0,-133.5 112,-133.5 112,-114.5 0,-114.5"/>
<text text-anchor="middle" x="56" y="-121.5" font-family="Helvetica,sans-Serif" font-size="10.00">ar2VideoGetPixelSize</text>
</g>
<!-- Node2 -->
<g id="node2" class="node"><title>Node2</title>
<g id="a_node2"><a xlink:href="video_8h.html#afd0b5eb33f2fbeb9f261ad9b4a5a2061" target="_top" xlink:title="arVideoUtilGetPixelSize">
<polygon fill="white" stroke="black" points="148.5,-133.5 148.5,-152.5 270.5,-152.5 270.5,-133.5 148.5,-133.5"/>
<text text-anchor="middle" x="209.5" y="-140.5" font-family="Helvetica,sans-Serif" font-size="10.00">arVideoUtilGetPixelSize</text>
</a>
</g>
</g>
<!-- Node1&#45;&gt;Node2 -->
<g id="edge1" class="edge"><title>Node1&#45;&gt;Node2</title>
<path fill="none" stroke="midnightblue" d="M112.124,-130.913C120.576,-131.973 129.4,-133.08 138.127,-134.174"/>
<polygon fill="midnightblue" stroke="midnightblue" points="137.943,-137.679 148.301,-135.45 138.814,-130.733 137.943,-137.679"/>
</g>
<!-- Node3 -->
<g id="node3" class="node"><title>Node3</title>
<g id="a_node3"><a xlink:href="video2_8c.html#a7780fac88f8c59974d8d9fe6d4a8047a" target="_top" xlink:title="ar2VideoGetPixelFormat">
<polygon fill="white" stroke="black" points="148,-95.5 148,-114.5 271,-114.5 271,-95.5 148,-95.5"/>
<text text-anchor="middle" x="209.5" y="-102.5" font-family="Helvetica,sans-Serif" font-size="10.00">ar2VideoGetPixelFormat</text>
</a>
</g>
</g>
<!-- Node1&#45;&gt;Node3 -->
<g id="edge2" class="edge"><title>Node1&#45;&gt;Node3</title>
<path fill="none" stroke="midnightblue" d="M112.124,-117.087C120.454,-116.042 129.146,-114.952 137.75,-113.873"/>
<polygon fill="midnightblue" stroke="midnightblue" points="138.299,-117.332 147.785,-112.614 137.427,-110.386 138.299,-117.332"/>
</g>
<!-- Node4 -->
<g id="node4" class="node"><title>Node4</title>
<g id="a_node4"><a xlink:href="video_dummy_8h.html#aef5bd63c5abf5e4479664647c084644b" target="_top" xlink:title="ar2VideoGetPixelFormatDummy">
<polygon fill="white" stroke="black" points="320.5,-190.5 320.5,-209.5 478.5,-209.5 478.5,-190.5 320.5,-190.5"/>
<text text-anchor="middle" x="399.5" y="-197.5" font-family="Helvetica,sans-Serif" font-size="10.00">ar2VideoGetPixelFormatDummy</text>
</a>
</g>
</g>
<!-- Node3&#45;&gt;Node4 -->
<g id="edge3" class="edge"><title>Node3&#45;&gt;Node4</title>
<path fill="none" stroke="midnightblue" d="M254.009,-114.527C260.067,-117.001 265.94,-120.106 271,-124 294.746,-142.273 282.374,-163.931 307,-181 309.734,-182.895 312.616,-184.608 315.606,-186.156"/>
<polygon fill="midnightblue" stroke="midnightblue" points="314.302,-189.408 324.857,-190.324 317.178,-183.026 314.302,-189.408"/>
</g>
<!-- Node5 -->
<g id="node5" class="node"><title>Node5</title>
<g id="a_node5"><a xlink:href="video_v4_l2_8h.html#aab61669af9d839aa23ecd79d1c4bde5a" target="_top" xlink:title="ar2VideoGetPixelFormatV4L2">
<polygon fill="white" stroke="black" points="326.5,-152.5 326.5,-171.5 472.5,-171.5 472.5,-152.5 326.5,-152.5"/>
<text text-anchor="middle" x="399.5" y="-159.5" font-family="Helvetica,sans-Serif" font-size="10.00">ar2VideoGetPixelFormatV4L2</text>
</a>
</g>
</g>
<!-- Node3&#45;&gt;Node5 -->
<g id="edge4" class="edge"><title>Node3&#45;&gt;Node5</title>
<path fill="none" stroke="midnightblue" d="M244.806,-114.587C253.466,-117.329 262.667,-120.526 271,-124 287.699,-130.961 289.975,-136.878 307,-143 314.489,-145.693 322.468,-148.052 330.474,-150.105"/>
<polygon fill="midnightblue" stroke="midnightblue" points="329.679,-153.514 340.221,-152.46 331.323,-146.709 329.679,-153.514"/>
</g>
<!-- Node6 -->
<g id="node6" class="node"><title>Node6</title>
<g id="a_node6"><a xlink:href="video1394_8h.html#a1eb40205f18baab9d12c0bc187e9b50e" target="_top" xlink:title="ar2VideoGetPixelFormat1394">
<polygon fill="white" stroke="black" points="327.5,-114.5 327.5,-133.5 471.5,-133.5 471.5,-114.5 327.5,-114.5"/>
<text text-anchor="middle" x="399.5" y="-121.5" font-family="Helvetica,sans-Serif" font-size="10.00">ar2VideoGetPixelFormat1394</text>
</a>
</g>
</g>
<!-- Node3&#45;&gt;Node6 -->
<g id="edge5" class="edge"><title>Node3&#45;&gt;Node6</title>
<path fill="none" stroke="midnightblue" d="M271.019,-111.116C285.724,-112.602 301.686,-114.216 317.18,-115.782"/>
<polygon fill="midnightblue" stroke="midnightblue" points="316.975,-119.279 327.277,-116.802 317.679,-112.314 316.975,-119.279"/>
</g>
<!-- Node7 -->
<g id="node7" class="node"><title>Node7</title>
<g id="a_node7"><a xlink:href="video_a_v_foundation_8h.html#a98d99736ba21ff6f85c9da3e0e2acab8" target="_top" xlink:title="ar2VideoGetPixelFormatAVFoundation">
<polygon fill="white" stroke="black" points="307,-76.5 307,-95.5 492,-95.5 492,-76.5 307,-76.5"/>
<text text-anchor="middle" x="399.5" y="-83.5" font-family="Helvetica,sans-Serif" font-size="10.00">ar2VideoGetPixelFormatAVFoundation</text>
</a>
</g>
</g>
<!-- Node3&#45;&gt;Node7 -->
<g id="edge6" class="edge"><title>Node3&#45;&gt;Node7</title>
<path fill="none" stroke="midnightblue" d="M271.019,-98.8837C279.364,-98.0403 288.114,-97.156 296.953,-96.2627"/>
<polygon fill="midnightblue" stroke="midnightblue" points="297.357,-99.7398 306.955,-95.2519 296.653,-92.7753 297.357,-99.7398"/>
</g>
<!-- Node8 -->
<g id="node8" class="node"><title>Node8</title>
<g id="a_node8"><a xlink:href="video_image_8h.html#a4e14913d6bea4a02cd3d17ddd95e2544" target="_top" xlink:title="ar2VideoGetPixelFormatImage">
<polygon fill="white" stroke="black" points="324.5,-38.5 324.5,-57.5 474.5,-57.5 474.5,-38.5 324.5,-38.5"/>
<text text-anchor="middle" x="399.5" y="-45.5" font-family="Helvetica,sans-Serif" font-size="10.00">ar2VideoGetPixelFormatImage</text>
</a>
</g>
</g>
<!-- Node3&#45;&gt;Node8 -->
<g id="edge7" class="edge"><title>Node3&#45;&gt;Node8</title>
<path fill="none" stroke="midnightblue" d="M231.596,-95.4849C250.905,-87.0685 280.429,-74.9274 307,-67 316,-64.3148 325.609,-61.8724 335.091,-59.7004"/>
<polygon fill="midnightblue" stroke="midnightblue" points="335.885,-63.1095 344.895,-57.5359 334.376,-56.2741 335.885,-63.1095"/>
</g>
<!-- Node9 -->
<g id="node9" class="node"><title>Node9</title>
<g id="a_node9"><a xlink:href="video_android_8h.html#ac511ed131837c08ea6f17725dd87d2bc" target="_top" xlink:title="ar2VideoGetPixelFormatAndroid">
<polygon fill="white" stroke="black" points="321.5,-0.5 321.5,-19.5 477.5,-19.5 477.5,-0.5 321.5,-0.5"/>
<text text-anchor="middle" x="399.5" y="-7.5" font-family="Helvetica,sans-Serif" font-size="10.00">ar2VideoGetPixelFormatAndroid</text>
</a>
</g>
</g>
<!-- Node3&#45;&gt;Node9 -->
<g id="edge8" class="edge"><title>Node3&#45;&gt;Node9</title>
<path fill="none" stroke="midnightblue" d="M219.616,-95.3451C235.65,-78.9807 270.658,-45.9288 307,-29 312.37,-26.4984 318.07,-24.3239 323.897,-22.4341"/>
<polygon fill="midnightblue" stroke="midnightblue" points="325.185,-25.703 333.785,-19.5149 323.203,-18.9895 325.185,-25.703"/>
</g>
</g>
</svg>
