<?xml version="1.0" encoding="UTF-8" standalone="no"?>
<!DOCTYPE svg PUBLIC "-//W3C//DTD SVG 1.1//EN"
 "http://www.w3.org/Graphics/SVG/1.1/DTD/svg11.dtd">
<!-- Generated by graphviz version 2.38.0 (20140413.2041)
 -->
<!-- Title: ar2VideoClose Pages: 1 -->
<svg width="266pt" height="256pt"
 viewBox="0.00 0.00 266.00 256.00" xmlns="http://www.w3.org/2000/svg" xmlns:xlink="http://www.w3.org/1999/xlink">
<g id="graph0" class="graph" transform="scale(1 1) rotate(0) translate(4 252)">
<title>ar2VideoClose</title>
<polygon fill="white" stroke="none" points="-4,4 -4,-252 262,-252 262,4 -4,4"/>
<!-- Node1 -->
<g id="node1" class="node"><title>Node1</title>
<polygon fill="#bfbfbf" stroke="black" points="0,-114.5 0,-133.5 80,-133.5 80,-114.5 0,-114.5"/>
<text text-anchor="middle" x="40" y="-121.5" font-family="Helvetica,sans-Serif" font-size="10.00">ar2VideoClose</text>
</g>
<!-- Node2 -->
<g id="node2" class="node"><title>Node2</title>
<g id="a_node2"><a xlink:href="video_luma_8h.html#af73e0e884452c46682458a136539792b" target="_top" xlink:title="arVideoLumaFinal">
<polygon fill="white" stroke="black" points="139.5,-228.5 139.5,-247.5 234.5,-247.5 234.5,-228.5 139.5,-228.5"/>
<text text-anchor="middle" x="187" y="-235.5" font-family="Helvetica,sans-Serif" font-size="10.00">arVideoLumaFinal</text>
</a>
</g>
</g>
<!-- Node1&#45;&gt;Node2 -->
<g id="edge1" class="edge"><title>Node1&#45;&gt;Node2</title>
<path fill="none" stroke="midnightblue" d="M45.922,-133.764C56.1902,-153.116 81.81,-196.415 116,-219 120.29,-221.834 124.992,-224.247 129.865,-226.302"/>
<polygon fill="midnightblue" stroke="midnightblue" points="128.793,-229.636 139.386,-229.827 131.224,-223.072 128.793,-229.636"/>
</g>
<!-- Node3 -->
<g id="node3" class="node"><title>Node3</title>
<g id="a_node3"><a xlink:href="video_dummy_8h.html#ae518c53d87b1320ba8cd80ed8a23bf0a" target="_top" xlink:title="ar2VideoCloseDummy">
<polygon fill="white" stroke="black" points="129.5,-190.5 129.5,-209.5 244.5,-209.5 244.5,-190.5 129.5,-190.5"/>
<text text-anchor="middle" x="187" y="-197.5" font-family="Helvetica,sans-Serif" font-size="10.00">ar2VideoCloseDummy</text>
</a>
</g>
</g>
<!-- Node1&#45;&gt;Node3 -->
<g id="edge2" class="edge"><title>Node1&#45;&gt;Node3</title>
<path fill="none" stroke="midnightblue" d="M51.297,-133.93C64.9962,-146.616 90.4691,-168.432 116,-181 120.681,-183.305 125.681,-185.361 130.774,-187.189"/>
<polygon fill="midnightblue" stroke="midnightblue" points="130.03,-190.629 140.623,-190.428 132.217,-183.979 130.03,-190.629"/>
</g>
<!-- Node4 -->
<g id="node4" class="node"><title>Node4</title>
<g id="a_node4"><a xlink:href="video_v4_l2_8h.html#a160602fb4d1827e9053166f051f4613d" target="_top" xlink:title="ar2VideoCloseV4L2">
<polygon fill="white" stroke="black" points="135.5,-152.5 135.5,-171.5 238.5,-171.5 238.5,-152.5 135.5,-152.5"/>
<text text-anchor="middle" x="187" y="-159.5" font-family="Helvetica,sans-Serif" font-size="10.00">ar2VideoCloseV4L2</text>
</a>
</g>
</g>
<!-- Node1&#45;&gt;Node4 -->
<g id="edge3" class="edge"><title>Node1&#45;&gt;Node4</title>
<path fill="none" stroke="midnightblue" d="M77.5896,-133.589C96.4654,-138.536 119.686,-144.621 139.788,-149.889"/>
<polygon fill="midnightblue" stroke="midnightblue" points="139.113,-153.33 149.673,-152.48 140.887,-146.559 139.113,-153.33"/>
</g>
<!-- Node5 -->
<g id="node5" class="node"><title>Node5</title>
<g id="a_node5"><a xlink:href="video1394_8h.html#aaea7efdd8dad25a42fe9b8f3bc3edf0b" target="_top" xlink:title="ar2VideoClose1394">
<polygon fill="white" stroke="black" points="136.5,-114.5 136.5,-133.5 237.5,-133.5 237.5,-114.5 136.5,-114.5"/>
<text text-anchor="middle" x="187" y="-121.5" font-family="Helvetica,sans-Serif" font-size="10.00">ar2VideoClose1394</text>
</a>
</g>
</g>
<!-- Node1&#45;&gt;Node5 -->
<g id="edge4" class="edge"><title>Node1&#45;&gt;Node5</title>
<path fill="none" stroke="midnightblue" d="M80.2391,-124C94.4121,-124 110.75,-124 126.28,-124"/>
<polygon fill="midnightblue" stroke="midnightblue" points="126.339,-127.5 136.339,-124 126.338,-120.5 126.339,-127.5"/>
</g>
<!-- Node6 -->
<g id="node6" class="node"><title>Node6</title>
<g id="a_node6"><a xlink:href="video_a_v_foundation_8h.html#a2883b331cca58ccd1c036f2318041f03" target="_top" xlink:title="ar2VideoCloseAVFoundation">
<polygon fill="white" stroke="black" points="116,-76.5 116,-95.5 258,-95.5 258,-76.5 116,-76.5"/>
<text text-anchor="middle" x="187" y="-83.5" font-family="Helvetica,sans-Serif" font-size="10.00">ar2VideoCloseAVFoundation</text>
</a>
</g>
</g>
<!-- Node1&#45;&gt;Node6 -->
<g id="edge5" class="edge"><title>Node1&#45;&gt;Node6</title>
<path fill="none" stroke="midnightblue" d="M77.5896,-114.411C96.4654,-109.464 119.686,-103.379 139.788,-98.1108"/>
<polygon fill="midnightblue" stroke="midnightblue" points="140.887,-101.441 149.673,-95.5201 139.113,-94.6695 140.887,-101.441"/>
</g>
<!-- Node7 -->
<g id="node7" class="node"><title>Node7</title>
<g id="a_node7"><a xlink:href="video_image_8h.html#a3ffc443b510b55d94d0aed46e4277388" target="_top" xlink:title="ar2VideoCloseImage">
<polygon fill="white" stroke="black" points="133.5,-38.5 133.5,-57.5 240.5,-57.5 240.5,-38.5 133.5,-38.5"/>
<text text-anchor="middle" x="187" y="-45.5" font-family="Helvetica,sans-Serif" font-size="10.00">ar2VideoCloseImage</text>
</a>
</g>
</g>
<!-- Node1&#45;&gt;Node7 -->
<g id="edge6" class="edge"><title>Node1&#45;&gt;Node7</title>
<path fill="none" stroke="midnightblue" d="M51.297,-114.07C64.9962,-101.384 90.4691,-79.5685 116,-67 120.681,-64.6954 125.681,-62.639 130.774,-60.8109"/>
<polygon fill="midnightblue" stroke="midnightblue" points="132.217,-64.0209 140.623,-57.5716 130.03,-57.3714 132.217,-64.0209"/>
</g>
<!-- Node8 -->
<g id="node8" class="node"><title>Node8</title>
<g id="a_node8"><a xlink:href="video_android_8h.html#afb5748a9176a3e1a8aee435726c18be2" target="_top" xlink:title="ar2VideoCloseAndroid">
<polygon fill="white" stroke="black" points="130.5,-0.5 130.5,-19.5 243.5,-19.5 243.5,-0.5 130.5,-0.5"/>
<text text-anchor="middle" x="187" y="-7.5" font-family="Helvetica,sans-Serif" font-size="10.00">ar2VideoCloseAndroid</text>
</a>
</g>
</g>
<!-- Node1&#45;&gt;Node8 -->
<g id="edge7" class="edge"><title>Node1&#45;&gt;Node8</title>
<path fill="none" stroke="midnightblue" d="M45.922,-114.236C56.1902,-94.8837 81.81,-51.5851 116,-29 119.126,-26.9351 122.471,-25.0936 125.941,-23.4514"/>
<polygon fill="midnightblue" stroke="midnightblue" points="127.456,-26.6122 135.357,-19.5533 124.779,-20.1445 127.456,-26.6122"/>
</g>
</g>
</svg>
