<?xml version="1.0" encoding="UTF-8" standalone="no"?>
<!DOCTYPE svg PUBLIC "-//W3C//DTD SVG 1.1//EN"
 "http://www.w3.org/Graphics/SVG/1.1/DTD/svg11.dtd">
<!-- Generated by graphviz version 2.38.0 (20140413.2041)
 -->
<!-- Title: ar2VideoCapStop Pages: 1 -->
<svg width="292pt" height="218pt"
 viewBox="0.00 0.00 292.00 218.00" xmlns="http://www.w3.org/2000/svg" xmlns:xlink="http://www.w3.org/1999/xlink">
<g id="graph0" class="graph" transform="scale(1 1) rotate(0) translate(4 214)">
<title>ar2VideoCapStop</title>
<polygon fill="white" stroke="none" points="-4,4 -4,-214 288,-214 288,4 -4,4"/>
<!-- Node1 -->
<g id="node1" class="node"><title>Node1</title>
<polygon fill="#bfbfbf" stroke="black" points="0,-95.5 0,-114.5 93,-114.5 93,-95.5 0,-95.5"/>
<text text-anchor="middle" x="46.5" y="-102.5" font-family="Helvetica,sans-Serif" font-size="10.00">ar2VideoCapStop</text>
</g>
<!-- Node2 -->
<g id="node2" class="node"><title>Node2</title>
<g id="a_node2"><a xlink:href="video_dummy_8h.html#a78fa5654276bc8d340ffe8182d0bcd6c" target="_top" xlink:title="ar2VideoCapStopDummy">
<polygon fill="white" stroke="black" points="142.5,-190.5 142.5,-209.5 270.5,-209.5 270.5,-190.5 142.5,-190.5"/>
<text text-anchor="middle" x="206.5" y="-197.5" font-family="Helvetica,sans-Serif" font-size="10.00">ar2VideoCapStopDummy</text>
</a>
</g>
</g>
<!-- Node1&#45;&gt;Node2 -->
<g id="edge1" class="edge"><title>Node1&#45;&gt;Node2</title>
<path fill="none" stroke="midnightblue" d="M54.9287,-114.568C68.0613,-130.8 97.0279,-163.659 129,-181 133.214,-183.286 137.707,-185.301 142.324,-187.079"/>
<polygon fill="midnightblue" stroke="midnightblue" points="141.331,-190.438 151.926,-190.401 143.62,-183.823 141.331,-190.438"/>
</g>
<!-- Node3 -->
<g id="node3" class="node"><title>Node3</title>
<g id="a_node3"><a xlink:href="video_v4_l2_8h.html#a530b43b034daf2f89586fb69e9de74aa" target="_top" xlink:title="ar2VideoCapStopV4L2">
<polygon fill="white" stroke="black" points="148.5,-152.5 148.5,-171.5 264.5,-171.5 264.5,-152.5 148.5,-152.5"/>
<text text-anchor="middle" x="206.5" y="-159.5" font-family="Helvetica,sans-Serif" font-size="10.00">ar2VideoCapStopV4L2</text>
</a>
</g>
</g>
<!-- Node1&#45;&gt;Node3 -->
<g id="edge2" class="edge"><title>Node1&#45;&gt;Node3</title>
<path fill="none" stroke="midnightblue" d="M65.5268,-114.637C81.7675,-123.019 106.48,-135.037 129,-143 136.087,-145.506 143.655,-147.811 151.171,-149.887"/>
<polygon fill="midnightblue" stroke="midnightblue" points="150.414,-153.307 160.976,-152.48 152.204,-146.539 150.414,-153.307"/>
</g>
<!-- Node4 -->
<g id="node4" class="node"><title>Node4</title>
<g id="a_node4"><a xlink:href="video1394_8h.html#a23f653b38bb02af6d9050d02b0702f94" target="_top" xlink:title="ar2VideoCapStop1394">
<polygon fill="white" stroke="black" points="149.5,-114.5 149.5,-133.5 263.5,-133.5 263.5,-114.5 149.5,-114.5"/>
<text text-anchor="middle" x="206.5" y="-121.5" font-family="Helvetica,sans-Serif" font-size="10.00">ar2VideoCapStop1394</text>
</a>
</g>
</g>
<!-- Node1&#45;&gt;Node4 -->
<g id="edge3" class="edge"><title>Node1&#45;&gt;Node4</title>
<path fill="none" stroke="midnightblue" d="M93.2001,-110.496C107.555,-112.222 123.704,-114.164 139.187,-116.026"/>
<polygon fill="midnightblue" stroke="midnightblue" points="138.893,-119.515 149.239,-117.234 139.728,-112.565 138.893,-119.515"/>
</g>
<!-- Node5 -->
<g id="node5" class="node"><title>Node5</title>
<g id="a_node5"><a xlink:href="video_a_v_foundation_8h.html#a80dffabb6c571245b002d91e9031ca64" target="_top" xlink:title="ar2VideoCapStopAVFoundation">
<polygon fill="white" stroke="black" points="129,-76.5 129,-95.5 284,-95.5 284,-76.5 129,-76.5"/>
<text text-anchor="middle" x="206.5" y="-83.5" font-family="Helvetica,sans-Serif" font-size="10.00">ar2VideoCapStopAVFoundation</text>
</a>
</g>
</g>
<!-- Node1&#45;&gt;Node5 -->
<g id="edge4" class="edge"><title>Node1&#45;&gt;Node5</title>
<path fill="none" stroke="midnightblue" d="M93.2001,-99.5044C101.345,-98.525 110.068,-97.476 118.919,-96.4116"/>
<polygon fill="midnightblue" stroke="midnightblue" points="119.432,-99.8753 128.942,-95.2063 118.596,-92.9253 119.432,-99.8753"/>
</g>
<!-- Node6 -->
<g id="node6" class="node"><title>Node6</title>
<g id="a_node6"><a xlink:href="video_image_8h.html#af8b971aac579641ba46492cbd6394293" target="_top" xlink:title="ar2VideoCapStopImage">
<polygon fill="white" stroke="black" points="146.5,-38.5 146.5,-57.5 266.5,-57.5 266.5,-38.5 146.5,-38.5"/>
<text text-anchor="middle" x="206.5" y="-45.5" font-family="Helvetica,sans-Serif" font-size="10.00">ar2VideoCapStopImage</text>
</a>
</g>
</g>
<!-- Node1&#45;&gt;Node6 -->
<g id="edge5" class="edge"><title>Node1&#45;&gt;Node6</title>
<path fill="none" stroke="midnightblue" d="M65.5268,-95.3626C81.7675,-86.9808 106.48,-74.9626 129,-67 136.087,-64.4941 143.655,-62.1889 151.171,-60.1135"/>
<polygon fill="midnightblue" stroke="midnightblue" points="152.204,-63.4607 160.976,-57.5201 150.414,-56.6934 152.204,-63.4607"/>
</g>
<!-- Node7 -->
<g id="node7" class="node"><title>Node7</title>
<g id="a_node7"><a xlink:href="video_android_8h.html#a0d13c2368b42b9e85c60830fb13fd04e" target="_top" xlink:title="ar2VideoCapStopAndroid">
<polygon fill="white" stroke="black" points="143.5,-0.5 143.5,-19.5 269.5,-19.5 269.5,-0.5 143.5,-0.5"/>
<text text-anchor="middle" x="206.5" y="-7.5" font-family="Helvetica,sans-Serif" font-size="10.00">ar2VideoCapStopAndroid</text>
</a>
</g>
</g>
<!-- Node1&#45;&gt;Node7 -->
<g id="edge6" class="edge"><title>Node1&#45;&gt;Node7</title>
<path fill="none" stroke="midnightblue" d="M54.9287,-95.4323C68.0613,-79.1995 97.0279,-46.3407 129,-29 133.214,-26.7144 137.707,-24.6986 142.324,-22.9215"/>
<polygon fill="midnightblue" stroke="midnightblue" points="143.62,-26.1768 151.926,-19.599 141.331,-19.5617 143.62,-26.1768"/>
</g>
</g>
</svg>
