<?xml version="1.0" encoding="UTF-8" standalone="no"?>
<!DOCTYPE svg PUBLIC "-//W3C//DTD SVG 1.1//EN"
 "http://www.w3.org/Graphics/SVG/1.1/DTD/svg11.dtd">
<!-- Generated by graphviz version 2.38.0 (20140413.2041)
 -->
<!-- Title: arVideoGetBufferSize Pages: 1 -->
<svg width="485pt" height="104pt"
 viewBox="0.00 0.00 485.00 104.00" xmlns="http://www.w3.org/2000/svg" xmlns:xlink="http://www.w3.org/1999/xlink">
<g id="graph0" class="graph" transform="scale(1 1) rotate(0) translate(4 100)">
<title>arVideoGetBufferSize</title>
<polygon fill="white" stroke="none" points="-4,4 -4,-100 481,-100 481,4 -4,4"/>
<!-- Node1 -->
<g id="node1" class="node"><title>Node1</title>
<polygon fill="#bfbfbf" stroke="black" points="0,-38.5 0,-57.5 111,-57.5 111,-38.5 0,-38.5"/>
<text text-anchor="middle" x="55.5" y="-45.5" font-family="Helvetica,sans-Serif" font-size="10.00">arVideoGetBufferSize</text>
</g>
<!-- Node2 -->
<g id="node2" class="node"><title>Node2</title>
<g id="a_node2"><a xlink:href="video_8h.html#a5cc31969f60d4006100771519f20a4fd" target="_top" xlink:title="ar2VideoGetBufferSize">
<polygon fill="white" stroke="black" points="147,-38.5 147,-57.5 263,-57.5 263,-38.5 147,-38.5"/>
<text text-anchor="middle" x="205" y="-45.5" font-family="Helvetica,sans-Serif" font-size="10.00">ar2VideoGetBufferSize</text>
</a>
</g>
</g>
<!-- Node1&#45;&gt;Node2 -->
<g id="edge1" class="edge"><title>Node1&#45;&gt;Node2</title>
<path fill="none" stroke="midnightblue" d="M111.004,-48C119.38,-48 128.112,-48 136.725,-48"/>
<polygon fill="midnightblue" stroke="midnightblue" points="136.753,-51.5001 146.753,-48 136.753,-44.5001 136.753,-51.5001"/>
</g>
<!-- Node3 -->
<g id="node3" class="node"><title>Node3</title>
<g id="a_node3"><a xlink:href="video_dummy_8h.html#afb9adecd6aab597bc8e24dd0a4e34f1e" target="_top" xlink:title="ar2VideoGetBufferSizeDummy">
<polygon fill="white" stroke="black" points="312.5,-76.5 312.5,-95.5 463.5,-95.5 463.5,-76.5 312.5,-76.5"/>
<text text-anchor="middle" x="388" y="-83.5" font-family="Helvetica,sans-Serif" font-size="10.00">ar2VideoGetBufferSizeDummy</text>
</a>
</g>
</g>
<!-- Node2&#45;&gt;Node3 -->
<g id="edge2" class="edge"><title>Node2&#45;&gt;Node3</title>
<path fill="none" stroke="midnightblue" d="M251.674,-57.589C275.989,-62.6939 306.08,-69.0113 331.708,-74.3918"/>
<polygon fill="midnightblue" stroke="midnightblue" points="331.149,-77.8505 341.654,-76.4799 332.587,-70.9999 331.149,-77.8505"/>
</g>
<!-- Node4 -->
<g id="node4" class="node"><title>Node4</title>
<g id="a_node4"><a xlink:href="video_a_v_foundation_8h.html#a3ab43f19930a9bf5a58fdeda6a374c96" target="_top" xlink:title="ar2VideoGetBufferSizeAVFoundation">
<polygon fill="white" stroke="black" points="299,-38.5 299,-57.5 477,-57.5 477,-38.5 299,-38.5"/>
<text text-anchor="middle" x="388" y="-45.5" font-family="Helvetica,sans-Serif" font-size="10.00">ar2VideoGetBufferSizeAVFoundation</text>
</a>
</g>
</g>
<!-- Node2&#45;&gt;Node4 -->
<g id="edge3" class="edge"><title>Node2&#45;&gt;Node4</title>
<path fill="none" stroke="midnightblue" d="M263.27,-48C271.384,-48 279.911,-48 288.536,-48"/>
<polygon fill="midnightblue" stroke="midnightblue" points="288.687,-51.5001 298.687,-48 288.687,-44.5001 288.687,-51.5001"/>
</g>
<!-- Node5 -->
<g id="node5" class="node"><title>Node5</title>
<g id="a_node5"><a xlink:href="video_image_8h.html#a50107957eca06f470b202ad0fec1c1c3" target="_top" xlink:title="ar2VideoGetBufferSizeImage">
<polygon fill="white" stroke="black" points="316.5,-0.5 316.5,-19.5 459.5,-19.5 459.5,-0.5 316.5,-0.5"/>
<text text-anchor="middle" x="388" y="-7.5" font-family="Helvetica,sans-Serif" font-size="10.00">ar2VideoGetBufferSizeImage</text>
</a>
</g>
</g>
<!-- Node2&#45;&gt;Node5 -->
<g id="edge4" class="edge"><title>Node2&#45;&gt;Node5</title>
<path fill="none" stroke="midnightblue" d="M251.674,-38.411C275.989,-33.3061 306.08,-26.9887 331.708,-21.6082"/>
<polygon fill="midnightblue" stroke="midnightblue" points="332.587,-25.0001 341.654,-19.5201 331.149,-18.1495 332.587,-25.0001"/>
</g>
</g>
</svg>
