<?xml version="1.0" encoding="UTF-8" standalone="no"?>
<!DOCTYPE svg PUBLIC "-//W3C//DTD SVG 1.1//EN"
 "http://www.w3.org/Graphics/SVG/1.1/DTD/svg11.dtd">
<!-- Generated by graphviz version 2.38.0 (20140413.2041)
 -->
<!-- Title: ar2VideoGetSize Pages: 1 -->
<svg width="286pt" height="218pt"
 viewBox="0.00 0.00 286.00 218.00" xmlns="http://www.w3.org/2000/svg" xmlns:xlink="http://www.w3.org/1999/xlink">
<g id="graph0" class="graph" transform="scale(1 1) rotate(0) translate(4 214)">
<title>ar2VideoGetSize</title>
<polygon fill="white" stroke="none" points="-4,4 -4,-214 282,-214 282,4 -4,4"/>
<!-- Node1 -->
<g id="node1" class="node"><title>Node1</title>
<polygon fill="#bfbfbf" stroke="black" points="0,-95.5 0,-114.5 90,-114.5 90,-95.5 0,-95.5"/>
<text text-anchor="middle" x="45" y="-102.5" font-family="Helvetica,sans-Serif" font-size="10.00">ar2VideoGetSize</text>
</g>
<!-- Node2 -->
<g id="node2" class="node"><title>Node2</title>
<g id="a_node2"><a xlink:href="video_dummy_8h.html#a98be3ece55a3751acf6653ccd4d76c57" target="_top" xlink:title="ar2VideoGetSizeDummy">
<polygon fill="white" stroke="black" points="139.5,-190.5 139.5,-209.5 264.5,-209.5 264.5,-190.5 139.5,-190.5"/>
<text text-anchor="middle" x="202" y="-197.5" font-family="Helvetica,sans-Serif" font-size="10.00">ar2VideoGetSizeDummy</text>
</a>
</g>
</g>
<!-- Node1&#45;&gt;Node2 -->
<g id="edge1" class="edge"><title>Node1&#45;&gt;Node2</title>
<path fill="none" stroke="midnightblue" d="M53.2592,-114.557C66.1008,-130.774 94.4618,-163.609 126,-181 130.19,-183.311 134.667,-185.346 139.269,-187.138"/>
<polygon fill="midnightblue" stroke="midnightblue" points="138.244,-190.488 148.839,-190.486 140.555,-183.88 138.244,-190.488"/>
</g>
<!-- Node3 -->
<g id="node3" class="node"><title>Node3</title>
<g id="a_node3"><a xlink:href="video_v4_l2_8h.html#a4cd15e53200db9db8334fa4c42fc1b56" target="_top" xlink:title="ar2VideoGetSizeV4L2">
<polygon fill="white" stroke="black" points="145.5,-152.5 145.5,-171.5 258.5,-171.5 258.5,-152.5 145.5,-152.5"/>
<text text-anchor="middle" x="202" y="-159.5" font-family="Helvetica,sans-Serif" font-size="10.00">ar2VideoGetSizeV4L2</text>
</a>
</g>
</g>
<!-- Node1&#45;&gt;Node3 -->
<g id="edge2" class="edge"><title>Node1&#45;&gt;Node3</title>
<path fill="none" stroke="midnightblue" d="M63.6816,-114.632C79.6144,-123.01 103.867,-135.026 126,-143 132.864,-145.473 140.191,-147.751 147.476,-149.807"/>
<polygon fill="midnightblue" stroke="midnightblue" points="146.769,-153.242 157.336,-152.469 148.594,-146.484 146.769,-153.242"/>
</g>
<!-- Node4 -->
<g id="node4" class="node"><title>Node4</title>
<g id="a_node4"><a xlink:href="video1394_8h.html#a8edcf3e75cdc9d9a0a46e5c949fe024c" target="_top" xlink:title="ar2VideoGetSize1394">
<polygon fill="white" stroke="black" points="146.5,-114.5 146.5,-133.5 257.5,-133.5 257.5,-114.5 146.5,-114.5"/>
<text text-anchor="middle" x="202" y="-121.5" font-family="Helvetica,sans-Serif" font-size="10.00">ar2VideoGetSize1394</text>
</a>
</g>
</g>
<!-- Node1&#45;&gt;Node4 -->
<g id="edge3" class="edge"><title>Node1&#45;&gt;Node4</title>
<path fill="none" stroke="midnightblue" d="M90.0022,-110.394C104.392,-112.158 120.69,-114.156 136.279,-116.066"/>
<polygon fill="midnightblue" stroke="midnightblue" points="136.042,-119.564 146.394,-117.306 136.894,-112.616 136.042,-119.564"/>
</g>
<!-- Node5 -->
<g id="node5" class="node"><title>Node5</title>
<g id="a_node5"><a xlink:href="video_a_v_foundation_8h.html#a039c73ba8a3e6ec85abe801637b2be6f" target="_top" xlink:title="ar2VideoGetSizeAVFoundation">
<polygon fill="white" stroke="black" points="126,-76.5 126,-95.5 278,-95.5 278,-76.5 126,-76.5"/>
<text text-anchor="middle" x="202" y="-83.5" font-family="Helvetica,sans-Serif" font-size="10.00">ar2VideoGetSizeAVFoundation</text>
</a>
</g>
</g>
<!-- Node1&#45;&gt;Node5 -->
<g id="edge4" class="edge"><title>Node1&#45;&gt;Node5</title>
<path fill="none" stroke="midnightblue" d="M90.0022,-99.6062C98.1307,-98.6098 106.868,-97.5388 115.742,-96.4509"/>
<polygon fill="midnightblue" stroke="midnightblue" points="116.295,-99.9095 125.795,-95.2187 115.443,-92.9615 116.295,-99.9095"/>
</g>
<!-- Node6 -->
<g id="node6" class="node"><title>Node6</title>
<g id="a_node6"><a xlink:href="video_image_8h.html#a0faf54541ccba547d219e20002c36302" target="_top" xlink:title="ar2VideoGetSizeImage">
<polygon fill="white" stroke="black" points="143.5,-38.5 143.5,-57.5 260.5,-57.5 260.5,-38.5 143.5,-38.5"/>
<text text-anchor="middle" x="202" y="-45.5" font-family="Helvetica,sans-Serif" font-size="10.00">ar2VideoGetSizeImage</text>
</a>
</g>
</g>
<!-- Node1&#45;&gt;Node6 -->
<g id="edge5" class="edge"><title>Node1&#45;&gt;Node6</title>
<path fill="none" stroke="midnightblue" d="M63.6816,-95.3679C79.6144,-86.9895 103.867,-74.9735 126,-67 132.864,-64.5274 140.191,-62.2487 147.476,-60.193"/>
<polygon fill="midnightblue" stroke="midnightblue" points="148.594,-63.5164 157.336,-57.5307 146.769,-56.7584 148.594,-63.5164"/>
</g>
<!-- Node7 -->
<g id="node7" class="node"><title>Node7</title>
<g id="a_node7"><a xlink:href="video_android_8h.html#aafb49599502c8ce1d9f2c360cbb86caa" target="_top" xlink:title="ar2VideoGetSizeAndroid">
<polygon fill="white" stroke="black" points="140.5,-0.5 140.5,-19.5 263.5,-19.5 263.5,-0.5 140.5,-0.5"/>
<text text-anchor="middle" x="202" y="-7.5" font-family="Helvetica,sans-Serif" font-size="10.00">ar2VideoGetSizeAndroid</text>
</a>
</g>
</g>
<!-- Node1&#45;&gt;Node7 -->
<g id="edge6" class="edge"><title>Node1&#45;&gt;Node7</title>
<path fill="none" stroke="midnightblue" d="M53.2592,-95.443C66.1008,-79.2263 94.4618,-46.391 126,-29 130.19,-26.6893 134.667,-24.6538 139.269,-22.8616"/>
<polygon fill="midnightblue" stroke="midnightblue" points="140.555,-26.1196 148.839,-19.5145 138.244,-19.5121 140.555,-26.1196"/>
</g>
</g>
</svg>
