<?xml version="1.0" encoding="UTF-8" standalone="no"?>
<!DOCTYPE svg PUBLIC "-//W3C//DTD SVG 1.1//EN"
 "http://www.w3.org/Graphics/SVG/1.1/DTD/svg11.dtd">
<!-- Generated by graphviz version 2.38.0 (20140413.2041)
 -->
<!-- Title: arVideoGetPixelFormat Pages: 1 -->
<svg width="506pt" height="218pt"
 viewBox="0.00 0.00 506.00 218.00" xmlns="http://www.w3.org/2000/svg" xmlns:xlink="http://www.w3.org/1999/xlink">
<g id="graph0" class="graph" transform="scale(1 1) rotate(0) translate(4 214)">
<title>arVideoGetPixelFormat</title>
<polygon fill="white" stroke="none" points="-4,4 -4,-214 502,-214 502,4 -4,4"/>
<!-- Node1 -->
<g id="node1" class="node"><title>Node1</title>
<polygon fill="#bfbfbf" stroke="black" points="0,-95.5 0,-114.5 118,-114.5 118,-95.5 0,-95.5"/>
<text text-anchor="middle" x="59" y="-102.5" font-family="Helvetica,sans-Serif" font-size="10.00">arVideoGetPixelFormat</text>
</g>
<!-- Node2 -->
<g id="node2" class="node"><title>Node2</title>
<g id="a_node2"><a xlink:href="video_8h.html#ac87cc80e94e3e4d1dbe0da408d4f2d28" target="_top" xlink:title="ar2VideoGetPixelFormat">
<polygon fill="white" stroke="black" points="154,-95.5 154,-114.5 277,-114.5 277,-95.5 154,-95.5"/>
<text text-anchor="middle" x="215.5" y="-102.5" font-family="Helvetica,sans-Serif" font-size="10.00">ar2VideoGetPixelFormat</text>
</a>
</g>
</g>
<!-- Node1&#45;&gt;Node2 -->
<g id="edge1" class="edge"><title>Node1&#45;&gt;Node2</title>
<path fill="none" stroke="midnightblue" d="M118.41,-105C126.672,-105 135.24,-105 143.705,-105"/>
<polygon fill="midnightblue" stroke="midnightblue" points="143.95,-108.5 153.95,-105 143.95,-101.5 143.95,-108.5"/>
</g>
<!-- Node3 -->
<g id="node3" class="node"><title>Node3</title>
<g id="a_node3"><a xlink:href="video_dummy_8h.html#aef5bd63c5abf5e4479664647c084644b" target="_top" xlink:title="ar2VideoGetPixelFormatDummy">
<polygon fill="white" stroke="black" points="326.5,-190.5 326.5,-209.5 484.5,-209.5 484.5,-190.5 326.5,-190.5"/>
<text text-anchor="middle" x="405.5" y="-197.5" font-family="Helvetica,sans-Serif" font-size="10.00">ar2VideoGetPixelFormatDummy</text>
</a>
</g>
</g>
<!-- Node2&#45;&gt;Node3 -->
<g id="edge2" class="edge"><title>Node2&#45;&gt;Node3</title>
<path fill="none" stroke="midnightblue" d="M225.616,-114.655C241.65,-131.019 276.658,-164.071 313,-181 318.37,-183.502 324.07,-185.676 329.897,-187.566"/>
<polygon fill="midnightblue" stroke="midnightblue" points="329.203,-191.011 339.785,-190.485 331.185,-184.297 329.203,-191.011"/>
</g>
<!-- Node4 -->
<g id="node4" class="node"><title>Node4</title>
<g id="a_node4"><a xlink:href="video_v4_l2_8h.html#aab61669af9d839aa23ecd79d1c4bde5a" target="_top" xlink:title="ar2VideoGetPixelFormatV4L2">
<polygon fill="white" stroke="black" points="332.5,-152.5 332.5,-171.5 478.5,-171.5 478.5,-152.5 332.5,-152.5"/>
<text text-anchor="middle" x="405.5" y="-159.5" font-family="Helvetica,sans-Serif" font-size="10.00">ar2VideoGetPixelFormatV4L2</text>
</a>
</g>
</g>
<!-- Node2&#45;&gt;Node4 -->
<g id="edge3" class="edge"><title>Node2&#45;&gt;Node4</title>
<path fill="none" stroke="midnightblue" d="M237.596,-114.515C256.905,-122.931 286.429,-135.073 313,-143 322,-145.685 331.609,-148.128 341.091,-150.3"/>
<polygon fill="midnightblue" stroke="midnightblue" points="340.376,-153.726 350.895,-152.464 341.885,-146.891 340.376,-153.726"/>
</g>
<!-- Node5 -->
<g id="node5" class="node"><title>Node5</title>
<g id="a_node5"><a xlink:href="video1394_8h.html#a1eb40205f18baab9d12c0bc187e9b50e" target="_top" xlink:title="ar2VideoGetPixelFormat1394">
<polygon fill="white" stroke="black" points="333.5,-114.5 333.5,-133.5 477.5,-133.5 477.5,-114.5 333.5,-114.5"/>
<text text-anchor="middle" x="405.5" y="-121.5" font-family="Helvetica,sans-Serif" font-size="10.00">ar2VideoGetPixelFormat1394</text>
</a>
</g>
</g>
<!-- Node2&#45;&gt;Node5 -->
<g id="edge4" class="edge"><title>Node2&#45;&gt;Node5</title>
<path fill="none" stroke="midnightblue" d="M277.019,-111.116C291.724,-112.602 307.686,-114.216 323.18,-115.782"/>
<polygon fill="midnightblue" stroke="midnightblue" points="322.975,-119.279 333.277,-116.802 323.679,-112.314 322.975,-119.279"/>
</g>
<!-- Node6 -->
<g id="node6" class="node"><title>Node6</title>
<g id="a_node6"><a xlink:href="video_a_v_foundation_8h.html#a98d99736ba21ff6f85c9da3e0e2acab8" target="_top" xlink:title="ar2VideoGetPixelFormatAVFoundation">
<polygon fill="white" stroke="black" points="313,-76.5 313,-95.5 498,-95.5 498,-76.5 313,-76.5"/>
<text text-anchor="middle" x="405.5" y="-83.5" font-family="Helvetica,sans-Serif" font-size="10.00">ar2VideoGetPixelFormatAVFoundation</text>
</a>
</g>
</g>
<!-- Node2&#45;&gt;Node6 -->
<g id="edge5" class="edge"><title>Node2&#45;&gt;Node6</title>
<path fill="none" stroke="midnightblue" d="M277.019,-98.8837C285.364,-98.0403 294.114,-97.156 302.953,-96.2627"/>
<polygon fill="midnightblue" stroke="midnightblue" points="303.357,-99.7398 312.955,-95.2519 302.653,-92.7753 303.357,-99.7398"/>
</g>
<!-- Node7 -->
<g id="node7" class="node"><title>Node7</title>
<g id="a_node7"><a xlink:href="video_image_8h.html#a4e14913d6bea4a02cd3d17ddd95e2544" target="_top" xlink:title="ar2VideoGetPixelFormatImage">
<polygon fill="white" stroke="black" points="330.5,-38.5 330.5,-57.5 480.5,-57.5 480.5,-38.5 330.5,-38.5"/>
<text text-anchor="middle" x="405.5" y="-45.5" font-family="Helvetica,sans-Serif" font-size="10.00">ar2VideoGetPixelFormatImage</text>
</a>
</g>
</g>
<!-- Node2&#45;&gt;Node7 -->
<g id="edge6" class="edge"><title>Node2&#45;&gt;Node7</title>
<path fill="none" stroke="midnightblue" d="M237.596,-95.4849C256.905,-87.0685 286.429,-74.9274 313,-67 322,-64.3148 331.609,-61.8724 341.091,-59.7004"/>
<polygon fill="midnightblue" stroke="midnightblue" points="341.885,-63.1095 350.895,-57.5359 340.376,-56.2741 341.885,-63.1095"/>
</g>
<!-- Node8 -->
<g id="node8" class="node"><title>Node8</title>
<g id="a_node8"><a xlink:href="video_android_8h.html#ac511ed131837c08ea6f17725dd87d2bc" target="_top" xlink:title="ar2VideoGetPixelFormatAndroid">
<polygon fill="white" stroke="black" points="327.5,-0.5 327.5,-19.5 483.5,-19.5 483.5,-0.5 327.5,-0.5"/>
<text text-anchor="middle" x="405.5" y="-7.5" font-family="Helvetica,sans-Serif" font-size="10.00">ar2VideoGetPixelFormatAndroid</text>
</a>
</g>
</g>
<!-- Node2&#45;&gt;Node8 -->
<g id="edge7" class="edge"><title>Node2&#45;&gt;Node8</title>
<path fill="none" stroke="midnightblue" d="M225.616,-95.3451C241.65,-78.9807 276.658,-45.9288 313,-29 318.37,-26.4984 324.07,-24.3239 329.897,-22.4341"/>
<polygon fill="midnightblue" stroke="midnightblue" points="331.185,-25.703 339.785,-19.5149 329.203,-18.9895 331.185,-25.703"/>
</g>
</g>
</svg>
