<?xml version="1.0" encoding="UTF-8" standalone="no"?>
<!DOCTYPE svg PUBLIC "-//W3C//DTD SVG 1.1//EN"
 "http://www.w3.org/Graphics/SVG/1.1/DTD/svg11.dtd">
<!-- Generated by graphviz version 2.38.0 (20140413.2041)
 -->
<!-- Title: arVideoGetImage Pages: 1 -->
<svg width="650pt" height="560pt"
 viewBox="0.00 0.00 650.00 560.00" xmlns="http://www.w3.org/2000/svg" xmlns:xlink="http://www.w3.org/1999/xlink">
<g id="graph0" class="graph" transform="scale(1 1) rotate(0) translate(4 556)">
<title>arVideoGetImage</title>
<polygon fill="white" stroke="none" points="-4,4 -4,-556 646,-556 646,4 -4,4"/>
<!-- Node1 -->
<g id="node1" class="node"><title>Node1</title>
<polygon fill="#bfbfbf" stroke="black" points="0,-342.5 0,-361.5 92,-361.5 92,-342.5 0,-342.5"/>
<text text-anchor="middle" x="46" y="-349.5" font-family="Helvetica,sans-Serif" font-size="10.00">arVideoGetImage</text>
</g>
<!-- Node2 -->
<g id="node2" class="node"><title>Node2</title>
<g id="a_node2"><a xlink:href="video_8h.html#a0dbd5f4535b07a354ab860dc1a28ba13" target="_top" xlink:title="ar2VideoGetImage">
<polygon fill="white" stroke="black" points="128,-342.5 128,-361.5 226,-361.5 226,-342.5 128,-342.5"/>
<text text-anchor="middle" x="177" y="-349.5" font-family="Helvetica,sans-Serif" font-size="10.00">ar2VideoGetImage</text>
</a>
</g>
</g>
<!-- Node1&#45;&gt;Node2 -->
<g id="edge1" class="edge"><title>Node1&#45;&gt;Node2</title>
<path fill="none" stroke="midnightblue" d="M92.1179,-352C100.279,-352 108.897,-352 117.378,-352"/>
<polygon fill="midnightblue" stroke="midnightblue" points="117.615,-355.5 127.615,-352 117.615,-348.5 117.615,-355.5"/>
</g>
<!-- Node3 -->
<g id="node3" class="node"><title>Node3</title>
<g id="a_node3"><a xlink:href="video_dummy_8h.html#a9d99f8db2e250352a561ed1f4815d787" target="_top" xlink:title="ar2VideoGetImageDummy">
<polygon fill="white" stroke="black" points="275.5,-532.5 275.5,-551.5 407.5,-551.5 407.5,-532.5 275.5,-532.5"/>
<text text-anchor="middle" x="341.5" y="-539.5" font-family="Helvetica,sans-Serif" font-size="10.00">ar2VideoGetImageDummy</text>
</a>
</g>
</g>
<!-- Node2&#45;&gt;Node3 -->
<g id="edge2" class="edge"><title>Node2&#45;&gt;Node3</title>
<path fill="none" stroke="midnightblue" d="M179.743,-361.531C185.588,-390.651 207.292,-479.136 262,-523 264.181,-524.749 266.499,-526.34 268.918,-527.789"/>
<polygon fill="midnightblue" stroke="midnightblue" points="267.562,-531.025 278.063,-532.431 270.73,-524.784 267.562,-531.025"/>
</g>
<!-- Node4 -->
<g id="node4" class="node"><title>Node4</title>
<g id="a_node4"><a xlink:href="video_v4_l2_8h.html#a4ed571b37c42df8b8179d0fcc13e4dcf" target="_top" xlink:title="ar2VideoGetImageV4L2">
<polygon fill="white" stroke="black" points="281.5,-494.5 281.5,-513.5 401.5,-513.5 401.5,-494.5 281.5,-494.5"/>
<text text-anchor="middle" x="341.5" y="-501.5" font-family="Helvetica,sans-Serif" font-size="10.00">ar2VideoGetImageV4L2</text>
</a>
</g>
</g>
<!-- Node2&#45;&gt;Node4 -->
<g id="edge3" class="edge"><title>Node2&#45;&gt;Node4</title>
<path fill="none" stroke="midnightblue" d="M181.257,-361.846C190.012,-386.708 216.515,-452.358 262,-485 265.087,-487.215 268.399,-489.174 271.855,-490.906"/>
<polygon fill="midnightblue" stroke="midnightblue" points="270.714,-494.226 281.282,-494.983 273.493,-487.801 270.714,-494.226"/>
</g>
<!-- Node5 -->
<g id="node5" class="node"><title>Node5</title>
<g id="a_node5"><a xlink:href="video1394_8h.html#ab79fe53e260d3c16958b511e77625ea8" target="_top" xlink:title="ar2VideoGetImage1394">
<polygon fill="white" stroke="black" points="282,-456.5 282,-475.5 401,-475.5 401,-456.5 282,-456.5"/>
<text text-anchor="middle" x="341.5" y="-463.5" font-family="Helvetica,sans-Serif" font-size="10.00">ar2VideoGetImage1394</text>
</a>
</g>
</g>
<!-- Node2&#45;&gt;Node5 -->
<g id="edge4" class="edge"><title>Node2&#45;&gt;Node5</title>
<path fill="none" stroke="midnightblue" d="M183.588,-361.54C195.434,-380.877 225.036,-424.736 262,-447 265.648,-449.198 269.536,-451.141 273.555,-452.86"/>
<polygon fill="midnightblue" stroke="midnightblue" points="272.529,-456.214 283.12,-456.477 275.005,-449.666 272.529,-456.214"/>
</g>
<!-- Node6 -->
<g id="node6" class="node"><title>Node6</title>
<g id="a_node6"><a xlink:href="video_a_v_foundation_8h.html#aad99b0428037a3f727de35853639b851" target="_top" xlink:title="ar2VideoGetImageAVFoundation">
<polygon fill="white" stroke="black" points="262,-418.5 262,-437.5 421,-437.5 421,-418.5 262,-418.5"/>
<text text-anchor="middle" x="341.5" y="-425.5" font-family="Helvetica,sans-Serif" font-size="10.00">ar2VideoGetImageAVFoundation</text>
</a>
</g>
</g>
<!-- Node2&#45;&gt;Node6 -->
<g id="edge5" class="edge"><title>Node2&#45;&gt;Node6</title>
<path fill="none" stroke="midnightblue" d="M189.173,-361.541C204.571,-374.21 233.638,-396.442 262,-409 267.637,-411.496 273.654,-413.695 279.753,-415.626"/>
<polygon fill="midnightblue" stroke="midnightblue" points="278.782,-418.989 289.363,-418.443 280.751,-412.271 278.782,-418.989"/>
</g>
<!-- Node7 -->
<g id="node7" class="node"><title>Node7</title>
<g id="a_node7"><a xlink:href="video_image_8h.html#a011bf1d53feddc3494993d92115cc1ed" target="_top" xlink:title="ar2VideoGetImageImage">
<polygon fill="white" stroke="black" points="279,-380.5 279,-399.5 404,-399.5 404,-380.5 279,-380.5"/>
<text text-anchor="middle" x="341.5" y="-387.5" font-family="Helvetica,sans-Serif" font-size="10.00">ar2VideoGetImageImage</text>
</a>
</g>
</g>
<!-- Node2&#45;&gt;Node7 -->
<g id="edge6" class="edge"><title>Node2&#45;&gt;Node7</title>
<path fill="none" stroke="midnightblue" d="M219.006,-361.589C240.546,-366.626 267.135,-372.844 289.941,-378.177"/>
<polygon fill="midnightblue" stroke="midnightblue" points="289.255,-381.611 299.789,-380.48 290.849,-374.795 289.255,-381.611"/>
</g>
<!-- Node8 -->
<g id="node8" class="node"><title>Node8</title>
<g id="a_node8"><a xlink:href="video_android_8h.html#a1a25a95765371fcdbf082424d4417661" target="_top" xlink:title="ar2VideoGetImageAndroid">
<polygon fill="white" stroke="black" points="276,-342.5 276,-361.5 407,-361.5 407,-342.5 276,-342.5"/>
<text text-anchor="middle" x="341.5" y="-349.5" font-family="Helvetica,sans-Serif" font-size="10.00">ar2VideoGetImageAndroid</text>
</a>
</g>
</g>
<!-- Node2&#45;&gt;Node8 -->
<g id="edge7" class="edge"><title>Node2&#45;&gt;Node8</title>
<path fill="none" stroke="midnightblue" d="M226.315,-352C238.691,-352 252.294,-352 265.664,-352"/>
<polygon fill="midnightblue" stroke="midnightblue" points="265.818,-355.5 275.818,-352 265.818,-348.5 265.818,-355.5"/>
</g>
<!-- Node9 -->
<g id="node9" class="node"><title>Node9</title>
<g id="a_node9"><a xlink:href="time_8h.html#ab80828fdf39cd90319db43f6b56b0948" target="_top" xlink:title="Get the time in seconds since midnight (00:00:00), January 1, 1970, coordinated universal time (UTC)...">
<polygon fill="white" stroke="black" points="284.5,-304.5 284.5,-323.5 398.5,-323.5 398.5,-304.5 284.5,-304.5"/>
<text text-anchor="middle" x="341.5" y="-311.5" font-family="Helvetica,sans-Serif" font-size="10.00">arUtilTimeSinceEpoch</text>
</a>
</g>
</g>
<!-- Node2&#45;&gt;Node9 -->
<g id="edge8" class="edge"><title>Node2&#45;&gt;Node9</title>
<path fill="none" stroke="midnightblue" d="M219.006,-342.411C240.546,-337.374 267.135,-331.156 289.941,-325.823"/>
<polygon fill="midnightblue" stroke="midnightblue" points="290.849,-329.205 299.789,-323.52 289.255,-322.389 290.849,-329.205"/>
</g>
<!-- Node10 -->
<g id="node10" class="node"><title>Node10</title>
<g id="a_node10"><a xlink:href="video2_8c.html#a7780fac88f8c59974d8d9fe6d4a8047a" target="_top" xlink:title="ar2VideoGetPixelFormat">
<polygon fill="white" stroke="black" points="280,-266.5 280,-285.5 403,-285.5 403,-266.5 280,-266.5"/>
<text text-anchor="middle" x="341.5" y="-273.5" font-family="Helvetica,sans-Serif" font-size="10.00">ar2VideoGetPixelFormat</text>
</a>
</g>
</g>
<!-- Node2&#45;&gt;Node10 -->
<g id="edge9" class="edge"><title>Node2&#45;&gt;Node10</title>
<path fill="none" stroke="midnightblue" d="M189.173,-342.459C204.571,-329.79 233.638,-307.558 262,-295 267.637,-292.504 273.654,-290.305 279.753,-288.374"/>
<polygon fill="midnightblue" stroke="midnightblue" points="280.751,-291.729 289.363,-285.557 278.782,-285.011 280.751,-291.729"/>
</g>
<!-- Node17 -->
<g id="node17" class="node"><title>Node17</title>
<g id="a_node17"><a xlink:href="video2_8c.html#acc7f53f8bda5c4e3fc3a9c662b5196fb" target="_top" xlink:title="ar2VideoGetSize">
<polygon fill="white" stroke="black" points="296.5,-152.5 296.5,-171.5 386.5,-171.5 386.5,-152.5 296.5,-152.5"/>
<text text-anchor="middle" x="341.5" y="-159.5" font-family="Helvetica,sans-Serif" font-size="10.00">ar2VideoGetSize</text>
</a>
</g>
</g>
<!-- Node2&#45;&gt;Node17 -->
<g id="edge16" class="edge"><title>Node2&#45;&gt;Node17</title>
<path fill="none" stroke="midnightblue" d="M186.282,-342.317C212.137,-312.086 291.634,-219.135 325.245,-179.837"/>
<polygon fill="midnightblue" stroke="midnightblue" points="328.2,-181.766 332.04,-171.892 322.88,-177.216 328.2,-181.766"/>
</g>
<!-- Node24 -->
<g id="node24" class="node"><title>Node24</title>
<g id="a_node24"><a xlink:href="video_luma_8h.html#a6d74b1b7f2c20f3e81e3c416f2154267" target="_top" xlink:title="arVideoLumaInit">
<polygon fill="white" stroke="black" points="298,-114.5 298,-133.5 385,-133.5 385,-114.5 298,-114.5"/>
<text text-anchor="middle" x="341.5" y="-121.5" font-family="Helvetica,sans-Serif" font-size="10.00">arVideoLumaInit</text>
</a>
</g>
</g>
<!-- Node2&#45;&gt;Node24 -->
<g id="edge23" class="edge"><title>Node2&#45;&gt;Node24</title>
<path fill="none" stroke="midnightblue" d="M178.832,-342.334C182.234,-309.057 198.111,-198.255 262,-143 269.399,-136.601 278.596,-132.278 288.06,-129.376"/>
<polygon fill="midnightblue" stroke="midnightblue" points="289.139,-132.713 297.956,-126.838 287.4,-125.932 289.139,-132.713"/>
</g>
<!-- Node25 -->
<g id="node25" class="node"><title>Node25</title>
<g id="a_node25"><a xlink:href="video_luma_8h.html#a639d18be34603fc2ab1835ee493baf55" target="_top" xlink:title="arVideoLuma">
<polygon fill="white" stroke="black" points="304.5,-76.5 304.5,-95.5 378.5,-95.5 378.5,-76.5 304.5,-76.5"/>
<text text-anchor="middle" x="341.5" y="-83.5" font-family="Helvetica,sans-Serif" font-size="10.00">arVideoLuma</text>
</a>
</g>
</g>
<!-- Node2&#45;&gt;Node25 -->
<g id="edge24" class="edge"><title>Node2&#45;&gt;Node25</title>
<path fill="none" stroke="midnightblue" d="M178.159,-342.458C179.314,-305.709 188.597,-172.054 262,-105 270.808,-96.954 282.431,-92.1574 294.027,-89.3392"/>
<polygon fill="midnightblue" stroke="midnightblue" points="295.006,-92.7133 304.137,-87.3398 293.648,-85.8463 295.006,-92.7133"/>
</g>
<!-- Node11 -->
<g id="node11" class="node"><title>Node11</title>
<g id="a_node11"><a xlink:href="video_dummy_8h.html#aef5bd63c5abf5e4479664647c084644b" target="_top" xlink:title="ar2VideoGetPixelFormatDummy">
<polygon fill="white" stroke="black" points="470.5,-418.5 470.5,-437.5 628.5,-437.5 628.5,-418.5 470.5,-418.5"/>
<text text-anchor="middle" x="549.5" y="-425.5" font-family="Helvetica,sans-Serif" font-size="10.00">ar2VideoGetPixelFormatDummy</text>
</a>
</g>
</g>
<!-- Node10&#45;&gt;Node11 -->
<g id="edge10" class="edge"><title>Node10&#45;&gt;Node11</title>
<path fill="none" stroke="midnightblue" d="M403.232,-283.813C409.759,-286.574 415.876,-290.215 421,-295 459.834,-331.264 417.578,-373.376 457,-409 458.712,-410.547 460.515,-411.98 462.396,-413.308"/>
<polygon fill="midnightblue" stroke="midnightblue" points="460.7,-416.372 471.083,-418.48 464.281,-410.357 460.7,-416.372"/>
</g>
<!-- Node12 -->
<g id="node12" class="node"><title>Node12</title>
<g id="a_node12"><a xlink:href="video_v4_l2_8h.html#aab61669af9d839aa23ecd79d1c4bde5a" target="_top" xlink:title="ar2VideoGetPixelFormatV4L2">
<polygon fill="white" stroke="black" points="476.5,-380.5 476.5,-399.5 622.5,-399.5 622.5,-380.5 476.5,-380.5"/>
<text text-anchor="middle" x="549.5" y="-387.5" font-family="Helvetica,sans-Serif" font-size="10.00">ar2VideoGetPixelFormatV4L2</text>
</a>
</g>
</g>
<!-- Node10&#45;&gt;Node12 -->
<g id="edge11" class="edge"><title>Node10&#45;&gt;Node12</title>
<path fill="none" stroke="midnightblue" d="M403.019,-284.673C409.505,-287.292 415.67,-290.664 421,-295 449.993,-318.587 427.625,-347.891 457,-371 460.138,-373.469 463.518,-375.638 467.065,-377.544"/>
<polygon fill="midnightblue" stroke="midnightblue" points="465.636,-380.739 476.182,-381.755 468.571,-374.384 465.636,-380.739"/>
</g>
<!-- Node13 -->
<g id="node13" class="node"><title>Node13</title>
<g id="a_node13"><a xlink:href="video1394_8h.html#a1eb40205f18baab9d12c0bc187e9b50e" target="_top" xlink:title="ar2VideoGetPixelFormat1394">
<polygon fill="white" stroke="black" points="477.5,-342.5 477.5,-361.5 621.5,-361.5 621.5,-342.5 477.5,-342.5"/>
<text text-anchor="middle" x="549.5" y="-349.5" font-family="Helvetica,sans-Serif" font-size="10.00">ar2VideoGetPixelFormat1394</text>
</a>
</g>
</g>
<!-- Node10&#45;&gt;Node13 -->
<g id="edge12" class="edge"><title>Node10&#45;&gt;Node13</title>
<path fill="none" stroke="midnightblue" d="M399.344,-285.598C406.897,-288.054 414.326,-291.135 421,-295 441.132,-306.659 436.68,-321.672 457,-333 461.014,-335.238 465.261,-337.213 469.638,-338.957"/>
<polygon fill="midnightblue" stroke="midnightblue" points="468.799,-342.372 479.393,-342.415 471.138,-335.775 468.799,-342.372"/>
</g>
<!-- Node14 -->
<g id="node14" class="node"><title>Node14</title>
<g id="a_node14"><a xlink:href="video_a_v_foundation_8h.html#a98d99736ba21ff6f85c9da3e0e2acab8" target="_top" xlink:title="ar2VideoGetPixelFormatAVFoundation">
<polygon fill="white" stroke="black" points="457,-304.5 457,-323.5 642,-323.5 642,-304.5 457,-304.5"/>
<text text-anchor="middle" x="549.5" y="-311.5" font-family="Helvetica,sans-Serif" font-size="10.00">ar2VideoGetPixelFormatAVFoundation</text>
</a>
</g>
</g>
<!-- Node10&#45;&gt;Node14 -->
<g id="edge13" class="edge"><title>Node10&#45;&gt;Node14</title>
<path fill="none" stroke="midnightblue" d="M394.217,-285.54C422.256,-290.712 457.102,-297.14 486.579,-302.578"/>
<polygon fill="midnightblue" stroke="midnightblue" points="486.293,-306.084 496.762,-304.456 487.563,-299.2 486.293,-306.084"/>
</g>
<!-- Node15 -->
<g id="node15" class="node"><title>Node15</title>
<g id="a_node15"><a xlink:href="video_image_8h.html#a4e14913d6bea4a02cd3d17ddd95e2544" target="_top" xlink:title="ar2VideoGetPixelFormatImage">
<polygon fill="white" stroke="black" points="474.5,-266.5 474.5,-285.5 624.5,-285.5 624.5,-266.5 474.5,-266.5"/>
<text text-anchor="middle" x="549.5" y="-273.5" font-family="Helvetica,sans-Serif" font-size="10.00">ar2VideoGetPixelFormatImage</text>
</a>
</g>
</g>
<!-- Node10&#45;&gt;Node15 -->
<g id="edge14" class="edge"><title>Node10&#45;&gt;Node15</title>
<path fill="none" stroke="midnightblue" d="M403.193,-276C422.28,-276 443.713,-276 464.136,-276"/>
<polygon fill="midnightblue" stroke="midnightblue" points="464.384,-279.5 474.384,-276 464.384,-272.5 464.384,-279.5"/>
</g>
<!-- Node16 -->
<g id="node16" class="node"><title>Node16</title>
<g id="a_node16"><a xlink:href="video_android_8h.html#ac511ed131837c08ea6f17725dd87d2bc" target="_top" xlink:title="ar2VideoGetPixelFormatAndroid">
<polygon fill="white" stroke="black" points="471.5,-228.5 471.5,-247.5 627.5,-247.5 627.5,-228.5 471.5,-228.5"/>
<text text-anchor="middle" x="549.5" y="-235.5" font-family="Helvetica,sans-Serif" font-size="10.00">ar2VideoGetPixelFormatAndroid</text>
</a>
</g>
</g>
<!-- Node10&#45;&gt;Node16 -->
<g id="edge15" class="edge"><title>Node10&#45;&gt;Node16</title>
<path fill="none" stroke="midnightblue" d="M394.217,-266.46C422.256,-261.288 457.102,-254.86 486.579,-249.422"/>
<polygon fill="midnightblue" stroke="midnightblue" points="487.563,-252.8 496.762,-247.544 486.293,-245.916 487.563,-252.8"/>
</g>
<!-- Node18 -->
<g id="node18" class="node"><title>Node18</title>
<g id="a_node18"><a xlink:href="video_dummy_8h.html#a98be3ece55a3751acf6653ccd4d76c57" target="_top" xlink:title="ar2VideoGetSizeDummy">
<polygon fill="white" stroke="black" points="487,-190.5 487,-209.5 612,-209.5 612,-190.5 487,-190.5"/>
<text text-anchor="middle" x="549.5" y="-197.5" font-family="Helvetica,sans-Serif" font-size="10.00">ar2VideoGetSizeDummy</text>
</a>
</g>
</g>
<!-- Node17&#45;&gt;Node18 -->
<g id="edge17" class="edge"><title>Node17&#45;&gt;Node18</title>
<path fill="none" stroke="midnightblue" d="M386.692,-170.152C415.815,-175.524 454.371,-182.636 486.54,-188.571"/>
<polygon fill="midnightblue" stroke="midnightblue" points="486.272,-192.08 496.741,-190.452 487.542,-185.196 486.272,-192.08"/>
</g>
<!-- Node19 -->
<g id="node19" class="node"><title>Node19</title>
<g id="a_node19"><a xlink:href="video_v4_l2_8h.html#a4cd15e53200db9db8334fa4c42fc1b56" target="_top" xlink:title="ar2VideoGetSizeV4L2">
<polygon fill="white" stroke="black" points="493,-152.5 493,-171.5 606,-171.5 606,-152.5 493,-152.5"/>
<text text-anchor="middle" x="549.5" y="-159.5" font-family="Helvetica,sans-Serif" font-size="10.00">ar2VideoGetSizeV4L2</text>
</a>
</g>
</g>
<!-- Node17&#45;&gt;Node19 -->
<g id="edge18" class="edge"><title>Node17&#45;&gt;Node19</title>
<path fill="none" stroke="midnightblue" d="M386.692,-162C414.627,-162 451.24,-162 482.572,-162"/>
<polygon fill="midnightblue" stroke="midnightblue" points="482.975,-165.5 492.975,-162 482.975,-158.5 482.975,-165.5"/>
</g>
<!-- Node20 -->
<g id="node20" class="node"><title>Node20</title>
<g id="a_node20"><a xlink:href="video1394_8h.html#a8edcf3e75cdc9d9a0a46e5c949fe024c" target="_top" xlink:title="ar2VideoGetSize1394">
<polygon fill="white" stroke="black" points="494,-114.5 494,-133.5 605,-133.5 605,-114.5 494,-114.5"/>
<text text-anchor="middle" x="549.5" y="-121.5" font-family="Helvetica,sans-Serif" font-size="10.00">ar2VideoGetSize1394</text>
</a>
</g>
</g>
<!-- Node17&#45;&gt;Node20 -->
<g id="edge19" class="edge"><title>Node17&#45;&gt;Node20</title>
<path fill="none" stroke="midnightblue" d="M386.692,-153.848C415.815,-148.476 454.371,-141.364 486.54,-135.429"/>
<polygon fill="midnightblue" stroke="midnightblue" points="487.542,-138.804 496.741,-133.548 486.272,-131.92 487.542,-138.804"/>
</g>
<!-- Node21 -->
<g id="node21" class="node"><title>Node21</title>
<g id="a_node21"><a xlink:href="video_a_v_foundation_8h.html#a039c73ba8a3e6ec85abe801637b2be6f" target="_top" xlink:title="ar2VideoGetSizeAVFoundation">
<polygon fill="white" stroke="black" points="473.5,-76.5 473.5,-95.5 625.5,-95.5 625.5,-76.5 473.5,-76.5"/>
<text text-anchor="middle" x="549.5" y="-83.5" font-family="Helvetica,sans-Serif" font-size="10.00">ar2VideoGetSizeAVFoundation</text>
</a>
</g>
</g>
<!-- Node17&#45;&gt;Node21 -->
<g id="edge20" class="edge"><title>Node17&#45;&gt;Node21</title>
<path fill="none" stroke="midnightblue" d="M386.57,-155.987C398.282,-153.171 410.565,-149.044 421,-143 441.132,-131.341 436.68,-116.328 457,-105 461.014,-102.762 465.261,-100.787 469.638,-99.0433"/>
<polygon fill="midnightblue" stroke="midnightblue" points="471.138,-102.225 479.393,-95.5851 468.799,-95.6276 471.138,-102.225"/>
</g>
<!-- Node22 -->
<g id="node22" class="node"><title>Node22</title>
<g id="a_node22"><a xlink:href="video_image_8h.html#a0faf54541ccba547d219e20002c36302" target="_top" xlink:title="ar2VideoGetSizeImage">
<polygon fill="white" stroke="black" points="491,-38.5 491,-57.5 608,-57.5 608,-38.5 491,-38.5"/>
<text text-anchor="middle" x="549.5" y="-45.5" font-family="Helvetica,sans-Serif" font-size="10.00">ar2VideoGetSizeImage</text>
</a>
</g>
</g>
<!-- Node17&#45;&gt;Node22 -->
<g id="edge21" class="edge"><title>Node17&#45;&gt;Node22</title>
<path fill="none" stroke="midnightblue" d="M386.775,-158.347C398.882,-155.572 411.319,-150.876 421,-143 449.993,-119.413 427.625,-90.1095 457,-67 464.041,-61.4607 472.302,-57.4271 480.928,-54.5073"/>
<polygon fill="midnightblue" stroke="midnightblue" points="482.142,-57.8 490.778,-51.6631 480.2,-51.0748 482.142,-57.8"/>
</g>
<!-- Node23 -->
<g id="node23" class="node"><title>Node23</title>
<g id="a_node23"><a xlink:href="video_android_8h.html#aafb49599502c8ce1d9f2c360cbb86caa" target="_top" xlink:title="ar2VideoGetSizeAndroid">
<polygon fill="white" stroke="black" points="488,-0.5 488,-19.5 611,-19.5 611,-0.5 488,-0.5"/>
<text text-anchor="middle" x="549.5" y="-7.5" font-family="Helvetica,sans-Serif" font-size="10.00">ar2VideoGetSizeAndroid</text>
</a>
</g>
</g>
<!-- Node17&#45;&gt;Node23 -->
<g id="edge22" class="edge"><title>Node17&#45;&gt;Node23</title>
<path fill="none" stroke="midnightblue" d="M386.672,-159.349C399.059,-156.627 411.674,-151.709 421,-143 459.834,-106.736 417.578,-64.6235 457,-29 463.076,-23.5093 470.313,-19.4452 478.018,-16.4585"/>
<polygon fill="midnightblue" stroke="midnightblue" points="479.183,-19.76 487.6,-13.3263 477.008,-13.1064 479.183,-19.76"/>
</g>
</g>
</svg>
