<?xml version="1.0" encoding="UTF-8" standalone="no"?>
<!DOCTYPE svg PUBLIC "-//W3C//DTD SVG 1.1//EN"
 "http://www.w3.org/Graphics/SVG/1.1/DTD/svg11.dtd">
<!-- Generated by graphviz version 2.38.0 (20140413.2041)
 -->
<!-- Title: arVideoCapStop Pages: 1 -->
<svg width="416pt" height="218pt"
 viewBox="0.00 0.00 416.00 218.00" xmlns="http://www.w3.org/2000/svg" xmlns:xlink="http://www.w3.org/1999/xlink">
<g id="graph0" class="graph" transform="scale(1 1) rotate(0) translate(4 214)">
<title>arVideoCapStop</title>
<polygon fill="white" stroke="none" points="-4,4 -4,-214 412,-214 412,4 -4,4"/>
<!-- Node1 -->
<g id="node1" class="node"><title>Node1</title>
<polygon fill="#bfbfbf" stroke="black" points="0,-95.5 0,-114.5 88,-114.5 88,-95.5 0,-95.5"/>
<text text-anchor="middle" x="44" y="-102.5" font-family="Helvetica,sans-Serif" font-size="10.00">arVideoCapStop</text>
</g>
<!-- Node2 -->
<g id="node2" class="node"><title>Node2</title>
<g id="a_node2"><a xlink:href="video_8h.html#a7f44f09a5e412bb83330887458e96b84" target="_top" xlink:title="ar2VideoCapStop">
<polygon fill="white" stroke="black" points="124,-95.5 124,-114.5 217,-114.5 217,-95.5 124,-95.5"/>
<text text-anchor="middle" x="170.5" y="-102.5" font-family="Helvetica,sans-Serif" font-size="10.00">ar2VideoCapStop</text>
</a>
</g>
</g>
<!-- Node1&#45;&gt;Node2 -->
<g id="edge1" class="edge"><title>Node1&#45;&gt;Node2</title>
<path fill="none" stroke="midnightblue" d="M88.1947,-105C96.3832,-105 105.059,-105 113.575,-105"/>
<polygon fill="midnightblue" stroke="midnightblue" points="113.84,-108.5 123.839,-105 113.839,-101.5 113.84,-108.5"/>
</g>
<!-- Node3 -->
<g id="node3" class="node"><title>Node3</title>
<g id="a_node3"><a xlink:href="video_dummy_8h.html#a78fa5654276bc8d340ffe8182d0bcd6c" target="_top" xlink:title="ar2VideoCapStopDummy">
<polygon fill="white" stroke="black" points="266.5,-190.5 266.5,-209.5 394.5,-209.5 394.5,-190.5 266.5,-190.5"/>
<text text-anchor="middle" x="330.5" y="-197.5" font-family="Helvetica,sans-Serif" font-size="10.00">ar2VideoCapStopDummy</text>
</a>
</g>
</g>
<!-- Node2&#45;&gt;Node3 -->
<g id="edge2" class="edge"><title>Node2&#45;&gt;Node3</title>
<path fill="none" stroke="midnightblue" d="M178.929,-114.568C192.061,-130.8 221.028,-163.659 253,-181 257.214,-183.286 261.707,-185.301 266.324,-187.079"/>
<polygon fill="midnightblue" stroke="midnightblue" points="265.331,-190.438 275.926,-190.401 267.62,-183.823 265.331,-190.438"/>
</g>
<!-- Node4 -->
<g id="node4" class="node"><title>Node4</title>
<g id="a_node4"><a xlink:href="video_v4_l2_8h.html#a530b43b034daf2f89586fb69e9de74aa" target="_top" xlink:title="ar2VideoCapStopV4L2">
<polygon fill="white" stroke="black" points="272.5,-152.5 272.5,-171.5 388.5,-171.5 388.5,-152.5 272.5,-152.5"/>
<text text-anchor="middle" x="330.5" y="-159.5" font-family="Helvetica,sans-Serif" font-size="10.00">ar2VideoCapStopV4L2</text>
</a>
</g>
</g>
<!-- Node2&#45;&gt;Node4 -->
<g id="edge3" class="edge"><title>Node2&#45;&gt;Node4</title>
<path fill="none" stroke="midnightblue" d="M189.527,-114.637C205.767,-123.019 230.48,-135.037 253,-143 260.087,-145.506 267.655,-147.811 275.171,-149.887"/>
<polygon fill="midnightblue" stroke="midnightblue" points="274.414,-153.307 284.976,-152.48 276.204,-146.539 274.414,-153.307"/>
</g>
<!-- Node5 -->
<g id="node5" class="node"><title>Node5</title>
<g id="a_node5"><a xlink:href="video1394_8h.html#a23f653b38bb02af6d9050d02b0702f94" target="_top" xlink:title="ar2VideoCapStop1394">
<polygon fill="white" stroke="black" points="273.5,-114.5 273.5,-133.5 387.5,-133.5 387.5,-114.5 273.5,-114.5"/>
<text text-anchor="middle" x="330.5" y="-121.5" font-family="Helvetica,sans-Serif" font-size="10.00">ar2VideoCapStop1394</text>
</a>
</g>
</g>
<!-- Node2&#45;&gt;Node5 -->
<g id="edge4" class="edge"><title>Node2&#45;&gt;Node5</title>
<path fill="none" stroke="midnightblue" d="M217.2,-110.496C231.555,-112.222 247.704,-114.164 263.187,-116.026"/>
<polygon fill="midnightblue" stroke="midnightblue" points="262.893,-119.515 273.239,-117.234 263.728,-112.565 262.893,-119.515"/>
</g>
<!-- Node6 -->
<g id="node6" class="node"><title>Node6</title>
<g id="a_node6"><a xlink:href="video_a_v_foundation_8h.html#a80dffabb6c571245b002d91e9031ca64" target="_top" xlink:title="ar2VideoCapStopAVFoundation">
<polygon fill="white" stroke="black" points="253,-76.5 253,-95.5 408,-95.5 408,-76.5 253,-76.5"/>
<text text-anchor="middle" x="330.5" y="-83.5" font-family="Helvetica,sans-Serif" font-size="10.00">ar2VideoCapStopAVFoundation</text>
</a>
</g>
</g>
<!-- Node2&#45;&gt;Node6 -->
<g id="edge5" class="edge"><title>Node2&#45;&gt;Node6</title>
<path fill="none" stroke="midnightblue" d="M217.2,-99.5044C225.345,-98.525 234.068,-97.476 242.919,-96.4116"/>
<polygon fill="midnightblue" stroke="midnightblue" points="243.432,-99.8753 252.942,-95.2063 242.596,-92.9253 243.432,-99.8753"/>
</g>
<!-- Node7 -->
<g id="node7" class="node"><title>Node7</title>
<g id="a_node7"><a xlink:href="video_image_8h.html#af8b971aac579641ba46492cbd6394293" target="_top" xlink:title="ar2VideoCapStopImage">
<polygon fill="white" stroke="black" points="270.5,-38.5 270.5,-57.5 390.5,-57.5 390.5,-38.5 270.5,-38.5"/>
<text text-anchor="middle" x="330.5" y="-45.5" font-family="Helvetica,sans-Serif" font-size="10.00">ar2VideoCapStopImage</text>
</a>
</g>
</g>
<!-- Node2&#45;&gt;Node7 -->
<g id="edge6" class="edge"><title>Node2&#45;&gt;Node7</title>
<path fill="none" stroke="midnightblue" d="M189.527,-95.3626C205.767,-86.9808 230.48,-74.9626 253,-67 260.087,-64.4941 267.655,-62.1889 275.171,-60.1135"/>
<polygon fill="midnightblue" stroke="midnightblue" points="276.204,-63.4607 284.976,-57.5201 274.414,-56.6934 276.204,-63.4607"/>
</g>
<!-- Node8 -->
<g id="node8" class="node"><title>Node8</title>
<g id="a_node8"><a xlink:href="video_android_8h.html#a0d13c2368b42b9e85c60830fb13fd04e" target="_top" xlink:title="ar2VideoCapStopAndroid">
<polygon fill="white" stroke="black" points="267.5,-0.5 267.5,-19.5 393.5,-19.5 393.5,-0.5 267.5,-0.5"/>
<text text-anchor="middle" x="330.5" y="-7.5" font-family="Helvetica,sans-Serif" font-size="10.00">ar2VideoCapStopAndroid</text>
</a>
</g>
</g>
<!-- Node2&#45;&gt;Node8 -->
<g id="edge7" class="edge"><title>Node2&#45;&gt;Node8</title>
<path fill="none" stroke="midnightblue" d="M178.929,-95.4323C192.061,-79.1995 221.028,-46.3407 253,-29 257.214,-26.7144 261.707,-24.6986 266.324,-22.9215"/>
<polygon fill="midnightblue" stroke="midnightblue" points="267.62,-26.1768 275.926,-19.599 265.331,-19.5617 267.62,-26.1768"/>
</g>
</g>
</svg>
