<?xml version="1.0" encoding="UTF-8" standalone="no"?>
<!DOCTYPE svg PUBLIC "-//W3C//DTD SVG 1.1//EN"
 "http://www.w3.org/Graphics/SVG/1.1/DTD/svg11.dtd">
<!-- Generated by graphviz version 2.38.0 (20140413.2041)
 -->
<!-- Title: arVideoGetParams Pages: 1 -->
<svg width="449pt" height="180pt"
 viewBox="0.00 0.00 449.00 180.00" xmlns="http://www.w3.org/2000/svg" xmlns:xlink="http://www.w3.org/1999/xlink">
<g id="graph0" class="graph" transform="scale(1 1) rotate(0) translate(4 176)">
<title>arVideoGetParams</title>
<polygon fill="white" stroke="none" points="-4,4 -4,-176 445,-176 445,4 -4,4"/>
<!-- Node1 -->
<g id="node1" class="node"><title>Node1</title>
<polygon fill="#bfbfbf" stroke="black" points="0,-76.5 0,-95.5 99,-95.5 99,-76.5 0,-76.5"/>
<text text-anchor="middle" x="49.5" y="-83.5" font-family="Helvetica,sans-Serif" font-size="10.00">arVideoGetParams</text>
</g>
<!-- Node2 -->
<g id="node2" class="node"><title>Node2</title>
<g id="a_node2"><a xlink:href="video_8h.html#adef83502bdec2c2baa82efd4970a1298" target="_top" xlink:title="ar2VideoGetParams">
<polygon fill="white" stroke="black" points="135,-76.5 135,-95.5 239,-95.5 239,-76.5 135,-76.5"/>
<text text-anchor="middle" x="187" y="-83.5" font-family="Helvetica,sans-Serif" font-size="10.00">ar2VideoGetParams</text>
</a>
</g>
</g>
<!-- Node1&#45;&gt;Node2 -->
<g id="edge1" class="edge"><title>Node1&#45;&gt;Node2</title>
<path fill="none" stroke="midnightblue" d="M99.0359,-86C107.242,-86 115.858,-86 124.345,-86"/>
<polygon fill="midnightblue" stroke="midnightblue" points="124.598,-89.5001 134.598,-86 124.598,-82.5001 124.598,-89.5001"/>
</g>
<!-- Node3 -->
<g id="node3" class="node"><title>Node3</title>
<g id="a_node3"><a xlink:href="video_dummy_8h.html#af243a7b03152d3bebfe37d034be82c00" target="_top" xlink:title="ar2VideoGetParamsDummy">
<polygon fill="white" stroke="black" points="288.5,-152.5 288.5,-171.5 427.5,-171.5 427.5,-152.5 288.5,-152.5"/>
<text text-anchor="middle" x="358" y="-159.5" font-family="Helvetica,sans-Serif" font-size="10.00">ar2VideoGetParamsDummy</text>
</a>
</g>
</g>
<!-- Node2&#45;&gt;Node3 -->
<g id="edge2" class="edge"><title>Node2&#45;&gt;Node3</title>
<path fill="none" stroke="midnightblue" d="M199.616,-95.5615C215.614,-108.253 245.776,-130.512 275,-143 280.82,-145.487 287.018,-147.677 293.3,-149.598"/>
<polygon fill="midnightblue" stroke="midnightblue" points="292.621,-153.043 303.197,-152.401 294.529,-146.308 292.621,-153.043"/>
</g>
<!-- Node4 -->
<g id="node4" class="node"><title>Node4</title>
<g id="a_node4"><a xlink:href="video_v4_l2_8h.html#a8f713a8ac5a396be2b5eb434c73281d7" target="_top" xlink:title="ar2VideoGetParamsV4L2">
<polygon fill="white" stroke="black" points="294.5,-114.5 294.5,-133.5 421.5,-133.5 421.5,-114.5 294.5,-114.5"/>
<text text-anchor="middle" x="358" y="-121.5" font-family="Helvetica,sans-Serif" font-size="10.00">ar2VideoGetParamsV4L2</text>
</a>
</g>
</g>
<!-- Node2&#45;&gt;Node4 -->
<g id="edge3" class="edge"><title>Node2&#45;&gt;Node4</title>
<path fill="none" stroke="midnightblue" d="M230.646,-95.589C253.148,-100.649 280.948,-106.9 304.738,-112.249"/>
<polygon fill="midnightblue" stroke="midnightblue" points="304.137,-115.701 314.661,-114.48 305.672,-108.871 304.137,-115.701"/>
</g>
<!-- Node5 -->
<g id="node5" class="node"><title>Node5</title>
<g id="a_node5"><a xlink:href="video_a_v_foundation_8h.html#a85f64ee5cbd1fc33e269eca57e77a4ec" target="_top" xlink:title="ar2VideoGetParamsAVFoundation">
<polygon fill="white" stroke="black" points="275,-76.5 275,-95.5 441,-95.5 441,-76.5 275,-76.5"/>
<text text-anchor="middle" x="358" y="-83.5" font-family="Helvetica,sans-Serif" font-size="10.00">ar2VideoGetParamsAVFoundation</text>
</a>
</g>
</g>
<!-- Node2&#45;&gt;Node5 -->
<g id="edge4" class="edge"><title>Node2&#45;&gt;Node5</title>
<path fill="none" stroke="midnightblue" d="M239.164,-86C247.264,-86 255.851,-86 264.551,-86"/>
<polygon fill="midnightblue" stroke="midnightblue" points="264.794,-89.5001 274.794,-86 264.794,-82.5001 264.794,-89.5001"/>
</g>
<!-- Node6 -->
<g id="node6" class="node"><title>Node6</title>
<g id="a_node6"><a xlink:href="video_image_8h.html#aa405bbd4730bde58766b5dc3c1608ba9" target="_top" xlink:title="ar2VideoGetParamsImage">
<polygon fill="white" stroke="black" points="292.5,-38.5 292.5,-57.5 423.5,-57.5 423.5,-38.5 292.5,-38.5"/>
<text text-anchor="middle" x="358" y="-45.5" font-family="Helvetica,sans-Serif" font-size="10.00">ar2VideoGetParamsImage</text>
</a>
</g>
</g>
<!-- Node2&#45;&gt;Node6 -->
<g id="edge5" class="edge"><title>Node2&#45;&gt;Node6</title>
<path fill="none" stroke="midnightblue" d="M230.646,-76.411C253.148,-71.3513 280.948,-65.1004 304.738,-59.7512"/>
<polygon fill="midnightblue" stroke="midnightblue" points="305.672,-63.1286 314.661,-57.5201 304.137,-56.2991 305.672,-63.1286"/>
</g>
<!-- Node7 -->
<g id="node7" class="node"><title>Node7</title>
<g id="a_node7"><a xlink:href="video_android_8h.html#a888e17328a94cfac651e1333fd50fd24" target="_top" xlink:title="ar2VideoGetParamsAndroid">
<polygon fill="white" stroke="black" points="289.5,-0.5 289.5,-19.5 426.5,-19.5 426.5,-0.5 289.5,-0.5"/>
<text text-anchor="middle" x="358" y="-7.5" font-family="Helvetica,sans-Serif" font-size="10.00">ar2VideoGetParamsAndroid</text>
</a>
</g>
</g>
<!-- Node2&#45;&gt;Node7 -->
<g id="edge6" class="edge"><title>Node2&#45;&gt;Node7</title>
<path fill="none" stroke="midnightblue" d="M199.616,-76.4385C215.614,-63.7467 245.776,-41.4885 275,-29 280.82,-26.5128 287.018,-24.3234 293.3,-22.4021"/>
<polygon fill="midnightblue" stroke="midnightblue" points="294.529,-25.6918 303.197,-19.5995 292.621,-18.9566 294.529,-25.6918"/>
</g>
</g>
</svg>
