<?xml version="1.0" encoding="UTF-8" standalone="no"?>
<!DOCTYPE svg PUBLIC "-//W3C//DTD SVG 1.1//EN"
 "http://www.w3.org/Graphics/SVG/1.1/DTD/svg11.dtd">
<!-- Generated by graphviz version 2.38.0 (20140413.2041)
 -->
<!-- Title: /bitrise/src/Source/AR6/InstantOn/include/AR6/InstantOn/cv/matchers/visual_database_types.h Pages: 1 -->
<svg width="401pt" height="495pt"
 viewBox="0.00 0.00 401.00 495.00" xmlns="http://www.w3.org/2000/svg" xmlns:xlink="http://www.w3.org/1999/xlink">
<g id="graph0" class="graph" transform="scale(1 1) rotate(0) translate(4 491)">
<title>/bitrise/src/Source/AR6/InstantOn/include/AR6/InstantOn/cv/matchers/visual_database_types.h</title>
<polygon fill="white" stroke="none" points="-4,4 -4,-491 397,-491 397,4 -4,4"/>
<!-- Node1 -->
<g id="node1" class="node"><title>Node1</title>
<polygon fill="#bfbfbf" stroke="black" points="94.5,-434.5 94.5,-486.5 236.5,-486.5 236.5,-434.5 94.5,-434.5"/>
<text text-anchor="start" x="102.5" y="-474.5" font-family="Helvetica,sans-Serif" font-size="10.00">/bitrise/src/Source</text>
<text text-anchor="start" x="102.5" y="-463.5" font-family="Helvetica,sans-Serif" font-size="10.00">/AR6/InstantOn/include</text>
<text text-anchor="start" x="102.5" y="-452.5" font-family="Helvetica,sans-Serif" font-size="10.00">/AR6/InstantOn/cv/matchers</text>
<text text-anchor="middle" x="165.5" y="-441.5" font-family="Helvetica,sans-Serif" font-size="10.00">/visual_database_types.h</text>
</g>
<!-- Node2 -->
<g id="node2" class="node"><title>Node2</title>
<g id="a_node2"><a xlink:href="track__index_8h.html" target="_top" xlink:title="/bitrise/src/Source\l/AR6/InstantOn/include\l/AR6/InstantOn/cv/trackers\l/track_index.h">
<polygon fill="white" stroke="black" points="97,-345.5 97,-397.5 234,-397.5 234,-345.5 97,-345.5"/>
<text text-anchor="start" x="105" y="-385.5" font-family="Helvetica,sans-Serif" font-size="10.00">/bitrise/src/Source</text>
<text text-anchor="start" x="105" y="-374.5" font-family="Helvetica,sans-Serif" font-size="10.00">/AR6/InstantOn/include</text>
<text text-anchor="start" x="105" y="-363.5" font-family="Helvetica,sans-Serif" font-size="10.00">/AR6/InstantOn/cv/trackers</text>
<text text-anchor="middle" x="165.5" y="-352.5" font-family="Helvetica,sans-Serif" font-size="10.00">/track_index.h</text>
</a>
</g>
</g>
<!-- Node1&#45;&gt;Node2 -->
<g id="edge1" class="edge"><title>Node1&#45;&gt;Node2</title>
<path fill="none" stroke="midnightblue" d="M165.5,-424.191C165.5,-415.282 165.5,-405.899 165.5,-397.607"/>
<polygon fill="midnightblue" stroke="midnightblue" points="162,-424.336 165.5,-434.336 169,-424.336 162,-424.336"/>
</g>
<!-- Node3 -->
<g id="node3" class="node"><title>Node3</title>
<g id="a_node3"><a xlink:href="track__index_8cpp.html" target="_top" xlink:title="/bitrise/src/Source\l/AR6/InstantOn/cv/trackers\l/track_index.cpp">
<polygon fill="white" stroke="black" points="0,-262 0,-303 137,-303 137,-262 0,-262"/>
<text text-anchor="start" x="8" y="-291" font-family="Helvetica,sans-Serif" font-size="10.00">/bitrise/src/Source</text>
<text text-anchor="start" x="8" y="-280" font-family="Helvetica,sans-Serif" font-size="10.00">/AR6/InstantOn/cv/trackers</text>
<text text-anchor="middle" x="68.5" y="-269" font-family="Helvetica,sans-Serif" font-size="10.00">/track_index.cpp</text>
</a>
</g>
</g>
<!-- Node2&#45;&gt;Node3 -->
<g id="edge2" class="edge"><title>Node2&#45;&gt;Node3</title>
<path fill="none" stroke="midnightblue" d="M129.838,-338.515C116.595,-326.637 101.976,-313.525 90.3329,-303.082"/>
<polygon fill="midnightblue" stroke="midnightblue" points="127.662,-341.265 137.444,-345.336 132.336,-336.054 127.662,-341.265"/>
</g>
<!-- Node4 -->
<g id="node4" class="node"><title>Node4</title>
<g id="a_node4"><a xlink:href="harris__ncc__tracker_8h.html" target="_top" xlink:title="/bitrise/src/Source\l/AR6/InstantOn/include\l/AR6/InstantOn/cv/trackers\l/harris_ncc_tracker.h">
<polygon fill="white" stroke="black" points="97,-167.5 97,-219.5 234,-219.5 234,-167.5 97,-167.5"/>
<text text-anchor="start" x="105" y="-207.5" font-family="Helvetica,sans-Serif" font-size="10.00">/bitrise/src/Source</text>
<text text-anchor="start" x="105" y="-196.5" font-family="Helvetica,sans-Serif" font-size="10.00">/AR6/InstantOn/include</text>
<text text-anchor="start" x="105" y="-185.5" font-family="Helvetica,sans-Serif" font-size="10.00">/AR6/InstantOn/cv/trackers</text>
<text text-anchor="middle" x="165.5" y="-174.5" font-family="Helvetica,sans-Serif" font-size="10.00">/harris_ncc_tracker.h</text>
</a>
</g>
</g>
<!-- Node2&#45;&gt;Node4 -->
<g id="edge3" class="edge"><title>Node2&#45;&gt;Node4</title>
<path fill="none" stroke="midnightblue" d="M165.5,-335.249C165.5,-301.038 165.5,-249.969 165.5,-219.67"/>
<polygon fill="midnightblue" stroke="midnightblue" points="162,-335.283 165.5,-345.283 169,-335.284 162,-335.283"/>
</g>
<!-- Node9 -->
<g id="node9" class="node"><title>Node9</title>
<g id="a_node9"><a xlink:href="tracker__base_8h.html" target="_top" xlink:title="/bitrise/src/Source\l/AR6/InstantOn/include\l/AR6/InstantOn/cv/trackers\l/tracker_base.h">
<polygon fill="white" stroke="black" points="194,-256.5 194,-308.5 331,-308.5 331,-256.5 194,-256.5"/>
<text text-anchor="start" x="202" y="-296.5" font-family="Helvetica,sans-Serif" font-size="10.00">/bitrise/src/Source</text>
<text text-anchor="start" x="202" y="-285.5" font-family="Helvetica,sans-Serif" font-size="10.00">/AR6/InstantOn/include</text>
<text text-anchor="start" x="202" y="-274.5" font-family="Helvetica,sans-Serif" font-size="10.00">/AR6/InstantOn/cv/trackers</text>
<text text-anchor="middle" x="262.5" y="-263.5" font-family="Helvetica,sans-Serif" font-size="10.00">/tracker_base.h</text>
</a>
</g>
</g>
<!-- Node2&#45;&gt;Node9 -->
<g id="edge8" class="edge"><title>Node2&#45;&gt;Node9</title>
<path fill="none" stroke="midnightblue" d="M201.012,-338.649C212.05,-328.749 224.057,-317.98 234.507,-308.607"/>
<polygon fill="midnightblue" stroke="midnightblue" points="198.664,-336.054 193.556,-345.336 203.338,-341.265 198.664,-336.054"/>
</g>
<!-- Node5 -->
<g id="node5" class="node"><title>Node5</title>
<g id="a_node5"><a xlink:href="harris__ncc__tracker_8cpp.html" target="_top" xlink:title="/bitrise/src/Source\l/AR6/InstantOn/cv/trackers\l/harris_ncc_tracker.cpp">
<polygon fill="white" stroke="black" points="19,-84 19,-125 156,-125 156,-84 19,-84"/>
<text text-anchor="start" x="27" y="-113" font-family="Helvetica,sans-Serif" font-size="10.00">/bitrise/src/Source</text>
<text text-anchor="start" x="27" y="-102" font-family="Helvetica,sans-Serif" font-size="10.00">/AR6/InstantOn/cv/trackers</text>
<text text-anchor="middle" x="87.5" y="-91" font-family="Helvetica,sans-Serif" font-size="10.00">/harris_ncc_tracker.cpp</text>
</a>
</g>
</g>
<!-- Node4&#45;&gt;Node5 -->
<g id="edge4" class="edge"><title>Node4&#45;&gt;Node5</title>
<path fill="none" stroke="midnightblue" d="M136.225,-159.847C125.736,-148.148 114.244,-135.33 105.056,-125.082"/>
<polygon fill="midnightblue" stroke="midnightblue" points="133.658,-162.227 142.939,-167.336 138.87,-157.554 133.658,-162.227"/>
</g>
<!-- Node6 -->
<g id="node6" class="node"><title>Node6</title>
<g id="a_node6"><a xlink:href="homography__tracker__filter_8h.html" target="_top" xlink:title="/bitrise/src/Source\l/AR6/InstantOn/include\l/AR6/InstantOn/extensions\l/homography_tracker_filter.h">
<polygon fill="white" stroke="black" points="174.5,-78.5 174.5,-130.5 314.5,-130.5 314.5,-78.5 174.5,-78.5"/>
<text text-anchor="start" x="182.5" y="-118.5" font-family="Helvetica,sans-Serif" font-size="10.00">/bitrise/src/Source</text>
<text text-anchor="start" x="182.5" y="-107.5" font-family="Helvetica,sans-Serif" font-size="10.00">/AR6/InstantOn/include</text>
<text text-anchor="start" x="182.5" y="-96.5" font-family="Helvetica,sans-Serif" font-size="10.00">/AR6/InstantOn/extensions</text>
<text text-anchor="middle" x="244.5" y="-85.5" font-family="Helvetica,sans-Serif" font-size="10.00">/homography_tracker_filter.h</text>
</a>
</g>
</g>
<!-- Node4&#45;&gt;Node6 -->
<g id="edge5" class="edge"><title>Node4&#45;&gt;Node6</title>
<path fill="none" stroke="midnightblue" d="M195.202,-159.79C203.975,-150.129 213.436,-139.71 221.701,-130.607"/>
<polygon fill="midnightblue" stroke="midnightblue" points="192.481,-157.58 188.35,-167.336 197.664,-162.286 192.481,-157.58"/>
</g>
<!-- Node7 -->
<g id="node7" class="node"><title>Node7</title>
<g id="a_node7"><a xlink:href="homography__tracker__filter_8cpp.html" target="_top" xlink:title="/bitrise/src/Source\l/AR6/InstantOn/extensions\l/homography_tracker_filter.cpp">
<polygon fill="white" stroke="black" points="89,-0.5 89,-41.5 240,-41.5 240,-0.5 89,-0.5"/>
<text text-anchor="start" x="97" y="-29.5" font-family="Helvetica,sans-Serif" font-size="10.00">/bitrise/src/Source</text>
<text text-anchor="start" x="97" y="-18.5" font-family="Helvetica,sans-Serif" font-size="10.00">/AR6/InstantOn/extensions</text>
<text text-anchor="middle" x="164.5" y="-7.5" font-family="Helvetica,sans-Serif" font-size="10.00">/homography_tracker_filter.cpp</text>
</a>
</g>
</g>
<!-- Node6&#45;&gt;Node7 -->
<g id="edge6" class="edge"><title>Node6&#45;&gt;Node7</title>
<path fill="none" stroke="midnightblue" d="M212.378,-70.7754C202.683,-60.8991 192.346,-50.3679 183.767,-41.6282"/>
<polygon fill="midnightblue" stroke="midnightblue" points="210.123,-73.475 219.626,-78.1596 215.119,-68.5714 210.123,-73.475"/>
</g>
<!-- Node8 -->
<g id="node8" class="node"><title>Node8</title>
<g id="a_node8"><a xlink:href="_vision4d-_instant_on_8cpp.html" target="_top" xlink:title="/bitrise/src/Source\l/AR6/InstantOn/extensions\l/Vision4d&#45;InstantOn.cpp">
<polygon fill="white" stroke="black" points="258,-0.5 258,-41.5 393,-41.5 393,-0.5 258,-0.5"/>
<text text-anchor="start" x="266" y="-29.5" font-family="Helvetica,sans-Serif" font-size="10.00">/bitrise/src/Source</text>
<text text-anchor="start" x="266" y="-18.5" font-family="Helvetica,sans-Serif" font-size="10.00">/AR6/InstantOn/extensions</text>
<text text-anchor="middle" x="325.5" y="-7.5" font-family="Helvetica,sans-Serif" font-size="10.00">/Vision4d&#45;InstantOn.cpp</text>
</a>
</g>
</g>
<!-- Node6&#45;&gt;Node8 -->
<g id="edge7" class="edge"><title>Node6&#45;&gt;Node8</title>
<path fill="none" stroke="midnightblue" d="M276.735,-71.0656C286.634,-61.1057 297.221,-50.4536 305.992,-41.6282"/>
<polygon fill="midnightblue" stroke="midnightblue" points="274.252,-68.5996 269.685,-78.1596 279.217,-73.5341 274.252,-68.5996"/>
</g>
<!-- Node9&#45;&gt;Node4 -->
<g id="edge10" class="edge"><title>Node9&#45;&gt;Node4</title>
<path fill="none" stroke="midnightblue" d="M226.988,-249.649C215.95,-239.749 203.943,-228.98 193.493,-219.607"/>
<polygon fill="midnightblue" stroke="midnightblue" points="224.662,-252.265 234.444,-256.336 229.336,-247.054 224.662,-252.265"/>
</g>
<!-- Node10 -->
<g id="node10" class="node"><title>Node10</title>
<g id="a_node10"><a xlink:href="tracker__base_8cpp.html" target="_top" xlink:title="/bitrise/src/Source\l/AR6/InstantOn/cv/trackers\l/tracker_base.cpp">
<polygon fill="white" stroke="black" points="252,-173 252,-214 389,-214 389,-173 252,-173"/>
<text text-anchor="start" x="260" y="-202" font-family="Helvetica,sans-Serif" font-size="10.00">/bitrise/src/Source</text>
<text text-anchor="start" x="260" y="-191" font-family="Helvetica,sans-Serif" font-size="10.00">/AR6/InstantOn/cv/trackers</text>
<text text-anchor="middle" x="320.5" y="-180" font-family="Helvetica,sans-Serif" font-size="10.00">/tracker_base.cpp</text>
</a>
</g>
</g>
<!-- Node9&#45;&gt;Node10 -->
<g id="edge9" class="edge"><title>Node9&#45;&gt;Node10</title>
<path fill="none" stroke="midnightblue" d="M284.939,-247.842C292.555,-236.417 300.809,-224.037 307.445,-214.082"/>
<polygon fill="midnightblue" stroke="midnightblue" points="281.911,-246.074 279.276,-256.336 287.735,-249.957 281.911,-246.074"/>
</g>
</g>
</svg>
