<?xml version="1.0" encoding="UTF-8" standalone="no"?>
<!DOCTYPE svg PUBLIC "-//W3C//DTD SVG 1.1//EN"
 "http://www.w3.org/Graphics/SVG/1.1/DTD/svg11.dtd">
<!-- Generated by graphviz version 2.38.0 (20140413.2041)
 -->
<!-- Title: zipOpenNewFileInZip64 Pages: 1 -->
<!--zoomable 806 -->
<svg id="main" version="1.1" xmlns="http://www.w3.org/2000/svg" xmlns:xlink="http://www.w3.org/1999/xlink" xml:space="preserve" onload="init(evt)">
<style type="text/css"><![CDATA[
.edge:hover path { stroke: red; }
.edge:hover polygon { stroke: red; fill: red; }
]]></style>
<script type="text/javascript"><![CDATA[
var edges = document.getElementsByTagName('g');
if (edges && edges.length) {
  for (var i=0;i<edges.length;i++) {
    if (edges[i].id.substr(0,4)=='edge') {
      edges[i].setAttribute('class','edge');
    }
  }
}
]]></script>
        <defs>
                <circle id="rim" cx="0" cy="0" r="7"/>
                <circle id="rim2" cx="0" cy="0" r="3.5"/>
                <g id="zoomPlus">
                        <use xlink:href="#rim" fill="#404040">
                                <set attributeName="fill" to="#808080" begin="zoomplus.mouseover" end="zoomplus.mouseout"/>
                        </use>
                        <path d="M-4,0h8M0,-4v8" fill="none" stroke="white" stroke-width="1.5" pointer-events="none"/>
                </g>
                <g id="zoomMin">
                        <use xlink:href="#rim" fill="#404040">
                                <set attributeName="fill" to="#808080" begin="zoomminus.mouseover" end="zoomminus.mouseout"/>
                        </use>
                        <path d="M-4,0h8" fill="none" stroke="white" stroke-width="1.5" pointer-events="none"/>
                </g>
                <g id="dirArrow">
                        <path fill="none" stroke="white" stroke-width="1.5" d="M0,-3.0v7 M-2.5,-0.5L0,-3.0L2.5,-0.5"/>
                </g>
               <g id="resetDef">
                       <use xlink:href="#rim2" fill="#404040">
                               <set attributeName="fill" to="#808080" begin="reset.mouseover" end="reset.mouseout"/>
                       </use>
               </g>
        </defs>

<script type="text/javascript">
var viewWidth = 1230;
var viewHeight = 806;
var sectionId = 'dynsection-33';
</script>
<script xlink:href="svgpan.js"/>
<svg id="graph" class="graph">
<g id="viewport">
<title>zipOpenNewFileInZip64</title>
<polygon fill="white" stroke="none" points="-4,4 -4,-802.366 1226,-802.366 1226,4 -4,4"/>
<!-- Node1 -->
<g id="node1" class="node"><title>Node1</title>
<polygon fill="#bfbfbf" stroke="black" points="0,-560.5 0,-579.5 121,-579.5 121,-560.5 0,-560.5"/>
<text text-anchor="middle" x="60.5" y="-567.5" font-family="Helvetica,sans-Serif" font-size="10.00">zipOpenNewFileInZip64</text>
</g>
<!-- Node2 -->
<g id="node2" class="node"><title>Node2</title>
<g id="a_node2"><a xlink:href="zip_8c.html#a638e4d5a7305f25e1ef6c2f6f14e2861" target="_top" xlink:title="zipOpenNewFileInZip4_64">
<polygon fill="white" stroke="black" points="157,-560.5 157,-579.5 288,-579.5 288,-560.5 157,-560.5"/>
<text text-anchor="middle" x="222.5" y="-567.5" font-family="Helvetica,sans-Serif" font-size="10.00">zipOpenNewFileInZip4_64</text>
</a>
</g>
</g>
<!-- Node1&#45;&gt;Node2 -->
<g id="edge1" class="edge"><title>Node1&#45;&gt;Node2</title>
<path fill="none" stroke="midnightblue" d="M121.078,-570C129.444,-570 138.129,-570 146.732,-570"/>
<polygon fill="midnightblue" stroke="midnightblue" points="146.771,-573.5 156.771,-570 146.771,-566.5 146.771,-573.5"/>
</g>
<!-- Node3 -->
<g id="node3" class="node"><title>Node3</title>
<g id="a_node3"><a xlink:href="zip_8c.html#ae470f753aef4cffe4f77a5ec2bcfbde1" target="_top" xlink:title="zipCloseFileInZip">
<polygon fill="white" stroke="black" points="324,-636.5 324,-655.5 416,-655.5 416,-636.5 324,-636.5"/>
<text text-anchor="middle" x="370" y="-643.5" font-family="Helvetica,sans-Serif" font-size="10.00">zipCloseFileInZip</text>
</a>
</g>
</g>
<!-- Node2&#45;&gt;Node3 -->
<g id="edge2" class="edge"><title>Node2&#45;&gt;Node3</title>
<path fill="none" stroke="midnightblue" d="M241.928,-579.625C267.073,-592.76 312.334,-616.401 341.5,-631.636"/>
<polygon fill="midnightblue" stroke="midnightblue" points="340.238,-634.925 350.722,-636.453 343.479,-628.721 340.238,-634.925"/>
</g>
<!-- Node6 -->
<g id="node6" class="node"><title>Node6</title>
<g id="a_node6"><a xlink:href="ioapi_8h.html#a50e9e9d5c30e481de822ad68fe537986" target="_top" xlink:title="uLong">
<polygon fill="white" stroke="black" points="1145.5,-484.5 1145.5,-503.5 1188.5,-503.5 1188.5,-484.5 1145.5,-484.5"/>
<text text-anchor="middle" x="1167" y="-491.5" font-family="Helvetica,sans-Serif" font-size="10.00">uLong</text>
</a>
</g>
</g>
<!-- Node2&#45;&gt;Node6 -->
<g id="edge39" class="edge"><title>Node2&#45;&gt;Node6</title>
<path fill="none" stroke="midnightblue" d="M270.637,-560.46C330.455,-549.204 436.938,-532 529,-532 529,-532 529,-532 862,-532 962.726,-532 1080.78,-511.205 1135.41,-500.382"/>
<polygon fill="midnightblue" stroke="midnightblue" points="1136.36,-503.762 1145.47,-498.359 1134.98,-496.9 1136.36,-503.762"/>
</g>
<!-- Node8 -->
<g id="node8" class="node"><title>Node8</title>
<g id="a_node8"><a xlink:href="zip_8c.html#a472dc2ba2bf1d51a41e87cd97dbdb18b" target="_top" xlink:title="zip64local_putValue\l_inmemory">
<polygon fill="white" stroke="black" points="1115,-745 1115,-775 1219,-775 1219,-745 1115,-745"/>
<text text-anchor="start" x="1123" y="-763" font-family="Helvetica,sans-Serif" font-size="10.00">zip64local_putValue</text>
<text text-anchor="middle" x="1167" y="-752" font-family="Helvetica,sans-Serif" font-size="10.00">_inmemory</text>
</a>
</g>
</g>
<!-- Node2&#45;&gt;Node8 -->
<g id="edge38" class="edge"><title>Node2&#45;&gt;Node8</title>
<path fill="none" stroke="midnightblue" d="M229.489,-579.507C257.493,-622.657 380.424,-798 529,-798 529,-798 529,-798 862,-798 957.314,-798 981.948,-799.464 1076,-784 1085.93,-782.367 1096.36,-780.109 1106.45,-777.626"/>
<polygon fill="midnightblue" stroke="midnightblue" points="1107.57,-780.951 1116.39,-775.084 1105.84,-774.17 1107.57,-780.951"/>
</g>
<!-- Node13 -->
<g id="node13" class="node"><title>Node13</title>
<g id="a_node13"><a xlink:href="ioapi_8h.html#a39ab6d73c1cd44bc17064c2dcbb3e753" target="_top" xlink:title="voidpf">
<polygon fill="white" stroke="black" points="1145.5,-94.5 1145.5,-113.5 1188.5,-113.5 1188.5,-94.5 1145.5,-94.5"/>
<text text-anchor="middle" x="1167" y="-101.5" font-family="Helvetica,sans-Serif" font-size="10.00">voidpf</text>
</a>
</g>
</g>
<!-- Node2&#45;&gt;Node13 -->
<g id="edge43" class="edge"><title>Node2&#45;&gt;Node13</title>
<path fill="none" stroke="midnightblue" d="M223.951,-560.107C227.968,-484.417 264.03,-0 529,-0 529,-0 529,-0 862,-0 970.999,-0 1090.72,-60.5941 1141.29,-89.2787"/>
<polygon fill="midnightblue" stroke="midnightblue" points="1139.77,-92.4433 1150.18,-94.4023 1143.26,-86.3778 1139.77,-92.4433"/>
</g>
<!-- Node14 -->
<g id="node14" class="node"><title>Node14</title>
<g id="a_node14"><a xlink:href="zip_8c.html#a0358f3b6350c161f10e6594b09ca15b3" target="_top" xlink:title="zip64local_TmzDateToDosDate">
<polygon fill="white" stroke="black" points="452,-370.5 452,-389.5 608,-389.5 608,-370.5 452,-370.5"/>
<text text-anchor="middle" x="530" y="-377.5" font-family="Helvetica,sans-Serif" font-size="10.00">zip64local_TmzDateToDosDate</text>
</a>
</g>
</g>
<!-- Node2&#45;&gt;Node14 -->
<g id="edge17" class="edge"><title>Node2&#45;&gt;Node14</title>
<path fill="none" stroke="midnightblue" d="M239.07,-560.317C288.815,-529.379 444.177,-432.754 504.608,-395.17"/>
<polygon fill="midnightblue" stroke="midnightblue" points="506.818,-397.917 513.462,-389.664 503.121,-391.973 506.818,-397.917"/>
</g>
<!-- Node20 -->
<g id="node20" class="node"><title>Node20</title>
<g id="a_node20"><a xlink:href="zip_8c.html#a725809dec135ca745658c72a8578e505" target="_top" xlink:title="Write_LocalFileHeader">
<polygon fill="white" stroke="black" points="803,-636.5 803,-655.5 919,-655.5 919,-636.5 803,-636.5"/>
<text text-anchor="middle" x="861" y="-643.5" font-family="Helvetica,sans-Serif" font-size="10.00">Write_LocalFileHeader</text>
</a>
</g>
</g>
<!-- Node2&#45;&gt;Node20 -->
<g id="edge40" class="edge"><title>Node2&#45;&gt;Node20</title>
<path fill="none" stroke="midnightblue" d="M288.034,-577.706C409.152,-592.167 669.395,-623.241 792.641,-637.957"/>
<polygon fill="midnightblue" stroke="midnightblue" points="792.36,-641.448 802.705,-639.159 793.19,-634.498 792.36,-641.448"/>
</g>
<!-- Node4 -->
<g id="node4" class="node"><title>Node4</title>
<g id="a_node4"><a xlink:href="zip_8c.html#a43fe6f36cef62c7f34c0fdb4c8288b87" target="_top" xlink:title="zipCloseFileInZipRaw">
<polygon fill="white" stroke="black" points="473.5,-655.5 473.5,-674.5 586.5,-674.5 586.5,-655.5 473.5,-655.5"/>
<text text-anchor="middle" x="530" y="-662.5" font-family="Helvetica,sans-Serif" font-size="10.00">zipCloseFileInZipRaw</text>
</a>
</g>
</g>
<!-- Node3&#45;&gt;Node4 -->
<g id="edge3" class="edge"><title>Node3&#45;&gt;Node4</title>
<path fill="none" stroke="midnightblue" d="M416.276,-651.445C430.863,-653.199 447.338,-655.18 463.098,-657.075"/>
<polygon fill="midnightblue" stroke="midnightblue" points="462.977,-660.586 473.324,-658.305 463.813,-653.636 462.977,-660.586"/>
</g>
<!-- Node5 -->
<g id="node5" class="node"><title>Node5</title>
<g id="a_node5"><a xlink:href="zip_8c.html#a3bed1cfe7ae981d2a433a1dbdb2cc436" target="_top" xlink:title="zipCloseFileInZipRaw64">
<polygon fill="white" stroke="black" points="644,-655.5 644,-674.5 767,-674.5 767,-655.5 644,-655.5"/>
<text text-anchor="middle" x="705.5" y="-662.5" font-family="Helvetica,sans-Serif" font-size="10.00">zipCloseFileInZipRaw64</text>
</a>
</g>
</g>
<!-- Node4&#45;&gt;Node5 -->
<g id="edge4" class="edge"><title>Node4&#45;&gt;Node5</title>
<path fill="none" stroke="midnightblue" d="M586.852,-665C601.804,-665 618.164,-665 633.804,-665"/>
<polygon fill="midnightblue" stroke="midnightblue" points="633.955,-668.5 643.955,-665 633.955,-661.5 633.955,-668.5"/>
</g>
<!-- Node5&#45;&gt;Node6 -->
<g id="edge5" class="edge"><title>Node5&#45;&gt;Node6</title>
<path fill="none" stroke="midnightblue" d="M739.814,-674.526C808.709,-692.144 969.318,-722.232 1076,-655 1127.58,-622.494 1152.22,-549.285 1161.46,-513.897"/>
<polygon fill="midnightblue" stroke="midnightblue" points="1164.94,-514.382 1163.93,-503.836 1158.15,-512.711 1164.94,-514.382"/>
</g>
<!-- Node7 -->
<g id="node7" class="node"><title>Node7</title>
<g id="a_node7"><a xlink:href="zip_8c.html#aacb39e685c358a284a9162e579793469" target="_top" xlink:title="zip64FlushWriteBuffer">
<polygon fill="white" stroke="black" points="804.5,-712.5 804.5,-731.5 917.5,-731.5 917.5,-712.5 804.5,-712.5"/>
<text text-anchor="middle" x="861" y="-719.5" font-family="Helvetica,sans-Serif" font-size="10.00">zip64FlushWriteBuffer</text>
</a>
</g>
</g>
<!-- Node5&#45;&gt;Node7 -->
<g id="edge6" class="edge"><title>Node5&#45;&gt;Node7</title>
<path fill="none" stroke="midnightblue" d="M732.192,-674.541C757.539,-683.953 796.483,-698.414 824.722,-708.9"/>
<polygon fill="midnightblue" stroke="midnightblue" points="823.631,-712.228 834.224,-712.428 826.068,-705.666 823.631,-712.228"/>
</g>
<!-- Node5&#45;&gt;Node8 -->
<g id="edge7" class="edge"><title>Node5&#45;&gt;Node8</title>
<path fill="none" stroke="midnightblue" d="M714.873,-674.706C730.289,-691.782 765.075,-726.738 803,-741 903.418,-778.764 1030.55,-774.75 1104.63,-767.793"/>
<polygon fill="midnightblue" stroke="midnightblue" points="1105.11,-771.262 1114.72,-766.795 1104.43,-764.296 1105.11,-771.262"/>
</g>
<!-- Node9 -->
<g id="node9" class="node"><title>Node9</title>
<g id="a_node9"><a xlink:href="zip_8c.html#af411f447b40db1fad258dee3b786ccc1" target="_top" xlink:title="add_data_in_datablock">
<polygon fill="white" stroke="black" points="803,-560.5 803,-579.5 919,-579.5 919,-560.5 803,-560.5"/>
<text text-anchor="middle" x="861" y="-567.5" font-family="Helvetica,sans-Serif" font-size="10.00">add_data_in_datablock</text>
</a>
</g>
</g>
<!-- Node5&#45;&gt;Node9 -->
<g id="edge8" class="edge"><title>Node5&#45;&gt;Node9</title>
<path fill="none" stroke="midnightblue" d="M717.776,-655.318C735.195,-640.692 770.082,-612.692 803,-594 809.676,-590.209 817.069,-586.664 824.258,-583.522"/>
<polygon fill="midnightblue" stroke="midnightblue" points="825.978,-586.597 833.848,-579.504 823.273,-580.141 825.978,-586.597"/>
</g>
<!-- Node11 -->
<g id="node11" class="node"><title>Node11</title>
<g id="a_node11"><a xlink:href="zip_8c.html#a5aeb27e162442455a221eb365c68f8d2" target="_top" xlink:title="zip64local_putValue">
<polygon fill="white" stroke="black" points="963.5,-598.5 963.5,-617.5 1067.5,-617.5 1067.5,-598.5 963.5,-598.5"/>
<text text-anchor="middle" x="1015.5" y="-605.5" font-family="Helvetica,sans-Serif" font-size="10.00">zip64local_putValue</text>
</a>
</g>
</g>
<!-- Node5&#45;&gt;Node11 -->
<g id="edge16" class="edge"><title>Node5&#45;&gt;Node11</title>
<path fill="none" stroke="midnightblue" d="M725.927,-655.438C745.045,-646.491 775.316,-633.551 803,-627 852.715,-615.236 910.58,-610.64 953.204,-608.9"/>
<polygon fill="midnightblue" stroke="midnightblue" points="953.559,-612.389 963.424,-608.525 953.302,-605.394 953.559,-612.389"/>
</g>
<!-- Node10 -->
<g id="node10" class="node"><title>Node10</title>
<g id="a_node10"><a xlink:href="zip_8c.html#a86c6b1ea8228286351584adc3d47b07c" target="_top" xlink:title="allocate_new_datablock">
<polygon fill="white" stroke="black" points="955,-560.5 955,-579.5 1076,-579.5 1076,-560.5 955,-560.5"/>
<text text-anchor="middle" x="1015.5" y="-567.5" font-family="Helvetica,sans-Serif" font-size="10.00">allocate_new_datablock</text>
</a>
</g>
</g>
<!-- Node9&#45;&gt;Node10 -->
<g id="edge9" class="edge"><title>Node9&#45;&gt;Node10</title>
<path fill="none" stroke="midnightblue" d="M919.219,-570C927.602,-570 936.313,-570 944.91,-570"/>
<polygon fill="midnightblue" stroke="midnightblue" points="944.924,-573.5 954.924,-570 944.924,-566.5 944.924,-573.5"/>
</g>
<!-- Node9&#45;&gt;Node11 -->
<g id="edge10" class="edge"><title>Node9&#45;&gt;Node11</title>
<path fill="none" stroke="midnightblue" d="M900.482,-579.589C920.516,-584.581 945.202,-590.732 966.476,-596.033"/>
<polygon fill="midnightblue" stroke="midnightblue" points="965.745,-599.458 976.295,-598.48 967.438,-592.666 965.745,-599.458"/>
</g>
<!-- Node12 -->
<g id="node12" class="node"><title>Node12</title>
<g id="a_node12"><a xlink:href="zip_8c.html#aeceecbdb8a6daac5791ebba72d0bf346" target="_top" xlink:title="OF">
<polygon fill="white" stroke="black" points="1152,-332.5 1152,-351.5 1182,-351.5 1182,-332.5 1152,-332.5"/>
<text text-anchor="middle" x="1167" y="-339.5" font-family="Helvetica,sans-Serif" font-size="10.00">OF</text>
</a>
</g>
</g>
<!-- Node9&#45;&gt;Node12 -->
<g id="edge14" class="edge"><title>Node9&#45;&gt;Node12</title>
<path fill="none" stroke="midnightblue" d="M874.675,-560.493C921.705,-525.221 1086.5,-401.623 1145.11,-357.665"/>
<polygon fill="midnightblue" stroke="midnightblue" points="1147.37,-360.347 1153.27,-351.547 1143.17,-354.747 1147.37,-360.347"/>
</g>
<!-- Node9&#45;&gt;Node13 -->
<g id="edge15" class="edge"><title>Node9&#45;&gt;Node13</title>
<path fill="none" stroke="midnightblue" d="M863.9,-560.429C874.789,-505.936 929.685,-236.277 955,-209 993.626,-167.381 1025.44,-193.838 1076,-168 1102.26,-154.579 1129.46,-134.179 1146.99,-120.033"/>
<polygon fill="midnightblue" stroke="midnightblue" points="1149.26,-122.698 1154.77,-113.649 1144.81,-117.286 1149.26,-122.698"/>
</g>
<!-- Node11&#45;&gt;Node6 -->
<g id="edge11" class="edge"><title>Node11&#45;&gt;Node6</title>
<path fill="none" stroke="midnightblue" d="M1056.16,-598.427C1063.05,-595.913 1069.94,-592.806 1076,-589 1108.83,-568.384 1137.88,-533.048 1153.6,-511.772"/>
<polygon fill="midnightblue" stroke="midnightblue" points="1156.48,-513.756 1159.5,-503.598 1150.81,-509.661 1156.48,-513.756"/>
</g>
<!-- Node11&#45;&gt;Node8 -->
<g id="edge12" class="edge"><title>Node11&#45;&gt;Node8</title>
<path fill="none" stroke="midnightblue" d="M1025.85,-617.508C1049.27,-641.315 1110.91,-703.99 1144.1,-737.733"/>
<polygon fill="midnightblue" stroke="midnightblue" points="1141.6,-740.188 1151.11,-744.863 1146.6,-735.28 1141.6,-740.188"/>
</g>
<!-- Node11&#45;&gt;Node12 -->
<g id="edge13" class="edge"><title>Node11&#45;&gt;Node12</title>
<path fill="none" stroke="midnightblue" d="M1062.35,-598.497C1067.39,-596.027 1072.1,-592.917 1076,-589 1113.51,-551.369 1093.99,-524.988 1112,-475 1126.85,-433.787 1146.76,-386.464 1157.79,-360.853"/>
<polygon fill="midnightblue" stroke="midnightblue" points="1161.04,-362.145 1161.8,-351.577 1154.62,-359.365 1161.04,-362.145"/>
</g>
<!-- Node14&#45;&gt;Node6 -->
<g id="edge18" class="edge"><title>Node14&#45;&gt;Node6</title>
<path fill="none" stroke="midnightblue" d="M584.048,-389.523C712.014,-412.497 1034.53,-470.398 1135.38,-488.502"/>
<polygon fill="midnightblue" stroke="midnightblue" points="1134.77,-491.949 1145.23,-490.271 1136.01,-485.059 1134.77,-491.949"/>
</g>
<!-- Node14&#45;&gt;Node12 -->
<g id="edge36" class="edge"><title>Node14&#45;&gt;Node12</title>
<path fill="none" stroke="midnightblue" d="M608.229,-375.378C752.132,-366.767 1054.62,-348.665 1141.93,-343.44"/>
<polygon fill="midnightblue" stroke="midnightblue" points="1142.15,-346.933 1151.93,-342.842 1141.73,-339.946 1142.15,-346.933"/>
</g>
<!-- Node14&#45;&gt;Node13 -->
<g id="edge37" class="edge"><title>Node14&#45;&gt;Node13</title>
<path fill="none" stroke="midnightblue" d="M534.832,-370.379C546.699,-341.75 585.586,-256.172 644,-209 794.504,-87.4606 1047.77,-94.4636 1135.22,-101.07"/>
<polygon fill="midnightblue" stroke="midnightblue" points="1135.02,-104.565 1145.27,-101.885 1135.59,-97.5882 1135.02,-104.565"/>
</g>
<!-- Node15 -->
<g id="node15" class="node"><title>Node15</title>
<g id="a_node15"><a xlink:href="zip_8c.html#a20f347793909851b9e203b1689f27f4e" target="_top" xlink:title="zip64local_getByte">
<polygon fill="white" stroke="black" points="656,-218.5 656,-237.5 755,-237.5 755,-218.5 656,-218.5"/>
<text text-anchor="middle" x="705.5" y="-225.5" font-family="Helvetica,sans-Serif" font-size="10.00">zip64local_getByte</text>
</a>
</g>
</g>
<!-- Node14&#45;&gt;Node15 -->
<g id="edge19" class="edge"><title>Node14&#45;&gt;Node15</title>
<path fill="none" stroke="midnightblue" d="M541.853,-370.492C570.699,-345.221 649.536,-276.153 685.798,-244.384"/>
<polygon fill="midnightblue" stroke="midnightblue" points="688.436,-246.727 693.651,-237.505 683.823,-241.462 688.436,-246.727"/>
</g>
<!-- Node15&#45;&gt;Node6 -->
<g id="edge35" class="edge"><title>Node15&#45;&gt;Node6</title>
<path fill="none" stroke="midnightblue" d="M715.308,-237.65C731.414,-254.882 767.258,-291.35 803,-315 914.601,-388.845 957.282,-380.244 1076,-442 1098.63,-453.772 1123.71,-468.399 1141.63,-479.138"/>
<polygon fill="midnightblue" stroke="midnightblue" points="1139.93,-482.199 1150.3,-484.364 1143.55,-476.204 1139.93,-482.199"/>
</g>
<!-- Node15&#45;&gt;Node12 -->
<g id="edge33" class="edge"><title>Node15&#45;&gt;Node12</title>
<path fill="none" stroke="midnightblue" d="M719.137,-237.61C736.863,-250.57 770.585,-273.364 803,-285 924.838,-328.736 1081.6,-338.95 1141.37,-341.306"/>
<polygon fill="midnightblue" stroke="midnightblue" points="1141.56,-344.814 1151.68,-341.67 1141.81,-337.819 1141.56,-344.814"/>
</g>
<!-- Node15&#45;&gt;Node13 -->
<g id="edge34" class="edge"><title>Node15&#45;&gt;Node13</title>
<path fill="none" stroke="midnightblue" d="M723.801,-218.496C742.749,-208.432 774.274,-192.689 803,-183 922.586,-142.664 1071.44,-117.834 1134.95,-108.373"/>
<polygon fill="midnightblue" stroke="midnightblue" points="1135.71,-111.799 1145.1,-106.885 1134.7,-104.873 1135.71,-111.799"/>
</g>
<!-- Node16 -->
<g id="node16" class="node"><title>Node16</title>
<g id="a_node16"><a xlink:href="ioapi_8h.html#a787fa3cf048117ba7123753c1e74fcd6" target="_top" xlink:title="int">
<polygon fill="white" stroke="black" points="846.5,-256.5 846.5,-275.5 875.5,-275.5 875.5,-256.5 846.5,-256.5"/>
<text text-anchor="middle" x="861" y="-263.5" font-family="Helvetica,sans-Serif" font-size="10.00">int</text>
</a>
</g>
</g>
<!-- Node15&#45;&gt;Node16 -->
<g id="edge20" class="edge"><title>Node15&#45;&gt;Node16</title>
<path fill="none" stroke="midnightblue" d="M745.235,-237.589C774.015,-244.714 812.336,-254.2 836.593,-260.205"/>
<polygon fill="midnightblue" stroke="midnightblue" points="835.813,-263.618 846.361,-262.624 837.495,-256.823 835.813,-263.618"/>
</g>
<!-- Node17 -->
<g id="node17" class="node"><title>Node17</title>
<g id="a_node17"><a xlink:href="zip_8c.html#a15321a6e2fcae4715b3874a1ce5576e0" target="_top" xlink:title="zip64local_getShort">
<polygon fill="white" stroke="black" points="810,-218.5 810,-237.5 912,-237.5 912,-218.5 810,-218.5"/>
<text text-anchor="middle" x="861" y="-225.5" font-family="Helvetica,sans-Serif" font-size="10.00">zip64local_getShort</text>
</a>
</g>
</g>
<!-- Node15&#45;&gt;Node17 -->
<g id="edge21" class="edge"><title>Node15&#45;&gt;Node17</title>
<path fill="none" stroke="midnightblue" d="M755.068,-221.672C769.27,-221.228 784.966,-221.134 799.797,-221.391"/>
<polygon fill="midnightblue" stroke="midnightblue" points="799.819,-224.893 809.898,-221.625 799.981,-217.895 799.819,-224.893"/>
</g>
<!-- Node17&#45;&gt;Node6 -->
<g id="edge22" class="edge"><title>Node17&#45;&gt;Node6</title>
<path fill="none" stroke="midnightblue" d="M899.351,-237.59C906.154,-240.122 912.992,-243.23 919,-247 938.434,-259.196 938.854,-267.699 955,-284 1008.3,-337.811 1022.33,-350.555 1076,-404 1101.39,-429.286 1130.73,-458.65 1148.82,-476.78"/>
<polygon fill="midnightblue" stroke="midnightblue" points="1146.75,-479.658 1156.29,-484.265 1151.7,-474.714 1146.75,-479.658"/>
</g>
<!-- Node17&#45;&gt;Node12 -->
<g id="edge31" class="edge"><title>Node17&#45;&gt;Node12</title>
<path fill="none" stroke="midnightblue" d="M906.521,-237.571C950.574,-247.806 1019.42,-265.882 1076,-290 1100.03,-300.244 1125.66,-315.531 1143.4,-326.881"/>
<polygon fill="midnightblue" stroke="midnightblue" points="1141.62,-329.895 1151.91,-332.41 1145.43,-324.026 1141.62,-329.895"/>
</g>
<!-- Node17&#45;&gt;Node13 -->
<g id="edge32" class="edge"><title>Node17&#45;&gt;Node13</title>
<path fill="none" stroke="midnightblue" d="M877.029,-218.475C895.062,-207.313 926.446,-188.729 955,-176 1017.41,-148.179 1094.09,-124.489 1135.67,-112.463"/>
<polygon fill="midnightblue" stroke="midnightblue" points="1136.81,-115.778 1145.46,-109.661 1134.88,-109.049 1136.81,-115.778"/>
</g>
<!-- Node17&#45;&gt;Node15 -->
<g id="edge23" class="edge"><title>Node17&#45;&gt;Node15</title>
<path fill="none" stroke="midnightblue" d="M809.898,-234.375C795.592,-234.793 779.876,-234.862 765.11,-234.58"/>
<polygon fill="midnightblue" stroke="midnightblue" points="765.153,-231.08 755.068,-234.328 764.978,-238.077 765.153,-231.08"/>
</g>
<!-- Node18 -->
<g id="node18" class="node"><title>Node18</title>
<g id="a_node18"><a xlink:href="zip_8c.html#ae244e7a8d380a116d3dd94a197fb5adb" target="_top" xlink:title="zip64local_getLong">
<polygon fill="white" stroke="black" points="965.5,-218.5 965.5,-237.5 1065.5,-237.5 1065.5,-218.5 965.5,-218.5"/>
<text text-anchor="middle" x="1015.5" y="-225.5" font-family="Helvetica,sans-Serif" font-size="10.00">zip64local_getLong</text>
</a>
</g>
</g>
<!-- Node17&#45;&gt;Node18 -->
<g id="edge24" class="edge"><title>Node17&#45;&gt;Node18</title>
<path fill="none" stroke="midnightblue" d="M912.357,-228C926.11,-228 941.138,-228 955.334,-228"/>
<polygon fill="midnightblue" stroke="midnightblue" points="955.493,-231.5 965.493,-228 955.493,-224.5 955.493,-231.5"/>
</g>
<!-- Node18&#45;&gt;Node6 -->
<g id="edge25" class="edge"><title>Node18&#45;&gt;Node6</title>
<path fill="none" stroke="midnightblue" d="M1022.37,-237.579C1033.2,-255.299 1056.94,-294.453 1076,-328 1105.98,-380.751 1139.65,-443.992 1156.01,-474.983"/>
<polygon fill="midnightblue" stroke="midnightblue" points="1153.1,-476.979 1160.86,-484.196 1159.3,-473.717 1153.1,-476.979"/>
</g>
<!-- Node18&#45;&gt;Node12 -->
<g id="edge29" class="edge"><title>Node18&#45;&gt;Node12</title>
<path fill="none" stroke="midnightblue" d="M1047.03,-237.611C1056.71,-241.352 1067.17,-246.162 1076,-252 1106.82,-272.389 1135.79,-304.552 1152.16,-324.401"/>
<polygon fill="midnightblue" stroke="midnightblue" points="1149.56,-326.751 1158.57,-332.326 1155.01,-322.35 1149.56,-326.751"/>
</g>
<!-- Node18&#45;&gt;Node13 -->
<g id="edge30" class="edge"><title>Node18&#45;&gt;Node13</title>
<path fill="none" stroke="midnightblue" d="M1049.85,-218.465C1058.92,-214.868 1068.34,-210.12 1076,-204 1097.96,-186.449 1093.36,-173.042 1112,-152 1122.24,-140.442 1135.11,-128.901 1145.73,-120.033"/>
<polygon fill="midnightblue" stroke="midnightblue" points="1148.13,-122.586 1153.66,-113.545 1143.7,-117.168 1148.13,-122.586"/>
</g>
<!-- Node18&#45;&gt;Node15 -->
<g id="edge26" class="edge"><title>Node18&#45;&gt;Node15</title>
<path fill="none" stroke="midnightblue" d="M975.729,-218.49C958.477,-214.725 937.842,-210.856 919,-209 867.693,-203.946 854.312,-203.997 803,-209 787.535,-210.508 770.871,-213.345 755.815,-216.375"/>
<polygon fill="midnightblue" stroke="midnightblue" points="754.756,-213.02 745.682,-218.49 756.187,-219.873 754.756,-213.02"/>
</g>
<!-- Node19 -->
<g id="node19" class="node"><title>Node19</title>
<g id="a_node19"><a xlink:href="zip_8c.html#a8f469d2f6ea68fbacf9f10d88f00b425" target="_top" xlink:title="zip64local_getLong64">
<polygon fill="white" stroke="black" points="1112,-161.5 1112,-180.5 1222,-180.5 1222,-161.5 1112,-161.5"/>
<text text-anchor="middle" x="1167" y="-168.5" font-family="Helvetica,sans-Serif" font-size="10.00">zip64local_getLong64</text>
</a>
</g>
</g>
<!-- Node18&#45;&gt;Node19 -->
<g id="edge27" class="edge"><title>Node18&#45;&gt;Node19</title>
<path fill="none" stroke="midnightblue" d="M1041.52,-218.459C1066.1,-209.088 1103.81,-194.712 1131.28,-184.238"/>
<polygon fill="midnightblue" stroke="midnightblue" points="1132.8,-187.405 1140.9,-180.572 1130.3,-180.864 1132.8,-187.405"/>
</g>
<!-- Node19&#45;&gt;Node15 -->
<g id="edge28" class="edge"><title>Node19&#45;&gt;Node15</title>
<path fill="none" stroke="midnightblue" d="M1111.8,-172.621C1040.5,-175.438 911.546,-182.899 803,-202 784.144,-205.318 763.615,-210.606 746.358,-215.55"/>
<polygon fill="midnightblue" stroke="midnightblue" points="745.226,-212.234 736.612,-218.403 747.193,-218.952 745.226,-212.234"/>
</g>
<!-- Node20&#45;&gt;Node6 -->
<g id="edge42" class="edge"><title>Node20&#45;&gt;Node6</title>
<path fill="none" stroke="midnightblue" d="M919.191,-653.699C964.773,-656.972 1028.59,-654.918 1076,-627 1120.29,-600.917 1147.46,-543.425 1159.21,-513.29"/>
<polygon fill="midnightblue" stroke="midnightblue" points="1162.63,-514.127 1162.84,-503.534 1156.07,-511.685 1162.63,-514.127"/>
</g>
<!-- Node20&#45;&gt;Node11 -->
<g id="edge41" class="edge"><title>Node20&#45;&gt;Node11</title>
<path fill="none" stroke="midnightblue" d="M900.482,-636.411C920.516,-631.419 945.202,-625.268 966.476,-619.967"/>
<polygon fill="midnightblue" stroke="midnightblue" points="967.438,-623.334 976.295,-617.52 965.745,-616.542 967.438,-623.334"/>
</g>
</g>
</svg>
        <g id="navigator" transform="translate(0 0)" fill="#404254">
                <rect fill="#f2f5e9" fill-opacity="0.5" stroke="#606060" stroke-width=".5" x="0" y="0" width="60" height="60"/>
                <use id="zoomplus" xlink:href="#zoomPlus" x="17" y="9" onmousedown="handleZoom(evt,'in')"/>
                <use id="zoomminus" xlink:href="#zoomMin" x="42" y="9" onmousedown="handleZoom(evt,'out')"/>
                <use id="reset" xlink:href="#resetDef" x="30" y="36" onmousedown="handleReset()"/>
                <g id="arrowUp" xlink:href="#dirArrow" transform="translate(30 24)" onmousedown="handlePan(0,-1)">
                  <use xlink:href="#rim" fill="#404040">
                        <set attributeName="fill" to="#808080" begin="arrowUp.mouseover" end="arrowUp.mouseout"/>
                  </use>
                  <path fill="none" stroke="white" stroke-width="1.5" d="M0,-3.0v7 M-2.5,-0.5L0,-3.0L2.5,-0.5"/>
                </g>
                <g id="arrowRight" xlink:href="#dirArrow" transform="rotate(90) translate(36 -43)" onmousedown="handlePan(1,0)">
                  <use xlink:href="#rim" fill="#404040">
                        <set attributeName="fill" to="#808080" begin="arrowRight.mouseover" end="arrowRight.mouseout"/>
                  </use>
                  <path fill="none" stroke="white" stroke-width="1.5" d="M0,-3.0v7 M-2.5,-0.5L0,-3.0L2.5,-0.5"/>
                </g>
                <g id="arrowDown" xlink:href="#dirArrow" transform="rotate(180) translate(-30 -48)" onmousedown="handlePan(0,1)">
                  <use xlink:href="#rim" fill="#404040">
                        <set attributeName="fill" to="#808080" begin="arrowDown.mouseover" end="arrowDown.mouseout"/>
                  </use>
                  <path fill="none" stroke="white" stroke-width="1.5" d="M0,-3.0v7 M-2.5,-0.5L0,-3.0L2.5,-0.5"/>
                </g>
                <g id="arrowLeft" xlink:href="#dirArrow" transform="rotate(270) translate(-36 17)" onmousedown="handlePan(-1,0)">
                  <use xlink:href="#rim" fill="#404040">
                        <set attributeName="fill" to="#808080" begin="arrowLeft.mouseover" end="arrowLeft.mouseout"/>
                  </use>
                  <path fill="none" stroke="white" stroke-width="1.5" d="M0,-3.0v7 M-2.5,-0.5L0,-3.0L2.5,-0.5"/>
                </g>
        </g>
        <svg viewBox="0 0 15 15" width="100%" height="30px" preserveAspectRatio="xMaxYMin meet">
         <g id="arrow_out" transform="scale(0.3 0.3)">
          <a xlink:href="zip_8c_a180a6d99515153ada3b58349fcee6a4c_cgraph_org.svg" target="_base">
           <rect id="button" ry="5" rx="5" y="6" x="6" height="38" width="38"
                fill="#f2f5e9" fill-opacity="0.5" stroke="#606060" stroke-width="1.0"/>
           <path id="arrow"
             d="M 11.500037,31.436501 C 11.940474,20.09759 22.043105,11.32322 32.158766,21.979434 L 37.068811,17.246167 C 37.068811,17.246167 37.088388,32 37.088388,32 L 22.160133,31.978069 C 22.160133,31.978069 26.997745,27.140456 26.997745,27.140456 C 18.528582,18.264221 13.291696,25.230495 11.500037,31.436501 z"
             style="fill:#404040;"/>
          </a>
         </g>
        </svg>
</svg>
