<?xml version="1.0" encoding="UTF-8" standalone="no"?>
<!DOCTYPE svg PUBLIC "-//W3C//DTD SVG 1.1//EN"
 "http://www.w3.org/Graphics/SVG/1.1/DTD/svg11.dtd">
<!-- Generated by graphviz version 2.38.0 (20140413.2041)
 -->
<!-- Title: zipOpenNewFileInZip3_64 Pages: 1 -->
<!--zoomable 806 -->
<svg id="main" version="1.1" xmlns="http://www.w3.org/2000/svg" xmlns:xlink="http://www.w3.org/1999/xlink" xml:space="preserve" onload="init(evt)">
<style type="text/css"><![CDATA[
.edge:hover path { stroke: red; }
.edge:hover polygon { stroke: red; fill: red; }
]]></style>
<script type="text/javascript"><![CDATA[
var edges = document.getElementsByTagName('g');
if (edges && edges.length) {
  for (var i=0;i<edges.length;i++) {
    if (edges[i].id.substr(0,4)=='edge') {
      edges[i].setAttribute('class','edge');
    }
  }
}
]]></script>
        <defs>
                <circle id="rim" cx="0" cy="0" r="7"/>
                <circle id="rim2" cx="0" cy="0" r="3.5"/>
                <g id="zoomPlus">
                        <use xlink:href="#rim" fill="#404040">
                                <set attributeName="fill" to="#808080" begin="zoomplus.mouseover" end="zoomplus.mouseout"/>
                        </use>
                        <path d="M-4,0h8M0,-4v8" fill="none" stroke="white" stroke-width="1.5" pointer-events="none"/>
                </g>
                <g id="zoomMin">
                        <use xlink:href="#rim" fill="#404040">
                                <set attributeName="fill" to="#808080" begin="zoomminus.mouseover" end="zoomminus.mouseout"/>
                        </use>
                        <path d="M-4,0h8" fill="none" stroke="white" stroke-width="1.5" pointer-events="none"/>
                </g>
                <g id="dirArrow">
                        <path fill="none" stroke="white" stroke-width="1.5" d="M0,-3.0v7 M-2.5,-0.5L0,-3.0L2.5,-0.5"/>
                </g>
               <g id="resetDef">
                       <use xlink:href="#rim2" fill="#404040">
                               <set attributeName="fill" to="#808080" begin="reset.mouseover" end="reset.mouseout"/>
                       </use>
               </g>
        </defs>

<script type="text/javascript">
var viewWidth = 1240;
var viewHeight = 806;
var sectionId = 'dynsection-30';
</script>
<script xlink:href="svgpan.js"/>
<svg id="graph" class="graph">
<g id="viewport">
<title>zipOpenNewFileInZip3_64</title>
<polygon fill="white" stroke="none" points="-4,4 -4,-802.366 1236,-802.366 1236,4 -4,4"/>
<!-- Node1 -->
<g id="node1" class="node"><title>Node1</title>
<polygon fill="#bfbfbf" stroke="black" points="0,-560.5 0,-579.5 131,-579.5 131,-560.5 0,-560.5"/>
<text text-anchor="middle" x="65.5" y="-567.5" font-family="Helvetica,sans-Serif" font-size="10.00">zipOpenNewFileInZip3_64</text>
</g>
<!-- Node2 -->
<g id="node2" class="node"><title>Node2</title>
<g id="a_node2"><a xlink:href="zip_8c.html#a638e4d5a7305f25e1ef6c2f6f14e2861" target="_top" xlink:title="zipOpenNewFileInZip4_64">
<polygon fill="white" stroke="black" points="167,-560.5 167,-579.5 298,-579.5 298,-560.5 167,-560.5"/>
<text text-anchor="middle" x="232.5" y="-567.5" font-family="Helvetica,sans-Serif" font-size="10.00">zipOpenNewFileInZip4_64</text>
</a>
</g>
</g>
<!-- Node1&#45;&gt;Node2 -->
<g id="edge1" class="edge"><title>Node1&#45;&gt;Node2</title>
<path fill="none" stroke="midnightblue" d="M131.239,-570C139.583,-570 148.182,-570 156.671,-570"/>
<polygon fill="midnightblue" stroke="midnightblue" points="156.948,-573.5 166.948,-570 156.948,-566.5 156.948,-573.5"/>
</g>
<!-- Node3 -->
<g id="node3" class="node"><title>Node3</title>
<g id="a_node3"><a xlink:href="zip_8c.html#ae470f753aef4cffe4f77a5ec2bcfbde1" target="_top" xlink:title="zipCloseFileInZip">
<polygon fill="white" stroke="black" points="334,-636.5 334,-655.5 426,-655.5 426,-636.5 334,-636.5"/>
<text text-anchor="middle" x="380" y="-643.5" font-family="Helvetica,sans-Serif" font-size="10.00">zipCloseFileInZip</text>
</a>
</g>
</g>
<!-- Node2&#45;&gt;Node3 -->
<g id="edge2" class="edge"><title>Node2&#45;&gt;Node3</title>
<path fill="none" stroke="midnightblue" d="M251.928,-579.625C277.073,-592.76 322.334,-616.401 351.5,-631.636"/>
<polygon fill="midnightblue" stroke="midnightblue" points="350.238,-634.925 360.722,-636.453 353.479,-628.721 350.238,-634.925"/>
</g>
<!-- Node6 -->
<g id="node6" class="node"><title>Node6</title>
<g id="a_node6"><a xlink:href="ioapi_8h.html#a50e9e9d5c30e481de822ad68fe537986" target="_top" xlink:title="uLong">
<polygon fill="white" stroke="black" points="1155.5,-484.5 1155.5,-503.5 1198.5,-503.5 1198.5,-484.5 1155.5,-484.5"/>
<text text-anchor="middle" x="1177" y="-491.5" font-family="Helvetica,sans-Serif" font-size="10.00">uLong</text>
</a>
</g>
</g>
<!-- Node2&#45;&gt;Node6 -->
<g id="edge39" class="edge"><title>Node2&#45;&gt;Node6</title>
<path fill="none" stroke="midnightblue" d="M280.637,-560.46C340.455,-549.204 446.938,-532 539,-532 539,-532 539,-532 872,-532 972.726,-532 1090.78,-511.205 1145.41,-500.382"/>
<polygon fill="midnightblue" stroke="midnightblue" points="1146.36,-503.762 1155.47,-498.359 1144.98,-496.9 1146.36,-503.762"/>
</g>
<!-- Node8 -->
<g id="node8" class="node"><title>Node8</title>
<g id="a_node8"><a xlink:href="zip_8c.html#a472dc2ba2bf1d51a41e87cd97dbdb18b" target="_top" xlink:title="zip64local_putValue\l_inmemory">
<polygon fill="white" stroke="black" points="1125,-745 1125,-775 1229,-775 1229,-745 1125,-745"/>
<text text-anchor="start" x="1133" y="-763" font-family="Helvetica,sans-Serif" font-size="10.00">zip64local_putValue</text>
<text text-anchor="middle" x="1177" y="-752" font-family="Helvetica,sans-Serif" font-size="10.00">_inmemory</text>
</a>
</g>
</g>
<!-- Node2&#45;&gt;Node8 -->
<g id="edge38" class="edge"><title>Node2&#45;&gt;Node8</title>
<path fill="none" stroke="midnightblue" d="M239.489,-579.507C267.493,-622.657 390.424,-798 539,-798 539,-798 539,-798 872,-798 967.314,-798 991.948,-799.464 1086,-784 1095.93,-782.367 1106.36,-780.109 1116.45,-777.626"/>
<polygon fill="midnightblue" stroke="midnightblue" points="1117.57,-780.951 1126.39,-775.084 1115.84,-774.17 1117.57,-780.951"/>
</g>
<!-- Node13 -->
<g id="node13" class="node"><title>Node13</title>
<g id="a_node13"><a xlink:href="ioapi_8h.html#a39ab6d73c1cd44bc17064c2dcbb3e753" target="_top" xlink:title="voidpf">
<polygon fill="white" stroke="black" points="1155.5,-94.5 1155.5,-113.5 1198.5,-113.5 1198.5,-94.5 1155.5,-94.5"/>
<text text-anchor="middle" x="1177" y="-101.5" font-family="Helvetica,sans-Serif" font-size="10.00">voidpf</text>
</a>
</g>
</g>
<!-- Node2&#45;&gt;Node13 -->
<g id="edge43" class="edge"><title>Node2&#45;&gt;Node13</title>
<path fill="none" stroke="midnightblue" d="M233.951,-560.107C237.968,-484.417 274.03,-0 539,-0 539,-0 539,-0 872,-0 980.999,-0 1100.72,-60.5941 1151.29,-89.2787"/>
<polygon fill="midnightblue" stroke="midnightblue" points="1149.77,-92.4433 1160.18,-94.4023 1153.26,-86.3778 1149.77,-92.4433"/>
</g>
<!-- Node14 -->
<g id="node14" class="node"><title>Node14</title>
<g id="a_node14"><a xlink:href="zip_8c.html#a0358f3b6350c161f10e6594b09ca15b3" target="_top" xlink:title="zip64local_TmzDateToDosDate">
<polygon fill="white" stroke="black" points="462,-370.5 462,-389.5 618,-389.5 618,-370.5 462,-370.5"/>
<text text-anchor="middle" x="540" y="-377.5" font-family="Helvetica,sans-Serif" font-size="10.00">zip64local_TmzDateToDosDate</text>
</a>
</g>
</g>
<!-- Node2&#45;&gt;Node14 -->
<g id="edge17" class="edge"><title>Node2&#45;&gt;Node14</title>
<path fill="none" stroke="midnightblue" d="M249.07,-560.317C298.815,-529.379 454.177,-432.754 514.608,-395.17"/>
<polygon fill="midnightblue" stroke="midnightblue" points="516.818,-397.917 523.462,-389.664 513.121,-391.973 516.818,-397.917"/>
</g>
<!-- Node20 -->
<g id="node20" class="node"><title>Node20</title>
<g id="a_node20"><a xlink:href="zip_8c.html#a725809dec135ca745658c72a8578e505" target="_top" xlink:title="Write_LocalFileHeader">
<polygon fill="white" stroke="black" points="813,-636.5 813,-655.5 929,-655.5 929,-636.5 813,-636.5"/>
<text text-anchor="middle" x="871" y="-643.5" font-family="Helvetica,sans-Serif" font-size="10.00">Write_LocalFileHeader</text>
</a>
</g>
</g>
<!-- Node2&#45;&gt;Node20 -->
<g id="edge40" class="edge"><title>Node2&#45;&gt;Node20</title>
<path fill="none" stroke="midnightblue" d="M298.034,-577.706C419.152,-592.167 679.395,-623.241 802.641,-637.957"/>
<polygon fill="midnightblue" stroke="midnightblue" points="802.36,-641.448 812.705,-639.159 803.19,-634.498 802.36,-641.448"/>
</g>
<!-- Node4 -->
<g id="node4" class="node"><title>Node4</title>
<g id="a_node4"><a xlink:href="zip_8c.html#a43fe6f36cef62c7f34c0fdb4c8288b87" target="_top" xlink:title="zipCloseFileInZipRaw">
<polygon fill="white" stroke="black" points="483.5,-655.5 483.5,-674.5 596.5,-674.5 596.5,-655.5 483.5,-655.5"/>
<text text-anchor="middle" x="540" y="-662.5" font-family="Helvetica,sans-Serif" font-size="10.00">zipCloseFileInZipRaw</text>
</a>
</g>
</g>
<!-- Node3&#45;&gt;Node4 -->
<g id="edge3" class="edge"><title>Node3&#45;&gt;Node4</title>
<path fill="none" stroke="midnightblue" d="M426.276,-651.445C440.863,-653.199 457.338,-655.18 473.098,-657.075"/>
<polygon fill="midnightblue" stroke="midnightblue" points="472.977,-660.586 483.324,-658.305 473.813,-653.636 472.977,-660.586"/>
</g>
<!-- Node5 -->
<g id="node5" class="node"><title>Node5</title>
<g id="a_node5"><a xlink:href="zip_8c.html#a3bed1cfe7ae981d2a433a1dbdb2cc436" target="_top" xlink:title="zipCloseFileInZipRaw64">
<polygon fill="white" stroke="black" points="654,-655.5 654,-674.5 777,-674.5 777,-655.5 654,-655.5"/>
<text text-anchor="middle" x="715.5" y="-662.5" font-family="Helvetica,sans-Serif" font-size="10.00">zipCloseFileInZipRaw64</text>
</a>
</g>
</g>
<!-- Node4&#45;&gt;Node5 -->
<g id="edge4" class="edge"><title>Node4&#45;&gt;Node5</title>
<path fill="none" stroke="midnightblue" d="M596.852,-665C611.804,-665 628.164,-665 643.804,-665"/>
<polygon fill="midnightblue" stroke="midnightblue" points="643.955,-668.5 653.955,-665 643.955,-661.5 643.955,-668.5"/>
</g>
<!-- Node5&#45;&gt;Node6 -->
<g id="edge5" class="edge"><title>Node5&#45;&gt;Node6</title>
<path fill="none" stroke="midnightblue" d="M749.814,-674.526C818.709,-692.144 979.318,-722.232 1086,-655 1137.58,-622.494 1162.22,-549.285 1171.46,-513.897"/>
<polygon fill="midnightblue" stroke="midnightblue" points="1174.94,-514.382 1173.93,-503.836 1168.15,-512.711 1174.94,-514.382"/>
</g>
<!-- Node7 -->
<g id="node7" class="node"><title>Node7</title>
<g id="a_node7"><a xlink:href="zip_8c.html#aacb39e685c358a284a9162e579793469" target="_top" xlink:title="zip64FlushWriteBuffer">
<polygon fill="white" stroke="black" points="814.5,-712.5 814.5,-731.5 927.5,-731.5 927.5,-712.5 814.5,-712.5"/>
<text text-anchor="middle" x="871" y="-719.5" font-family="Helvetica,sans-Serif" font-size="10.00">zip64FlushWriteBuffer</text>
</a>
</g>
</g>
<!-- Node5&#45;&gt;Node7 -->
<g id="edge6" class="edge"><title>Node5&#45;&gt;Node7</title>
<path fill="none" stroke="midnightblue" d="M742.192,-674.541C767.539,-683.953 806.483,-698.414 834.722,-708.9"/>
<polygon fill="midnightblue" stroke="midnightblue" points="833.631,-712.228 844.224,-712.428 836.068,-705.666 833.631,-712.228"/>
</g>
<!-- Node5&#45;&gt;Node8 -->
<g id="edge7" class="edge"><title>Node5&#45;&gt;Node8</title>
<path fill="none" stroke="midnightblue" d="M724.873,-674.706C740.289,-691.782 775.075,-726.738 813,-741 913.418,-778.764 1040.55,-774.75 1114.63,-767.793"/>
<polygon fill="midnightblue" stroke="midnightblue" points="1115.11,-771.262 1124.72,-766.795 1114.43,-764.296 1115.11,-771.262"/>
</g>
<!-- Node9 -->
<g id="node9" class="node"><title>Node9</title>
<g id="a_node9"><a xlink:href="zip_8c.html#af411f447b40db1fad258dee3b786ccc1" target="_top" xlink:title="add_data_in_datablock">
<polygon fill="white" stroke="black" points="813,-560.5 813,-579.5 929,-579.5 929,-560.5 813,-560.5"/>
<text text-anchor="middle" x="871" y="-567.5" font-family="Helvetica,sans-Serif" font-size="10.00">add_data_in_datablock</text>
</a>
</g>
</g>
<!-- Node5&#45;&gt;Node9 -->
<g id="edge8" class="edge"><title>Node5&#45;&gt;Node9</title>
<path fill="none" stroke="midnightblue" d="M727.776,-655.318C745.195,-640.692 780.082,-612.692 813,-594 819.676,-590.209 827.069,-586.664 834.258,-583.522"/>
<polygon fill="midnightblue" stroke="midnightblue" points="835.978,-586.597 843.848,-579.504 833.273,-580.141 835.978,-586.597"/>
</g>
<!-- Node11 -->
<g id="node11" class="node"><title>Node11</title>
<g id="a_node11"><a xlink:href="zip_8c.html#a5aeb27e162442455a221eb365c68f8d2" target="_top" xlink:title="zip64local_putValue">
<polygon fill="white" stroke="black" points="973.5,-598.5 973.5,-617.5 1077.5,-617.5 1077.5,-598.5 973.5,-598.5"/>
<text text-anchor="middle" x="1025.5" y="-605.5" font-family="Helvetica,sans-Serif" font-size="10.00">zip64local_putValue</text>
</a>
</g>
</g>
<!-- Node5&#45;&gt;Node11 -->
<g id="edge16" class="edge"><title>Node5&#45;&gt;Node11</title>
<path fill="none" stroke="midnightblue" d="M735.927,-655.438C755.045,-646.491 785.316,-633.551 813,-627 862.715,-615.236 920.58,-610.64 963.204,-608.9"/>
<polygon fill="midnightblue" stroke="midnightblue" points="963.559,-612.389 973.424,-608.525 963.302,-605.394 963.559,-612.389"/>
</g>
<!-- Node10 -->
<g id="node10" class="node"><title>Node10</title>
<g id="a_node10"><a xlink:href="zip_8c.html#a86c6b1ea8228286351584adc3d47b07c" target="_top" xlink:title="allocate_new_datablock">
<polygon fill="white" stroke="black" points="965,-560.5 965,-579.5 1086,-579.5 1086,-560.5 965,-560.5"/>
<text text-anchor="middle" x="1025.5" y="-567.5" font-family="Helvetica,sans-Serif" font-size="10.00">allocate_new_datablock</text>
</a>
</g>
</g>
<!-- Node9&#45;&gt;Node10 -->
<g id="edge9" class="edge"><title>Node9&#45;&gt;Node10</title>
<path fill="none" stroke="midnightblue" d="M929.219,-570C937.602,-570 946.313,-570 954.91,-570"/>
<polygon fill="midnightblue" stroke="midnightblue" points="954.924,-573.5 964.924,-570 954.924,-566.5 954.924,-573.5"/>
</g>
<!-- Node9&#45;&gt;Node11 -->
<g id="edge10" class="edge"><title>Node9&#45;&gt;Node11</title>
<path fill="none" stroke="midnightblue" d="M910.482,-579.589C930.516,-584.581 955.202,-590.732 976.476,-596.033"/>
<polygon fill="midnightblue" stroke="midnightblue" points="975.745,-599.458 986.295,-598.48 977.438,-592.666 975.745,-599.458"/>
</g>
<!-- Node12 -->
<g id="node12" class="node"><title>Node12</title>
<g id="a_node12"><a xlink:href="zip_8c.html#aeceecbdb8a6daac5791ebba72d0bf346" target="_top" xlink:title="OF">
<polygon fill="white" stroke="black" points="1162,-332.5 1162,-351.5 1192,-351.5 1192,-332.5 1162,-332.5"/>
<text text-anchor="middle" x="1177" y="-339.5" font-family="Helvetica,sans-Serif" font-size="10.00">OF</text>
</a>
</g>
</g>
<!-- Node9&#45;&gt;Node12 -->
<g id="edge14" class="edge"><title>Node9&#45;&gt;Node12</title>
<path fill="none" stroke="midnightblue" d="M884.675,-560.493C931.705,-525.221 1096.5,-401.623 1155.11,-357.665"/>
<polygon fill="midnightblue" stroke="midnightblue" points="1157.37,-360.347 1163.27,-351.547 1153.17,-354.747 1157.37,-360.347"/>
</g>
<!-- Node9&#45;&gt;Node13 -->
<g id="edge15" class="edge"><title>Node9&#45;&gt;Node13</title>
<path fill="none" stroke="midnightblue" d="M873.9,-560.429C884.789,-505.936 939.685,-236.277 965,-209 1003.63,-167.381 1035.44,-193.838 1086,-168 1112.26,-154.579 1139.46,-134.179 1156.99,-120.033"/>
<polygon fill="midnightblue" stroke="midnightblue" points="1159.26,-122.698 1164.77,-113.649 1154.81,-117.286 1159.26,-122.698"/>
</g>
<!-- Node11&#45;&gt;Node6 -->
<g id="edge11" class="edge"><title>Node11&#45;&gt;Node6</title>
<path fill="none" stroke="midnightblue" d="M1066.16,-598.427C1073.05,-595.913 1079.94,-592.806 1086,-589 1118.83,-568.384 1147.88,-533.048 1163.6,-511.772"/>
<polygon fill="midnightblue" stroke="midnightblue" points="1166.48,-513.756 1169.5,-503.598 1160.81,-509.661 1166.48,-513.756"/>
</g>
<!-- Node11&#45;&gt;Node8 -->
<g id="edge12" class="edge"><title>Node11&#45;&gt;Node8</title>
<path fill="none" stroke="midnightblue" d="M1035.85,-617.508C1059.27,-641.315 1120.91,-703.99 1154.1,-737.733"/>
<polygon fill="midnightblue" stroke="midnightblue" points="1151.6,-740.188 1161.11,-744.863 1156.6,-735.28 1151.6,-740.188"/>
</g>
<!-- Node11&#45;&gt;Node12 -->
<g id="edge13" class="edge"><title>Node11&#45;&gt;Node12</title>
<path fill="none" stroke="midnightblue" d="M1072.35,-598.497C1077.39,-596.027 1082.1,-592.917 1086,-589 1123.51,-551.369 1103.99,-524.988 1122,-475 1136.85,-433.787 1156.76,-386.464 1167.79,-360.853"/>
<polygon fill="midnightblue" stroke="midnightblue" points="1171.04,-362.145 1171.8,-351.577 1164.62,-359.365 1171.04,-362.145"/>
</g>
<!-- Node14&#45;&gt;Node6 -->
<g id="edge18" class="edge"><title>Node14&#45;&gt;Node6</title>
<path fill="none" stroke="midnightblue" d="M594.048,-389.523C722.014,-412.497 1044.53,-470.398 1145.38,-488.502"/>
<polygon fill="midnightblue" stroke="midnightblue" points="1144.77,-491.949 1155.23,-490.271 1146.01,-485.059 1144.77,-491.949"/>
</g>
<!-- Node14&#45;&gt;Node12 -->
<g id="edge36" class="edge"><title>Node14&#45;&gt;Node12</title>
<path fill="none" stroke="midnightblue" d="M618.229,-375.378C762.132,-366.767 1064.62,-348.665 1151.93,-343.44"/>
<polygon fill="midnightblue" stroke="midnightblue" points="1152.15,-346.933 1161.93,-342.842 1151.73,-339.946 1152.15,-346.933"/>
</g>
<!-- Node14&#45;&gt;Node13 -->
<g id="edge37" class="edge"><title>Node14&#45;&gt;Node13</title>
<path fill="none" stroke="midnightblue" d="M544.832,-370.379C556.699,-341.75 595.586,-256.172 654,-209 804.504,-87.4606 1057.77,-94.4636 1145.22,-101.07"/>
<polygon fill="midnightblue" stroke="midnightblue" points="1145.02,-104.565 1155.27,-101.885 1145.59,-97.5882 1145.02,-104.565"/>
</g>
<!-- Node15 -->
<g id="node15" class="node"><title>Node15</title>
<g id="a_node15"><a xlink:href="zip_8c.html#a20f347793909851b9e203b1689f27f4e" target="_top" xlink:title="zip64local_getByte">
<polygon fill="white" stroke="black" points="666,-218.5 666,-237.5 765,-237.5 765,-218.5 666,-218.5"/>
<text text-anchor="middle" x="715.5" y="-225.5" font-family="Helvetica,sans-Serif" font-size="10.00">zip64local_getByte</text>
</a>
</g>
</g>
<!-- Node14&#45;&gt;Node15 -->
<g id="edge19" class="edge"><title>Node14&#45;&gt;Node15</title>
<path fill="none" stroke="midnightblue" d="M551.853,-370.492C580.699,-345.221 659.536,-276.153 695.798,-244.384"/>
<polygon fill="midnightblue" stroke="midnightblue" points="698.436,-246.727 703.651,-237.505 693.823,-241.462 698.436,-246.727"/>
</g>
<!-- Node15&#45;&gt;Node6 -->
<g id="edge35" class="edge"><title>Node15&#45;&gt;Node6</title>
<path fill="none" stroke="midnightblue" d="M725.308,-237.65C741.414,-254.882 777.258,-291.35 813,-315 924.601,-388.845 967.282,-380.244 1086,-442 1108.63,-453.772 1133.71,-468.399 1151.63,-479.138"/>
<polygon fill="midnightblue" stroke="midnightblue" points="1149.93,-482.199 1160.3,-484.364 1153.55,-476.204 1149.93,-482.199"/>
</g>
<!-- Node15&#45;&gt;Node12 -->
<g id="edge33" class="edge"><title>Node15&#45;&gt;Node12</title>
<path fill="none" stroke="midnightblue" d="M729.137,-237.61C746.863,-250.57 780.585,-273.364 813,-285 934.838,-328.736 1091.6,-338.95 1151.37,-341.306"/>
<polygon fill="midnightblue" stroke="midnightblue" points="1151.56,-344.814 1161.68,-341.67 1151.81,-337.819 1151.56,-344.814"/>
</g>
<!-- Node15&#45;&gt;Node13 -->
<g id="edge34" class="edge"><title>Node15&#45;&gt;Node13</title>
<path fill="none" stroke="midnightblue" d="M733.801,-218.496C752.749,-208.432 784.274,-192.689 813,-183 932.586,-142.664 1081.44,-117.834 1144.95,-108.373"/>
<polygon fill="midnightblue" stroke="midnightblue" points="1145.71,-111.799 1155.1,-106.885 1144.7,-104.873 1145.71,-111.799"/>
</g>
<!-- Node16 -->
<g id="node16" class="node"><title>Node16</title>
<g id="a_node16"><a xlink:href="ioapi_8h.html#a787fa3cf048117ba7123753c1e74fcd6" target="_top" xlink:title="int">
<polygon fill="white" stroke="black" points="856.5,-256.5 856.5,-275.5 885.5,-275.5 885.5,-256.5 856.5,-256.5"/>
<text text-anchor="middle" x="871" y="-263.5" font-family="Helvetica,sans-Serif" font-size="10.00">int</text>
</a>
</g>
</g>
<!-- Node15&#45;&gt;Node16 -->
<g id="edge20" class="edge"><title>Node15&#45;&gt;Node16</title>
<path fill="none" stroke="midnightblue" d="M755.235,-237.589C784.015,-244.714 822.336,-254.2 846.593,-260.205"/>
<polygon fill="midnightblue" stroke="midnightblue" points="845.813,-263.618 856.361,-262.624 847.495,-256.823 845.813,-263.618"/>
</g>
<!-- Node17 -->
<g id="node17" class="node"><title>Node17</title>
<g id="a_node17"><a xlink:href="zip_8c.html#a15321a6e2fcae4715b3874a1ce5576e0" target="_top" xlink:title="zip64local_getShort">
<polygon fill="white" stroke="black" points="820,-218.5 820,-237.5 922,-237.5 922,-218.5 820,-218.5"/>
<text text-anchor="middle" x="871" y="-225.5" font-family="Helvetica,sans-Serif" font-size="10.00">zip64local_getShort</text>
</a>
</g>
</g>
<!-- Node15&#45;&gt;Node17 -->
<g id="edge21" class="edge"><title>Node15&#45;&gt;Node17</title>
<path fill="none" stroke="midnightblue" d="M765.068,-221.672C779.27,-221.228 794.966,-221.134 809.797,-221.391"/>
<polygon fill="midnightblue" stroke="midnightblue" points="809.819,-224.893 819.898,-221.625 809.981,-217.895 809.819,-224.893"/>
</g>
<!-- Node17&#45;&gt;Node6 -->
<g id="edge22" class="edge"><title>Node17&#45;&gt;Node6</title>
<path fill="none" stroke="midnightblue" d="M909.351,-237.59C916.154,-240.122 922.992,-243.23 929,-247 948.434,-259.196 948.854,-267.699 965,-284 1018.3,-337.811 1032.33,-350.555 1086,-404 1111.39,-429.286 1140.73,-458.65 1158.82,-476.78"/>
<polygon fill="midnightblue" stroke="midnightblue" points="1156.75,-479.658 1166.29,-484.265 1161.7,-474.714 1156.75,-479.658"/>
</g>
<!-- Node17&#45;&gt;Node12 -->
<g id="edge31" class="edge"><title>Node17&#45;&gt;Node12</title>
<path fill="none" stroke="midnightblue" d="M916.521,-237.571C960.574,-247.806 1029.42,-265.882 1086,-290 1110.03,-300.244 1135.66,-315.531 1153.4,-326.881"/>
<polygon fill="midnightblue" stroke="midnightblue" points="1151.62,-329.895 1161.91,-332.41 1155.43,-324.026 1151.62,-329.895"/>
</g>
<!-- Node17&#45;&gt;Node13 -->
<g id="edge32" class="edge"><title>Node17&#45;&gt;Node13</title>
<path fill="none" stroke="midnightblue" d="M887.029,-218.475C905.062,-207.313 936.446,-188.729 965,-176 1027.41,-148.179 1104.09,-124.489 1145.67,-112.463"/>
<polygon fill="midnightblue" stroke="midnightblue" points="1146.81,-115.778 1155.46,-109.661 1144.88,-109.049 1146.81,-115.778"/>
</g>
<!-- Node17&#45;&gt;Node15 -->
<g id="edge23" class="edge"><title>Node17&#45;&gt;Node15</title>
<path fill="none" stroke="midnightblue" d="M819.898,-234.375C805.592,-234.793 789.876,-234.862 775.11,-234.58"/>
<polygon fill="midnightblue" stroke="midnightblue" points="775.153,-231.08 765.068,-234.328 774.978,-238.077 775.153,-231.08"/>
</g>
<!-- Node18 -->
<g id="node18" class="node"><title>Node18</title>
<g id="a_node18"><a xlink:href="zip_8c.html#ae244e7a8d380a116d3dd94a197fb5adb" target="_top" xlink:title="zip64local_getLong">
<polygon fill="white" stroke="black" points="975.5,-218.5 975.5,-237.5 1075.5,-237.5 1075.5,-218.5 975.5,-218.5"/>
<text text-anchor="middle" x="1025.5" y="-225.5" font-family="Helvetica,sans-Serif" font-size="10.00">zip64local_getLong</text>
</a>
</g>
</g>
<!-- Node17&#45;&gt;Node18 -->
<g id="edge24" class="edge"><title>Node17&#45;&gt;Node18</title>
<path fill="none" stroke="midnightblue" d="M922.357,-228C936.11,-228 951.138,-228 965.334,-228"/>
<polygon fill="midnightblue" stroke="midnightblue" points="965.493,-231.5 975.493,-228 965.493,-224.5 965.493,-231.5"/>
</g>
<!-- Node18&#45;&gt;Node6 -->
<g id="edge25" class="edge"><title>Node18&#45;&gt;Node6</title>
<path fill="none" stroke="midnightblue" d="M1032.37,-237.579C1043.2,-255.299 1066.94,-294.453 1086,-328 1115.98,-380.751 1149.65,-443.992 1166.01,-474.983"/>
<polygon fill="midnightblue" stroke="midnightblue" points="1163.1,-476.979 1170.86,-484.196 1169.3,-473.717 1163.1,-476.979"/>
</g>
<!-- Node18&#45;&gt;Node12 -->
<g id="edge29" class="edge"><title>Node18&#45;&gt;Node12</title>
<path fill="none" stroke="midnightblue" d="M1057.03,-237.611C1066.71,-241.352 1077.17,-246.162 1086,-252 1116.82,-272.389 1145.79,-304.552 1162.16,-324.401"/>
<polygon fill="midnightblue" stroke="midnightblue" points="1159.56,-326.751 1168.57,-332.326 1165.01,-322.35 1159.56,-326.751"/>
</g>
<!-- Node18&#45;&gt;Node13 -->
<g id="edge30" class="edge"><title>Node18&#45;&gt;Node13</title>
<path fill="none" stroke="midnightblue" d="M1059.85,-218.465C1068.92,-214.868 1078.34,-210.12 1086,-204 1107.96,-186.449 1103.36,-173.042 1122,-152 1132.24,-140.442 1145.11,-128.901 1155.73,-120.033"/>
<polygon fill="midnightblue" stroke="midnightblue" points="1158.13,-122.586 1163.66,-113.545 1153.7,-117.168 1158.13,-122.586"/>
</g>
<!-- Node18&#45;&gt;Node15 -->
<g id="edge26" class="edge"><title>Node18&#45;&gt;Node15</title>
<path fill="none" stroke="midnightblue" d="M985.729,-218.49C968.477,-214.725 947.842,-210.856 929,-209 877.693,-203.946 864.312,-203.997 813,-209 797.535,-210.508 780.871,-213.345 765.815,-216.375"/>
<polygon fill="midnightblue" stroke="midnightblue" points="764.756,-213.02 755.682,-218.49 766.187,-219.873 764.756,-213.02"/>
</g>
<!-- Node19 -->
<g id="node19" class="node"><title>Node19</title>
<g id="a_node19"><a xlink:href="zip_8c.html#a8f469d2f6ea68fbacf9f10d88f00b425" target="_top" xlink:title="zip64local_getLong64">
<polygon fill="white" stroke="black" points="1122,-161.5 1122,-180.5 1232,-180.5 1232,-161.5 1122,-161.5"/>
<text text-anchor="middle" x="1177" y="-168.5" font-family="Helvetica,sans-Serif" font-size="10.00">zip64local_getLong64</text>
</a>
</g>
</g>
<!-- Node18&#45;&gt;Node19 -->
<g id="edge27" class="edge"><title>Node18&#45;&gt;Node19</title>
<path fill="none" stroke="midnightblue" d="M1051.52,-218.459C1076.1,-209.088 1113.81,-194.712 1141.28,-184.238"/>
<polygon fill="midnightblue" stroke="midnightblue" points="1142.8,-187.405 1150.9,-180.572 1140.3,-180.864 1142.8,-187.405"/>
</g>
<!-- Node19&#45;&gt;Node15 -->
<g id="edge28" class="edge"><title>Node19&#45;&gt;Node15</title>
<path fill="none" stroke="midnightblue" d="M1121.8,-172.621C1050.5,-175.438 921.546,-182.899 813,-202 794.144,-205.318 773.615,-210.606 756.358,-215.55"/>
<polygon fill="midnightblue" stroke="midnightblue" points="755.226,-212.234 746.612,-218.403 757.193,-218.952 755.226,-212.234"/>
</g>
<!-- Node20&#45;&gt;Node6 -->
<g id="edge42" class="edge"><title>Node20&#45;&gt;Node6</title>
<path fill="none" stroke="midnightblue" d="M929.191,-653.699C974.773,-656.972 1038.59,-654.918 1086,-627 1130.29,-600.917 1157.46,-543.425 1169.21,-513.29"/>
<polygon fill="midnightblue" stroke="midnightblue" points="1172.63,-514.127 1172.84,-503.534 1166.07,-511.685 1172.63,-514.127"/>
</g>
<!-- Node20&#45;&gt;Node11 -->
<g id="edge41" class="edge"><title>Node20&#45;&gt;Node11</title>
<path fill="none" stroke="midnightblue" d="M910.482,-636.411C930.516,-631.419 955.202,-625.268 976.476,-619.967"/>
<polygon fill="midnightblue" stroke="midnightblue" points="977.438,-623.334 986.295,-617.52 975.745,-616.542 977.438,-623.334"/>
</g>
</g>
</svg>
        <g id="navigator" transform="translate(0 0)" fill="#404254">
                <rect fill="#f2f5e9" fill-opacity="0.5" stroke="#606060" stroke-width=".5" x="0" y="0" width="60" height="60"/>
                <use id="zoomplus" xlink:href="#zoomPlus" x="17" y="9" onmousedown="handleZoom(evt,'in')"/>
                <use id="zoomminus" xlink:href="#zoomMin" x="42" y="9" onmousedown="handleZoom(evt,'out')"/>
                <use id="reset" xlink:href="#resetDef" x="30" y="36" onmousedown="handleReset()"/>
                <g id="arrowUp" xlink:href="#dirArrow" transform="translate(30 24)" onmousedown="handlePan(0,-1)">
                  <use xlink:href="#rim" fill="#404040">
                        <set attributeName="fill" to="#808080" begin="arrowUp.mouseover" end="arrowUp.mouseout"/>
                  </use>
                  <path fill="none" stroke="white" stroke-width="1.5" d="M0,-3.0v7 M-2.5,-0.5L0,-3.0L2.5,-0.5"/>
                </g>
                <g id="arrowRight" xlink:href="#dirArrow" transform="rotate(90) translate(36 -43)" onmousedown="handlePan(1,0)">
                  <use xlink:href="#rim" fill="#404040">
                        <set attributeName="fill" to="#808080" begin="arrowRight.mouseover" end="arrowRight.mouseout"/>
                  </use>
                  <path fill="none" stroke="white" stroke-width="1.5" d="M0,-3.0v7 M-2.5,-0.5L0,-3.0L2.5,-0.5"/>
                </g>
                <g id="arrowDown" xlink:href="#dirArrow" transform="rotate(180) translate(-30 -48)" onmousedown="handlePan(0,1)">
                  <use xlink:href="#rim" fill="#404040">
                        <set attributeName="fill" to="#808080" begin="arrowDown.mouseover" end="arrowDown.mouseout"/>
                  </use>
                  <path fill="none" stroke="white" stroke-width="1.5" d="M0,-3.0v7 M-2.5,-0.5L0,-3.0L2.5,-0.5"/>
                </g>
                <g id="arrowLeft" xlink:href="#dirArrow" transform="rotate(270) translate(-36 17)" onmousedown="handlePan(-1,0)">
                  <use xlink:href="#rim" fill="#404040">
                        <set attributeName="fill" to="#808080" begin="arrowLeft.mouseover" end="arrowLeft.mouseout"/>
                  </use>
                  <path fill="none" stroke="white" stroke-width="1.5" d="M0,-3.0v7 M-2.5,-0.5L0,-3.0L2.5,-0.5"/>
                </g>
        </g>
        <svg viewBox="0 0 15 15" width="100%" height="30px" preserveAspectRatio="xMaxYMin meet">
         <g id="arrow_out" transform="scale(0.3 0.3)">
          <a xlink:href="zip_8c_adef753bf5ddc5752d6069a2d4f3ca0e9_cgraph_org.svg" target="_base">
           <rect id="button" ry="5" rx="5" y="6" x="6" height="38" width="38"
                fill="#f2f5e9" fill-opacity="0.5" stroke="#606060" stroke-width="1.0"/>
           <path id="arrow"
             d="M 11.500037,31.436501 C 11.940474,20.09759 22.043105,11.32322 32.158766,21.979434 L 37.068811,17.246167 C 37.068811,17.246167 37.088388,32 37.088388,32 L 22.160133,31.978069 C 22.160133,31.978069 26.997745,27.140456 26.997745,27.140456 C 18.528582,18.264221 13.291696,25.230495 11.500037,31.436501 z"
             style="fill:#404040;"/>
          </a>
         </g>
        </svg>
</svg>
