<?xml version="1.0" encoding="UTF-8" standalone="no"?>
<!DOCTYPE svg PUBLIC "-//W3C//DTD SVG 1.1//EN"
 "http://www.w3.org/Graphics/SVG/1.1/DTD/svg11.dtd">
<!-- Generated by graphviz version 2.38.0 (20140413.2041)
 -->
<!-- Title: LoadCentralDirectoryRecord Pages: 1 -->
<!--zoomable 626 -->
<svg id="main" version="1.1" xmlns="http://www.w3.org/2000/svg" xmlns:xlink="http://www.w3.org/1999/xlink" xml:space="preserve" onload="init(evt)">
<style type="text/css"><![CDATA[
.edge:hover path { stroke: red; }
.edge:hover polygon { stroke: red; fill: red; }
]]></style>
<script type="text/javascript"><![CDATA[
var edges = document.getElementsByTagName('g');
if (edges && edges.length) {
  for (var i=0;i<edges.length;i++) {
    if (edges[i].id.substr(0,4)=='edge') {
      edges[i].setAttribute('class','edge');
    }
  }
}
]]></script>
        <defs>
                <circle id="rim" cx="0" cy="0" r="7"/>
                <circle id="rim2" cx="0" cy="0" r="3.5"/>
                <g id="zoomPlus">
                        <use xlink:href="#rim" fill="#404040">
                                <set attributeName="fill" to="#808080" begin="zoomplus.mouseover" end="zoomplus.mouseout"/>
                        </use>
                        <path d="M-4,0h8M0,-4v8" fill="none" stroke="white" stroke-width="1.5" pointer-events="none"/>
                </g>
                <g id="zoomMin">
                        <use xlink:href="#rim" fill="#404040">
                                <set attributeName="fill" to="#808080" begin="zoomminus.mouseover" end="zoomminus.mouseout"/>
                        </use>
                        <path d="M-4,0h8" fill="none" stroke="white" stroke-width="1.5" pointer-events="none"/>
                </g>
                <g id="dirArrow">
                        <path fill="none" stroke="white" stroke-width="1.5" d="M0,-3.0v7 M-2.5,-0.5L0,-3.0L2.5,-0.5"/>
                </g>
               <g id="resetDef">
                       <use xlink:href="#rim2" fill="#404040">
                               <set attributeName="fill" to="#808080" begin="reset.mouseover" end="reset.mouseout"/>
                       </use>
               </g>
        </defs>

<script type="text/javascript">
var viewWidth = 1219;
var viewHeight = 626;
var sectionId = 'dynsection-3';
</script>
<script xlink:href="svgpan.js"/>
<svg id="graph" class="graph">
<g id="viewport">
<title>LoadCentralDirectoryRecord</title>
<polygon fill="white" stroke="none" points="-4,4 -4,-622 1215,-622 1215,4 -4,4"/>
<!-- Node1 -->
<g id="node1" class="node"><title>Node1</title>
<polygon fill="#bfbfbf" stroke="black" points="0,-269.5 0,-288.5 140,-288.5 140,-269.5 0,-269.5"/>
<text text-anchor="middle" x="70" y="-276.5" font-family="Helvetica,sans-Serif" font-size="10.00">LoadCentralDirectoryRecord</text>
</g>
<!-- Node2 -->
<g id="node2" class="node"><title>Node2</title>
<g id="a_node2"><a xlink:href="ioapi_8h.html#a50e9e9d5c30e481de822ad68fe537986" target="_top" xlink:title="uLong">
<polygon fill="white" stroke="black" points="1137.5,-494.5 1137.5,-513.5 1180.5,-513.5 1180.5,-494.5 1137.5,-494.5"/>
<text text-anchor="middle" x="1159" y="-501.5" font-family="Helvetica,sans-Serif" font-size="10.00">uLong</text>
</a>
</g>
</g>
<!-- Node1&#45;&gt;Node2 -->
<g id="edge1" class="edge"><title>Node1&#45;&gt;Node2</title>
<path fill="none" stroke="midnightblue" d="M74.9565,-288.78C98.1537,-344.363 222.149,-618 415,-618 415,-618 415,-618 857,-618 967.504,-618 1086.9,-549.973 1135.51,-519.018"/>
<polygon fill="midnightblue" stroke="midnightblue" points="1137.51,-521.894 1144,-513.523 1133.7,-516.016 1137.51,-521.894"/>
</g>
<!-- Node3 -->
<g id="node3" class="node"><title>Node3</title>
<g id="a_node3"><a xlink:href="zip_8c.html#a50017adb67ac2018997e5849771ae446" target="_top" xlink:title="zip64local_SearchCentral\lDir64">
<polygon fill="white" stroke="black" points="352,-261 352,-291 480,-291 480,-261 352,-261"/>
<text text-anchor="start" x="360" y="-279" font-family="Helvetica,sans-Serif" font-size="10.00">zip64local_SearchCentral</text>
<text text-anchor="middle" x="416" y="-268" font-family="Helvetica,sans-Serif" font-size="10.00">Dir64</text>
</a>
</g>
</g>
<!-- Node1&#45;&gt;Node3 -->
<g id="edge2" class="edge"><title>Node1&#45;&gt;Node3</title>
<path fill="none" stroke="midnightblue" d="M140.2,-278.397C198.715,-277.886 282.304,-277.157 341.9,-276.638"/>
<polygon fill="midnightblue" stroke="midnightblue" points="342.023,-280.137 351.992,-276.549 341.962,-273.137 342.023,-280.137"/>
</g>
<!-- Node4 -->
<g id="node4" class="node"><title>Node4</title>
<g id="a_node4"><a xlink:href="zip_8c.html#ae244e7a8d380a116d3dd94a197fb5adb" target="_top" xlink:title="zip64local_getLong">
<polygon fill="white" stroke="black" points="516,-307.5 516,-326.5 616,-326.5 616,-307.5 516,-307.5"/>
<text text-anchor="middle" x="566" y="-314.5" font-family="Helvetica,sans-Serif" font-size="10.00">zip64local_getLong</text>
</a>
</g>
</g>
<!-- Node1&#45;&gt;Node4 -->
<g id="edge27" class="edge"><title>Node1&#45;&gt;Node4</title>
<path fill="none" stroke="midnightblue" d="M140.125,-288.146C152.075,-289.559 164.387,-290.909 176,-292 292.475,-302.943 429.026,-310.507 505.428,-314.265"/>
<polygon fill="midnightblue" stroke="midnightblue" points="505.642,-317.78 515.801,-314.77 505.983,-310.788 505.642,-317.78"/>
</g>
<!-- Node7 -->
<g id="node7" class="node"><title>Node7</title>
<g id="a_node7"><a xlink:href="zip_8c.html#a15321a6e2fcae4715b3874a1ce5576e0" target="_top" xlink:title="zip64local_getShort">
<polygon fill="white" stroke="black" points="959.5,-418.5 959.5,-437.5 1061.5,-437.5 1061.5,-418.5 959.5,-418.5"/>
<text text-anchor="middle" x="1010.5" y="-425.5" font-family="Helvetica,sans-Serif" font-size="10.00">zip64local_getShort</text>
</a>
</g>
</g>
<!-- Node1&#45;&gt;Node7 -->
<g id="edge29" class="edge"><title>Node1&#45;&gt;Node7</title>
<path fill="none" stroke="midnightblue" d="M97.9225,-288.521C118.975,-295.707 149.086,-305.42 176,-312 448.703,-378.67 518.716,-393.498 798,-422 848.809,-427.185 906.814,-428.508 949.212,-428.634"/>
<polygon fill="midnightblue" stroke="midnightblue" points="949.365,-432.134 959.368,-428.643 949.371,-425.134 949.365,-432.134"/>
</g>
<!-- Node10 -->
<g id="node10" class="node"><title>Node10</title>
<g id="a_node10"><a xlink:href="zip_8c.html#a8f469d2f6ea68fbacf9f10d88f00b425" target="_top" xlink:title="zip64local_getLong64">
<polygon fill="white" stroke="black" points="652,-228.5 652,-247.5 762,-247.5 762,-228.5 652,-228.5"/>
<text text-anchor="middle" x="707" y="-235.5" font-family="Helvetica,sans-Serif" font-size="10.00">zip64local_getLong64</text>
</a>
</g>
</g>
<!-- Node1&#45;&gt;Node10 -->
<g id="edge28" class="edge"><title>Node1&#45;&gt;Node10</title>
<path fill="none" stroke="midnightblue" d="M83.6998,-269.341C102.603,-255.636 139.813,-231.189 176,-222 344.902,-179.111 553.814,-208.4 651.21,-226.573"/>
<polygon fill="midnightblue" stroke="midnightblue" points="650.647,-230.029 661.125,-228.457 651.954,-223.152 650.647,-230.029"/>
</g>
<!-- Node11 -->
<g id="node11" class="node"><title>Node11</title>
<g id="a_node11"><a xlink:href="zip_8c.html#a4d657c17b971895e95f60aab2f9fac2e" target="_top" xlink:title="zip64local_SearchCentralDir">
<polygon fill="white" stroke="black" points="176,-231.5 176,-250.5 316,-250.5 316,-231.5 176,-231.5"/>
<text text-anchor="middle" x="246" y="-238.5" font-family="Helvetica,sans-Serif" font-size="10.00">zip64local_SearchCentralDir</text>
</a>
</g>
</g>
<!-- Node1&#45;&gt;Node11 -->
<g id="edge22" class="edge"><title>Node1&#45;&gt;Node11</title>
<path fill="none" stroke="midnightblue" d="M114.908,-269.411C138.179,-264.329 166.954,-258.045 191.519,-252.68"/>
<polygon fill="midnightblue" stroke="midnightblue" points="192.385,-256.073 201.408,-250.52 190.892,-249.234 192.385,-256.073"/>
</g>
<!-- Node12 -->
<g id="node12" class="node"><title>Node12</title>
<g id="a_node12"><a xlink:href="zip_8c.html#af411f447b40db1fad258dee3b786ccc1" target="_top" xlink:title="add_data_in_datablock">
<polygon fill="white" stroke="black" points="798,-76.5 798,-95.5 914,-95.5 914,-76.5 798,-76.5"/>
<text text-anchor="middle" x="856" y="-83.5" font-family="Helvetica,sans-Serif" font-size="10.00">add_data_in_datablock</text>
</a>
</g>
</g>
<!-- Node1&#45;&gt;Node12 -->
<g id="edge30" class="edge"><title>Node1&#45;&gt;Node12</title>
<path fill="none" stroke="midnightblue" d="M79.7946,-269.429C116.588,-230.486 263.318,-86 415,-86 415,-86 415,-86 567,-86 642.587,-86 729.332,-86 787.699,-86"/>
<polygon fill="midnightblue" stroke="midnightblue" points="787.897,-89.5001 797.897,-86 787.897,-82.5001 787.897,-89.5001"/>
</g>
<!-- Node3&#45;&gt;Node2 -->
<g id="edge3" class="edge"><title>Node3&#45;&gt;Node2</title>
<path fill="none" stroke="midnightblue" d="M437.117,-291.141C476.602,-320.324 567.752,-385.087 652,-426 775.254,-485.856 813.549,-492.537 950,-505 1012.72,-510.729 1086.53,-508.187 1127.2,-505.986"/>
<polygon fill="midnightblue" stroke="midnightblue" points="1127.49,-509.475 1137.28,-505.41 1127.09,-502.486 1127.49,-509.475"/>
</g>
<!-- Node3&#45;&gt;Node4 -->
<g id="edge4" class="edge"><title>Node3&#45;&gt;Node4</title>
<path fill="none" stroke="midnightblue" d="M471.269,-291.034C487.511,-295.534 505.121,-300.412 520.645,-304.713"/>
<polygon fill="midnightblue" stroke="midnightblue" points="519.939,-308.149 530.511,-307.446 521.808,-301.403 519.939,-308.149"/>
</g>
<!-- Node3&#45;&gt;Node10 -->
<g id="edge21" class="edge"><title>Node3&#45;&gt;Node10</title>
<path fill="none" stroke="midnightblue" d="M480.256,-268.932C519.401,-264.419 570.669,-258.257 616,-252 624.331,-250.85 633.086,-249.573 641.728,-248.273"/>
<polygon fill="midnightblue" stroke="midnightblue" points="642.43,-251.706 651.789,-246.741 641.376,-244.786 642.43,-251.706"/>
</g>
<!-- Node4&#45;&gt;Node2 -->
<g id="edge5" class="edge"><title>Node4&#45;&gt;Node2</title>
<path fill="none" stroke="midnightblue" d="M576.024,-326.659C590.631,-341.768 620.964,-371.016 652,-388 815.435,-477.439 1044.86,-498.073 1127.14,-502.702"/>
<polygon fill="midnightblue" stroke="midnightblue" points="1127.14,-506.207 1137.31,-503.234 1127.5,-499.217 1127.14,-506.207"/>
</g>
<!-- Node5 -->
<g id="node5" class="node"><title>Node5</title>
<g id="a_node5"><a xlink:href="zip_8c.html#a20f347793909851b9e203b1689f27f4e" target="_top" xlink:title="zip64local_getByte">
<polygon fill="white" stroke="black" points="806.5,-361.5 806.5,-380.5 905.5,-380.5 905.5,-361.5 806.5,-361.5"/>
<text text-anchor="middle" x="856" y="-368.5" font-family="Helvetica,sans-Serif" font-size="10.00">zip64local_getByte</text>
</a>
</g>
</g>
<!-- Node4&#45;&gt;Node5 -->
<g id="edge6" class="edge"><title>Node4&#45;&gt;Node5</title>
<path fill="none" stroke="midnightblue" d="M616.182,-326.222C665.988,-335.56 743.039,-350.007 796.079,-359.952"/>
<polygon fill="midnightblue" stroke="midnightblue" points="795.547,-363.414 806.021,-361.816 796.837,-356.533 795.547,-363.414"/>
</g>
<!-- Node8 -->
<g id="node8" class="node"><title>Node8</title>
<g id="a_node8"><a xlink:href="zip_8c.html#aeceecbdb8a6daac5791ebba72d0bf346" target="_top" xlink:title="OF">
<polygon fill="white" stroke="black" points="1144,-190.5 1144,-209.5 1174,-209.5 1174,-190.5 1144,-190.5"/>
<text text-anchor="middle" x="1159" y="-197.5" font-family="Helvetica,sans-Serif" font-size="10.00">OF</text>
</a>
</g>
</g>
<!-- Node4&#45;&gt;Node8 -->
<g id="edge19" class="edge"><title>Node4&#45;&gt;Node8</title>
<path fill="none" stroke="midnightblue" d="M614.649,-307.45C626.826,-305.015 639.897,-302.406 652,-300 837.456,-263.129 1061.23,-219.047 1133.94,-204.736"/>
<polygon fill="midnightblue" stroke="midnightblue" points="1134.78,-208.137 1143.91,-202.772 1133.42,-201.269 1134.78,-208.137"/>
</g>
<!-- Node9 -->
<g id="node9" class="node"><title>Node9</title>
<g id="a_node9"><a xlink:href="ioapi_8h.html#a39ab6d73c1cd44bc17064c2dcbb3e753" target="_top" xlink:title="voidpf">
<polygon fill="white" stroke="black" points="1137.5,-266.5 1137.5,-285.5 1180.5,-285.5 1180.5,-266.5 1137.5,-266.5"/>
<text text-anchor="middle" x="1159" y="-273.5" font-family="Helvetica,sans-Serif" font-size="10.00">voidpf</text>
</a>
</g>
</g>
<!-- Node4&#45;&gt;Node9 -->
<g id="edge20" class="edge"><title>Node4&#45;&gt;Node9</title>
<path fill="none" stroke="midnightblue" d="M616.119,-313.592C734.005,-305.414 1030.33,-284.857 1126.98,-278.152"/>
<polygon fill="midnightblue" stroke="midnightblue" points="1127.51,-281.623 1137.25,-277.44 1127.03,-274.64 1127.51,-281.623"/>
</g>
<!-- Node4&#45;&gt;Node10 -->
<g id="edge17" class="edge"><title>Node4&#45;&gt;Node10</title>
<path fill="none" stroke="midnightblue" d="M586.021,-307.416C595.269,-302.532 606.428,-296.303 616,-290 632.929,-278.852 634.611,-272.415 652,-262 658.15,-258.317 664.966,-254.856 671.626,-251.771"/>
<polygon fill="midnightblue" stroke="midnightblue" points="673.452,-254.79 681.176,-247.537 670.616,-248.39 673.452,-254.79"/>
</g>
<!-- Node5&#45;&gt;Node2 -->
<g id="edge16" class="edge"><title>Node5&#45;&gt;Node2</title>
<path fill="none" stroke="midnightblue" d="M866.074,-380.691C881.697,-396.81 915.348,-429.122 950,-447 1008.77,-477.322 1085.46,-492.936 1127.36,-499.704"/>
<polygon fill="midnightblue" stroke="midnightblue" points="1127.06,-503.199 1137.48,-501.274 1128.13,-496.282 1127.06,-503.199"/>
</g>
<!-- Node6 -->
<g id="node6" class="node"><title>Node6</title>
<g id="a_node6"><a xlink:href="ioapi_8h.html#a787fa3cf048117ba7123753c1e74fcd6" target="_top" xlink:title="int">
<polygon fill="white" stroke="black" points="996,-380.5 996,-399.5 1025,-399.5 1025,-380.5 996,-380.5"/>
<text text-anchor="middle" x="1010.5" y="-387.5" font-family="Helvetica,sans-Serif" font-size="10.00">int</text>
</a>
</g>
</g>
<!-- Node5&#45;&gt;Node6 -->
<g id="edge7" class="edge"><title>Node5&#45;&gt;Node6</title>
<path fill="none" stroke="midnightblue" d="M905.671,-377.064C932.394,-380.393 964.339,-384.373 985.673,-387.031"/>
<polygon fill="midnightblue" stroke="midnightblue" points="985.422,-390.527 995.778,-388.29 986.287,-383.581 985.422,-390.527"/>
</g>
<!-- Node5&#45;&gt;Node7 -->
<g id="edge8" class="edge"><title>Node5&#45;&gt;Node7</title>
<path fill="none" stroke="midnightblue" d="M898.856,-380.508C914.762,-386.516 933.115,-393.865 950,-400 963.085,-404.754 978.011,-409.519 989.64,-414.223"/>
<polygon fill="midnightblue" stroke="midnightblue" points="988.323,-417.467 998.882,-418.339 991.171,-411.073 988.323,-417.467"/>
</g>
<!-- Node5&#45;&gt;Node8 -->
<g id="edge14" class="edge"><title>Node5&#45;&gt;Node8</title>
<path fill="none" stroke="midnightblue" d="M874.58,-361.466C911.279,-341.511 998.638,-293.731 1071,-252 1092.86,-239.391 1117.54,-224.587 1135.01,-214.006"/>
<polygon fill="midnightblue" stroke="midnightblue" points="1137.18,-216.783 1143.92,-208.603 1133.55,-210.799 1137.18,-216.783"/>
</g>
<!-- Node5&#45;&gt;Node9 -->
<g id="edge15" class="edge"><title>Node5&#45;&gt;Node9</title>
<path fill="none" stroke="midnightblue" d="M905.919,-365.973C950.176,-360.313 1016.56,-349.022 1071,-328 1094.82,-318.801 1119.59,-303.32 1136.58,-291.637"/>
<polygon fill="midnightblue" stroke="midnightblue" points="1139,-294.216 1145.17,-285.6 1134.97,-288.491 1139,-294.216"/>
</g>
<!-- Node7&#45;&gt;Node2 -->
<g id="edge9" class="edge"><title>Node7&#45;&gt;Node2</title>
<path fill="none" stroke="midnightblue" d="M1037.66,-437.538C1048.18,-441.635 1060.33,-446.698 1071,-452 1093.34,-463.097 1117.61,-477.848 1134.83,-488.804"/>
<polygon fill="midnightblue" stroke="midnightblue" points="1133.31,-491.987 1143.61,-494.453 1137.1,-486.1 1133.31,-491.987"/>
</g>
<!-- Node7&#45;&gt;Node4 -->
<g id="edge11" class="edge"><title>Node7&#45;&gt;Node4</title>
<path fill="none" stroke="midnightblue" d="M959.498,-422.666C889.309,-414.185 758.256,-394.704 652,-358 631.417,-350.89 609.294,-340.111 592.779,-331.389"/>
<polygon fill="midnightblue" stroke="midnightblue" points="594.222,-328.191 583.757,-326.535 590.905,-334.355 594.222,-328.191"/>
</g>
<!-- Node7&#45;&gt;Node5 -->
<g id="edge10" class="edge"><title>Node7&#45;&gt;Node5</title>
<path fill="none" stroke="midnightblue" d="M959.409,-421.304C956.216,-420.222 953.058,-419.111 950,-418 923.616,-408.414 893.648,-395.862 875.031,-385.625"/>
<polygon fill="midnightblue" stroke="midnightblue" points="876.796,-382.603 866.409,-380.511 873.225,-388.623 876.796,-382.603"/>
</g>
<!-- Node7&#45;&gt;Node8 -->
<g id="edge12" class="edge"><title>Node7&#45;&gt;Node8</title>
<path fill="none" stroke="midnightblue" d="M1058.21,-418.468C1062.98,-416 1067.39,-412.898 1071,-409 1118.18,-358.067 1074.87,-318.54 1107,-257 1115.01,-241.656 1128.09,-227.159 1138.99,-216.624"/>
<polygon fill="midnightblue" stroke="midnightblue" points="1141.5,-219.07 1146.45,-209.699 1136.74,-213.941 1141.5,-219.07"/>
</g>
<!-- Node7&#45;&gt;Node9 -->
<g id="edge13" class="edge"><title>Node7&#45;&gt;Node9</title>
<path fill="none" stroke="midnightblue" d="M1053.93,-418.444C1060,-415.971 1065.91,-412.873 1071,-409 1111.09,-378.501 1138.25,-323.855 1150.53,-295.019"/>
<polygon fill="midnightblue" stroke="midnightblue" points="1153.81,-296.235 1154.38,-285.655 1147.34,-293.575 1153.81,-296.235"/>
</g>
<!-- Node10&#45;&gt;Node5 -->
<g id="edge18" class="edge"><title>Node10&#45;&gt;Node5</title>
<path fill="none" stroke="midnightblue" d="M718.572,-247.565C743.349,-269.982 805.419,-326.141 836.567,-354.322"/>
<polygon fill="midnightblue" stroke="midnightblue" points="834.364,-357.049 844.127,-361.163 839.06,-351.858 834.364,-357.049"/>
</g>
<!-- Node11&#45;&gt;Node2 -->
<g id="edge23" class="edge"><title>Node11&#45;&gt;Node2</title>
<path fill="none" stroke="midnightblue" d="M260.112,-250.615C318.817,-292.919 564.824,-462.365 798,-507 917.326,-529.842 950.072,-532.704 1071,-521 1089.85,-519.176 1110.68,-515.178 1127.23,-511.517"/>
<polygon fill="midnightblue" stroke="midnightblue" points="1128.45,-514.827 1137.42,-509.186 1126.89,-508.003 1128.45,-514.827"/>
</g>
<!-- Node11&#45;&gt;Node3 -->
<g id="edge24" class="edge"><title>Node11&#45;&gt;Node3</title>
<path fill="none" stroke="midnightblue" d="M292.907,-250.564C307.952,-253.698 325.065,-257.264 341.619,-260.712"/>
<polygon fill="midnightblue" stroke="midnightblue" points="341.327,-264.226 351.83,-262.84 342.755,-257.374 341.327,-264.226"/>
</g>
<!-- Node11&#45;&gt;Node8 -->
<g id="edge25" class="edge"><title>Node11&#45;&gt;Node8</title>
<path fill="none" stroke="midnightblue" d="M268.73,-231.379C289.695,-222.421 322.504,-209.244 352,-201 444.688,-175.095 468.76,-162 565,-162 565,-162 565,-162 857,-162 960.785,-162 1083.13,-184.512 1133.97,-194.882"/>
<polygon fill="midnightblue" stroke="midnightblue" points="1133.47,-198.352 1143.98,-196.955 1134.89,-191.498 1133.47,-198.352"/>
</g>
<!-- Node11&#45;&gt;Node9 -->
<g id="edge26" class="edge"><title>Node11&#45;&gt;Node9</title>
<path fill="none" stroke="midnightblue" d="M292.052,-231.491C353.463,-219.379 467.029,-200 565,-200 565,-200 565,-200 857,-200 958.774,-200 1074.18,-241.35 1127.73,-263.049"/>
<polygon fill="midnightblue" stroke="midnightblue" points="1126.71,-266.416 1137.29,-266.983 1129.37,-259.942 1126.71,-266.416"/>
</g>
<!-- Node12&#45;&gt;Node8 -->
<g id="edge36" class="edge"><title>Node12&#45;&gt;Node8</title>
<path fill="none" stroke="midnightblue" d="M879.263,-76.393C920.054,-60.367 1008.34,-33.1107 1071,-67 1082.76,-73.3586 1126.56,-146.298 1147.16,-181.377"/>
<polygon fill="midnightblue" stroke="midnightblue" points="1144.24,-183.315 1152.31,-190.18 1150.29,-179.781 1144.24,-183.315"/>
</g>
<!-- Node12&#45;&gt;Node9 -->
<g id="edge37" class="edge"><title>Node12&#45;&gt;Node9</title>
<path fill="none" stroke="midnightblue" d="M885.783,-95.6189C928.619,-110.749 1010.58,-142.888 1071,-186 1086.68,-197.186 1122.35,-236.021 1142.81,-258.86"/>
<polygon fill="midnightblue" stroke="midnightblue" points="1140.33,-261.336 1149.6,-266.469 1145.56,-256.677 1140.33,-261.336"/>
</g>
<!-- Node13 -->
<g id="node13" class="node"><title>Node13</title>
<g id="a_node13"><a xlink:href="zip_8c.html#a86c6b1ea8228286351584adc3d47b07c" target="_top" xlink:title="allocate_new_datablock">
<polygon fill="white" stroke="black" points="950,-0.5 950,-19.5 1071,-19.5 1071,-0.5 950,-0.5"/>
<text text-anchor="middle" x="1010.5" y="-7.5" font-family="Helvetica,sans-Serif" font-size="10.00">allocate_new_datablock</text>
</a>
</g>
</g>
<!-- Node12&#45;&gt;Node13 -->
<g id="edge31" class="edge"><title>Node12&#45;&gt;Node13</title>
<path fill="none" stroke="midnightblue" d="M872.803,-76.3532C891.051,-65.4062 922.138,-47.3429 950,-34 957.713,-30.3061 966.152,-26.6691 974.188,-23.3871"/>
<polygon fill="midnightblue" stroke="midnightblue" points="975.726,-26.5414 983.713,-19.5799 973.128,-20.0414 975.726,-26.5414"/>
</g>
<!-- Node14 -->
<g id="node14" class="node"><title>Node14</title>
<g id="a_node14"><a xlink:href="zip_8c.html#a5aeb27e162442455a221eb365c68f8d2" target="_top" xlink:title="zip64local_putValue">
<polygon fill="white" stroke="black" points="958.5,-76.5 958.5,-95.5 1062.5,-95.5 1062.5,-76.5 958.5,-76.5"/>
<text text-anchor="middle" x="1010.5" y="-83.5" font-family="Helvetica,sans-Serif" font-size="10.00">zip64local_putValue</text>
</a>
</g>
</g>
<!-- Node12&#45;&gt;Node14 -->
<g id="edge32" class="edge"><title>Node12&#45;&gt;Node14</title>
<path fill="none" stroke="midnightblue" d="M914.219,-86C925.349,-86 937.057,-86 948.309,-86"/>
<polygon fill="midnightblue" stroke="midnightblue" points="948.485,-89.5001 958.484,-86 948.484,-82.5001 948.485,-89.5001"/>
</g>
<!-- Node14&#45;&gt;Node2 -->
<g id="edge33" class="edge"><title>Node14&#45;&gt;Node2</title>
<path fill="none" stroke="midnightblue" d="M1014.84,-95.5159C1033.51,-148.802 1125.2,-410.426 1151.15,-484.452"/>
<polygon fill="midnightblue" stroke="midnightblue" points="1148,-486.036 1154.61,-494.316 1154.6,-483.721 1148,-486.036"/>
</g>
<!-- Node14&#45;&gt;Node8 -->
<g id="edge35" class="edge"><title>Node14&#45;&gt;Node8</title>
<path fill="none" stroke="midnightblue" d="M1042.09,-95.5223C1051.77,-99.2582 1062.22,-104.088 1071,-110 1101.14,-130.309 1129.03,-162.496 1144.75,-182.372"/>
<polygon fill="midnightblue" stroke="midnightblue" points="1142.01,-184.544 1150.89,-190.309 1147.54,-180.259 1142.01,-184.544"/>
</g>
<!-- Node15 -->
<g id="node15" class="node"><title>Node15</title>
<g id="a_node15"><a xlink:href="zip_8c.html#a472dc2ba2bf1d51a41e87cd97dbdb18b" target="_top" xlink:title="zip64local_putValue\l_inmemory">
<polygon fill="white" stroke="black" points="1107,-71 1107,-101 1211,-101 1211,-71 1107,-71"/>
<text text-anchor="start" x="1115" y="-89" font-family="Helvetica,sans-Serif" font-size="10.00">zip64local_putValue</text>
<text text-anchor="middle" x="1159" y="-78" font-family="Helvetica,sans-Serif" font-size="10.00">_inmemory</text>
</a>
</g>
</g>
<!-- Node14&#45;&gt;Node15 -->
<g id="edge34" class="edge"><title>Node14&#45;&gt;Node15</title>
<path fill="none" stroke="midnightblue" d="M1062.74,-86C1073.6,-86 1085.18,-86 1096.39,-86"/>
<polygon fill="midnightblue" stroke="midnightblue" points="1096.54,-89.5001 1106.54,-86 1096.54,-82.5001 1096.54,-89.5001"/>
</g>
</g>
</svg>
        <g id="navigator" transform="translate(0 0)" fill="#404254">
                <rect fill="#f2f5e9" fill-opacity="0.5" stroke="#606060" stroke-width=".5" x="0" y="0" width="60" height="60"/>
                <use id="zoomplus" xlink:href="#zoomPlus" x="17" y="9" onmousedown="handleZoom(evt,'in')"/>
                <use id="zoomminus" xlink:href="#zoomMin" x="42" y="9" onmousedown="handleZoom(evt,'out')"/>
                <use id="reset" xlink:href="#resetDef" x="30" y="36" onmousedown="handleReset()"/>
                <g id="arrowUp" xlink:href="#dirArrow" transform="translate(30 24)" onmousedown="handlePan(0,-1)">
                  <use xlink:href="#rim" fill="#404040">
                        <set attributeName="fill" to="#808080" begin="arrowUp.mouseover" end="arrowUp.mouseout"/>
                  </use>
                  <path fill="none" stroke="white" stroke-width="1.5" d="M0,-3.0v7 M-2.5,-0.5L0,-3.0L2.5,-0.5"/>
                </g>
                <g id="arrowRight" xlink:href="#dirArrow" transform="rotate(90) translate(36 -43)" onmousedown="handlePan(1,0)">
                  <use xlink:href="#rim" fill="#404040">
                        <set attributeName="fill" to="#808080" begin="arrowRight.mouseover" end="arrowRight.mouseout"/>
                  </use>
                  <path fill="none" stroke="white" stroke-width="1.5" d="M0,-3.0v7 M-2.5,-0.5L0,-3.0L2.5,-0.5"/>
                </g>
                <g id="arrowDown" xlink:href="#dirArrow" transform="rotate(180) translate(-30 -48)" onmousedown="handlePan(0,1)">
                  <use xlink:href="#rim" fill="#404040">
                        <set attributeName="fill" to="#808080" begin="arrowDown.mouseover" end="arrowDown.mouseout"/>
                  </use>
                  <path fill="none" stroke="white" stroke-width="1.5" d="M0,-3.0v7 M-2.5,-0.5L0,-3.0L2.5,-0.5"/>
                </g>
                <g id="arrowLeft" xlink:href="#dirArrow" transform="rotate(270) translate(-36 17)" onmousedown="handlePan(-1,0)">
                  <use xlink:href="#rim" fill="#404040">
                        <set attributeName="fill" to="#808080" begin="arrowLeft.mouseover" end="arrowLeft.mouseout"/>
                  </use>
                  <path fill="none" stroke="white" stroke-width="1.5" d="M0,-3.0v7 M-2.5,-0.5L0,-3.0L2.5,-0.5"/>
                </g>
        </g>
        <svg viewBox="0 0 15 15" width="100%" height="30px" preserveAspectRatio="xMaxYMin meet">
         <g id="arrow_out" transform="scale(0.3 0.3)">
          <a xlink:href="zip_8c_a44da2707a5a0031b9c263f9373918f29_cgraph_org.svg" target="_base">
           <rect id="button" ry="5" rx="5" y="6" x="6" height="38" width="38"
                fill="#f2f5e9" fill-opacity="0.5" stroke="#606060" stroke-width="1.0"/>
           <path id="arrow"
             d="M 11.500037,31.436501 C 11.940474,20.09759 22.043105,11.32322 32.158766,21.979434 L 37.068811,17.246167 C 37.068811,17.246167 37.088388,32 37.088388,32 L 22.160133,31.978069 C 22.160133,31.978069 26.997745,27.140456 26.997745,27.140456 C 18.528582,18.264221 13.291696,25.230495 11.500037,31.436501 z"
             style="fill:#404040;"/>
          </a>
         </g>
        </svg>
</svg>
