<?xml version="1.0" encoding="UTF-8" standalone="no"?>
<!DOCTYPE svg PUBLIC "-//W3C//DTD SVG 1.1//EN"
 "http://www.w3.org/Graphics/SVG/1.1/DTD/svg11.dtd">
<!-- Generated by graphviz version 2.38.0 (20140413.2041)
 -->
<!-- Title: /bitrise/src/Source/AR6/ARUtil/zip.c Pages: 1 -->
<svg width="492pt" height="207pt"
 viewBox="0.00 0.00 491.50 207.00" xmlns="http://www.w3.org/2000/svg" xmlns:xlink="http://www.w3.org/1999/xlink">
<g id="graph0" class="graph" transform="scale(1 1) rotate(0) translate(4 203)">
<title>/bitrise/src/Source/AR6/ARUtil/zip.c</title>
<polygon fill="white" stroke="none" points="-4,4 -4,-203 487.5,-203 487.5,4 -4,4"/>
<!-- Node1 -->
<g id="node1" class="node"><title>Node1</title>
<polygon fill="#bfbfbf" stroke="black" points="164,-168.5 164,-198.5 260,-198.5 260,-168.5 164,-168.5"/>
<text text-anchor="start" x="172" y="-186.5" font-family="Helvetica,sans-Serif" font-size="10.00">/bitrise/src/Source</text>
<text text-anchor="middle" x="212" y="-175.5" font-family="Helvetica,sans-Serif" font-size="10.00">/AR6/ARUtil/zip.c</text>
</g>
<!-- Node2 -->
<g id="node2" class="node"><title>Node2</title>
<g id="a_node2"><a xlink:href="zip_8h.html" target="_top" xlink:title="AR6/ARUtil/zip.h">
<polygon fill="white" stroke="black" points="39,-112.5 39,-131.5 131,-131.5 131,-112.5 39,-112.5"/>
<text text-anchor="middle" x="85" y="-119.5" font-family="Helvetica,sans-Serif" font-size="10.00">AR6/ARUtil/zip.h</text>
</a>
</g>
</g>
<!-- Node1&#45;&gt;Node2 -->
<g id="edge1" class="edge"><title>Node1&#45;&gt;Node2</title>
<path fill="none" stroke="midnightblue" d="M181.903,-168.399C160.88,-158.55 133.028,-145.501 112.581,-135.922"/>
<polygon fill="midnightblue" stroke="midnightblue" points="114.02,-132.731 103.48,-131.658 111.05,-139.07 114.02,-132.731"/>
</g>
<!-- Node5 -->
<g id="node5" class="node"><title>Node5</title>
<polygon fill="white" stroke="#bfbfbf" points="0,-0.5 0,-19.5 46,-19.5 46,-0.5 0,-0.5"/>
<text text-anchor="middle" x="23" y="-7.5" font-family="Helvetica,sans-Serif" font-size="10.00">stdio.h</text>
</g>
<!-- Node1&#45;&gt;Node5 -->
<g id="edge7" class="edge"><title>Node1&#45;&gt;Node5</title>
<path fill="none" stroke="midnightblue" d="M163.596,-175.509C115.554,-167.493 46.7312,-152.734 30,-132 6.51817,-102.9 12.2634,-55.8962 17.9742,-29.8662"/>
<polygon fill="midnightblue" stroke="midnightblue" points="21.4565,-30.3574 20.4124,-19.8141 14.6537,-28.7073 21.4565,-30.3574"/>
</g>
<!-- Node6 -->
<g id="node6" class="node"><title>Node6</title>
<polygon fill="white" stroke="#bfbfbf" points="131,-0.5 131,-19.5 179,-19.5 179,-0.5 131,-0.5"/>
<text text-anchor="middle" x="155" y="-7.5" font-family="Helvetica,sans-Serif" font-size="10.00">stdlib.h</text>
</g>
<!-- Node1&#45;&gt;Node6 -->
<g id="edge8" class="edge"><title>Node1&#45;&gt;Node6</title>
<path fill="none" stroke="midnightblue" d="M200.196,-168.377C192.722,-158.715 183.468,-145.294 178,-132 163.816,-97.5144 158.284,-53.8656 156.198,-29.5389"/>
<polygon fill="midnightblue" stroke="midnightblue" points="159.687,-29.2568 155.445,-19.5479 152.706,-29.7826 159.687,-29.2568"/>
</g>
<!-- Node7 -->
<g id="node7" class="node"><title>Node7</title>
<polygon fill="white" stroke="#bfbfbf" points="187.5,-112.5 187.5,-131.5 236.5,-131.5 236.5,-112.5 187.5,-112.5"/>
<text text-anchor="middle" x="212" y="-119.5" font-family="Helvetica,sans-Serif" font-size="10.00">string.h</text>
</g>
<!-- Node1&#45;&gt;Node7 -->
<g id="edge9" class="edge"><title>Node1&#45;&gt;Node7</title>
<path fill="none" stroke="midnightblue" d="M212,-168.399C212,-160.466 212,-150.458 212,-141.858"/>
<polygon fill="midnightblue" stroke="midnightblue" points="215.5,-141.658 212,-131.658 208.5,-141.658 215.5,-141.658"/>
</g>
<!-- Node8 -->
<g id="node8" class="node"><title>Node8</title>
<g id="a_node8"><a xlink:href="time_8h.html" target="_top" xlink:title="time.h">
<polygon fill="white" stroke="black" points="255,-112.5 255,-131.5 299,-131.5 299,-112.5 255,-112.5"/>
<text text-anchor="middle" x="277" y="-119.5" font-family="Helvetica,sans-Serif" font-size="10.00">time.h</text>
</a>
</g>
</g>
<!-- Node1&#45;&gt;Node8 -->
<g id="edge10" class="edge"><title>Node1&#45;&gt;Node8</title>
<path fill="none" stroke="midnightblue" d="M227.404,-168.399C237.239,-159.397 249.993,-147.721 260.105,-138.465"/>
<polygon fill="midnightblue" stroke="midnightblue" points="262.529,-140.992 267.542,-131.658 257.802,-135.828 262.529,-140.992"/>
</g>
<!-- Node10 -->
<g id="node10" class="node"><title>Node10</title>
<polygon fill="white" stroke="#bfbfbf" points="317.5,-112.5 317.5,-131.5 364.5,-131.5 364.5,-112.5 317.5,-112.5"/>
<text text-anchor="middle" x="341" y="-119.5" font-family="Helvetica,sans-Serif" font-size="10.00">errno.h</text>
</g>
<!-- Node1&#45;&gt;Node10 -->
<g id="edge12" class="edge"><title>Node1&#45;&gt;Node10</title>
<path fill="none" stroke="midnightblue" d="M242.571,-168.399C263.925,-158.55 292.215,-145.501 312.985,-135.922"/>
<polygon fill="midnightblue" stroke="midnightblue" points="314.615,-139.024 322.229,-131.658 311.683,-132.668 314.615,-139.024"/>
</g>
<!-- Node11 -->
<g id="node11" class="node"><title>Node11</title>
<g id="a_node11"><a xlink:href="crypt_8h.html" target="_top" xlink:title="AR6/ARUtil/crypt.h">
<polygon fill="white" stroke="black" points="382.5,-112.5 382.5,-131.5 483.5,-131.5 483.5,-112.5 382.5,-112.5"/>
<text text-anchor="middle" x="433" y="-119.5" font-family="Helvetica,sans-Serif" font-size="10.00">AR6/ARUtil/crypt.h</text>
</a>
</g>
</g>
<!-- Node1&#45;&gt;Node11 -->
<g id="edge13" class="edge"><title>Node1&#45;&gt;Node11</title>
<path fill="none" stroke="midnightblue" d="M260.226,-169.516C299.349,-158.983 353.935,-144.287 391.216,-134.249"/>
<polygon fill="midnightblue" stroke="midnightblue" points="392.499,-137.529 401.246,-131.549 390.68,-130.769 392.499,-137.529"/>
</g>
<!-- Node3 -->
<g id="node3" class="node"><title>Node3</title>
<polygon fill="white" stroke="#bfbfbf" points="70,-0.5 70,-19.5 110,-19.5 110,-0.5 70,-0.5"/>
<text text-anchor="middle" x="90" y="-7.5" font-family="Helvetica,sans-Serif" font-size="10.00">zlib.h</text>
</g>
<!-- Node2&#45;&gt;Node3 -->
<g id="edge2" class="edge"><title>Node2&#45;&gt;Node3</title>
<path fill="none" stroke="midnightblue" d="M81.036,-112.176C75.9244,-99.6824 68.1262,-76.115 72,-56 73.7901,-46.7047 77.483,-36.8887 81.0607,-28.8048"/>
<polygon fill="midnightblue" stroke="midnightblue" points="84.2733,-30.1981 85.3788,-19.6611 77.9436,-27.2089 84.2733,-30.1981"/>
</g>
<!-- Node4 -->
<g id="node4" class="node"><title>Node4</title>
<g id="a_node4"><a xlink:href="ioapi_8h.html" target="_top" xlink:title="ioapi.h">
<polygon fill="white" stroke="black" points="81.5,-56.5 81.5,-75.5 126.5,-75.5 126.5,-56.5 81.5,-56.5"/>
<text text-anchor="middle" x="104" y="-63.5" font-family="Helvetica,sans-Serif" font-size="10.00">ioapi.h</text>
</a>
</g>
</g>
<!-- Node2&#45;&gt;Node4 -->
<g id="edge3" class="edge"><title>Node2&#45;&gt;Node4</title>
<path fill="none" stroke="midnightblue" d="M88.1375,-112.083C90.6829,-104.849 94.3562,-94.4087 97.5271,-85.3968"/>
<polygon fill="midnightblue" stroke="midnightblue" points="100.903,-86.3459 100.921,-75.7511 94.3002,-84.0225 100.903,-86.3459"/>
</g>
<!-- Node4&#45;&gt;Node3 -->
<g id="edge6" class="edge"><title>Node4&#45;&gt;Node3</title>
<path fill="none" stroke="midnightblue" d="M101.688,-56.083C99.833,-48.9272 97.1647,-38.6353 94.8458,-29.6911"/>
<polygon fill="midnightblue" stroke="midnightblue" points="98.1665,-28.5527 92.2688,-19.7511 91.3905,-30.3094 98.1665,-28.5527"/>
</g>
<!-- Node4&#45;&gt;Node5 -->
<g id="edge4" class="edge"><title>Node4&#45;&gt;Node5</title>
<path fill="none" stroke="midnightblue" d="M90.9859,-56.324C78.4684,-47.979 59.3183,-35.2122 44.5286,-25.3524"/>
<polygon fill="midnightblue" stroke="midnightblue" points="46.2437,-22.2894 35.9818,-19.6545 42.3608,-28.1137 46.2437,-22.2894"/>
</g>
<!-- Node4&#45;&gt;Node6 -->
<g id="edge5" class="edge"><title>Node4&#45;&gt;Node6</title>
<path fill="none" stroke="midnightblue" d="M112.422,-56.083C119.848,-48.2195 130.852,-36.5688 139.812,-27.0813"/>
<polygon fill="midnightblue" stroke="midnightblue" points="142.413,-29.4244 146.735,-19.7511 137.324,-24.618 142.413,-29.4244"/>
</g>
<!-- Node9 -->
<g id="node9" class="node"><title>Node9</title>
<polygon fill="white" stroke="#bfbfbf" points="252.5,-56.5 252.5,-75.5 301.5,-75.5 301.5,-56.5 252.5,-56.5"/>
<text text-anchor="middle" x="277" y="-63.5" font-family="Helvetica,sans-Serif" font-size="10.00">stdint.h</text>
</g>
<!-- Node8&#45;&gt;Node9 -->
<g id="edge11" class="edge"><title>Node8&#45;&gt;Node9</title>
<path fill="none" stroke="midnightblue" d="M277,-112.083C277,-105.006 277,-94.8611 277,-85.9865"/>
<polygon fill="midnightblue" stroke="midnightblue" points="280.5,-85.751 277,-75.7511 273.5,-85.7511 280.5,-85.751"/>
</g>
</g>
</svg>
