<?xml version="1.0" encoding="UTF-8" standalone="no"?>
<!DOCTYPE svg PUBLIC "-//W3C//DTD SVG 1.1//EN"
 "http://www.w3.org/Graphics/SVG/1.1/DTD/svg11.dtd">
<!-- Generated by graphviz version 2.38.0 (20140413.2041)
 -->
<!-- Title: Write_EndOfCentralDirectoryRecord Pages: 1 -->
<svg width="432pt" height="116pt"
 viewBox="0.00 0.00 432.00 116.00" xmlns="http://www.w3.org/2000/svg" xmlns:xlink="http://www.w3.org/1999/xlink">
<g id="graph0" class="graph" transform="scale(1 1) rotate(0) translate(4 112)">
<title>Write_EndOfCentralDirectoryRecord</title>
<polygon fill="white" stroke="none" points="-4,4 -4,-112 428,-112 428,4 -4,4"/>
<!-- Node1 -->
<g id="node1" class="node"><title>Node1</title>
<polygon fill="#bfbfbf" stroke="black" points="0,-60 0,-90 144,-90 144,-60 0,-60"/>
<text text-anchor="start" x="8" y="-78" font-family="Helvetica,sans-Serif" font-size="10.00">Write_EndOfCentralDirectory</text>
<text text-anchor="middle" x="72" y="-67" font-family="Helvetica,sans-Serif" font-size="10.00">Record</text>
</g>
<!-- Node2 -->
<g id="node2" class="node"><title>Node2</title>
<g id="a_node2"><a xlink:href="zip_8c.html#a5aeb27e162442455a221eb365c68f8d2" target="_top" xlink:title="zip64local_putValue">
<polygon fill="white" stroke="black" points="180,-45.5 180,-64.5 284,-64.5 284,-45.5 180,-45.5"/>
<text text-anchor="middle" x="232" y="-52.5" font-family="Helvetica,sans-Serif" font-size="10.00">zip64local_putValue</text>
</a>
</g>
</g>
<!-- Node1&#45;&gt;Node2 -->
<g id="edge1" class="edge"><title>Node1&#45;&gt;Node2</title>
<path fill="none" stroke="midnightblue" d="M144.142,-65.9946C152.644,-64.9184 161.269,-63.8267 169.617,-62.77"/>
<polygon fill="midnightblue" stroke="midnightblue" points="170.154,-66.23 179.635,-61.5018 169.275,-59.2854 170.154,-66.23"/>
</g>
<!-- Node3 -->
<g id="node3" class="node"><title>Node3</title>
<g id="a_node3"><a xlink:href="ioapi_8h.html#a50e9e9d5c30e481de822ad68fe537986" target="_top" xlink:title="uLong">
<polygon fill="white" stroke="black" points="350.5,-88.5 350.5,-107.5 393.5,-107.5 393.5,-88.5 350.5,-88.5"/>
<text text-anchor="middle" x="372" y="-95.5" font-family="Helvetica,sans-Serif" font-size="10.00">uLong</text>
</a>
</g>
</g>
<!-- Node1&#45;&gt;Node3 -->
<g id="edge5" class="edge"><title>Node1&#45;&gt;Node3</title>
<path fill="none" stroke="midnightblue" d="M144.378,-80.5091C206.707,-85.3197 294.178,-92.0708 340.087,-95.6141"/>
<polygon fill="midnightblue" stroke="midnightblue" points="340.052,-99.1217 350.292,-96.4017 340.591,-92.1425 340.052,-99.1217"/>
</g>
<!-- Node2&#45;&gt;Node3 -->
<g id="edge2" class="edge"><title>Node2&#45;&gt;Node3</title>
<path fill="none" stroke="midnightblue" d="M263.627,-64.5431C286.591,-71.6987 317.871,-81.4452 340.745,-88.5727"/>
<polygon fill="midnightblue" stroke="midnightblue" points="339.705,-91.9145 350.293,-91.5479 341.787,-85.2314 339.705,-91.9145"/>
</g>
<!-- Node4 -->
<g id="node4" class="node"><title>Node4</title>
<g id="a_node4"><a xlink:href="zip_8c.html#a472dc2ba2bf1d51a41e87cd97dbdb18b" target="_top" xlink:title="zip64local_putValue\l_inmemory">
<polygon fill="white" stroke="black" points="320,-39 320,-69 424,-69 424,-39 320,-39"/>
<text text-anchor="start" x="328" y="-57" font-family="Helvetica,sans-Serif" font-size="10.00">zip64local_putValue</text>
<text text-anchor="middle" x="372" y="-46" font-family="Helvetica,sans-Serif" font-size="10.00">_inmemory</text>
</a>
</g>
</g>
<!-- Node2&#45;&gt;Node4 -->
<g id="edge3" class="edge"><title>Node2&#45;&gt;Node4</title>
<path fill="none" stroke="midnightblue" d="M284.386,-54.6276C292.558,-54.5684 301.083,-54.5066 309.46,-54.4459"/>
<polygon fill="midnightblue" stroke="midnightblue" points="309.597,-57.9451 319.571,-54.3727 309.546,-50.9453 309.597,-57.9451"/>
</g>
<!-- Node5 -->
<g id="node5" class="node"><title>Node5</title>
<g id="a_node5"><a xlink:href="zip_8c.html#aeceecbdb8a6daac5791ebba72d0bf346" target="_top" xlink:title="OF">
<polygon fill="white" stroke="black" points="357,-0.5 357,-19.5 387,-19.5 387,-0.5 357,-0.5"/>
<text text-anchor="middle" x="372" y="-7.5" font-family="Helvetica,sans-Serif" font-size="10.00">OF</text>
</a>
</g>
</g>
<!-- Node2&#45;&gt;Node5 -->
<g id="edge4" class="edge"><title>Node2&#45;&gt;Node5</title>
<path fill="none" stroke="midnightblue" d="M262.266,-45.4567C287.629,-37.1863 323.856,-25.3731 347.401,-17.6953"/>
<polygon fill="midnightblue" stroke="midnightblue" points="348.522,-21.0112 356.944,-14.5834 346.352,-14.3561 348.522,-21.0112"/>
</g>
</g>
</svg>
