<?xml version="1.0" encoding="UTF-8" standalone="no"?>
<!DOCTYPE svg PUBLIC "-//W3C//DTD SVG 1.1//EN"
 "http://www.w3.org/Graphics/SVG/1.1/DTD/svg11.dtd">
<!-- Generated by graphviz version 2.38.0 (20140413.2041)
 -->
<!-- Title: zip64local_getLong Pages: 1 -->
<svg width="606pt" height="180pt"
 viewBox="0.00 0.00 606.00 180.02" xmlns="http://www.w3.org/2000/svg" xmlns:xlink="http://www.w3.org/1999/xlink">
<g id="graph0" class="graph" transform="scale(1 1) rotate(0) translate(4 176.018)">
<title>zip64local_getLong</title>
<polygon fill="white" stroke="none" points="-4,4 -4,-176.018 602,-176.018 602,4 -4,4"/>
<!-- Node1 -->
<g id="node1" class="node"><title>Node1</title>
<polygon fill="#bfbfbf" stroke="black" points="0,-95.5184 0,-114.518 100,-114.518 100,-95.5184 0,-95.5184"/>
<text text-anchor="middle" x="50" y="-102.518" font-family="Helvetica,sans-Serif" font-size="10.00">zip64local_getLong</text>
</g>
<!-- Node2 -->
<g id="node2" class="node"><title>Node2</title>
<g id="a_node2"><a xlink:href="ioapi_8h.html#a50e9e9d5c30e481de822ad68fe537986" target="_top" xlink:title="uLong">
<polygon fill="white" stroke="black" points="555,-114.518 555,-133.518 598,-133.518 598,-114.518 555,-114.518"/>
<text text-anchor="middle" x="576.5" y="-121.518" font-family="Helvetica,sans-Serif" font-size="10.00">uLong</text>
</a>
</g>
</g>
<!-- Node1&#45;&gt;Node2 -->
<g id="edge1" class="edge"><title>Node1&#45;&gt;Node2</title>
<path fill="none" stroke="midnightblue" d="M93.5976,-114.52C107.088,-117.129 122.105,-119.622 136,-121.018 288.734,-136.365 472.826,-129.445 544.675,-125.776"/>
<polygon fill="midnightblue" stroke="midnightblue" points="545.031,-129.263 554.833,-125.241 544.662,-122.272 545.031,-129.263"/>
</g>
<!-- Node3 -->
<g id="node3" class="node"><title>Node3</title>
<g id="a_node3"><a xlink:href="zip_8c.html#a20f347793909851b9e203b1689f27f4e" target="_top" xlink:title="zip64local_getByte">
<polygon fill="white" stroke="black" points="282,-76.5184 282,-95.5184 381,-95.5184 381,-76.5184 282,-76.5184"/>
<text text-anchor="middle" x="331.5" y="-83.5184" font-family="Helvetica,sans-Serif" font-size="10.00">zip64local_getByte</text>
</a>
</g>
</g>
<!-- Node1&#45;&gt;Node3 -->
<g id="edge2" class="edge"><title>Node1&#45;&gt;Node3</title>
<path fill="none" stroke="midnightblue" d="M100.05,-108.005C139.584,-109.695 196.538,-110.511 246,-105.018 259.207,-103.552 273.366,-100.834 286.245,-97.9026"/>
<polygon fill="midnightblue" stroke="midnightblue" points="287.336,-101.241 296.257,-95.5262 285.719,-94.4302 287.336,-101.241"/>
</g>
<!-- Node6 -->
<g id="node6" class="node"><title>Node6</title>
<g id="a_node6"><a xlink:href="zip_8c.html#aeceecbdb8a6daac5791ebba72d0bf346" target="_top" xlink:title="OF">
<polygon fill="white" stroke="black" points="561.5,-152.518 561.5,-171.518 591.5,-171.518 591.5,-152.518 561.5,-152.518"/>
<text text-anchor="middle" x="576.5" y="-159.518" font-family="Helvetica,sans-Serif" font-size="10.00">OF</text>
</a>
</g>
</g>
<!-- Node1&#45;&gt;Node6 -->
<g id="edge15" class="edge"><title>Node1&#45;&gt;Node6</title>
<path fill="none" stroke="midnightblue" d="M70.3757,-114.575C87.2597,-122.403 112.634,-132.979 136,-138.018 291.315,-171.519 484.263,-166.433 551.255,-163.341"/>
<polygon fill="midnightblue" stroke="midnightblue" points="551.428,-166.837 561.244,-162.851 551.084,-159.846 551.428,-166.837"/>
</g>
<!-- Node7 -->
<g id="node7" class="node"><title>Node7</title>
<g id="a_node7"><a xlink:href="ioapi_8h.html#a39ab6d73c1cd44bc17064c2dcbb3e753" target="_top" xlink:title="voidpf">
<polygon fill="white" stroke="black" points="555,-0.518398 555,-19.5184 598,-19.5184 598,-0.518398 555,-0.518398"/>
<text text-anchor="middle" x="576.5" y="-7.5184" font-family="Helvetica,sans-Serif" font-size="10.00">voidpf</text>
</a>
</g>
</g>
<!-- Node1&#45;&gt;Node7 -->
<g id="edge16" class="edge"><title>Node1&#45;&gt;Node7</title>
<path fill="none" stroke="midnightblue" d="M61.0311,-95.453C76.023,-81.7754 105.761,-56.9661 136,-45.0184 280.184,11.9506 471.324,0.683623 544.869,-6.50664"/>
<polygon fill="midnightblue" stroke="midnightblue" points="544.542,-9.99139 554.846,-7.52931 545.255,-3.02787 544.542,-9.99139"/>
</g>
<!-- Node8 -->
<g id="node8" class="node"><title>Node8</title>
<g id="a_node8"><a xlink:href="zip_8c.html#a8f469d2f6ea68fbacf9f10d88f00b425" target="_top" xlink:title="zip64local_getLong64">
<polygon fill="white" stroke="black" points="136,-76.5184 136,-95.5184 246,-95.5184 246,-76.5184 136,-76.5184"/>
<text text-anchor="middle" x="191" y="-83.5184" font-family="Helvetica,sans-Serif" font-size="10.00">zip64local_getLong64</text>
</a>
</g>
</g>
<!-- Node1&#45;&gt;Node8 -->
<g id="edge13" class="edge"><title>Node1&#45;&gt;Node8</title>
<path fill="none" stroke="midnightblue" d="M100.006,-98.3197C108.321,-97.1832 117.065,-95.9879 125.701,-94.8074"/>
<polygon fill="midnightblue" stroke="midnightblue" points="126.324,-98.2549 135.758,-93.4327 125.376,-91.3194 126.324,-98.2549"/>
</g>
<!-- Node3&#45;&gt;Node2 -->
<g id="edge12" class="edge"><title>Node3&#45;&gt;Node2</title>
<path fill="none" stroke="midnightblue" d="M371.036,-95.5522C385.4,-98.8759 401.885,-102.42 417,-105.018 461.171,-112.612 512.787,-118.194 544.814,-121.275"/>
<polygon fill="midnightblue" stroke="midnightblue" points="544.601,-124.77 554.886,-122.224 545.258,-117.801 544.601,-124.77"/>
</g>
<!-- Node4 -->
<g id="node4" class="node"><title>Node4</title>
<g id="a_node4"><a xlink:href="ioapi_8h.html#a787fa3cf048117ba7123753c1e74fcd6" target="_top" xlink:title="int">
<polygon fill="white" stroke="black" points="453.5,-76.5184 453.5,-95.5184 482.5,-95.5184 482.5,-76.5184 453.5,-76.5184"/>
<text text-anchor="middle" x="468" y="-83.5184" font-family="Helvetica,sans-Serif" font-size="10.00">int</text>
</a>
</g>
</g>
<!-- Node3&#45;&gt;Node4 -->
<g id="edge3" class="edge"><title>Node3&#45;&gt;Node4</title>
<path fill="none" stroke="midnightblue" d="M381.058,-86.0184C402.168,-86.0184 425.947,-86.0184 443.132,-86.0184"/>
<polygon fill="midnightblue" stroke="midnightblue" points="443.379,-89.5185 453.379,-86.0184 443.379,-82.5185 443.379,-89.5185"/>
</g>
<!-- Node5 -->
<g id="node5" class="node"><title>Node5</title>
<g id="a_node5"><a xlink:href="zip_8c.html#a15321a6e2fcae4715b3874a1ce5576e0" target="_top" xlink:title="zip64local_getShort">
<polygon fill="white" stroke="black" points="417,-38.5184 417,-57.5184 519,-57.5184 519,-38.5184 417,-38.5184"/>
<text text-anchor="middle" x="468" y="-45.5184" font-family="Helvetica,sans-Serif" font-size="10.00">zip64local_getShort</text>
</a>
</g>
</g>
<!-- Node3&#45;&gt;Node5 -->
<g id="edge4" class="edge"><title>Node3&#45;&gt;Node5</title>
<path fill="none" stroke="midnightblue" d="M349.808,-76.426C364.386,-70.7651 386.135,-63.9491 406.954,-58.2677"/>
<polygon fill="midnightblue" stroke="midnightblue" points="407.979,-61.6168 416.742,-55.6629 406.179,-54.8522 407.979,-61.6168"/>
</g>
<!-- Node3&#45;&gt;Node6 -->
<g id="edge10" class="edge"><title>Node3&#45;&gt;Node6</title>
<path fill="none" stroke="midnightblue" d="M350.52,-95.6408C367.334,-104.302 393.315,-116.883 417,-125.018 463.377,-140.949 519.713,-152.284 551.194,-157.933"/>
<polygon fill="midnightblue" stroke="midnightblue" points="550.782,-161.414 561.236,-159.693 551.99,-154.519 550.782,-161.414"/>
</g>
<!-- Node3&#45;&gt;Node7 -->
<g id="edge11" class="edge"><title>Node3&#45;&gt;Node7</title>
<path fill="none" stroke="midnightblue" d="M343.032,-76.4288C358.159,-63.2721 387.481,-40.0076 417,-29.0184 459.237,-13.295 511.77,-9.88068 544.476,-9.48194"/>
<polygon fill="midnightblue" stroke="midnightblue" points="544.775,-12.9811 554.764,-9.44889 544.752,-5.98113 544.775,-12.9811"/>
</g>
<!-- Node5&#45;&gt;Node1 -->
<g id="edge7" class="edge"><title>Node5&#45;&gt;Node1</title>
<path fill="none" stroke="midnightblue" d="M416.826,-45.3238C351.253,-43.0599 233.31,-43.3212 136,-67.0184 115.125,-72.1019 93.0136,-82.1501 76.5767,-90.6375"/>
<polygon fill="midnightblue" stroke="midnightblue" points="74.7944,-87.6211 67.6068,-95.405 78.0797,-93.8022 74.7944,-87.6211"/>
</g>
<!-- Node5&#45;&gt;Node2 -->
<g id="edge5" class="edge"><title>Node5&#45;&gt;Node2</title>
<path fill="none" stroke="midnightblue" d="M500.409,-57.6002C506.809,-60.1907 513.317,-63.3234 519,-67.0184 535.515,-77.7556 551.021,-94.0172 561.595,-106.427"/>
<polygon fill="midnightblue" stroke="midnightblue" points="559.016,-108.801 568.079,-114.288 564.416,-104.347 559.016,-108.801"/>
</g>
<!-- Node5&#45;&gt;Node3 -->
<g id="edge6" class="edge"><title>Node5&#45;&gt;Node3</title>
<path fill="none" stroke="midnightblue" d="M449.64,-57.6308C434.641,-63.4517 412.075,-70.4898 390.741,-76.2595"/>
<polygon fill="midnightblue" stroke="midnightblue" points="389.835,-72.8787 381.058,-78.8122 391.619,-79.6475 389.835,-72.8787"/>
</g>
<!-- Node5&#45;&gt;Node6 -->
<g id="edge8" class="edge"><title>Node5&#45;&gt;Node6</title>
<path fill="none" stroke="midnightblue" d="M504.594,-57.6057C509.822,-60.084 514.839,-63.1747 519,-67.0184 546.454,-92.3796 532.894,-112.881 555,-143.018 555.452,-143.635 555.926,-144.247 556.418,-144.854"/>
<polygon fill="midnightblue" stroke="midnightblue" points="554.02,-147.412 563.438,-152.264 559.101,-142.597 554.02,-147.412"/>
</g>
<!-- Node5&#45;&gt;Node7 -->
<g id="edge9" class="edge"><title>Node5&#45;&gt;Node7</title>
<path fill="none" stroke="midnightblue" d="M495.874,-38.4294C510.837,-33.0907 529.516,-26.4259 545.021,-20.8935"/>
<polygon fill="midnightblue" stroke="midnightblue" points="546.439,-24.1038 554.681,-17.4467 544.087,-17.5109 546.439,-24.1038"/>
</g>
<!-- Node8&#45;&gt;Node3 -->
<g id="edge14" class="edge"><title>Node8&#45;&gt;Node3</title>
<path fill="none" stroke="midnightblue" d="M246.341,-86.0184C254.639,-86.0184 263.236,-86.0184 271.625,-86.0184"/>
<polygon fill="midnightblue" stroke="midnightblue" points="271.72,-89.5185 281.72,-86.0184 271.72,-82.5185 271.72,-89.5185"/>
</g>
</g>
</svg>
