<?xml version="1.0" encoding="UTF-8" standalone="no"?>
<!DOCTYPE svg PUBLIC "-//W3C//DTD SVG 1.1//EN"
 "http://www.w3.org/Graphics/SVG/1.1/DTD/svg11.dtd">
<!-- Generated by graphviz version 2.38.0 (20140413.2041)
 -->
<!-- Title: zipCloseFileInZipRaw64 Pages: 1 -->
<!--zoomable 214 -->
<svg id="main" version="1.1" xmlns="http://www.w3.org/2000/svg" xmlns:xlink="http://www.w3.org/1999/xlink" xml:space="preserve" onload="init(evt)">
<style type="text/css"><![CDATA[
.edge:hover path { stroke: red; }
.edge:hover polygon { stroke: red; fill: red; }
]]></style>
<script type="text/javascript"><![CDATA[
var edges = document.getElementsByTagName('g');
if (edges && edges.length) {
  for (var i=0;i<edges.length;i++) {
    if (edges[i].id.substr(0,4)=='edge') {
      edges[i].setAttribute('class','edge');
    }
  }
}
]]></script>
        <defs>
                <circle id="rim" cx="0" cy="0" r="7"/>
                <circle id="rim2" cx="0" cy="0" r="3.5"/>
                <g id="zoomPlus">
                        <use xlink:href="#rim" fill="#404040">
                                <set attributeName="fill" to="#808080" begin="zoomplus.mouseover" end="zoomplus.mouseout"/>
                        </use>
                        <path d="M-4,0h8M0,-4v8" fill="none" stroke="white" stroke-width="1.5" pointer-events="none"/>
                </g>
                <g id="zoomMin">
                        <use xlink:href="#rim" fill="#404040">
                                <set attributeName="fill" to="#808080" begin="zoomminus.mouseover" end="zoomminus.mouseout"/>
                        </use>
                        <path d="M-4,0h8" fill="none" stroke="white" stroke-width="1.5" pointer-events="none"/>
                </g>
                <g id="dirArrow">
                        <path fill="none" stroke="white" stroke-width="1.5" d="M0,-3.0v7 M-2.5,-0.5L0,-3.0L2.5,-0.5"/>
                </g>
               <g id="resetDef">
                       <use xlink:href="#rim2" fill="#404040">
                               <set attributeName="fill" to="#808080" begin="reset.mouseover" end="reset.mouseout"/>
                       </use>
               </g>
        </defs>

<script type="text/javascript">
var viewWidth = 580;
var viewHeight = 214;
var sectionId = 'dynsection-20';
</script>
<script xlink:href="svgpan.js"/>
<svg id="graph" class="graph">
<g id="viewport">
<title>zipCloseFileInZipRaw64</title>
<polygon fill="white" stroke="none" points="-4,4 -4,-210 576,-210 576,4 -4,4"/>
<!-- Node1 -->
<g id="node1" class="node"><title>Node1</title>
<polygon fill="#bfbfbf" stroke="black" points="0,-114.5 0,-133.5 123,-133.5 123,-114.5 0,-114.5"/>
<text text-anchor="middle" x="61.5" y="-121.5" font-family="Helvetica,sans-Serif" font-size="10.00">zipCloseFileInZipRaw64</text>
</g>
<!-- Node2 -->
<g id="node2" class="node"><title>Node2</title>
<g id="a_node2"><a xlink:href="ioapi_8h.html#a50e9e9d5c30e481de822ad68fe537986" target="_top" xlink:title="uLong">
<polygon fill="white" stroke="black" points="498.5,-186.5 498.5,-205.5 541.5,-205.5 541.5,-186.5 498.5,-186.5"/>
<text text-anchor="middle" x="520" y="-193.5" font-family="Helvetica,sans-Serif" font-size="10.00">uLong</text>
</a>
</g>
</g>
<!-- Node1&#45;&gt;Node2 -->
<g id="edge1" class="edge"><title>Node1&#45;&gt;Node2</title>
<path fill="none" stroke="midnightblue" d="M86.6955,-133.596C105.979,-140.858 133.826,-150.491 159,-156 278.96,-182.25 425.378,-191.727 488.091,-194.747"/>
<polygon fill="midnightblue" stroke="midnightblue" points="488.308,-198.26 498.458,-195.223 488.629,-191.268 488.308,-198.26"/>
</g>
<!-- Node3 -->
<g id="node3" class="node"><title>Node3</title>
<g id="a_node3"><a xlink:href="zip_8c.html#aacb39e685c358a284a9162e579793469" target="_top" xlink:title="zip64FlushWriteBuffer">
<polygon fill="white" stroke="black" points="160.5,-38.5 160.5,-57.5 273.5,-57.5 273.5,-38.5 160.5,-38.5"/>
<text text-anchor="middle" x="217" y="-45.5" font-family="Helvetica,sans-Serif" font-size="10.00">zip64FlushWriteBuffer</text>
</a>
</g>
</g>
<!-- Node1&#45;&gt;Node3 -->
<g id="edge2" class="edge"><title>Node1&#45;&gt;Node3</title>
<path fill="none" stroke="midnightblue" d="M76.6945,-114.313C95.0683,-102.083 128.369,-80.9605 159,-67 163.685,-64.8647 168.683,-62.8464 173.698,-60.9795"/>
<polygon fill="midnightblue" stroke="midnightblue" points="175.028,-64.2215 183.286,-57.5848 172.692,-57.6229 175.028,-64.2215"/>
</g>
<!-- Node4 -->
<g id="node4" class="node"><title>Node4</title>
<g id="a_node4"><a xlink:href="zip_8c.html#a472dc2ba2bf1d51a41e87cd97dbdb18b" target="_top" xlink:title="zip64local_putValue\l_inmemory">
<polygon fill="white" stroke="black" points="468,-134 468,-164 572,-164 572,-134 468,-134"/>
<text text-anchor="start" x="476" y="-152" font-family="Helvetica,sans-Serif" font-size="10.00">zip64local_putValue</text>
<text text-anchor="middle" x="520" y="-141" font-family="Helvetica,sans-Serif" font-size="10.00">_inmemory</text>
</a>
</g>
</g>
<!-- Node1&#45;&gt;Node4 -->
<g id="edge3" class="edge"><title>Node1&#45;&gt;Node4</title>
<path fill="none" stroke="midnightblue" d="M120.807,-133.524C133.374,-135.278 146.606,-136.901 159,-138 263.631,-147.282 385.961,-149.119 457.707,-149.285"/>
<polygon fill="midnightblue" stroke="midnightblue" points="457.913,-152.785 467.917,-149.298 457.922,-145.785 457.913,-152.785"/>
</g>
<!-- Node5 -->
<g id="node5" class="node"><title>Node5</title>
<g id="a_node5"><a xlink:href="zip_8c.html#af411f447b40db1fad258dee3b786ccc1" target="_top" xlink:title="add_data_in_datablock">
<polygon fill="white" stroke="black" points="159,-76.5 159,-95.5 275,-95.5 275,-76.5 159,-76.5"/>
<text text-anchor="middle" x="217" y="-83.5" font-family="Helvetica,sans-Serif" font-size="10.00">add_data_in_datablock</text>
</a>
</g>
</g>
<!-- Node1&#45;&gt;Node5 -->
<g id="edge4" class="edge"><title>Node1&#45;&gt;Node5</title>
<path fill="none" stroke="midnightblue" d="M101.235,-114.411C121.399,-109.419 146.248,-103.268 167.661,-97.9666"/>
<polygon fill="midnightblue" stroke="midnightblue" points="168.678,-101.321 177.544,-95.5201 166.996,-94.5257 168.678,-101.321"/>
</g>
<!-- Node7 -->
<g id="node7" class="node"><title>Node7</title>
<g id="a_node7"><a xlink:href="zip_8c.html#a5aeb27e162442455a221eb365c68f8d2" target="_top" xlink:title="zip64local_putValue">
<polygon fill="white" stroke="black" points="319.5,-114.5 319.5,-133.5 423.5,-133.5 423.5,-114.5 319.5,-114.5"/>
<text text-anchor="middle" x="371.5" y="-121.5" font-family="Helvetica,sans-Serif" font-size="10.00">zip64local_putValue</text>
</a>
</g>
</g>
<!-- Node1&#45;&gt;Node7 -->
<g id="edge12" class="edge"><title>Node1&#45;&gt;Node7</title>
<path fill="none" stroke="midnightblue" d="M123.351,-124C177.207,-124 255.41,-124 309.355,-124"/>
<polygon fill="midnightblue" stroke="midnightblue" points="309.47,-127.5 319.47,-124 309.47,-120.5 309.47,-127.5"/>
</g>
<!-- Node6 -->
<g id="node6" class="node"><title>Node6</title>
<g id="a_node6"><a xlink:href="zip_8c.html#a86c6b1ea8228286351584adc3d47b07c" target="_top" xlink:title="allocate_new_datablock">
<polygon fill="white" stroke="black" points="311,-38.5 311,-57.5 432,-57.5 432,-38.5 311,-38.5"/>
<text text-anchor="middle" x="371.5" y="-45.5" font-family="Helvetica,sans-Serif" font-size="10.00">allocate_new_datablock</text>
</a>
</g>
</g>
<!-- Node5&#45;&gt;Node6 -->
<g id="edge5" class="edge"><title>Node5&#45;&gt;Node6</title>
<path fill="none" stroke="midnightblue" d="M256.482,-76.411C276.516,-71.4191 301.202,-65.2676 322.476,-59.9666"/>
<polygon fill="midnightblue" stroke="midnightblue" points="323.438,-63.3341 332.295,-57.5201 321.745,-56.5418 323.438,-63.3341"/>
</g>
<!-- Node5&#45;&gt;Node7 -->
<g id="edge6" class="edge"><title>Node5&#45;&gt;Node7</title>
<path fill="none" stroke="midnightblue" d="M256.482,-95.589C276.516,-100.581 301.202,-106.732 322.476,-112.033"/>
<polygon fill="midnightblue" stroke="midnightblue" points="321.745,-115.458 332.295,-114.48 323.438,-108.666 321.745,-115.458"/>
</g>
<!-- Node8 -->
<g id="node8" class="node"><title>Node8</title>
<g id="a_node8"><a xlink:href="zip_8c.html#aeceecbdb8a6daac5791ebba72d0bf346" target="_top" xlink:title="OF">
<polygon fill="white" stroke="black" points="505,-89.5 505,-108.5 535,-108.5 535,-89.5 505,-89.5"/>
<text text-anchor="middle" x="520" y="-96.5" font-family="Helvetica,sans-Serif" font-size="10.00">OF</text>
</a>
</g>
</g>
<!-- Node5&#45;&gt;Node8 -->
<g id="edge10" class="edge"><title>Node5&#45;&gt;Node8</title>
<path fill="none" stroke="midnightblue" d="M275.324,-88.4758C341.489,-91.3334 447.266,-95.9018 494.655,-97.9485"/>
<polygon fill="midnightblue" stroke="midnightblue" points="494.734,-101.455 504.876,-98.39 495.036,-94.4617 494.734,-101.455"/>
</g>
<!-- Node9 -->
<g id="node9" class="node"><title>Node9</title>
<g id="a_node9"><a xlink:href="ioapi_8h.html#a39ab6d73c1cd44bc17064c2dcbb3e753" target="_top" xlink:title="voidpf">
<polygon fill="white" stroke="black" points="350,-0.5 350,-19.5 393,-19.5 393,-0.5 350,-0.5"/>
<text text-anchor="middle" x="371.5" y="-7.5" font-family="Helvetica,sans-Serif" font-size="10.00">voidpf</text>
</a>
</g>
</g>
<!-- Node5&#45;&gt;Node9 -->
<g id="edge11" class="edge"><title>Node5&#45;&gt;Node9</title>
<path fill="none" stroke="midnightblue" d="M255.392,-76.4743C262.191,-73.9369 269.017,-70.8103 275,-67 294.623,-54.5029 291.298,-41.3726 311,-29 319.792,-23.4786 330.33,-19.4295 340.078,-16.5239"/>
<polygon fill="midnightblue" stroke="midnightblue" points="341.098,-19.8741 349.845,-13.896 339.279,-13.1145 341.098,-19.8741"/>
</g>
<!-- Node7&#45;&gt;Node2 -->
<g id="edge7" class="edge"><title>Node7&#45;&gt;Node2</title>
<path fill="none" stroke="midnightblue" d="M390.671,-133.669C409.783,-143.757 440.802,-159.9 468,-173 474.585,-176.172 481.705,-179.466 488.477,-182.537"/>
<polygon fill="midnightblue" stroke="midnightblue" points="487.491,-185.931 498.047,-186.836 490.359,-179.545 487.491,-185.931"/>
</g>
<!-- Node7&#45;&gt;Node4 -->
<g id="edge8" class="edge"><title>Node7&#45;&gt;Node4</title>
<path fill="none" stroke="midnightblue" d="M423.739,-132.744C434.604,-134.598 446.183,-136.574 457.388,-138.486"/>
<polygon fill="midnightblue" stroke="midnightblue" points="457.096,-141.987 467.543,-140.219 458.274,-135.087 457.096,-141.987"/>
</g>
<!-- Node7&#45;&gt;Node8 -->
<g id="edge9" class="edge"><title>Node7&#45;&gt;Node8</title>
<path fill="none" stroke="midnightblue" d="M423.739,-115.256C447.854,-111.141 475.479,-106.427 494.748,-103.139"/>
<polygon fill="midnightblue" stroke="midnightblue" points="495.509,-106.559 504.778,-101.427 494.332,-99.6591 495.509,-106.559"/>
</g>
</g>
</svg>
        <g id="navigator" transform="translate(0 0)" fill="#404254">
                <rect fill="#f2f5e9" fill-opacity="0.5" stroke="#606060" stroke-width=".5" x="0" y="0" width="60" height="60"/>
                <use id="zoomplus" xlink:href="#zoomPlus" x="17" y="9" onmousedown="handleZoom(evt,'in')"/>
                <use id="zoomminus" xlink:href="#zoomMin" x="42" y="9" onmousedown="handleZoom(evt,'out')"/>
                <use id="reset" xlink:href="#resetDef" x="30" y="36" onmousedown="handleReset()"/>
                <g id="arrowUp" xlink:href="#dirArrow" transform="translate(30 24)" onmousedown="handlePan(0,-1)">
                  <use xlink:href="#rim" fill="#404040">
                        <set attributeName="fill" to="#808080" begin="arrowUp.mouseover" end="arrowUp.mouseout"/>
                  </use>
                  <path fill="none" stroke="white" stroke-width="1.5" d="M0,-3.0v7 M-2.5,-0.5L0,-3.0L2.5,-0.5"/>
                </g>
                <g id="arrowRight" xlink:href="#dirArrow" transform="rotate(90) translate(36 -43)" onmousedown="handlePan(1,0)">
                  <use xlink:href="#rim" fill="#404040">
                        <set attributeName="fill" to="#808080" begin="arrowRight.mouseover" end="arrowRight.mouseout"/>
                  </use>
                  <path fill="none" stroke="white" stroke-width="1.5" d="M0,-3.0v7 M-2.5,-0.5L0,-3.0L2.5,-0.5"/>
                </g>
                <g id="arrowDown" xlink:href="#dirArrow" transform="rotate(180) translate(-30 -48)" onmousedown="handlePan(0,1)">
                  <use xlink:href="#rim" fill="#404040">
                        <set attributeName="fill" to="#808080" begin="arrowDown.mouseover" end="arrowDown.mouseout"/>
                  </use>
                  <path fill="none" stroke="white" stroke-width="1.5" d="M0,-3.0v7 M-2.5,-0.5L0,-3.0L2.5,-0.5"/>
                </g>
                <g id="arrowLeft" xlink:href="#dirArrow" transform="rotate(270) translate(-36 17)" onmousedown="handlePan(-1,0)">
                  <use xlink:href="#rim" fill="#404040">
                        <set attributeName="fill" to="#808080" begin="arrowLeft.mouseover" end="arrowLeft.mouseout"/>
                  </use>
                  <path fill="none" stroke="white" stroke-width="1.5" d="M0,-3.0v7 M-2.5,-0.5L0,-3.0L2.5,-0.5"/>
                </g>
        </g>
        <svg viewBox="0 0 15 15" width="100%" height="30px" preserveAspectRatio="xMaxYMin meet">
         <g id="arrow_out" transform="scale(0.3 0.3)">
          <a xlink:href="zip_8c_a3bed1cfe7ae981d2a433a1dbdb2cc436_cgraph_org.svg" target="_base">
           <rect id="button" ry="5" rx="5" y="6" x="6" height="38" width="38"
                fill="#f2f5e9" fill-opacity="0.5" stroke="#606060" stroke-width="1.0"/>
           <path id="arrow"
             d="M 11.500037,31.436501 C 11.940474,20.09759 22.043105,11.32322 32.158766,21.979434 L 37.068811,17.246167 C 37.068811,17.246167 37.088388,32 37.088388,32 L 22.160133,31.978069 C 22.160133,31.978069 26.997745,27.140456 26.997745,27.140456 C 18.528582,18.264221 13.291696,25.230495 11.500037,31.436501 z"
             style="fill:#404040;"/>
          </a>
         </g>
        </svg>
</svg>
